<svg width="24" height="24" viewBox="0 0 24 24" fill="none" xmlns="http://www.w3.org/2000/svg">
<path d="M19 4C18.4477 4 18 4.44772 18 5V7H16C15.4477 7 15 7.44771 15 8C15 8.55228 15.4477 9 16 9H18V11C18 11.5523 18.4477 12 19 12C19.5523 12 20 11.5523 20 11V9H22C22.5523 9 23 8.55228 23 8C23 7.44772 22.5523 7 22 7H20V5C20 4.44772 19.5523 4 19 4Z" fill="black"/>
<path d="M3 20L8.68038 4H11.4268L17 20H13.9284L12.8855 16.5581H7.12531L6.07014 20H3ZM12.222 14.337L10.0514 7.13132L7.82239 14.337H12.222Z" fill="black"/>
</svg>
