<?xml version="1.0" encoding="UTF-8"?>
<svg width="24px" height="24px" viewBox="0 0 24 24" version="1.1" xmlns="http://www.w3.org/2000/svg" xmlns:xlink="http://www.w3.org/1999/xlink">
    <!-- Generator: Sketch 52.6 (67491) - http://www.bohemiancoding.com/sketch -->
    <title>academic</title>
    <desc>Created with Sketch.</desc>
    <defs>
        <path d="M17.3993056,11.3460976 L17.5555556,14.1785366 C17.625,15.442378 15.0642361,16.4731707 12,16.4731707 C8.93576389,16.4731707 6.375,15.442378 6.44444444,14.1785366 L6.60069444,11.3460976 L11.5833333,12.9684756 C11.7222222,13.0132927 11.8611111,13.0312195 12,13.0312195 C12.1388889,13.0312195 12.2777778,13.0132927 12.4166667,12.9684756 L17.3993056,11.3460976 Z M22,8.44195122 C22,8.56743902 21.921875,8.675 21.8090278,8.71981707 L12.0868056,11.874939 C12.0520833,11.8839024 12.0260417,11.8839024 12,11.8839024 C11.9739583,11.8839024 11.9479167,11.8839024 11.9131944,11.874939 L6.25347222,10.0284756 C5.75868056,10.4318293 5.41145833,11.4178049 5.34201389,12.6278659 C5.671875,12.825061 5.88888889,13.1835976 5.88888889,13.604878 C5.88888889,14.0082317 5.68923611,14.3578049 5.38541667,14.5639634 L5.88888889,18.445122 C5.89756944,18.5257927 5.87152778,18.6064634 5.81944444,18.6692073 C5.76736111,18.7319512 5.68923611,18.7678049 5.61111111,18.7678049 L3.94444444,18.7678049 C3.86631944,18.7678049 3.78819444,18.7319512 3.73611111,18.6692073 C3.68402778,18.6064634 3.65798611,18.5257927 3.66666667,18.445122 L4.17013889,14.5639634 C3.86631944,14.3578049 3.66666667,14.0082317 3.66666667,13.604878 C3.66666667,13.1746341 3.90104167,12.8071341 4.23090278,12.609939 C4.28298611,11.5612195 4.54340278,10.4318293 5.08159722,9.6520122 L2.19097222,8.71981707 C2.078125,8.675 2,8.56743902 2,8.44195122 C2,8.31646341 2.078125,8.20890244 2.19097222,8.16408537 L11.9131944,5.00896341 C11.9479167,5 11.9739583,5 12,5 C12.0260417,5 12.0520833,5 12.0868056,5.00896341 L21.8090278,8.16408537 C21.921875,8.20890244 22,8.31646341 22,8.44195122 Z" id="path-1"></path>
    </defs>
    <g id="academic" stroke="none" stroke-width="1" fill="none" fill-rule="evenodd">
        <mask id="mask-2" fill="white">
            <use xlink:href="#path-1"></use>
        </mask>
        <use id="fa-graduation-cap" fill="#000000" xlink:href="#path-1"></use>
    </g>
</svg>