<svg width="24" height="24" viewBox="0 0 24 24" fill="none" xmlns="http://www.w3.org/2000/svg">
<path fill-rule="evenodd" clip-rule="evenodd" d="M2.00033 12.0667C1.95589 6.55556 6.4224 2.04444 12 2C17.4887 2 21.9552 6.46667 21.9997 11.9333C22.0219 14.6 20.9775 17.1111 19.1109 19.0222C17.2443 20.9333 14.7332 21.9778 12.0667 22H12C6.51129 22 2.04477 17.5333 2.00033 12.0667ZM16.4998 12.4236H18.5094C18.8589 12.4236 19.1429 12.1018 19.1429 11.734C19.1429 11.3662 18.8589 11.0673 18.5094 11.0673H16.9367L15.4513 6.7225C15.3639 6.44663 15.1236 6.28571 14.8397 6.28571C14.5775 6.28571 14.3373 6.46962 14.2499 6.74548L12.1311 13.757L10.0122 8.7225C9.92486 8.49261 9.72827 8.35468 9.48799 8.33169C9.24771 8.3087 9.02927 8.42365 8.89821 8.63054L7.34731 11.0903H5.49061C5.14111 11.0903 4.85714 11.3892 4.85714 11.757C4.85714 12.1248 5.14111 12.4236 5.49061 12.4236H7.69681C7.91525 12.4236 8.11184 12.3087 8.22106 12.1248L9.33508 10.3777L11.6723 15.8949C11.7597 16.1248 12 16.2857 12.2403 16.2857H12.284C12.5461 16.2857 12.7645 16.1018 12.8519 15.8259L14.8834 9.04433L15.91 11.9869C15.9974 12.2397 16.2377 12.4236 16.4998 12.4236Z" fill="black"/>
</svg>
