<?xml version="1.0" encoding="UTF-8"?>
<svg width="24px" height="24px" viewBox="0 0 24 24" version="1.1" xmlns="http://www.w3.org/2000/svg" xmlns:xlink="http://www.w3.org/1999/xlink">
    <!-- Generator: Sketch 52.5 (67469) - http://www.bohemiancoding.com/sketch -->
    <title>/activity</title>
    <desc>Created with Sketch.</desc>
    <defs>
        <path d="M11.9999907,2 C6.42240149,2.04444444 1.95588586,6.55555556 2.0003288,12.0666667 C2.04477175,17.5333333 6.51128737,22 11.9999907,22 C11.9999907,22 12.0666551,22 12.0666551,22 C14.7332316,21.9777778 17.2442578,20.9333333 19.1108613,19.0222222 C20.9774649,17.1111111 22.021874,14.6 21.9996525,11.9333333 C21.9552096,6.46666667 17.4886939,2 11.9999907,2 Z M18.5093927,12.4236453 L16.4997816,12.4236453 C16.2376584,12.4236453 15.9973788,12.2397373 15.9100044,11.9868637 L14.8833552,9.04433498 L12.8519004,15.8259442 C12.764526,16.1018062 12.54609,16.2857143 12.2839668,16.2857143 C12.2621232,16.2857143 12.2621232,16.2857143 12.2402796,16.2857143 C12,16.2857143 11.7597204,16.1247947 11.672346,15.8949097 L9.33508082,10.3776683 L8.22105723,12.1247947 C8.11183923,12.3087028 7.91524683,12.4236453 7.69681083,12.4236453 L5.49060725,12.4236453 C5.14110965,12.4236453 4.85714286,12.1247947 4.85714286,11.7569787 C4.85714286,11.3891626 5.14110965,11.090312 5.49060725,11.090312 L7.34731324,11.090312 L8.89820882,8.63054187 C9.02927042,8.42364532 9.24770642,8.30870279 9.48798602,8.3316913 C9.72826562,8.3546798 9.92485802,8.49261084 10.0122324,8.72249589 L12.1310616,13.7569787 L14.2498908,6.7454844 C14.3372652,6.46962233 14.5775448,6.28571429 14.839668,6.28571429 C15.1236348,6.28571429 15.3639144,6.44663383 15.4512888,6.72249589 L16.9366536,11.0673235 L18.5093927,11.0673235 C18.8588903,11.0673235 19.1428571,11.3661741 19.1428571,11.7339901 C19.1428571,12.1018062 18.8588903,12.4236453 18.5093927,12.4236453 Z" id="path-1"></path>
    </defs>
    <g id="/activity" stroke="none" stroke-width="1" fill="none" fill-rule="evenodd">
        <mask id="mask-2" fill="white">
            <use xlink:href="#path-1"></use>
        </mask>
        <use id="Shape" fill="#000000" fill-rule="nonzero" xlink:href="#path-1"></use>
    </g>
</svg>