<?xml version="1.0" encoding="UTF-8"?>
<svg width="24px" height="24px" viewBox="0 0 24 24" version="1.1" xmlns="http://www.w3.org/2000/svg" xmlns:xlink="http://www.w3.org/1999/xlink">
    <!-- Generator: Sketch 52.5 (67469) - http://www.bohemiancoding.com/sketch -->
    <title>/ addimage</title>
    <desc>Created with Sketch.</desc>
    <defs>
        <path d="M17,17 L17,15 C17,14.4477153 17.4477153,14 18,14 L18.0026537,14 C18.5549385,14 19.0026537,14.4477153 19.0026537,15 L19.0026537,17 L21,17 C21.5522847,17 22,17.4477153 22,18 L22,18.0026537 C22,18.5549385 21.5522847,19.0026537 21,19.0026537 L19.0026537,19.0026537 L19.0026537,21 C19.0026537,21.5522847 18.5549385,22 18.0026537,22 L18,22 C17.4477153,22 17,21.5522847 17,21 L17,19.0026537 L15,19.0026537 C14.4477153,19.0026537 14,18.5549385 14,18.0026537 L14,18 C14,17.4477153 14.4477153,17 15,17 L17,17 Z M21.9423875,13.4768796 C21.3779862,12.9845319 20.7205818,12.5961005 20,12.3414114 L20,6.29994261 C20,6.21868418 19.9695508,6.14847505 19.9087704,6.08896993 C19.84799,6.02969501 19.7758796,6 19.6926754,6 L4.30767869,6 C4.22435642,6 4.15224607,6.02969501 4.09134764,6.08896993 C4.03033119,6.14847505 4,6.21868418 4,6.29994261 L4,17.7027111 C4,17.7840846 4.03044921,17.8542938 4.09134764,17.9137989 C4.15224607,17.9730738 4.22435642,18.0026537 4.30767869,18.0026537 L12.0000006,18.0026537 C12.0003037,18.7029691 12.1205874,19.3752313 12.3414114,20 L2.99180311,20 C2.45530558,20 2,19.5518945 2,18.9991283 L2,5.00087166 C2,4.44463086 2.44700107,4 2.99840482,4 L20.8602825,4 C21.4065988,4 21.862645,4.4481055 21.8675271,5.00087166 L21.9423875,13.4768796 Z M9.86651925,14.6359044 L16.0230482,9 L18,12.1111111 C18,12.1111111 16.6355904,11.7202078 14.3989349,13.1765107 C12.1622795,14.6328136 12.4686276,16 12.4686276,16 L6,16 L6.01014208,14.6359044 L8,12.9954712 L9.86651925,14.6359044 Z M9.17744988,11.1774499 C8.81574638,11.5391534 8.37663691,11.7198862 7.85988366,11.7198862 C7.34324931,11.7198862 6.90413984,11.5390345 6.54243634,11.1774499 C6.18073284,10.8158653 6,10.3766369 6,9.86000256 C6,9.34324931 6.18085175,8.90413984 6.54243634,8.54243634 C6.90413984,8.18085175 7.34324931,8 7.85988366,8 C8.37663691,8 8.81574638,8.18085175 9.17744988,8.54243634 C9.53891556,8.90413984 9.71988622,9.34324931 9.71988622,9.86000256 C9.71988622,10.3766369 9.53903447,10.8157464 9.17744988,11.1774499 Z" id="path-1"></path>
    </defs>
    <g id="/-addimage" stroke="none" stroke-width="1" fill="none" fill-rule="evenodd">
        <mask id="mask-2" fill="white">
            <use xlink:href="#path-1"></use>
        </mask>
        <use id="Combined-Shape" fill="#000000" xlink:href="#path-1"></use>
    </g>
</svg>