<?xml version="1.0" encoding="UTF-8"?>
<svg width="24px" height="24px" viewBox="0 0 24 24" version="1.1" xmlns="http://www.w3.org/2000/svg" xmlns:xlink="http://www.w3.org/1999/xlink">
    <!-- Generator: Sketch 52.5 (67469) - http://www.bohemiancoding.com/sketch -->
    <title> addusers</title>
    <desc>Created with Sketch.</desc>
    <defs>
        <path d="M19,19 L19,21 C19,21.5522847 18.5522847,22 18,22 C17.4477153,22 17,21.5522847 17,21 L17,19 L15,19 C14.4477153,19 14,18.5522847 14,18 C14,17.4477153 14.4477153,17 15,17 L17,17 L17,15 C17,14.4477153 17.4477153,14 18,14 C18.5522847,14 19,14.4477153 19,15 L19,17 L21,17 C21.5522847,17 22,17.4477153 22,18 C22,18.5522847 21.5522847,19 21,19 L19,19 Z M15.5242031,12.8789357 C15.0216113,13.138386 14.5962433,13.4958232 14.0391508,14.1999325 C13.0825726,13.3277827 11.851952,12.8013592 10.5100761,12.8013592 C7.47217359,12.8013592 5.00004071,15.4941496 5.00004071,18.803387 L5.00004071,20.0159757 C5.00004071,20.559532 4.5522941,21 4.00028498,21 C3.44774661,21 3,20.559532 3,20.0159757 L3,18.803387 C3,15.6862686 4.69572121,12.9835859 7.15885682,11.6741567 C5.85954484,10.6854465 5.02015226,9.13808128 5.02015226,7.40067958 C5.02015226,4.42257419 7.48275862,2 10.5100761,2 C13.5373936,2 16,4.42257419 16,7.40067958 C16,9.13808128 15.1606074,10.6854465 13.8612954,11.6741567 C14.4667589,11.995917 15.0251191,12.4030636 15.5242031,12.8789357 Z M7,7.5 C7,9.42993631 8.57006369,11 10.5,11 C12.4299363,11 14,9.42993631 14,7.5 C14,5.57006369 12.4299363,4 10.5,4 C8.57006369,4 7,5.57006369 7,7.5 Z" id="path-1"></path>
    </defs>
    <g id="-addusers" stroke="none" stroke-width="1" fill="none" fill-rule="evenodd">
        <mask id="mask-2" fill="white">
            <use xlink:href="#path-1"></use>
        </mask>
        <use id="Mask" fill="#000000" xlink:href="#path-1"></use>
    </g>
</svg>