<?xml version="1.0" encoding="UTF-8"?>
<svg width="24px" height="24px" viewBox="0 0 24 24" version="1.1" xmlns="http://www.w3.org/2000/svg" xmlns:xlink="http://www.w3.org/1999/xlink">
    <!-- Generator: Sketch 52.6 (67491) - http://www.bohemiancoding.com/sketch -->
    <title>align-c</title>
    <desc>Created with Sketch.</desc>
    <defs>
        <path d="M20.809152,17.1484323 C20.936384,17.2473871 21,17.3645604 21,17.4999521 L21,18.4999521 C21,18.6353438 20.936384,18.7526129 20.809152,18.8516636 C20.68192,18.9504267 20.5311402,19 20.3570592,19 L3.6429408,19 C3.4688598,19 3.3182033,18.9504267 3.19084801,18.8516636 C3.063616,18.7526129 3,18.6353438 3,18.4999521 L3,17.4999521 C3,17.3645604 3.063616,17.2473871 3.19084801,17.1484323 C3.31808001,17.0494774 3.46873652,17 3.6429408,17 L20.3570592,17 C20.5311402,17 20.68192,17.0494774 20.809152,17.1484323 Z M5.6364413,15 C5.46412009,15 5.31498658,14.9505226 5.18891872,14.8515677 C5.06297291,14.7527088 5,14.6354396 5,14.5000479 L5,13.5000479 C5,13.3647521 5.06297291,13.2473871 5.18891872,13.1485281 C5.31486454,13.0495733 5.46399805,13 5.6364413,13 L18.3635587,13 C18.5358799,13 18.6851355,13.0495733 18.8109592,13.1485281 C18.9369051,13.2473871 19,13.3647521 19,13.5000479 L19,14.4999521 C19,14.6353438 18.9369051,14.7526129 18.8109592,14.8514719 C18.6851355,14.9504267 18.5358799,15 18.3635587,15 L5.6364413,15 Z M4.61546632,11 C4.44882424,11 4.30460567,10.9504267 4.18269259,10.8514719 C4.06089753,10.7526129 4,10.6353438 4,10.4999521 L4,9.49995206 C4,9.36456036 4.06089753,9.24738709 4.18269259,9.14843226 C4.30448765,9.04947742 4.44870622,9 4.61546632,9 L19.3847697,9 C19.5514118,9 19.6956304,9.04947742 19.8174254,9.14843226 C19.9391025,9.24738709 20,9.36446447 20,9.49995206 L20,10.4999521 C20,10.6353438 19.9391025,10.7526129 19.8174254,10.8514719 C19.6956304,10.9504267 19.5514118,11 19.3847697,11 L4.61546632,11 Z M6.60008055,7 C6.43760428,7 6.29699097,6.95052258 6.17812554,6.85156774 C6.05937518,6.75261291 6,6.63543964 6,6.50004794 L6,5.50004794 C6,5.36465625 6.05937518,5.24738709 6.17812554,5.14843226 C6.2968759,5.04957331 6.43748921,5 6.60008055,5 L17.3999195,5 C17.5623957,5 17.7031241,5.04957331 17.8219895,5.14843226 C17.9406248,5.24748298 18,5.36465625 18,5.50004794 L18,6.50004794 C18,6.63543964 17.9406248,6.75261291 17.8219895,6.85156774 C17.7031241,6.95052258 17.5623957,7 17.3999195,7 L6.60008055,7 Z" id="path-1"></path>
    </defs>
    <g id="align-c" stroke="none" stroke-width="1" fill="none" fill-rule="evenodd">
        <mask id="mask-2" fill="white">
            <use xlink:href="#path-1"></use>
        </mask>
        <use id="r-align" fill="#000000" xlink:href="#path-1"></use>
    </g>
</svg>