<?xml version="1.0" encoding="UTF-8"?>
<svg width="24px" height="24px" viewBox="0 0 24 24" version="1.1" xmlns="http://www.w3.org/2000/svg" xmlns:xlink="http://www.w3.org/1999/xlink">
    <!-- Generator: Sketch 52.6 (67491) - http://www.bohemiancoding.com/sketch -->
    <title>arrow-down-rect</title>
    <desc>Created with Sketch.</desc>
    <g id="arrow-down-rect" stroke="none" stroke-width="1" fill="none" fill-rule="evenodd">
        <g id="Mask" transform="translate(3.000000, 3.000000)" fill="#000000">
            <path d="M9.0366,3.6007 L8.5156,3.6007 C8.4076,3.6007 8.3176,3.6357 8.2476,3.7027 C8.1786,3.7707 8.1436,3.8577 8.1436,3.9637 L8.1436,11.1157 L4.9116,9.2927 C4.7566,9.2927 4.6426,9.3657 4.5736,9.5087 C4.5116,9.6517 4.5316,9.7857 4.6316,9.9057 L8.7916,14.2857 C8.8696,14.3607 8.9636,14.3987 9.0716,14.3987 C9.1806,14.3987 9.2736,14.3607 9.3506,14.2857 L13.5116,9.9057 C13.6126,9.7857 13.6316,9.6517 13.5706,9.5087 C13.5006,9.3657 13.3866,9.2927 13.2326,9.2927 L9.9996,11.1157 L9.9996,3.9637 C9.9996,3.8577 9.9646,3.7707 9.8946,3.7027 C9.8256,3.6357 9.7356,3.6007 9.6276,3.6007 L9.1066,3.6007 L9.0366,3.6007 Z" id="Fill-4"></path>
            <path d="M15.4648,16.0001 L2.5348,16.0001 C2.2388,16.0001 1.9998,15.7601 1.9998,15.4651 L1.9998,2.5351 C1.9998,2.2391 2.2388,2.0001 2.5348,2.0001 L15.4648,2.0001 C15.7608,2.0001 15.9998,2.2391 15.9998,2.5351 L15.9998,15.4651 C15.9998,15.7601 15.7608,16.0001 15.4648,16.0001 M15.9998,0.0001 L1.9998,0.0001 C0.8958,0.0001 -0.0002,0.8961 -0.0002,2.0001 L-0.0002,16.0001 C-0.0002,17.1041 0.8958,18.0001 1.9998,18.0001 L15.9998,18.0001 C17.1048,18.0001 17.9998,17.1041 17.9998,16.0001 L17.9998,2.0001 C17.9998,0.8961 17.1048,0.0001 15.9998,0.0001" id="Fill-1"></path>
        </g>
    </g>
</svg>