<svg width="24" height="24" viewBox="0 0 24 24" fill="none" xmlns="http://www.w3.org/2000/svg">
<path fill-rule="evenodd" clip-rule="evenodd" d="M12.0366 6.60071H11.5156C11.4076 6.60071 11.3176 6.63571 11.2476 6.70271C11.1786 6.77071 11.1436 6.85771 11.1436 6.96371V14.1157L7.9116 12.2927C7.7566 12.2927 7.6426 12.3657 7.5736 12.5087C7.5116 12.6517 7.5316 12.7857 7.6316 12.9057L11.7916 17.2857C11.8696 17.3607 11.9636 17.3987 12.0716 17.3987C12.1806 17.3987 12.2736 17.3607 12.3506 17.2857L16.5116 12.9057C16.6126 12.7857 16.6316 12.6517 16.5706 12.5087C16.5006 12.3657 16.3866 12.2927 16.2326 12.2927L12.9996 14.1157V6.96371C12.9996 6.85771 12.9646 6.77071 12.8946 6.70271C12.8256 6.63571 12.7356 6.60071 12.6276 6.60071H12.1066H12.0366Z" fill="black"/>
<path fill-rule="evenodd" clip-rule="evenodd" d="M18.4648 19.0001H5.53482C5.23882 19.0001 4.99982 18.7601 4.99982 18.4651V5.53509C4.99982 5.23909 5.23882 5.00009 5.53482 5.00009H18.4648C18.7608 5.00009 18.9998 5.23909 18.9998 5.53509V18.4651C18.9998 18.7601 18.7608 19.0001 18.4648 19.0001ZM18.9998 3.00009H4.99982C3.89582 3.00009 2.99982 3.89609 2.99982 5.00009V19.0001C2.99982 20.1041 3.89582 21.0001 4.99982 21.0001H18.9998C20.1048 21.0001 20.9998 20.1041 20.9998 19.0001V5.00009C20.9998 3.89609 20.1048 3.00009 18.9998 3.00009Z" fill="black"/>
</svg>
