<svg width="24" height="24" viewBox="0 0 24 24" fill="none" xmlns="http://www.w3.org/2000/svg">
<path d="M11.0084 14.7739V14.899L11.3569 17H12.6443L12.993 14.899L12.9977 14.7761C13.6176 14.9917 14.1964 15.3853 14.6541 15.9324C14.7834 16.0869 15.0786 15.9509 14.9803 15.782C14.5204 14.9915 13.8387 14.4686 13.0084 14.196V11.5691C13.4376 11.2304 13.8407 10.6986 13.9948 9.99655C14.048 9.75429 13.9422 9.50418 13.7271 9.38028C13.4227 9.20468 12.8808 9 12.0086 9C11.1362 9 10.5943 9.20468 10.2898 9.38028C10.0746 9.50418 9.96878 9.75429 10.022 9.99655C10.1761 10.6985 10.5792 11.2303 11.0084 11.569V14.1905C10.1705 14.4616 9.48281 14.9862 9.01965 15.782C8.92145 15.9509 9.21657 16.0869 9.34588 15.9324C9.80503 15.3835 10.3862 14.9891 11.0084 14.7739ZM16.3898 9.70827C16.408 9.75727 16.4179 9.8102 16.4179 9.86541C16.4179 10.1182 16.2097 10.3231 15.9531 10.3231C15.6965 10.3231 15.4884 10.1182 15.4884 9.86541C15.4884 9.84245 15.4901 9.81989 15.4934 9.79784L15.2087 9.82629C15.0844 9.83877 14.9998 9.96866 15.0292 10.1037C15.1617 10.7142 15.6387 12.2002 17.1299 12.0511C17.3757 12.0266 17.5848 11.964 17.7625 11.8738C18.5399 13.8943 18.954 16.4062 18.9999 19.1415C17.1962 20.9097 14.7254 22 12 22C9.27878 22 6.81142 20.9131 5.00841 19.1497C5.05361 16.4161 5.46634 13.9053 6.24181 11.8846C6.41481 11.969 6.61685 12.0275 6.85271 12.0511C8.34391 12.2002 8.82096 10.7142 8.95345 10.1037C8.98285 9.96866 8.89823 9.83877 8.77389 9.82629L8.48919 9.79784C8.4925 9.81989 8.49421 9.84245 8.49421 9.86541C8.49421 10.1182 8.28615 10.3231 8.02954 10.3231C7.77289 10.3231 7.56469 10.1182 7.56469 9.86541C7.56469 9.8102 7.57461 9.75727 7.59279 9.70827L7.36422 9.68543C8.5032 8.00294 10.0518 7 12.0042 7C13.9557 7 15.5038 8.00198 16.6426 9.68301L16.3898 9.70827ZM5.82158 10.914C5.80855 10.8853 5.79616 10.8561 5.7844 10.8265C5.87494 10.6374 6.0462 10.3462 6.29817 9.95311C6.41317 9.96469 6.48785 9.9722 6.52222 9.97563C6.52279 9.97569 6.49995 10.5752 6.88296 11.0168C7.24489 11.4342 7.7927 11.4614 7.79321 11.46C7.547 11.6397 7.25214 11.7176 6.89079 11.6815C6.3604 11.6285 6.02611 11.364 5.82158 10.914ZM18.161 10.914C17.9565 11.364 17.6222 11.6285 17.0918 11.6815C16.7305 11.7176 16.4356 11.6397 16.1894 11.46C16.1899 11.4614 16.7377 11.4342 17.0997 11.0168C17.4827 10.5752 17.4598 9.97569 17.4604 9.97563C17.4935 9.97232 17.5647 9.96517 17.674 9.95417C17.8239 10.1715 17.9969 10.4667 18.1929 10.8398C18.1827 10.8649 18.1721 10.8896 18.161 10.914ZM11.5021 14.1551C11.4624 14.0038 11.9984 14.0001 11.9984 14.0001C11.9984 14.0001 12.5375 13.9927 12.4979 14.1431L12.1199 15.5815C12.1078 15.6175 12.0515 15.6329 11.9984 15.6303C11.9453 15.6329 11.889 15.6175 11.8769 15.5815C11.8769 15.5815 11.627 14.6306 11.5021 14.1551ZM18.9818 9.29595C18.8916 9.1292 18.7991 8.96905 18.7043 8.81552C17.1705 6.33239 14.6845 4.85 12.054 4.85C9.42343 4.85 6.93737 6.33239 5.4036 8.81552C5.30877 8.96905 5.21625 9.1292 5.12606 9.29595H4.37783C4.00358 9.29595 3.5 9.57978 3.5 10.2892C3.5 10.931 3.91733 11.2244 4.26918 11.2746C3.76384 12.7246 3.36743 14.4784 3.08152 16.5281C2.3899 15.1686 2 13.6298 2 12C2 6.47715 6.47715 2 12 2C17.5228 2 22 6.47715 22 12C22 13.5626 21.6416 15.0416 21.0025 16.359C20.7191 14.3855 20.3316 12.6909 19.8415 11.2824C20.2091 11.2808 20.7162 10.9967 20.7162 10.2892C20.7162 9.57978 20.2125 9.29595 19.8383 9.29595H18.9818ZM11.5448 21.9898C11.6957 21.9966 11.8474 22 12 22C12.1528 22 12.3049 21.9966 12.456 21.9898L11.5448 21.9898Z" fill="black"/>
</svg>
