<?xml version="1.0" encoding="UTF-8"?>
<svg width="24px" height="24px" viewBox="0 0 24 24" version="1.1" xmlns="http://www.w3.org/2000/svg" xmlns:xlink="http://www.w3.org/1999/xlink">
    <!-- Generator: Sketch 52.6 (67491) - http://www.bohemiancoding.com/sketch -->
    <title>beaver</title>
    <desc>Created with Sketch.</desc>
    <defs>
        <path d="M11.0084053,14.7739219 L11.0084053,14.8990315 L11.3569219,17 L12.644343,17 L12.9929992,14.8990315 L12.9977465,14.7760709 C13.6176407,14.9916761 14.1964487,15.3852829 14.6540769,15.9324061 C14.783388,16.0868572 15.0786479,15.9509259 14.9803011,15.7820407 C14.5203552,14.9915158 13.8387172,14.4686166 13.0084053,14.1959534 L13.0084053,11.5690805 C13.4375751,11.2304208 13.8407064,10.6985895 13.9948097,9.99655402 C14.0480283,9.75429175 13.9421596,9.50418171 13.7271425,9.38027744 C13.4226989,9.20468351 12.880805,9 12.0085798,9 C11.1361796,9 10.5943295,9.20468351 10.2898421,9.38027744 C10.0746501,9.50418171 9.9687814,9.75429175 10.022,9.99655402 C10.176086,10.6985108 10.5792091,11.2303015 11.0084053,11.5689666 L11.0084053,14.1904659 C10.1705053,14.4615693 9.48281433,14.9861794 9.01965374,15.7820407 C8.9214534,15.9509259 9.21656684,16.0868572 9.34587799,15.9324061 C9.80503072,15.3834601 10.3861722,14.9890552 11.0084053,14.7739219 Z M16.3898376,9.70826634 C16.4080197,9.75727263 16.4179418,9.81019903 16.4179418,9.86541305 C16.4179418,10.1181597 16.2097393,10.3230816 15.953089,10.3230816 C15.6964749,10.3230816 15.4884172,10.1181597 15.4884172,9.86541305 C15.4884172,9.84245428 15.4901316,9.81989105 15.4934409,9.79784072 L15.2087379,9.82629029 C15.0843958,9.83877248 14.999775,9.96865863 15.0291768,10.103716 C15.161666,10.7141666 15.6387213,12.200154 17.1299219,12.0511166 C17.3757037,12.0265516 17.5847672,11.9639858 17.7625171,11.8738228 C18.5398921,13.8943386 18.9539601,16.4062251 18.9999316,19.1414998 C17.1961869,20.9097092 14.725419,22 12,22 C9.27877761,22 6.81142265,20.9130643 5.00840529,19.149663 C5.05360899,16.4160914 5.4663363,13.9052914 6.24180903,11.8846148 C6.41481418,11.9689791 6.61685492,12.0275441 6.85270714,12.0511166 C8.34390769,12.200154 8.82096297,10.7141666 8.95345217,10.103716 C8.98285398,9.96865863 8.89823325,9.83877248 8.7738911,9.82629029 L8.48918806,9.79784072 C8.49249745,9.81989105 8.49421179,9.84245428 8.49421179,9.86541305 C8.49421179,10.1181597 8.28615413,10.3230816 8.02954004,10.3230816 C7.77288973,10.3230816 7.56468724,10.1181597 7.56468724,9.86541305 C7.56468724,9.81019903 7.57460929,9.75727263 7.5927914,9.70826634 L7.36422189,9.68542603 C8.50320358,8.00294112 10.0518017,7 12.0042365,7 C13.9557355,7 15.5037848,8.00197991 16.6426131,9.6830072 L16.3898376,9.70826634 Z M5.82158294,10.9139792 C5.80854822,10.8853016 5.79615755,10.8561186 5.78439557,10.8264754 C5.87494009,10.63736 6.0461973,10.3462395 6.29816719,9.95311389 C6.41316756,9.96469277 6.48785291,9.97219948 6.52222325,9.97563401 C6.5227853,9.97569017 6.49994586,10.5752006 6.88296015,11.0168478 C7.24488709,11.4341795 7.79270114,11.461444 7.79321005,11.4599716 C7.54700185,11.6396611 7.25213788,11.7176347 6.89078548,11.6815195 C6.36040348,11.6285098 6.02610656,11.36395 5.82158294,10.9139792 Z M18.1610461,10.9139792 C17.9565224,11.36395 17.6222255,11.6285098 17.0918435,11.6815195 C16.7304911,11.7176347 16.4356272,11.6396611 16.189419,11.4599716 C16.1899279,11.461444 16.7377419,11.4341795 17.0996689,11.0168478 C17.4826831,10.5752006 17.4598437,9.97569017 17.4604058,9.97563401 C17.4935418,9.97232281 17.5647443,9.96516721 17.6740133,9.95416721 C17.823949,10.1715034 17.9969123,10.4667045 18.1929033,10.8397706 C18.1827434,10.8648536 18.1721275,10.8895991 18.1610461,10.9139792 Z M11.5021063,14.1551088 C11.4623563,14.003824 11.9984044,14.0000576 11.9984044,14.0000576 C11.9984044,14.0000576 12.5374555,13.9927386 12.4979277,14.1431452 L12.1199117,15.5815274 C12.1078274,15.6175345 12.0515224,15.6328956 11.9984044,15.6302884 C11.9452865,15.6328956 11.8889814,15.6175345 11.8768971,15.5815274 C11.8768971,15.5815274 11.6270366,14.6305817 11.5021063,14.1551088 Z M18.9818439,9.29594585 C18.8916436,9.12919892 18.7991239,8.9690484 18.7042899,8.81551863 C17.1705207,6.33238814 14.6844595,4.8499999 12.05404,4.8499999 C9.42342976,4.8499999 6.93736859,6.33238814 5.4035994,8.81551863 C5.3087695,8.96904723 5.21625357,9.12919774 5.12605656,9.29594585 L4.37782723,9.29594585 C4.00358272,9.29594585 3.5,9.57978358 3.5,10.2891702 C3.5,10.931003 3.91733418,11.2243839 4.26917717,11.2745517 C3.76383917,12.7246125 3.36742942,14.4783674 3.0815204,16.5280794 C2.38990286,15.1685784 2,13.6298225 2,12 C2,6.4771525 6.4771525,2 12,2 C17.5228475,2 22,6.4771525 22,12 C22,13.5626338 21.6415817,15.0415544 21.0024701,16.359037 C20.7190979,14.3854982 20.3316273,12.690933 19.8415051,11.2824252 C20.2091257,11.2807908 20.7162162,10.9966971 20.7162162,10.2891702 C20.7162162,9.57978358 20.212525,9.29594585 19.8383154,9.29594585 L18.9818439,9.29594585 Z M11.5447857,21.9898234 C11.6956777,21.9965837 11.8474399,22 12,22 C12.1528275,22 12.3048543,21.9965717 12.4560077,21.9897878 L11.5447857,21.9898234 Z" id="path-1"></path>
    </defs>
    <g id="beaver" stroke="none" stroke-width="1" fill="none" fill-rule="evenodd">
        <mask id="mask-2" fill="white">
            <use xlink:href="#path-1"></use>
        </mask>
        <use id="CombinedShape" fill="#000000" xlink:href="#path-1"></use>
    </g>
</svg>