<?xml version="1.0" encoding="UTF-8"?>
<svg width="24px" height="24px" viewBox="0 0 24 24" version="1.1" xmlns="http://www.w3.org/2000/svg" xmlns:xlink="http://www.w3.org/1999/xlink">
    <!-- Generator: Sketch 52.6 (67491) - http://www.bohemiancoding.com/sketch -->
    <title>business</title>
    <desc>Created with Sketch.</desc>
    <g id="business" stroke="none" stroke-width="1" fill="none" fill-rule="evenodd">
        <g id="Mask" transform="translate(3.000000, 3.000000)" fill="#000000">
            <polygon id="Fill-1" points="5 11.006 7 11.006 7 9 5 9"></polygon>
            <polygon id="Fill-2" points="8 8.006 10 8.006 10 6 8 6"></polygon>
            <polygon id="Fill-3" points="8 5.006 10 5.006 10 3 8 3"></polygon>
            <polygon id="Fill-4" points="5 5.006 7 5.006 7 3 5 3"></polygon>
            <polygon id="Fill-5" points="5 8.006 7 8.006 7 6 5 6"></polygon>
            <polygon id="Fill-6" points="11 11.006 13 11.006 13 9 11 9"></polygon>
            <polygon id="Fill-7" points="8 11.006 10 11.006 10 9 8 9"></polygon>
            <polygon id="Fill-8" points="11 8.006 13 8.006 13 6 11 6"></polygon>
            <polygon id="Fill-9" points="11 5.006 13 5.006 13 3 11 3"></polygon>
            <path d="M15,16 L13,16 L13,12 L5,12 L5,16 L3,16 L3,2 L15,2 L15,16 Z M7,16 L8,16 L8,14.034 L7,14.034 L7,16 Z M10,16 L11,16 L11,14.035 L10,14.035 L10,16 Z M17,16 L17,2 C17,0.9 16.1,0 15,0 L3,0 C1.9,0 1,0.9 1,2 L1,16 C0.448,16 0,16.448 0,17 C0,17.552 0.448,18 1,18 L17,18 C17.553,18 18,17.552 18,17 C18,16.448 17.553,16 17,16 Z" id="Fill-10"></path>
        </g>
    </g>
</svg>