<?xml version="1.0" encoding="UTF-8"?>
<svg width="24px" height="24px" viewBox="0 0 24 24" version="1.1" xmlns="http://www.w3.org/2000/svg" xmlns:xlink="http://www.w3.org/1999/xlink">
    <!-- Generator: Sketch 52.5 (67469) - http://www.bohemiancoding.com/sketch -->
    <title>/business</title>
    <desc>Created with Sketch.</desc>
    <defs>
        <path d="M21,20 L21,20 C21.5522847,20 22,20.4477153 22,21 L22,21 C22,21.5522847 21.5522847,22 21,22 L3,22 C2.44771525,22 2,21.5522847 2,21 L2,21 C2,20.4477153 2.44771525,20 3,20 L3,3 C3,2.44771525 3.44771525,2 4,2 L20,2 C20.5522847,2 21,2.44771525 21,3 L21,20 Z M11,18 L9,18 L9,21 L11,21 L11,18 Z M15,18 L13,18 L13,21 L15,21 L15,18 Z M19,4 L5,4 L5,20 L7,20 L7,17 C7,16.4477153 7.44771525,16 8,16 L16,16 C16.5522847,16 17,16.4477153 17,17 L17,20 L19,20 L19,4 Z M7,12 L9,12 L9,14 L7,14 L7,12 Z M11,12 L13,12 L13,14 L11,14 L11,12 Z M15,12 L17,12 L17,14 L15,14 L15,12 Z M7,9 L9,9 L9,11 L7,11 L7,9 Z M11,9 L13,9 L13,11 L11,11 L11,9 Z M15,9 L17,9 L17,11 L15,11 L15,9 Z M7,6 L9,6 L9,8 L7,8 L7,6 Z M11,6 L13,6 L13,8 L11,8 L11,6 Z M15,6 L17,6 L17,8 L15,8 L15,6 Z" id="path-1"></path>
    </defs>
    <g id="/business" stroke="none" stroke-width="1" fill="none" fill-rule="evenodd">
        <mask id="mask-2" fill="white">
            <use xlink:href="#path-1"></use>
        </mask>
        <use id="Shape" fill="#000000" xlink:href="#path-1"></use>
    </g>
</svg>