<?xml version="1.0" encoding="UTF-8"?>
<svg width="24px" height="24px" viewBox="0 0 24 24" version="1.1" xmlns="http://www.w3.org/2000/svg" xmlns:xlink="http://www.w3.org/1999/xlink">
    <!-- Generator: Sketch 52.6 (67491) - http://www.bohemiancoding.com/sketch -->
    <title>business</title>
    <desc>Created with Sketch.</desc>
    <defs>
        <path d="M20.1,19.2 L20.1,19.2 C20.5970563,19.2 21,19.6029437 21,20.1 L21,20.1 C21,20.5970563 20.5970563,21 20.1,21 L3.9,21 C3.40294373,21 3,20.5970563 3,20.1 L3,20.1 C3,19.6029437 3.40294373,19.2 3.9,19.2 L3.9,4 C3.9,3.44771525 4.34771525,3 4.9,3 L19.1,3 C19.6522847,3 20.1,3.44771525 20.1,4 L20.1,19.2 Z M11.1,17.4 L9.3,17.4 L9.3,20.1 L11.1,20.1 L11.1,17.4 Z M14.7,17.4 L12.9,17.4 L12.9,20.1 L14.7,20.1 L14.7,17.4 Z M18.3,4.8 L5.7,4.8 L5.7,19.2 L7.5,19.2 L7.5,16.6 C7.5,16.0477153 7.94771525,15.6 8.5,15.6 L15.5,15.6 C16.0522847,15.6 16.5,16.0477153 16.5,16.6 L16.5,19.2 L18.3,19.2 L18.3,4.8 Z M7.5,12 L9.3,12 L9.3,13.8 L7.5,13.8 L7.5,12 Z M11.1,12 L12.9,12 L12.9,13.8 L11.1,13.8 L11.1,12 Z M14.7,12 L16.5,12 L16.5,13.8 L14.7,13.8 L14.7,12 Z M7.5,9.3 L9.3,9.3 L9.3,11.1 L7.5,11.1 L7.5,9.3 Z M11.1,9.3 L12.9,9.3 L12.9,11.1 L11.1,11.1 L11.1,9.3 Z M14.7,9.3 L16.5,9.3 L16.5,11.1 L14.7,11.1 L14.7,9.3 Z M7.5,6.6 L9.3,6.6 L9.3,8.4 L7.5,8.4 L7.5,6.6 Z M11.1,6.6 L12.9,6.6 L12.9,8.4 L11.1,8.4 L11.1,6.6 Z M14.7,6.6 L16.5,6.6 L16.5,8.4 L14.7,8.4 L14.7,6.6 Z" id="path-1"></path>
    </defs>
    <g id="business" stroke="none" stroke-width="1" fill="none" fill-rule="evenodd">
        <mask id="mask-2" fill="white">
            <use xlink:href="#path-1"></use>
        </mask>
        <use id="Shape" fill="#000000" xlink:href="#path-1"></use>
    </g>
</svg>