<svg width="24" height="24" viewBox="0 0 24 24" fill="none" xmlns="http://www.w3.org/2000/svg">
<path fill-rule="evenodd" clip-rule="evenodd" d="M15 19H19V16H15V19ZM10 19H14V16H10V19ZM5 19H9V16H5V19ZM5 11H9V8H5V11ZM15 15H19V12H15V15ZM10 11H14V8H10V11ZM5 15H9V12H5V15ZM10 15H14V12H10V15ZM15 11H19V8H15V11ZM19 5.003H18V3H15V5.003H9V3H6V5.003H5C3.9 5.003 3 5.903 3 7.003V19.003C3 20.103 3.9 21.003 5 21.003H19C20.1 21.003 21 20.103 21 19.003V7.003C21 5.903 20.1 5.003 19 5.003V5.003Z" fill="black"/>
</svg>
