<?xml version="1.0" encoding="UTF-8"?>
<svg width="24px" height="24px" viewBox="0 0 24 24" version="1.1" xmlns="http://www.w3.org/2000/svg" xmlns:xlink="http://www.w3.org/1999/xlink">
    <!-- Generator: Sketch 52.6 (67491) - http://www.bohemiancoding.com/sketch -->
    <title>camera</title>
    <desc>Created with Sketch.</desc>
    <defs>
        <path d="M7.55555556,7 L7.55555556,6 C7.55555556,4.8954305 8.45098606,4 9.55555556,4 L14.4444444,4 C15.5490139,4 16.4444444,4.8954305 16.4444444,6 L16.4444444,7 L20,7 C21.1045695,7 22,7.8954305 22,9 L22,19 C22,20.1045695 21.1045695,21 20,21 L4,21 C2.8954305,21 2,20.1045695 2,19 L2,9 C2,7.8954305 2.8954305,7 4,7 L7.55555556,7 Z M12,18.4444444 C14.4545989,18.4444444 16.4444444,16.4545989 16.4444444,14 C16.4444444,11.5454011 14.4545989,9.55555556 12,9.55555556 C9.54540111,9.55555556 7.55555556,11.5454011 7.55555556,14 C7.55555556,16.4545989 9.54540111,18.4444444 12,18.4444444 Z" id="path-1"></path>
    </defs>
    <g id="camera" stroke="none" stroke-width="1" fill="none" fill-rule="evenodd">
        <mask id="mask-2" fill="white">
            <use xlink:href="#path-1"></use>
        </mask>
        <use id="Mask" fill="#000000" xlink:href="#path-1"></use>
    </g>
</svg>