<svg fill="none" height="24" viewBox="0 0 24 24" width="24" xmlns="http://www.w3.org/2000/svg"><path clip-rule="evenodd" d="m12 3c-2.404 0-4.664.936-6.363 2.637l-1.779-1.779c-.316-.316-.858-.091-.858.357v5.282c0 .277.226.503.503.503h5.282c.448 0 .673-.542.357-.858l-2.091-2.091c1.322-1.322 3.08-2.051 4.949-2.051 3.859 0 7 3.141 7 7s-3.141 7-7 7c-1.869 0-3.627-.729-4.949-2.051-.391-.39-1.024-.39-1.414 0-.391.391-.391 1.024 0 1.414 1.699 1.701 3.959 2.637 6.363 2.637 4.963 0 9-4.037 9-9s-4.037-9-9-9z" fill="#000" fill-rule="evenodd"/></svg>