<?xml version="1.0" encoding="UTF-8"?>
<svg width="24px" height="24px" viewBox="0 0 24 24" version="1.1" xmlns="http://www.w3.org/2000/svg" xmlns:xlink="http://www.w3.org/1999/xlink">
    <!-- Generator: Sketch 52.6 (67491) - http://www.bohemiancoding.com/sketch -->
    <title>cancel</title>
    <desc>Created with Sketch.</desc>
    <defs>
        <path d="M7.46516297,6.88948692 L8.34318381,7.7693578 C8.5046428,7.9256501 8.54166023,8.10804363 8.45313344,8.31141895 C8.3645279,8.51978768 8.20856639,8.6254685 7.9895965,8.6254685 L4.50250763,8.6254685 C4.36702385,8.6254685 4.24811127,8.57526656 4.1491251,8.47626464 C4.05017043,8.37723121 4,8.25831863 4,8.12286635 L4,4.63571447 C4,4.41683909 4.10303446,4.26089334 4.306205,4.17217753 C4.38184657,4.14086236 4.45451099,4.125 4.52230802,4.125 C4.646151,4.125 4.75846345,4.17791129 4.85609494,4.28223743 L5.87118753,5.29509467 C7.46391238,3.86794485 9.5680965,3 11.875,3 C16.8455627,3 20.875,7.02943725 20.875,12 C20.875,16.9705627 16.8455627,21 11.875,21 C8.91370399,21 6.28644919,19.5697995 4.64629086,17.3624538 L6.23085039,15.7035572 C7.4373816,17.5385659 9.514718,18.75 11.875,18.75 C15.6029221,18.75 18.625,15.7279221 18.625,12 C18.625,8.27207794 15.6029221,5.25 11.875,5.25 C10.1893672,5.25 8.64804595,5.86787121 7.46516297,6.88948692 Z" id="path-1"></path>
    </defs>
    <g id="cancel" stroke="none" stroke-width="1" fill="none" fill-rule="evenodd">
        <mask id="mask-2" fill="white">
            <use xlink:href="#path-1"></use>
        </mask>
        <use id="CombinedShape" fill="#000000" xlink:href="#path-1"></use>
    </g>
</svg>