<?xml version="1.0" encoding="UTF-8"?>
<svg width="24px" height="24px" viewBox="0 0 24 24" version="1.1" xmlns="http://www.w3.org/2000/svg" xmlns:xlink="http://www.w3.org/1999/xlink">
    <!-- Generator: Sketch 52.5 (67469) - http://www.bohemiancoding.com/sketch -->
    <title> caption</title>
    <desc>Created with Sketch.</desc>
    <defs>
        <path d="M8.99807665,10.3333516 L8.99807665,9.75 L7.01402278,9.75 L7.01402278,13.25 L8.99807665,13.25 L8.99807665,12.6666484 L11,12.6666484 L11,13.8332969 C11,14.4749453 10.4660204,14.9999453 9.8000225,14.9999453 L6.20003375,14.9999453 C5.53397958,15 5,14.475 5,13.8333516 L5,9.16670312 C5,8.525 5.53397958,8 6.1999775,8 L9.79996625,8 C10.4659642,8 10.9999438,8.525 10.9999438,9.16664844 L10.9999438,10.3333516 L8.99807665,10.3333516 Z M19,10.3332969 L17.0046145,10.3332969 L17.0046145,9.74994531 L15.0006826,9.74994531 L15.0006826,13.2499453 L17.0046145,13.2499453 L17.0046145,12.6665937 L19,12.6665937 L19,13.8332422 C19,14.4749453 18.4660154,14.9999453 17.8000113,14.9999453 L14.1999887,14.9999453 C13.5339846,14.9999453 13,14.4749453 13,13.8332969 L13,9.16664844 C13,8.525 13.5339846,8 14.1999887,8 L17.8000113,8 C18.4660154,8 19,8.525 19,9.16664844 L19,10.3332969 Z" id="path-1"></path>
    </defs>
    <g id="-caption" stroke="none" stroke-width="1" fill="none" fill-rule="evenodd">
        <mask id="mask-2" fill="white">
            <use xlink:href="#path-1"></use>
        </mask>
        <use id="Combined-Shape" fill="#000000" xlink:href="#path-1"></use>
    </g>
</svg>