<svg width="24" height="24" viewBox="0 0 24 24" fill="none" xmlns="http://www.w3.org/2000/svg">
<path d="M19.5381 6C20.8975 6 22 7.10253 22 8.46191V19.5381C21.9999 20.898 20.8974 22 19.5381 22H8.46191C7.10261 22 6.00013 20.898 6 19.5381V19H8V19.0371C8.00008 19.569 8.43142 20 8.96289 20H19.0371C19.5686 20 19.9999 19.569 20 19.0371V18H19V16H20V8.96289C20 8.43141 19.5686 8 19.0371 8H19V6H19.5381Z" fill="black"/>
<path d="M15.5381 2C16.8975 2 18 3.10253 18 4.46191V15.5381C17.9999 16.898 16.8974 18 15.5381 18H4.46191C3.10261 18 2.00013 16.898 2 15.5381V4.46191C2 3.10253 3.10253 2 4.46191 2H15.5381ZM4 15.0371C4.00008 15.569 4.43142 16 4.96289 16H15.0371C15.5686 16 15.9999 15.569 16 15.0371V14H4V15.0371ZM4.96289 4C4.43141 4 4 4.43141 4 4.96289V12H16V4.96289C16 4.43141 15.5686 4 15.0371 4H4.96289Z" fill="black"/>
</svg>
