<?xml version="1.0" encoding="UTF-8"?>
<svg width="24px" height="24px" viewBox="0 0 24 24" version="1.1" xmlns="http://www.w3.org/2000/svg" xmlns:xlink="http://www.w3.org/1999/xlink">
    <!-- Generator: Sketch 52.6 (67491) - http://www.bohemiancoding.com/sketch -->
    <title>card-plus</title>
    <desc>Created with Sketch.</desc>
    <defs>
        <path d="M8,19 L8,19.0369698 C8,19.5689723 8.43095333,20 8.96247051,20 L19.0375295,20 C19.5690467,20 20,19.5689723 20,19.0369698 L20,18 L19,18 L19,16 L20,16 L20,8.96247051 C20,8.43099053 19.5690095,8 19.0375295,8 L19,8 L19,6 L19.5384615,6 C20.8978462,6 22,7.10215385 22,8.46153846 L22,19.5378462 C22,20.8978462 20.8978462,22 19.5384615,22 L8.46153846,22 C7.10215385,22 6,20.8978462 6,19.5378462 L6,19 L8,19 Z M15.5384615,18 L4.46153846,18 C3.10215385,18 2,16.8978462 2,15.5378462 L2,4.46153846 C2,3.10215385 3.10215385,2 4.46153846,2 L15.5384615,2 C16.8978462,2 18,3.10215385 18,4.46153846 L18,15.5378462 C18,16.8978462 16.8978462,18 15.5384615,18 Z M15.0375295,16 C15.5690467,16 16,15.5689723 16,15.0369698 L16,4.96247051 C16,4.43099053 15.5690095,4 15.0375295,4 L4.96247051,4 C4.43099053,4 4,4.43099053 4,4.96247051 L4,15.0369698 C4,15.5689723 4.43095333,16 4.96247051,16 L15.0375295,16 Z M11,9 L12.009222,9 C12.5564136,9 13,9.44386482 13,10 C13,10.5522847 12.5490248,11 12.009222,11 L11,11 L11,12.009222 C11,12.5564136 10.5561352,13 10,13 C9.44771525,13 9,12.5490248 9,12.009222 L9,11 L7.99077797,11 C7.44358641,11 7,10.5561352 7,10 C7,9.44771525 7.45097518,9 7.99077797,9 L9,9 L9,7.99077797 C9,7.44358641 9.44386482,7 10,7 C10.5522847,7 11,7.45097518 11,7.99077797 L11,9 Z" id="path-1"></path>
    </defs>
    <g id="card-plus" stroke="none" stroke-width="1" fill="none" fill-rule="evenodd">
        <mask id="mask-2" fill="white">
            <use xlink:href="#path-1"></use>
        </mask>
        <use id="CombinedShape" fill="#000000" fill-rule="nonzero" xlink:href="#path-1"></use>
    </g>
</svg>