<svg width="24" height="24" viewBox="0 0 24 24" fill="none" xmlns="http://www.w3.org/2000/svg">
<path d="M15.5385 18H4.46154C3.10215 18 2 16.8978 2 15.5378V4.46154C2 3.10215 3.10215 2 4.46154 2H15.5385C16.8978 2 18 3.10215 18 4.46154V15.5378C18 16.8978 16.8978 18 15.5385 18ZM8.46154 22H19.5385C20.8978 22 22 20.8978 22 19.5378V8.46154C22 7.10215 20.8978 6 19.5385 6H19V8H19.0375C19.569 8 20 8.43099 20 8.96247V16H19V18H20V19.037C20 19.569 19.569 20 19.0375 20H8.96247C8.43095 20 8 19.569 8 19.037V19H6V19.5378C6 20.8978 7.10215 22 8.46154 22ZM16 15.037V4.96247C16 4.43099 15.569 4 15.0375 4H4.96247C4.43099 4 4 4.43099 4 4.96247V15.037C4 15.569 4.43095 16 4.96247 16H15.0375C15.569 16 16 15.569 16 15.037ZM11 8C11 7.44772 10.5523 7 10 7C9.44772 7 9 7.44772 9 8V9H8C7.44772 9 7 9.44772 7 10C7 10.5523 7.44772 11 8 11H9V12C9 12.5523 9.44772 13 10 13C10.5523 13 11 12.5523 11 12V11H12C12.5523 11 13 10.5523 13 10C13 9.44772 12.5523 9 12 9H11V8Z" fill="black"/>
</svg>
