<svg width="24" height="24" viewBox="0 0 24 24" fill="none" xmlns="http://www.w3.org/2000/svg">
<path fill-rule="evenodd" clip-rule="evenodd" d="M12 1.99963C17.523 1.99963 22 6.47763 22 11.9996C22 17.5226 17.523 21.9996 12 21.9996C6.477 21.9996 2 17.5226 2 11.9996C2 6.47763 6.477 1.99963 12 1.99963ZM12 19.9996C16.4183 19.9996 20 16.4179 20 11.9996C20 7.58136 16.4183 3.99963 12 3.99963C7.58172 3.99963 4 7.58136 4 11.9996C4 16.4179 7.58172 19.9996 12 19.9996ZM9.8235 15.3061L7.29397 12.7831C6.90458 12.3941 6.90161 11.7601 7.28704 11.3681V11.3671C7.67246 10.9751 8.29865 10.9721 8.68804 11.3601L10.5131 13.1811L15.3056 8.29607C15.6901 7.90407 16.3173 7.90107 16.7066 8.28907V8.29007C17.095 8.67907 17.098 9.31107 16.7136 9.70407L11.2245 15.2991C10.8391 15.6911 10.2119 15.6941 9.8235 15.3061Z" fill="black"/>
</svg>
