<svg width="24" height="24" viewBox="0 0 24 24" fill="none" xmlns="http://www.w3.org/2000/svg">
<path fill-rule="evenodd" clip-rule="evenodd" d="M12 1.9996C17.523 1.9996 22 6.4776 22 11.9996C22 17.5226 17.523 21.9996 12 21.9996C6.477 21.9996 2 17.5226 2 11.9996C2 6.4776 6.477 1.9996 12 1.9996ZM12 19.9996C16.4183 19.9996 20 16.4179 20 11.9996C20 7.58133 16.4183 3.9996 12 3.9996C7.58172 3.9996 4 7.58133 4 11.9996C4 16.4179 7.58172 19.9996 12 19.9996ZM9.8235 15.306L7.29397 12.783C6.90458 12.394 6.90161 11.76 7.28704 11.368V11.367C7.67246 10.975 8.29865 10.972 8.68804 11.36L10.5131 13.181L15.3056 8.29604C15.6901 7.90404 16.3173 7.90104 16.7066 8.28904V8.29004C17.095 8.67904 17.098 9.31104 16.7136 9.70404L11.2245 15.299C10.8391 15.691 10.2119 15.694 9.8235 15.306Z" fill="black"/>
</svg>
