<?xml version="1.0" encoding="UTF-8"?>
<svg width="24px" height="24px" viewBox="0 0 24 24" version="1.1" xmlns="http://www.w3.org/2000/svg" xmlns:xlink="http://www.w3.org/1999/xlink">
    <!-- Generator: Sketch 52.6 (67491) - http://www.bohemiancoding.com/sketch -->
    <title>check-circle-fill</title>
    <desc>Created with Sketch.</desc>
    <g id="check-circle-fill" stroke="none" stroke-width="1" fill="none" fill-rule="evenodd">
        <g id="Mask" transform="translate(2.000000, 2.000000)" fill="#000000">
            <path d="M10,-0.0004 C15.523,-0.0004 20,4.4776 20,9.9996 C20,15.5226 15.523,19.9996 10,19.9996 C4.477,19.9996 0,15.5226 0,9.9996 C0,4.4776 4.477,-0.0004 10,-0.0004 Z M7.82350464,13.30604 C8.21190133,13.69404 8.83908272,13.69104 9.22450698,13.29904 L14.7135826,7.70404 C15.0980161,7.31104 15.0950437,6.67904 14.706647,6.29004 L14.706647,6.28904 C14.3172595,5.90104 13.6900781,5.90404 13.3056446,6.29604 L8.51310692,11.18104 L6.68803881,9.36004 C6.29865132,8.97204 5.67246074,8.97504 5.28703647,9.36704 L5.28703647,9.36804 C4.90161221,9.76004 4.90458463,10.39404 5.29397213,10.78304 L7.82350464,13.30604 Z" id="Combined-Shape"></path>
        </g>
    </g>
</svg>