<svg width="24" height="24" viewBox="0 0 24 24" fill="none" xmlns="http://www.w3.org/2000/svg">
<path fill-rule="evenodd" clip-rule="evenodd" d="M2 11.9996C2 6.47763 6.477 1.99963 12 1.99963C17.523 1.99963 22 6.47763 22 11.9996C22 17.5226 17.523 21.9996 12 21.9996C6.477 21.9996 2 17.5226 2 11.9996ZM7.29397 12.7831L9.8235 15.3061C10.2119 15.6941 10.8391 15.6911 11.2245 15.2991L16.7136 9.70407C17.098 9.31107 17.095 8.67907 16.7066 8.29007V8.28907C16.3173 7.90107 15.6901 7.90407 15.3056 8.29607L10.5131 13.1811L8.68804 11.3601C8.29865 10.9721 7.67246 10.9751 7.28704 11.3671V11.3681C6.90161 11.7601 6.90458 12.3941 7.29397 12.7831Z" fill="black"/>
</svg>
