<?xml version="1.0" encoding="UTF-8"?>
<svg width="24px" height="24px" viewBox="0 0 24 24" version="1.1" xmlns="http://www.w3.org/2000/svg" xmlns:xlink="http://www.w3.org/1999/xlink">
    <!-- Generator: Sketch 52.5 (67469) - http://www.bohemiancoding.com/sketch -->
    <title>/chrome</title>
    <desc>Created with Sketch.</desc>
    <defs>
        <path d="M7.04450204,10.7215405 L4.18254333,5.76446048 C6.01492972,3.47023725 8.83556023,2 12.0000195,2 C15.660847,2 18.8615173,3.96750384 20.604177,6.90235332 L12.4445907,6.90235332 C12.2980279,6.88965799 12.1498245,6.88282204 12.0000195,6.88282204 C9.61966332,6.88282204 7.6137219,8.5164971 7.04450204,10.7215405 Z M15.5801828,8.34766865 L21.3118346,8.34766865 C21.7560151,9.47911617 22,10.7110326 22,12.0000195 C22,17.4849131 17.5839367,21.9376171 12.1134963,21.9985937 L16.2032309,14.9150252 C16.7790914,14.0873283 17.117217,13.0824435 17.117217,12.0000195 C17.117217,10.5709152 16.5280753,9.27696734 15.5801828,8.34766865 Z M8.36719994,12.0000195 C8.36719994,9.99689062 9.99689062,8.36719994 12.0000195,8.36719994 C14.0031094,8.36719994 15.6328391,9.99689062 15.6328391,12.0000195 C15.6328391,14.0031094 14.0031094,15.6328391 12.0000195,15.6328391 C9.99689062,15.6328391 8.36719994,14.0031094 8.36719994,12.0000195 Z M13.3707644,16.9304979 L10.5079072,21.8890623 C5.69281971,21.1686703 2,17.0157325 2,12.0000195 C2,10.2184145 2.46648529,8.54598935 3.28312751,7.09719746 L7.36575267,14.1685785 C8.18348864,15.9090115 9.9531796,17.117178 12.0000195,17.117178 C12.4746298,17.117217 12.9343182,17.0519825 13.3707644,16.9304979 Z" id="path-1"></path>
    </defs>
    <g id="/chrome" stroke="none" stroke-width="1" fill="none" fill-rule="evenodd">
        <mask id="mask-2" fill="white">
            <use xlink:href="#path-1"></use>
        </mask>
        <use id="Shape" fill="#000000" fill-rule="nonzero" xlink:href="#path-1"></use>
    </g>
</svg>