<svg width="24" height="24" viewBox="0 0 24 24" fill="none" xmlns="http://www.w3.org/2000/svg">
<path fill-rule="evenodd" clip-rule="evenodd" d="M4.18254 5.76446L7.0445 10.7215C7.61372 8.5165 9.61966 6.88282 12 6.88282C12.1498 6.88282 12.298 6.88966 12.4446 6.90235H20.6042C18.8615 3.9675 15.6608 2 12 2C8.83556 2 6.01493 3.47024 4.18254 5.76446ZM21.3118 8.34767H15.5802C16.5281 9.27697 17.1172 10.5709 17.1172 12C17.1172 13.0824 16.7791 14.0873 16.2032 14.915L12.1135 21.9986C17.5839 21.9376 22 17.4849 22 12C22 10.711 21.756 9.47912 21.3118 8.34767ZM8.3672 12C8.3672 9.99689 9.99689 8.3672 12 8.3672C14.0031 8.3672 15.6328 9.99689 15.6328 12C15.6328 14.0031 14.0031 15.6328 12 15.6328C9.99689 15.6328 8.3672 14.0031 8.3672 12ZM10.5079 21.8891L13.3708 16.9305C12.9343 17.052 12.4746 17.1172 12 17.1172C9.95318 17.1172 8.18349 15.909 7.36575 14.1686L3.28313 7.0972C2.46649 8.54599 2 10.2184 2 12C2 17.0157 5.69282 21.1687 10.5079 21.8891Z" fill="black"/>
</svg>
