<svg width="24" height="24" viewBox="0 0 24 24" fill="none" xmlns="http://www.w3.org/2000/svg">
<path fill-rule="evenodd" clip-rule="evenodd" d="M12 22.0036C6.486 22.0036 2 17.5176 2 12.0036C2 7.79759 4.658 4.01459 8.615 2.59059C9.138 2.40359 9.707 2.67459 9.896 3.19259C10.082 3.71259 9.812 4.28559 9.293 4.47359C6.127 5.61159 4 8.63859 4 12.0036C4 16.4146 7.589 20.0036 12 20.0036C16.411 20.0036 20 16.4146 20 12.0036C20 8.63758 17.872 5.60959 14.705 4.47259C14.185 4.28459 13.915 3.71259 14.102 3.19259C14.289 2.67359 14.862 2.40159 15.381 2.58959C19.34 4.01259 22 7.79558 22 12.0036C22 17.5176 17.514 22.0036 12 22.0036Z" fill="black"/>
</svg>
