<svg width="24" height="24" viewBox="0 0 24 24" fill="none" xmlns="http://www.w3.org/2000/svg">
<path fill-rule="evenodd" clip-rule="evenodd" d="M12 22.0036C6.486 22.0036 2 17.5176 2 12.0036C2 7.79762 4.658 4.01462 8.615 2.59062C9.138 2.40362 9.707 2.67462 9.896 3.19262C10.082 3.71262 9.812 4.28562 9.293 4.47362C6.127 5.61162 4 8.63862 4 12.0036C4 16.4146 7.589 20.0036 12 20.0036C16.411 20.0036 20 16.4146 20 12.0036C20 8.63762 17.872 5.60962 14.705 4.47262C14.185 4.28462 13.915 3.71262 14.102 3.19262C14.289 2.67362 14.862 2.40162 15.381 2.58962C19.34 4.01262 22 7.79562 22 12.0036C22 17.5176 17.514 22.0036 12 22.0036Z" fill="black"/>
</svg>
