<?xml version="1.0" encoding="UTF-8"?>
<svg width="24px" height="24px" viewBox="0 0 24 24" version="1.1" xmlns="http://www.w3.org/2000/svg" xmlns:xlink="http://www.w3.org/1999/xlink">
    <!-- Generator: Sketch 53 (72520) - https://sketchapp.com -->
    <title>circle-notch</title>
    <desc>Created with Sketch.</desc>
    <g id="circle-notch" stroke="none" stroke-width="1" fill="none" fill-rule="evenodd">
        <path d="M12,22.0035864 C6.486,22.0035864 2,17.5175864 2,12.0035864 C2,7.79758638 4.658,4.01458638 8.615,2.59058638 C9.138,2.40358638 9.707,2.67458638 9.896,3.19258638 C10.082,3.71258638 9.812,4.28558638 9.293,4.47358638 C6.127,5.61158638 4,8.63858638 4,12.0035864 C4,16.4145864 7.589,20.0035864 12,20.0035864 C16.411,20.0035864 20,16.4145864 20,12.0035864 C20,8.63758638 17.872,5.60958638 14.705,4.47258638 C14.185,4.28458638 13.915,3.71258638 14.102,3.19258638 C14.289,2.67358638 14.862,2.40158638 15.381,2.58958638 C19.34,4.01258638 22,7.79558638 22,12.0035864 C22,17.5175864 17.514,22.0035864 12,22.0035864" id="Mask" fill="#000000"></path>
    </g>
</svg>