<svg width="24" height="24" viewBox="0 0 24 24" fill="none" xmlns="http://www.w3.org/2000/svg">
<path d="M21.1885 13.6853C20.6391 12.9691 19.9387 12.5061 19.0757 12.2917C18.8352 12.2319 18.7093 11.8995 18.866 11.6527C19.1173 11.257 19.2395 10.8243 19.2395 10.3434C19.2395 9.66632 19.0135 9.09823 18.5482 8.61331C18.0748 8.12014 17.5076 7.87529 16.8297 7.87529C16.2239 7.87529 15.7029 8.07733 15.2549 8.48501C15.0806 8.64366 14.8186 8.57911 14.7216 8.33225C14.3278 7.33047 13.6994 6.52842 12.8287 5.91899C11.9532 5.30609 10.989 5 9.92987 5C8.49024 5 7.27245 5.52581 6.25993 6.58064C5.25552 7.62677 4.75996 8.8726 4.75996 10.3436C4.75996 10.4319 4.76728 10.5878 4.78058 10.7969C4.79197 10.9757 4.7007 11.1365 4.56479 11.2025C3.77679 11.5851 3.15437 12.1542 2.69021 12.9138C2.22872 13.6694 2 14.486 2 15.3754C2 16.6442 2.42933 17.7195 3.30081 18.6274C4.17978 19.5433 5.23383 20 6.47996 20H18.2101C19.2686 20 20.1611 19.6147 20.9041 18.8409C21.6392 18.0751 22 17.1681 22 16.0943C21.9999 15.1911 21.732 14.3939 21.1885 13.6853ZM17.1052 9.9982C17.2112 10.1086 17.2395 10.1798 17.2395 10.3434C17.2395 10.4497 17.2225 10.51 17.1778 10.5804C16.2988 11.9642 17.0089 13.839 18.5935 14.2327C19.0141 14.3372 19.3261 14.5435 19.6015 14.9026C19.8759 15.2603 19.9999 15.6293 20 16.0945C20 16.6546 19.8369 17.0645 19.4613 17.4558C19.0932 17.8391 18.7206 18 18.2101 18H6.47996C5.78283 18 5.24854 17.7685 4.74376 17.2425C4.23099 16.7083 4 16.1297 4 15.3754C4 14.8531 4.12767 14.3973 4.39696 13.9564C4.66265 13.5216 4.99691 13.2159 5.43835 13.0016C6.31288 12.577 6.83894 11.6503 6.77655 10.6698C6.76588 10.5022 6.75996 10.3762 6.75996 10.3436C6.75996 9.38615 7.05779 8.6374 7.7027 7.96571C8.34046 7.3013 9.03827 7 9.92987 7C10.5772 7 11.1412 7.17905 11.6818 7.55747C12.2288 7.94038 12.6096 8.42633 12.8602 9.06388C13.4649 10.6023 15.3809 11.0744 16.6009 9.96427C16.6812 9.89126 16.7223 9.87529 16.8297 9.87529C16.9596 9.87529 17.0068 9.89565 17.1052 9.9982Z" fill="black"/>
</svg>
