<?xml version="1.0" encoding="UTF-8"?>
<svg width="24px" height="24px" viewBox="0 0 24 24" version="1.1" xmlns="http://www.w3.org/2000/svg" xmlns:xlink="http://www.w3.org/1999/xlink">
    <!-- Generator: Sketch 52.5 (67469) - http://www.bohemiancoding.com/sketch -->
    <title> cloud-fill</title>
    <desc>Created with Sketch.</desc>
    <defs>
        <path d="M21.1298344,12.925912 C20.5498945,12.1342457 19.8087323,11.6211132 18.9058365,11.3862355 C19.1906923,10.9166194 19.3328645,10.3938631 19.3328645,9.81810574 C19.3328645,9.0150024 19.0724286,8.3294774 18.5516845,7.7612518 C18.0309404,7.19316567 17.4025443,6.90905287 16.6663683,6.90905287 C16.0066483,6.90905287 15.4302883,7.14393061 14.9372882,7.61368609 C14.527776,6.52270409 13.8730423,5.64777056 12.9738541,4.98874602 C12.074666,4.32958201 11.083296,4 9.99987215,4 C8.527776,4 7.27072812,4.56836508 6.22911206,5.70467681 C5.18736815,6.84084906 4.66662405,8.21217801 4.66662405,9.81824522 C4.66662405,9.91671534 4.67365595,10.0796234 4.68746404,10.30683 C3.868056,10.7234451 3.2153679,11.3484374 2.72914403,12.1816676 C2.24304801,13.0151767 2,13.924003 2,14.9091226 C2,16.3105784 2.45668989,17.5093754 3.36981397,18.5055137 C4.28293806,19.5019309 5.38195998,20 6.66662405,20 L18.0001279,20 C19.104136,20 20.0467941,19.5736216 20.828102,18.7215621 C21.6092821,17.8693632 22,16.841006 22,15.636351 C21.9998721,14.621244 21.7099022,13.7178573 21.1298344,12.925912 L21.1298344,12.925912 Z" id="path-1"></path>
    </defs>
    <g id="-cloud-fill" stroke="none" stroke-width="1" fill="none" fill-rule="evenodd">
        <mask id="mask-2" fill="white">
            <use xlink:href="#path-1"></use>
        </mask>
        <use id="Shape" fill="#000000" xlink:href="#path-1"></use>
    </g>
</svg>