<?xml version="1.0" encoding="UTF-8"?>
<svg width="24px" height="24px" viewBox="0 0 24 24" version="1.1" xmlns="http://www.w3.org/2000/svg" xmlns:xlink="http://www.w3.org/1999/xlink">
    <!-- Generator: Sketch 52.5 (67469) - http://www.bohemiancoding.com/sketch -->
    <title> cloud</title>
    <desc>Created with Sketch.</desc>
    <defs>
        <path d="M19.0756513,12.2916675 C19.938731,12.5060773 20.6390787,12.9691336 21.1884653,13.6853213 C21.7319805,14.3939483 21.9998809,15.1911031 22,16.0943398 C22,17.1681403 21.6391619,18.0750671 20.9040554,18.8408924 C20.1610834,19.6146584 19.2686158,20 18.2101323,20 L6.47995589,20 C5.23382781,20 4.17977851,19.5433302 3.30080807,18.6273727 C2.429332,17.7194792 2,16.6441542 2,15.3753584 C2,14.4860262 2.22871802,13.669449 2.69021158,12.9137593 C3.1543689,12.1541619 3.77679036,11.5850664 4.56479291,11.2024602 C4.70070396,11.13647 4.79196598,10.9757111 4.78058383,10.7968562 C4.7672787,10.5877841 4.75995589,10.4319287 4.75995589,10.3435674 C4.75995589,8.87259883 5.25551817,7.62676786 6.25993073,6.58063958 C7.27244916,5.52580985 8.4902362,5 9.92986767,5 C10.9890396,5 11.9531572,5.30608986 12.8286635,5.91899299 C13.699386,6.52841818 14.3277981,7.33047019 14.7215588,8.33225103 C14.8185883,8.57910715 15.0805535,8.64365593 15.2548968,8.48501337 C15.7029233,8.0773345 16.2238975,7.87528946 16.8296912,7.87528946 C17.5076321,7.87528946 18.0747691,8.12013716 18.5481614,8.61331171 C19.013511,9.09822651 19.2395148,9.66631787 19.2395148,10.3434295 C19.2395148,10.8243077 19.1173345,11.2570274 18.8660027,11.6527172 C18.7092789,11.8994588 18.8352072,12.2319354 19.0756513,12.2916675 Z M17.2395148,10.3434295 C17.2395148,10.1798209 17.2111929,10.1086301 17.1052211,9.99820278 C17.0067775,9.89564543 16.9596273,9.87528946 16.8296912,9.87528946 C16.7223397,9.87528946 16.6811667,9.89125723 16.6009328,9.96426552 C15.3808854,11.0744399 13.4648893,10.6023345 12.8601848,9.06388411 C12.6095879,8.42633148 12.22884,7.94037705 11.6817591,7.55747104 C11.1411938,7.17904525 10.5772396,7 9.92986767,7 C9.03827148,7 8.34046089,7.30129708 7.70270115,7.96570762 C7.05779131,8.63740217 6.75995589,9.38615282 6.75995589,10.3435674 C6.75995589,10.3761646 6.76587642,10.5021745 6.77654617,10.6698352 C6.83894303,11.6503168 6.31288153,12.5769789 5.43834609,13.0016002 C4.99690734,13.215936 4.66264599,13.5215596 4.39695496,13.9563651 C4.12766622,14.397322 4,14.8531205 4,15.3753584 C4,16.1297408 4.2309947,16.7083009 4.7437603,17.2424941 C5.24854425,17.7685193 5.78282978,18 6.47995589,18 L18.2101323,18 C18.7206363,18 19.0932451,17.8391183 19.4613133,17.4557948 C19.836895,17.0645182 20,16.6545718 20,16.0944716 C19.9999387,15.6293134 19.8759223,15.2602947 19.6015449,14.9025655 C19.3260691,14.5434517 19.0140602,14.3371575 18.5934594,14.2326701 C17.0089498,13.8390396 16.2988295,11.9641765 17.1777706,10.5803962 C17.2225153,10.5099513 17.2395148,10.4497452 17.2395148,10.3434295 Z" id="path-1"></path>
    </defs>
    <g id="-cloud" stroke="none" stroke-width="1" fill="none" fill-rule="evenodd">
        <mask id="mask-2" fill="white">
            <use xlink:href="#path-1"></use>
        </mask>
        <use id="Shape" fill="#000000" fill-rule="nonzero" xlink:href="#path-1"></use>
    </g>
</svg>