<svg width="24" height="24" viewBox="0 0 24 24" fill="none" xmlns="http://www.w3.org/2000/svg">
<path fill-rule="evenodd" clip-rule="evenodd" d="M16.6645 12.6024C15.9655 13.4824 15.0115 14.1774 13.8025 14.6884C12.5935 15.1994 11.2785 15.4544 9.85749 15.4544C9.21749 15.4544 8.56249 15.3944 7.89249 15.2754C6.97049 15.9314 5.93649 16.4084 4.79049 16.7074C4.52249 16.7744 4.20249 16.8344 3.83049 16.8854H3.79749C3.71549 16.8854 3.63849 16.8564 3.56849 16.7964C3.49749 16.7364 3.45449 16.6584 3.43949 16.5614C3.43249 16.5394 3.42849 16.5144 3.42849 16.4894C3.42849 16.4624 3.43049 16.4384 3.43449 16.4164C3.43749 16.3934 3.44549 16.3724 3.45649 16.3494L3.48449 16.2934C3.48449 16.2934 3.49749 16.2734 3.52349 16.2324C3.54949 16.1914 3.56449 16.1714 3.56849 16.1754C3.57249 16.1794 3.58849 16.1614 3.61849 16.1204C3.64849 16.0794 3.66249 16.0624 3.66249 16.0704C3.69949 16.0254 3.78549 15.9314 3.91949 15.7904C4.05349 15.6484 4.15049 15.5394 4.21049 15.4594C4.26336 15.3895 4.33631 15.2963 4.42861 15.1784C4.43931 15.1648 4.45027 15.1508 4.46149 15.1364C4.56949 14.9984 4.66149 14.8544 4.73949 14.7054C4.81849 14.5554 4.89449 14.3924 4.96949 14.2124C4.04649 13.6764 3.32149 13.0164 2.79249 12.2334C2.26449 11.4504 2.00049 10.6144 2.00049 9.72743C2.00049 8.69043 2.34949 7.73243 3.04949 6.85243C3.74849 5.97243 4.70249 5.27743 5.91149 4.76643C7.12049 4.25543 8.43649 4.00043 9.85749 4.00043C11.2785 4.00043 12.5935 4.25543 13.8025 4.76643C15.0115 5.27743 15.9655 5.97243 16.6645 6.85243C17.3645 7.73243 17.7145 8.69043 17.7145 9.72743C17.7145 10.7634 17.3645 11.7224 16.6645 12.6024ZM7.31439 13.7348L7.76239 13.4198L8.30139 13.5218C8.83039 13.6158 9.34839 13.6638 9.85739 13.6638C10.8944 13.6638 11.8644 13.4868 12.7654 13.1338C13.6674 12.7808 14.3844 12.3018 14.9164 11.6968C15.4494 11.0918 15.7154 10.4428 15.7154 9.74983C15.7154 9.05683 15.4494 8.40783 14.9164 7.80383C14.3844 7.19783 13.6674 6.71983 12.7654 6.36583C11.8644 6.01283 10.8944 5.83583 9.85739 5.83583C8.82039 5.83583 7.85039 6.01283 6.94839 6.36583C6.04739 6.71983 5.32939 7.19783 4.79739 7.80383C4.26539 8.40783 3.99939 9.05683 3.99939 9.74983C3.99939 10.3078 4.17939 10.8448 4.53839 11.3598C4.89739 11.8768 5.40339 12.3248 6.05439 12.7058L7.04039 13.2768L6.68439 14.1328C6.91439 13.9968 7.12439 13.8638 7.31439 13.7348Z" fill="black"/>
<path fill-rule="evenodd" clip-rule="evenodd" d="M21.2072 15.1015C21.7352 14.3225 21.9992 13.4855 21.9992 12.5905C21.9992 11.6725 21.7202 10.8155 21.1632 10.0175C20.7402 9.41352 20.2012 8.88652 19.5482 8.43652C19.6372 8.85952 19.6932 9.29052 19.6932 9.73652C19.6932 14.0325 15.3982 17.3975 9.9082 17.4125C11.1632 18.0095 12.5712 18.3175 14.1432 18.3175C14.7822 18.3175 15.4372 18.2575 16.1072 18.1385C17.0292 18.7945 18.0632 19.2725 19.2092 19.5705C19.4772 19.6375 19.7972 19.6975 20.1692 19.7495C20.2582 19.7565 20.3402 19.7315 20.4152 19.6715C20.4892 19.6115 20.5382 19.5305 20.5602 19.4255C20.5562 19.3805 20.5602 19.3565 20.5712 19.3525C20.5822 19.3495 20.5802 19.3255 20.5652 19.2805C20.5512 19.2355 20.5432 19.2125 20.5432 19.2125L20.5152 19.1575C20.5082 19.1425 20.4952 19.1225 20.4772 19.0955C20.4572 19.0705 20.4432 19.0505 20.4322 19.0395C20.4202 19.0285 20.4042 19.0095 20.3812 18.9845C20.3592 18.9575 20.3442 18.9415 20.3372 18.9335C20.3002 18.8885 20.2142 18.7955 20.0812 18.6545C19.9462 18.5125 19.8502 18.4025 19.7902 18.3245C19.7312 18.2465 19.6472 18.1375 19.5392 17.9995C19.4312 17.8625 19.3382 17.7185 19.2602 17.5695C19.1822 17.4195 19.1052 17.2555 19.0312 17.0775C19.9542 16.5395 20.6792 15.8815 21.2072 15.1015" fill="black"/>
</svg>
