<?xml version="1.0" encoding="UTF-8"?>
<svg width="24px" height="24px" viewBox="0 0 24 24" version="1.1" xmlns="http://www.w3.org/2000/svg" xmlns:xlink="http://www.w3.org/1999/xlink">
    <!-- Generator: Sketch 52.6 (67491) - http://www.bohemiancoding.com/sketch -->
    <title>comment-double</title>
    <desc>Created with Sketch.</desc>
    <g id="comment-double" stroke="none" stroke-width="1" fill="none" fill-rule="evenodd">
        <g id="Mask" transform="translate(2.000000, 4.000000)" fill="#000000">
            <path d="M11.8025,10.6884 C10.5935,11.1994 9.2785,11.4544 7.8575,11.4544 C7.2175,11.4544 6.5625,11.3944 5.8925,11.2754 C4.9705,11.9314 3.9365,12.4084 2.7905,12.7074 C2.5225,12.7744 2.2025,12.8344 1.8305,12.8854 L1.7975,12.8854 C1.7155,12.8854 1.6385,12.8564 1.5685,12.7964 C1.4975,12.7364 1.4545,12.6584 1.4395,12.5614 C1.4325,12.5394 1.4285,12.5144 1.4285,12.4894 C1.4285,12.4624 1.4305,12.4384 1.4345,12.4164 C1.4375,12.3934 1.4455,12.3724 1.4565,12.3494 L1.4845,12.2934 C1.4845,12.2934 1.4975,12.2734 1.5235,12.2324 C1.5495,12.1914 1.5645,12.1714 1.5685,12.1754 C1.5725,12.1794 1.5885,12.1614 1.6185,12.1204 C1.6485,12.0794 1.6625,12.0624 1.6625,12.0704 C1.6995,12.0254 1.7855,11.9314 1.9195,11.7904 C2.0535,11.6484 2.1505,11.5394 2.2105,11.4594 C2.2695,11.3814 2.3535,11.2744 2.4615,11.1364 C2.5695,10.9984 2.6615,10.8544 2.7395,10.7054 C2.8185,10.5554 2.8945,10.3924 2.9695,10.2124 C2.0465,9.6764 1.3215,9.0164 0.7925,8.2334 C0.2645,7.4504 0.0005,6.6144 0.0005,5.7274 C0.0005,4.6904 0.3495,3.7324 1.0495,2.8524 C1.7485,1.9724 2.7025,1.2774 3.9115,0.7664 C5.1205,0.2554 6.4365,0.0004 7.8575,0.0004 C9.2785,0.0004 10.5935,0.2554 11.8025,0.7664 C13.0115,1.2774 13.9655,1.9724 14.6645,2.8524 C15.3645,3.7324 15.7145,4.6904 15.7145,5.7274 C15.7145,6.7634 15.3645,7.7224 14.6645,8.6024 C13.9655,9.4824 13.0115,10.1774 11.8025,10.6884 Z M5.7624,9.4198 L6.3014,9.5218 C6.8304,9.6158 7.3484,9.6638 7.8574,9.6638 C8.8944,9.6638 9.8644,9.4868 10.7654,9.1338 C11.6674,8.7808 12.3844,8.3018 12.9164,7.6968 C13.4494,7.0918 13.7154,6.4428 13.7154,5.7498 C13.7154,5.0568 13.4494,4.4078 12.9164,3.8038 C12.3844,3.1978 11.6674,2.7198 10.7654,2.3658 C9.8644,2.0128 8.8944,1.8358 7.8574,1.8358 C6.8204,1.8358 5.8504,2.0128 4.9484,2.3658 C4.0474,2.7198 3.3294,3.1978 2.7974,3.8038 C2.2654,4.4078 1.9994,5.0568 1.9994,5.7498 C1.9994,6.3078 2.1794,6.8448 2.5384,7.3598 C2.8974,7.8768 3.4034,8.3248 4.0544,8.7058 L5.0404,9.2768 L4.6844,10.1328 C4.9144,9.9968 5.1244,9.8638 5.3144,9.7348 L5.7624,9.4198 Z" id="Combined-Shape"></path>
            <path d="M19.2072,11.1015 C19.7352,10.3225 19.9992,9.4855 19.9992,8.5905 C19.9992,7.6725 19.7202,6.8155 19.1632,6.0175 C18.7402,5.4135 18.2012,4.8865 17.5482,4.4365 C17.6372,4.8595 17.6932,5.2905 17.6932,5.7365 C17.6932,10.0325 13.3982,13.3975 7.9082,13.4125 C9.1632,14.0095 10.5712,14.3175 12.1432,14.3175 C12.7822,14.3175 13.4372,14.2575 14.1072,14.1385 C15.0292,14.7945 16.0632,15.2725 17.2092,15.5705 C17.4772,15.6375 17.7972,15.6975 18.1692,15.7495 C18.2582,15.7565 18.3402,15.7315 18.4152,15.6715 C18.4892,15.6115 18.5382,15.5305 18.5602,15.4255 C18.5562,15.3805 18.5602,15.3565 18.5712,15.3525 C18.5822,15.3495 18.5802,15.3255 18.5652,15.2805 C18.5512,15.2355 18.5432,15.2125 18.5432,15.2125 L18.5152,15.1575 C18.5082,15.1425 18.4952,15.1225 18.4772,15.0955 C18.4572,15.0705 18.4432,15.0505 18.4322,15.0395 C18.4202,15.0285 18.4042,15.0095 18.3812,14.9845 C18.3592,14.9575 18.3442,14.9415 18.3372,14.9335 C18.3002,14.8885 18.2142,14.7955 18.0812,14.6545 C17.9462,14.5125 17.8502,14.4025 17.7902,14.3245 C17.7312,14.2465 17.6472,14.1375 17.5392,13.9995 C17.4312,13.8625 17.3382,13.7185 17.2602,13.5695 C17.1822,13.4195 17.1052,13.2555 17.0312,13.0775 C17.9542,12.5395 18.6792,11.8815 19.2072,11.1015" id="Fill-5"></path>
        </g>
    </g>
</svg>