<?xml version="1.0" encoding="UTF-8"?>
<svg width="24px" height="24px" viewBox="0 0 24 24" version="1.1" xmlns="http://www.w3.org/2000/svg" xmlns:xlink="http://www.w3.org/1999/xlink">
    <!-- Generator: Sketch 52.6 (67491) - http://www.bohemiancoding.com/sketch -->
    <title>comment-double</title>
    <desc>Created with Sketch.</desc>
    <defs>
        <path d="M13.8024658,14.7439073 C15.0115068,14.2330228 15.9657534,13.5376103 16.6649315,12.6576698 C17.3643836,11.7777293 17.7141096,10.8195292 17.7141096,9.78293205 C17.7141096,8.74633495 17.3643836,7.78813479 16.6649315,6.90805698 C15.9657534,6.02811647 15.0115068,5.33270397 13.8024658,4.82181949 C12.5934247,4.31093501 11.2783562,4.05556142 9.85712329,4.05556142 C8.4360274,4.05556142 7.1209589,4.31107231 5.91178082,4.82195679 C4.70273973,5.33284127 3.74849315,6.02825376 3.04917808,6.90819428 C2.34972603,7.78813479 2,8.74633495 2,9.78293205 C2,10.6702866 2.26438356,11.50588 2.79260274,12.2887511 C3.32082192,13.0717595 4.04630137,13.7318865 4.96890411,14.2687202 C4.89452055,14.4478936 4.81821918,14.6116897 4.74013699,14.7610695 C4.66191781,14.9101747 4.5690411,15.0536508 4.46109589,15.1917722 C4.35315068,15.3297563 4.26958904,15.4378095 4.21,15.5159319 C4.15041096,15.5941915 4.05369863,15.7043042 3.91972603,15.8458581 C3.78575342,15.9875493 3.70013699,16.0807743 3.6630137,16.1255334 C3.6630137,16.1178447 3.64808219,16.1347323 3.61835616,16.1757843 C3.58849315,16.2168363 3.57178082,16.2353715 3.56808219,16.2318017 C3.56438356,16.2278201 3.54945205,16.2464926 3.52342466,16.2875446 C3.49739726,16.3285966 3.48438356,16.3490539 3.48438356,16.3490539 L3.45643836,16.404934 C3.44534247,16.4271763 3.43780822,16.4494185 3.43410959,16.4719353 C3.43041096,16.4941775 3.42849315,16.5186165 3.42849315,16.5445657 C3.42849315,16.570515 3.43219178,16.5948167 3.43972603,16.6171962 C3.45465753,16.7141283 3.49739726,16.7922507 3.56808219,16.8521124 C3.63876712,16.9116996 3.71493151,16.9413559 3.79684932,16.9413559 L3.83041096,16.9413559 C4.20232877,16.8893201 4.52232877,16.8295956 4.79013699,16.7624571 C5.9360274,16.4641093 6.97027397,15.9868628 7.89287671,15.3305801 C8.56246575,15.4498917 9.21726027,15.5096162 9.85712329,15.5096162 C11.2782192,15.5100281 12.5934247,15.2546545 13.8024658,14.7439073 L13.8024658,14.7439073 Z M7.55808219,13.8100088 L7.0669863,14.1566854 C6.85863014,14.2982392 6.62808219,14.443912 6.37506849,14.5930172 L6.76575342,13.6532149 L5.68315068,13.0268632 C4.96876712,12.6093411 4.41452055,12.1171291 4.02013699,11.5503644 C3.62575342,10.9835998 3.42863014,10.3944557 3.42863014,9.78293205 C3.42863014,9.02216588 3.72082192,8.31000308 4.30479452,7.64630633 C4.88876712,6.98260959 5.67561644,6.45689697 6.66520548,6.06903116 C7.65479452,5.68130265 8.71876712,5.4873011 9.85712329,5.4873011 C10.9954795,5.4873011 12.059589,5.68130265 13.0490411,6.06903116 C14.0386301,6.45689697 14.8254795,6.98260959 15.409589,7.64630633 C15.9936986,8.31000308 16.2856164,9.02216588 16.2856164,9.78293205 C16.2856164,10.5435609 15.9936986,11.2557237 15.409589,11.9194205 C14.8254795,12.5832545 14.0386301,13.1089671 13.0490411,13.4966956 C12.059589,13.8844242 10.9956164,14.0782884 9.85712329,14.0782884 C9.29917808,14.0782884 8.73,14.025978 8.14958904,13.9216318 L7.55808219,13.8100088 Z M21.2072603,15.1573105 C20.6793151,15.937161 19.9536986,16.5952286 19.0315068,17.1326115 C19.1058904,17.3115103 19.1821918,17.475581 19.260274,17.6246862 C19.3383562,17.7739287 19.4315068,17.917542 19.5393151,18.0553889 C19.6471233,18.1935103 19.7309589,18.3015635 19.790411,18.3798232 C19.849863,18.4580828 19.9465753,18.5680582 20.0805479,18.7097494 C20.2145205,18.8514405 20.3,18.9446656 20.3371233,18.9892873 C20.3446575,18.9968387 20.359589,19.0137263 20.3817808,19.0396756 C20.4042466,19.0656248 20.4208219,19.0842973 20.4319178,19.0954184 C20.4431507,19.1066768 20.4579452,19.1254866 20.4765753,19.1512985 C20.4952055,19.1773851 20.5079452,19.1979797 20.5156164,19.2128079 L20.5434247,19.2685507 C20.5434247,19.2685507 20.5509589,19.2909302 20.5657534,19.3356893 C20.580411,19.3804483 20.5823288,19.40475 20.5713699,19.4083197 C20.560137,19.4118894 20.5565753,19.4363284 20.560137,19.4810874 C20.5378082,19.5854336 20.4894521,19.667263 20.4150685,19.7269875 C20.3406849,19.786712 20.2586301,19.8127985 20.1694521,19.8052472 C19.7973973,19.7530741 19.4773973,19.6934869 19.209589,19.626211 C18.0638356,19.3278633 17.0294521,18.850754 16.1069863,18.1943341 C15.4372603,18.3136457 14.7826027,18.3733702 14.1426027,18.3733702 C12.1263014,18.3733702 10.370274,17.8811582 8.87479452,16.8968715 C9.30630137,16.926665 9.63369863,16.9414932 9.85684932,16.9414932 C11.0547945,16.9414932 12.2043836,16.7735782 13.3053425,16.4381601 C14.4065753,16.1024674 15.3887671,15.6215138 16.2519178,14.995162 C17.1819178,14.3089484 17.8963014,13.518526 18.3947945,12.6237573 C18.8935616,11.7288514 19.1426027,10.7817723 19.1426027,9.78252016 C19.1426027,9.20820417 19.0569863,8.64143956 18.8860274,8.08222631 C19.8457534,8.61164597 20.6047945,9.27548001 21.1628767,10.0733165 C21.7206849,10.8711531 21.999726,11.7288514 21.999726,12.6461368 C21.999726,13.5410428 21.7356164,14.3778718 21.2072603,15.1573105 Z" id="path-1"></path>
    </defs>
    <g id="comment-double" stroke="none" stroke-width="1" fill="none" fill-rule="evenodd">
        <mask id="mask-2" fill="white">
            <use xlink:href="#path-1"></use>
        </mask>
        <use id="Shape" fill="#000000" xlink:href="#path-1"></use>
    </g>
</svg>