<svg width="24" height="24" viewBox="0 0 24 24" fill="none" xmlns="http://www.w3.org/2000/svg">
<path d="M12 2C17.523 2 22 6.47702 22 12C22 17.523 17.523 22 12 22C6.47702 22 2 17.523 2 12C2 6.47702 6.47702 2 12 2ZM10.2097 9.57379L16.0298 6.91371C16.7016 6.60685 17.3931 7.29839 17.0863 7.97016L14.4262 13.7903C14.2975 14.0718 14.0718 14.2975 13.7903 14.4262L7.97016 17.0863C7.29839 17.3931 6.60685 16.7012 6.91371 16.0298L9.57379 10.2097C9.70246 9.92819 9.92819 9.70246 10.2097 9.57379ZM3.93548 12C3.93548 16.4468 7.55323 20.0645 12 20.0645C16.4468 20.0645 20.0645 16.4468 20.0645 12C20.0645 7.55323 16.4468 3.93548 12 3.93548C7.55323 3.93548 3.93548 7.55323 3.93548 12ZM11.0895 12.9105C11.5923 13.4133 12.4077 13.4133 12.9105 12.9105C13.4133 12.4077 13.4133 11.5923 12.9105 11.0895C12.4077 10.5867 11.5923 10.5867 11.0895 11.0895C10.5867 11.5923 10.5867 12.4077 11.0895 12.9105Z" fill="black"/>
</svg>
