<?xml version="1.0" encoding="UTF-8"?>
<svg width="24px" height="24px" viewBox="0 0 24 24" version="1.1" xmlns="http://www.w3.org/2000/svg" xmlns:xlink="http://www.w3.org/1999/xlink">
    <!-- Generator: Sketch 56.3 (81716) - https://sketch.com -->
    <title>compass</title>
    <desc>Created with Sketch.</desc>
    <defs>
        <path d="M16.0298387,6.91370968 L10.2096774,9.57379032 C9.92819089,9.70245589 9.70245589,9.92819089 9.57379032,10.2096774 L6.91370968,16.0298387 C6.60685483,16.7012097 7.2983871,17.3931451 7.97016129,17.0862903 L13.7903226,14.4262097 C14.0718091,14.2975441 14.2975441,14.0718091 14.4262097,13.7903226 L17.0862903,7.97016129 C17.3931451,7.2983871 16.7016129,6.60685483 16.0298387,6.91370968 Z M12.9104839,12.9104839 C12.4076613,13.4133064 11.5923387,13.4133064 11.0895161,12.9104839 C10.5866935,12.4076613 10.5866935,11.5923387 11.0895161,11.0895161 C11.5923387,10.5866935 12.4076613,10.5866935 12.9104839,11.0895161 C13.4133064,11.5923387 13.4133064,12.4076613 12.9104839,12.9104839 Z M12,2 C6.47701613,2 2,6.47701613 2,12 C2,17.5229839 6.47701613,22 12,22 C17.5229839,22 22,17.5229839 22,12 C22,6.47701613 17.5229839,2 12,2 Z M12,20.0645161 C7.55322581,20.0645161 3.93548387,16.4467742 3.93548387,12 C3.93548387,7.55322581 7.55322581,3.93548387 12,3.93548387 C16.4467742,3.93548387 20.0645161,7.55322581 20.0645161,12 C20.0645161,16.4467742 16.4467742,20.0645161 12,20.0645161 Z" id="path-1"></path>
    </defs>
    <g id="compass" stroke="none" stroke-width="1" fill="none" fill-rule="evenodd">
        <mask id="mask-2" fill="white">
            <use xlink:href="#path-1"></use>
        </mask>
        <use id="Mask" fill="#000000" fill-rule="nonzero" xlink:href="#path-1"></use>
    </g>
</svg>