<?xml version="1.0" encoding="UTF-8"?>
<svg width="24px" height="24px" viewBox="0 0 24 24" version="1.1" xmlns="http://www.w3.org/2000/svg" xmlns:xlink="http://www.w3.org/1999/xlink">
    <!-- Generator: Sketch 52.6 (67491) - http://www.bohemiancoding.com/sketch -->
    <title>cross</title>
    <desc>Created with Sketch.</desc>
    <defs>
        <path d="M12,10.5857864 L17.6568542,4.92893219 C18.0473785,4.5384079 18.6805435,4.5384079 19.0710678,4.92893219 C19.4615921,5.31945648 19.4615921,5.95262146 19.0710678,6.34314575 L13.4142136,12 L19.0710678,17.6568542 C19.4615921,18.0473785 19.4615921,18.6805435 19.0710678,19.0710678 C18.6805435,19.4615921 18.0473785,19.4615921 17.6568542,19.0710678 L12,13.4142136 L6.34314575,19.0710678 C5.95262146,19.4615921 5.31945648,19.4615921 4.92893219,19.0710678 C4.5384079,18.6805435 4.5384079,18.0473785 4.92893219,17.6568542 L10.5857864,12 L4.92893219,6.34314575 C4.5384079,5.95262146 4.5384079,5.31945648 4.92893219,4.92893219 C5.31945648,4.5384079 5.95262146,4.5384079 6.34314575,4.92893219 L12,10.5857864 Z" id="path-1"></path>
    </defs>
    <g id="cross" stroke="none" stroke-width="1" fill="none" fill-rule="evenodd">
        <mask id="mask-2" fill="white">
            <use xlink:href="#path-1"></use>
        </mask>
        <use id="Path" fill="#000000" xlink:href="#path-1"></use>
    </g>
</svg>