<svg width="24" height="24" viewBox="0 0 24 24" fill="none" xmlns="http://www.w3.org/2000/svg">
<path fill-rule="evenodd" clip-rule="evenodd" d="M12.0002 2.00061C6.47621 2.00061 2.00021 6.47661 2.00021 12.0006C2.00021 17.5226 6.47621 22.0006 12.0002 22.0006C17.5222 22.0006 22.0002 17.5226 22.0002 12.0006C22.0002 6.47661 17.5222 2.00061 12.0002 2.00061V2.00061ZM12 10.5858L14.1213 8.46448C14.5119 8.07395 15.145 8.07395 15.5355 8.46448C15.9261 8.855 15.9261 9.48817 15.5355 9.87869L13.4142 12L15.5355 14.1213C15.9261 14.5119 15.9261 15.145 15.5355 15.5355C15.145 15.9261 14.5119 15.9261 14.1213 15.5355L12 13.4142L9.87869 15.5355C9.48817 15.9261 8.855 15.9261 8.46448 15.5355C8.07396 15.145 8.07396 14.5119 8.46448 14.1213L10.5858 12L8.46448 9.87869C8.07396 9.48817 8.07396 8.855 8.46448 8.46448C8.855 8.07395 9.48817 8.07395 9.87869 8.46448L12 10.5858Z" fill="black"/>
</svg>
