<svg width="24" height="24" viewBox="0 0 24 24" fill="none" xmlns="http://www.w3.org/2000/svg">
<path fill-rule="evenodd" clip-rule="evenodd" d="M12 10.5858L17.6569 4.92894C18.0474 4.53842 18.6806 4.53842 19.0711 4.92894C19.4616 5.31946 19.4616 5.95263 19.0711 6.34315L13.4142 12L19.0711 17.6569C19.4616 18.0474 19.4616 18.6806 19.0711 19.0711C18.6806 19.4616 18.0474 19.4616 17.6569 19.0711L12 13.4142L6.34315 19.0711C5.95263 19.4616 5.31946 19.4616 4.92894 19.0711C4.53842 18.6806 4.53842 18.0474 4.92894 17.6569L10.5858 12L4.92894 6.34315C4.53842 5.95263 4.53842 5.31946 4.92894 4.92894C5.31946 4.53842 5.95263 4.53842 6.34315 4.92894L12 10.5858Z" fill="black"/>
</svg>
