<svg width="24" height="24" viewBox="0 0 24 24" fill="none" xmlns="http://www.w3.org/2000/svg">
<path fill-rule="evenodd" clip-rule="evenodd" d="M12 10.5858L14.1213 8.46452C14.5118 8.074 15.145 8.074 15.5355 8.46452C15.9261 8.85505 15.9261 9.48821 15.5355 9.87874L13.4142 12.0001L15.5355 14.1214C15.9261 14.5119 15.9261 15.1451 15.5355 15.5356C15.145 15.9261 14.5118 15.9261 14.1213 15.5356L12 13.4143L9.87868 15.5356C9.48815 15.9261 8.85499 15.9261 8.46446 15.5356C8.07394 15.1451 8.07394 14.5119 8.46446 14.1214L10.5858 12.0001L8.46446 9.87874C8.07394 9.48821 8.07394 8.85505 8.46446 8.46452C8.85499 8.074 9.48815 8.074 9.87868 8.46452L12 10.5858Z" fill="black"/>
</svg>
