<?xml version="1.0" encoding="UTF-8"?>
<svg width="24px" height="24px" viewBox="0 0 24 24" version="1.1" xmlns="http://www.w3.org/2000/svg" xmlns:xlink="http://www.w3.org/1999/xlink">
    <!-- Generator: Sketch 52.6 (67491) - http://www.bohemiancoding.com/sketch -->
    <title>cross</title>
    <desc>Created with Sketch.</desc>
    <defs>
        <path d="M5.66396894,19.9999997 C5.55189399,19.9999997 5.44645986,19.9563253 5.3671463,19.8770117 L4.14304345,18.6529088 C3.97903727,18.4888805 3.97886018,18.2218088 4.14266714,18.057537 L10.1811893,12.0024791 L4.12343089,5.96127844 C4.04389597,5.88196488 4.00006654,5.77648648 4.00000013,5.66425657 C3.99991159,5.55207094 4.0436082,5.44654827 4.12298817,5.3671683 L5.34711315,4.14306546 C5.42662594,4.06353054 5.53241424,4.01974538 5.64495405,4.01974538 C5.75731677,4.01974538 5.86295012,4.06341986 5.94246291,4.14268914 L11.9975208,10.1812113 L18.0386993,4.12345289 C18.1180793,4.04385157 18.2236905,4 18.3360089,4 C18.448106,4 18.5535401,4.04369661 18.6328537,4.12301017 L19.8569565,5.34711302 C20.0209627,5.5111192 20.0211398,5.77821309 19.8573329,5.94246277 L13.8188107,11.9975206 L19.8765691,18.0387213 C19.9560598,18.1180127 19.9999113,18.2234911 19.9999999,18.3356989 C20.0000884,18.4479288 19.9563918,18.5534515 19.8769897,18.6328536 L18.6528868,19.8569564 C18.5733741,19.9364692 18.4676079,19.9802544 18.355046,19.9802544 C18.2426832,19.9802544 18.1370277,19.936602 18.057515,19.8573327 L12.0024792,13.8188105 L5.96130071,19.876569 C5.8818986,19.9561703 5.77630952,19.9999997 5.66396894,19.9999997" id="path-1"></path>
    </defs>
    <g id="cross" stroke="none" stroke-width="1" fill="none" fill-rule="evenodd">
        <mask id="mask-2" fill="white">
            <use xlink:href="#path-1"></use>
        </mask>
        <use id="Fill1" fill="#000000" xlink:href="#path-1"></use>
    </g>
</svg>