<svg width="24" height="24" viewBox="0 0 24 24" fill="none" xmlns="http://www.w3.org/2000/svg">
<path fill-rule="evenodd" clip-rule="evenodd" d="M12.0002 2.00061C6.47618 2.00061 2.00018 6.47661 2.00018 12.0006C2.00018 17.5226 6.47618 22.0006 12.0002 22.0006C17.5222 22.0006 22.0002 17.5226 22.0002 12.0006C22.0002 6.47661 17.5222 2.00061 12.0002 2.00061ZM12 10.5858L14.1213 8.46448C14.5118 8.07395 15.145 8.07395 15.5355 8.46448C15.926 8.855 15.926 9.48817 15.5355 9.87869L13.4142 12L15.5355 14.1213C15.926 14.5119 15.926 15.145 15.5355 15.5355C15.145 15.9261 14.5118 15.9261 14.1213 15.5355L12 13.4142L9.87866 15.5355C9.48814 15.9261 8.85497 15.9261 8.46445 15.5355C8.07393 15.145 8.07393 14.5119 8.46445 14.1213L10.5858 12L8.46445 9.87869C8.07393 9.48817 8.07393 8.855 8.46445 8.46448C8.85497 8.07395 9.48814 8.07395 9.87866 8.46448L12 10.5858Z" fill="black"/>
</svg>
