<svg width="24" height="24" viewBox="0 0 24 24" fill="none" xmlns="http://www.w3.org/2000/svg">
<path fill-rule="evenodd" clip-rule="evenodd" d="M8.08417 20.9999C7.81617 20.9999 7.54917 20.9049 7.33917 20.7139C6.90317 20.3179 6.88517 19.6579 7.29617 19.2389L14.4222 11.9999L7.29617 4.76088C6.88517 4.34188 6.90317 3.68188 7.33917 3.28588C7.77317 2.88988 8.45917 2.90788 8.87317 3.32588L16.7032 11.2829C17.0992 11.6849 17.0992 12.3149 16.7032 12.7169L8.87317 20.6739C8.65817 20.8909 8.37117 20.9999 8.08417 20.9999Z" fill="black"/>
<mask id="mask0_1784_256" style="mask-type:luminance" maskUnits="userSpaceOnUse" x="6" y="3" width="12" height="18">
<path fill-rule="evenodd" clip-rule="evenodd" d="M8.08417 20.9999C7.81617 20.9999 7.54917 20.9049 7.33917 20.7139C6.90317 20.3179 6.88517 19.6579 7.29617 19.2389L14.4222 11.9999L7.29617 4.76088C6.88517 4.34188 6.90317 3.68188 7.33917 3.28588C7.77317 2.88988 8.45917 2.90788 8.87317 3.32588L16.7032 11.2829C17.0992 11.6849 17.0992 12.3149 16.7032 12.7169L8.87317 20.6739C8.65817 20.8909 8.37117 20.9999 8.08417 20.9999Z" fill="white"/>
</mask>
<g mask="url(#mask0_1784_256)">
</g>
</svg>
