<?xml version="1.0" encoding="UTF-8"?>
<svg width="24px" height="24px" viewBox="0 0 24 24" version="1.1" xmlns="http://www.w3.org/2000/svg" xmlns:xlink="http://www.w3.org/1999/xlink">
    <!-- Generator: Sketch 52.6 (67491) - http://www.bohemiancoding.com/sketch -->
    <title>direction-left</title>
    <desc>Created with Sketch.</desc>
    <defs>
        <path d="M17,4.49717743 C17,4.34088477 16.9426378,4.20252371 16.8281243,4.08231561 L15.9689569,3.18042283 C15.8544435,3.06021474 15.722637,3 15.5737484,3 C15.4248598,3 15.2930533,3.06021474 15.1785398,3.18042283 L7.17187566,11.5852489 C7.05715129,11.705457 7,11.843818 7,12.0001107 C7,12.1564034 7.05736218,12.2947644 7.17187566,12.4149725 L15.1785398,20.8197985 C15.2930533,20.940228 15.4246489,21 15.5737484,21 C15.7228479,21 15.8544435,20.9400066 15.9689569,20.8197985 L16.8281243,19.9183485 C16.9426378,19.7981404 17,19.6597794 17,19.5032653 C17,19.347194 16.9426378,19.208833 16.8281243,19.0886249 L10.0756253,12.0001107 L16.8281243,4.91203926 C16.9428487,4.79183116 17,4.6534701 17,4.49717743 L17,4.49717743 Z" id="path-1"></path>
    </defs>
    <g id="direction-left" stroke="none" stroke-width="1" fill="none" fill-rule="evenodd">
        <mask id="mask-2" fill="white">
            <use xlink:href="#path-1"></use>
        </mask>
        <use id="Shape" fill="#000000" xlink:href="#path-1"></use>
    </g>
</svg>