<?xml version="1.0" encoding="UTF-8"?>
<svg width="24px" height="24px" viewBox="0 0 24 24" version="1.1" xmlns="http://www.w3.org/2000/svg" xmlns:xlink="http://www.w3.org/1999/xlink">
    <!-- Generator: Sketch 52.6 (67491) - http://www.bohemiancoding.com/sketch -->
    <title>direction-right</title>
    <desc>Created with Sketch.</desc>
    <defs>
        <path d="M8.42696967,21 C8.2784064,21 8.14520966,20.9392941 8.03113033,20.819534 L7.17213738,19.9181778 C7.05791689,19.7982694 7,19.6583939 7,19.5023838 C7,19.3466914 7.05791689,19.2069641 7.17213738,19.0870557 L13.9232863,11.9993542 L7.17213738,4.91360065 C7.05791689,4.79394635 7,4.65411323 7,4.49803964 C7,4.34222014 7.05791689,4.20240819 7.17213738,4.0824998 L8.03113033,3.18072013 C8.14535082,3.06079057 8.27854756,3 8.42696967,3 C8.57541194,3 8.70860868,3.06079057 8.82280901,3.18072013 L16.8278626,11.5845554 C16.9420831,11.7042309 17,11.8440429 17,12.0001165 C17,12.1559571 16.9420831,12.2957691 16.8278626,12.4156775 L8.82280901,20.819534 C8.70895151,20.9392941 8.57577493,21 8.42696967,21" id="path-1"></path>
    </defs>
    <g id="direction-right" stroke="none" stroke-width="1" fill="none" fill-rule="evenodd">
        <mask id="mask-2" fill="white">
            <use xlink:href="#path-1"></use>
        </mask>
        <use id="Fill1" fill="#000000" xlink:href="#path-1"></use>
    </g>
</svg>