<svg width="24" height="24" viewBox="0 0 24 24" fill="none" xmlns="http://www.w3.org/2000/svg">
<path d="M20.816 3L20.9139 3.03154C21.4716 3.07432 21.9315 3.56948 22 4.1705V16.8112C22 17.043 21.9344 17.2501 21.8336 17.4437C21.6115 17.8714 21.276 17.9972 20.816 17.9972H13.9792V20.0038H15.6008C15.9041 20.0038 16 20.0929 16 20.4193C16 20.7457 15.9041 21 15.6008 21H8.38947C8.08617 21 8 20.7457 8 20.4193C8 20.0929 8.08617 20.0038 8.38947 20.0038H9.98148V17.9972H3.17421C2.71435 17.9972 2.38183 17.8714 2.15657 17.4437C2.05866 17.2591 2 17.0543 2 16.8112V4.17046C2.06846 3.56948 2.49908 3.07432 3.07627 3H20.816ZM20 15.9087L20 5H4V15.9087C4 15.9728 4.02641 16 4.08782 16H19.9122C19.9738 16 20 15.9728 20 15.9087Z" fill="black"/>
</svg>
