<svg width="24" height="24" viewBox="0 0 24 24" fill="none" xmlns="http://www.w3.org/2000/svg">
<path fill-rule="evenodd" clip-rule="evenodd" d="M20 7.15276V20.1248C20 21.1608 19.16 21.9998 18.125 21.9998H5.875C4.839 21.9998 4 21.1608 4 20.1248V3.87476C4 2.83976 4.839 1.99976 5.875 1.99976H14.842C15.341 1.99976 15.819 2.19776 16.172 2.55076L19.449 5.82776C19.801 6.17576 20 6.65676 20 7.15276ZM15 4.02776V6.99976H17.973L15 4.02776ZM17.998 19.9998L18 9.05976H14.063C13.545 9.05976 13.125 8.64076 13.125 8.12276L13.123 3.99976H6V19.9998H17.998ZM8 12C8 11.4477 8.44772 11 9 11H15C15.5523 11 16 11.4477 16 12C16 12.5522 15.5523 13 15 13H9C8.44772 13 8 12.5522 8 12ZM9 15C8.44772 15 8 15.4477 8 16C8 16.5522 8.44772 17 9 17H15C15.5523 17 16 16.5522 16 16C16 15.4477 15.5523 15 15 15H9Z" fill="black"/>
</svg>
