<svg width="24" height="24" viewBox="0 0 24 24" fill="none" xmlns="http://www.w3.org/2000/svg">
<path d="M8 12C8 11.4477 8.44772 11 9 11H15C15.5523 11 16 11.4477 16 12C16 12.5523 15.5523 13 15 13H9C8.44772 13 8 12.5523 8 12Z" fill="black"/>
<path d="M9 15C8.44772 15 8 15.4477 8 16C8 16.5523 8.44772 17 9 17H15C15.5523 17 16 16.5523 16 16C16 15.4477 15.5523 15 15 15H9Z" fill="black"/>
<path d="M20 7.15282V20.1248C20 21.1608 19.16 21.9998 18.125 21.9998H5.875C4.839 21.9998 4 21.1608 4 20.1248V3.87482C4 2.83982 4.839 1.99982 5.875 1.99982H14.842C15.341 1.99982 15.819 2.19782 16.172 2.55082L19.449 5.82782C19.801 6.17582 20 6.65682 20 7.15282ZM15 4.02782V6.99982H17.973L15 4.02782ZM17.998 19.9998L18 9.05982H14.063C13.545 9.05982 13.125 8.64082 13.125 8.12282L13.123 3.99982H6V19.9998H17.998Z" fill="black"/>
</svg>
