<svg width="24" height="24" viewBox="0 0 24 24" fill="none" xmlns="http://www.w3.org/2000/svg">
<path fill-rule="evenodd" clip-rule="evenodd" d="M11.914 2.00054C11.858 2 11.8028 1.99946 11.7461 2.00109C6.3457 2.1378 2 6.56749 2 12.0005C2 17.5203 6.47998 22 12 22C17.52 22 22 17.5203 22 12.0005C22 6.48082 17.52 2.00109 12 2.00109C11.9709 2.00109 11.9423 2.00081 11.914 2.00054ZM19.7061 14.1554C19.8976 13.4698 20 12.7471 20 12.0006C20 7.58458 16.4163 4.00105 12 4.00105C11.9712 4.00105 11.9427 4.00078 11.9144 4.00052C11.8582 4 11.8025 3.99948 11.7453 4.00105C9.03676 4.08726 6.66555 5.52268 5.28248 7.65648L9.15699 9.40224C9.26134 8.92143 9.48013 8.509 9.83203 8.18361C10.217 7.82767 10.7316 7.60344 11.375 7.51144V6.06336H12.625V7.48843C13.4859 7.56808 14.4792 7.84879 15.0115 8.48145L13.9324 9.65448C13.3232 9.14425 12.8716 9.09787 12.1257 9.09787C11.657 9.09787 11.4128 9.165 11.2139 9.30049C11.0149 9.42988 10.916 9.59955 10.916 9.8095C10.916 9.9987 11.0063 10.1549 11.1895 10.2782C11.3713 10.4088 11.8474 10.6029 12.7971 10.8617C13.8616 11.1522 14.5854 11.5062 14.9663 11.9212C15.0114 11.9712 15.0538 12.0231 15.0936 12.0771L19.7061 14.1554ZM19.0214 15.836L15.4624 14.2324C15.3455 14.7763 15.075 15.2435 14.6514 15.6344C14.1284 16.121 13.4971 16.5094 12.625 16.5808V17.9377H11.375V16.5199C10.2691 16.3578 9.13457 15.9277 8.75903 15.2633L10.0139 14.1074C10.6584 15.0082 12.6238 15.0729 13.2988 14.692C13.5466 14.5517 13.6077 14.1452 13.6077 13.8706C13.6077 13.6814 13.5588 13.5337 13.4587 13.425L13.4572 13.4235C13.416 13.3813 13.3506 13.3144 13.268 13.2437L12.4511 12.8756C11.059 12.4871 10.0947 12.027 9.69897 11.6868C9.6586 11.6519 9.6208 11.6178 9.58543 11.5844L4.47467 9.28162C4.1675 10.1307 4 11.0463 4 12.0006C4 16.4166 7.58373 20.0002 12 20.0002C15.0268 20.0002 17.6624 18.3169 19.0214 15.836Z" fill="black"/>
</svg>
