<?xml version="1.0" encoding="UTF-8"?>
<svg width="24px" height="24px" viewBox="0 0 24 24" version="1.1" xmlns="http://www.w3.org/2000/svg" xmlns:xlink="http://www.w3.org/1999/xlink">
    <!-- Generator: Sketch 52.6 (67491) - http://www.bohemiancoding.com/sketch -->
    <title>dollar-denial</title>
    <desc>Created with Sketch.</desc>
    <defs>
        <path d="M11.375,16.0628221 L11.375,17.9377204 L12.625,17.9377204 L12.625,16.0628221 L11.375,16.0628221 Z M11.7460938,2.00108501 C6.34570313,2.13779634 2,6.56748758 2,12.0005425 C2,17.5202627 6.47998063,22 12,22 C17.5200197,22 22,17.5202627 22,12.0005425 C22,6.48082259 17.5200197,2.00108501 12,2.00108501 C11.91333,2.00108501 11.8315431,1.99864374 11.7460938,2.00108501 Z M11.375,7.51143494 C10.731633,7.60344316 10.2169776,7.827668 9.83203125,8.18361084 C9.48013324,8.50899556 9.26134013,8.9214272 9.15698559,9.40224044 L5.28248209,7.65648456 C6.66554526,5.5226749 9.03675571,4.08726437 11.745283,4.00104809 C11.8313678,3.99868988 11.9139152,4.00104809 12,4.00104809 C16.4162735,4.00104809 20,7.58458017 20,12.0006141 C20,12.7470947 19.8975983,13.4697874 19.7060835,14.1554042 L15.0935538,12.0771119 C15.053848,12.0231434 15.0114322,11.9711724 14.9663088,11.9212012 C14.5854494,11.5061846 13.8615722,11.1521998 12.7971191,10.8616884 C11.8474122,10.6029133 11.3713378,10.408832 11.1894531,10.2782238 C11.0063478,10.1549395 10.9160156,9.99869799 10.9160156,9.80949919 C10.9160156,9.59954964 11.0148925,9.42988135 11.2138672,9.30049368 C11.4128419,9.16500291 11.6569825,9.09786811 12.1257325,9.09786811 C12.8715822,9.09786811 13.3232422,9.14425216 13.9323731,9.65447854 L15.0114747,8.48144624 C14.4792103,7.84878923 13.4859184,7.56808038 12.625,7.4884287 L12.625,6.06336462 L11.375,6.06336462 L11.375,7.51143494 Z M19.0213758,15.8360044 C17.6624487,18.3169058 15.0267584,20.0001801 12,20.0001801 C7.58372649,20.0001801 4,16.416648 4,12.0006141 C4,11.0462847 4.16749878,10.1306772 4.47466968,9.28161683 L9.58543229,11.5844006 C9.62080493,11.6178125 9.65859944,11.6518613 9.69897469,11.6868389 C10.0946647,12.0269552 11.0590022,12.4871126 12.4511457,12.8756205 L13.2679917,13.2436712 C13.3516,13.3152252 13.4175644,13.3828947 13.4587403,13.4250258 C13.5588378,13.5336625 13.6076659,13.6813594 13.6076659,13.8705582 C13.6076659,14.1452015 13.5466309,14.5516738 13.2988281,14.6920468 C12.6237794,15.0728855 10.6584472,15.0081918 10.0139159,14.107362 L8.75903313,15.2633049 C9.24609375,16.1250747 11.0100097,16.5925787 12.3320313,16.5925787 C13.3586425,16.5925787 14.0715331,16.1739001 14.6513672,15.6343785 C15.0750245,15.2434677 15.3455214,14.7763013 15.4623939,14.2324149 L19.0213758,15.8360044 Z" id="path-1"></path>
    </defs>
    <g id="dollar-denial" stroke="none" stroke-width="1" fill="none" fill-rule="evenodd">
        <mask id="mask-2" fill="white">
            <use xlink:href="#path-1"></use>
        </mask>
        <use id="Mask" fill="#000000" fill-rule="nonzero" xlink:href="#path-1"></use>
    </g>
</svg>