<?xml version="1.0" encoding="UTF-8"?>
<svg width="24px" height="24px" viewBox="0 0 24 24" version="1.1" xmlns="http://www.w3.org/2000/svg" xmlns:xlink="http://www.w3.org/1999/xlink">
    <!-- Generator: Sketch 52.6 (67491) - http://www.bohemiancoding.com/sketch -->
    <title>dollar</title>
    <desc>Created with Sketch.</desc>
    <defs>
        <path d="M16.8595085,14.176224 C16.7667683,13.8490918 16.6542961,13.5644264 16.522092,13.322639 C16.3900194,13.0807145 16.2008557,12.8446807 15.9542062,12.6138524 C15.7078199,12.3830242 15.4861642,12.1972657 15.2896339,12.0558919 C15.0932352,11.9145182 14.8234335,11.7564317 14.4804921,11.5814954 C14.1376822,11.4065591 13.8661705,11.2764185 13.66622,11.1907997 C13.4660064,11.105318 13.1766044,10.9880545 12.7978823,10.8392833 C12.4620444,10.705444 12.2121063,10.6031124 12.0475417,10.5324255 C11.8832403,10.4617387 11.6671096,10.361325 11.3991496,10.2310474 C11.1313212,10.1009069 10.9312391,9.98556125 10.799035,9.88514754 C10.6668309,9.78473383 10.5258132,9.66199074 10.3757188,9.51691827 C10.2256243,9.3718458 10.1202557,9.21745801 10.0594813,9.0537549 C9.99883837,8.89005178 9.96845115,8.71141675 9.96845115,8.51798679 C9.96845115,8.01208252 10.1827402,7.59905751 10.6114499,7.27918573 C11.0401595,6.95931395 11.5939698,6.79930957 12.2727492,6.79930957 C12.5726749,6.79930957 12.8783887,6.84205047 13.1891013,6.92766925 C13.4998138,7.01328804 13.7659322,7.10986602 13.9873247,7.21781419 C14.2091119,7.32576235 14.4180076,7.44480671 14.6145379,7.57494726 C14.8110682,7.7052248 14.9503758,7.80372065 15.0325923,7.87070879 C15.1148088,7.93769692 15.1667696,7.98235568 15.1880801,8.00468506 C15.2810834,8.07907066 15.3772438,8.10509877 15.4773506,8.08276939 C15.5844294,8.07537193 15.6666459,8.01578125 15.7240001,7.90427135 L16.5922062,6.27477465 C16.6779745,6.12600345 16.6600841,5.98462972 16.5386668,5.85065344 C16.4956512,5.80599468 16.4422433,5.75393846 16.3776541,5.69434779 C16.3134594,5.63475712 16.1741518,5.52694594 15.9595997,5.37064029 C15.7453106,5.21447163 15.5183931,5.07487876 15.2792418,4.95213567 C15.0398273,4.82939259 14.7288517,4.70473164 14.3465779,4.57828982 C13.9645672,4.45171101 13.569665,4.36622921 13.1622658,4.32157045 L13.1622658,2.35713307 C13.1622658,2.25302063 13.1301685,2.16740185 13.0661054,2.10041371 C13.0017792,2.03356256 12.9195627,2 12.8194559,2 L11.3724457,2 C11.279574,2 11.1991991,2.03534343 11.1313212,2.1060303 C11.0634433,2.17671717 11.0295043,2.26041809 11.0295043,2.35713307 L11.0295043,4.36609222 C9.90767672,4.58924902 8.99671802,5.08775583 8.29649662,5.86161265 C7.59640676,6.63546946 7.24623029,7.53563111 7.24623029,8.56250856 C7.24623029,8.86758541 7.2766175,9.15773035 7.33739193,9.43294337 C7.39803482,9.70829338 7.4731478,9.95569742 7.5624678,10.1751555 C7.65178779,10.3947505 7.7785985,10.6105099 7.94289994,10.8225705 C8.10720137,11.0346311 8.2626892,11.2169648 8.40910032,11.3694348 C8.55564299,11.5219047 8.74677989,11.6799912 8.98251101,11.8436943 C9.21837367,12.0075345 9.42016583,12.1395929 9.58815056,12.2400066 C9.75613529,12.3401463 9.9793695,12.4557659 10.2579847,12.5857695 C10.5366,12.716047 10.756414,12.8145429 10.9171637,12.881668 C11.0779134,12.9485191 11.2975958,13.0416724 11.5763426,13.1604428 C11.9621681,13.3167484 12.2478869,13.4375736 12.4337619,13.5231924 C12.619637,13.6088112 12.8553681,13.7278556 13.1412184,13.8803255 C13.4270687,14.0327954 13.6359643,14.1722513 13.7683,14.2988301 C13.9003726,14.4254089 14.0200798,14.5815776 14.1272901,14.7676101 C14.2345004,14.9536426 14.2881713,15.1507713 14.2881713,15.3591331 C14.2881713,15.9469575 14.0684888,16.4008055 13.6289924,16.7205403 C13.1896275,17.0405491 12.6804114,17.2005534 12.1017389,17.2005534 C11.8375937,17.2005534 11.5730539,17.1709636 11.3087773,17.1113729 C10.3799282,16.917669 9.51185366,16.4527247 8.70442195,15.7161292 L8.68297989,15.6937998 C8.61865371,15.6121538 8.53288547,15.5785912 8.42580671,15.5935231 C8.3114929,15.608455 8.22927641,15.6531138 8.17928879,15.7276364 L7.07535154,17.234253 C6.96814123,17.3830242 6.97537629,17.5354941 7.0967936,17.6917998 C7.13257421,17.7364585 7.19505875,17.8035837 7.28437874,17.8927642 C7.37383028,17.9822187 7.53997336,18.1215376 7.78280799,18.3115428 C8.02564261,18.501411 8.29005084,18.679772 8.57590114,18.8473109 C8.86175143,19.0147127 9.22429326,19.1801967 9.66378973,19.3438998 C10.1032862,19.507466 10.5586998,19.6228116 11.0302936,19.6896627 L11.0302936,21.6428669 C11.0302936,21.7397189 11.0642325,21.8232828 11.1321105,21.8941067 C11.1999884,21.9647936 11.2803632,22 11.373235,22 L12.8202452,22 C12.920352,22 13.0025685,21.9665744 13.0668947,21.8997233 C13.1310893,21.8327351 13.1630551,21.7472533 13.1630551,21.6428669 L13.1630551,19.6896627 C14.2993527,19.4962328 15.2228084,18.9884106 15.933685,18.1661963 C16.6445617,17.343982 17,16.3636812 17,15.2252938 C16.9997369,14.8535028 16.953301,14.5037672 16.8595085,14.176224 L16.8595085,14.176224 Z" id="path-1"></path>
    </defs>
    <g id="dollar" stroke="none" stroke-width="1" fill="none" fill-rule="evenodd">
        <mask id="mask-2" fill="white">
            <use xlink:href="#path-1"></use>
        </mask>
        <use id="Shape" fill="#000000" xlink:href="#path-1"></use>
    </g>
</svg>