<?xml version="1.0" encoding="UTF-8"?>
<svg width="24px" height="24px" viewBox="0 0 24 24" version="1.1" xmlns="http://www.w3.org/2000/svg" xmlns:xlink="http://www.w3.org/1999/xlink">
    <!-- Generator: Sketch 52.6 (67491) - http://www.bohemiancoding.com/sketch -->
    <title>double-arrow-rect</title>
    <desc>Created with Sketch.</desc>
    <defs>
        <path d="M6.06765587,4.8 C5.36867587,4.8 4.8,5.36867587 4.8,6.06765587 L4.8,17.9323641 C4.8,18.6313441 5.36867587,19.2 6.06765587,19.2 L17.9323441,19.2 C18.6313241,19.2 19.2,18.6313441 19.2,17.9323641 L19.2,6.06765587 C19.2,5.36867587 18.6313241,4.8 17.9323441,4.8 L6.06765587,4.8 Z M5.69300979,21 C4.20809876,21 3,19.7919224 3,18.3070114 L3,5.69300979 C3,4.20807757 4.20809876,3 5.69300979,3 L18.3069902,3 C19.7919224,3 21,4.20807757 21,5.69300979 L21,18.3070114 C21,19.7919224 19.7919224,21 18.3069902,21 L5.69300979,21 Z M15.2555687,13.2401222 C15.3463321,13.1511833 15.3968407,13.0373989 15.3968407,12.9118664 C15.3968407,12.7863338 15.3463321,12.6725495 15.2555662,12.5836081 L14.9413332,12.2757673 C14.851755,12.187828 14.738383,12.1395305 14.6139441,12.1395305 C14.4895053,12.1395305 14.3761332,12.187828 14.2863605,12.2759581 L11.8170444,14.6956365 L12.1827984,14.6956337 L9.7132336,12.2757869 C9.62366496,12.187857 9.5102248,12.1395305 9.38590162,12.1395305 C9.26147234,12.1395305 9.14801669,12.1878249 9.05824089,12.2759581 L8.74433373,12.5836306 C8.65357701,12.6723993 8.60315935,12.7862932 8.60315935,12.9118664 C8.60315935,13.0373724 8.65358357,13.1511762 8.74435664,13.2401246 L11.6725109,16.1094179 C11.7622634,16.1973662 11.8756394,16.2456016 11.9999229,16.2456016 C12.124123,16.2456016 12.2374319,16.1975029 12.3272403,16.1096616 L15.2555687,13.2401222 Z M15.2555687,8.77442304 C15.3463321,8.68548413 15.3968407,8.57169976 15.3968407,8.44616722 C15.3968407,8.32063468 15.3463321,8.20685031 15.2555662,8.117909 L14.9413332,7.8100682 C14.851755,7.72212882 14.738383,7.67383135 14.6139441,7.67383135 C14.4895053,7.67383135 14.3761332,7.72212882 14.2863605,7.81025893 L11.8170444,10.2299374 L12.1827984,10.2299346 L9.7132336,7.81008779 C9.62366496,7.72215784 9.5102248,7.67383135 9.38590162,7.67383135 C9.26147234,7.67383135 9.14801669,7.72212577 9.05824089,7.81025893 L8.74433373,8.11793145 C8.65357701,8.20670012 8.60315935,8.32059409 8.60315935,8.44616722 C8.60315935,8.57167329 8.65358357,8.68547707 8.74435664,8.77442545 L11.6725109,11.6437188 C11.7622634,11.7316671 11.8756394,11.7799025 11.9999229,11.7799025 C12.124123,11.7799025 12.2374319,11.7318038 12.3272403,11.6439625 L15.2555687,8.77442304 Z" id="path-1"></path>
    </defs>
    <g id="double-arrow-rect" stroke="none" stroke-width="1" fill="none" fill-rule="evenodd">
        <mask id="mask-2" fill="white">
            <use xlink:href="#path-1"></use>
        </mask>
        <use id="capture_full_page" fill="#000000" fill-rule="nonzero" xlink:href="#path-1"></use>
    </g>
</svg>