<svg width="24" height="24" viewBox="0 0 24 24" fill="none" xmlns="http://www.w3.org/2000/svg">
<path d="M12 10.2188L14.624 7.68579L15.531 8.58879L12 12.1028L8.469 8.58879L9.376 7.68579L12 10.2188Z" fill="black"/>
<path d="M12 14.6587L14.624 12.1257L15.531 13.0287L12 16.5427L8.469 13.0287L9.376 12.1257L12 14.6587Z" fill="black"/>
<path d="M4.9998 3.00012H18.9998C20.1048 3.00012 20.9998 3.89612 20.9998 5.00012V19.0001C20.9998 20.1041 20.1048 21.0001 18.9998 21.0001H4.9998C3.8958 21.0001 2.9998 20.1041 2.9998 19.0001V5.00012C2.9998 3.89612 3.8958 3.00012 4.9998 3.00012ZM5.5348 19.0001H18.4648C18.7608 19.0001 18.9998 18.7601 18.9998 18.4651V5.53512C18.9998 5.23912 18.7608 5.00012 18.4648 5.00012H5.5348C5.2388 5.00012 4.9998 5.23912 4.9998 5.53512V18.4651C4.9998 18.7601 5.2388 19.0001 5.5348 19.0001Z" fill="black"/>
</svg>
