<?xml version="1.0" encoding="UTF-8"?>
<svg width="24px" height="24px" viewBox="0 0 24 24" version="1.1" xmlns="http://www.w3.org/2000/svg" xmlns:xlink="http://www.w3.org/1999/xlink">
    <!-- Generator: Sketch 52.5 (67469) - http://www.bohemiancoding.com/sketch -->
    <title>download-cloud</title>
    <desc>Created with Sketch.</desc>
    <defs>
        <path d="M18.9058365,12.3862355 C19.1906923,11.9166194 19.3328645,11.3938631 19.3328645,10.8181057 C19.3328645,10.0150024 19.0724286,9.3294774 18.5516845,8.7612518 C18.0309404,8.19316567 17.4025443,7.90905287 16.6663683,7.90905287 C16.0066483,7.90905287 15.4302883,8.14393061 14.9372882,8.61368609 C14.527776,7.52270409 13.8730423,6.64777056 12.9738541,5.98874602 C12.074666,5.32958201 11.083296,5 9.99987215,5 C8.527776,5 7.27072812,5.56836508 6.22911206,6.70467681 C5.18736815,7.84084906 4.66662405,9.21217801 4.66662405,10.8182452 C4.66662405,10.9167153 4.67365595,11.0796234 4.68746404,11.30683 C3.868056,11.7234451 3.2153679,12.3484374 2.72914403,13.1816676 C2.24304801,14.0151767 2,14.924003 2,15.9091226 C2,17.3105784 2.45668989,18.5093754 3.36981397,19.5055137 C4.28293806,20.5019309 5.38195998,21 6.66662405,21 L18.0001279,21 C19.104136,21 20.0467941,20.5736216 20.828102,19.7215621 C21.6092821,18.8693632 22,17.841006 22,16.636351 C21.9998721,15.621244 21.7099022,14.7178573 21.1298344,13.925912 C20.5498945,13.1342457 19.8087323,12.6211132 18.9058365,12.3862355 Z M12.2995893,18.8956475 C12.2215954,18.9630322 12.1217056,18.9968626 12.0000799,18.9968626 C11.878614,18.9968626 11.7787243,18.9630322 11.7005706,18.8956475 L7.11715067,15.6194751 C7.03899695,15.5519523 7,15.4657883 7,15.3607068 C7,15.2632199 7.04107465,15.178851 7.12354361,15.1075999 C7.20617239,15.0363489 7.30366475,15.0007234 7.41650018,15.0007234 L10.9757606,15.0007234 L10.9757606,9.99089742 C10.9757606,9.44363989 11.4207452,9 11.9782835,9 L11.9782835,9 C12.5319615,9 12.9808063,9.45102955 12.9808063,9.99089742 L12.9808063,15.0007234 L16.5836596,15.0007234 C16.7051255,15.0007234 16.839807,15.0402152 16.9178009,15.1075999 C16.9959546,15.1749846 17,15.2556253 17,15.3607068 C17,15.4510133 16.9568476,15.5407676 16.8702233,15.6305218 L12.2995893,18.8956475 Z" id="path-1"></path>
    </defs>
    <g id="download-cloud" stroke="none" stroke-width="1" fill="none" fill-rule="evenodd">
        <mask id="mask-2" fill="white">
            <use xlink:href="#path-1"></use>
        </mask>
        <use id="Shape" fill="#000000" xlink:href="#path-1"></use>
    </g>
</svg>