<?xml version="1.0" encoding="UTF-8"?>
<svg width="24px" height="24px" viewBox="0 0 24 24" version="1.1" xmlns="http://www.w3.org/2000/svg" xmlns:xlink="http://www.w3.org/1999/xlink">
    <!-- Generator: Sketch 52.5 (67469) - http://www.bohemiancoding.com/sketch -->
    <title>down-slim</title>
    <desc>Created with Sketch.</desc>
    <defs>
        <path d="M12.0001176,6 C12.1733176,6 12.3286824,6.06950514 12.4619294,6.20659696 L21.7994824,15.8127713 C21.9325412,15.9493559 22,16.1091604 22,16.2876642 C22,16.4659035 21.9325412,16.6257079 21.7994824,16.7626233 L20.798,17.793403 C20.6647529,17.9304949 20.5092941,18 20.3359529,18 C20.1629176,18 20.0076235,17.9304949 19.8743765,17.793403 L11.9992235,9.69197523 L4.12635294,17.793403 C3.99336471,17.9304949 3.838,18 3.66454118,18 C3.49134118,18 3.33597647,17.9304949 3.20275294,17.793403 L2.20077647,16.7626233 C2.06755294,16.6255536 2,16.4657491 2,16.2876642 C2,16.1095794 2.06755294,15.9497969 2.20077647,15.8127713 L11.5383059,6.20659696 C11.6713176,6.06950514 11.8267059,6 12.0001176,6" id="path-1"></path>
    </defs>
    <g id="down-slim" stroke="none" stroke-width="1" fill="none" fill-rule="evenodd">
        <mask id="mask-2" fill="white">
            <use xlink:href="#path-1"></use>
        </mask>
        <use id="Fill-1" fill="#000000" transform="translate(12.000000, 12.000000) scale(1, -1) translate(-12.000000, -12.000000) " xlink:href="#path-1"></use>
    </g>
</svg>