<?xml version="1.0" encoding="UTF-8"?>
<svg width="24px" height="24px" viewBox="0 0 24 24" version="1.1" xmlns="http://www.w3.org/2000/svg" xmlns:xlink="http://www.w3.org/1999/xlink">
    <!-- Generator: Sketch 52.5 (67469) - http://www.bohemiancoding.com/sketch -->
    <title>/dribbble</title>
    <desc>Created with Sketch.</desc>
    <defs>
        <path d="M20.659324,6.98333466 C19.7862686,5.47012278 18.5298539,4.21370811 17.016642,3.34065272 C13.910872,1.55311576 10.0885859,1.55311576 6.98281588,3.34065272 C5.469604,4.21370811 4.21318933,5.47012278 3.34013394,6.98333466 C1.55328869,10.0888698 1.55328869,13.9104506 3.34013394,17.0159857 C4.2136321,18.5288579 5.4699437,19.7851695 6.98281588,20.6586677 C10.0889717,22.4447601 13.9104862,22.4447601 17.016642,20.6586677 C18.5298539,19.7856123 19.7862686,18.5291976 20.659324,17.0159857 C22.446892,13.9106437 22.446892,10.0886767 20.659324,6.98333466 L20.659324,6.98333466 Z M12.0050167,3.45815859 C14.087337,3.43046786 16.1027766,4.19297585 17.6452984,5.59206517 L17.4819653,5.82002655 C17.3313639,6.00620379 17.1684487,6.18207367 16.9943159,6.34645285 C16.7274781,6.61299389 16.442851,6.86111017 16.1423984,7.08908994 C15.7411287,7.38226907 15.321564,7.6495502 14.8862606,7.8893049 C14.3431921,8.19494562 13.7775091,8.45853815 13.1941761,8.67776928 C12.2612168,6.93801152 11.1908639,5.27550665 9.99331624,3.70609597 C10.650356,3.54600361 11.3240558,3.46435499 12.0003165,3.46285883 L12.0050167,3.45815859 Z M5.31658266,6.69779539 C6.1288519,5.66489567 7.17149075,4.83633782 8.36115972,4.27834955 C9.52521995,5.84674811 10.5850521,7.48988042 11.5338182,9.19714522 C8.96072796,9.88290036 6.30972196,10.2328395 3.64682426,10.2382472 C3.91926542,8.94530777 4.49116707,7.73429296 5.31658266,6.70249563 L5.31658266,6.69779539 Z M4.04046892,15.0724387 C3.6585364,14.0915411 3.46441384,13.0475843 3.46821534,11.99496 C3.4667786,11.9039072 3.47109574,11.8128547 3.48114099,11.7223463 C6.44408643,11.7469105 9.39477307,11.3391821 12.2400284,10.5120359 C12.5173423,11.048646 12.7472621,11.5300284 12.9297879,11.956183 C12.8748667,11.9797989 12.818318,11.9994339 12.7605794,12.014936 L12.591371,12.0595882 L12.1095969,12.2287966 C11.6646402,12.4062068 11.2327187,12.6147071 10.8170324,12.8527528 C10.2835557,13.1488676 9.71717745,13.4990351 9.11907257,13.9103056 C8.44501889,14.3828402 7.82305808,14.9256281 7.2636549,15.5295365 C6.64104559,16.1829125 6.10152572,16.910692 5.65734968,17.6963447 C4.96433052,16.9283143 4.41648876,16.0408584 4.04046892,15.0771389 L4.04046892,15.0724387 Z M12.0050167,20.5305863 C10.01784,20.5454758 8.09003227,19.8537306 6.56567004,18.5788138 L6.76072979,18.722171 C7.09571156,18.0091096 7.54903524,17.3579286 8.10147175,16.7962498 C8.61849709,16.243767 9.18969986,15.7446043 9.80648191,15.3062753 C10.3782237,14.9143995 10.9735365,14.5580751 11.5890459,14.2393221 C12.230628,13.9056054 12.6689249,13.6933115 12.9039366,13.6024402 C13.1389483,13.511569 13.325391,13.4394988 13.4632645,13.3862294 L13.4891158,13.3733038 L13.5149671,13.3733038 C14.3284403,15.4701581 14.9387449,17.640261 15.3374832,19.8537525 C14.2821583,20.302759 13.1471891,20.5345485 12.0003165,20.5352865 L12.0050167,20.5305863 Z M19.1893255,16.6070653 C18.5631427,17.5849578 17.7438354,18.4246578 16.7816303,19.0746886 C16.4033879,16.9963813 15.8458946,14.9547292 15.1153971,12.9726088 C16.8959298,12.7065353 18.7131919,12.8353082 20.4384129,13.3498026 C20.2548279,14.5125318 19.8292963,15.6237979 19.1893255,16.6117655 L19.1893255,16.6070653 Z M20.4125616,11.8774541 C20.3256073,11.8598282 20.2175019,11.8410273 20.0870704,11.8198762 L19.6170469,11.7411473 C19.4302126,11.7117708 19.2222272,11.6823943 18.9919157,11.6565431 C18.7616042,11.6306918 18.5218922,11.6060155 18.2563289,11.5848645 C17.9907657,11.5637134 17.7181521,11.5460875 17.4243874,11.5319868 C17.1306227,11.5178861 16.8298077,11.5131859 16.5254675,11.5131859 C16.2211273,11.5131859 15.9026864,11.5225864 15.5689697,11.5402122 C15.235253,11.5578381 14.9121119,11.5872146 14.5995463,11.6306918 C14.5616603,11.5615751 14.5290573,11.4896914 14.5020164,11.415656 C14.4632395,11.315776 14.4350381,11.2405723 14.4185873,11.1876946 C14.2532957,10.8234264 14.0621528,10.4113725 13.8451586,9.9515329 C14.4348761,9.71250225 15.0069848,9.4321415 15.5572191,9.112541 C16.0071814,8.85652549 16.4415427,8.5740141 16.8580091,8.26649874 C17.1808647,8.02218094 17.4892499,7.75930807 17.7816052,7.47920942 C17.9808654,7.29662698 18.1699431,7.10323419 18.3479835,6.89990549 C18.4349379,6.79180009 18.517192,6.68604481 18.5959209,6.58146458 L18.6088465,6.569714 C19.8585243,8.06639372 20.5445186,9.95350166 20.5476934,11.9033054 L20.4125616,11.8774541 Z" id="path-1"></path>
    </defs>
    <g id="/dribbble" stroke="none" stroke-width="1" fill="none" fill-rule="evenodd">
        <mask id="mask-2" fill="white">
            <use xlink:href="#path-1"></use>
        </mask>
        <use id="Dribbble" fill="#000000" xlink:href="#path-1"></use>
    </g>
</svg>