<svg width="24" height="24" viewBox="0 0 24 24" fill="none" xmlns="http://www.w3.org/2000/svg">
<path d="M12.0001 20.25C15.0186 20.25 17.2531 17.9274 17.2531 14.997C17.2531 13.9028 16.8851 12.7605 16.2206 11.4686C15.6842 10.4312 13.6892 7.10524 12.0016 4.42728C10.3198 7.10351 8.33271 10.43 7.79559 11.4688C7.1234 12.7756 6.74704 13.9134 6.74704 14.997C6.74704 17.9274 8.98146 20.25 12.0001 20.25ZM19.2531 14.997C19.2531 19.0069 16.1481 22.25 12.0001 22.25C7.85199 22.25 4.74704 19.0069 4.74704 14.997C4.74704 13.4532 5.28227 11.9822 6.01794 10.5523C6.65166 9.32599 9.03311 5.36032 10.796 2.59169C11.364 1.69965 12.6363 1.69945 13.2053 2.59087C14.9725 5.35954 17.3646 9.32587 17.9984 10.5523C18.734 11.9822 19.2531 13.4532 19.2531 14.997Z" fill="black"/>
</svg>
