<svg width="24" height="24" viewBox="0 0 24 24" fill="none" xmlns="http://www.w3.org/2000/svg">
<path d="M21.2314 11.5029C21.2314 9.72738 20.9158 8.09701 20.0592 6.56717C18.391 3.60801 15.4368 2.00002 11.9765 2.00002C6.28129 1.98885 3.09263 6.24249 2.5 10.858C4.22687 8.38576 7.26489 5.96382 11.4693 5.81906C11.4693 5.81906 15.9327 5.81906 15.5157 10.0512H8.35842C8.61764 8.5437 9.11357 7.67273 9.75602 6.8687C6.70156 8.27568 4.79671 10.7435 4.8418 14.4621C4.87559 17.343 6.88186 20.3022 9.75606 21.3966C13.1487 22.6807 17.6021 21.6869 19.5295 20.5368V16.3269C16.2383 18.6049 8.50498 18.7836 8.44865 13.6022H21.2315V11.5029H21.2314Z" fill="black"/>
</svg>
