<?xml version="1.0" encoding="UTF-8"?>
<svg width="24px" height="24px" viewBox="0 0 24 24" version="1.1" xmlns="http://www.w3.org/2000/svg" xmlns:xlink="http://www.w3.org/1999/xlink">
    <!-- Generator: Sketch 53 (72520) - https://sketchapp.com -->
    <title>edge</title>
    <desc>Created with Sketch.</desc>
    <g id="edge" stroke="none" stroke-width="1" fill="none" fill-rule="evenodd">
        <path d="M21.2314273,11.5028636 C21.2314273,9.72737613 20.9158384,8.09700996 20.0592225,6.56716819 C18.3910457,3.60800904 15.436785,2.00002195 11.9764994,2.00002195 C6.28128758,1.98885257 3.0926348,6.24249012 2.5,10.8580236 C4.22686641,8.38576054 7.26488797,5.96382021 11.4692942,5.81906185 C11.4692942,5.81906185 15.9327162,5.81906185 15.5156619,10.0512074 L8.35841944,10.0512074 C8.61763865,8.54370441 9.11356991,7.67273492 9.75602168,6.86870105 C6.70155727,8.27567967 4.79670913,10.7435475 4.84180489,14.462063 C4.87558601,17.3430365 6.88185891,20.302236 9.75606238,21.396593 C13.1487043,22.6807488 17.6020734,21.6869162 19.5294694,20.5367526 L19.5294694,16.3269055 C16.2382929,18.6048939 8.50498066,18.7835636 8.44865166,13.6022226 L21.231468,13.6022226 L21.231468,11.5028636 L21.2314273,11.5028636 Z" id="Mask" fill="#000000" fill-rule="nonzero"></path>
    </g>
</svg>