<?xml version="1.0" encoding="UTF-8"?>
<svg width="24px" height="24px" viewBox="0 0 24 24" version="1.1" xmlns="http://www.w3.org/2000/svg" xmlns:xlink="http://www.w3.org/1999/xlink">
    <!-- Generator: Sketch 52.5 (67469) - http://www.bohemiancoding.com/sketch -->
    <title> element</title>
    <desc>Created with Sketch.</desc>
    <defs>
        <path d="M21.2236522,14.2866957 C21.7166957,13.9736522 21.6627826,13.5771304 21.1045217,13.4058261 L11.0106087,10.3075652 C10.4523478,10.1362609 10.1358261,10.4527826 10.3071304,11.0110435 L13.4053913,21.1049565 C13.5766957,21.6632174 13.9732174,21.7162609 14.2862609,21.224087 L15.694087,19.0101739 C16.0071304,18.5171304 16.6106087,18.4414783 17.0358261,18.8414783 L19.0984348,20.7849565 C19.5227826,21.1849565 20.208,21.1753913 20.6210435,20.7623478 L20.761913,20.6214783 C21.1749565,20.2084348 21.1853913,19.5232174 20.7845217,19.098 L18.841913,17.0362609 C18.441913,16.6110435 18.5166957,16.0075652 19.0097391,15.6936522 L21.2236522,14.2866957 Z M6,4 C5.44771525,4 5,3.55228475 5,3 C5,2.44771525 5.44771525,2 6,2 L8,2 C8.55228475,2 9,2.44771525 9,3 C9,3.55228475 8.55228475,4 8,4 L6,4 Z M11,4 C10.4477153,4 10,3.55228475 10,3 C10,2.44771525 10.4477153,2 11,2 L13,2 C13.5522847,2 14,2.44771525 14,3 C14,3.55228475 13.5522847,4 13,4 L11,4 Z M16,4 C15.4477153,4 15,3.55228475 15,3 C15,2.44771525 15.4477153,2 16,2 L19,2 C19.5522847,2 20,2.44771525 20,3 C20,3.55228475 19.5522847,4 19,4 L16,4 Z M19.7328535,5.00039052 C19.4562174,4.52238328 19.619461,3.91062399 20.0974682,3.63398791 C20.5754754,3.35735183 21.1872347,3.52059541 21.4638708,3.99860265 C21.8131761,4.60217711 22,5.28864599 22,6 L22,6.40779881 C22,6.96008356 21.5522847,7.40779881 21,7.40779881 C20.4477153,7.40779881 20,6.96008356 20,6.40779881 L20,6 C20,5.64279516 19.9071176,5.30150638 19.7328535,5.00039052 Z M20,9.40779881 C20,8.85551406 20.4477153,8.40779881 21,8.40779881 C21.5522847,8.40779881 22,8.85551406 22,9.40779881 L22,11.4077988 C22,11.9600836 21.5522847,12.4077988 21,12.4077988 C20.4477153,12.4077988 20,11.9600836 20,11.4077988 L20,9.40779881 Z M11.1844024,20 C11.7366871,20 12.1844024,20.4477153 12.1844024,21 C12.1844024,21.5522847 11.7366871,22 11.1844024,22 L9.18440238,22 C8.63211763,22 8.18440238,21.5522847 8.18440238,21 C8.18440238,20.4477153 8.63211763,20 9.18440238,20 L11.1844024,20 Z M6.18440238,20 C6.73668713,20 7.18440238,20.4477153 7.18440238,21 C7.18440238,21.5522847 6.73668713,22 6.18440238,22 L6,22 C5.16276084,22 4.36177501,21.7410775 3.69192036,21.267221 C3.24104449,20.9482705 3.13409782,20.324203 3.45304829,19.8733271 C3.77199875,19.4224512 4.3960663,19.3155046 4.84694216,19.634455 C5.18174425,19.8712947 5.57989862,20 6,20 L6.18440238,20 Z M4,17.7766036 C4,18.3288883 3.55228475,18.7766036 3,18.7766036 C2.44771525,18.7766036 2,18.3288883 2,17.7766036 L2,15.7766036 C2,15.2243188 2.44771525,14.7766036 3,14.7766036 C3.55228475,14.7766036 4,15.2243188 4,15.7766036 L4,17.7766036 Z M4,12.7766036 C4,13.3288883 3.55228475,13.7766036 3,13.7766036 C2.44771525,13.7766036 2,13.3288883 2,12.7766036 L2,10.7766036 C2,10.2243188 2.44771525,9.77660357 3,9.77660357 C3.55228475,9.77660357 4,10.2243188 4,10.7766036 L4,12.7766036 Z M4,7.77660357 C4,8.32888831 3.55228475,8.77660357 3,8.77660357 C2.44771525,8.77660357 2,8.32888831 2,7.77660357 L2,6 C2,5.90074441 2.00363461,5.80183273 2.01087407,5.7034118 C2.05138852,5.15261508 2.53074094,4.73894958 3.08153766,4.77946403 C3.63233438,4.81997849 4.04599988,5.29933091 4.00548543,5.85012762 C4.00183633,5.89973738 4,5.94971086 4,6 L4,7.77660357 Z M5.08248206,4.22217524 C4.59201745,4.47607072 3.98859437,4.28429356 3.73469889,3.79382896 C3.4808034,3.30336435 3.67258057,2.69994128 4.16304517,2.44604579 C4.70696026,2.16448096 5.31035182,2.01067977 5.94210583,2.00043749 L5.99187321,2.00003302 C6.54413973,1.99554472 6.99547868,2.4396067 6.99996698,2.99187321 C7.00445528,3.54413973 6.5603933,3.99547868 6.00812679,3.99996698 L5.96649532,4.00027222 C5.65362341,4.00536103 5.35356995,4.08184301 5.08248206,4.22217524 Z" id="path-1"></path>
    </defs>
    <g id="-element" stroke="none" stroke-width="1" fill="none" fill-rule="evenodd">
        <mask id="mask-2" fill="white">
            <use xlink:href="#path-1"></use>
        </mask>
        <use id="Mask" fill="#000000" fill-rule="nonzero" xlink:href="#path-1"></use>
    </g>
</svg>