<svg width="24" height="24" viewBox="0 0 24 24" fill="none" xmlns="http://www.w3.org/2000/svg">
<path fill-rule="evenodd" clip-rule="evenodd" d="M7.73525 7.54143L7.71425 7.52043C7.33325 7.13943 6.71825 7.12843 6.32425 7.49743L2.31725 11.2474C1.89425 11.6434 1.89425 12.3124 2.31725 12.7084L6.32425 16.4584C6.71825 16.8264 7.33325 16.8164 7.71425 16.4354L7.73525 16.4144C8.12625 16.0234 8.12625 15.3904 7.73525 14.9994L4.71325 11.9784L7.73525 8.95543C8.12625 8.56443 8.12625 7.93243 7.73525 7.54143Z" fill="black"/>
<path fill-rule="evenodd" clip-rule="evenodd" d="M20.8187 11.2476L16.8107 7.49756C16.4177 7.12856 15.8017 7.13956 15.4217 7.52056L15.3997 7.54156C15.0097 7.93256 15.0097 8.56456 15.3997 8.95556L18.4227 11.9776L15.3997 14.9996C15.0097 15.3906 15.0097 16.0236 15.3997 16.4146L15.4217 16.4346C15.8017 16.8166 16.4177 16.8266 16.8107 16.4576L20.8187 12.7076C21.2407 12.3126 21.2407 11.6436 20.8187 11.2476Z" fill="black"/>
<path fill-rule="evenodd" clip-rule="evenodd" d="M13.7054 5.04535C13.1804 4.88135 12.6174 5.17635 12.4534 5.70135L8.72644 17.6333C8.56244 18.1583 8.85744 18.7223 9.38244 18.8853C9.90744 19.0493 10.4714 18.7543 10.6354 18.2293L14.3614 6.29735C14.5254 5.77335 14.2304 5.20935 13.7054 5.04535Z" fill="black"/>
</svg>
