<?xml version="1.0" encoding="UTF-8"?>
<svg width="24px" height="24px" viewBox="0 0 24 24" version="1.1" xmlns="http://www.w3.org/2000/svg" xmlns:xlink="http://www.w3.org/1999/xlink">
    <!-- Generator: Sketch 52.6 (67491) - http://www.bohemiancoding.com/sketch -->
    <title>embed</title>
    <desc>Created with Sketch.</desc>
    <defs>
        <path d="M14.4661607,5.18883684 C14.5607143,5.21599377 14.6315625,5.26868072 14.6788393,5.34689769 C14.7261161,5.42511466 14.7352232,5.50846267 14.7061607,5.59681655 L10.6360714,18.7601693 C10.6070089,18.8483981 10.550625,18.9146009 10.4669196,18.958903 C10.3832143,19.0032051 10.2977679,19.0117151 10.2104464,18.9843079 L9.53397321,18.8109791 C9.43928571,18.7838222 9.3684375,18.7311352 9.32116071,18.6529182 C9.27388393,18.5748264 9.26477679,18.4914784 9.29383929,18.4031245 L13.3639286,5.23989688 C13.3929911,5.15154299 13.4495089,5.085215 13.5332143,5.04103806 C13.6166518,4.99686111 13.7023661,4.98835111 13.7895536,5.01550804 L14.4661607,5.18883684 Z M8.350625,7.75857533 C8.350625,7.84692922 8.31433036,7.92514619 8.24147321,7.99310109 L3.95321429,12.0000626 L8.24147321,16.0072744 C8.31419643,16.0752293 8.350625,16.1534462 8.350625,16.241675 C8.350625,16.330154 8.31419643,16.408371 8.24147321,16.4763259 L7.69584821,16.9859251 C7.623125,17.05388 7.53955357,17.0877949 7.44486607,17.0877949 C7.35017857,17.0877949 7.26660714,17.0540051 7.19388393,16.9859251 L2.10915179,12.2345883 C2.03642857,12.1666334 2,12.0884165 2,12.0000626 C2,11.9117087 2.03629464,11.8334917 2.10915179,11.7655368 L7.19388393,7.01420007 C7.26660714,6.94624517 7.3503125,6.91220515 7.44486607,6.91220515 C7.53941964,6.91220515 7.623125,6.94624517 7.69584821,7.01420007 L8.24147321,7.52404957 C8.31419643,7.59200447 8.350625,7.67022144 8.350625,7.75857533 Z M21.8909821,11.7654742 C21.9637054,11.8334291 22,11.9116461 22,12 C22,12.0883539 21.9637054,12.166696 21.8909821,12.2346509 L16.8061161,16.9859876 C16.7333929,17.0539426 16.6496875,17.0878574 16.5552679,17.0878574 C16.4605804,17.0878574 16.3771429,17.0540677 16.3041518,16.9859876 L15.7587946,16.4763884 C15.6860714,16.4084335 15.6497768,16.3302166 15.6497768,16.2417375 C15.6497768,16.1535088 15.6860714,16.0752918 15.7587946,16.0073369 L20.0470536,12.0001251 L15.7587946,7.99303852 C15.6860714,7.92508361 15.6497768,7.84699179 15.6497768,7.75851275 C15.6497768,7.67003372 15.6860714,7.5919419 15.7587946,7.52398699 L16.3041518,7.0141375 C16.3771429,6.9461826 16.4605804,6.91214257 16.5552679,6.91214257 C16.6496875,6.91214257 16.7333929,6.9461826 16.8061161,7.0141375 L21.8909821,11.7654742 Z" id="path-1"></path>
    </defs>
    <g id="embed" stroke="none" stroke-width="1" fill="none" fill-rule="evenodd">
        <mask id="mask-2" fill="white">
            <use xlink:href="#path-1"></use>
        </mask>
        <use id="embed_code" fill="#000000" xlink:href="#path-1"></use>
    </g>
</svg>