<?xml version="1.0" encoding="UTF-8"?>
<svg width="24px" height="24px" viewBox="0 0 24 24" version="1.1" xmlns="http://www.w3.org/2000/svg" xmlns:xlink="http://www.w3.org/1999/xlink">
    <!-- Generator: Sketch 52.6 (67491) - http://www.bohemiancoding.com/sketch -->
    <title>embed</title>
    <desc>Created with Sketch.</desc>
    <g id="embed" stroke="none" stroke-width="1" fill="none" fill-rule="evenodd">
        <g id="Mask" transform="translate(2.000000, 5.000000)" fill="#000000">
            <path d="M5.73525,2.54144938 L5.71425,2.52044938 C5.33325,2.13944938 4.71825,2.12844938 4.32425,2.49744938 L0.31725,6.24744938 C-0.10575,6.64344938 -0.10575,7.31244938 0.31725,7.70844938 L4.32425,11.4584494 C4.71825,11.8264494 5.33325,11.8164494 5.71425,11.4354494 L5.73525,11.4144494 C6.12625,11.0234494 6.12625,10.3904494 5.73525,9.99944938 L2.71325,6.97844938 L5.73525,3.95544938 C6.12625,3.56444938 6.12625,2.93244938 5.73525,2.54144938" id="Fill-1"></path>
            <path d="M18.81875,6.24754938 L14.81075,2.49754938 C14.41775,2.12854938 13.80175,2.13954938 13.42175,2.52054938 L13.39975,2.54154938 C13.00975,2.93254938 13.00975,3.56454938 13.39975,3.95554938 L16.42275,6.97754938 L13.39975,9.99954938 C13.00975,10.3905494 13.00975,11.0235494 13.39975,11.4145494 L13.42175,11.4345494 C13.80175,11.8165494 14.41775,11.8265494 14.81075,11.4575494 L18.81875,7.70754938 C19.24075,7.31254938 19.24075,6.64354938 18.81875,6.24754938" id="Fill-4"></path>
            <path d="M11.70545,0.0453493752 C11.18045,-0.118650625 10.61745,0.176349375 10.45345,0.701349375 L6.72645,12.6333494 C6.56245,13.1583494 6.85745,13.7223494 7.38245,13.8853494 C7.90745,14.0493494 8.47145,13.7543494 8.63545,13.2293494 L12.36145,1.29734938 C12.52545,0.773349375 12.23045,0.209349375 11.70545,0.0453493752" id="Fill-7"></path>
        </g>
    </g>
</svg>