<svg width="24" height="24" viewBox="0 0 24 24" fill="none" xmlns="http://www.w3.org/2000/svg">
<path fill-rule="evenodd" clip-rule="evenodd" d="M15.0044 21.2638C15.0044 21.472 14.9342 21.6468 14.795 21.7882C14.6551 21.9296 14.4896 22 14.298 22H10.0597C9.86838 22 9.70283 21.9296 9.56302 21.7882C9.42321 21.6466 9.35331 21.472 9.35331 21.2638V17.0225C9.35331 16.8143 9.42321 16.6398 9.56302 16.4981C9.70283 16.3568 9.86811 16.2863 10.0597 16.2863H14.2978C14.4893 16.2863 14.6549 16.3568 14.7947 16.4981C14.9342 16.6398 15.0041 16.8143 15.0041 17.0225V21.2638H15.0044ZM14.9605 12.9155C14.9453 13.0643 14.8681 13.187 14.7286 13.2838C14.5885 13.3807 14.4159 13.4287 14.2097 13.4287H10.1258C9.91986 13.4287 9.7432 13.3805 9.59608 13.2838C9.44868 13.1868 9.37526 13.0643 9.37526 12.915L9 2.71428C9 2.50577 9.0737 2.3496 9.22082 2.24549C9.41211 2.08192 9.58876 2 9.75079 2H14.6072C14.7692 2 14.9459 2.08165 15.1372 2.24549C15.2843 2.3496 15.3574 2.49098 15.3574 2.66962L14.9605 12.9155V12.9155Z" fill="black"/>
</svg>
