<svg width="24" height="24" viewBox="0 0 24 24" fill="none" xmlns="http://www.w3.org/2000/svg">
<path d="M14 3C13.4477 3 13 3.44772 13 4C13 4.55228 13.4477 5 14 5H17.5858L9.29289 13.2929C8.90237 13.6834 8.90237 14.3166 9.29289 14.7071C9.68342 15.0976 10.3166 15.0976 10.7071 14.7071L19 6.41421V10C19 10.5523 19.4477 11 20 11C20.5523 11 21 10.5523 21 10V3H14Z" fill="black"/>
<path d="M10 3H5C3.89543 3 3 3.89543 3 5V19C3 20.1046 3.89543 21 5 21H19C20.1046 21 21 20.1046 21 19V14C21 13.4477 20.5523 13 20 13C19.4477 13 19 13.4477 19 14V19H5V5H10C10.5523 5 11 4.55228 11 4C11 3.44772 10.5523 3 10 3Z" fill="black"/>
</svg>
