<?xml version="1.0" encoding="UTF-8"?>
<svg width="24px" height="24px" viewBox="0 0 24 24" version="1.1" xmlns="http://www.w3.org/2000/svg" xmlns:xlink="http://www.w3.org/1999/xlink">
    <!-- Generator: Sketch 52.6 (67491) - http://www.bohemiancoding.com/sketch -->
    <title>extentions</title>
    <desc>Created with Sketch.</desc>
    <defs>
        <path d="M20.0250203,13.6894452 C19.6976322,13.6894452 19.3817364,13.7436014 19.0773327,13.8516483 C18.7725087,13.9598279 18.5269676,14.0806175 18.3405694,14.2140169 C18.1543114,14.3472836 17.9524969,14.4682059 17.7355462,14.5762528 C17.5187357,14.6844324 17.3263111,14.7387214 17.1591134,14.7387214 C16.8164491,14.7387214 16.4778491,14.5728017 16.1427528,14.2412277 C15.8763296,13.9744288 15.7430479,13.5527273 15.7430479,12.9759904 C15.7430479,12.2910739 15.8342849,11.4078501 16.016899,10.3264519 C16.0247474,10.304816 16.0379214,10.2272983 16.0568415,10.0938988 C16.076182,9.96063213 16.0948219,9.83798429 16.1140223,9.72622078 C16.1329424,9.61445727 16.1461164,9.55140778 16.1538246,9.53693958 C15.7963045,9.52977185 15.1757247,9.59096304 14.2926459,9.69914268 C13.409567,9.80732233 12.724799,9.97732524 12.2375009,9.97732524 C11.7731873,9.97732524 11.3809102,9.76590877 11.0612304,9.57476927 C10.7415505,9.38376251 10.5816405,9.0827178 10.5816405,8.67176788 C10.5816405,8.404969 10.6483514,8.14905445 10.781493,7.9038915 C10.9146345,7.65872855 11.0592683,7.45497915 11.2153943,7.29277605 C11.3715202,7.13044021 11.516154,6.91779752 11.6492956,6.65471524 C11.7825773,6.3917657 11.849148,6.11222418 11.849148,5.81675438 C11.849148,5.24718522 11.6436896,4.80185674 11.2326326,4.48116714 C10.8215756,4.16047754 10.3115734,4 9.70262595,4 C9.05555801,4 8.50757542,4.1640614 8.05839788,4.49205147 C7.60936048,4.82004154 7.38470163,5.27970548 7.38470163,5.87091057 C7.38470163,6.18084857 7.44174227,6.48003498 7.55596371,6.76846979 C7.670045,7.05677187 7.79758059,7.28932492 7.93843033,7.46599622 C8.07928008,7.64266752 8.20681567,7.83367428 8.32089695,8.03914924 C8.43511839,8.24475694 8.49215903,8.42673767 8.49215903,8.5853569 C8.49215903,8.90976311 8.31711293,9.23058544 7.96688058,9.54782391 C7.68518109,9.8001546 7.24006786,10.0938988 6.63112045,10.0938988 C5.90795161,10.0938988 4.97540016,10.0344332 3.83360626,9.86134578 C3.81090212,9.85377985 3.7290551,9.84116995 3.58820536,9.82311788 C3.44735561,9.80506582 3.31799808,9.78714649 3.19999262,9.76909443 C3.08198717,9.75104237 3.01527624,9.7385652 3.00014015,9.73126474 L3,20.6108187 C3.03798038,20.6288708 3.0494726,20.6323219 3.05704064,20.6323219 L3.20545843,20.6540906 C3.27413145,20.6682933 3.3786826,20.683027 3.51953234,20.6972297 C3.66038209,20.7115652 3.76507339,20.7261661 3.83360626,20.7403688 C4.97540016,20.913589 5.90795161,21 6.63112045,21 C7.24006786,21 7.68532124,20.8737683 7.96702073,20.6213049 C8.31725308,20.3040664 8.49229918,19.9831113 8.49229918,19.6589706 C8.49229918,19.5003514 8.43525854,19.3183706 8.3210371,19.1127629 C8.20695582,18.9074207 8.07928008,18.7164139 7.93857048,18.5397426 C7.79786088,18.3630713 7.67032529,18.1305183 7.55610386,17.8422162 C7.44188242,17.5537814 7.38484178,17.254595 7.38484178,16.9445243 C7.38484178,16.3533192 7.60950063,15.8936552 8.05853802,15.5656652 C8.50757542,15.2375424 9.05191414,15.0736137 9.69127388,15.0736137 C10.3079295,15.0736137 10.8217157,15.2340912 11.2327727,15.5547808 C11.6438298,15.8754704 11.8492882,16.3207989 11.8492882,16.8903681 C11.8492882,17.1858379 11.7827174,17.4653794 11.6494357,17.7283289 C11.5162942,17.991544 11.3715202,18.2040539 11.2155344,18.3665225 C11.0594084,18.5288583 10.9149148,18.7323422 10.7816331,18.9776379 C10.6483514,19.2226681 10.5817806,19.4785827 10.5817806,19.7452488 C10.5817806,20.1564642 10.7415505,20.4573762 11.0613705,20.6485157 C11.3811905,20.8393897 11.7731873,20.9348267 12.2375009,20.9348267 C12.5877333,20.9348267 12.9606698,20.9169074 13.3564505,20.8808033 C13.7522313,20.8448319 14.1918787,20.7961179 14.6752526,20.7347939 C15.1586265,20.67347 15.5296009,20.6319237 15.7884561,20.6102878 C15.8722653,20.6029873 15.9979789,20.5994035 16.1651767,20.5994035 L16.1651767,20.5455128 C16.1728849,20.2643784 16.1158442,19.8498446 15.9940547,19.3017787 C15.8722653,18.7539782 15.8111603,18.3394444 15.8111603,18.0581773 C15.8111603,17.1642019 16.2299255,16.7171479 17.0673158,16.7171479 C17.3490153,16.7171479 17.6192225,16.7803301 17.8780777,16.9064291 C18.1367928,17.0326608 18.3519215,17.1697768 18.5230434,17.3175118 C18.6945858,17.4653794 18.9193848,17.6023627 19.1971601,17.7285944 C19.4747953,17.8545606 19.7696688,17.9178756 20.0817806,17.9178756 C20.68316,17.9178756 21.1533599,17.7231522 21.4919599,17.3338382 C21.8308402,16.9443915 22,16.457915 22,15.8740103 C22,15.2683371 21.8270561,14.7530568 21.480748,14.3276387 C21.1344398,13.9023533 20.6491038,13.6894452 20.0250203,13.6894452 Z" id="path-1"></path>
    </defs>
    <g id="extentions" stroke="none" stroke-width="1" fill="none" fill-rule="evenodd">
        <mask id="mask-2" fill="white">
            <use xlink:href="#path-1"></use>
        </mask>
        <use id="Extensions" fill="#000000" xlink:href="#path-1"></use>
    </g>
</svg>