<?xml version="1.0" encoding="UTF-8"?>
<svg width="24px" height="24px" viewBox="0 0 24 24" version="1.1" xmlns="http://www.w3.org/2000/svg" xmlns:xlink="http://www.w3.org/1999/xlink">
    <!-- Generator: Sketch 52.6 (67491) - http://www.bohemiancoding.com/sketch -->
    <title>eye-off</title>
    <desc>Created with Sketch.</desc>
    <g id="eye-off" stroke="none" stroke-width="1" fill="none" fill-rule="evenodd">
        <g id="Mask" transform="translate(1.000000, 4.000000)" fill="#000000">
            <path d="M16.1284,7.296 C16.1284,6.761 16.0384,6.25 15.8824,5.768 L12.2164,12.24 C14.4574,11.704 16.1284,9.701 16.1284,7.296" id="Fill-1"></path>
            <g id="Group-5" transform="translate(10.000000, 3.081200)">
                <path d="M10.7768,4.7578 C9.8188,3.1238 8.5428,1.7988 6.9768,0.7548 L6.0478,2.3948 C7.2338,3.2238 8.2638,4.2778 9.0968,5.5608 C8.1408,7.0218 6.9878,8.1698 5.6358,9.0248 C4.3748,9.8208 2.9988,10.2478 1.5488,10.3388 L0.4768,12.2308 C0.6518,12.2398 0.8238,12.2668 0.9998,12.2668 C2.9568,12.2668 4.8148,11.7298 6.5748,10.6538 C8.3348,9.5798 9.7348,8.1498 10.7768,6.3648 C10.9248,6.0928 11.0008,5.8248 11.0008,5.5618 C11.0008,5.2978 10.9248,5.0298 10.7768,4.7578" id="Fill-3"></path>
            </g>
            <g id="Group-8" transform="translate(0.000000, 0.081200)">
                <path d="M7.3735,12.5703 C7.0305,12.4103 6.6935,12.2323 6.3645,12.0253 C4.9985,11.1613 3.8345,9.9973 2.9025,8.5613 C3.8345,7.1263 4.9985,5.9613 6.3645,5.0983 C6.3845,5.0863 6.4065,5.0773 6.4265,5.0653 C6.1195,5.7203 5.9355,6.4443 5.9355,7.2153 C5.9355,8.9203 6.7805,10.4213 8.0675,11.3453 L7.3735,12.5703 Z M8.5055,4.8243 C9.1715,4.1293 9.9695,3.7823 10.8995,3.7823 C11.0485,3.7823 11.1755,3.8363 11.2795,3.9453 C11.3835,4.0533 11.4355,4.1853 11.4355,4.3413 C11.4355,4.4963 11.3835,4.6283 11.2795,4.7373 C11.1755,4.8453 11.0485,4.8993 10.9005,4.8993 C10.2605,4.8993 9.7135,5.1363 9.2595,5.6103 C8.8055,6.0833 8.5785,6.6533 8.5785,7.3213 C8.5785,7.4763 8.5265,7.6083 8.4225,7.7173 C8.3175,7.8253 8.1915,7.8803 8.0425,7.8803 C7.8945,7.8803 7.7675,7.8253 7.6635,7.7173 C7.5595,7.6083 7.5065,7.4763 7.5065,7.3213 C7.5065,6.3513 7.8395,5.5183 8.5055,4.8243 Z M8.3605,14.9093 L9.3315,13.1953 C9.3275,13.1943 9.3235,13.1943 9.3195,13.1933 L9.8965,12.1743 C9.9005,12.1753 9.9045,12.1753 9.9085,12.1763 L15.2365,2.7683 C15.2335,2.7663 15.2295,2.7643 15.2275,2.7623 L15.7135,1.9043 L13.9725,0.9193 L13.2835,2.1363 C12.5365,1.9653 11.7785,1.8563 10.9995,1.8563 C9.0435,1.8563 7.1855,2.3953 5.4255,3.4743 C3.6655,4.5523 2.2645,5.9813 1.2235,7.7583 C1.0745,8.0293 0.9995,8.2973 0.9995,8.5613 C0.9995,8.8253 1.0745,9.0933 1.2235,9.3643 C2.2645,11.1423 3.6655,12.5703 5.4255,13.6483 C5.7635,13.8563 6.1085,14.0253 6.4545,14.1933 L5.9895,15.0143 L7.7295,16.0003 L8.3485,14.9073 C8.3525,14.9083 8.3565,14.9083 8.3605,14.9093 Z" id="Fill-6"></path>
            </g>
        </g>
    </g>
</svg>