<svg width="24" height="24" viewBox="0 0 24 24" fill="none" xmlns="http://www.w3.org/2000/svg">
<path fill-rule="evenodd" clip-rule="evenodd" d="M16.6357 15.169C15.2147 16.066 13.6557 16.521 11.9997 16.521C10.3437 16.521 8.78369 16.066 7.36469 15.169C5.99869 14.306 4.83469 13.141 3.90269 11.706C4.83469 10.27 5.99869 9.106 7.36469 8.243C7.38469 8.23 7.40669 8.222 7.42669 8.21C7.11969 8.865 6.93569 9.588 6.93569 10.359C6.93569 13.174 9.21769 15.456 12.0317 15.456C14.8467 15.456 17.1277 13.174 17.1277 10.359C17.1277 9.611 16.9577 8.906 16.6677 8.266C18.0207 9.128 19.1747 10.283 20.0967 11.705C19.1407 13.166 17.9877 14.314 16.6357 15.169ZM9.50569 7.968C10.1717 7.274 10.9697 6.926 11.8997 6.926C12.0487 6.926 12.1757 6.981 12.2797 7.089C12.3837 7.198 12.4357 7.33 12.4357 7.485C12.4357 7.641 12.3837 7.773 12.2797 7.881C12.1757 7.99 12.0487 8.044 11.9007 8.044C11.2607 8.044 10.7137 8.281 10.2597 8.754C9.80569 9.228 9.57869 9.798 9.57869 10.465C9.57869 10.621 9.52669 10.752 9.42269 10.861C9.31769 10.97 9.19169 11.024 9.0427 11.024C8.89369 11.024 8.76769 10.97 8.66269 10.861C8.55869 10.752 8.50669 10.621 8.50669 10.465C8.50669 9.495 8.83969 8.663 9.50569 7.968ZM21.7777 10.902C20.7357 9.125 19.3337 7.697 17.5737 6.618C15.8147 5.54 13.9567 5 11.9997 5C10.0427 5 8.18469 5.539 6.42569 6.618C4.66569 7.697 3.26469 9.125 2.22269 10.902C2.07369 11.174 1.99969 11.442 1.99969 11.706C1.99969 11.969 2.07369 12.237 2.22269 12.509C3.26469 14.286 4.66569 15.714 6.42569 16.793C8.18469 17.872 10.0427 18.411 11.9997 18.411C13.9567 18.411 15.8157 17.874 17.5737 16.799C19.3337 15.724 20.7357 14.294 21.7777 12.509C21.9257 12.237 21.9997 11.97 21.9997 11.706C21.9997 11.442 21.9257 11.174 21.7777 10.902Z" fill="black"/>
</svg>
