<svg width="24" height="24" viewBox="0 0 24 24" fill="none" xmlns="http://www.w3.org/2000/svg">
<path fill-rule="evenodd" clip-rule="evenodd" d="M16.6358 15.169C15.2148 16.066 13.6558 16.521 11.9998 16.521C10.3438 16.521 8.78376 16.066 7.36476 15.169C5.99876 14.306 4.83476 13.141 3.90276 11.706C4.83476 10.27 5.99876 9.106 7.36476 8.243C7.38476 8.23 7.40676 8.222 7.42676 8.21C7.11976 8.865 6.93576 9.588 6.93576 10.359C6.93576 13.174 9.21776 15.456 12.0318 15.456C14.8468 15.456 17.1278 13.174 17.1278 10.359C17.1278 9.611 16.9578 8.906 16.6678 8.266C18.0208 9.128 19.1748 10.283 20.0968 11.705C19.1408 13.166 17.9878 14.314 16.6358 15.169ZM9.50576 7.968C10.1718 7.274 10.9698 6.926 11.8998 6.926C12.0488 6.926 12.1758 6.981 12.2798 7.089C12.3838 7.198 12.4358 7.33 12.4358 7.485C12.4358 7.641 12.3838 7.773 12.2798 7.881C12.1758 7.99 12.0488 8.044 11.9008 8.044C11.2608 8.044 10.7138 8.281 10.2598 8.754C9.80576 9.228 9.57876 9.798 9.57876 10.465C9.57876 10.621 9.52676 10.752 9.42276 10.861C9.31776 10.97 9.19176 11.024 9.04276 11.024C8.89376 11.024 8.76776 10.97 8.66276 10.861C8.55876 10.752 8.50676 10.621 8.50676 10.465C8.50676 9.495 8.83976 8.663 9.50576 7.968ZM21.7778 10.902C20.7358 9.125 19.3338 7.697 17.5738 6.618C15.8148 5.54 13.9568 5 11.9998 5C10.0428 5 8.18476 5.539 6.42576 6.618C4.66576 7.697 3.26476 9.125 2.22276 10.902C2.07376 11.174 1.99976 11.442 1.99976 11.706C1.99976 11.969 2.07376 12.237 2.22276 12.509C3.26476 14.286 4.66576 15.714 6.42576 16.793C8.18476 17.872 10.0428 18.411 11.9998 18.411C13.9568 18.411 15.8158 17.874 17.5738 16.799C19.3338 15.724 20.7358 14.294 21.7778 12.509C21.9258 12.237 21.9998 11.97 21.9998 11.706C21.9998 11.442 21.9258 11.174 21.7778 10.902Z" fill="black"/>
</svg>
