<svg width="24" height="24" viewBox="0 0 24 24" fill="none" xmlns="http://www.w3.org/2000/svg">
<path fill-rule="evenodd" clip-rule="evenodd" d="M20.0098 3.99016C19.3499 3.3301 18.5549 3 17.6253 3H6.37501C5.44539 3 4.65039 3.3301 3.99018 3.99016C3.33011 4.65037 3 5.44535 3 6.37495V17.6249C3 18.5545 3.33011 19.3495 3.99018 20.0097C4.65039 20.6699 5.44539 21 6.37501 21H17.6251C18.5548 21 19.3498 20.6699 20.0097 20.0097C20.6699 19.3495 21 18.5545 21 17.6249V6.37495C21 5.44535 20.6699 4.65022 20.0098 3.99016ZM18.3166 12.2577H16.2657V19.699H13.1954V12.2577H11.6602V9.69123H13.1954V8.15607C13.1954 7.05443 13.4533 6.22249 13.9688 5.65995C14.4843 5.09741 15.3358 4.81621 16.5235 4.81621H18.5743V7.38267H17.2854C16.8478 7.38267 16.5685 7.45876 16.4474 7.61122C16.3263 7.76354 16.2657 8.03108 16.2657 8.41397V9.69123H18.5861L18.3166 12.2577Z" fill="black"/>
</svg>
