<?xml version="1.0" encoding="UTF-8"?>
<svg width="24px" height="24px" viewBox="0 0 24 24" version="1.1" xmlns="http://www.w3.org/2000/svg" xmlns:xlink="http://www.w3.org/1999/xlink">
    <!-- Generator: Sketch 52.5 (67469) - http://www.bohemiancoding.com/sketch -->
    <title> favourites</title>
    <desc>Created with Sketch.</desc>
    <defs>
        <path d="M19.904664,10.246049 L16.2825005,13.9345588 L15.9637275,14.2591776 L16.0392084,14.7173991 L16.9118185,19.970034 L12.3938671,17.4840968 L11.9999163,17.2678692 L11.6059726,17.4841107 L7.09048806,19.999602 L7.96079504,14.7173783 L8.03639013,14.2583983 L7.71666003,13.9337051 L4.05882849,10.2190941 L9.10736586,9.45712775 L9.54738166,9.39031714 L9.7444841,8.97412235 L11.9970526,4.2043713 L14.2555078,8.97410517 L14.4526051,9.39031186 L14.8926283,9.45712686 L19.904664,10.246049 Z M13.2980881,2.96318621 C13.0429796,2.38708205 12.5997829,2 12.0000675,2 C11.4003967,2 10.9574934,2.38689858 10.6927989,2.98335309 L8.4420759,7.77130395 L3.34088192,8.5458531 C2.55288394,8.6780669 2,9.15232789 2,9.94926762 C2,10.3739821 2.1860002,10.7469143 2.50061265,11.1015659 L6.20094925,14.8608795 L5.34587381,20.1617193 C5.32221503,20.3317471 5.31161213,20.4426687 5.31161213,20.5414163 C5.31161213,20.8809516 5.40145561,21.1982813 5.58743083,21.4670935 C5.83203894,21.8202071 6.20626056,22 6.62025071,22 C6.90801559,22 7.18923536,21.9120724 7.46633324,21.7539584 L11.992228,19.2612825 L16.5460039,21.7607122 C16.7951288,21.9098516 17.0831636,22 17.3798843,22 C17.7901994,22 18.1600912,21.8166107 18.4019014,21.4670935 C18.5878236,21.1982268 18.677585,20.8808263 18.677585,20.5414163 C18.677585,20.4028999 18.6720848,20.2884005 18.6578257,20.1852555 L17.7826451,14.870556 L21.4583132,11.1337087 C21.800377,10.7771118 22,10.3921726 22,9.94926762 C22,9.15219926 21.4470692,8.67797601 20.6713083,8.54784404 L15.5799176,7.77465459 L13.2980881,2.96318621 Z" id="path-1"></path>
    </defs>
    <g id="-favourites" stroke="none" stroke-width="1" fill="none" fill-rule="evenodd">
        <mask id="mask-2" fill="white">
            <use xlink:href="#path-1"></use>
        </mask>
        <use id="favourites" fill="#000000" fill-rule="nonzero" xlink:href="#path-1"></use>
    </g>
</svg>