<?xml version="1.0" encoding="UTF-8"?>
<svg width="24px" height="24px" viewBox="0 0 24 24" version="1.1" xmlns="http://www.w3.org/2000/svg" xmlns:xlink="http://www.w3.org/1999/xlink">
    <!-- Generator: Sketch 56.3 (81716) - https://sketch.com -->
    <title>film-cut</title>
    <desc>Created with Sketch.</desc>
    <g id="film-cut" stroke="none" stroke-width="1" fill="none" fill-rule="evenodd">
        <g id="Mask" transform="translate(2.000000, 2.000000)" fill="#000000">
            <path d="M8,15.9844 L9.016,15.9844 L9.016,13.9924 L8,13.9924 L8,15.9844 Z M2,15.9844 L4.012,15.9844 L4.012,13.9924 L2,13.9924 L2,15.9844 Z M2,5.9844 L4,5.9844 L4,3.9844 L2,3.9844 L2,5.9844 Z M8,5.9844 L9.016,5.9844 L9.016,3.9844 L8,3.9844 L8,5.9844 Z M5,5.9844 L7.004,5.9844 L7.004,3.9844 L5,3.9844 L5,5.9844 Z M2,12.9804 L9.016,12.9804 L9.016,6.9734 L2,6.9734 L2,12.9804 Z M5,15.9844 L7,15.9844 L7,13.9924 L5,13.9924 L5,15.9844 Z M10.016,0.0004 C9.466,0.0004 9.016,0.4504 9.016,1.0004 L9.016,1.9844 L0,1.9844 L0,17.9964 L9.016,17.9964 L9.016,19.9844 C9.016,20.5344 9.466,20.9844 10.016,20.9844 C10.565,20.9844 11.016,20.5344 11.016,19.9844 L11.016,1.0004 C11.016,0.4504 10.565,0.0004 10.016,0.0004 L10.016,0.0004 Z" id="Fill-1"></path>
            <path d="M15.987,6.9884 L17.999,6.9884 L17.999,4.9964 L15.987,4.9964 L15.987,6.9884 Z M15.999,16.9964 L17.999,16.9964 L17.999,14.9884 L15.999,14.9884 L15.999,16.9964 Z M12.999,2.9844 L12.999,4.9964 L14.999,4.9964 L14.999,6.9884 L12.999,6.9884 L12.999,7.9844 L17.999,7.9844 L17.999,14.0074 L12.999,14.0074 L12.999,14.9884 L14.999,14.9884 L14.999,16.9964 L12.999,16.9964 L12.999,18.9964 L19.999,18.9964 L19.999,2.9844 L12.999,2.9844 Z" id="Fill-3"></path>
        </g>
    </g>
</svg>