<?xml version="1.0" encoding="UTF-8"?>
<svg width="24px" height="24px" viewBox="0 0 24 24" version="1.1" xmlns="http://www.w3.org/2000/svg" xmlns:xlink="http://www.w3.org/1999/xlink">
    <!-- Generator: Sketch 52.5 (67469) - http://www.bohemiancoding.com/sketch -->
    <title>/ finance</title>
    <desc>Created with Sketch.</desc>
    <defs>
        <path d="M16.6195085,13.6237973 C16.5267683,13.3096646 16.4142961,13.0363112 16.282092,12.8041318 C16.1500194,12.5718209 15.9608557,12.3451665 15.7142062,12.1235108 C15.4678199,11.9018552 15.2461642,11.7234783 15.0496339,11.5877224 C14.8532352,11.4519665 14.5834335,11.300162 14.2404921,11.1321773 C13.8976822,10.9641926 13.6261705,10.8392235 13.42622,10.757007 C13.2260064,10.6749221 12.9366044,10.5623184 12.5578823,10.419459 C12.2220444,10.2909382 11.9721063,10.192673 11.8075417,10.1247951 C11.6432403,10.0569171 11.4271096,9.96049365 11.1591496,9.83539303 C10.8913212,9.71042397 10.6912391,9.59966192 10.559035,9.50323842 C10.4268309,9.40681492 10.2858132,9.28894936 10.1357188,9.14964174 C9.98562433,9.01033412 9.88025568,8.86208134 9.81948125,8.70488341 C9.75883837,8.54768548 9.72845115,8.376149 9.72845115,8.19040551 C9.72845115,7.70460471 9.94274021,7.30799237 10.3714499,7.00083156 C10.8001595,6.69367075 11.3539698,6.54002458 12.0327492,6.54002458 C12.3326749,6.54002458 12.6383887,6.58106705 12.9491013,6.66328354 C13.2598138,6.74550003 13.5259322,6.83824023 13.7473247,6.94189878 C13.9691119,7.04555733 14.1780076,7.15987114 14.3745379,7.2848402 C14.5710682,7.40994081 14.7103758,7.50452266 14.7925923,7.56884884 C14.8748088,7.63317503 14.9267696,7.67605915 14.9480801,7.69750121 C15.0410834,7.76893089 15.1372438,7.79392471 15.2373506,7.77248265 C15.3444294,7.76537914 15.4266459,7.70815646 15.4840001,7.60107771 L16.3522062,6.03633347 C16.4379745,5.8934741 16.4200841,5.75771823 16.2986668,5.62906587 C16.2556512,5.58618175 16.2022433,5.53619412 16.1376541,5.47897145 C16.0734594,5.42174877 15.9341518,5.31822177 15.7195997,5.16812734 C15.5053106,5.01816446 15.2783931,4.8841187 15.0392418,4.76625314 C14.7998273,4.64838758 14.4888517,4.52868037 14.1065779,4.40726306 C13.7245672,4.2857142 13.329665,4.20362926 12.9222658,4.16074514 L12.9222658,2.27436999 C12.9222658,2.17439474 12.8901685,2.09217825 12.8261054,2.02785207 C12.7617792,1.96365744 12.6795627,1.93142857 12.5794559,1.93142857 L11.1324457,1.93142857 C11.039574,1.93142857 10.9591991,1.96536754 10.8913212,2.03324547 C10.8234433,2.10112341 10.7895043,2.18149825 10.7895043,2.27436999 L10.7895043,4.20349771 C9.66767672,4.41778677 8.75671802,4.89648406 8.05649662,5.63958958 C7.35640676,6.3826951 7.00623029,7.24708639 7.00623029,8.23315808 C7.00623029,8.52611188 7.0366175,8.80472712 7.09739193,9.0690038 C7.15803482,9.33341203 7.2331478,9.5709848 7.3224678,9.78172211 C7.41178779,9.99259096 7.5385985,10.1997765 7.70289994,10.4034103 C7.86720137,10.6070441 8.0226892,10.7821324 8.16910032,10.9285435 C8.31564299,11.0749546 8.50677989,11.2267591 8.74251101,11.3839571 C8.97837367,11.5412865 9.18016583,11.6680973 9.34815056,11.7645208 C9.51613529,11.8606812 9.7393695,11.9717063 10.0179847,12.0965438 C10.2966,12.2216444 10.516414,12.3162263 10.6771637,12.380684 C10.8379134,12.4448786 11.0575958,12.5343302 11.3363426,12.6483809 C11.7221681,12.7984753 12.0078869,12.9144992 12.1937619,12.9967157 C12.379637,13.0789322 12.6153681,13.193246 12.9012184,13.3396571 C13.1870687,13.4860683 13.3959643,13.6199825 13.5283,13.7415314 C13.6603726,13.8630802 13.7800798,14.0130431 13.8872901,14.1916831 C13.9945004,14.3703231 14.0481713,14.5596183 14.0481713,14.7597004 C14.0481713,15.3241659 13.8284888,15.7599791 13.3889924,16.0670083 C12.9496275,16.3743007 12.4404114,16.5279469 11.8617389,16.5279469 C11.5975937,16.5279469 11.3330539,16.4995328 11.0687773,16.4423102 C10.1399282,16.2563036 9.27185366,15.8098351 8.46442195,15.1025102 L8.44297989,15.0810682 C8.37865371,15.0026665 8.29288547,14.9704377 8.18580671,14.9847762 C8.0714929,14.9991148 7.98927641,15.0419989 7.93928879,15.1135601 L6.83535154,16.5603073 C6.72814123,16.7031666 6.73537629,16.8495778 6.8567936,16.9996722 C6.89257421,17.0425563 6.95505875,17.107014 7.04437874,17.1926507 C7.13383028,17.2785505 7.29997336,17.4123332 7.54280799,17.594788 C7.78564261,17.7771113 8.05005084,17.9483847 8.33590114,18.1092659 C8.62175143,18.2700156 8.98429326,18.4289236 9.42378973,18.5861216 C9.8632862,18.743188 10.3186998,18.85395 10.7902936,18.9181446 L10.7902936,20.793733 C10.7902936,20.8867363 10.8242325,20.9669796 10.8921105,21.034989 C10.9599884,21.102867 11.0403632,21.1366744 11.133235,21.1366744 L12.5802452,21.1366744 C12.680352,21.1366744 12.7625685,21.1045771 12.8268947,21.0403824 C12.8910893,20.9760563 12.9230551,20.8939713 12.9230551,20.793733 L12.9230551,18.9181446 C14.0593527,18.7324011 14.9828084,18.2447587 15.693685,17.4552173 C16.4045617,16.6656759 16.76,15.72433 16.76,14.6311795 C16.7597369,14.2741627 16.713301,13.9383247 16.6195085,13.6237973 L16.6195085,13.6237973 Z" id="path-1"></path>
    </defs>
    <g id="/-finance" stroke="none" stroke-width="1" fill="none" fill-rule="evenodd">
        <mask id="mask-2" fill="white">
            <use xlink:href="#path-1"></use>
        </mask>
        <use id="Shape" fill="#000000" xlink:href="#path-1"></use>
    </g>
</svg>