<svg width="24" height="24" viewBox="0 0 24 24" fill="none" xmlns="http://www.w3.org/2000/svg">
<path d="M6.85316 6.15104C6.85973 6.15145 6.85645 6.15145 6.85316 6.15104V6.15104ZM21.2796 8.04268C20.8441 6.97902 19.9627 5.83194 19.2706 5.46779C19.8338 6.58943 20.1602 7.71524 20.2845 8.55449C20.2845 8.55449 20.2845 8.56033 20.2866 8.5716C19.1544 5.70388 17.2344 4.54762 15.6662 2.02987C15.587 1.90265 15.5077 1.77501 15.4306 1.6407C15.3895 1.57187 15.3542 1.50138 15.3201 1.43005C15.2553 1.30241 15.2052 1.1681 15.1707 1.02878C15.1715 1.01502 15.1617 1.00292 15.1481 1.00125C15.142 0.999583 15.1354 0.999583 15.1292 1.00125L15.1243 1.00417L15.1169 1.00834L15.121 1.0025C12.8948 2.3277 11.9715 4.64731 11.7342 6.12392C11.0466 6.16355 10.3725 6.33833 9.7502 6.63824C9.63279 6.69747 9.57819 6.83679 9.62335 6.96151C9.66892 7.09498 9.81178 7.16548 9.94314 7.11959L9.96449 7.11083C10.5076 6.85013 11.0938 6.69455 11.6932 6.652L11.7515 6.64783C11.8336 6.64282 11.9157 6.63949 11.9978 6.63865C12.4843 6.63448 12.9691 6.70247 13.4367 6.83971C13.4642 6.84805 13.4909 6.85723 13.5188 6.86598C13.5964 6.88976 13.6731 6.91604 13.7495 6.94399C13.8053 6.96484 13.8607 6.9857 13.9157 7.00989C13.9605 7.02824 14.0052 7.0466 14.0492 7.0662C14.1181 7.09749 14.1867 7.13044 14.2544 7.16423C14.2852 7.17966 14.316 7.19509 14.3468 7.21136C14.4125 7.2464 14.4773 7.28311 14.5414 7.32106C14.5828 7.34526 14.6239 7.37028 14.6645 7.39615C15.3899 7.85206 15.9917 8.48483 16.4158 9.2369C15.8821 8.85524 14.9236 8.47816 14.0011 8.64125C17.603 10.4708 16.6358 16.771 11.6452 16.5332C11.2006 16.5148 10.7613 16.4285 10.3422 16.2779C10.2428 16.24 10.1451 16.1991 10.0482 16.1557C9.99158 16.1294 9.93493 16.1027 9.8791 16.0723C8.65411 15.4324 7.64423 14.2194 7.5182 12.7457C7.5182 12.7457 7.98004 10.9959 10.8278 10.9959C11.1357 10.9959 12.0154 10.1233 12.0319 9.86968C12.0282 9.78625 10.2855 9.08257 9.60611 8.40224C9.2428 8.03893 9.07038 7.86374 8.91767 7.73235C8.83515 7.66102 8.74853 7.5947 8.65863 7.53338C8.43038 6.72166 8.42053 5.86281 8.6303 5.04608C7.60154 5.52202 6.80144 6.27451 6.22014 6.93856H6.21522C5.81824 6.42759 5.84575 4.74242 5.86915 4.39078C5.86422 4.36868 5.57275 4.54428 5.53457 4.57056C5.1844 4.82501 4.85681 5.1099 4.55589 5.42274C4.21352 5.77563 3.90112 6.15688 3.62114 6.56274C2.97704 7.49 2.52054 8.53781 2.27751 9.64527C2.27505 9.65653 2.18186 10.0711 2.1133 10.583C2.10181 10.6626 2.09114 10.7427 2.08128 10.8224C2.05788 10.9763 2.04023 11.144 2.02217 11.4064C2.02217 11.4164 2.02217 11.4264 2.02012 11.4364C2.01273 11.5494 2.00616 11.6621 2 11.7751C2 11.7922 2 11.8093 2 11.8268C2 17.4454 6.48328 22 12.0134 22C16.9659 22 21.0785 18.3468 21.8835 13.5483C21.9003 13.4181 21.9139 13.2872 21.9291 13.1558C22.1282 11.4109 21.9069 9.57728 21.2796 8.04394V8.04268Z" fill="black"/>
</svg>
