<svg width="24" height="24" viewBox="0 0 24 24" fill="none" xmlns="http://www.w3.org/2000/svg">
<path fill-rule="evenodd" clip-rule="evenodd" d="M21.627 9.29902C21.6573 9.23207 21.7285 9.19332 21.8011 9.20447C21.8739 9.21562 21.9302 9.27384 21.939 9.34689C21.947 9.41312 22.1318 10.9924 21.8161 13.0299C21.5238 14.9172 20.7252 17.5544 18.5815 19.4012C16.7686 20.9614 14.5913 21.7861 12.2853 21.7861H12.2847C9.9087 21.786 7.58984 20.8952 5.92263 19.3422C3.67164 17.247 3.08458 14.9726 2.93167 13.9037L2.72427 14.3428C2.69201 14.4111 2.61732 14.4486 2.54336 14.4334C2.46933 14.4184 2.41523 14.3548 2.41222 14.2793C2.41018 14.2279 2.36376 13.0099 2.52251 12.2247C2.55824 12.0428 2.59693 11.8804 2.63535 11.7379L2.28291 12.1102C2.23478 12.1612 2.15944 12.1758 2.09538 12.1464C2.03158 12.1171 1.99361 12.0503 2.00089 11.9804C2.00738 11.9178 2.16757 10.4367 2.69673 9.58944C3.12288 8.90756 3.54469 8.43493 3.69393 8.27552C3.64902 7.86747 3.52948 6.06715 4.73376 4.91238C4.77737 4.87061 4.84045 4.85619 4.89775 4.87481C4.95519 4.89343 4.99768 4.94209 5.0085 5.00149L5.0086 5.00203C5.01236 5.02215 5.11407 5.5671 5.31223 6.05293C5.42272 6.33298 5.6155 6.52727 5.753 6.63834C7.21432 4.3566 9.68241 3 12.3905 3C14.3135 3 16.1667 3.70659 17.6117 4.99021C17.7541 5.05185 17.9166 5.12332 18.0766 5.20129C18.7417 5.50711 19.4139 6.1345 19.8323 6.57159L19.6584 5.78808C19.6425 5.71687 19.6757 5.64376 19.7397 5.60875C19.8038 5.57373 19.8832 5.58521 19.9347 5.63694C19.9631 5.6656 20.6351 6.3497 20.9524 7.40789C21.1606 8.09514 21.3182 9.14323 21.4032 9.79441L21.627 9.29902ZM18.4141 10.3043C18.3656 9.55796 18.1432 9.2667 18.141 9.26381C18.0898 9.1987 18.0947 9.10487 18.1533 9.04631C18.2117 8.98763 18.304 8.98087 18.3695 9.03169L18.738 9.31804C18.6367 8.90802 18.4937 8.5041 18.3109 8.11238C18.1149 7.8158 17.8921 7.5688 17.6484 7.37805C16.5532 6.53382 15.0855 6.06984 15.0708 6.06525C14.9984 6.04263 14.9509 5.97326 14.956 5.89752C14.9612 5.82185 15.0177 5.75956 15.0926 5.74704L16.1947 5.56272C15.0817 4.76268 13.7744 4.34191 12.3908 4.34191C10.5056 4.34191 8.73616 5.14385 7.48867 6.55258C7.70105 6.57448 7.82924 6.59474 7.90412 6.60943C8.07822 6.47822 8.58344 6.12453 9.23482 5.90631C10.0349 5.6414 10.5246 5.69032 10.5411 5.69215C10.6086 5.69943 10.6646 5.74763 10.682 5.8132C10.6994 5.87883 10.6744 5.9484 10.6194 5.98808C10.4266 6.12709 9.89283 6.54707 9.73848 6.81834C9.59586 7.06652 9.63192 7.35727 9.647 7.44356C9.71985 7.54664 10.0399 7.96603 10.5257 8.12746C10.7588 8.20464 11.017 8.23697 11.2448 8.26549L11.2449 8.2655C11.6429 8.31533 11.9867 8.35836 12.1173 8.62325C12.2159 8.8178 12.0925 9.07392 11.1711 9.74366C10.7903 10.0205 10.3941 10.2773 10.2286 10.3829L10.2744 11.8189C10.2757 11.8273 10.2764 11.836 10.2764 11.8449C10.2764 11.9354 10.203 12.0088 10.1125 12.0088H10.1112C10.0918 12.0088 10.0722 12.0053 10.0535 11.9983L10.0529 11.9981C10.0375 11.9924 9.70183 11.87 9.39928 11.87C9.05182 11.87 8.99464 12.0193 8.98454 12.1653C8.96231 12.4856 9.11332 12.8611 9.37849 13.1453C9.57553 13.3565 9.91965 13.6082 10.44 13.6082C10.5877 13.6082 10.7416 13.587 10.8974 13.5455C11.7467 13.3156 12.3395 13.1648 12.8176 13.1648C13.1181 13.1648 13.3663 13.2235 13.5983 13.3497C14.0662 13.6072 14.445 14.1689 14.3641 14.4841C14.331 14.6124 14.2256 14.6922 14.089 14.6922C13.8303 14.6922 13.4936 14.7228 12.7694 15.087C12.649 15.1465 12.524 15.2165 12.3916 15.2906L12.3915 15.2907C11.8875 15.573 11.2605 15.9242 10.4452 15.9242C10.3967 15.9242 10.348 15.9229 10.299 15.9205C10.8683 16.3166 11.8724 16.8805 12.9776 16.8804C13.2895 16.8804 13.5945 16.8352 13.8841 16.746C15.9575 16.1024 16.7146 14.477 16.7219 14.4607C16.7546 14.3883 16.8346 14.3498 16.9118 14.3695C16.9888 14.3891 17.0406 14.4611 17.0348 14.5404L16.9737 15.3666C17.1329 15.1221 17.3184 14.7515 17.4369 14.2361C17.6873 13.1392 17.5385 11.8773 17.537 11.8647C17.5283 11.7931 17.5674 11.7242 17.6334 11.695C17.6995 11.6657 17.7767 11.6833 17.8239 11.7379L18.2606 12.2447C18.3329 11.756 18.4476 10.8628 18.4141 10.3043Z" fill="black"/>
</svg>
