<?xml version="1.0" encoding="UTF-8"?>
<svg width="24px" height="24px" viewBox="0 0 24 24" version="1.1" xmlns="http://www.w3.org/2000/svg" xmlns:xlink="http://www.w3.org/1999/xlink">
    <!-- Generator: Sketch 52.5 (67469) - http://www.bohemiancoding.com/sketch -->
    <title>firefox</title>
    <desc>Created with Sketch.</desc>
    <defs>
        <path d="M21.8011331,9.20446919 C21.7284803,9.1933221 21.6572701,9.23207462 21.6269762,9.29902272 L21.4031821,9.79441243 C21.3182019,9.14322577 21.160569,8.09513722 20.9523807,7.40788645 C20.6350821,6.34969995 19.9631094,5.6655966 19.9346516,5.63694202 C19.8831782,5.58520642 19.8038372,5.57373148 19.7397087,5.60874645 C19.6757113,5.64376142 19.6425323,5.7168732 19.6584005,5.78808342 L19.8322951,6.57159257 C19.4138858,6.13449558 18.7417164,5.50711124 18.0765631,5.2012876 C17.9166352,5.12332355 17.7540844,5.05185105 17.6117296,4.99021421 C16.1666735,3.70659424 14.3135029,3 12.3904991,3 C9.68241244,3 7.21431602,4.35660061 5.75299835,6.63834395 C5.61549574,6.5272665 5.42271669,6.33297931 5.31222937,6.05292512 C5.11131951,5.56035497 5.00955315,5.00700041 5.00850401,5.00149244 C4.99768478,4.94208502 4.9551947,4.89343125 4.89775441,4.87480906 C4.84044527,4.85618687 4.77736586,4.87061251 4.73376108,4.9123813 C3.52948215,6.06715405 3.64901827,7.86747434 3.69393448,8.27552333 C3.54469464,8.43492669 3.12287572,8.90756322 2.6967291,9.58943715 C2.16757028,10.4366814 2.00738006,11.9178015 2.00088853,11.980422 C1.99361013,12.0503208 2.0315758,12.1170721 2.09537649,12.146448 C2.15943946,12.1758239 2.23478066,12.1612015 2.28290985,12.1101872 L2.63535455,11.7378744 C2.59692988,11.8803604 2.55824293,12.0427801 2.52250667,12.2246743 C2.36375903,13.0098883 2.41018337,14.2278716 2.41221607,14.2793449 C2.41523234,14.3547517 2.46932851,14.4184212 2.54335828,14.433437 C2.61732249,14.4486495 2.69200798,14.4110773 2.72426897,14.3428178 L2.93167037,13.9036881 C3.08458219,14.9726282 3.6716403,17.2470276 5.9226308,19.3422212 C7.58984174,20.8952072 9.90869833,21.7859907 12.2846674,21.7861218 C12.2849296,21.7861218 12.2849952,21.7861218 12.2852575,21.7861218 C14.5912621,21.7861218 16.7686163,20.9613685 18.5815262,19.4011696 C20.7251768,17.554425 21.5237673,14.9171551 21.8161489,13.0298875 C22.1318082,10.9923965 21.9470288,9.41311644 21.9389636,9.34688963 C21.9302426,9.27384342 21.873917,9.21561627 21.8011331,9.20446919 Z M18.140954,9.26381104 C18.1431834,9.26669616 18.3656006,9.55796302 18.4141232,10.3042933 C18.4475645,10.862828 18.3329462,11.7560376 18.2606212,12.2447391 L17.8238521,11.73794 C17.7767065,11.6832537 17.6995293,11.6656806 17.6334336,11.6949909 C17.5674035,11.7241701 17.5282576,11.7930853 17.5369785,11.864689 C17.5384866,11.8772786 17.6873331,13.1391945 17.436917,14.236068 C17.3183644,14.7515225 17.1328638,15.1220648 16.9737227,15.3665794 L17.0347694,14.5403835 C17.0406052,14.461108 16.9888041,14.389111 16.911758,14.3695052 C16.8346464,14.3497683 16.7546496,14.3882585 16.7219297,14.4607146 C16.7145857,14.4770418 15.9575017,16.1024184 13.8840778,16.7459988 C13.5945158,16.8351755 13.2895446,16.8804196 12.9775572,16.8804196 C11.8724218,16.8804851 10.8682659,16.3166392 10.2990431,15.9204586 C10.3480247,15.9229503 10.3967441,15.9241961 10.4452011,15.9241961 C11.2605778,15.9241961 11.8876343,15.5729317 12.3916138,15.2906481 C12.5240019,15.2164872 12.649046,15.1464572 12.769369,15.0869842 C13.4936018,14.7228023 13.8303095,14.6922462 14.0889875,14.6922462 C14.2256377,14.6922462 14.3310104,14.6124461 14.3640583,14.4840579 C14.4450386,14.1689232 14.0661687,13.6072411 13.5983189,13.3496778 C13.3662627,13.223519 13.1181417,13.1647673 12.8176293,13.1647673 C12.3394848,13.1647673 11.7466564,13.3155808 10.897445,13.5454731 C10.7415825,13.5870452 10.5876871,13.6081591 10.440021,13.6081591 C9.9196487,13.6082247 9.57553154,13.3564972 9.37849037,13.1452927 C9.11332081,12.8611075 8.96231056,12.4855818 8.98453916,12.1653325 C8.99463711,12.0193056 9.05181512,11.8700002 9.39927641,11.8700002 C9.70752618,11.8700002 10.0501352,11.997077 10.0534793,11.9982573 C10.0721671,12.005339 10.0917729,12.0088142 10.1112475,12.0088142 C10.1115753,12.0088142 10.1120343,12.0088142 10.1124933,12.0088142 C10.203047,12.0088142 10.2764211,11.9354402 10.2764211,11.8448865 C10.2764211,11.8360344 10.2756998,11.8273134 10.2743884,11.8188547 L10.2285542,10.3829131 C10.3941212,10.2773436 10.7903018,10.0205016 11.1711388,9.74366039 C12.0924784,9.07391711 12.2158833,8.81779637 12.1172643,8.6232469 C11.9866467,8.35833963 11.6428574,8.31532499 11.2447752,8.26549095 C11.0169812,8.23696752 10.7588277,8.20464096 10.5256569,8.12746377 C10.0399061,7.96602771 9.71985354,7.54663491 9.64700405,7.44355714 C9.63192269,7.35726556 9.59585858,7.06652328 9.73847574,6.81833664 C9.89283012,6.54706898 10.4266445,6.12708604 10.619358,5.9880753 C10.6744377,5.94840478 10.6993547,5.87883383 10.6819784,5.81319716 C10.664602,5.74762605 10.6086043,5.69943129 10.5411316,5.6921529 C10.5246077,5.69031691 10.0348571,5.64140086 9.23482407,5.90630813 C8.58344071,6.12452877 8.07821534,6.47821931 7.90412405,6.6094271 C7.82924185,6.59473917 7.70105033,6.5744777 7.48866552,6.55257695 C8.73615581,5.14384731 10.5055921,4.34191268 12.3907614,4.34191268 C13.7743773,4.34191268 15.0816684,4.76268247 16.1946724,5.56271553 L15.0925533,5.74703591 C15.017671,5.75955999 14.9612143,5.82185254 14.9560342,5.8975216 C14.9508541,5.97325623 14.9983931,6.04263046 15.0707836,6.06525249 C15.0854716,6.06984247 16.5532152,6.53382361 17.6483838,7.3780516 C17.8921116,7.56879795 18.1149222,7.8158043 18.3109143,8.11238242 C18.4936609,8.5041042 18.6366715,8.90802222 18.7379789,9.31803834 L18.3694693,9.03168932 C18.3040293,8.98087171 18.2117052,8.98762554 18.1533469,9.04631168 C18.0946608,9.10486668 18.0898085,9.19869893 18.140954,9.26381104 Z" id="path-1"></path>
    </defs>
    <g id="firefox" stroke="none" stroke-width="1" fill="none" fill-rule="evenodd">
        <mask id="mask-2" fill="white">
            <use xlink:href="#path-1"></use>
        </mask>
        <use id="XMLID_22_" fill="#000000" fill-rule="nonzero" xlink:href="#path-1"></use>
    </g>
</svg>