<?xml version="1.0" encoding="UTF-8"?>
<svg width="24px" height="24px" viewBox="0 0 24 24" version="1.1" xmlns="http://www.w3.org/2000/svg" xmlns:xlink="http://www.w3.org/1999/xlink">
    <!-- Generator: Sketch 52.5 (67469) - http://www.bohemiancoding.com/sketch -->
    <title>/flug</title>
    <desc>Created with Sketch.</desc>
    <defs>
        <path d="M4.99601602,3.56211994 L4.99601602,20.4352795 C4.99864508,20.4560492 5,20.4772162 5,20.4986997 C5,20.7748421 4.77614237,20.9986997 4.5,20.9986997 C4.22385763,20.9986997 4,20.7748421 4,20.4986997 C4,20.4908612 4.00018037,20.4830648 4.0005372,20.4753144 L4,3.49909973 C4,3.22255733 4.22385763,2.9986997 4.5,2.9986997 C4.77614237,2.9986997 5,3.22255733 5,3.4986997 C5,3.52018317 4.99864508,3.54135018 4.99601602,3.56211994 Z M20.1587265,3.95351209 C20.5652439,3.95351209 21.0370423,4.40289021 21.0370423,4.96145936 L21.0370423,13.6912013 C21.0370423,14.0901512 20.6897289,14.3551457 20.5057906,14.4646045 C19.0416827,15.3709117 17.785085,15.8238495 16.7362486,15.8238495 C16.3209771,15.8238495 15.9004394,15.7378359 15.4746356,15.5662402 C15.0489572,15.3943569 14.6797016,15.2066516 14.3662418,15.0036998 C14.0530328,14.8006041 13.6597034,14.6130427 13.1863792,14.4411593 C12.7133056,14.2694198 12.2279445,14.1834062 11.7309227,14.1834062 C10.4232938,14.1834062 8.84333107,14.7537138 6.99090909,15.8944727 C6.87505435,15.9646644 6.76283575,15.9997603 6.65387712,15.9997603 C6.47683503,15.9997603 6.3234905,15.9255412 6.19421969,15.777103 C6.06482348,15.6288086 6,15.4528979 6,15.2498022 L6,6.55451763 C6,6.30453162 6.10557326,6.08978529 6.31671977,5.90999097 C6.45978282,5.80067603 6.72873132,5.63267622 7.12381604,5.40613538 C8.73098708,4.4686159 10.1645014,4 11.4244844,4 C12.1532157,4 12.8341757,4.1131985 13.4674899,4.33973934 C14.1009294,4.56628018 14.8464622,4.91004691 15.7045897,5.37103953 C15.9635075,5.51947772 16.2631751,5.59369681 16.6037178,5.59369681 C16.9714688,5.59369681 17.3715689,5.5117106 17.804018,5.34759435 C18.2362164,5.1834781 18.6305119,5.01238394 18.9556156,4.82897346 C19.2807192,4.64556298 19.5477095,4.46150814 19.826586,4.24610246 C20.1054624,4.03069678 20.0703308,3.95351209 20.1587265,3.95351209 Z" id="path-1"></path>
    </defs>
    <g id="/flug" stroke="none" stroke-width="1" fill="none" fill-rule="evenodd">
        <mask id="mask-2" fill="white">
            <use xlink:href="#path-1"></use>
        </mask>
        <use id="Combined-Shape" fill="#000000" xlink:href="#path-1"></use>
    </g>
</svg>