<svg width="24" height="24" viewBox="0 0 24 24" fill="none" xmlns="http://www.w3.org/2000/svg">
<path fill-rule="evenodd" clip-rule="evenodd" d="M20.1587 3.95349C20.0703 3.95349 20.1055 4.03068 19.8266 4.24608C19.5477 4.46149 19.2807 4.64554 18.9556 4.82895C18.6305 5.01236 18.2362 5.18346 17.804 5.34757C17.3716 5.51169 16.9715 5.59368 16.6037 5.59368C16.2632 5.59368 15.9635 5.51946 15.7046 5.37102C14.8465 4.91003 14.1009 4.56626 13.4675 4.33972C12.8342 4.11318 12.1532 3.99998 11.4245 3.99998C10.1645 3.99998 8.73099 4.46859 7.12382 5.40611C6.72873 5.63266 6.45978 5.80066 6.31672 5.90997C6.10557 6.08976 6 6.30451 6 6.5545V15.2498C6 15.4529 6.06482 15.6288 6.19422 15.7771C6.32349 15.9255 6.47684 15.9997 6.65388 15.9997C6.76284 15.9997 6.87505 15.9646 6.99091 15.8945C8.84333 14.7537 10.4233 14.1834 11.7309 14.1834C12.2279 14.1834 12.7133 14.2694 13.1864 14.4411C13.6597 14.613 14.053 14.8006 14.3662 15.0037C14.6797 15.2066 15.049 15.3943 15.4746 15.5662C15.9004 15.7378 16.321 15.8238 16.7362 15.8238C17.7851 15.8238 19.0417 15.3709 20.5058 14.4646C20.6897 14.3551 21.037 14.0901 21.037 13.6912V4.96144C21.037 4.40287 20.5652 3.95349 20.1587 3.95349Z" fill="black"/>
<rect x="3" y="3" width="2" height="18" rx="1" fill="black"/>
</svg>
