<?xml version="1.0" encoding="UTF-8"?>
<svg width="24px" height="24px" viewBox="0 0 24 24" version="1.1" xmlns="http://www.w3.org/2000/svg" xmlns:xlink="http://www.w3.org/1999/xlink">
    <!-- Generator: Sketch 52.6 (67491) - http://www.bohemiancoding.com/sketch -->
    <title>focus</title>
    <desc>Created with Sketch.</desc>
    <defs>
        <path d="M10.5387438,9.46196533 L12.1585879,9.46196533 C12.4267222,9.46196533 12.644088,9.67933113 12.644088,9.94746543 C12.644088,10.2155997 12.4267222,10.4329655 12.1585879,10.4329655 L10.5387438,10.4329655 L10.5387438,12.0528096 C10.5387438,12.3209439 10.321378,12.5383097 10.0532437,12.5383097 C9.78510936,12.5383097 9.56774356,12.3209439 9.56774356,12.0528096 L9.56774356,10.4329655 L7.94789947,10.4329655 C7.67976517,10.4329655 7.46239937,10.2155997 7.46239937,9.94746543 C7.46239937,9.67933113 7.67976517,9.46196533 7.94789947,9.46196533 L9.56774356,9.46196533 L9.56774356,7.84212123 C9.56774356,7.57398693 9.78510936,7.35662114 10.0532437,7.35662114 C10.321378,7.35662114 10.5387438,7.57398693 10.5387438,7.84212123 L10.5387438,9.46196533 Z M21.6706879,19.7084183 C21.8702459,19.9479103 21.9904,20.256625 21.9904,20.5935699 C21.9904,21.3550257 21.3767649,21.9723077 20.6198076,21.9723077 C20.1811885,21.9723077 19.7906917,21.7650475 19.53982,21.4425739 L14.5767728,16.5347047 C13.2866431,17.4099535 11.7251224,17.9224258 10.0463172,17.9224258 C5.61405336,17.9224258 2.0096,14.3566974 2.0096,9.97505905 C2.0096,5.59342074 5.61405336,2.02769231 10.0463172,2.02769231 C14.4772173,2.02769231 18.0830345,5.59342074 18.0830345,9.97505905 C18.0830345,11.7161163 17.5129771,13.3290555 16.5487893,14.6399058 L21.504246,19.5402687 C21.5568817,19.5850382 21.6061163,19.633728 21.6515046,19.6858902 L21.6724863,19.7066386 L21.6706879,19.7084183 Z M4.3662006,9.97505905 C4.3662006,13.0714707 6.9137295,15.5920254 10.0463172,15.5920254 C13.1775412,15.5920254 15.7264338,13.0714707 15.7264338,9.97505905 C15.7264338,6.87864737 13.1775412,4.35809274 10.0463172,4.35809274 C6.9137295,4.35809274 4.3662006,6.87864737 4.3662006,9.97505905 Z" id="path-1"></path>
    </defs>
    <g id="focus" stroke="none" stroke-width="1" fill="none" fill-rule="evenodd">
        <mask id="mask-2" fill="white">
            <use xlink:href="#path-1"></use>
        </mask>
        <use id="Mask" fill="#000000" xlink:href="#path-1"></use>
    </g>
</svg>