<svg width="24" height="24" viewBox="0 0 24 24" fill="none" xmlns="http://www.w3.org/2000/svg">
<path fill-rule="evenodd" clip-rule="evenodd" d="M16.5532 14.6472L21.5134 19.5612C21.5661 19.6061 21.6153 19.6549 21.6608 19.7072L21.6818 19.728L21.68 19.7298C21.8797 19.97 22 20.2796 22 20.6174C22 21.381 21.3858 22 20.6281 22C20.1891 22 19.7982 21.7922 19.5471 21.4688L14.5792 16.5473C13.2879 17.425 11.7249 17.9389 10.0444 17.9389C5.60792 17.9389 2 14.3632 2 9.96944C2 5.57563 5.60792 2 10.0444 2C14.4796 2 18.0889 5.57563 18.0889 9.96944C18.0889 11.7153 17.5183 13.3327 16.5532 14.6472ZM10 4C6.691 4 4 6.69244 4 10C4 13.3076 6.691 16 10 16C13.3076 16 16 13.3076 16 10C16 6.69244 13.3076 4 10 4ZM12 11C12.5523 11 13 10.5523 13 10C13 9.44772 12.5523 9 12 9H8C7.44772 9 7 9.44772 7 10C7 10.5523 7.44772 11 8 11H12Z" fill="black"/>
</svg>
