<svg width="24" height="24" viewBox="0 0 24 24" fill="none" xmlns="http://www.w3.org/2000/svg">
<path fill-rule="evenodd" clip-rule="evenodd" d="M21.6515 19.6859L21.6725 19.7067L21.6707 19.7084C21.8702 19.9479 21.9904 20.2566 21.9904 20.5936C21.9904 21.355 21.3768 21.9723 20.6198 21.9723C20.1812 21.9723 19.7907 21.7651 19.5398 21.4426L14.5768 16.5347C13.2866 17.41 11.7251 17.9224 10.0463 17.9224C5.61405 17.9224 2.0096 14.3567 2.0096 9.97508C2.0096 5.59344 5.61405 2.02771 10.0463 2.02771C14.4772 2.02771 18.083 5.59344 18.083 9.97508C18.083 11.7161 17.513 13.3291 16.5488 14.6399L21.5043 19.5403C21.5569 19.5851 21.6061 19.6337 21.6515 19.6859ZM10 4.00002C6.69099 4.00002 4 6.69245 4 10C4 13.3076 6.69099 16 10 16C13.3076 16 16 13.3076 16 10C16 6.69245 13.3076 4.00002 10 4.00002ZM11 8.00002C11 7.44773 10.5523 7.00002 10 7.00002C9.44771 7.00002 9 7.44773 9 8.00002V9.00002H8C7.44771 9.00002 7 9.44773 7 10C7 10.5523 7.44771 11 8 11H9V12C9 12.5523 9.44771 13 10 13C10.5523 13 11 12.5523 11 12V11H12C12.5523 11 13 10.5523 13 10C13 9.44773 12.5523 9.00002 12 9.00002H11V8.00002Z" fill="black"/>
</svg>
