<?xml version="1.0" encoding="UTF-8"?>
<svg width="24px" height="24px" viewBox="0 0 24 24" version="1.1" xmlns="http://www.w3.org/2000/svg" xmlns:xlink="http://www.w3.org/1999/xlink">
    <!-- Generator: Sketch 52.6 (67491) - http://www.bohemiancoding.com/sketch -->
    <title>focus</title>
    <desc>Created with Sketch.</desc>
    <defs>
        <path d="M21.6706879,19.7084183 C21.8702459,19.9479103 21.9904,20.256625 21.9904,20.5935699 C21.9904,21.3550257 21.3767649,21.9723077 20.6198076,21.9723077 C20.1811885,21.9723077 19.7906917,21.7650475 19.53982,21.4425739 L14.5767728,16.5347047 C13.2866431,17.4099535 11.7251224,17.9224258 10.0463172,17.9224258 C5.61405336,17.9224258 2.0096,14.3566974 2.0096,9.97505905 C2.0096,5.59342074 5.61405336,2.02769231 10.0463172,2.02769231 C14.4772173,2.02769231 18.0830345,5.59342074 18.0830345,9.97505905 C18.0830345,11.7161163 17.5129771,13.3290555 16.5487893,14.6399058 L21.504246,19.5402687 C21.5568817,19.5850382 21.6061163,19.633728 21.6515046,19.6858902 L21.6724863,19.7066386 L21.6706879,19.7084183 Z M4.3662006,9.97505905 C4.3662006,13.0714707 6.9137295,15.5920254 10.0463172,15.5920254 C13.1775412,15.5920254 15.7264338,13.0714707 15.7264338,9.97505905 C15.7264338,6.87864737 13.1775412,4.35809274 10.0463172,4.35809274 C6.9137295,4.35809274 4.3662006,6.87864737 4.3662006,9.97505905 Z M11,9 L12.009222,9 C12.5564136,9 13,9.44386482 13,10 C13,10.5522847 12.5490248,11 12.009222,11 L11,11 L11,12.009222 C11,12.5564136 10.5561352,13 10,13 C9.44771525,13 9,12.5490248 9,12.009222 L9,11 L7.99077797,11 C7.44358641,11 7,10.5561352 7,10 C7,9.44771525 7.45097518,9 7.99077797,9 L9,9 L9,7.99077797 C9,7.44358641 9.44386482,7 10,7 C10.5522847,7 11,7.45097518 11,7.99077797 L11,9 Z" id="path-1"></path>
    </defs>
    <g id="focus" stroke="none" stroke-width="1" fill="none" fill-rule="evenodd">
        <mask id="mask-2" fill="white">
            <use xlink:href="#path-1"></use>
        </mask>
        <use id="Mask" fill="#000000" xlink:href="#path-1"></use>
    </g>
</svg>