<?xml version="1.0" encoding="UTF-8"?>
<svg width="24px" height="24px" viewBox="0 0 24 24" version="1.1" xmlns="http://www.w3.org/2000/svg" xmlns:xlink="http://www.w3.org/1999/xlink">
    <!-- Generator: Sketch 52.5 (67469) - http://www.bohemiancoding.com/sketch -->
    <title>/ focus-out</title>
    <desc>Created with Sketch.</desc>
    <defs>
        <path d="M21.6799807,19.7298239 C21.8797305,19.969981 22,20.2795529 22,20.6174335 C22,21.3810039 21.3857752,22 20.6280906,22 C20.18905,22 19.7981779,21.7921642 19.5470652,21.4687952 L14.5792489,16.5472972 C13.2878794,17.4249765 11.7248583,17.9388719 10.0444399,17.9388719 C5.60791696,17.9388719 2,14.3632417 2,9.96943595 C2,5.57563018 5.60791696,2 10.0444399,2 C14.4795977,2 18.0888798,5.57563018 18.0888798,9.96943595 C18.0888798,11.715328 17.5182747,13.3327462 16.5531603,14.6472366 L21.5133788,19.5612075 C21.5660651,19.6061013 21.6153471,19.6549263 21.6607789,19.7072333 L21.6817808,19.7280394 L21.6799807,19.7298239 Z M4.35886512,9.96943595 C4.35886512,13.0744461 6.90884199,15.6020001 10.0444399,15.6020001 C13.1786727,15.6020001 15.7300147,13.0744461 15.7300147,9.96943595 C15.7300147,6.86442578 13.1786727,4.33687177 10.0444399,4.33687177 C6.90884199,4.33687177 4.35886512,6.86442578 4.35886512,9.96943595 Z M12,11 L8,11 C7.44771525,11 7,10.5522847 7,10 C7,9.44771525 7.44771525,9 8,9 L12,9 C12.5522847,9 13,9.44771525 13,10 C13,10.5522847 12.5522847,11 12,11 Z" id="path-1"></path>
    </defs>
    <g id="/-focus-out" stroke="none" stroke-width="1" fill="none" fill-rule="evenodd">
        <mask id="mask-2" fill="white">
            <use xlink:href="#path-1"></use>
        </mask>
        <use id="view_captures" fill="#000000" xlink:href="#path-1"></use>
    </g>
</svg>