<?xml version="1.0" encoding="UTF-8"?>
<svg width="24px" height="24px" viewBox="0 0 24 24" version="1.1" xmlns="http://www.w3.org/2000/svg" xmlns:xlink="http://www.w3.org/1999/xlink">
    <!-- Generator: Sketch 52.5 (67469) - http://www.bohemiancoding.com/sketch -->
    <title>/free </title>
    <desc>Created with Sketch.</desc>
    <defs>
        <path d="M16.8672149,7.16463809 L16.8672149,7.13278534 L17.9468859,7.13278536 L7.13278536,7.13278536 L7.13278534,16.8672149 L16.8672147,16.8672147 L16.8672147,16.8539039 L16.8686704,16.8539039 L16.8686704,7.16463809 L16.8672149,7.16463809 Z M4.97344293,7.13278536 L3.07967122,7.13278536 C2.48338527,7.13278536 2,6.64940009 2,6.05311414 C2,5.4568282 2.48338527,4.97344293 3.07967122,4.97344293 L4.97344293,4.97344293 L4.97344293,3.07967122 C4.97344293,2.48338527 5.4568282,2 6.05311414,2 C6.64940009,2 7.13278536,2.48338527 7.13278536,3.07967122 C7.13278536,3.07967122 7.13278536,4.01678498 7.13278536,4.97344292 L17.9468859,4.97344293 C18.5431718,4.97344293 19.0265571,5.4568282 19.0265571,6.05311414 L19.0265571,16.8672147 L20.9203288,16.8672146 C21.5166147,16.8672146 22,17.3505999 22,17.9468859 C22,18.5431718 21.5166147,19.0265571 20.9203288,19.0265571 L19.0265571,19.0265571 L19.0265571,20.9203288 C19.0265571,21.5166147 18.5431718,22 17.9468859,22 C17.3505999,22 16.8672146,21.5166147 16.8672146,20.9203288 L16.8672147,19.0265571 L6.05311414,19.0265571 C5.4568282,19.0265571 4.97344293,18.5431718 4.97344293,17.9468859 L4.97344293,7.13278536 Z" id="path-1"></path>
    </defs>
    <g id="/free-" stroke="none" stroke-width="1" fill="none" fill-rule="evenodd">
        <mask id="mask-2" fill="white">
            <use xlink:href="#path-1"></use>
        </mask>
        <use id="capture_free_selection" fill="#000000" fill-rule="nonzero" xlink:href="#path-1"></use>
    </g>
</svg>