<?xml version="1.0" encoding="UTF-8"?>
<svg width="24px" height="24px" viewBox="0 0 24 24" version="1.1" xmlns="http://www.w3.org/2000/svg" xmlns:xlink="http://www.w3.org/1999/xlink">
    <!-- Generator: Sketch 52.5 (67469) - http://www.bohemiancoding.com/sketch -->
    <title> fullpage</title>
    <desc>Created with Sketch.</desc>
    <defs>
        <path d="M5.40850652,4 C4.63186208,4 4,4.63186208 4,5.40850652 L4,18.5915156 C4,19.3681601 4.63186208,20 5.40850652,20 L18.5914935,20 C19.3681379,20 20,19.3681601 20,18.5915156 L20,5.40850652 C20,4.63186208 19.3681379,4 18.5914935,4 L5.40850652,4 Z M4.9922331,22 C3.34233195,22 2,20.6576916 2,19.0077904 L2,4.9922331 C2,3.34230842 3.34233195,2 4.9922331,2 L19.0077669,2 C20.6576916,2 22,3.34230842 22,4.9922331 L22,19.0077904 C22,20.6576916 20.6576916,22 19.0077669,22 L4.9922331,22 Z M15.6172985,13.3779135 C15.7181468,13.2790925 15.7742674,13.1526654 15.7742674,13.0131848 C15.7742674,12.8737042 15.7181468,12.7472772 15.6172958,12.6484535 L15.268148,12.3064082 C15.1686167,12.2086977 15.0426478,12.1550339 14.9043824,12.1550339 C14.766117,12.1550339 14.640148,12.2086977 14.5404006,12.3066201 L11.796716,14.9951517 L12.2031094,14.9951485 L9.45914844,12.3064299 C9.35962773,12.20873 9.23358311,12.1550339 9.09544624,12.1550339 C8.95719149,12.1550339 8.83112966,12.2086943 8.73137877,12.3066201 L8.38259303,12.6484784 C8.28175224,12.7471103 8.22573261,12.8736591 8.22573261,13.0131848 C8.22573261,13.152636 8.28175952,13.2790847 8.38261849,13.3779162 L11.6361232,16.5660199 C11.7358482,16.6637403 11.8618215,16.7173351 11.9999143,16.7173351 C12.1379145,16.7173351 12.2638132,16.6638921 12.3636003,16.5662907 L15.6172985,13.3779135 Z M15.6172985,8.4160256 C15.7181468,8.31720459 15.7742674,8.19077751 15.7742674,8.05129692 C15.7742674,7.91181632 15.7181468,7.78538924 15.6172958,7.68656555 L15.268148,7.34452022 C15.1686167,7.2468098 15.0426478,7.19314594 14.9043824,7.19314594 C14.766117,7.19314594 14.640148,7.2468098 14.5404006,7.34473215 L11.796716,10.0332638 L12.2031094,10.0332606 L9.45914844,7.34454199 C9.35962773,7.24684204 9.23358311,7.19314594 9.09544624,7.19314594 C8.95719149,7.19314594 8.83112966,7.24680641 8.73137877,7.34473215 L8.38259303,7.68659049 C8.28175224,7.78522236 8.22573261,7.91177121 8.22573261,8.05129692 C8.22573261,8.1907481 8.28175952,8.31719675 8.38261849,8.41602828 L11.6361232,11.6041319 C11.7358482,11.7018523 11.8618215,11.7554472 11.9999143,11.7554472 C12.1379145,11.7554472 12.2638132,11.7020042 12.3636003,11.6044027 L15.6172985,8.4160256 Z" id="path-1"></path>
    </defs>
    <g id="-fullpage" stroke="none" stroke-width="1" fill="none" fill-rule="evenodd">
        <mask id="mask-2" fill="white">
            <use xlink:href="#path-1"></use>
        </mask>
        <use id="capture_full_page" fill="#000000" fill-rule="nonzero" xlink:href="#path-1"></use>
    </g>
</svg>