<svg width="24" height="24" viewBox="0 0 24 24" fill="none" xmlns="http://www.w3.org/2000/svg">
<path fill-rule="evenodd" clip-rule="evenodd" d="M21.6225 10.112L19.2398 9.74742C19.1095 9.33077 18.9315 8.90549 18.7058 8.47142C18.8619 8.25438 19.0962 7.94849 19.4087 7.55342C19.7211 7.15834 19.9425 6.86987 20.0727 6.68751C20.1423 6.59194 20.1768 6.49221 20.1768 6.38801C20.1768 6.26655 20.1466 6.17113 20.0857 6.10161C19.7732 5.65875 19.0571 4.92103 17.9372 3.88795C17.8333 3.80117 17.7247 3.75786 17.612 3.75786C17.4817 3.75786 17.3775 3.79685 17.2994 3.87485L15.4506 5.26815C15.0945 5.0858 14.7039 4.92518 14.2786 4.7863L13.9141 2.3906C13.9055 2.27777 13.8554 2.18443 13.7643 2.1106C13.6731 2.03676 13.567 2 13.4452 2H10.5547C10.303 2 10.1467 2.12146 10.0859 2.36455C9.97309 2.79846 9.84715 3.60571 9.70826 4.7863C9.30025 4.91671 8.90533 5.08164 8.52336 5.28126L6.72651 3.88795C6.61368 3.80117 6.50084 3.75786 6.38801 3.75786C6.19703 3.75786 5.78693 4.06807 5.15756 4.68881C4.52819 5.30955 4.10083 5.77606 3.875 6.08851C3.79685 6.20134 3.75786 6.30123 3.75786 6.38801C3.75786 6.49221 3.80117 6.59642 3.88795 6.70046C4.46953 7.40366 4.93397 8.00251 5.28126 8.49747C5.06422 8.8967 4.89497 9.29609 4.77351 9.69532L2.3516 10.0599C2.25619 10.0773 2.17372 10.1337 2.1042 10.2293C2.03468 10.3247 2 10.4246 2 10.5286V13.4193C2 13.5323 2.03468 13.6341 2.1042 13.7252C2.17372 13.8164 2.26482 13.8709 2.37765 13.8882L4.76057 14.2398C4.88203 14.6651 5.05991 15.0947 5.29436 15.5286C5.13822 15.7456 4.90376 16.0515 4.59132 16.4466C4.27887 16.8417 4.05736 17.1301 3.92727 17.3125C3.85774 17.4082 3.82306 17.5078 3.82306 17.612C3.82306 17.7248 3.85343 17.8245 3.91416 17.9113C4.25266 18.3802 4.96881 19.1095 6.06262 20.0989C6.15819 20.1945 6.26671 20.2421 6.38817 20.2421C6.51842 20.2421 6.62694 20.2031 6.71372 20.1252L8.54973 18.7317C8.90581 18.914 9.29641 19.0747 9.72169 19.2137L10.0862 21.6094C10.095 21.7222 10.1449 21.8156 10.236 21.8894C10.3271 21.9634 10.4335 22 10.555 22H13.4456C13.6977 22 13.8538 21.8785 13.9147 21.6355C14.0274 21.2014 14.1532 20.3943 14.2921 19.2137C14.7001 19.0835 15.0951 18.9184 15.477 18.7187L17.274 20.1252C17.3954 20.2031 17.5084 20.2421 17.6125 20.2421C17.8033 20.2421 18.2113 19.9342 18.8362 19.3177C19.4614 18.7015 19.891 18.2326 20.1252 17.9113C20.2033 17.8245 20.2425 17.7248 20.2425 17.612C20.2425 17.4992 20.1992 17.3903 20.1122 17.2864C19.4873 16.5225 19.0229 15.9237 18.7189 15.4896C18.8925 15.1683 19.0619 14.7734 19.2268 14.3047L21.6356 13.9403C21.7397 13.9229 21.8268 13.8663 21.8961 13.7707C21.9655 13.6751 22 13.5753 22 13.4712V10.5807C22.0002 10.4679 21.9656 10.3661 21.896 10.2748C21.8263 10.1836 21.7353 10.1292 21.6225 10.112ZM15.5353 15.535C14.5589 16.5117 13.3804 17 12 17C10.6196 17 9.44139 16.5117 8.46474 15.535C7.48833 14.5586 7 13.3804 7 12C7 10.6196 7.48809 9.44139 8.46474 8.46474C9.44139 7.48833 10.6199 7 12 7C13.3804 7 14.5589 7.48833 15.5353 8.46474C16.5117 9.44139 17 10.6196 17 12C17 13.3804 16.5117 14.5586 15.5353 15.535Z" fill="black"/>
</svg>
