<svg width="24" height="24" viewBox="0 0 24 24" fill="none" xmlns="http://www.w3.org/2000/svg">
<path d="M11.06 22.155C10.27 22.155 9.65999 21.675 9.47999 20.905L9.08999 19.235L8.93999 19.185L7.48999 20.085C7.21999 20.255 6.92999 20.345 6.62999 20.345C6.20999 20.345 5.79999 20.165 5.46999 19.845L4.16999 18.545C3.59999 17.975 3.49999 17.185 3.92999 16.535L4.82999 15.085L4.77999 14.945L3.10999 14.555C2.34999 14.365 1.85999 13.745 1.85999 12.965V11.115C1.85999 10.335 2.34999 9.71497 3.10999 9.52497L4.75999 9.12497L4.81999 8.96497L3.90999 7.51497C3.48999 6.86497 3.58999 6.07497 4.14999 5.49497L5.44999 4.18497C5.76999 3.86497 6.17999 3.68497 6.59999 3.68497C6.88999 3.68497 7.18999 3.77497 7.45999 3.93497L8.90999 4.83497L9.07999 4.76497L9.46999 3.09497C9.65999 2.32497 10.26 1.84497 11.06 1.84497H12.95C13.74 1.84497 14.35 2.32497 14.53 3.09497L14.91 4.76497L15.08 4.83497L16.54 3.93497C16.81 3.77497 17.1 3.68497 17.39 3.68497C17.81 3.68497 18.22 3.86497 18.54 4.18497L19.85 5.49497C20.42 6.07497 20.52 6.84497 20.09 7.50497L19.18 8.95497L19.24 9.11497L20.89 9.51497C21.65 9.69497 22.14 10.325 22.14 11.105V12.955C22.14 13.735 21.65 14.355 20.89 14.545L19.22 14.935L19.17 15.075L20.08 16.525C20.5 17.175 20.4 17.965 19.83 18.535L18.52 19.835C18.2 20.155 17.79 20.335 17.37 20.335C17.08 20.335 16.78 20.245 16.51 20.075L15.05 19.175L14.9 19.225L14.52 20.895C14.35 21.675 13.74 22.155 12.95 22.155H11.06ZM8.95999 17.265C9.35999 17.515 9.87999 17.735 10.42 17.865L10.51 17.885L11.09 20.295C11.1 20.375 11.12 20.395 11.22 20.395H12.81C12.91 20.395 12.92 20.365 12.92 20.315L13.52 17.885L13.61 17.865C14.14 17.735 14.65 17.525 15.06 17.265L15.14 17.215L17.26 18.515C17.29 18.525 17.31 18.525 17.34 18.525C17.39 18.525 17.42 18.505 17.44 18.485L18.53 17.385C18.58 17.345 18.6 17.315 18.54 17.215L17.24 15.125L17.28 15.045C17.42 14.795 17.69 14.265 17.87 13.585L17.89 13.495L20.31 12.925C20.38 12.915 20.41 12.895 20.41 12.795V11.235C20.41 11.135 20.39 11.125 20.32 11.115L17.91 10.535L17.89 10.445C17.75 9.88497 17.5 9.36497 17.3 8.97497L17.26 8.89497L18.55 6.80497C18.61 6.70497 18.59 6.67497 18.54 6.62497L17.44 5.54497C17.38 5.48497 17.36 5.48497 17.35 5.48497L15.16 6.79497L15.07 6.75497C14.73 6.57497 14.22 6.31497 13.6 6.16497L13.51 6.14497L12.92 3.71497C12.91 3.63497 12.9 3.61497 12.8 3.61497H11.21C11.11 3.61497 11.1 3.64497 11.09 3.70497L10.52 6.11497L10.44 6.13497C9.90999 6.28497 9.34999 6.51497 8.93999 6.73497L8.85999 6.77497L6.76999 5.50497C6.72999 5.49497 6.69999 5.48497 6.67999 5.48497C6.64999 5.48497 6.62999 5.49497 6.59999 5.52497L5.48999 6.61497C5.43999 6.66497 5.42999 6.70497 5.48999 6.79497L6.77999 8.88497L6.73999 8.95497C6.53999 9.36497 6.28999 9.87497 6.14999 10.435L6.12999 10.525L3.72999 11.105C3.64999 11.125 3.62999 11.125 3.62999 11.235V12.795C3.62999 12.895 3.64999 12.905 3.71999 12.915L6.12999 13.485L6.14999 13.575C6.30999 14.175 6.55999 14.695 6.73999 15.035L6.77999 15.115L5.47999 17.205C5.43999 17.285 5.44999 17.315 5.49999 17.365L6.59999 18.465C6.63999 18.505 6.66999 18.525 6.69999 18.525L8.87999 17.195L8.95999 17.265ZM12.01 15.725C9.95999 15.725 8.28999 14.055 8.28999 12.005C8.28999 9.96497 9.95999 8.29497 12.01 8.29497C14.06 8.29497 15.72 9.95497 15.72 12.005C15.72 14.055 14.05 15.725 12.01 15.725ZM12.01 10.045C10.93 10.045 10.05 10.925 10.05 12.005C10.05 13.095 10.93 13.975 12.01 13.975C13.06 13.975 13.95 13.075 13.95 12.005C13.95 10.945 13.06 10.045 12.01 10.045Z" fill="black"/>
</svg>
