<?xml version="1.0" encoding="UTF-8"?>
<svg width="24px" height="24px" viewBox="0 0 24 24" version="1.1" xmlns="http://www.w3.org/2000/svg" xmlns:xlink="http://www.w3.org/1999/xlink">
    <!-- Generator: Sketch 52.5 (67469) - http://www.bohemiancoding.com/sketch -->
    <title> gif</title>
    <desc>Created with Sketch.</desc>
    <defs>
        <path d="M9,15.7426471 C8.68163341,16.1557507 8.24035976,16.4685818 7.6761658,16.6811497 C7.11197185,16.8937176 6.47121832,17 5.75388601,17 C5.01640391,17 4.3635607,16.8335578 3.79533679,16.5006684 C3.22711288,16.1677791 2.78886165,15.6915138 2.48056995,15.0718583 C2.17227825,14.4522028 2.01208987,13.7292822 2,12.9030749 L2,12.217246 C2,10.89371 2.31836181,9.85996361 2.95509499,9.11597594 C3.59182817,8.37198826 4.48042032,8 5.6208981,8 C6.60017761,8 7.37794761,8.2406393 7.95423143,8.72192513 C8.53051526,9.20321096 8.87708635,10.0641388 8.99395509,10.9705605 L7.49481865,10.9705605 C7.32556047,9.91574236 6.67365685,9.41789137 5.6137782,9.41789137 C5.57533502,9.41789137 5.53740895,9.41866488 5.5,9.42021188 C4.87074724,9.44623393 4.47351203,9.6199074 4.13687392,10.0836506 C3.94178677,10.3523971 3.74988858,10.5644135 3.65789692,10.9705605 C3.5817128,11.3069165 3.54088262,11.6903921 3.53540587,12.1209893 L3.53540587,12.7947861 C3.53540587,13.7413149 3.73589322,14.2915541 4.13687392,14.8149524 C4.53785462,15.3383508 5.0949878,15.600046 5.80829016,15.600046 C6.59010178,15.600046 7.14622748,15.4235772 7.47668394,15.0706342 L7.47668394,13.4156741 L5.66321244,13.4156741 L5.66321244,11.9968168 L9,11.9968168 L9,15.7426471 Z M13,17 L11,17 L11,8 L13,8 L13,17 Z M22,13.3852641 L17.0079155,13.3852641 L17.0079155,17 L15,17 L15,8 L22,8 L22,9.43949063 L17.0079155,9.43949063 L17.0079155,11.979158 L22,11.979158 L22,13.3852641 Z M22,18 L22,18.7678049 C22,20.2613856 21.2475455,22 18.6302392,22 L4.99420208,22 C4.01220752,22 2,21.3503774 2,18.7678049 L2,18 L4.00917004,18 L4.00917004,18.7678049 C4.00917004,19.4039379 4.65751817,20 5.60461032,20 L18.6302392,20 C19.4538699,20 19.9986018,19.2857143 19.9986018,18.7678049 L19.9986018,18 L22,18 Z M22,4.99420208 L22,6 L20,6 L20,5.41462247 C20,4.54425368 19.2654218,4 18.6562356,4 L5.3147583,4 C4.72842407,4 4.01220752,4.61662292 4.01220752,5.25154114 L4.01220752,6 L2,6 L2,4.99420208 C2,3.34054993 3.34331197,2 4.99420208,2 L19.0057979,2 C20.6594501,2 22,3.34331197 22,4.99420208 Z" id="path-1"></path>
    </defs>
    <g id="-gif" stroke="none" stroke-width="1" fill="none" fill-rule="evenodd">
        <mask id="mask-2" fill="white">
            <use xlink:href="#path-1"></use>
        </mask>
        <use id="GIF-Copy-3" fill="#000000" xlink:href="#path-1"></use>
    </g>
</svg>