<?xml version="1.0" encoding="UTF-8"?>
<svg width="24px" height="24px" viewBox="0 0 24 24" version="1.1" xmlns="http://www.w3.org/2000/svg" xmlns:xlink="http://www.w3.org/1999/xlink">
    <!-- Generator: Sketch 52.6 (67491) - http://www.bohemiancoding.com/sketch -->
    <title>github</title>
    <desc>Created with Sketch.</desc>
    <defs>
        <path d="M12,2 C6.47753906,2 2,6.5907307 2,12.2527988 C2,16.7834545 4.865,20.6257509 8.83898437,21.9811829 C9.33886719,22.0750601 9.52136719,21.7584048 9.52136719,21.4880673 C9.52136719,21.2440027 9.51220703,20.4355134 9.50732422,19.5794448 C6.7265625,20.1989581 6.13878906,18.3704355 6.13878906,18.3704355 C5.68347656,17.1864576 5.02855469,16.8710639 5.02855469,16.8710639 C4.11974609,16.2352702 5.0975,16.2477858 5.0975,16.2477858 C6.10152344,16.3191148 6.63011719,17.3041044 6.63011719,17.3041044 C7.52246094,18.8710605 8.97142578,18.4179949 9.54027344,18.1551668 C9.63117187,17.4943419 9.88996094,17.0412763 10.1750391,16.7859576 C7.95519531,16.5268942 5.62,15.6470359 5.62,11.7183716 C5.62,10.5982133 6.01001953,9.68459283 6.6484375,8.96681682 C6.54650391,8.70649185 6.20226562,7.66330962 6.74730469,6.25218809 C6.74730469,6.25218809 7.5859375,5.97684438 9.49753906,7.30350047 C10.2946484,7.07509534 11.1497656,6.96245473 11.9999805,6.95869003 C12.8495898,6.96245473 13.705293,7.07633689 14.5036523,7.30474202 C16.4116211,5.97684438 17.2514648,6.25342964 17.2514648,6.25342964 C17.7983398,7.66581275 17.4541016,8.7077334 17.3515625,8.96681682 C17.9924219,9.68459283 18.3793945,10.5982333 18.3793945,11.7183716 C18.3793945,15.6570484 16.0405273,16.5243711 13.8127539,16.7784482 C14.1728711,17.0963451 14.4914648,17.7196231 14.4914648,18.6758168 C14.4914648,20.0462875 14.4780273,21.1514071 14.4780273,21.4893289 C14.4780273,21.7621695 14.6599023,22.0813079 15.1665039,21.9811829 C19.1374609,20.6232478 22,16.7809514 22,12.2527988 C22,6.5907307 17.5224609,2 12,2 Z" id="path-1"></path>
    </defs>
    <g id="github" stroke="none" stroke-width="1" fill="none" fill-rule="evenodd">
        <mask id="mask-2" fill="white">
            <use xlink:href="#path-1"></use>
        </mask>
        <use id="Mask" fill="#000000" xlink:href="#path-1"></use>
    </g>
</svg>