<svg width="24" height="24" viewBox="0 0 24 24" fill="none" xmlns="http://www.w3.org/2000/svg">
<path fill-rule="evenodd" clip-rule="evenodd" d="M12 2C6.47754 2 2 6.59073 2 12.2528C2 16.7835 4.865 20.6257 8.83898 21.9812C9.33887 22.0751 9.52137 21.7584 9.52137 21.4881C9.52137 21.244 9.51221 20.4355 9.50732 19.5794C6.72656 20.199 6.13879 18.3704 6.13879 18.3704C5.68348 17.1865 5.02855 16.8711 5.02855 16.8711C4.11975 16.2353 5.0975 16.2478 5.0975 16.2478C6.10152 16.3191 6.63012 17.3041 6.63012 17.3041C7.52246 18.8711 8.97143 18.418 9.54027 18.1552C9.63117 17.4943 9.88996 17.0413 10.175 16.786C7.9552 16.5269 5.62 15.647 5.62 11.7184C5.62 10.5982 6.01002 9.68459 6.64844 8.96682C6.5465 8.70649 6.20227 7.66331 6.7473 6.25219C6.7473 6.25219 7.58594 5.97684 9.49754 7.3035C10.2946 7.0751 11.1498 6.96245 12 6.95869C12.8496 6.96245 13.7053 7.07634 14.5037 7.30474C16.4116 5.97684 17.2515 6.25343 17.2515 6.25343C17.7983 7.66581 17.4541 8.70773 17.3516 8.96682C17.9924 9.68459 18.3794 10.5982 18.3794 11.7184C18.3794 15.657 16.0405 16.5244 13.8128 16.7784C14.1729 17.0963 14.4915 17.7196 14.4915 18.6758C14.4915 20.0463 14.478 21.1514 14.478 21.4893C14.478 21.7622 14.6599 22.0813 15.1665 21.9812C19.1375 20.6232 22 16.781 22 12.2528C22 6.59073 17.5225 2 12 2Z" fill="black"/>
</svg>
