<?xml version="1.0" encoding="UTF-8"?>
<svg width="24px" height="24px" viewBox="0 0 24 24" version="1.1" xmlns="http://www.w3.org/2000/svg" xmlns:xlink="http://www.w3.org/1999/xlink">
    <!-- Generator: Sketch 52.6 (67491) - http://www.bohemiancoding.com/sketch -->
    <title>grid-9</title>
    <desc>Created with Sketch.</desc>
    <defs>
        <path d="M16.5,3.99869585 C16.5,3.44713136 16.9479289,3 17.4986959,3 L20.0013041,3 C20.5528686,3 21,3.44792891 21,3.99869585 L21,6.50130415 C21,7.05286864 20.5573634,7.5 20.0010537,7.5 L19.0915375,7.5 L17.4945444,7.5 C16.9452727,7.5 16.5,7.05207109 16.5,6.50130415 L16.5,3.99869585 Z M9.75,3.99869585 C9.75,3.44713136 10.1979289,3 10.7486959,3 L13.2513041,3 C13.8028686,3 14.25,3.44792891 14.25,3.99869585 L14.25,6.50130415 C14.25,7.05286864 13.8073634,7.5 13.2510537,7.5 L12.3415375,7.5 L10.7445444,7.5 C10.1952727,7.5 9.75,7.05207109 9.75,6.50130415 L9.75,3.99869585 Z M3,3.99869585 C3,3.44713136 3.44792891,3 3.99869585,3 L6.50130415,3 C7.05286864,3 7.5,3.44792891 7.5,3.99869585 L7.5,6.50130415 C7.5,7.05286864 7.05736343,7.5 6.50105371,7.5 L5.59153748,7.5 L3.99454442,7.5 C3.44527271,7.5 3,7.05207109 3,6.50130415 L3,3.99869585 Z M16.5,10.7486959 C16.5,10.1971314 16.9479289,9.75 17.4986959,9.75 L20.0013041,9.75 C20.5528686,9.75 21,10.1979289 21,10.7486959 L21,13.2513041 C21,13.8028686 20.5573634,14.25 20.0010537,14.25 L19.0915375,14.25 L17.4945444,14.25 C16.9452727,14.25 16.5,13.8020711 16.5,13.2513041 L16.5,10.7486959 Z M9.75,10.7486959 C9.75,10.1971314 10.1979289,9.75 10.7486959,9.75 L13.2513041,9.75 C13.8028686,9.75 14.25,10.1979289 14.25,10.7486959 L14.25,13.2513041 C14.25,13.8028686 13.8073634,14.25 13.2510537,14.25 L12.3415375,14.25 L10.7445444,14.25 C10.1952727,14.25 9.75,13.8020711 9.75,13.2513041 L9.75,10.7486959 Z M3,10.7486959 C3,10.1971314 3.44792891,9.75 3.99869585,9.75 L6.50130415,9.75 C7.05286864,9.75 7.5,10.1979289 7.5,10.7486959 L7.5,13.2513041 C7.5,13.8028686 7.05736343,14.25 6.50105371,14.25 L5.59153748,14.25 L3.99454442,14.25 C3.44527271,14.25 3,13.8020711 3,13.2513041 L3,10.7486959 Z M16.5,17.4986959 C16.5,16.9471314 16.9479289,16.5 17.4986959,16.5 L20.0013041,16.5 C20.5528686,16.5 21,16.9479289 21,17.4986959 L21,20.0013041 C21,20.5528686 20.5573634,21 20.0010537,21 L19.0915375,21 L17.4945444,21 C16.9452727,21 16.5,20.5520711 16.5,20.0013041 L16.5,17.4986959 Z M9.75,17.4986959 C9.75,16.9471314 10.1979289,16.5 10.7486959,16.5 L13.2513041,16.5 C13.8028686,16.5 14.25,16.9479289 14.25,17.4986959 L14.25,20.0013041 C14.25,20.5528686 13.8073634,21 13.2510537,21 L12.3415375,21 L10.7445444,21 C10.1952727,21 9.75,20.5520711 9.75,20.0013041 L9.75,17.4986959 Z M3,17.4986959 C3,16.9471314 3.44792891,16.5 3.99869585,16.5 L6.50130415,16.5 C7.05286864,16.5 7.5,16.9479289 7.5,17.4986959 L7.5,20.0013041 C7.5,20.5528686 7.05736343,21 6.50105371,21 L5.59153748,21 L3.99454442,21 C3.44527271,21 3,20.5520711 3,20.0013041 L3,17.4986959 Z" id="path-1"></path>
    </defs>
    <g id="grid-9" stroke="none" stroke-width="1" fill="none" fill-rule="evenodd">
        <mask id="mask-2" fill="white">
            <use xlink:href="#path-1"></use>
        </mask>
        <use id="view_small" fill="#000000" xlink:href="#path-1"></use>
    </g>
</svg>