<svg width="24" height="24" viewBox="0 0 24 24" fill="none" xmlns="http://www.w3.org/2000/svg">
<path d="M4 3C3.44772 3 3 3.44772 3 4V6.5C3 7.05228 3.44772 7.5 4 7.5H6.5C7.05228 7.5 7.5 7.05228 7.5 6.5V4C7.5 3.44772 7.05228 3 6.5 3H4Z" fill="black"/>
<path d="M9.75 4C9.75 3.44772 10.1977 3 10.75 3H13.25C13.8023 3 14.25 3.44772 14.25 4V6.5C14.25 7.05228 13.8023 7.5 13.25 7.5H10.75C10.1977 7.5 9.75 7.05228 9.75 6.5V4Z" fill="black"/>
<path d="M16.5 4C16.5 3.44772 16.9477 3 17.5 3H20C20.5523 3 21 3.44772 21 4V6.5C21 7.05228 20.5523 7.5 20 7.5H17.5C16.9477 7.5 16.5 7.05228 16.5 6.5V4Z" fill="black"/>
<path d="M16.5 10.75C16.5 10.1977 16.9477 9.75 17.5 9.75H20C20.5523 9.75 21 10.1977 21 10.75V13.25C21 13.8023 20.5523 14.25 20 14.25H17.5C16.9477 14.25 16.5 13.8023 16.5 13.25V10.75Z" fill="black"/>
<path d="M10.75 9.75C10.1977 9.75 9.75 10.1977 9.75 10.75V13.25C9.75 13.8023 10.1977 14.25 10.75 14.25H13.25C13.8023 14.25 14.25 13.8023 14.25 13.25V10.75C14.25 10.1977 13.8023 9.75 13.25 9.75H10.75Z" fill="black"/>
<path d="M3 10.75C3 10.1977 3.44772 9.75 4 9.75H6.5C7.05228 9.75 7.5 10.1977 7.5 10.75V13.25C7.5 13.8023 7.05228 14.25 6.5 14.25H4C3.44772 14.25 3 13.8023 3 13.25V10.75Z" fill="black"/>
<path d="M17.5 16.5C16.9477 16.5 16.5 16.9477 16.5 17.5V20C16.5 20.5523 16.9477 21 17.5 21H20C20.5523 21 21 20.5523 21 20V17.5C21 16.9477 20.5523 16.5 20 16.5H17.5Z" fill="black"/>
<path d="M9.75 17.5C9.75 16.9477 10.1977 16.5 10.75 16.5H13.25C13.8023 16.5 14.25 16.9477 14.25 17.5V20C14.25 20.5523 13.8023 21 13.25 21H10.75C10.1977 21 9.75 20.5523 9.75 20V17.5Z" fill="black"/>
<path d="M4 16.5C3.44772 16.5 3 16.9477 3 17.5V20C3 20.5523 3.44772 21 4 21H6.5C7.05228 21 7.5 20.5523 7.5 20V17.5C7.5 16.9477 7.05228 16.5 6.5 16.5H4Z" fill="black"/>
</svg>
