<svg width="24" height="24" viewBox="0 0 24 24" fill="none" xmlns="http://www.w3.org/2000/svg">
<path fill-rule="evenodd" clip-rule="evenodd" d="M21 10.2941H15.6555L19.7008 18.3534C19.6991 18.3604 19.6956 18.3674 19.6938 18.3762L19.685 18.399C19.6815 18.4078 19.6779 18.4165 19.6762 18.4236L19.6709 18.4394L19.6586 18.4674C19.6586 18.4674 19.6515 18.485 19.6498 18.4902C19.6463 18.499 19.6427 18.506 19.6392 18.5148L19.6304 18.5359C19.6251 18.5482 19.6199 18.5587 19.6146 18.571C19.6111 18.578 19.5987 18.6026 19.5987 18.6026C19.597 18.6078 19.5934 18.6131 19.5917 18.6166L19.5811 18.6359L19.5794 18.6377L19.5688 18.6587C19.5653 18.6658 19.56 18.6745 19.5565 18.6816C19.553 18.6868 19.5494 18.6938 19.5459 18.6991C19.5459 18.6991 19.5354 18.7167 19.5336 18.7202L19.5195 18.743C19.5107 18.757 19.5037 18.7693 19.4966 18.7798L19.4843 18.7991L19.4755 18.8114L19.4579 18.8395C19.4544 18.8465 19.4491 18.8535 19.4438 18.8588C19.4438 18.8588 19.435 18.8711 19.4315 18.8764C19.4262 18.8834 19.4209 18.8904 19.4174 18.8974L19.4051 18.915C19.2502 19.1256 19.0583 19.3064 18.8382 19.4503L16.2663 14.3272L5.58425 19.6626L5.58073 19.6609C5.57369 19.6591 5.56665 19.6556 5.55961 19.6521C5.55257 19.6486 5.54553 19.6468 5.53848 19.6433C5.52968 19.6398 5.52264 19.6363 5.5156 19.6328L5.49623 19.624C5.48743 19.6205 5.47863 19.617 5.47159 19.6135L5.45046 19.6047C5.43814 19.5995 5.42582 19.5924 5.4135 19.5872L5.38709 19.5749C5.38181 19.5714 5.37477 19.5696 5.36773 19.5661C5.36244 19.5644 5.35012 19.5573 5.35012 19.5573C5.35012 19.5573 5.33252 19.5486 5.32548 19.545C5.31844 19.5415 5.31139 19.538 5.30435 19.5345C5.29731 19.531 5.29027 19.5275 5.28323 19.5222L5.2621 19.5099L5.23922 19.4959C5.22866 19.4889 5.21633 19.4819 5.20401 19.4748L5.18289 19.4626L5.16704 19.452L5.1424 19.4362C5.13535 19.431 5.12831 19.4275 5.12127 19.4222C5.11599 19.4187 5.10191 19.4082 5.10191 19.4082C5.09487 19.4029 5.08958 19.3994 5.08254 19.3959L5.06494 19.3818C4.85545 19.2291 4.67589 19.0396 4.5333 18.8237L9.65252 16.2666L4.29917 5.62559C4.45408 5.1798 4.75335 4.79895 5.14064 4.54095L7.70024 9.62715L20.9525 3H6.36939C4.50866 3 3 4.5041 3 6.3592V17.6408C3 19.4959 4.50866 21 6.36939 21H17.6306C19.4913 21 21 19.4959 21 17.6408V10.2941Z" fill="black"/>
</svg>
