<?xml version="1.0" encoding="UTF-8"?>
<svg width="24px" height="24px" viewBox="0 0 24 24" version="1.1" xmlns="http://www.w3.org/2000/svg" xmlns:xlink="http://www.w3.org/1999/xlink">
    <!-- Generator: Sketch 52.5 (67469) - http://www.bohemiancoding.com/sketch -->
    <title>/ gyazo</title>
    <desc>Created with Sketch.</desc>
    <defs>
        <path d="M22,10.1045242 L16.0616137,10.1045242 L20.5564792,19.0592824 C20.5545232,19.0670827 20.5506112,19.074883 20.5486553,19.0846334 L20.5388753,19.1099844 C20.5349633,19.1197348 20.5310513,19.1294852 20.5290954,19.1372855 L20.5232274,19.1548362 L20.5095355,19.1860374 C20.5095355,19.1860374 20.5017115,19.2055382 20.4997555,19.2113885 C20.4958435,19.2211388 20.4919315,19.2289392 20.4880196,19.2386895 L20.4782396,19.2620905 C20.4723716,19.275741 20.4665037,19.2874415 20.4606357,19.301092 C20.4567237,19.3088924 20.4430318,19.3361934 20.4430318,19.3361934 C20.4410758,19.3420437 20.4371638,19.3478939 20.4352078,19.3517941 L20.4234719,19.3732449 L20.4215159,19.375195 L20.40978,19.3985959 C20.405868,19.4063963 20.4,19.4161466 20.396088,19.423947 C20.392176,19.4297972 20.3882641,19.4375975 20.3843521,19.4434477 C20.3843521,19.4434477 20.3726161,19.4629485 20.3706601,19.4668487 L20.3550122,19.4921997 C20.3452323,19.5078003 20.3374083,19.5214509 20.3295844,19.5331513 L20.3158924,19.5546022 L20.3061125,19.5682527 L20.2865526,19.599454 C20.2826406,19.6072543 20.2767726,19.6150546 20.2709046,19.6209048 C20.2709046,19.6209048 20.2611247,19.6345554 20.2572127,19.6404056 C20.2513447,19.6482059 20.2454768,19.6560062 20.2415648,19.6638066 L20.2278729,19.6833073 C20.0557457,19.9173167 19.8425428,20.1181747 19.598044,20.2780811 L16.7403423,14.5858034 L4.87139364,20.5140406 L4.86748166,20.5120905 C4.8596577,20.5101404 4.85183374,20.5062402 4.84400978,20.5023401 C4.83618582,20.4984399 4.82836186,20.4964899 4.8205379,20.4925897 C4.81075795,20.4886895 4.80293399,20.4847894 4.79511002,20.4808892 L4.77359413,20.4711388 C4.76381418,20.4672387 4.75403423,20.4633385 4.74621027,20.4594384 L4.72273839,20.449688 C4.70904645,20.4438378 4.69535452,20.4360374 4.68166259,20.4301872 L4.65232274,20.4165367 C4.64645477,20.4126365 4.63863081,20.4106864 4.63080685,20.4067863 C4.62493888,20.4048362 4.61124694,20.3970359 4.61124694,20.3970359 C4.61124694,20.3970359 4.59168704,20.3872855 4.58386308,20.3833853 C4.57603912,20.3794852 4.56821516,20.375585 4.5603912,20.3716849 C4.55256724,20.3677847 4.54474328,20.3638846 4.53691932,20.3580343 L4.51344743,20.3443838 L4.48801956,20.3287832 C4.47628362,20.3209828 4.46259169,20.3131825 4.44889976,20.3053822 L4.42542787,20.2917317 L4.40782396,20.2800312 L4.3804401,20.2624805 C4.37261614,20.2566303 4.36479218,20.2527301 4.35696822,20.2468799 C4.35110024,20.2429797 4.33545232,20.2312793 4.33545232,20.2312793 C4.32762836,20.225429 4.32176039,20.2215289 4.31393643,20.2176287 L4.29437653,20.2020281 C4.06161369,20.0323713 3.86210269,19.8217629 3.70366748,19.5819033 L9.39168704,16.7406396 L3.44352078,4.91731669 C3.61564792,4.42199688 3.94816626,3.99882995 4.37848411,3.71216849 L7.22249389,9.36349454 L21.9471883,2 L5.74376528,2 C3.67628362,2 2,3.67121685 2,5.7324493 L2,18.2675507 C2,20.3287832 3.67628362,22 5.74376528,22 L18.2562347,22 C20.3237164,22 22,20.3287832 22,18.2675507 L22,10.1045242 L22,10.1045242 Z" id="path-1"></path>
    </defs>
    <g id="/-gyazo" stroke="none" stroke-width="1" fill="none" fill-rule="evenodd">
        <mask id="mask-2" fill="white">
            <use xlink:href="#path-1"></use>
        </mask>
        <use id="Shape" fill="#000000" xlink:href="#path-1"></use>
    </g>
</svg>