<?xml version="1.0" encoding="UTF-8"?>
<svg width="24px" height="24px" viewBox="0 0 24 24" version="1.1" xmlns="http://www.w3.org/2000/svg" xmlns:xlink="http://www.w3.org/1999/xlink">
    <!-- Generator: Sketch 52.6 (67491) - http://www.bohemiancoding.com/sketch -->
    <title>gyazo</title>
    <desc>Created with Sketch.</desc>
    <defs>
        <path d="M21,10.2940718 L15.6554523,10.2940718 L19.7008313,18.3533541 C19.6990709,18.3603744 19.6955501,18.3673947 19.6937897,18.37617 L19.6849878,18.398986 C19.681467,18.4077613 19.6779462,18.4165367 19.6761858,18.4235569 L19.6709046,18.4393526 L19.6585819,18.4674337 C19.6585819,18.4674337 19.6515403,18.4849844 19.64978,18.4902496 C19.6462592,18.499025 19.6427384,18.5060452 19.6392176,18.5148206 L19.6304156,18.5358814 C19.6251345,18.5481669 19.6198533,18.5586973 19.6145721,18.5709828 C19.6110513,18.5780031 19.5987286,18.6025741 19.5987286,18.6025741 C19.5969682,18.6078393 19.5934474,18.6131045 19.591687,18.6166147 L19.5811247,18.6359204 L19.5793643,18.6376755 L19.568802,18.6587363 C19.5652812,18.6657566 19.56,18.674532 19.5564792,18.6815523 C19.5529584,18.6868175 19.5494377,18.6938378 19.5459169,18.699103 C19.5459169,18.699103 19.5353545,18.7166537 19.5335941,18.7201638 L19.519511,18.7429797 C19.510709,18.7570203 19.5036675,18.7693058 19.4966259,18.7798362 L19.4843032,18.799142 L19.4755012,18.8114275 L19.4578973,18.8395086 C19.4543765,18.8465289 19.4490954,18.8535491 19.4438142,18.8588144 C19.4438142,18.8588144 19.4350122,18.8710998 19.4314914,18.8763651 C19.4262103,18.8833853 19.4209291,18.8904056 19.4174083,18.8974259 L19.4050856,18.9149766 C19.2501711,19.125585 19.0582885,19.3063573 18.8382396,19.450273 L16.2663081,14.3272231 L5.58425428,19.6626365 L5.5807335,19.6608814 C5.57369193,19.6591264 5.56665037,19.6556162 5.5596088,19.6521061 C5.55256724,19.6485959 5.54552567,19.6468409 5.53848411,19.6433307 C5.52968215,19.6398206 5.52264059,19.6363105 5.51559902,19.6328003 L5.49623472,19.624025 C5.48743276,19.6205148 5.47863081,19.6170047 5.47158924,19.6134945 L5.45046455,19.6047192 C5.43814181,19.599454 5.42581907,19.5924337 5.41349633,19.5871685 L5.38709046,19.574883 C5.38180929,19.5713729 5.37476773,19.5696178 5.36772616,19.5661076 C5.36244499,19.5643526 5.35012225,19.5573323 5.35012225,19.5573323 C5.35012225,19.5573323 5.33251834,19.5485569 5.32547677,19.5450468 C5.31843521,19.5415367 5.31139364,19.5380265 5.30435208,19.5345164 C5.29731051,19.5310062 5.29026895,19.5274961 5.28322738,19.5222309 L5.26210269,19.5099454 L5.2392176,19.4959048 C5.22865526,19.4888846 5.21633252,19.4818643 5.20400978,19.474844 L5.18288509,19.4625585 L5.16704156,19.4520281 L5.14239609,19.4362324 C5.13535452,19.4309672 5.12831296,19.4274571 5.12127139,19.4221919 C5.11599022,19.4186817 5.10190709,19.4081513 5.10190709,19.4081513 C5.09486553,19.4028861 5.08958435,19.399376 5.08254279,19.3958658 L5.06493888,19.3818253 C4.85545232,19.2291342 4.67589242,19.0395866 4.53330073,18.8237129 L9.65251834,16.2665757 L4.2991687,5.62558502 C4.45408313,5.17979719 4.75334963,4.79894696 5.1406357,4.54095164 L7.7002445,9.62714509 L20.9524694,3 L6.36938875,3 C4.50865526,3 3,4.50409516 3,6.35920437 L3,17.6407956 C3,19.4959048 4.50865526,21 6.36938875,21 L17.6306112,21 C19.4913447,21 21,19.4959048 21,17.6407956 L21,10.2940718 L21,10.2940718 Z" id="path-1"></path>
    </defs>
    <g id="gyazo" stroke="none" stroke-width="1" fill="none" fill-rule="evenodd">
        <mask id="mask-2" fill="white">
            <use xlink:href="#path-1"></use>
        </mask>
        <use id="Shape" fill="#000000" xlink:href="#path-1"></use>
    </g>
</svg>