<?xml version="1.0" encoding="UTF-8"?>
<svg width="24px" height="24px" viewBox="0 0 24 24" version="1.1" xmlns="http://www.w3.org/2000/svg" xmlns:xlink="http://www.w3.org/1999/xlink">
    <!-- Generator: Sketch 52.5 (67469) - http://www.bohemiancoding.com/sketch -->
    <title>handset</title>
    <desc>Created with Sketch.</desc>
    <defs>
        <path d="M17.2054764,15.230721 C18.0004017,16.0214845 18.7953271,16.8122479 19.5860905,17.6071733 C20.2478347,18.2730793 20.2436728,19.0888143 19.5777667,19.7630441 C19.1282801,20.2166926 18.6496601,20.6495316 18.225145,21.1239897 C17.60502,21.8190291 16.8309042,22.0437724 15.9402549,21.9938294 C14.6459,21.9230769 13.4555929,21.4943999 12.3069049,20.9367036 C9.75565233,19.6964535 7.57480998,17.9775835 5.74773023,15.805065 C4.39510854,14.1985666 3.27971589,12.4464013 2.54721923,10.4736546 C2.18929472,9.52057656 1.93541804,8.54252704 2.01449438,7.50621073 C2.06443733,6.86943806 2.30166637,6.32422748 2.77196252,5.8789028 C3.27971589,5.3961209 3.75833587,4.89252945 4.25776542,4.40142373 C4.90702383,3.76048915 5.72275875,3.76048915 6.37617907,4.39726182 C6.77988462,4.79264354 7.17526634,5.19634909 7.57480998,5.59589272 C7.96186788,5.98711253 8.34892577,6.37000852 8.73598367,6.76122833 C9.41853738,7.44794395 9.41853738,8.24703122 8.74014558,8.92958493 C8.25320178,9.42069065 7.77041988,9.91179637 7.27515225,10.3904164 C7.14613295,10.5194357 7.13364722,10.6234835 7.20023782,10.7816362 C7.52902894,11.5640758 7.99932509,12.2591152 8.52788803,12.9083736 C9.59333772,14.2152143 10.7961305,15.376388 12.2319905,16.2795231 C12.539972,16.4709711 12.8812489,16.6124761 13.2017162,16.7872764 C13.3640308,16.8788385 13.4764024,16.8497051 13.6095836,16.712362 C14.0965275,16.2129325 14.5917951,15.7218267 15.0870627,15.230721 C15.7363211,14.5856245 16.552056,14.5856245 17.2054764,15.230721 Z M16.410551,11.9136765 C16.2232649,10.8232553 15.7113496,9.83272003 14.92891,9.05028041 C14.1006894,8.22205975 13.0518873,7.70182064 11.8990375,7.53950603 L12.1154569,5.99543636 C13.6054217,6.203532 14.9580434,6.87776189 16.027655,7.9473735 C17.0389999,8.96288024 17.7049059,10.2405875 17.9462969,11.651476 L16.410551,11.9136765 Z M18.8119747,5.23796822 C20.4933875,6.92354293 21.5962945,9.0461185 22,11.3851135 L20.4642541,11.647314 C20.1188154,9.6287863 19.1657373,7.79338272 17.7132297,6.34087513 C16.1816458,4.8134531 14.2421944,3.8437274 12.1029712,3.54406968 L12.3193907,2 C14.7957288,2.34543877 17.0389999,3.46499333 18.8119747,5.23796822 Z" id="path-1"></path>
    </defs>
    <g id="handset" stroke="none" stroke-width="1" fill="none" fill-rule="evenodd">
        <mask id="mask-2" fill="white">
            <use xlink:href="#path-1"></use>
        </mask>
        <use id="Combined-Shape" fill="#000000" fill-rule="nonzero" xlink:href="#path-1"></use>
    </g>
</svg>