<?xml version="1.0" encoding="UTF-8"?>
<svg width="24px" height="24px" viewBox="0 0 24 24" version="1.1" xmlns="http://www.w3.org/2000/svg" xmlns:xlink="http://www.w3.org/1999/xlink">
    <!-- Generator: Sketch 52.5 (67469) - http://www.bohemiancoding.com/sketch -->
    <title>/help </title>
    <desc>Created with Sketch.</desc>
    <defs>
        <path d="M4.9922331,22 C3.34233195,22 2,20.6576916 2,19.0077904 L2,4.9922331 C2,3.34230842 3.34233195,2 4.9922331,2 L19.0077669,2 C20.6576916,2 22,3.34230842 22,4.9922331 L22,19.0077904 C22,20.6576916 20.6576916,22 19.0077669,22 L4.9922331,22 Z M5.40850652,4 C4.63186208,4 4,4.63186208 4,5.40850652 L4,18.5915156 C4,19.3681601 4.63186208,20 5.40850652,20 L18.5914935,20 C19.3681379,20 20,19.3681601 20,18.5915156 L20,5.40850652 C20,4.63186208 19.3681379,4 18.5914935,4 L5.40850652,4 Z M12.057377,17.7786885 C11.3360656,17.7786885 10.7295082,17.1721311 10.7295082,16.4508197 C10.7295082,15.7295082 11.3360656,15.1229508 12.057377,15.1229508 C12.7786885,15.1229508 13.3852459,15.7295082 13.3852459,16.4508197 C13.3852459,17.1721311 12.7786885,17.7786885 12.057377,17.7786885 Z M11.2704918,14.2540984 C10.9262295,13.8770492 10.7295082,13.3688525 10.7295082,12.795082 C10.7295082,10.8606557 13.1393443,10.6311475 13.1393443,9.5 C13.1393443,8.99180328 12.7459016,8.56557377 11.8442623,8.56557377 C11.0245902,8.56557377 10.3360656,8.95901639 9.82786885,9.58196721 L8.5,8.09016393 C9.36885246,7.05737705 10.6803279,6.5 12.0901639,6.5 C14.204918,6.5 15.5,7.56557377 15.5,9.09016393 C15.5,11.4836066 12.7622951,11.6639344 12.7622951,13.0409836 C12.7622951,13.3032787 12.8934426,13.5819672 13.0737705,13.7295082 L11.2704918,14.2540984 Z" id="path-1"></path>
    </defs>
    <g id="/help-" stroke="none" stroke-width="1" fill="none" fill-rule="evenodd">
        <mask id="mask-2" fill="white">
            <use xlink:href="#path-1"></use>
        </mask>
        <use id="Combined-Shape" fill="#000000" xlink:href="#path-1"></use>
    </g>
</svg>