<svg width="24" height="24" viewBox="0 0 24 24" fill="none" xmlns="http://www.w3.org/2000/svg">
<path fill-rule="evenodd" clip-rule="evenodd" d="M20 14C20.7942 14 21.2281 13.0737 20.7196 12.4635L12.7682 2.92185C12.3684 2.4421 11.6316 2.4421 11.2318 2.92185L3.28037 12.4635C2.77193 13.0737 3.20579 14 4.00001 14V21C4.00001 21.5523 4.44772 22 5.00001 22H11V18H13V22H19C19.5523 22 20 21.5523 20 21V14ZM20 8.09299V3.99999C20 3.4477 19.5523 2.99999 19 2.99999H18C17.4477 2.99999 17 3.4477 17 3.99999V5.09299L20 8.09299ZM15 20H18V12.818L12 5.82799L6.00001 12.74V20H9.00001V17C9.00001 16.4477 9.44772 16 10 16H14C14.5523 16 15 16.4477 15 17V20Z" fill="black"/>
</svg>
