<svg width="24" height="24" viewBox="0 0 24 24" fill="none" xmlns="http://www.w3.org/2000/svg">
<path fill-rule="evenodd" clip-rule="evenodd" d="M19.9999 14C20.7942 14 21.228 13.0737 20.7196 12.4635L12.7682 2.92183C12.3684 2.44207 11.6315 2.44207 11.2317 2.92183L3.28031 12.4635C2.77187 13.0737 3.20573 14 3.99994 14V21C3.99994 21.5522 4.44766 22 4.99994 22H10.9999V18H12.9999V22H18.9999C19.5522 22 19.9999 21.5522 19.9999 21V14ZM19.9999 8.09296V3.99996C19.9999 3.44768 19.5522 2.99996 18.9999 2.99996H17.9999C17.4477 2.99996 16.9999 3.44768 16.9999 3.99996V5.09296L19.9999 8.09296ZM14.9999 20H17.9999V12.818L11.9999 5.82796L5.99994 12.74V20H8.99994V17C8.99994 16.4477 9.44766 16 9.99994 16H13.9999C14.5522 16 14.9999 16.4477 14.9999 17V20Z" fill="black"/>
</svg>
