<svg width="24" height="24" viewBox="0 0 24 24" fill="none" xmlns="http://www.w3.org/2000/svg">
<path d="M19.9999 14V21C19.9999 21.5522 19.5522 22 18.9999 22H12.9999V18H10.9999V22H4.99994C4.44766 22 3.99994 21.5522 3.99994 21V14C3.20573 14 2.77187 13.0737 3.28031 12.4635L11.2317 2.92183C11.6315 2.44207 12.3684 2.44207 12.7682 2.92183L20.7196 12.4635C21.228 13.0737 20.7942 14 19.9999 14ZM19.9999 8.09296L16.9999 5.09296V3.99996C16.9999 3.44768 17.4477 2.99996 17.9999 2.99996H18.9999C19.5522 2.99996 19.9999 3.44768 19.9999 3.99996V8.09296ZM14.9999 20H17.9999V12.818L11.9999 5.82796L5.99994 12.74V20H8.99994V17C8.99994 16.4477 9.44766 16 9.99994 16H13.9999C14.5522 16 14.9999 16.4477 14.9999 17V20Z" fill="black"/>
</svg>
