<?xml version="1.0" encoding="UTF-8"?>
<svg width="24px" height="24px" viewBox="0 0 24 24" version="1.1" xmlns="http://www.w3.org/2000/svg" xmlns:xlink="http://www.w3.org/1999/xlink">
    <!-- Generator: Sketch 52.6 (67491) - http://www.bohemiancoding.com/sketch -->
    <title>image</title>
    <desc>Created with Sketch.</desc>
    <defs>
        <path d="M8.41660807,10.4166627 C8.02768011,10.8055968 7.55552004,10.9999361 6.99987215,10.9999361 C6.44435211,10.9999361 5.97219203,10.805469 5.58326408,10.4166627 C5.19433612,10.0278564 5,9.55556088 5,9.00003196 C5,8.44437519 5.19446398,7.97220757 5.58326408,7.5832734 C5.97219203,7.19446709 6.44435211,7 6.99987215,7 C7.55552004,7 8.02768011,7.19446709 8.41660807,7.5832734 C8.80528032,7.97220757 8.99987215,8.44437519 8.99987215,9.00003196 C8.99987215,9.55556088 8.80540817,10.0277285 8.41660807,10.4166627 Z M10.0224919,14.0352723 L15.0441805,9 L19,13.0145234 L19,17 L5,17 L5,16.015385 L8.01746169,13.0145234 L10.0224919,14.0352723 Z M3,4 L21,4 C21.5522847,4 22,4.44771525 22,5 L22,19 C22,19.5522847 21.5522847,20 21,20 L3,20 C2.44771525,20 2,19.5522847 2,19 L2,5 C2,4.44771525 2.44771525,4 3,4 Z M4,6 L4,18 L20,18 L20,6 L4,6 Z" id="path-1"></path>
    </defs>
    <g id="image" stroke="none" stroke-width="1" fill="none" fill-rule="evenodd">
        <mask id="mask-2" fill="white">
            <use xlink:href="#path-1"></use>
        </mask>
        <use id="CombinedShape" fill="#000000" xlink:href="#path-1"></use>
    </g>
</svg>