<?xml version="1.0" encoding="UTF-8"?>
<svg width="24px" height="24px" viewBox="0 0 24 24" version="1.1" xmlns="http://www.w3.org/2000/svg" xmlns:xlink="http://www.w3.org/1999/xlink">
    <!-- Generator: Sketch 52.5 (67469) - http://www.bohemiancoding.com/sketch -->
    <title> image</title>
    <desc>Created with Sketch.</desc>
    <defs>
        <path d="M5.40850652,5 C4.63186208,5 4,5.63186208 4,6.40850652 L4,18.5915156 C4,19.3681601 4.63186208,20 5.40850652,20 L18.5914935,20 C19.3681379,20 20,19.3681601 20,18.5915156 L20,6.40850652 C20,5.63186208 19.3681379,5 18.5914935,5 L5.40850652,5 Z M4.9922331,22 C3.34233195,22 2,20.6576916 2,19.0077904 L2,5.9922331 C2,4.34230842 3.34233195,3 4.9922331,3 L19.0077669,3 C20.6576916,3 22,4.34230842 22,5.9922331 L22,19.0077904 C22,20.6576916 20.6576916,22 19.0077669,22 L4.9922331,22 Z M8.41660807,10.4166627 C8.80540817,10.0277285 8.99987215,9.55556088 8.99987215,9.00003196 C8.99987215,8.44437519 8.80528032,7.97220757 8.41660807,7.5832734 C8.02768011,7.19446709 7.55552004,7 6.99987215,7 C6.44435211,7 5.97219203,7.19446709 5.58326408,7.5832734 C5.19446398,7.97220757 5,8.44437519 5,9.00003196 C5,9.55556088 5.19433612,10.0278564 5.58326408,10.4166627 C5.97219203,10.805469 6.44435211,10.9999361 6.99987215,10.9999361 C7.55552004,10.9999361 8.02768011,10.8055968 8.41660807,10.4166627 Z M10.0224919,14.0352723 L8.01746169,13.0145234 L5,16.015385 L5,17 L19,17 L19,13.0145234 L15.0441805,9 L10.0224919,14.0352723 Z" id="path-1"></path>
    </defs>
    <g id="-image" stroke="none" stroke-width="1" fill="none" fill-rule="evenodd">
        <mask id="mask-2" fill="white">
            <use xlink:href="#path-1"></use>
        </mask>
        <use id="Combined-Shape" fill="#000000" xlink:href="#path-1"></use>
    </g>
</svg>