<svg width="24" height="24" viewBox="0 0 24 24" fill="none" xmlns="http://www.w3.org/2000/svg">
<path fill-rule="evenodd" clip-rule="evenodd" d="M3 4C2.44771 4 2 4.44772 2 5V19C2 19.5523 2.44772 20 3 20H12.3414C12.1206 19.3752 12.0003 18.703 12 18.0027H4.30768C4.22436 18.0027 4.15225 17.9731 4.09135 17.9138C4.03045 17.8543 4 17.7841 4 17.7027V6.29994C4 6.21868 4.03033 6.14847 4.09135 6.08897C4.15225 6.0297 4.22436 6 4.30768 6H19.6927C19.7759 6 19.848 6.0297 19.9088 6.08897C19.9696 6.14847 20 6.21868 20 6.29994V12.3414C20.7206 12.5961 21.378 12.9845 21.9424 13.4769L21.8674 4.99117C21.8626 4.44235 21.4163 4 20.8675 4H3ZM14 18.0013C14 17.449 14.4477 17 15 17H17V15C17 14.4477 17.449 14 18.0013 14C18.5536 14 19.0027 14.4477 19.0027 15V17H21C21.5523 17 22 17.449 22 18.0013C22 18.5536 21.5523 19.0027 21 19.0027H19.0027V21C19.0027 21.5523 18.5536 22 18.0013 22C17.449 22 17 21.5523 17 21V19.0027H15C14.4477 19.0027 14 18.5536 14 18.0013ZM9.86652 14.6359L8 12.9955L6.01014 14.6359L6 16H12.4686C12.4686 16 12.1623 14.6328 14.3989 13.1765C16.6356 11.7202 18 12.1111 18 12.1111L16.023 9L9.86652 14.6359ZM9.71989 9.86C9.71989 10.3766 9.53903 10.8157 9.17745 11.1775C8.81575 11.5392 8.37664 11.7199 7.85988 11.7199C7.34325 11.7199 6.90414 11.539 6.54244 11.1775C6.18073 10.8159 6 10.3766 6 9.86C6 9.34325 6.18085 8.90414 6.54244 8.54244C6.90414 8.18085 7.34325 8 7.85988 8C8.37664 8 8.81575 8.18085 9.17745 8.54244C9.53892 8.90414 9.71989 9.34325 9.71989 9.86Z" fill="black"/>
</svg>
