<?xml version="1.0" encoding="UTF-8"?>
<svg width="24px" height="24px" viewBox="0 0 24 24" version="1.1" xmlns="http://www.w3.org/2000/svg" xmlns:xlink="http://www.w3.org/1999/xlink">
    <!-- Generator: Sketch 52.5 (67469) - http://www.bohemiancoding.com/sketch -->
    <title>info-circle</title>
    <desc>Created with Sketch.</desc>
    <defs>
        <path d="M14.02375,17.0075 L9.975,17.0075 C9.70875,17.0075 9.49375,16.75625 9.49375,16.4475 C9.49375,16.13875 9.70875,15.8875 9.975,15.8875 L10.75,15.75 L10.75,12 L9.975,11.855 C9.70875,11.855 9.49375,11.60375 9.49375,11.295 C9.49375,10.98625 9.70875,10.735 9.975,10.735 L13.1175,10.735 C13.21375,10.735 13.245,10.695 13.25875,10.6625 C13.255,10.68125 13.25,10.69875 13.25,10.75 L13.25,15.75 L14.02375,15.8875 C14.29,15.8875 14.50625,16.13875 14.50625,16.4475 C14.50625,16.75625 14.29,17.0075 14.02375,17.0075 L14.02375,17.0075 Z M10.75,7 L11.975,7 C11.98375,7 11.99125,6.995 12,6.995 C12.00875,6.995 12.01625,7 12.025,7 L13.25,7 L13.25,8.175 C13.25125,8.2025 13.265,8.225 13.265,8.25125 C13.265,8.27875 13.25125,8.30125 13.25,8.3275 L13.25,9.5 L12.04125,9.5 C12.02625,9.50125 12.01375,9.50875 12,9.50875 C11.985,9.50875 11.9725,9.50125 11.95875,9.5 L10.75,9.5 L10.75,8.32625 C10.7475,8.3 10.73375,8.27875 10.73375,8.25125 C10.73375,8.225 10.7475,8.2025 10.75,8.17625 L10.75,7 Z M12,2 C6.47625,2 2,6.4775 2,12 C2,17.5225 6.47625,22 12,22 C17.5225,22 22,17.5225 22,12 C22,6.4775 17.5225,2 12,2 L12,2 Z" id="path-1"></path>
    </defs>
    <g id="info-circle" stroke="none" stroke-width="1" fill="none" fill-rule="evenodd">
        <mask id="mask-2" fill="white">
            <use xlink:href="#path-1"></use>
        </mask>
        <use id="Info-Icon" fill="#000000" xlink:href="#path-1"></use>
    </g>
</svg>