<?xml version="1.0" encoding="UTF-8"?>
<svg width="24px" height="24px" viewBox="0 0 24 24" version="1.1" xmlns="http://www.w3.org/2000/svg" xmlns:xlink="http://www.w3.org/1999/xlink">
    <!-- Generator: Sketch 52.6 (67491) - http://www.bohemiancoding.com/sketch -->
    <title>info-circle</title>
    <desc>Created with Sketch.</desc>
    <g id="info-circle" stroke="none" stroke-width="1" fill="none" fill-rule="evenodd">
        <g id="Mask" transform="translate(2.000000, 2.000000)" fill="#000000">
            <g id="Group" transform="translate(7.200000, 4.000000)">
                <path d="M5.02375,11.0075 L0.975,11.0075 C0.70875,11.0075 0.49375,10.75625 0.49375,10.4475 C0.49375,10.13875 0.70875,9.8875 0.975,9.8875 L1.75,9.75 L1.75,6 L0.975,5.855 C0.70875,5.855 0.49375,5.60375 0.49375,5.295 C0.49375,4.98625 0.70875,4.735 0.975,4.735 L4.1175,4.735 C4.21375,4.735 4.245,4.695 4.25875,4.6625 C4.255,4.68125 4.25,4.69875 4.25,4.75 L4.25,9.75 L5.02375,9.8875 C5.29,9.8875 5.50625,10.13875 5.50625,10.4475 C5.50625,10.75625 5.29,11.0075 5.02375,11.0075 L5.02375,11.0075 Z" id="Path"></path>
                <path d="M1.75,1 L2.975,1 C2.98375,1 2.99125,0.995 3,0.995 C3.00875,0.995 3.01625,1 3.025,1 L4.25,1 L4.25,2.175 C4.25125,2.2025 4.265,2.225 4.265,2.25125 C4.265,2.27875 4.25125,2.30125 4.25,2.3275 L4.25,3.5 L3.04125,3.5 C3.02625,3.50125 3.01375,3.50875 3,3.50875 C2.985,3.50875 2.9725,3.50125 2.95875,3.5 L1.75,3.5 L1.75,2.32625 C1.7475,2.3 1.73375,2.27875 1.73375,2.25125 C1.73375,2.225 1.7475,2.2025 1.75,2.17625 L1.75,1 Z" id="Path"></path>
            </g>
            <path d="M10,1.7 C5.41559864,1.7 1.7,5.41591948 1.7,10 C1.7,14.5840805 5.41559864,18.3 10,18.3 C14.5836159,18.3 18.3,14.5836159 18.3,10 C18.3,5.41638407 14.5836159,1.7 10,1.7 Z M10,0 C15.5225,0 20,4.4775 20,10 C20,15.5225 15.5225,20 10,20 C4.47625,20 0,15.5225 0,10 C0,4.4775 4.47625,0 10,0 Z" id="Path" fill-rule="nonzero"></path>
        </g>
    </g>
</svg>