<?xml version="1.0" encoding="UTF-8"?>
<svg width="24px" height="24px" viewBox="0 0 24 24" version="1.1" xmlns="http://www.w3.org/2000/svg" xmlns:xlink="http://www.w3.org/1999/xlink">
    <!-- Generator: Sketch 52.5 (67469) - http://www.bohemiancoding.com/sketch -->
    <title>info</title>
    <desc>Created with Sketch.</desc>
    <defs>
        <path d="M9.83328006,8 C9.60762002,8 9.412325,7.92083461 9.247395,7.76250384 C9.082465,7.60432648 9,7.41669224 9,7.20006137 L9,4.80009205 C9,4.58346118 9.082465,4.39582694 9.247395,4.23749616 C9.412325,4.07931881 9.60762002,4 9.83328006,4 L13.1665601,4 C13.3922202,4 13.587675,4.07931881 13.7524452,4.23749616 C13.917535,4.39598036 14,4.58346118 14,4.80009205 L14,7.20006137 C14,7.41669224 13.917535,7.60432648 13.7527648,7.76250384 C13.587675,7.92083461 13.39238,8 13.1668798,8 L9.83328006,8 Z M13.9986246,17.0184269 C13.9986246,17.0184269 15,17.1112661 15,18.0555016 L15,19.0681698 C15,19.2615918 14.815967,20 13.9986246,20 L8.69998657,20 C8.51042366,20 8.3463685,19.9291791 8.2078211,19.7880851 C8.0692737,19.6465802 8,19.4790482 8,19.2856262 L8,17.7326637 C8,17.3548308 8.2078211,17.0184269 8.69998657,17.0184269 L9.98846098,17.0184269 L9.98846098,12.9966994 L8.98652187,12.9966994 C8.41808236,12.9966994 8,12.193422 8,12 L8,10.7142368 C8,10.5208148 8.0692737,10.3534198 8.2078211,10.2120519 C8.3463685,10.070684 8.51042366,10 8.69998657,10 L13.2987723,10 C13.488201,10 13.6522561,10.070684 13.7909378,10.2120519 C13.9293509,10.3534198 13.9986246,10.5208148 13.9986246,10.7142368 L13.9986246,17.0184269 Z" id="path-1"></path>
    </defs>
    <g id="info" stroke="none" stroke-width="1" fill="none" fill-rule="evenodd">
        <mask id="mask-2" fill="white">
            <use xlink:href="#path-1"></use>
        </mask>
        <use fill="#000000" xlink:href="#path-1"></use>
    </g>
</svg>