<svg width="24" height="24" viewBox="0 0 24 24" fill="none" xmlns="http://www.w3.org/2000/svg">
<path fill-rule="evenodd" clip-rule="evenodd" d="M13.905 8H10.0952C9.83728 8 9.61409 7.92083 9.42559 7.7625C9.2371 7.60433 9.14286 7.41669 9.14286 7.20006V4.80009C9.14286 4.58346 9.2371 4.39583 9.42559 4.2375C9.61409 4.07932 9.83728 4 10.0952 4H13.9046C14.1625 4 14.3859 4.07932 14.5742 4.2375C14.7629 4.39598 14.8571 4.58346 14.8571 4.80009V7.20006C14.8571 7.41669 14.7629 7.60433 14.5746 7.7625C14.3859 7.92083 14.1627 8 13.905 8ZM14.8556 10.7142V17.0184C14.8556 17.0184 16 17.1113 16 18.0555V19.0682C16 19.2616 15.7897 20 14.8556 20H8.79998C8.58334 20 8.39585 19.9292 8.23751 19.7881C8.07917 19.6466 8 19.479 8 19.2856V17.7327C8 17.3548 8.23751 17.0184 8.79998 17.0184H10.2725V12.9967H9.12745C8.47781 12.9967 8 12.1934 8 12V10.7142C8 10.5208 8.07917 10.3534 8.23751 10.2121C8.39585 10.0707 8.58334 10 8.79998 10H14.0557C14.2722 10 14.4597 10.0707 14.6182 10.2121C14.7764 10.3534 14.8556 10.5208 14.8556 10.7142Z" fill="black"/>
</svg>
