<?xml version="1.0" encoding="UTF-8"?>
<svg width="24px" height="24px" viewBox="0 0 24 24" version="1.1" xmlns="http://www.w3.org/2000/svg" xmlns:xlink="http://www.w3.org/1999/xlink">
    <!-- Generator: Sketch 52.5 (67469) - http://www.bohemiancoding.com/sketch -->
    <title>instagram</title>
    <desc>Created with Sketch.</desc>
    <defs>
        <path d="M16.48,2 L7.51888889,2 C4.47259333,2.00306124 2.0036746,4.4714829 2,7.51777778 L2,16.48 C2.00244992,19.5271627 4.47172674,21.9969367 7.51888889,22 L16.48,22 C19.5273425,21.9969376 21.9969376,19.5273425 22,16.48 L22,7.51777778 C21.9957133,4.47130319 19.5264761,2.00306 16.48,2 L16.48,2 Z M20.2608696,16.4994876 C20.2584113,18.575387 18.5763882,20.2577956 16.5003494,20.2608696 L7.49965055,20.2608696 C5.42361178,20.2577956 3.74158865,18.575387 3.73913043,16.4994876 L3.73913043,7.49939658 C3.74158999,5.4236785 5.42379227,3.74158982 7.49965055,3.73913043 L16.4992336,3.73913043 C18.5755276,3.74097499 20.2584089,5.4232434 20.2608696,7.49939658 L20.2608696,16.4994876 L20.2608696,16.4994876 L20.2608696,16.4994876 Z M12.0034508,6.78373348 C9.89293718,6.78236848 7.98947925,8.05252375 7.18087456,10.0017823 C6.37226987,11.9510409 6.81780784,14.1954126 8.30968375,15.6880933 C9.80155965,17.1807739 12.0458845,17.627716 13.9958759,16.8204598 C15.9458674,16.0132037 17.2173909,14.1107731 17.2173913,12.0004865 C17.2149113,9.120199 14.8806734,6.78570938 12.0000761,6.7826087 L12.0034508,6.78373348 Z M11.7826562,15.0434783 C10.4636793,15.0434782 9.27459759,14.2488884 8.76994722,13.030271 C8.26529685,11.8116537 8.54447551,10.409032 9.47728637,9.47652783 C10.4100972,8.54402368 11.8128107,8.26530633 13.0312619,8.77035749 C14.2497131,9.27540865 15.0439118,10.4647517 15.0434781,11.7837286 C15.0405205,13.5843133 13.5800265,15.0424084 11.7794394,15.042406 L11.7826562,15.0434783 Z M17.6502374,5.47937612 C17.0281322,5.48032467 16.4932919,5.92032055 16.3726953,6.53036882 C16.2520987,7.14041709 16.5793191,7.7506849 17.1543076,7.98808023 C17.7292961,8.22547557 18.3919804,8.02390934 18.7372231,7.50661066 C19.0824658,6.98931198 19.0141541,6.30029289 18.5740508,5.86079064 C18.327739,5.61578005 17.9943816,5.47824277 17.6468903,5.47826087 L17.6502374,5.47937612 Z" id="path-1"></path>
    </defs>
    <g id="instagram" stroke="none" stroke-width="1" fill="none" fill-rule="evenodd">
        <mask id="mask-2" fill="white">
            <use xlink:href="#path-1"></use>
        </mask>
        <use id="Instagram" fill="#000000" xlink:href="#path-1"></use>
    </g>
</svg>