<?xml version="1.0" encoding="UTF-8"?>
<svg width="24px" height="24px" viewBox="0 0 24 24" version="1.1" xmlns="http://www.w3.org/2000/svg" xmlns:xlink="http://www.w3.org/1999/xlink">
    <!-- Generator: Sketch 52.5 (67469) - http://www.bohemiancoding.com/sketch -->
    <title>/jira</title>
    <desc>Created with Sketch.</desc>
    <defs>
        <path d="M7.30773169,3.19089317 C6.5765489,3.19089317 6.01945725,3.78633975 6.01945725,4.48686515 C6.01945725,5.22241681 6.61136713,5.78283713 7.30773169,5.78283713 C8.03891449,5.78283713 8.59600614,5.18739054 8.59600614,4.48686515 C8.59600614,3.78633975 8.03891449,3.19089317 7.30773169,3.19089317 M15.8730159,3.19089317 C15.1418331,3.19089317 14.5847414,3.78633975 14.5847414,4.48686515 C14.5847414,5.22241681 15.1766513,5.78283713 15.8730159,5.78283713 C16.6041987,5.78283713 17.1612903,5.18739054 17.1612903,4.48686515 C17.1612903,3.78633975 16.6041987,3.19089317 15.8730159,3.19089317 M11.5903738,2 C10.859191,2 10.3020993,2.59544658 10.3020993,3.29597198 C10.3020993,4.03152364 10.8940092,4.59194396 11.5903738,4.59194396 C12.3215566,4.59194396 12.8786482,3.99649737 12.8786482,3.29597198 C12.8786482,2.56042032 12.3215566,2 11.5903738,2 M18.93702,6.83362522 C18.8673835,6.76357268 18.7629288,6.76357268 18.6932924,6.76357268 C18.6584741,6.76357268 18.5888377,6.76357268 18.5540195,6.79859895 C17.6835637,7.14886165 16.7782898,7.39404553 15.9426523,7.60420315 C15.7685612,7.63922942 15.6292883,7.7793345 15.59447,7.91943958 C15.0025602,9.56567426 13.4705581,11.1068301 11.8689196,12.7530648 C11.7992832,12.8231173 11.7296467,12.8931699 11.5555556,12.8931699 C11.4162826,12.8931699 11.311828,12.8231173 11.2421915,12.7530648 C9.640553,11.1068301 8.10855095,9.56567426 7.51664107,7.91943958 C7.44700461,7.7793345 7.34254992,7.63922942 7.16845878,7.60420315 C6.36763953,7.4290718 5.46236559,7.14886165 4.55709165,6.79859895 C4.52227343,6.76357268 4.45263697,6.76357268 4.41781874,6.76357268 C4.31336406,6.76357268 4.2437276,6.79859895 4.17409114,6.83362522 C4.06963646,6.90367776 4,7.04378284 4,7.18388792 C4.13927291,8.54991243 4.66154634,9.88091068 5.63645673,11.2819615 C6.54173067,12.6129597 7.72555044,13.8038529 8.87455197,14.9947461 C10.9984639,17.1663748 12.9831029,19.1978984 13.1571941,21.5796848 C13.1571941,21.7898424 13.3661034,21.9649737 13.5750128,21.9649737 L16.1167435,21.9649737 C16.3256528,21.9649737 16.5345622,21.7898424 16.5345622,21.5446585 C16.5345622,21.5446585 16.5345622,21.5446585 16.5345622,21.5096322 C16.4649258,19.9334501 15.8730159,18.3222417 14.7240143,16.6409807 C14.4802867,16.290718 14.2365591,15.9404553 13.9580133,15.6252189 C13.8535586,15.4851138 13.8883769,15.3099825 13.9928315,15.2399299 C14.062468,15.1698774 14.1669227,15.0647986 14.2365591,14.9947461 C15.3855607,13.8038529 16.5693804,12.6129597 17.4746544,11.2819615 C18.4495648,9.88091068 18.9718382,8.54991243 19.1111111,7.18388792 C19.1111111,7.07880911 19.0762929,6.93870403 18.93702,6.83362522 M8.9093702,16.8511384 C9.67537122,17.6217163 10.1628264,18.2171629 10.5806452,18.7425569 C10.6502816,18.8476357 10.7547363,19.0928196 10.6154634,19.3730298 C10.1976446,20.1436077 9.98873528,20.8791594 9.91909882,21.614711 C9.88428059,21.8248687 9.71018945,22 9.50128008,22 L7.02918587,22 C6.88991295,22 6.78545827,21.9299475 6.71582181,21.8598949 C6.64618536,21.7548161 6.61136713,21.6497373 6.61136713,21.5446585 C6.71582181,20.0385289 7.23809524,18.5323993 8.28264209,16.9211909 C8.35227855,16.8511384 8.45673323,16.7110333 8.63082437,16.7110333 C8.77009729,16.7110333 8.83973374,16.7810858 8.9093702,16.8511384 Z M11.5903738,8.05954466 C12.3563748,8.05954466 12.8090118,8.02451839 12.9831029,8.02451839 C13.1920123,8.02451839 13.3661034,8.19964974 13.3661034,8.40980736 C13.3661034,8.47985989 13.3661034,8.51488616 13.3312852,8.54991243 C13.2268305,8.83012259 12.7741935,9.81085814 11.8689196,10.6865149 C11.7644649,10.7915937 11.6600102,10.7915937 11.5903738,10.7915937 C11.5207373,10.7915937 11.4162826,10.7565674 11.311828,10.6865149 C10.4413722,9.84588441 9.95391705,8.83012259 9.84946237,8.54991243 C9.84946237,8.51488616 9.81464414,8.47985989 9.81464414,8.40980736 C9.81464414,8.19964974 9.98873528,8.02451839 10.1976446,8.02451839 C10.3717358,8.02451839 10.8243728,8.05954466 11.5903738,8.05954466 Z" id="path-1"></path>
    </defs>
    <g id="/jira" stroke="none" stroke-width="1" fill="none" fill-rule="evenodd">
        <mask id="mask-2" fill="white">
            <use xlink:href="#path-1"></use>
        </mask>
        <use id="Shape" fill="#000000" fill-rule="nonzero" xlink:href="#path-1"></use>
    </g>
</svg>