<svg width="24" height="24" viewBox="0 0 24 24" fill="none" xmlns="http://www.w3.org/2000/svg">
<path d="M10.7071 13.5485L9.66426 12.5058C9.93539 12.1825 10.1752 11.8592 10.3525 11.5568C11.5204 9.53381 11.948 7.01026 12.094 5.70677H13.0429C13.6164 5.70677 14.0857 5.23752 14.0857 4.66399C14.0857 4.09045 13.6164 3.6212 13.0429 3.6212H8.8196V2.41156C8.8196 1.83803 8.35035 1.36877 7.77682 1.36877C7.20328 1.36877 6.73403 1.83803 6.73403 2.41156V3.63162H2.50031C1.92677 3.63162 1.45752 4.10088 1.45752 4.67441C1.45752 5.24795 1.92677 5.7172 2.50031 5.7172H9.99796C9.84154 6.90598 9.45571 8.94984 8.54848 10.5245C8.45463 10.6809 8.32949 10.8477 8.19393 11.0354L5.2637 8.10519C4.85701 7.6985 4.20005 7.6985 3.79337 8.10519C3.38668 8.51187 3.38668 9.16883 3.79337 9.57552L6.74446 12.5266C5.42012 13.7258 3.79337 14.925 3.01127 15.4568C2.53159 15.7801 2.41688 16.4371 2.74015 16.9063C2.93828 17.1983 3.27197 17.3547 3.60566 17.3547C3.81422 17.3547 4.01235 17.2921 4.20005 17.167C4.52332 16.948 6.52547 15.5507 8.22522 13.9969L9.24715 15.0189C9.45571 15.2274 9.7164 15.3213 9.98753 15.3213C10.2587 15.3213 10.5193 15.217 10.7279 15.0189C11.1137 14.6226 11.1137 13.9552 10.7071 13.5485Z" fill="black"/>
<path d="M22.4488 21.1506L17.0576 9.56524C16.8803 9.18984 16.5049 8.92914 16.0982 8.96043C15.6915 8.96043 15.3161 9.2107 15.1493 9.5861L11.9688 16.8231L10.0605 21.1715C9.83106 21.7033 10.0709 22.3185 10.5923 22.548C10.7279 22.6105 10.8738 22.6314 11.0094 22.6314C11.4161 22.6314 11.7915 22.402 11.9688 22.0057L13.606 18.2621H18.7886L20.5405 22.0266C20.7803 22.548 21.406 22.7774 21.9274 22.5375C22.4696 22.2873 22.6886 21.672 22.4488 21.1506ZM14.5445 16.1765L16.1504 12.5268L17.8501 16.1765H14.5445Z" fill="black"/>
</svg>
