<?xml version="1.0" encoding="UTF-8"?>
<svg width="24px" height="24px" viewBox="0 0 24 24" version="1.1" xmlns="http://www.w3.org/2000/svg" xmlns:xlink="http://www.w3.org/1999/xlink">
    <!-- Generator: Sketch 52.6 (67491) - http://www.bohemiancoding.com/sketch -->
    <title>like-fill</title>
    <desc>Created with Sketch.</desc>
    <defs>
        <path d="M20.3183899,3.95491039 C21.2342466,4.98682857 21.6923077,6.41818412 21.6923077,8.24897703 C21.6923077,10.0881969 20.8666027,11.9606649 19.2151928,13.8662278 L12.4759852,21.3562531 C12.3461349,21.5059463 12.1874731,21.5808696 12,21.5808696 C11.8125269,21.5808696 11.6538651,21.5059463 11.5240148,21.3559466 L4.77405269,13.8411002 C4.70195785,13.7746039 4.60277766,13.6664325 4.47664489,13.5167393 C4.35051212,13.3668928 4.15029294,13.0944725 3.8762529,12.699172 C3.60221286,12.3038715 3.35698419,11.897999 3.14069968,11.4820142 C2.92441517,11.0660294 2.73136565,10.5624043 2.56194942,9.97159857 C2.39253319,9.38094607 2.30769231,8.8065346 2.30769231,8.24897703 C2.30769231,6.41818412 2.76562065,4.98682857 3.68147734,3.95491039 C4.59733404,2.92299222 5.86291043,2.40695652 7.4783393,2.40695652 C7.9253804,2.40695652 8.38158272,2.4964354 8.84668072,2.67523993 C9.31177871,2.85419767 9.74448051,3.09551484 10.1447861,3.39934465 C10.5450917,3.70317445 10.8893678,3.98815854 11.1778799,4.25445012 C11.4662592,4.5207417 11.7402993,4.80373396 12,5.10327368 C12.259568,4.80373396 12.533608,4.5207417 12.8219874,4.25445012 C13.1106322,3.98815854 13.4547756,3.70302124 13.8550811,3.39934465 C14.2551212,3.09566806 14.687823,2.85419767 15.1530537,2.67523993 C15.6181517,2.4964354 16.0743541,2.40695652 16.5213952,2.40695652 C18.1369568,2.40695652 19.4025332,2.922839 20.3183899,3.95491039 Z" id="path-1"></path>
    </defs>
    <g id="like-fill" stroke="none" stroke-width="1" fill="none" fill-rule="evenodd">
        <mask id="mask-2" fill="white">
            <use xlink:href="#path-1"></use>
        </mask>
        <use id="Mask" fill="#000000" fill-rule="nonzero" xlink:href="#path-1"></use>
    </g>
</svg>