<svg width="24" height="24" viewBox="0 0 24 24" fill="none" xmlns="http://www.w3.org/2000/svg">
<path fill-rule="evenodd" clip-rule="evenodd" d="M19.693 4.31919C17.951 2.56019 15.117 2.56019 13.374 4.31919L11.802 5.90619C11.415 6.29819 11.414 6.93219 11.802 7.32419C12.19 7.71619 12.819 7.71519 13.207 7.32419L14.778 5.73719C15.746 4.76019 17.321 4.75919 18.289 5.73719C19.257 6.71519 19.256 8.30419 18.289 9.28119L14.778 12.8262C13.81 13.8032 12.236 13.8032 11.267 12.8262C11.184 12.7412 11.107 12.6522 11.039 12.5602C10.71 12.1142 10.089 12.0252 9.64996 12.3562C9.20996 12.6872 9.11996 13.3162 9.44796 13.7592C9.57196 13.9282 9.71196 14.0902 9.86296 14.2442C11.606 16.0032 14.44 16.0032 16.182 14.2442L19.693 10.6992C21.435 8.94019 21.435 6.07819 19.693 4.31919Z" fill="black"/>
<path fill-rule="evenodd" clip-rule="evenodd" d="M10.7936 16.6761L9.22162 18.2631C8.25362 19.2401 6.67962 19.2401 5.71062 18.2631C4.74262 17.2851 4.74262 15.6961 5.71062 14.7181L9.22162 11.1741C10.1896 10.1971 11.7646 10.1961 12.7316 11.1741C12.8156 11.2581 12.8936 11.3491 12.9626 11.4421C13.2936 11.8851 13.9136 11.9741 14.3536 11.6421C14.7916 11.3101 14.8796 10.6811 14.5506 10.2381C14.4266 10.0701 14.2876 9.90808 14.1366 9.75608C12.3946 7.99708 9.56062 7.99708 7.81662 9.75608L4.30662 13.3011C2.56462 15.0591 2.56462 17.9221 4.30662 19.6801C6.04962 21.4401 8.88362 21.4401 10.6256 19.6801L12.1976 18.0941C12.5856 17.7021 12.5856 17.0681 12.1976 16.6761C11.8096 16.2841 11.1816 16.2841 10.7936 16.6761Z" fill="black"/>
</svg>
