<svg width="24" height="24" viewBox="0 0 24 24" fill="none" xmlns="http://www.w3.org/2000/svg">
<path fill-rule="evenodd" clip-rule="evenodd" d="M19.693 4.31925C17.951 2.56025 15.117 2.56025 13.374 4.31925L11.802 5.90625C11.415 6.29825 11.414 6.93225 11.802 7.32425C12.19 7.71625 12.819 7.71525 13.207 7.32425L14.778 5.73725C15.746 4.76025 17.321 4.75925 18.289 5.73725C19.257 6.71525 19.256 8.30425 18.289 9.28125L14.778 12.8263C13.81 13.8033 12.236 13.8033 11.267 12.8263C11.184 12.7413 11.107 12.6523 11.039 12.5603C10.71 12.1143 10.089 12.0252 9.64996 12.3562C9.20996 12.6872 9.11996 13.3162 9.44796 13.7592C9.57196 13.9282 9.71196 14.0903 9.86296 14.2443C11.606 16.0033 14.44 16.0033 16.182 14.2443L19.693 10.6993C21.435 8.94025 21.435 6.07825 19.693 4.31925" fill="black"/>
<path fill-rule="evenodd" clip-rule="evenodd" d="M10.7936 16.6761L9.22162 18.2631C8.25362 19.2401 6.67962 19.2401 5.71062 18.2631C4.74262 17.2851 4.74262 15.6961 5.71062 14.7181L9.22162 11.1741C10.1896 10.1971 11.7646 10.1961 12.7316 11.1741C12.8156 11.2581 12.8936 11.3491 12.9626 11.4421C13.2936 11.8851 13.9136 11.9741 14.3536 11.6421C14.7916 11.3101 14.8796 10.6811 14.5506 10.2381C14.4266 10.0701 14.2876 9.90814 14.1366 9.75614C12.3946 7.99714 9.56062 7.99714 7.81662 9.75614L4.30662 13.3011C2.56462 15.0591 2.56462 17.9221 4.30662 19.6801C6.04962 21.4401 8.88362 21.4401 10.6256 19.6801L12.1976 18.0941C12.5856 17.7021 12.5856 17.0681 12.1976 16.6761C11.8096 16.2841 11.1816 16.2841 10.7936 16.6761" fill="black"/>
</svg>
