<svg width="24" height="24" viewBox="0 0 24 24" fill="none" xmlns="http://www.w3.org/2000/svg">
<path fill-rule="evenodd" clip-rule="evenodd" d="M11.4312 16.0373L9.32818 18.1403C8.40418 19.0643 6.89618 19.2453 5.88318 18.4183C4.71818 17.4683 4.65418 15.7433 5.68918 14.7083L7.89518 12.5013C8.28618 12.1113 8.28618 11.4783 7.89518 11.0873C7.50518 10.6973 6.87218 10.6973 6.48118 11.0873L4.42518 13.1443C2.76518 14.8033 2.48118 17.4973 3.96518 19.3153C5.66818 21.4013 8.78118 21.5163 10.6392 19.6583L12.8452 17.4523C13.2362 17.0613 13.2362 16.4283 12.8452 16.0373C12.4542 15.6463 11.8212 15.6463 11.4312 16.0373" fill="black"/>
<path fill-rule="evenodd" clip-rule="evenodd" d="M12.4508 7.93324L14.5538 5.83024C15.4768 4.90624 16.9858 4.72524 17.9988 5.55224C19.1638 6.50224 19.2278 8.22724 18.1918 9.26224L15.9858 11.4692C15.5958 11.8592 15.5958 12.4922 15.9858 12.8832C16.3768 13.2732 17.0098 13.2732 17.3998 12.8832L19.4568 10.8262C21.1158 9.16724 21.3998 6.47324 19.9168 4.65524C18.2138 2.56924 15.0998 2.45424 13.2428 4.31224L11.0358 6.51824C10.6458 6.90924 10.6458 7.54224 11.0358 7.93324V7.93324C11.4268 8.32424 12.0598 8.32424 12.4508 7.93324" fill="black"/>
<path fill-rule="evenodd" clip-rule="evenodd" d="M7.48252 7.52896V7.52896C7.28852 7.72296 6.96952 7.72296 6.77552 7.52896L5.85652 6.60996C5.66152 6.41496 5.66152 6.09696 5.85652 5.90296C6.05052 5.70796 6.36852 5.70796 6.56352 5.90296L7.48252 6.82196C7.67752 7.01596 7.67752 7.33496 7.48252 7.52896" fill="black"/>
<path fill-rule="evenodd" clip-rule="evenodd" d="M6.6656 8.84341V8.84341C6.6266 9.11541 6.3726 9.30641 6.0996 9.26741L4.8126 9.08441C4.5406 9.04541 4.3496 8.79041 4.3886 8.51841C4.4276 8.24641 4.6816 8.05541 4.9546 8.09441L6.2406 8.27741C6.5136 8.31641 6.7046 8.57141 6.6656 8.84341" fill="black"/>
<path fill-rule="evenodd" clip-rule="evenodd" d="M8.81747 6.69111V6.69111C9.08947 6.65211 9.28047 6.39811 9.24147 6.12611L9.05847 4.83811C9.01947 4.56611 8.76547 4.37511 8.49247 4.41411C8.22047 4.45311 8.02947 4.70711 8.06847 4.98011L8.25247 6.26711C8.29047 6.53911 8.54547 6.73011 8.81747 6.69111" fill="black"/>
<path fill-rule="evenodd" clip-rule="evenodd" d="M16.3736 16.4202V16.4202C16.1796 16.6142 16.1796 16.9332 16.3736 17.1272L17.2926 18.0462C17.4866 18.2412 17.8056 18.2412 17.9996 18.0462C18.1946 17.8522 18.1946 17.5342 17.9996 17.3392L17.0806 16.4202C16.8866 16.2262 16.5676 16.2262 16.3736 16.4202" fill="black"/>
<path fill-rule="evenodd" clip-rule="evenodd" d="M15.0592 17.237V17.237C14.7872 17.276 14.5962 17.53 14.6352 17.803L14.8182 19.09C14.8572 19.362 15.1122 19.553 15.3842 19.514C15.6562 19.475 15.8472 19.221 15.8082 18.948L15.6242 17.662C15.5862 17.389 15.3312 17.198 15.0592 17.237" fill="black"/>
<path fill-rule="evenodd" clip-rule="evenodd" d="M17.2115 15.0851V15.0851C17.2505 14.8131 17.5045 14.6221 17.7765 14.6611L19.0645 14.8441C19.3365 14.8831 19.5265 15.1371 19.4885 15.4101C19.4495 15.6821 19.1945 15.8731 18.9235 15.8341L17.6365 15.6501C17.3635 15.6121 17.1725 15.3571 17.2115 15.0851" fill="black"/>
</svg>
