<?xml version="1.0" encoding="UTF-8"?>
<svg width="24px" height="24px" viewBox="0 0 24 24" version="1.1" xmlns="http://www.w3.org/2000/svg" xmlns:xlink="http://www.w3.org/1999/xlink">
    <!-- Generator: Sketch 52.5 (67469) - http://www.bohemiancoding.com/sketch -->
    <title>/linkedin</title>
    <desc>Created with Sketch.</desc>
    <defs>
        <path d="M5.22667695,9.64864865 L8.13030069,9.64864865 L8.13030069,19 L5.22667695,19 L5.22667695,9.64864865 Z M6.68388589,5 C7.61218196,5 8.36777178,5.75675676 8.36777178,6.68648649 C8.36777178,7.61621622 7.61218196,8.37297297 6.68388589,8.37297297 C5.75019275,8.37297297 5,7.61621622 5,6.68648649 C5,5.75675676 5.75019275,5 6.68388589,5 Z M9.95451041,9.64864865 L12.7340015,9.64864865 L12.7340015,10.9297297 L12.771781,10.9297297 C13.1603701,10.1945946 14.1048574,9.42162162 15.5188897,9.42162162 C18.4548959,9.42162162 19,11.3567568 19,13.8756757 L19,19 L16.1017733,19 L16.1017733,14.4540541 C16.1017733,13.3675676 16.0855821,11.972973 14.5959907,11.972973 C13.0848111,11.972973 12.8581342,13.1567568 12.8581342,14.372973 L12.8581342,19 L9.95990748,19 L9.95990748,9.64864865 L9.95451041,9.64864865 Z" id="path-1"></path>
    </defs>
    <g id="/linkedin" stroke="none" stroke-width="1" fill="none" fill-rule="evenodd">
        <mask id="mask-2" fill="white">
            <use xlink:href="#path-1"></use>
        </mask>
        <use id="Linkedin" fill="#000000" xlink:href="#path-1"></use>
    </g>
</svg>