<?xml version="1.0" encoding="UTF-8"?>
<svg width="24px" height="24px" viewBox="0 0 24 24" version="1.1" xmlns="http://www.w3.org/2000/svg" xmlns:xlink="http://www.w3.org/1999/xlink">
    <!-- Generator: Sketch 52.6 (67491) - http://www.bohemiancoding.com/sketch -->
    <title>link-on</title>
    <desc>Created with Sketch.</desc>
    <g id="link-on" stroke="none" stroke-width="1" fill="none" fill-rule="evenodd">
        <g id="Mask" transform="translate(3.000000, 3.000000)" fill="#000000" fill-rule="nonzero">
            <path d="M10.3000999,13.9913219 L7.5956044,16.6976791 C6.76303696,17.5313824 5.63376623,18 4.45594406,18 C3.27812188,18 2.14885115,17.5313824 1.31808192,16.6976791 C0.481918082,15.8657921 0.0143856144,14.7342079 0.017982018,13.5553986 C0.017982018,12.3711403 0.478321678,11.2540868 1.31628372,10.4149344 L4.96303696,6.76770938 C6.72707293,5.00221998 9.54305694,5.07305752 11.2387612,6.76770938 C11.5786214,7.1073663 11.8447552,7.49788093 12.0551449,7.91382442 C12.0551449,7.91382442 10.8809191,9.09081736 10.8611389,9.10716448 C10.7280719,8.64036327 10.4799201,8.2135217 10.1382617,7.86841574 C9.05214785,6.78224016 7.19460539,6.73683148 6.06173826,7.86841574 C6.05994006,7.86841574 6.06173826,7.86841574 6.06173826,7.86841574 L2.41498501,11.5174571 C1.29110889,12.6435923 1.29110889,14.4690212 2.41498501,15.5951564 C3.54065934,16.7212916 5.36583417,16.7212916 6.49150849,15.5951564 L8.30769231,13.7769929 C9.05034965,13.9895055 9.64915085,14.0276488 10.2947053,13.9895055 L10.3000999,13.9913219 Z M7.74305694,3.98869828 C8.41378621,3.94147326 9.08631369,4.0123108 9.73006993,4.2012109 L11.5228771,2.40847629 C12.6485514,1.28415742 14.4719281,1.28415742 15.5994006,2.40847629 C16.7250749,3.5346115 16.7250749,5.36185671 15.5994006,6.48799193 L11.9796204,10.1097881 C10.8989011,11.1886983 9.06473526,11.2758829 7.9012987,10.1097881 C7.56143856,9.76649849 7.31508492,9.34328961 7.18561439,8.87830474 C7.16583417,8.89646821 7.14065934,8.91099899 7.12267732,8.92916246 L5.98621379,10.0643794 C6.1966034,10.4803229 6.46273726,10.8708375 6.8007992,11.2104945 C8.48211788,12.8942482 11.2999001,12.9905146 13.0783217,11.2104945 L16.6981019,7.58869828 C17.5324675,6.7568113 18,5.62704339 18,4.45005045 C18,3.27305752 17.5324675,2.14147326 16.6981019,1.30958628 C15.8673327,0.474066599 14.7380619,0.00544904137 13.5602398,0.00544904137 C12.3824176,0.00544904137 11.2531469,0.474066599 10.4205794,1.30776993 C9.08091908,2.64823411 7.74305694,3.98869828 7.74305694,3.98869828 Z" id="Shape"></path>
        </g>
    </g>
</svg>