<?xml version="1.0" encoding="UTF-8"?>
<svg width="24px" height="24px" viewBox="0 0 24 24" version="1.1" xmlns="http://www.w3.org/2000/svg" xmlns:xlink="http://www.w3.org/1999/xlink">
    <!-- Generator: Sketch 52.5 (67469) - http://www.bohemiancoding.com/sketch -->
    <title>link</title>
    <desc>Created with Sketch.</desc>
    <defs>
        <path d="M13.2344736,16.2548037 L14.6632551,17.6835853 C14.8431903,17.8635204 15.1337262,17.8634707 15.3136117,17.6835853 L21.7343229,11.262874 C21.9142581,11.0829388 21.9142084,10.7924029 21.7343229,10.6125174 L20.3187577,9.19695216 L13.3849203,16.1307895 C13.3379667,16.1777431 13.2875411,16.2190859 13.2344736,16.2548037 Z M11.8466563,14.8669864 C11.8823521,14.8139944 11.9236977,14.763585 11.9707067,14.716576 L18.9045441,7.7827386 L15.3136117,4.19180616 C15.1336765,4.011871 14.8431406,4.0119207 14.6632551,4.19180616 L8.24254385,10.6125174 C8.06260869,10.7924526 8.06265839,11.0829885 8.24254385,11.262874 L11.8466563,14.8669864 Z M3.6747249,18.0087635 C3.28420061,17.6182392 3.28137317,16.9879017 3.67458877,16.5946861 L5.79618137,14.4730935 C6.18663048,14.0826444 6.82360294,14.0865737 7.2102588,14.4732296 C7.6007831,14.8637539 7.60361054,15.4940914 7.21039493,15.8873071 L5.08880234,18.0088996 C4.69835322,18.3993488 4.06797185,18.4020105 3.6747249,18.0087635 Z M6.50315202,19.4229771 C6.11262773,19.0324528 6.10954328,18.4023723 6.50977683,18.0021387 L7.91074078,16.6011748 C8.30492385,16.2069917 8.93833219,16.201303 9.33157915,16.59455 C9.72210344,16.9850742 9.72518789,17.6151548 9.32495434,18.0153883 L7.9239904,19.4163523 C7.52980732,19.8105353 6.89639898,19.816224 6.50315202,19.4229771 Z M9.33157915,20.8371906 C8.94105486,20.4466664 8.93748049,19.8170757 9.33084133,19.4237149 L10.0394238,18.7151325 C10.4295406,18.3250157 11.0596525,18.3226233 11.4528995,18.7158703 C11.8434238,19.1063946 11.8469982,19.7359852 11.4536373,20.129346 L10.7450549,20.8379285 C10.3549381,21.2280453 9.7248261,21.2304376 9.33157915,20.8371906 Z M6.49300745,9.48484692 L13.5557899,2.4220645 C14.3391264,1.63872797 15.6084634,1.63802554 16.3925024,2.4220645 L20.0944974,6.12405954 L23.4552848,9.48484692 C24.2386213,10.2681835 24.2393238,11.5375205 23.4552848,12.3215594 L16.3925024,19.3843419 C15.6091659,20.1676784 14.3398288,20.1683808 13.5557899,19.3843419 L6.49300745,12.3215594 C5.70967092,11.5382229 5.70896849,10.2688859 6.49300745,9.48484692 Z" id="path-1"></path>
    </defs>
    <g id="link" stroke="none" stroke-width="1" fill="none" fill-rule="evenodd">
        <mask id="mask-2" fill="white">
            <use xlink:href="#path-1"></use>
        </mask>
        <use fill="#000000" transform="translate(13.711902, 11.482810) rotate(45.000000) translate(-13.711902, -11.482810) " xlink:href="#path-1"></use>
    </g>
</svg>