<svg width="24" height="24" viewBox="0 0 24 24" fill="none" xmlns="http://www.w3.org/2000/svg">
<path fill-rule="evenodd" clip-rule="evenodd" d="M18.924 10C20.068 10 21 10.823 21 11.834V19.828C21 20.839 20.068 22 18.924 22H5.076C3.932 22 3 21.176 3 20.165V11.834C3 10.821 3.93 10 5.076 10H6.042V8C6.042 4.7 8.742 2 12.042 2C15.342 2 18.042 4.7 18.042 8V10H18.924ZM8.042 8V10H16.042V8C16.042 5.794 14.247 4 12.042 4C9.836 4 8.042 5.794 8.042 8ZM4.964 20.019H18.964V12.019H4.964V20.019Z" fill="black"/>
</svg>
