<svg width="24" height="24" viewBox="0 0 24 24" fill="none" xmlns="http://www.w3.org/2000/svg">
<path d="M2.00128 5.92766C2.03936 4.8566 2.91965 4 4 4H20C21.0996 4 21.9919 4.88733 21.9999 5.98499L22 6V18C22 19.1046 21.1046 20 20 20H4C2.89543 20 2 19.1046 2 18V5.92688L2.00128 5.92766ZM4 9.47942V18H20V9.54293L14.1401 13.1083C12.8645 13.8844 11.2629 13.8854 9.98632 13.111L4 9.47942ZM20 7.20182V6.75402C19.9721 6.29503 19.6655 6.02946 19.2309 6H4.85272L4.85156 6.00195C4.37311 6.00195 4.02879 6.272 4 6.76076V7.14017L11.0237 11.401C11.6619 11.7883 12.4628 11.7877 13.1006 11.3997L20 7.20182Z" fill="black"/>
</svg>
