<svg width="24" height="24" viewBox="0 0 24 24" fill="none" xmlns="http://www.w3.org/2000/svg">
<path fill-rule="evenodd" clip-rule="evenodd" d="M19.6923 11.93H17.7692V8.77969H15.8462V11.93H13.9231L16.8077 15.173L19.6923 11.93ZM6.80769 15.0803V11.4667L8.73077 13.7831L10.6538 11.4667V15.0803H12.5769V8.77969H10.6538L8.73077 11.0961L6.80769 8.77969H4.88462V15.0803H6.80769ZM3.44231 17.86C2.64702 17.86 2 17.2365 2 16.4702V7.38984C2 6.62348 2.64702 6 3.44231 6H20.5577C21.353 6 22 6.62348 22 7.38984V16.4702C22 17.2365 21.353 17.86 20.5577 17.86H3.44231Z" fill="black"/>
</svg>
