<?xml version="1.0" encoding="UTF-8"?>
<svg width="24px" height="24px" viewBox="0 0 24 24" version="1.1" xmlns="http://www.w3.org/2000/svg" xmlns:xlink="http://www.w3.org/1999/xlink">
    <!-- Generator: Sketch 52.5 (67469) - http://www.bohemiancoding.com/sketch -->
    <title>/ medium</title>
    <desc>Created with Sketch.</desc>
    <defs>
        <path d="M15,13 L19,13 C20.1045695,13 21,13.8954305 21,15 L21,19.3035889 C21,20.2404909 20.2404909,21 19.3035889,21 L15,21 C13.8954305,21 13,20.1045695 13,19 L13,15 C13,13.8954305 13.8954305,13 15,13 Z M5,13 L9,13 C10.1045695,13 11,13.8954305 11,15 L11,19.3035889 C11,20.2404909 10.2404909,21 9.30358887,21 L5,21 C3.8954305,21 3,20.1045695 3,19 L3,15 C3,13.8954305 3.8954305,13 5,13 Z M5,3 L9,3 C10.1045695,3 11,3.8954305 11,5 L11,9.30358887 C11,10.2404909 10.2404909,11 9.30358887,11 L5,11 C3.8954305,11 3,10.1045695 3,9 L3,5 C3,3.8954305 3.8954305,3 5,3 Z M15,3 L19,3 C20.1045695,3 21,3.8954305 21,5 L21,9.30358887 C21,10.2404909 20.2404909,11 19.3035889,11 L15,11 C13.8954305,11 13,10.1045695 13,9 L13,5 C13,3.8954305 13.8954305,3 15,3 Z" id="path-1"></path>
    </defs>
    <g id="/-medium" stroke="none" stroke-width="1" fill="none" fill-rule="evenodd">
        <mask id="mask-2" fill="white">
            <use xlink:href="#path-1"></use>
        </mask>
        <use id="view_medium" fill="#000000" xlink:href="#path-1"></use>
    </g>
</svg>