<?xml version="1.0" encoding="UTF-8"?>
<svg width="24px" height="24px" viewBox="0 0 24 24" version="1.1" xmlns="http://www.w3.org/2000/svg" xmlns:xlink="http://www.w3.org/1999/xlink">
    <!-- Generator: Sketch 52.5 (67469) - http://www.bohemiancoding.com/sketch -->
    <title> media</title>
    <desc>Created with Sketch.</desc>
    <defs>
        <path d="M20.9138907,3.0315379 L20.8159823,3 L3.17418109,3 L3.07627275,3 C2.49908415,3.07431668 2.06846394,3.5694793 2,4.17046126 L2,4.27624537 L2,16.8112033 C2,17.0542742 2.05866003,17.2591472 2.15656837,17.4436879 C2.38182944,17.87137 2.71434524,17.9971893 3.17421377,17.9971893 L9.98148359,17.9971893 L9.98148359,20.0037889 L8.38946668,20.0037889 C8.08616653,20.0037889 8,20.0929419 8,20.4193151 C8,20.7456883 8.08616653,21 8.38946668,21 L15.6007621,21 C15.9040622,21 16,20.745653 16,20.4193151 C16,20.0929066 15.9040949,20.0037889 15.6007621,20.0037889 L13.9792106,20.0037889 L13.9792106,17.9971893 L20.8159823,17.9971893 C21.2760469,17.9971893 21.6115039,17.87137 21.8336277,17.4436879 C21.9344446,17.2501263 22,17.0430333 22,16.8112033 L22,4.2762806 L22,4.1704965 C21.9315034,3.5694793 21.4716349,3.07431668 20.9138907,3.0315379 Z M20,5.09128959 L20,15.9087104 C20,15.9728138 19.9737648,16 19.9121781,16 L4.08782189,16 C4.02641106,16 4,15.9728138 4,15.9087104 L4,5.09128959 L4,5 L19.9999707,5 L19.9999707,5.09128959 L20,5.09128959 Z" id="path-1"></path>
    </defs>
    <g id="-media" stroke="none" stroke-width="1" fill="none" fill-rule="evenodd">
        <mask id="mask-2" fill="white">
            <use xlink:href="#path-1"></use>
        </mask>
        <use id="Shape" fill="#000000" fill-rule="nonzero" xlink:href="#path-1"></use>
    </g>
</svg>