<?xml version="1.0" encoding="UTF-8"?>
<svg width="24px" height="24px" viewBox="0 0 24 24" version="1.1" xmlns="http://www.w3.org/2000/svg" xmlns:xlink="http://www.w3.org/1999/xlink">
    <!-- Generator: Sketch 52.5 (67469) - http://www.bohemiancoding.com/sketch -->
    <title>menu</title>
    <desc>Created with Sketch.</desc>
    <defs>
        <path d="M16.8053276,7.10145363 C16.9254433,7.19111301 17,7.33199698 17,7.49042702 L17,12.759573 C17,13.0275592 16.7721818,13.25 16.4911539,13.25 L16.2578055,13.25 C15.966874,13.25 15.7489594,13.0304283 15.7489594,12.759573 L15.7489594,8.25052032 L11.2378254,8.25052032 C10.9669701,8.25052032 10.7473984,8.03260567 10.7473984,7.7416742 L10.7473984,7.5083258 C10.7473984,7.22729785 10.9698392,6.99947968 11.2378254,6.99947968 L16.5069714,6.99947968 C16.6192253,6.99947968 16.7226706,7.03690921 16.8053276,7.10145363 Z M8.2560448,15.7411615 L12.7713941,15.7411615 C13.0426828,15.7411615 13.2626058,15.9590761 13.2626058,16.2500076 L13.2626058,16.483356 C13.2626058,16.764384 13.039809,16.9922021 12.7713941,16.9922021 L7.81829125,16.9922021 C7.79515609,16.9951561 7.77143066,16.9966818 7.74719868,16.9966818 L7.51385028,16.9966818 C7.46345348,16.9966818 7.41476786,16.9895168 7.36880043,16.9762086 C7.23403143,16.9408678 7.12187136,16.8492011 7.05851956,16.7237306 C7.03502344,16.6784545 7.01857679,16.62931 7.01056703,16.5777049 C7.00533729,16.5472959 7.00260576,16.5157794 7.00260576,16.483356 L7.00260576,16.2500076 C7.00260576,16.2330369 7.00341823,16.2162603 7.00500416,16.1997161 L7.00500416,11.2278935 C7.00500416,10.9566048 7.22291881,10.7366818 7.51385028,10.7366818 L7.74719868,10.7366818 C8.02822663,10.7366818 8.2560448,10.9594785 8.2560448,11.2278935 L8.2560448,15.7411615 Z" id="path-1"></path>
    </defs>
    <g id="menu" stroke="none" stroke-width="1" fill="none" fill-rule="evenodd">
        <mask id="mask-2" fill="white">
            <use xlink:href="#path-1"></use>
        </mask>
        <use id="Dropdown-Arrow" fill="#000000" transform="translate(12.000000, 11.998341) rotate(-45.000000) translate(-12.000000, -11.998341) " xlink:href="#path-1"></use>
    </g>
</svg>