<?xml version="1.0" encoding="UTF-8"?>
<svg width="24px" height="24px" viewBox="0 0 24 24" version="1.1" xmlns="http://www.w3.org/2000/svg" xmlns:xlink="http://www.w3.org/1999/xlink">
    <!-- Generator: Sketch 52.5 (67469) - http://www.bohemiancoding.com/sketch -->
    <title>/message</title>
    <desc>Created with Sketch.</desc>
    <defs>
        <path d="M12.0144477,15.0056768 L12.0144477,15.0176721 L10.0146945,13.0224026 L8.52545168,14.4963813 L7.49768066,13.5073066 L9.00717268,12.0171396 L7.51806641,10.5313721 L8.50714111,9.50360107 L12.0114787,13.0143771 L15.5252292,9.5065701 L16.513798,10.4951389 L14.9975935,12.0151134 L16.4671454,13.5037231 L15.4407783,14.4886475 L13.9911759,13.0240334 L12.0144477,15.0056768 Z M4.99508929,5 L19.0049107,5 C20.1073772,5 21,5.89805351 21,7.00585866 L21,16.9941413 C21,18.1029399 20.1067681,19 19.0049107,19 L4.99508929,19 C3.8926228,19 3,18.1019465 3,16.9941413 L3,7.00585866 C3,5.89706013 3.8932319,5 4.99508929,5 Z M6.00684547,7 C5.45078007,7 5,7.4556644 5,7.99539757 L5,16.0046024 C5,16.5543453 5.44994876,17 6.00684547,17 L17.9931545,17 C18.5492199,17 19,16.5443356 19,16.0046024 L19,7.99539757 C19,7.44565467 18.5500512,7 17.9931545,7 L6.00684547,7 Z" id="path-1"></path>
    </defs>
    <g id="/message" stroke="none" stroke-width="1" fill="none" fill-rule="evenodd">
        <mask id="mask-2" fill="white">
            <use xlink:href="#path-1"></use>
        </mask>
        <use id="Message-Icon" fill="#000000" opacity="0.695482337" xlink:href="#path-1"></use>
    </g>
</svg>