<?xml version="1.0" encoding="UTF-8"?>
<svg width="24px" height="24px" viewBox="0 0 24 24" version="1.1" xmlns="http://www.w3.org/2000/svg" xmlns:xlink="http://www.w3.org/1999/xlink">
    <!-- Generator: Sketch 52.6 (67491) - http://www.bohemiancoding.com/sketch -->
    <title>mosaic</title>
    <desc>Created with Sketch.</desc>
    <defs>
        <path d="M13,2 L21.9558928,2 L21.9558928,10.9801194 L13,10.9801194 L13,2 Z M13.0482802,13.0621969 L21.9994133,13.0621969 L21.9994133,21.9598533 L13.0482802,21.9598533 L13.0482802,13.0621969 Z M15.0189591,15.0114262 L15.0189591,20.0037711 L20.0176884,20.0037711 L20.0176884,15.0114262 L15.0189591,15.0114262 Z M2.01220752,2 L10.9681004,2 L10.9681004,10.9801194 L2.01220752,10.9801194 L2.01220752,2 Z M4.01220752,4.00054574 L4.01220752,8.99289065 L9.01093689,8.99289065 L9.01093689,4.00054574 L4.01220752,4.00054574 Z M2,13.0221168 L10.9980789,13.0221168 L10.9980789,22 L2,22 L2,13.0221168 Z M4.01220752,15.0060032 L4.01220752,19.9983481 L9.01093689,19.9983481 L9.01093689,15.0060032 L4.01220752,15.0060032 Z" id="path-1"></path>
    </defs>
    <g id="mosaic" stroke="none" stroke-width="1" fill="none" fill-rule="evenodd">
        <mask id="mask-2" fill="white">
            <use xlink:href="#path-1"></use>
        </mask>
        <use id="icon-mosaic" fill="#000000" fill-rule="nonzero" xlink:href="#path-1"></use>
    </g>
</svg>