<svg width="24" height="24" viewBox="0 0 24 24" fill="none" xmlns="http://www.w3.org/2000/svg">
<rect x="6" y="2" width="4" height="4" rx="1" fill="black"/>
<rect x="2" y="6" width="4" height="4" rx="1" fill="black"/>
<rect x="6" y="10" width="4" height="4" rx="1" fill="black"/>
<rect x="14" y="10" width="4" height="4" rx="1" fill="black"/>
<rect x="14" y="2" width="4" height="4" rx="1" fill="black"/>
<rect x="2" y="14" width="4" height="4" rx="1" fill="black"/>
<rect x="10" y="6" width="4" height="4" rx="1" fill="black"/>
<rect x="18" y="6" width="4" height="4" rx="1" fill="black"/>
<rect x="14" y="18" width="4" height="4" rx="1" fill="black"/>
<rect x="10" y="14" width="4" height="4" rx="1" fill="black"/>
<rect x="6" y="18" width="4" height="4" rx="1" fill="black"/>
<rect x="18" y="14" width="4" height="4" rx="1" fill="black"/>
</svg>
