<?xml version="1.0" encoding="UTF-8"?>
<svg width="24px" height="24px" viewBox="0 0 24 24" version="1.1" xmlns="http://www.w3.org/2000/svg" xmlns:xlink="http://www.w3.org/1999/xlink">
    <!-- Generator: Sketch 52.6 (67491) - http://www.bohemiancoding.com/sketch -->
    <title>mosaic</title>
    <desc>Created with Sketch.</desc>
    <defs>
        <path d="M3,2 L10,2 C10.5522847,2 11,2.44771525 11,3 L11,10 C11,10.5522847 10.5522847,11 10,11 L3,11 C2.44771525,11 2,10.5522847 2,10 L2,3 C2,2.44771525 2.44771525,2 3,2 Z M4,4 L4,9 L9,9 L9,4 L4,4 Z M3,13 L10,13 C10.5522847,13 11,13.4477153 11,14 L11,21 C11,21.5522847 10.5522847,22 10,22 L3,22 C2.44771525,22 2,21.5522847 2,21 L2,14 C2,13.4477153 2.44771525,13 3,13 Z M4,15 L4,20 L9,20 L9,15 L4,15 Z M14,13 L21,13 C21.5522847,13 22,13.4477153 22,14 L22,21 C22,21.5522847 21.5522847,22 21,22 L14,22 C13.4477153,22 13,21.5522847 13,21 L13,14 C13,13.4477153 13.4477153,13 14,13 Z M15,15 L15,20 L20,20 L20,15 L15,15 Z M14,2 L21,2 C21.5522847,2 22,2.44771525 22,3 L22,10 C22,10.5522847 21.5522847,11 21,11 L14,11 C13.4477153,11 13,10.5522847 13,10 L13,3 C13,2.44771525 13.4477153,2 14,2 Z" id="path-1"></path>
    </defs>
    <g id="mosaic" stroke="none" stroke-width="1" fill="none" fill-rule="evenodd">
        <mask id="mask-2" fill="white">
            <use xlink:href="#path-1"></use>
        </mask>
        <use id="Mask" fill="#000000" xlink:href="#path-1"></use>
    </g>
</svg>