<?xml version="1.0" encoding="UTF-8"?>
<svg width="24px" height="24px" viewBox="0 0 24 24" version="1.1" xmlns="http://www.w3.org/2000/svg" xmlns:xlink="http://www.w3.org/1999/xlink">
    <!-- Generator: Sketch 52.5 (67469) - http://www.bohemiancoding.com/sketch -->
    <title> mp4</title>
    <desc>Created with Sketch.</desc>
    <defs>
        <path d="M18.9896282,16 L18.9896282,13.9562698 L16.0075363,13.9562698 L16.0075363,13.044998 L18.9896282,8 L20.0010809,8 L20.0010809,13.044998 L22.0273785,13.044998 L22.0273785,13.9562698 L20.0010809,13.9562698 L20.0010809,16 L18.9896282,16 Z M18.9944569,10.0057621 L17.3324249,13.0057621 L18.9944569,13.0057621 L18.9944569,10.0057621 Z M7.99827586,16 L7.99827586,10.3824051 L5.96598369,16 L5.0247549,16 L3.00416763,10.3859525 L3.00416763,16 L2.02,16 L2.02,8 L3.48970459,8 L5.50529945,13.48989 L7.53029541,8 L9,8 L9,16 L7.84867918,16 L7.99827586,16 Z M10.0162135,8 L12.2598306,8 C13.7788241,8 14.84,9.01951046 14.84,10.4781838 C14.84,11.936857 13.7795306,12.9563675 12.2598306,12.9563675 L10.9699974,12.9563675 L10.9699974,16 L10.01692,16 L10.0162135,8 Z M14,10.5 C14,9.60297357 13.4055223,9 12.5210929,9 L10.9726847,9 L10.9726847,12 L12.5210929,12 C13.4055223,12 14,11.3970264 14,10.5 Z M22,18 L22,18.7678049 C22,20.2613856 21.2475455,22 18.6302392,22 L4.99420208,22 C4.01220752,22 2,21.3503774 2,18.7678049 L2,18 L4.00917004,18 L4.00917004,18.7678049 C4.00917004,19.4039379 4.65751817,20 5.60461032,20 L18.6302392,20 C19.4538699,20 19.9986018,19.2857143 19.9986018,18.7678049 L19.9986018,18 L22,18 Z M22,4.99420208 L22,6 L20,6 L20,5.41462247 C20,4.54425368 19.2654218,4 18.6562356,4 L5.3147583,4 C4.72842407,4 4.01220752,4.61662292 4.01220752,5.25154114 L4.01220752,6 L2,6 L2,4.99420208 C2,3.34054993 3.34331197,2 4.99420208,2 L19.0057979,2 C20.6594501,2 22,3.34331197 22,4.99420208 Z" id="path-1"></path>
    </defs>
    <g id="-mp4" stroke="none" stroke-width="1" fill="none" fill-rule="evenodd">
        <mask id="mask-2" fill="white">
            <use xlink:href="#path-1"></use>
        </mask>
        <use id="mp4" fill="#000000" xlink:href="#path-1"></use>
    </g>
</svg>