<?xml version="1.0" encoding="UTF-8"?>
<svg width="24px" height="24px" viewBox="0 0 24 24" version="1.1" xmlns="http://www.w3.org/2000/svg" xmlns:xlink="http://www.w3.org/1999/xlink">
    <!-- Generator: Sketch 52.5 (67469) - http://www.bohemiancoding.com/sketch -->
    <title>/notifications</title>
    <desc>Created with Sketch.</desc>
    <defs>
        <path d="M5.515,11.60625 C6.12875,11.5375 7.4,11.44375 8,11.75 C9.03875,12.27875 10.1675,13.56 10.1675,13.56 L7.675,16.45375 C8.77125,17.405 10.185,18 11.75,18 C15.2025,18 18,15.20125 18,11.75 C18,11.15875 17.8925,10.5975 17.73875,10.05625 C17.23,10.65 16.19875,11.41125 16.19875,11.41125 C15.32375,11.31375 15.74875,12.39625 15.74875,12.39625 C16.1175,14.79125 14.8475,15.08625 14.8475,15.08625 C13.11625,16.865 11.75,13 11.75,13 C11.43,10.84875 11.245,10.16 11.245,10.16 C9.02875,8.775 11.2125,8.27 11.6825,8.19 C11.6875,8.18875 11.69,8.19125 11.69625,8.19 C11.80875,8.17375 11.78125,8.1725 11.6825,8.19 C11.055,8.27625 11.175,7.895 10.795,7.205 C10.41125,6.50875 9.9425,7.3225 9.89375,7.205 C9.84625,7.08875 9.625,8.48 8.99375,8.6825 C8.3625,8.885 8.54375,7.205 8.54375,7.205 C7.325,9.07125 6.92625,8.595 6.79875,7.98125 C6.02875,8.99625 5.54625,10.24125 5.515,11.60625 M11.75,20.5 C6.9175,20.5 3,16.5825 3,11.75 C3,6.9175 6.9175,3 11.75,3 C16.5825,3 20.5,6.9175 20.5,11.75 C20.5,16.5825 16.5825,20.5 11.75,20.5" id="path-1"></path>
    </defs>
    <g id="/notifications" stroke="none" stroke-width="1" fill="none" fill-rule="evenodd">
        <mask id="mask-2" fill="white">
            <use xlink:href="#path-1"></use>
        </mask>
        <use id="Network-Icon" fill="#000000" xlink:href="#path-1"></use>
    </g>
</svg>