<?xml version="1.0" encoding="UTF-8"?>
<svg width="24px" height="24px" viewBox="0 0 24 24" version="1.1" xmlns="http://www.w3.org/2000/svg" xmlns:xlink="http://www.w3.org/1999/xlink">
    <!-- Generator: Sketch 52.5 (67469) - http://www.bohemiancoding.com/sketch -->
    <title> notifiations</title>
    <desc>Created with Sketch.</desc>
    <defs>
        <path d="M10.6857213,20.3857234 C10.2642585,19.9641098 10.0534517,19.4544969 10.0534517,18.8570352 C10.0534517,18.7260909 10.1189992,18.6605434 10.2499435,18.6605434 C10.3808878,18.6605434 10.4464353,18.7260909 10.4464353,18.8570352 C10.4464353,19.3399771 10.6203245,19.755262 10.968103,20.1031911 C11.3160321,20.4511202 11.7313169,20.6250094 12.2142588,20.6250094 C12.3452031,20.6250094 12.4109013,20.6907076 12.4109013,20.8215012 C12.4109013,20.9524455 12.3452031,21.0178423 12.2142588,21.0178423 C11.6167971,21.0178423 11.1071842,20.8071863 10.6857213,20.3857234 Z M17.6275628,8 C17.6275628,6.64957089 17.2370423,5.86323381 16.4558515,5.06928035 C15.6742111,4.27532688 14.5997553,3.79645345 13.2323342,3.63281073 C13.2972211,3.48559256 13.3298894,3.33415525 13.3298894,3.17864946 C13.3298894,2.85121335 13.2160001,2.5727495 12.9880716,2.34370997 C12.7602929,2.11451976 12.4835119,2 12.1578784,2 C11.8323947,2 11.5556137,2.11451976 11.3276852,2.34370997 C11.0997567,2.57290019 10.9858673,2.85121335 10.9858673,3.17864946 C10.9858673,3.33415525 11.0183857,3.48544188 11.0835724,3.63281073 C9.71615128,3.79660413 8.64169546,4.27532688 7.86035479,5.06928035 C7.07901411,5.86323381 6.68834377,6.93534976 6.68834377,8.28577886 C6.68834377,10.4301614 6.29362736,12.4701201 5.5040447,14.4056548 C4.71446203,16.3413401 3.54649708,15.9681235 2,17.2858542 C2,17.7113855 2.15464971,18.079657 2.46394912,18.3906686 C2.77324854,18.7016801 3.14100555,19.0056478 3.56434414,19.0056478 L9.03402859,19.0056478 C9.03402859,19.8732856 9.33761915,20.4655859 9.94812585,21.0793214 C10.5586325,21.6930569 11.2953166,22 12.1580282,22 C13.0208897,22 13.7575737,21.6930569 14.3677807,21.0793214 C14.9782874,20.4655859 15.2850537,19.8732856 15.2850537,19.0056478 L20.7547382,19.0056478 C21.1779269,19.0056478 21.5429577,18.7018308 21.8519575,18.3906686 C22.1612569,18.079657 21.8898979,17.7113855 21.8898979,17.2858542 C20.3437005,15.9681235 19.6015944,16.3413401 18.8115622,14.4056548 C18.0222792,12.4701201 17.6275628,10.1443826 17.6275628,8 Z" id="path-1"></path>
    </defs>
    <g id="-notifiations" stroke="none" stroke-width="1" fill="none" fill-rule="evenodd">
        <mask id="mask-2" fill="white">
            <use xlink:href="#path-1"></use>
        </mask>
        <use id="notification" fill="#000000" xlink:href="#path-1"></use>
    </g>
</svg>