<?xml version="1.0" encoding="UTF-8"?>
<svg width="24px" height="24px" viewBox="0 0 24 24" version="1.1" xmlns="http://www.w3.org/2000/svg" xmlns:xlink="http://www.w3.org/1999/xlink">
    <!-- Generator: Sketch 52.6 (67491) - http://www.bohemiancoding.com/sketch -->
    <title>ocr</title>
    <desc>Created with Sketch.</desc>
    <defs>
        <path d="M6.06765587,4.8 C5.36867587,4.8 4.8,5.36867587 4.8,6.06765587 L4.8,17.9323641 C4.8,18.6313441 5.36867587,19.2 6.06765587,19.2 L17.9323441,19.2 C18.6313241,19.2 19.2,18.6313441 19.2,17.9323641 L19.2,6.06765587 C19.2,5.36867587 18.6313241,4.8 17.9323441,4.8 L6.06765587,4.8 Z M5.69300979,21 C4.20809876,21 3,19.7919224 3,18.3070114 L3,5.69300979 C3,4.20807757 4.20809876,3 5.69300979,3 L18.3069902,3 C19.7919224,3 21,4.20807757 21,5.69300979 L21,18.3070114 C21,19.7919224 19.7919224,21 18.3069902,21 L5.69300979,21 Z M16.615884,11.8745949 L15.6348182,11.8745949 L15.6348182,10.4753376 L16.615884,10.4753376 C17.01806,10.4753376 17.3105516,10.7459486 17.3105516,11.1683659 C17.3105516,11.5973835 17.01806,11.8745949 16.615884,11.8745949 L16.615884,11.8745949 Z M18.0722487,14.19789 L17.0729022,12.4686192 C17.5664818,12.3828157 18.0417808,11.9537981 18.0417808,11.1749662 C18.0417808,10.3565327 17.5116397,9.79550972 16.7072876,9.79550972 L14.9218698,9.79550972 L14.9218698,14.19789 L15.6348182,14.19789 L15.6348182,12.5544227 L16.3477666,12.5544227 L17.2435223,14.19789 L18.0722487,14.19789 Z M12.7220888,14.2770933 C13.538628,14.2770933 14.0443948,13.8084741 14.3551672,13.2804524 L13.7458096,12.9504389 C13.5508151,13.3134538 13.1547327,13.5906651 12.7220888,13.5906651 C11.9177367,13.5906651 11.3205663,12.9174376 11.3205663,12 C11.3205663,11.0693619 11.9177367,10.4093349 12.7220888,10.4093349 C13.1547327,10.4093349 13.5508151,10.6799459 13.7458096,11.0495611 L14.3490736,10.706347 C14.0504884,10.1783254 13.538628,9.72290675 12.7220888,9.72290675 C11.5216543,9.72290675 10.5893371,10.6403443 10.5893371,12 C10.5893371,13.3530554 11.5216543,14.2770933 12.7220888,14.2770933 L12.7220888,14.2770933 Z M8.00566081,13.5906651 C7.18302803,13.5906651 6.65898047,12.904237 6.65898047,12 C6.65898047,11.0891627 7.18302803,10.4093349 8.00566081,10.4093349 C8.82220002,10.4093349 9.35234115,11.0891627 9.35234115,12 C9.35234115,12.904237 8.82220002,13.5906651 8.00566081,13.5906651 L8.00566081,13.5906651 Z M8.00566081,14.2770933 C9.21828247,14.2770933 10.0835703,13.3134538 10.0835703,12 C10.0835703,10.6865462 9.21828247,9.72290675 8.00566081,9.72290675 C6.78694557,9.72290675 5.92775133,10.6865462 5.92775133,12 C5.92775133,13.3134538 6.78694557,14.2770933 8.00566081,14.2770933 L8.00566081,14.2770933 Z" id="path-1"></path>
    </defs>
    <g id="ocr" stroke="none" stroke-width="1" fill="none" fill-rule="evenodd">
        <mask id="mask-2" fill="white">
            <use xlink:href="#path-1"></use>
        </mask>
        <use id="Mask" fill="#000000" fill-rule="nonzero" xlink:href="#path-1"></use>
    </g>
</svg>