<?xml version="1.0" encoding="UTF-8"?>
<svg width="24px" height="24px" viewBox="0 0 24 24" version="1.1" xmlns="http://www.w3.org/2000/svg" xmlns:xlink="http://www.w3.org/1999/xlink">
    <!-- Generator: Sketch 52.5 (67469) - http://www.bohemiancoding.com/sketch -->
    <title>/ palette</title>
    <desc>Created with Sketch.</desc>
    <defs>
        <path d="M11.4023082,20.999939 C5.29135019,20.9822526 10.5337207,16.6812539 8.58109526,14.6274143 C6.92284921,12.8832133 2.0196723,17.0552569 2.00008687,11.9999695 C1.97891686,6.5356783 5.82867301,3 11.7140306,3 C17.5993882,3 22,6.53563951 22,11.9999695 C22,17.4642995 17.2876354,21.0169725 11.4023082,20.999939 Z M7.50887583,9.48705702 C8.40059667,9.48705702 9.12347925,8.77340998 9.12347925,7.89308175 C9.12347925,7.01275351 8.40059667,6.29910648 7.50887583,6.29910648 C6.61715498,6.29910648 5.8942724,7.01275351 5.8942724,7.89308175 C5.8942724,8.77340998 6.61715498,9.48705702 7.50887583,9.48705702 Z M11.7601621,8.34850325 C12.651883,8.34850325 13.3747656,7.63485622 13.3747656,6.75452798 C13.3747656,5.87419975 12.651883,5.16055271 11.7601621,5.16055271 C10.8684413,5.16055271 10.1455587,5.87419975 10.1455587,6.75452798 C10.1455587,7.63485622 10.8684413,8.34850325 11.7601621,8.34850325 Z M16.226909,9.48705702 C17.1186299,9.48705702 17.8415125,8.77340998 17.8415125,7.89308175 C17.8415125,7.01275351 17.1186299,6.29910648 16.226909,6.29910648 C15.3351882,6.29910648 14.6123056,7.01275351 14.6123056,7.89308175 C14.6123056,8.77340998 15.3351882,9.48705702 16.226909,9.48705702 Z M16.226909,17.4084514 C17.1186299,17.4084514 17.8415125,16.6948044 17.8415125,15.8144762 C17.8415125,14.9341479 17.1186299,14.2205009 16.226909,14.2205009 C15.3351882,14.2205009 14.6123056,14.9341479 14.6123056,15.8144762 C14.6123056,16.6948044 15.3351882,17.4084514 16.226909,17.4084514 Z M18.7117841,13.4477542 C19.603505,13.4477542 20.3263876,12.7341072 20.3263876,11.853779 C20.3263876,10.9734507 19.603505,10.2598037 18.7117841,10.2598037 C17.8200633,10.2598037 17.0971807,10.9734507 17.0971807,11.853779 C17.0971807,12.7341072 17.8200633,13.4477542 18.7117841,13.4477542 Z M5.39401149,13.2670555 C6.28573234,13.2670555 7.00861492,12.5534085 7.00861492,11.6730802 C7.00861492,10.792752 6.28573234,10.079105 5.39401149,10.079105 C4.50229064,10.079105 3.77940807,10.792752 3.77940807,11.6730802 C3.77940807,12.5534085 4.50229064,13.2670555 5.39401149,13.2670555 Z M11.7601621,18.7321136 C12.651883,18.7321136 13.3747656,18.0184666 13.3747656,17.1381383 C13.3747656,16.2578101 12.651883,15.5441631 11.7601621,15.5441631 C10.8684413,15.5441631 10.1455587,16.2578101 10.1455587,17.1381383 C10.1455587,18.0184666 10.8684413,18.7321136 11.7601621,18.7321136 Z" id="path-1"></path>
    </defs>
    <g id="/-palette" stroke="none" stroke-width="1" fill="none" fill-rule="evenodd">
        <mask id="mask-2" fill="white">
            <use xlink:href="#path-1"></use>
        </mask>
        <use id="Mask" fill="#000000" xlink:href="#path-1"></use>
    </g>
</svg>