<?xml version="1.0" encoding="UTF-8"?>
<svg width="24px" height="24px" viewBox="0 0 24 24" version="1.1" xmlns="http://www.w3.org/2000/svg" xmlns:xlink="http://www.w3.org/1999/xlink">
    <!-- Generator: Sketch 52.5 (67469) - http://www.bohemiancoding.com/sketch -->
    <title> pdf</title>
    <desc>Created with Sketch.</desc>
    <defs>
        <path d="M12.719771,2.06809524 L5.37761905,2.06809524 C5.03285714,2.06809524 4.73968254,2.18873016 4.49825397,2.43015873 C4.2568254,2.67142857 4.13619048,2.96460317 4.13619048,3.30952381 L4.13619048,20.6904762 C4.13619048,21.0353968 4.2568254,21.3285714 4.49825397,21.5698413 C4.73968254,21.8111111 5.03285714,21.9319048 5.37761905,21.9319048 L18.7588889,21.9319048 C19.1036508,21.9319048 19.3966667,21.8111111 19.6379365,21.5698413 C19.8793651,21.3284127 20,21.0353968 20,20.6904762 L20,9.54090717 C20,8.98616156 19.6379365,8.7275704 19.6379365,8.7275704 L13.4753122,2.43015873 C13.4753122,2.43015873 13.2169119,2.06809524 12.719771,2.06809524 Z M16.0518595,12.7206958 C15.9245453,12.6791326 15.8019033,12.6580623 15.6836413,12.6580623 C15.549319,12.6580623 15.4570455,12.6854825 15.4065286,12.7403229 C15.3563038,12.7951633 15.3311914,12.8921442 15.3311914,13.0315542 L15.3311914,13.297963 L15.8956368,13.297963 L15.8956368,13.8330898 L15.3311914,13.8330898 L15.3311914,16.0368074 L14.6473159,16.0368074 L14.6473159,13.8330898 L14.2948659,13.8330898 L14.2948659,13.297963 L14.6473159,13.297963 L14.6473159,13.0315542 C14.6473159,12.6921211 14.7325813,12.4467825 14.9031122,12.2952499 C15.073643,12.1437172 15.3300233,12.0680952 15.6728371,12.0680952 C15.8337318,12.0680952 16.0042627,12.0897428 16.1844297,12.1333264 L16.0518595,12.7206958 Z M13.1872913,15.7703985 C13.0599772,15.8766157 12.9256549,15.9611853 12.7843246,16.0238188 C12.6429942,16.0864523 12.4823915,16.1176248 12.3022245,16.1176248 C11.9524026,16.1176248 11.6846341,15.9932237 11.499211,15.7444215 C11.3134959,15.4953307 11.2209303,15.143775 11.2209303,14.6894657 C11.2209303,14.2247656 11.32284,13.8636849 11.5269514,13.6059351 C11.7310629,13.3484739 12.0175197,13.2194547 12.3869059,13.2194547 C12.5177241,13.2194547 12.6517543,13.246009 12.7895807,13.2991176 C12.927407,13.3522262 13.0415809,13.4197664 13.1315184,13.5014497 L13.1315184,12.1489126 L13.8153939,12.1489126 L13.8153939,16.0368074 L13.1872913,16.0368074 L13.1872913,15.7703985 Z M13.1315184,14.0576467 C13.0591012,13.9932814 12.9694557,13.936132 12.8625819,13.886487 C12.7557081,13.8371306 12.6464982,13.8123081 12.5352444,13.8123081 C12.3515733,13.8123081 12.2041108,13.8902392 12.0928569,14.0458127 C11.9813111,14.2016749 11.9258301,14.412666 11.9258301,14.6790749 C11.9258301,14.9420201 11.9713829,15.1481045 12.0621964,15.2979053 C12.153302,15.4477062 12.2940483,15.5224623 12.4850195,15.5224623 C12.5980254,15.5224623 12.7133674,15.4967739 12.8307533,15.4453971 C12.9481393,15.3940203 13.048589,15.3308095 13.1315184,15.2560534 L13.1315184,14.0576467 Z M10.2085493,15.9401151 C10.0406465,16.0584549 9.84033111,16.1176248 9.60701919,16.1176248 C9.29953802,16.1176248 9.03731762,16.0229529 8.82006597,15.833032 L8.82006597,17.0680952 L8.13619048,17.0680952 L8.13619048,13.297963 L8.76692107,13.297963 L8.76692107,13.5666809 C8.89423521,13.458732 9.02797346,13.3738737 9.16842782,13.3121061 C9.30888218,13.2503385 9.47006889,13.2194547 9.65198794,13.2194547 C10.0035618,13.2194547 10.2713303,13.3412581 10.4550014,13.5851535 C10.6386725,13.8287602 10.7306541,14.1829137 10.7306541,14.6476138 C10.7306541,14.9420201 10.6856853,15.2012131 10.5954558,15.42577 C10.5052263,15.650327 10.3764521,15.8217753 10.2085493,15.9401151 Z M9.88529986,14.0354219 C9.79156629,13.886487 9.65198794,13.8123081 9.46656483,13.8123081 C9.35531096,13.8123081 9.24084503,13.8379965 9.12345906,13.8890847 C9.00578109,13.9404615 8.90474739,14.0036722 8.82006597,14.0784283 L8.82006597,15.2768351 C8.89248318,15.341489 8.98212869,15.3983498 9.08900248,15.4479948 C9.19587628,15.4976398 9.30567012,15.5224623 9.41896803,15.5224623 C9.60614317,15.5224623 9.75418966,15.4436653 9.86281548,15.2860713 C9.97144131,15.1284774 10.0257542,14.919218 10.0257542,14.6582932 C10.0257542,14.3918844 9.97874143,14.1843569 9.88529986,14.0354219 Z M6.63109656,19.9823111 C6.35776748,19.9823111 6.13619048,19.7527517 6.13619048,19.4845584 L6.13619048,12.0252032 L6.13619048,4.56584798 C6.13619048,4.29094673 6.36315998,4.06809524 6.64266996,4.06809524 L11.4183899,4.06809524 L11.4183899,9.15341718 C11.4183899,9.49833781 11.5390248,9.79135368 11.7804533,10.0327823 C12.0218819,10.2740521 12.3148978,10.3948457 12.6599772,10.3948457 L18.0056914,10.3948457 L18.0056914,19.4803462 C18.0056914,19.7575738 17.7791812,19.9823111 17.5107854,19.9823111 L6.63109656,19.9823111 Z M17.7723805,9.70446923 L12.4392165,9.70446923 C12.2718599,9.70446923 12.1361905,9.56514236 12.1361905,9.40143328 L12.1361905,4.06809524 C12.1361905,4.06809524 17.7723805,9.70446923 17.7723805,9.70446923 Z" id="path-1"></path>
    </defs>
    <g id="-pdf" stroke="none" stroke-width="1" fill="none" fill-rule="evenodd">
        <mask id="mask-2" fill="white">
            <use xlink:href="#path-1"></use>
        </mask>
        <use id="Shape" fill="#000000" xlink:href="#path-1"></use>
    </g>
</svg>