<?xml version="1.0" encoding="UTF-8"?>
<svg width="24px" height="24px" viewBox="0 0 24 24" version="1.1" xmlns="http://www.w3.org/2000/svg" xmlns:xlink="http://www.w3.org/1999/xlink">
    <!-- Generator: Sketch 53 (72520) - https://sketchapp.com -->
    <title>people</title>
    <desc>Created with Sketch.</desc>
    <g id="people" stroke="none" stroke-width="1" fill="none" fill-rule="evenodd">
        <g id="Mask" transform="translate(-0.000600, 1.500000)" fill="#000000">
            <path d="M15.2956,10.466 C17.9996,12.002 19.8666,15.343 19.8666,19.219 C19.8666,19.421 19.8616,19.621 19.8526,19.819 C19.8236,20.35 19.3886,20.761 18.8686,20.761 C18.8506,20.761 18.8336,20.76 18.8146,20.759 C18.2706,20.73 17.8546,20.261 17.8836,19.712 C17.8916,19.549 17.8956,19.384 17.8956,19.219 C17.8956,14.992 15.2636,11.553 12.0296,11.553 C8.7336,11.553 6.1016,14.992 6.1016,19.219 C6.1016,19.386 6.1056,19.553 6.1146,19.717 C6.1396,20.267 5.7206,20.733 5.1776,20.76 C4.6346,20.765 4.1706,20.362 4.1446,19.814 C4.1356,19.617 4.1306,19.419 4.1306,19.219 C4.1306,15.353 5.9876,12.02 8.6566,10.478 C7.2026,9.43 6.2486,7.715 6.2486,5.777 C6.2486,2.592 8.8146,9.9475983e-14 11.9686,9.9475983e-14 C15.1226,9.9475983e-14 17.6876,2.592 17.6876,5.777 C17.6876,7.708 16.7416,9.417 15.2956,10.466 Z M8.2196,5.777 C8.2196,7.863 9.8996,9.561 11.9656,9.562 L11.9706,9.562 C14.0366,9.561 15.7176,7.863 15.7176,5.777 C15.7176,3.689 14.0356,1.991 11.9686,1.991 C9.9016,1.991 8.2196,3.689 8.2196,5.777 Z" id="Shape"></path>
            <path d="M4.809,12.0832 C5.178,11.5572 5.58,11.0602 6.032,10.6172 L6.201,10.4522 C6.201,10.4522 6.33,10.3282 6.272,10.1262 C6.231,9.9842 6.084,9.9132 5.932,9.8942 C4.528,9.7242 3.426,8.5442 3.426,7.0842 C3.426,6.0252 4.01,5.1112 4.862,4.6232 C4.982,3.8702 5.214,3.1552 5.545,2.4982 C3.332,2.8382 1.626,4.7552 1.626,7.0842 C1.626,8.5862 2.346,9.9102 3.442,10.7622 C1.403,12.0352 1.11022302e-14,14.6292 1.11022302e-14,17.6242 C1.11022302e-14,17.7822 0.005,17.9392 0.012,18.0962 C0.036,18.5982 0.456,18.9702 0.955,18.9592 C1.452,18.9352 1.834,18.5092 1.81,18.0072 C1.804,17.8802 1.8,17.7522 1.8,17.6242 C1.8,15.0672 3.049,12.8922 4.809,12.0832" id="Fill-1"></path>
            <path d="M19.1891382,12.0832 C18.8211382,11.5572 18.4181382,11.0602 17.9651382,10.6172 L17.7971382,10.4522 C17.7971382,10.4522 17.6681382,10.3282 17.7251382,10.1262 C17.7671382,9.9842 17.9141382,9.9132 18.0661382,9.8942 C19.4701382,9.7242 20.5721382,8.5442 20.5721382,7.0842 C20.5721382,6.0252 19.9891382,5.1112 19.1361382,4.6232 C19.0161382,3.8702 18.7841382,3.1552 18.4531382,2.4982 C20.6661382,2.8382 22.3721382,4.7552 22.3721382,7.0842 C22.3721382,8.5862 21.6521382,9.9102 20.5561382,10.7622 C22.5941382,12.0352 23.9981382,14.6292 23.9981382,17.6242 C23.9981382,17.7822 23.9931382,17.9392 23.9861382,18.0962 C23.9611382,18.5982 23.5421382,18.9702 23.0431382,18.9592 C22.5461382,18.9352 22.1641382,18.5092 22.1881382,18.0072 C22.1941382,17.8802 22.1981382,17.7522 22.1981382,17.6242 C22.1981382,15.0672 20.9491382,12.8922 19.1891382,12.0832" id="Fill-4"></path>
        </g>
    </g>
</svg>