<svg width="24" height="24" viewBox="0 0 24 24" fill="none" xmlns="http://www.w3.org/2000/svg">
<path fill-rule="evenodd" clip-rule="evenodd" d="M5.78524 12.594C6.23924 12.555 6.70824 12.174 6.70824 11.693C6.70824 11.204 6.36624 10.833 5.89424 10.773C5.42024 10.713 5.00024 10.628 4.58924 10.367C3.77524 9.85199 3.28824 8.92199 3.28824 7.96299C3.28824 6.65099 4.16024 5.55399 5.33024 5.24599C5.51824 4.57399 5.79824 3.94499 6.15724 3.36999C6.09924 3.36699 6.04624 3.35199 5.98824 3.35199C3.54624 3.35199 1.56124 5.41999 1.56124 7.96299C1.56124 9.44999 2.25124 10.761 3.30424 11.605C1.34724 12.865 0.000244141 15.434 0.000244141 18.399C0.000244141 18.555 0.00424414 18.711 0.0112441 18.866C0.0342441 19.363 0.438244 19.732 0.916244 19.721C1.39324 19.697 1.76124 19.275 1.73724 18.779C1.73124 18.653 1.72724 18.526 1.72724 18.399C1.72724 15.315 3.50624 12.789 5.78524 12.594Z" fill="black"/>
<path fill-rule="evenodd" clip-rule="evenodd" d="M18.213 12.594C17.759 12.555 17.29 12.174 17.29 11.693C17.29 11.204 17.633 10.833 18.105 10.773C18.577 10.713 18.998 10.628 19.409 10.367C20.223 9.85199 20.709 8.92199 20.709 7.96399C20.709 6.65099 19.838 5.55399 18.668 5.24599C18.481 4.57399 18.2 3.94499 17.841 3.36999C17.899 3.36699 17.952 3.35199 18.011 3.35199C20.451 3.35199 22.438 5.42099 22.438 7.96399C22.438 9.44999 21.747 10.761 20.694 11.605C22.651 12.865 23.998 15.434 23.998 18.399C23.998 18.555 23.994 18.712 23.986 18.866C23.964 19.363 23.561 19.732 23.082 19.721C22.605 19.697 22.237 19.275 22.261 18.779C22.267 18.653 22.271 18.526 22.271 18.399C22.271 15.315 20.492 12.789 18.213 12.594Z" fill="black"/>
<path fill-rule="evenodd" clip-rule="evenodd" d="M15.1273 11.862C17.7203 13.383 19.5093 16.69 19.5093 20.528C19.5093 20.727 19.5053 20.926 19.4953 21.122C19.4683 21.648 19.0513 22.055 18.5533 22.055C18.5353 22.055 18.5183 22.054 18.5013 22.053C17.9793 22.024 17.5803 21.56 17.6073 21.016C17.6163 20.855 17.6203 20.692 17.6203 20.528C17.6203 16.343 15.0973 12.938 11.9973 12.938C8.83729 12.938 6.31429 16.343 6.31429 20.528C6.31429 20.694 6.31929 20.859 6.32629 21.022C6.35129 21.565 5.94929 22.027 5.42829 22.054C4.90829 22.059 4.46429 21.66 4.43929 21.117C4.43029 20.922 4.42529 20.726 4.42529 20.528C4.42529 16.7 6.20529 13.4 8.76429 11.874C7.36929 10.836 6.45529 9.138 6.45529 7.219C6.45529 4.066 8.91529 1.5 11.9383 1.5C14.9613 1.5 17.4213 4.066 17.4213 7.219C17.4213 9.131 16.5123 10.823 15.1273 11.862ZM8.34529 7.219C8.34529 9.285 9.95529 10.965 11.9353 10.967C11.9363 10.967 11.9373 10.967 11.9383 10.967C11.9393 10.967 11.9393 10.967 11.9403 10.967C13.9213 10.965 15.5313 9.285 15.5313 7.219C15.5313 5.152 13.9193 3.47 11.9383 3.47C9.95629 3.47 8.34529 5.152 8.34529 7.219Z" fill="black"/>
</svg>
