<?xml version="1.0" encoding="UTF-8"?>
<svg width="24px" height="24px" viewBox="0 0 24 24" version="1.1" xmlns="http://www.w3.org/2000/svg" xmlns:xlink="http://www.w3.org/1999/xlink">
    <!-- Generator: Sketch 53 (72520) - https://sketchapp.com -->
    <title>people</title>
    <desc>Created with Sketch.</desc>
    <g id="people" stroke="none" stroke-width="1" fill="none" fill-rule="evenodd">
        <g id="Mask" transform="translate(0.000200, 1.500000)" fill="#000000">
            <path d="M5.785,11.094 C6.239,11.055 6.708,10.674 6.708,10.193 C6.708,9.704 6.366,9.333 5.894,9.273 C5.42,9.213 5,9.128 4.589,8.867 C3.775,8.352 3.288,7.422 3.288,6.463 C3.288,5.151 4.16,4.054 5.33,3.746 C5.518,3.074 5.798,2.445 6.157,1.87 C6.099,1.867 6.046,1.852 5.988,1.852 C3.546,1.852 1.561,3.92 1.561,6.463 C1.561,7.95 2.251,9.261 3.304,10.105 C1.347,11.365 4.17443857e-14,13.934 4.17443857e-14,16.899 C4.17443857e-14,17.055 0.004,17.211 0.011,17.366 C0.034,17.863 0.438,18.232 0.916,18.221 C1.393,18.197 1.761,17.775 1.737,17.279 C1.731,17.153 1.727,17.026 1.727,16.899 C1.727,13.815 3.506,11.289 5.785,11.094" id="Fill-1"></path>
            <path d="M18.2128,11.094 C17.7588,11.055 17.2898,10.674 17.2898,10.193 C17.2898,9.704 17.6328,9.333 18.1048,9.273 C18.5768,9.213 18.9978,9.128 19.4088,8.867 C20.2228,8.352 20.7088,7.422 20.7088,6.464 C20.7088,5.151 19.8378,4.054 18.6678,3.746 C18.4808,3.074 18.1998,2.445 17.8408,1.87 C17.8988,1.867 17.9518,1.852 18.0108,1.852 C20.4508,1.852 22.4378,3.921 22.4378,6.464 C22.4378,7.95 21.7468,9.261 20.6938,10.105 C22.6508,11.365 23.9978,13.934 23.9978,16.899 C23.9978,17.055 23.9938,17.212 23.9858,17.366 C23.9638,17.863 23.5608,18.232 23.0818,18.221 C22.6048,18.197 22.2368,17.775 22.2608,17.279 C22.2668,17.153 22.2708,17.026 22.2708,16.899 C22.2708,13.815 20.4918,11.289 18.2128,11.094" id="Fill-3"></path>
            <path d="M15.127,10.362 C17.72,11.883 19.509,15.19 19.509,19.028 C19.509,19.227 19.505,19.426 19.495,19.622 C19.468,20.148 19.051,20.555 18.553,20.555 C18.535,20.555 18.518,20.554 18.501,20.553 C17.979,20.524 17.58,20.06 17.607,19.516 C17.616,19.355 17.62,19.192 17.62,19.028 C17.62,14.843 15.097,11.438 11.997,11.438 C8.837,11.438 6.314,14.843 6.314,19.028 C6.314,19.194 6.319,19.359 6.326,19.522 C6.351,20.065 5.949,20.527 5.428,20.554 C4.908,20.559 4.464,20.16 4.439,19.617 C4.43,19.422 4.425,19.226 4.425,19.028 C4.425,15.2 6.205,11.9 8.764,10.374 C7.369,9.336 6.455,7.638 6.455,5.719 C6.455,2.566 8.915,3.19744231e-14 11.938,3.19744231e-14 C14.961,3.19744231e-14 17.421,2.566 17.421,5.719 C17.421,7.631 16.512,9.323 15.127,10.362 Z M8.345,5.719 C8.345,7.785 9.955,9.465 11.935,9.467 C11.936,9.467 11.937,9.467 11.938,9.467 C11.939,9.467 11.939,9.467 11.94,9.467 C13.921,9.465 15.531,7.785 15.531,5.719 C15.531,3.652 13.919,1.97 11.938,1.97 C9.956,1.97 8.345,3.652 8.345,5.719 Z" id="Shape"></path>
        </g>
    </g>
</svg>