<svg width="24" height="24" viewBox="0 0 24 24" fill="none" xmlns="http://www.w3.org/2000/svg">
<path d="M6.09375 2H4C2.89543 2 2 2.89543 2 4V6.4375H4V4H6.09375V2Z" fill="black"/>
<path d="M17.9062 4H20V6.4375H22V4C22 2.89543 21.1046 2 20 2H17.9062V4Z" fill="black"/>
<path d="M2 16V13.5625H4L4 16H5.05574C4.68425 16.6191 4.38795 17.2905 4.17924 18H4C2.89543 18 2 17.1046 2 16Z" fill="black"/>
<path d="M20 16V13.5625H22V16C22 17.1046 21.1046 18 20 18H19.8207C19.6119 17.2905 19.3157 16.6191 18.9442 16H20Z" fill="black"/>
<rect x="8.04907" y="2" width="3" height="2" fill="black"/>
<rect x="12.9512" y="2" width="3" height="2" fill="black"/>
<rect x="4" y="8.5" width="3" height="2" transform="rotate(90 4 8.5)" fill="black"/>
<rect x="22" y="8.5" width="3" height="2" transform="rotate(90 22 8.5)" fill="black"/>
<path fill-rule="evenodd" clip-rule="evenodd" d="M16.7848 10.5136C16.7848 12.0495 16.0103 13.4126 14.821 14.2571C17.0387 15.3645 18.575 17.734 18.575 20.4724V21.5316C18.575 21.9632 18.2143 22.3125 17.7696 22.3125C17.3248 22.3125 16.9641 21.9632 16.9641 21.5316V20.4724C16.9641 17.5389 14.737 15.1523 11.9999 15.1523C9.26274 15.1523 7.03602 17.5389 7.03602 20.4724V21.5316C7.03602 21.9632 6.6753 22.3125 6.23053 22.3125C5.78541 22.3125 5.42505 21.9632 5.42505 21.5316V20.4724C5.42505 17.734 6.96135 15.3645 9.17905 14.2571C7.9894 13.4126 7.2153 12.0495 7.2153 10.5136C7.2153 7.956 9.36157 5.875 11.9999 5.875C14.6385 5.875 16.7848 7.956 16.7848 10.5136ZM11.9535 7.6875C10.3717 7.6875 9.08458 8.93524 9.08458 10.4688C9.08458 12.0023 10.3717 13.25 11.9535 13.25C13.5358 13.25 14.8228 12.0023 14.8228 10.4688C14.8228 8.93524 13.5358 7.6875 11.9535 7.6875Z" fill="black"/>
</svg>
