<svg width="24" height="24" viewBox="0 0 24 24" fill="none" xmlns="http://www.w3.org/2000/svg">
<path fill-rule="evenodd" clip-rule="evenodd" d="M17.8218 7.64396C17.8218 9.51266 16.8794 11.1712 15.4324 12.1987C18.1307 13.5462 20 16.4292 20 19.7611V21.0499C20 21.5749 19.5611 22 19.0199 22C18.4788 22 18.0399 21.5749 18.0399 21.0499V19.7611C18.0399 16.1918 15.3301 13.2879 11.9998 13.2879C8.66943 13.2879 5.96012 16.1918 5.96012 19.7611V21.0499C5.96012 21.5749 5.52122 22 4.98006 22C4.43846 22 4 21.5749 4 21.0499V19.7611C4 16.4292 5.86926 13.5462 8.5676 12.1987C7.12012 11.1712 6.17825 9.51266 6.17825 7.64396C6.17825 4.53202 8.78969 2 11.9998 2C15.2103 2 17.8218 4.53202 17.8218 7.64396ZM11.9998 3.90061C9.87069 3.90061 8.13836 5.57997 8.13836 7.64396C8.13836 9.70795 9.87069 11.3873 11.9998 11.3873C14.1293 11.3873 15.8616 9.70795 15.8616 7.64396C15.8616 5.57997 14.1293 3.90061 11.9998 3.90061Z" fill="black"/>
</svg>
