<svg width="24" height="24" viewBox="0 0 24 24" fill="none" xmlns="http://www.w3.org/2000/svg">
<path fill-rule="evenodd" clip-rule="evenodd" d="M11.0556 2.64298C11.0556 2.45301 10.9711 2.27277 10.8251 2.15067C10.679 2.02858 10.486 1.97659 10.2983 2.00985C8.71443 2.29055 7.25881 2.94011 6.02366 3.86618C5.87443 3.97807 5.78122 4.14905 5.7682 4.33476C5.75517 4.52048 5.82382 4.70254 5.9559 4.83417L9.28262 8.14966C9.48599 8.35234 9.79987 8.39642 10.0513 8.25715C10.2372 8.15412 10.4318 8.06481 10.6338 7.99071C10.8873 7.89769 11.0556 7.65701 11.0556 7.3878V2.64298ZM13.0906 7.38787C13.0906 7.65714 13.2592 7.89775 13.5128 7.99071C14.6585 8.41062 15.5679 9.31701 15.9892 10.4588C16.0825 10.7115 16.324 10.8793 16.5942 10.8793H21.3556C21.5464 10.8793 21.7273 10.7951 21.8498 10.6493C21.9722 10.5034 22.0234 10.3111 21.99 10.1239C21.2538 5.99788 17.9886 2.74378 13.8486 2.00998C13.6609 1.97672 13.4681 2.02803 13.322 2.15C13.1758 2.27196 13.0906 2.45226 13.0906 2.64231V7.38787ZM15.9891 13.3283C16.0823 13.0755 16.3238 12.9075 16.594 12.9075V12.9076H21.3556C21.5463 12.9076 21.7272 12.9924 21.8496 13.1381C21.9719 13.2838 22.0234 13.476 21.99 13.663C21.1513 18.3635 17.0305 21.9325 12.0731 21.9325C6.50991 21.9325 2 17.4378 2 11.8934C2 9.89025 2.58908 8.02445 3.60356 6.45787C3.70918 6.29481 3.88366 6.18833 4.07733 6.16784C4.271 6.14736 4.46358 6.2151 4.60129 6.35234L8.01728 9.75679C8.19596 9.93487 8.25389 10.2008 8.16523 10.4366C7.99483 10.89 7.90142 11.3808 7.90142 11.8934C7.90142 14.1896 9.76914 16.051 12.0731 16.051C13.871 16.051 15.4028 14.9174 15.9891 13.3283Z" fill="black"/>
</svg>
