<?xml version="1.0" encoding="UTF-8"?>
<svg width="24px" height="24px" viewBox="0 0 24 24" version="1.1" xmlns="http://www.w3.org/2000/svg" xmlns:xlink="http://www.w3.org/1999/xlink">
    <!-- Generator: Sketch 52.5 (67469) - http://www.bohemiancoding.com/sketch -->
    <title>/ pie-chart</title>
    <desc>Created with Sketch.</desc>
    <defs>
        <path d="M11.055569,2.64298241 L11.055569,7.3877996 C11.055569,7.65700812 10.887269,7.89768677 10.6337676,7.99071312 C10.4318213,8.06480969 10.2372011,8.15411769 10.0512639,8.25714979 C9.79986542,8.39641889 9.4859904,8.35233954 9.28261947,8.14965567 L5.95589703,4.83417216 C5.82382124,4.70254257 5.75517168,4.52047864 5.7681961,4.33476397 C5.78122052,4.1490493 5.87442655,3.97807282 6.02366472,3.86618429 C7.25881414,2.94011237 8.71442903,2.29055046 10.2982531,2.00984885 C10.485954,1.97658652 10.6790139,2.02857581 10.8250639,2.1506729 C10.9711138,2.27276998 11.055569,2.45300854 11.055569,2.64298241 Z M13.090635,7.3878672 L13.090635,2.64230635 C13.090635,2.45226487 13.1757686,2.27195871 13.3219542,2.14999683 C13.4681398,2.02803496 13.6609284,1.97672173 13.8486293,2.00998406 C17.988632,2.74378349 21.2537597,5.99788044 21.9899788,10.1238966 C22.0234217,10.3110986 21.9722059,10.5034387 21.8497627,10.6492656 C21.7273196,10.7950926 21.5464022,10.8793301 21.3555809,10.8793301 L16.5942047,10.8793301 C16.3240158,10.8793301 16.0824534,10.7114635 15.9891796,10.4587509 C15.5678531,9.3170147 14.6584499,8.41061622 13.5128434,7.99071312 C13.2592063,7.89775437 13.090635,7.65714334 13.090635,7.3878672 Z M16.5940012,12.9075209 L16.5940012,12.9075885 L21.3555809,12.9075885 C21.5462666,12.9075885 21.7271839,12.9924345 21.8495592,13.1381262 C21.9719345,13.2838179 22.0234217,13.4759552 21.9900466,13.663022 C21.1512602,18.3634894 17.030455,21.9324967 12.073102,21.9324967 C6.50990984,21.9324967 2,17.4378231 2,11.8934255 C2,9.89024903 2.58908378,8.02444869 3.6035642,6.45787411 C3.70918413,6.29480757 3.88365712,6.18832755 4.07732757,6.16784283 C4.27099802,6.1473581 4.4635831,6.21509967 4.60128924,6.35234058 L8.01728325,9.75679407 C8.19596204,9.93486922 8.25389359,10.2008326 8.16523255,10.4366436 C7.99482968,10.8900119 7.90142015,11.3807665 7.90142015,11.8934255 C7.90142015,14.1896079 9.76913592,16.0510138 12.073102,16.0510138 C13.871015,16.0510138 15.4028092,14.9173904 15.9891117,13.3283029 C16.0823178,13.0755227 16.3238123,12.9075209 16.5940012,12.9075209 Z" id="path-1"></path>
    </defs>
    <g id="/-pie-chart" stroke="none" stroke-width="1" fill="none" fill-rule="evenodd">
        <mask id="mask-2" fill="white">
            <use xlink:href="#path-1"></use>
        </mask>
        <use id="Combined-Shape" fill="#000000" fill-rule="nonzero" xlink:href="#path-1"></use>
    </g>
</svg>