<?xml version="1.0" encoding="UTF-8"?>
<svg width="24px" height="24px" viewBox="0 0 24 24" version="1.1" xmlns="http://www.w3.org/2000/svg" xmlns:xlink="http://www.w3.org/1999/xlink">
    <!-- Generator: Sketch 52.5 (67469) - http://www.bohemiancoding.com/sketch -->
    <title>pin</title>
    <desc>Created with Sketch.</desc>
    <defs>
        <path d="M11.8475443,21.2480916 C11.8475443,21.2480916 5,13.6421358 5,9.5 C5,5.35786417 8.35786417,2 12.5,2 C16.6421358,2 20,5.35786417 20,9.5 C20,13.6421358 13.1524557,21.2480916 13.1524557,21.2480916 C12.7940089,21.6653569 12.2078856,21.6633592 11.8475443,21.2480916 Z M12.5,14.5 C15.2614239,14.5 17.5,12.2614239 17.5,9.5 C17.5,6.73857611 15.2614239,4.5 12.5,4.5 C9.73857611,4.5 7.5,6.73857611 7.5,9.5 C7.5,12.2614239 9.73857611,14.5 12.5,14.5 Z M12.5,12 C11.1192881,12 10,10.8807119 10,9.5 C10,8.11928806 11.1192881,7 12.5,7 C13.8807119,7 15,8.11928806 15,9.5 C15,10.8807119 13.8807119,12 12.5,12 Z" id="path-1"></path>
    </defs>
    <g id="pin" stroke="none" stroke-width="1" fill="none" fill-rule="evenodd">
        <mask id="mask-2" fill="white">
            <use xlink:href="#path-1"></use>
        </mask>
        <use id="Pin-Icon" fill="#000000" xlink:href="#path-1"></use>
    </g>
</svg>