<svg width="24" height="24" viewBox="0 0 24 24" fill="none" xmlns="http://www.w3.org/2000/svg">
<path fill-rule="evenodd" clip-rule="evenodd" d="M5.53476 19.0001H18.4648C18.7608 19.0001 18.9998 18.7601 18.9998 18.4651V5.53512C18.9998 5.23912 18.7608 5.00012 18.4648 5.00012H5.53476C5.23876 5.00012 4.99976 5.23912 4.99976 5.53512V18.4651C4.99976 18.7601 5.23876 19.0001 5.53476 19.0001ZM4.99976 3.00012H18.9998C20.1048 3.00012 20.9998 3.89612 20.9998 5.00012V19.0001C20.9998 20.1041 20.1048 21.0001 18.9998 21.0001H4.99976C3.89576 21.0001 2.99976 20.1041 2.99976 19.0001V5.00012C2.99976 3.89612 3.89576 3.00012 4.99976 3.00012ZM12 7.00002C12.5522 7.00002 13 7.44774 13 8.00002V11H16C16.5522 11 17 11.4477 17 12C17 12.5523 16.5522 13 16 13H13V16C13 16.5523 12.5522 17 12 17C11.4477 17 11 16.5523 11 16V13H7.99996C7.44767 13 6.99996 12.5523 6.99996 12C6.99996 11.4477 7.44767 11 7.99996 11H11V8.00002C11 7.44774 11.4477 7.00002 12 7.00002Z" fill="black"/>
</svg>
