<?xml version="1.0" encoding="UTF-8"?>
<svg width="24px" height="24px" viewBox="0 0 24 24" version="1.1" xmlns="http://www.w3.org/2000/svg" xmlns:xlink="http://www.w3.org/1999/xlink">
    <!-- Generator: Sketch 52.5 (67469) - http://www.bohemiancoding.com/sketch -->
    <title> power-off</title>
    <desc>Created with Sketch.</desc>
    <defs>
        <path d="M21,12.8728903 C21,17.9150318 16.9686889,22 11.9997191,22 C7.03131247,22 3,17.9147482 3,12.8728903 C3,8.97575245 5.4339721,5.55361897 9.00156489,4.2734751 L9.99958313,4 L9.99958313,6.43582518 L9.40902107,6.58578802 C6.92150962,7.63752804 5.26929803,10.1006801 5.26929803,12.8728903 C5.26929803,16.6334962 8.28124114,19.6852529 11.9997191,19.6852529 C15.7186184,19.6852529 18.7304211,16.6336385 18.7304211,12.8728903 C18.7304211,10.1006801 17.0782095,7.63752804 14.590698,6.58578802 L14.0047513,6.43582518 L14.0047513,4 L14.9981542,4.2734751 C18.565824,5.55364662 21,8.97582532 21,12.8728903 Z M13,8.98758356 C13,9.54810208 12.5509711,10 11.9998762,10 C11.4489521,10 11,9.54802329 11,8.98758356 L11,3.01266542 C11,2.45205543 11.4488753,2 11.9998762,2 C12.5508473,2 13,2.45202244 13,3.01266542 L13,8.98758356 Z" id="path-1"></path>
    </defs>
    <g id="-power-off" stroke="none" stroke-width="1" fill="none" fill-rule="evenodd">
        <mask id="mask-2" fill="white">
            <use xlink:href="#path-1"></use>
        </mask>
        <use id="Mask" fill="#000000" fill-rule="nonzero" xlink:href="#path-1"></use>
    </g>
</svg>