<svg width="24" height="24" viewBox="0 0 24 24" fill="none" xmlns="http://www.w3.org/2000/svg">
<path fill-rule="evenodd" clip-rule="evenodd" d="M12.1548 10C12.7058 10 13.1548 9.548 13.1548 8.988V3.013C13.1548 2.452 12.7058 2 12.1548 2C11.6038 2 11.1548 2.452 11.1548 3.013V8.988C11.1548 9.548 11.6038 10 12.1548 10" fill="black"/>
<path fill-rule="evenodd" clip-rule="evenodd" d="M16.6602 5.02783C16.1812 4.74883 15.5712 4.90883 15.2922 5.38583C15.0142 5.86283 15.1742 6.47583 15.6502 6.75483C17.8172 8.02183 19.1632 10.3658 19.1632 12.8718C19.1632 16.7768 15.9862 19.9538 12.0812 19.9538C8.17718 19.9538 5.00018 16.7768 5.00018 12.8718C5.00018 10.3228 6.38018 7.95883 8.60218 6.70283C9.08318 6.43083 9.25218 5.82083 8.98118 5.33983C8.70918 4.85983 8.10018 4.68983 7.61818 4.96183C4.76918 6.57183 3.00018 9.60283 3.00018 12.8718C3.00018 17.8798 7.07418 21.9538 12.0812 21.9538C17.0892 21.9538 21.1632 17.8798 21.1632 12.8718C21.1632 9.65783 19.4372 6.65283 16.6602 5.02783" fill="black"/>
</svg>
