<svg width="24" height="24" viewBox="0 0 24 24" fill="none" xmlns="http://www.w3.org/2000/svg">
<mask id="mask0_1659_3512" style="mask-type:alpha" maskUnits="userSpaceOnUse" x="2" y="2" width="20" height="20">
<path d="M15.8336 20.6598C15.9405 20.7681 16 20.9067 16 21.0595C16 21.2124 15.9405 21.3509 15.8336 21.4592L15.4636 21.8341C15.3581 21.9412 15.2246 22 15.0781 22C14.9316 22 14.7981 21.9412 14.6923 21.8339L11.7846 18.8874L12.2153 18.8874L9.30718 21.8341C9.20171 21.9412 9.06813 22 8.92173 22C8.77521 22 8.6416 21.9412 8.53589 21.8339L8.16624 21.4592C8.05937 21.3511 8 21.2124 8 21.0595C8 20.9067 8.05938 20.7681 8.16627 20.6598L11.6144 17.1658C11.72 17.0587 11.8536 17 11.9999 17C12.1462 17 12.2796 17.0586 12.3853 17.1655L15.8336 20.6598ZM5.40851 4C4.63186 4 4 4.63186 4 5.40851V14.5915C4 15.3682 4.63186 16 5.40851 16H18.5915C19.3681 16 20 15.3682 20 14.5915V5.40851C20 4.63186 19.3681 4 18.5915 4H5.40851ZM4.99223 18C3.34233 18 2 16.6577 2 15.0078V4.99223C2 3.34231 3.34233 2 4.99223 2H19.0078C20.6577 2 22 3.34231 22 4.99223V15.0078C22 16.6577 20.6577 18 19.0078 18H4.99223ZM7 11H8C8.55228 11 9 11.4477 9 12V13C9 13.5523 8.55228 14 8 14H7C6.44772 14 6 13.5523 6 13V12C6 11.4477 6.44772 11 7 11ZM11 9H13C13.5523 9 14 9.44772 14 10V13C14 13.5523 13.5523 14 13 14H11C10.4477 14 10 13.5523 10 13V10C10 9.44772 10.4477 9 11 9ZM16 8H17C17.5523 8 18 8.44772 18 9V13C18 13.5523 17.5523 14 17 14H16C15.4477 14 15 13.5523 15 13V9C15 8.44772 15.4477 8 16 8Z" fill="black"/>
</mask>
<g mask="url(#mask0_1659_3512)">
<path d="M15.8336 20.6598C15.9405 20.7681 16 20.9067 16 21.0595C16 21.2124 15.9405 21.3509 15.8336 21.4592L15.4636 21.8341C15.3581 21.9412 15.2246 22 15.0781 22C14.9316 22 14.7981 21.9412 14.6923 21.8339L11.7846 18.8874L12.2153 18.8874L9.30718 21.8341C9.20171 21.9412 9.06813 22 8.92173 22C8.77521 22 8.6416 21.9412 8.53589 21.8339L8.16624 21.4592C8.05937 21.3511 8 21.2124 8 21.0595C8 20.9067 8.05938 20.7681 8.16627 20.6598L11.6144 17.1658C11.72 17.0587 11.8536 17 11.9999 17C12.1462 17 12.2796 17.0586 12.3853 17.1655L15.8336 20.6598ZM5.40851 4C4.63186 4 4 4.63186 4 5.40851V14.5915C4 15.3682 4.63186 16 5.40851 16H18.5915C19.3681 16 20 15.3682 20 14.5915V5.40851C20 4.63186 19.3681 4 18.5915 4H5.40851ZM4.99223 18C3.34233 18 2 16.6577 2 15.0078V4.99223C2 3.34231 3.34233 2 4.99223 2H19.0078C20.6577 2 22 3.34231 22 4.99223V15.0078C22 16.6577 20.6577 18 19.0078 18H4.99223ZM7 11H8C8.55228 11 9 11.4477 9 12V13C9 13.5523 8.55228 14 8 14H7C6.44772 14 6 13.5523 6 13V12C6 11.4477 6.44772 11 7 11ZM11 9H13C13.5523 9 14 9.44772 14 10V13C14 13.5523 13.5523 14 13 14H11C10.4477 14 10 13.5523 10 13V10C10 9.44772 10.4477 9 11 9ZM16 8H17C17.5523 8 18 8.44772 18 9V13C18 13.5523 17.5523 14 17 14H16C15.4477 14 15 13.5523 15 13V9C15 8.44772 15.4477 8 16 8Z" fill="black"/>
</g>
</svg>
