<?xml version="1.0" encoding="UTF-8"?>
<svg width="24px" height="24px" viewBox="0 0 24 24" version="1.1" xmlns="http://www.w3.org/2000/svg" xmlns:xlink="http://www.w3.org/1999/xlink">
    <!-- Generator: Sketch 52.6 (67491) - http://www.bohemiancoding.com/sketch -->
    <title>presentation</title>
    <desc>Created with Sketch.</desc>
    <defs>
        <path d="M15.8336431,20.6597995 C15.9405229,20.7681012 16,20.9066575 16,21.0595196 C16,21.2123817 15.9405229,21.350938 15.8336402,21.4592426 L15.4636105,21.8341032 C15.3581264,21.9411877 15.2246234,22 15.0780886,22 C14.9315538,22 14.7980509,21.9411877 14.6923377,21.8338709 L11.7845579,18.8874065 L12.215257,18.88741 L9.30718437,21.8340793 C9.20171149,21.9411524 9.06812835,22 8.92172975,22 C8.77520622,22 8.64160484,21.9411914 8.53588801,21.8338709 L8.16624199,21.4592153 C8.05937007,21.3511209 8,21.2124312 8,21.0595196 C8,20.9066897 8.05937779,20.7681098 8.16626896,20.6597966 L11.6143603,17.1658321 C11.7200497,17.0587367 11.8535573,17 11.9999092,17 C12.1461629,17 12.2795915,17.0585702 12.3853466,17.1655354 L15.8336431,20.6597995 Z M5.40850652,4 C4.63186208,4 4,4.63186208 4,5.40850652 L4,14.5915156 C4,15.3681601 4.63186208,16 5.40850652,16 L18.5914935,16 C19.3681379,16 20,15.3681601 20,14.5915156 L20,5.40850652 C20,4.63186208 19.3681379,4 18.5914935,4 L5.40850652,4 Z M4.9922331,18 C3.34233195,18 2,16.6576916 2,15.0077904 L2,4.9922331 C2,3.34230842 3.34233195,2 4.9922331,2 L19.0077669,2 C20.6576916,2 22,3.34230842 22,4.9922331 L22,15.0077904 C22,16.6576916 20.6576916,18 19.0077669,18 L4.9922331,18 Z M7,11 L8,11 C8.55228475,11 9,11.4477153 9,12 L9,13 C9,13.5522847 8.55228475,14 8,14 L7,14 C6.44771525,14 6,13.5522847 6,13 L6,12 C6,11.4477153 6.44771525,11 7,11 Z M11,9 L13,9 C13.5522847,9 14,9.44771525 14,10 L14,13 C14,13.5522847 13.5522847,14 13,14 L11,14 C10.4477153,14 10,13.5522847 10,13 L10,10 C10,9.44771525 10.4477153,9 11,9 Z M16,8 L17,8 C17.5522847,8 18,8.44771525 18,9 L18,13 C18,13.5522847 17.5522847,14 17,14 L16,14 C15.4477153,14 15,13.5522847 15,13 L15,9 C15,8.44771525 15.4477153,8 16,8 Z" id="path-1"></path>
    </defs>
    <g id="presentation" stroke="none" stroke-width="1" fill="none" fill-rule="evenodd">
        <mask id="mask-2" fill="white">
            <use xlink:href="#path-1"></use>
        </mask>
        <use id="capture_full_page" fill="#000000" fill-rule="nonzero" xlink:href="#path-1"></use>
    </g>
</svg>