<?xml version="1.0" encoding="UTF-8"?>
<svg width="24px" height="24px" viewBox="0 0 24 24" version="1.1" xmlns="http://www.w3.org/2000/svg" xmlns:xlink="http://www.w3.org/1999/xlink">
    <!-- Generator: Sketch 52.5 (67469) - http://www.bohemiancoding.com/sketch -->
    <title> print</title>
    <desc>Created with Sketch.</desc>
    <defs>
        <path d="M20.0066324,9.97330402 L18.9970741,9.97379347 L18.9970741,7.00040953 C18.9970741,6.65328387 18.8431068,6.27066852 18.6828944,5.85418165 C18.5226819,5.43753496 18.3304565,5.10766969 18.1060706,4.86458583 L16.2789702,2.88539419 C16.0547318,2.64247015 15.7502397,2.4340669 15.3656413,2.26034425 C14.981043,2.08678142 14.6286051,2 14.3078852,2 L6.15408085,2 C5.83350845,2 5.56102929,2.12146202 5.33664336,2.36454588 C5.11240496,2.60746991 5.00013824,2.90265458 5.00013824,3.24994007 L5.00013824,9.97330402 L4.30773769,9.97330402 C3.67470679,9.97330402 3.13181382,10.2186253 2.67905879,10.7091082 C2.22630375,11.1994311 2,11.787563 2,12.473344 L2,18.5712927 C2,18.6842843 2.03806152,18.7816138 2.11418455,18.8643997 C2.19030759,18.9467062 2.28044553,18.9877796 2.38459836,18.9877796 L5.00013824,18.9877796 L5.00013824,20.7500599 C5.00013824,21.0973454 5.11225744,21.3925301 5.33664336,21.6354541 C5.56102929,21.8783782 5.83350845,22 6.15408085,22 L17.769418,22 C18.0898428,22 18.362617,21.8783782 18.5868554,21.6354541 C18.8110938,21.3923703 18.9233606,21.0973454 18.9233606,20.7500599 L18.9233606,18.6666667 L21.6156966,18.6666667 C21.7197019,18.6666667 21.8098399,18.6255933 21.8859629,18.5432868 C21.9620859,18.4605009 21.9999999,18.3631714 21.9999999,18.2501798 L21.9999999,12.0513625 C22.0001475,11.3655815 20.9025804,9.97330402 20.0066324,9.97330402 Z M17.9545215,21.0043648 L6.02780614,21.0043648 L6.02780614,17.0002397 L17.9545215,17.0002397 L17.9545215,21.0043648 Z M6.99230362,12 L6.99230362,4.00675942 L13.9714205,4.00675942 L13.9714205,5.74998002 C13.9714205,6.09726551 14.4202994,6.39229036 14.6443903,6.63537421 C14.8687762,6.87845807 15.1411079,6.99992009 15.4618278,6.99992009 L17.0072786,6.99992009 L17.0072786,12 L6.99230362,12 Z M20.2333849,13.4193476 C20.0812864,13.5841204 19.900863,13.6667466 19.6925573,13.6667466 C19.4842516,13.6667466 19.3039757,13.5841204 19.1517297,13.4193476 C18.9996311,13.2545748 18.9235081,13.058957 18.9235081,12.8332934 C18.9235081,12.6076297 18.9996311,12.4123316 19.1517297,12.247399 C19.3039757,12.0824663 19.4842516,12 19.6925573,12 C19.900863,12 20.0812864,12.0824663 20.2333849,12.247399 C20.385631,12.4123316 20.4619015,12.6076297 20.4619015,12.8332934 C20.4619015,13.058957 20.3857785,13.2545748 20.2333849,13.4193476 L20.2333849,13.4193476 Z" id="path-1"></path>
    </defs>
    <g id="-print" stroke="none" stroke-width="1" fill="none" fill-rule="evenodd">
        <mask id="mask-2" fill="white">
            <use xlink:href="#path-1"></use>
        </mask>
        <use id="print" fill="#000000" xlink:href="#path-1"></use>
    </g>
</svg>