<?xml version="1.0" encoding="UTF-8"?>
<svg width="24px" height="24px" viewBox="0 0 24 24" version="1.1" xmlns="http://www.w3.org/2000/svg" xmlns:xlink="http://www.w3.org/1999/xlink">
    <!-- Generator: Sketch 52.5 (67469) - http://www.bohemiancoding.com/sketch -->
    <title>progress-slim</title>
    <desc>Created with Sketch.</desc>
    <defs>
        <path d="M7.7123636,22 C7.53408768,22 7.37425159,21.932549 7.23735639,21.7994822 L6.20656486,20.7979753 C6.06950027,20.6647438 6,20.5093266 6,20.335982 C6,20.1629904 6.06950027,20.0077379 6.20656486,19.8745064 L14.3079436,11.9992824 L6.20656486,4.12622295 C6.06950027,3.99327372 6,3.83790359 6,3.66448849 C6,3.49135571 6.06950027,3.3360091 6.20656486,3.20277756 L7.23735639,2.20080014 C7.37442098,2.06754507 7.53425707,2 7.7123636,2 C7.89049433,2 8.05033042,2.06754507 8.18737081,2.20080014 L17.7934351,11.5383949 C17.9304997,11.6713677 18,11.8267143 18,12.0001294 C18,12.1732857 17.9304997,12.3286323 17.7934351,12.4618639 L8.18737081,21.7994822 C8.05074181,21.932549 7.89092992,22 7.7123636,22" id="path-1"></path>
    </defs>
    <g id="progress-slim" stroke="none" stroke-width="1" fill="none" fill-rule="evenodd">
        <mask id="mask-2" fill="white">
            <use xlink:href="#path-1"></use>
        </mask>
        <use id="Fill-1" fill="#000000" xlink:href="#path-1"></use>
    </g>
</svg>