<?xml version="1.0" encoding="UTF-8"?>
<svg width="24px" height="24px" viewBox="0 0 24 24" version="1.1" xmlns="http://www.w3.org/2000/svg" xmlns:xlink="http://www.w3.org/1999/xlink">
    <!-- Generator: Sketch 52.6 (67491) - http://www.bohemiancoding.com/sketch -->
    <title>question-rect</title>
    <desc>Created with Sketch.</desc>
    <defs>
        <path d="M5.69300979,21 C4.20809876,21 3,19.7919224 3,18.3070114 L3,5.69300979 C3,4.20807757 4.20809876,3 5.69300979,3 L18.3069902,3 C19.7919224,3 21,4.20807757 21,5.69300979 L21,18.3070114 C21,19.7919224 19.7919224,21 18.3069902,21 L5.69300979,21 Z M6.06765587,4.8 C5.36867587,4.8 4.8,5.36867587 4.8,6.06765587 L4.8,17.9323641 C4.8,18.6313441 5.36867587,19.2 6.06765587,19.2 L17.9323441,19.2 C18.6313241,19.2 19.2,18.6313441 19.2,17.9323641 L19.2,6.06765587 C19.2,5.36867587 18.6313241,4.8 17.9323441,4.8 L6.06765587,4.8 Z M12.0516393,17.2008197 C11.402459,17.2008197 10.8565574,16.654918 10.8565574,16.0057377 C10.8565574,15.3565574 11.402459,14.8106557 12.0516393,14.8106557 C12.7008197,14.8106557 13.2467213,15.3565574 13.2467213,16.0057377 C13.2467213,16.654918 12.7008197,17.2008197 12.0516393,17.2008197 Z M11.3434426,14.0286885 C11.0336066,13.6893443 10.8565574,13.2319672 10.8565574,12.7155738 C10.8565574,10.9745902 13.0254098,10.7680328 13.0254098,9.75 C13.0254098,9.29262295 12.6713115,8.90901639 11.8598361,8.90901639 C11.1221311,8.90901639 10.502459,9.26311475 10.045082,9.82377049 L8.85,8.48114754 C9.63196721,7.55163934 10.8122951,7.05 12.0811475,7.05 C13.9844262,7.05 15.15,8.00901639 15.15,9.38114754 C15.15,11.5352459 12.6860656,11.697541 12.6860656,12.9368852 C12.6860656,13.1729508 12.8040984,13.4237705 12.9663934,13.5565574 L11.3434426,14.0286885 Z" id="path-1"></path>
    </defs>
    <g id="question-rect" stroke="none" stroke-width="1" fill="none" fill-rule="evenodd">
        <mask id="mask-2" fill="white">
            <use xlink:href="#path-1"></use>
        </mask>
        <use id="CombinedShape" fill="#000000" xlink:href="#path-1"></use>
    </g>
</svg>