<svg width="24" height="24" viewBox="0 0 24 24" fill="none" xmlns="http://www.w3.org/2000/svg">
<path fill-rule="evenodd" clip-rule="evenodd" d="M5.53482 19.0001H18.4648C18.7608 19.0001 18.9998 18.7601 18.9998 18.4651V5.53512C18.9998 5.23912 18.7608 5.00012 18.4648 5.00012H5.53482C5.23882 5.00012 4.99982 5.23912 4.99982 5.53512V18.4651C4.99982 18.7601 5.23882 19.0001 5.53482 19.0001ZM4.99982 3.00012H18.9998C20.1048 3.00012 20.9998 3.89612 20.9998 5.00012V19.0001C20.9998 20.1041 20.1048 21.0001 18.9998 21.0001H4.99982C3.89582 21.0001 2.99982 20.1041 2.99982 19.0001V5.00012C2.99982 3.89612 3.89582 3.00012 4.99982 3.00012ZM11.3435 14.0287L12.9664 13.5566C12.8041 13.4238 12.6861 13.173 12.6861 12.9369C12.6861 12.4023 13.1445 12.0681 13.6659 11.6881C14.3532 11.187 15.15 10.6061 15.15 9.38117C15.15 8.00904 13.9844 7.05002 12.0812 7.05002C10.8123 7.05002 9.63198 7.55166 8.85002 8.48117L10.0451 9.82379C10.5025 9.26314 11.1221 8.90904 11.8599 8.90904C12.6713 8.90904 13.0254 9.29264 13.0254 9.75002C13.0254 10.1912 12.6182 10.4799 12.1566 10.8072C11.553 11.2352 10.8566 11.729 10.8566 12.7156C10.8566 13.232 11.0336 13.6894 11.3435 14.0287ZM12.0517 17.2008C12.7008 17.2008 13.2467 16.6549 13.2467 16.0058C13.2467 15.3566 12.7008 14.8107 12.0517 14.8107C11.4025 14.8107 10.8566 15.3566 10.8566 16.0058C10.8566 16.6549 11.4025 17.2008 12.0517 17.2008Z" fill="black"/>
</svg>
