<?xml version="1.0" encoding="UTF-8"?>
<svg width="24px" height="24px" viewBox="0 0 24 24" version="1.1" xmlns="http://www.w3.org/2000/svg" xmlns:xlink="http://www.w3.org/1999/xlink">
    <!-- Generator: Sketch 52.6 (67491) - http://www.bohemiancoding.com/sketch -->
    <title>question-rect</title>
    <desc>Created with Sketch.</desc>
    <defs>
        <path d="M12.0516393,17.2008197 C11.402459,17.2008197 10.8565574,16.654918 10.8565574,16.0057377 C10.8565574,15.3565574 11.402459,14.8106557 12.0516393,14.8106557 C12.7008197,14.8106557 13.2467213,15.3565574 13.2467213,16.0057377 C13.2467213,16.654918 12.7008197,17.2008197 12.0516393,17.2008197 Z M11.3434426,14.0286885 C11.0336066,13.6893443 10.8565574,13.2319672 10.8565574,12.7155738 C10.8565574,10.9745902 13.0254098,10.7680328 13.0254098,9.75 C13.0254098,9.29262295 12.6713115,8.90901639 11.8598361,8.90901639 C11.1221311,8.90901639 10.502459,9.26311475 10.045082,9.82377049 L8.85,8.48114754 C9.63196721,7.55163934 10.8122951,7.05 12.0811475,7.05 C13.9844262,7.05 15.15,8.00901639 15.15,9.38114754 C15.15,11.5352459 12.6860656,11.697541 12.6860656,12.9368852 C12.6860656,13.1729508 12.8040984,13.4237705 12.9663934,13.5565574 L11.3434426,14.0286885 Z M18.4648,19.0001 C18.7608,19.0001 18.9998,18.7601 18.9998,18.4651 L18.9998,5.5351 C18.9998,5.2391 18.7608,5.0001 18.4648,5.0001 L5.5348,5.0001 C5.2388,5.0001 4.9998,5.2391 4.9998,5.5351 L4.9998,18.4651 C4.9998,18.7601 5.2388,19.0001 5.5348,19.0001 L18.4648,19.0001 Z M18.9998,3.0001 C20.1048,3.0001 20.9998,3.8961 20.9998,5.0001 L20.9998,19.0001 C20.9998,20.1041 20.1048,21.0001 18.9998,21.0001 L4.9998,21.0001 C3.8958,21.0001 2.9998,20.1041 2.9998,19.0001 L2.9998,5.0001 C2.9998,3.8961 3.8958,3.0001 4.9998,3.0001 L18.9998,3.0001 Z" id="path-1"></path>
    </defs>
    <g id="question-rect" stroke="none" stroke-width="1" fill="none" fill-rule="evenodd">
        <mask id="mask-2" fill="white">
            <use xlink:href="#path-1"></use>
        </mask>
        <use id="Mask" fill="#000000" xlink:href="#path-1"></use>
    </g>
</svg>