<?xml version="1.0" encoding="UTF-8"?>
<svg width="24px" height="24px" viewBox="0 0 24 24" version="1.1" xmlns="http://www.w3.org/2000/svg" xmlns:xlink="http://www.w3.org/1999/xlink">
    <!-- Generator: Sketch 52.6 (67491) - http://www.bohemiancoding.com/sketch -->
    <title>rect-arrow-down</title>
    <desc>Created with Sketch.</desc>
    <defs>
        <path d="M6.06765587,4.8 C5.36867587,4.8 4.8,5.36867587 4.8,6.06765587 L4.8,17.9323641 C4.8,18.6313441 5.36867587,19.2 6.06765587,19.2 L17.9323441,19.2 C18.6313241,19.2 19.2,18.6313441 19.2,17.9323641 L19.2,6.06765587 C19.2,5.36867587 18.6313241,4.8 17.9323441,4.8 L6.06765587,4.8 Z M5.69300979,21 C4.20809876,21 3,19.7919224 3,18.3070114 L3,5.69300979 C3,4.20807757 4.20809876,3 5.69300979,3 L18.3069902,3 C19.7919224,3 21,4.20807757 21,5.69300979 L21,18.3070114 C21,19.7919224 19.7919224,21 18.3069902,21 L5.69300979,21 Z M10.8748517,6.6 C10.7665035,6.6 11.2502556,6.63427603 11.1810526,6.70188956 C11.1115529,6.76956175 11.0763265,6.85729509 11.0763265,6.96266504 L11.0763265,14.1147607 L7.8731077,12.2917373 C7.71229053,12.2922066 7.59866786,12.3646692 7.53692101,12.5076001 C7.47496234,12.6503549 7.49453493,12.7839787 7.59510921,12.9047562 L11.6971757,17.2850492 C11.774301,17.3601319 11.8643688,17.3982207 11.9648371,17.3982207 C12.0731218,17.3982207 12.1671931,17.3601319 12.2443819,17.284971 L16.4050179,12.9046389 C16.5054227,12.7841937 16.5250588,12.6506287 16.4632484,12.5077369 C16.3936853,12.3648256 16.280105,12.2923239 16.1257061,12.2923239 L12.8930727,14.1148976 L12.8930727,6.96266504 C12.8930727,6.85729509 12.8578251,6.76954219 12.7883255,6.70188956 C12.7188683,6.63427603 12.6287793,6.6 12.5205793,6.6 C12.3854902,6.6 12.0877505,6.6 11.6273602,6.6 C11.5876469,6.6 11.3368108,6.6 10.8748517,6.6 Z" id="path-1"></path>
    </defs>
    <g id="rect-arrow-down" stroke="none" stroke-width="1" fill="none" fill-rule="evenodd">
        <mask id="mask-2" fill="white">
            <use xlink:href="#path-1"></use>
        </mask>
        <use id="Fill1" fill="#000000" xlink:href="#path-1"></use>
    </g>
</svg>