<?xml version="1.0" encoding="UTF-8"?>
<svg width="24px" height="24px" viewBox="0 0 24 24" version="1.1" xmlns="http://www.w3.org/2000/svg" xmlns:xlink="http://www.w3.org/1999/xlink">
    <!-- Generator: Sketch 52.6 (67491) - http://www.bohemiancoding.com/sketch -->
    <title>rect-arrow-up</title>
    <desc>Created with Sketch.</desc>
    <defs>
        <path d="M6.06765587,4.8 C5.36867587,4.8 4.8,5.36867587 4.8,6.06765587 L4.8,17.9323641 C4.8,18.6313441 5.36867587,19.2 6.06765587,19.2 L17.9323441,19.2 C18.6313241,19.2 19.2,18.6313441 19.2,17.9323641 L19.2,6.06765587 C19.2,5.36867587 18.6313241,4.8 17.9323441,4.8 L6.06765587,4.8 Z M5.69300979,21 C4.20809876,21 3,19.7919224 3,18.3070114 L3,5.69300979 C3,4.20807757 4.20809876,3 5.69300979,3 L18.3069902,3 C19.7919224,3 21,4.20807757 21,5.69300979 L21,18.3070114 C21,19.7919224 19.7919224,21 18.3069902,21 L5.69300979,21 Z M11.4850172,18.2982207 C11.3766689,18.2982207 11.2866223,18.2610878 11.2174193,18.1878389 C11.1479196,18.1145265 11.1126932,18.0194808 11.1126932,17.9053286 L11.1126932,10.1571267 L7.8731077,12.1320938 C7.71229053,12.1315854 7.59866786,12.0530832 7.53692101,11.8982395 C7.47496234,11.7435864 7.49453493,11.5988256 7.59510921,11.4679815 L11.6971757,6.72260403 C11.774301,6.64126342 11.8643688,6.6 11.9648371,6.6 C12.0731218,6.6 12.1671931,6.64126342 12.2443819,6.72268876 L16.4050179,11.4681086 C16.5054227,11.5985925 16.5250588,11.7432899 16.4632484,11.8980912 C16.3936853,12.0529138 16.280105,12.1314583 16.1257061,12.1314583 L12.8663562,10.1569784 L12.8663562,17.9053286 C12.8663562,18.0194808 12.8311086,18.1145476 12.761609,18.1878389 C12.6921517,18.2610878 12.6020627,18.2982207 12.4938628,18.2982207 L11.4850172,18.2982207 Z" id="path-1"></path>
    </defs>
    <g id="rect-arrow-up" stroke="none" stroke-width="1" fill="none" fill-rule="evenodd">
        <mask id="mask-2" fill="white">
            <use xlink:href="#path-1"></use>
        </mask>
        <use id="Fill1" fill="#000000" xlink:href="#path-1"></use>
    </g>
</svg>