<?xml version="1.0" encoding="UTF-8"?>
<svg width="24px" height="24px" viewBox="0 0 24 24" version="1.1" xmlns="http://www.w3.org/2000/svg" xmlns:xlink="http://www.w3.org/1999/xlink">
    <!-- Generator: Sketch 52.6 (67491) - http://www.bohemiancoding.com/sketch -->
    <title>rect-plus</title>
    <desc>Created with Sketch.</desc>
    <defs>
        <path d="M5.69300979,21 C4.20809876,21 3,19.7919224 3,18.3070114 L3,5.69300979 C3,4.20807757 4.20809876,3 5.69300979,3 L18.3069902,3 C19.7919224,3 21,4.20807757 21,5.69300979 L21,18.3070114 C21,19.7919224 19.7919224,21 18.3069902,21 L5.69300979,21 Z M6.06765587,4.8 C5.36867587,4.8 4.8,5.36867587 4.8,6.06765587 L4.8,17.9323641 C4.8,18.6313441 5.36867587,19.2 6.06765587,19.2 L17.9323441,19.2 C18.6313241,19.2 19.2,18.6313441 19.2,17.9323641 L19.2,6.06765587 C19.2,5.36867587 18.6313241,4.8 17.9323441,4.8 L6.06765587,4.8 Z M12.9,11.1 L16.5,11.1 L16.5,12.9 L12.9,12.9 L12.9,16.5 L11.1,16.5 L11.1,12.9 L7.5,12.9 L7.5,11.1 L11.1,11.1 L11.1,7.67647059 L12.9,7.67647059 C12.9,7.67647059 12.9,6.57352941 12.9,9.88235294 L12.9,11.1 Z" id="path-1"></path>
    </defs>
    <g id="rect-plus" stroke="none" stroke-width="1" fill="none" fill-rule="evenodd">
        <mask id="mask-2" fill="white">
            <use xlink:href="#path-1"></use>
        </mask>
        <use id="CombinedShape" fill="#000000" fill-rule="nonzero" xlink:href="#path-1"></use>
    </g>
</svg>