<?xml version="1.0" encoding="UTF-8"?>
<svg width="24px" height="24px" viewBox="0 0 24 24" version="1.1" xmlns="http://www.w3.org/2000/svg" xmlns:xlink="http://www.w3.org/1999/xlink">
    <!-- Generator: Sketch 52.5 (67469) - http://www.bohemiancoding.com/sketch -->
    <title> rectangle</title>
    <desc>Created with Sketch.</desc>
    <defs>
        <path d="M17.3180888,3 C18.3322087,3 19.1994487,3.36010665 19.9196738,4.08032006 C20.63973,4.80053347 20.9998425,5.66777089 21,6.68187525 L21,17.3181247 C21,18.3322291 20.6398875,19.1993096 19.9196738,19.9196799 C19.1992913,20.6398933 18.3322087,21 17.3180888,21 L6.68175375,21 C5.66763375,21 4.80039375,20.6398933 4.08016875,19.9196799 C3.3601125,19.1993096 3,18.3322291 3,17.3181247 L3,6.68187525 C3,5.66761395 3.3601125,4.80053347 4.08016875,4.08032006 C4.80039375,3.36010665 5.66763375,3 6.68175375,3 L17.3180888,3 Z M6,5 C5.44771525,5 5,5.44771525 5,6 L5,18 C5,18.5522847 5.44771525,19 6,19 L18,19 C18.5522847,19 19,18.5522847 19,18 L19,6 C19,5.44771525 18.5522847,5 18,5 L6,5 Z" id="path-1"></path>
    </defs>
    <g id="-rectangle" stroke="none" stroke-width="1" fill="none" fill-rule="evenodd">
        <mask id="mask-2" fill="white">
            <use xlink:href="#path-1"></use>
        </mask>
        <use id="icon-Shape" fill="#000000" fill-rule="nonzero" xlink:href="#path-1"></use>
    </g>
</svg>