<?xml version="1.0" encoding="UTF-8"?>
<svg width="24px" height="24px" viewBox="0 0 24 24" version="1.1" xmlns="http://www.w3.org/2000/svg" xmlns:xlink="http://www.w3.org/1999/xlink">
    <!-- Generator: Sketch 53 (72520) - https://sketchapp.com -->
    <title>reddit</title>
    <desc>Created with Sketch.</desc>
    <g id="reddit" stroke="none" stroke-width="1" fill="none" fill-rule="evenodd">
        <g id="reddit-alien-brands" transform="translate(2.000000, 2.500000)" fill="#000000" fill-rule="nonzero">
            <path d="M17.7697858,7.23350443 C17.1374799,7.23350443 16.5810506,7.49485482 16.1721595,7.90374172 C14.6672713,6.86255548 12.6396769,6.19231818 10.392883,6.12065759 L11.5605414,0.8599271 L15.2785004,1.69456223 C15.2785004,2.60507327 16.020406,3.34697116 16.9309266,3.34697116 C17.8583087,3.34697116 18.6044297,2.58399663 18.6044297,1.67348558 C18.6044297,0.762974534 17.862524,0 16.9309266,0 C16.2817592,0 15.7211145,0.39202559 15.4428999,0.927372362 L11.3371266,0.0168613157 C11.1305733,-0.0379379603 10.9282354,0.109598552 10.8734356,0.316149669 L9.59196216,6.11644226 C7.36202983,6.2091795 5.35551226,6.8794168 3.84640872,7.92060304 C3.43751754,7.49485482 2.86001143,7.23350443 2.22770548,7.23350443 C-0.116041929,7.23350443 -0.883239821,10.3781398 1.26238505,11.4530487 C1.18650834,11.7860597 1.15278535,12.1401473 1.15278535,12.4942349 C1.15278535,16.0266806 5.13209749,18.8888889 10.0177148,18.8888889 C14.924409,18.8888889 18.9037212,16.0266806 18.9037212,12.4942349 C18.9037212,12.1401473 18.8657828,11.7691983 18.7730446,11.4361874 C20.8765158,10.3570632 20.1008871,7.23350443 17.7697858,7.23350443 L17.7697858,7.23350443 Z M4.66419109,11.6764611 C4.66419109,10.7490887 5.40609674,10.0029755 6.33769418,10.0029755 C7.24821475,10.0029755 7.99012041,10.7448734 7.99012041,11.6764611 C7.99012041,12.5869722 7.24821475,13.32887 6.33769418,13.32887 C5.41031211,13.3330854 4.66419109,12.5869722 4.66419109,11.6764611 L4.66419109,11.6764611 Z M13.6977355,15.6177936 C12.1633397,17.1521734 7.83415161,17.1521734 6.29975582,15.6177936 C6.1311409,15.4702571 6.1311409,15.2089067 6.29975582,15.0402936 C6.44729388,14.8927571 6.70864701,14.8927571 6.85618506,15.0402936 C8.02805876,16.2416623 11.9146327,16.262739 13.1370909,15.0402936 C13.2846289,14.8927571 13.5459821,14.8927571 13.6935201,15.0402936 C13.8663504,15.2089067 13.8663504,15.4702571 13.6977355,15.6177936 Z M13.6640125,13.3330854 C12.7534919,13.3330854 12.0115863,12.5911875 12.0115863,11.6806764 C12.0115863,10.7533041 12.7534919,10.0071909 13.6640125,10.0071909 C14.5913946,10.0071909 15.3375156,10.7490887 15.3375156,11.6806764 C15.3333002,12.5869722 14.5913946,13.3330854 13.6640125,13.3330854 Z" id="Shape"></path>
        </g>
    </g>
</svg>