<svg width="24" height="24" viewBox="0 0 24 24" fill="none" xmlns="http://www.w3.org/2000/svg">
<path fill-rule="evenodd" clip-rule="evenodd" d="M20.4971 14H15.2151C14.7671 14 14.5421 14.542 14.8581 14.858L16.9391 16.939C15.6521 18.228 13.8971 19 12.0001 19C9.13314 19 6.58514 17.282 5.50814 14.625C5.30014 14.111 4.71114 13.865 4.20614 14.073C3.69314 14.28 3.44714 14.863 3.65414 15.375C5.03814 18.792 8.31414 21 12.0001 21C14.4391 21 16.6951 20.007 18.3511 18.351L20.1421 20.142C20.4581 20.458 21.0001 20.233 21.0001 19.785V14.503C21.0001 14.226 20.7741 14 20.4971 14" fill="black"/>
<path fill-rule="evenodd" clip-rule="evenodd" d="M9.14163 9.14163L7.05663 7.05663C8.34463 5.76263 10.0956 4.99963 11.9996 4.99963C14.8206 4.99963 17.3516 6.67763 18.4506 9.27563C18.6116 9.65763 18.9816 9.88563 19.3706 9.88563C19.5006 9.88563 19.6336 9.86063 19.7606 9.80663C20.2696 9.59163 20.5066 9.00463 20.2916 8.49563C18.8806 5.15763 15.6256 2.99963 11.9996 2.99963C9.55163 2.99963 7.29963 3.98063 5.64463 5.64463L3.85863 3.85863C3.54163 3.54163 2.99963 3.76663 2.99963 4.21463V9.49663C2.99963 9.77463 3.22563 9.99963 3.50263 9.99963H8.78563C9.23363 9.99963 9.45763 9.45763 9.14163 9.14163" fill="black"/>
</svg>
