<?xml version="1.0" encoding="UTF-8"?>
<svg width="24px" height="24px" viewBox="0 0 24 24" version="1.1" xmlns="http://www.w3.org/2000/svg" xmlns:xlink="http://www.w3.org/1999/xlink">
    <!-- Generator: Sketch 52.6 (67491) - http://www.bohemiancoding.com/sketch -->
    <title>reload</title>
    <desc>Created with Sketch.</desc>
    <defs>
        <path d="M20.777483,3.97250258 C20.9262112,4.12094551 21,4.29671805 21,4.4998202 L21,9.74998202 C21,9.95308417 20.9257797,10.1288567 20.777483,10.2772996 C20.6290424,10.4257426 20.4532727,10.499964 20.2501738,10.499964 L15.0000959,10.499964 C14.796997,10.499964 14.6210834,10.4257426 14.472499,10.2772996 C14.3243461,10.1288567 14.249982,9.95308417 14.249982,9.74998202 C14.249982,9.54687987 14.3243461,9.37096349 14.472499,9.22252056 L16.0899545,7.60532688 C14.9336429,6.53501307 13.5703486,5.99978424 11.9999281,5.99978424 C10.9530769,5.99978424 9.97656244,6.25380577 9.07024077,6.76156114 C8.1639191,7.26946036 7.43739462,7.96866684 6.89052349,8.85932443 C6.80450851,8.99223264 6.59752599,9.44921248 6.26943208,10.2304078 C6.20686266,10.410064 6.08977873,10.499964 5.91789262,10.499964 L3.58585116,10.499964 C3.48430171,10.499964 3.39641684,10.4628533 3.32219656,10.3886318 C3.24797628,10.3144104 3.21086614,10.2265241 3.21086614,10.124973 L3.21086614,10.0429842 C3.71875724,7.9491046 4.77337563,6.25193585 6.37500899,4.95119028 C7.97664235,3.65030087 9.85156743,3 12.0000719,3 C13.1407053,3 14.2504135,3.21676696 15.3283336,3.65030087 C16.4063976,4.08383478 17.363494,4.69529883 18.199479,5.48440534 L19.7228646,3.97250258 C19.871449,3.82420349 20.0470749,3.74983818 20.2501738,3.74983818 C20.4532727,3.74983818 20.6291863,3.82420349 20.777483,3.97250258 Z M20.3320175,13.5001798 C20.4335669,13.5001798 20.5214518,13.5374344 20.5958159,13.6113682 C20.6700362,13.6857335 20.7072902,13.7734759 20.7072902,13.875027 C20.7072902,13.9140076 20.7035504,13.9414811 20.6956393,13.9570158 C20.1955155,16.0507516 19.1486643,17.7480642 17.554942,19.0488097 C15.9612197,20.3496991 14.0940619,21 11.9533246,21 C10.8126913,21 9.70916806,20.7852468 8.64275497,20.3554527 C7.57634189,19.9258025 6.62514284,19.3124685 5.78915783,18.5155947 L4.27742307,20.0274974 C4.12898251,20.1757965 3.95321278,20.2503057 3.75011387,20.2503057 C3.54701497,20.2503057 3.37124524,20.1757965 3.22266084,20.0274974 C3.07422028,19.8791983 3,19.7031381 3,19.5001798 L3,14.250018 C3,14.0469158 3.07422028,13.8709994 3.22266084,13.7227004 C3.3711014,13.5741136 3.54687113,13.4998921 3.75011387,13.4998921 L9.00019178,13.4998921 C9.20329069,13.4998921 9.37906042,13.5741136 9.52750098,13.7227004 C9.67594154,13.8709994 9.75016182,14.0469158 9.75016182,14.250018 C9.75016182,14.4529763 9.67594154,14.6290365 9.52750098,14.7773356 L7.921984,16.3827344 C8.47662237,16.898401 9.10562486,17.2969818 9.80870378,17.5783329 C10.5117827,17.859684 11.2423346,18.0002158 12.0000719,18.0002158 C13.0469231,18.0002158 14.0234376,17.7463381 14.9297592,17.2384389 C15.8359371,16.7306835 16.5624615,16.0311893 17.1094765,15.1408194 C17.1953476,15.0079112 17.402474,14.5510752 17.7304241,13.7697361 C17.7928497,13.589936 17.9100774,13.5001798 18.0818197,13.5001798 L20.3320175,13.5001798 Z" id="path-1"></path>
    </defs>
    <g id="reload" stroke="none" stroke-width="1" fill="none" fill-rule="evenodd">
        <mask id="mask-2" fill="white">
            <use xlink:href="#path-1"></use>
        </mask>
        <use id="Mask" fill="#000000" xlink:href="#path-1"></use>
    </g>
</svg>