<?xml version="1.0" encoding="UTF-8"?>
<svg width="24px" height="24px" viewBox="0 0 24 24" version="1.1" xmlns="http://www.w3.org/2000/svg" xmlns:xlink="http://www.w3.org/1999/xlink">
    <!-- Generator: Sketch 52.6 (67491) - http://www.bohemiancoding.com/sketch -->
    <title>reload</title>
    <desc>Created with Sketch.</desc>
    <g id="reload" stroke="none" stroke-width="1" fill="none" fill-rule="evenodd">
        <g id="Mask" transform="translate(3.000000, 3.000000)" fill="#000000">
            <g id="Group-3" transform="translate(0.000000, 10.000000)">
                <path d="M17.4971,1 L12.2151,1 C11.7671,1 11.5421,1.542 11.8581,1.858 L13.9391,3.939 C12.6521,5.228 10.8971,6 9.0001,6 C6.1331,6 3.5851,4.282 2.5081,1.625 C2.3001,1.111 1.7111,0.865 1.2061,1.073 C0.6931,1.28 0.4471,1.863 0.6541,2.375 C2.0381,5.792 5.3141,8 9.0001,8 C11.4391,8 13.6951,7.007 15.3511,5.351 L17.1421,7.142 C17.4581,7.458 18.0001,7.233 18.0001,6.785 L18.0001,1.503 C18.0001,1.226 17.7741,1 17.4971,1" id="Fill-1"></path>
            </g>
            <g id="Group-6">
                <path d="M6.1416,6.1416 L4.0566,4.0566 C5.3446,2.7626 7.0956,1.9996 8.9996,1.9996 C11.8206,1.9996 14.3516,3.6776 15.4506,6.2756 C15.6116,6.6576 15.9816,6.8856 16.3706,6.8856 C16.5006,6.8856 16.6336,6.8606 16.7606,6.8066 C17.2696,6.5916 17.5066,6.0046 17.2916,5.4956 C15.8806,2.1576 12.6256,-0.0004 8.9996,-0.0004 C6.5516,-0.0004 4.2996,0.9806 2.6446,2.6446 L0.8586,0.8586 C0.5416,0.5416 -0.0004,0.7666 -0.0004,1.2146 L-0.0004,6.4966 C-0.0004,6.7746 0.2256,6.9996 0.5026,6.9996 L5.7856,6.9996 C6.2336,6.9996 6.4576,6.4576 6.1416,6.1416" id="Fill-4"></path>
            </g>
        </g>
    </g>
</svg>