<svg width="24" height="24" viewBox="0 0 24 24" fill="none" xmlns="http://www.w3.org/2000/svg">
<path fill-rule="evenodd" clip-rule="evenodd" d="M20.4971 14H15.2151C14.7671 14 14.5421 14.542 14.8581 14.858L16.9391 16.939C15.6521 18.228 13.8971 19 12.0001 19C9.13311 19 6.58511 17.282 5.50811 14.625C5.30011 14.111 4.71111 13.865 4.20611 14.073C3.69311 14.28 3.44711 14.863 3.65411 15.375C5.03811 18.792 8.31411 21 12.0001 21C14.4391 21 16.6951 20.007 18.3511 18.351L20.1421 20.142C20.4581 20.458 21.0001 20.233 21.0001 19.785V14.503C21.0001 14.226 20.7741 14 20.4971 14" fill="black"/>
<path fill-rule="evenodd" clip-rule="evenodd" d="M9.1416 9.14163L7.0566 7.05663C8.3446 5.76263 10.0956 4.99963 11.9996 4.99963C14.8206 4.99963 17.3516 6.67763 18.4506 9.27563C18.6116 9.65763 18.9816 9.88563 19.3706 9.88563C19.5006 9.88563 19.6336 9.86063 19.7606 9.80663C20.2696 9.59163 20.5066 9.00463 20.2916 8.49563C18.8806 5.15763 15.6256 2.99963 11.9996 2.99963C9.5516 2.99963 7.2996 3.98063 5.6446 5.64463L3.8586 3.85863C3.5416 3.54163 2.9996 3.76663 2.9996 4.21463V9.49663C2.9996 9.77463 3.2256 9.99963 3.5026 9.99963H8.7856C9.2336 9.99963 9.4576 9.45763 9.1416 9.14163" fill="black"/>
</svg>
