<?xml version="1.0" encoding="UTF-8"?>
<svg width="24px" height="24px" viewBox="0 0 24 24" version="1.1" xmlns="http://www.w3.org/2000/svg" xmlns:xlink="http://www.w3.org/1999/xlink">
    <!-- Generator: Sketch 52.5 (67469) - http://www.bohemiancoding.com/sketch -->
    <title> revoke</title>
    <desc>Created with Sketch.</desc>
    <defs>
        <path d="M20.6591232,6.98042224 C19.764939,5.44840261 18.551917,4.23538061 17.0198974,3.3411964 C15.4875581,2.44701219 13.8147385,2 12.0003196,2 C10.1860606,2 8.5127615,2.44701219 6.98074188,3.3411964 C5.44856243,4.23522079 4.23554043,5.4482428 3.34135622,6.98042224 C2.44701219,8.51260168 2,10.1859008 2,12 C2,13.814259 2.44717201,15.4872385 3.3411964,17.0195778 C4.23538061,18.5514376 5.44840261,19.7646194 6.98058206,20.6588036 C8.5127615,21.5529878 10.1859008,22 12.0001598,22 C13.8144188,22 15.487718,21.5529878 17.0197376,20.6588036 C18.5517572,19.7647792 19.7647792,18.5515974 20.6589634,17.0195778 C21.5529878,15.4873983 22,13.8140992 22,12 C22,10.185741 21.5529878,8.51244187 20.6591232,6.98042224 L20.6591232,6.98042224 Z M17.8335331,12.8332934 C17.8335331,13.058957 17.7510668,13.2545748 17.5861342,13.4193476 C17.4212015,13.5841204 17.2259034,13.6667466 17.0002397,13.6667466 L7.00007991,13.6667466 C6.77441626,13.6667466 6.57911812,13.5841204 6.41418549,13.4193476 C6.24925285,13.2545748 6.16678653,13.058957 6.16678653,12.8332934 L6.16678653,11.1665468 C6.16678653,10.9408832 6.24925285,10.745585 6.41418549,10.5806524 C6.57911812,10.4157197 6.77441626,10.3332534 7.00007991,10.3332534 L17.0002397,10.3332534 C17.2259034,10.3332534 17.4212015,10.4157197 17.5861342,10.5806524 C17.7510668,10.745585 17.8335331,10.9408832 17.8335331,11.1665468 L17.8335331,12.8332934 L17.8335331,12.8332934 Z" id="path-1"></path>
    </defs>
    <g id="-revoke" stroke="none" stroke-width="1" fill="none" fill-rule="evenodd">
        <mask id="mask-2" fill="white">
            <use xlink:href="#path-1"></use>
        </mask>
        <use id="revoke_link" fill="#000000" xlink:href="#path-1"></use>
    </g>
</svg>