<svg width="24" height="24" viewBox="0 0 24 24" fill="none" xmlns="http://www.w3.org/2000/svg">
<path fill-rule="evenodd" clip-rule="evenodd" d="M20.6591 6.98042C19.7649 5.4484 18.5519 4.23538 17.0199 3.3412C15.4876 2.44701 13.8147 2 12.0003 2C10.1861 2 8.51276 2.44701 6.98074 3.3412C5.44856 4.23522 4.23554 5.44824 3.34136 6.98042C2.44701 8.5126 2 10.1859 2 12C2 13.8143 2.44717 15.4872 3.3412 17.0196C4.23538 18.5514 5.4484 19.7646 6.98058 20.6588C8.51276 21.553 10.1859 22 12.0002 22C13.8144 22 15.4877 21.553 17.0197 20.6588C18.5518 19.7648 19.7648 18.5516 20.659 17.0196C21.553 15.4874 22 13.8141 22 12C22 10.1857 21.553 8.51244 20.6591 6.98042ZM17.8335 12.8333C17.8335 13.059 17.7511 13.2546 17.5861 13.4193C17.4212 13.5841 17.2259 13.6667 17.0002 13.6667H7.00008C6.77442 13.6667 6.57912 13.5841 6.41419 13.4193C6.24925 13.2546 6.16679 13.059 6.16679 12.8333V11.1665C6.16679 10.9409 6.24925 10.7456 6.41419 10.5807C6.57912 10.4157 6.77442 10.3333 7.00008 10.3333H17.0002C17.2259 10.3333 17.4212 10.4157 17.5861 10.5807C17.7511 10.7456 17.8335 10.9409 17.8335 11.1665V12.8333Z" fill="black"/>
</svg>
