<svg width="24" height="24" viewBox="0 0 24 24" fill="none" xmlns="http://www.w3.org/2000/svg">
<path fill-rule="evenodd" clip-rule="evenodd" d="M7.25037 7.48061C8.03144 6.69987 9.29754 6.69967 10.0785 7.48061L15.7347 13.1378C16.5158 13.9189 16.5158 15.1849 15.7347 15.966L10.0785 21.6232C9.29756 22.404 8.03142 22.4038 7.25037 21.6232L1.59314 15.966C0.812112 15.1849 0.812156 13.9189 1.59314 13.1378L7.25037 7.48061ZM3.0072 14.5519L8.66443 20.2091L14.3207 14.5519L8.66443 8.89467L3.0072 14.5519Z" fill="black"/>
<path d="M6.94861 2.51186C10.2184 0.70025 14.2347 1.01961 17.1781 3.32729C19.1653 4.88528 20.3683 7.11563 20.6527 9.51967L23.2396 9.2062C23.6987 9.15062 23.9954 9.67847 23.7103 10.0421L20.8607 14.2677C20.6838 14.4933 20.357 14.5319 20.1322 14.3556L15.8441 10.9933C15.4805 10.7082 15.6433 10.1259 16.101 10.0705L18.6088 9.76674C18.3868 7.89663 17.4502 6.16307 15.9047 4.95131C13.6147 3.15604 10.4922 2.90709 7.94665 4.31655C7.57296 4.52398 7.12758 4.47411 6.81189 4.22671C6.70638 4.14398 6.61401 4.03884 6.54529 3.91421C6.269 3.41585 6.45039 2.7883 6.94861 2.51186Z" fill="black"/>
</svg>
