<svg width="24" height="24" viewBox="0 0 24 24" fill="none" xmlns="http://www.w3.org/2000/svg">
<path d="M12.7536 12.7536L11.2464 11.2464L8.37097 15.629L12.7536 12.7536ZM12 2C6.47581 2 2 6.47581 2 12C2 17.5242 6.47581 22 12 22C17.5242 22 22 17.5242 22 12C22 6.47581 17.5242 2 12 2ZM18.2843 9.04798L18.8802 8.80081C18.9194 8.78462 18.9614 8.77631 19.0037 8.77635C19.0461 8.77639 19.088 8.78477 19.1272 8.80102C19.1663 8.81727 19.2019 8.84107 19.2318 8.87106C19.2617 8.90105 19.2854 8.93664 19.3016 8.97581V8.97581C19.3179 9.01496 19.3262 9.05694 19.3263 9.09933C19.3263 9.14173 19.318 9.18371 19.3017 9.22289C19.2855 9.26206 19.2617 9.29765 19.2318 9.32763C19.2018 9.3576 19.1662 9.38137 19.127 9.39758L18.5323 9.64395C18.4532 9.67666 18.3644 9.67664 18.2854 9.6439C18.2064 9.61116 18.1436 9.54837 18.1109 9.46935V9.46935C18.0781 9.39047 18.078 9.30181 18.1105 9.22282C18.143 9.14383 18.2055 9.08095 18.2843 9.04798V9.04798ZM14.356 5.46774L14.6028 4.87177C14.6358 4.79297 14.6987 4.73046 14.7777 4.69796C14.8567 4.66546 14.9453 4.66561 15.0242 4.69839V4.69839C15.1032 4.73112 15.166 4.7939 15.1987 4.87292C15.2315 4.95194 15.2315 5.04073 15.1988 5.11976L14.9516 5.71573C14.9189 5.79475 14.8561 5.85753 14.7771 5.89027C14.6981 5.92301 14.6093 5.92303 14.5302 5.89032V5.89032C14.491 5.87408 14.4554 5.85025 14.4254 5.8202C14.3953 5.79015 14.3716 5.75447 14.3554 5.71521C14.3392 5.67595 14.3309 5.63387 14.331 5.59141C14.3312 5.54894 14.3397 5.50692 14.356 5.46774V5.46774ZM12 4.09677C12.0856 4.09677 12.1676 4.13076 12.2281 4.19126C12.2886 4.25175 12.3226 4.3338 12.3226 4.41935V5.06452C12.3226 5.15007 12.2886 5.23212 12.2281 5.29261C12.1676 5.35311 12.0856 5.3871 12 5.3871C11.9144 5.3871 11.8324 5.35311 11.7719 5.29261C11.7114 5.23212 11.6774 5.15007 11.6774 5.06452V4.41935C11.6774 4.3338 11.7114 4.25175 11.7719 4.19126C11.8324 4.13076 11.9144 4.09677 12 4.09677V4.09677ZM8.97581 4.69839C9.01496 4.68213 9.05694 4.67375 9.09933 4.67373C9.14173 4.67371 9.18371 4.68204 9.22289 4.69826C9.26206 4.71447 9.29765 4.73825 9.32763 4.76823C9.3576 4.79821 9.38137 4.83381 9.39758 4.87298L9.64395 5.46774C9.66113 5.50704 9.6703 5.54937 9.67092 5.59226C9.67154 5.63515 9.6636 5.67773 9.64757 5.71751C9.63154 5.75729 9.60774 5.79348 9.57755 5.82395C9.54737 5.85442 9.51141 5.87857 9.47178 5.89498C9.43215 5.91139 9.38965 5.91973 9.34676 5.91951C9.30387 5.9193 9.26145 5.91053 9.22199 5.89373C9.18253 5.87693 9.14682 5.85242 9.11694 5.82165C9.08706 5.79088 9.06362 5.75446 9.04798 5.71452L8.80081 5.11855C8.7685 5.03961 8.76877 4.95108 8.80157 4.87234C8.83437 4.7936 8.89701 4.73106 8.97581 4.69839V4.69839ZM6.4121 6.41169C6.47259 6.35124 6.5546 6.31729 6.64012 6.31729C6.72564 6.31729 6.80766 6.35124 6.86814 6.41169L7.32258 6.86774C7.38266 6.92818 7.41638 7.00994 7.41638 7.09516C7.41638 7.18038 7.38266 7.26214 7.32258 7.32258C7.26209 7.38303 7.18007 7.41699 7.09456 7.41699C7.00904 7.41699 6.92702 7.38303 6.86653 7.32258L6.41048 6.86653C6.35056 6.80593 6.31706 6.72408 6.31728 6.63886C6.31751 6.55364 6.35145 6.47197 6.41169 6.41169H6.4121ZM4.09677 12C4.09677 11.9144 4.13076 11.8324 4.19126 11.7719C4.25175 11.7114 4.3338 11.6774 4.41935 11.6774H5.06452C5.15007 11.6774 5.23212 11.7114 5.29261 11.7719C5.35311 11.8324 5.3871 11.9144 5.3871 12C5.3871 12.0856 5.35311 12.1676 5.29261 12.2281C5.23212 12.2886 5.15007 12.3226 5.06452 12.3226H4.41935C4.3338 12.3226 4.25175 12.2886 4.19126 12.2281C4.13076 12.1676 4.09677 12.0856 4.09677 12ZM5.71573 14.952L5.11976 15.1992C5.0806 15.2154 5.03864 15.2237 4.99627 15.2237C4.9539 15.2236 4.91195 15.2152 4.87282 15.199C4.83369 15.1827 4.79815 15.1589 4.76822 15.1289C4.73829 15.0989 4.71456 15.0634 4.69839 15.0242C4.68213 14.985 4.67375 14.9431 4.67373 14.9007C4.67371 14.8583 4.68204 14.8163 4.69826 14.7771C4.71447 14.7379 4.73825 14.7024 4.76823 14.6724C4.79821 14.6424 4.83381 14.6186 4.87298 14.6024L5.46774 14.356C5.54677 14.3233 5.63556 14.3234 5.71458 14.3561C5.7936 14.3888 5.85638 14.4516 5.88911 14.5306V14.5306C5.92189 14.6095 5.92204 14.6982 5.88954 14.7772C5.85704 14.8562 5.79453 14.919 5.71573 14.952V14.952ZM5.89032 9.46815C5.87423 9.50753 5.85051 9.54333 5.82053 9.57351C5.79055 9.60369 5.75489 9.62763 5.71561 9.64397C5.67634 9.66031 5.63421 9.66872 5.59167 9.66872C5.54913 9.66872 5.50702 9.6603 5.46774 9.64395L4.87177 9.39718C4.79297 9.36421 4.73046 9.30133 4.69796 9.22234C4.66546 9.14335 4.66561 9.05469 4.69839 8.97581C4.73112 8.89679 4.7939 8.834 4.87292 8.80126C4.95194 8.76852 5.04073 8.7685 5.11976 8.80121L5.71573 9.04839C5.79465 9.08113 5.85735 9.14384 5.89009 9.22276C5.92282 9.30168 5.9229 9.39037 5.89032 9.46935V9.46815ZM9.64395 18.5323L9.39718 19.1282C9.38097 19.1674 9.35722 19.203 9.32726 19.2329C9.29731 19.2629 9.26174 19.2867 9.22259 19.3029C9.18345 19.3192 9.14149 19.3275 9.09911 19.3275C9.05673 19.3276 9.01476 19.3192 8.9756 19.303C8.93645 19.2868 8.90086 19.2631 8.87089 19.2331C8.84091 19.2032 8.81713 19.1676 8.80089 19.1284C8.78466 19.0893 8.7763 19.0473 8.77629 19.005C8.77627 18.9626 8.7846 18.9206 8.80081 18.8815L9.04798 18.2855C9.06362 18.2455 9.08706 18.2091 9.11694 18.1783C9.14682 18.1476 9.18253 18.1231 9.22199 18.1063C9.26145 18.0895 9.30387 18.0807 9.34676 18.0805C9.38965 18.0803 9.43215 18.0886 9.47178 18.105C9.51141 18.1214 9.54737 18.1456 9.57755 18.1761C9.60774 18.2065 9.63154 18.2427 9.64757 18.2825C9.6636 18.3223 9.67154 18.3649 9.67092 18.4077C9.6703 18.4506 9.66113 18.493 9.64395 18.5323V18.5323ZM12.3226 19.5806C12.3226 19.6662 12.2886 19.7482 12.2281 19.8087C12.1676 19.8692 12.0856 19.9032 12 19.9032C11.9144 19.9032 11.8324 19.8692 11.7719 19.8087C11.7114 19.7482 11.6774 19.6662 11.6774 19.5806V18.9355C11.6774 18.8499 11.7114 18.7679 11.7719 18.7074C11.8324 18.6469 11.9144 18.6129 12 18.6129C12.0856 18.6129 12.1676 18.6469 12.2281 18.7074C12.2886 18.7679 12.3226 18.8499 12.3226 18.9355V19.5806ZM15.0242 19.3016C14.985 19.3179 14.9431 19.3262 14.9007 19.3263C14.8583 19.3263 14.8163 19.318 14.7771 19.3017C14.7379 19.2855 14.7024 19.2617 14.6724 19.2318C14.6424 19.2018 14.6186 19.1662 14.6024 19.127L14.356 18.5323C14.3233 18.4532 14.3234 18.3644 14.3561 18.2854C14.3888 18.2064 14.4516 18.1436 14.5306 18.1109V18.1109C14.6097 18.0782 14.6985 18.0782 14.7775 18.1109C14.8565 18.1437 14.9193 18.2065 14.952 18.2855L15.1992 18.8815C15.2315 18.9604 15.2312 19.0489 15.1984 19.1277C15.1656 19.2064 15.103 19.2689 15.0242 19.3016ZM17.5879 17.5883C17.5274 17.6488 17.4454 17.6827 17.3599 17.6827C17.2744 17.6827 17.1923 17.6488 17.1319 17.5883L16.6774 17.1323C16.6173 17.0718 16.5836 16.9901 16.5836 16.9048C16.5836 16.8196 16.6173 16.7379 16.6774 16.6774C16.7379 16.617 16.8199 16.583 16.9054 16.583C16.991 16.583 17.073 16.617 17.1335 16.6774L17.5895 17.1335C17.6494 17.1941 17.6829 17.2759 17.6827 17.3611C17.6825 17.4464 17.6485 17.528 17.5883 17.5883H17.5879ZM13.2198 13.2198L6.12661 17.8734L10.7802 10.7802L17.8734 6.12661L13.2198 13.2198ZM19.3016 15.0242C19.2689 15.1032 19.2061 15.166 19.1271 15.1987C19.0481 15.2315 18.9593 15.2315 18.8802 15.1988L18.2843 14.9516C18.2053 14.9189 18.1425 14.8561 18.1097 14.7771C18.077 14.6981 18.077 14.6093 18.1097 14.5302V14.5302C18.1259 14.491 18.1497 14.4554 18.1798 14.4254C18.2099 14.3953 18.2455 14.3716 18.2848 14.3554C18.3241 14.3392 18.3661 14.3309 18.4086 14.331C18.4511 14.3312 18.4931 14.3397 18.5323 14.356L19.1282 14.6028C19.207 14.6358 19.2695 14.6987 19.302 14.7777C19.3345 14.8567 19.3344 14.9453 19.3016 15.0242V15.0242ZM19.5806 12.3226H18.9355C18.8499 12.3226 18.7679 12.2886 18.7074 12.2281C18.6469 12.1676 18.6129 12.0856 18.6129 12C18.6129 11.9144 18.6469 11.8324 18.7074 11.7719C18.7679 11.7114 18.8499 11.6774 18.9355 11.6774H19.5806C19.6662 11.6774 19.7482 11.7114 19.8087 11.7719C19.8692 11.8324 19.9032 11.9144 19.9032 12C19.9032 12.0856 19.8692 12.1676 19.8087 12.2281C19.7482 12.2886 19.6662 12.3226 19.5806 12.3226Z" fill="black"/>
</svg>
