<?xml version="1.0" encoding="UTF-8"?>
<svg width="24px" height="24px" viewBox="0 0 24 24" version="1.1" xmlns="http://www.w3.org/2000/svg" xmlns:xlink="http://www.w3.org/1999/xlink">
    <!-- Generator: Sketch 52.6 (67491) - http://www.bohemiancoding.com/sketch -->
    <title>sales</title>
    <desc>Created with Sketch.</desc>
    <g id="sales" stroke="none" stroke-width="1" fill="none" fill-rule="evenodd">
        <g id="Mask" transform="translate(2.000000, 3.000000)" fill="#000000">
            <path d="M18.2148,3 L14.0118,3 L14.0118,1.125 C14.0118,0.812 13.9068,0.547 13.6988,0.328 C13.4908,0.109 13.2378,0 12.9408,0 L7.0708,0 C6.7738,0 6.5208,0.109 6.3128,0.328 C6.1038,0.547 5.9998,0.812 5.9998,1.125 L5.9998,3 L1.7858,3 C1.2948,3 0.8738,3.184 0.5248,3.551 C0.1748,3.918 -0.0002,4.359 -0.0002,4.875 L-0.0002,8.973 L19.9998,8.973 L19.9998,4.875 C19.9998,4.359 19.8248,3.918 19.4758,3.551 C19.1258,3.184 18.7048,3 18.2148,3 Z M7.9998,3 L11.9998,3 L11.9998,2.003 L7.9998,2.003 L7.9998,3 Z M8.9918,11.938 L10.9788,11.938 L10.9788,10.012 L8.9918,10.012 L8.9918,11.938 Z M13.0038,12.247 L13.0038,12.375 L13.0038,10.015 L19.9998,10.015 L19.9998,16.125 C19.9998,16.641 19.8248,17.082 19.4758,17.449 C19.1258,17.816 18.7048,18 18.2148,18 L1.7858,18 C1.2948,18 0.8738,17.816 0.5248,17.449 C0.1748,17.082 -0.0002,16.641 -0.0002,16.125 L-0.0002,10.015 L7.0068,10.015 L7.0068,12.247 C7.0068,12.45 7.0778,12.626 7.2188,12.774 C7.3608,12.923 7.5278,12.997 7.7208,12.997 L12.2898,12.997 C12.4838,12.997 12.6508,12.923 12.7918,12.774 C12.9338,12.626 13.0038,12.45 13.0038,12.247 Z" id="Fill-1"></path>
        </g>
    </g>
</svg>