<svg width="24" height="24" viewBox="0 0 24 24" fill="none" xmlns="http://www.w3.org/2000/svg">
<path fill-rule="evenodd" clip-rule="evenodd" d="M20.2148 6H16.0118V4.125C16.0118 3.812 15.9068 3.547 15.6988 3.328C15.4908 3.109 15.2378 3 14.9408 3H9.07076C8.77376 3 8.52076 3.109 8.31276 3.328C8.10376 3.547 7.99976 3.812 7.99976 4.125V6H3.78576C3.29476 6 2.87376 6.184 2.52476 6.551C2.17476 6.918 1.99976 7.359 1.99976 7.875V11.973H21.9998V7.875C21.9998 7.359 21.8248 6.918 21.4758 6.551C21.1258 6.184 20.7048 6 20.2148 6ZM9.99976 6H13.9998V5.003H9.99976V6ZM10.9918 14.938H12.9788V13.012H10.9918V14.938ZM15.0038 15.247V15.375V13.015H21.9998V19.125C21.9998 19.641 21.8248 20.082 21.4758 20.449C21.1258 20.816 20.7048 21 20.2148 21H3.78576C3.29476 21 2.87376 20.816 2.52476 20.449C2.17476 20.082 1.99976 19.641 1.99976 19.125V13.015H9.00676V15.247C9.00676 15.45 9.07776 15.626 9.21876 15.774C9.36076 15.923 9.52776 15.997 9.72076 15.997H14.2898C14.4838 15.997 14.6508 15.923 14.7918 15.774C14.9338 15.626 15.0038 15.45 15.0038 15.247Z" fill="black"/>
</svg>
