<?xml version="1.0" encoding="UTF-8"?>
<svg width="24px" height="24px" viewBox="0 0 24 24" version="1.1" xmlns="http://www.w3.org/2000/svg" xmlns:xlink="http://www.w3.org/1999/xlink">
    <!-- Generator: Sketch 52.5 (67469) - http://www.bohemiancoding.com/sketch -->
    <title> sales</title>
    <desc>Created with Sketch.</desc>
    <defs>
        <path d="M20.2143836,5.99657143 L16.2856164,5.99657143 L16.2856164,4.12151749 C16.2856164,3.80896055 16.1815068,3.54343819 15.9731507,3.32466272 C15.7649315,3.10603108 15.5119178,2.99657143 15.2143836,2.99657143 L8.78575342,2.99657143 C8.48821918,2.99657143 8.23520548,3.10603108 8.02684932,3.32466272 C7.81849315,3.54329435 7.71438356,3.80896055 7.71438356,4.12151749 L7.71438356,5.99657143 L3.78575342,5.99657143 C3.29465753,5.99657143 2.87424658,6.18010693 2.52452055,6.54732178 C2.17479452,6.91453662 2,7.35582731 2,7.87148153 L2,11.9698697 L22,11.9698697 L22,7.87148153 C22,7.35582731 21.8253425,6.91453662 21.4754795,6.54732178 C21.1257534,6.18010693 20.7053425,5.99657143 20.2143836,5.99657143 Z M9.14287671,5.99657143 L9.14287671,4.49649951 L14.8571233,4.49649951 L14.8571233,5.99657143 L9.14287671,5.99657143 Z M10.9918124,13.009019 L12.9786962,13.009019 L12.9786962,14.9350094 L10.9918124,14.9350094 L10.9918124,13.009019 Z M15.004026,15.2437576 L15.004026,15.3715534 L15.004026,13.0117433 L22,13.0117433 L22,19.1216613 C22,19.6371717 21.8253425,20.0786062 21.4754795,20.4458211 C21.1257534,20.8130359 20.7053425,20.9965714 20.2143836,20.9965714 L3.78575342,20.9965714 C3.29465753,20.9965714 2.87424658,20.8130359 2.52452055,20.4458211 C2.17479452,20.0786062 2,19.6371717 2,19.1216613 L2,13.0117433 L9.00702487,13.0117433 L9.00702487,15.2437576 C9.00702487,15.4469987 9.0777098,15.6229109 9.21907966,15.7712064 C9.36044952,15.9196458 9.52784678,15.9938654 9.72140843,15.9938654 L14.2896424,15.9938654 C14.4830671,15.9938654 14.6506014,15.9196458 14.7919712,15.7712064 C14.9332041,15.6229109 15.004026,15.4469987 15.004026,15.2437576 Z" id="path-1"></path>
    </defs>
    <g id="-sales" stroke="none" stroke-width="1" fill="none" fill-rule="evenodd">
        <mask id="mask-2" fill="white">
            <use xlink:href="#path-1"></use>
        </mask>
        <use id="Shape" fill="#000000" xlink:href="#path-1"></use>
    </g>
</svg>