<?xml version="1.0" encoding="UTF-8"?>
<svg width="24px" height="24px" viewBox="0 0 24 24" version="1.1" xmlns="http://www.w3.org/2000/svg" xmlns:xlink="http://www.w3.org/1999/xlink">
    <!-- Generator: Sketch 52.6 (67491) - http://www.bohemiancoding.com/sketch -->
    <title>scrapbox</title>
    <desc>Created with Sketch.</desc>
    <defs>
        <path d="M12.5351523,3.11291107 C12.2396291,2.96253135 11.7611482,2.9621947 11.4649575,3.11291107 L6.5351028,5.6214631 C6.23957368,5.77184283 6,6.16202701 6,6.49315354 L6,11.4005961 C6,11.7316378 6.23891209,12.1215702 6.5351028,12.2722866 L11.6795922,14.8900553 C11.8565818,14.9801163 11.8561923,15.1263323 11.6795922,15.216195 L6.5351028,17.8339638 C6.23957368,17.9843435 6.23891209,18.2278205 6.5351028,18.3785369 L11.4649575,20.8870889 C11.7604866,21.0374687 12.2389675,21.0378053 12.5351523,20.8870889 L17.464908,18.3785369 C17.7604311,18.2281572 18,17.837973 18,17.5068464 L18,12.5994039 C18,12.2683623 17.7610927,11.8784298 17.464908,11.7277134 L12.3205219,9.10994471 C12.1435358,9.0198837 12.1439253,8.87366777 12.3205219,8.78380496 L17.464908,6.16603624 C17.7604311,6.01565652 17.7610927,5.77217947 17.464908,5.6214631 L12.5351523,3.11291107 L12.5351523,3.11291107 Z" id="path-1"></path>
    </defs>
    <g id="scrapbox" stroke="none" stroke-width="1" fill="none" fill-rule="evenodd">
        <mask id="mask-2" fill="white">
            <use xlink:href="#path-1"></use>
        </mask>
        <use id="path-1" fill="#000000" xlink:href="#path-1"></use>
    </g>
</svg>