<svg width="24" height="24" viewBox="0 0 24 24" fill="none" xmlns="http://www.w3.org/2000/svg">
<mask id="mask0_1784_657" style="mask-type:alpha" maskUnits="userSpaceOnUse" x="6" y="3" width="12" height="18">
<path d="M12.5352 3.11291C12.2396 2.96253 11.7611 2.96219 11.465 3.11291L6.5351 5.62146C6.23957 5.77184 6 6.16203 6 6.49315V11.4006C6 11.7316 6.23891 12.1216 6.5351 12.2723L11.6796 14.8901C11.8566 14.9801 11.8562 15.1263 11.6796 15.2162L6.5351 17.834C6.23957 17.9843 6.23891 18.2278 6.5351 18.3785L11.465 20.8871C11.7605 21.0375 12.239 21.0378 12.5352 20.8871L17.4649 18.3785C17.7604 18.2282 18 17.838 18 17.5068V12.5994C18 12.2684 17.7611 11.8784 17.4649 11.7277L12.3205 9.10994C12.1435 9.01988 12.1439 8.87367 12.3205 8.7838L17.4649 6.16604C17.7604 6.01566 17.7611 5.77218 17.4649 5.62146L12.5352 3.11291Z" fill="black"/>
</mask>
<g mask="url(#mask0_1784_657)">
<path d="M12.5352 3.11291C12.2396 2.96253 11.7611 2.96219 11.465 3.11291L6.5351 5.62146C6.23957 5.77184 6 6.16203 6 6.49315V11.4006C6 11.7316 6.23891 12.1216 6.5351 12.2723L11.6796 14.8901C11.8566 14.9801 11.8562 15.1263 11.6796 15.2162L6.5351 17.834C6.23957 17.9843 6.23891 18.2278 6.5351 18.3785L11.465 20.8871C11.7605 21.0375 12.239 21.0378 12.5352 20.8871L17.4649 18.3785C17.7604 18.2282 18 17.838 18 17.5068V12.5994C18 12.2684 17.7611 11.8784 17.4649 11.7277L12.3205 9.10994C12.1435 9.01988 12.1439 8.87367 12.3205 8.7838L17.4649 6.16604C17.7604 6.01566 17.7611 5.77218 17.4649 5.62146L12.5352 3.11291Z" fill="black"/>
</g>
</svg>
