<svg width="24" height="24" viewBox="0 0 24 24" fill="none" xmlns="http://www.w3.org/2000/svg">
<path fill-rule="evenodd" clip-rule="evenodd" d="M19.5535 21.4702C19.815 21.8069 20.208 22 20.6317 22C21.3862 22 22 21.3813 22 20.6209C22 20.2974 21.8866 19.9829 21.6796 19.734L21.6785 19.7327L21.68 19.7311L21.6616 19.7129C21.6165 19.6609 21.567 19.6119 21.5144 19.567L16.5509 14.6499L16.5507 14.6473L16.5517 14.646C17.5563 13.2777 18.0873 11.6603 18.0873 9.96863C18.0873 5.57471 14.4789 2 10.0436 2C5.60835 2 2 5.57471 2 9.96863C2 14.3625 5.60835 17.9373 10.0436 17.9373C11.6707 17.9373 13.2386 17.4561 14.5794 16.5449L14.5808 16.5439L19.5535 21.4702ZM4 10C4 6.6916 6.6916 4 10 4C13.3084 4 16 6.6916 16 10C16 13.3084 13.3084 16 10 16C6.6916 16 4 13.3084 4 10Z" fill="black"/>
</svg>
