<?xml version="1.0" encoding="UTF-8"?>
<svg width="24px" height="24px" viewBox="0 0 24 24" version="1.1" xmlns="http://www.w3.org/2000/svg" xmlns:xlink="http://www.w3.org/1999/xlink">
    <!-- Generator: Sketch 52.5 (67469) - http://www.bohemiancoding.com/sketch -->
    <title>selected</title>
    <desc>Created with Sketch.</desc>
    <defs>
        <path d="M22,12 C22,17.5228475 17.5228475,22 12,22 C6.4771525,22 2,17.5228475 2,12 C2,6.4771525 6.4771525,2 12,2 C17.5228475,2 22,6.4771525 22,12 Z M4.10526316,12 C4.10526316,16.3601428 7.63985724,19.8947368 12,19.8947368 C16.3601428,19.8947368 19.8947368,16.3601428 19.8947368,12 C19.8947368,7.63985724 16.3601428,4.10526316 12,4.10526316 C7.63985724,4.10526316 4.10526316,7.63985724 4.10526316,12 Z M10.1933754,14.2705902 L16.3380944,8.06971881 C16.6439299,7.76024275 17.139777,7.76024275 17.4456124,8.06971881 C17.7514479,8.37843822 17.7514479,8.87859392 17.4456124,9.18806998 L10.7634103,15.9322269 C10.6067075,16.09037 10.3992844,16.1660365 10.1933754,16.1622532 C9.98746638,16.1660365 9.78080033,16.09037 9.62334049,15.9322269 L6.55438758,12.8291429 C6.24855211,12.5204235 6.24855211,12.0195112 6.55438758,11.7107918 C6.86022304,11.4020724 7.35607014,11.4020724 7.66190561,11.7107918 L10.1933754,14.2705902 Z" id="path-1"></path>
    </defs>
    <g id="selected" stroke="none" stroke-width="1" fill="none" fill-rule="evenodd">
        <mask id="mask-2" fill="white">
            <use xlink:href="#path-1"></use>
        </mask>
        <use id="Mask" fill="#000000" xlink:href="#path-1"></use>
    </g>
</svg>