<?xml version="1.0" encoding="UTF-8"?>
<svg width="24px" height="24px" viewBox="0 0 24 24" version="1.1" xmlns="http://www.w3.org/2000/svg" xmlns:xlink="http://www.w3.org/1999/xlink">
    <!-- Generator: Sketch 52.5 (67469) - http://www.bohemiancoding.com/sketch -->
    <title> settings</title>
    <desc>Created with Sketch.</desc>
    <defs>
        <path d="M21.6225053,10.1119697 L19.2397531,9.74742091 C19.1095,9.33077089 18.9314608,8.90549061 18.7057954,8.47142024 C18.8619393,8.25438505 19.096235,7.9484901 19.4086825,7.55341575 C19.7211301,7.15834139 19.9424804,6.86986679 20.0727335,6.68751249 C20.142255,6.59194029 20.1767761,6.49221278 20.1767761,6.38801032 C20.1767761,6.26654733 20.1465702,6.17113496 20.0856789,6.10161338 C19.7732313,5.65875293 19.0570791,4.92102508 17.9372224,3.88795039 C17.8333396,3.80116828 17.7246621,3.75785714 17.6119892,3.75785714 C17.4817362,3.75785714 17.3775337,3.79685315 17.2993819,3.87484517 L15.4505874,5.26815352 C15.094509,5.08579922 14.7039096,4.9251804 14.2786294,4.78629706 L13.9140806,2.3905994 C13.9054503,2.27776668 13.8554268,2.18443196 13.7643295,2.11059525 C13.6730725,2.03675854 13.5669522,2 13.4451695,2 L10.5546701,2 C10.302954,2 10.1466504,2.12146299 10.0859189,2.36454879 C9.97308614,2.79845934 9.8471482,3.60570876 9.70826486,4.78629706 C9.30024512,4.91670995 8.9053306,5.08164391 8.52336147,5.28125874 L6.72650837,3.88795039 C6.61367565,3.80116828 6.50084292,3.75785714 6.3880102,3.75785714 C6.19702564,3.75785714 5.78692824,4.06806722 5.15755819,4.68880703 C4.52818813,5.30954683 4.10083021,5.7760606 3.87500494,6.08850816 C3.7968531,6.20134089 3.75785709,6.30122821 3.75785709,6.38801032 C3.75785709,6.49221278 3.80116823,6.59641524 3.88795034,6.70045788 C4.4695343,7.40366467 4.9339704,8.00250917 5.28125865,8.49747085 C5.06422347,8.89670052 4.89497439,9.29609001 4.7735114,9.69531968 L2.35160338,10.0598685 C2.25619101,10.0772888 2.17372403,10.1337052 2.10420246,10.2292774 C2.03468088,10.3246897 2,10.4245771 2,10.5286197 L2,13.4192791 C2,13.5322716 2.03468088,13.6340768 2.10420246,13.725174 C2.17372403,13.8164311 2.26482127,13.8709296 2.377654,13.8881901 L4.76056601,14.2397935 C4.88202899,14.6650738 5.05990834,15.0946692 5.29436387,15.5285798 C5.13822,15.7456149 4.90376447,16.0515099 4.59131692,16.4465843 C4.27886937,16.8416586 4.05735924,17.1301332 3.92726599,17.3124875 C3.85774441,17.4082195 3.82306353,17.5077872 3.82306353,17.6119897 C3.82306353,17.7248224 3.85342928,17.8245499 3.91416077,17.911332 C4.25265894,18.3802431 4.9688111,19.1095005 6.06261726,20.0989444 C6.15818945,20.1945166 6.26670704,20.2421429 6.38817002,20.2421429 C6.51842309,20.2421429 6.62694068,20.2031469 6.71372279,20.1251548 L8.54973172,18.7316867 C8.90581006,18.914041 9.29640945,19.0746598 9.72168972,19.2137029 L10.0862385,21.6094006 C10.0950286,21.7222333 10.1448923,21.815568 10.2359896,21.8894048 C10.3270868,21.9634013 10.4335267,22 10.5549897,22 L13.445649,22 C13.6976847,22 13.8538286,21.878537 13.9147199,21.6354512 C14.0273928,21.2013808 14.1531709,20.3942912 14.2920542,19.2137029 C14.700074,19.0834499 15.0951483,18.9183561 15.4769576,18.7187413 L17.2739705,20.1251548 C17.3954335,20.2031469 17.5084261,20.2421429 17.6124687,20.2421429 C17.8032934,20.2421429 18.2113132,19.9341703 18.8362083,19.3177456 C19.461423,18.7014807 19.8910184,18.2325697 20.1251543,17.911332 C20.2033062,17.8245499 20.242462,17.7248224 20.242462,17.6119897 C20.242462,17.499157 20.1991509,17.3903197 20.1122089,17.2864369 C19.4873138,16.5224986 19.0228777,15.9236541 18.7189006,15.4895837 C18.8924648,15.1683461 19.0618737,14.7734316 19.2268077,14.3046803 L21.6356105,13.9402914 C21.7396531,13.922871 21.8267549,13.8662948 21.8961166,13.7707226 C21.9654784,13.6751504 21.9999994,13.5752631 21.9999994,13.4712205 L21.9999994,10.5807209 C22.0001593,10.4678882 21.9656382,10.3660831 21.8959568,10.274826 C21.8262754,10.1835689 21.735338,10.1292302 21.6225053,10.1119697 Z M15.5352639,15.5350242 C14.5588531,16.5116747 13.3803519,17 12,17 C10.6196481,17 9.44138658,16.5116747 8.46473606,15.5350242 C7.48832526,14.5586134 7,13.3803519 7,12 C7,10.6196481 7.48808553,9.44138658 8.46473606,8.46473606 C9.44138658,7.48832526 10.6198878,7 12,7 C13.3803519,7 14.5588531,7.48832526 15.5352639,8.46473606 C16.5116747,9.44138658 17,10.6196481 17,12 C17,13.3803519 16.5116747,14.5586134 15.5352639,15.5350242 L15.5352639,15.5350242 Z" id="path-1"></path>
    </defs>
    <g id="-settings" stroke="none" stroke-width="1" fill="none" fill-rule="evenodd">
        <mask id="mask-2" fill="white">
            <use xlink:href="#path-1"></use>
        </mask>
        <use id="Mask" fill="#000000" xlink:href="#path-1"></use>
    </g>
</svg>