<svg width="24" height="24" viewBox="0 0 24 24" fill="none" xmlns="http://www.w3.org/2000/svg">
<path fill-rule="evenodd" clip-rule="evenodd" d="M22.0548 7.00751C22.0548 9.25089 20.2362 11.0695 17.9928 11.0695C16.703 11.0695 15.5536 10.4684 14.8095 9.53096L10.0278 11.4708C10.0553 11.6614 10.0695 11.8562 10.0695 12.0544C10.0695 12.2858 10.0501 12.5126 10.0129 12.7335L14.6614 14.6673C15.3958 13.6171 16.6141 12.9302 17.9928 12.9302C20.2362 12.9302 22.0548 14.7488 22.0548 16.9922C22.0548 19.2356 20.2362 21.0542 17.9928 21.0542C15.7494 21.0542 13.9308 19.2356 13.9308 16.9922C13.9308 16.8393 13.9392 16.6884 13.9557 16.5399L9.20277 14.5626C8.45906 15.5087 7.30422 16.1164 6.00745 16.1164C3.76406 16.1164 1.94543 14.2978 1.94543 12.0544C1.94543 9.811 3.76406 7.99237 6.00745 7.99237C7.33907 7.99237 8.52104 8.63314 9.26184 9.62316L13.9904 7.70485C13.9512 7.47828 13.9308 7.24528 13.9308 7.00751C13.9308 4.76412 15.7494 2.9455 17.9928 2.9455C20.2362 2.9455 22.0548 4.76412 22.0548 7.00751ZM20.0548 7.00751C20.0548 8.14633 19.1316 9.06952 17.9928 9.06952C16.854 9.06952 15.9308 8.14633 15.9308 7.00751C15.9308 5.86869 16.854 4.9455 17.9928 4.9455C19.1316 4.9455 20.0548 5.86869 20.0548 7.00751ZM8.06946 12.0544C8.06946 13.1932 7.14626 14.1164 6.00745 14.1164C4.86863 14.1164 3.94543 13.1932 3.94543 12.0544C3.94543 10.9156 4.86863 9.99237 6.00745 9.99237C7.14626 9.99237 8.06946 10.9156 8.06946 12.0544ZM17.9928 19.0542C19.1316 19.0542 20.0548 18.131 20.0548 16.9922C20.0548 15.8534 19.1316 14.9302 17.9928 14.9302C16.854 14.9302 15.9308 15.8534 15.9308 16.9922C15.9308 18.131 16.854 19.0542 17.9928 19.0542Z" fill="black"/>
</svg>
