<svg width="24" height="24" viewBox="0 0 24 24" fill="none" xmlns="http://www.w3.org/2000/svg">
<path d="M22.0547 7.00757C22.0547 9.25096 20.2361 11.0696 17.9927 11.0696C16.7029 11.0696 15.5535 10.4684 14.8094 9.53102L10.0277 11.4709C10.0551 11.6614 10.0693 11.8563 10.0693 12.0544C10.0693 12.2858 10.05 12.5127 10.0128 12.7335L14.6613 14.6674C15.3956 13.6171 16.6139 12.9302 17.9927 12.9302C20.2361 12.9302 22.0547 14.7489 22.0547 16.9922C22.0547 19.2356 20.2361 21.0543 17.9927 21.0543C15.7493 21.0543 13.9307 19.2356 13.9307 16.9922C13.9307 16.8394 13.9391 16.6885 13.9556 16.54L9.20264 14.5627C8.45894 15.5088 7.3041 16.1165 6.00732 16.1165C3.76394 16.1165 1.94531 14.2978 1.94531 12.0544C1.94531 9.81106 3.76394 7.99243 6.00732 7.99243C7.33895 7.99243 8.52092 8.6332 9.26172 9.62322L13.9903 7.70491C13.9511 7.47834 13.9307 7.24534 13.9307 7.00757C13.9307 4.76418 15.7493 2.94556 17.9927 2.94556C20.2361 2.94556 22.0547 4.76418 22.0547 7.00757ZM20.0547 7.00757C20.0547 5.86875 19.1315 4.94556 17.9927 4.94556C16.8539 4.94556 15.9307 5.86875 15.9307 7.00757C15.9307 8.14639 16.8539 9.06958 17.9927 9.06958C19.1315 9.06958 20.0547 8.14639 20.0547 7.00757ZM8.06934 12.0544C8.06934 10.9156 7.14614 9.99243 6.00732 9.99243C4.86851 9.99243 3.94531 10.9156 3.94531 12.0544C3.94531 13.1933 4.86851 14.1165 6.00732 14.1165C7.14614 14.1165 8.06934 13.1933 8.06934 12.0544ZM17.9927 19.0543C19.1315 19.0543 20.0547 18.1311 20.0547 16.9922C20.0547 15.8534 19.1315 14.9302 17.9927 14.9302C16.8539 14.9302 15.9307 15.8534 15.9307 16.9922C15.9307 18.1311 16.8539 19.0543 17.9927 19.0543Z" fill="black"/>
</svg>
