<svg width="24" height="24" viewBox="0 0 24 24" fill="none" xmlns="http://www.w3.org/2000/svg">
<path fill-rule="evenodd" clip-rule="evenodd" d="M22.0547 7.00757C22.0547 9.25096 20.2361 11.0696 17.9927 11.0696C16.7029 11.0696 15.5535 10.4684 14.8094 9.53102L10.0278 11.4709C10.0552 11.6614 10.0694 11.8563 10.0694 12.0544C10.0694 12.2858 10.05 12.5127 10.0129 12.7335L14.6614 14.6674C15.3957 13.6171 16.614 12.9302 17.9927 12.9302C20.2361 12.9302 22.0547 14.7489 22.0547 16.9922C22.0547 19.2356 20.2361 21.0543 17.9927 21.0543C15.7493 21.0543 13.9307 19.2356 13.9307 16.9922C13.9307 16.8394 13.9392 16.6885 13.9556 16.54L9.20271 14.5627C8.459 15.5088 7.30416 16.1165 6.00739 16.1165C3.764 16.1165 1.94537 14.2978 1.94537 12.0544C1.94537 9.81106 3.764 7.99243 6.00739 7.99243C7.33901 7.99243 8.52098 8.6332 9.26178 9.62322L13.9904 7.70491C13.9512 7.47834 13.9307 7.24534 13.9307 7.00757C13.9307 4.76418 15.7493 2.94556 17.9927 2.94556C20.2361 2.94556 22.0547 4.76418 22.0547 7.00757ZM20.0547 7.00757C20.0547 8.14639 19.1316 9.06958 17.9927 9.06958C16.8539 9.06958 15.9307 8.14639 15.9307 7.00757C15.9307 5.86875 16.8539 4.94556 17.9927 4.94556C19.1316 4.94556 20.0547 5.86875 20.0547 7.00757ZM8.0694 12.0544C8.0694 13.1933 7.1462 14.1165 6.00739 14.1165C4.86857 14.1165 3.94537 13.1933 3.94537 12.0544C3.94537 10.9156 4.86857 9.99243 6.00739 9.99243C7.1462 9.99243 8.0694 10.9156 8.0694 12.0544ZM17.9927 19.0543C19.1316 19.0543 20.0547 18.1311 20.0547 16.9922C20.0547 15.8534 19.1316 14.9302 17.9927 14.9302C16.8539 14.9302 15.9307 15.8534 15.9307 16.9922C15.9307 18.1311 16.8539 19.0543 17.9927 19.0543Z" fill="black"/>
</svg>
