<?xml version="1.0" encoding="UTF-8"?>
<svg width="24px" height="24px" viewBox="0 0 24 24" version="1.1" xmlns="http://www.w3.org/2000/svg" xmlns:xlink="http://www.w3.org/1999/xlink">
    <!-- Generator: Sketch 52.5 (67469) - http://www.bohemiancoding.com/sketch -->
    <title>shuriken</title>
    <desc>Created with Sketch.</desc>
    <defs>
        <path d="M13.9573892,11.8851552 L11.8791606,13.9633837 C11.8313321,14.0112123 11.7531606,14.0112123 11.7053321,13.9633837 L9.6271035,11.8851552 C9.57927492,11.8373266 9.57927492,11.7596695 9.6271035,11.7113266 L11.7053321,9.63309803 C11.7531606,9.58526946 11.8313321,9.58526946 11.8791606,9.63309803 L13.9573892,11.7113266 C14.0052178,11.7596695 14.0052178,11.8373266 13.9573892,11.8851552 M14.7087606,8.66469803 C14.6856178,8.64155518 14.6727606,8.61018375 14.6727606,8.57778375 L14.6727606,3.12326946 C14.6727606,3.0137266 14.5400749,2.95869803 14.4629321,3.03635518 L8.66898921,8.83029803 C8.64584635,8.85344089 8.61447492,8.86629803 8.58207492,8.86629803 L3.12293207,8.86629803 C3.0139035,8.86629803 2.95887492,8.99846946 3.03601778,9.0761266 L8.8747035,14.9220123 C8.89784635,14.9451552 8.9107035,14.9760123 8.9107035,15.0089266 L8.9107035,20.4721837 C8.9107035,20.5817266 9.04287492,20.6367552 9.12053207,20.559098 L14.9216749,14.7579552 C14.9448178,14.7348123 14.9761892,14.7219552 15.0085892,14.7219552 L20.4692749,14.7219552 C20.5788178,14.7219552 20.6338464,14.5897837 20.5561892,14.5126409 L14.7087606,8.66469803 Z" id="path-1"></path>
    </defs>
    <g id="shuriken" stroke="none" stroke-width="1" fill="none" fill-rule="evenodd">
        <mask id="mask-2" fill="white">
            <use xlink:href="#path-1"></use>
        </mask>
        <use id="Fill-1" fill="#000000" xlink:href="#path-1"></use>
    </g>
</svg>