<?xml version="1.0" encoding="UTF-8"?>
<svg width="24px" height="24px" viewBox="0 0 24 24" version="1.1" xmlns="http://www.w3.org/2000/svg" xmlns:xlink="http://www.w3.org/1999/xlink">
    <!-- Generator: Sketch 52.5 (67469) - http://www.bohemiancoding.com/sketch -->
    <title>/slack</title>
    <desc>Created with Sketch.</desc>
    <defs>
        <path d="M21.9078031,12.5314372 C21.7643789,12.0943594 21.4493682,11.7321302 21.0331418,11.5256688 C20.6169154,11.3192073 20.1341556,11.2857171 19.6927071,11.4326795 L17.8353284,12.0566654 L16.5770638,8.3189161 L18.3856628,7.70972833 C19.309204,7.39414596 19.8005433,6.40213759 19.4850809,5.49001581 C19.3416256,5.05291256 19.0266806,4.69061086 18.6105182,4.48394944 C18.1943557,4.27728802 17.7116068,4.2434642 17.2699849,4.39002494 L15.4613858,4.99921271 L14.8522657,3.190147 C14.7091004,2.75284285 14.394197,2.39032249 13.977941,2.18361463 C13.561685,1.97690677 13.0787826,1.94324605 12.6371697,2.09015613 L12.6371697,2.09015613 C11.7150979,2.40737182 11.2244992,3.39788508 11.5377516,4.30986865 L12.1468717,6.12016753 L8.32955206,7.40390127 L7.72793648,5.61703269 C7.58449797,5.17963852 7.26935381,4.81710686 6.85289769,4.61041631 C6.43644156,4.40372576 5.95337112,4.37009705 5.51158968,4.51704182 C4.58951797,4.83425751 4.09891922,5.82477077 4.4121716,6.73675434 L5.01378719,8.5248561 L3.19393132,9.14144291 C2.27185961,9.4586586 1.78126086,10.4491719 2.09451324,11.3611554 L2.09451324,11.3611554 C2.23764701,11.7984345 2.5526162,12.1608828 2.96893634,12.3673908 C3.38525647,12.5738987 3.86816992,12.6072255 4.30960928,12.4599131 L6.12946515,11.8433263 L7.38772975,15.5724434 L5.61665353,16.1680662 C4.69458182,16.4852819 4.20398307,17.4757952 4.51723545,18.3877787 C4.66069076,18.824882 4.97563575,19.1871837 5.3917982,19.3938451 C5.80796065,19.6005065 6.2907096,19.6343303 6.73233149,19.4877696 L8.50340771,18.8909136 L9.15005065,20.8109649 C9.2934749,21.2480427 9.60848561,21.6102719 10.024712,21.8167333 C10.4409384,22.0231948 10.9236981,22.056685 11.3651467,21.9097226 C12.2872184,21.5925069 12.7778172,20.6019937 12.4645648,19.6900101 L11.8191726,17.7724251 L15.6364922,16.4874582 L16.2756306,18.3840792 C16.4190859,18.8211825 16.7340309,19.1834842 17.1501934,19.3901456 C17.5663558,19.596807 18.0491048,19.6306308 18.4907267,19.4840701 C19.4132872,19.1673973 19.9041319,18.1763873 19.5901447,17.2643576 L18.9522571,15.3677365 L20.808385,14.7425175 C21.7263713,14.4258192 22.216121,13.4408656 21.9078031,12.5314372 Z M10.5472192,14.3076923 L9.30769231,10.5868477 L13.0681654,9.30769231 L14.3076923,13.0285369 L10.5472192,14.3076923 Z" id="path-1"></path>
    </defs>
    <g id="/slack" stroke="none" stroke-width="1" fill="none" fill-rule="evenodd">
        <mask id="mask-2" fill="white">
            <use xlink:href="#path-1"></use>
        </mask>
        <use id="Slack" fill="#000000" xlink:href="#path-1"></use>
    </g>
</svg>