<svg width="24" height="24" viewBox="0 0 24 24" fill="none" xmlns="http://www.w3.org/2000/svg">
<path fill-rule="evenodd" clip-rule="evenodd" d="M12 20C16.4183 20 20 16.4183 20 12C20 7.58172 16.4183 4 12 4C7.58172 4 4 7.58172 4 12C4 16.4183 7.58172 20 12 20ZM12 22C17.5228 22 22 17.5228 22 12C22 6.47715 17.5228 2 12 2C6.47715 2 2 6.47715 2 12C2 17.5228 6.47715 22 12 22Z" fill="black"/>
<circle cx="9" cy="10" r="1" fill="black"/>
<circle cx="15" cy="10" r="1" fill="black"/>
<path d="M8.21899 14.9767C8.21899 15.1977 8.31452 15.3963 8.46652 15.5335L8.46447 15.5355C9.40215 16.4732 10.6739 17 12 17C13.3261 17 14.5979 16.4732 15.5355 15.5355L15.5342 15.5342C15.6676 15.3989 15.7499 15.213 15.7499 15.008C15.7499 14.5939 15.4142 14.2582 15.0001 14.2582C14.7861 14.2582 14.5931 14.3478 14.4565 14.4915C13.8021 15.1368 12.9197 15.4989 12 15.4989C11.072 15.4989 10.1821 15.1302 9.52594 14.4741C9.38871 14.3221 9.18972 14.2269 8.96881 14.2269C8.5547 14.2269 8.21899 14.5626 8.21899 14.9767Z" fill="black"/>
</svg>
