<svg width="24" height="24" viewBox="0 0 24 24" fill="none" xmlns="http://www.w3.org/2000/svg">
<path d="M8.96875 14.2266C9.18965 14.2266 9.38914 14.3216 9.52637 14.4736C10.1825 15.1298 11.072 15.499 12 15.499C12.9197 15.499 13.8016 15.1364 14.4561 14.4912C14.5926 14.3475 14.7861 14.2578 15 14.2578C15.4141 14.2578 15.7499 14.5938 15.75 15.0078C15.75 15.2129 15.6675 15.3988 15.5342 15.5342L15.5352 15.5352C14.5975 16.4728 13.3261 17 12 17C10.6739 17 9.40253 16.4728 8.46484 15.5352L8.4668 15.5332C8.3148 15.396 8.21875 15.1975 8.21875 14.9766C8.21885 14.5626 8.55473 14.2266 8.96875 14.2266Z" fill="black"/>
<path d="M9 9C9.55228 9 10 9.44772 10 10C10 10.5523 9.55228 11 9 11C8.44772 11 8 10.5523 8 10C8 9.44772 8.44772 9 9 9Z" fill="black"/>
<path d="M15 9C15.5523 9 16 9.44772 16 10C16 10.5523 15.5523 11 15 11C14.4477 11 14 10.5523 14 10C14 9.44772 14.4477 9 15 9Z" fill="black"/>
<path d="M12 2C17.5228 2 22 6.47715 22 12C22 17.5228 17.5228 22 12 22C6.47715 22 2 17.5228 2 12C2 6.47715 6.47715 2 12 2ZM12 4C7.58172 4 4 7.58172 4 12C4 16.4183 7.58172 20 12 20C16.4183 20 20 16.4183 20 12C20 7.58172 16.4183 4 12 4Z" fill="black"/>
</svg>
