<svg width="24" height="24" viewBox="0 0 24 24" fill="none" xmlns="http://www.w3.org/2000/svg">
<path fill-rule="evenodd" clip-rule="evenodd" d="M22 12C22 17.5228 17.5228 22 12 22C6.47715 22 2 17.5228 2 12C2 6.47715 6.47715 2 12 2C17.5228 2 22 6.47715 22 12ZM9 11C9.55228 11 10 10.5523 10 10C10 9.44772 9.55228 9 9 9C8.44772 9 8 9.44772 8 10C8 10.5523 8.44772 11 9 11ZM16 10C16 10.5523 15.5523 11 15 11C14.4477 11 14 10.5523 14 10C14 9.44772 14.4477 9 15 9C15.5523 9 16 9.44772 16 10ZM8.46652 15.5335C8.31452 15.3963 8.21899 15.1977 8.21899 14.9767C8.21899 14.5626 8.5547 14.2269 8.96881 14.2269C9.18972 14.2269 9.38871 14.3221 9.52594 14.4741C10.1821 15.1302 11.072 15.4989 12 15.4989C12.9197 15.4989 13.8021 15.1368 14.4565 14.4915C14.5931 14.3478 14.7861 14.2582 15.0001 14.2582C15.4142 14.2582 15.7499 14.5939 15.7499 15.008C15.7499 15.213 15.6676 15.3989 15.5342 15.5342L15.5355 15.5355C14.5979 16.4732 13.3261 17 12 17C10.6739 17 9.40215 16.4732 8.46447 15.5355L8.46652 15.5335Z" fill="black"/>
</svg>
