<svg width="24" height="24" viewBox="0 0 24 24" fill="none" xmlns="http://www.w3.org/2000/svg">
<path fill-rule="evenodd" clip-rule="evenodd" d="M2.16358 8.59874C2.05848 8.70523 2 8.84147 2 8.99179C2 9.1421 2.05848 9.27834 2.16358 9.38484L2.52744 9.75345C2.63116 9.85874 2.76244 9.91657 2.90653 9.91657C3.05062 9.91657 3.18189 9.85874 3.28584 9.75322L4.94994 8.06255L4.94994 15.6997L3.28537 14.013C3.18166 13.9077 3.05031 13.8498 2.90635 13.8498C2.76227 13.8498 2.6309 13.9077 2.52695 14.0132L2.16347 14.3816C2.05838 14.4879 2 14.6243 2 14.7746C2 14.9249 2.05839 15.0612 2.16349 15.1677L5.55405 18.6033C5.65798 18.7087 5.78926 18.7664 5.93317 18.7664C6.07698 18.7664 6.20819 18.7088 6.31218 18.6036L9.70294 15.1677C9.80803 15.0612 9.86652 14.9249 9.86652 14.7746C9.86652 14.6243 9.80803 14.4881 9.70294 14.3816L9.33908 14.013C9.23536 13.9077 9.10408 13.8498 8.95999 13.8498C8.8159 13.8498 8.68463 13.9077 8.58068 14.0132L6.91657 15.7039V8.06676L8.58115 9.75342C8.68486 9.85871 8.81621 9.91657 8.96017 9.91657C9.10425 9.91657 9.23562 9.85875 9.33957 9.75322L9.70305 9.38481C9.80814 9.27852 9.86652 9.14215 9.86652 8.99179C9.86652 8.84151 9.80813 8.70524 9.70302 8.59873L6.31246 5.16307C6.20854 5.05776 6.07726 5 5.93335 5C5.78954 5 5.65833 5.05759 5.55434 5.16277L2.16358 8.59874ZM13 5C12.4477 5 12 5.44772 12 6C12 6.55228 12.4477 7 13 7H21C21.5523 7 22 6.55228 22 6C22 5.44772 21.5523 5 21 5H13ZM12 12C12 11.4477 12.4477 11 13 11H21C21.5523 11 22 11.4477 22 12C22 12.5523 21.5523 13 21 13H13C12.4477 13 12 12.5523 12 12ZM13 17C12.4477 17 12 17.4477 12 18C12 18.5523 12.4477 19 13 19H21C21.5523 19 22 18.5523 22 18C22 17.4477 21.5523 17 21 17H13Z" fill="black"/>
</svg>
