<?xml version="1.0" encoding="UTF-8"?>
<svg width="24px" height="24px" viewBox="0 0 24 24" version="1.1" xmlns="http://www.w3.org/2000/svg" xmlns:xlink="http://www.w3.org/1999/xlink">
    <!-- Generator: Sketch 52.6 (67491) - http://www.bohemiancoding.com/sketch -->
    <title>sort</title>
    <desc>Created with Sketch.</desc>
    <defs>
        <path d="M6.91657453,8.06675877 L6.91657453,15.7038579 L8.58067541,14.0131914 C8.68462474,13.9076651 8.81590015,13.8498342 8.95999003,13.8498342 C9.10407991,13.8498342 9.23535533,13.9076651 9.33907946,14.012963 L9.70293519,14.3815689 C9.80803454,14.4880665 9.86651925,14.6243109 9.86651925,14.7746225 C9.86651925,14.9249341 9.80803454,15.0611786 9.70293804,15.1676733 L6.31217672,18.6036353 C6.20818607,18.7088157 6.07698377,18.7664087 5.93317032,18.7664087 C5.78926036,18.7664087 5.65798034,18.7086521 5.55405437,18.6033435 L2.16349475,15.1676761 C2.05838706,15.0611701 2,14.9249024 2,14.7746225 C2,14.6242623 2.05837948,14.4878867 2.16346822,14.3815958 L2.52694667,14.0131914 C2.6308996,13.9076615 2.76227183,13.8498342 2.9063506,13.8498342 C3.05030653,13.8498342 3.18166083,13.9076999 3.28537387,14.0129864 L4.94994472,15.6996499 L4.94994472,8.06255082 L3.28584384,9.75321731 C3.18189451,9.85874356 3.0506191,9.91657453 2.90652921,9.91657453 C2.76243933,9.91657453 2.63116392,9.85874356 2.52743979,9.75344569 L2.16358405,9.38483974 C2.05848471,9.27834217 2,9.14209773 2,8.99178614 C2,8.84147455 2.05848471,8.70523012 2.16358121,8.59873542 L5.55434253,5.16277342 C5.65833318,5.05759299 5.78953547,5 5.93334893,5 C6.07725889,5 6.2085389,5.05775663 6.31246488,5.16306522 L9.7030245,8.59873254 C9.80813218,8.70523857 9.86651925,8.84150625 9.86651925,8.99178614 C9.86651925,9.14214634 9.80813977,9.27852201 9.70305102,9.38481286 L9.33957257,9.75321731 C9.23561965,9.8587472 9.10424742,9.91657453 8.96016864,9.91657453 C8.81621272,9.91657453 8.68485842,9.8587088 8.58114537,9.75342223 L6.91657453,8.06675877 Z M12,6 C12,5.44771525 12.4556644,5 12.9953976,5 L21.0046024,5 C21.5543453,5 22,5.44386482 22,6 C22,6.55228475 21.5443356,7 21.0046024,7 L12.9953976,7 C12.4456547,7 12,6.55613518 12,6 Z M12,12 C12,11.4477153 12.4556644,11 12.9953976,11 L21.0046024,11 C21.5543453,11 22,11.4438648 22,12 C22,12.5522847 21.5443356,13 21.0046024,13 L12.9953976,13 C12.4456547,13 12,12.5561352 12,12 Z M12,18 C12,17.4477153 12.4556644,17 12.9953976,17 L21.0046024,17 C21.5543453,17 22,17.4438648 22,18 C22,18.5522847 21.5443356,19 21.0046024,19 L12.9953976,19 C12.4456547,19 12,18.5561352 12,18 Z" id="path-1"></path>
    </defs>
    <g id="sort" stroke="none" stroke-width="1" fill="none" fill-rule="evenodd">
        <mask id="mask-2" fill="white">
            <use xlink:href="#path-1"></use>
        </mask>
        <use fill="#000000" xlink:href="#path-1"></use>
    </g>
</svg>