<?xml version="1.0" encoding="UTF-8"?>
<svg width="24px" height="24px" viewBox="0 0 24 24" version="1.1" xmlns="http://www.w3.org/2000/svg" xmlns:xlink="http://www.w3.org/1999/xlink">
    <!-- Generator: Sketch 52.6 (67491) - http://www.bohemiancoding.com/sketch -->
    <title>space-arrow</title>
    <desc>Created with Sketch.</desc>
    <defs>
        <path d="M20.301287,14.0580259 C20.7450261,13.7762868 20.6965043,13.4194172 20.1940696,13.2652433 L11.1095478,10.4768085 C10.607113,10.3226346 10.3222435,10.6075041 10.4764174,11.1099389 L13.2648522,20.1944609 C13.4190261,20.6968956 13.7758957,20.7446348 14.0576348,20.3016782 L15.3246783,18.3091565 C15.6064174,17.8654173 16.1495478,17.7973304 16.5322435,18.1573304 L18.3885913,19.9064608 C18.7705043,20.2664609 19.3872,20.2578522 19.7589391,19.886113 L19.8857217,19.7593304 C20.2574609,19.3875913 20.2668522,18.7708956 19.9060696,18.3881999 L18.1577217,16.5326347 C17.7977217,16.149939 17.8650261,15.6068086 18.3087652,15.3242868 L20.301287,14.0580259 Z M6.6,4.79999967 C6.10294373,4.79999967 5.7,4.39705594 5.7,3.89999965 C5.7,3.40294337 6.10294373,2.99999963 6.6,2.99999963 L8.4,2.99999963 C8.89705627,2.99999963 9.3,3.40294337 9.3,3.89999965 C9.3,4.39705594 8.89705627,4.79999967 8.4,4.79999967 L6.6,4.79999967 Z M11.1,4.79999967 C10.6029437,4.79999967 10.2,4.39705594 10.2,3.89999965 C10.2,3.40294337 10.6029437,2.99999963 11.1,2.99999963 L12.9,2.99999963 C13.3970563,2.99999963 13.8,3.40294337 13.8,3.89999965 C13.8,4.39705594 13.3970563,4.79999967 12.9,4.79999967 L11.1,4.79999967 Z M15.6,4.79999967 C15.1029437,4.79999967 14.7,4.39705594 14.7,3.89999965 C14.7,3.40294337 15.1029437,2.99999963 15.6,2.99999963 L18.3,2.99999963 C18.7970563,2.99999963 19.2,3.40294337 19.2,3.89999965 C19.2,4.39705594 18.7970563,4.79999967 18.3,4.79999967 L15.6,4.79999967 Z M18.9595681,5.70035116 C18.7105956,5.27014463 18.8575149,4.71956126 19.2877214,4.47058878 C19.7179279,4.2216163 20.2685113,4.36853553 20.5174837,4.79874205 C20.8318585,5.34195908 21,5.95978108 21,6.59999971 L21,6.96701864 C21,7.46407493 20.5970563,7.86701866 20.1,7.86701866 C19.6029437,7.86701866 19.2,7.46407493 19.2,6.96701864 L19.2,6.59999971 C19.2,6.27851534 19.1164058,5.97135543 18.9595681,5.70035116 Z M19.2,9.6670187 C19.2,9.16996241 19.6029437,8.76701868 20.1,8.76701868 C20.5970563,8.76701868 21,9.16996241 21,9.6670187 L21,11.4670187 C21,11.964075 20.5970563,12.3670188 20.1,12.3670188 C19.6029437,12.3670188 19.2,11.964075 19.2,11.4670187 L19.2,9.6670187 Z M11.2659621,19.2 C11.7630184,19.2 12.1659621,19.6029437 12.1659621,20.1 C12.1659621,20.5970563 11.7630184,21 11.2659621,21 L9.46596214,21 C8.96890586,21 8.56596214,20.5970563 8.56596214,20.1 C8.56596214,19.6029437 8.96890586,19.2 9.46596214,19.2 L11.2659621,19.2 Z M6.76596214,19.2 C7.26301841,19.2 7.66596214,19.6029437 7.66596214,20.1 C7.66596214,20.5970563 7.26301841,21 6.76596214,21 L6.6,21 C5.84648476,21 5.12559751,20.7669697 4.52272832,20.3404989 C4.11694004,20.0534434 4.02068804,19.4917826 4.30774346,19.0859943 C4.59479888,18.6802061 5.15645967,18.5839541 5.56224795,18.8710095 C5.86356983,19.0841652 6.22190876,19.2 6.6,19.2 L6.76596214,19.2 Z M4.8,17.1989431 C4.8,17.6959994 4.39705627,18.0989431 3.9,18.0989431 C3.40294373,18.0989431 3,17.6959994 3,17.1989431 L3,15.3989431 C3,14.9018868 3.40294373,14.4989431 3.9,14.4989431 C4.39705627,14.4989431 4.8,14.9018868 4.8,15.3989431 L4.8,17.1989431 Z M4.8,12.698943 C4.8,13.1959993 4.39705627,13.5989431 3.9,13.5989431 C3.40294373,13.5989431 3,13.1959993 3,12.698943 L3,10.898943 C3,10.4018867 3.40294373,9.99894298 3.9,9.99894298 C4.39705627,9.99894298 4.8,10.4018867 4.8,10.898943 L4.8,12.698943 Z M4.8,8.19894295 C4.8,8.69599923 4.39705627,9.09894297 3.9,9.09894297 C3.40294373,9.09894297 3,8.69599923 3,8.19894295 L3,6.59999971 C3,6.51066967 3.00327115,6.42164916 3.00978666,6.33307032 C3.04624967,5.83735327 3.47766685,5.4650543 3.97338389,5.50151731 C4.46910094,5.53798033 4.84139989,5.96939751 4.80493688,6.46511457 C4.80165269,6.50976335 4.8,6.55473948 4.8,6.59999971 L4.8,8.19894295 Z M5.77423385,4.99995739 C5.33281571,5.22846333 4.78973494,5.05586388 4.561229,4.61444573 C4.33272306,4.17302757 4.50532251,3.62994679 4.94674065,3.40144085 C5.43626424,3.1480325 5.97931664,3.00961142 6.54789525,3.00039337 L6.59268589,3.00002935 C7.08972575,2.99598988 7.49593081,3.39564567 7.49997028,3.89268554 C7.50400975,4.38972541 7.10435397,4.79593048 6.60731411,4.79996995 L6.56984579,4.80024466 C6.28826107,4.8048246 6.01821295,4.87365838 5.77423385,4.99995739 Z" id="path-1"></path>
    </defs>
    <g id="space-arrow" stroke="none" stroke-width="1" fill="none" fill-rule="evenodd">
        <mask id="mask-2" fill="white">
            <use xlink:href="#path-1"></use>
        </mask>
        <use id="Mask" fill="#000000" fill-rule="nonzero" xlink:href="#path-1"></use>
    </g>
</svg>