<svg width="24" height="24" viewBox="0 0 24 24" fill="none" xmlns="http://www.w3.org/2000/svg">
<path fill-rule="evenodd" clip-rule="evenodd" d="M20.5474 14.6524L11.4634 11.8644C10.9614 11.7104 10.6764 11.9944 10.8304 12.4974L13.6184 21.5814C13.7734 22.0844 14.1294 22.1314 14.4114 21.6894L15.6784 19.6964C15.9604 19.2524 16.5034 19.1844 16.8864 19.5444L18.7424 21.2934C19.1244 21.6534 19.7404 21.6454 20.1124 21.2734L20.2394 21.1464C20.6104 20.7754 20.6204 20.1584 20.2604 19.7754L18.5114 17.9204C18.1514 17.5374 18.2194 16.9944 18.6624 16.7114L20.6544 15.4454C21.0994 15.1634 21.0504 14.8064 20.5474 14.6524Z" fill="black"/>
<path fill-rule="evenodd" clip-rule="evenodd" d="M7.958 3H4C3.448 3 3 3.448 3 4V6.042C3 6.594 3.448 7.042 4 7.042C4.552 7.042 5 6.594 5 6.042V5H7.958C8.51 5 8.958 4.552 8.958 4C8.958 3.448 8.51 3 7.958 3Z" fill="black"/>
<path fill-rule="evenodd" clip-rule="evenodd" d="M4 13C4.552 13 5 12.552 5 12V10C5 9.448 4.552 9 4 9C3.448 9 3 9.448 3 10V12C3 12.552 3.448 13 4 13Z" fill="black"/>
<path fill-rule="evenodd" clip-rule="evenodd" d="M10.979 19H9.979C9.427 19 8.979 19.448 8.979 20C8.979 20.552 9.427 21 9.979 21H10.979C11.531 21 11.979 20.552 11.979 20C11.979 19.448 11.531 19 10.979 19Z" fill="black"/>
<path fill-rule="evenodd" clip-rule="evenodd" d="M19.9771 11C19.4241 11 18.9771 11.448 18.9771 12C18.9771 12.552 19.4241 13 19.9771 13C20.5301 13 20.9771 12.552 20.9771 12C20.9771 11.448 20.5301 11 19.9771 11Z" fill="black"/>
<path fill-rule="evenodd" clip-rule="evenodd" d="M11.979 5.021H13.958C14.511 5.021 14.958 4.573 14.958 4.021C14.958 3.469 14.511 3.021 13.958 3.021H11.979C11.427 3.021 10.979 3.469 10.979 4.021C10.979 4.573 11.427 5.021 11.979 5.021Z" fill="black"/>
<path fill-rule="evenodd" clip-rule="evenodd" d="M5.979 19H5V16.021C5 15.469 4.552 15.021 4 15.021C3.448 15.021 3 15.469 3 16.021V20C3 20.552 3.448 21 4 21H5.979C6.531 21 6.979 20.552 6.979 20C6.979 19.448 6.531 19 5.979 19Z" fill="black"/>
<path fill-rule="evenodd" clip-rule="evenodd" d="M19.9995 3H17.9785C17.4255 3 16.9785 3.448 16.9785 4C16.9785 4.552 17.4255 5 17.9785 5H18.9995V7.979C18.9995 8.531 19.4465 8.979 19.9995 8.979C20.5525 8.979 20.9995 8.531 20.9995 7.979V4C20.9995 3.448 20.5525 3 19.9995 3Z" fill="black"/>
</svg>
