<svg width="24" height="24" viewBox="0 0 24 24" fill="none" xmlns="http://www.w3.org/2000/svg">
<g clip-path="url(#clip0_1883_944)">
<path d="M11.3886 5.74248C11.5129 5.74248 11.5798 5.66596 11.599 5.55119C11.8859 4.0018 11.8572 3.92528 13.5214 3.62879C13.6361 3.6001 13.7127 3.53315 13.7127 3.40882C13.7127 3.29404 13.6361 3.21753 13.5214 3.1984C11.8572 2.90191 11.8859 2.82539 11.599 1.276C11.5798 1.16123 11.5129 1.08472 11.3886 1.08472C11.2642 1.08472 11.1973 1.16123 11.1781 1.276C10.8912 2.82539 10.9199 2.90191 9.25573 3.1984C9.1314 3.21753 9.06445 3.29404 9.06445 3.40882C9.06445 3.53315 9.1314 3.6001 9.25573 3.62879C10.9199 3.92528 10.8912 4.0018 11.1781 5.55119C11.1973 5.66596 11.2642 5.74248 11.3886 5.74248Z" fill="black"/>
<path d="M6.75961 11.9788C6.94132 11.9788 7.06566 11.8545 7.08479 11.6823C7.4291 9.12863 7.51517 9.12863 10.1549 8.62174C10.3175 8.59304 10.4418 8.47827 10.4418 8.29655C10.4418 8.1244 10.3175 8.00006 10.1549 7.98094C7.51517 7.60793 7.41953 7.52186 7.08479 4.92996C7.06566 4.74824 6.94132 4.6239 6.75961 4.6239C6.58744 4.6239 6.46311 4.74824 6.43442 4.93952C6.12836 7.49316 5.98491 7.4836 3.36432 7.98094C3.20173 8.00963 3.07739 8.1244 3.07739 8.29655C3.07739 8.48784 3.20173 8.59304 3.40257 8.62174C6.00403 9.04256 6.12836 9.10951 6.43442 11.6631C6.46311 11.8545 6.58744 11.9788 6.75961 11.9788Z" fill="black"/>
<path d="M14.1189 22.6662C14.3675 22.6662 14.5492 22.4844 14.597 22.2262C15.2761 16.9946 16.0126 16.1913 21.1963 15.6173C21.4641 15.5886 21.6458 15.3974 21.6458 15.1391C21.6458 14.8904 21.4641 14.6992 21.1963 14.6705C16.0126 14.0967 15.2761 13.2933 14.597 8.0521C14.5492 7.79386 14.3675 7.6217 14.1189 7.6217C13.8702 7.6217 13.6884 7.79386 13.6502 8.0521C12.9711 13.2933 12.2251 14.0967 7.05088 14.6705C6.77352 14.6992 6.5918 14.8904 6.5918 15.1391C6.5918 15.3974 6.77352 15.5886 7.05088 15.6173C12.2155 16.2964 12.9329 16.9946 13.6502 22.2262C13.6884 22.4844 13.8702 22.6662 14.1189 22.6662Z" fill="black"/>
</g>
<defs>
<clipPath id="clip0_1883_944">
<rect width="24" height="24" fill="white"/>
</clipPath>
</defs>
</svg>
