<?xml version="1.0" encoding="UTF-8"?>
<svg width="24px" height="24px" viewBox="0 0 24 24" version="1.1" xmlns="http://www.w3.org/2000/svg" xmlns:xlink="http://www.w3.org/1999/xlink">
    <!-- Generator: Sketch 52.6 (67491) - http://www.bohemiancoding.com/sketch -->
    <title>spreadsheet</title>
    <desc>Created with Sketch.</desc>
    <defs>
        <path d="M6,14 L11,14 L11,10 L6,10 L6,14 Z M6,16 L6,20 L11,20 L11,16 L6,16 Z M13,16 L13,20 L18,20 L18,4 L6,4 L6,8 L11,8 L11,4 L13,4 L13,8 L18,8 L18,10 L13,10 L13,14 L18,14 L18,16 L13,16 Z M6,2 L18,2 C19.1045695,2 20,2.8954305 20,4 L20,20 C20,21.1045695 19.1045695,22 18,22 L6,22 C4.8954305,22 4,21.1045695 4,20 L4,4 C4,2.8954305 4.8954305,2 6,2 Z" id="path-1"></path>
    </defs>
    <g id="spreadsheet" stroke="none" stroke-width="1" fill="none" fill-rule="evenodd">
        <mask id="mask-2" fill="white">
            <use xlink:href="#path-1"></use>
        </mask>
        <use id="Mask" fill="#000000" fill-rule="nonzero" xlink:href="#path-1"></use>
    </g>
</svg>