<?xml version="1.0" encoding="UTF-8"?>
<svg width="24px" height="24px" viewBox="0 0 24 24" version="1.1" xmlns="http://www.w3.org/2000/svg" xmlns:xlink="http://www.w3.org/1999/xlink">
    <!-- Generator: Sketch 52.5 (67469) - http://www.bohemiancoding.com/sketch -->
    <title>spreadsheet</title>
    <desc>Created with Sketch.</desc>
    <defs>
        <path d="M3,4 L3,2 L21,2 L21,4 L21,20 L21,22 L3,22 L3,20 L3,4 Z M5,4 L5,8 L11,8 L11,4 L5,4 Z M13,4 L13,8 L19,8 L19,4 L13,4 Z M19,20 L19,16 L13,16 L13,20 L19,20 Z M19,10 L13,10 L13,14 L19,14 L19,10 Z M11,20 L11,16 L5,16 L5,20 L11,20 Z M11,14 L11,10 L5,10 L5,14 L11,14 Z" id="path-1"></path>
    </defs>
    <g id="spreadsheet" stroke="none" stroke-width="1" fill="none" fill-rule="evenodd">
        <mask id="mask-2" fill="white">
            <use xlink:href="#path-1"></use>
        </mask>
        <use id="Combined-Shape" fill="#000000" xlink:href="#path-1"></use>
    </g>
</svg>