<svg width="24" height="24" viewBox="0 0 24 24" fill="none" xmlns="http://www.w3.org/2000/svg">
<path fill-rule="evenodd" clip-rule="evenodd" d="M15.6436 14.1924L16.5116 19.4624L11.9906 16.9794L7.48463 19.4614L8.33663 14.1794L4.59763 10.3794L9.79763 9.58837L12.0026 4.89837L14.2286 9.59237L19.3926 10.3764L15.6436 14.1924ZM21.9996 9.94937C21.9996 9.15237 21.4476 8.67737 20.6706 8.54737L15.5806 7.77437L13.2976 2.96337C13.0426 2.38737 12.5996 2.00037 11.9996 2.00037C11.4006 2.00037 10.9576 2.38637 10.6926 2.98337L8.44163 7.77137L3.34063 8.54637C2.55263 8.67837 1.99963 9.15237 1.99963 9.94937C1.99963 10.3744 2.18563 10.7474 2.50063 11.1014L6.20063 14.8604L5.34563 20.1614C5.32263 20.3314 5.31163 20.4424 5.31163 20.5414C5.31163 20.8804 5.40163 21.1984 5.58763 21.4674C5.83163 21.8204 6.20563 22.0004 6.62063 22.0004C6.90863 22.0004 7.18863 21.9124 7.46663 21.7544L11.9926 19.2614L16.5456 21.7604C16.7946 21.9094 17.0826 22.0004 17.3796 22.0004C17.7896 22.0004 18.1606 21.8164 18.4026 21.4674C18.5876 21.1984 18.6776 20.8804 18.6776 20.5414C18.6776 20.4024 18.6716 20.2884 18.6586 20.1854L17.7826 14.8704L21.4576 11.1334C21.8006 10.7774 21.9996 10.3924 21.9996 9.94937Z" fill="black"/>
</svg>
