<svg width="24" height="24" viewBox="0 0 24 24" fill="none" xmlns="http://www.w3.org/2000/svg">
<path d="M13.4019 2.6522C13.1264 2.05635 12.6478 1.65601 12.0001 1.65601C11.3524 1.65601 10.8741 2.05616 10.5882 2.67305L8.1564 7.62522L2.64816 8.42615C1.79713 8.5629 1.20001 9.05341 1.20001 9.87766C1.20001 10.3169 1.40089 10.7026 1.74067 11.0694L5.75024 14.9937L4.81356 20.44C4.788 20.6159 4.77655 20.7306 4.77655 20.8327C4.77655 21.1839 4.87358 21.5121 5.07444 21.7901C5.33861 22.1554 5.74277 22.3413 6.18988 22.3413C6.50067 22.3413 6.80439 22.2504 7.10365 22.0868L11.9627 19.5327L16.9097 22.0938C17.1788 22.2481 17.4898 22.3413 17.8103 22.3413C18.2534 22.3413 18.6529 22.1516 18.9141 21.7901C19.1149 21.5121 19.2118 21.1838 19.2118 20.8327C19.2118 20.6895 19.2059 20.5711 19.1905 20.4644L18.237 14.9821L22.215 11.1027C22.5844 10.7339 22.8 10.3357 22.8 9.87766C22.8 9.05328 22.2028 8.5628 21.365 8.42821L15.8228 7.62219L13.4019 2.6522Z" fill="black"/>
</svg>
