<?xml version="1.0" encoding="UTF-8"?>
<svg width="24px" height="24px" viewBox="0 0 24 24" version="1.1" xmlns="http://www.w3.org/2000/svg" xmlns:xlink="http://www.w3.org/1999/xlink">
    <!-- Generator: Sketch 52.6 (67491) - http://www.bohemiancoding.com/sketch -->
    <title>star</title>
    <desc>Created with Sketch.</desc>
    <g id="star" stroke="none" stroke-width="1" fill="none" fill-rule="evenodd">
        <g id="Mask" transform="translate(2.000000, 2.000000)" fill="#000000">
            <path d="M13.6436,12.1924 L14.5116,17.4624 L9.9906,14.9794 L5.4846,17.4614 L6.3366,12.1794 L2.5976,8.3794 L7.7976,7.5884 L10.0026,2.8984 L12.2286,7.5924 L17.3926,8.3764 L13.6436,12.1924 Z M19.9996,7.9494 C19.9996,7.1524 19.4476,6.6774 18.6706,6.5474 L13.5806,5.7744 L11.2976,0.9634 C11.0426,0.3874 10.5996,0.0004 9.9996,0.0004 C9.4006,0.0004 8.9576,0.3864 8.6926,0.9834 L6.4416,5.7714 L1.3406,6.5464 C0.5526,6.6784 -0.0004,7.1524 -0.0004,7.9494 C-0.0004,8.3744 0.1856,8.7474 0.5006,9.1014 L4.2006,12.8604 L3.3456,18.1614 C3.3226,18.3314 3.3116,18.4424 3.3116,18.5414 C3.3116,18.8804 3.4016,19.1984 3.5876,19.4674 C3.8316,19.8204 4.2056,20.0004 4.6206,20.0004 C4.9086,20.0004 5.1886,19.9124 5.4666,19.7544 L9.9926,17.2614 L14.5456,19.7604 C14.7946,19.9094 15.0826,20.0004 15.3796,20.0004 C15.7896,20.0004 16.1606,19.8164 16.4026,19.4674 C16.5876,19.1984 16.6776,18.8804 16.6776,18.5414 C16.6776,18.4024 16.6716,18.2884 16.6586,18.1854 L15.7826,12.8704 L19.4576,9.1334 C19.8006,8.7774 19.9996,8.3924 19.9996,7.9494 Z" id="Fill-1"></path>
        </g>
    </g>
</svg>