<svg width="24" height="24" viewBox="0 0 24 24" fill="none" xmlns="http://www.w3.org/2000/svg">
<path d="M13.4019 2.6522C13.1264 2.05635 12.6477 1.65601 12 1.65601C11.3524 1.65601 10.874 2.05616 10.5882 2.67305L8.15634 7.62522L2.6481 8.42615C1.79707 8.5629 1.19995 9.05341 1.19995 9.87766C1.19995 10.3169 1.40083 10.7026 1.74061 11.0694L5.75018 14.9937L4.81349 20.44C4.78794 20.6159 4.77649 20.7306 4.77649 20.8327C4.77649 21.1839 4.87352 21.5121 5.07438 21.7901C5.33855 22.1554 5.74271 22.3413 6.18982 22.3413C6.50061 22.3413 6.80433 22.2504 7.10359 22.0868L11.9626 19.5327L16.9096 22.0938C17.1787 22.2481 17.4898 22.3413 17.8102 22.3413C18.2534 22.3413 18.6529 22.1516 18.914 21.7901C19.1148 21.5121 19.2117 21.1838 19.2117 20.8327C19.2117 20.6895 19.2058 20.5711 19.1904 20.4644L18.2369 14.9821L22.2149 11.1027C22.5844 10.7339 22.8 10.3357 22.8 9.87766C22.8 9.05328 22.2028 8.5628 21.365 8.42821L15.8227 7.62219L13.4019 2.6522Z" fill="black"/>
</svg>
