<?xml version="1.0" encoding="UTF-8"?>
<svg width="24px" height="24px" viewBox="0 0 24 24" version="1.1" xmlns="http://www.w3.org/2000/svg" xmlns:xlink="http://www.w3.org/1999/xlink">
    <!-- Generator: Sketch 54.1 (76490) - https://sketchapp.com -->
    <title>icon/steam</title>
    <desc>Created with Sketch.</desc>
    <g id="icon/steam" stroke="none" stroke-width="1" fill="none" fill-rule="evenodd">
        <g id="Mask" transform="translate(2.000000, 2.000000)" fill="#231F20">
            <path d="M9.87986957,4.34782609e-05 C4.67204348,4.34782609e-05 0.405521739,4.01569565 8.69565217e-05,9.11895652 L5.31378261,11.315913 C5.76378261,11.008087 6.30769565,10.8278696 6.89313043,10.8278696 C6.94552174,10.8278696 6.99769565,10.8293913 7.04943478,10.8322174 L9.41269565,7.40721739 C9.41269565,7.39091304 9.41226087,7.37504348 9.41226087,7.35873913 C9.41226087,5.29721739 11.0894348,3.61982609 13.1511739,3.61982609 C15.2126957,3.61982609 16.890087,5.29721739 16.890087,7.35873913 C16.890087,9.42026087 15.2126957,11.0978696 13.1511739,11.0978696 C13.1226957,11.0978696 13.0946522,11.0972174 13.0663913,11.0963478 L9.69617391,13.5011304 C9.69791304,13.5452609 9.69921739,13.5898261 9.69921739,13.6341739 C9.69921739,15.1817826 8.44052174,16.4404783 6.89313043,16.4404783 C5.53465217,16.4404783 4.399,15.470913 4.1416087,14.187 L0.341391304,12.615913 C1.51813043,16.7774348 5.3413913,19.828087 9.87986957,19.828087 C15.3553043,19.828087 19.7937826,15.3893913 19.7937826,9.91395652 C19.7937826,4.43852174 15.3553043,4.34782609e-05 9.87986957,4.34782609e-05" id="Fill-1"></path>
            <path d="M6.21286957,15.0431522 L4.99504348,14.5401087 C5.21091304,14.9892391 5.5843913,15.3653261 6.08004348,15.5722826 C7.15156522,16.0188043 8.38721739,15.5101087 8.83395652,14.4379348 C9.05004348,13.9188043 9.05156522,13.346413 8.83721739,12.826413 C8.62308696,12.3061957 8.21917391,11.9005435 7.69982609,11.6840217 C7.1846087,11.4696739 6.63265217,11.4777174 6.14765217,11.6605435 L7.40569565,12.1807609 C8.19613043,12.5103261 8.56982609,13.4179348 8.24047826,14.2083696 C7.91134783,14.9988043 7.00330435,15.3727174 6.21286957,15.0431522" id="Fill-3"></path>
            <path d="M11.2837826,7.35452174 C11.2837826,6.32082609 12.1218261,5.48321739 13.1553043,5.48321739 C14.189,5.48321739 15.0268261,6.32082609 15.0268261,7.35452174 C15.0268261,8.388 14.189,9.22582609 13.1553043,9.22582609 C12.1218261,9.22582609 11.2837826,8.388 11.2837826,7.35452174 M15.6424783,7.35886957 C15.6424783,5.98517391 14.5248696,4.86734783 13.1511739,4.86734783 C11.7774783,4.86734783 10.6596522,5.98517391 10.6596522,7.35886957 C10.6596522,8.73234783 11.7774783,9.84995652 13.1511739,9.84995652 C14.5248696,9.84995652 15.6424783,8.73234783 15.6424783,7.35886957" id="Fill-5"></path>
        </g>
    </g>
</svg>