<?xml version="1.0" encoding="UTF-8"?>
<svg width="24px" height="24px" viewBox="0 0 24 24" version="1.1" xmlns="http://www.w3.org/2000/svg" xmlns:xlink="http://www.w3.org/1999/xlink">
    <!-- Generator: Sketch 52.6 (67491) - http://www.bohemiancoding.com/sketch -->
    <title>switch</title>
    <desc>Created with Sketch.</desc>
    <defs>
        <path d="M17.8185414,14.0308517 C17.6062389,13.8428517 17.2367123,13.9728517 17.2367123,14.2368517 L17.2367123,17.0078517 L15.8667601,17.0078517 C15.5182635,17.0078517 15.1897955,16.8228517 15.0265629,16.5538517 L12.355757,11.7828517 L14.7581804,7.51185169 C14.9394387,7.21385169 15.2679068,7.02885169 15.6164034,7.02885169 L17.2367123,7.02885169 L17.2367123,9.76285169 C17.2367123,10.0258517 17.6062389,10.1558517 17.8185414,9.96885169 L21.8062239,6.43985169 C22.064592,6.21085169 22.064592,5.84585169 21.8062239,5.61785169 L17.8185414,2.08885169 C17.6062389,1.90085169 17.2367123,2.03085169 17.2367123,2.29485169 L17.2367123,5.02885169 L15.6164034,5.02885169 C14.5709136,5.02885169 13.5855094,5.58385169 13.0287159,6.50485169 L11.2101244,9.73685169 L9.35548156,6.42485169 C8.81471096,5.53085169 7.82930676,4.97585169 6.78481837,4.97585169 L3.00142703,4.97585169 C2.44763788,4.97585169 2,5.42385169 2,5.97585169 C2,6.52785169 2.44763788,6.97585169 3.00142703,6.97585169 L6.78481837,6.97585169 C7.13331497,6.97585169 7.46078161,7.16085169 7.62401422,7.42885169 L10.0604862,11.7808517 L7.39068172,16.5248517 C7.21042486,16.8228517 6.88295822,17.0078517 6.53446161,17.0078517 L3.00142703,17.0078517 C2.44763788,17.0078517 2,17.4548517 2,18.0078517 C2,18.5598517 2.44763788,19.0078517 3.00142703,19.0078517 L6.53446161,19.0078517 C7.57895,19.0078517 8.5643542,18.4518517 9.12114764,17.5308517 L11.2051173,13.8258517 L13.2950955,17.5588517 C13.8358661,18.4518517 14.8212703,19.0078517 15.8667601,19.0078517 L17.2367123,19.0078517 L17.2367123,21.7048517 C17.2367123,21.9678517 17.6062389,22.0978517 17.8185414,21.9098517 L21.8062239,18.3808517 C22.064592,18.1528517 22.064592,17.7878517 21.8062239,17.5598517 L17.8185414,14.0308517 Z" id="path-1"></path>
    </defs>
    <g id="switch" stroke="none" stroke-width="1" fill="none" fill-rule="evenodd">
        <mask id="mask-2" fill="white">
            <use xlink:href="#path-1"></use>
        </mask>
        <use id="Mask" fill="#000000" xlink:href="#path-1"></use>
    </g>
</svg>