<svg width="24" height="24" viewBox="0 0 24 24" fill="none" xmlns="http://www.w3.org/2000/svg">
<path fill-rule="evenodd" clip-rule="evenodd" d="M17.8185 14.0309C17.6062 13.8429 17.2367 13.9729 17.2367 14.2369V17.0079H15.8668C15.5183 17.0079 15.1898 16.8229 15.0266 16.5539L12.3558 11.7829L14.7582 7.51185C14.9394 7.21385 15.2679 7.02885 15.6164 7.02885H17.2367V9.76285C17.2367 10.0259 17.6062 10.1559 17.8185 9.96885L21.8062 6.43985C22.0646 6.21085 22.0646 5.84585 21.8062 5.61785L17.8185 2.08885C17.6062 1.90085 17.2367 2.03085 17.2367 2.29485V5.02885H15.6164C14.5709 5.02885 13.5855 5.58385 13.0287 6.50485L11.2101 9.73685L9.35548 6.42485C8.81471 5.53085 7.82931 4.97585 6.78482 4.97585H3.00143C2.44764 4.97585 2 5.42385 2 5.97585C2 6.52785 2.44764 6.97585 3.00143 6.97585H6.78482C7.13331 6.97585 7.46078 7.16085 7.62401 7.42885L10.0605 11.7809L7.39068 16.5249C7.21042 16.8229 6.88296 17.0079 6.53446 17.0079H3.00143C2.44764 17.0079 2 17.4549 2 18.0079C2 18.5599 2.44764 19.0079 3.00143 19.0079H6.53446C7.57895 19.0079 8.56435 18.4519 9.12115 17.5309L11.2051 13.8259L13.2951 17.5589C13.8359 18.4519 14.8213 19.0079 15.8668 19.0079H17.2367V21.7049C17.2367 21.9679 17.6062 22.0979 17.8185 21.9099L21.8062 18.3809C22.0646 18.1529 22.0646 17.7879 21.8062 17.5599L17.8185 14.0309Z" fill="black"/>
</svg>
