<svg width="24" height="24" viewBox="0 0 24 24" fill="none" xmlns="http://www.w3.org/2000/svg">
<rect width="24" height="24" fill="white"/>
<path fill-rule="evenodd" clip-rule="evenodd" d="M13 17H19.1055C19.7022 17 20.1701 16.4786 20.0374 15.8969C19.4702 13.4105 17.9829 11.3296 16 10.1238V5H17C17.5523 5 18 4.55228 18 4C18 3.44772 17.5523 3 17 3H7C6.44772 3 6 3.44772 6 4C6 4.55228 6.44772 5 7 5H8.00001V10.1607C6.04714 11.3717 4.58415 13.4357 4.02267 15.8969C3.88997 16.4786 4.3579 17 4.95451 17H11V21C11 21.5523 11.4477 22 12 22C12.5523 22 13 21.5523 13 21V17ZM10 11.2737L9.05406 11.8603C7.933 12.5556 6.99297 13.6478 6.40983 15H11V14C11 13.4477 11.4477 13 12 13C12.5523 13 13 13.4477 13 14V15H17.6502C17.0592 13.6296 16.1018 12.5264 14.9609 11.8327L14 11.2484V5H10V11.2737Z" fill="black"/>
</svg>
