<svg width="24" height="24" viewBox="0 0 24 24" fill="none" xmlns="http://www.w3.org/2000/svg">
<path d="M3 2H11C11.2652 2 11.5196 2.10536 11.7071 2.29289L21.7071 12.2929C22.0976 12.6834 22.0976 13.3166 21.7071 13.7071L13.7071 21.7071C13.3166 22.0976 12.6834 22.0976 12.2929 21.7071L2.29289 11.7071C2.10536 11.5196 2 11.2652 2 11V3C2 2.44772 2.44772 2 3 2ZM9 7C9 8.10457 8.10457 9 7 9C5.89543 9 5 8.10457 5 7C5 5.89543 5.89543 5 7 5C8.10457 5 9 5.89543 9 7ZM4 10.5858L13 19.5858L19.5858 13L10.5858 4H4V10.5858Z" fill="black"/>
</svg>
