<?xml version="1.0" encoding="UTF-8"?>
<svg width="24px" height="24px" viewBox="0 0 24 24" version="1.1" xmlns="http://www.w3.org/2000/svg" xmlns:xlink="http://www.w3.org/1999/xlink">
    <!-- Generator: Sketch 52.5 (67469) - http://www.bohemiancoding.com/sketch -->
    <title>/teams</title>
    <desc>Created with Sketch.</desc>
    <defs>
        <path d="M18.4330153,12.3737395 C17.5190227,12.3737395 16.775461,11.6186019 16.775461,10.69038 C16.775461,9.76215802 17.5190227,9.00702038 18.4330153,9.00702038 C19.347008,9.00702038 20.0905697,9.76215802 20.0905697,10.69038 C20.0905697,11.6186019 19.347008,12.3737395 18.4330153,12.3737395 M20.02471,12.785772 C21.1946005,13.4278177 22,14.7530103 22,16.2814109 L22,16.8759733 C22,17.1424924 21.7873383,17.3584649 21.5249048,17.3584649 C21.2627226,17.3584649 21.050061,17.1424924 21.050061,16.8759733 L21.050061,16.2814109 C21.050061,14.6588095 19.8758971,13.3384674 18.4330153,13.3384674 C17.6922187,13.3384674 17.0228121,13.6871889 16.5462087,14.2455006 C16.4054397,13.9404331 16.2400362,13.6494065 16.0515064,13.3765051 C16.2885512,13.1431732 16.5537499,12.9435391 16.8413207,12.785772 C16.2241997,12.3009829 15.8255219,11.5422712 15.8255219,10.69038 C15.8255219,9.23014083 16.9951611,8.04229247 18.4330153,8.04229247 C19.8708696,8.04229247 21.0405088,9.23014083 21.0405088,10.69038 C21.0405088,11.5422712 20.641831,12.3009829 20.02471,12.785772 Z M7.45379134,14.2455006 C6.97718789,13.6871889 6.30778126,13.3384674 5.56698465,13.3384674 C4.12410291,13.3384674 2.94993904,14.6588095 2.94993904,16.2814109 L2.94993904,16.8759733 C2.94993904,17.1424924 2.73727738,17.3584649 2.47509521,17.3584649 C2.21266166,17.3584649 2,17.1424924 2,16.8759733 L2,16.2814109 C2,14.7530103 2.80539949,13.4278177 3.97529002,12.785772 C3.358169,12.3009829 2.95949122,11.5422712 2.95949122,10.69038 C2.95949122,9.23014083 4.12913037,8.04229247 5.56698465,8.04229247 C7.00483893,8.04229247 8.17447809,9.23014083 8.17447809,10.69038 C8.17447809,11.5422712 7.77580031,12.3009829 7.15867929,12.785772 C7.44625014,12.9435391 7.71144879,13.1431732 7.94849365,13.3765051 C7.7599638,13.6494065 7.59456029,13.9404331 7.45379134,14.2455006 Z M5.56698465,12.3737395 C6.48097734,12.3737395 7.22453904,11.6186019 7.22453904,10.69038 C7.22453904,9.76215802 6.48097734,9.00702038 5.56698465,9.00702038 C4.65299197,9.00702038 3.90943026,9.76215802 3.90943026,10.69038 C3.90943026,11.6186019 4.65299197,12.3737395 5.56698465,12.3737395 Z M13.9658635,12.1192188 C15.5113055,12.9277114 16.5819036,14.6575331 16.5819036,16.6566821 L16.5819036,17.4299451 C16.5819036,17.7449687 16.3305305,18 16.0205875,18 C15.7106444,18 15.4592713,17.7449687 15.4592713,17.4299451 L15.4592713,16.6566821 C15.4592713,14.5150832 13.9072936,12.7727524 11.9998743,12.7727524 C10.092455,12.7727524 8.54072873,14.5150832 8.54072873,16.6566821 L8.54072873,17.4299451 C8.54072873,17.7449687 8.2893556,18 7.97941254,18 C7.6692181,18 7.41809635,17.7449687 7.41809635,17.4299451 L7.41809635,16.6566821 C7.41809635,14.6575331 8.48869449,12.9277114 10.0341365,12.1192188 C9.2051079,11.5027018 8.66566117,10.5075948 8.66566117,9.38637621 C8.66566117,7.51921031 10.1613313,6 11.9998743,6 C13.8386687,6 15.3343388,7.51921031 15.3343388,9.38637621 C15.3343388,10.5075948 14.7946407,11.5027018 13.9658635,12.1192188 Z M9.78829355,9.38637621 C9.78829355,10.6247713 10.7804633,11.6323874 11.9998743,11.6323874 C13.2195367,11.6323874 14.2117064,10.6247713 14.2117064,9.38637621 C14.2117064,8.14798111 13.2195367,7.14036506 11.9998743,7.14036506 C10.7804633,7.14036506 9.78829355,8.14798111 9.78829355,9.38637621 Z" id="path-1"></path>
    </defs>
    <g id="/teams" stroke="none" stroke-width="1" fill="none" fill-rule="evenodd">
        <mask id="mask-2" fill="white">
            <use xlink:href="#path-1"></use>
        </mask>
        <use id="teams" fill="#000000" xlink:href="#path-1"></use>
    </g>
</svg>