<?xml version="1.0" encoding="UTF-8"?>
<svg width="24px" height="24px" viewBox="0 0 24 24" version="1.1" xmlns="http://www.w3.org/2000/svg" xmlns:xlink="http://www.w3.org/1999/xlink">
    <!-- Generator: Sketch 52.5 (67469) - http://www.bohemiancoding.com/sketch -->
    <title> tip</title>
    <desc>Created with Sketch.</desc>
    <defs>
        <path d="M17.4781671,5.43079517 C17.130662,4.68876405 16.6736986,4.07234923 16.1074207,3.58187034 C15.5409989,3.09155127 14.9002146,2.70527317 14.1856429,2.42303605 C13.4706397,2.14111856 12.7421161,2 11.9999281,2 C11.2577401,2 10.5292165,2.14095874 9.81435712,2.42303605 C9.09949778,2.70527317 8.45885723,3.09155127 7.89243548,3.58187034 C7.32615757,4.07234923 6.86905033,4.68860424 6.52140143,5.43079517 C6.17375253,6.1729861 6,6.97367012 6,7.83316686 C6,9.1786676 6.40244999,10.341817 7.20706229,11.3227747 C7.55873857,11.7480482 7.84971653,12.1256962 8.08014,12.4555588 C8.31070731,12.7852617 8.54314447,13.1998274 8.77745149,13.6989364 C9.0117585,14.1980454 9.14466193,14.6647116 9.1758741,15.098775 C8.80866365,15.3418569 8.62513035,15.6977698 8.62513035,16.1666733 C8.62513035,16.4879058 8.72279423,16.7656681 8.918122,16.99996 C8.72279423,17.2344118 8.62513035,17.5121741 8.62513035,17.8334066 C8.62513035,18.2848901 8.80104041,18.636328 9.15257285,18.8883597 C9.05088159,19.0878115 9.00010788,19.2917383 9.00010788,19.5001398 C9.00010788,19.8993631 9.1230867,20.2078103 9.36918817,20.4245223 C9.61514581,20.6415541 9.91791823,20.7500699 10.2773616,20.7500699 C10.4335663,21.132033 10.6680171,21.4358454 10.9804265,21.6615072 C11.2928358,21.8871691 11.6327176,22 11.9999281,22 C12.3671385,22 12.7070203,21.8871691 13.0194297,21.6615072 C13.3319829,21.4358454 13.5664337,21.132033 13.7226384,20.7500699 C14.0819379,20.7500699 14.3848542,20.6415541 14.6308118,20.4245223 C14.8769133,20.2078103 14.9998921,19.8993631 14.9998921,19.5001398 C14.9998921,19.2917383 14.9489746,19.0878115 14.8472833,18.8883597 C15.1988158,18.6364879 15.3747258,18.2848901 15.3747258,17.8334066 C15.3747258,17.5121741 15.2769181,17.2344118 15.0817342,16.99996 C15.2769181,16.7656681 15.3747258,16.4879058 15.3747258,16.1666733 C15.3747258,15.6977698 15.1911925,15.3420167 14.8238382,15.098775 C14.8551942,14.6647116 14.9880977,14.1980454 15.2224047,13.6989364 C15.4569994,13.1998274 15.6892927,12.7852617 15.91986,12.4555588 C16.1504273,12.1256962 16.4414053,11.7480482 16.7927939,11.3227747 C17.5974062,10.341817 18,9.1786676 18,7.83316686 C18,6.97367012 17.8261036,6.1729861 17.4781671,5.43079517 L17.4781671,5.43079517 Z M15.7031452,10.1552378 C15.6248981,10.2527702 15.5058014,10.3991505 15.3457113,10.5943786 C15.1856211,10.7896068 15.0665244,10.9358237 14.9884212,11.0335194 C13.9884691,12.3912945 13.4377188,13.7132913 13.3361701,15 L10.6641176,15 C10.5625689,13.7132913 10.0118186,12.3912945 9.01172268,11.0335194 C8.93361941,10.935987 8.8145227,10.7896068 8.65428873,10.5943786 C8.49419859,10.3991505 8.37495805,10.2529336 8.29685477,10.1552378 C7.7656662,9.45421355 7.5,8.65549352 7.5,7.75940448 C7.5,7.12046113 7.6347749,6.52595465 7.90432469,5.97572167 C8.17401832,5.42548869 8.52555497,4.97523866 8.95907849,4.62464485 C9.392602,4.27405103 9.87301625,3.99909791 10.4004651,3.79945875 C10.9277701,3.59965621 11.4609723,3.5 12.0000719,3.5 C12.5391715,3.5 13.0723738,3.59965621 13.5996788,3.79945875 C14.1269837,3.99909791 14.607398,4.27405103 15.0410653,4.62464485 C15.4745889,4.97523866 15.8262694,5.42565206 16.0956753,5.97572167 C16.3650813,6.52595465 16.5,7.12046113 16.5,7.75940448 C16.5,8.65549352 16.2344776,9.45421355 15.7031452,10.1552378 L15.7031452,10.1552378 Z" id="path-1"></path>
    </defs>
    <g id="-tip" stroke="none" stroke-width="1" fill="none" fill-rule="evenodd">
        <mask id="mask-2" fill="white">
            <use xlink:href="#path-1"></use>
        </mask>
        <use id="Mask" fill="#000000" xlink:href="#path-1"></use>
    </g>
</svg>