<?xml version="1.0" encoding="UTF-8"?>
<svg width="24px" height="24px" viewBox="0 0 24 24" version="1.1" xmlns="http://www.w3.org/2000/svg" xmlns:xlink="http://www.w3.org/1999/xlink">
    <!-- Generator: Sketch 52.6 (67491) - http://www.bohemiancoding.com/sketch -->
    <title>trash</title>
    <desc>Created with Sketch.</desc>
    <g id="trash" stroke="none" stroke-width="1" fill="none" fill-rule="evenodd">
        <g id="Mask" transform="translate(3.000000, 2.000000)" fill="#000000">
            <path d="M3,18 L15,18 L15,5 L3,5 L3,18 Z M7.07,2 L10.93,2 L11.567,2.956 L6.416,2.981 L7.07,2 Z M17,3 L14.996,3 L14,3 L12.298,0.447 C12.111,0.167 11.799,0 11.463,0 L6.537,0 C6.202,0 5.888,0.167 5.702,0.447 L4,3 L3.004,3 L1,3 C0.448,3 0,3.448 0,4 C0,4.552 0.448,5 1,5 C1,5.001 1,5.002 1,5.004 L1,17.996 C1,19.103 1.897,20 3.004,20 L14.996,20 C16.103,20 17,19.103 17,17.996 L17,5.004 L17,5 C17.553,5 18,4.552 18,4 C18,3.448 17.553,3 17,3 Z" id="Fill-1"></path>
            <path d="M7,16 C7.552,16 8,15.552 8,15 L8,8 C8,7.448 7.552,7 7,7 C6.448,7 6,7.448 6,8 L6,15 C6,15.552 6.448,16 7,16" id="Fill-3"></path>
            <path d="M11,16 C11.553,16 12,15.552 12,15 L12,8 C12,7.448 11.553,7 11,7 C10.448,7 10,7.448 10,8 L10,15 C10,15.552 10.448,16 11,16" id="Fill-4"></path>
        </g>
    </g>
</svg>