<?xml version="1.0" encoding="UTF-8"?>
<svg width="24px" height="24px" viewBox="0 0 24 24" version="1.1" xmlns="http://www.w3.org/2000/svg" xmlns:xlink="http://www.w3.org/1999/xlink">
    <!-- Generator: Sketch 52.5 (67469) - http://www.bohemiancoding.com/sketch -->
    <title>trash </title>
    <desc>Created with Sketch.</desc>
    <defs>
        <path d="M20.5909305,5.33320015 C20.7101836,5.33320015 20.8082536,5.37235598 20.8848266,5.45034801 C20.9613997,5.52849985 21,5.62838718 21,5.74985017 L21,6.58331003 C21,6.70477302 20.9613997,6.80466034 20.8848266,6.88265237 C20.8082536,6.96080421 20.7101836,6.99980023 20.5909305,6.99980023 L20,6.99980023 L20.0829333,19.343956 C20.0829333,20.0642635 19.8828706,20.687081 19.4822743,21.2124084 C19.081678,21.7374162 18.6002721,22 18.0375858,22 L6,22 C5.43747058,22 4.95590774,21.7462063 4.55531147,21.2381394 C4.1547152,20.7305519 4,20.1163647 4,19.3957376 L4,6.99980023 L3.40906951,6.99980023 C3.28981641,6.99980023 3.19174643,6.96080421 3.11501648,6.88265237 C3.03828652,6.80466034 3,6.70477302 3,6.58331003 L3,5.74985017 C3,5.62838718 3.03844343,5.52849985 3.11501648,5.45034801 C3.19174643,5.37235598 3.2896595,5.33320015 3.40906951,5.33320015 L7.35932842,5.33320015 L8.2541974,3.15885281 C8.38208065,2.83761517 8.6121136,2.56416362 8.94461007,2.33849817 C9.27694963,2.11283272 9.61368272,2 9.95449553,2 L14.0453476,2 C14.3863173,2 14.7230504,2.11283272 15.0555468,2.33849817 C15.3878864,2.56416362 15.6179193,2.83761517 15.7456457,3.15885281 L16.6405147,5.33320015 L20.5909305,5.33320015 Z M18,19.0011302 L18,7 L6,7 L6,19.0011302 C6,19.5521262 6.44882258,19.999602 7.00247329,19.999602 L16.9975267,19.999602 C17.544239,19.999602 18,19.5525709 18,19.0011302 Z M9.57489496,3.80963873 L8.96590216,5.33304033 L14.5340978,5.33304033 L13.9374619,3.80963873 C13.8794916,3.7316467 13.809012,3.68386061 13.7261755,3.66644026 L9.78618129,3.66644026 C9.70334484,3.68370079 9.63286521,3.73148688 9.57489496,3.80963873 Z M13.4303691,18.2429047 C13.3049067,18.2429047 13.2017304,18.201992 13.1210052,18.1201666 C13.04028,18.0380059 13,17.9335445 13,17.8057762 L13,9.93696079 C13,9.80952787 13.04028,9.70473105 13.1210052,9.62273803 C13.2017304,9.54091268 13.3049067,9.5 13.4303691,9.5 L14.2911074,9.5 C14.4167349,9.5 14.5199113,9.54091268 14.6003063,9.62273803 C14.6811965,9.70473105 14.7213115,9.80952787 14.7213115,9.93696079 L14.7213115,17.8057762 C14.7213115,17.9335445 14.6811965,18.0380059 14.6003063,18.1201666 C14.5199113,18.201992 14.4167349,18.2429047 14.2911074,18.2429047 L13.4303691,18.2429047 Z M9.55737705,18.2487793 C9.43176159,18.2487793 9.32876021,18.2078666 9.24804279,18.1260413 C9.16732536,18.0438806 9.12704918,17.9394191 9.12704918,17.8116508 L9.12704918,9.94283542 C9.12704918,9.8154025 9.16749043,9.71060569 9.24804279,9.62861266 C9.32876021,9.54678731 9.43176159,9.50587463 9.55737705,9.50587463 L10.4180328,9.50587463 C10.5436482,9.50587463 10.6466496,9.54678731 10.7273671,9.62861266 C10.8079194,9.71060569 10.8483607,9.8154025 10.8483607,9.94283542 L10.8483607,17.8116508 C10.8483607,17.9394191 10.8079194,18.0438806 10.7273671,18.1260413 C10.6468147,18.2078666 10.5436482,18.2487793 10.4180328,18.2487793 L9.55737705,18.2487793 Z" id="path-1"></path>
    </defs>
    <g id="trash-" stroke="none" stroke-width="1" fill="none" fill-rule="evenodd">
        <mask id="mask-2" fill="white">
            <use xlink:href="#path-1"></use>
        </mask>
        <use id="trash" fill="#000000" xlink:href="#path-1"></use>
    </g>
</svg>