<?xml version="1.0" encoding="UTF-8"?>
<svg width="24px" height="24px" viewBox="0 0 24 24" version="1.1" xmlns="http://www.w3.org/2000/svg" xmlns:xlink="http://www.w3.org/1999/xlink">
    <!-- Generator: Sketch 53 (72520) - https://sketchapp.com -->
    <title>trash</title>
    <desc>Created with Sketch.</desc>
    <g id="trash" stroke="none" stroke-width="1" fill="none" fill-rule="evenodd">
        <path d="M20,5 C20.553,5 21,5.448 21,6 C21,6.552 20.553,7 20,7 L20,7.004 L20,19.996 C20,21.103 19.103,22 17.996,22 L6.004,22 C4.897,22 4,21.103 4,19.996 L4,7.004 C4,7.002 4,7.001 4,7 C3.448,7 3,6.552 3,6 C3,5.448 3.448,5 4,5 L6.004,5 L7,5 L8.702,2.447 C8.888,2.167 9.202,2 9.537,2 L14.463,2 C14.799,2 15.111,2.167 15.298,2.447 L17,5 L17.996,5 L20,5 Z M6,20 L18,20 L18,7 L6,7 L6,20 Z M10.07,4 L9.416,4.981 L14.567,4.956 L13.93,4 L10.07,4 Z M10,18 C9.448,18 9,17.552 9,17 L9,10 C9,9.448 9.448,9 10,9 C10.552,9 11,9.448 11,10 L11,17 C11,17.552 10.552,18 10,18 Z M14,18 C13.448,18 13,17.552 13,17 L13,10 C13,9.448 13.448,9 14,9 C14.553,9 15,9.448 15,10 L15,17 C15,17.552 14.553,18 14,18 Z" id="Mask" fill="#000000"></path>
    </g>
</svg>