<svg width="24" height="24" viewBox="0 0 24 24" fill="none" xmlns="http://www.w3.org/2000/svg">
<path fill-rule="evenodd" clip-rule="evenodd" d="M9 15.9999C8.44772 15.9999 8 15.5522 8 14.9999L8 9.99988H6C5.44771 9.99988 5 9.55216 5 8.99988C5 8.44759 5.44772 7.99988 6 7.99988H8V5.99988C8 5.44759 8.44772 4.99988 9 4.99988C9.55228 4.99988 10 5.44759 10 5.99988V7.99988H15C15.5523 7.99988 16 8.44759 16 8.99988C16 8.99992 16 8.99984 16 8.99988V13.9999H18C18.5523 13.9999 19 14.4476 19 14.9999C19 15.5522 18.5523 15.9999 18 15.9999H16V18C16 18.5523 15.5523 19 15 19C14.4477 19 14 18.5523 14 18V15.9999H9ZM10 13.9999H14V9.99988H10V13.9999Z" fill="black"/>
<path d="M12.8026 1.02879C18.503 1.43986 23 6.19475 23 12H21C21 8.29552 18.7619 5.11382 15.5641 3.73326L14.6615 6.47603C14.5661 6.72393 14.2194 6.73479 14.1088 6.49333L12.3076 1.67118C12.1562 1.31641 12.3671 0.997292 12.8026 1.02879Z" fill="black"/>
<path d="M11.1916 22.9711C5.49124 22.56 0.99428 17.8051 0.99428 11.9999L2.99428 11.9999C2.99428 15.7044 5.23237 18.8861 8.43014 20.2666L9.33278 17.5238C9.42812 17.2759 9.77483 17.2651 9.8855 17.5065L11.6866 22.3287C11.838 22.6835 11.6272 23.0026 11.1916 22.9711Z" fill="black"/>
</svg>
