<svg width="24" height="24" viewBox="0 0 24 24" fill="none" xmlns="http://www.w3.org/2000/svg">
<path fill-rule="evenodd" clip-rule="evenodd" d="M22 6.77519C21.2642 7.07692 20.474 7.28058 19.6432 7.37115C20.4902 6.90269 21.141 6.16077 21.448 5.27692C20.6547 5.71019 19.7769 6.02635 18.8423 6.19538C18.0934 5.45981 17.0269 5 15.846 5C13.5798 5 11.7437 6.695 11.7437 8.78635C11.7437 9.08288 11.7793 9.3725 11.8493 9.64942C8.43911 9.49135 5.41585 7.98385 3.3916 5.69288C3.03901 6.2525 2.83646 6.90269 2.83646 7.59673C2.83646 8.91096 3.56102 10.0694 4.66129 10.749C3.98925 10.7288 3.35659 10.5592 2.80333 10.2754C2.8027 10.291 2.8027 10.3077 2.8027 10.3227C2.8027 12.1579 4.2168 13.6885 6.09415 14.0363C5.75031 14.1223 5.38772 14.169 5.01325 14.169C4.74819 14.169 4.49187 14.1454 4.24181 14.1015C4.76319 15.605 6.27919 16.7 8.07402 16.7312C6.67054 17.7465 4.90135 18.3529 2.97899 18.3529C2.64766 18.3529 2.32071 18.335 2 18.2998C3.81545 19.3729 5.97224 20 8.2897 20C15.8366 20 19.9645 14.2302 19.9645 9.22596C19.9645 9.06212 19.9595 8.89827 19.952 8.73558C20.7541 8.20192 21.4492 7.53558 22 6.77519Z" fill="black"/>
</svg>
