<svg width="24" height="24" viewBox="0 0 24 24" fill="none" xmlns="http://www.w3.org/2000/svg">
<path fill-rule="evenodd" clip-rule="evenodd" d="M18 19.7149C18 19.8661 17.8663 19.9888 17.7013 19.9888H6.29871C6.13375 19.9888 6 19.8661 6 19.7149V13.2626C6 13.1114 6.13375 12.9888 6.29871 12.9888H17.7013C17.8663 12.9888 18 13.1114 18 13.2626V19.7149ZM18 11V7.41549C18 4.42448 15.2228 2 11.9916 2C8.76062 2 6 4.42467 6 7.41554V8.02845C6 8.41544 6.31008 8.96926 7 8.96926C7.68992 8.96926 8 8.41544 8 8.02845V7.41554C8 5.19865 9.59677 4 11.9916 4C14.3866 4 16 5.19846 16 7.41549V11H5.53885C4.52021 11 4 11.5297 4 12.4381L4 20.9361C4 21.7072 4.56746 22 5.0876 22H18.9699C19.8471 22 20 21.2018 20 20.9361V12.4381C20 11.5316 19.5104 11 18.4935 11H18Z" fill="black"/>
</svg>
