<?xml version="1.0" encoding="UTF-8"?>
<svg width="24px" height="24px" viewBox="0 0 24 24" version="1.1" xmlns="http://www.w3.org/2000/svg" xmlns:xlink="http://www.w3.org/1999/xlink">
    <!-- Generator: Sketch 52.5 (67469) - http://www.bohemiancoding.com/sketch -->
    <title>/up-slim</title>
    <desc>Created with Sketch.</desc>
    <defs>
        <path d="M12.0001176,6 C12.1733176,6 12.3286824,6.06487146 12.4619294,6.19282383 L21.7994824,15.1585865 C21.9325412,15.2860655 22,15.4352164 22,15.60182 C22,15.7681766 21.9325412,15.9173274 21.7994824,16.0451151 L20.798,17.0071762 C20.6647529,17.1351285 20.5092941,17.2 20.3359529,17.2 C20.1629176,17.2 20.0076235,17.1351285 19.8743765,17.0071762 L11.9992235,9.44584355 L4.12635294,17.0071762 C3.99336471,17.1351285 3.838,17.2 3.66454118,17.2 C3.49134118,17.2 3.33597647,17.1351285 3.20275294,17.0071762 L2.20077647,16.0451151 C2.06755294,15.9171833 2,15.7680325 2,15.60182 C2,15.4356074 2.06755294,15.2864771 2.20077647,15.1585865 L11.5383059,6.19282383 C11.6713176,6.06487146 11.8267059,6 12.0001176,6" id="path-1"></path>
    </defs>
    <g id="/up-slim" stroke="none" stroke-width="1" fill="none" fill-rule="evenodd">
        <mask id="mask-2" fill="white">
            <use xlink:href="#path-1"></use>
        </mask>
        <use id="Fill-1" fill="#000000" xlink:href="#path-1"></use>
    </g>
</svg>