<?xml version="1.0" encoding="UTF-8"?>
<svg width="24px" height="24px" viewBox="0 0 24 24" version="1.1" xmlns="http://www.w3.org/2000/svg" xmlns:xlink="http://www.w3.org/1999/xlink">
    <!-- Generator: Sketch 52.5 (67469) - http://www.bohemiancoding.com/sketch -->
    <title>/ user</title>
    <desc>Created with Sketch.</desc>
    <defs>
        <path d="M15.4323961,12.198698 C18.1307365,13.5461856 20,16.4292218 20,19.7611369 L20,21.0499085 C20,21.5749479 19.5611027,22 19.0199424,22 C18.4787821,22 18.0398848,21.5749479 18.0398848,21.0499085 L18.0398848,19.7611369 C18.0398848,16.1918053 15.330133,13.2879207 11.9997806,13.2879207 C8.66942806,13.2879207 5.96011521,16.1918053 5.96011521,19.7611369 L5.96011521,21.0499085 C5.96011521,21.5749479 5.52121794,22 4.98005761,22 C4.43845837,22 4,21.5749479 4,21.0499085 L4,19.7611369 C4,16.4292218 5.86926348,13.5461856 8.5676039,12.198698 C7.1201207,11.1711696 6.17824715,9.51265796 6.17824715,7.64396035 C6.17824715,4.53201719 8.78968591,2 11.9997806,2 C15.2103141,2 17.8217528,4.53201719 17.8217528,7.64396035 C17.8217528,9.51265796 16.8794404,11.1711696 15.4323961,12.198698 Z M8.13836236,7.64396035 C8.13836236,9.70795218 9.87068989,11.3873123 11.9997806,11.3873123 C14.1293101,11.3873123 15.8616376,9.70795218 15.8616376,7.64396035 C15.8616376,5.57996851 14.1293101,3.90060843 11.9997806,3.90060843 C9.87068989,3.90060843 8.13836236,5.57996851 8.13836236,7.64396035 Z" id="path-1"></path>
    </defs>
    <g id="/-user" stroke="none" stroke-width="1" fill="none" fill-rule="evenodd">
        <mask id="mask-2" fill="white">
            <use xlink:href="#path-1"></use>
        </mask>
        <use id="teams-copy-2" fill="#000000" xlink:href="#path-1"></use>
    </g>
</svg>