<?xml version="1.0" encoding="UTF-8"?>
<svg width="24px" height="24px" viewBox="0 0 24 24" version="1.1" xmlns="http://www.w3.org/2000/svg" xmlns:xlink="http://www.w3.org/1999/xlink">
    <!-- Generator: Sketch 52.5 (67469) - http://www.bohemiancoding.com/sketch -->
    <title>/vector</title>
    <desc>Created with Sketch.</desc>
    <defs>
        <path d="M17.7118928,2 C18.1139049,2 18.4544933,2.13958543 18.7336683,2.41876047 C19.0128434,2.69793551 19.1524288,3.03294054 19.1524288,3.42378559 C19.1524288,3.82579765 19.0128434,4.16359439 18.7336683,4.43718593 C18.4544933,4.71077747 18.1139049,4.84757119 17.7118928,4.84757119 C17.6113898,4.84757119 17.5080966,4.83640436 17.4020101,4.81407035 C17.2959235,4.79173635 17.1926303,4.75823585 17.0921273,4.71356784 L13.5912898,8.23115578 L13.9095477,8.66666667 C14.4343968,8.36515762 14.97878,8.0971536 15.5427136,7.86264657 C16.1066472,7.62813953 16.6873225,7.42992822 17.2847571,7.2680067 C17.8821917,7.10608518 18.4963676,6.98045829 19.1273032,6.89112228 C19.7582388,6.80178626 20.4031235,6.75711893 21.0619765,6.75711893 L22,6.79061977 L22,8.7001675 L21.0619765,8.66666667 C20.4477915,8.66666667 19.8419907,8.711334 19.2445561,8.80067002 C18.6471215,8.89000603 18.0692379,9.01563291 17.5108878,9.17755444 C16.9525377,9.33947596 16.4109462,9.54327069 15.8860972,9.78894472 C15.3612481,10.0346188 14.8587405,10.3082062 14.3785595,10.6097152 C14.3785595,11.1345643 14.2808497,11.625905 14.0854271,12.0837521 C13.8900046,12.5415992 13.6220006,12.9408135 13.281407,13.281407 C12.9408135,13.6220006 12.5415992,13.8900046 12.0837521,14.0854271 C11.625905,14.2808497 11.1345643,14.3785595 10.6097152,14.3785595 C10.3082062,14.8587405 10.0346188,15.3612481 9.78894472,15.8860972 C9.54327069,16.4109462 9.33947596,16.9525377 9.17755444,17.5108878 C9.01563291,18.0692379 8.89000603,18.6471215 8.80067002,19.2445561 C8.711334,19.8419907 8.66666667,20.4477915 8.66666667,21.0619765 L8.7001675,22 L6.79061977,22 L6.75711893,21.0619765 C6.75711893,20.4031235 6.80178626,19.7582388 6.89112228,19.1273032 C6.98045829,18.4963676 7.10608518,17.8821917 7.2680067,17.2847571 C7.42992822,16.6873225 7.62813953,16.1066472 7.86264657,15.5427136 C8.0971536,14.97878 8.36515762,14.4343968 8.66666667,13.9095477 L8.23115578,13.5912898 L4.71356784,17.0921273 C4.75823585,17.1926303 4.79173635,17.2959235 4.81407035,17.4020101 C4.83640436,17.5080966 4.84757119,17.6113898 4.84757119,17.7118928 C4.84757119,18.1139049 4.71077747,18.4544933 4.43718593,18.7336683 C4.16359439,19.0128434 3.82579765,19.1524288 3.42378559,19.1524288 C3.03294054,19.1524288 2.69793551,19.0128434 2.41876047,18.7336683 C2.13958543,18.4544933 2,18.1139049 2,17.7118928 C2,17.3210477 2.13958543,16.9860427 2.41876047,16.7068677 C2.69793551,16.4276926 3.03294054,16.2881072 3.42378559,16.2881072 C3.53545561,16.2881072 3.64433224,16.299274 3.75041876,16.321608 C3.85650528,16.343942 3.95421508,16.383026 4.04355109,16.438861 L7.56113903,12.9045226 C7.30429799,12.5918466 7.10608668,12.2345079 6.96649916,11.8324958 C6.82691164,11.4304838 6.75711893,11.0117275 6.75711893,10.5762144 C6.75711893,10.0513653 6.85762044,9.55723291 7.05862647,9.09380235 C7.2596325,8.63037178 7.53321993,8.22557404 7.87939698,7.87939698 C8.22557404,7.53321993 8.63037178,7.2596325 9.09380235,7.05862647 C9.55723291,6.85762044 10.0513653,6.75711893 10.5762144,6.75711893 C11.0117275,6.75711893 11.4304838,6.82691164 11.8324958,6.96649916 C12.2345079,7.10608668 12.5918466,7.30429799 12.9045226,7.56113903 L16.438861,4.04355109 C16.383026,3.95421508 16.343942,3.85650528 16.321608,3.75041876 C16.299274,3.64433224 16.2881072,3.53545561 16.2881072,3.42378559 C16.2881072,3.03294054 16.4276926,2.69793551 16.7068677,2.41876047 C16.9860427,2.13958543 17.3210477,2 17.7118928,2 Z M10.5762144,8.66666667 C10.0513653,8.66666667 9.60190025,8.85371114 9.2278057,9.2278057 C8.85371114,9.60190025 8.66666667,10.0513653 8.66666667,10.5762144 C8.66666667,11.1010635 8.85371114,11.5505286 9.2278057,11.9246231 C9.60190025,12.2987177 10.0513653,12.4857621 10.5762144,12.4857621 C11.1010635,12.4857621 11.5505286,12.2987177 11.9246231,11.9246231 C12.2987177,11.5505286 12.4857621,11.1010635 12.4857621,10.5762144 C12.4857621,10.0513653 12.2987177,9.60190025 11.9246231,9.2278057 C11.5505286,8.85371114 11.1010635,8.66666667 10.5762144,8.66666667 Z" id="path-1"></path>
    </defs>
    <g id="/vector" stroke="none" stroke-width="1" fill="none" fill-rule="evenodd">
        <mask id="mask-2" fill="white">
            <use xlink:href="#path-1"></use>
        </mask>
        <use id="" fill="#000000" xlink:href="#path-1"></use>
    </g>
</svg>