<?xml version="1.0" encoding="UTF-8"?>
<svg width="24px" height="24px" viewBox="0 0 24 24" version="1.1" xmlns="http://www.w3.org/2000/svg" xmlns:xlink="http://www.w3.org/1999/xlink">
    <!-- Generator: Sketch 52.6 (67491) - http://www.bohemiancoding.com/sketch -->
    <title>video</title>
    <desc>Created with Sketch.</desc>
    <defs>
        <path d="M4,5 L13,5 C14.1045695,5 15,5.8954305 15,7 L15,17 C15,18.1045695 14.1045695,19 13,19 L4,19 C2.8954305,19 2,18.1045695 2,17 L2,7 C2,5.8954305 2.8954305,5 4,5 Z M18.6325162,8.61649461 C19.0031657,8.2692008 19.4920689,8.07594245 20,8.07594245 C21.1045695,8.07594245 22,8.97137295 22,10.0759424 L22,13.9240381 C22,14.4319693 21.8067416,14.9208725 21.4594478,15.291522 C20.7042074,16.0975527 19.438547,16.1387264 18.6325162,15.383486 L16.5790751,13.4594381 C16.5474316,13.4297885 16.5167607,13.3991177 16.4871111,13.3674741 C15.7318706,12.5614433 15.7730443,11.2957829 16.5790751,10.5405425 L18.6325162,8.61649461 Z M7.53256285,9.31485122 C7.3730618,9.21449053 7.18844854,9.16124168 7,9.16124168 C6.44771525,9.16124168 6,9.60895693 6,10.1612417 L6,13.8386157 C6,14.0270642 6.05324885,14.2116775 6.15360954,14.3711785 C6.44773588,14.838627 7.06511431,14.9791325 7.53256285,14.6850061 L10.4547477,12.8463191 C10.5815432,12.7665373 10.6887935,12.659287 10.7685754,12.5324915 C11.0627017,12.065043 10.9221963,11.4476645 10.4547477,11.1535382 L7.53256285,9.31485122 Z" id="path-1"></path>
    </defs>
    <g id="video" stroke="none" stroke-width="1" fill="none" fill-rule="evenodd">
        <mask id="mask-2" fill="white">
            <use xlink:href="#path-1"></use>
        </mask>
        <use id="Mask" fill="#000000" xlink:href="#path-1"></use>
    </g>
</svg>