<svg width="24" height="24" viewBox="0 0 24 24" fill="none" xmlns="http://www.w3.org/2000/svg">
<path fill-rule="evenodd" clip-rule="evenodd" d="M2 7C2 5.89543 2.89543 5 4 5H13C14.1046 5 15 5.89543 15 7V17C15 18.1046 14.1046 19 13 19H4C2.89543 19 2 18.1046 2 17V7ZM22 10.0759C22 8.32532 19.91 7.41952 18.6325 8.61649L16.5791 10.5405C15.7357 11.3308 15.7357 12.6692 16.5791 13.4594L18.6325 15.3835C19.91 16.5805 22 15.6747 22 13.924V10.0759ZM7.53256 9.31485C6.86663 8.89583 6 9.37445 6 10.1612V13.8386C6 14.6254 6.86663 15.104 7.53256 14.685L10.4547 12.8463C11.078 12.4542 11.078 11.5457 10.4547 11.1535L7.53256 9.31485Z" fill="black"/>
</svg>
