<?xml version="1.0" encoding="UTF-8"?>
<svg width="24px" height="24px" viewBox="0 0 24 24" version="1.1" xmlns="http://www.w3.org/2000/svg" xmlns:xlink="http://www.w3.org/1999/xlink">
    <!-- Generator: Sketch 52.5 (67469) - http://www.bohemiancoding.com/sketch -->
    <title>vimeo</title>
    <desc>Created with Sketch.</desc>
    <defs>
        <path d="M19.9920113,8.23375168 C19.9223644,9.81128354 18.8348004,11.9688701 16.7293196,14.7065112 C14.5541917,17.5688371 12.7112263,19 11.2057806,19 C10.273583,19 9.48067925,18.1272075 8.83778433,16.3870435 C8.40918771,14.7878273 7.97523363,13.1940323 7.54663701,11.5948161 C7.06982328,9.85465211 6.55550734,8.98185957 6.00368919,8.98185957 C5.88582512,8.98185957 5.46258596,9.23664994 4.75004408,9.74623068 L4,8.76501671 C4.78754629,8.06569846 5.56973511,7.36095915 6.33585157,6.65621983 C7.39127074,5.73463765 8.17881703,5.25216227 8.70920534,5.20337263 C9.95213553,5.08410905 10.718252,5.94605944 11.0075547,7.78922381 C11.3182873,9.77875711 11.5325856,11.0147614 11.6558071,11.4972368 C12.0147568,13.1452426 12.4112086,13.9746666 12.8398052,13.9746666 C13.1719676,13.9746666 13.6755687,13.4379805 14.3506083,12.3700294 C15.0202905,11.3020782 15.3792402,10.4834964 15.4274573,9.92512604 C15.5238916,9.00354386 15.1649419,8.5373317 14.3506083,8.5373317 C13.9648714,8.5373317 13.573777,8.62406884 13.1666102,8.80296421 C13.9541565,6.19542874 15.4542446,4.93231904 17.6722321,5.00279297 C19.3116142,5.04074048 20.0884455,6.11953374 19.9920113,8.23375168 Z" id="path-1"></path>
    </defs>
    <g id="vimeo" stroke="none" stroke-width="1" fill="none" fill-rule="evenodd">
        <mask id="mask-2" fill="white">
            <use xlink:href="#path-1"></use>
        </mask>
        <use id="Vimeo" fill="#000000" xlink:href="#path-1"></use>
    </g>
</svg>