<?xml version="1.0" encoding="UTF-8"?>
<svg width="24px" height="24px" viewBox="0 0 24 24" version="1.1" xmlns="http://www.w3.org/2000/svg" xmlns:xlink="http://www.w3.org/1999/xlink">
    <!-- Generator: Sketch 52.5 (67469) - http://www.bohemiancoding.com/sketch -->
    <title>visiturl</title>
    <desc>Created with Sketch.</desc>
    <defs>
        <path d="M12.7038,7.98686667 C12.7038,7.57773333 12.85,7.22413333 13.1367333,6.9374 L15.7116667,4.35 C16.2772,3.78333333 17.2065333,3.772 17.8049333,4.3296 L19.65,6.16106667 C19.9378667,6.45006667 20.0829333,6.79913333 20.0829333,7.20033333 C20.0829333,7.60946667 19.9378667,7.96306667 19.65,8.2498 L17.0501333,10.8496667 C16.7713333,11.1284667 16.4177333,11.2701333 15.9995333,11.2701333 C15.5722667,11.2701333 15.2016667,11.1114667 14.8968,10.7964 L14.7041333,10.5992 L14.8979333,10.402 C14.9228667,10.3759333 15.0033333,10.2966 15.1404667,10.1651333 C15.2662667,10.0416 15.3524,9.95773333 15.3954667,9.91013333 C15.4385333,9.86366667 15.4940667,9.79226667 15.5643333,9.6948 C15.6232667,9.61433333 15.6629333,9.53726667 15.6833333,9.467 C15.7048667,9.3888 15.7162,9.29926667 15.7162,9.19953333 C15.7162,8.94226667 15.6289333,8.7292 15.4498667,8.55013333 C15.2696667,8.36993333 15.0577333,8.28266667 14.8004667,8.28266667 C14.7018667,8.28266667 14.6123333,8.294 14.5318667,8.31666667 C14.4616,8.33706667 14.3845333,8.3756 14.3040667,8.43566667 C14.2077333,8.50593333 14.1363333,8.56033333 14.0921333,8.60113333 C14.0445333,8.64646667 13.9584,8.73146667 13.8348667,8.85953333 L13.4064667,9.29473333 L13.2058667,9.1066 C12.8726667,8.79266667 12.7038,8.4164 12.7038,7.98686667 L12.7038,7.98686667 Z M10.8621333,17.0626 L8.28833333,19.6488667 C8.0084,19.9288 7.65593333,20.0704667 7.23773333,20.0704667 C6.832,20.0704667 6.48066667,19.9356 6.19393333,19.6704 L4.34886667,17.8366667 C4.06213333,17.5510667 3.91706667,17.202 3.91706667,16.7996667 C3.91706667,16.3905333 4.06213333,16.0369333 4.34886667,15.7490667 L6.94986667,13.1492 C7.53693333,12.561 8.51046667,12.5712 9.1066,13.2058667 L9.29586667,13.4087333 L8.8584,13.8348667 C8.7326,13.9584 8.64533333,14.0445333 8.60113333,14.0921333 C8.56146667,14.1363333 8.50593333,14.2077333 8.43453333,14.3052 C8.3756,14.3845333 8.33593333,14.4604667 8.31553333,14.533 C8.294,14.6112 8.28266667,14.7007333 8.28266667,14.7993333 C8.28266667,15.0577333 8.36993333,15.2696667 8.549,15.4487333 C8.7292,15.6289333 8.94226667,15.7162 9.19953333,15.7162 C9.297,15.7162 9.38653333,15.706 9.467,15.6833333 C9.53726667,15.6629333 9.6132,15.6232667 9.6948,15.5643333 C9.79113333,15.4940667 9.86253333,15.4385333 9.90673333,15.3977333 C9.9566,15.3535333 10.0416,15.2674 10.164,15.1404667 L10.5935333,14.7052667 L10.793,14.8934 C11.1262,15.2062 11.2950667,15.5824667 11.2950667,16.012 C11.2950667,16.4222667 11.1488667,16.7747333 10.8621333,17.0626 L10.8621333,17.0626 Z M13.6025333,12.102 C14.2700667,12.7842667 15.0543333,13.1163333 15.9995333,13.1163333 C16.93,13.1163333 17.6984,12.8001333 18.3489333,12.1496 L20.9488,9.54973333 C21.6004667,8.8992 21.9166667,8.12966667 21.9166667,7.20033333 C21.9166667,6.271 21.5970667,5.50713333 20.9397333,4.86453333 L19.1003333,3.03873333 C18.4577333,2.395 17.6927333,2.08333333 16.7622667,2.08333333 C15.825,2.08333333 15.0577333,2.40293333 14.4151333,3.06026667 L11.8379333,5.6488 C11.1953333,6.29253333 10.8836667,7.0564 10.8836667,7.98686667 C10.8836667,8.94113333 11.2157333,9.72993333 11.898,10.3963333 L12.1031333,10.5969333 L10.5980667,12.102 L10.3974667,11.898 C9.72993333,11.2146 8.94566667,10.8825333 8.00046667,10.8825333 C7.07,10.8825333 6.3016,11.1987333 5.64993333,11.8504 L3.05006667,14.4502667 C2.39953333,15.1008 2.08333333,15.8692 2.08333333,16.7996667 C2.08333333,17.7278667 2.40293333,18.4917333 3.06026667,19.1343333 L4.89966667,20.9612667 C5.5434,21.6038667 6.30726667,21.9166667 7.23773333,21.9166667 C8.175,21.9166667 8.94226667,21.5959333 9.58486667,20.9386 L12.1609333,18.3500667 C12.8046667,17.7063333 13.1163333,16.9424667 13.1163333,16.012 C13.1163333,15.0577333 12.7842667,14.2689333 12.102,13.6025333 L11.8968667,13.4019333 L13.4019333,11.8968667 L13.6025333,12.102 Z" id="path-1"></path>
    </defs>
    <g id="visiturl" stroke="none" stroke-width="1" fill="none" fill-rule="evenodd">
        <mask id="mask-2" fill="white">
            <use xlink:href="#path-1"></use>
        </mask>
        <use id="Mask" fill="#000000" xlink:href="#path-1"></use>
    </g>
</svg>