<svg width="24" height="24" viewBox="0 0 24 24" fill="none" xmlns="http://www.w3.org/2000/svg">
<path d="M20.5705 17.881C21.6769 16.0934 22.245 14.1165 22.245 12C22.245 9.87998 21.685 7.89998 20.565 6.10998C19.445 4.33998 17.945 3.00998 16.085 2.15998C15.965 2.11998 15.865 2.09998 15.765 2.09998C15.555 2.09998 15.365 2.18998 15.195 2.35998C15.035 2.52998 14.955 2.71998 14.955 2.95998C14.955 3.26998 15.125 3.52998 15.445 3.71998C15.4948 3.75318 15.5653 3.78639 15.6966 3.84822L15.785 3.88998C15.895 3.93998 15.995 3.98998 16.045 4.02998C16.465 4.27998 16.825 4.50998 17.135 4.74998C18.235 5.60998 19.095 6.68998 19.705 7.94998C20.315 9.21998 20.625 10.59 20.625 12.01C20.625 13.43 20.315 14.79 19.705 16.07C19.6034 16.2795 19.4938 16.485 19.376 16.6865L20.5705 17.881Z" fill="black"/>
<path d="M18.1951 15.5056C18.7699 14.4318 19.065 13.2596 19.065 12.02C19.065 10.61 18.695 9.28998 17.945 8.09998C17.205 6.90998 16.215 6.02998 14.995 5.48998C14.885 5.43998 14.775 5.41998 14.665 5.41998C14.445 5.41998 14.255 5.49998 14.105 5.65998C13.945 5.82998 13.865 6.01998 13.865 6.25998C13.865 6.60998 14.025 6.85998 14.355 7.03998C14.915 7.34998 15.205 7.52998 15.365 7.65998C16.025 8.15998 16.545 8.80998 16.925 9.58998C17.285 10.34 17.475 11.16 17.475 12.03C17.475 12.83 17.3192 13.5954 16.9996 14.3101L18.1951 15.5056Z" fill="black"/>
<path d="M15.7502 13.0607C15.8401 12.7383 15.885 12.4048 15.885 12.06C15.885 11.36 15.705 10.7 15.335 10.09C14.965 9.47998 14.475 9.04998 13.865 8.79998C13.775 8.74998 13.675 8.72998 13.555 8.72998C13.345 8.72998 13.155 8.80998 12.995 8.96998C12.835 9.13998 12.755 9.33998 12.755 9.57998C12.755 9.75998 12.805 9.90998 12.915 10.04C13.025 10.19 13.145 10.31 13.285 10.39C13.435 10.49 13.585 10.6 13.735 10.71C13.885 10.84 14.025 11.01 14.125 11.21C14.177 11.3092 14.2155 11.424 14.2418 11.5523L15.7502 13.0607Z" fill="black"/>
<path d="M11.065 8.3755V5.6C11.065 5.07 10.605 4.75 10.155 4.75C9.985 4.75 9.745 4.8 9.515 5.01L8.55682 5.86732L11.065 8.3755Z" fill="black"/>
<path fill-rule="evenodd" clip-rule="evenodd" d="M15.765 21.9C15.555 21.9 15.375 21.82 15.205 21.66C15.045 21.48 14.965 21.28 14.965 21.06C14.965 20.75 15.135 20.48 15.455 20.27C15.575 20.21 15.655 20.17 15.745 20.13C15.875 20.08 15.965 20.03 16.035 19.99C16.525 19.7 16.875 19.48 17.145 19.26L17.245 19.18L16.035 17.97C15.705 18.19 15.355 18.39 14.985 18.55C14.875 18.59 14.775 18.61 14.685 18.61C14.475 18.61 14.275 18.53 14.115 18.36C13.955 18.19 13.875 17.99 13.875 17.77C13.875 17.42 14.035 17.16 14.365 16.99C14.4614 16.9389 14.5514 16.8879 14.635 16.8405C14.6987 16.8043 14.7587 16.7703 14.815 16.74L13.375 15.31H13.345C13.255 15.31 13.115 15.23 13.005 15.11C12.885 14.98 12.815 14.84 12.785 14.68L11.055 13V18.39C11.055 18.92 10.595 19.24 10.145 19.24C10.015 19.24 9.755 19.21 9.51501 18.99L4.875 14.84H2.655C2.155 14.84 1.755 14.47 1.755 13.99V10.02C1.755 9.53997 2.155 9.16997 2.655 9.16997H4.865L6.105 8.05997L2.475 4.41997C2.315 4.25997 2.225 4.04997 2.225 3.81997C2.225 3.58997 2.315 3.37997 2.475 3.21997C2.635 3.05997 2.845 2.96997 3.075 2.96997C3.225 2.96997 3.365 3.00997 3.495 3.07997L20.995 20.57C21.205 20.94 21.155 21.36 20.875 21.62C20.715 21.78 20.505 21.87 20.275 21.87C20.045 21.87 19.835 21.78 19.675 21.62L18.425 20.37C17.725 20.96 16.935 21.45 16.085 21.84C15.975 21.88 15.865 21.9 15.765 21.9ZM5.555 13.16L9.255 16.4V11.2L7.36501 9.30997L5.595 10.86H3.555V13.16H5.555Z" fill="black"/>
</svg>
