<svg width="24" height="24" viewBox="0 0 24 24" fill="none" xmlns="http://www.w3.org/2000/svg">
<path d="M20.5705 17.8812C21.6769 16.0935 22.245 14.1166 22.245 12.0001C22.245 9.8801 21.685 7.9001 20.565 6.1101C19.445 4.3401 17.945 3.0101 16.085 2.1601C15.965 2.1201 15.865 2.1001 15.765 2.1001C15.555 2.1001 15.365 2.1901 15.195 2.3601C15.035 2.5301 14.955 2.7201 14.955 2.9601C14.955 3.2701 15.125 3.5301 15.445 3.7201C15.4948 3.75331 15.5653 3.78652 15.6966 3.84834L15.785 3.8901C15.895 3.9401 15.995 3.9901 16.045 4.0301C16.465 4.2801 16.825 4.5101 17.135 4.7501C18.235 5.6101 19.095 6.6901 19.705 7.9501C20.315 9.2201 20.625 10.5901 20.625 12.0101C20.625 13.4301 20.315 14.7901 19.705 16.0701C19.6034 16.2796 19.4938 16.4852 19.376 16.6866L20.5705 17.8812Z" fill="black"/>
<path d="M18.1951 15.5057C18.7699 14.432 19.065 13.2598 19.065 12.0201C19.065 10.6101 18.695 9.29011 17.945 8.10011C17.205 6.91011 16.215 6.03011 14.995 5.49011C14.885 5.44011 14.775 5.4201 14.665 5.4201C14.445 5.4201 14.255 5.5001 14.105 5.6601C13.945 5.83011 13.865 6.02011 13.865 6.26011C13.865 6.61011 14.025 6.86011 14.355 7.0401C14.915 7.3501 15.205 7.5301 15.365 7.6601C16.025 8.1601 16.545 8.81011 16.925 9.59011C17.285 10.3401 17.475 11.1601 17.475 12.0301C17.475 12.8301 17.3192 13.5955 16.9996 14.3102L18.1951 15.5057Z" fill="black"/>
<path d="M15.7502 13.0608C15.8401 12.7385 15.885 12.4049 15.885 12.0601C15.885 11.3601 15.705 10.7001 15.335 10.0901C14.965 9.4801 14.475 9.0501 13.865 8.8001C13.775 8.7501 13.675 8.7301 13.555 8.7301C13.345 8.7301 13.155 8.8101 12.995 8.9701C12.835 9.1401 12.755 9.3401 12.755 9.5801C12.755 9.7601 12.805 9.9101 12.915 10.0401C13.025 10.1901 13.145 10.3101 13.285 10.3901C13.435 10.4901 13.585 10.6001 13.735 10.7101C13.885 10.8401 14.025 11.0101 14.125 11.2101C14.177 11.3093 14.2155 11.4241 14.2418 11.5524L15.7502 13.0608Z" fill="black"/>
<path d="M11.065 8.37562V5.60012C11.065 5.07012 10.605 4.75012 10.155 4.75012C9.985 4.75012 9.745 4.80012 9.515 5.01012L8.55682 5.86744L11.065 8.37562Z" fill="black"/>
<path fill-rule="evenodd" clip-rule="evenodd" d="M15.765 21.9001C15.555 21.9001 15.375 21.8201 15.205 21.6601C15.045 21.4801 14.965 21.2801 14.965 21.0601C14.965 20.7501 15.135 20.4801 15.455 20.2701C15.575 20.2101 15.655 20.1701 15.745 20.1301C15.875 20.0801 15.965 20.0301 16.035 19.9901C16.525 19.7001 16.875 19.4801 17.145 19.2601L17.245 19.1801L16.035 17.9701C15.705 18.1901 15.355 18.3901 14.985 18.5501C14.875 18.5901 14.775 18.6101 14.685 18.6101C14.475 18.6101 14.275 18.5301 14.115 18.3601C13.955 18.1901 13.875 17.9901 13.875 17.7701C13.875 17.4201 14.035 17.1601 14.365 16.9901C14.4614 16.939 14.5514 16.888 14.635 16.8406C14.6987 16.8044 14.7587 16.7704 14.815 16.7401L13.375 15.3101H13.345C13.255 15.3101 13.115 15.2301 13.005 15.1101C12.885 14.9801 12.815 14.8401 12.785 14.6801L11.055 13.0001V18.3901C11.055 18.9201 10.595 19.2401 10.145 19.2401C10.015 19.2401 9.755 19.2101 9.51501 18.9901L4.875 14.8401H2.655C2.155 14.8401 1.755 14.4701 1.755 13.9901V10.0201C1.755 9.54009 2.155 9.17009 2.655 9.17009H4.865L6.105 8.06009L2.475 4.42009C2.315 4.26009 2.225 4.05009 2.225 3.82009C2.225 3.59009 2.315 3.38009 2.475 3.22009C2.635 3.06009 2.845 2.97009 3.075 2.97009C3.225 2.97009 3.365 3.01009 3.495 3.08009L20.995 20.5701C21.205 20.9401 21.155 21.3601 20.875 21.6201C20.715 21.7801 20.505 21.8701 20.275 21.8701C20.045 21.8701 19.835 21.7801 19.675 21.6201L18.425 20.3701C17.725 20.9601 16.935 21.4501 16.085 21.8401C15.975 21.8801 15.865 21.9001 15.765 21.9001ZM5.555 13.1601L9.255 16.4001V11.2001L7.36501 9.31009L5.595 10.8601H3.555V13.1601H5.555Z" fill="black"/>
</svg>
