<svg width="24" height="24" viewBox="0 0 24 24" fill="none" xmlns="http://www.w3.org/2000/svg">
<path fill-rule="evenodd" clip-rule="evenodd" d="M15.765 21.9001C15.555 21.9001 15.375 21.8201 15.205 21.6601C15.045 21.4801 14.965 21.2801 14.965 21.0601C14.965 20.7501 15.135 20.4801 15.455 20.2701C15.595 20.2001 15.665 20.1601 15.745 20.1301C15.865 20.0801 15.955 20.0301 16.015 20.0001C16.515 19.7101 16.865 19.4801 17.135 19.2601C18.235 18.4001 19.095 17.3201 19.705 16.0601C20.315 14.7801 20.625 13.4101 20.625 12.0001C20.625 10.5901 20.315 9.2101 19.705 7.9401C19.095 6.6801 18.235 5.6001 17.135 4.7401C16.825 4.5101 16.465 4.2701 16.045 4.0201C15.995 3.9801 15.895 3.9301 15.785 3.8801C15.585 3.7901 15.505 3.7501 15.445 3.7101C15.125 3.5201 14.955 3.2601 14.955 2.9501C14.955 2.7101 15.035 2.5201 15.205 2.3501C15.365 2.1901 15.555 2.1001 15.765 2.1001C15.865 2.1001 15.965 2.1201 16.085 2.1601C17.945 3.0101 19.445 4.3401 20.565 6.1101C21.685 7.9001 22.245 9.8801 22.245 12.0001C22.245 14.1201 21.675 16.1001 20.565 17.8901C19.445 19.6701 17.945 21.0001 16.085 21.8401C15.975 21.8801 15.865 21.9001 15.765 21.9001ZM10.145 19.2401C10.015 19.2401 9.755 19.2101 9.51501 18.9901L4.875 14.8401H2.655C2.155 14.8401 1.755 14.4701 1.755 13.9901V10.0201C1.755 9.5401 2.155 9.1701 2.655 9.1701H4.865L9.505 5.0201C9.735 4.8101 9.97501 4.7601 10.145 4.7601C10.595 4.7601 11.055 5.0801 11.055 5.6101V18.3901C11.055 18.9201 10.595 19.2401 10.145 19.2401ZM5.555 13.1601L9.255 16.4001V7.6701L5.595 10.8601H3.555V13.1601H5.555ZM14.675 18.6201C14.465 18.6201 14.275 18.5401 14.105 18.3801C13.945 18.2101 13.865 18.0101 13.865 17.7801C13.865 17.4401 14.035 17.1701 14.355 17.0001C14.945 16.6701 15.235 16.4801 15.375 16.3801C16.025 15.8801 16.545 15.2401 16.915 14.4801C17.285 13.7201 17.465 12.9001 17.465 12.0401C17.465 11.1801 17.275 10.3501 16.915 9.6001C16.535 8.8201 16.005 8.1701 15.355 7.6701C15.195 7.5401 14.905 7.3601 14.345 7.0501C14.025 6.8801 13.855 6.6101 13.855 6.2701C13.855 6.0301 13.935 5.8401 14.095 5.6701C14.245 5.5101 14.435 5.4301 14.655 5.4301C14.765 5.4301 14.875 5.4501 14.985 5.5001C16.205 6.0401 17.195 6.9201 17.935 8.1101C18.675 9.3001 19.055 10.6201 19.055 12.0301C19.055 13.4401 18.675 14.7601 17.935 15.9501C17.185 17.1501 16.185 18.0301 14.965 18.5701C14.865 18.6001 14.765 18.6201 14.675 18.6201ZM13.555 15.3601C13.335 15.3601 13.145 15.2801 12.995 15.1101C12.835 14.9401 12.755 14.7401 12.755 14.5101C12.755 14.3301 12.805 14.1801 12.905 14.0401C13.015 13.9001 13.145 13.7901 13.265 13.7001C13.415 13.6001 13.575 13.4901 13.725 13.3701C13.885 13.2401 14.015 13.0601 14.125 12.8501C14.235 12.6301 14.295 12.3501 14.295 12.0301C14.295 11.7101 14.245 11.4301 14.135 11.2101C14.035 11.0101 13.905 10.8401 13.745 10.7101C13.595 10.6001 13.445 10.4901 13.295 10.3901C13.155 10.3101 13.035 10.1901 12.925 10.0401C12.805 9.9101 12.755 9.7601 12.755 9.5801C12.755 9.3401 12.835 9.1401 12.995 8.9701C13.155 8.8101 13.345 8.7301 13.555 8.7301C13.675 8.7301 13.775 8.7501 13.865 8.8001C14.475 9.0501 14.965 9.4801 15.335 10.0901C15.705 10.7001 15.885 11.3601 15.885 12.0601C15.885 12.7501 15.695 13.4101 15.335 14.0201C14.965 14.6301 14.465 15.0601 13.865 15.3101C13.765 15.3401 13.665 15.3601 13.555 15.3601Z" fill="black"/>
</svg>
