<svg width="24" height="24" viewBox="0 0 24 24" fill="none" xmlns="http://www.w3.org/2000/svg">
<path fill-rule="evenodd" clip-rule="evenodd" d="M19.8139 5.42228C20.6744 5.65467 21.3521 6.33945 21.5821 7.20893C22 8.78493 22 12.0731 22 12.0731C22 12.0731 22 15.3612 21.5821 16.9372C21.3521 17.8067 20.6744 18.463 19.8139 18.6954C18.2541 19.1176 12 19.1176 12 19.1176C12 19.1176 5.74586 19.1176 4.18613 18.6954C3.32565 18.463 2.64794 17.8067 2.41792 16.9372C2 15.3612 2 12.0731 2 12.0731C2 12.0731 2 8.78493 2.41792 7.20893C2.64794 6.33945 3.32565 5.65471 4.18613 5.42228C5.74586 5 12 5 12 5C12 5 18.2542 5 19.8139 5.42228ZM15.1818 12.0732L9.95453 9.08768V15.0585L15.1818 12.0732Z" fill="black"/>
</svg>
