<?xml version="1.0" encoding="UTF-8"?>
<!-- Generator: CustomSymbols v2.6.1.40 by @serious_bret https://bretlester.com/app_content/CustomSymbols/ -->
<!-- Guides: Left/Right 0.124/0.128 Cap/Base 0.215/0.191 -->
<!-- Settings: RefScale 1.0 Min/Max Stroke Scales 0.5/2.21 -->
<!DOCTYPE svg
PUBLIC "-//W3C//DTD SVG 1.1//EN"
       "http://www.w3.org/Graphics/SVG/1.1/DTD/svg11.dtd">
<svg version="1.1" xmlns="http://www.w3.org/2000/svg" xmlns:xlink="http://www.w3.org/1999/xlink" width="3300" height="2200">
<![CDATA[<svg width="24" height="24" viewBox="0 0 24 24" fill="none" xmlns="http://www.w3.org/2000/svg">
<path fill-rule="evenodd" clip-rule="evenodd" d="M11.9629 17.3995L12.4839 17.3995C12.5919 17.3995 12.6819 17.3645 12.7519 17.2975C12.8209 17.2295 12.8559 17.1425 12.8559 17.0365L12.8559 9.88447L16.0879 11.7075C16.2429 11.7075 16.3569 11.6345 16.4259 11.4915C16.4879 11.3485 16.4679 11.2145 16.3679 11.0945L12.2079 6.71447C12.1299 6.63947 12.0359 6.60147 11.9279 6.60147C11.8189 6.60147 11.7259 6.63947 11.6489 6.71447L7.48791 11.0945C7.38691 11.2145 7.36791 11.3485 7.42891 11.4915C7.49891 11.6345 7.61291 11.7075 7.76691 11.7075L10.9999 9.88447L10.9999 17.0365C10.9999 17.1425 11.0349 17.2295 11.1049 17.2975C11.1739 17.3645 11.2639 17.3995 11.3719 17.3995L11.8929 17.3995L11.9629 17.3995Z" fill="black"/>
<path fill-rule="evenodd" clip-rule="evenodd" d="M5.53476 5.00009L18.4648 5.00009C18.7608 5.00009 18.9998 5.24009 18.9998 5.53509L18.9998 18.4651C18.9998 18.7611 18.7608 19.0001 18.4648 19.0001L5.53476 19.0001C5.23876 19.0001 4.99976 18.7611 4.99976 18.4651L4.99976 5.53509C4.99976 5.24009 5.23876 5.00009 5.53476 5.00009ZM4.99976 21.0001L18.9998 21.0001C20.1038 21.0001 20.9998 20.1041 20.9998 19.0001L20.9998 5.00009C20.9998 3.89609 20.1038 3.00009 18.9998 3.00009L4.99976 3.00009C3.89476 3.00009 2.99976 3.89609 2.99976 5.00009L2.99976 19.0001C2.99976 20.1041 3.89476 21.0001 4.99976 21.0001Z" fill="black"/>
</svg>
]]>
 <g id="Notes">
  <rect height="2200" id="artboard" style="fill:white;opacity:1" width="3300" x="0" y="0"/>
  <line id="" style="fill:none;stroke:black;opacity:1;stroke-width:0.5;" x1="263" x2="3036" y1="292" y2="292"/>
  <text id="reftext1" style="stroke:none;fill:black;font-family:-apple-system,&quot;SF Pro Display&quot;,&quot;SF Pro Text&quot;,Helvetica,sans-serif;font-weight:bold;" transform="matrix(1 0 0 1 263 322)">Weight/Scale Variations</text>
  <text id="reftext2" style="stroke:none;fill:black;font-family:-apple-system,&quot;SF Pro Display&quot;,&quot;SF Pro Text&quot;,Helvetica,sans-serif;text-anchor:middle;" transform="matrix(1 0 0 1 559.711 322)">Ultralight</text>
  <text style="stroke:none;fill:black;font-family:-apple-system,&quot;SF Pro Display&quot;,&quot;SF Pro Text&quot;,Helvetica,sans-serif;text-anchor:middle;" transform="matrix(1 0 0 1 856.422 322)">Thin</text>
  <text style="stroke:none;fill:black;font-family:-apple-system,&quot;SF Pro Display&quot;,&quot;SF Pro Text&quot;,Helvetica,sans-serif;text-anchor:middle;" transform="matrix(1 0 0 1 1153.13 322)">Light</text>
  <text style="stroke:none;fill:black;font-family:-apple-system,&quot;SF Pro Display&quot;,&quot;SF Pro Text&quot;,Helvetica,sans-serif;text-anchor:middle;" transform="matrix(1 0 0 1 1449.84 322)">Regular</text>
  <text style="stroke:none;fill:black;font-family:-apple-system,&quot;SF Pro Display&quot;,&quot;SF Pro Text&quot;,Helvetica,sans-serif;text-anchor:middle;" transform="matrix(1 0 0 1 1746.56 322)">Medium</text>
  <text style="stroke:none;fill:black;font-family:-apple-system,&quot;SF Pro Display&quot;,&quot;SF Pro Text&quot;,Helvetica,sans-serif;text-anchor:middle;" transform="matrix(1 0 0 1 2043.27 322)">Semibold</text>
  <text style="stroke:none;fill:black;font-family:-apple-system,&quot;SF Pro Display&quot;,&quot;SF Pro Text&quot;,Helvetica,sans-serif;text-anchor:middle;" transform="matrix(1 0 0 1 2339.98 322)">Bold</text>
  <text style="stroke:none;fill:black;font-family:-apple-system,&quot;SF Pro Display&quot;,&quot;SF Pro Text&quot;,Helvetica,sans-serif;text-anchor:middle;" transform="matrix(1 0 0 1 2636.69 322)">Heavy</text>
  <text style="stroke:none;fill:black;font-family:-apple-system,&quot;SF Pro Display&quot;,&quot;SF Pro Text&quot;,Helvetica,sans-serif;text-anchor:middle;" transform="matrix(1 0 0 1 2933.4 322)">Black</text>
  <line id="" style="fill:none;stroke:black;opacity:1;stroke-width:0.5;" x1="263" x2="3036" y1="1903" y2="1903"/>
  <g id="" transform="matrix(1 0 0 1 263 1933)">
   <path d="M9.24805 0.830078C13.5547 0.830078 17.1387-2.74414 17.1387-7.05078C17.1387-11.3574 13.5449-14.9316 9.23828-14.9316C4.94141-14.9316 1.36719-11.3574 1.36719-7.05078C1.36719-2.74414 4.95117 0.830078 9.24805 0.830078ZM9.24805-0.654297C5.70312-0.654297 2.87109-3.49609 2.87109-7.05078C2.87109-10.6055 5.69336-13.4473 9.23828-13.4473C12.793-13.4473 15.6348-10.6055 15.6445-7.05078C15.6543-3.49609 12.8027-0.654297 9.24805-0.654297ZM6.39648-6.31836L8.50586-6.31836L8.50586-4.19922C8.50586-3.75977 8.79883-3.45703 9.22852-3.45703C9.67773-3.45703 9.9707-3.75977 9.9707-4.19922L9.9707-6.31836L12.0996-6.31836C12.5391-6.31836 12.8418-6.61133 12.8418-7.04102C12.8418-7.48047 12.5391-7.7832 12.0996-7.7832L9.9707-7.7832L9.9707-9.89258C9.9707-10.3418 9.67773-10.6445 9.22852-10.6445C8.79883-10.6445 8.50586-10.3418 8.50586-9.89258L8.50586-7.7832L6.39648-7.7832C5.94727-7.7832 5.64453-7.48047 5.64453-7.04102C5.64453-6.61133 5.94727-6.31836 6.39648-6.31836Z"/>
  </g>
  <g id="" transform="matrix(1 0 0 1 281.506 1933)">
   <path d="M11.709 2.91016C17.1582 2.91016 21.6699-1.61133 21.6699-7.05078C21.6699-12.5 17.1484-17.0117 11.6992-17.0117C6.25977-17.0117 1.74805-12.5 1.74805-7.05078C1.74805-1.61133 6.26953 2.91016 11.709 2.91016ZM11.709 1.25C7.09961 1.25 3.41797-2.44141 3.41797-7.05078C3.41797-11.6602 7.08984-15.3516 11.6992-15.3516C16.3086-15.3516 20-11.6602 20.0098-7.05078C20.0195-2.44141 16.3184 1.25 11.709 1.25ZM7.98828-6.23047L10.8789-6.23047L10.8789-3.32031C10.8789-2.83203 11.2109-2.5 11.6895-2.5C12.1777-2.5 12.5195-2.83203 12.5195-3.32031L12.5195-6.23047L15.4297-6.23047C15.918-6.23047 16.25-6.5625 16.25-7.04102C16.25-7.5293 15.918-7.87109 15.4297-7.87109L12.5195-7.87109L12.5195-10.7617C12.5195-11.2695 12.1777-11.6016 11.6895-11.6016C11.2109-11.6016 10.8789-11.2598 10.8789-10.7617L10.8789-7.87109L7.98828-7.87109C7.48047-7.87109 7.14844-7.5293 7.14844-7.04102C7.14844-6.5625 7.49023-6.23047 7.98828-6.23047Z"/>
  </g>
  <g id="" transform="matrix(1 0 0 1 304.924 1933)">
   <path d="M14.9707 5.66406C21.9336 5.66406 27.6953-0.0976562 27.6953-7.05078C27.6953-14.0137 21.9238-19.7754 14.9609-19.7754C8.00781-19.7754 2.25586-14.0137 2.25586-7.05078C2.25586-0.0976562 8.01758 5.66406 14.9707 5.66406ZM14.9707 3.84766C8.93555 3.84766 4.08203-1.01562 4.08203-7.05078C4.08203-13.0957 8.92578-17.9492 14.9609-17.9492C21.0059-17.9492 25.8594-13.0957 25.8691-7.05078C25.8789-1.01562 21.0156 3.84766 14.9707 3.84766ZM10.0586-6.14258L14.0625-6.14258L14.0625-2.12891C14.0625-1.5918 14.4336-1.2207 14.9512-1.2207C15.4883-1.2207 15.8594-1.5918 15.8594-2.12891L15.8594-6.14258L19.8828-6.14258C20.4102-6.14258 20.791-6.51367 20.791-7.03125C20.791-7.56836 20.4199-7.94922 19.8828-7.94922L15.8594-7.94922L15.8594-11.9531C15.8594-12.5098 15.4883-12.8809 14.9512-12.8809C14.4336-12.8809 14.0625-12.5 14.0625-11.9531L14.0625-7.94922L10.0586-7.94922C9.50195-7.94922 9.13086-7.56836 9.13086-7.03125C9.13086-6.51367 9.51172-6.14258 10.0586-6.14258Z"/>
  </g>
  <text style="stroke:none;fill:black;font-family:-apple-system,&quot;SF Pro Display&quot;,&quot;SF Pro Text&quot;,Helvetica,sans-serif;font-weight:bold;" transform="matrix(1 0 0 1 263 1953)">Design Variations</text>
  <text style="stroke:none;fill:black;font-family:-apple-system,&quot;SF Pro Display&quot;,&quot;SF Pro Text&quot;,Helvetica,sans-serif;" transform="matrix(1 0 0 1 263 1971)">Symbols are supported in up to nine weights and three scales.</text>
  <text style="stroke:none;fill:black;font-family:-apple-system,&quot;SF Pro Display&quot;,&quot;SF Pro Text&quot;,Helvetica,sans-serif;" transform="matrix(1 0 0 1 263 1989)">For optimal layout with text and other symbols, vertically align</text>
  <text style="stroke:none;fill:black;font-family:-apple-system,&quot;SF Pro Display&quot;,&quot;SF Pro Text&quot;,Helvetica,sans-serif;" transform="matrix(1 0 0 1 263 2007)">symbols with the adjacent text.</text>
  <line id="" style="fill:none;stroke:#00AEEF;stroke-width:0.5;opacity:1.0;" x1="776" x2="776" y1="1919" y2="1933"/>
  <g id="" transform="matrix(1 0 0 1 776 1933)">
   <path d="M3.31055 0.126953C3.82812 0.126953 4.08203-0.0683594 4.26758-0.605469L5.52734-4.0625L11.2891-4.0625L12.5488-0.605469C12.7344-0.0683594 12.9883 0.126953 13.4961 0.126953C14.0137 0.126953 14.3457-0.185547 14.3457-0.673828C14.3457-0.839844 14.3164-0.986328 14.2383-1.20117L9.6582-13.3887C9.43359-13.9941 9.0332-14.2871 8.4082-14.2871C7.80273-14.2871 7.39258-13.9941 7.17773-13.3984L2.59766-1.19141C2.51953-0.976562 2.49023-0.830078 2.49023-0.664062C2.49023-0.175781 2.80273 0.126953 3.31055 0.126953ZM6.00586-5.53711L8.37891-12.1094L8.42773-12.1094L10.8008-5.53711Z"/>
  </g>
  <line id="" style="fill:none;stroke:#00AEEF;stroke-width:0.5;opacity:1.0;" x1="792.836" x2="792.836" y1="1919" y2="1933"/>
  <text style="stroke:none;fill:black;font-family:-apple-system,&quot;SF Pro Display&quot;,&quot;SF Pro Text&quot;,Helvetica,sans-serif;font-weight:bold;" transform="matrix(1 0 0 1 776 1953)">Margins</text>
  <text style="stroke:none;fill:black;font-family:-apple-system,&quot;SF Pro Display&quot;,&quot;SF Pro Text&quot;,Helvetica,sans-serif;" transform="matrix(1 0 0 1 776 1971)">Leading and trailing margins on the left and right side of each symbol</text>
  <text style="stroke:none;fill:black;font-family:-apple-system,&quot;SF Pro Display&quot;,&quot;SF Pro Text&quot;,Helvetica,sans-serif;" transform="matrix(1 0 0 1 776 1989)">can be adjusted by modifying the x-location of the margin guidelines.</text>
  <text style="stroke:none;fill:black;font-family:-apple-system,&quot;SF Pro Display&quot;,&quot;SF Pro Text&quot;,Helvetica,sans-serif;" transform="matrix(1 0 0 1 776 2007)">Modifications are automatically applied proportionally to all</text>
  <text style="stroke:none;fill:black;font-family:-apple-system,&quot;SF Pro Display&quot;,&quot;SF Pro Text&quot;,Helvetica,sans-serif;" transform="matrix(1 0 0 1 776 2025)">scales and weights.</text>
  <g id="" transform="matrix(1 0 0 1 1289 1933)">
   <path d="M2.8418 1.86523L4.54102 3.57422C5.40039 4.44336 6.38672 4.38477 7.31445 3.35938L17.4902-7.85156C17.7539-7.76367 18.0273-7.7832 18.3398-7.8418L19.4043-8.03711L20.0684-7.36328L20.0293-6.80664C19.9902-6.30859 20.1172-5.92773 20.6055-5.44922L21.3672-4.70703C21.8457-4.22852 22.4609-4.19922 22.9297-4.66797L25.8398-7.58789C26.3086-8.05664 26.2891-8.65234 25.8105-9.13086L25.0391-9.89258C24.5605-10.3711 24.1895-10.5273 23.7109-10.4883L23.1348-10.4395L22.4902-11.0742L22.7344-12.1973C22.8613-12.7637 22.7051-13.2031 22.1191-13.7891L19.9219-15.9766C16.582-19.2969 12.1484-19.2188 9.25781-16.3281C8.83789-15.918 8.80859-15.3418 9.04297-14.9512C9.27734-14.5898 9.73633-14.3555 10.3809-14.5215C11.8457-14.8633 13.3691-14.9219 14.7949-13.9844L14.209-12.5293C14.0137-12.0508 13.9844-11.6504 14.1113-11.2891L3.04688-0.898438C2.06055 0.0195312 1.98242 0.996094 2.8418 1.86523ZM10.752-15.957C13.1836-17.7344 16.4746-17.4316 18.7012-15.2051L21.1328-12.793C21.3672-12.5586 21.4062-12.373 21.3379-12.0312L21.0156-10.5469L22.5195-9.0625L23.5059-9.12109C23.7598-9.13086 23.8379-9.11133 24.0332-8.91602L24.6094-8.33984L22.168-5.89844L21.5918-6.47461C21.3965-6.66992 21.3672-6.74805 21.377-7.01172L21.4453-7.98828L19.9512-9.47266L18.4277-9.21875C18.1055-9.15039 17.959-9.17969 17.7148-9.41406L15.7129-11.416C15.459-11.6504 15.4297-11.8164 15.5859-12.1875L16.4648-14.2773C14.9023-15.7324 12.8711-16.3574 10.8398-15.7617C10.6836-15.7227 10.625-15.8496 10.752-15.957ZM5.27344 2.30469L4.10156 1.14258C3.63281 0.683594 3.74023 0.341797 4.14062-0.0195312L14.9512-10.1953L16.416-8.71094L6.42578 2.27539C6.07422 2.67578 5.74219 2.77344 5.27344 2.30469Z"/>
  </g>
  <text style="stroke:none;fill:black;font-family:-apple-system,&quot;SF Pro Display&quot;,&quot;SF Pro Text&quot;,Helvetica,sans-serif;font-weight:bold;" transform="matrix(1 0 0 1 1289 1953)">Exporting</text>
  <text style="stroke:none;fill:black;font-family:-apple-system,&quot;SF Pro Display&quot;,&quot;SF Pro Text&quot;,Helvetica,sans-serif;" transform="matrix(1 0 0 1 1289 1971)">Symbols should be outlined when exporting to ensure the</text>
  <text style="stroke:none;fill:black;font-family:-apple-system,&quot;SF Pro Display&quot;,&quot;SF Pro Text&quot;,Helvetica,sans-serif;" transform="matrix(1 0 0 1 1289 1989)">design is preserved when submitting to Xcode.</text>
  <text id="template-version" style="stroke:none;fill:black;font-family:-apple-system,&quot;SF Pro Display&quot;,&quot;SF Pro Text&quot;,Helvetica,sans-serif;text-anchor:end;" transform="matrix(1 0 0 1 3036 1933)">Template v.2.0</text>
  <text style="stroke:none;fill:black;font-family:-apple-system,&quot;SF Pro Display&quot;,&quot;SF Pro Text&quot;,Helvetica,sans-serif;text-anchor:end;" transform="matrix(1 0 0 1 3036 1951)">Requires Xcode 12 or greater</text>
  <text style="stroke:none;fill:black;font-family:-apple-system,&quot;SF Pro Display&quot;,&quot;SF Pro Text&quot;,Helvetica,sans-serif;" transform="matrix(1 0 0 1 263 726)">Small</text>
  <text style="stroke:none;fill:black;font-family:-apple-system,&quot;SF Pro Display&quot;,&quot;SF Pro Text&quot;,Helvetica,sans-serif;" transform="matrix(1 0 0 1 263 1156)">Medium</text>
  <text style="stroke:none;fill:black;font-family:-apple-system,&quot;SF Pro Display&quot;,&quot;SF Pro Text&quot;,Helvetica,sans-serif;" transform="matrix(1 0 0 1 263 1586)">Large</text>
 </g>
 <g id="Guides">
  <g id="H-reference" style="fill:#27AAE1;stroke:none;" transform="matrix(1 0 0 1 339 696)">
   <path d="M0.976562 0L3.66211 0L12.9883-24.4629L45.752-24.4629L55.127 0L57.7637 0L30.6152-70.459L28.125-70.459ZM29.3457-67.1387L29.4434-67.1387L44.873-26.709L13.8672-26.709Z"/>
  </g>
  <line id="Baseline-S" style="fill:none;stroke:#27AAE1;opacity:1;stroke-width:0.5;" x1="263" x2="3036" y1="696" y2="696"/>
  <line id="Capline-S" style="fill:none;stroke:#27AAE1;opacity:1;stroke-width:0.5;" x1="263" x2="3036" y1="625.541" y2="625.541"/>
  <g id="H-reference" style="fill:#27AAE1;stroke:none;" transform="matrix(1 0 0 1 339 1126)">
   <path d="M0.976562 0L3.66211 0L12.9883-24.4629L45.752-24.4629L55.127 0L57.7637 0L30.6152-70.459L28.125-70.459ZM29.3457-67.1387L29.4434-67.1387L44.873-26.709L13.8672-26.709Z"/>
  </g>
  <line id="Baseline-M" style="fill:none;stroke:#27AAE1;opacity:1;stroke-width:0.5;" x1="263" x2="3036" y1="1126" y2="1126"/>
  <line id="Capline-M" style="fill:none;stroke:#27AAE1;opacity:1;stroke-width:0.5;" x1="263" x2="3036" y1="1055.54" y2="1055.54"/>
  <g id="H-reference" style="fill:#27AAE1;stroke:none;" transform="matrix(1 0 0 1 339 1556)">
   <path d="M0.976562 0L3.66211 0L12.9883-24.4629L45.752-24.4629L55.127 0L57.7637 0L30.6152-70.459L28.125-70.459ZM29.3457-67.1387L29.4434-67.1387L44.873-26.709L13.8672-26.709Z"/>
  </g>
  <line id="Baseline-L" style="fill:none;stroke:#27AAE1;opacity:1;stroke-width:0.5;" x1="263" x2="3036" y1="1556" y2="1556"/>
  <line id="Capline-L" style="fill:none;stroke:#27AAE1;opacity:1;stroke-width:0.5;" x1="263" x2="3036" y1="1485.54" y2="1485.54"/>
  <line id="left-margin" x1="1406.529081965488" x2="1406.529081965488" y1="1030.79" y2="1150.12" style="fill:none;stroke:#00AEEF;stroke-width:0.5;opacity:1.0;"/>
  <line id="right-margin" x1="1495.2564401830807" x2="1495.2564401830807" y1="1030.79" y2="1150.12" style="fill:none;stroke:#00AEEF;stroke-width:0.5;opacity:1.0;"/>
 </g>
 <g id="Symbols">
  <g id="Black-L" transform="matrix(1.0,0.0,0.0,1.0,2858.1704464567547,1442.4242367029672)">  <path stroke-opacity="1" fill="#000000" stroke-linecap="butt" clip-rule="evenodd" stroke-miterlimit="4" stroke-linejoin="miter" stroke-dasharray="none" stroke="none" fill-rule="evenodd" fill-opacity="1" stroke-width="1px" d="M76.273,110.936L79.595,110.936C80.283,110.936,80.857,110.713,81.304,110.285C81.743,109.852,81.967,109.297,81.967,108.621L81.967,63.021L102.573,74.645C103.561,74.645,104.288,74.179,104.728,73.267C105.123,72.356,104.996,71.501,104.358,70.736L77.835,42.81C77.338,42.332,76.738,42.09,76.05,42.09C75.355,42.09,74.762,42.332,74.271,42.81L47.741,70.736C47.097,71.501,46.976,72.356,47.365,73.267C47.812,74.179,48.538,74.645,49.52,74.645L70.133,63.021L70.133,108.621C70.133,109.297,70.356,109.852,70.803,110.285C71.243,110.713,71.816,110.936,72.505,110.936L75.827,110.936L76.273,110.936ZM76.273,110.936"/>
  <path stroke-opacity="1" fill="#000000" stroke-linejoin="miter" fill-opacity="1" stroke-width="1px" fill-rule="evenodd" clip-rule="evenodd" stroke-linecap="butt" stroke-dasharray="none" stroke-miterlimit="4" stroke="none" d="M35.289,31.88L117.728,31.88C119.615,31.88,121.139,33.41,121.139,35.291L121.139,117.73C121.139,119.617,119.615,121.141,117.728,121.141L35.289,121.141C33.401,121.141,31.877,119.617,31.877,117.73L31.877,35.291C31.877,33.41,33.401,31.88,35.289,31.88ZM31.877,133.892L121.139,133.892C128.178,133.892,133.89,128.18,133.89,121.141L133.89,31.88C133.89,24.841,128.178,19.128,121.139,19.128L31.877,19.128C24.832,19.128,19.126,24.841,19.126,31.88L19.126,121.141C19.126,128.18,24.832,133.892,31.877,133.892ZM31.877,133.892"/>
</g>
  <g id="Heavy-L" transform="matrix(1.0,0.0,0.0,1.0,2561.4604464567547,1442.4242367029672)">  <path stroke-miterlimit="4" stroke-linecap="butt" stroke-dasharray="none" stroke="none" stroke-linejoin="miter" fill-opacity="1" stroke-opacity="1" fill="#000000" stroke-width="1px" clip-rule="evenodd" fill-rule="evenodd" d="M76.273,110.936L79.595,110.936C80.283,110.936,80.857,110.713,81.304,110.285C81.743,109.852,81.967,109.297,81.967,108.621L81.967,63.021L102.573,74.645C103.561,74.645,104.288,74.179,104.728,73.267C105.123,72.356,104.996,71.501,104.358,70.736L77.835,42.81C77.338,42.332,76.738,42.09,76.05,42.09C75.355,42.09,74.762,42.332,74.271,42.81L47.741,70.736C47.097,71.501,46.976,72.356,47.365,73.267C47.812,74.179,48.538,74.645,49.52,74.645L70.133,63.021L70.133,108.621C70.133,109.297,70.356,109.852,70.803,110.285C71.243,110.713,71.816,110.936,72.505,110.936L75.827,110.936L76.273,110.936ZM76.273,110.936"/>
  <path stroke-linecap="butt" stroke-linejoin="miter" stroke-width="1px" stroke-opacity="1" stroke-miterlimit="4" stroke="none" clip-rule="evenodd" fill-rule="evenodd" fill="#000000" fill-opacity="1" stroke-dasharray="none" d="M35.289,31.88L117.728,31.88C119.615,31.88,121.139,33.41,121.139,35.291L121.139,117.73C121.139,119.617,119.615,121.141,117.728,121.141L35.289,121.141C33.401,121.141,31.877,119.617,31.877,117.73L31.877,35.291C31.877,33.41,33.401,31.88,35.289,31.88ZM31.877,133.892L121.139,133.892C128.178,133.892,133.89,128.18,133.89,121.141L133.89,31.88C133.89,24.841,128.178,19.128,121.139,19.128L31.877,19.128C24.832,19.128,19.126,24.841,19.126,31.88L19.126,121.141C19.126,128.18,24.832,133.892,31.877,133.892ZM31.877,133.892"/>
</g>
  <g id="Bold-L" transform="matrix(1.0,0.0,0.0,1.0,2264.7504464567546,1442.4242367029672)">  <path clip-rule="evenodd" stroke-miterlimit="4" fill-rule="evenodd" stroke-opacity="1" stroke-linejoin="miter" stroke-width="1px" stroke-dasharray="none" fill-opacity="1" stroke="none" fill="#000000" stroke-linecap="butt" d="M76.273,110.936L79.595,110.936C80.283,110.936,80.857,110.713,81.304,110.285C81.743,109.852,81.967,109.297,81.967,108.621L81.967,63.021L102.573,74.645C103.561,74.645,104.288,74.179,104.728,73.267C105.123,72.356,104.996,71.501,104.358,70.736L77.835,42.81C77.338,42.332,76.738,42.09,76.05,42.09C75.355,42.09,74.762,42.332,74.271,42.81L47.741,70.736C47.097,71.501,46.976,72.356,47.365,73.267C47.812,74.179,48.538,74.645,49.52,74.645L70.133,63.021L70.133,108.621C70.133,109.297,70.356,109.852,70.803,110.285C71.243,110.713,71.816,110.936,72.505,110.936L75.827,110.936L76.273,110.936ZM76.273,110.936"/>
  <path stroke-miterlimit="4" stroke-width="1px" stroke-linejoin="miter" fill-opacity="1" clip-rule="evenodd" stroke="none" fill-rule="evenodd" stroke-opacity="1" stroke-dasharray="none" stroke-linecap="butt" fill="#000000" d="M35.289,31.88L117.728,31.88C119.615,31.88,121.139,33.41,121.139,35.291L121.139,117.73C121.139,119.617,119.615,121.141,117.728,121.141L35.289,121.141C33.401,121.141,31.877,119.617,31.877,117.73L31.877,35.291C31.877,33.41,33.401,31.88,35.289,31.88ZM31.877,133.892L121.139,133.892C128.178,133.892,133.89,128.18,133.89,121.141L133.89,31.88C133.89,24.841,128.178,19.128,121.139,19.128L31.877,19.128C24.832,19.128,19.126,24.841,19.126,31.88L19.126,121.141C19.126,128.18,24.832,133.892,31.877,133.892ZM31.877,133.892"/>
</g>
  <g id="Semibold-L" transform="matrix(1.0,0.0,0.0,1.0,1968.040446456755,1442.4242367029672)">  <path stroke-width="1px" fill="#000000" clip-rule="evenodd" stroke-miterlimit="4" stroke-dasharray="none" fill-opacity="1" stroke-linejoin="miter" fill-rule="evenodd" stroke-opacity="1" stroke="none" stroke-linecap="butt" d="M76.273,110.936L79.595,110.936C80.283,110.936,80.857,110.713,81.304,110.285C81.743,109.852,81.967,109.297,81.967,108.621L81.967,63.021L102.573,74.645C103.561,74.645,104.288,74.179,104.728,73.267C105.123,72.356,104.996,71.501,104.358,70.736L77.835,42.81C77.338,42.332,76.738,42.09,76.05,42.09C75.355,42.09,74.762,42.332,74.271,42.81L47.741,70.736C47.097,71.501,46.976,72.356,47.365,73.267C47.812,74.179,48.538,74.645,49.52,74.645L70.133,63.021L70.133,108.621C70.133,109.297,70.356,109.852,70.803,110.285C71.243,110.713,71.816,110.936,72.505,110.936L75.827,110.936L76.273,110.936ZM76.273,110.936"/>
  <path fill-opacity="1" clip-rule="evenodd" stroke-linejoin="miter" stroke-miterlimit="4" fill="#000000" stroke="none" stroke-width="1px" stroke-dasharray="none" stroke-opacity="1" stroke-linecap="butt" fill-rule="evenodd" d="M35.289,31.88L117.728,31.88C119.615,31.88,121.139,33.41,121.139,35.291L121.139,117.73C121.139,119.617,119.615,121.141,117.728,121.141L35.289,121.141C33.401,121.141,31.877,119.617,31.877,117.73L31.877,35.291C31.877,33.41,33.401,31.88,35.289,31.88ZM31.877,133.892L121.139,133.892C128.178,133.892,133.89,128.18,133.89,121.141L133.89,31.88C133.89,24.841,128.178,19.128,121.139,19.128L31.877,19.128C24.832,19.128,19.126,24.841,19.126,31.88L19.126,121.141C19.126,128.18,24.832,133.892,31.877,133.892ZM31.877,133.892"/>
</g>
  <g id="Medium-L" transform="matrix(1.0,0.0,0.0,1.0,1671.330446456755,1442.4242367029672)">  <path stroke-opacity="1" clip-rule="evenodd" stroke-width="1px" fill-rule="evenodd" stroke="none" stroke-linejoin="miter" fill="#000000" stroke-dasharray="none" stroke-linecap="butt" fill-opacity="1" stroke-miterlimit="4" d="M76.273,110.936L79.595,110.936C80.283,110.936,80.857,110.713,81.304,110.285C81.743,109.852,81.967,109.297,81.967,108.621L81.967,63.021L102.573,74.645C103.561,74.645,104.288,74.179,104.728,73.267C105.123,72.356,104.996,71.501,104.358,70.736L77.835,42.81C77.338,42.332,76.738,42.09,76.05,42.09C75.355,42.09,74.762,42.332,74.271,42.81L47.741,70.736C47.097,71.501,46.976,72.356,47.365,73.267C47.812,74.179,48.538,74.645,49.52,74.645L70.133,63.021L70.133,108.621C70.133,109.297,70.356,109.852,70.803,110.285C71.243,110.713,71.816,110.936,72.505,110.936L75.827,110.936L76.273,110.936ZM76.273,110.936"/>
  <path stroke-linecap="butt" stroke-linejoin="miter" fill-opacity="1" fill-rule="evenodd" stroke-miterlimit="4" stroke-dasharray="none" stroke-opacity="1" fill="#000000" stroke-width="1px" stroke="none" clip-rule="evenodd" d="M35.289,31.88L117.728,31.88C119.615,31.88,121.139,33.41,121.139,35.291L121.139,117.73C121.139,119.617,119.615,121.141,117.728,121.141L35.289,121.141C33.401,121.141,31.877,119.617,31.877,117.73L31.877,35.291C31.877,33.41,33.401,31.88,35.289,31.88ZM31.877,133.892L121.139,133.892C128.178,133.892,133.89,128.18,133.89,121.141L133.89,31.88C133.89,24.841,128.178,19.128,121.139,19.128L31.877,19.128C24.832,19.128,19.126,24.841,19.126,31.88L19.126,121.141C19.126,128.18,24.832,133.892,31.877,133.892ZM31.877,133.892"/>
</g>
  <g id="Regular-L" transform="matrix(1.0,0.0,0.0,1.0,1374.620446456755,1442.4242367029672)">  <path stroke-miterlimit="4" fill-opacity="1" stroke-width="1px" stroke-linejoin="miter" stroke-linecap="butt" clip-rule="evenodd" fill-rule="evenodd" stroke-dasharray="none" fill="#000000" stroke="none" stroke-opacity="1" d="M76.273,110.936L79.595,110.936C80.283,110.936,80.857,110.713,81.304,110.285C81.743,109.852,81.967,109.297,81.967,108.621L81.967,63.021L102.573,74.645C103.561,74.645,104.288,74.179,104.728,73.267C105.123,72.356,104.996,71.501,104.358,70.736L77.835,42.81C77.338,42.332,76.738,42.09,76.05,42.09C75.355,42.09,74.762,42.332,74.271,42.81L47.741,70.736C47.097,71.501,46.976,72.356,47.365,73.267C47.812,74.179,48.538,74.645,49.52,74.645L70.133,63.021L70.133,108.621C70.133,109.297,70.356,109.852,70.803,110.285C71.243,110.713,71.816,110.936,72.505,110.936L75.827,110.936L76.273,110.936ZM76.273,110.936"/>
  <path stroke-dasharray="none" stroke="none" fill="#000000" stroke-width="1px" stroke-linejoin="miter" fill-rule="evenodd" stroke-linecap="butt" fill-opacity="1" clip-rule="evenodd" stroke-miterlimit="4" stroke-opacity="1" d="M35.289,31.88L117.728,31.88C119.615,31.88,121.139,33.41,121.139,35.291L121.139,117.73C121.139,119.617,119.615,121.141,117.728,121.141L35.289,121.141C33.401,121.141,31.877,119.617,31.877,117.73L31.877,35.291C31.877,33.41,33.401,31.88,35.289,31.88ZM31.877,133.892L121.139,133.892C128.178,133.892,133.89,128.18,133.89,121.141L133.89,31.88C133.89,24.841,128.178,19.128,121.139,19.128L31.877,19.128C24.832,19.128,19.126,24.841,19.126,31.88L19.126,121.141C19.126,128.18,24.832,133.892,31.877,133.892ZM31.877,133.892"/>
</g>
  <g id="Light-L" transform="matrix(1.0,0.0,0.0,1.0,1077.9104464567552,1442.4242367029672)">  <path stroke-linecap="butt" stroke-miterlimit="4" fill-rule="evenodd" stroke-linejoin="miter" stroke-dasharray="none" stroke="none" stroke-width="1px" clip-rule="evenodd" fill-opacity="1" fill="#000000" stroke-opacity="1" d="M76.273,110.936L79.595,110.936C80.283,110.936,80.857,110.713,81.304,110.285C81.743,109.852,81.967,109.297,81.967,108.621L81.967,63.021L102.573,74.645C103.561,74.645,104.288,74.179,104.728,73.267C105.123,72.356,104.996,71.501,104.358,70.736L77.835,42.81C77.338,42.332,76.738,42.09,76.05,42.09C75.355,42.09,74.762,42.332,74.271,42.81L47.741,70.736C47.097,71.501,46.976,72.356,47.365,73.267C47.812,74.179,48.538,74.645,49.52,74.645L70.133,63.021L70.133,108.621C70.133,109.297,70.356,109.852,70.803,110.285C71.243,110.713,71.816,110.936,72.505,110.936L75.827,110.936L76.273,110.936ZM76.273,110.936"/>
  <path stroke-width="1px" clip-rule="evenodd" stroke-opacity="1" stroke="none" stroke-linejoin="miter" fill="#000000" fill-rule="evenodd" stroke-linecap="butt" fill-opacity="1" stroke-dasharray="none" stroke-miterlimit="4" d="M35.289,31.88L117.728,31.88C119.615,31.88,121.139,33.41,121.139,35.291L121.139,117.73C121.139,119.617,119.615,121.141,117.728,121.141L35.289,121.141C33.401,121.141,31.877,119.617,31.877,117.73L31.877,35.291C31.877,33.41,33.401,31.88,35.289,31.88ZM31.877,133.892L121.139,133.892C128.178,133.892,133.89,128.18,133.89,121.141L133.89,31.88C133.89,24.841,128.178,19.128,121.139,19.128L31.877,19.128C24.832,19.128,19.126,24.841,19.126,31.88L19.126,121.141C19.126,128.18,24.832,133.892,31.877,133.892ZM31.877,133.892"/>
</g>
  <g id="Thin-L" transform="matrix(1.0,0.0,0.0,1.0,781.2004464567551,1442.4242367029672)">  <path stroke-miterlimit="4" clip-rule="evenodd" stroke="none" stroke-linecap="butt" stroke-opacity="1" fill-rule="evenodd" fill="#000000" stroke-dasharray="none" stroke-width="1px" fill-opacity="1" stroke-linejoin="miter" d="M76.273,110.936L79.595,110.936C80.283,110.936,80.857,110.713,81.304,110.285C81.743,109.852,81.967,109.297,81.967,108.621L81.967,63.021L102.573,74.645C103.561,74.645,104.288,74.179,104.728,73.267C105.123,72.356,104.996,71.501,104.358,70.736L77.835,42.81C77.338,42.332,76.738,42.09,76.05,42.09C75.355,42.09,74.762,42.332,74.271,42.81L47.741,70.736C47.097,71.501,46.976,72.356,47.365,73.267C47.812,74.179,48.538,74.645,49.52,74.645L70.133,63.021L70.133,108.621C70.133,109.297,70.356,109.852,70.803,110.285C71.243,110.713,71.816,110.936,72.505,110.936L75.827,110.936L76.273,110.936ZM76.273,110.936"/>
  <path stroke-linejoin="miter" stroke="none" stroke-miterlimit="4" stroke-linecap="butt" fill="#000000" fill-rule="evenodd" stroke-dasharray="none" fill-opacity="1" clip-rule="evenodd" stroke-width="1px" stroke-opacity="1" d="M35.289,31.88L117.728,31.88C119.615,31.88,121.139,33.41,121.139,35.291L121.139,117.73C121.139,119.617,119.615,121.141,117.728,121.141L35.289,121.141C33.401,121.141,31.877,119.617,31.877,117.73L31.877,35.291C31.877,33.41,33.401,31.88,35.289,31.88ZM31.877,133.892L121.139,133.892C128.178,133.892,133.89,128.18,133.89,121.141L133.89,31.88C133.89,24.841,128.178,19.128,121.139,19.128L31.877,19.128C24.832,19.128,19.126,24.841,19.126,31.88L19.126,121.141C19.126,128.18,24.832,133.892,31.877,133.892ZM31.877,133.892"/>
</g>
  <g id="Ultralight-L" transform="matrix(1.0,0.0,0.0,1.0,484.4904464567551,1442.4242367029672)">  <path stroke-dasharray="none" stroke-linejoin="miter" fill-rule="evenodd" stroke-miterlimit="4" fill="#000000" fill-opacity="1" stroke="none" stroke-linecap="butt" clip-rule="evenodd" stroke-opacity="1" stroke-width="1px" d="M76.273,110.936L79.595,110.936C80.283,110.936,80.857,110.713,81.304,110.285C81.743,109.852,81.967,109.297,81.967,108.621L81.967,63.021L102.573,74.645C103.561,74.645,104.288,74.179,104.728,73.267C105.123,72.356,104.996,71.501,104.358,70.736L77.835,42.81C77.338,42.332,76.738,42.09,76.05,42.09C75.355,42.09,74.762,42.332,74.271,42.81L47.741,70.736C47.097,71.501,46.976,72.356,47.365,73.267C47.812,74.179,48.538,74.645,49.52,74.645L70.133,63.021L70.133,108.621C70.133,109.297,70.356,109.852,70.803,110.285C71.243,110.713,71.816,110.936,72.505,110.936L75.827,110.936L76.273,110.936ZM76.273,110.936"/>
  <path stroke-width="1px" stroke-miterlimit="4" stroke="none" clip-rule="evenodd" stroke-linecap="butt" fill="#000000" stroke-opacity="1" stroke-dasharray="none" fill-opacity="1" stroke-linejoin="miter" fill-rule="evenodd" d="M35.289,31.88L117.728,31.88C119.615,31.88,121.139,33.41,121.139,35.291L121.139,117.73C121.139,119.617,119.615,121.141,117.728,121.141L35.289,121.141C33.401,121.141,31.877,119.617,31.877,117.73L31.877,35.291C31.877,33.41,33.401,31.88,35.289,31.88ZM31.877,133.892L121.139,133.892C128.178,133.892,133.89,128.18,133.89,121.141L133.89,31.88C133.89,24.841,128.178,19.128,121.139,19.128L31.877,19.128C24.832,19.128,19.126,24.841,19.126,31.88L19.126,121.141C19.126,128.18,24.832,133.892,31.877,133.892ZM31.877,133.892"/>
</g>
  <g id="Black-M" transform="matrix(1.0,0.0,0.0,1.0,2875.370268571128,1030.036854548085)">  <path stroke-opacity="1" fill="#000000" stroke-linecap="butt" clip-rule="evenodd" stroke-miterlimit="4" stroke-linejoin="miter" stroke-dasharray="none" stroke="none" fill-rule="evenodd" fill-opacity="1" stroke-width="1px" d="M59.126,85.997L61.701,85.997C62.235,85.997,62.68,85.824,63.026,85.493C63.367,85.156,63.54,84.726,63.54,84.203L63.54,48.854L79.514,57.864C80.28,57.864,80.844,57.503,81.185,56.796C81.491,56.09,81.392,55.427,80.898,54.834L60.337,33.186C59.952,32.815,59.487,32.628,58.953,32.628C58.415,32.628,57.955,32.815,57.574,33.186L37.009,54.834C36.51,55.427,36.416,56.09,36.717,56.796C37.063,57.503,37.627,57.864,38.388,57.864L54.367,48.854L54.367,84.203C54.367,84.726,54.54,85.156,54.886,85.493C55.227,85.824,55.672,85.997,56.205,85.997L58.78,85.997L59.126,85.997ZM59.126,85.997"/>
  <path stroke-opacity="1" fill="#000000" stroke-linejoin="miter" fill-opacity="1" stroke-width="1px" fill-rule="evenodd" clip-rule="evenodd" stroke-linecap="butt" stroke-dasharray="none" stroke-miterlimit="4" stroke="none" d="M27.355,24.713L91.262,24.713C92.725,24.713,93.906,25.899,93.906,27.357L93.906,91.263C93.906,92.726,92.725,93.908,91.262,93.908L27.355,93.908C25.892,93.908,24.711,92.726,24.711,91.263L24.711,27.357C24.711,25.899,25.892,24.713,27.355,24.713ZM24.711,103.793L93.906,103.793C99.363,103.793,103.791,99.364,103.791,93.908L103.791,24.713C103.791,19.256,99.363,14.828,93.906,14.828L24.711,14.828C19.25,14.828,14.826,19.256,14.826,24.713L14.826,93.908C14.826,99.364,19.25,103.793,24.711,103.793ZM24.711,103.793"/>
</g>
  <g id="Heavy-M" transform="matrix(1.0,0.0,0.0,1.0,2578.6602685711277,1030.036854548085)">  <path stroke-miterlimit="4" stroke-linecap="butt" stroke-dasharray="none" stroke="none" stroke-linejoin="miter" fill-opacity="1" stroke-opacity="1" fill="#000000" stroke-width="1px" clip-rule="evenodd" fill-rule="evenodd" d="M59.126,85.997L61.701,85.997C62.235,85.997,62.68,85.824,63.026,85.493C63.367,85.156,63.54,84.726,63.54,84.203L63.54,48.854L79.514,57.864C80.28,57.864,80.844,57.503,81.185,56.796C81.491,56.09,81.392,55.427,80.898,54.834L60.337,33.186C59.952,32.815,59.487,32.628,58.953,32.628C58.415,32.628,57.955,32.815,57.574,33.186L37.009,54.834C36.51,55.427,36.416,56.09,36.717,56.796C37.063,57.503,37.627,57.864,38.388,57.864L54.367,48.854L54.367,84.203C54.367,84.726,54.54,85.156,54.886,85.493C55.227,85.824,55.672,85.997,56.205,85.997L58.78,85.997L59.126,85.997ZM59.126,85.997"/>
  <path stroke-linecap="butt" stroke-linejoin="miter" stroke-width="1px" stroke-opacity="1" stroke-miterlimit="4" stroke="none" clip-rule="evenodd" fill-rule="evenodd" fill="#000000" fill-opacity="1" stroke-dasharray="none" d="M27.355,24.713L91.262,24.713C92.725,24.713,93.906,25.899,93.906,27.357L93.906,91.263C93.906,92.726,92.725,93.908,91.262,93.908L27.355,93.908C25.892,93.908,24.711,92.726,24.711,91.263L24.711,27.357C24.711,25.899,25.892,24.713,27.355,24.713ZM24.711,103.793L93.906,103.793C99.363,103.793,103.791,99.364,103.791,93.908L103.791,24.713C103.791,19.256,99.363,14.828,93.906,14.828L24.711,14.828C19.25,14.828,14.826,19.256,14.826,24.713L14.826,93.908C14.826,99.364,19.25,103.793,24.711,103.793ZM24.711,103.793"/>
</g>
  <g id="Bold-M" transform="matrix(1.0,0.0,0.0,1.0,2281.9502685711277,1030.036854548085)">  <path clip-rule="evenodd" stroke-miterlimit="4" fill-rule="evenodd" stroke-opacity="1" stroke-linejoin="miter" stroke-width="1px" stroke-dasharray="none" fill-opacity="1" stroke="none" fill="#000000" stroke-linecap="butt" d="M59.126,85.997L61.701,85.997C62.235,85.997,62.68,85.824,63.026,85.493C63.367,85.156,63.54,84.726,63.54,84.203L63.54,48.854L79.514,57.864C80.28,57.864,80.844,57.503,81.185,56.796C81.491,56.09,81.392,55.427,80.898,54.834L60.337,33.186C59.952,32.815,59.487,32.628,58.953,32.628C58.415,32.628,57.955,32.815,57.574,33.186L37.009,54.834C36.51,55.427,36.416,56.09,36.717,56.796C37.063,57.503,37.627,57.864,38.388,57.864L54.367,48.854L54.367,84.203C54.367,84.726,54.54,85.156,54.886,85.493C55.227,85.824,55.672,85.997,56.205,85.997L58.78,85.997L59.126,85.997ZM59.126,85.997"/>
  <path stroke-miterlimit="4" stroke-width="1px" stroke-linejoin="miter" fill-opacity="1" clip-rule="evenodd" stroke="none" fill-rule="evenodd" stroke-opacity="1" stroke-dasharray="none" stroke-linecap="butt" fill="#000000" d="M27.355,24.713L91.262,24.713C92.725,24.713,93.906,25.899,93.906,27.357L93.906,91.263C93.906,92.726,92.725,93.908,91.262,93.908L27.355,93.908C25.892,93.908,24.711,92.726,24.711,91.263L24.711,27.357C24.711,25.899,25.892,24.713,27.355,24.713ZM24.711,103.793L93.906,103.793C99.363,103.793,103.791,99.364,103.791,93.908L103.791,24.713C103.791,19.256,99.363,14.828,93.906,14.828L24.711,14.828C19.25,14.828,14.826,19.256,14.826,24.713L14.826,93.908C14.826,99.364,19.25,103.793,24.711,103.793ZM24.711,103.793"/>
</g>
  <g id="Semibold-M" transform="matrix(1.0,0.0,0.0,1.0,1985.240268571128,1030.036854548085)">  <path stroke-width="1px" fill="#000000" clip-rule="evenodd" stroke-miterlimit="4" stroke-dasharray="none" fill-opacity="1" stroke-linejoin="miter" fill-rule="evenodd" stroke-opacity="1" stroke="none" stroke-linecap="butt" d="M59.126,85.997L61.701,85.997C62.235,85.997,62.68,85.824,63.026,85.493C63.367,85.156,63.54,84.726,63.54,84.203L63.54,48.854L79.514,57.864C80.28,57.864,80.844,57.503,81.185,56.796C81.491,56.09,81.392,55.427,80.898,54.834L60.337,33.186C59.952,32.815,59.487,32.628,58.953,32.628C58.415,32.628,57.955,32.815,57.574,33.186L37.009,54.834C36.51,55.427,36.416,56.09,36.717,56.796C37.063,57.503,37.627,57.864,38.388,57.864L54.367,48.854L54.367,84.203C54.367,84.726,54.54,85.156,54.886,85.493C55.227,85.824,55.672,85.997,56.205,85.997L58.78,85.997L59.126,85.997ZM59.126,85.997"/>
  <path fill-opacity="1" clip-rule="evenodd" stroke-linejoin="miter" stroke-miterlimit="4" fill="#000000" stroke="none" stroke-width="1px" stroke-dasharray="none" stroke-opacity="1" stroke-linecap="butt" fill-rule="evenodd" d="M27.355,24.713L91.262,24.713C92.725,24.713,93.906,25.899,93.906,27.357L93.906,91.263C93.906,92.726,92.725,93.908,91.262,93.908L27.355,93.908C25.892,93.908,24.711,92.726,24.711,91.263L24.711,27.357C24.711,25.899,25.892,24.713,27.355,24.713ZM24.711,103.793L93.906,103.793C99.363,103.793,103.791,99.364,103.791,93.908L103.791,24.713C103.791,19.256,99.363,14.828,93.906,14.828L24.711,14.828C19.25,14.828,14.826,19.256,14.826,24.713L14.826,93.908C14.826,99.364,19.25,103.793,24.711,103.793ZM24.711,103.793"/>
</g>
  <g id="Medium-M" transform="matrix(1.0,0.0,0.0,1.0,1688.5302685711279,1030.036854548085)">  <path stroke-opacity="1" clip-rule="evenodd" stroke-width="1px" fill-rule="evenodd" stroke="none" stroke-linejoin="miter" fill="#000000" stroke-dasharray="none" stroke-linecap="butt" fill-opacity="1" stroke-miterlimit="4" d="M59.126,85.997L61.701,85.997C62.235,85.997,62.68,85.824,63.026,85.493C63.367,85.156,63.54,84.726,63.54,84.203L63.54,48.854L79.514,57.864C80.28,57.864,80.844,57.503,81.185,56.796C81.491,56.09,81.392,55.427,80.898,54.834L60.337,33.186C59.952,32.815,59.487,32.628,58.953,32.628C58.415,32.628,57.955,32.815,57.574,33.186L37.009,54.834C36.51,55.427,36.416,56.09,36.717,56.796C37.063,57.503,37.627,57.864,38.388,57.864L54.367,48.854L54.367,84.203C54.367,84.726,54.54,85.156,54.886,85.493C55.227,85.824,55.672,85.997,56.205,85.997L58.78,85.997L59.126,85.997ZM59.126,85.997"/>
  <path stroke-linecap="butt" stroke-linejoin="miter" fill-opacity="1" fill-rule="evenodd" stroke-miterlimit="4" stroke-dasharray="none" stroke-opacity="1" fill="#000000" stroke-width="1px" stroke="none" clip-rule="evenodd" d="M27.355,24.713L91.262,24.713C92.725,24.713,93.906,25.899,93.906,27.357L93.906,91.263C93.906,92.726,92.725,93.908,91.262,93.908L27.355,93.908C25.892,93.908,24.711,92.726,24.711,91.263L24.711,27.357C24.711,25.899,25.892,24.713,27.355,24.713ZM24.711,103.793L93.906,103.793C99.363,103.793,103.791,99.364,103.791,93.908L103.791,24.713C103.791,19.256,99.363,14.828,93.906,14.828L24.711,14.828C19.25,14.828,14.826,19.256,14.826,24.713L14.826,93.908C14.826,99.364,19.25,103.793,24.711,103.793ZM24.711,103.793"/>
</g>
  <g id="Regular-M" transform="matrix(1.0,0.0,0.0,1.0,1391.8202685711278,1030.036854548085)">  <path stroke-miterlimit="4" fill-opacity="1" stroke-width="1px" stroke-linejoin="miter" stroke-linecap="butt" clip-rule="evenodd" fill-rule="evenodd" stroke-dasharray="none" fill="#000000" stroke="none" stroke-opacity="1" d="M59.126,85.997L61.701,85.997C62.235,85.997,62.68,85.824,63.026,85.493C63.367,85.156,63.54,84.726,63.54,84.203L63.54,48.854L79.514,57.864C80.28,57.864,80.844,57.503,81.185,56.796C81.491,56.09,81.392,55.427,80.898,54.834L60.337,33.186C59.952,32.815,59.487,32.628,58.953,32.628C58.415,32.628,57.955,32.815,57.574,33.186L37.009,54.834C36.51,55.427,36.416,56.09,36.717,56.796C37.063,57.503,37.627,57.864,38.388,57.864L54.367,48.854L54.367,84.203C54.367,84.726,54.54,85.156,54.886,85.493C55.227,85.824,55.672,85.997,56.205,85.997L58.78,85.997L59.126,85.997ZM59.126,85.997"/>
  <path stroke-dasharray="none" stroke="none" fill="#000000" stroke-width="1px" stroke-linejoin="miter" fill-rule="evenodd" stroke-linecap="butt" fill-opacity="1" clip-rule="evenodd" stroke-miterlimit="4" stroke-opacity="1" d="M27.355,24.713L91.262,24.713C92.725,24.713,93.906,25.899,93.906,27.357L93.906,91.263C93.906,92.726,92.725,93.908,91.262,93.908L27.355,93.908C25.892,93.908,24.711,92.726,24.711,91.263L24.711,27.357C24.711,25.899,25.892,24.713,27.355,24.713ZM24.711,103.793L93.906,103.793C99.363,103.793,103.791,99.364,103.791,93.908L103.791,24.713C103.791,19.256,99.363,14.828,93.906,14.828L24.711,14.828C19.25,14.828,14.826,19.256,14.826,24.713L14.826,93.908C14.826,99.364,19.25,103.793,24.711,103.793ZM24.711,103.793"/>
</g>
  <g id="Light-M" transform="matrix(1.0,0.0,0.0,1.0,1095.110268571128,1030.036854548085)">  <path stroke-linecap="butt" stroke-miterlimit="4" fill-rule="evenodd" stroke-linejoin="miter" stroke-dasharray="none" stroke="none" stroke-width="1px" clip-rule="evenodd" fill-opacity="1" fill="#000000" stroke-opacity="1" d="M59.126,85.997L61.701,85.997C62.235,85.997,62.68,85.824,63.026,85.493C63.367,85.156,63.54,84.726,63.54,84.203L63.54,48.854L79.514,57.864C80.28,57.864,80.844,57.503,81.185,56.796C81.491,56.09,81.392,55.427,80.898,54.834L60.337,33.186C59.952,32.815,59.487,32.628,58.953,32.628C58.415,32.628,57.955,32.815,57.574,33.186L37.009,54.834C36.51,55.427,36.416,56.09,36.717,56.796C37.063,57.503,37.627,57.864,38.388,57.864L54.367,48.854L54.367,84.203C54.367,84.726,54.54,85.156,54.886,85.493C55.227,85.824,55.672,85.997,56.205,85.997L58.78,85.997L59.126,85.997ZM59.126,85.997"/>
  <path stroke-width="1px" clip-rule="evenodd" stroke-opacity="1" stroke="none" stroke-linejoin="miter" fill="#000000" fill-rule="evenodd" stroke-linecap="butt" fill-opacity="1" stroke-dasharray="none" stroke-miterlimit="4" d="M27.355,24.713L91.262,24.713C92.725,24.713,93.906,25.899,93.906,27.357L93.906,91.263C93.906,92.726,92.725,93.908,91.262,93.908L27.355,93.908C25.892,93.908,24.711,92.726,24.711,91.263L24.711,27.357C24.711,25.899,25.892,24.713,27.355,24.713ZM24.711,103.793L93.906,103.793C99.363,103.793,103.791,99.364,103.791,93.908L103.791,24.713C103.791,19.256,99.363,14.828,93.906,14.828L24.711,14.828C19.25,14.828,14.826,19.256,14.826,24.713L14.826,93.908C14.826,99.364,19.25,103.793,24.711,103.793ZM24.711,103.793"/>
</g>
  <g id="Thin-M" transform="matrix(1.0,0.0,0.0,1.0,798.400268571128,1030.036854548085)">  <path stroke-miterlimit="4" clip-rule="evenodd" stroke="none" stroke-linecap="butt" stroke-opacity="1" fill-rule="evenodd" fill="#000000" stroke-dasharray="none" stroke-width="1px" fill-opacity="1" stroke-linejoin="miter" d="M59.126,85.997L61.701,85.997C62.235,85.997,62.68,85.824,63.026,85.493C63.367,85.156,63.54,84.726,63.54,84.203L63.54,48.854L79.514,57.864C80.28,57.864,80.844,57.503,81.185,56.796C81.491,56.09,81.392,55.427,80.898,54.834L60.337,33.186C59.952,32.815,59.487,32.628,58.953,32.628C58.415,32.628,57.955,32.815,57.574,33.186L37.009,54.834C36.51,55.427,36.416,56.09,36.717,56.796C37.063,57.503,37.627,57.864,38.388,57.864L54.367,48.854L54.367,84.203C54.367,84.726,54.54,85.156,54.886,85.493C55.227,85.824,55.672,85.997,56.205,85.997L58.78,85.997L59.126,85.997ZM59.126,85.997"/>
  <path stroke-linejoin="miter" stroke="none" stroke-miterlimit="4" stroke-linecap="butt" fill="#000000" fill-rule="evenodd" stroke-dasharray="none" fill-opacity="1" clip-rule="evenodd" stroke-width="1px" stroke-opacity="1" d="M27.355,24.713L91.262,24.713C92.725,24.713,93.906,25.899,93.906,27.357L93.906,91.263C93.906,92.726,92.725,93.908,91.262,93.908L27.355,93.908C25.892,93.908,24.711,92.726,24.711,91.263L24.711,27.357C24.711,25.899,25.892,24.713,27.355,24.713ZM24.711,103.793L93.906,103.793C99.363,103.793,103.791,99.364,103.791,93.908L103.791,24.713C103.791,19.256,99.363,14.828,93.906,14.828L24.711,14.828C19.25,14.828,14.826,19.256,14.826,24.713L14.826,93.908C14.826,99.364,19.25,103.793,24.711,103.793ZM24.711,103.793"/>
</g>
  <g id="Ultralight-M" transform="matrix(1.0,0.0,0.0,1.0,501.69026857112794,1030.036854548085)">  <path stroke-dasharray="none" stroke-linejoin="miter" fill-rule="evenodd" stroke-miterlimit="4" fill="#000000" fill-opacity="1" stroke="none" stroke-linecap="butt" clip-rule="evenodd" stroke-opacity="1" stroke-width="1px" d="M59.126,85.997L61.701,85.997C62.235,85.997,62.68,85.824,63.026,85.493C63.367,85.156,63.54,84.726,63.54,84.203L63.54,48.854L79.514,57.864C80.28,57.864,80.844,57.503,81.185,56.796C81.491,56.09,81.392,55.427,80.898,54.834L60.337,33.186C59.952,32.815,59.487,32.628,58.953,32.628C58.415,32.628,57.955,32.815,57.574,33.186L37.009,54.834C36.51,55.427,36.416,56.09,36.717,56.796C37.063,57.503,37.627,57.864,38.388,57.864L54.367,48.854L54.367,84.203C54.367,84.726,54.54,85.156,54.886,85.493C55.227,85.824,55.672,85.997,56.205,85.997L58.78,85.997L59.126,85.997ZM59.126,85.997"/>
  <path stroke-width="1px" stroke-miterlimit="4" stroke="none" clip-rule="evenodd" stroke-linecap="butt" fill="#000000" stroke-opacity="1" stroke-dasharray="none" fill-opacity="1" stroke-linejoin="miter" fill-rule="evenodd" d="M27.355,24.713L91.262,24.713C92.725,24.713,93.906,25.899,93.906,27.357L93.906,91.263C93.906,92.726,92.725,93.908,91.262,93.908L27.355,93.908C25.892,93.908,24.711,92.726,24.711,91.263L24.711,27.357C24.711,25.899,25.892,24.713,27.355,24.713ZM24.711,103.793L93.906,103.793C99.363,103.793,103.791,99.364,103.791,93.908L103.791,24.713C103.791,19.256,99.363,14.828,93.906,14.828L24.711,14.828C19.25,14.828,14.826,19.256,14.826,24.713L14.826,93.908C14.826,99.364,19.25,103.793,24.711,103.793ZM24.711,103.793"/>
</g>
  <g id="Black-S" transform="matrix(1.0,0.0,0.0,1.0,2888.240480291193,613.2159513494319)">  <path stroke-opacity="1" fill="#000000" stroke-linecap="butt" clip-rule="evenodd" stroke-miterlimit="4" stroke-linejoin="miter" stroke-dasharray="none" stroke="none" fill-rule="evenodd" fill-opacity="1" stroke-width="1px" d="M46.296,67.335L48.312,67.335C48.73,67.335,49.078,67.2,49.349,66.941C49.616,66.677,49.752,66.341,49.752,65.931L49.752,38.253L62.26,45.308C62.859,45.308,63.301,45.025,63.568,44.472C63.808,43.918,63.73,43.4,63.343,42.935L47.244,25.985C46.942,25.694,46.578,25.547,46.16,25.547C45.739,25.547,45.379,25.694,45.081,25.985L28.978,42.935C28.587,43.4,28.514,43.918,28.75,44.472C29.02,45.025,29.462,45.308,30.058,45.308L42.569,38.253L42.569,65.931C42.569,66.341,42.705,66.677,42.976,66.941C43.243,67.2,43.591,67.335,44.009,67.335L46.025,67.335L46.296,67.335ZM46.296,67.335"/>
  <path stroke-opacity="1" fill="#000000" stroke-linejoin="miter" fill-opacity="1" stroke-width="1px" fill-rule="evenodd" clip-rule="evenodd" stroke-linecap="butt" stroke-dasharray="none" stroke-miterlimit="4" stroke="none" d="M21.419,19.35L71.458,19.35C72.604,19.35,73.528,20.279,73.528,21.421L73.528,71.459C73.528,72.605,72.604,73.53,71.458,73.53L21.419,73.53C20.274,73.53,19.349,72.605,19.349,71.459L19.349,21.421C19.349,20.279,20.274,19.35,21.419,19.35ZM19.349,81.27L73.528,81.27C77.801,81.27,81.268,77.802,81.268,73.53L81.268,19.35C81.268,15.078,77.801,11.61,73.528,11.61L19.349,11.61C15.073,11.61,11.609,15.078,11.609,19.35L11.609,73.53C11.609,77.802,15.073,81.27,19.349,81.27ZM19.349,81.27"/>
</g>
  <g id="Heavy-S" transform="matrix(1.0,0.0,0.0,1.0,2591.530480291193,613.2159513494319)">  <path stroke-miterlimit="4" stroke-linecap="butt" stroke-dasharray="none" stroke="none" stroke-linejoin="miter" fill-opacity="1" stroke-opacity="1" fill="#000000" stroke-width="1px" clip-rule="evenodd" fill-rule="evenodd" d="M46.296,67.335L48.312,67.335C48.73,67.335,49.078,67.2,49.349,66.941C49.616,66.677,49.752,66.341,49.752,65.931L49.752,38.253L62.26,45.308C62.859,45.308,63.301,45.025,63.568,44.472C63.808,43.918,63.73,43.4,63.343,42.935L47.244,25.985C46.942,25.694,46.578,25.547,46.16,25.547C45.739,25.547,45.379,25.694,45.081,25.985L28.978,42.935C28.587,43.4,28.514,43.918,28.75,44.472C29.02,45.025,29.462,45.308,30.058,45.308L42.569,38.253L42.569,65.931C42.569,66.341,42.705,66.677,42.976,66.941C43.243,67.2,43.591,67.335,44.009,67.335L46.025,67.335L46.296,67.335ZM46.296,67.335"/>
  <path stroke-linecap="butt" stroke-linejoin="miter" stroke-width="1px" stroke-opacity="1" stroke-miterlimit="4" stroke="none" clip-rule="evenodd" fill-rule="evenodd" fill="#000000" fill-opacity="1" stroke-dasharray="none" d="M21.419,19.35L71.458,19.35C72.604,19.35,73.528,20.279,73.528,21.421L73.528,71.459C73.528,72.605,72.604,73.53,71.458,73.53L21.419,73.53C20.274,73.53,19.349,72.605,19.349,71.459L19.349,21.421C19.349,20.279,20.274,19.35,21.419,19.35ZM19.349,81.27L73.528,81.27C77.801,81.27,81.268,77.802,81.268,73.53L81.268,19.35C81.268,15.078,77.801,11.61,73.528,11.61L19.349,11.61C15.073,11.61,11.609,15.078,11.609,19.35L11.609,73.53C11.609,77.802,15.073,81.27,19.349,81.27ZM19.349,81.27"/>
</g>
  <g id="Bold-S" transform="matrix(1.0,0.0,0.0,1.0,2294.820480291193,613.2159513494319)">  <path clip-rule="evenodd" stroke-miterlimit="4" fill-rule="evenodd" stroke-opacity="1" stroke-linejoin="miter" stroke-width="1px" stroke-dasharray="none" fill-opacity="1" stroke="none" fill="#000000" stroke-linecap="butt" d="M46.296,67.335L48.312,67.335C48.73,67.335,49.078,67.2,49.349,66.941C49.616,66.677,49.752,66.341,49.752,65.931L49.752,38.253L62.26,45.308C62.859,45.308,63.301,45.025,63.568,44.472C63.808,43.918,63.73,43.4,63.343,42.935L47.244,25.985C46.942,25.694,46.578,25.547,46.16,25.547C45.739,25.547,45.379,25.694,45.081,25.985L28.978,42.935C28.587,43.4,28.514,43.918,28.75,44.472C29.02,45.025,29.462,45.308,30.058,45.308L42.569,38.253L42.569,65.931C42.569,66.341,42.705,66.677,42.976,66.941C43.243,67.2,43.591,67.335,44.009,67.335L46.025,67.335L46.296,67.335ZM46.296,67.335"/>
  <path stroke-miterlimit="4" stroke-width="1px" stroke-linejoin="miter" fill-opacity="1" clip-rule="evenodd" stroke="none" fill-rule="evenodd" stroke-opacity="1" stroke-dasharray="none" stroke-linecap="butt" fill="#000000" d="M21.419,19.35L71.458,19.35C72.604,19.35,73.528,20.279,73.528,21.421L73.528,71.459C73.528,72.605,72.604,73.53,71.458,73.53L21.419,73.53C20.274,73.53,19.349,72.605,19.349,71.459L19.349,21.421C19.349,20.279,20.274,19.35,21.419,19.35ZM19.349,81.27L73.528,81.27C77.801,81.27,81.268,77.802,81.268,73.53L81.268,19.35C81.268,15.078,77.801,11.61,73.528,11.61L19.349,11.61C15.073,11.61,11.609,15.078,11.609,19.35L11.609,73.53C11.609,77.802,15.073,81.27,19.349,81.27ZM19.349,81.27"/>
</g>
  <g id="Semibold-S" transform="matrix(1.0,0.0,0.0,1.0,1998.1104802911932,613.2159513494319)">  <path stroke-width="1px" fill="#000000" clip-rule="evenodd" stroke-miterlimit="4" stroke-dasharray="none" fill-opacity="1" stroke-linejoin="miter" fill-rule="evenodd" stroke-opacity="1" stroke="none" stroke-linecap="butt" d="M46.296,67.335L48.312,67.335C48.73,67.335,49.078,67.2,49.349,66.941C49.616,66.677,49.752,66.341,49.752,65.931L49.752,38.253L62.26,45.308C62.859,45.308,63.301,45.025,63.568,44.472C63.808,43.918,63.73,43.4,63.343,42.935L47.244,25.985C46.942,25.694,46.578,25.547,46.16,25.547C45.739,25.547,45.379,25.694,45.081,25.985L28.978,42.935C28.587,43.4,28.514,43.918,28.75,44.472C29.02,45.025,29.462,45.308,30.058,45.308L42.569,38.253L42.569,65.931C42.569,66.341,42.705,66.677,42.976,66.941C43.243,67.2,43.591,67.335,44.009,67.335L46.025,67.335L46.296,67.335ZM46.296,67.335"/>
  <path fill-opacity="1" clip-rule="evenodd" stroke-linejoin="miter" stroke-miterlimit="4" fill="#000000" stroke="none" stroke-width="1px" stroke-dasharray="none" stroke-opacity="1" stroke-linecap="butt" fill-rule="evenodd" d="M21.419,19.35L71.458,19.35C72.604,19.35,73.528,20.279,73.528,21.421L73.528,71.459C73.528,72.605,72.604,73.53,71.458,73.53L21.419,73.53C20.274,73.53,19.349,72.605,19.349,71.459L19.349,21.421C19.349,20.279,20.274,19.35,21.419,19.35ZM19.349,81.27L73.528,81.27C77.801,81.27,81.268,77.802,81.268,73.53L81.268,19.35C81.268,15.078,77.801,11.61,73.528,11.61L19.349,11.61C15.073,11.61,11.609,15.078,11.609,19.35L11.609,73.53C11.609,77.802,15.073,81.27,19.349,81.27ZM19.349,81.27"/>
</g>
  <g id="Medium-S" transform="matrix(1.0,0.0,0.0,1.0,1701.4004802911932,613.2159513494319)">  <path stroke-opacity="1" clip-rule="evenodd" stroke-width="1px" fill-rule="evenodd" stroke="none" stroke-linejoin="miter" fill="#000000" stroke-dasharray="none" stroke-linecap="butt" fill-opacity="1" stroke-miterlimit="4" d="M46.296,67.335L48.312,67.335C48.73,67.335,49.078,67.2,49.349,66.941C49.616,66.677,49.752,66.341,49.752,65.931L49.752,38.253L62.26,45.308C62.859,45.308,63.301,45.025,63.568,44.472C63.808,43.918,63.73,43.4,63.343,42.935L47.244,25.985C46.942,25.694,46.578,25.547,46.16,25.547C45.739,25.547,45.379,25.694,45.081,25.985L28.978,42.935C28.587,43.4,28.514,43.918,28.75,44.472C29.02,45.025,29.462,45.308,30.058,45.308L42.569,38.253L42.569,65.931C42.569,66.341,42.705,66.677,42.976,66.941C43.243,67.2,43.591,67.335,44.009,67.335L46.025,67.335L46.296,67.335ZM46.296,67.335"/>
  <path stroke-linecap="butt" stroke-linejoin="miter" fill-opacity="1" fill-rule="evenodd" stroke-miterlimit="4" stroke-dasharray="none" stroke-opacity="1" fill="#000000" stroke-width="1px" stroke="none" clip-rule="evenodd" d="M21.419,19.35L71.458,19.35C72.604,19.35,73.528,20.279,73.528,21.421L73.528,71.459C73.528,72.605,72.604,73.53,71.458,73.53L21.419,73.53C20.274,73.53,19.349,72.605,19.349,71.459L19.349,21.421C19.349,20.279,20.274,19.35,21.419,19.35ZM19.349,81.27L73.528,81.27C77.801,81.27,81.268,77.802,81.268,73.53L81.268,19.35C81.268,15.078,77.801,11.61,73.528,11.61L19.349,11.61C15.073,11.61,11.609,15.078,11.609,19.35L11.609,73.53C11.609,77.802,15.073,81.27,19.349,81.27ZM19.349,81.27"/>
</g>
  <g id="Regular-S" transform="matrix(1.0,0.0,0.0,1.0,1404.6904802911931,613.2159513494319)">  <path stroke-miterlimit="4" fill-opacity="1" stroke-width="1px" stroke-linejoin="miter" stroke-linecap="butt" clip-rule="evenodd" fill-rule="evenodd" stroke-dasharray="none" fill="#000000" stroke="none" stroke-opacity="1" d="M46.296,67.335L48.312,67.335C48.73,67.335,49.078,67.2,49.349,66.941C49.616,66.677,49.752,66.341,49.752,65.931L49.752,38.253L62.26,45.308C62.859,45.308,63.301,45.025,63.568,44.472C63.808,43.918,63.73,43.4,63.343,42.935L47.244,25.985C46.942,25.694,46.578,25.547,46.16,25.547C45.739,25.547,45.379,25.694,45.081,25.985L28.978,42.935C28.587,43.4,28.514,43.918,28.75,44.472C29.02,45.025,29.462,45.308,30.058,45.308L42.569,38.253L42.569,65.931C42.569,66.341,42.705,66.677,42.976,66.941C43.243,67.2,43.591,67.335,44.009,67.335L46.025,67.335L46.296,67.335ZM46.296,67.335"/>
  <path stroke-dasharray="none" stroke="none" fill="#000000" stroke-width="1px" stroke-linejoin="miter" fill-rule="evenodd" stroke-linecap="butt" fill-opacity="1" clip-rule="evenodd" stroke-miterlimit="4" stroke-opacity="1" d="M21.419,19.35L71.458,19.35C72.604,19.35,73.528,20.279,73.528,21.421L73.528,71.459C73.528,72.605,72.604,73.53,71.458,73.53L21.419,73.53C20.274,73.53,19.349,72.605,19.349,71.459L19.349,21.421C19.349,20.279,20.274,19.35,21.419,19.35ZM19.349,81.27L73.528,81.27C77.801,81.27,81.268,77.802,81.268,73.53L81.268,19.35C81.268,15.078,77.801,11.61,73.528,11.61L19.349,11.61C15.073,11.61,11.609,15.078,11.609,19.35L11.609,73.53C11.609,77.802,15.073,81.27,19.349,81.27ZM19.349,81.27"/>
</g>
  <g id="Light-S" transform="matrix(1.0,0.0,0.0,1.0,1107.9804802911933,613.2159513494319)">  <path stroke-linecap="butt" stroke-miterlimit="4" fill-rule="evenodd" stroke-linejoin="miter" stroke-dasharray="none" stroke="none" stroke-width="1px" clip-rule="evenodd" fill-opacity="1" fill="#000000" stroke-opacity="1" d="M46.296,67.335L48.312,67.335C48.73,67.335,49.078,67.2,49.349,66.941C49.616,66.677,49.752,66.341,49.752,65.931L49.752,38.253L62.26,45.308C62.859,45.308,63.301,45.025,63.568,44.472C63.808,43.918,63.73,43.4,63.343,42.935L47.244,25.985C46.942,25.694,46.578,25.547,46.16,25.547C45.739,25.547,45.379,25.694,45.081,25.985L28.978,42.935C28.587,43.4,28.514,43.918,28.75,44.472C29.02,45.025,29.462,45.308,30.058,45.308L42.569,38.253L42.569,65.931C42.569,66.341,42.705,66.677,42.976,66.941C43.243,67.2,43.591,67.335,44.009,67.335L46.025,67.335L46.296,67.335ZM46.296,67.335"/>
  <path stroke-width="1px" clip-rule="evenodd" stroke-opacity="1" stroke="none" stroke-linejoin="miter" fill="#000000" fill-rule="evenodd" stroke-linecap="butt" fill-opacity="1" stroke-dasharray="none" stroke-miterlimit="4" d="M21.419,19.35L71.458,19.35C72.604,19.35,73.528,20.279,73.528,21.421L73.528,71.459C73.528,72.605,72.604,73.53,71.458,73.53L21.419,73.53C20.274,73.53,19.349,72.605,19.349,71.459L19.349,21.421C19.349,20.279,20.274,19.35,21.419,19.35ZM19.349,81.27L73.528,81.27C77.801,81.27,81.268,77.802,81.268,73.53L81.268,19.35C81.268,15.078,77.801,11.61,73.528,11.61L19.349,11.61C15.073,11.61,11.609,15.078,11.609,19.35L11.609,73.53C11.609,77.802,15.073,81.27,19.349,81.27ZM19.349,81.27"/>
</g>
  <g id="Thin-S" transform="matrix(1.0,0.0,0.0,1.0,811.2704802911932,613.2159513494319)">  <path stroke-miterlimit="4" clip-rule="evenodd" stroke="none" stroke-linecap="butt" stroke-opacity="1" fill-rule="evenodd" fill="#000000" stroke-dasharray="none" stroke-width="1px" fill-opacity="1" stroke-linejoin="miter" d="M46.296,67.335L48.312,67.335C48.73,67.335,49.078,67.2,49.349,66.941C49.616,66.677,49.752,66.341,49.752,65.931L49.752,38.253L62.26,45.308C62.859,45.308,63.301,45.025,63.568,44.472C63.808,43.918,63.73,43.4,63.343,42.935L47.244,25.985C46.942,25.694,46.578,25.547,46.16,25.547C45.739,25.547,45.379,25.694,45.081,25.985L28.978,42.935C28.587,43.4,28.514,43.918,28.75,44.472C29.02,45.025,29.462,45.308,30.058,45.308L42.569,38.253L42.569,65.931C42.569,66.341,42.705,66.677,42.976,66.941C43.243,67.2,43.591,67.335,44.009,67.335L46.025,67.335L46.296,67.335ZM46.296,67.335"/>
  <path stroke-linejoin="miter" stroke="none" stroke-miterlimit="4" stroke-linecap="butt" fill="#000000" fill-rule="evenodd" stroke-dasharray="none" fill-opacity="1" clip-rule="evenodd" stroke-width="1px" stroke-opacity="1" d="M21.419,19.35L71.458,19.35C72.604,19.35,73.528,20.279,73.528,21.421L73.528,71.459C73.528,72.605,72.604,73.53,71.458,73.53L21.419,73.53C20.274,73.53,19.349,72.605,19.349,71.459L19.349,21.421C19.349,20.279,20.274,19.35,21.419,19.35ZM19.349,81.27L73.528,81.27C77.801,81.27,81.268,77.802,81.268,73.53L81.268,19.35C81.268,15.078,77.801,11.61,73.528,11.61L19.349,11.61C15.073,11.61,11.609,15.078,11.609,19.35L11.609,73.53C11.609,77.802,15.073,81.27,19.349,81.27ZM19.349,81.27"/>
</g>
  <g id="Ultralight-S" transform="matrix(1.0,0.0,0.0,1.0,514.5604802911931,613.2159513494319)">  <path stroke-dasharray="none" stroke-linejoin="miter" fill-rule="evenodd" stroke-miterlimit="4" fill="#000000" fill-opacity="1" stroke="none" stroke-linecap="butt" clip-rule="evenodd" stroke-opacity="1" stroke-width="1px" d="M46.296,67.335L48.312,67.335C48.73,67.335,49.078,67.2,49.349,66.941C49.616,66.677,49.752,66.341,49.752,65.931L49.752,38.253L62.26,45.308C62.859,45.308,63.301,45.025,63.568,44.472C63.808,43.918,63.73,43.4,63.343,42.935L47.244,25.985C46.942,25.694,46.578,25.547,46.16,25.547C45.739,25.547,45.379,25.694,45.081,25.985L28.978,42.935C28.587,43.4,28.514,43.918,28.75,44.472C29.02,45.025,29.462,45.308,30.058,45.308L42.569,38.253L42.569,65.931C42.569,66.341,42.705,66.677,42.976,66.941C43.243,67.2,43.591,67.335,44.009,67.335L46.025,67.335L46.296,67.335ZM46.296,67.335"/>
  <path stroke-width="1px" stroke-miterlimit="4" stroke="none" clip-rule="evenodd" stroke-linecap="butt" fill="#000000" stroke-opacity="1" stroke-dasharray="none" fill-opacity="1" stroke-linejoin="miter" fill-rule="evenodd" d="M21.419,19.35L71.458,19.35C72.604,19.35,73.528,20.279,73.528,21.421L73.528,71.459C73.528,72.605,72.604,73.53,71.458,73.53L21.419,73.53C20.274,73.53,19.349,72.605,19.349,71.459L19.349,21.421C19.349,20.279,20.274,19.35,21.419,19.35ZM19.349,81.27L73.528,81.27C77.801,81.27,81.268,77.802,81.268,73.53L81.268,19.35C81.268,15.078,77.801,11.61,73.528,11.61L19.349,11.61C15.073,11.61,11.609,15.078,11.609,19.35L11.609,73.53C11.609,77.802,15.073,81.27,19.349,81.27ZM19.349,81.27"/>
</g>
 </g>
</svg>
