<?xml version="1.0" encoding="UTF-8"?>
<!-- Generator: CustomSymbols v2.6.1.40 by @serious_bret https://bretlester.com/app_content/CustomSymbols/ -->
<!-- Guides: Left/Right 0.084/0.086 Cap/Base 0.21/0.198 -->
<!-- Settings: RefScale 1.0 Min/Max Stroke Scales 0.5/2.21 -->
<!DOCTYPE svg
PUBLIC "-//W3C//DTD SVG 1.1//EN"
       "http://www.w3.org/Graphics/SVG/1.1/DTD/svg11.dtd">
<svg version="1.1" xmlns="http://www.w3.org/2000/svg" xmlns:xlink="http://www.w3.org/1999/xlink" width="3300" height="2200">
<![CDATA[<svg width="24" height="24" viewBox="0 0 24 24" fill="none" xmlns="http://www.w3.org/2000/svg">
<path fill-rule="evenodd" clip-rule="evenodd" d="M20.2148 6H16.0118V4.125C16.0118 3.812 15.9068 3.547 15.6988 3.328C15.4908 3.109 15.2378 3 14.9408 3H9.07076C8.77376 3 8.52076 3.109 8.31276 3.328C8.10376 3.547 7.99976 3.812 7.99976 4.125V6H3.78576C3.29476 6 2.87376 6.184 2.52476 6.551C2.17476 6.918 1.99976 7.359 1.99976 7.875V11.973H21.9998V7.875C21.9998 7.359 21.8248 6.918 21.4758 6.551C21.1258 6.184 20.7048 6 20.2148 6ZM9.99976 6H13.9998V5.003H9.99976V6ZM10.9918 14.938H12.9788V13.012H10.9918V14.938ZM15.0038 15.247V15.375V13.015H21.9998V19.125C21.9998 19.641 21.8248 20.082 21.4758 20.449C21.1258 20.816 20.7048 21 20.2148 21H3.78576C3.29476 21 2.87376 20.816 2.52476 20.449C2.17476 20.082 1.99976 19.641 1.99976 19.125V13.015H9.00676V15.247C9.00676 15.45 9.07776 15.626 9.21876 15.774C9.36076 15.923 9.52776 15.997 9.72076 15.997H14.2898C14.4838 15.997 14.6508 15.923 14.7918 15.774C14.9338 15.626 15.0038 15.45 15.0038 15.247Z" fill="black"/>
</svg>
]]>
 <g id="Notes">
  <rect height="2200" id="artboard" style="fill:white;opacity:1" width="3300" x="0" y="0"/>
  <line id="" style="fill:none;stroke:black;opacity:1;stroke-width:0.5;" x1="263" x2="3036" y1="292" y2="292"/>
  <text id="reftext1" style="stroke:none;fill:black;font-family:-apple-system,&quot;SF Pro Display&quot;,&quot;SF Pro Text&quot;,Helvetica,sans-serif;font-weight:bold;" transform="matrix(1 0 0 1 263 322)">Weight/Scale Variations</text>
  <text id="reftext2" style="stroke:none;fill:black;font-family:-apple-system,&quot;SF Pro Display&quot;,&quot;SF Pro Text&quot;,Helvetica,sans-serif;text-anchor:middle;" transform="matrix(1 0 0 1 559.711 322)">Ultralight</text>
  <text style="stroke:none;fill:black;font-family:-apple-system,&quot;SF Pro Display&quot;,&quot;SF Pro Text&quot;,Helvetica,sans-serif;text-anchor:middle;" transform="matrix(1 0 0 1 856.422 322)">Thin</text>
  <text style="stroke:none;fill:black;font-family:-apple-system,&quot;SF Pro Display&quot;,&quot;SF Pro Text&quot;,Helvetica,sans-serif;text-anchor:middle;" transform="matrix(1 0 0 1 1153.13 322)">Light</text>
  <text style="stroke:none;fill:black;font-family:-apple-system,&quot;SF Pro Display&quot;,&quot;SF Pro Text&quot;,Helvetica,sans-serif;text-anchor:middle;" transform="matrix(1 0 0 1 1449.84 322)">Regular</text>
  <text style="stroke:none;fill:black;font-family:-apple-system,&quot;SF Pro Display&quot;,&quot;SF Pro Text&quot;,Helvetica,sans-serif;text-anchor:middle;" transform="matrix(1 0 0 1 1746.56 322)">Medium</text>
  <text style="stroke:none;fill:black;font-family:-apple-system,&quot;SF Pro Display&quot;,&quot;SF Pro Text&quot;,Helvetica,sans-serif;text-anchor:middle;" transform="matrix(1 0 0 1 2043.27 322)">Semibold</text>
  <text style="stroke:none;fill:black;font-family:-apple-system,&quot;SF Pro Display&quot;,&quot;SF Pro Text&quot;,Helvetica,sans-serif;text-anchor:middle;" transform="matrix(1 0 0 1 2339.98 322)">Bold</text>
  <text style="stroke:none;fill:black;font-family:-apple-system,&quot;SF Pro Display&quot;,&quot;SF Pro Text&quot;,Helvetica,sans-serif;text-anchor:middle;" transform="matrix(1 0 0 1 2636.69 322)">Heavy</text>
  <text style="stroke:none;fill:black;font-family:-apple-system,&quot;SF Pro Display&quot;,&quot;SF Pro Text&quot;,Helvetica,sans-serif;text-anchor:middle;" transform="matrix(1 0 0 1 2933.4 322)">Black</text>
  <line id="" style="fill:none;stroke:black;opacity:1;stroke-width:0.5;" x1="263" x2="3036" y1="1903" y2="1903"/>
  <g id="" transform="matrix(1 0 0 1 263 1933)">
   <path d="M9.24805 0.830078C13.5547 0.830078 17.1387-2.74414 17.1387-7.05078C17.1387-11.3574 13.5449-14.9316 9.23828-14.9316C4.94141-14.9316 1.36719-11.3574 1.36719-7.05078C1.36719-2.74414 4.95117 0.830078 9.24805 0.830078ZM9.24805-0.654297C5.70312-0.654297 2.87109-3.49609 2.87109-7.05078C2.87109-10.6055 5.69336-13.4473 9.23828-13.4473C12.793-13.4473 15.6348-10.6055 15.6445-7.05078C15.6543-3.49609 12.8027-0.654297 9.24805-0.654297ZM6.39648-6.31836L8.50586-6.31836L8.50586-4.19922C8.50586-3.75977 8.79883-3.45703 9.22852-3.45703C9.67773-3.45703 9.9707-3.75977 9.9707-4.19922L9.9707-6.31836L12.0996-6.31836C12.5391-6.31836 12.8418-6.61133 12.8418-7.04102C12.8418-7.48047 12.5391-7.7832 12.0996-7.7832L9.9707-7.7832L9.9707-9.89258C9.9707-10.3418 9.67773-10.6445 9.22852-10.6445C8.79883-10.6445 8.50586-10.3418 8.50586-9.89258L8.50586-7.7832L6.39648-7.7832C5.94727-7.7832 5.64453-7.48047 5.64453-7.04102C5.64453-6.61133 5.94727-6.31836 6.39648-6.31836Z"/>
  </g>
  <g id="" transform="matrix(1 0 0 1 281.506 1933)">
   <path d="M11.709 2.91016C17.1582 2.91016 21.6699-1.61133 21.6699-7.05078C21.6699-12.5 17.1484-17.0117 11.6992-17.0117C6.25977-17.0117 1.74805-12.5 1.74805-7.05078C1.74805-1.61133 6.26953 2.91016 11.709 2.91016ZM11.709 1.25C7.09961 1.25 3.41797-2.44141 3.41797-7.05078C3.41797-11.6602 7.08984-15.3516 11.6992-15.3516C16.3086-15.3516 20-11.6602 20.0098-7.05078C20.0195-2.44141 16.3184 1.25 11.709 1.25ZM7.98828-6.23047L10.8789-6.23047L10.8789-3.32031C10.8789-2.83203 11.2109-2.5 11.6895-2.5C12.1777-2.5 12.5195-2.83203 12.5195-3.32031L12.5195-6.23047L15.4297-6.23047C15.918-6.23047 16.25-6.5625 16.25-7.04102C16.25-7.5293 15.918-7.87109 15.4297-7.87109L12.5195-7.87109L12.5195-10.7617C12.5195-11.2695 12.1777-11.6016 11.6895-11.6016C11.2109-11.6016 10.8789-11.2598 10.8789-10.7617L10.8789-7.87109L7.98828-7.87109C7.48047-7.87109 7.14844-7.5293 7.14844-7.04102C7.14844-6.5625 7.49023-6.23047 7.98828-6.23047Z"/>
  </g>
  <g id="" transform="matrix(1 0 0 1 304.924 1933)">
   <path d="M14.9707 5.66406C21.9336 5.66406 27.6953-0.0976562 27.6953-7.05078C27.6953-14.0137 21.9238-19.7754 14.9609-19.7754C8.00781-19.7754 2.25586-14.0137 2.25586-7.05078C2.25586-0.0976562 8.01758 5.66406 14.9707 5.66406ZM14.9707 3.84766C8.93555 3.84766 4.08203-1.01562 4.08203-7.05078C4.08203-13.0957 8.92578-17.9492 14.9609-17.9492C21.0059-17.9492 25.8594-13.0957 25.8691-7.05078C25.8789-1.01562 21.0156 3.84766 14.9707 3.84766ZM10.0586-6.14258L14.0625-6.14258L14.0625-2.12891C14.0625-1.5918 14.4336-1.2207 14.9512-1.2207C15.4883-1.2207 15.8594-1.5918 15.8594-2.12891L15.8594-6.14258L19.8828-6.14258C20.4102-6.14258 20.791-6.51367 20.791-7.03125C20.791-7.56836 20.4199-7.94922 19.8828-7.94922L15.8594-7.94922L15.8594-11.9531C15.8594-12.5098 15.4883-12.8809 14.9512-12.8809C14.4336-12.8809 14.0625-12.5 14.0625-11.9531L14.0625-7.94922L10.0586-7.94922C9.50195-7.94922 9.13086-7.56836 9.13086-7.03125C9.13086-6.51367 9.51172-6.14258 10.0586-6.14258Z"/>
  </g>
  <text style="stroke:none;fill:black;font-family:-apple-system,&quot;SF Pro Display&quot;,&quot;SF Pro Text&quot;,Helvetica,sans-serif;font-weight:bold;" transform="matrix(1 0 0 1 263 1953)">Design Variations</text>
  <text style="stroke:none;fill:black;font-family:-apple-system,&quot;SF Pro Display&quot;,&quot;SF Pro Text&quot;,Helvetica,sans-serif;" transform="matrix(1 0 0 1 263 1971)">Symbols are supported in up to nine weights and three scales.</text>
  <text style="stroke:none;fill:black;font-family:-apple-system,&quot;SF Pro Display&quot;,&quot;SF Pro Text&quot;,Helvetica,sans-serif;" transform="matrix(1 0 0 1 263 1989)">For optimal layout with text and other symbols, vertically align</text>
  <text style="stroke:none;fill:black;font-family:-apple-system,&quot;SF Pro Display&quot;,&quot;SF Pro Text&quot;,Helvetica,sans-serif;" transform="matrix(1 0 0 1 263 2007)">symbols with the adjacent text.</text>
  <line id="" style="fill:none;stroke:#00AEEF;stroke-width:0.5;opacity:1.0;" x1="776" x2="776" y1="1919" y2="1933"/>
  <g id="" transform="matrix(1 0 0 1 776 1933)">
   <path d="M3.31055 0.126953C3.82812 0.126953 4.08203-0.0683594 4.26758-0.605469L5.52734-4.0625L11.2891-4.0625L12.5488-0.605469C12.7344-0.0683594 12.9883 0.126953 13.4961 0.126953C14.0137 0.126953 14.3457-0.185547 14.3457-0.673828C14.3457-0.839844 14.3164-0.986328 14.2383-1.20117L9.6582-13.3887C9.43359-13.9941 9.0332-14.2871 8.4082-14.2871C7.80273-14.2871 7.39258-13.9941 7.17773-13.3984L2.59766-1.19141C2.51953-0.976562 2.49023-0.830078 2.49023-0.664062C2.49023-0.175781 2.80273 0.126953 3.31055 0.126953ZM6.00586-5.53711L8.37891-12.1094L8.42773-12.1094L10.8008-5.53711Z"/>
  </g>
  <line id="" style="fill:none;stroke:#00AEEF;stroke-width:0.5;opacity:1.0;" x1="792.836" x2="792.836" y1="1919" y2="1933"/>
  <text style="stroke:none;fill:black;font-family:-apple-system,&quot;SF Pro Display&quot;,&quot;SF Pro Text&quot;,Helvetica,sans-serif;font-weight:bold;" transform="matrix(1 0 0 1 776 1953)">Margins</text>
  <text style="stroke:none;fill:black;font-family:-apple-system,&quot;SF Pro Display&quot;,&quot;SF Pro Text&quot;,Helvetica,sans-serif;" transform="matrix(1 0 0 1 776 1971)">Leading and trailing margins on the left and right side of each symbol</text>
  <text style="stroke:none;fill:black;font-family:-apple-system,&quot;SF Pro Display&quot;,&quot;SF Pro Text&quot;,Helvetica,sans-serif;" transform="matrix(1 0 0 1 776 1989)">can be adjusted by modifying the x-location of the margin guidelines.</text>
  <text style="stroke:none;fill:black;font-family:-apple-system,&quot;SF Pro Display&quot;,&quot;SF Pro Text&quot;,Helvetica,sans-serif;" transform="matrix(1 0 0 1 776 2007)">Modifications are automatically applied proportionally to all</text>
  <text style="stroke:none;fill:black;font-family:-apple-system,&quot;SF Pro Display&quot;,&quot;SF Pro Text&quot;,Helvetica,sans-serif;" transform="matrix(1 0 0 1 776 2025)">scales and weights.</text>
  <g id="" transform="matrix(1 0 0 1 1289 1933)">
   <path d="M2.8418 1.86523L4.54102 3.57422C5.40039 4.44336 6.38672 4.38477 7.31445 3.35938L17.4902-7.85156C17.7539-7.76367 18.0273-7.7832 18.3398-7.8418L19.4043-8.03711L20.0684-7.36328L20.0293-6.80664C19.9902-6.30859 20.1172-5.92773 20.6055-5.44922L21.3672-4.70703C21.8457-4.22852 22.4609-4.19922 22.9297-4.66797L25.8398-7.58789C26.3086-8.05664 26.2891-8.65234 25.8105-9.13086L25.0391-9.89258C24.5605-10.3711 24.1895-10.5273 23.7109-10.4883L23.1348-10.4395L22.4902-11.0742L22.7344-12.1973C22.8613-12.7637 22.7051-13.2031 22.1191-13.7891L19.9219-15.9766C16.582-19.2969 12.1484-19.2188 9.25781-16.3281C8.83789-15.918 8.80859-15.3418 9.04297-14.9512C9.27734-14.5898 9.73633-14.3555 10.3809-14.5215C11.8457-14.8633 13.3691-14.9219 14.7949-13.9844L14.209-12.5293C14.0137-12.0508 13.9844-11.6504 14.1113-11.2891L3.04688-0.898438C2.06055 0.0195312 1.98242 0.996094 2.8418 1.86523ZM10.752-15.957C13.1836-17.7344 16.4746-17.4316 18.7012-15.2051L21.1328-12.793C21.3672-12.5586 21.4062-12.373 21.3379-12.0312L21.0156-10.5469L22.5195-9.0625L23.5059-9.12109C23.7598-9.13086 23.8379-9.11133 24.0332-8.91602L24.6094-8.33984L22.168-5.89844L21.5918-6.47461C21.3965-6.66992 21.3672-6.74805 21.377-7.01172L21.4453-7.98828L19.9512-9.47266L18.4277-9.21875C18.1055-9.15039 17.959-9.17969 17.7148-9.41406L15.7129-11.416C15.459-11.6504 15.4297-11.8164 15.5859-12.1875L16.4648-14.2773C14.9023-15.7324 12.8711-16.3574 10.8398-15.7617C10.6836-15.7227 10.625-15.8496 10.752-15.957ZM5.27344 2.30469L4.10156 1.14258C3.63281 0.683594 3.74023 0.341797 4.14062-0.0195312L14.9512-10.1953L16.416-8.71094L6.42578 2.27539C6.07422 2.67578 5.74219 2.77344 5.27344 2.30469Z"/>
  </g>
  <text style="stroke:none;fill:black;font-family:-apple-system,&quot;SF Pro Display&quot;,&quot;SF Pro Text&quot;,Helvetica,sans-serif;font-weight:bold;" transform="matrix(1 0 0 1 1289 1953)">Exporting</text>
  <text style="stroke:none;fill:black;font-family:-apple-system,&quot;SF Pro Display&quot;,&quot;SF Pro Text&quot;,Helvetica,sans-serif;" transform="matrix(1 0 0 1 1289 1971)">Symbols should be outlined when exporting to ensure the</text>
  <text style="stroke:none;fill:black;font-family:-apple-system,&quot;SF Pro Display&quot;,&quot;SF Pro Text&quot;,Helvetica,sans-serif;" transform="matrix(1 0 0 1 1289 1989)">design is preserved when submitting to Xcode.</text>
  <text id="template-version" style="stroke:none;fill:black;font-family:-apple-system,&quot;SF Pro Display&quot;,&quot;SF Pro Text&quot;,Helvetica,sans-serif;text-anchor:end;" transform="matrix(1 0 0 1 3036 1933)">Template v.2.0</text>
  <text style="stroke:none;fill:black;font-family:-apple-system,&quot;SF Pro Display&quot;,&quot;SF Pro Text&quot;,Helvetica,sans-serif;text-anchor:end;" transform="matrix(1 0 0 1 3036 1951)">Requires Xcode 12 or greater</text>
  <text style="stroke:none;fill:black;font-family:-apple-system,&quot;SF Pro Display&quot;,&quot;SF Pro Text&quot;,Helvetica,sans-serif;" transform="matrix(1 0 0 1 263 726)">Small</text>
  <text style="stroke:none;fill:black;font-family:-apple-system,&quot;SF Pro Display&quot;,&quot;SF Pro Text&quot;,Helvetica,sans-serif;" transform="matrix(1 0 0 1 263 1156)">Medium</text>
  <text style="stroke:none;fill:black;font-family:-apple-system,&quot;SF Pro Display&quot;,&quot;SF Pro Text&quot;,Helvetica,sans-serif;" transform="matrix(1 0 0 1 263 1586)">Large</text>
 </g>
 <g id="Guides">
  <g id="H-reference" style="fill:#27AAE1;stroke:none;" transform="matrix(1 0 0 1 339 696)">
   <path d="M0.976562 0L3.66211 0L12.9883-24.4629L45.752-24.4629L55.127 0L57.7637 0L30.6152-70.459L28.125-70.459ZM29.3457-67.1387L29.4434-67.1387L44.873-26.709L13.8672-26.709Z"/>
  </g>
  <line id="Baseline-S" style="fill:none;stroke:#27AAE1;opacity:1;stroke-width:0.5;" x1="263" x2="3036" y1="696" y2="696"/>
  <line id="Capline-S" style="fill:none;stroke:#27AAE1;opacity:1;stroke-width:0.5;" x1="263" x2="3036" y1="625.541" y2="625.541"/>
  <g id="H-reference" style="fill:#27AAE1;stroke:none;" transform="matrix(1 0 0 1 339 1126)">
   <path d="M0.976562 0L3.66211 0L12.9883-24.4629L45.752-24.4629L55.127 0L57.7637 0L30.6152-70.459L28.125-70.459ZM29.3457-67.1387L29.4434-67.1387L44.873-26.709L13.8672-26.709Z"/>
  </g>
  <line id="Baseline-M" style="fill:none;stroke:#27AAE1;opacity:1;stroke-width:0.5;" x1="263" x2="3036" y1="1126" y2="1126"/>
  <line id="Capline-M" style="fill:none;stroke:#27AAE1;opacity:1;stroke-width:0.5;" x1="263" x2="3036" y1="1055.54" y2="1055.54"/>
  <g id="H-reference" style="fill:#27AAE1;stroke:none;" transform="matrix(1 0 0 1 339 1556)">
   <path d="M0.976562 0L3.66211 0L12.9883-24.4629L45.752-24.4629L55.127 0L57.7637 0L30.6152-70.459L28.125-70.459ZM29.3457-67.1387L29.4434-67.1387L44.873-26.709L13.8672-26.709Z"/>
  </g>
  <line id="Baseline-L" style="fill:none;stroke:#27AAE1;opacity:1;stroke-width:0.5;" x1="263" x2="3036" y1="1556" y2="1556"/>
  <line id="Capline-L" style="fill:none;stroke:#27AAE1;opacity:1;stroke-width:0.5;" x1="263" x2="3036" y1="1485.54" y2="1485.54"/>
  <line id="left-margin" x1="1401.6175950168918" x2="1401.6175950168918" y1="1030.79" y2="1150.12" style="fill:none;stroke:#00AEEF;stroke-width:0.5;opacity:1.0;"/>
  <line id="right-margin" x1="1500.4043645745353" x2="1500.4043645745353" y1="1030.79" y2="1150.12" style="fill:none;stroke:#00AEEF;stroke-width:0.5;opacity:1.0;"/>
 </g>
 <g id="Symbols">
  <g id="Black-L" transform="matrix(1.0,0.0,0.0,1.0,2857.911968235325,1443.080771385399)">  <path fill-rule="evenodd" stroke-width="1px" stroke-linejoin="miter" stroke-miterlimit="4" fill="#000000" stroke-dasharray="none" fill-opacity="1" stroke-linecap="butt" clip-rule="evenodd" stroke="none" stroke-opacity="1" d="M129.321,38.384L102.433,38.384L102.433,26.389C102.433,24.387,101.761,22.691,100.43,21.29C99.1,19.889,97.481,19.192,95.581,19.192L58.029,19.192C56.129,19.192,54.51,19.889,53.18,21.29C51.842,22.691,51.177,24.387,51.177,26.389L51.177,38.384L24.219,38.384C21.078,38.384,18.384,39.561,16.152,41.909C13.913,44.257,12.793,47.078,12.793,50.379L12.793,76.595L140.74,76.595L140.74,50.379C140.74,47.078,139.621,44.257,137.388,41.909C135.149,39.561,132.456,38.384,129.321,38.384ZM63.972,38.384L89.561,38.384L89.561,32.006L63.972,32.006L63.972,38.384ZM70.318,95.563L83.03,95.563L83.03,83.242L70.318,83.242L70.318,95.563ZM95.984,97.54L95.984,98.359L95.984,83.261L140.74,83.261L140.74,122.349C140.74,125.65,139.621,128.471,137.388,130.819C135.149,133.167,132.456,134.344,129.321,134.344L24.219,134.344C21.078,134.344,18.384,133.167,16.152,130.819C13.913,128.471,12.793,125.65,12.793,122.349L12.793,83.261L57.619,83.261L57.619,97.54C57.619,98.839,58.073,99.965,58.976,100.912C59.884,101.865,60.952,102.338,62.187,102.338L91.417,102.338C92.658,102.338,93.726,101.865,94.628,100.912C95.537,99.965,95.984,98.839,95.984,97.54ZM95.984,97.54"/>
</g>
  <g id="Heavy-L" transform="matrix(1.0,0.0,0.0,1.0,2561.201968235325,1443.080771385399)">  <path stroke-linejoin="miter" stroke-opacity="1" stroke-width="1px" stroke-linecap="butt" clip-rule="evenodd" fill-rule="evenodd" fill="#000000" fill-opacity="1" stroke-miterlimit="4" stroke-dasharray="none" stroke="none" d="M129.321,38.384L102.433,38.384L102.433,26.389C102.433,24.387,101.761,22.691,100.43,21.29C99.1,19.889,97.481,19.192,95.581,19.192L58.029,19.192C56.129,19.192,54.51,19.889,53.18,21.29C51.842,22.691,51.177,24.387,51.177,26.389L51.177,38.384L24.219,38.384C21.078,38.384,18.384,39.561,16.152,41.909C13.913,44.257,12.793,47.078,12.793,50.379L12.793,76.595L140.74,76.595L140.74,50.379C140.74,47.078,139.621,44.257,137.388,41.909C135.149,39.561,132.456,38.384,129.321,38.384ZM63.972,38.384L89.561,38.384L89.561,32.006L63.972,32.006L63.972,38.384ZM70.318,95.563L83.03,95.563L83.03,83.242L70.318,83.242L70.318,95.563ZM95.984,97.54L95.984,98.359L95.984,83.261L140.74,83.261L140.74,122.349C140.74,125.65,139.621,128.471,137.388,130.819C135.149,133.167,132.456,134.344,129.321,134.344L24.219,134.344C21.078,134.344,18.384,133.167,16.152,130.819C13.913,128.471,12.793,125.65,12.793,122.349L12.793,83.261L57.619,83.261L57.619,97.54C57.619,98.839,58.073,99.965,58.976,100.912C59.884,101.865,60.952,102.338,62.187,102.338L91.417,102.338C92.658,102.338,93.726,101.865,94.628,100.912C95.537,99.965,95.984,98.839,95.984,97.54ZM95.984,97.54"/>
</g>
  <g id="Bold-L" transform="matrix(1.0,0.0,0.0,1.0,2264.4919682353247,1443.080771385399)">  <path fill-rule="evenodd" stroke-miterlimit="4" fill="#000000" clip-rule="evenodd" stroke-dasharray="none" stroke-opacity="1" stroke-width="1px" stroke-linejoin="miter" stroke="none" stroke-linecap="butt" fill-opacity="1" d="M129.321,38.384L102.433,38.384L102.433,26.389C102.433,24.387,101.761,22.691,100.43,21.29C99.1,19.889,97.481,19.192,95.581,19.192L58.029,19.192C56.129,19.192,54.51,19.889,53.18,21.29C51.842,22.691,51.177,24.387,51.177,26.389L51.177,38.384L24.219,38.384C21.078,38.384,18.384,39.561,16.152,41.909C13.913,44.257,12.793,47.078,12.793,50.379L12.793,76.595L140.74,76.595L140.74,50.379C140.74,47.078,139.621,44.257,137.388,41.909C135.149,39.561,132.456,38.384,129.321,38.384ZM63.972,38.384L89.561,38.384L89.561,32.006L63.972,32.006L63.972,38.384ZM70.318,95.563L83.03,95.563L83.03,83.242L70.318,83.242L70.318,95.563ZM95.984,97.54L95.984,98.359L95.984,83.261L140.74,83.261L140.74,122.349C140.74,125.65,139.621,128.471,137.388,130.819C135.149,133.167,132.456,134.344,129.321,134.344L24.219,134.344C21.078,134.344,18.384,133.167,16.152,130.819C13.913,128.471,12.793,125.65,12.793,122.349L12.793,83.261L57.619,83.261L57.619,97.54C57.619,98.839,58.073,99.965,58.976,100.912C59.884,101.865,60.952,102.338,62.187,102.338L91.417,102.338C92.658,102.338,93.726,101.865,94.628,100.912C95.537,99.965,95.984,98.839,95.984,97.54ZM95.984,97.54"/>
</g>
  <g id="Semibold-L" transform="matrix(1.0,0.0,0.0,1.0,1967.7819682353252,1443.080771385399)">  <path stroke-dasharray="none" stroke="none" stroke-linejoin="miter" stroke-linecap="butt" fill-rule="evenodd" fill-opacity="1" fill="#000000" clip-rule="evenodd" stroke-width="1px" stroke-opacity="1" stroke-miterlimit="4" d="M129.321,38.384L102.433,38.384L102.433,26.389C102.433,24.387,101.761,22.691,100.43,21.29C99.1,19.889,97.481,19.192,95.581,19.192L58.029,19.192C56.129,19.192,54.51,19.889,53.18,21.29C51.842,22.691,51.177,24.387,51.177,26.389L51.177,38.384L24.219,38.384C21.078,38.384,18.384,39.561,16.152,41.909C13.913,44.257,12.793,47.078,12.793,50.379L12.793,76.595L140.74,76.595L140.74,50.379C140.74,47.078,139.621,44.257,137.388,41.909C135.149,39.561,132.456,38.384,129.321,38.384ZM63.972,38.384L89.561,38.384L89.561,32.006L63.972,32.006L63.972,38.384ZM70.318,95.563L83.03,95.563L83.03,83.242L70.318,83.242L70.318,95.563ZM95.984,97.54L95.984,98.359L95.984,83.261L140.74,83.261L140.74,122.349C140.74,125.65,139.621,128.471,137.388,130.819C135.149,133.167,132.456,134.344,129.321,134.344L24.219,134.344C21.078,134.344,18.384,133.167,16.152,130.819C13.913,128.471,12.793,125.65,12.793,122.349L12.793,83.261L57.619,83.261L57.619,97.54C57.619,98.839,58.073,99.965,58.976,100.912C59.884,101.865,60.952,102.338,62.187,102.338L91.417,102.338C92.658,102.338,93.726,101.865,94.628,100.912C95.537,99.965,95.984,98.839,95.984,97.54ZM95.984,97.54"/>
</g>
  <g id="Medium-L" transform="matrix(1.0,0.0,0.0,1.0,1671.0719682353251,1443.080771385399)">  <path fill-rule="evenodd" clip-rule="evenodd" fill="#000000" stroke-linejoin="miter" stroke-width="1px" stroke-linecap="butt" stroke="none" stroke-dasharray="none" fill-opacity="1" stroke-opacity="1" stroke-miterlimit="4" d="M129.321,38.384L102.433,38.384L102.433,26.389C102.433,24.387,101.761,22.691,100.43,21.29C99.1,19.889,97.481,19.192,95.581,19.192L58.029,19.192C56.129,19.192,54.51,19.889,53.18,21.29C51.842,22.691,51.177,24.387,51.177,26.389L51.177,38.384L24.219,38.384C21.078,38.384,18.384,39.561,16.152,41.909C13.913,44.257,12.793,47.078,12.793,50.379L12.793,76.595L140.74,76.595L140.74,50.379C140.74,47.078,139.621,44.257,137.388,41.909C135.149,39.561,132.456,38.384,129.321,38.384ZM63.972,38.384L89.561,38.384L89.561,32.006L63.972,32.006L63.972,38.384ZM70.318,95.563L83.03,95.563L83.03,83.242L70.318,83.242L70.318,95.563ZM95.984,97.54L95.984,98.359L95.984,83.261L140.74,83.261L140.74,122.349C140.74,125.65,139.621,128.471,137.388,130.819C135.149,133.167,132.456,134.344,129.321,134.344L24.219,134.344C21.078,134.344,18.384,133.167,16.152,130.819C13.913,128.471,12.793,125.65,12.793,122.349L12.793,83.261L57.619,83.261L57.619,97.54C57.619,98.839,58.073,99.965,58.976,100.912C59.884,101.865,60.952,102.338,62.187,102.338L91.417,102.338C92.658,102.338,93.726,101.865,94.628,100.912C95.537,99.965,95.984,98.839,95.984,97.54ZM95.984,97.54"/>
</g>
  <g id="Regular-L" transform="matrix(1.0,0.0,0.0,1.0,1374.361968235325,1443.080771385399)">  <path fill-opacity="1" stroke-dasharray="none" stroke-linejoin="miter" fill="#000000" stroke="none" fill-rule="evenodd" stroke-width="1px" clip-rule="evenodd" stroke-miterlimit="4" stroke-opacity="1" stroke-linecap="butt" d="M129.321,38.384L102.433,38.384L102.433,26.389C102.433,24.387,101.761,22.691,100.43,21.29C99.1,19.889,97.481,19.192,95.581,19.192L58.029,19.192C56.129,19.192,54.51,19.889,53.18,21.29C51.842,22.691,51.177,24.387,51.177,26.389L51.177,38.384L24.219,38.384C21.078,38.384,18.384,39.561,16.152,41.909C13.913,44.257,12.793,47.078,12.793,50.379L12.793,76.595L140.74,76.595L140.74,50.379C140.74,47.078,139.621,44.257,137.388,41.909C135.149,39.561,132.456,38.384,129.321,38.384ZM63.972,38.384L89.561,38.384L89.561,32.006L63.972,32.006L63.972,38.384ZM70.318,95.563L83.03,95.563L83.03,83.242L70.318,83.242L70.318,95.563ZM95.984,97.54L95.984,98.359L95.984,83.261L140.74,83.261L140.74,122.349C140.74,125.65,139.621,128.471,137.388,130.819C135.149,133.167,132.456,134.344,129.321,134.344L24.219,134.344C21.078,134.344,18.384,133.167,16.152,130.819C13.913,128.471,12.793,125.65,12.793,122.349L12.793,83.261L57.619,83.261L57.619,97.54C57.619,98.839,58.073,99.965,58.976,100.912C59.884,101.865,60.952,102.338,62.187,102.338L91.417,102.338C92.658,102.338,93.726,101.865,94.628,100.912C95.537,99.965,95.984,98.839,95.984,97.54ZM95.984,97.54"/>
</g>
  <g id="Light-L" transform="matrix(1.0,0.0,0.0,1.0,1077.6519682353253,1443.080771385399)">  <path stroke-miterlimit="4" fill="#000000" clip-rule="evenodd" stroke="none" stroke-opacity="1" stroke-linecap="butt" fill-opacity="1" stroke-width="1px" fill-rule="evenodd" stroke-dasharray="none" stroke-linejoin="miter" d="M129.321,38.384L102.433,38.384L102.433,26.389C102.433,24.387,101.761,22.691,100.43,21.29C99.1,19.889,97.481,19.192,95.581,19.192L58.029,19.192C56.129,19.192,54.51,19.889,53.18,21.29C51.842,22.691,51.177,24.387,51.177,26.389L51.177,38.384L24.219,38.384C21.078,38.384,18.384,39.561,16.152,41.909C13.913,44.257,12.793,47.078,12.793,50.379L12.793,76.595L140.74,76.595L140.74,50.379C140.74,47.078,139.621,44.257,137.388,41.909C135.149,39.561,132.456,38.384,129.321,38.384ZM63.972,38.384L89.561,38.384L89.561,32.006L63.972,32.006L63.972,38.384ZM70.318,95.563L83.03,95.563L83.03,83.242L70.318,83.242L70.318,95.563ZM95.984,97.54L95.984,98.359L95.984,83.261L140.74,83.261L140.74,122.349C140.74,125.65,139.621,128.471,137.388,130.819C135.149,133.167,132.456,134.344,129.321,134.344L24.219,134.344C21.078,134.344,18.384,133.167,16.152,130.819C13.913,128.471,12.793,125.65,12.793,122.349L12.793,83.261L57.619,83.261L57.619,97.54C57.619,98.839,58.073,99.965,58.976,100.912C59.884,101.865,60.952,102.338,62.187,102.338L91.417,102.338C92.658,102.338,93.726,101.865,94.628,100.912C95.537,99.965,95.984,98.839,95.984,97.54ZM95.984,97.54"/>
</g>
  <g id="Thin-L" transform="matrix(1.0,0.0,0.0,1.0,780.9419682353252,1443.080771385399)">  <path fill="#000000" stroke-linecap="butt" stroke-linejoin="miter" stroke="none" fill-rule="evenodd" stroke-width="1px" clip-rule="evenodd" fill-opacity="1" stroke-opacity="1" stroke-dasharray="none" stroke-miterlimit="4" d="M129.321,38.384L102.433,38.384L102.433,26.389C102.433,24.387,101.761,22.691,100.43,21.29C99.1,19.889,97.481,19.192,95.581,19.192L58.029,19.192C56.129,19.192,54.51,19.889,53.18,21.29C51.842,22.691,51.177,24.387,51.177,26.389L51.177,38.384L24.219,38.384C21.078,38.384,18.384,39.561,16.152,41.909C13.913,44.257,12.793,47.078,12.793,50.379L12.793,76.595L140.74,76.595L140.74,50.379C140.74,47.078,139.621,44.257,137.388,41.909C135.149,39.561,132.456,38.384,129.321,38.384ZM63.972,38.384L89.561,38.384L89.561,32.006L63.972,32.006L63.972,38.384ZM70.318,95.563L83.03,95.563L83.03,83.242L70.318,83.242L70.318,95.563ZM95.984,97.54L95.984,98.359L95.984,83.261L140.74,83.261L140.74,122.349C140.74,125.65,139.621,128.471,137.388,130.819C135.149,133.167,132.456,134.344,129.321,134.344L24.219,134.344C21.078,134.344,18.384,133.167,16.152,130.819C13.913,128.471,12.793,125.65,12.793,122.349L12.793,83.261L57.619,83.261L57.619,97.54C57.619,98.839,58.073,99.965,58.976,100.912C59.884,101.865,60.952,102.338,62.187,102.338L91.417,102.338C92.658,102.338,93.726,101.865,94.628,100.912C95.537,99.965,95.984,98.839,95.984,97.54ZM95.984,97.54"/>
</g>
  <g id="Ultralight-L" transform="matrix(1.0,0.0,0.0,1.0,484.23196823532516,1443.080771385399)">  <path stroke="none" stroke-width="1px" fill-rule="evenodd" clip-rule="evenodd" stroke-opacity="1" fill="#000000" stroke-linecap="butt" stroke-dasharray="none" stroke-miterlimit="4" stroke-linejoin="miter" fill-opacity="1" d="M129.321,38.384L102.433,38.384L102.433,26.389C102.433,24.387,101.761,22.691,100.43,21.29C99.1,19.889,97.481,19.192,95.581,19.192L58.029,19.192C56.129,19.192,54.51,19.889,53.18,21.29C51.842,22.691,51.177,24.387,51.177,26.389L51.177,38.384L24.219,38.384C21.078,38.384,18.384,39.561,16.152,41.909C13.913,44.257,12.793,47.078,12.793,50.379L12.793,76.595L140.74,76.595L140.74,50.379C140.74,47.078,139.621,44.257,137.388,41.909C135.149,39.561,132.456,38.384,129.321,38.384ZM63.972,38.384L89.561,38.384L89.561,32.006L63.972,32.006L63.972,38.384ZM70.318,95.563L83.03,95.563L83.03,83.242L70.318,83.242L70.318,95.563ZM95.984,97.54L95.984,98.359L95.984,83.261L140.74,83.261L140.74,122.349C140.74,125.65,139.621,128.471,137.388,130.819C135.149,133.167,132.456,134.344,129.321,134.344L24.219,134.344C21.078,134.344,18.384,133.167,16.152,130.819C13.913,128.471,12.793,125.65,12.793,122.349L12.793,83.261L57.619,83.261L57.619,97.54C57.619,98.839,58.073,99.965,58.976,100.912C59.884,101.865,60.952,102.338,62.187,102.338L91.417,102.338C92.658,102.338,93.726,101.865,94.628,100.912C95.537,99.965,95.984,98.839,95.984,97.54ZM95.984,97.54"/>
</g>
  <g id="Black-M" transform="matrix(1.0,0.0,0.0,1.0,2875.169897856841,1030.5457961623733)">  <path fill-rule="evenodd" stroke-width="1px" stroke-linejoin="miter" stroke-miterlimit="4" fill="#000000" stroke-dasharray="none" fill-opacity="1" stroke-linecap="butt" clip-rule="evenodd" stroke="none" stroke-opacity="1" d="M100.249,29.755L79.405,29.755L79.405,20.457C79.405,18.904,78.885,17.59,77.853,16.504C76.822,15.418,75.567,14.878,74.094,14.878L44.983,14.878C43.511,14.878,42.256,15.418,41.224,16.504C40.188,17.59,39.672,18.904,39.672,20.457L39.672,29.755L18.774,29.755C16.339,29.755,14.251,30.668,12.521,32.488C10.785,34.308,9.917,36.495,9.917,39.054L9.917,59.376L109.101,59.376L109.101,39.054C109.101,36.495,108.233,34.308,106.502,32.488C104.767,30.668,102.679,29.755,100.249,29.755ZM49.591,29.755L69.427,29.755L69.427,24.811L49.591,24.811L49.591,29.755ZM54.51,74.08L64.364,74.08L64.364,64.529L54.51,64.529L54.51,74.08ZM74.406,75.613L74.406,76.247L74.406,64.544L109.101,64.544L109.101,94.844C109.101,97.403,108.233,99.59,106.502,101.41C104.767,103.23,102.679,104.143,100.249,104.143L18.774,104.143C16.339,104.143,14.251,103.23,12.521,101.41C10.785,99.59,9.917,97.403,9.917,94.844L9.917,64.544L44.666,64.544L44.666,75.613C44.666,76.619,45.018,77.492,45.717,78.226C46.422,78.965,47.25,79.332,48.207,79.332L70.866,79.332C71.828,79.332,72.656,78.965,73.355,78.226C74.059,77.492,74.406,76.619,74.406,75.613ZM74.406,75.613"/>
</g>
  <g id="Heavy-M" transform="matrix(1.0,0.0,0.0,1.0,2578.459897856841,1030.5457961623733)">  <path stroke-linejoin="miter" stroke-opacity="1" stroke-width="1px" stroke-linecap="butt" clip-rule="evenodd" fill-rule="evenodd" fill="#000000" fill-opacity="1" stroke-miterlimit="4" stroke-dasharray="none" stroke="none" d="M100.249,29.755L79.405,29.755L79.405,20.457C79.405,18.904,78.885,17.59,77.853,16.504C76.822,15.418,75.567,14.878,74.094,14.878L44.983,14.878C43.511,14.878,42.256,15.418,41.224,16.504C40.188,17.59,39.672,18.904,39.672,20.457L39.672,29.755L18.774,29.755C16.339,29.755,14.251,30.668,12.521,32.488C10.785,34.308,9.917,36.495,9.917,39.054L9.917,59.376L109.101,59.376L109.101,39.054C109.101,36.495,108.233,34.308,106.502,32.488C104.767,30.668,102.679,29.755,100.249,29.755ZM49.591,29.755L69.427,29.755L69.427,24.811L49.591,24.811L49.591,29.755ZM54.51,74.08L64.364,74.08L64.364,64.529L54.51,64.529L54.51,74.08ZM74.406,75.613L74.406,76.247L74.406,64.544L109.101,64.544L109.101,94.844C109.101,97.403,108.233,99.59,106.502,101.41C104.767,103.23,102.679,104.143,100.249,104.143L18.774,104.143C16.339,104.143,14.251,103.23,12.521,101.41C10.785,99.59,9.917,97.403,9.917,94.844L9.917,64.544L44.666,64.544L44.666,75.613C44.666,76.619,45.018,77.492,45.717,78.226C46.422,78.965,47.25,79.332,48.207,79.332L70.866,79.332C71.828,79.332,72.656,78.965,73.355,78.226C74.059,77.492,74.406,76.619,74.406,75.613ZM74.406,75.613"/>
</g>
  <g id="Bold-M" transform="matrix(1.0,0.0,0.0,1.0,2281.749897856841,1030.5457961623733)">  <path fill-rule="evenodd" stroke-miterlimit="4" fill="#000000" clip-rule="evenodd" stroke-dasharray="none" stroke-opacity="1" stroke-width="1px" stroke-linejoin="miter" stroke="none" stroke-linecap="butt" fill-opacity="1" d="M100.249,29.755L79.405,29.755L79.405,20.457C79.405,18.904,78.885,17.59,77.853,16.504C76.822,15.418,75.567,14.878,74.094,14.878L44.983,14.878C43.511,14.878,42.256,15.418,41.224,16.504C40.188,17.59,39.672,18.904,39.672,20.457L39.672,29.755L18.774,29.755C16.339,29.755,14.251,30.668,12.521,32.488C10.785,34.308,9.917,36.495,9.917,39.054L9.917,59.376L109.101,59.376L109.101,39.054C109.101,36.495,108.233,34.308,106.502,32.488C104.767,30.668,102.679,29.755,100.249,29.755ZM49.591,29.755L69.427,29.755L69.427,24.811L49.591,24.811L49.591,29.755ZM54.51,74.08L64.364,74.08L64.364,64.529L54.51,64.529L54.51,74.08ZM74.406,75.613L74.406,76.247L74.406,64.544L109.101,64.544L109.101,94.844C109.101,97.403,108.233,99.59,106.502,101.41C104.767,103.23,102.679,104.143,100.249,104.143L18.774,104.143C16.339,104.143,14.251,103.23,12.521,101.41C10.785,99.59,9.917,97.403,9.917,94.844L9.917,64.544L44.666,64.544L44.666,75.613C44.666,76.619,45.018,77.492,45.717,78.226C46.422,78.965,47.25,79.332,48.207,79.332L70.866,79.332C71.828,79.332,72.656,78.965,73.355,78.226C74.059,77.492,74.406,76.619,74.406,75.613ZM74.406,75.613"/>
</g>
  <g id="Semibold-M" transform="matrix(1.0,0.0,0.0,1.0,1985.0398978568412,1030.5457961623733)">  <path stroke-dasharray="none" stroke="none" stroke-linejoin="miter" stroke-linecap="butt" fill-rule="evenodd" fill-opacity="1" fill="#000000" clip-rule="evenodd" stroke-width="1px" stroke-opacity="1" stroke-miterlimit="4" d="M100.249,29.755L79.405,29.755L79.405,20.457C79.405,18.904,78.885,17.59,77.853,16.504C76.822,15.418,75.567,14.878,74.094,14.878L44.983,14.878C43.511,14.878,42.256,15.418,41.224,16.504C40.188,17.59,39.672,18.904,39.672,20.457L39.672,29.755L18.774,29.755C16.339,29.755,14.251,30.668,12.521,32.488C10.785,34.308,9.917,36.495,9.917,39.054L9.917,59.376L109.101,59.376L109.101,39.054C109.101,36.495,108.233,34.308,106.502,32.488C104.767,30.668,102.679,29.755,100.249,29.755ZM49.591,29.755L69.427,29.755L69.427,24.811L49.591,24.811L49.591,29.755ZM54.51,74.08L64.364,74.08L64.364,64.529L54.51,64.529L54.51,74.08ZM74.406,75.613L74.406,76.247L74.406,64.544L109.101,64.544L109.101,94.844C109.101,97.403,108.233,99.59,106.502,101.41C104.767,103.23,102.679,104.143,100.249,104.143L18.774,104.143C16.339,104.143,14.251,103.23,12.521,101.41C10.785,99.59,9.917,97.403,9.917,94.844L9.917,64.544L44.666,64.544L44.666,75.613C44.666,76.619,45.018,77.492,45.717,78.226C46.422,78.965,47.25,79.332,48.207,79.332L70.866,79.332C71.828,79.332,72.656,78.965,73.355,78.226C74.059,77.492,74.406,76.619,74.406,75.613ZM74.406,75.613"/>
</g>
  <g id="Medium-M" transform="matrix(1.0,0.0,0.0,1.0,1688.3298978568412,1030.5457961623733)">  <path fill-rule="evenodd" clip-rule="evenodd" fill="#000000" stroke-linejoin="miter" stroke-width="1px" stroke-linecap="butt" stroke="none" stroke-dasharray="none" fill-opacity="1" stroke-opacity="1" stroke-miterlimit="4" d="M100.249,29.755L79.405,29.755L79.405,20.457C79.405,18.904,78.885,17.59,77.853,16.504C76.822,15.418,75.567,14.878,74.094,14.878L44.983,14.878C43.511,14.878,42.256,15.418,41.224,16.504C40.188,17.59,39.672,18.904,39.672,20.457L39.672,29.755L18.774,29.755C16.339,29.755,14.251,30.668,12.521,32.488C10.785,34.308,9.917,36.495,9.917,39.054L9.917,59.376L109.101,59.376L109.101,39.054C109.101,36.495,108.233,34.308,106.502,32.488C104.767,30.668,102.679,29.755,100.249,29.755ZM49.591,29.755L69.427,29.755L69.427,24.811L49.591,24.811L49.591,29.755ZM54.51,74.08L64.364,74.08L64.364,64.529L54.51,64.529L54.51,74.08ZM74.406,75.613L74.406,76.247L74.406,64.544L109.101,64.544L109.101,94.844C109.101,97.403,108.233,99.59,106.502,101.41C104.767,103.23,102.679,104.143,100.249,104.143L18.774,104.143C16.339,104.143,14.251,103.23,12.521,101.41C10.785,99.59,9.917,97.403,9.917,94.844L9.917,64.544L44.666,64.544L44.666,75.613C44.666,76.619,45.018,77.492,45.717,78.226C46.422,78.965,47.25,79.332,48.207,79.332L70.866,79.332C71.828,79.332,72.656,78.965,73.355,78.226C74.059,77.492,74.406,76.619,74.406,75.613ZM74.406,75.613"/>
</g>
  <g id="Regular-M" transform="matrix(1.0,0.0,0.0,1.0,1391.6198978568411,1030.5457961623733)">  <path fill-opacity="1" stroke-dasharray="none" stroke-linejoin="miter" fill="#000000" stroke="none" fill-rule="evenodd" stroke-width="1px" clip-rule="evenodd" stroke-miterlimit="4" stroke-opacity="1" stroke-linecap="butt" d="M100.249,29.755L79.405,29.755L79.405,20.457C79.405,18.904,78.885,17.59,77.853,16.504C76.822,15.418,75.567,14.878,74.094,14.878L44.983,14.878C43.511,14.878,42.256,15.418,41.224,16.504C40.188,17.59,39.672,18.904,39.672,20.457L39.672,29.755L18.774,29.755C16.339,29.755,14.251,30.668,12.521,32.488C10.785,34.308,9.917,36.495,9.917,39.054L9.917,59.376L109.101,59.376L109.101,39.054C109.101,36.495,108.233,34.308,106.502,32.488C104.767,30.668,102.679,29.755,100.249,29.755ZM49.591,29.755L69.427,29.755L69.427,24.811L49.591,24.811L49.591,29.755ZM54.51,74.08L64.364,74.08L64.364,64.529L54.51,64.529L54.51,74.08ZM74.406,75.613L74.406,76.247L74.406,64.544L109.101,64.544L109.101,94.844C109.101,97.403,108.233,99.59,106.502,101.41C104.767,103.23,102.679,104.143,100.249,104.143L18.774,104.143C16.339,104.143,14.251,103.23,12.521,101.41C10.785,99.59,9.917,97.403,9.917,94.844L9.917,64.544L44.666,64.544L44.666,75.613C44.666,76.619,45.018,77.492,45.717,78.226C46.422,78.965,47.25,79.332,48.207,79.332L70.866,79.332C71.828,79.332,72.656,78.965,73.355,78.226C74.059,77.492,74.406,76.619,74.406,75.613ZM74.406,75.613"/>
</g>
  <g id="Light-M" transform="matrix(1.0,0.0,0.0,1.0,1094.9098978568413,1030.5457961623733)">  <path stroke-miterlimit="4" fill="#000000" clip-rule="evenodd" stroke="none" stroke-opacity="1" stroke-linecap="butt" fill-opacity="1" stroke-width="1px" fill-rule="evenodd" stroke-dasharray="none" stroke-linejoin="miter" d="M100.249,29.755L79.405,29.755L79.405,20.457C79.405,18.904,78.885,17.59,77.853,16.504C76.822,15.418,75.567,14.878,74.094,14.878L44.983,14.878C43.511,14.878,42.256,15.418,41.224,16.504C40.188,17.59,39.672,18.904,39.672,20.457L39.672,29.755L18.774,29.755C16.339,29.755,14.251,30.668,12.521,32.488C10.785,34.308,9.917,36.495,9.917,39.054L9.917,59.376L109.101,59.376L109.101,39.054C109.101,36.495,108.233,34.308,106.502,32.488C104.767,30.668,102.679,29.755,100.249,29.755ZM49.591,29.755L69.427,29.755L69.427,24.811L49.591,24.811L49.591,29.755ZM54.51,74.08L64.364,74.08L64.364,64.529L54.51,64.529L54.51,74.08ZM74.406,75.613L74.406,76.247L74.406,64.544L109.101,64.544L109.101,94.844C109.101,97.403,108.233,99.59,106.502,101.41C104.767,103.23,102.679,104.143,100.249,104.143L18.774,104.143C16.339,104.143,14.251,103.23,12.521,101.41C10.785,99.59,9.917,97.403,9.917,94.844L9.917,64.544L44.666,64.544L44.666,75.613C44.666,76.619,45.018,77.492,45.717,78.226C46.422,78.965,47.25,79.332,48.207,79.332L70.866,79.332C71.828,79.332,72.656,78.965,73.355,78.226C74.059,77.492,74.406,76.619,74.406,75.613ZM74.406,75.613"/>
</g>
  <g id="Thin-M" transform="matrix(1.0,0.0,0.0,1.0,798.1998978568413,1030.5457961623733)">  <path fill="#000000" stroke-linecap="butt" stroke-linejoin="miter" stroke="none" fill-rule="evenodd" stroke-width="1px" clip-rule="evenodd" fill-opacity="1" stroke-opacity="1" stroke-dasharray="none" stroke-miterlimit="4" d="M100.249,29.755L79.405,29.755L79.405,20.457C79.405,18.904,78.885,17.59,77.853,16.504C76.822,15.418,75.567,14.878,74.094,14.878L44.983,14.878C43.511,14.878,42.256,15.418,41.224,16.504C40.188,17.59,39.672,18.904,39.672,20.457L39.672,29.755L18.774,29.755C16.339,29.755,14.251,30.668,12.521,32.488C10.785,34.308,9.917,36.495,9.917,39.054L9.917,59.376L109.101,59.376L109.101,39.054C109.101,36.495,108.233,34.308,106.502,32.488C104.767,30.668,102.679,29.755,100.249,29.755ZM49.591,29.755L69.427,29.755L69.427,24.811L49.591,24.811L49.591,29.755ZM54.51,74.08L64.364,74.08L64.364,64.529L54.51,64.529L54.51,74.08ZM74.406,75.613L74.406,76.247L74.406,64.544L109.101,64.544L109.101,94.844C109.101,97.403,108.233,99.59,106.502,101.41C104.767,103.23,102.679,104.143,100.249,104.143L18.774,104.143C16.339,104.143,14.251,103.23,12.521,101.41C10.785,99.59,9.917,97.403,9.917,94.844L9.917,64.544L44.666,64.544L44.666,75.613C44.666,76.619,45.018,77.492,45.717,78.226C46.422,78.965,47.25,79.332,48.207,79.332L70.866,79.332C71.828,79.332,72.656,78.965,73.355,78.226C74.059,77.492,74.406,76.619,74.406,75.613ZM74.406,75.613"/>
</g>
  <g id="Ultralight-M" transform="matrix(1.0,0.0,0.0,1.0,501.4898978568412,1030.5457961623733)">  <path stroke="none" stroke-width="1px" fill-rule="evenodd" clip-rule="evenodd" stroke-opacity="1" fill="#000000" stroke-linecap="butt" stroke-dasharray="none" stroke-miterlimit="4" stroke-linejoin="miter" fill-opacity="1" d="M100.249,29.755L79.405,29.755L79.405,20.457C79.405,18.904,78.885,17.59,77.853,16.504C76.822,15.418,75.567,14.878,74.094,14.878L44.983,14.878C43.511,14.878,42.256,15.418,41.224,16.504C40.188,17.59,39.672,18.904,39.672,20.457L39.672,29.755L18.774,29.755C16.339,29.755,14.251,30.668,12.521,32.488C10.785,34.308,9.917,36.495,9.917,39.054L9.917,59.376L109.101,59.376L109.101,39.054C109.101,36.495,108.233,34.308,106.502,32.488C104.767,30.668,102.679,29.755,100.249,29.755ZM49.591,29.755L69.427,29.755L69.427,24.811L49.591,24.811L49.591,29.755ZM54.51,74.08L64.364,74.08L64.364,64.529L54.51,64.529L54.51,74.08ZM74.406,75.613L74.406,76.247L74.406,64.544L109.101,64.544L109.101,94.844C109.101,97.403,108.233,99.59,106.502,101.41C104.767,103.23,102.679,104.143,100.249,104.143L18.774,104.143C16.339,104.143,14.251,103.23,12.521,101.41C10.785,99.59,9.917,97.403,9.917,94.844L9.917,64.544L44.666,64.544L44.666,75.613C44.666,76.619,45.018,77.492,45.717,78.226C46.422,78.965,47.25,79.332,48.207,79.332L70.866,79.332C71.828,79.332,72.656,78.965,73.355,78.226C74.059,77.492,74.406,76.619,74.406,75.613ZM74.406,75.613"/>
</g>
  <g id="Black-S" transform="matrix(1.0,0.0,0.0,1.0,2888.0835900219063,613.6144526334195)">  <path fill-rule="evenodd" stroke-width="1px" stroke-linejoin="miter" stroke-miterlimit="4" fill="#000000" stroke-dasharray="none" fill-opacity="1" stroke-linecap="butt" clip-rule="evenodd" stroke="none" stroke-opacity="1" d="M78.495,23.298L62.174,23.298L62.174,16.018C62.174,14.802,61.767,13.773,60.959,12.923C60.151,12.072,59.169,11.649,58.016,11.649L35.222,11.649C34.069,11.649,33.086,12.072,32.279,12.923C31.467,13.773,31.063,14.802,31.063,16.018L31.063,23.298L14.7,23.298C12.794,23.298,11.159,24.013,9.804,25.438C8.445,26.863,7.765,28.575,7.765,30.579L7.765,46.492L85.426,46.492L85.426,30.579C85.426,28.575,84.746,26.863,83.391,25.438C82.032,24.013,80.397,23.298,78.495,23.298ZM38.829,23.298L54.362,23.298L54.362,19.427L38.829,19.427L38.829,23.298ZM42.682,58.005L50.397,58.005L50.397,50.526L42.682,50.526L42.682,58.005ZM58.26,59.205L58.26,59.702L58.26,50.538L85.426,50.538L85.426,74.263C85.426,76.267,84.746,77.979,83.391,79.404C82.032,80.829,80.397,81.544,78.495,81.544L14.7,81.544C12.794,81.544,11.159,80.829,9.804,79.404C8.445,77.979,7.765,76.267,7.765,74.263L7.765,50.538L34.974,50.538L34.974,59.205C34.974,59.993,35.249,60.676,35.797,61.251C36.348,61.83,36.997,62.117,37.746,62.117L55.488,62.117C56.241,62.117,56.89,61.83,57.437,61.251C57.988,60.676,58.26,59.993,58.26,59.205ZM58.26,59.205"/>
</g>
  <g id="Heavy-S" transform="matrix(1.0,0.0,0.0,1.0,2591.3735900219062,613.6144526334195)">  <path stroke-linejoin="miter" stroke-opacity="1" stroke-width="1px" stroke-linecap="butt" clip-rule="evenodd" fill-rule="evenodd" fill="#000000" fill-opacity="1" stroke-miterlimit="4" stroke-dasharray="none" stroke="none" d="M78.495,23.298L62.174,23.298L62.174,16.018C62.174,14.802,61.767,13.773,60.959,12.923C60.151,12.072,59.169,11.649,58.016,11.649L35.222,11.649C34.069,11.649,33.086,12.072,32.279,12.923C31.467,13.773,31.063,14.802,31.063,16.018L31.063,23.298L14.7,23.298C12.794,23.298,11.159,24.013,9.804,25.438C8.445,26.863,7.765,28.575,7.765,30.579L7.765,46.492L85.426,46.492L85.426,30.579C85.426,28.575,84.746,26.863,83.391,25.438C82.032,24.013,80.397,23.298,78.495,23.298ZM38.829,23.298L54.362,23.298L54.362,19.427L38.829,19.427L38.829,23.298ZM42.682,58.005L50.397,58.005L50.397,50.526L42.682,50.526L42.682,58.005ZM58.26,59.205L58.26,59.702L58.26,50.538L85.426,50.538L85.426,74.263C85.426,76.267,84.746,77.979,83.391,79.404C82.032,80.829,80.397,81.544,78.495,81.544L14.7,81.544C12.794,81.544,11.159,80.829,9.804,79.404C8.445,77.979,7.765,76.267,7.765,74.263L7.765,50.538L34.974,50.538L34.974,59.205C34.974,59.993,35.249,60.676,35.797,61.251C36.348,61.83,36.997,62.117,37.746,62.117L55.488,62.117C56.241,62.117,56.89,61.83,57.437,61.251C57.988,60.676,58.26,59.993,58.26,59.205ZM58.26,59.205"/>
</g>
  <g id="Bold-S" transform="matrix(1.0,0.0,0.0,1.0,2294.663590021906,613.6144526334195)">  <path fill-rule="evenodd" stroke-miterlimit="4" fill="#000000" clip-rule="evenodd" stroke-dasharray="none" stroke-opacity="1" stroke-width="1px" stroke-linejoin="miter" stroke="none" stroke-linecap="butt" fill-opacity="1" d="M78.495,23.298L62.174,23.298L62.174,16.018C62.174,14.802,61.767,13.773,60.959,12.923C60.151,12.072,59.169,11.649,58.016,11.649L35.222,11.649C34.069,11.649,33.086,12.072,32.279,12.923C31.467,13.773,31.063,14.802,31.063,16.018L31.063,23.298L14.7,23.298C12.794,23.298,11.159,24.013,9.804,25.438C8.445,26.863,7.765,28.575,7.765,30.579L7.765,46.492L85.426,46.492L85.426,30.579C85.426,28.575,84.746,26.863,83.391,25.438C82.032,24.013,80.397,23.298,78.495,23.298ZM38.829,23.298L54.362,23.298L54.362,19.427L38.829,19.427L38.829,23.298ZM42.682,58.005L50.397,58.005L50.397,50.526L42.682,50.526L42.682,58.005ZM58.26,59.205L58.26,59.702L58.26,50.538L85.426,50.538L85.426,74.263C85.426,76.267,84.746,77.979,83.391,79.404C82.032,80.829,80.397,81.544,78.495,81.544L14.7,81.544C12.794,81.544,11.159,80.829,9.804,79.404C8.445,77.979,7.765,76.267,7.765,74.263L7.765,50.538L34.974,50.538L34.974,59.205C34.974,59.993,35.249,60.676,35.797,61.251C36.348,61.83,36.997,62.117,37.746,62.117L55.488,62.117C56.241,62.117,56.89,61.83,57.437,61.251C57.988,60.676,58.26,59.993,58.26,59.205ZM58.26,59.205"/>
</g>
  <g id="Semibold-S" transform="matrix(1.0,0.0,0.0,1.0,1997.9535900219066,613.6144526334195)">  <path stroke-dasharray="none" stroke="none" stroke-linejoin="miter" stroke-linecap="butt" fill-rule="evenodd" fill-opacity="1" fill="#000000" clip-rule="evenodd" stroke-width="1px" stroke-opacity="1" stroke-miterlimit="4" d="M78.495,23.298L62.174,23.298L62.174,16.018C62.174,14.802,61.767,13.773,60.959,12.923C60.151,12.072,59.169,11.649,58.016,11.649L35.222,11.649C34.069,11.649,33.086,12.072,32.279,12.923C31.467,13.773,31.063,14.802,31.063,16.018L31.063,23.298L14.7,23.298C12.794,23.298,11.159,24.013,9.804,25.438C8.445,26.863,7.765,28.575,7.765,30.579L7.765,46.492L85.426,46.492L85.426,30.579C85.426,28.575,84.746,26.863,83.391,25.438C82.032,24.013,80.397,23.298,78.495,23.298ZM38.829,23.298L54.362,23.298L54.362,19.427L38.829,19.427L38.829,23.298ZM42.682,58.005L50.397,58.005L50.397,50.526L42.682,50.526L42.682,58.005ZM58.26,59.205L58.26,59.702L58.26,50.538L85.426,50.538L85.426,74.263C85.426,76.267,84.746,77.979,83.391,79.404C82.032,80.829,80.397,81.544,78.495,81.544L14.7,81.544C12.794,81.544,11.159,80.829,9.804,79.404C8.445,77.979,7.765,76.267,7.765,74.263L7.765,50.538L34.974,50.538L34.974,59.205C34.974,59.993,35.249,60.676,35.797,61.251C36.348,61.83,36.997,62.117,37.746,62.117L55.488,62.117C56.241,62.117,56.89,61.83,57.437,61.251C57.988,60.676,58.26,59.993,58.26,59.205ZM58.26,59.205"/>
</g>
  <g id="Medium-S" transform="matrix(1.0,0.0,0.0,1.0,1701.2435900219066,613.6144526334195)">  <path fill-rule="evenodd" clip-rule="evenodd" fill="#000000" stroke-linejoin="miter" stroke-width="1px" stroke-linecap="butt" stroke="none" stroke-dasharray="none" fill-opacity="1" stroke-opacity="1" stroke-miterlimit="4" d="M78.495,23.298L62.174,23.298L62.174,16.018C62.174,14.802,61.767,13.773,60.959,12.923C60.151,12.072,59.169,11.649,58.016,11.649L35.222,11.649C34.069,11.649,33.086,12.072,32.279,12.923C31.467,13.773,31.063,14.802,31.063,16.018L31.063,23.298L14.7,23.298C12.794,23.298,11.159,24.013,9.804,25.438C8.445,26.863,7.765,28.575,7.765,30.579L7.765,46.492L85.426,46.492L85.426,30.579C85.426,28.575,84.746,26.863,83.391,25.438C82.032,24.013,80.397,23.298,78.495,23.298ZM38.829,23.298L54.362,23.298L54.362,19.427L38.829,19.427L38.829,23.298ZM42.682,58.005L50.397,58.005L50.397,50.526L42.682,50.526L42.682,58.005ZM58.26,59.205L58.26,59.702L58.26,50.538L85.426,50.538L85.426,74.263C85.426,76.267,84.746,77.979,83.391,79.404C82.032,80.829,80.397,81.544,78.495,81.544L14.7,81.544C12.794,81.544,11.159,80.829,9.804,79.404C8.445,77.979,7.765,76.267,7.765,74.263L7.765,50.538L34.974,50.538L34.974,59.205C34.974,59.993,35.249,60.676,35.797,61.251C36.348,61.83,36.997,62.117,37.746,62.117L55.488,62.117C56.241,62.117,56.89,61.83,57.437,61.251C57.988,60.676,58.26,59.993,58.26,59.205ZM58.26,59.205"/>
</g>
  <g id="Regular-S" transform="matrix(1.0,0.0,0.0,1.0,1404.5335900219065,613.6144526334195)">  <path fill-opacity="1" stroke-dasharray="none" stroke-linejoin="miter" fill="#000000" stroke="none" fill-rule="evenodd" stroke-width="1px" clip-rule="evenodd" stroke-miterlimit="4" stroke-opacity="1" stroke-linecap="butt" d="M78.495,23.298L62.174,23.298L62.174,16.018C62.174,14.802,61.767,13.773,60.959,12.923C60.151,12.072,59.169,11.649,58.016,11.649L35.222,11.649C34.069,11.649,33.086,12.072,32.279,12.923C31.467,13.773,31.063,14.802,31.063,16.018L31.063,23.298L14.7,23.298C12.794,23.298,11.159,24.013,9.804,25.438C8.445,26.863,7.765,28.575,7.765,30.579L7.765,46.492L85.426,46.492L85.426,30.579C85.426,28.575,84.746,26.863,83.391,25.438C82.032,24.013,80.397,23.298,78.495,23.298ZM38.829,23.298L54.362,23.298L54.362,19.427L38.829,19.427L38.829,23.298ZM42.682,58.005L50.397,58.005L50.397,50.526L42.682,50.526L42.682,58.005ZM58.26,59.205L58.26,59.702L58.26,50.538L85.426,50.538L85.426,74.263C85.426,76.267,84.746,77.979,83.391,79.404C82.032,80.829,80.397,81.544,78.495,81.544L14.7,81.544C12.794,81.544,11.159,80.829,9.804,79.404C8.445,77.979,7.765,76.267,7.765,74.263L7.765,50.538L34.974,50.538L34.974,59.205C34.974,59.993,35.249,60.676,35.797,61.251C36.348,61.83,36.997,62.117,37.746,62.117L55.488,62.117C56.241,62.117,56.89,61.83,57.437,61.251C57.988,60.676,58.26,59.993,58.26,59.205ZM58.26,59.205"/>
</g>
  <g id="Light-S" transform="matrix(1.0,0.0,0.0,1.0,1107.8235900219067,613.6144526334195)">  <path stroke-miterlimit="4" fill="#000000" clip-rule="evenodd" stroke="none" stroke-opacity="1" stroke-linecap="butt" fill-opacity="1" stroke-width="1px" fill-rule="evenodd" stroke-dasharray="none" stroke-linejoin="miter" d="M78.495,23.298L62.174,23.298L62.174,16.018C62.174,14.802,61.767,13.773,60.959,12.923C60.151,12.072,59.169,11.649,58.016,11.649L35.222,11.649C34.069,11.649,33.086,12.072,32.279,12.923C31.467,13.773,31.063,14.802,31.063,16.018L31.063,23.298L14.7,23.298C12.794,23.298,11.159,24.013,9.804,25.438C8.445,26.863,7.765,28.575,7.765,30.579L7.765,46.492L85.426,46.492L85.426,30.579C85.426,28.575,84.746,26.863,83.391,25.438C82.032,24.013,80.397,23.298,78.495,23.298ZM38.829,23.298L54.362,23.298L54.362,19.427L38.829,19.427L38.829,23.298ZM42.682,58.005L50.397,58.005L50.397,50.526L42.682,50.526L42.682,58.005ZM58.26,59.205L58.26,59.702L58.26,50.538L85.426,50.538L85.426,74.263C85.426,76.267,84.746,77.979,83.391,79.404C82.032,80.829,80.397,81.544,78.495,81.544L14.7,81.544C12.794,81.544,11.159,80.829,9.804,79.404C8.445,77.979,7.765,76.267,7.765,74.263L7.765,50.538L34.974,50.538L34.974,59.205C34.974,59.993,35.249,60.676,35.797,61.251C36.348,61.83,36.997,62.117,37.746,62.117L55.488,62.117C56.241,62.117,56.89,61.83,57.437,61.251C57.988,60.676,58.26,59.993,58.26,59.205ZM58.26,59.205"/>
</g>
  <g id="Thin-S" transform="matrix(1.0,0.0,0.0,1.0,811.1135900219067,613.6144526334195)">  <path fill="#000000" stroke-linecap="butt" stroke-linejoin="miter" stroke="none" fill-rule="evenodd" stroke-width="1px" clip-rule="evenodd" fill-opacity="1" stroke-opacity="1" stroke-dasharray="none" stroke-miterlimit="4" d="M78.495,23.298L62.174,23.298L62.174,16.018C62.174,14.802,61.767,13.773,60.959,12.923C60.151,12.072,59.169,11.649,58.016,11.649L35.222,11.649C34.069,11.649,33.086,12.072,32.279,12.923C31.467,13.773,31.063,14.802,31.063,16.018L31.063,23.298L14.7,23.298C12.794,23.298,11.159,24.013,9.804,25.438C8.445,26.863,7.765,28.575,7.765,30.579L7.765,46.492L85.426,46.492L85.426,30.579C85.426,28.575,84.746,26.863,83.391,25.438C82.032,24.013,80.397,23.298,78.495,23.298ZM38.829,23.298L54.362,23.298L54.362,19.427L38.829,19.427L38.829,23.298ZM42.682,58.005L50.397,58.005L50.397,50.526L42.682,50.526L42.682,58.005ZM58.26,59.205L58.26,59.702L58.26,50.538L85.426,50.538L85.426,74.263C85.426,76.267,84.746,77.979,83.391,79.404C82.032,80.829,80.397,81.544,78.495,81.544L14.7,81.544C12.794,81.544,11.159,80.829,9.804,79.404C8.445,77.979,7.765,76.267,7.765,74.263L7.765,50.538L34.974,50.538L34.974,59.205C34.974,59.993,35.249,60.676,35.797,61.251C36.348,61.83,36.997,62.117,37.746,62.117L55.488,62.117C56.241,62.117,56.89,61.83,57.437,61.251C57.988,60.676,58.26,59.993,58.26,59.205ZM58.26,59.205"/>
</g>
  <g id="Ultralight-S" transform="matrix(1.0,0.0,0.0,1.0,514.4035900219067,613.6144526334195)">  <path stroke="none" stroke-width="1px" fill-rule="evenodd" clip-rule="evenodd" stroke-opacity="1" fill="#000000" stroke-linecap="butt" stroke-dasharray="none" stroke-miterlimit="4" stroke-linejoin="miter" fill-opacity="1" d="M78.495,23.298L62.174,23.298L62.174,16.018C62.174,14.802,61.767,13.773,60.959,12.923C60.151,12.072,59.169,11.649,58.016,11.649L35.222,11.649C34.069,11.649,33.086,12.072,32.279,12.923C31.467,13.773,31.063,14.802,31.063,16.018L31.063,23.298L14.7,23.298C12.794,23.298,11.159,24.013,9.804,25.438C8.445,26.863,7.765,28.575,7.765,30.579L7.765,46.492L85.426,46.492L85.426,30.579C85.426,28.575,84.746,26.863,83.391,25.438C82.032,24.013,80.397,23.298,78.495,23.298ZM38.829,23.298L54.362,23.298L54.362,19.427L38.829,19.427L38.829,23.298ZM42.682,58.005L50.397,58.005L50.397,50.526L42.682,50.526L42.682,58.005ZM58.26,59.205L58.26,59.702L58.26,50.538L85.426,50.538L85.426,74.263C85.426,76.267,84.746,77.979,83.391,79.404C82.032,80.829,80.397,81.544,78.495,81.544L14.7,81.544C12.794,81.544,11.159,80.829,9.804,79.404C8.445,77.979,7.765,76.267,7.765,74.263L7.765,50.538L34.974,50.538L34.974,59.205C34.974,59.993,35.249,60.676,35.797,61.251C36.348,61.83,36.997,62.117,37.746,62.117L55.488,62.117C56.241,62.117,56.89,61.83,57.437,61.251C57.988,60.676,58.26,59.993,58.26,59.205ZM58.26,59.205"/>
</g>
 </g>
</svg>
