<?xml version="1.0" encoding="UTF-8"?>
<!-- Generator: CustomSymbols v2.6.1.40 by @serious_bret https://bretlester.com/app_content/CustomSymbols/ -->
<!-- Guides: Left/Right 0.128/0.126 Cap/Base 0.212/0.192 -->
<!-- Settings: RefScale 1.0 Min/Max Stroke Scales 0.5/2.21 -->
<!DOCTYPE svg
PUBLIC "-//W3C//DTD SVG 1.1//EN"
       "http://www.w3.org/Graphics/SVG/1.1/DTD/svg11.dtd">
<svg version="1.1" xmlns="http://www.w3.org/2000/svg" xmlns:xlink="http://www.w3.org/1999/xlink" width="3300" height="2200">
<![CDATA[<svg width="24" height="24" viewBox="0 0 24 24" fill="none" xmlns="http://www.w3.org/2000/svg">
<path fill-rule="evenodd" clip-rule="evenodd" d="M20 19C20.553 19 21 19.448 21 20C21 20.552 20.553 21 20 21H4C3.448 21 3 20.552 3 20C3 19.448 3.448 19 4 19V5C4 3.9 4.9 3 6 3H18C19.1 3 20 3.9 20 5V19ZM18 19V5H6V19H8V15H16V19H18ZM10 19H11V17.034H10V19ZM13 19H14V17.035H13V19ZM8 14.006V12H10V14.006H8ZM11 11.006V9H13V11.006H11ZM11 8.006V6H13V8.006H11ZM8 8.006V6H10V8.006H8ZM8 11.006V9H10V11.006H8ZM14 14.006V12H16V14.006H14ZM11 14.006V12H13V14.006H11ZM14 11.006V9H16V11.006H14ZM14 8.006V6H16V8.006H14Z" fill="black"/>
</svg>
]]>
 <g id="Notes">
  <rect height="2200" id="artboard" style="fill:white;opacity:1" width="3300" x="0" y="0"/>
  <line id="" style="fill:none;stroke:black;opacity:1;stroke-width:0.5;" x1="263" x2="3036" y1="292" y2="292"/>
  <text id="reftext1" style="stroke:none;fill:black;font-family:-apple-system,&quot;SF Pro Display&quot;,&quot;SF Pro Text&quot;,Helvetica,sans-serif;font-weight:bold;" transform="matrix(1 0 0 1 263 322)">Weight/Scale Variations</text>
  <text id="reftext2" style="stroke:none;fill:black;font-family:-apple-system,&quot;SF Pro Display&quot;,&quot;SF Pro Text&quot;,Helvetica,sans-serif;text-anchor:middle;" transform="matrix(1 0 0 1 559.711 322)">Ultralight</text>
  <text style="stroke:none;fill:black;font-family:-apple-system,&quot;SF Pro Display&quot;,&quot;SF Pro Text&quot;,Helvetica,sans-serif;text-anchor:middle;" transform="matrix(1 0 0 1 856.422 322)">Thin</text>
  <text style="stroke:none;fill:black;font-family:-apple-system,&quot;SF Pro Display&quot;,&quot;SF Pro Text&quot;,Helvetica,sans-serif;text-anchor:middle;" transform="matrix(1 0 0 1 1153.13 322)">Light</text>
  <text style="stroke:none;fill:black;font-family:-apple-system,&quot;SF Pro Display&quot;,&quot;SF Pro Text&quot;,Helvetica,sans-serif;text-anchor:middle;" transform="matrix(1 0 0 1 1449.84 322)">Regular</text>
  <text style="stroke:none;fill:black;font-family:-apple-system,&quot;SF Pro Display&quot;,&quot;SF Pro Text&quot;,Helvetica,sans-serif;text-anchor:middle;" transform="matrix(1 0 0 1 1746.56 322)">Medium</text>
  <text style="stroke:none;fill:black;font-family:-apple-system,&quot;SF Pro Display&quot;,&quot;SF Pro Text&quot;,Helvetica,sans-serif;text-anchor:middle;" transform="matrix(1 0 0 1 2043.27 322)">Semibold</text>
  <text style="stroke:none;fill:black;font-family:-apple-system,&quot;SF Pro Display&quot;,&quot;SF Pro Text&quot;,Helvetica,sans-serif;text-anchor:middle;" transform="matrix(1 0 0 1 2339.98 322)">Bold</text>
  <text style="stroke:none;fill:black;font-family:-apple-system,&quot;SF Pro Display&quot;,&quot;SF Pro Text&quot;,Helvetica,sans-serif;text-anchor:middle;" transform="matrix(1 0 0 1 2636.69 322)">Heavy</text>
  <text style="stroke:none;fill:black;font-family:-apple-system,&quot;SF Pro Display&quot;,&quot;SF Pro Text&quot;,Helvetica,sans-serif;text-anchor:middle;" transform="matrix(1 0 0 1 2933.4 322)">Black</text>
  <line id="" style="fill:none;stroke:black;opacity:1;stroke-width:0.5;" x1="263" x2="3036" y1="1903" y2="1903"/>
  <g id="" transform="matrix(1 0 0 1 263 1933)">
   <path d="M9.24805 0.830078C13.5547 0.830078 17.1387-2.74414 17.1387-7.05078C17.1387-11.3574 13.5449-14.9316 9.23828-14.9316C4.94141-14.9316 1.36719-11.3574 1.36719-7.05078C1.36719-2.74414 4.95117 0.830078 9.24805 0.830078ZM9.24805-0.654297C5.70312-0.654297 2.87109-3.49609 2.87109-7.05078C2.87109-10.6055 5.69336-13.4473 9.23828-13.4473C12.793-13.4473 15.6348-10.6055 15.6445-7.05078C15.6543-3.49609 12.8027-0.654297 9.24805-0.654297ZM6.39648-6.31836L8.50586-6.31836L8.50586-4.19922C8.50586-3.75977 8.79883-3.45703 9.22852-3.45703C9.67773-3.45703 9.9707-3.75977 9.9707-4.19922L9.9707-6.31836L12.0996-6.31836C12.5391-6.31836 12.8418-6.61133 12.8418-7.04102C12.8418-7.48047 12.5391-7.7832 12.0996-7.7832L9.9707-7.7832L9.9707-9.89258C9.9707-10.3418 9.67773-10.6445 9.22852-10.6445C8.79883-10.6445 8.50586-10.3418 8.50586-9.89258L8.50586-7.7832L6.39648-7.7832C5.94727-7.7832 5.64453-7.48047 5.64453-7.04102C5.64453-6.61133 5.94727-6.31836 6.39648-6.31836Z"/>
  </g>
  <g id="" transform="matrix(1 0 0 1 281.506 1933)">
   <path d="M11.709 2.91016C17.1582 2.91016 21.6699-1.61133 21.6699-7.05078C21.6699-12.5 17.1484-17.0117 11.6992-17.0117C6.25977-17.0117 1.74805-12.5 1.74805-7.05078C1.74805-1.61133 6.26953 2.91016 11.709 2.91016ZM11.709 1.25C7.09961 1.25 3.41797-2.44141 3.41797-7.05078C3.41797-11.6602 7.08984-15.3516 11.6992-15.3516C16.3086-15.3516 20-11.6602 20.0098-7.05078C20.0195-2.44141 16.3184 1.25 11.709 1.25ZM7.98828-6.23047L10.8789-6.23047L10.8789-3.32031C10.8789-2.83203 11.2109-2.5 11.6895-2.5C12.1777-2.5 12.5195-2.83203 12.5195-3.32031L12.5195-6.23047L15.4297-6.23047C15.918-6.23047 16.25-6.5625 16.25-7.04102C16.25-7.5293 15.918-7.87109 15.4297-7.87109L12.5195-7.87109L12.5195-10.7617C12.5195-11.2695 12.1777-11.6016 11.6895-11.6016C11.2109-11.6016 10.8789-11.2598 10.8789-10.7617L10.8789-7.87109L7.98828-7.87109C7.48047-7.87109 7.14844-7.5293 7.14844-7.04102C7.14844-6.5625 7.49023-6.23047 7.98828-6.23047Z"/>
  </g>
  <g id="" transform="matrix(1 0 0 1 304.924 1933)">
   <path d="M14.9707 5.66406C21.9336 5.66406 27.6953-0.0976562 27.6953-7.05078C27.6953-14.0137 21.9238-19.7754 14.9609-19.7754C8.00781-19.7754 2.25586-14.0137 2.25586-7.05078C2.25586-0.0976562 8.01758 5.66406 14.9707 5.66406ZM14.9707 3.84766C8.93555 3.84766 4.08203-1.01562 4.08203-7.05078C4.08203-13.0957 8.92578-17.9492 14.9609-17.9492C21.0059-17.9492 25.8594-13.0957 25.8691-7.05078C25.8789-1.01562 21.0156 3.84766 14.9707 3.84766ZM10.0586-6.14258L14.0625-6.14258L14.0625-2.12891C14.0625-1.5918 14.4336-1.2207 14.9512-1.2207C15.4883-1.2207 15.8594-1.5918 15.8594-2.12891L15.8594-6.14258L19.8828-6.14258C20.4102-6.14258 20.791-6.51367 20.791-7.03125C20.791-7.56836 20.4199-7.94922 19.8828-7.94922L15.8594-7.94922L15.8594-11.9531C15.8594-12.5098 15.4883-12.8809 14.9512-12.8809C14.4336-12.8809 14.0625-12.5 14.0625-11.9531L14.0625-7.94922L10.0586-7.94922C9.50195-7.94922 9.13086-7.56836 9.13086-7.03125C9.13086-6.51367 9.51172-6.14258 10.0586-6.14258Z"/>
  </g>
  <text style="stroke:none;fill:black;font-family:-apple-system,&quot;SF Pro Display&quot;,&quot;SF Pro Text&quot;,Helvetica,sans-serif;font-weight:bold;" transform="matrix(1 0 0 1 263 1953)">Design Variations</text>
  <text style="stroke:none;fill:black;font-family:-apple-system,&quot;SF Pro Display&quot;,&quot;SF Pro Text&quot;,Helvetica,sans-serif;" transform="matrix(1 0 0 1 263 1971)">Symbols are supported in up to nine weights and three scales.</text>
  <text style="stroke:none;fill:black;font-family:-apple-system,&quot;SF Pro Display&quot;,&quot;SF Pro Text&quot;,Helvetica,sans-serif;" transform="matrix(1 0 0 1 263 1989)">For optimal layout with text and other symbols, vertically align</text>
  <text style="stroke:none;fill:black;font-family:-apple-system,&quot;SF Pro Display&quot;,&quot;SF Pro Text&quot;,Helvetica,sans-serif;" transform="matrix(1 0 0 1 263 2007)">symbols with the adjacent text.</text>
  <line id="" style="fill:none;stroke:#00AEEF;stroke-width:0.5;opacity:1.0;" x1="776" x2="776" y1="1919" y2="1933"/>
  <g id="" transform="matrix(1 0 0 1 776 1933)">
   <path d="M3.31055 0.126953C3.82812 0.126953 4.08203-0.0683594 4.26758-0.605469L5.52734-4.0625L11.2891-4.0625L12.5488-0.605469C12.7344-0.0683594 12.9883 0.126953 13.4961 0.126953C14.0137 0.126953 14.3457-0.185547 14.3457-0.673828C14.3457-0.839844 14.3164-0.986328 14.2383-1.20117L9.6582-13.3887C9.43359-13.9941 9.0332-14.2871 8.4082-14.2871C7.80273-14.2871 7.39258-13.9941 7.17773-13.3984L2.59766-1.19141C2.51953-0.976562 2.49023-0.830078 2.49023-0.664062C2.49023-0.175781 2.80273 0.126953 3.31055 0.126953ZM6.00586-5.53711L8.37891-12.1094L8.42773-12.1094L10.8008-5.53711Z"/>
  </g>
  <line id="" style="fill:none;stroke:#00AEEF;stroke-width:0.5;opacity:1.0;" x1="792.836" x2="792.836" y1="1919" y2="1933"/>
  <text style="stroke:none;fill:black;font-family:-apple-system,&quot;SF Pro Display&quot;,&quot;SF Pro Text&quot;,Helvetica,sans-serif;font-weight:bold;" transform="matrix(1 0 0 1 776 1953)">Margins</text>
  <text style="stroke:none;fill:black;font-family:-apple-system,&quot;SF Pro Display&quot;,&quot;SF Pro Text&quot;,Helvetica,sans-serif;" transform="matrix(1 0 0 1 776 1971)">Leading and trailing margins on the left and right side of each symbol</text>
  <text style="stroke:none;fill:black;font-family:-apple-system,&quot;SF Pro Display&quot;,&quot;SF Pro Text&quot;,Helvetica,sans-serif;" transform="matrix(1 0 0 1 776 1989)">can be adjusted by modifying the x-location of the margin guidelines.</text>
  <text style="stroke:none;fill:black;font-family:-apple-system,&quot;SF Pro Display&quot;,&quot;SF Pro Text&quot;,Helvetica,sans-serif;" transform="matrix(1 0 0 1 776 2007)">Modifications are automatically applied proportionally to all</text>
  <text style="stroke:none;fill:black;font-family:-apple-system,&quot;SF Pro Display&quot;,&quot;SF Pro Text&quot;,Helvetica,sans-serif;" transform="matrix(1 0 0 1 776 2025)">scales and weights.</text>
  <g id="" transform="matrix(1 0 0 1 1289 1933)">
   <path d="M2.8418 1.86523L4.54102 3.57422C5.40039 4.44336 6.38672 4.38477 7.31445 3.35938L17.4902-7.85156C17.7539-7.76367 18.0273-7.7832 18.3398-7.8418L19.4043-8.03711L20.0684-7.36328L20.0293-6.80664C19.9902-6.30859 20.1172-5.92773 20.6055-5.44922L21.3672-4.70703C21.8457-4.22852 22.4609-4.19922 22.9297-4.66797L25.8398-7.58789C26.3086-8.05664 26.2891-8.65234 25.8105-9.13086L25.0391-9.89258C24.5605-10.3711 24.1895-10.5273 23.7109-10.4883L23.1348-10.4395L22.4902-11.0742L22.7344-12.1973C22.8613-12.7637 22.7051-13.2031 22.1191-13.7891L19.9219-15.9766C16.582-19.2969 12.1484-19.2188 9.25781-16.3281C8.83789-15.918 8.80859-15.3418 9.04297-14.9512C9.27734-14.5898 9.73633-14.3555 10.3809-14.5215C11.8457-14.8633 13.3691-14.9219 14.7949-13.9844L14.209-12.5293C14.0137-12.0508 13.9844-11.6504 14.1113-11.2891L3.04688-0.898438C2.06055 0.0195312 1.98242 0.996094 2.8418 1.86523ZM10.752-15.957C13.1836-17.7344 16.4746-17.4316 18.7012-15.2051L21.1328-12.793C21.3672-12.5586 21.4062-12.373 21.3379-12.0312L21.0156-10.5469L22.5195-9.0625L23.5059-9.12109C23.7598-9.13086 23.8379-9.11133 24.0332-8.91602L24.6094-8.33984L22.168-5.89844L21.5918-6.47461C21.3965-6.66992 21.3672-6.74805 21.377-7.01172L21.4453-7.98828L19.9512-9.47266L18.4277-9.21875C18.1055-9.15039 17.959-9.17969 17.7148-9.41406L15.7129-11.416C15.459-11.6504 15.4297-11.8164 15.5859-12.1875L16.4648-14.2773C14.9023-15.7324 12.8711-16.3574 10.8398-15.7617C10.6836-15.7227 10.625-15.8496 10.752-15.957ZM5.27344 2.30469L4.10156 1.14258C3.63281 0.683594 3.74023 0.341797 4.14062-0.0195312L14.9512-10.1953L16.416-8.71094L6.42578 2.27539C6.07422 2.67578 5.74219 2.77344 5.27344 2.30469Z"/>
  </g>
  <text style="stroke:none;fill:black;font-family:-apple-system,&quot;SF Pro Display&quot;,&quot;SF Pro Text&quot;,Helvetica,sans-serif;font-weight:bold;" transform="matrix(1 0 0 1 1289 1953)">Exporting</text>
  <text style="stroke:none;fill:black;font-family:-apple-system,&quot;SF Pro Display&quot;,&quot;SF Pro Text&quot;,Helvetica,sans-serif;" transform="matrix(1 0 0 1 1289 1971)">Symbols should be outlined when exporting to ensure the</text>
  <text style="stroke:none;fill:black;font-family:-apple-system,&quot;SF Pro Display&quot;,&quot;SF Pro Text&quot;,Helvetica,sans-serif;" transform="matrix(1 0 0 1 1289 1989)">design is preserved when submitting to Xcode.</text>
  <text id="template-version" style="stroke:none;fill:black;font-family:-apple-system,&quot;SF Pro Display&quot;,&quot;SF Pro Text&quot;,Helvetica,sans-serif;text-anchor:end;" transform="matrix(1 0 0 1 3036 1933)">Template v.2.0</text>
  <text style="stroke:none;fill:black;font-family:-apple-system,&quot;SF Pro Display&quot;,&quot;SF Pro Text&quot;,Helvetica,sans-serif;text-anchor:end;" transform="matrix(1 0 0 1 3036 1951)">Requires Xcode 12 or greater</text>
  <text style="stroke:none;fill:black;font-family:-apple-system,&quot;SF Pro Display&quot;,&quot;SF Pro Text&quot;,Helvetica,sans-serif;" transform="matrix(1 0 0 1 263 726)">Small</text>
  <text style="stroke:none;fill:black;font-family:-apple-system,&quot;SF Pro Display&quot;,&quot;SF Pro Text&quot;,Helvetica,sans-serif;" transform="matrix(1 0 0 1 263 1156)">Medium</text>
  <text style="stroke:none;fill:black;font-family:-apple-system,&quot;SF Pro Display&quot;,&quot;SF Pro Text&quot;,Helvetica,sans-serif;" transform="matrix(1 0 0 1 263 1586)">Large</text>
 </g>
 <g id="Guides">
  <g id="H-reference" style="fill:#27AAE1;stroke:none;" transform="matrix(1 0 0 1 339 696)">
   <path d="M0.976562 0L3.66211 0L12.9883-24.4629L45.752-24.4629L55.127 0L57.7637 0L30.6152-70.459L28.125-70.459ZM29.3457-67.1387L29.4434-67.1387L44.873-26.709L13.8672-26.709Z"/>
  </g>
  <line id="Baseline-S" style="fill:none;stroke:#27AAE1;opacity:1;stroke-width:0.5;" x1="263" x2="3036" y1="696" y2="696"/>
  <line id="Capline-S" style="fill:none;stroke:#27AAE1;opacity:1;stroke-width:0.5;" x1="263" x2="3036" y1="625.541" y2="625.541"/>
  <g id="H-reference" style="fill:#27AAE1;stroke:none;" transform="matrix(1 0 0 1 339 1126)">
   <path d="M0.976562 0L3.66211 0L12.9883-24.4629L45.752-24.4629L55.127 0L57.7637 0L30.6152-70.459L28.125-70.459ZM29.3457-67.1387L29.4434-67.1387L44.873-26.709L13.8672-26.709Z"/>
  </g>
  <line id="Baseline-M" style="fill:none;stroke:#27AAE1;opacity:1;stroke-width:0.5;" x1="263" x2="3036" y1="1126" y2="1126"/>
  <line id="Capline-M" style="fill:none;stroke:#27AAE1;opacity:1;stroke-width:0.5;" x1="263" x2="3036" y1="1055.54" y2="1055.54"/>
  <g id="H-reference" style="fill:#27AAE1;stroke:none;" transform="matrix(1 0 0 1 339 1556)">
   <path d="M0.976562 0L3.66211 0L12.9883-24.4629L45.752-24.4629L55.127 0L57.7637 0L30.6152-70.459L28.125-70.459ZM29.3457-67.1387L29.4434-67.1387L44.873-26.709L13.8672-26.709Z"/>
  </g>
  <line id="Baseline-L" style="fill:none;stroke:#27AAE1;opacity:1;stroke-width:0.5;" x1="263" x2="3036" y1="1556" y2="1556"/>
  <line id="Capline-L" style="fill:none;stroke:#27AAE1;opacity:1;stroke-width:0.5;" x1="263" x2="3036" y1="1485.54" y2="1485.54"/>
  <line id="left-margin" x1="1407.1516351195469" x2="1407.1516351195469" y1="1030.79" y2="1150.12" style="fill:none;stroke:#00AEEF;stroke-width:0.5;opacity:1.0;"/>
  <line id="right-margin" x1="1495.3448077023909" x2="1495.3448077023909" y1="1030.79" y2="1150.12" style="fill:none;stroke:#00AEEF;stroke-width:0.5;opacity:1.0;"/>
 </g>
 <g id="Symbols">
  <g id="Black-L" transform="matrix(1.0,0.0,0.0,1.0,2858.4271899250207,1442.9921532547714)">  <path fill-opacity="1" stroke-linecap="butt" stroke-miterlimit="4" stroke-opacity="1" stroke-width="1px" fill="#000000" clip-rule="evenodd" stroke="none" fill-rule="evenodd" stroke-linejoin="miter" stroke-dasharray="none" d="M127.088,120.734C130.602,120.734,133.442,123.58,133.442,127.088C133.442,130.596,130.602,133.442,127.088,133.442L25.418,133.442C21.91,133.442,19.063,130.596,19.063,127.088C19.063,123.58,21.91,120.734,25.418,120.734L25.418,31.772C25.418,24.782,31.137,19.063,38.126,19.063L114.379,19.063C121.369,19.063,127.088,24.782,127.088,31.772L127.088,120.734ZM114.379,120.734L114.379,31.772L38.126,31.772L38.126,120.734L50.835,120.734L50.835,95.316L101.67,95.316L101.67,120.734L114.379,120.734ZM63.544,120.734L69.898,120.734L69.898,108.241L63.544,108.241L63.544,120.734ZM82.607,120.734L88.962,120.734L88.962,108.247L82.607,108.247L82.607,120.734ZM50.835,89L50.835,76.253L63.544,76.253L63.544,89L50.835,89ZM69.898,69.937L69.898,57.19L82.607,57.19L82.607,69.937L69.898,69.937ZM69.898,50.873L69.898,38.126L82.607,38.126L82.607,50.873L69.898,50.873ZM50.835,50.873L50.835,38.126L63.544,38.126L63.544,50.873L50.835,50.873ZM50.835,69.937L50.835,57.19L63.544,57.19L63.544,69.937L50.835,69.937ZM88.962,89L88.962,76.253L101.67,76.253L101.67,89L88.962,89ZM69.898,89L69.898,76.253L82.607,76.253L82.607,89L69.898,89ZM88.962,69.937L88.962,57.19L101.67,57.19L101.67,69.937L88.962,69.937ZM88.962,50.873L88.962,38.126L101.67,38.126L101.67,50.873L88.962,50.873ZM88.962,50.873"/>
</g>
  <g id="Heavy-L" transform="matrix(1.0,0.0,0.0,1.0,2561.7171899250206,1442.9921532547714)">  <path stroke-linecap="butt" fill-rule="evenodd" fill-opacity="1" clip-rule="evenodd" stroke-linejoin="miter" fill="#000000" stroke-width="1px" stroke-miterlimit="4" stroke-opacity="1" stroke-dasharray="none" stroke="none" d="M127.088,120.734C130.602,120.734,133.442,123.58,133.442,127.088C133.442,130.596,130.602,133.442,127.088,133.442L25.418,133.442C21.91,133.442,19.063,130.596,19.063,127.088C19.063,123.58,21.91,120.734,25.418,120.734L25.418,31.772C25.418,24.782,31.137,19.063,38.126,19.063L114.379,19.063C121.369,19.063,127.088,24.782,127.088,31.772L127.088,120.734ZM114.379,120.734L114.379,31.772L38.126,31.772L38.126,120.734L50.835,120.734L50.835,95.316L101.67,95.316L101.67,120.734L114.379,120.734ZM63.544,120.734L69.898,120.734L69.898,108.241L63.544,108.241L63.544,120.734ZM82.607,120.734L88.962,120.734L88.962,108.247L82.607,108.247L82.607,120.734ZM50.835,89L50.835,76.253L63.544,76.253L63.544,89L50.835,89ZM69.898,69.937L69.898,57.19L82.607,57.19L82.607,69.937L69.898,69.937ZM69.898,50.873L69.898,38.126L82.607,38.126L82.607,50.873L69.898,50.873ZM50.835,50.873L50.835,38.126L63.544,38.126L63.544,50.873L50.835,50.873ZM50.835,69.937L50.835,57.19L63.544,57.19L63.544,69.937L50.835,69.937ZM88.962,89L88.962,76.253L101.67,76.253L101.67,89L88.962,89ZM69.898,89L69.898,76.253L82.607,76.253L82.607,89L69.898,89ZM88.962,69.937L88.962,57.19L101.67,57.19L101.67,69.937L88.962,69.937ZM88.962,50.873L88.962,38.126L101.67,38.126L101.67,50.873L88.962,50.873ZM88.962,50.873"/>
</g>
  <g id="Bold-L" transform="matrix(1.0,0.0,0.0,1.0,2265.0071899250206,1442.9921532547714)">  <path stroke-miterlimit="4" stroke-linejoin="miter" fill-rule="evenodd" stroke-width="1px" stroke-linecap="butt" stroke-dasharray="none" fill-opacity="1" fill="#000000" clip-rule="evenodd" stroke="none" stroke-opacity="1" d="M127.088,120.734C130.602,120.734,133.442,123.58,133.442,127.088C133.442,130.596,130.602,133.442,127.088,133.442L25.418,133.442C21.91,133.442,19.063,130.596,19.063,127.088C19.063,123.58,21.91,120.734,25.418,120.734L25.418,31.772C25.418,24.782,31.137,19.063,38.126,19.063L114.379,19.063C121.369,19.063,127.088,24.782,127.088,31.772L127.088,120.734ZM114.379,120.734L114.379,31.772L38.126,31.772L38.126,120.734L50.835,120.734L50.835,95.316L101.67,95.316L101.67,120.734L114.379,120.734ZM63.544,120.734L69.898,120.734L69.898,108.241L63.544,108.241L63.544,120.734ZM82.607,120.734L88.962,120.734L88.962,108.247L82.607,108.247L82.607,120.734ZM50.835,89L50.835,76.253L63.544,76.253L63.544,89L50.835,89ZM69.898,69.937L69.898,57.19L82.607,57.19L82.607,69.937L69.898,69.937ZM69.898,50.873L69.898,38.126L82.607,38.126L82.607,50.873L69.898,50.873ZM50.835,50.873L50.835,38.126L63.544,38.126L63.544,50.873L50.835,50.873ZM50.835,69.937L50.835,57.19L63.544,57.19L63.544,69.937L50.835,69.937ZM88.962,89L88.962,76.253L101.67,76.253L101.67,89L88.962,89ZM69.898,89L69.898,76.253L82.607,76.253L82.607,89L69.898,89ZM88.962,69.937L88.962,57.19L101.67,57.19L101.67,69.937L88.962,69.937ZM88.962,50.873L88.962,38.126L101.67,38.126L101.67,50.873L88.962,50.873ZM88.962,50.873"/>
</g>
  <g id="Semibold-L" transform="matrix(1.0,0.0,0.0,1.0,1968.297189925021,1442.9921532547714)">  <path fill="#000000" stroke-miterlimit="4" stroke-opacity="1" stroke-linejoin="miter" fill-opacity="1" fill-rule="evenodd" stroke-width="1px" stroke-linecap="butt" stroke-dasharray="none" stroke="none" clip-rule="evenodd" d="M127.088,120.734C130.602,120.734,133.442,123.58,133.442,127.088C133.442,130.596,130.602,133.442,127.088,133.442L25.418,133.442C21.91,133.442,19.063,130.596,19.063,127.088C19.063,123.58,21.91,120.734,25.418,120.734L25.418,31.772C25.418,24.782,31.137,19.063,38.126,19.063L114.379,19.063C121.369,19.063,127.088,24.782,127.088,31.772L127.088,120.734ZM114.379,120.734L114.379,31.772L38.126,31.772L38.126,120.734L50.835,120.734L50.835,95.316L101.67,95.316L101.67,120.734L114.379,120.734ZM63.544,120.734L69.898,120.734L69.898,108.241L63.544,108.241L63.544,120.734ZM82.607,120.734L88.962,120.734L88.962,108.247L82.607,108.247L82.607,120.734ZM50.835,89L50.835,76.253L63.544,76.253L63.544,89L50.835,89ZM69.898,69.937L69.898,57.19L82.607,57.19L82.607,69.937L69.898,69.937ZM69.898,50.873L69.898,38.126L82.607,38.126L82.607,50.873L69.898,50.873ZM50.835,50.873L50.835,38.126L63.544,38.126L63.544,50.873L50.835,50.873ZM50.835,69.937L50.835,57.19L63.544,57.19L63.544,69.937L50.835,69.937ZM88.962,89L88.962,76.253L101.67,76.253L101.67,89L88.962,89ZM69.898,89L69.898,76.253L82.607,76.253L82.607,89L69.898,89ZM88.962,69.937L88.962,57.19L101.67,57.19L101.67,69.937L88.962,69.937ZM88.962,50.873L88.962,38.126L101.67,38.126L101.67,50.873L88.962,50.873ZM88.962,50.873"/>
</g>
  <g id="Medium-L" transform="matrix(1.0,0.0,0.0,1.0,1671.587189925021,1442.9921532547714)">  <path fill-rule="evenodd" clip-rule="evenodd" fill="#000000" stroke-linecap="butt" stroke-miterlimit="4" stroke-dasharray="none" stroke="none" fill-opacity="1" stroke-width="1px" stroke-opacity="1" stroke-linejoin="miter" d="M127.088,120.734C130.602,120.734,133.442,123.58,133.442,127.088C133.442,130.596,130.602,133.442,127.088,133.442L25.418,133.442C21.91,133.442,19.063,130.596,19.063,127.088C19.063,123.58,21.91,120.734,25.418,120.734L25.418,31.772C25.418,24.782,31.137,19.063,38.126,19.063L114.379,19.063C121.369,19.063,127.088,24.782,127.088,31.772L127.088,120.734ZM114.379,120.734L114.379,31.772L38.126,31.772L38.126,120.734L50.835,120.734L50.835,95.316L101.67,95.316L101.67,120.734L114.379,120.734ZM63.544,120.734L69.898,120.734L69.898,108.241L63.544,108.241L63.544,120.734ZM82.607,120.734L88.962,120.734L88.962,108.247L82.607,108.247L82.607,120.734ZM50.835,89L50.835,76.253L63.544,76.253L63.544,89L50.835,89ZM69.898,69.937L69.898,57.19L82.607,57.19L82.607,69.937L69.898,69.937ZM69.898,50.873L69.898,38.126L82.607,38.126L82.607,50.873L69.898,50.873ZM50.835,50.873L50.835,38.126L63.544,38.126L63.544,50.873L50.835,50.873ZM50.835,69.937L50.835,57.19L63.544,57.19L63.544,69.937L50.835,69.937ZM88.962,89L88.962,76.253L101.67,76.253L101.67,89L88.962,89ZM69.898,89L69.898,76.253L82.607,76.253L82.607,89L69.898,89ZM88.962,69.937L88.962,57.19L101.67,57.19L101.67,69.937L88.962,69.937ZM88.962,50.873L88.962,38.126L101.67,38.126L101.67,50.873L88.962,50.873ZM88.962,50.873"/>
</g>
  <g id="Regular-L" transform="matrix(1.0,0.0,0.0,1.0,1374.877189925021,1442.9921532547714)">  <path stroke-width="1px" fill="#000000" stroke-miterlimit="4" stroke-linejoin="miter" stroke-opacity="1" fill-opacity="1" stroke="none" stroke-dasharray="none" clip-rule="evenodd" fill-rule="evenodd" stroke-linecap="butt" d="M127.088,120.734C130.602,120.734,133.442,123.58,133.442,127.088C133.442,130.596,130.602,133.442,127.088,133.442L25.418,133.442C21.91,133.442,19.063,130.596,19.063,127.088C19.063,123.58,21.91,120.734,25.418,120.734L25.418,31.772C25.418,24.782,31.137,19.063,38.126,19.063L114.379,19.063C121.369,19.063,127.088,24.782,127.088,31.772L127.088,120.734ZM114.379,120.734L114.379,31.772L38.126,31.772L38.126,120.734L50.835,120.734L50.835,95.316L101.67,95.316L101.67,120.734L114.379,120.734ZM63.544,120.734L69.898,120.734L69.898,108.241L63.544,108.241L63.544,120.734ZM82.607,120.734L88.962,120.734L88.962,108.247L82.607,108.247L82.607,120.734ZM50.835,89L50.835,76.253L63.544,76.253L63.544,89L50.835,89ZM69.898,69.937L69.898,57.19L82.607,57.19L82.607,69.937L69.898,69.937ZM69.898,50.873L69.898,38.126L82.607,38.126L82.607,50.873L69.898,50.873ZM50.835,50.873L50.835,38.126L63.544,38.126L63.544,50.873L50.835,50.873ZM50.835,69.937L50.835,57.19L63.544,57.19L63.544,69.937L50.835,69.937ZM88.962,89L88.962,76.253L101.67,76.253L101.67,89L88.962,89ZM69.898,89L69.898,76.253L82.607,76.253L82.607,89L69.898,89ZM88.962,69.937L88.962,57.19L101.67,57.19L101.67,69.937L88.962,69.937ZM88.962,50.873L88.962,38.126L101.67,38.126L101.67,50.873L88.962,50.873ZM88.962,50.873"/>
</g>
  <g id="Light-L" transform="matrix(1.0,0.0,0.0,1.0,1078.1671899250211,1442.9921532547714)">  <path stroke-opacity="1" fill="#000000" stroke-miterlimit="4" stroke="none" stroke-dasharray="none" fill-rule="evenodd" stroke-linecap="butt" stroke-width="1px" stroke-linejoin="miter" fill-opacity="1" clip-rule="evenodd" d="M127.088,120.734C130.602,120.734,133.442,123.58,133.442,127.088C133.442,130.596,130.602,133.442,127.088,133.442L25.418,133.442C21.91,133.442,19.063,130.596,19.063,127.088C19.063,123.58,21.91,120.734,25.418,120.734L25.418,31.772C25.418,24.782,31.137,19.063,38.126,19.063L114.379,19.063C121.369,19.063,127.088,24.782,127.088,31.772L127.088,120.734ZM114.379,120.734L114.379,31.772L38.126,31.772L38.126,120.734L50.835,120.734L50.835,95.316L101.67,95.316L101.67,120.734L114.379,120.734ZM63.544,120.734L69.898,120.734L69.898,108.241L63.544,108.241L63.544,120.734ZM82.607,120.734L88.962,120.734L88.962,108.247L82.607,108.247L82.607,120.734ZM50.835,89L50.835,76.253L63.544,76.253L63.544,89L50.835,89ZM69.898,69.937L69.898,57.19L82.607,57.19L82.607,69.937L69.898,69.937ZM69.898,50.873L69.898,38.126L82.607,38.126L82.607,50.873L69.898,50.873ZM50.835,50.873L50.835,38.126L63.544,38.126L63.544,50.873L50.835,50.873ZM50.835,69.937L50.835,57.19L63.544,57.19L63.544,69.937L50.835,69.937ZM88.962,89L88.962,76.253L101.67,76.253L101.67,89L88.962,89ZM69.898,89L69.898,76.253L82.607,76.253L82.607,89L69.898,89ZM88.962,69.937L88.962,57.19L101.67,57.19L101.67,69.937L88.962,69.937ZM88.962,50.873L88.962,38.126L101.67,38.126L101.67,50.873L88.962,50.873ZM88.962,50.873"/>
</g>
  <g id="Thin-L" transform="matrix(1.0,0.0,0.0,1.0,781.457189925021,1442.9921532547714)">  <path stroke-width="1px" fill="#000000" stroke-opacity="1" stroke="none" fill-opacity="1" stroke-miterlimit="4" stroke-dasharray="none" fill-rule="evenodd" stroke-linecap="butt" clip-rule="evenodd" stroke-linejoin="miter" d="M127.088,120.734C130.602,120.734,133.442,123.58,133.442,127.088C133.442,130.596,130.602,133.442,127.088,133.442L25.418,133.442C21.91,133.442,19.063,130.596,19.063,127.088C19.063,123.58,21.91,120.734,25.418,120.734L25.418,31.772C25.418,24.782,31.137,19.063,38.126,19.063L114.379,19.063C121.369,19.063,127.088,24.782,127.088,31.772L127.088,120.734ZM114.379,120.734L114.379,31.772L38.126,31.772L38.126,120.734L50.835,120.734L50.835,95.316L101.67,95.316L101.67,120.734L114.379,120.734ZM63.544,120.734L69.898,120.734L69.898,108.241L63.544,108.241L63.544,120.734ZM82.607,120.734L88.962,120.734L88.962,108.247L82.607,108.247L82.607,120.734ZM50.835,89L50.835,76.253L63.544,76.253L63.544,89L50.835,89ZM69.898,69.937L69.898,57.19L82.607,57.19L82.607,69.937L69.898,69.937ZM69.898,50.873L69.898,38.126L82.607,38.126L82.607,50.873L69.898,50.873ZM50.835,50.873L50.835,38.126L63.544,38.126L63.544,50.873L50.835,50.873ZM50.835,69.937L50.835,57.19L63.544,57.19L63.544,69.937L50.835,69.937ZM88.962,89L88.962,76.253L101.67,76.253L101.67,89L88.962,89ZM69.898,89L69.898,76.253L82.607,76.253L82.607,89L69.898,89ZM88.962,69.937L88.962,57.19L101.67,57.19L101.67,69.937L88.962,69.937ZM88.962,50.873L88.962,38.126L101.67,38.126L101.67,50.873L88.962,50.873ZM88.962,50.873"/>
</g>
  <g id="Ultralight-L" transform="matrix(1.0,0.0,0.0,1.0,484.74718992502096,1442.9921532547714)">  <path stroke="none" stroke-linecap="butt" stroke-opacity="1" fill-rule="evenodd" stroke-dasharray="none" clip-rule="evenodd" fill-opacity="1" stroke-width="1px" fill="#000000" stroke-miterlimit="4" stroke-linejoin="miter" d="M127.088,120.734C130.602,120.734,133.442,123.58,133.442,127.088C133.442,130.596,130.602,133.442,127.088,133.442L25.418,133.442C21.91,133.442,19.063,130.596,19.063,127.088C19.063,123.58,21.91,120.734,25.418,120.734L25.418,31.772C25.418,24.782,31.137,19.063,38.126,19.063L114.379,19.063C121.369,19.063,127.088,24.782,127.088,31.772L127.088,120.734ZM114.379,120.734L114.379,31.772L38.126,31.772L38.126,120.734L50.835,120.734L50.835,95.316L101.67,95.316L101.67,120.734L114.379,120.734ZM63.544,120.734L69.898,120.734L69.898,108.241L63.544,108.241L63.544,120.734ZM82.607,120.734L88.962,120.734L88.962,108.247L82.607,108.247L82.607,120.734ZM50.835,89L50.835,76.253L63.544,76.253L63.544,89L50.835,89ZM69.898,69.937L69.898,57.19L82.607,57.19L82.607,69.937L69.898,69.937ZM69.898,50.873L69.898,38.126L82.607,38.126L82.607,50.873L69.898,50.873ZM50.835,50.873L50.835,38.126L63.544,38.126L63.544,50.873L50.835,50.873ZM50.835,69.937L50.835,57.19L63.544,57.19L63.544,69.937L50.835,69.937ZM88.962,89L88.962,76.253L101.67,76.253L101.67,89L88.962,89ZM69.898,89L69.898,76.253L82.607,76.253L82.607,89L69.898,89ZM88.962,69.937L88.962,57.19L101.67,57.19L101.67,69.937L88.962,69.937ZM88.962,50.873L88.962,38.126L101.67,38.126L101.67,50.873L88.962,50.873ZM88.962,50.873"/>
</g>
  <g id="Black-M" transform="matrix(1.0,0.0,0.0,1.0,2875.56929451552,1030.4770999370805)">  <path fill-opacity="1" stroke-linecap="butt" stroke-miterlimit="4" stroke-opacity="1" stroke-width="1px" fill="#000000" clip-rule="evenodd" stroke="none" fill-rule="evenodd" stroke-linejoin="miter" stroke-dasharray="none" d="M98.518,93.592C101.242,93.592,103.444,95.799,103.444,98.518C103.444,101.237,101.242,103.444,98.518,103.444L19.704,103.444C16.984,103.444,14.778,101.237,14.778,98.518C14.778,95.799,16.984,93.592,19.704,93.592L19.704,24.629C19.704,19.211,24.137,14.778,29.555,14.778L88.666,14.778C94.085,14.778,98.518,19.211,98.518,24.629L98.518,93.592ZM88.666,93.592L88.666,24.629L29.555,24.629L29.555,93.592L39.407,93.592L39.407,73.888L78.814,73.888L78.814,93.592L88.666,93.592ZM49.259,93.592L54.185,93.592L54.185,83.908L49.259,83.908L49.259,93.592ZM64.037,93.592L68.962,93.592L68.962,83.913L64.037,83.913L64.037,93.592ZM39.407,68.992L39.407,59.111L49.259,59.111L49.259,68.992L39.407,68.992ZM54.185,54.214L54.185,44.333L64.037,44.333L64.037,54.214L54.185,54.214ZM54.185,39.437L54.185,29.555L64.037,29.555L64.037,39.437L54.185,39.437ZM39.407,39.437L39.407,29.555L49.259,29.555L49.259,39.437L39.407,39.437ZM39.407,54.214L39.407,44.333L49.259,44.333L49.259,54.214L39.407,54.214ZM68.962,68.992L68.962,59.111L78.814,59.111L78.814,68.992L68.962,68.992ZM54.185,68.992L54.185,59.111L64.037,59.111L64.037,68.992L54.185,68.992ZM68.962,54.214L68.962,44.333L78.814,44.333L78.814,54.214L68.962,54.214ZM68.962,39.437L68.962,29.555L78.814,29.555L78.814,39.437L68.962,39.437ZM68.962,39.437"/>
</g>
  <g id="Heavy-M" transform="matrix(1.0,0.0,0.0,1.0,2578.85929451552,1030.4770999370805)">  <path stroke-linecap="butt" fill-rule="evenodd" fill-opacity="1" clip-rule="evenodd" stroke-linejoin="miter" fill="#000000" stroke-width="1px" stroke-miterlimit="4" stroke-opacity="1" stroke-dasharray="none" stroke="none" d="M98.518,93.592C101.242,93.592,103.444,95.799,103.444,98.518C103.444,101.237,101.242,103.444,98.518,103.444L19.704,103.444C16.984,103.444,14.778,101.237,14.778,98.518C14.778,95.799,16.984,93.592,19.704,93.592L19.704,24.629C19.704,19.211,24.137,14.778,29.555,14.778L88.666,14.778C94.085,14.778,98.518,19.211,98.518,24.629L98.518,93.592ZM88.666,93.592L88.666,24.629L29.555,24.629L29.555,93.592L39.407,93.592L39.407,73.888L78.814,73.888L78.814,93.592L88.666,93.592ZM49.259,93.592L54.185,93.592L54.185,83.908L49.259,83.908L49.259,93.592ZM64.037,93.592L68.962,93.592L68.962,83.913L64.037,83.913L64.037,93.592ZM39.407,68.992L39.407,59.111L49.259,59.111L49.259,68.992L39.407,68.992ZM54.185,54.214L54.185,44.333L64.037,44.333L64.037,54.214L54.185,54.214ZM54.185,39.437L54.185,29.555L64.037,29.555L64.037,39.437L54.185,39.437ZM39.407,39.437L39.407,29.555L49.259,29.555L49.259,39.437L39.407,39.437ZM39.407,54.214L39.407,44.333L49.259,44.333L49.259,54.214L39.407,54.214ZM68.962,68.992L68.962,59.111L78.814,59.111L78.814,68.992L68.962,68.992ZM54.185,68.992L54.185,59.111L64.037,59.111L64.037,68.992L54.185,68.992ZM68.962,54.214L68.962,44.333L78.814,44.333L78.814,54.214L68.962,54.214ZM68.962,39.437L68.962,29.555L78.814,29.555L78.814,39.437L68.962,39.437ZM68.962,39.437"/>
</g>
  <g id="Bold-M" transform="matrix(1.0,0.0,0.0,1.0,2282.14929451552,1030.4770999370805)">  <path stroke-miterlimit="4" stroke-linejoin="miter" fill-rule="evenodd" stroke-width="1px" stroke-linecap="butt" stroke-dasharray="none" fill-opacity="1" fill="#000000" clip-rule="evenodd" stroke="none" stroke-opacity="1" d="M98.518,93.592C101.242,93.592,103.444,95.799,103.444,98.518C103.444,101.237,101.242,103.444,98.518,103.444L19.704,103.444C16.984,103.444,14.778,101.237,14.778,98.518C14.778,95.799,16.984,93.592,19.704,93.592L19.704,24.629C19.704,19.211,24.137,14.778,29.555,14.778L88.666,14.778C94.085,14.778,98.518,19.211,98.518,24.629L98.518,93.592ZM88.666,93.592L88.666,24.629L29.555,24.629L29.555,93.592L39.407,93.592L39.407,73.888L78.814,73.888L78.814,93.592L88.666,93.592ZM49.259,93.592L54.185,93.592L54.185,83.908L49.259,83.908L49.259,93.592ZM64.037,93.592L68.962,93.592L68.962,83.913L64.037,83.913L64.037,93.592ZM39.407,68.992L39.407,59.111L49.259,59.111L49.259,68.992L39.407,68.992ZM54.185,54.214L54.185,44.333L64.037,44.333L64.037,54.214L54.185,54.214ZM54.185,39.437L54.185,29.555L64.037,29.555L64.037,39.437L54.185,39.437ZM39.407,39.437L39.407,29.555L49.259,29.555L49.259,39.437L39.407,39.437ZM39.407,54.214L39.407,44.333L49.259,44.333L49.259,54.214L39.407,54.214ZM68.962,68.992L68.962,59.111L78.814,59.111L78.814,68.992L68.962,68.992ZM54.185,68.992L54.185,59.111L64.037,59.111L64.037,68.992L54.185,68.992ZM68.962,54.214L68.962,44.333L78.814,44.333L78.814,54.214L68.962,54.214ZM68.962,39.437L68.962,29.555L78.814,29.555L78.814,39.437L68.962,39.437ZM68.962,39.437"/>
</g>
  <g id="Semibold-M" transform="matrix(1.0,0.0,0.0,1.0,1985.43929451552,1030.4770999370805)">  <path fill="#000000" stroke-miterlimit="4" stroke-opacity="1" stroke-linejoin="miter" fill-opacity="1" fill-rule="evenodd" stroke-width="1px" stroke-linecap="butt" stroke-dasharray="none" stroke="none" clip-rule="evenodd" d="M98.518,93.592C101.242,93.592,103.444,95.799,103.444,98.518C103.444,101.237,101.242,103.444,98.518,103.444L19.704,103.444C16.984,103.444,14.778,101.237,14.778,98.518C14.778,95.799,16.984,93.592,19.704,93.592L19.704,24.629C19.704,19.211,24.137,14.778,29.555,14.778L88.666,14.778C94.085,14.778,98.518,19.211,98.518,24.629L98.518,93.592ZM88.666,93.592L88.666,24.629L29.555,24.629L29.555,93.592L39.407,93.592L39.407,73.888L78.814,73.888L78.814,93.592L88.666,93.592ZM49.259,93.592L54.185,93.592L54.185,83.908L49.259,83.908L49.259,93.592ZM64.037,93.592L68.962,93.592L68.962,83.913L64.037,83.913L64.037,93.592ZM39.407,68.992L39.407,59.111L49.259,59.111L49.259,68.992L39.407,68.992ZM54.185,54.214L54.185,44.333L64.037,44.333L64.037,54.214L54.185,54.214ZM54.185,39.437L54.185,29.555L64.037,29.555L64.037,39.437L54.185,39.437ZM39.407,39.437L39.407,29.555L49.259,29.555L49.259,39.437L39.407,39.437ZM39.407,54.214L39.407,44.333L49.259,44.333L49.259,54.214L39.407,54.214ZM68.962,68.992L68.962,59.111L78.814,59.111L78.814,68.992L68.962,68.992ZM54.185,68.992L54.185,59.111L64.037,59.111L64.037,68.992L54.185,68.992ZM68.962,54.214L68.962,44.333L78.814,44.333L78.814,54.214L68.962,54.214ZM68.962,39.437L68.962,29.555L78.814,29.555L78.814,39.437L68.962,39.437ZM68.962,39.437"/>
</g>
  <g id="Medium-M" transform="matrix(1.0,0.0,0.0,1.0,1688.72929451552,1030.4770999370805)">  <path fill-rule="evenodd" clip-rule="evenodd" fill="#000000" stroke-linecap="butt" stroke-miterlimit="4" stroke-dasharray="none" stroke="none" fill-opacity="1" stroke-width="1px" stroke-opacity="1" stroke-linejoin="miter" d="M98.518,93.592C101.242,93.592,103.444,95.799,103.444,98.518C103.444,101.237,101.242,103.444,98.518,103.444L19.704,103.444C16.984,103.444,14.778,101.237,14.778,98.518C14.778,95.799,16.984,93.592,19.704,93.592L19.704,24.629C19.704,19.211,24.137,14.778,29.555,14.778L88.666,14.778C94.085,14.778,98.518,19.211,98.518,24.629L98.518,93.592ZM88.666,93.592L88.666,24.629L29.555,24.629L29.555,93.592L39.407,93.592L39.407,73.888L78.814,73.888L78.814,93.592L88.666,93.592ZM49.259,93.592L54.185,93.592L54.185,83.908L49.259,83.908L49.259,93.592ZM64.037,93.592L68.962,93.592L68.962,83.913L64.037,83.913L64.037,93.592ZM39.407,68.992L39.407,59.111L49.259,59.111L49.259,68.992L39.407,68.992ZM54.185,54.214L54.185,44.333L64.037,44.333L64.037,54.214L54.185,54.214ZM54.185,39.437L54.185,29.555L64.037,29.555L64.037,39.437L54.185,39.437ZM39.407,39.437L39.407,29.555L49.259,29.555L49.259,39.437L39.407,39.437ZM39.407,54.214L39.407,44.333L49.259,44.333L49.259,54.214L39.407,54.214ZM68.962,68.992L68.962,59.111L78.814,59.111L78.814,68.992L68.962,68.992ZM54.185,68.992L54.185,59.111L64.037,59.111L64.037,68.992L54.185,68.992ZM68.962,54.214L68.962,44.333L78.814,44.333L78.814,54.214L68.962,54.214ZM68.962,39.437L68.962,29.555L78.814,29.555L78.814,39.437L68.962,39.437ZM68.962,39.437"/>
</g>
  <g id="Regular-M" transform="matrix(1.0,0.0,0.0,1.0,1392.01929451552,1030.4770999370805)">  <path stroke-width="1px" fill="#000000" stroke-miterlimit="4" stroke-linejoin="miter" stroke-opacity="1" fill-opacity="1" stroke="none" stroke-dasharray="none" clip-rule="evenodd" fill-rule="evenodd" stroke-linecap="butt" d="M98.518,93.592C101.242,93.592,103.444,95.799,103.444,98.518C103.444,101.237,101.242,103.444,98.518,103.444L19.704,103.444C16.984,103.444,14.778,101.237,14.778,98.518C14.778,95.799,16.984,93.592,19.704,93.592L19.704,24.629C19.704,19.211,24.137,14.778,29.555,14.778L88.666,14.778C94.085,14.778,98.518,19.211,98.518,24.629L98.518,93.592ZM88.666,93.592L88.666,24.629L29.555,24.629L29.555,93.592L39.407,93.592L39.407,73.888L78.814,73.888L78.814,93.592L88.666,93.592ZM49.259,93.592L54.185,93.592L54.185,83.908L49.259,83.908L49.259,93.592ZM64.037,93.592L68.962,93.592L68.962,83.913L64.037,83.913L64.037,93.592ZM39.407,68.992L39.407,59.111L49.259,59.111L49.259,68.992L39.407,68.992ZM54.185,54.214L54.185,44.333L64.037,44.333L64.037,54.214L54.185,54.214ZM54.185,39.437L54.185,29.555L64.037,29.555L64.037,39.437L54.185,39.437ZM39.407,39.437L39.407,29.555L49.259,29.555L49.259,39.437L39.407,39.437ZM39.407,54.214L39.407,44.333L49.259,44.333L49.259,54.214L39.407,54.214ZM68.962,68.992L68.962,59.111L78.814,59.111L78.814,68.992L68.962,68.992ZM54.185,68.992L54.185,59.111L64.037,59.111L64.037,68.992L54.185,68.992ZM68.962,54.214L68.962,44.333L78.814,44.333L78.814,54.214L68.962,54.214ZM68.962,39.437L68.962,29.555L78.814,29.555L78.814,39.437L68.962,39.437ZM68.962,39.437"/>
</g>
  <g id="Light-M" transform="matrix(1.0,0.0,0.0,1.0,1095.3092945155202,1030.4770999370805)">  <path stroke-opacity="1" fill="#000000" stroke-miterlimit="4" stroke="none" stroke-dasharray="none" fill-rule="evenodd" stroke-linecap="butt" stroke-width="1px" stroke-linejoin="miter" fill-opacity="1" clip-rule="evenodd" d="M98.518,93.592C101.242,93.592,103.444,95.799,103.444,98.518C103.444,101.237,101.242,103.444,98.518,103.444L19.704,103.444C16.984,103.444,14.778,101.237,14.778,98.518C14.778,95.799,16.984,93.592,19.704,93.592L19.704,24.629C19.704,19.211,24.137,14.778,29.555,14.778L88.666,14.778C94.085,14.778,98.518,19.211,98.518,24.629L98.518,93.592ZM88.666,93.592L88.666,24.629L29.555,24.629L29.555,93.592L39.407,93.592L39.407,73.888L78.814,73.888L78.814,93.592L88.666,93.592ZM49.259,93.592L54.185,93.592L54.185,83.908L49.259,83.908L49.259,93.592ZM64.037,93.592L68.962,93.592L68.962,83.913L64.037,83.913L64.037,93.592ZM39.407,68.992L39.407,59.111L49.259,59.111L49.259,68.992L39.407,68.992ZM54.185,54.214L54.185,44.333L64.037,44.333L64.037,54.214L54.185,54.214ZM54.185,39.437L54.185,29.555L64.037,29.555L64.037,39.437L54.185,39.437ZM39.407,39.437L39.407,29.555L49.259,29.555L49.259,39.437L39.407,39.437ZM39.407,54.214L39.407,44.333L49.259,44.333L49.259,54.214L39.407,54.214ZM68.962,68.992L68.962,59.111L78.814,59.111L78.814,68.992L68.962,68.992ZM54.185,68.992L54.185,59.111L64.037,59.111L64.037,68.992L54.185,68.992ZM68.962,54.214L68.962,44.333L78.814,44.333L78.814,54.214L68.962,54.214ZM68.962,39.437L68.962,29.555L78.814,29.555L78.814,39.437L68.962,39.437ZM68.962,39.437"/>
</g>
  <g id="Thin-M" transform="matrix(1.0,0.0,0.0,1.0,798.5992945155201,1030.4770999370805)">  <path stroke-width="1px" fill="#000000" stroke-opacity="1" stroke="none" fill-opacity="1" stroke-miterlimit="4" stroke-dasharray="none" fill-rule="evenodd" stroke-linecap="butt" clip-rule="evenodd" stroke-linejoin="miter" d="M98.518,93.592C101.242,93.592,103.444,95.799,103.444,98.518C103.444,101.237,101.242,103.444,98.518,103.444L19.704,103.444C16.984,103.444,14.778,101.237,14.778,98.518C14.778,95.799,16.984,93.592,19.704,93.592L19.704,24.629C19.704,19.211,24.137,14.778,29.555,14.778L88.666,14.778C94.085,14.778,98.518,19.211,98.518,24.629L98.518,93.592ZM88.666,93.592L88.666,24.629L29.555,24.629L29.555,93.592L39.407,93.592L39.407,73.888L78.814,73.888L78.814,93.592L88.666,93.592ZM49.259,93.592L54.185,93.592L54.185,83.908L49.259,83.908L49.259,93.592ZM64.037,93.592L68.962,93.592L68.962,83.913L64.037,83.913L64.037,93.592ZM39.407,68.992L39.407,59.111L49.259,59.111L49.259,68.992L39.407,68.992ZM54.185,54.214L54.185,44.333L64.037,44.333L64.037,54.214L54.185,54.214ZM54.185,39.437L54.185,29.555L64.037,29.555L64.037,39.437L54.185,39.437ZM39.407,39.437L39.407,29.555L49.259,29.555L49.259,39.437L39.407,39.437ZM39.407,54.214L39.407,44.333L49.259,44.333L49.259,54.214L39.407,54.214ZM68.962,68.992L68.962,59.111L78.814,59.111L78.814,68.992L68.962,68.992ZM54.185,68.992L54.185,59.111L64.037,59.111L64.037,68.992L54.185,68.992ZM68.962,54.214L68.962,44.333L78.814,44.333L78.814,54.214L68.962,54.214ZM68.962,39.437L68.962,29.555L78.814,29.555L78.814,39.437L68.962,39.437ZM68.962,39.437"/>
</g>
  <g id="Ultralight-M" transform="matrix(1.0,0.0,0.0,1.0,501.88929451552013,1030.4770999370805)">  <path stroke="none" stroke-linecap="butt" stroke-opacity="1" fill-rule="evenodd" stroke-dasharray="none" clip-rule="evenodd" fill-opacity="1" stroke-width="1px" fill="#000000" stroke-miterlimit="4" stroke-linejoin="miter" d="M98.518,93.592C101.242,93.592,103.444,95.799,103.444,98.518C103.444,101.237,101.242,103.444,98.518,103.444L19.704,103.444C16.984,103.444,14.778,101.237,14.778,98.518C14.778,95.799,16.984,93.592,19.704,93.592L19.704,24.629C19.704,19.211,24.137,14.778,29.555,14.778L88.666,14.778C94.085,14.778,98.518,19.211,98.518,24.629L98.518,93.592ZM88.666,93.592L88.666,24.629L29.555,24.629L29.555,93.592L39.407,93.592L39.407,73.888L78.814,73.888L78.814,93.592L88.666,93.592ZM49.259,93.592L54.185,93.592L54.185,83.908L49.259,83.908L49.259,93.592ZM64.037,93.592L68.962,93.592L68.962,83.913L64.037,83.913L64.037,93.592ZM39.407,68.992L39.407,59.111L49.259,59.111L49.259,68.992L39.407,68.992ZM54.185,54.214L54.185,44.333L64.037,44.333L64.037,54.214L54.185,54.214ZM54.185,39.437L54.185,29.555L64.037,29.555L64.037,39.437L54.185,39.437ZM39.407,39.437L39.407,29.555L49.259,29.555L49.259,39.437L39.407,39.437ZM39.407,54.214L39.407,44.333L49.259,44.333L49.259,54.214L39.407,54.214ZM68.962,68.992L68.962,59.111L78.814,59.111L78.814,68.992L68.962,68.992ZM54.185,68.992L54.185,59.111L64.037,59.111L64.037,68.992L54.185,68.992ZM68.962,54.214L68.962,44.333L78.814,44.333L78.814,54.214L68.962,54.214ZM68.962,39.437L68.962,29.555L78.814,29.555L78.814,39.437L68.962,39.437ZM68.962,39.437"/>
</g>
  <g id="Black-S" transform="matrix(1.0,0.0,0.0,1.0,2888.3963176056523,613.5606634890153)">  <path fill-opacity="1" stroke-linecap="butt" stroke-miterlimit="4" stroke-opacity="1" stroke-width="1px" fill="#000000" clip-rule="evenodd" stroke="none" fill-rule="evenodd" stroke-linejoin="miter" stroke-dasharray="none" d="M77.139,73.282C79.272,73.282,80.996,75.01,80.996,77.139C80.996,79.269,79.272,80.996,77.139,80.996L15.428,80.996C13.299,80.996,11.571,79.269,11.571,77.139C11.571,75.01,13.299,73.282,15.428,73.282L15.428,19.285C15.428,15.042,18.899,11.571,23.142,11.571L69.426,11.571C73.668,11.571,77.139,15.042,77.139,19.285L77.139,73.282ZM69.426,73.282L69.426,19.285L23.142,19.285L23.142,73.282L30.856,73.282L30.856,57.855L61.712,57.855L61.712,73.282L69.426,73.282ZM38.57,73.282L42.427,73.282L42.427,65.7L38.57,65.7L38.57,73.282ZM50.141,73.282L53.998,73.282L53.998,65.704L50.141,65.704L50.141,73.282ZM30.856,54.021L30.856,46.284L38.57,46.284L38.57,54.021L30.856,54.021ZM42.427,42.45L42.427,34.713L50.141,34.713L50.141,42.45L42.427,42.45ZM42.427,30.879L42.427,23.142L50.141,23.142L50.141,30.879L42.427,30.879ZM30.856,30.879L30.856,23.142L38.57,23.142L38.57,30.879L30.856,30.879ZM30.856,42.45L30.856,34.713L38.57,34.713L38.57,42.45L30.856,42.45ZM53.998,54.021L53.998,46.284L61.712,46.284L61.712,54.021L53.998,54.021ZM42.427,54.021L42.427,46.284L50.141,46.284L50.141,54.021L42.427,54.021ZM53.998,42.45L53.998,34.713L61.712,34.713L61.712,42.45L53.998,42.45ZM53.998,30.879L53.998,23.142L61.712,23.142L61.712,30.879L53.998,30.879ZM53.998,30.879"/>
</g>
  <g id="Heavy-S" transform="matrix(1.0,0.0,0.0,1.0,2591.686317605652,613.5606634890153)">  <path stroke-linecap="butt" fill-rule="evenodd" fill-opacity="1" clip-rule="evenodd" stroke-linejoin="miter" fill="#000000" stroke-width="1px" stroke-miterlimit="4" stroke-opacity="1" stroke-dasharray="none" stroke="none" d="M77.139,73.282C79.272,73.282,80.996,75.01,80.996,77.139C80.996,79.269,79.272,80.996,77.139,80.996L15.428,80.996C13.299,80.996,11.571,79.269,11.571,77.139C11.571,75.01,13.299,73.282,15.428,73.282L15.428,19.285C15.428,15.042,18.899,11.571,23.142,11.571L69.426,11.571C73.668,11.571,77.139,15.042,77.139,19.285L77.139,73.282ZM69.426,73.282L69.426,19.285L23.142,19.285L23.142,73.282L30.856,73.282L30.856,57.855L61.712,57.855L61.712,73.282L69.426,73.282ZM38.57,73.282L42.427,73.282L42.427,65.7L38.57,65.7L38.57,73.282ZM50.141,73.282L53.998,73.282L53.998,65.704L50.141,65.704L50.141,73.282ZM30.856,54.021L30.856,46.284L38.57,46.284L38.57,54.021L30.856,54.021ZM42.427,42.45L42.427,34.713L50.141,34.713L50.141,42.45L42.427,42.45ZM42.427,30.879L42.427,23.142L50.141,23.142L50.141,30.879L42.427,30.879ZM30.856,30.879L30.856,23.142L38.57,23.142L38.57,30.879L30.856,30.879ZM30.856,42.45L30.856,34.713L38.57,34.713L38.57,42.45L30.856,42.45ZM53.998,54.021L53.998,46.284L61.712,46.284L61.712,54.021L53.998,54.021ZM42.427,54.021L42.427,46.284L50.141,46.284L50.141,54.021L42.427,54.021ZM53.998,42.45L53.998,34.713L61.712,34.713L61.712,42.45L53.998,42.45ZM53.998,30.879L53.998,23.142L61.712,23.142L61.712,30.879L53.998,30.879ZM53.998,30.879"/>
</g>
  <g id="Bold-S" transform="matrix(1.0,0.0,0.0,1.0,2294.976317605652,613.5606634890153)">  <path stroke-miterlimit="4" stroke-linejoin="miter" fill-rule="evenodd" stroke-width="1px" stroke-linecap="butt" stroke-dasharray="none" fill-opacity="1" fill="#000000" clip-rule="evenodd" stroke="none" stroke-opacity="1" d="M77.139,73.282C79.272,73.282,80.996,75.01,80.996,77.139C80.996,79.269,79.272,80.996,77.139,80.996L15.428,80.996C13.299,80.996,11.571,79.269,11.571,77.139C11.571,75.01,13.299,73.282,15.428,73.282L15.428,19.285C15.428,15.042,18.899,11.571,23.142,11.571L69.426,11.571C73.668,11.571,77.139,15.042,77.139,19.285L77.139,73.282ZM69.426,73.282L69.426,19.285L23.142,19.285L23.142,73.282L30.856,73.282L30.856,57.855L61.712,57.855L61.712,73.282L69.426,73.282ZM38.57,73.282L42.427,73.282L42.427,65.7L38.57,65.7L38.57,73.282ZM50.141,73.282L53.998,73.282L53.998,65.704L50.141,65.704L50.141,73.282ZM30.856,54.021L30.856,46.284L38.57,46.284L38.57,54.021L30.856,54.021ZM42.427,42.45L42.427,34.713L50.141,34.713L50.141,42.45L42.427,42.45ZM42.427,30.879L42.427,23.142L50.141,23.142L50.141,30.879L42.427,30.879ZM30.856,30.879L30.856,23.142L38.57,23.142L38.57,30.879L30.856,30.879ZM30.856,42.45L30.856,34.713L38.57,34.713L38.57,42.45L30.856,42.45ZM53.998,54.021L53.998,46.284L61.712,46.284L61.712,54.021L53.998,54.021ZM42.427,54.021L42.427,46.284L50.141,46.284L50.141,54.021L42.427,54.021ZM53.998,42.45L53.998,34.713L61.712,34.713L61.712,42.45L53.998,42.45ZM53.998,30.879L53.998,23.142L61.712,23.142L61.712,30.879L53.998,30.879ZM53.998,30.879"/>
</g>
  <g id="Semibold-S" transform="matrix(1.0,0.0,0.0,1.0,1998.2663176056521,613.5606634890153)">  <path fill="#000000" stroke-miterlimit="4" stroke-opacity="1" stroke-linejoin="miter" fill-opacity="1" fill-rule="evenodd" stroke-width="1px" stroke-linecap="butt" stroke-dasharray="none" stroke="none" clip-rule="evenodd" d="M77.139,73.282C79.272,73.282,80.996,75.01,80.996,77.139C80.996,79.269,79.272,80.996,77.139,80.996L15.428,80.996C13.299,80.996,11.571,79.269,11.571,77.139C11.571,75.01,13.299,73.282,15.428,73.282L15.428,19.285C15.428,15.042,18.899,11.571,23.142,11.571L69.426,11.571C73.668,11.571,77.139,15.042,77.139,19.285L77.139,73.282ZM69.426,73.282L69.426,19.285L23.142,19.285L23.142,73.282L30.856,73.282L30.856,57.855L61.712,57.855L61.712,73.282L69.426,73.282ZM38.57,73.282L42.427,73.282L42.427,65.7L38.57,65.7L38.57,73.282ZM50.141,73.282L53.998,73.282L53.998,65.704L50.141,65.704L50.141,73.282ZM30.856,54.021L30.856,46.284L38.57,46.284L38.57,54.021L30.856,54.021ZM42.427,42.45L42.427,34.713L50.141,34.713L50.141,42.45L42.427,42.45ZM42.427,30.879L42.427,23.142L50.141,23.142L50.141,30.879L42.427,30.879ZM30.856,30.879L30.856,23.142L38.57,23.142L38.57,30.879L30.856,30.879ZM30.856,42.45L30.856,34.713L38.57,34.713L38.57,42.45L30.856,42.45ZM53.998,54.021L53.998,46.284L61.712,46.284L61.712,54.021L53.998,54.021ZM42.427,54.021L42.427,46.284L50.141,46.284L50.141,54.021L42.427,54.021ZM53.998,42.45L53.998,34.713L61.712,34.713L61.712,42.45L53.998,42.45ZM53.998,30.879L53.998,23.142L61.712,23.142L61.712,30.879L53.998,30.879ZM53.998,30.879"/>
</g>
  <g id="Medium-S" transform="matrix(1.0,0.0,0.0,1.0,1701.556317605652,613.5606634890153)">  <path fill-rule="evenodd" clip-rule="evenodd" fill="#000000" stroke-linecap="butt" stroke-miterlimit="4" stroke-dasharray="none" stroke="none" fill-opacity="1" stroke-width="1px" stroke-opacity="1" stroke-linejoin="miter" d="M77.139,73.282C79.272,73.282,80.996,75.01,80.996,77.139C80.996,79.269,79.272,80.996,77.139,80.996L15.428,80.996C13.299,80.996,11.571,79.269,11.571,77.139C11.571,75.01,13.299,73.282,15.428,73.282L15.428,19.285C15.428,15.042,18.899,11.571,23.142,11.571L69.426,11.571C73.668,11.571,77.139,15.042,77.139,19.285L77.139,73.282ZM69.426,73.282L69.426,19.285L23.142,19.285L23.142,73.282L30.856,73.282L30.856,57.855L61.712,57.855L61.712,73.282L69.426,73.282ZM38.57,73.282L42.427,73.282L42.427,65.7L38.57,65.7L38.57,73.282ZM50.141,73.282L53.998,73.282L53.998,65.704L50.141,65.704L50.141,73.282ZM30.856,54.021L30.856,46.284L38.57,46.284L38.57,54.021L30.856,54.021ZM42.427,42.45L42.427,34.713L50.141,34.713L50.141,42.45L42.427,42.45ZM42.427,30.879L42.427,23.142L50.141,23.142L50.141,30.879L42.427,30.879ZM30.856,30.879L30.856,23.142L38.57,23.142L38.57,30.879L30.856,30.879ZM30.856,42.45L30.856,34.713L38.57,34.713L38.57,42.45L30.856,42.45ZM53.998,54.021L53.998,46.284L61.712,46.284L61.712,54.021L53.998,54.021ZM42.427,54.021L42.427,46.284L50.141,46.284L50.141,54.021L42.427,54.021ZM53.998,42.45L53.998,34.713L61.712,34.713L61.712,42.45L53.998,42.45ZM53.998,30.879L53.998,23.142L61.712,23.142L61.712,30.879L53.998,30.879ZM53.998,30.879"/>
</g>
  <g id="Regular-S" transform="matrix(1.0,0.0,0.0,1.0,1404.846317605652,613.5606634890153)">  <path stroke-width="1px" fill="#000000" stroke-miterlimit="4" stroke-linejoin="miter" stroke-opacity="1" fill-opacity="1" stroke="none" stroke-dasharray="none" clip-rule="evenodd" fill-rule="evenodd" stroke-linecap="butt" d="M77.139,73.282C79.272,73.282,80.996,75.01,80.996,77.139C80.996,79.269,79.272,80.996,77.139,80.996L15.428,80.996C13.299,80.996,11.571,79.269,11.571,77.139C11.571,75.01,13.299,73.282,15.428,73.282L15.428,19.285C15.428,15.042,18.899,11.571,23.142,11.571L69.426,11.571C73.668,11.571,77.139,15.042,77.139,19.285L77.139,73.282ZM69.426,73.282L69.426,19.285L23.142,19.285L23.142,73.282L30.856,73.282L30.856,57.855L61.712,57.855L61.712,73.282L69.426,73.282ZM38.57,73.282L42.427,73.282L42.427,65.7L38.57,65.7L38.57,73.282ZM50.141,73.282L53.998,73.282L53.998,65.704L50.141,65.704L50.141,73.282ZM30.856,54.021L30.856,46.284L38.57,46.284L38.57,54.021L30.856,54.021ZM42.427,42.45L42.427,34.713L50.141,34.713L50.141,42.45L42.427,42.45ZM42.427,30.879L42.427,23.142L50.141,23.142L50.141,30.879L42.427,30.879ZM30.856,30.879L30.856,23.142L38.57,23.142L38.57,30.879L30.856,30.879ZM30.856,42.45L30.856,34.713L38.57,34.713L38.57,42.45L30.856,42.45ZM53.998,54.021L53.998,46.284L61.712,46.284L61.712,54.021L53.998,54.021ZM42.427,54.021L42.427,46.284L50.141,46.284L50.141,54.021L42.427,54.021ZM53.998,42.45L53.998,34.713L61.712,34.713L61.712,42.45L53.998,42.45ZM53.998,30.879L53.998,23.142L61.712,23.142L61.712,30.879L53.998,30.879ZM53.998,30.879"/>
</g>
  <g id="Light-S" transform="matrix(1.0,0.0,0.0,1.0,1108.1363176056523,613.5606634890153)">  <path stroke-opacity="1" fill="#000000" stroke-miterlimit="4" stroke="none" stroke-dasharray="none" fill-rule="evenodd" stroke-linecap="butt" stroke-width="1px" stroke-linejoin="miter" fill-opacity="1" clip-rule="evenodd" d="M77.139,73.282C79.272,73.282,80.996,75.01,80.996,77.139C80.996,79.269,79.272,80.996,77.139,80.996L15.428,80.996C13.299,80.996,11.571,79.269,11.571,77.139C11.571,75.01,13.299,73.282,15.428,73.282L15.428,19.285C15.428,15.042,18.899,11.571,23.142,11.571L69.426,11.571C73.668,11.571,77.139,15.042,77.139,19.285L77.139,73.282ZM69.426,73.282L69.426,19.285L23.142,19.285L23.142,73.282L30.856,73.282L30.856,57.855L61.712,57.855L61.712,73.282L69.426,73.282ZM38.57,73.282L42.427,73.282L42.427,65.7L38.57,65.7L38.57,73.282ZM50.141,73.282L53.998,73.282L53.998,65.704L50.141,65.704L50.141,73.282ZM30.856,54.021L30.856,46.284L38.57,46.284L38.57,54.021L30.856,54.021ZM42.427,42.45L42.427,34.713L50.141,34.713L50.141,42.45L42.427,42.45ZM42.427,30.879L42.427,23.142L50.141,23.142L50.141,30.879L42.427,30.879ZM30.856,30.879L30.856,23.142L38.57,23.142L38.57,30.879L30.856,30.879ZM30.856,42.45L30.856,34.713L38.57,34.713L38.57,42.45L30.856,42.45ZM53.998,54.021L53.998,46.284L61.712,46.284L61.712,54.021L53.998,54.021ZM42.427,54.021L42.427,46.284L50.141,46.284L50.141,54.021L42.427,54.021ZM53.998,42.45L53.998,34.713L61.712,34.713L61.712,42.45L53.998,42.45ZM53.998,30.879L53.998,23.142L61.712,23.142L61.712,30.879L53.998,30.879ZM53.998,30.879"/>
</g>
  <g id="Thin-S" transform="matrix(1.0,0.0,0.0,1.0,811.4263176056523,613.5606634890153)">  <path stroke-width="1px" fill="#000000" stroke-opacity="1" stroke="none" fill-opacity="1" stroke-miterlimit="4" stroke-dasharray="none" fill-rule="evenodd" stroke-linecap="butt" clip-rule="evenodd" stroke-linejoin="miter" d="M77.139,73.282C79.272,73.282,80.996,75.01,80.996,77.139C80.996,79.269,79.272,80.996,77.139,80.996L15.428,80.996C13.299,80.996,11.571,79.269,11.571,77.139C11.571,75.01,13.299,73.282,15.428,73.282L15.428,19.285C15.428,15.042,18.899,11.571,23.142,11.571L69.426,11.571C73.668,11.571,77.139,15.042,77.139,19.285L77.139,73.282ZM69.426,73.282L69.426,19.285L23.142,19.285L23.142,73.282L30.856,73.282L30.856,57.855L61.712,57.855L61.712,73.282L69.426,73.282ZM38.57,73.282L42.427,73.282L42.427,65.7L38.57,65.7L38.57,73.282ZM50.141,73.282L53.998,73.282L53.998,65.704L50.141,65.704L50.141,73.282ZM30.856,54.021L30.856,46.284L38.57,46.284L38.57,54.021L30.856,54.021ZM42.427,42.45L42.427,34.713L50.141,34.713L50.141,42.45L42.427,42.45ZM42.427,30.879L42.427,23.142L50.141,23.142L50.141,30.879L42.427,30.879ZM30.856,30.879L30.856,23.142L38.57,23.142L38.57,30.879L30.856,30.879ZM30.856,42.45L30.856,34.713L38.57,34.713L38.57,42.45L30.856,42.45ZM53.998,54.021L53.998,46.284L61.712,46.284L61.712,54.021L53.998,54.021ZM42.427,54.021L42.427,46.284L50.141,46.284L50.141,54.021L42.427,54.021ZM53.998,42.45L53.998,34.713L61.712,34.713L61.712,42.45L53.998,42.45ZM53.998,30.879L53.998,23.142L61.712,23.142L61.712,30.879L53.998,30.879ZM53.998,30.879"/>
</g>
  <g id="Ultralight-S" transform="matrix(1.0,0.0,0.0,1.0,514.7163176056523,613.5606634890153)">  <path stroke="none" stroke-linecap="butt" stroke-opacity="1" fill-rule="evenodd" stroke-dasharray="none" clip-rule="evenodd" fill-opacity="1" stroke-width="1px" fill="#000000" stroke-miterlimit="4" stroke-linejoin="miter" d="M77.139,73.282C79.272,73.282,80.996,75.01,80.996,77.139C80.996,79.269,79.272,80.996,77.139,80.996L15.428,80.996C13.299,80.996,11.571,79.269,11.571,77.139C11.571,75.01,13.299,73.282,15.428,73.282L15.428,19.285C15.428,15.042,18.899,11.571,23.142,11.571L69.426,11.571C73.668,11.571,77.139,15.042,77.139,19.285L77.139,73.282ZM69.426,73.282L69.426,19.285L23.142,19.285L23.142,73.282L30.856,73.282L30.856,57.855L61.712,57.855L61.712,73.282L69.426,73.282ZM38.57,73.282L42.427,73.282L42.427,65.7L38.57,65.7L38.57,73.282ZM50.141,73.282L53.998,73.282L53.998,65.704L50.141,65.704L50.141,73.282ZM30.856,54.021L30.856,46.284L38.57,46.284L38.57,54.021L30.856,54.021ZM42.427,42.45L42.427,34.713L50.141,34.713L50.141,42.45L42.427,42.45ZM42.427,30.879L42.427,23.142L50.141,23.142L50.141,30.879L42.427,30.879ZM30.856,30.879L30.856,23.142L38.57,23.142L38.57,30.879L30.856,30.879ZM30.856,42.45L30.856,34.713L38.57,34.713L38.57,42.45L30.856,42.45ZM53.998,54.021L53.998,46.284L61.712,46.284L61.712,54.021L53.998,54.021ZM42.427,54.021L42.427,46.284L50.141,46.284L50.141,54.021L42.427,54.021ZM53.998,42.45L53.998,34.713L61.712,34.713L61.712,42.45L53.998,42.45ZM53.998,30.879L53.998,23.142L61.712,23.142L61.712,30.879L53.998,30.879ZM53.998,30.879"/>
</g>
 </g>
</svg>
