<?xml version="1.0" encoding="UTF-8"?>
<!-- Generator: CustomSymbols v2.6.1.40 by @serious_bret https://bretlester.com/app_content/CustomSymbols/ -->
<!-- Guides: Left/Right 0.125/0.123 Cap/Base 0.236/0.184 -->
<!-- Settings: RefScale 1.0 Min/Max Stroke Scales 0.5/2.21 -->
<!DOCTYPE svg
PUBLIC "-//W3C//DTD SVG 1.1//EN"
       "http://www.w3.org/Graphics/SVG/1.1/DTD/svg11.dtd">
<svg version="1.1" xmlns="http://www.w3.org/2000/svg" xmlns:xlink="http://www.w3.org/1999/xlink" width="3300" height="2200">
<![CDATA[<svg width="24" height="24" viewBox="0 0 24 24" fill="none" xmlns="http://www.w3.org/2000/svg">
<path fill-rule="evenodd" clip-rule="evenodd" d="M15 19H19V16H15V19ZM10 19H14V16H10V19ZM5 19H9V16H5V19ZM5 11H9V8H5V11ZM15 15H19V12H15V15ZM10 11H14V8H10V11ZM5 15H9V12H5V15ZM10 15H14V12H10V15ZM15 11H19V8H15V11ZM19 5.003H18V3H15V5.003H9V3H6V5.003H5C3.9 5.003 3 5.903 3 7.003V19.003C3 20.103 3.9 21.003 5 21.003H19C20.1 21.003 21 20.103 21 19.003V7.003C21 5.903 20.1 5.003 19 5.003Z" fill="black"/>
</svg>
]]>
 <g id="Notes">
  <rect height="2200" id="artboard" style="fill:white;opacity:1" width="3300" x="0" y="0"/>
  <line id="" style="fill:none;stroke:black;opacity:1;stroke-width:0.5;" x1="263" x2="3036" y1="292" y2="292"/>
  <text id="reftext1" style="stroke:none;fill:black;font-family:-apple-system,&quot;SF Pro Display&quot;,&quot;SF Pro Text&quot;,Helvetica,sans-serif;font-weight:bold;" transform="matrix(1 0 0 1 263 322)">Weight/Scale Variations</text>
  <text id="reftext2" style="stroke:none;fill:black;font-family:-apple-system,&quot;SF Pro Display&quot;,&quot;SF Pro Text&quot;,Helvetica,sans-serif;text-anchor:middle;" transform="matrix(1 0 0 1 559.711 322)">Ultralight</text>
  <text style="stroke:none;fill:black;font-family:-apple-system,&quot;SF Pro Display&quot;,&quot;SF Pro Text&quot;,Helvetica,sans-serif;text-anchor:middle;" transform="matrix(1 0 0 1 856.422 322)">Thin</text>
  <text style="stroke:none;fill:black;font-family:-apple-system,&quot;SF Pro Display&quot;,&quot;SF Pro Text&quot;,Helvetica,sans-serif;text-anchor:middle;" transform="matrix(1 0 0 1 1153.13 322)">Light</text>
  <text style="stroke:none;fill:black;font-family:-apple-system,&quot;SF Pro Display&quot;,&quot;SF Pro Text&quot;,Helvetica,sans-serif;text-anchor:middle;" transform="matrix(1 0 0 1 1449.84 322)">Regular</text>
  <text style="stroke:none;fill:black;font-family:-apple-system,&quot;SF Pro Display&quot;,&quot;SF Pro Text&quot;,Helvetica,sans-serif;text-anchor:middle;" transform="matrix(1 0 0 1 1746.56 322)">Medium</text>
  <text style="stroke:none;fill:black;font-family:-apple-system,&quot;SF Pro Display&quot;,&quot;SF Pro Text&quot;,Helvetica,sans-serif;text-anchor:middle;" transform="matrix(1 0 0 1 2043.27 322)">Semibold</text>
  <text style="stroke:none;fill:black;font-family:-apple-system,&quot;SF Pro Display&quot;,&quot;SF Pro Text&quot;,Helvetica,sans-serif;text-anchor:middle;" transform="matrix(1 0 0 1 2339.98 322)">Bold</text>
  <text style="stroke:none;fill:black;font-family:-apple-system,&quot;SF Pro Display&quot;,&quot;SF Pro Text&quot;,Helvetica,sans-serif;text-anchor:middle;" transform="matrix(1 0 0 1 2636.69 322)">Heavy</text>
  <text style="stroke:none;fill:black;font-family:-apple-system,&quot;SF Pro Display&quot;,&quot;SF Pro Text&quot;,Helvetica,sans-serif;text-anchor:middle;" transform="matrix(1 0 0 1 2933.4 322)">Black</text>
  <line id="" style="fill:none;stroke:black;opacity:1;stroke-width:0.5;" x1="263" x2="3036" y1="1903" y2="1903"/>
  <g id="" transform="matrix(1 0 0 1 263 1933)">
   <path d="M9.24805 0.830078C13.5547 0.830078 17.1387-2.74414 17.1387-7.05078C17.1387-11.3574 13.5449-14.9316 9.23828-14.9316C4.94141-14.9316 1.36719-11.3574 1.36719-7.05078C1.36719-2.74414 4.95117 0.830078 9.24805 0.830078ZM9.24805-0.654297C5.70312-0.654297 2.87109-3.49609 2.87109-7.05078C2.87109-10.6055 5.69336-13.4473 9.23828-13.4473C12.793-13.4473 15.6348-10.6055 15.6445-7.05078C15.6543-3.49609 12.8027-0.654297 9.24805-0.654297ZM6.39648-6.31836L8.50586-6.31836L8.50586-4.19922C8.50586-3.75977 8.79883-3.45703 9.22852-3.45703C9.67773-3.45703 9.9707-3.75977 9.9707-4.19922L9.9707-6.31836L12.0996-6.31836C12.5391-6.31836 12.8418-6.61133 12.8418-7.04102C12.8418-7.48047 12.5391-7.7832 12.0996-7.7832L9.9707-7.7832L9.9707-9.89258C9.9707-10.3418 9.67773-10.6445 9.22852-10.6445C8.79883-10.6445 8.50586-10.3418 8.50586-9.89258L8.50586-7.7832L6.39648-7.7832C5.94727-7.7832 5.64453-7.48047 5.64453-7.04102C5.64453-6.61133 5.94727-6.31836 6.39648-6.31836Z"/>
  </g>
  <g id="" transform="matrix(1 0 0 1 281.506 1933)">
   <path d="M11.709 2.91016C17.1582 2.91016 21.6699-1.61133 21.6699-7.05078C21.6699-12.5 17.1484-17.0117 11.6992-17.0117C6.25977-17.0117 1.74805-12.5 1.74805-7.05078C1.74805-1.61133 6.26953 2.91016 11.709 2.91016ZM11.709 1.25C7.09961 1.25 3.41797-2.44141 3.41797-7.05078C3.41797-11.6602 7.08984-15.3516 11.6992-15.3516C16.3086-15.3516 20-11.6602 20.0098-7.05078C20.0195-2.44141 16.3184 1.25 11.709 1.25ZM7.98828-6.23047L10.8789-6.23047L10.8789-3.32031C10.8789-2.83203 11.2109-2.5 11.6895-2.5C12.1777-2.5 12.5195-2.83203 12.5195-3.32031L12.5195-6.23047L15.4297-6.23047C15.918-6.23047 16.25-6.5625 16.25-7.04102C16.25-7.5293 15.918-7.87109 15.4297-7.87109L12.5195-7.87109L12.5195-10.7617C12.5195-11.2695 12.1777-11.6016 11.6895-11.6016C11.2109-11.6016 10.8789-11.2598 10.8789-10.7617L10.8789-7.87109L7.98828-7.87109C7.48047-7.87109 7.14844-7.5293 7.14844-7.04102C7.14844-6.5625 7.49023-6.23047 7.98828-6.23047Z"/>
  </g>
  <g id="" transform="matrix(1 0 0 1 304.924 1933)">
   <path d="M14.9707 5.66406C21.9336 5.66406 27.6953-0.0976562 27.6953-7.05078C27.6953-14.0137 21.9238-19.7754 14.9609-19.7754C8.00781-19.7754 2.25586-14.0137 2.25586-7.05078C2.25586-0.0976562 8.01758 5.66406 14.9707 5.66406ZM14.9707 3.84766C8.93555 3.84766 4.08203-1.01562 4.08203-7.05078C4.08203-13.0957 8.92578-17.9492 14.9609-17.9492C21.0059-17.9492 25.8594-13.0957 25.8691-7.05078C25.8789-1.01562 21.0156 3.84766 14.9707 3.84766ZM10.0586-6.14258L14.0625-6.14258L14.0625-2.12891C14.0625-1.5918 14.4336-1.2207 14.9512-1.2207C15.4883-1.2207 15.8594-1.5918 15.8594-2.12891L15.8594-6.14258L19.8828-6.14258C20.4102-6.14258 20.791-6.51367 20.791-7.03125C20.791-7.56836 20.4199-7.94922 19.8828-7.94922L15.8594-7.94922L15.8594-11.9531C15.8594-12.5098 15.4883-12.8809 14.9512-12.8809C14.4336-12.8809 14.0625-12.5 14.0625-11.9531L14.0625-7.94922L10.0586-7.94922C9.50195-7.94922 9.13086-7.56836 9.13086-7.03125C9.13086-6.51367 9.51172-6.14258 10.0586-6.14258Z"/>
  </g>
  <text style="stroke:none;fill:black;font-family:-apple-system,&quot;SF Pro Display&quot;,&quot;SF Pro Text&quot;,Helvetica,sans-serif;font-weight:bold;" transform="matrix(1 0 0 1 263 1953)">Design Variations</text>
  <text style="stroke:none;fill:black;font-family:-apple-system,&quot;SF Pro Display&quot;,&quot;SF Pro Text&quot;,Helvetica,sans-serif;" transform="matrix(1 0 0 1 263 1971)">Symbols are supported in up to nine weights and three scales.</text>
  <text style="stroke:none;fill:black;font-family:-apple-system,&quot;SF Pro Display&quot;,&quot;SF Pro Text&quot;,Helvetica,sans-serif;" transform="matrix(1 0 0 1 263 1989)">For optimal layout with text and other symbols, vertically align</text>
  <text style="stroke:none;fill:black;font-family:-apple-system,&quot;SF Pro Display&quot;,&quot;SF Pro Text&quot;,Helvetica,sans-serif;" transform="matrix(1 0 0 1 263 2007)">symbols with the adjacent text.</text>
  <line id="" style="fill:none;stroke:#00AEEF;stroke-width:0.5;opacity:1.0;" x1="776" x2="776" y1="1919" y2="1933"/>
  <g id="" transform="matrix(1 0 0 1 776 1933)">
   <path d="M3.31055 0.126953C3.82812 0.126953 4.08203-0.0683594 4.26758-0.605469L5.52734-4.0625L11.2891-4.0625L12.5488-0.605469C12.7344-0.0683594 12.9883 0.126953 13.4961 0.126953C14.0137 0.126953 14.3457-0.185547 14.3457-0.673828C14.3457-0.839844 14.3164-0.986328 14.2383-1.20117L9.6582-13.3887C9.43359-13.9941 9.0332-14.2871 8.4082-14.2871C7.80273-14.2871 7.39258-13.9941 7.17773-13.3984L2.59766-1.19141C2.51953-0.976562 2.49023-0.830078 2.49023-0.664062C2.49023-0.175781 2.80273 0.126953 3.31055 0.126953ZM6.00586-5.53711L8.37891-12.1094L8.42773-12.1094L10.8008-5.53711Z"/>
  </g>
  <line id="" style="fill:none;stroke:#00AEEF;stroke-width:0.5;opacity:1.0;" x1="792.836" x2="792.836" y1="1919" y2="1933"/>
  <text style="stroke:none;fill:black;font-family:-apple-system,&quot;SF Pro Display&quot;,&quot;SF Pro Text&quot;,Helvetica,sans-serif;font-weight:bold;" transform="matrix(1 0 0 1 776 1953)">Margins</text>
  <text style="stroke:none;fill:black;font-family:-apple-system,&quot;SF Pro Display&quot;,&quot;SF Pro Text&quot;,Helvetica,sans-serif;" transform="matrix(1 0 0 1 776 1971)">Leading and trailing margins on the left and right side of each symbol</text>
  <text style="stroke:none;fill:black;font-family:-apple-system,&quot;SF Pro Display&quot;,&quot;SF Pro Text&quot;,Helvetica,sans-serif;" transform="matrix(1 0 0 1 776 1989)">can be adjusted by modifying the x-location of the margin guidelines.</text>
  <text style="stroke:none;fill:black;font-family:-apple-system,&quot;SF Pro Display&quot;,&quot;SF Pro Text&quot;,Helvetica,sans-serif;" transform="matrix(1 0 0 1 776 2007)">Modifications are automatically applied proportionally to all</text>
  <text style="stroke:none;fill:black;font-family:-apple-system,&quot;SF Pro Display&quot;,&quot;SF Pro Text&quot;,Helvetica,sans-serif;" transform="matrix(1 0 0 1 776 2025)">scales and weights.</text>
  <g id="" transform="matrix(1 0 0 1 1289 1933)">
   <path d="M2.8418 1.86523L4.54102 3.57422C5.40039 4.44336 6.38672 4.38477 7.31445 3.35938L17.4902-7.85156C17.7539-7.76367 18.0273-7.7832 18.3398-7.8418L19.4043-8.03711L20.0684-7.36328L20.0293-6.80664C19.9902-6.30859 20.1172-5.92773 20.6055-5.44922L21.3672-4.70703C21.8457-4.22852 22.4609-4.19922 22.9297-4.66797L25.8398-7.58789C26.3086-8.05664 26.2891-8.65234 25.8105-9.13086L25.0391-9.89258C24.5605-10.3711 24.1895-10.5273 23.7109-10.4883L23.1348-10.4395L22.4902-11.0742L22.7344-12.1973C22.8613-12.7637 22.7051-13.2031 22.1191-13.7891L19.9219-15.9766C16.582-19.2969 12.1484-19.2188 9.25781-16.3281C8.83789-15.918 8.80859-15.3418 9.04297-14.9512C9.27734-14.5898 9.73633-14.3555 10.3809-14.5215C11.8457-14.8633 13.3691-14.9219 14.7949-13.9844L14.209-12.5293C14.0137-12.0508 13.9844-11.6504 14.1113-11.2891L3.04688-0.898438C2.06055 0.0195312 1.98242 0.996094 2.8418 1.86523ZM10.752-15.957C13.1836-17.7344 16.4746-17.4316 18.7012-15.2051L21.1328-12.793C21.3672-12.5586 21.4062-12.373 21.3379-12.0312L21.0156-10.5469L22.5195-9.0625L23.5059-9.12109C23.7598-9.13086 23.8379-9.11133 24.0332-8.91602L24.6094-8.33984L22.168-5.89844L21.5918-6.47461C21.3965-6.66992 21.3672-6.74805 21.377-7.01172L21.4453-7.98828L19.9512-9.47266L18.4277-9.21875C18.1055-9.15039 17.959-9.17969 17.7148-9.41406L15.7129-11.416C15.459-11.6504 15.4297-11.8164 15.5859-12.1875L16.4648-14.2773C14.9023-15.7324 12.8711-16.3574 10.8398-15.7617C10.6836-15.7227 10.625-15.8496 10.752-15.957ZM5.27344 2.30469L4.10156 1.14258C3.63281 0.683594 3.74023 0.341797 4.14062-0.0195312L14.9512-10.1953L16.416-8.71094L6.42578 2.27539C6.07422 2.67578 5.74219 2.77344 5.27344 2.30469Z"/>
  </g>
  <text style="stroke:none;fill:black;font-family:-apple-system,&quot;SF Pro Display&quot;,&quot;SF Pro Text&quot;,Helvetica,sans-serif;font-weight:bold;" transform="matrix(1 0 0 1 1289 1953)">Exporting</text>
  <text style="stroke:none;fill:black;font-family:-apple-system,&quot;SF Pro Display&quot;,&quot;SF Pro Text&quot;,Helvetica,sans-serif;" transform="matrix(1 0 0 1 1289 1971)">Symbols should be outlined when exporting to ensure the</text>
  <text style="stroke:none;fill:black;font-family:-apple-system,&quot;SF Pro Display&quot;,&quot;SF Pro Text&quot;,Helvetica,sans-serif;" transform="matrix(1 0 0 1 1289 1989)">design is preserved when submitting to Xcode.</text>
  <text id="template-version" style="stroke:none;fill:black;font-family:-apple-system,&quot;SF Pro Display&quot;,&quot;SF Pro Text&quot;,Helvetica,sans-serif;text-anchor:end;" transform="matrix(1 0 0 1 3036 1933)">Template v.2.0</text>
  <text style="stroke:none;fill:black;font-family:-apple-system,&quot;SF Pro Display&quot;,&quot;SF Pro Text&quot;,Helvetica,sans-serif;text-anchor:end;" transform="matrix(1 0 0 1 3036 1951)">Requires Xcode 12 or greater</text>
  <text style="stroke:none;fill:black;font-family:-apple-system,&quot;SF Pro Display&quot;,&quot;SF Pro Text&quot;,Helvetica,sans-serif;" transform="matrix(1 0 0 1 263 726)">Small</text>
  <text style="stroke:none;fill:black;font-family:-apple-system,&quot;SF Pro Display&quot;,&quot;SF Pro Text&quot;,Helvetica,sans-serif;" transform="matrix(1 0 0 1 263 1156)">Medium</text>
  <text style="stroke:none;fill:black;font-family:-apple-system,&quot;SF Pro Display&quot;,&quot;SF Pro Text&quot;,Helvetica,sans-serif;" transform="matrix(1 0 0 1 263 1586)">Large</text>
 </g>
 <g id="Guides">
  <g id="H-reference" style="fill:#27AAE1;stroke:none;" transform="matrix(1 0 0 1 339 696)">
   <path d="M0.976562 0L3.66211 0L12.9883-24.4629L45.752-24.4629L55.127 0L57.7637 0L30.6152-70.459L28.125-70.459ZM29.3457-67.1387L29.4434-67.1387L44.873-26.709L13.8672-26.709Z"/>
  </g>
  <line id="Baseline-S" style="fill:none;stroke:#27AAE1;opacity:1;stroke-width:0.5;" x1="263" x2="3036" y1="696" y2="696"/>
  <line id="Capline-S" style="fill:none;stroke:#27AAE1;opacity:1;stroke-width:0.5;" x1="263" x2="3036" y1="625.541" y2="625.541"/>
  <g id="H-reference" style="fill:#27AAE1;stroke:none;" transform="matrix(1 0 0 1 339 1126)">
   <path d="M0.976562 0L3.66211 0L12.9883-24.4629L45.752-24.4629L55.127 0L57.7637 0L30.6152-70.459L28.125-70.459ZM29.3457-67.1387L29.4434-67.1387L44.873-26.709L13.8672-26.709Z"/>
  </g>
  <line id="Baseline-M" style="fill:none;stroke:#27AAE1;opacity:1;stroke-width:0.5;" x1="263" x2="3036" y1="1126" y2="1126"/>
  <line id="Capline-M" style="fill:none;stroke:#27AAE1;opacity:1;stroke-width:0.5;" x1="263" x2="3036" y1="1055.54" y2="1055.54"/>
  <g id="H-reference" style="fill:#27AAE1;stroke:none;" transform="matrix(1 0 0 1 339 1556)">
   <path d="M0.976562 0L3.66211 0L12.9883-24.4629L45.752-24.4629L55.127 0L57.7637 0L30.6152-70.459L28.125-70.459ZM29.3457-67.1387L29.4434-67.1387L44.873-26.709L13.8672-26.709Z"/>
  </g>
  <line id="Baseline-L" style="fill:none;stroke:#27AAE1;opacity:1;stroke-width:0.5;" x1="263" x2="3036" y1="1556" y2="1556"/>
  <line id="Capline-L" style="fill:none;stroke:#27AAE1;opacity:1;stroke-width:0.5;" x1="263" x2="3036" y1="1485.54" y2="1485.54"/>
  <line id="left-margin" x1="1405.5739907731681" x2="1405.5739907731681" y1="1030.79" y2="1150.12" style="fill:none;stroke:#00AEEF;stroke-width:0.5;opacity:1.0;"/>
  <line id="right-margin" x1="1496.9289746093748" x2="1496.9289746093748" y1="1030.79" y2="1150.12" style="fill:none;stroke:#00AEEF;stroke-width:0.5;opacity:1.0;"/>
 </g>
 <g id="Symbols">
  <g id="Black-L" transform="matrix(1.0,0.0,0.0,1.0,2856.323664129849,1438.3391541958513)">  <path stroke-opacity="1" stroke-linecap="butt" fill="#000000" stroke-miterlimit="4" fill-opacity="1" stroke-dasharray="none" stroke-width="1px" stroke-linejoin="miter" fill-rule="evenodd" clip-rule="evenodd" stroke="none" d="M97.945,124.064L124.064,124.064L124.064,104.475L97.945,104.475L97.945,124.064ZM65.297,124.064L91.416,124.064L91.416,104.475L65.297,104.475L65.297,124.064ZM32.648,124.064L58.767,124.064L58.767,104.475L32.648,104.475L32.648,124.064ZM32.648,71.827L58.767,71.827L58.767,52.238L32.648,52.238L32.648,71.827ZM97.945,97.945L124.064,97.945L124.064,78.356L97.945,78.356L97.945,97.945ZM65.297,71.827L91.416,71.827L91.416,52.238L65.297,52.238L65.297,71.827ZM32.648,97.945L58.767,97.945L58.767,78.356L32.648,78.356L32.648,97.945ZM65.297,97.945L91.416,97.945L91.416,78.356L65.297,78.356L65.297,97.945ZM97.945,71.827L124.064,71.827L124.064,52.238L97.945,52.238L97.945,71.827ZM124.064,32.668L117.535,32.668L117.535,19.589L97.945,19.589L97.945,32.668L58.767,32.668L58.767,19.589L39.178,19.589L39.178,32.668L32.648,32.668C25.466,32.668,19.589,38.545,19.589,45.727L19.589,124.084C19.589,131.266,25.466,137.143,32.648,137.143L124.064,137.143C131.247,137.143,137.124,131.266,137.124,124.084L137.124,45.727C137.124,38.545,131.247,32.668,124.064,32.668ZM124.064,32.668"/>
</g>
  <g id="Heavy-L" transform="matrix(1.0,0.0,0.0,1.0,2559.613664129849,1438.3391541958513)">  <path stroke-miterlimit="4" stroke="none" stroke-dasharray="none" fill="#000000" clip-rule="evenodd" stroke-opacity="1" stroke-linejoin="miter" fill-rule="evenodd" stroke-width="1px" stroke-linecap="butt" fill-opacity="1" d="M97.945,124.064L124.064,124.064L124.064,104.475L97.945,104.475L97.945,124.064ZM65.297,124.064L91.416,124.064L91.416,104.475L65.297,104.475L65.297,124.064ZM32.648,124.064L58.767,124.064L58.767,104.475L32.648,104.475L32.648,124.064ZM32.648,71.827L58.767,71.827L58.767,52.238L32.648,52.238L32.648,71.827ZM97.945,97.945L124.064,97.945L124.064,78.356L97.945,78.356L97.945,97.945ZM65.297,71.827L91.416,71.827L91.416,52.238L65.297,52.238L65.297,71.827ZM32.648,97.945L58.767,97.945L58.767,78.356L32.648,78.356L32.648,97.945ZM65.297,97.945L91.416,97.945L91.416,78.356L65.297,78.356L65.297,97.945ZM97.945,71.827L124.064,71.827L124.064,52.238L97.945,52.238L97.945,71.827ZM124.064,32.668L117.535,32.668L117.535,19.589L97.945,19.589L97.945,32.668L58.767,32.668L58.767,19.589L39.178,19.589L39.178,32.668L32.648,32.668C25.466,32.668,19.589,38.545,19.589,45.727L19.589,124.084C19.589,131.266,25.466,137.143,32.648,137.143L124.064,137.143C131.247,137.143,137.124,131.266,137.124,124.084L137.124,45.727C137.124,38.545,131.247,32.668,124.064,32.668ZM124.064,32.668"/>
</g>
  <g id="Bold-L" transform="matrix(1.0,0.0,0.0,1.0,2262.903664129849,1438.3391541958513)">  <path stroke-linecap="butt" fill-opacity="1" stroke-miterlimit="4" stroke-dasharray="none" stroke-width="1px" fill="#000000" stroke-linejoin="miter" clip-rule="evenodd" stroke="none" stroke-opacity="1" fill-rule="evenodd" d="M97.945,124.064L124.064,124.064L124.064,104.475L97.945,104.475L97.945,124.064ZM65.297,124.064L91.416,124.064L91.416,104.475L65.297,104.475L65.297,124.064ZM32.648,124.064L58.767,124.064L58.767,104.475L32.648,104.475L32.648,124.064ZM32.648,71.827L58.767,71.827L58.767,52.238L32.648,52.238L32.648,71.827ZM97.945,97.945L124.064,97.945L124.064,78.356L97.945,78.356L97.945,97.945ZM65.297,71.827L91.416,71.827L91.416,52.238L65.297,52.238L65.297,71.827ZM32.648,97.945L58.767,97.945L58.767,78.356L32.648,78.356L32.648,97.945ZM65.297,97.945L91.416,97.945L91.416,78.356L65.297,78.356L65.297,97.945ZM97.945,71.827L124.064,71.827L124.064,52.238L97.945,52.238L97.945,71.827ZM124.064,32.668L117.535,32.668L117.535,19.589L97.945,19.589L97.945,32.668L58.767,32.668L58.767,19.589L39.178,19.589L39.178,32.668L32.648,32.668C25.466,32.668,19.589,38.545,19.589,45.727L19.589,124.084C19.589,131.266,25.466,137.143,32.648,137.143L124.064,137.143C131.247,137.143,137.124,131.266,137.124,124.084L137.124,45.727C137.124,38.545,131.247,32.668,124.064,32.668ZM124.064,32.668"/>
</g>
  <g id="Semibold-L" transform="matrix(1.0,0.0,0.0,1.0,1966.1936641298491,1438.3391541958513)">  <path fill="#000000" fill-opacity="1" stroke-dasharray="none" stroke="none" stroke-opacity="1" stroke-miterlimit="4" stroke-width="1px" fill-rule="evenodd" stroke-linecap="butt" clip-rule="evenodd" stroke-linejoin="miter" d="M97.945,124.064L124.064,124.064L124.064,104.475L97.945,104.475L97.945,124.064ZM65.297,124.064L91.416,124.064L91.416,104.475L65.297,104.475L65.297,124.064ZM32.648,124.064L58.767,124.064L58.767,104.475L32.648,104.475L32.648,124.064ZM32.648,71.827L58.767,71.827L58.767,52.238L32.648,52.238L32.648,71.827ZM97.945,97.945L124.064,97.945L124.064,78.356L97.945,78.356L97.945,97.945ZM65.297,71.827L91.416,71.827L91.416,52.238L65.297,52.238L65.297,71.827ZM32.648,97.945L58.767,97.945L58.767,78.356L32.648,78.356L32.648,97.945ZM65.297,97.945L91.416,97.945L91.416,78.356L65.297,78.356L65.297,97.945ZM97.945,71.827L124.064,71.827L124.064,52.238L97.945,52.238L97.945,71.827ZM124.064,32.668L117.535,32.668L117.535,19.589L97.945,19.589L97.945,32.668L58.767,32.668L58.767,19.589L39.178,19.589L39.178,32.668L32.648,32.668C25.466,32.668,19.589,38.545,19.589,45.727L19.589,124.084C19.589,131.266,25.466,137.143,32.648,137.143L124.064,137.143C131.247,137.143,137.124,131.266,137.124,124.084L137.124,45.727C137.124,38.545,131.247,32.668,124.064,32.668ZM124.064,32.668"/>
</g>
  <g id="Medium-L" transform="matrix(1.0,0.0,0.0,1.0,1669.483664129849,1438.3391541958513)">  <path stroke-linejoin="miter" stroke-miterlimit="4" fill-rule="evenodd" clip-rule="evenodd" stroke-width="1px" stroke="none" stroke-linecap="butt" fill="#000000" stroke-opacity="1" fill-opacity="1" stroke-dasharray="none" d="M97.945,124.064L124.064,124.064L124.064,104.475L97.945,104.475L97.945,124.064ZM65.297,124.064L91.416,124.064L91.416,104.475L65.297,104.475L65.297,124.064ZM32.648,124.064L58.767,124.064L58.767,104.475L32.648,104.475L32.648,124.064ZM32.648,71.827L58.767,71.827L58.767,52.238L32.648,52.238L32.648,71.827ZM97.945,97.945L124.064,97.945L124.064,78.356L97.945,78.356L97.945,97.945ZM65.297,71.827L91.416,71.827L91.416,52.238L65.297,52.238L65.297,71.827ZM32.648,97.945L58.767,97.945L58.767,78.356L32.648,78.356L32.648,97.945ZM65.297,97.945L91.416,97.945L91.416,78.356L65.297,78.356L65.297,97.945ZM97.945,71.827L124.064,71.827L124.064,52.238L97.945,52.238L97.945,71.827ZM124.064,32.668L117.535,32.668L117.535,19.589L97.945,19.589L97.945,32.668L58.767,32.668L58.767,19.589L39.178,19.589L39.178,32.668L32.648,32.668C25.466,32.668,19.589,38.545,19.589,45.727L19.589,124.084C19.589,131.266,25.466,137.143,32.648,137.143L124.064,137.143C131.247,137.143,137.124,131.266,137.124,124.084L137.124,45.727C137.124,38.545,131.247,32.668,124.064,32.668ZM124.064,32.668"/>
</g>
  <g id="Regular-L" transform="matrix(1.0,0.0,0.0,1.0,1372.773664129849,1438.3391541958513)">  <path stroke-dasharray="none" fill-rule="evenodd" stroke-linejoin="miter" stroke-opacity="1" stroke-width="1px" stroke="none" stroke-linecap="butt" fill-opacity="1" stroke-miterlimit="4" fill="#000000" clip-rule="evenodd" d="M97.945,124.064L124.064,124.064L124.064,104.475L97.945,104.475L97.945,124.064ZM65.297,124.064L91.416,124.064L91.416,104.475L65.297,104.475L65.297,124.064ZM32.648,124.064L58.767,124.064L58.767,104.475L32.648,104.475L32.648,124.064ZM32.648,71.827L58.767,71.827L58.767,52.238L32.648,52.238L32.648,71.827ZM97.945,97.945L124.064,97.945L124.064,78.356L97.945,78.356L97.945,97.945ZM65.297,71.827L91.416,71.827L91.416,52.238L65.297,52.238L65.297,71.827ZM32.648,97.945L58.767,97.945L58.767,78.356L32.648,78.356L32.648,97.945ZM65.297,97.945L91.416,97.945L91.416,78.356L65.297,78.356L65.297,97.945ZM97.945,71.827L124.064,71.827L124.064,52.238L97.945,52.238L97.945,71.827ZM124.064,32.668L117.535,32.668L117.535,19.589L97.945,19.589L97.945,32.668L58.767,32.668L58.767,19.589L39.178,19.589L39.178,32.668L32.648,32.668C25.466,32.668,19.589,38.545,19.589,45.727L19.589,124.084C19.589,131.266,25.466,137.143,32.648,137.143L124.064,137.143C131.247,137.143,137.124,131.266,137.124,124.084L137.124,45.727C137.124,38.545,131.247,32.668,124.064,32.668ZM124.064,32.668"/>
</g>
  <g id="Light-L" transform="matrix(1.0,0.0,0.0,1.0,1076.0636641298493,1438.3391541958513)">  <path stroke-linecap="butt" stroke-dasharray="none" stroke-width="1px" stroke-opacity="1" stroke-linejoin="miter" stroke-miterlimit="4" fill-opacity="1" clip-rule="evenodd" fill="#000000" stroke="none" fill-rule="evenodd" d="M97.945,124.064L124.064,124.064L124.064,104.475L97.945,104.475L97.945,124.064ZM65.297,124.064L91.416,124.064L91.416,104.475L65.297,104.475L65.297,124.064ZM32.648,124.064L58.767,124.064L58.767,104.475L32.648,104.475L32.648,124.064ZM32.648,71.827L58.767,71.827L58.767,52.238L32.648,52.238L32.648,71.827ZM97.945,97.945L124.064,97.945L124.064,78.356L97.945,78.356L97.945,97.945ZM65.297,71.827L91.416,71.827L91.416,52.238L65.297,52.238L65.297,71.827ZM32.648,97.945L58.767,97.945L58.767,78.356L32.648,78.356L32.648,97.945ZM65.297,97.945L91.416,97.945L91.416,78.356L65.297,78.356L65.297,97.945ZM97.945,71.827L124.064,71.827L124.064,52.238L97.945,52.238L97.945,71.827ZM124.064,32.668L117.535,32.668L117.535,19.589L97.945,19.589L97.945,32.668L58.767,32.668L58.767,19.589L39.178,19.589L39.178,32.668L32.648,32.668C25.466,32.668,19.589,38.545,19.589,45.727L19.589,124.084C19.589,131.266,25.466,137.143,32.648,137.143L124.064,137.143C131.247,137.143,137.124,131.266,137.124,124.084L137.124,45.727C137.124,38.545,131.247,32.668,124.064,32.668ZM124.064,32.668"/>
</g>
  <g id="Thin-L" transform="matrix(1.0,0.0,0.0,1.0,779.3536641298492,1438.3391541958513)">  <path stroke="none" stroke-miterlimit="4" fill-rule="evenodd" stroke-dasharray="none" stroke-width="1px" clip-rule="evenodd" fill="#000000" fill-opacity="1" stroke-linecap="butt" stroke-opacity="1" stroke-linejoin="miter" d="M97.945,124.064L124.064,124.064L124.064,104.475L97.945,104.475L97.945,124.064ZM65.297,124.064L91.416,124.064L91.416,104.475L65.297,104.475L65.297,124.064ZM32.648,124.064L58.767,124.064L58.767,104.475L32.648,104.475L32.648,124.064ZM32.648,71.827L58.767,71.827L58.767,52.238L32.648,52.238L32.648,71.827ZM97.945,97.945L124.064,97.945L124.064,78.356L97.945,78.356L97.945,97.945ZM65.297,71.827L91.416,71.827L91.416,52.238L65.297,52.238L65.297,71.827ZM32.648,97.945L58.767,97.945L58.767,78.356L32.648,78.356L32.648,97.945ZM65.297,97.945L91.416,97.945L91.416,78.356L65.297,78.356L65.297,97.945ZM97.945,71.827L124.064,71.827L124.064,52.238L97.945,52.238L97.945,71.827ZM124.064,32.668L117.535,32.668L117.535,19.589L97.945,19.589L97.945,32.668L58.767,32.668L58.767,19.589L39.178,19.589L39.178,32.668L32.648,32.668C25.466,32.668,19.589,38.545,19.589,45.727L19.589,124.084C19.589,131.266,25.466,137.143,32.648,137.143L124.064,137.143C131.247,137.143,137.124,131.266,137.124,124.084L137.124,45.727C137.124,38.545,131.247,32.668,124.064,32.668ZM124.064,32.668"/>
</g>
  <g id="Ultralight-L" transform="matrix(1.0,0.0,0.0,1.0,482.6436641298491,1438.3391541958513)">  <path stroke-width="1px" stroke-dasharray="none" stroke="none" stroke-linecap="butt" fill-opacity="1" stroke-linejoin="miter" fill-rule="evenodd" clip-rule="evenodd" stroke-opacity="1" stroke-miterlimit="4" fill="#000000" d="M97.945,124.064L124.064,124.064L124.064,104.475L97.945,104.475L97.945,124.064ZM65.297,124.064L91.416,124.064L91.416,104.475L65.297,104.475L65.297,124.064ZM32.648,124.064L58.767,124.064L58.767,104.475L32.648,104.475L32.648,124.064ZM32.648,71.827L58.767,71.827L58.767,52.238L32.648,52.238L32.648,71.827ZM97.945,97.945L124.064,97.945L124.064,78.356L97.945,78.356L97.945,97.945ZM65.297,71.827L91.416,71.827L91.416,52.238L65.297,52.238L65.297,71.827ZM32.648,97.945L58.767,97.945L58.767,78.356L32.648,78.356L32.648,97.945ZM65.297,97.945L91.416,97.945L91.416,78.356L65.297,78.356L65.297,97.945ZM97.945,71.827L124.064,71.827L124.064,52.238L97.945,52.238L97.945,71.827ZM124.064,32.668L117.535,32.668L117.535,19.589L97.945,19.589L97.945,32.668L58.767,32.668L58.767,19.589L39.178,19.589L39.178,32.668L32.648,32.668C25.466,32.668,19.589,38.545,19.589,45.727L19.589,124.084C19.589,131.266,25.466,137.143,32.648,137.143L124.064,137.143C131.247,137.143,137.124,131.266,137.124,124.084L137.124,45.727C137.124,38.545,131.247,32.668,124.064,32.668ZM124.064,32.668"/>
</g>
  <g id="Black-M" transform="matrix(1.0,0.0,0.0,1.0,2873.938654364224,1026.8701239224138)">  <path stroke-opacity="1" stroke-linecap="butt" fill="#000000" stroke-miterlimit="4" fill-opacity="1" stroke-dasharray="none" stroke-width="1px" stroke-linejoin="miter" fill-rule="evenodd" clip-rule="evenodd" stroke="none" d="M75.927,96.174L96.174,96.174L96.174,80.988L75.927,80.988L75.927,96.174ZM50.618,96.174L70.865,96.174L70.865,80.988L50.618,80.988L50.618,96.174ZM25.309,96.174L45.556,96.174L45.556,80.988L25.309,80.988L25.309,96.174ZM25.309,55.68L45.556,55.68L45.556,40.494L25.309,40.494L25.309,55.68ZM75.927,75.927L96.174,75.927L96.174,60.741L75.927,60.741L75.927,75.927ZM50.618,55.68L70.865,55.68L70.865,40.494L50.618,40.494L50.618,55.68ZM25.309,75.927L45.556,75.927L45.556,60.741L25.309,60.741L25.309,75.927ZM50.618,75.927L70.865,75.927L70.865,60.741L50.618,60.741L50.618,75.927ZM75.927,55.68L96.174,55.68L96.174,40.494L75.927,40.494L75.927,55.68ZM96.174,25.324L91.112,25.324L91.112,15.185L75.927,15.185L75.927,25.324L45.556,25.324L45.556,15.185L30.371,15.185L30.371,25.324L25.309,25.324C19.741,25.324,15.185,29.88,15.185,35.448L15.185,96.189C15.185,101.757,19.741,106.313,25.309,106.313L96.174,106.313C101.742,106.313,106.297,101.757,106.297,96.189L106.297,35.448C106.297,29.88,101.742,25.324,96.174,25.324ZM96.174,25.324"/>
</g>
  <g id="Heavy-M" transform="matrix(1.0,0.0,0.0,1.0,2577.228654364224,1026.8701239224138)">  <path stroke-miterlimit="4" stroke="none" stroke-dasharray="none" fill="#000000" clip-rule="evenodd" stroke-opacity="1" stroke-linejoin="miter" fill-rule="evenodd" stroke-width="1px" stroke-linecap="butt" fill-opacity="1" d="M75.927,96.174L96.174,96.174L96.174,80.988L75.927,80.988L75.927,96.174ZM50.618,96.174L70.865,96.174L70.865,80.988L50.618,80.988L50.618,96.174ZM25.309,96.174L45.556,96.174L45.556,80.988L25.309,80.988L25.309,96.174ZM25.309,55.68L45.556,55.68L45.556,40.494L25.309,40.494L25.309,55.68ZM75.927,75.927L96.174,75.927L96.174,60.741L75.927,60.741L75.927,75.927ZM50.618,55.68L70.865,55.68L70.865,40.494L50.618,40.494L50.618,55.68ZM25.309,75.927L45.556,75.927L45.556,60.741L25.309,60.741L25.309,75.927ZM50.618,75.927L70.865,75.927L70.865,60.741L50.618,60.741L50.618,75.927ZM75.927,55.68L96.174,55.68L96.174,40.494L75.927,40.494L75.927,55.68ZM96.174,25.324L91.112,25.324L91.112,15.185L75.927,15.185L75.927,25.324L45.556,25.324L45.556,15.185L30.371,15.185L30.371,25.324L25.309,25.324C19.741,25.324,15.185,29.88,15.185,35.448L15.185,96.189C15.185,101.757,19.741,106.313,25.309,106.313L96.174,106.313C101.742,106.313,106.297,101.757,106.297,96.189L106.297,35.448C106.297,29.88,101.742,25.324,96.174,25.324ZM96.174,25.324"/>
</g>
  <g id="Bold-M" transform="matrix(1.0,0.0,0.0,1.0,2280.518654364224,1026.8701239224138)">  <path stroke-linecap="butt" fill-opacity="1" stroke-miterlimit="4" stroke-dasharray="none" stroke-width="1px" fill="#000000" stroke-linejoin="miter" clip-rule="evenodd" stroke="none" stroke-opacity="1" fill-rule="evenodd" d="M75.927,96.174L96.174,96.174L96.174,80.988L75.927,80.988L75.927,96.174ZM50.618,96.174L70.865,96.174L70.865,80.988L50.618,80.988L50.618,96.174ZM25.309,96.174L45.556,96.174L45.556,80.988L25.309,80.988L25.309,96.174ZM25.309,55.68L45.556,55.68L45.556,40.494L25.309,40.494L25.309,55.68ZM75.927,75.927L96.174,75.927L96.174,60.741L75.927,60.741L75.927,75.927ZM50.618,55.68L70.865,55.68L70.865,40.494L50.618,40.494L50.618,55.68ZM25.309,75.927L45.556,75.927L45.556,60.741L25.309,60.741L25.309,75.927ZM50.618,75.927L70.865,75.927L70.865,60.741L50.618,60.741L50.618,75.927ZM75.927,55.68L96.174,55.68L96.174,40.494L75.927,40.494L75.927,55.68ZM96.174,25.324L91.112,25.324L91.112,15.185L75.927,15.185L75.927,25.324L45.556,25.324L45.556,15.185L30.371,15.185L30.371,25.324L25.309,25.324C19.741,25.324,15.185,29.88,15.185,35.448L15.185,96.189C15.185,101.757,19.741,106.313,25.309,106.313L96.174,106.313C101.742,106.313,106.297,101.757,106.297,96.189L106.297,35.448C106.297,29.88,101.742,25.324,96.174,25.324ZM96.174,25.324"/>
</g>
  <g id="Semibold-M" transform="matrix(1.0,0.0,0.0,1.0,1983.8086543642241,1026.8701239224138)">  <path fill="#000000" fill-opacity="1" stroke-dasharray="none" stroke="none" stroke-opacity="1" stroke-miterlimit="4" stroke-width="1px" fill-rule="evenodd" stroke-linecap="butt" clip-rule="evenodd" stroke-linejoin="miter" d="M75.927,96.174L96.174,96.174L96.174,80.988L75.927,80.988L75.927,96.174ZM50.618,96.174L70.865,96.174L70.865,80.988L50.618,80.988L50.618,96.174ZM25.309,96.174L45.556,96.174L45.556,80.988L25.309,80.988L25.309,96.174ZM25.309,55.68L45.556,55.68L45.556,40.494L25.309,40.494L25.309,55.68ZM75.927,75.927L96.174,75.927L96.174,60.741L75.927,60.741L75.927,75.927ZM50.618,55.68L70.865,55.68L70.865,40.494L50.618,40.494L50.618,55.68ZM25.309,75.927L45.556,75.927L45.556,60.741L25.309,60.741L25.309,75.927ZM50.618,75.927L70.865,75.927L70.865,60.741L50.618,60.741L50.618,75.927ZM75.927,55.68L96.174,55.68L96.174,40.494L75.927,40.494L75.927,55.68ZM96.174,25.324L91.112,25.324L91.112,15.185L75.927,15.185L75.927,25.324L45.556,25.324L45.556,15.185L30.371,15.185L30.371,25.324L25.309,25.324C19.741,25.324,15.185,29.88,15.185,35.448L15.185,96.189C15.185,101.757,19.741,106.313,25.309,106.313L96.174,106.313C101.742,106.313,106.297,101.757,106.297,96.189L106.297,35.448C106.297,29.88,101.742,25.324,96.174,25.324ZM96.174,25.324"/>
</g>
  <g id="Medium-M" transform="matrix(1.0,0.0,0.0,1.0,1687.098654364224,1026.8701239224138)">  <path stroke-linejoin="miter" stroke-miterlimit="4" fill-rule="evenodd" clip-rule="evenodd" stroke-width="1px" stroke="none" stroke-linecap="butt" fill="#000000" stroke-opacity="1" fill-opacity="1" stroke-dasharray="none" d="M75.927,96.174L96.174,96.174L96.174,80.988L75.927,80.988L75.927,96.174ZM50.618,96.174L70.865,96.174L70.865,80.988L50.618,80.988L50.618,96.174ZM25.309,96.174L45.556,96.174L45.556,80.988L25.309,80.988L25.309,96.174ZM25.309,55.68L45.556,55.68L45.556,40.494L25.309,40.494L25.309,55.68ZM75.927,75.927L96.174,75.927L96.174,60.741L75.927,60.741L75.927,75.927ZM50.618,55.68L70.865,55.68L70.865,40.494L50.618,40.494L50.618,55.68ZM25.309,75.927L45.556,75.927L45.556,60.741L25.309,60.741L25.309,75.927ZM50.618,75.927L70.865,75.927L70.865,60.741L50.618,60.741L50.618,75.927ZM75.927,55.68L96.174,55.68L96.174,40.494L75.927,40.494L75.927,55.68ZM96.174,25.324L91.112,25.324L91.112,15.185L75.927,15.185L75.927,25.324L45.556,25.324L45.556,15.185L30.371,15.185L30.371,25.324L25.309,25.324C19.741,25.324,15.185,29.88,15.185,35.448L15.185,96.189C15.185,101.757,19.741,106.313,25.309,106.313L96.174,106.313C101.742,106.313,106.297,101.757,106.297,96.189L106.297,35.448C106.297,29.88,101.742,25.324,96.174,25.324ZM96.174,25.324"/>
</g>
  <g id="Regular-M" transform="matrix(1.0,0.0,0.0,1.0,1390.388654364224,1026.8701239224138)">  <path stroke-dasharray="none" fill-rule="evenodd" stroke-linejoin="miter" stroke-opacity="1" stroke-width="1px" stroke="none" stroke-linecap="butt" fill-opacity="1" stroke-miterlimit="4" fill="#000000" clip-rule="evenodd" d="M75.927,96.174L96.174,96.174L96.174,80.988L75.927,80.988L75.927,96.174ZM50.618,96.174L70.865,96.174L70.865,80.988L50.618,80.988L50.618,96.174ZM25.309,96.174L45.556,96.174L45.556,80.988L25.309,80.988L25.309,96.174ZM25.309,55.68L45.556,55.68L45.556,40.494L25.309,40.494L25.309,55.68ZM75.927,75.927L96.174,75.927L96.174,60.741L75.927,60.741L75.927,75.927ZM50.618,55.68L70.865,55.68L70.865,40.494L50.618,40.494L50.618,55.68ZM25.309,75.927L45.556,75.927L45.556,60.741L25.309,60.741L25.309,75.927ZM50.618,75.927L70.865,75.927L70.865,60.741L50.618,60.741L50.618,75.927ZM75.927,55.68L96.174,55.68L96.174,40.494L75.927,40.494L75.927,55.68ZM96.174,25.324L91.112,25.324L91.112,15.185L75.927,15.185L75.927,25.324L45.556,25.324L45.556,15.185L30.371,15.185L30.371,25.324L25.309,25.324C19.741,25.324,15.185,29.88,15.185,35.448L15.185,96.189C15.185,101.757,19.741,106.313,25.309,106.313L96.174,106.313C101.742,106.313,106.297,101.757,106.297,96.189L106.297,35.448C106.297,29.88,101.742,25.324,96.174,25.324ZM96.174,25.324"/>
</g>
  <g id="Light-M" transform="matrix(1.0,0.0,0.0,1.0,1093.6786543642243,1026.8701239224138)">  <path stroke-linecap="butt" stroke-dasharray="none" stroke-width="1px" stroke-opacity="1" stroke-linejoin="miter" stroke-miterlimit="4" fill-opacity="1" clip-rule="evenodd" fill="#000000" stroke="none" fill-rule="evenodd" d="M75.927,96.174L96.174,96.174L96.174,80.988L75.927,80.988L75.927,96.174ZM50.618,96.174L70.865,96.174L70.865,80.988L50.618,80.988L50.618,96.174ZM25.309,96.174L45.556,96.174L45.556,80.988L25.309,80.988L25.309,96.174ZM25.309,55.68L45.556,55.68L45.556,40.494L25.309,40.494L25.309,55.68ZM75.927,75.927L96.174,75.927L96.174,60.741L75.927,60.741L75.927,75.927ZM50.618,55.68L70.865,55.68L70.865,40.494L50.618,40.494L50.618,55.68ZM25.309,75.927L45.556,75.927L45.556,60.741L25.309,60.741L25.309,75.927ZM50.618,75.927L70.865,75.927L70.865,60.741L50.618,60.741L50.618,75.927ZM75.927,55.68L96.174,55.68L96.174,40.494L75.927,40.494L75.927,55.68ZM96.174,25.324L91.112,25.324L91.112,15.185L75.927,15.185L75.927,25.324L45.556,25.324L45.556,15.185L30.371,15.185L30.371,25.324L25.309,25.324C19.741,25.324,15.185,29.88,15.185,35.448L15.185,96.189C15.185,101.757,19.741,106.313,25.309,106.313L96.174,106.313C101.742,106.313,106.297,101.757,106.297,96.189L106.297,35.448C106.297,29.88,101.742,25.324,96.174,25.324ZM96.174,25.324"/>
</g>
  <g id="Thin-M" transform="matrix(1.0,0.0,0.0,1.0,796.9686543642242,1026.8701239224138)">  <path stroke="none" stroke-miterlimit="4" fill-rule="evenodd" stroke-dasharray="none" stroke-width="1px" clip-rule="evenodd" fill="#000000" fill-opacity="1" stroke-linecap="butt" stroke-opacity="1" stroke-linejoin="miter" d="M75.927,96.174L96.174,96.174L96.174,80.988L75.927,80.988L75.927,96.174ZM50.618,96.174L70.865,96.174L70.865,80.988L50.618,80.988L50.618,96.174ZM25.309,96.174L45.556,96.174L45.556,80.988L25.309,80.988L25.309,96.174ZM25.309,55.68L45.556,55.68L45.556,40.494L25.309,40.494L25.309,55.68ZM75.927,75.927L96.174,75.927L96.174,60.741L75.927,60.741L75.927,75.927ZM50.618,55.68L70.865,55.68L70.865,40.494L50.618,40.494L50.618,55.68ZM25.309,75.927L45.556,75.927L45.556,60.741L25.309,60.741L25.309,75.927ZM50.618,75.927L70.865,75.927L70.865,60.741L50.618,60.741L50.618,75.927ZM75.927,55.68L96.174,55.68L96.174,40.494L75.927,40.494L75.927,55.68ZM96.174,25.324L91.112,25.324L91.112,15.185L75.927,15.185L75.927,25.324L45.556,25.324L45.556,15.185L30.371,15.185L30.371,25.324L25.309,25.324C19.741,25.324,15.185,29.88,15.185,35.448L15.185,96.189C15.185,101.757,19.741,106.313,25.309,106.313L96.174,106.313C101.742,106.313,106.297,101.757,106.297,96.189L106.297,35.448C106.297,29.88,101.742,25.324,96.174,25.324ZM96.174,25.324"/>
</g>
  <g id="Ultralight-M" transform="matrix(1.0,0.0,0.0,1.0,500.2586543642241,1026.8701239224138)">  <path stroke-width="1px" stroke-dasharray="none" stroke="none" stroke-linecap="butt" fill-opacity="1" stroke-linejoin="miter" fill-rule="evenodd" clip-rule="evenodd" stroke-opacity="1" stroke-miterlimit="4" fill="#000000" d="M75.927,96.174L96.174,96.174L96.174,80.988L75.927,80.988L75.927,96.174ZM50.618,96.174L70.865,96.174L70.865,80.988L50.618,80.988L50.618,96.174ZM25.309,96.174L45.556,96.174L45.556,80.988L25.309,80.988L25.309,96.174ZM25.309,55.68L45.556,55.68L45.556,40.494L25.309,40.494L25.309,55.68ZM75.927,75.927L96.174,75.927L96.174,60.741L75.927,60.741L75.927,75.927ZM50.618,55.68L70.865,55.68L70.865,40.494L50.618,40.494L50.618,55.68ZM25.309,75.927L45.556,75.927L45.556,60.741L25.309,60.741L25.309,75.927ZM50.618,75.927L70.865,75.927L70.865,60.741L50.618,60.741L50.618,75.927ZM75.927,55.68L96.174,55.68L96.174,40.494L75.927,40.494L75.927,55.68ZM96.174,25.324L91.112,25.324L91.112,15.185L75.927,15.185L75.927,25.324L45.556,25.324L45.556,15.185L30.371,15.185L30.371,25.324L25.309,25.324C19.741,25.324,15.185,29.88,15.185,35.448L15.185,96.189C15.185,101.757,19.741,106.313,25.309,106.313L96.174,106.313C101.742,106.313,106.297,101.757,106.297,96.189L106.297,35.448C106.297,29.88,101.742,25.324,96.174,25.324ZM96.174,25.324"/>
</g>
  <g id="Black-S" transform="matrix(1.0,0.0,0.0,1.0,2887.1195263671875,610.7364012695313)">  <path stroke-opacity="1" stroke-linecap="butt" fill="#000000" stroke-miterlimit="4" fill-opacity="1" stroke-dasharray="none" stroke-width="1px" stroke-linejoin="miter" fill-rule="evenodd" clip-rule="evenodd" stroke="none" d="M59.451,75.304L75.304,75.304L75.304,63.414L59.451,63.414L59.451,75.304ZM39.634,75.304L55.487,75.304L55.487,63.414L39.634,63.414L39.634,75.304ZM19.817,75.304L35.67,75.304L35.67,63.414L19.817,63.414L19.817,75.304ZM19.817,43.597L35.67,43.597L35.67,31.707L19.817,31.707L19.817,43.597ZM59.451,59.451L75.304,59.451L75.304,47.56L59.451,47.56L59.451,59.451ZM39.634,43.597L55.487,43.597L55.487,31.707L39.634,31.707L39.634,43.597ZM19.817,59.451L35.67,59.451L35.67,47.56L19.817,47.56L19.817,59.451ZM39.634,59.451L55.487,59.451L55.487,47.56L39.634,47.56L39.634,59.451ZM59.451,43.597L75.304,43.597L75.304,31.707L59.451,31.707L59.451,43.597ZM75.304,19.829L71.341,19.829L71.341,11.89L59.451,11.89L59.451,19.829L35.67,19.829L35.67,11.89L23.78,11.89L23.78,19.829L19.817,19.829C15.457,19.829,11.89,23.396,11.89,27.755L11.89,75.316C11.89,79.676,15.457,83.243,19.817,83.243L75.304,83.243C79.664,83.243,83.231,79.676,83.231,75.316L83.231,27.755C83.231,23.396,79.664,19.829,75.304,19.829ZM75.304,19.829"/>
</g>
  <g id="Heavy-S" transform="matrix(1.0,0.0,0.0,1.0,2590.4095263671875,610.7364012695313)">  <path stroke-miterlimit="4" stroke="none" stroke-dasharray="none" fill="#000000" clip-rule="evenodd" stroke-opacity="1" stroke-linejoin="miter" fill-rule="evenodd" stroke-width="1px" stroke-linecap="butt" fill-opacity="1" d="M59.451,75.304L75.304,75.304L75.304,63.414L59.451,63.414L59.451,75.304ZM39.634,75.304L55.487,75.304L55.487,63.414L39.634,63.414L39.634,75.304ZM19.817,75.304L35.67,75.304L35.67,63.414L19.817,63.414L19.817,75.304ZM19.817,43.597L35.67,43.597L35.67,31.707L19.817,31.707L19.817,43.597ZM59.451,59.451L75.304,59.451L75.304,47.56L59.451,47.56L59.451,59.451ZM39.634,43.597L55.487,43.597L55.487,31.707L39.634,31.707L39.634,43.597ZM19.817,59.451L35.67,59.451L35.67,47.56L19.817,47.56L19.817,59.451ZM39.634,59.451L55.487,59.451L55.487,47.56L39.634,47.56L39.634,59.451ZM59.451,43.597L75.304,43.597L75.304,31.707L59.451,31.707L59.451,43.597ZM75.304,19.829L71.341,19.829L71.341,11.89L59.451,11.89L59.451,19.829L35.67,19.829L35.67,11.89L23.78,11.89L23.78,19.829L19.817,19.829C15.457,19.829,11.89,23.396,11.89,27.755L11.89,75.316C11.89,79.676,15.457,83.243,19.817,83.243L75.304,83.243C79.664,83.243,83.231,79.676,83.231,75.316L83.231,27.755C83.231,23.396,79.664,19.829,75.304,19.829ZM75.304,19.829"/>
</g>
  <g id="Bold-S" transform="matrix(1.0,0.0,0.0,1.0,2293.6995263671874,610.7364012695313)">  <path stroke-linecap="butt" fill-opacity="1" stroke-miterlimit="4" stroke-dasharray="none" stroke-width="1px" fill="#000000" stroke-linejoin="miter" clip-rule="evenodd" stroke="none" stroke-opacity="1" fill-rule="evenodd" d="M59.451,75.304L75.304,75.304L75.304,63.414L59.451,63.414L59.451,75.304ZM39.634,75.304L55.487,75.304L55.487,63.414L39.634,63.414L39.634,75.304ZM19.817,75.304L35.67,75.304L35.67,63.414L19.817,63.414L19.817,75.304ZM19.817,43.597L35.67,43.597L35.67,31.707L19.817,31.707L19.817,43.597ZM59.451,59.451L75.304,59.451L75.304,47.56L59.451,47.56L59.451,59.451ZM39.634,43.597L55.487,43.597L55.487,31.707L39.634,31.707L39.634,43.597ZM19.817,59.451L35.67,59.451L35.67,47.56L19.817,47.56L19.817,59.451ZM39.634,59.451L55.487,59.451L55.487,47.56L39.634,47.56L39.634,59.451ZM59.451,43.597L75.304,43.597L75.304,31.707L59.451,31.707L59.451,43.597ZM75.304,19.829L71.341,19.829L71.341,11.89L59.451,11.89L59.451,19.829L35.67,19.829L35.67,11.89L23.78,11.89L23.78,19.829L19.817,19.829C15.457,19.829,11.89,23.396,11.89,27.755L11.89,75.316C11.89,79.676,15.457,83.243,19.817,83.243L75.304,83.243C79.664,83.243,83.231,79.676,83.231,75.316L83.231,27.755C83.231,23.396,79.664,19.829,75.304,19.829ZM75.304,19.829"/>
</g>
  <g id="Semibold-S" transform="matrix(1.0,0.0,0.0,1.0,1996.9895263671874,610.7364012695313)">  <path fill="#000000" fill-opacity="1" stroke-dasharray="none" stroke="none" stroke-opacity="1" stroke-miterlimit="4" stroke-width="1px" fill-rule="evenodd" stroke-linecap="butt" clip-rule="evenodd" stroke-linejoin="miter" d="M59.451,75.304L75.304,75.304L75.304,63.414L59.451,63.414L59.451,75.304ZM39.634,75.304L55.487,75.304L55.487,63.414L39.634,63.414L39.634,75.304ZM19.817,75.304L35.67,75.304L35.67,63.414L19.817,63.414L19.817,75.304ZM19.817,43.597L35.67,43.597L35.67,31.707L19.817,31.707L19.817,43.597ZM59.451,59.451L75.304,59.451L75.304,47.56L59.451,47.56L59.451,59.451ZM39.634,43.597L55.487,43.597L55.487,31.707L39.634,31.707L39.634,43.597ZM19.817,59.451L35.67,59.451L35.67,47.56L19.817,47.56L19.817,59.451ZM39.634,59.451L55.487,59.451L55.487,47.56L39.634,47.56L39.634,59.451ZM59.451,43.597L75.304,43.597L75.304,31.707L59.451,31.707L59.451,43.597ZM75.304,19.829L71.341,19.829L71.341,11.89L59.451,11.89L59.451,19.829L35.67,19.829L35.67,11.89L23.78,11.89L23.78,19.829L19.817,19.829C15.457,19.829,11.89,23.396,11.89,27.755L11.89,75.316C11.89,79.676,15.457,83.243,19.817,83.243L75.304,83.243C79.664,83.243,83.231,79.676,83.231,75.316L83.231,27.755C83.231,23.396,79.664,19.829,75.304,19.829ZM75.304,19.829"/>
</g>
  <g id="Medium-S" transform="matrix(1.0,0.0,0.0,1.0,1700.2795263671874,610.7364012695313)">  <path stroke-linejoin="miter" stroke-miterlimit="4" fill-rule="evenodd" clip-rule="evenodd" stroke-width="1px" stroke="none" stroke-linecap="butt" fill="#000000" stroke-opacity="1" fill-opacity="1" stroke-dasharray="none" d="M59.451,75.304L75.304,75.304L75.304,63.414L59.451,63.414L59.451,75.304ZM39.634,75.304L55.487,75.304L55.487,63.414L39.634,63.414L39.634,75.304ZM19.817,75.304L35.67,75.304L35.67,63.414L19.817,63.414L19.817,75.304ZM19.817,43.597L35.67,43.597L35.67,31.707L19.817,31.707L19.817,43.597ZM59.451,59.451L75.304,59.451L75.304,47.56L59.451,47.56L59.451,59.451ZM39.634,43.597L55.487,43.597L55.487,31.707L39.634,31.707L39.634,43.597ZM19.817,59.451L35.67,59.451L35.67,47.56L19.817,47.56L19.817,59.451ZM39.634,59.451L55.487,59.451L55.487,47.56L39.634,47.56L39.634,59.451ZM59.451,43.597L75.304,43.597L75.304,31.707L59.451,31.707L59.451,43.597ZM75.304,19.829L71.341,19.829L71.341,11.89L59.451,11.89L59.451,19.829L35.67,19.829L35.67,11.89L23.78,11.89L23.78,19.829L19.817,19.829C15.457,19.829,11.89,23.396,11.89,27.755L11.89,75.316C11.89,79.676,15.457,83.243,19.817,83.243L75.304,83.243C79.664,83.243,83.231,79.676,83.231,75.316L83.231,27.755C83.231,23.396,79.664,19.829,75.304,19.829ZM75.304,19.829"/>
</g>
  <g id="Regular-S" transform="matrix(1.0,0.0,0.0,1.0,1403.5695263671873,610.7364012695313)">  <path stroke-dasharray="none" fill-rule="evenodd" stroke-linejoin="miter" stroke-opacity="1" stroke-width="1px" stroke="none" stroke-linecap="butt" fill-opacity="1" stroke-miterlimit="4" fill="#000000" clip-rule="evenodd" d="M59.451,75.304L75.304,75.304L75.304,63.414L59.451,63.414L59.451,75.304ZM39.634,75.304L55.487,75.304L55.487,63.414L39.634,63.414L39.634,75.304ZM19.817,75.304L35.67,75.304L35.67,63.414L19.817,63.414L19.817,75.304ZM19.817,43.597L35.67,43.597L35.67,31.707L19.817,31.707L19.817,43.597ZM59.451,59.451L75.304,59.451L75.304,47.56L59.451,47.56L59.451,59.451ZM39.634,43.597L55.487,43.597L55.487,31.707L39.634,31.707L39.634,43.597ZM19.817,59.451L35.67,59.451L35.67,47.56L19.817,47.56L19.817,59.451ZM39.634,59.451L55.487,59.451L55.487,47.56L39.634,47.56L39.634,59.451ZM59.451,43.597L75.304,43.597L75.304,31.707L59.451,31.707L59.451,43.597ZM75.304,19.829L71.341,19.829L71.341,11.89L59.451,11.89L59.451,19.829L35.67,19.829L35.67,11.89L23.78,11.89L23.78,19.829L19.817,19.829C15.457,19.829,11.89,23.396,11.89,27.755L11.89,75.316C11.89,79.676,15.457,83.243,19.817,83.243L75.304,83.243C79.664,83.243,83.231,79.676,83.231,75.316L83.231,27.755C83.231,23.396,79.664,19.829,75.304,19.829ZM75.304,19.829"/>
</g>
  <g id="Light-S" transform="matrix(1.0,0.0,0.0,1.0,1106.8595263671875,610.7364012695313)">  <path stroke-linecap="butt" stroke-dasharray="none" stroke-width="1px" stroke-opacity="1" stroke-linejoin="miter" stroke-miterlimit="4" fill-opacity="1" clip-rule="evenodd" fill="#000000" stroke="none" fill-rule="evenodd" d="M59.451,75.304L75.304,75.304L75.304,63.414L59.451,63.414L59.451,75.304ZM39.634,75.304L55.487,75.304L55.487,63.414L39.634,63.414L39.634,75.304ZM19.817,75.304L35.67,75.304L35.67,63.414L19.817,63.414L19.817,75.304ZM19.817,43.597L35.67,43.597L35.67,31.707L19.817,31.707L19.817,43.597ZM59.451,59.451L75.304,59.451L75.304,47.56L59.451,47.56L59.451,59.451ZM39.634,43.597L55.487,43.597L55.487,31.707L39.634,31.707L39.634,43.597ZM19.817,59.451L35.67,59.451L35.67,47.56L19.817,47.56L19.817,59.451ZM39.634,59.451L55.487,59.451L55.487,47.56L39.634,47.56L39.634,59.451ZM59.451,43.597L75.304,43.597L75.304,31.707L59.451,31.707L59.451,43.597ZM75.304,19.829L71.341,19.829L71.341,11.89L59.451,11.89L59.451,19.829L35.67,19.829L35.67,11.89L23.78,11.89L23.78,19.829L19.817,19.829C15.457,19.829,11.89,23.396,11.89,27.755L11.89,75.316C11.89,79.676,15.457,83.243,19.817,83.243L75.304,83.243C79.664,83.243,83.231,79.676,83.231,75.316L83.231,27.755C83.231,23.396,79.664,19.829,75.304,19.829ZM75.304,19.829"/>
</g>
  <g id="Thin-S" transform="matrix(1.0,0.0,0.0,1.0,810.1495263671875,610.7364012695313)">  <path stroke="none" stroke-miterlimit="4" fill-rule="evenodd" stroke-dasharray="none" stroke-width="1px" clip-rule="evenodd" fill="#000000" fill-opacity="1" stroke-linecap="butt" stroke-opacity="1" stroke-linejoin="miter" d="M59.451,75.304L75.304,75.304L75.304,63.414L59.451,63.414L59.451,75.304ZM39.634,75.304L55.487,75.304L55.487,63.414L39.634,63.414L39.634,75.304ZM19.817,75.304L35.67,75.304L35.67,63.414L19.817,63.414L19.817,75.304ZM19.817,43.597L35.67,43.597L35.67,31.707L19.817,31.707L19.817,43.597ZM59.451,59.451L75.304,59.451L75.304,47.56L59.451,47.56L59.451,59.451ZM39.634,43.597L55.487,43.597L55.487,31.707L39.634,31.707L39.634,43.597ZM19.817,59.451L35.67,59.451L35.67,47.56L19.817,47.56L19.817,59.451ZM39.634,59.451L55.487,59.451L55.487,47.56L39.634,47.56L39.634,59.451ZM59.451,43.597L75.304,43.597L75.304,31.707L59.451,31.707L59.451,43.597ZM75.304,19.829L71.341,19.829L71.341,11.89L59.451,11.89L59.451,19.829L35.67,19.829L35.67,11.89L23.78,11.89L23.78,19.829L19.817,19.829C15.457,19.829,11.89,23.396,11.89,27.755L11.89,75.316C11.89,79.676,15.457,83.243,19.817,83.243L75.304,83.243C79.664,83.243,83.231,79.676,83.231,75.316L83.231,27.755C83.231,23.396,79.664,19.829,75.304,19.829ZM75.304,19.829"/>
</g>
  <g id="Ultralight-S" transform="matrix(1.0,0.0,0.0,1.0,513.4395263671875,610.7364012695313)">  <path stroke-width="1px" stroke-dasharray="none" stroke="none" stroke-linecap="butt" fill-opacity="1" stroke-linejoin="miter" fill-rule="evenodd" clip-rule="evenodd" stroke-opacity="1" stroke-miterlimit="4" fill="#000000" d="M59.451,75.304L75.304,75.304L75.304,63.414L59.451,63.414L59.451,75.304ZM39.634,75.304L55.487,75.304L55.487,63.414L39.634,63.414L39.634,75.304ZM19.817,75.304L35.67,75.304L35.67,63.414L19.817,63.414L19.817,75.304ZM19.817,43.597L35.67,43.597L35.67,31.707L19.817,31.707L19.817,43.597ZM59.451,59.451L75.304,59.451L75.304,47.56L59.451,47.56L59.451,59.451ZM39.634,43.597L55.487,43.597L55.487,31.707L39.634,31.707L39.634,43.597ZM19.817,59.451L35.67,59.451L35.67,47.56L19.817,47.56L19.817,59.451ZM39.634,59.451L55.487,59.451L55.487,47.56L39.634,47.56L39.634,59.451ZM59.451,43.597L75.304,43.597L75.304,31.707L59.451,31.707L59.451,43.597ZM75.304,19.829L71.341,19.829L71.341,11.89L59.451,11.89L59.451,19.829L35.67,19.829L35.67,11.89L23.78,11.89L23.78,19.829L19.817,19.829C15.457,19.829,11.89,23.396,11.89,27.755L11.89,75.316C11.89,79.676,15.457,83.243,19.817,83.243L75.304,83.243C79.664,83.243,83.231,79.676,83.231,75.316L83.231,27.755C83.231,23.396,79.664,19.829,75.304,19.829ZM75.304,19.829"/>
</g>
 </g>
</svg>
