<?xml version="1.0" encoding="UTF-8"?>
<!-- Generator: CustomSymbols v2.6.1.40 by @serious_bret https://bretlester.com/app_content/CustomSymbols/ -->
<!-- Guides: Left/Right 0.085/0.083 Cap/Base 0.163/0.183 -->
<!-- Settings: RefScale 1.0 Min/Max Stroke Scales 0.5/2.21 -->
<!DOCTYPE svg
PUBLIC "-//W3C//DTD SVG 1.1//EN"
       "http://www.w3.org/Graphics/SVG/1.1/DTD/svg11.dtd">
<svg version="1.1" xmlns="http://www.w3.org/2000/svg" xmlns:xlink="http://www.w3.org/1999/xlink" width="3300" height="2200">
<![CDATA[<svg width="24" height="24" viewBox="0 0 24 24" fill="none" xmlns="http://www.w3.org/2000/svg">
<path fill-rule="evenodd" clip-rule="evenodd" d="M4.46154 18H15.5385C16.8978 18 18 16.8978 18 15.5378V4.46154C18 3.10215 16.8978 2 15.5385 2H4.46154C3.10215 2 2 3.10215 2 4.46154V15.5378C2 16.8978 3.10215 18 4.46154 18ZM19.5385 22H8.46154C7.10215 22 6 20.8978 6 19.5378V19H8V19.037C8 19.569 8.43095 20 8.96247 20H19.0375C19.569 20 20 19.569 20 19.037V18H19V16H20V8.96247C20 8.43099 19.569 8 19.0375 8H19V6H19.5385C20.8978 6 22 7.10215 22 8.46154V19.5378C22 20.8978 20.8978 22 19.5385 22ZM15.0375 16C15.569 16 16 15.569 16 15.037V14H4V15.037C4 15.569 4.43095 16 4.96247 16H15.0375ZM4 12V4.96247C4 4.43099 4.43099 4 4.96247 4H15.0375C15.569 4 16 4.43099 16 4.96247V12H4Z" fill="black"/>
</svg>
]]>
 <g id="Notes">
  <rect height="2200" id="artboard" style="fill:white;opacity:1" width="3300" x="0" y="0"/>
  <line id="" style="fill:none;stroke:black;opacity:1;stroke-width:0.5;" x1="263" x2="3036" y1="292" y2="292"/>
  <text id="reftext1" style="stroke:none;fill:black;font-family:-apple-system,&quot;SF Pro Display&quot;,&quot;SF Pro Text&quot;,Helvetica,sans-serif;font-weight:bold;" transform="matrix(1 0 0 1 263 322)">Weight/Scale Variations</text>
  <text id="reftext2" style="stroke:none;fill:black;font-family:-apple-system,&quot;SF Pro Display&quot;,&quot;SF Pro Text&quot;,Helvetica,sans-serif;text-anchor:middle;" transform="matrix(1 0 0 1 559.711 322)">Ultralight</text>
  <text style="stroke:none;fill:black;font-family:-apple-system,&quot;SF Pro Display&quot;,&quot;SF Pro Text&quot;,Helvetica,sans-serif;text-anchor:middle;" transform="matrix(1 0 0 1 856.422 322)">Thin</text>
  <text style="stroke:none;fill:black;font-family:-apple-system,&quot;SF Pro Display&quot;,&quot;SF Pro Text&quot;,Helvetica,sans-serif;text-anchor:middle;" transform="matrix(1 0 0 1 1153.13 322)">Light</text>
  <text style="stroke:none;fill:black;font-family:-apple-system,&quot;SF Pro Display&quot;,&quot;SF Pro Text&quot;,Helvetica,sans-serif;text-anchor:middle;" transform="matrix(1 0 0 1 1449.84 322)">Regular</text>
  <text style="stroke:none;fill:black;font-family:-apple-system,&quot;SF Pro Display&quot;,&quot;SF Pro Text&quot;,Helvetica,sans-serif;text-anchor:middle;" transform="matrix(1 0 0 1 1746.56 322)">Medium</text>
  <text style="stroke:none;fill:black;font-family:-apple-system,&quot;SF Pro Display&quot;,&quot;SF Pro Text&quot;,Helvetica,sans-serif;text-anchor:middle;" transform="matrix(1 0 0 1 2043.27 322)">Semibold</text>
  <text style="stroke:none;fill:black;font-family:-apple-system,&quot;SF Pro Display&quot;,&quot;SF Pro Text&quot;,Helvetica,sans-serif;text-anchor:middle;" transform="matrix(1 0 0 1 2339.98 322)">Bold</text>
  <text style="stroke:none;fill:black;font-family:-apple-system,&quot;SF Pro Display&quot;,&quot;SF Pro Text&quot;,Helvetica,sans-serif;text-anchor:middle;" transform="matrix(1 0 0 1 2636.69 322)">Heavy</text>
  <text style="stroke:none;fill:black;font-family:-apple-system,&quot;SF Pro Display&quot;,&quot;SF Pro Text&quot;,Helvetica,sans-serif;text-anchor:middle;" transform="matrix(1 0 0 1 2933.4 322)">Black</text>
  <line id="" style="fill:none;stroke:black;opacity:1;stroke-width:0.5;" x1="263" x2="3036" y1="1903" y2="1903"/>
  <g id="" transform="matrix(1 0 0 1 263 1933)">
   <path d="M9.24805 0.830078C13.5547 0.830078 17.1387-2.74414 17.1387-7.05078C17.1387-11.3574 13.5449-14.9316 9.23828-14.9316C4.94141-14.9316 1.36719-11.3574 1.36719-7.05078C1.36719-2.74414 4.95117 0.830078 9.24805 0.830078ZM9.24805-0.654297C5.70312-0.654297 2.87109-3.49609 2.87109-7.05078C2.87109-10.6055 5.69336-13.4473 9.23828-13.4473C12.793-13.4473 15.6348-10.6055 15.6445-7.05078C15.6543-3.49609 12.8027-0.654297 9.24805-0.654297ZM6.39648-6.31836L8.50586-6.31836L8.50586-4.19922C8.50586-3.75977 8.79883-3.45703 9.22852-3.45703C9.67773-3.45703 9.9707-3.75977 9.9707-4.19922L9.9707-6.31836L12.0996-6.31836C12.5391-6.31836 12.8418-6.61133 12.8418-7.04102C12.8418-7.48047 12.5391-7.7832 12.0996-7.7832L9.9707-7.7832L9.9707-9.89258C9.9707-10.3418 9.67773-10.6445 9.22852-10.6445C8.79883-10.6445 8.50586-10.3418 8.50586-9.89258L8.50586-7.7832L6.39648-7.7832C5.94727-7.7832 5.64453-7.48047 5.64453-7.04102C5.64453-6.61133 5.94727-6.31836 6.39648-6.31836Z"/>
  </g>
  <g id="" transform="matrix(1 0 0 1 281.506 1933)">
   <path d="M11.709 2.91016C17.1582 2.91016 21.6699-1.61133 21.6699-7.05078C21.6699-12.5 17.1484-17.0117 11.6992-17.0117C6.25977-17.0117 1.74805-12.5 1.74805-7.05078C1.74805-1.61133 6.26953 2.91016 11.709 2.91016ZM11.709 1.25C7.09961 1.25 3.41797-2.44141 3.41797-7.05078C3.41797-11.6602 7.08984-15.3516 11.6992-15.3516C16.3086-15.3516 20-11.6602 20.0098-7.05078C20.0195-2.44141 16.3184 1.25 11.709 1.25ZM7.98828-6.23047L10.8789-6.23047L10.8789-3.32031C10.8789-2.83203 11.2109-2.5 11.6895-2.5C12.1777-2.5 12.5195-2.83203 12.5195-3.32031L12.5195-6.23047L15.4297-6.23047C15.918-6.23047 16.25-6.5625 16.25-7.04102C16.25-7.5293 15.918-7.87109 15.4297-7.87109L12.5195-7.87109L12.5195-10.7617C12.5195-11.2695 12.1777-11.6016 11.6895-11.6016C11.2109-11.6016 10.8789-11.2598 10.8789-10.7617L10.8789-7.87109L7.98828-7.87109C7.48047-7.87109 7.14844-7.5293 7.14844-7.04102C7.14844-6.5625 7.49023-6.23047 7.98828-6.23047Z"/>
  </g>
  <g id="" transform="matrix(1 0 0 1 304.924 1933)">
   <path d="M14.9707 5.66406C21.9336 5.66406 27.6953-0.0976562 27.6953-7.05078C27.6953-14.0137 21.9238-19.7754 14.9609-19.7754C8.00781-19.7754 2.25586-14.0137 2.25586-7.05078C2.25586-0.0976562 8.01758 5.66406 14.9707 5.66406ZM14.9707 3.84766C8.93555 3.84766 4.08203-1.01562 4.08203-7.05078C4.08203-13.0957 8.92578-17.9492 14.9609-17.9492C21.0059-17.9492 25.8594-13.0957 25.8691-7.05078C25.8789-1.01562 21.0156 3.84766 14.9707 3.84766ZM10.0586-6.14258L14.0625-6.14258L14.0625-2.12891C14.0625-1.5918 14.4336-1.2207 14.9512-1.2207C15.4883-1.2207 15.8594-1.5918 15.8594-2.12891L15.8594-6.14258L19.8828-6.14258C20.4102-6.14258 20.791-6.51367 20.791-7.03125C20.791-7.56836 20.4199-7.94922 19.8828-7.94922L15.8594-7.94922L15.8594-11.9531C15.8594-12.5098 15.4883-12.8809 14.9512-12.8809C14.4336-12.8809 14.0625-12.5 14.0625-11.9531L14.0625-7.94922L10.0586-7.94922C9.50195-7.94922 9.13086-7.56836 9.13086-7.03125C9.13086-6.51367 9.51172-6.14258 10.0586-6.14258Z"/>
  </g>
  <text style="stroke:none;fill:black;font-family:-apple-system,&quot;SF Pro Display&quot;,&quot;SF Pro Text&quot;,Helvetica,sans-serif;font-weight:bold;" transform="matrix(1 0 0 1 263 1953)">Design Variations</text>
  <text style="stroke:none;fill:black;font-family:-apple-system,&quot;SF Pro Display&quot;,&quot;SF Pro Text&quot;,Helvetica,sans-serif;" transform="matrix(1 0 0 1 263 1971)">Symbols are supported in up to nine weights and three scales.</text>
  <text style="stroke:none;fill:black;font-family:-apple-system,&quot;SF Pro Display&quot;,&quot;SF Pro Text&quot;,Helvetica,sans-serif;" transform="matrix(1 0 0 1 263 1989)">For optimal layout with text and other symbols, vertically align</text>
  <text style="stroke:none;fill:black;font-family:-apple-system,&quot;SF Pro Display&quot;,&quot;SF Pro Text&quot;,Helvetica,sans-serif;" transform="matrix(1 0 0 1 263 2007)">symbols with the adjacent text.</text>
  <line id="" style="fill:none;stroke:#00AEEF;stroke-width:0.5;opacity:1.0;" x1="776" x2="776" y1="1919" y2="1933"/>
  <g id="" transform="matrix(1 0 0 1 776 1933)">
   <path d="M3.31055 0.126953C3.82812 0.126953 4.08203-0.0683594 4.26758-0.605469L5.52734-4.0625L11.2891-4.0625L12.5488-0.605469C12.7344-0.0683594 12.9883 0.126953 13.4961 0.126953C14.0137 0.126953 14.3457-0.185547 14.3457-0.673828C14.3457-0.839844 14.3164-0.986328 14.2383-1.20117L9.6582-13.3887C9.43359-13.9941 9.0332-14.2871 8.4082-14.2871C7.80273-14.2871 7.39258-13.9941 7.17773-13.3984L2.59766-1.19141C2.51953-0.976562 2.49023-0.830078 2.49023-0.664062C2.49023-0.175781 2.80273 0.126953 3.31055 0.126953ZM6.00586-5.53711L8.37891-12.1094L8.42773-12.1094L10.8008-5.53711Z"/>
  </g>
  <line id="" style="fill:none;stroke:#00AEEF;stroke-width:0.5;opacity:1.0;" x1="792.836" x2="792.836" y1="1919" y2="1933"/>
  <text style="stroke:none;fill:black;font-family:-apple-system,&quot;SF Pro Display&quot;,&quot;SF Pro Text&quot;,Helvetica,sans-serif;font-weight:bold;" transform="matrix(1 0 0 1 776 1953)">Margins</text>
  <text style="stroke:none;fill:black;font-family:-apple-system,&quot;SF Pro Display&quot;,&quot;SF Pro Text&quot;,Helvetica,sans-serif;" transform="matrix(1 0 0 1 776 1971)">Leading and trailing margins on the left and right side of each symbol</text>
  <text style="stroke:none;fill:black;font-family:-apple-system,&quot;SF Pro Display&quot;,&quot;SF Pro Text&quot;,Helvetica,sans-serif;" transform="matrix(1 0 0 1 776 1989)">can be adjusted by modifying the x-location of the margin guidelines.</text>
  <text style="stroke:none;fill:black;font-family:-apple-system,&quot;SF Pro Display&quot;,&quot;SF Pro Text&quot;,Helvetica,sans-serif;" transform="matrix(1 0 0 1 776 2007)">Modifications are automatically applied proportionally to all</text>
  <text style="stroke:none;fill:black;font-family:-apple-system,&quot;SF Pro Display&quot;,&quot;SF Pro Text&quot;,Helvetica,sans-serif;" transform="matrix(1 0 0 1 776 2025)">scales and weights.</text>
  <g id="" transform="matrix(1 0 0 1 1289 1933)">
   <path d="M2.8418 1.86523L4.54102 3.57422C5.40039 4.44336 6.38672 4.38477 7.31445 3.35938L17.4902-7.85156C17.7539-7.76367 18.0273-7.7832 18.3398-7.8418L19.4043-8.03711L20.0684-7.36328L20.0293-6.80664C19.9902-6.30859 20.1172-5.92773 20.6055-5.44922L21.3672-4.70703C21.8457-4.22852 22.4609-4.19922 22.9297-4.66797L25.8398-7.58789C26.3086-8.05664 26.2891-8.65234 25.8105-9.13086L25.0391-9.89258C24.5605-10.3711 24.1895-10.5273 23.7109-10.4883L23.1348-10.4395L22.4902-11.0742L22.7344-12.1973C22.8613-12.7637 22.7051-13.2031 22.1191-13.7891L19.9219-15.9766C16.582-19.2969 12.1484-19.2188 9.25781-16.3281C8.83789-15.918 8.80859-15.3418 9.04297-14.9512C9.27734-14.5898 9.73633-14.3555 10.3809-14.5215C11.8457-14.8633 13.3691-14.9219 14.7949-13.9844L14.209-12.5293C14.0137-12.0508 13.9844-11.6504 14.1113-11.2891L3.04688-0.898438C2.06055 0.0195312 1.98242 0.996094 2.8418 1.86523ZM10.752-15.957C13.1836-17.7344 16.4746-17.4316 18.7012-15.2051L21.1328-12.793C21.3672-12.5586 21.4062-12.373 21.3379-12.0312L21.0156-10.5469L22.5195-9.0625L23.5059-9.12109C23.7598-9.13086 23.8379-9.11133 24.0332-8.91602L24.6094-8.33984L22.168-5.89844L21.5918-6.47461C21.3965-6.66992 21.3672-6.74805 21.377-7.01172L21.4453-7.98828L19.9512-9.47266L18.4277-9.21875C18.1055-9.15039 17.959-9.17969 17.7148-9.41406L15.7129-11.416C15.459-11.6504 15.4297-11.8164 15.5859-12.1875L16.4648-14.2773C14.9023-15.7324 12.8711-16.3574 10.8398-15.7617C10.6836-15.7227 10.625-15.8496 10.752-15.957ZM5.27344 2.30469L4.10156 1.14258C3.63281 0.683594 3.74023 0.341797 4.14062-0.0195312L14.9512-10.1953L16.416-8.71094L6.42578 2.27539C6.07422 2.67578 5.74219 2.77344 5.27344 2.30469Z"/>
  </g>
  <text style="stroke:none;fill:black;font-family:-apple-system,&quot;SF Pro Display&quot;,&quot;SF Pro Text&quot;,Helvetica,sans-serif;font-weight:bold;" transform="matrix(1 0 0 1 1289 1953)">Exporting</text>
  <text style="stroke:none;fill:black;font-family:-apple-system,&quot;SF Pro Display&quot;,&quot;SF Pro Text&quot;,Helvetica,sans-serif;" transform="matrix(1 0 0 1 1289 1971)">Symbols should be outlined when exporting to ensure the</text>
  <text style="stroke:none;fill:black;font-family:-apple-system,&quot;SF Pro Display&quot;,&quot;SF Pro Text&quot;,Helvetica,sans-serif;" transform="matrix(1 0 0 1 1289 1989)">design is preserved when submitting to Xcode.</text>
  <text id="template-version" style="stroke:none;fill:black;font-family:-apple-system,&quot;SF Pro Display&quot;,&quot;SF Pro Text&quot;,Helvetica,sans-serif;text-anchor:end;" transform="matrix(1 0 0 1 3036 1933)">Template v.2.0</text>
  <text style="stroke:none;fill:black;font-family:-apple-system,&quot;SF Pro Display&quot;,&quot;SF Pro Text&quot;,Helvetica,sans-serif;text-anchor:end;" transform="matrix(1 0 0 1 3036 1951)">Requires Xcode 12 or greater</text>
  <text style="stroke:none;fill:black;font-family:-apple-system,&quot;SF Pro Display&quot;,&quot;SF Pro Text&quot;,Helvetica,sans-serif;" transform="matrix(1 0 0 1 263 726)">Small</text>
  <text style="stroke:none;fill:black;font-family:-apple-system,&quot;SF Pro Display&quot;,&quot;SF Pro Text&quot;,Helvetica,sans-serif;" transform="matrix(1 0 0 1 263 1156)">Medium</text>
  <text style="stroke:none;fill:black;font-family:-apple-system,&quot;SF Pro Display&quot;,&quot;SF Pro Text&quot;,Helvetica,sans-serif;" transform="matrix(1 0 0 1 263 1586)">Large</text>
 </g>
 <g id="Guides">
  <g id="H-reference" style="fill:#27AAE1;stroke:none;" transform="matrix(1 0 0 1 339 696)">
   <path d="M0.976562 0L3.66211 0L12.9883-24.4629L45.752-24.4629L55.127 0L57.7637 0L30.6152-70.459L28.125-70.459ZM29.3457-67.1387L29.4434-67.1387L44.873-26.709L13.8672-26.709Z"/>
  </g>
  <line id="Baseline-S" style="fill:none;stroke:#27AAE1;opacity:1;stroke-width:0.5;" x1="263" x2="3036" y1="696" y2="696"/>
  <line id="Capline-S" style="fill:none;stroke:#27AAE1;opacity:1;stroke-width:0.5;" x1="263" x2="3036" y1="625.541" y2="625.541"/>
  <g id="H-reference" style="fill:#27AAE1;stroke:none;" transform="matrix(1 0 0 1 339 1126)">
   <path d="M0.976562 0L3.66211 0L12.9883-24.4629L45.752-24.4629L55.127 0L57.7637 0L30.6152-70.459L28.125-70.459ZM29.3457-67.1387L29.4434-67.1387L44.873-26.709L13.8672-26.709Z"/>
  </g>
  <line id="Baseline-M" style="fill:none;stroke:#27AAE1;opacity:1;stroke-width:0.5;" x1="263" x2="3036" y1="1126" y2="1126"/>
  <line id="Capline-M" style="fill:none;stroke:#27AAE1;opacity:1;stroke-width:0.5;" x1="263" x2="3036" y1="1055.54" y2="1055.54"/>
  <g id="H-reference" style="fill:#27AAE1;stroke:none;" transform="matrix(1 0 0 1 339 1556)">
   <path d="M0.976562 0L3.66211 0L12.9883-24.4629L45.752-24.4629L55.127 0L57.7637 0L30.6152-70.459L28.125-70.459ZM29.3457-67.1387L29.4434-67.1387L44.873-26.709L13.8672-26.709Z"/>
  </g>
  <line id="Baseline-L" style="fill:none;stroke:#27AAE1;opacity:1;stroke-width:0.5;" x1="263" x2="3036" y1="1556" y2="1556"/>
  <line id="Capline-L" style="fill:none;stroke:#27AAE1;opacity:1;stroke-width:0.5;" x1="263" x2="3036" y1="1485.54" y2="1485.54"/>
  <line id="left-margin" x1="1406.419168518253" x2="1406.419168518253" y1="1030.79" y2="1150.12" style="fill:none;stroke:#00AEEF;stroke-width:0.5;opacity:1.0;"/>
  <line id="right-margin" x1="1496.056305368406" x2="1496.056305368406" y1="1030.79" y2="1150.12" style="fill:none;stroke:#00AEEF;stroke-width:0.5;opacity:1.0;"/>
 </g>
 <g id="Symbols">
  <g id="Black-L" transform="matrix(1.0,0.0,0.0,1.0,2865.1896715524654,1452.6694976526662)">  <path stroke-miterlimit="4" clip-rule="evenodd" stroke-linecap="butt" stroke-opacity="1" fill-opacity="1" stroke-dasharray="none" stroke-width="1px" stroke="none" fill-rule="evenodd" stroke-linejoin="miter" fill="#000000" d="M25.836,104.235L89.981,104.235C97.853,104.235,104.235,97.853,104.235,89.977L104.235,25.836C104.235,17.964,97.853,11.582,89.981,11.582L25.836,11.582C17.964,11.582,11.582,17.964,11.582,25.836L11.582,89.977C11.582,97.853,17.964,104.235,25.836,104.235ZM113.145,127.399L49,127.399C41.128,127.399,34.745,121.016,34.745,113.141L34.745,110.026L46.327,110.026L46.327,110.241C46.327,113.321,48.822,115.817,51.9,115.817L110.244,115.817C113.321,115.817,115.817,113.321,115.817,110.241L115.817,104.235L110.026,104.235L110.026,92.654L115.817,92.654L115.817,51.9C115.817,48.823,113.321,46.327,110.244,46.327L110.026,46.327L110.026,34.745L113.145,34.745C121.016,34.745,127.399,41.128,127.399,49L127.399,113.141C127.399,121.016,121.016,127.399,113.145,127.399ZM87.08,92.654C90.158,92.654,92.654,90.158,92.654,87.077L92.654,81.072L23.163,81.072L23.163,87.077C23.163,90.158,25.659,92.654,28.737,92.654L87.08,92.654ZM23.163,69.49L23.163,28.737C23.163,25.659,25.659,23.163,28.737,23.163L87.08,23.163C90.158,23.163,92.654,25.659,92.654,28.737L92.654,69.49L23.163,69.49ZM23.163,69.49"/>
</g>
  <g id="Heavy-L" transform="matrix(1.0,0.0,0.0,1.0,2568.4796715524653,1452.6694976526662)">  <path fill-opacity="1" stroke="none" stroke-opacity="1" fill-rule="evenodd" fill="#000000" stroke-miterlimit="4" clip-rule="evenodd" stroke-dasharray="none" stroke-linecap="butt" stroke-linejoin="miter" stroke-width="1px" d="M25.836,104.235L89.981,104.235C97.853,104.235,104.235,97.853,104.235,89.977L104.235,25.836C104.235,17.964,97.853,11.582,89.981,11.582L25.836,11.582C17.964,11.582,11.582,17.964,11.582,25.836L11.582,89.977C11.582,97.853,17.964,104.235,25.836,104.235ZM113.145,127.399L49,127.399C41.128,127.399,34.745,121.016,34.745,113.141L34.745,110.026L46.327,110.026L46.327,110.241C46.327,113.321,48.822,115.817,51.9,115.817L110.244,115.817C113.321,115.817,115.817,113.321,115.817,110.241L115.817,104.235L110.026,104.235L110.026,92.654L115.817,92.654L115.817,51.9C115.817,48.823,113.321,46.327,110.244,46.327L110.026,46.327L110.026,34.745L113.145,34.745C121.016,34.745,127.399,41.128,127.399,49L127.399,113.141C127.399,121.016,121.016,127.399,113.145,127.399ZM87.08,92.654C90.158,92.654,92.654,90.158,92.654,87.077L92.654,81.072L23.163,81.072L23.163,87.077C23.163,90.158,25.659,92.654,28.737,92.654L87.08,92.654ZM23.163,69.49L23.163,28.737C23.163,25.659,25.659,23.163,28.737,23.163L87.08,23.163C90.158,23.163,92.654,25.659,92.654,28.737L92.654,69.49L23.163,69.49ZM23.163,69.49"/>
</g>
  <g id="Bold-L" transform="matrix(1.0,0.0,0.0,1.0,2271.7696715524653,1452.6694976526662)">  <path fill="#000000" stroke-dasharray="none" stroke="none" stroke-width="1px" stroke-linejoin="miter" fill-rule="evenodd" stroke-opacity="1" fill-opacity="1" stroke-miterlimit="4" clip-rule="evenodd" stroke-linecap="butt" d="M25.836,104.235L89.981,104.235C97.853,104.235,104.235,97.853,104.235,89.977L104.235,25.836C104.235,17.964,97.853,11.582,89.981,11.582L25.836,11.582C17.964,11.582,11.582,17.964,11.582,25.836L11.582,89.977C11.582,97.853,17.964,104.235,25.836,104.235ZM113.145,127.399L49,127.399C41.128,127.399,34.745,121.016,34.745,113.141L34.745,110.026L46.327,110.026L46.327,110.241C46.327,113.321,48.822,115.817,51.9,115.817L110.244,115.817C113.321,115.817,115.817,113.321,115.817,110.241L115.817,104.235L110.026,104.235L110.026,92.654L115.817,92.654L115.817,51.9C115.817,48.823,113.321,46.327,110.244,46.327L110.026,46.327L110.026,34.745L113.145,34.745C121.016,34.745,127.399,41.128,127.399,49L127.399,113.141C127.399,121.016,121.016,127.399,113.145,127.399ZM87.08,92.654C90.158,92.654,92.654,90.158,92.654,87.077L92.654,81.072L23.163,81.072L23.163,87.077C23.163,90.158,25.659,92.654,28.737,92.654L87.08,92.654ZM23.163,69.49L23.163,28.737C23.163,25.659,25.659,23.163,28.737,23.163L87.08,23.163C90.158,23.163,92.654,25.659,92.654,28.737L92.654,69.49L23.163,69.49ZM23.163,69.49"/>
</g>
  <g id="Semibold-L" transform="matrix(1.0,0.0,0.0,1.0,1975.0596715524655,1452.6694976526662)">  <path fill-opacity="1" stroke-opacity="1" stroke-linejoin="miter" stroke-linecap="butt" stroke-miterlimit="4" stroke-dasharray="none" fill-rule="evenodd" stroke-width="1px" clip-rule="evenodd" fill="#000000" stroke="none" d="M25.836,104.235L89.981,104.235C97.853,104.235,104.235,97.853,104.235,89.977L104.235,25.836C104.235,17.964,97.853,11.582,89.981,11.582L25.836,11.582C17.964,11.582,11.582,17.964,11.582,25.836L11.582,89.977C11.582,97.853,17.964,104.235,25.836,104.235ZM113.145,127.399L49,127.399C41.128,127.399,34.745,121.016,34.745,113.141L34.745,110.026L46.327,110.026L46.327,110.241C46.327,113.321,48.822,115.817,51.9,115.817L110.244,115.817C113.321,115.817,115.817,113.321,115.817,110.241L115.817,104.235L110.026,104.235L110.026,92.654L115.817,92.654L115.817,51.9C115.817,48.823,113.321,46.327,110.244,46.327L110.026,46.327L110.026,34.745L113.145,34.745C121.016,34.745,127.399,41.128,127.399,49L127.399,113.141C127.399,121.016,121.016,127.399,113.145,127.399ZM87.08,92.654C90.158,92.654,92.654,90.158,92.654,87.077L92.654,81.072L23.163,81.072L23.163,87.077C23.163,90.158,25.659,92.654,28.737,92.654L87.08,92.654ZM23.163,69.49L23.163,28.737C23.163,25.659,25.659,23.163,28.737,23.163L87.08,23.163C90.158,23.163,92.654,25.659,92.654,28.737L92.654,69.49L23.163,69.49ZM23.163,69.49"/>
</g>
  <g id="Medium-L" transform="matrix(1.0,0.0,0.0,1.0,1678.3496715524655,1452.6694976526662)">  <path stroke="none" stroke-linecap="butt" stroke-opacity="1" fill-rule="evenodd" stroke-dasharray="none" clip-rule="evenodd" fill-opacity="1" stroke-width="1px" fill="#000000" stroke-miterlimit="4" stroke-linejoin="miter" d="M25.836,104.235L89.981,104.235C97.853,104.235,104.235,97.853,104.235,89.977L104.235,25.836C104.235,17.964,97.853,11.582,89.981,11.582L25.836,11.582C17.964,11.582,11.582,17.964,11.582,25.836L11.582,89.977C11.582,97.853,17.964,104.235,25.836,104.235ZM113.145,127.399L49,127.399C41.128,127.399,34.745,121.016,34.745,113.141L34.745,110.026L46.327,110.026L46.327,110.241C46.327,113.321,48.822,115.817,51.9,115.817L110.244,115.817C113.321,115.817,115.817,113.321,115.817,110.241L115.817,104.235L110.026,104.235L110.026,92.654L115.817,92.654L115.817,51.9C115.817,48.823,113.321,46.327,110.244,46.327L110.026,46.327L110.026,34.745L113.145,34.745C121.016,34.745,127.399,41.128,127.399,49L127.399,113.141C127.399,121.016,121.016,127.399,113.145,127.399ZM87.08,92.654C90.158,92.654,92.654,90.158,92.654,87.077L92.654,81.072L23.163,81.072L23.163,87.077C23.163,90.158,25.659,92.654,28.737,92.654L87.08,92.654ZM23.163,69.49L23.163,28.737C23.163,25.659,25.659,23.163,28.737,23.163L87.08,23.163C90.158,23.163,92.654,25.659,92.654,28.737L92.654,69.49L23.163,69.49ZM23.163,69.49"/>
</g>
  <g id="Regular-L" transform="matrix(1.0,0.0,0.0,1.0,1381.6396715524654,1452.6694976526662)">  <path stroke-miterlimit="4" stroke-linecap="butt" stroke-opacity="1" clip-rule="evenodd" stroke-linejoin="miter" stroke-width="1px" stroke-dasharray="none" fill-rule="evenodd" fill-opacity="1" stroke="none" fill="#000000" d="M25.836,104.235L89.981,104.235C97.853,104.235,104.235,97.853,104.235,89.977L104.235,25.836C104.235,17.964,97.853,11.582,89.981,11.582L25.836,11.582C17.964,11.582,11.582,17.964,11.582,25.836L11.582,89.977C11.582,97.853,17.964,104.235,25.836,104.235ZM113.145,127.399L49,127.399C41.128,127.399,34.745,121.016,34.745,113.141L34.745,110.026L46.327,110.026L46.327,110.241C46.327,113.321,48.822,115.817,51.9,115.817L110.244,115.817C113.321,115.817,115.817,113.321,115.817,110.241L115.817,104.235L110.026,104.235L110.026,92.654L115.817,92.654L115.817,51.9C115.817,48.823,113.321,46.327,110.244,46.327L110.026,46.327L110.026,34.745L113.145,34.745C121.016,34.745,127.399,41.128,127.399,49L127.399,113.141C127.399,121.016,121.016,127.399,113.145,127.399ZM87.08,92.654C90.158,92.654,92.654,90.158,92.654,87.077L92.654,81.072L23.163,81.072L23.163,87.077C23.163,90.158,25.659,92.654,28.737,92.654L87.08,92.654ZM23.163,69.49L23.163,28.737C23.163,25.659,25.659,23.163,28.737,23.163L87.08,23.163C90.158,23.163,92.654,25.659,92.654,28.737L92.654,69.49L23.163,69.49ZM23.163,69.49"/>
</g>
  <g id="Light-L" transform="matrix(1.0,0.0,0.0,1.0,1084.9296715524656,1452.6694976526662)">  <path stroke-dasharray="none" stroke-linejoin="miter" fill-rule="evenodd" stroke-linecap="butt" stroke="none" clip-rule="evenodd" stroke-opacity="1" fill-opacity="1" stroke-miterlimit="4" stroke-width="1px" fill="#000000" d="M25.836,104.235L89.981,104.235C97.853,104.235,104.235,97.853,104.235,89.977L104.235,25.836C104.235,17.964,97.853,11.582,89.981,11.582L25.836,11.582C17.964,11.582,11.582,17.964,11.582,25.836L11.582,89.977C11.582,97.853,17.964,104.235,25.836,104.235ZM113.145,127.399L49,127.399C41.128,127.399,34.745,121.016,34.745,113.141L34.745,110.026L46.327,110.026L46.327,110.241C46.327,113.321,48.822,115.817,51.9,115.817L110.244,115.817C113.321,115.817,115.817,113.321,115.817,110.241L115.817,104.235L110.026,104.235L110.026,92.654L115.817,92.654L115.817,51.9C115.817,48.823,113.321,46.327,110.244,46.327L110.026,46.327L110.026,34.745L113.145,34.745C121.016,34.745,127.399,41.128,127.399,49L127.399,113.141C127.399,121.016,121.016,127.399,113.145,127.399ZM87.08,92.654C90.158,92.654,92.654,90.158,92.654,87.077L92.654,81.072L23.163,81.072L23.163,87.077C23.163,90.158,25.659,92.654,28.737,92.654L87.08,92.654ZM23.163,69.49L23.163,28.737C23.163,25.659,25.659,23.163,28.737,23.163L87.08,23.163C90.158,23.163,92.654,25.659,92.654,28.737L92.654,69.49L23.163,69.49ZM23.163,69.49"/>
</g>
  <g id="Thin-L" transform="matrix(1.0,0.0,0.0,1.0,788.2196715524656,1452.6694976526662)">  <path stroke-opacity="1" fill-opacity="1" fill-rule="evenodd" clip-rule="evenodd" stroke-dasharray="none" fill="#000000" stroke-linecap="butt" stroke="none" stroke-linejoin="miter" stroke-width="1px" stroke-miterlimit="4" d="M25.836,104.235L89.981,104.235C97.853,104.235,104.235,97.853,104.235,89.977L104.235,25.836C104.235,17.964,97.853,11.582,89.981,11.582L25.836,11.582C17.964,11.582,11.582,17.964,11.582,25.836L11.582,89.977C11.582,97.853,17.964,104.235,25.836,104.235ZM113.145,127.399L49,127.399C41.128,127.399,34.745,121.016,34.745,113.141L34.745,110.026L46.327,110.026L46.327,110.241C46.327,113.321,48.822,115.817,51.9,115.817L110.244,115.817C113.321,115.817,115.817,113.321,115.817,110.241L115.817,104.235L110.026,104.235L110.026,92.654L115.817,92.654L115.817,51.9C115.817,48.823,113.321,46.327,110.244,46.327L110.026,46.327L110.026,34.745L113.145,34.745C121.016,34.745,127.399,41.128,127.399,49L127.399,113.141C127.399,121.016,121.016,127.399,113.145,127.399ZM87.08,92.654C90.158,92.654,92.654,90.158,92.654,87.077L92.654,81.072L23.163,81.072L23.163,87.077C23.163,90.158,25.659,92.654,28.737,92.654L87.08,92.654ZM23.163,69.49L23.163,28.737C23.163,25.659,25.659,23.163,28.737,23.163L87.08,23.163C90.158,23.163,92.654,25.659,92.654,28.737L92.654,69.49L23.163,69.49ZM23.163,69.49"/>
</g>
  <g id="Ultralight-L" transform="matrix(1.0,0.0,0.0,1.0,491.5096715524656,1452.6694976526662)">  <path stroke-dasharray="none" clip-rule="evenodd" stroke-miterlimit="4" stroke-opacity="1" stroke-linejoin="miter" stroke="none" fill-opacity="1" stroke-width="1px" fill="#000000" fill-rule="evenodd" stroke-linecap="butt" d="M25.836,104.235L89.981,104.235C97.853,104.235,104.235,97.853,104.235,89.977L104.235,25.836C104.235,17.964,97.853,11.582,89.981,11.582L25.836,11.582C17.964,11.582,11.582,17.964,11.582,25.836L11.582,89.977C11.582,97.853,17.964,104.235,25.836,104.235ZM113.145,127.399L49,127.399C41.128,127.399,34.745,121.016,34.745,113.141L34.745,110.026L46.327,110.026L46.327,110.241C46.327,113.321,48.822,115.817,51.9,115.817L110.244,115.817C113.321,115.817,115.817,113.321,115.817,110.241L115.817,104.235L110.026,104.235L110.026,92.654L115.817,92.654L115.817,51.9C115.817,48.823,113.321,46.327,110.244,46.327L110.026,46.327L110.026,34.745L113.145,34.745C121.016,34.745,127.399,41.128,127.399,49L127.399,113.141C127.399,121.016,121.016,127.399,113.145,127.399ZM87.08,92.654C90.158,92.654,92.654,90.158,92.654,87.077L92.654,81.072L23.163,81.072L23.163,87.077C23.163,90.158,25.659,92.654,28.737,92.654L87.08,92.654ZM23.163,69.49L23.163,28.737C23.163,25.659,25.659,23.163,28.737,23.163L87.08,23.163C90.158,23.163,92.654,25.659,92.654,28.737L92.654,69.49L23.163,69.49ZM23.163,69.49"/>
</g>
  <g id="Black-M" transform="matrix(1.0,0.0,0.0,1.0,2880.8115283352445,1037.9789172997898)">  <path stroke-miterlimit="4" clip-rule="evenodd" stroke-linecap="butt" stroke-opacity="1" fill-opacity="1" stroke-dasharray="none" stroke-width="1px" stroke="none" fill-rule="evenodd" stroke-linejoin="miter" fill="#000000" d="M20.028,80.803L69.753,80.803C75.855,80.803,80.803,75.855,80.803,69.75L80.803,20.028C80.803,13.926,75.855,8.978,69.753,8.978L20.028,8.978C13.926,8.978,8.978,13.926,8.978,20.028L8.978,69.75C8.978,75.855,13.926,80.803,20.028,80.803ZM87.709,98.759L37.984,98.759C31.882,98.759,26.934,93.811,26.934,87.706L26.934,85.292L35.912,85.292L35.912,85.458C35.912,87.846,37.847,89.781,40.233,89.781L85.46,89.781C87.846,89.781,89.781,87.846,89.781,85.458L89.781,80.803L85.292,80.803L85.292,71.825L89.781,71.825L89.781,40.233C89.781,37.847,87.846,35.912,85.46,35.912L85.292,35.912L85.292,26.934L87.709,26.934C93.811,26.934,98.759,31.882,98.759,37.984L98.759,87.706C98.759,93.811,93.811,98.759,87.709,98.759ZM67.504,71.825C69.89,71.825,71.825,69.89,71.825,67.502L71.825,62.847L17.956,62.847L17.956,67.502C17.956,69.89,19.891,71.825,22.277,71.825L67.504,71.825ZM17.956,53.868L17.956,22.277C17.956,19.891,19.891,17.956,22.277,17.956L67.504,17.956C69.89,17.956,71.825,19.891,71.825,22.277L71.825,53.868L17.956,53.868ZM17.956,53.868"/>
</g>
  <g id="Heavy-M" transform="matrix(1.0,0.0,0.0,1.0,2584.1015283352444,1037.9789172997898)">  <path fill-opacity="1" stroke="none" stroke-opacity="1" fill-rule="evenodd" fill="#000000" stroke-miterlimit="4" clip-rule="evenodd" stroke-dasharray="none" stroke-linecap="butt" stroke-linejoin="miter" stroke-width="1px" d="M20.028,80.803L69.753,80.803C75.855,80.803,80.803,75.855,80.803,69.75L80.803,20.028C80.803,13.926,75.855,8.978,69.753,8.978L20.028,8.978C13.926,8.978,8.978,13.926,8.978,20.028L8.978,69.75C8.978,75.855,13.926,80.803,20.028,80.803ZM87.709,98.759L37.984,98.759C31.882,98.759,26.934,93.811,26.934,87.706L26.934,85.292L35.912,85.292L35.912,85.458C35.912,87.846,37.847,89.781,40.233,89.781L85.46,89.781C87.846,89.781,89.781,87.846,89.781,85.458L89.781,80.803L85.292,80.803L85.292,71.825L89.781,71.825L89.781,40.233C89.781,37.847,87.846,35.912,85.46,35.912L85.292,35.912L85.292,26.934L87.709,26.934C93.811,26.934,98.759,31.882,98.759,37.984L98.759,87.706C98.759,93.811,93.811,98.759,87.709,98.759ZM67.504,71.825C69.89,71.825,71.825,69.89,71.825,67.502L71.825,62.847L17.956,62.847L17.956,67.502C17.956,69.89,19.891,71.825,22.277,71.825L67.504,71.825ZM17.956,53.868L17.956,22.277C17.956,19.891,19.891,17.956,22.277,17.956L67.504,17.956C69.89,17.956,71.825,19.891,71.825,22.277L71.825,53.868L17.956,53.868ZM17.956,53.868"/>
</g>
  <g id="Bold-M" transform="matrix(1.0,0.0,0.0,1.0,2287.3915283352444,1037.9789172997898)">  <path fill="#000000" stroke-dasharray="none" stroke="none" stroke-width="1px" stroke-linejoin="miter" fill-rule="evenodd" stroke-opacity="1" fill-opacity="1" stroke-miterlimit="4" clip-rule="evenodd" stroke-linecap="butt" d="M20.028,80.803L69.753,80.803C75.855,80.803,80.803,75.855,80.803,69.75L80.803,20.028C80.803,13.926,75.855,8.978,69.753,8.978L20.028,8.978C13.926,8.978,8.978,13.926,8.978,20.028L8.978,69.75C8.978,75.855,13.926,80.803,20.028,80.803ZM87.709,98.759L37.984,98.759C31.882,98.759,26.934,93.811,26.934,87.706L26.934,85.292L35.912,85.292L35.912,85.458C35.912,87.846,37.847,89.781,40.233,89.781L85.46,89.781C87.846,89.781,89.781,87.846,89.781,85.458L89.781,80.803L85.292,80.803L85.292,71.825L89.781,71.825L89.781,40.233C89.781,37.847,87.846,35.912,85.46,35.912L85.292,35.912L85.292,26.934L87.709,26.934C93.811,26.934,98.759,31.882,98.759,37.984L98.759,87.706C98.759,93.811,93.811,98.759,87.709,98.759ZM67.504,71.825C69.89,71.825,71.825,69.89,71.825,67.502L71.825,62.847L17.956,62.847L17.956,67.502C17.956,69.89,19.891,71.825,22.277,71.825L67.504,71.825ZM17.956,53.868L17.956,22.277C17.956,19.891,19.891,17.956,22.277,17.956L67.504,17.956C69.89,17.956,71.825,19.891,71.825,22.277L71.825,53.868L17.956,53.868ZM17.956,53.868"/>
</g>
  <g id="Semibold-M" transform="matrix(1.0,0.0,0.0,1.0,1990.6815283352446,1037.9789172997898)">  <path fill-opacity="1" stroke-opacity="1" stroke-linejoin="miter" stroke-linecap="butt" stroke-miterlimit="4" stroke-dasharray="none" fill-rule="evenodd" stroke-width="1px" clip-rule="evenodd" fill="#000000" stroke="none" d="M20.028,80.803L69.753,80.803C75.855,80.803,80.803,75.855,80.803,69.75L80.803,20.028C80.803,13.926,75.855,8.978,69.753,8.978L20.028,8.978C13.926,8.978,8.978,13.926,8.978,20.028L8.978,69.75C8.978,75.855,13.926,80.803,20.028,80.803ZM87.709,98.759L37.984,98.759C31.882,98.759,26.934,93.811,26.934,87.706L26.934,85.292L35.912,85.292L35.912,85.458C35.912,87.846,37.847,89.781,40.233,89.781L85.46,89.781C87.846,89.781,89.781,87.846,89.781,85.458L89.781,80.803L85.292,80.803L85.292,71.825L89.781,71.825L89.781,40.233C89.781,37.847,87.846,35.912,85.46,35.912L85.292,35.912L85.292,26.934L87.709,26.934C93.811,26.934,98.759,31.882,98.759,37.984L98.759,87.706C98.759,93.811,93.811,98.759,87.709,98.759ZM67.504,71.825C69.89,71.825,71.825,69.89,71.825,67.502L71.825,62.847L17.956,62.847L17.956,67.502C17.956,69.89,19.891,71.825,22.277,71.825L67.504,71.825ZM17.956,53.868L17.956,22.277C17.956,19.891,19.891,17.956,22.277,17.956L67.504,17.956C69.89,17.956,71.825,19.891,71.825,22.277L71.825,53.868L17.956,53.868ZM17.956,53.868"/>
</g>
  <g id="Medium-M" transform="matrix(1.0,0.0,0.0,1.0,1693.9715283352446,1037.9789172997898)">  <path stroke="none" stroke-linecap="butt" stroke-opacity="1" fill-rule="evenodd" stroke-dasharray="none" clip-rule="evenodd" fill-opacity="1" stroke-width="1px" fill="#000000" stroke-miterlimit="4" stroke-linejoin="miter" d="M20.028,80.803L69.753,80.803C75.855,80.803,80.803,75.855,80.803,69.75L80.803,20.028C80.803,13.926,75.855,8.978,69.753,8.978L20.028,8.978C13.926,8.978,8.978,13.926,8.978,20.028L8.978,69.75C8.978,75.855,13.926,80.803,20.028,80.803ZM87.709,98.759L37.984,98.759C31.882,98.759,26.934,93.811,26.934,87.706L26.934,85.292L35.912,85.292L35.912,85.458C35.912,87.846,37.847,89.781,40.233,89.781L85.46,89.781C87.846,89.781,89.781,87.846,89.781,85.458L89.781,80.803L85.292,80.803L85.292,71.825L89.781,71.825L89.781,40.233C89.781,37.847,87.846,35.912,85.46,35.912L85.292,35.912L85.292,26.934L87.709,26.934C93.811,26.934,98.759,31.882,98.759,37.984L98.759,87.706C98.759,93.811,93.811,98.759,87.709,98.759ZM67.504,71.825C69.89,71.825,71.825,69.89,71.825,67.502L71.825,62.847L17.956,62.847L17.956,67.502C17.956,69.89,19.891,71.825,22.277,71.825L67.504,71.825ZM17.956,53.868L17.956,22.277C17.956,19.891,19.891,17.956,22.277,17.956L67.504,17.956C69.89,17.956,71.825,19.891,71.825,22.277L71.825,53.868L17.956,53.868ZM17.956,53.868"/>
</g>
  <g id="Regular-M" transform="matrix(1.0,0.0,0.0,1.0,1397.2615283352445,1037.9789172997898)">  <path stroke-miterlimit="4" stroke-linecap="butt" stroke-opacity="1" clip-rule="evenodd" stroke-linejoin="miter" stroke-width="1px" stroke-dasharray="none" fill-rule="evenodd" fill-opacity="1" stroke="none" fill="#000000" d="M20.028,80.803L69.753,80.803C75.855,80.803,80.803,75.855,80.803,69.75L80.803,20.028C80.803,13.926,75.855,8.978,69.753,8.978L20.028,8.978C13.926,8.978,8.978,13.926,8.978,20.028L8.978,69.75C8.978,75.855,13.926,80.803,20.028,80.803ZM87.709,98.759L37.984,98.759C31.882,98.759,26.934,93.811,26.934,87.706L26.934,85.292L35.912,85.292L35.912,85.458C35.912,87.846,37.847,89.781,40.233,89.781L85.46,89.781C87.846,89.781,89.781,87.846,89.781,85.458L89.781,80.803L85.292,80.803L85.292,71.825L89.781,71.825L89.781,40.233C89.781,37.847,87.846,35.912,85.46,35.912L85.292,35.912L85.292,26.934L87.709,26.934C93.811,26.934,98.759,31.882,98.759,37.984L98.759,87.706C98.759,93.811,93.811,98.759,87.709,98.759ZM67.504,71.825C69.89,71.825,71.825,69.89,71.825,67.502L71.825,62.847L17.956,62.847L17.956,67.502C17.956,69.89,19.891,71.825,22.277,71.825L67.504,71.825ZM17.956,53.868L17.956,22.277C17.956,19.891,19.891,17.956,22.277,17.956L67.504,17.956C69.89,17.956,71.825,19.891,71.825,22.277L71.825,53.868L17.956,53.868ZM17.956,53.868"/>
</g>
  <g id="Light-M" transform="matrix(1.0,0.0,0.0,1.0,1100.5515283352447,1037.9789172997898)">  <path stroke-dasharray="none" stroke-linejoin="miter" fill-rule="evenodd" stroke-linecap="butt" stroke="none" clip-rule="evenodd" stroke-opacity="1" fill-opacity="1" stroke-miterlimit="4" stroke-width="1px" fill="#000000" d="M20.028,80.803L69.753,80.803C75.855,80.803,80.803,75.855,80.803,69.75L80.803,20.028C80.803,13.926,75.855,8.978,69.753,8.978L20.028,8.978C13.926,8.978,8.978,13.926,8.978,20.028L8.978,69.75C8.978,75.855,13.926,80.803,20.028,80.803ZM87.709,98.759L37.984,98.759C31.882,98.759,26.934,93.811,26.934,87.706L26.934,85.292L35.912,85.292L35.912,85.458C35.912,87.846,37.847,89.781,40.233,89.781L85.46,89.781C87.846,89.781,89.781,87.846,89.781,85.458L89.781,80.803L85.292,80.803L85.292,71.825L89.781,71.825L89.781,40.233C89.781,37.847,87.846,35.912,85.46,35.912L85.292,35.912L85.292,26.934L87.709,26.934C93.811,26.934,98.759,31.882,98.759,37.984L98.759,87.706C98.759,93.811,93.811,98.759,87.709,98.759ZM67.504,71.825C69.89,71.825,71.825,69.89,71.825,67.502L71.825,62.847L17.956,62.847L17.956,67.502C17.956,69.89,19.891,71.825,22.277,71.825L67.504,71.825ZM17.956,53.868L17.956,22.277C17.956,19.891,19.891,17.956,22.277,17.956L67.504,17.956C69.89,17.956,71.825,19.891,71.825,22.277L71.825,53.868L17.956,53.868ZM17.956,53.868"/>
</g>
  <g id="Thin-M" transform="matrix(1.0,0.0,0.0,1.0,803.8415283352447,1037.9789172997898)">  <path stroke-opacity="1" fill-opacity="1" fill-rule="evenodd" clip-rule="evenodd" stroke-dasharray="none" fill="#000000" stroke-linecap="butt" stroke="none" stroke-linejoin="miter" stroke-width="1px" stroke-miterlimit="4" d="M20.028,80.803L69.753,80.803C75.855,80.803,80.803,75.855,80.803,69.75L80.803,20.028C80.803,13.926,75.855,8.978,69.753,8.978L20.028,8.978C13.926,8.978,8.978,13.926,8.978,20.028L8.978,69.75C8.978,75.855,13.926,80.803,20.028,80.803ZM87.709,98.759L37.984,98.759C31.882,98.759,26.934,93.811,26.934,87.706L26.934,85.292L35.912,85.292L35.912,85.458C35.912,87.846,37.847,89.781,40.233,89.781L85.46,89.781C87.846,89.781,89.781,87.846,89.781,85.458L89.781,80.803L85.292,80.803L85.292,71.825L89.781,71.825L89.781,40.233C89.781,37.847,87.846,35.912,85.46,35.912L85.292,35.912L85.292,26.934L87.709,26.934C93.811,26.934,98.759,31.882,98.759,37.984L98.759,87.706C98.759,93.811,93.811,98.759,87.709,98.759ZM67.504,71.825C69.89,71.825,71.825,69.89,71.825,67.502L71.825,62.847L17.956,62.847L17.956,67.502C17.956,69.89,19.891,71.825,22.277,71.825L67.504,71.825ZM17.956,53.868L17.956,22.277C17.956,19.891,19.891,17.956,22.277,17.956L67.504,17.956C69.89,17.956,71.825,19.891,71.825,22.277L71.825,53.868L17.956,53.868ZM17.956,53.868"/>
</g>
  <g id="Ultralight-M" transform="matrix(1.0,0.0,0.0,1.0,507.13152833524464,1037.9789172997898)">  <path stroke-dasharray="none" clip-rule="evenodd" stroke-miterlimit="4" stroke-opacity="1" stroke-linejoin="miter" stroke="none" fill-opacity="1" stroke-width="1px" fill="#000000" fill-rule="evenodd" stroke-linecap="butt" d="M20.028,80.803L69.753,80.803C75.855,80.803,80.803,75.855,80.803,69.75L80.803,20.028C80.803,13.926,75.855,8.978,69.753,8.978L20.028,8.978C13.926,8.978,8.978,13.926,8.978,20.028L8.978,69.75C8.978,75.855,13.926,80.803,20.028,80.803ZM87.709,98.759L37.984,98.759C31.882,98.759,26.934,93.811,26.934,87.706L26.934,85.292L35.912,85.292L35.912,85.458C35.912,87.846,37.847,89.781,40.233,89.781L85.46,89.781C87.846,89.781,89.781,87.846,89.781,85.458L89.781,80.803L85.292,80.803L85.292,71.825L89.781,71.825L89.781,40.233C89.781,37.847,87.846,35.912,85.46,35.912L85.292,35.912L85.292,26.934L87.709,26.934C93.811,26.934,98.759,31.882,98.759,37.984L98.759,87.706C98.759,93.811,93.811,98.759,87.709,98.759ZM67.504,71.825C69.89,71.825,71.825,69.89,71.825,67.502L71.825,62.847L17.956,62.847L17.956,67.502C17.956,69.89,19.891,71.825,22.277,71.825L67.504,71.825ZM17.956,53.868L17.956,22.277C17.956,19.891,19.891,17.956,22.277,17.956L67.504,17.956C69.89,17.956,71.825,19.891,71.825,22.277L71.825,53.868L17.956,53.868ZM17.956,53.868"/>
</g>
  <g id="Black-S" transform="matrix(1.0,0.0,0.0,1.0,2892.5009866864966,619.4345864840166)">  <path stroke-miterlimit="4" clip-rule="evenodd" stroke-linecap="butt" stroke-opacity="1" fill-opacity="1" stroke-dasharray="none" stroke-width="1px" stroke="none" fill-rule="evenodd" stroke-linejoin="miter" fill="#000000" d="M15.682,63.269L54.617,63.269C59.394,63.269,63.269,59.394,63.269,54.614L63.269,15.682C63.269,10.904,59.394,7.03,54.617,7.03L15.682,7.03C10.904,7.03,7.03,10.904,7.03,15.682L7.03,54.614C7.03,59.394,10.904,63.269,15.682,63.269ZM68.676,77.328L29.742,77.328C24.963,77.328,21.09,73.454,21.09,68.674L21.09,66.783L28.119,66.783L28.119,66.913C28.119,68.783,29.634,70.298,31.502,70.298L66.915,70.298C68.783,70.298,70.298,68.783,70.298,66.913L70.298,63.269L66.783,63.269L66.783,56.239L70.298,56.239L70.298,31.502C70.298,29.634,68.783,28.119,66.915,28.119L66.783,28.119L66.783,21.09L68.676,21.09C73.454,21.09,77.328,24.963,77.328,29.742L77.328,68.674C77.328,73.454,73.454,77.328,68.676,77.328ZM52.856,56.239C54.724,56.239,56.239,54.724,56.239,52.854L56.239,49.209L14.06,49.209L14.06,52.854C14.06,54.724,15.574,56.239,17.443,56.239L52.856,56.239ZM14.06,42.179L14.06,17.443C14.06,15.575,15.575,14.06,17.443,14.06L52.856,14.06C54.724,14.06,56.239,15.575,56.239,17.443L56.239,42.179L14.06,42.179ZM14.06,42.179"/>
</g>
  <g id="Heavy-S" transform="matrix(1.0,0.0,0.0,1.0,2595.7909866864966,619.4345864840166)">  <path fill-opacity="1" stroke="none" stroke-opacity="1" fill-rule="evenodd" fill="#000000" stroke-miterlimit="4" clip-rule="evenodd" stroke-dasharray="none" stroke-linecap="butt" stroke-linejoin="miter" stroke-width="1px" d="M15.682,63.269L54.617,63.269C59.394,63.269,63.269,59.394,63.269,54.614L63.269,15.682C63.269,10.904,59.394,7.03,54.617,7.03L15.682,7.03C10.904,7.03,7.03,10.904,7.03,15.682L7.03,54.614C7.03,59.394,10.904,63.269,15.682,63.269ZM68.676,77.328L29.742,77.328C24.963,77.328,21.09,73.454,21.09,68.674L21.09,66.783L28.119,66.783L28.119,66.913C28.119,68.783,29.634,70.298,31.502,70.298L66.915,70.298C68.783,70.298,70.298,68.783,70.298,66.913L70.298,63.269L66.783,63.269L66.783,56.239L70.298,56.239L70.298,31.502C70.298,29.634,68.783,28.119,66.915,28.119L66.783,28.119L66.783,21.09L68.676,21.09C73.454,21.09,77.328,24.963,77.328,29.742L77.328,68.674C77.328,73.454,73.454,77.328,68.676,77.328ZM52.856,56.239C54.724,56.239,56.239,54.724,56.239,52.854L56.239,49.209L14.06,49.209L14.06,52.854C14.06,54.724,15.574,56.239,17.443,56.239L52.856,56.239ZM14.06,42.179L14.06,17.443C14.06,15.575,15.575,14.06,17.443,14.06L52.856,14.06C54.724,14.06,56.239,15.575,56.239,17.443L56.239,42.179L14.06,42.179ZM14.06,42.179"/>
</g>
  <g id="Bold-S" transform="matrix(1.0,0.0,0.0,1.0,2299.0809866864965,619.4345864840166)">  <path fill="#000000" stroke-dasharray="none" stroke="none" stroke-width="1px" stroke-linejoin="miter" fill-rule="evenodd" stroke-opacity="1" fill-opacity="1" stroke-miterlimit="4" clip-rule="evenodd" stroke-linecap="butt" d="M15.682,63.269L54.617,63.269C59.394,63.269,63.269,59.394,63.269,54.614L63.269,15.682C63.269,10.904,59.394,7.03,54.617,7.03L15.682,7.03C10.904,7.03,7.03,10.904,7.03,15.682L7.03,54.614C7.03,59.394,10.904,63.269,15.682,63.269ZM68.676,77.328L29.742,77.328C24.963,77.328,21.09,73.454,21.09,68.674L21.09,66.783L28.119,66.783L28.119,66.913C28.119,68.783,29.634,70.298,31.502,70.298L66.915,70.298C68.783,70.298,70.298,68.783,70.298,66.913L70.298,63.269L66.783,63.269L66.783,56.239L70.298,56.239L70.298,31.502C70.298,29.634,68.783,28.119,66.915,28.119L66.783,28.119L66.783,21.09L68.676,21.09C73.454,21.09,77.328,24.963,77.328,29.742L77.328,68.674C77.328,73.454,73.454,77.328,68.676,77.328ZM52.856,56.239C54.724,56.239,56.239,54.724,56.239,52.854L56.239,49.209L14.06,49.209L14.06,52.854C14.06,54.724,15.574,56.239,17.443,56.239L52.856,56.239ZM14.06,42.179L14.06,17.443C14.06,15.575,15.575,14.06,17.443,14.06L52.856,14.06C54.724,14.06,56.239,15.575,56.239,17.443L56.239,42.179L14.06,42.179ZM14.06,42.179"/>
</g>
  <g id="Semibold-S" transform="matrix(1.0,0.0,0.0,1.0,2002.3709866864965,619.4345864840166)">  <path fill-opacity="1" stroke-opacity="1" stroke-linejoin="miter" stroke-linecap="butt" stroke-miterlimit="4" stroke-dasharray="none" fill-rule="evenodd" stroke-width="1px" clip-rule="evenodd" fill="#000000" stroke="none" d="M15.682,63.269L54.617,63.269C59.394,63.269,63.269,59.394,63.269,54.614L63.269,15.682C63.269,10.904,59.394,7.03,54.617,7.03L15.682,7.03C10.904,7.03,7.03,10.904,7.03,15.682L7.03,54.614C7.03,59.394,10.904,63.269,15.682,63.269ZM68.676,77.328L29.742,77.328C24.963,77.328,21.09,73.454,21.09,68.674L21.09,66.783L28.119,66.783L28.119,66.913C28.119,68.783,29.634,70.298,31.502,70.298L66.915,70.298C68.783,70.298,70.298,68.783,70.298,66.913L70.298,63.269L66.783,63.269L66.783,56.239L70.298,56.239L70.298,31.502C70.298,29.634,68.783,28.119,66.915,28.119L66.783,28.119L66.783,21.09L68.676,21.09C73.454,21.09,77.328,24.963,77.328,29.742L77.328,68.674C77.328,73.454,73.454,77.328,68.676,77.328ZM52.856,56.239C54.724,56.239,56.239,54.724,56.239,52.854L56.239,49.209L14.06,49.209L14.06,52.854C14.06,54.724,15.574,56.239,17.443,56.239L52.856,56.239ZM14.06,42.179L14.06,17.443C14.06,15.575,15.575,14.06,17.443,14.06L52.856,14.06C54.724,14.06,56.239,15.575,56.239,17.443L56.239,42.179L14.06,42.179ZM14.06,42.179"/>
</g>
  <g id="Medium-S" transform="matrix(1.0,0.0,0.0,1.0,1705.6609866864965,619.4345864840166)">  <path stroke="none" stroke-linecap="butt" stroke-opacity="1" fill-rule="evenodd" stroke-dasharray="none" clip-rule="evenodd" fill-opacity="1" stroke-width="1px" fill="#000000" stroke-miterlimit="4" stroke-linejoin="miter" d="M15.682,63.269L54.617,63.269C59.394,63.269,63.269,59.394,63.269,54.614L63.269,15.682C63.269,10.904,59.394,7.03,54.617,7.03L15.682,7.03C10.904,7.03,7.03,10.904,7.03,15.682L7.03,54.614C7.03,59.394,10.904,63.269,15.682,63.269ZM68.676,77.328L29.742,77.328C24.963,77.328,21.09,73.454,21.09,68.674L21.09,66.783L28.119,66.783L28.119,66.913C28.119,68.783,29.634,70.298,31.502,70.298L66.915,70.298C68.783,70.298,70.298,68.783,70.298,66.913L70.298,63.269L66.783,63.269L66.783,56.239L70.298,56.239L70.298,31.502C70.298,29.634,68.783,28.119,66.915,28.119L66.783,28.119L66.783,21.09L68.676,21.09C73.454,21.09,77.328,24.963,77.328,29.742L77.328,68.674C77.328,73.454,73.454,77.328,68.676,77.328ZM52.856,56.239C54.724,56.239,56.239,54.724,56.239,52.854L56.239,49.209L14.06,49.209L14.06,52.854C14.06,54.724,15.574,56.239,17.443,56.239L52.856,56.239ZM14.06,42.179L14.06,17.443C14.06,15.575,15.575,14.06,17.443,14.06L52.856,14.06C54.724,14.06,56.239,15.575,56.239,17.443L56.239,42.179L14.06,42.179ZM14.06,42.179"/>
</g>
  <g id="Regular-S" transform="matrix(1.0,0.0,0.0,1.0,1408.9509866864964,619.4345864840166)">  <path stroke-miterlimit="4" stroke-linecap="butt" stroke-opacity="1" clip-rule="evenodd" stroke-linejoin="miter" stroke-width="1px" stroke-dasharray="none" fill-rule="evenodd" fill-opacity="1" stroke="none" fill="#000000" d="M15.682,63.269L54.617,63.269C59.394,63.269,63.269,59.394,63.269,54.614L63.269,15.682C63.269,10.904,59.394,7.03,54.617,7.03L15.682,7.03C10.904,7.03,7.03,10.904,7.03,15.682L7.03,54.614C7.03,59.394,10.904,63.269,15.682,63.269ZM68.676,77.328L29.742,77.328C24.963,77.328,21.09,73.454,21.09,68.674L21.09,66.783L28.119,66.783L28.119,66.913C28.119,68.783,29.634,70.298,31.502,70.298L66.915,70.298C68.783,70.298,70.298,68.783,70.298,66.913L70.298,63.269L66.783,63.269L66.783,56.239L70.298,56.239L70.298,31.502C70.298,29.634,68.783,28.119,66.915,28.119L66.783,28.119L66.783,21.09L68.676,21.09C73.454,21.09,77.328,24.963,77.328,29.742L77.328,68.674C77.328,73.454,73.454,77.328,68.676,77.328ZM52.856,56.239C54.724,56.239,56.239,54.724,56.239,52.854L56.239,49.209L14.06,49.209L14.06,52.854C14.06,54.724,15.574,56.239,17.443,56.239L52.856,56.239ZM14.06,42.179L14.06,17.443C14.06,15.575,15.575,14.06,17.443,14.06L52.856,14.06C54.724,14.06,56.239,15.575,56.239,17.443L56.239,42.179L14.06,42.179ZM14.06,42.179"/>
</g>
  <g id="Light-S" transform="matrix(1.0,0.0,0.0,1.0,1112.2409866864966,619.4345864840166)">  <path stroke-dasharray="none" stroke-linejoin="miter" fill-rule="evenodd" stroke-linecap="butt" stroke="none" clip-rule="evenodd" stroke-opacity="1" fill-opacity="1" stroke-miterlimit="4" stroke-width="1px" fill="#000000" d="M15.682,63.269L54.617,63.269C59.394,63.269,63.269,59.394,63.269,54.614L63.269,15.682C63.269,10.904,59.394,7.03,54.617,7.03L15.682,7.03C10.904,7.03,7.03,10.904,7.03,15.682L7.03,54.614C7.03,59.394,10.904,63.269,15.682,63.269ZM68.676,77.328L29.742,77.328C24.963,77.328,21.09,73.454,21.09,68.674L21.09,66.783L28.119,66.783L28.119,66.913C28.119,68.783,29.634,70.298,31.502,70.298L66.915,70.298C68.783,70.298,70.298,68.783,70.298,66.913L70.298,63.269L66.783,63.269L66.783,56.239L70.298,56.239L70.298,31.502C70.298,29.634,68.783,28.119,66.915,28.119L66.783,28.119L66.783,21.09L68.676,21.09C73.454,21.09,77.328,24.963,77.328,29.742L77.328,68.674C77.328,73.454,73.454,77.328,68.676,77.328ZM52.856,56.239C54.724,56.239,56.239,54.724,56.239,52.854L56.239,49.209L14.06,49.209L14.06,52.854C14.06,54.724,15.574,56.239,17.443,56.239L52.856,56.239ZM14.06,42.179L14.06,17.443C14.06,15.575,15.575,14.06,17.443,14.06L52.856,14.06C54.724,14.06,56.239,15.575,56.239,17.443L56.239,42.179L14.06,42.179ZM14.06,42.179"/>
</g>
  <g id="Thin-S" transform="matrix(1.0,0.0,0.0,1.0,815.5309866864966,619.4345864840166)">  <path stroke-opacity="1" fill-opacity="1" fill-rule="evenodd" clip-rule="evenodd" stroke-dasharray="none" fill="#000000" stroke-linecap="butt" stroke="none" stroke-linejoin="miter" stroke-width="1px" stroke-miterlimit="4" d="M15.682,63.269L54.617,63.269C59.394,63.269,63.269,59.394,63.269,54.614L63.269,15.682C63.269,10.904,59.394,7.03,54.617,7.03L15.682,7.03C10.904,7.03,7.03,10.904,7.03,15.682L7.03,54.614C7.03,59.394,10.904,63.269,15.682,63.269ZM68.676,77.328L29.742,77.328C24.963,77.328,21.09,73.454,21.09,68.674L21.09,66.783L28.119,66.783L28.119,66.913C28.119,68.783,29.634,70.298,31.502,70.298L66.915,70.298C68.783,70.298,70.298,68.783,70.298,66.913L70.298,63.269L66.783,63.269L66.783,56.239L70.298,56.239L70.298,31.502C70.298,29.634,68.783,28.119,66.915,28.119L66.783,28.119L66.783,21.09L68.676,21.09C73.454,21.09,77.328,24.963,77.328,29.742L77.328,68.674C77.328,73.454,73.454,77.328,68.676,77.328ZM52.856,56.239C54.724,56.239,56.239,54.724,56.239,52.854L56.239,49.209L14.06,49.209L14.06,52.854C14.06,54.724,15.574,56.239,17.443,56.239L52.856,56.239ZM14.06,42.179L14.06,17.443C14.06,15.575,15.575,14.06,17.443,14.06L52.856,14.06C54.724,14.06,56.239,15.575,56.239,17.443L56.239,42.179L14.06,42.179ZM14.06,42.179"/>
</g>
  <g id="Ultralight-S" transform="matrix(1.0,0.0,0.0,1.0,518.8209866864966,619.4345864840166)">  <path stroke-dasharray="none" clip-rule="evenodd" stroke-miterlimit="4" stroke-opacity="1" stroke-linejoin="miter" stroke="none" fill-opacity="1" stroke-width="1px" fill="#000000" fill-rule="evenodd" stroke-linecap="butt" d="M15.682,63.269L54.617,63.269C59.394,63.269,63.269,59.394,63.269,54.614L63.269,15.682C63.269,10.904,59.394,7.03,54.617,7.03L15.682,7.03C10.904,7.03,7.03,10.904,7.03,15.682L7.03,54.614C7.03,59.394,10.904,63.269,15.682,63.269ZM68.676,77.328L29.742,77.328C24.963,77.328,21.09,73.454,21.09,68.674L21.09,66.783L28.119,66.783L28.119,66.913C28.119,68.783,29.634,70.298,31.502,70.298L66.915,70.298C68.783,70.298,70.298,68.783,70.298,66.913L70.298,63.269L66.783,63.269L66.783,56.239L70.298,56.239L70.298,31.502C70.298,29.634,68.783,28.119,66.915,28.119L66.783,28.119L66.783,21.09L68.676,21.09C73.454,21.09,77.328,24.963,77.328,29.742L77.328,68.674C77.328,73.454,73.454,77.328,68.676,77.328ZM52.856,56.239C54.724,56.239,56.239,54.724,56.239,52.854L56.239,49.209L14.06,49.209L14.06,52.854C14.06,54.724,15.574,56.239,17.443,56.239L52.856,56.239ZM14.06,42.179L14.06,17.443C14.06,15.575,15.575,14.06,17.443,14.06L52.856,14.06C54.724,14.06,56.239,15.575,56.239,17.443L56.239,42.179L14.06,42.179ZM14.06,42.179"/>
</g>
 </g>
</svg>
