<?xml version="1.0" encoding="UTF-8"?>
<!-- Generator: CustomSymbols v2.6.1.40 by @serious_bret https://bretlester.com/app_content/CustomSymbols/ -->
<!-- Guides: Left/Right 0.082/0.082 Cap/Base 0.166/0.166 -->
<!-- Settings: RefScale 1.0 Min/Max Stroke Scales 0.5/2.21 -->
<!DOCTYPE svg
PUBLIC "-//W3C//DTD SVG 1.1//EN"
       "http://www.w3.org/Graphics/SVG/1.1/DTD/svg11.dtd">
<svg version="1.1" xmlns="http://www.w3.org/2000/svg" xmlns:xlink="http://www.w3.org/1999/xlink" width="3300" height="2200">
<![CDATA[<svg width="24" height="24" viewBox="0 0 24 24" fill="none" xmlns="http://www.w3.org/2000/svg">
<path fill-rule="evenodd" clip-rule="evenodd" d="M4.18254 5.76446L7.0445 10.7215C7.61372 8.5165 9.61966 6.88282 12 6.88282C12.1498 6.88282 12.298 6.88966 12.4446 6.90235H20.6042C18.8615 3.9675 15.6608 2 12 2C8.83556 2 6.01493 3.47024 4.18254 5.76446ZM21.3118 8.34767H15.5802C16.5281 9.27697 17.1172 10.5709 17.1172 12C17.1172 13.0824 16.7791 14.0873 16.2032 14.915L12.1135 21.9986C17.5839 21.9376 22 17.4849 22 12C22 10.711 21.756 9.47912 21.3118 8.34767ZM8.3672 12C8.3672 9.99689 9.99689 8.3672 12 8.3672C14.0031 8.3672 15.6328 9.99689 15.6328 12C15.6328 14.0031 14.0031 15.6328 12 15.6328C9.99689 15.6328 8.3672 14.0031 8.3672 12ZM10.5079 21.8891L13.3708 16.9305C12.9343 17.052 12.4746 17.1172 12 17.1172C9.95318 17.1172 8.18349 15.909 7.36575 14.1686L3.28313 7.0972C2.46649 8.54599 2 10.2184 2 12C2 17.0157 5.69282 21.1687 10.5079 21.8891Z" fill="black"/>
</svg>
]]>
 <g id="Notes">
  <rect height="2200" id="artboard" style="fill:white;opacity:1" width="3300" x="0" y="0"/>
  <line id="" style="fill:none;stroke:black;opacity:1;stroke-width:0.5;" x1="263" x2="3036" y1="292" y2="292"/>
  <text id="reftext1" style="stroke:none;fill:black;font-family:-apple-system,&quot;SF Pro Display&quot;,&quot;SF Pro Text&quot;,Helvetica,sans-serif;font-weight:bold;" transform="matrix(1 0 0 1 263 322)">Weight/Scale Variations</text>
  <text id="reftext2" style="stroke:none;fill:black;font-family:-apple-system,&quot;SF Pro Display&quot;,&quot;SF Pro Text&quot;,Helvetica,sans-serif;text-anchor:middle;" transform="matrix(1 0 0 1 559.711 322)">Ultralight</text>
  <text style="stroke:none;fill:black;font-family:-apple-system,&quot;SF Pro Display&quot;,&quot;SF Pro Text&quot;,Helvetica,sans-serif;text-anchor:middle;" transform="matrix(1 0 0 1 856.422 322)">Thin</text>
  <text style="stroke:none;fill:black;font-family:-apple-system,&quot;SF Pro Display&quot;,&quot;SF Pro Text&quot;,Helvetica,sans-serif;text-anchor:middle;" transform="matrix(1 0 0 1 1153.13 322)">Light</text>
  <text style="stroke:none;fill:black;font-family:-apple-system,&quot;SF Pro Display&quot;,&quot;SF Pro Text&quot;,Helvetica,sans-serif;text-anchor:middle;" transform="matrix(1 0 0 1 1449.84 322)">Regular</text>
  <text style="stroke:none;fill:black;font-family:-apple-system,&quot;SF Pro Display&quot;,&quot;SF Pro Text&quot;,Helvetica,sans-serif;text-anchor:middle;" transform="matrix(1 0 0 1 1746.56 322)">Medium</text>
  <text style="stroke:none;fill:black;font-family:-apple-system,&quot;SF Pro Display&quot;,&quot;SF Pro Text&quot;,Helvetica,sans-serif;text-anchor:middle;" transform="matrix(1 0 0 1 2043.27 322)">Semibold</text>
  <text style="stroke:none;fill:black;font-family:-apple-system,&quot;SF Pro Display&quot;,&quot;SF Pro Text&quot;,Helvetica,sans-serif;text-anchor:middle;" transform="matrix(1 0 0 1 2339.98 322)">Bold</text>
  <text style="stroke:none;fill:black;font-family:-apple-system,&quot;SF Pro Display&quot;,&quot;SF Pro Text&quot;,Helvetica,sans-serif;text-anchor:middle;" transform="matrix(1 0 0 1 2636.69 322)">Heavy</text>
  <text style="stroke:none;fill:black;font-family:-apple-system,&quot;SF Pro Display&quot;,&quot;SF Pro Text&quot;,Helvetica,sans-serif;text-anchor:middle;" transform="matrix(1 0 0 1 2933.4 322)">Black</text>
  <line id="" style="fill:none;stroke:black;opacity:1;stroke-width:0.5;" x1="263" x2="3036" y1="1903" y2="1903"/>
  <g id="" transform="matrix(1 0 0 1 263 1933)">
   <path d="M9.24805 0.830078C13.5547 0.830078 17.1387-2.74414 17.1387-7.05078C17.1387-11.3574 13.5449-14.9316 9.23828-14.9316C4.94141-14.9316 1.36719-11.3574 1.36719-7.05078C1.36719-2.74414 4.95117 0.830078 9.24805 0.830078ZM9.24805-0.654297C5.70312-0.654297 2.87109-3.49609 2.87109-7.05078C2.87109-10.6055 5.69336-13.4473 9.23828-13.4473C12.793-13.4473 15.6348-10.6055 15.6445-7.05078C15.6543-3.49609 12.8027-0.654297 9.24805-0.654297ZM6.39648-6.31836L8.50586-6.31836L8.50586-4.19922C8.50586-3.75977 8.79883-3.45703 9.22852-3.45703C9.67773-3.45703 9.9707-3.75977 9.9707-4.19922L9.9707-6.31836L12.0996-6.31836C12.5391-6.31836 12.8418-6.61133 12.8418-7.04102C12.8418-7.48047 12.5391-7.7832 12.0996-7.7832L9.9707-7.7832L9.9707-9.89258C9.9707-10.3418 9.67773-10.6445 9.22852-10.6445C8.79883-10.6445 8.50586-10.3418 8.50586-9.89258L8.50586-7.7832L6.39648-7.7832C5.94727-7.7832 5.64453-7.48047 5.64453-7.04102C5.64453-6.61133 5.94727-6.31836 6.39648-6.31836Z"/>
  </g>
  <g id="" transform="matrix(1 0 0 1 281.506 1933)">
   <path d="M11.709 2.91016C17.1582 2.91016 21.6699-1.61133 21.6699-7.05078C21.6699-12.5 17.1484-17.0117 11.6992-17.0117C6.25977-17.0117 1.74805-12.5 1.74805-7.05078C1.74805-1.61133 6.26953 2.91016 11.709 2.91016ZM11.709 1.25C7.09961 1.25 3.41797-2.44141 3.41797-7.05078C3.41797-11.6602 7.08984-15.3516 11.6992-15.3516C16.3086-15.3516 20-11.6602 20.0098-7.05078C20.0195-2.44141 16.3184 1.25 11.709 1.25ZM7.98828-6.23047L10.8789-6.23047L10.8789-3.32031C10.8789-2.83203 11.2109-2.5 11.6895-2.5C12.1777-2.5 12.5195-2.83203 12.5195-3.32031L12.5195-6.23047L15.4297-6.23047C15.918-6.23047 16.25-6.5625 16.25-7.04102C16.25-7.5293 15.918-7.87109 15.4297-7.87109L12.5195-7.87109L12.5195-10.7617C12.5195-11.2695 12.1777-11.6016 11.6895-11.6016C11.2109-11.6016 10.8789-11.2598 10.8789-10.7617L10.8789-7.87109L7.98828-7.87109C7.48047-7.87109 7.14844-7.5293 7.14844-7.04102C7.14844-6.5625 7.49023-6.23047 7.98828-6.23047Z"/>
  </g>
  <g id="" transform="matrix(1 0 0 1 304.924 1933)">
   <path d="M14.9707 5.66406C21.9336 5.66406 27.6953-0.0976562 27.6953-7.05078C27.6953-14.0137 21.9238-19.7754 14.9609-19.7754C8.00781-19.7754 2.25586-14.0137 2.25586-7.05078C2.25586-0.0976562 8.01758 5.66406 14.9707 5.66406ZM14.9707 3.84766C8.93555 3.84766 4.08203-1.01562 4.08203-7.05078C4.08203-13.0957 8.92578-17.9492 14.9609-17.9492C21.0059-17.9492 25.8594-13.0957 25.8691-7.05078C25.8789-1.01562 21.0156 3.84766 14.9707 3.84766ZM10.0586-6.14258L14.0625-6.14258L14.0625-2.12891C14.0625-1.5918 14.4336-1.2207 14.9512-1.2207C15.4883-1.2207 15.8594-1.5918 15.8594-2.12891L15.8594-6.14258L19.8828-6.14258C20.4102-6.14258 20.791-6.51367 20.791-7.03125C20.791-7.56836 20.4199-7.94922 19.8828-7.94922L15.8594-7.94922L15.8594-11.9531C15.8594-12.5098 15.4883-12.8809 14.9512-12.8809C14.4336-12.8809 14.0625-12.5 14.0625-11.9531L14.0625-7.94922L10.0586-7.94922C9.50195-7.94922 9.13086-7.56836 9.13086-7.03125C9.13086-6.51367 9.51172-6.14258 10.0586-6.14258Z"/>
  </g>
  <text style="stroke:none;fill:black;font-family:-apple-system,&quot;SF Pro Display&quot;,&quot;SF Pro Text&quot;,Helvetica,sans-serif;font-weight:bold;" transform="matrix(1 0 0 1 263 1953)">Design Variations</text>
  <text style="stroke:none;fill:black;font-family:-apple-system,&quot;SF Pro Display&quot;,&quot;SF Pro Text&quot;,Helvetica,sans-serif;" transform="matrix(1 0 0 1 263 1971)">Symbols are supported in up to nine weights and three scales.</text>
  <text style="stroke:none;fill:black;font-family:-apple-system,&quot;SF Pro Display&quot;,&quot;SF Pro Text&quot;,Helvetica,sans-serif;" transform="matrix(1 0 0 1 263 1989)">For optimal layout with text and other symbols, vertically align</text>
  <text style="stroke:none;fill:black;font-family:-apple-system,&quot;SF Pro Display&quot;,&quot;SF Pro Text&quot;,Helvetica,sans-serif;" transform="matrix(1 0 0 1 263 2007)">symbols with the adjacent text.</text>
  <line id="" style="fill:none;stroke:#00AEEF;stroke-width:0.5;opacity:1.0;" x1="776" x2="776" y1="1919" y2="1933"/>
  <g id="" transform="matrix(1 0 0 1 776 1933)">
   <path d="M3.31055 0.126953C3.82812 0.126953 4.08203-0.0683594 4.26758-0.605469L5.52734-4.0625L11.2891-4.0625L12.5488-0.605469C12.7344-0.0683594 12.9883 0.126953 13.4961 0.126953C14.0137 0.126953 14.3457-0.185547 14.3457-0.673828C14.3457-0.839844 14.3164-0.986328 14.2383-1.20117L9.6582-13.3887C9.43359-13.9941 9.0332-14.2871 8.4082-14.2871C7.80273-14.2871 7.39258-13.9941 7.17773-13.3984L2.59766-1.19141C2.51953-0.976562 2.49023-0.830078 2.49023-0.664062C2.49023-0.175781 2.80273 0.126953 3.31055 0.126953ZM6.00586-5.53711L8.37891-12.1094L8.42773-12.1094L10.8008-5.53711Z"/>
  </g>
  <line id="" style="fill:none;stroke:#00AEEF;stroke-width:0.5;opacity:1.0;" x1="792.836" x2="792.836" y1="1919" y2="1933"/>
  <text style="stroke:none;fill:black;font-family:-apple-system,&quot;SF Pro Display&quot;,&quot;SF Pro Text&quot;,Helvetica,sans-serif;font-weight:bold;" transform="matrix(1 0 0 1 776 1953)">Margins</text>
  <text style="stroke:none;fill:black;font-family:-apple-system,&quot;SF Pro Display&quot;,&quot;SF Pro Text&quot;,Helvetica,sans-serif;" transform="matrix(1 0 0 1 776 1971)">Leading and trailing margins on the left and right side of each symbol</text>
  <text style="stroke:none;fill:black;font-family:-apple-system,&quot;SF Pro Display&quot;,&quot;SF Pro Text&quot;,Helvetica,sans-serif;" transform="matrix(1 0 0 1 776 1989)">can be adjusted by modifying the x-location of the margin guidelines.</text>
  <text style="stroke:none;fill:black;font-family:-apple-system,&quot;SF Pro Display&quot;,&quot;SF Pro Text&quot;,Helvetica,sans-serif;" transform="matrix(1 0 0 1 776 2007)">Modifications are automatically applied proportionally to all</text>
  <text style="stroke:none;fill:black;font-family:-apple-system,&quot;SF Pro Display&quot;,&quot;SF Pro Text&quot;,Helvetica,sans-serif;" transform="matrix(1 0 0 1 776 2025)">scales and weights.</text>
  <g id="" transform="matrix(1 0 0 1 1289 1933)">
   <path d="M2.8418 1.86523L4.54102 3.57422C5.40039 4.44336 6.38672 4.38477 7.31445 3.35938L17.4902-7.85156C17.7539-7.76367 18.0273-7.7832 18.3398-7.8418L19.4043-8.03711L20.0684-7.36328L20.0293-6.80664C19.9902-6.30859 20.1172-5.92773 20.6055-5.44922L21.3672-4.70703C21.8457-4.22852 22.4609-4.19922 22.9297-4.66797L25.8398-7.58789C26.3086-8.05664 26.2891-8.65234 25.8105-9.13086L25.0391-9.89258C24.5605-10.3711 24.1895-10.5273 23.7109-10.4883L23.1348-10.4395L22.4902-11.0742L22.7344-12.1973C22.8613-12.7637 22.7051-13.2031 22.1191-13.7891L19.9219-15.9766C16.582-19.2969 12.1484-19.2188 9.25781-16.3281C8.83789-15.918 8.80859-15.3418 9.04297-14.9512C9.27734-14.5898 9.73633-14.3555 10.3809-14.5215C11.8457-14.8633 13.3691-14.9219 14.7949-13.9844L14.209-12.5293C14.0137-12.0508 13.9844-11.6504 14.1113-11.2891L3.04688-0.898438C2.06055 0.0195312 1.98242 0.996094 2.8418 1.86523ZM10.752-15.957C13.1836-17.7344 16.4746-17.4316 18.7012-15.2051L21.1328-12.793C21.3672-12.5586 21.4062-12.373 21.3379-12.0312L21.0156-10.5469L22.5195-9.0625L23.5059-9.12109C23.7598-9.13086 23.8379-9.11133 24.0332-8.91602L24.6094-8.33984L22.168-5.89844L21.5918-6.47461C21.3965-6.66992 21.3672-6.74805 21.377-7.01172L21.4453-7.98828L19.9512-9.47266L18.4277-9.21875C18.1055-9.15039 17.959-9.17969 17.7148-9.41406L15.7129-11.416C15.459-11.6504 15.4297-11.8164 15.5859-12.1875L16.4648-14.2773C14.9023-15.7324 12.8711-16.3574 10.8398-15.7617C10.6836-15.7227 10.625-15.8496 10.752-15.957ZM5.27344 2.30469L4.10156 1.14258C3.63281 0.683594 3.74023 0.341797 4.14062-0.0195312L14.9512-10.1953L16.416-8.71094L6.42578 2.27539C6.07422 2.67578 5.74219 2.77344 5.27344 2.30469Z"/>
  </g>
  <text style="stroke:none;fill:black;font-family:-apple-system,&quot;SF Pro Display&quot;,&quot;SF Pro Text&quot;,Helvetica,sans-serif;font-weight:bold;" transform="matrix(1 0 0 1 1289 1953)">Exporting</text>
  <text style="stroke:none;fill:black;font-family:-apple-system,&quot;SF Pro Display&quot;,&quot;SF Pro Text&quot;,Helvetica,sans-serif;" transform="matrix(1 0 0 1 1289 1971)">Symbols should be outlined when exporting to ensure the</text>
  <text style="stroke:none;fill:black;font-family:-apple-system,&quot;SF Pro Display&quot;,&quot;SF Pro Text&quot;,Helvetica,sans-serif;" transform="matrix(1 0 0 1 1289 1989)">design is preserved when submitting to Xcode.</text>
  <text id="template-version" style="stroke:none;fill:black;font-family:-apple-system,&quot;SF Pro Display&quot;,&quot;SF Pro Text&quot;,Helvetica,sans-serif;text-anchor:end;" transform="matrix(1 0 0 1 3036 1933)">Template v.2.0</text>
  <text style="stroke:none;fill:black;font-family:-apple-system,&quot;SF Pro Display&quot;,&quot;SF Pro Text&quot;,Helvetica,sans-serif;text-anchor:end;" transform="matrix(1 0 0 1 3036 1951)">Requires Xcode 12 or greater</text>
  <text style="stroke:none;fill:black;font-family:-apple-system,&quot;SF Pro Display&quot;,&quot;SF Pro Text&quot;,Helvetica,sans-serif;" transform="matrix(1 0 0 1 263 726)">Small</text>
  <text style="stroke:none;fill:black;font-family:-apple-system,&quot;SF Pro Display&quot;,&quot;SF Pro Text&quot;,Helvetica,sans-serif;" transform="matrix(1 0 0 1 263 1156)">Medium</text>
  <text style="stroke:none;fill:black;font-family:-apple-system,&quot;SF Pro Display&quot;,&quot;SF Pro Text&quot;,Helvetica,sans-serif;" transform="matrix(1 0 0 1 263 1586)">Large</text>
 </g>
 <g id="Guides">
  <g id="H-reference" style="fill:#27AAE1;stroke:none;" transform="matrix(1 0 0 1 339 696)">
   <path d="M0.976562 0L3.66211 0L12.9883-24.4629L45.752-24.4629L55.127 0L57.7637 0L30.6152-70.459L28.125-70.459ZM29.3457-67.1387L29.4434-67.1387L44.873-26.709L13.8672-26.709Z"/>
  </g>
  <line id="Baseline-S" style="fill:none;stroke:#27AAE1;opacity:1;stroke-width:0.5;" x1="263" x2="3036" y1="696" y2="696"/>
  <line id="Capline-S" style="fill:none;stroke:#27AAE1;opacity:1;stroke-width:0.5;" x1="263" x2="3036" y1="625.541" y2="625.541"/>
  <g id="H-reference" style="fill:#27AAE1;stroke:none;" transform="matrix(1 0 0 1 339 1126)">
   <path d="M0.976562 0L3.66211 0L12.9883-24.4629L45.752-24.4629L55.127 0L57.7637 0L30.6152-70.459L28.125-70.459ZM29.3457-67.1387L29.4434-67.1387L44.873-26.709L13.8672-26.709Z"/>
  </g>
  <line id="Baseline-M" style="fill:none;stroke:#27AAE1;opacity:1;stroke-width:0.5;" x1="263" x2="3036" y1="1126" y2="1126"/>
  <line id="Capline-M" style="fill:none;stroke:#27AAE1;opacity:1;stroke-width:0.5;" x1="263" x2="3036" y1="1055.54" y2="1055.54"/>
  <g id="H-reference" style="fill:#27AAE1;stroke:none;" transform="matrix(1 0 0 1 339 1556)">
   <path d="M0.976562 0L3.66211 0L12.9883-24.4629L45.752-24.4629L55.127 0L57.7637 0L30.6152-70.459L28.125-70.459ZM29.3457-67.1387L29.4434-67.1387L44.873-26.709L13.8672-26.709Z"/>
  </g>
  <line id="Baseline-L" style="fill:none;stroke:#27AAE1;opacity:1;stroke-width:0.5;" x1="263" x2="3036" y1="1556" y2="1556"/>
  <line id="Capline-L" style="fill:none;stroke:#27AAE1;opacity:1;stroke-width:0.5;" x1="263" x2="3036" y1="1485.54" y2="1485.54"/>
  <line id="left-margin" x1="1407.0397849223427" x2="1407.0397849223427" y1="1030.79" y2="1150.12" style="fill:none;stroke:#00AEEF;stroke-width:0.5;opacity:1.0;"/>
  <line id="right-margin" x1="1495.220215077657" x2="1495.220215077657" y1="1030.79" y2="1150.12" style="fill:none;stroke:#00AEEF;stroke-width:0.5;opacity:1.0;"/>
 </g>
 <g id="Symbols">
  <g id="Black-L" transform="matrix(1.0,0.0,0.0,1.0,2866.6460556816055,1452.7360752128554)">  <path stroke-opacity="1" stroke="none" fill="#000000" clip-rule="evenodd" fill-opacity="1" stroke-width="1px" stroke-linejoin="miter" fill-rule="evenodd" stroke-dasharray="none" stroke-miterlimit="4" stroke-linecap="butt" d="M23.713,32.682L39.939,60.785C43.166,48.284,54.539,39.022,68.034,39.022C68.883,39.022,69.723,39.061,70.555,39.133L116.815,39.133C106.935,22.494,88.789,11.339,68.034,11.339C50.093,11.339,34.102,19.675,23.713,32.682ZM120.827,47.327L88.332,47.327C93.706,52.596,97.046,59.932,97.046,68.034C97.046,74.171,95.129,79.868,91.864,84.561L68.677,124.721C99.692,124.375,124.729,99.131,124.729,68.034C124.729,60.726,123.346,53.742,120.827,47.327ZM47.438,68.034C47.438,56.677,56.677,47.438,68.034,47.438C79.391,47.438,88.63,56.677,88.63,68.034C88.63,79.391,79.391,88.63,68.034,88.63C56.677,88.63,47.438,79.391,47.438,68.034ZM59.574,124.1L75.806,95.987C73.331,96.676,70.725,97.046,68.034,97.046C56.43,97.046,46.396,90.196,41.76,80.329L18.614,40.238C13.984,48.451,11.339,57.933,11.339,68.034C11.339,96.47,32.275,120.016,59.574,124.1ZM59.574,124.1"/>
</g>
  <g id="Heavy-L" transform="matrix(1.0,0.0,0.0,1.0,2569.9360556816055,1452.7360752128554)">  <path stroke-opacity="1" fill-rule="evenodd" stroke-linejoin="miter" fill="#000000" stroke-miterlimit="4" stroke-width="1px" stroke-linecap="butt" clip-rule="evenodd" fill-opacity="1" stroke="none" stroke-dasharray="none" d="M23.713,32.682L39.939,60.785C43.166,48.284,54.539,39.022,68.034,39.022C68.883,39.022,69.723,39.061,70.555,39.133L116.815,39.133C106.935,22.494,88.789,11.339,68.034,11.339C50.093,11.339,34.102,19.675,23.713,32.682ZM120.827,47.327L88.332,47.327C93.706,52.596,97.046,59.932,97.046,68.034C97.046,74.171,95.129,79.868,91.864,84.561L68.677,124.721C99.692,124.375,124.729,99.131,124.729,68.034C124.729,60.726,123.346,53.742,120.827,47.327ZM47.438,68.034C47.438,56.677,56.677,47.438,68.034,47.438C79.391,47.438,88.63,56.677,88.63,68.034C88.63,79.391,79.391,88.63,68.034,88.63C56.677,88.63,47.438,79.391,47.438,68.034ZM59.574,124.1L75.806,95.987C73.331,96.676,70.725,97.046,68.034,97.046C56.43,97.046,46.396,90.196,41.76,80.329L18.614,40.238C13.984,48.451,11.339,57.933,11.339,68.034C11.339,96.47,32.275,120.016,59.574,124.1ZM59.574,124.1"/>
</g>
  <g id="Bold-L" transform="matrix(1.0,0.0,0.0,1.0,2273.2260556816054,1452.7360752128554)">  <path fill-rule="evenodd" stroke-dasharray="none" clip-rule="evenodd" fill-opacity="1" stroke-linecap="butt" stroke-linejoin="miter" fill="#000000" stroke-width="1px" stroke="none" stroke-miterlimit="4" stroke-opacity="1" d="M23.713,32.682L39.939,60.785C43.166,48.284,54.539,39.022,68.034,39.022C68.883,39.022,69.723,39.061,70.555,39.133L116.815,39.133C106.935,22.494,88.789,11.339,68.034,11.339C50.093,11.339,34.102,19.675,23.713,32.682ZM120.827,47.327L88.332,47.327C93.706,52.596,97.046,59.932,97.046,68.034C97.046,74.171,95.129,79.868,91.864,84.561L68.677,124.721C99.692,124.375,124.729,99.131,124.729,68.034C124.729,60.726,123.346,53.742,120.827,47.327ZM47.438,68.034C47.438,56.677,56.677,47.438,68.034,47.438C79.391,47.438,88.63,56.677,88.63,68.034C88.63,79.391,79.391,88.63,68.034,88.63C56.677,88.63,47.438,79.391,47.438,68.034ZM59.574,124.1L75.806,95.987C73.331,96.676,70.725,97.046,68.034,97.046C56.43,97.046,46.396,90.196,41.76,80.329L18.614,40.238C13.984,48.451,11.339,57.933,11.339,68.034C11.339,96.47,32.275,120.016,59.574,124.1ZM59.574,124.1"/>
</g>
  <g id="Semibold-L" transform="matrix(1.0,0.0,0.0,1.0,1976.5160556816054,1452.7360752128554)">  <path fill="#000000" stroke-linejoin="miter" stroke-width="1px" stroke-linecap="butt" stroke-opacity="1" stroke="none" stroke-dasharray="none" fill-rule="evenodd" clip-rule="evenodd" fill-opacity="1" stroke-miterlimit="4" d="M23.713,32.682L39.939,60.785C43.166,48.284,54.539,39.022,68.034,39.022C68.883,39.022,69.723,39.061,70.555,39.133L116.815,39.133C106.935,22.494,88.789,11.339,68.034,11.339C50.093,11.339,34.102,19.675,23.713,32.682ZM120.827,47.327L88.332,47.327C93.706,52.596,97.046,59.932,97.046,68.034C97.046,74.171,95.129,79.868,91.864,84.561L68.677,124.721C99.692,124.375,124.729,99.131,124.729,68.034C124.729,60.726,123.346,53.742,120.827,47.327ZM47.438,68.034C47.438,56.677,56.677,47.438,68.034,47.438C79.391,47.438,88.63,56.677,88.63,68.034C88.63,79.391,79.391,88.63,68.034,88.63C56.677,88.63,47.438,79.391,47.438,68.034ZM59.574,124.1L75.806,95.987C73.331,96.676,70.725,97.046,68.034,97.046C56.43,97.046,46.396,90.196,41.76,80.329L18.614,40.238C13.984,48.451,11.339,57.933,11.339,68.034C11.339,96.47,32.275,120.016,59.574,124.1ZM59.574,124.1"/>
</g>
  <g id="Medium-L" transform="matrix(1.0,0.0,0.0,1.0,1679.8060556816054,1452.7360752128554)">  <path stroke-width="1px" stroke-opacity="1" fill="#000000" stroke="none" fill-opacity="1" clip-rule="evenodd" stroke-linejoin="miter" fill-rule="evenodd" stroke-miterlimit="4" stroke-linecap="butt" stroke-dasharray="none" d="M23.713,32.682L39.939,60.785C43.166,48.284,54.539,39.022,68.034,39.022C68.883,39.022,69.723,39.061,70.555,39.133L116.815,39.133C106.935,22.494,88.789,11.339,68.034,11.339C50.093,11.339,34.102,19.675,23.713,32.682ZM120.827,47.327L88.332,47.327C93.706,52.596,97.046,59.932,97.046,68.034C97.046,74.171,95.129,79.868,91.864,84.561L68.677,124.721C99.692,124.375,124.729,99.131,124.729,68.034C124.729,60.726,123.346,53.742,120.827,47.327ZM47.438,68.034C47.438,56.677,56.677,47.438,68.034,47.438C79.391,47.438,88.63,56.677,88.63,68.034C88.63,79.391,79.391,88.63,68.034,88.63C56.677,88.63,47.438,79.391,47.438,68.034ZM59.574,124.1L75.806,95.987C73.331,96.676,70.725,97.046,68.034,97.046C56.43,97.046,46.396,90.196,41.76,80.329L18.614,40.238C13.984,48.451,11.339,57.933,11.339,68.034C11.339,96.47,32.275,120.016,59.574,124.1ZM59.574,124.1"/>
</g>
  <g id="Regular-L" transform="matrix(1.0,0.0,0.0,1.0,1383.0960556816053,1452.7360752128554)">  <path stroke-miterlimit="4" stroke-width="1px" stroke-dasharray="none" stroke="none" stroke-opacity="1" clip-rule="evenodd" stroke-linejoin="miter" fill="#000000" fill-rule="evenodd" fill-opacity="1" stroke-linecap="butt" d="M23.713,32.682L39.939,60.785C43.166,48.284,54.539,39.022,68.034,39.022C68.883,39.022,69.723,39.061,70.555,39.133L116.815,39.133C106.935,22.494,88.789,11.339,68.034,11.339C50.093,11.339,34.102,19.675,23.713,32.682ZM120.827,47.327L88.332,47.327C93.706,52.596,97.046,59.932,97.046,68.034C97.046,74.171,95.129,79.868,91.864,84.561L68.677,124.721C99.692,124.375,124.729,99.131,124.729,68.034C124.729,60.726,123.346,53.742,120.827,47.327ZM47.438,68.034C47.438,56.677,56.677,47.438,68.034,47.438C79.391,47.438,88.63,56.677,88.63,68.034C88.63,79.391,79.391,88.63,68.034,88.63C56.677,88.63,47.438,79.391,47.438,68.034ZM59.574,124.1L75.806,95.987C73.331,96.676,70.725,97.046,68.034,97.046C56.43,97.046,46.396,90.196,41.76,80.329L18.614,40.238C13.984,48.451,11.339,57.933,11.339,68.034C11.339,96.47,32.275,120.016,59.574,124.1ZM59.574,124.1"/>
</g>
  <g id="Light-L" transform="matrix(1.0,0.0,0.0,1.0,1086.3860556816055,1452.7360752128554)">  <path stroke-linejoin="miter" stroke="none" clip-rule="evenodd" fill-rule="evenodd" fill="#000000" stroke-opacity="1" fill-opacity="1" stroke-dasharray="none" stroke-width="1px" stroke-miterlimit="4" stroke-linecap="butt" d="M23.713,32.682L39.939,60.785C43.166,48.284,54.539,39.022,68.034,39.022C68.883,39.022,69.723,39.061,70.555,39.133L116.815,39.133C106.935,22.494,88.789,11.339,68.034,11.339C50.093,11.339,34.102,19.675,23.713,32.682ZM120.827,47.327L88.332,47.327C93.706,52.596,97.046,59.932,97.046,68.034C97.046,74.171,95.129,79.868,91.864,84.561L68.677,124.721C99.692,124.375,124.729,99.131,124.729,68.034C124.729,60.726,123.346,53.742,120.827,47.327ZM47.438,68.034C47.438,56.677,56.677,47.438,68.034,47.438C79.391,47.438,88.63,56.677,88.63,68.034C88.63,79.391,79.391,88.63,68.034,88.63C56.677,88.63,47.438,79.391,47.438,68.034ZM59.574,124.1L75.806,95.987C73.331,96.676,70.725,97.046,68.034,97.046C56.43,97.046,46.396,90.196,41.76,80.329L18.614,40.238C13.984,48.451,11.339,57.933,11.339,68.034C11.339,96.47,32.275,120.016,59.574,124.1ZM59.574,124.1"/>
</g>
  <g id="Thin-L" transform="matrix(1.0,0.0,0.0,1.0,789.6760556816056,1452.7360752128554)">  <path stroke="none" fill-rule="evenodd" stroke-opacity="1" stroke-miterlimit="4" fill="#000000" stroke-linejoin="miter" stroke-dasharray="none" clip-rule="evenodd" stroke-width="1px" fill-opacity="1" stroke-linecap="butt" d="M23.713,32.682L39.939,60.785C43.166,48.284,54.539,39.022,68.034,39.022C68.883,39.022,69.723,39.061,70.555,39.133L116.815,39.133C106.935,22.494,88.789,11.339,68.034,11.339C50.093,11.339,34.102,19.675,23.713,32.682ZM120.827,47.327L88.332,47.327C93.706,52.596,97.046,59.932,97.046,68.034C97.046,74.171,95.129,79.868,91.864,84.561L68.677,124.721C99.692,124.375,124.729,99.131,124.729,68.034C124.729,60.726,123.346,53.742,120.827,47.327ZM47.438,68.034C47.438,56.677,56.677,47.438,68.034,47.438C79.391,47.438,88.63,56.677,88.63,68.034C88.63,79.391,79.391,88.63,68.034,88.63C56.677,88.63,47.438,79.391,47.438,68.034ZM59.574,124.1L75.806,95.987C73.331,96.676,70.725,97.046,68.034,97.046C56.43,97.046,46.396,90.196,41.76,80.329L18.614,40.238C13.984,48.451,11.339,57.933,11.339,68.034C11.339,96.47,32.275,120.016,59.574,124.1ZM59.574,124.1"/>
</g>
  <g id="Ultralight-L" transform="matrix(1.0,0.0,0.0,1.0,492.96605568160555,1452.7360752128554)">  <path stroke-dasharray="none" stroke="none" fill="#000000" stroke-opacity="1" fill-opacity="1" stroke-miterlimit="4" stroke-linejoin="miter" stroke-linecap="butt" stroke-width="1px" clip-rule="evenodd" fill-rule="evenodd" d="M23.713,32.682L39.939,60.785C43.166,48.284,54.539,39.022,68.034,39.022C68.883,39.022,69.723,39.061,70.555,39.133L116.815,39.133C106.935,22.494,88.789,11.339,68.034,11.339C50.093,11.339,34.102,19.675,23.713,32.682ZM120.827,47.327L88.332,47.327C93.706,52.596,97.046,59.932,97.046,68.034C97.046,74.171,95.129,79.868,91.864,84.561L68.677,124.721C99.692,124.375,124.729,99.131,124.729,68.034C124.729,60.726,123.346,53.742,120.827,47.327ZM47.438,68.034C47.438,56.677,56.677,47.438,68.034,47.438C79.391,47.438,88.63,56.677,88.63,68.034C88.63,79.391,79.391,88.63,68.034,88.63C56.677,88.63,47.438,79.391,47.438,68.034ZM59.574,124.1L75.806,95.987C73.331,96.676,70.725,97.046,68.034,97.046C56.43,97.046,46.396,90.196,41.76,80.329L18.614,40.238C13.984,48.451,11.339,57.933,11.339,68.034C11.339,96.47,32.275,120.016,59.574,124.1ZM59.574,124.1"/>
</g>
  <g id="Black-M" transform="matrix(1.0,0.0,0.0,1.0,2881.940508280314,1038.0305278115643)">  <path stroke-opacity="1" stroke="none" fill="#000000" clip-rule="evenodd" fill-opacity="1" stroke-width="1px" stroke-linejoin="miter" fill-rule="evenodd" stroke-dasharray="none" stroke-miterlimit="4" stroke-linecap="butt" d="M18.382,25.335L30.96,47.121C33.462,37.43,42.278,30.25,52.739,30.25C53.398,30.25,54.049,30.28,54.693,30.336L90.555,30.336C82.895,17.437,68.829,8.79,52.739,8.79C38.832,8.79,26.435,15.252,18.382,25.335ZM93.664,36.688L68.474,36.688C72.64,40.772,75.229,46.459,75.229,52.739C75.229,57.497,73.743,61.913,71.212,65.551L53.238,96.683C77.28,96.415,96.689,76.845,96.689,52.739C96.689,47.074,95.617,41.66,93.664,36.688ZM36.773,52.739C36.773,43.936,43.936,36.773,52.739,36.773C61.543,36.773,68.705,43.936,68.705,52.739C68.705,61.543,61.543,68.705,52.739,68.705C43.936,68.705,36.773,61.543,36.773,52.739ZM46.182,96.202L58.764,74.409C56.846,74.943,54.825,75.229,52.739,75.229C43.744,75.229,35.966,69.919,32.372,62.27L14.429,31.192C10.84,37.559,8.79,44.909,8.79,52.739C8.79,74.783,25.02,93.036,46.182,96.202ZM46.182,96.202"/>
</g>
  <g id="Heavy-M" transform="matrix(1.0,0.0,0.0,1.0,2585.230508280314,1038.0305278115643)">  <path stroke-opacity="1" fill-rule="evenodd" stroke-linejoin="miter" fill="#000000" stroke-miterlimit="4" stroke-width="1px" stroke-linecap="butt" clip-rule="evenodd" fill-opacity="1" stroke="none" stroke-dasharray="none" d="M18.382,25.335L30.96,47.121C33.462,37.43,42.278,30.25,52.739,30.25C53.398,30.25,54.049,30.28,54.693,30.336L90.555,30.336C82.895,17.437,68.829,8.79,52.739,8.79C38.832,8.79,26.435,15.252,18.382,25.335ZM93.664,36.688L68.474,36.688C72.64,40.772,75.229,46.459,75.229,52.739C75.229,57.497,73.743,61.913,71.212,65.551L53.238,96.683C77.28,96.415,96.689,76.845,96.689,52.739C96.689,47.074,95.617,41.66,93.664,36.688ZM36.773,52.739C36.773,43.936,43.936,36.773,52.739,36.773C61.543,36.773,68.705,43.936,68.705,52.739C68.705,61.543,61.543,68.705,52.739,68.705C43.936,68.705,36.773,61.543,36.773,52.739ZM46.182,96.202L58.764,74.409C56.846,74.943,54.825,75.229,52.739,75.229C43.744,75.229,35.966,69.919,32.372,62.27L14.429,31.192C10.84,37.559,8.79,44.909,8.79,52.739C8.79,74.783,25.02,93.036,46.182,96.202ZM46.182,96.202"/>
</g>
  <g id="Bold-M" transform="matrix(1.0,0.0,0.0,1.0,2288.520508280314,1038.0305278115643)">  <path fill-rule="evenodd" stroke-dasharray="none" clip-rule="evenodd" fill-opacity="1" stroke-linecap="butt" stroke-linejoin="miter" fill="#000000" stroke-width="1px" stroke="none" stroke-miterlimit="4" stroke-opacity="1" d="M18.382,25.335L30.96,47.121C33.462,37.43,42.278,30.25,52.739,30.25C53.398,30.25,54.049,30.28,54.693,30.336L90.555,30.336C82.895,17.437,68.829,8.79,52.739,8.79C38.832,8.79,26.435,15.252,18.382,25.335ZM93.664,36.688L68.474,36.688C72.64,40.772,75.229,46.459,75.229,52.739C75.229,57.497,73.743,61.913,71.212,65.551L53.238,96.683C77.28,96.415,96.689,76.845,96.689,52.739C96.689,47.074,95.617,41.66,93.664,36.688ZM36.773,52.739C36.773,43.936,43.936,36.773,52.739,36.773C61.543,36.773,68.705,43.936,68.705,52.739C68.705,61.543,61.543,68.705,52.739,68.705C43.936,68.705,36.773,61.543,36.773,52.739ZM46.182,96.202L58.764,74.409C56.846,74.943,54.825,75.229,52.739,75.229C43.744,75.229,35.966,69.919,32.372,62.27L14.429,31.192C10.84,37.559,8.79,44.909,8.79,52.739C8.79,74.783,25.02,93.036,46.182,96.202ZM46.182,96.202"/>
</g>
  <g id="Semibold-M" transform="matrix(1.0,0.0,0.0,1.0,1991.8105082803143,1038.0305278115643)">  <path fill="#000000" stroke-linejoin="miter" stroke-width="1px" stroke-linecap="butt" stroke-opacity="1" stroke="none" stroke-dasharray="none" fill-rule="evenodd" clip-rule="evenodd" fill-opacity="1" stroke-miterlimit="4" d="M18.382,25.335L30.96,47.121C33.462,37.43,42.278,30.25,52.739,30.25C53.398,30.25,54.049,30.28,54.693,30.336L90.555,30.336C82.895,17.437,68.829,8.79,52.739,8.79C38.832,8.79,26.435,15.252,18.382,25.335ZM93.664,36.688L68.474,36.688C72.64,40.772,75.229,46.459,75.229,52.739C75.229,57.497,73.743,61.913,71.212,65.551L53.238,96.683C77.28,96.415,96.689,76.845,96.689,52.739C96.689,47.074,95.617,41.66,93.664,36.688ZM36.773,52.739C36.773,43.936,43.936,36.773,52.739,36.773C61.543,36.773,68.705,43.936,68.705,52.739C68.705,61.543,61.543,68.705,52.739,68.705C43.936,68.705,36.773,61.543,36.773,52.739ZM46.182,96.202L58.764,74.409C56.846,74.943,54.825,75.229,52.739,75.229C43.744,75.229,35.966,69.919,32.372,62.27L14.429,31.192C10.84,37.559,8.79,44.909,8.79,52.739C8.79,74.783,25.02,93.036,46.182,96.202ZM46.182,96.202"/>
</g>
  <g id="Medium-M" transform="matrix(1.0,0.0,0.0,1.0,1695.1005082803142,1038.0305278115643)">  <path stroke-width="1px" stroke-opacity="1" fill="#000000" stroke="none" fill-opacity="1" clip-rule="evenodd" stroke-linejoin="miter" fill-rule="evenodd" stroke-miterlimit="4" stroke-linecap="butt" stroke-dasharray="none" d="M18.382,25.335L30.96,47.121C33.462,37.43,42.278,30.25,52.739,30.25C53.398,30.25,54.049,30.28,54.693,30.336L90.555,30.336C82.895,17.437,68.829,8.79,52.739,8.79C38.832,8.79,26.435,15.252,18.382,25.335ZM93.664,36.688L68.474,36.688C72.64,40.772,75.229,46.459,75.229,52.739C75.229,57.497,73.743,61.913,71.212,65.551L53.238,96.683C77.28,96.415,96.689,76.845,96.689,52.739C96.689,47.074,95.617,41.66,93.664,36.688ZM36.773,52.739C36.773,43.936,43.936,36.773,52.739,36.773C61.543,36.773,68.705,43.936,68.705,52.739C68.705,61.543,61.543,68.705,52.739,68.705C43.936,68.705,36.773,61.543,36.773,52.739ZM46.182,96.202L58.764,74.409C56.846,74.943,54.825,75.229,52.739,75.229C43.744,75.229,35.966,69.919,32.372,62.27L14.429,31.192C10.84,37.559,8.79,44.909,8.79,52.739C8.79,74.783,25.02,93.036,46.182,96.202ZM46.182,96.202"/>
</g>
  <g id="Regular-M" transform="matrix(1.0,0.0,0.0,1.0,1398.3905082803142,1038.0305278115643)">  <path stroke-miterlimit="4" stroke-width="1px" stroke-dasharray="none" stroke="none" stroke-opacity="1" clip-rule="evenodd" stroke-linejoin="miter" fill="#000000" fill-rule="evenodd" fill-opacity="1" stroke-linecap="butt" d="M18.382,25.335L30.96,47.121C33.462,37.43,42.278,30.25,52.739,30.25C53.398,30.25,54.049,30.28,54.693,30.336L90.555,30.336C82.895,17.437,68.829,8.79,52.739,8.79C38.832,8.79,26.435,15.252,18.382,25.335ZM93.664,36.688L68.474,36.688C72.64,40.772,75.229,46.459,75.229,52.739C75.229,57.497,73.743,61.913,71.212,65.551L53.238,96.683C77.28,96.415,96.689,76.845,96.689,52.739C96.689,47.074,95.617,41.66,93.664,36.688ZM36.773,52.739C36.773,43.936,43.936,36.773,52.739,36.773C61.543,36.773,68.705,43.936,68.705,52.739C68.705,61.543,61.543,68.705,52.739,68.705C43.936,68.705,36.773,61.543,36.773,52.739ZM46.182,96.202L58.764,74.409C56.846,74.943,54.825,75.229,52.739,75.229C43.744,75.229,35.966,69.919,32.372,62.27L14.429,31.192C10.84,37.559,8.79,44.909,8.79,52.739C8.79,74.783,25.02,93.036,46.182,96.202ZM46.182,96.202"/>
</g>
  <g id="Light-M" transform="matrix(1.0,0.0,0.0,1.0,1101.6805082803144,1038.0305278115643)">  <path stroke-linejoin="miter" stroke="none" clip-rule="evenodd" fill-rule="evenodd" fill="#000000" stroke-opacity="1" fill-opacity="1" stroke-dasharray="none" stroke-width="1px" stroke-miterlimit="4" stroke-linecap="butt" d="M18.382,25.335L30.96,47.121C33.462,37.43,42.278,30.25,52.739,30.25C53.398,30.25,54.049,30.28,54.693,30.336L90.555,30.336C82.895,17.437,68.829,8.79,52.739,8.79C38.832,8.79,26.435,15.252,18.382,25.335ZM93.664,36.688L68.474,36.688C72.64,40.772,75.229,46.459,75.229,52.739C75.229,57.497,73.743,61.913,71.212,65.551L53.238,96.683C77.28,96.415,96.689,76.845,96.689,52.739C96.689,47.074,95.617,41.66,93.664,36.688ZM36.773,52.739C36.773,43.936,43.936,36.773,52.739,36.773C61.543,36.773,68.705,43.936,68.705,52.739C68.705,61.543,61.543,68.705,52.739,68.705C43.936,68.705,36.773,61.543,36.773,52.739ZM46.182,96.202L58.764,74.409C56.846,74.943,54.825,75.229,52.739,75.229C43.744,75.229,35.966,69.919,32.372,62.27L14.429,31.192C10.84,37.559,8.79,44.909,8.79,52.739C8.79,74.783,25.02,93.036,46.182,96.202ZM46.182,96.202"/>
</g>
  <g id="Thin-M" transform="matrix(1.0,0.0,0.0,1.0,804.9705082803144,1038.0305278115643)">  <path stroke="none" fill-rule="evenodd" stroke-opacity="1" stroke-miterlimit="4" fill="#000000" stroke-linejoin="miter" stroke-dasharray="none" clip-rule="evenodd" stroke-width="1px" fill-opacity="1" stroke-linecap="butt" d="M18.382,25.335L30.96,47.121C33.462,37.43,42.278,30.25,52.739,30.25C53.398,30.25,54.049,30.28,54.693,30.336L90.555,30.336C82.895,17.437,68.829,8.79,52.739,8.79C38.832,8.79,26.435,15.252,18.382,25.335ZM93.664,36.688L68.474,36.688C72.64,40.772,75.229,46.459,75.229,52.739C75.229,57.497,73.743,61.913,71.212,65.551L53.238,96.683C77.28,96.415,96.689,76.845,96.689,52.739C96.689,47.074,95.617,41.66,93.664,36.688ZM36.773,52.739C36.773,43.936,43.936,36.773,52.739,36.773C61.543,36.773,68.705,43.936,68.705,52.739C68.705,61.543,61.543,68.705,52.739,68.705C43.936,68.705,36.773,61.543,36.773,52.739ZM46.182,96.202L58.764,74.409C56.846,74.943,54.825,75.229,52.739,75.229C43.744,75.229,35.966,69.919,32.372,62.27L14.429,31.192C10.84,37.559,8.79,44.909,8.79,52.739C8.79,74.783,25.02,93.036,46.182,96.202ZM46.182,96.202"/>
</g>
  <g id="Ultralight-M" transform="matrix(1.0,0.0,0.0,1.0,508.26050828031435,1038.0305278115643)">  <path stroke-dasharray="none" stroke="none" fill="#000000" stroke-opacity="1" fill-opacity="1" stroke-miterlimit="4" stroke-linejoin="miter" stroke-linecap="butt" stroke-width="1px" clip-rule="evenodd" fill-rule="evenodd" d="M18.382,25.335L30.96,47.121C33.462,37.43,42.278,30.25,52.739,30.25C53.398,30.25,54.049,30.28,54.693,30.336L90.555,30.336C82.895,17.437,68.829,8.79,52.739,8.79C38.832,8.79,26.435,15.252,18.382,25.335ZM93.664,36.688L68.474,36.688C72.64,40.772,75.229,46.459,75.229,52.739C75.229,57.497,73.743,61.913,71.212,65.551L53.238,96.683C77.28,96.415,96.689,76.845,96.689,52.739C96.689,47.074,95.617,41.66,93.664,36.688ZM36.773,52.739C36.773,43.936,43.936,36.773,52.739,36.773C61.543,36.773,68.705,43.936,68.705,52.739C68.705,61.543,61.543,68.705,52.739,68.705C43.936,68.705,36.773,61.543,36.773,52.739ZM46.182,96.202L58.764,74.409C56.846,74.943,54.825,75.229,52.739,75.229C43.744,75.229,35.966,69.919,32.372,62.27L14.429,31.192C10.84,37.559,8.79,44.909,8.79,52.739C8.79,74.783,25.02,93.036,46.182,96.202ZM46.182,96.202"/>
</g>
  <g id="Black-S" transform="matrix(1.0,0.0,0.0,1.0,2893.384977983486,619.4749975147362)">  <path stroke-opacity="1" stroke="none" fill="#000000" clip-rule="evenodd" fill-opacity="1" stroke-width="1px" stroke-linejoin="miter" fill-rule="evenodd" stroke-dasharray="none" stroke-miterlimit="4" stroke-linecap="butt" d="M14.393,19.837L24.242,36.895C26.201,29.307,33.104,23.686,41.295,23.686C41.811,23.686,42.321,23.709,42.825,23.753L70.904,23.753C64.907,13.653,53.893,6.883,41.295,6.883C30.405,6.883,20.699,11.942,14.393,19.837ZM73.339,28.726L53.615,28.726C56.877,31.924,58.905,36.377,58.905,41.295C58.905,45.02,57.741,48.478,55.759,51.326L41.686,75.703C60.511,75.493,75.708,60.17,75.708,41.295C75.708,36.859,74.868,32.62,73.339,28.726ZM28.794,41.295C28.794,34.402,34.402,28.794,41.295,28.794C48.188,28.794,53.796,34.402,53.796,41.295C53.796,48.188,48.188,53.796,41.295,53.796C34.402,53.796,28.794,48.188,28.794,41.295ZM36.16,75.326L46.012,58.262C44.51,58.68,42.928,58.905,41.295,58.905C34.251,58.905,28.161,54.747,25.347,48.758L11.298,24.423C8.488,29.409,6.883,35.164,6.883,41.295C6.883,58.555,19.59,72.847,36.16,75.326ZM36.16,75.326"/>
</g>
  <g id="Heavy-S" transform="matrix(1.0,0.0,0.0,1.0,2596.674977983486,619.4749975147362)">  <path stroke-opacity="1" fill-rule="evenodd" stroke-linejoin="miter" fill="#000000" stroke-miterlimit="4" stroke-width="1px" stroke-linecap="butt" clip-rule="evenodd" fill-opacity="1" stroke="none" stroke-dasharray="none" d="M14.393,19.837L24.242,36.895C26.201,29.307,33.104,23.686,41.295,23.686C41.811,23.686,42.321,23.709,42.825,23.753L70.904,23.753C64.907,13.653,53.893,6.883,41.295,6.883C30.405,6.883,20.699,11.942,14.393,19.837ZM73.339,28.726L53.615,28.726C56.877,31.924,58.905,36.377,58.905,41.295C58.905,45.02,57.741,48.478,55.759,51.326L41.686,75.703C60.511,75.493,75.708,60.17,75.708,41.295C75.708,36.859,74.868,32.62,73.339,28.726ZM28.794,41.295C28.794,34.402,34.402,28.794,41.295,28.794C48.188,28.794,53.796,34.402,53.796,41.295C53.796,48.188,48.188,53.796,41.295,53.796C34.402,53.796,28.794,48.188,28.794,41.295ZM36.16,75.326L46.012,58.262C44.51,58.68,42.928,58.905,41.295,58.905C34.251,58.905,28.161,54.747,25.347,48.758L11.298,24.423C8.488,29.409,6.883,35.164,6.883,41.295C6.883,58.555,19.59,72.847,36.16,75.326ZM36.16,75.326"/>
</g>
  <g id="Bold-S" transform="matrix(1.0,0.0,0.0,1.0,2299.964977983486,619.4749975147362)">  <path fill-rule="evenodd" stroke-dasharray="none" clip-rule="evenodd" fill-opacity="1" stroke-linecap="butt" stroke-linejoin="miter" fill="#000000" stroke-width="1px" stroke="none" stroke-miterlimit="4" stroke-opacity="1" d="M14.393,19.837L24.242,36.895C26.201,29.307,33.104,23.686,41.295,23.686C41.811,23.686,42.321,23.709,42.825,23.753L70.904,23.753C64.907,13.653,53.893,6.883,41.295,6.883C30.405,6.883,20.699,11.942,14.393,19.837ZM73.339,28.726L53.615,28.726C56.877,31.924,58.905,36.377,58.905,41.295C58.905,45.02,57.741,48.478,55.759,51.326L41.686,75.703C60.511,75.493,75.708,60.17,75.708,41.295C75.708,36.859,74.868,32.62,73.339,28.726ZM28.794,41.295C28.794,34.402,34.402,28.794,41.295,28.794C48.188,28.794,53.796,34.402,53.796,41.295C53.796,48.188,48.188,53.796,41.295,53.796C34.402,53.796,28.794,48.188,28.794,41.295ZM36.16,75.326L46.012,58.262C44.51,58.68,42.928,58.905,41.295,58.905C34.251,58.905,28.161,54.747,25.347,48.758L11.298,24.423C8.488,29.409,6.883,35.164,6.883,41.295C6.883,58.555,19.59,72.847,36.16,75.326ZM36.16,75.326"/>
</g>
  <g id="Semibold-S" transform="matrix(1.0,0.0,0.0,1.0,2003.254977983486,619.4749975147362)">  <path fill="#000000" stroke-linejoin="miter" stroke-width="1px" stroke-linecap="butt" stroke-opacity="1" stroke="none" stroke-dasharray="none" fill-rule="evenodd" clip-rule="evenodd" fill-opacity="1" stroke-miterlimit="4" d="M14.393,19.837L24.242,36.895C26.201,29.307,33.104,23.686,41.295,23.686C41.811,23.686,42.321,23.709,42.825,23.753L70.904,23.753C64.907,13.653,53.893,6.883,41.295,6.883C30.405,6.883,20.699,11.942,14.393,19.837ZM73.339,28.726L53.615,28.726C56.877,31.924,58.905,36.377,58.905,41.295C58.905,45.02,57.741,48.478,55.759,51.326L41.686,75.703C60.511,75.493,75.708,60.17,75.708,41.295C75.708,36.859,74.868,32.62,73.339,28.726ZM28.794,41.295C28.794,34.402,34.402,28.794,41.295,28.794C48.188,28.794,53.796,34.402,53.796,41.295C53.796,48.188,48.188,53.796,41.295,53.796C34.402,53.796,28.794,48.188,28.794,41.295ZM36.16,75.326L46.012,58.262C44.51,58.68,42.928,58.905,41.295,58.905C34.251,58.905,28.161,54.747,25.347,48.758L11.298,24.423C8.488,29.409,6.883,35.164,6.883,41.295C6.883,58.555,19.59,72.847,36.16,75.326ZM36.16,75.326"/>
</g>
  <g id="Medium-S" transform="matrix(1.0,0.0,0.0,1.0,1706.544977983486,619.4749975147362)">  <path stroke-width="1px" stroke-opacity="1" fill="#000000" stroke="none" fill-opacity="1" clip-rule="evenodd" stroke-linejoin="miter" fill-rule="evenodd" stroke-miterlimit="4" stroke-linecap="butt" stroke-dasharray="none" d="M14.393,19.837L24.242,36.895C26.201,29.307,33.104,23.686,41.295,23.686C41.811,23.686,42.321,23.709,42.825,23.753L70.904,23.753C64.907,13.653,53.893,6.883,41.295,6.883C30.405,6.883,20.699,11.942,14.393,19.837ZM73.339,28.726L53.615,28.726C56.877,31.924,58.905,36.377,58.905,41.295C58.905,45.02,57.741,48.478,55.759,51.326L41.686,75.703C60.511,75.493,75.708,60.17,75.708,41.295C75.708,36.859,74.868,32.62,73.339,28.726ZM28.794,41.295C28.794,34.402,34.402,28.794,41.295,28.794C48.188,28.794,53.796,34.402,53.796,41.295C53.796,48.188,48.188,53.796,41.295,53.796C34.402,53.796,28.794,48.188,28.794,41.295ZM36.16,75.326L46.012,58.262C44.51,58.68,42.928,58.905,41.295,58.905C34.251,58.905,28.161,54.747,25.347,48.758L11.298,24.423C8.488,29.409,6.883,35.164,6.883,41.295C6.883,58.555,19.59,72.847,36.16,75.326ZM36.16,75.326"/>
</g>
  <g id="Regular-S" transform="matrix(1.0,0.0,0.0,1.0,1409.834977983486,619.4749975147362)">  <path stroke-miterlimit="4" stroke-width="1px" stroke-dasharray="none" stroke="none" stroke-opacity="1" clip-rule="evenodd" stroke-linejoin="miter" fill="#000000" fill-rule="evenodd" fill-opacity="1" stroke-linecap="butt" d="M14.393,19.837L24.242,36.895C26.201,29.307,33.104,23.686,41.295,23.686C41.811,23.686,42.321,23.709,42.825,23.753L70.904,23.753C64.907,13.653,53.893,6.883,41.295,6.883C30.405,6.883,20.699,11.942,14.393,19.837ZM73.339,28.726L53.615,28.726C56.877,31.924,58.905,36.377,58.905,41.295C58.905,45.02,57.741,48.478,55.759,51.326L41.686,75.703C60.511,75.493,75.708,60.17,75.708,41.295C75.708,36.859,74.868,32.62,73.339,28.726ZM28.794,41.295C28.794,34.402,34.402,28.794,41.295,28.794C48.188,28.794,53.796,34.402,53.796,41.295C53.796,48.188,48.188,53.796,41.295,53.796C34.402,53.796,28.794,48.188,28.794,41.295ZM36.16,75.326L46.012,58.262C44.51,58.68,42.928,58.905,41.295,58.905C34.251,58.905,28.161,54.747,25.347,48.758L11.298,24.423C8.488,29.409,6.883,35.164,6.883,41.295C6.883,58.555,19.59,72.847,36.16,75.326ZM36.16,75.326"/>
</g>
  <g id="Light-S" transform="matrix(1.0,0.0,0.0,1.0,1113.1249779834861,619.4749975147362)">  <path stroke-linejoin="miter" stroke="none" clip-rule="evenodd" fill-rule="evenodd" fill="#000000" stroke-opacity="1" fill-opacity="1" stroke-dasharray="none" stroke-width="1px" stroke-miterlimit="4" stroke-linecap="butt" d="M14.393,19.837L24.242,36.895C26.201,29.307,33.104,23.686,41.295,23.686C41.811,23.686,42.321,23.709,42.825,23.753L70.904,23.753C64.907,13.653,53.893,6.883,41.295,6.883C30.405,6.883,20.699,11.942,14.393,19.837ZM73.339,28.726L53.615,28.726C56.877,31.924,58.905,36.377,58.905,41.295C58.905,45.02,57.741,48.478,55.759,51.326L41.686,75.703C60.511,75.493,75.708,60.17,75.708,41.295C75.708,36.859,74.868,32.62,73.339,28.726ZM28.794,41.295C28.794,34.402,34.402,28.794,41.295,28.794C48.188,28.794,53.796,34.402,53.796,41.295C53.796,48.188,48.188,53.796,41.295,53.796C34.402,53.796,28.794,48.188,28.794,41.295ZM36.16,75.326L46.012,58.262C44.51,58.68,42.928,58.905,41.295,58.905C34.251,58.905,28.161,54.747,25.347,48.758L11.298,24.423C8.488,29.409,6.883,35.164,6.883,41.295C6.883,58.555,19.59,72.847,36.16,75.326ZM36.16,75.326"/>
</g>
  <g id="Thin-S" transform="matrix(1.0,0.0,0.0,1.0,816.4149779834862,619.4749975147362)">  <path stroke="none" fill-rule="evenodd" stroke-opacity="1" stroke-miterlimit="4" fill="#000000" stroke-linejoin="miter" stroke-dasharray="none" clip-rule="evenodd" stroke-width="1px" fill-opacity="1" stroke-linecap="butt" d="M14.393,19.837L24.242,36.895C26.201,29.307,33.104,23.686,41.295,23.686C41.811,23.686,42.321,23.709,42.825,23.753L70.904,23.753C64.907,13.653,53.893,6.883,41.295,6.883C30.405,6.883,20.699,11.942,14.393,19.837ZM73.339,28.726L53.615,28.726C56.877,31.924,58.905,36.377,58.905,41.295C58.905,45.02,57.741,48.478,55.759,51.326L41.686,75.703C60.511,75.493,75.708,60.17,75.708,41.295C75.708,36.859,74.868,32.62,73.339,28.726ZM28.794,41.295C28.794,34.402,34.402,28.794,41.295,28.794C48.188,28.794,53.796,34.402,53.796,41.295C53.796,48.188,48.188,53.796,41.295,53.796C34.402,53.796,28.794,48.188,28.794,41.295ZM36.16,75.326L46.012,58.262C44.51,58.68,42.928,58.905,41.295,58.905C34.251,58.905,28.161,54.747,25.347,48.758L11.298,24.423C8.488,29.409,6.883,35.164,6.883,41.295C6.883,58.555,19.59,72.847,36.16,75.326ZM36.16,75.326"/>
</g>
  <g id="Ultralight-S" transform="matrix(1.0,0.0,0.0,1.0,519.7049779834862,619.4749975147362)">  <path stroke-dasharray="none" stroke="none" fill="#000000" stroke-opacity="1" fill-opacity="1" stroke-miterlimit="4" stroke-linejoin="miter" stroke-linecap="butt" stroke-width="1px" clip-rule="evenodd" fill-rule="evenodd" d="M14.393,19.837L24.242,36.895C26.201,29.307,33.104,23.686,41.295,23.686C41.811,23.686,42.321,23.709,42.825,23.753L70.904,23.753C64.907,13.653,53.893,6.883,41.295,6.883C30.405,6.883,20.699,11.942,14.393,19.837ZM73.339,28.726L53.615,28.726C56.877,31.924,58.905,36.377,58.905,41.295C58.905,45.02,57.741,48.478,55.759,51.326L41.686,75.703C60.511,75.493,75.708,60.17,75.708,41.295C75.708,36.859,74.868,32.62,73.339,28.726ZM28.794,41.295C28.794,34.402,34.402,28.794,41.295,28.794C48.188,28.794,53.796,34.402,53.796,41.295C53.796,48.188,48.188,53.796,41.295,53.796C34.402,53.796,28.794,48.188,28.794,41.295ZM36.16,75.326L46.012,58.262C44.51,58.68,42.928,58.905,41.295,58.905C34.251,58.905,28.161,54.747,25.347,48.758L11.298,24.423C8.488,29.409,6.883,35.164,6.883,41.295C6.883,58.555,19.59,72.847,36.16,75.326ZM36.16,75.326"/>
</g>
 </g>
</svg>
