<?xml version="1.0" encoding="UTF-8"?>
<!-- Generator: CustomSymbols v2.6.1.40 by @serious_bret https://bretlester.com/app_content/CustomSymbols/ -->
<!-- Guides: Left/Right 0.082/0.082 Cap/Base 0.29/0.216 -->
<!-- Settings: RefScale 1.0 Min/Max Stroke Scales 0.5/2.21 -->
<!DOCTYPE svg
PUBLIC "-//W3C//DTD SVG 1.1//EN"
       "http://www.w3.org/Graphics/SVG/1.1/DTD/svg11.dtd">
<svg version="1.1" xmlns="http://www.w3.org/2000/svg" xmlns:xlink="http://www.w3.org/1999/xlink" width="3300" height="2200">
<![CDATA[<svg width="24" height="24" viewBox="0 0 24 24" fill="none" xmlns="http://www.w3.org/2000/svg">
<path fill-rule="evenodd" clip-rule="evenodd" d="M21.1298 12.9259C20.5499 12.1342 19.8087 11.6211 18.9058 11.3862C19.1907 10.9166 19.3329 10.3939 19.3329 9.81811C19.3329 9.015 19.0724 8.32948 18.5517 7.76125C18.0309 7.19317 17.4025 6.90905 16.6664 6.90905C16.0066 6.90905 15.4303 7.14393 14.9373 7.61369C14.5278 6.5227 13.873 5.64777 12.9739 4.98875C12.0747 4.32958 11.0833 4 9.99987 4C8.52778 4 7.27073 4.56837 6.22911 5.70468C5.18737 6.84085 4.66662 8.21218 4.66662 9.81825C4.66662 9.91672 4.67366 10.0796 4.68746 10.3068C3.86806 10.7234 3.21537 11.3484 2.72914 12.1817C2.24305 13.0152 2 13.924 2 14.9091C2 16.3106 2.45669 17.5094 3.36981 18.5055C4.28294 19.5019 5.38196 20 6.66662 20H18.0001C19.1041 20 20.0468 19.5736 20.8281 18.7216C21.6093 17.8694 22 16.841 22 15.6364C21.9999 14.6212 21.7099 13.7179 21.1298 12.9259Z" fill="black"/>
</svg>
]]>
 <g id="Notes">
  <rect height="2200" id="artboard" style="fill:white;opacity:1" width="3300" x="0" y="0"/>
  <line id="" style="fill:none;stroke:black;opacity:1;stroke-width:0.5;" x1="263" x2="3036" y1="292" y2="292"/>
  <text id="reftext1" style="stroke:none;fill:black;font-family:-apple-system,&quot;SF Pro Display&quot;,&quot;SF Pro Text&quot;,Helvetica,sans-serif;font-weight:bold;" transform="matrix(1 0 0 1 263 322)">Weight/Scale Variations</text>
  <text id="reftext2" style="stroke:none;fill:black;font-family:-apple-system,&quot;SF Pro Display&quot;,&quot;SF Pro Text&quot;,Helvetica,sans-serif;text-anchor:middle;" transform="matrix(1 0 0 1 559.711 322)">Ultralight</text>
  <text style="stroke:none;fill:black;font-family:-apple-system,&quot;SF Pro Display&quot;,&quot;SF Pro Text&quot;,Helvetica,sans-serif;text-anchor:middle;" transform="matrix(1 0 0 1 856.422 322)">Thin</text>
  <text style="stroke:none;fill:black;font-family:-apple-system,&quot;SF Pro Display&quot;,&quot;SF Pro Text&quot;,Helvetica,sans-serif;text-anchor:middle;" transform="matrix(1 0 0 1 1153.13 322)">Light</text>
  <text style="stroke:none;fill:black;font-family:-apple-system,&quot;SF Pro Display&quot;,&quot;SF Pro Text&quot;,Helvetica,sans-serif;text-anchor:middle;" transform="matrix(1 0 0 1 1449.84 322)">Regular</text>
  <text style="stroke:none;fill:black;font-family:-apple-system,&quot;SF Pro Display&quot;,&quot;SF Pro Text&quot;,Helvetica,sans-serif;text-anchor:middle;" transform="matrix(1 0 0 1 1746.56 322)">Medium</text>
  <text style="stroke:none;fill:black;font-family:-apple-system,&quot;SF Pro Display&quot;,&quot;SF Pro Text&quot;,Helvetica,sans-serif;text-anchor:middle;" transform="matrix(1 0 0 1 2043.27 322)">Semibold</text>
  <text style="stroke:none;fill:black;font-family:-apple-system,&quot;SF Pro Display&quot;,&quot;SF Pro Text&quot;,Helvetica,sans-serif;text-anchor:middle;" transform="matrix(1 0 0 1 2339.98 322)">Bold</text>
  <text style="stroke:none;fill:black;font-family:-apple-system,&quot;SF Pro Display&quot;,&quot;SF Pro Text&quot;,Helvetica,sans-serif;text-anchor:middle;" transform="matrix(1 0 0 1 2636.69 322)">Heavy</text>
  <text style="stroke:none;fill:black;font-family:-apple-system,&quot;SF Pro Display&quot;,&quot;SF Pro Text&quot;,Helvetica,sans-serif;text-anchor:middle;" transform="matrix(1 0 0 1 2933.4 322)">Black</text>
  <line id="" style="fill:none;stroke:black;opacity:1;stroke-width:0.5;" x1="263" x2="3036" y1="1903" y2="1903"/>
  <g id="" transform="matrix(1 0 0 1 263 1933)">
   <path d="M9.24805 0.830078C13.5547 0.830078 17.1387-2.74414 17.1387-7.05078C17.1387-11.3574 13.5449-14.9316 9.23828-14.9316C4.94141-14.9316 1.36719-11.3574 1.36719-7.05078C1.36719-2.74414 4.95117 0.830078 9.24805 0.830078ZM9.24805-0.654297C5.70312-0.654297 2.87109-3.49609 2.87109-7.05078C2.87109-10.6055 5.69336-13.4473 9.23828-13.4473C12.793-13.4473 15.6348-10.6055 15.6445-7.05078C15.6543-3.49609 12.8027-0.654297 9.24805-0.654297ZM6.39648-6.31836L8.50586-6.31836L8.50586-4.19922C8.50586-3.75977 8.79883-3.45703 9.22852-3.45703C9.67773-3.45703 9.9707-3.75977 9.9707-4.19922L9.9707-6.31836L12.0996-6.31836C12.5391-6.31836 12.8418-6.61133 12.8418-7.04102C12.8418-7.48047 12.5391-7.7832 12.0996-7.7832L9.9707-7.7832L9.9707-9.89258C9.9707-10.3418 9.67773-10.6445 9.22852-10.6445C8.79883-10.6445 8.50586-10.3418 8.50586-9.89258L8.50586-7.7832L6.39648-7.7832C5.94727-7.7832 5.64453-7.48047 5.64453-7.04102C5.64453-6.61133 5.94727-6.31836 6.39648-6.31836Z"/>
  </g>
  <g id="" transform="matrix(1 0 0 1 281.506 1933)">
   <path d="M11.709 2.91016C17.1582 2.91016 21.6699-1.61133 21.6699-7.05078C21.6699-12.5 17.1484-17.0117 11.6992-17.0117C6.25977-17.0117 1.74805-12.5 1.74805-7.05078C1.74805-1.61133 6.26953 2.91016 11.709 2.91016ZM11.709 1.25C7.09961 1.25 3.41797-2.44141 3.41797-7.05078C3.41797-11.6602 7.08984-15.3516 11.6992-15.3516C16.3086-15.3516 20-11.6602 20.0098-7.05078C20.0195-2.44141 16.3184 1.25 11.709 1.25ZM7.98828-6.23047L10.8789-6.23047L10.8789-3.32031C10.8789-2.83203 11.2109-2.5 11.6895-2.5C12.1777-2.5 12.5195-2.83203 12.5195-3.32031L12.5195-6.23047L15.4297-6.23047C15.918-6.23047 16.25-6.5625 16.25-7.04102C16.25-7.5293 15.918-7.87109 15.4297-7.87109L12.5195-7.87109L12.5195-10.7617C12.5195-11.2695 12.1777-11.6016 11.6895-11.6016C11.2109-11.6016 10.8789-11.2598 10.8789-10.7617L10.8789-7.87109L7.98828-7.87109C7.48047-7.87109 7.14844-7.5293 7.14844-7.04102C7.14844-6.5625 7.49023-6.23047 7.98828-6.23047Z"/>
  </g>
  <g id="" transform="matrix(1 0 0 1 304.924 1933)">
   <path d="M14.9707 5.66406C21.9336 5.66406 27.6953-0.0976562 27.6953-7.05078C27.6953-14.0137 21.9238-19.7754 14.9609-19.7754C8.00781-19.7754 2.25586-14.0137 2.25586-7.05078C2.25586-0.0976562 8.01758 5.66406 14.9707 5.66406ZM14.9707 3.84766C8.93555 3.84766 4.08203-1.01562 4.08203-7.05078C4.08203-13.0957 8.92578-17.9492 14.9609-17.9492C21.0059-17.9492 25.8594-13.0957 25.8691-7.05078C25.8789-1.01562 21.0156 3.84766 14.9707 3.84766ZM10.0586-6.14258L14.0625-6.14258L14.0625-2.12891C14.0625-1.5918 14.4336-1.2207 14.9512-1.2207C15.4883-1.2207 15.8594-1.5918 15.8594-2.12891L15.8594-6.14258L19.8828-6.14258C20.4102-6.14258 20.791-6.51367 20.791-7.03125C20.791-7.56836 20.4199-7.94922 19.8828-7.94922L15.8594-7.94922L15.8594-11.9531C15.8594-12.5098 15.4883-12.8809 14.9512-12.8809C14.4336-12.8809 14.0625-12.5 14.0625-11.9531L14.0625-7.94922L10.0586-7.94922C9.50195-7.94922 9.13086-7.56836 9.13086-7.03125C9.13086-6.51367 9.51172-6.14258 10.0586-6.14258Z"/>
  </g>
  <text style="stroke:none;fill:black;font-family:-apple-system,&quot;SF Pro Display&quot;,&quot;SF Pro Text&quot;,Helvetica,sans-serif;font-weight:bold;" transform="matrix(1 0 0 1 263 1953)">Design Variations</text>
  <text style="stroke:none;fill:black;font-family:-apple-system,&quot;SF Pro Display&quot;,&quot;SF Pro Text&quot;,Helvetica,sans-serif;" transform="matrix(1 0 0 1 263 1971)">Symbols are supported in up to nine weights and three scales.</text>
  <text style="stroke:none;fill:black;font-family:-apple-system,&quot;SF Pro Display&quot;,&quot;SF Pro Text&quot;,Helvetica,sans-serif;" transform="matrix(1 0 0 1 263 1989)">For optimal layout with text and other symbols, vertically align</text>
  <text style="stroke:none;fill:black;font-family:-apple-system,&quot;SF Pro Display&quot;,&quot;SF Pro Text&quot;,Helvetica,sans-serif;" transform="matrix(1 0 0 1 263 2007)">symbols with the adjacent text.</text>
  <line id="" style="fill:none;stroke:#00AEEF;stroke-width:0.5;opacity:1.0;" x1="776" x2="776" y1="1919" y2="1933"/>
  <g id="" transform="matrix(1 0 0 1 776 1933)">
   <path d="M3.31055 0.126953C3.82812 0.126953 4.08203-0.0683594 4.26758-0.605469L5.52734-4.0625L11.2891-4.0625L12.5488-0.605469C12.7344-0.0683594 12.9883 0.126953 13.4961 0.126953C14.0137 0.126953 14.3457-0.185547 14.3457-0.673828C14.3457-0.839844 14.3164-0.986328 14.2383-1.20117L9.6582-13.3887C9.43359-13.9941 9.0332-14.2871 8.4082-14.2871C7.80273-14.2871 7.39258-13.9941 7.17773-13.3984L2.59766-1.19141C2.51953-0.976562 2.49023-0.830078 2.49023-0.664062C2.49023-0.175781 2.80273 0.126953 3.31055 0.126953ZM6.00586-5.53711L8.37891-12.1094L8.42773-12.1094L10.8008-5.53711Z"/>
  </g>
  <line id="" style="fill:none;stroke:#00AEEF;stroke-width:0.5;opacity:1.0;" x1="792.836" x2="792.836" y1="1919" y2="1933"/>
  <text style="stroke:none;fill:black;font-family:-apple-system,&quot;SF Pro Display&quot;,&quot;SF Pro Text&quot;,Helvetica,sans-serif;font-weight:bold;" transform="matrix(1 0 0 1 776 1953)">Margins</text>
  <text style="stroke:none;fill:black;font-family:-apple-system,&quot;SF Pro Display&quot;,&quot;SF Pro Text&quot;,Helvetica,sans-serif;" transform="matrix(1 0 0 1 776 1971)">Leading and trailing margins on the left and right side of each symbol</text>
  <text style="stroke:none;fill:black;font-family:-apple-system,&quot;SF Pro Display&quot;,&quot;SF Pro Text&quot;,Helvetica,sans-serif;" transform="matrix(1 0 0 1 776 1989)">can be adjusted by modifying the x-location of the margin guidelines.</text>
  <text style="stroke:none;fill:black;font-family:-apple-system,&quot;SF Pro Display&quot;,&quot;SF Pro Text&quot;,Helvetica,sans-serif;" transform="matrix(1 0 0 1 776 2007)">Modifications are automatically applied proportionally to all</text>
  <text style="stroke:none;fill:black;font-family:-apple-system,&quot;SF Pro Display&quot;,&quot;SF Pro Text&quot;,Helvetica,sans-serif;" transform="matrix(1 0 0 1 776 2025)">scales and weights.</text>
  <g id="" transform="matrix(1 0 0 1 1289 1933)">
   <path d="M2.8418 1.86523L4.54102 3.57422C5.40039 4.44336 6.38672 4.38477 7.31445 3.35938L17.4902-7.85156C17.7539-7.76367 18.0273-7.7832 18.3398-7.8418L19.4043-8.03711L20.0684-7.36328L20.0293-6.80664C19.9902-6.30859 20.1172-5.92773 20.6055-5.44922L21.3672-4.70703C21.8457-4.22852 22.4609-4.19922 22.9297-4.66797L25.8398-7.58789C26.3086-8.05664 26.2891-8.65234 25.8105-9.13086L25.0391-9.89258C24.5605-10.3711 24.1895-10.5273 23.7109-10.4883L23.1348-10.4395L22.4902-11.0742L22.7344-12.1973C22.8613-12.7637 22.7051-13.2031 22.1191-13.7891L19.9219-15.9766C16.582-19.2969 12.1484-19.2188 9.25781-16.3281C8.83789-15.918 8.80859-15.3418 9.04297-14.9512C9.27734-14.5898 9.73633-14.3555 10.3809-14.5215C11.8457-14.8633 13.3691-14.9219 14.7949-13.9844L14.209-12.5293C14.0137-12.0508 13.9844-11.6504 14.1113-11.2891L3.04688-0.898438C2.06055 0.0195312 1.98242 0.996094 2.8418 1.86523ZM10.752-15.957C13.1836-17.7344 16.4746-17.4316 18.7012-15.2051L21.1328-12.793C21.3672-12.5586 21.4062-12.373 21.3379-12.0312L21.0156-10.5469L22.5195-9.0625L23.5059-9.12109C23.7598-9.13086 23.8379-9.11133 24.0332-8.91602L24.6094-8.33984L22.168-5.89844L21.5918-6.47461C21.3965-6.66992 21.3672-6.74805 21.377-7.01172L21.4453-7.98828L19.9512-9.47266L18.4277-9.21875C18.1055-9.15039 17.959-9.17969 17.7148-9.41406L15.7129-11.416C15.459-11.6504 15.4297-11.8164 15.5859-12.1875L16.4648-14.2773C14.9023-15.7324 12.8711-16.3574 10.8398-15.7617C10.6836-15.7227 10.625-15.8496 10.752-15.957ZM5.27344 2.30469L4.10156 1.14258C3.63281 0.683594 3.74023 0.341797 4.14062-0.0195312L14.9512-10.1953L16.416-8.71094L6.42578 2.27539C6.07422 2.67578 5.74219 2.77344 5.27344 2.30469Z"/>
  </g>
  <text style="stroke:none;fill:black;font-family:-apple-system,&quot;SF Pro Display&quot;,&quot;SF Pro Text&quot;,Helvetica,sans-serif;font-weight:bold;" transform="matrix(1 0 0 1 1289 1953)">Exporting</text>
  <text style="stroke:none;fill:black;font-family:-apple-system,&quot;SF Pro Display&quot;,&quot;SF Pro Text&quot;,Helvetica,sans-serif;" transform="matrix(1 0 0 1 1289 1971)">Symbols should be outlined when exporting to ensure the</text>
  <text style="stroke:none;fill:black;font-family:-apple-system,&quot;SF Pro Display&quot;,&quot;SF Pro Text&quot;,Helvetica,sans-serif;" transform="matrix(1 0 0 1 1289 1989)">design is preserved when submitting to Xcode.</text>
  <text id="template-version" style="stroke:none;fill:black;font-family:-apple-system,&quot;SF Pro Display&quot;,&quot;SF Pro Text&quot;,Helvetica,sans-serif;text-anchor:end;" transform="matrix(1 0 0 1 3036 1933)">Template v.2.0</text>
  <text style="stroke:none;fill:black;font-family:-apple-system,&quot;SF Pro Display&quot;,&quot;SF Pro Text&quot;,Helvetica,sans-serif;text-anchor:end;" transform="matrix(1 0 0 1 3036 1951)">Requires Xcode 12 or greater</text>
  <text style="stroke:none;fill:black;font-family:-apple-system,&quot;SF Pro Display&quot;,&quot;SF Pro Text&quot;,Helvetica,sans-serif;" transform="matrix(1 0 0 1 263 726)">Small</text>
  <text style="stroke:none;fill:black;font-family:-apple-system,&quot;SF Pro Display&quot;,&quot;SF Pro Text&quot;,Helvetica,sans-serif;" transform="matrix(1 0 0 1 263 1156)">Medium</text>
  <text style="stroke:none;fill:black;font-family:-apple-system,&quot;SF Pro Display&quot;,&quot;SF Pro Text&quot;,Helvetica,sans-serif;" transform="matrix(1 0 0 1 263 1586)">Large</text>
 </g>
 <g id="Guides">
  <g id="H-reference" style="fill:#27AAE1;stroke:none;" transform="matrix(1 0 0 1 339 696)">
   <path d="M0.976562 0L3.66211 0L12.9883-24.4629L45.752-24.4629L55.127 0L57.7637 0L30.6152-70.459L28.125-70.459ZM29.3457-67.1387L29.4434-67.1387L44.873-26.709L13.8672-26.709Z"/>
  </g>
  <line id="Baseline-S" style="fill:none;stroke:#27AAE1;opacity:1;stroke-width:0.5;" x1="263" x2="3036" y1="696" y2="696"/>
  <line id="Capline-S" style="fill:none;stroke:#27AAE1;opacity:1;stroke-width:0.5;" x1="263" x2="3036" y1="625.541" y2="625.541"/>
  <g id="H-reference" style="fill:#27AAE1;stroke:none;" transform="matrix(1 0 0 1 339 1126)">
   <path d="M0.976562 0L3.66211 0L12.9883-24.4629L45.752-24.4629L55.127 0L57.7637 0L30.6152-70.459L28.125-70.459ZM29.3457-67.1387L29.4434-67.1387L44.873-26.709L13.8672-26.709Z"/>
  </g>
  <line id="Baseline-M" style="fill:none;stroke:#27AAE1;opacity:1;stroke-width:0.5;" x1="263" x2="3036" y1="1126" y2="1126"/>
  <line id="Capline-M" style="fill:none;stroke:#27AAE1;opacity:1;stroke-width:0.5;" x1="263" x2="3036" y1="1055.54" y2="1055.54"/>
  <g id="H-reference" style="fill:#27AAE1;stroke:none;" transform="matrix(1 0 0 1 339 1556)">
   <path d="M0.976562 0L3.66211 0L12.9883-24.4629L45.752-24.4629L55.127 0L57.7637 0L30.6152-70.459L28.125-70.459ZM29.3457-67.1387L29.4434-67.1387L44.873-26.709L13.8672-26.709Z"/>
  </g>
  <line id="Baseline-L" style="fill:none;stroke:#27AAE1;opacity:1;stroke-width:0.5;" x1="263" x2="3036" y1="1556" y2="1556"/>
  <line id="Capline-L" style="fill:none;stroke:#27AAE1;opacity:1;stroke-width:0.5;" x1="263" x2="3036" y1="1485.54" y2="1485.54"/>
  <line id="left-margin" x1="1391.5100330528844" x2="1391.5100330528844" y1="1030.79" y2="1150.12" style="fill:none;stroke:#00AEEF;stroke-width:0.5;opacity:1.0;"/>
  <line id="right-margin" x1="1510.7499669471154" x2="1510.7499669471154" y1="1030.79" y2="1150.12" style="fill:none;stroke:#00AEEF;stroke-width:0.5;opacity:1.0;"/>
 </g>
 <g id="Symbols">
  <g id="Black-L" transform="matrix(1.0,0.0,0.0,1.0,2842.6826825816042,1421.9649006238928)">  <path fill="#000000" stroke-linecap="butt" stroke-opacity="1" clip-rule="evenodd" fill-opacity="1" stroke-miterlimit="4" stroke="none" stroke-dasharray="none" stroke-linejoin="miter" stroke-width="1px" fill-rule="evenodd" d="M161.99,99.096C157.545,93.026,151.862,89.093,144.94,87.292C147.124,83.691,148.215,79.684,148.215,75.27C148.215,69.113,146.217,63.857,142.226,59.501C138.233,55.146,133.415,52.968,127.772,52.968C122.714,52.968,118.296,54.769,114.516,58.37C111.377,50.006,106.357,43.298,99.464,38.246C92.57,33.192,84.969,30.666,76.663,30.666C65.378,30.666,55.741,35.023,47.755,43.735C39.769,52.445,35.776,62.958,35.776,75.271C35.776,76.026,35.83,77.275,35.936,79.016C29.654,82.21,24.65,87.002,20.923,93.39C17.196,99.78,15.333,106.748,15.333,114.3C15.333,125.044,18.834,134.235,25.834,141.871C32.835,149.51,41.26,153.329,51.109,153.329L137.997,153.329C146.46,153.329,153.688,150.06,159.677,143.528C165.666,136.995,168.662,129.111,168.662,119.876C168.661,112.093,166.438,105.168,161.99,99.096ZM161.99,99.096"/>
</g>
  <g id="Heavy-L" transform="matrix(1.0,0.0,0.0,1.0,2545.972682581604,1421.9649006238928)">  <path clip-rule="evenodd" stroke-opacity="1" fill-rule="evenodd" stroke-miterlimit="4" stroke-width="1px" stroke="none" stroke-linecap="butt" stroke-dasharray="none" fill-opacity="1" stroke-linejoin="miter" fill="#000000" d="M161.99,99.096C157.545,93.026,151.862,89.093,144.94,87.292C147.124,83.691,148.215,79.684,148.215,75.27C148.215,69.113,146.217,63.857,142.226,59.501C138.233,55.146,133.415,52.968,127.772,52.968C122.714,52.968,118.296,54.769,114.516,58.37C111.377,50.006,106.357,43.298,99.464,38.246C92.57,33.192,84.969,30.666,76.663,30.666C65.378,30.666,55.741,35.023,47.755,43.735C39.769,52.445,35.776,62.958,35.776,75.271C35.776,76.026,35.83,77.275,35.936,79.016C29.654,82.21,24.65,87.002,20.923,93.39C17.196,99.78,15.333,106.748,15.333,114.3C15.333,125.044,18.834,134.235,25.834,141.871C32.835,149.51,41.26,153.329,51.109,153.329L137.997,153.329C146.46,153.329,153.688,150.06,159.677,143.528C165.666,136.995,168.662,129.111,168.662,119.876C168.661,112.093,166.438,105.168,161.99,99.096ZM161.99,99.096"/>
</g>
  <g id="Bold-L" transform="matrix(1.0,0.0,0.0,1.0,2249.262682581604,1421.9649006238928)">  <path fill="#000000" stroke-linejoin="miter" fill-rule="evenodd" clip-rule="evenodd" stroke-dasharray="none" stroke-width="1px" stroke-miterlimit="4" fill-opacity="1" stroke="none" stroke-linecap="butt" stroke-opacity="1" d="M161.99,99.096C157.545,93.026,151.862,89.093,144.94,87.292C147.124,83.691,148.215,79.684,148.215,75.27C148.215,69.113,146.217,63.857,142.226,59.501C138.233,55.146,133.415,52.968,127.772,52.968C122.714,52.968,118.296,54.769,114.516,58.37C111.377,50.006,106.357,43.298,99.464,38.246C92.57,33.192,84.969,30.666,76.663,30.666C65.378,30.666,55.741,35.023,47.755,43.735C39.769,52.445,35.776,62.958,35.776,75.271C35.776,76.026,35.83,77.275,35.936,79.016C29.654,82.21,24.65,87.002,20.923,93.39C17.196,99.78,15.333,106.748,15.333,114.3C15.333,125.044,18.834,134.235,25.834,141.871C32.835,149.51,41.26,153.329,51.109,153.329L137.997,153.329C146.46,153.329,153.688,150.06,159.677,143.528C165.666,136.995,168.662,129.111,168.662,119.876C168.661,112.093,166.438,105.168,161.99,99.096ZM161.99,99.096"/>
</g>
  <g id="Semibold-L" transform="matrix(1.0,0.0,0.0,1.0,1952.5526825816041,1421.9649006238928)">  <path fill-opacity="1" stroke-linecap="butt" stroke-miterlimit="4" stroke-opacity="1" stroke-width="1px" fill="#000000" clip-rule="evenodd" stroke="none" fill-rule="evenodd" stroke-linejoin="miter" stroke-dasharray="none" d="M161.99,99.096C157.545,93.026,151.862,89.093,144.94,87.292C147.124,83.691,148.215,79.684,148.215,75.27C148.215,69.113,146.217,63.857,142.226,59.501C138.233,55.146,133.415,52.968,127.772,52.968C122.714,52.968,118.296,54.769,114.516,58.37C111.377,50.006,106.357,43.298,99.464,38.246C92.57,33.192,84.969,30.666,76.663,30.666C65.378,30.666,55.741,35.023,47.755,43.735C39.769,52.445,35.776,62.958,35.776,75.271C35.776,76.026,35.83,77.275,35.936,79.016C29.654,82.21,24.65,87.002,20.923,93.39C17.196,99.78,15.333,106.748,15.333,114.3C15.333,125.044,18.834,134.235,25.834,141.871C32.835,149.51,41.26,153.329,51.109,153.329L137.997,153.329C146.46,153.329,153.688,150.06,159.677,143.528C165.666,136.995,168.662,129.111,168.662,119.876C168.661,112.093,166.438,105.168,161.99,99.096ZM161.99,99.096"/>
</g>
  <g id="Medium-L" transform="matrix(1.0,0.0,0.0,1.0,1655.842682581604,1421.9649006238928)">  <path stroke="none" stroke-miterlimit="4" stroke-opacity="1" stroke-linejoin="miter" fill-rule="evenodd" stroke-dasharray="none" stroke-width="1px" clip-rule="evenodd" stroke-linecap="butt" fill-opacity="1" fill="#000000" d="M161.99,99.096C157.545,93.026,151.862,89.093,144.94,87.292C147.124,83.691,148.215,79.684,148.215,75.27C148.215,69.113,146.217,63.857,142.226,59.501C138.233,55.146,133.415,52.968,127.772,52.968C122.714,52.968,118.296,54.769,114.516,58.37C111.377,50.006,106.357,43.298,99.464,38.246C92.57,33.192,84.969,30.666,76.663,30.666C65.378,30.666,55.741,35.023,47.755,43.735C39.769,52.445,35.776,62.958,35.776,75.271C35.776,76.026,35.83,77.275,35.936,79.016C29.654,82.21,24.65,87.002,20.923,93.39C17.196,99.78,15.333,106.748,15.333,114.3C15.333,125.044,18.834,134.235,25.834,141.871C32.835,149.51,41.26,153.329,51.109,153.329L137.997,153.329C146.46,153.329,153.688,150.06,159.677,143.528C165.666,136.995,168.662,129.111,168.662,119.876C168.661,112.093,166.438,105.168,161.99,99.096ZM161.99,99.096"/>
</g>
  <g id="Regular-L" transform="matrix(1.0,0.0,0.0,1.0,1359.132682581604,1421.9649006238928)">  <path fill="#000000" clip-rule="evenodd" fill-rule="evenodd" stroke-linecap="butt" stroke-linejoin="miter" fill-opacity="1" stroke-opacity="1" stroke="none" stroke-width="1px" stroke-dasharray="none" stroke-miterlimit="4" d="M161.99,99.096C157.545,93.026,151.862,89.093,144.94,87.292C147.124,83.691,148.215,79.684,148.215,75.27C148.215,69.113,146.217,63.857,142.226,59.501C138.233,55.146,133.415,52.968,127.772,52.968C122.714,52.968,118.296,54.769,114.516,58.37C111.377,50.006,106.357,43.298,99.464,38.246C92.57,33.192,84.969,30.666,76.663,30.666C65.378,30.666,55.741,35.023,47.755,43.735C39.769,52.445,35.776,62.958,35.776,75.271C35.776,76.026,35.83,77.275,35.936,79.016C29.654,82.21,24.65,87.002,20.923,93.39C17.196,99.78,15.333,106.748,15.333,114.3C15.333,125.044,18.834,134.235,25.834,141.871C32.835,149.51,41.26,153.329,51.109,153.329L137.997,153.329C146.46,153.329,153.688,150.06,159.677,143.528C165.666,136.995,168.662,129.111,168.662,119.876C168.661,112.093,166.438,105.168,161.99,99.096ZM161.99,99.096"/>
</g>
  <g id="Light-L" transform="matrix(1.0,0.0,0.0,1.0,1062.4226825816042,1421.9649006238928)">  <path fill-rule="evenodd" fill="#000000" stroke-linejoin="miter" stroke-linecap="butt" stroke="none" stroke-miterlimit="4" clip-rule="evenodd" stroke-width="1px" fill-opacity="1" stroke-opacity="1" stroke-dasharray="none" d="M161.99,99.096C157.545,93.026,151.862,89.093,144.94,87.292C147.124,83.691,148.215,79.684,148.215,75.27C148.215,69.113,146.217,63.857,142.226,59.501C138.233,55.146,133.415,52.968,127.772,52.968C122.714,52.968,118.296,54.769,114.516,58.37C111.377,50.006,106.357,43.298,99.464,38.246C92.57,33.192,84.969,30.666,76.663,30.666C65.378,30.666,55.741,35.023,47.755,43.735C39.769,52.445,35.776,62.958,35.776,75.271C35.776,76.026,35.83,77.275,35.936,79.016C29.654,82.21,24.65,87.002,20.923,93.39C17.196,99.78,15.333,106.748,15.333,114.3C15.333,125.044,18.834,134.235,25.834,141.871C32.835,149.51,41.26,153.329,51.109,153.329L137.997,153.329C146.46,153.329,153.688,150.06,159.677,143.528C165.666,136.995,168.662,129.111,168.662,119.876C168.661,112.093,166.438,105.168,161.99,99.096ZM161.99,99.096"/>
</g>
  <g id="Thin-L" transform="matrix(1.0,0.0,0.0,1.0,765.7126825816043,1421.9649006238928)">  <path stroke-dasharray="none" fill="#000000" stroke-linecap="butt" clip-rule="evenodd" stroke-width="1px" stroke-miterlimit="4" stroke="none" stroke-opacity="1" fill-rule="evenodd" fill-opacity="1" stroke-linejoin="miter" d="M161.99,99.096C157.545,93.026,151.862,89.093,144.94,87.292C147.124,83.691,148.215,79.684,148.215,75.27C148.215,69.113,146.217,63.857,142.226,59.501C138.233,55.146,133.415,52.968,127.772,52.968C122.714,52.968,118.296,54.769,114.516,58.37C111.377,50.006,106.357,43.298,99.464,38.246C92.57,33.192,84.969,30.666,76.663,30.666C65.378,30.666,55.741,35.023,47.755,43.735C39.769,52.445,35.776,62.958,35.776,75.271C35.776,76.026,35.83,77.275,35.936,79.016C29.654,82.21,24.65,87.002,20.923,93.39C17.196,99.78,15.333,106.748,15.333,114.3C15.333,125.044,18.834,134.235,25.834,141.871C32.835,149.51,41.26,153.329,51.109,153.329L137.997,153.329C146.46,153.329,153.688,150.06,159.677,143.528C165.666,136.995,168.662,129.111,168.662,119.876C168.661,112.093,166.438,105.168,161.99,99.096ZM161.99,99.096"/>
</g>
  <g id="Ultralight-L" transform="matrix(1.0,0.0,0.0,1.0,469.00268258160423,1421.9649006238928)">  <path stroke-linecap="butt" stroke-linejoin="miter" fill-rule="evenodd" stroke-miterlimit="4" stroke-opacity="1" clip-rule="evenodd" stroke-dasharray="none" fill="#000000" stroke="none" fill-opacity="1" stroke-width="1px" d="M161.99,99.096C157.545,93.026,151.862,89.093,144.94,87.292C147.124,83.691,148.215,79.684,148.215,75.27C148.215,69.113,146.217,63.857,142.226,59.501C138.233,55.146,133.415,52.968,127.772,52.968C122.714,52.968,118.296,54.769,114.516,58.37C111.377,50.006,106.357,43.298,99.464,38.246C92.57,33.192,84.969,30.666,76.663,30.666C65.378,30.666,55.741,35.023,47.755,43.735C39.769,52.445,35.776,62.958,35.776,75.271C35.776,76.026,35.83,77.275,35.936,79.016C29.654,82.21,24.65,87.002,20.923,93.39C17.196,99.78,15.333,106.748,15.333,114.3C15.333,125.044,18.834,134.235,25.834,141.871C32.835,149.51,41.26,153.329,51.109,153.329L137.997,153.329C146.46,153.329,153.688,150.06,159.677,143.528C165.666,136.995,168.662,129.111,168.662,119.876C168.661,112.093,166.438,105.168,161.99,99.096ZM161.99,99.096"/>
</g>
  <g id="Black-M" transform="matrix(1.0,0.0,0.0,1.0,2863.364250063259,1014.1769040991903)">  <path fill="#000000" stroke-linecap="butt" stroke-opacity="1" clip-rule="evenodd" fill-opacity="1" stroke-miterlimit="4" stroke="none" stroke-dasharray="none" stroke-linejoin="miter" stroke-width="1px" fill-rule="evenodd" d="M125.574,76.818C122.128,72.113,117.723,69.064,112.357,67.668C114.05,64.877,114.895,61.771,114.895,58.349C114.895,53.576,113.347,49.502,110.252,46.125C107.157,42.749,103.423,41.06,99.048,41.06C95.127,41.06,91.702,42.456,88.772,45.248C86.338,38.764,82.447,33.565,77.104,29.648C71.76,25.731,65.868,23.772,59.429,23.772C50.68,23.772,43.21,27.15,37.019,33.903C30.828,40.655,27.734,48.805,27.734,58.35C27.734,58.935,27.775,59.903,27.857,61.253C22.988,63.729,19.109,67.443,16.219,72.396C13.33,77.349,11.886,82.75,11.886,88.604C11.886,96.934,14.6,104.058,20.027,109.978C25.453,115.899,31.985,118.86,39.62,118.86L106.974,118.86C113.535,118.86,119.138,116.326,123.781,111.262C128.424,106.197,130.746,100.086,130.746,92.927C130.745,86.893,129.021,81.525,125.574,76.818ZM125.574,76.818"/>
</g>
  <g id="Heavy-M" transform="matrix(1.0,0.0,0.0,1.0,2566.654250063259,1014.1769040991903)">  <path clip-rule="evenodd" stroke-opacity="1" fill-rule="evenodd" stroke-miterlimit="4" stroke-width="1px" stroke="none" stroke-linecap="butt" stroke-dasharray="none" fill-opacity="1" stroke-linejoin="miter" fill="#000000" d="M125.574,76.818C122.128,72.113,117.723,69.064,112.357,67.668C114.05,64.877,114.895,61.771,114.895,58.349C114.895,53.576,113.347,49.502,110.252,46.125C107.157,42.749,103.423,41.06,99.048,41.06C95.127,41.06,91.702,42.456,88.772,45.248C86.338,38.764,82.447,33.565,77.104,29.648C71.76,25.731,65.868,23.772,59.429,23.772C50.68,23.772,43.21,27.15,37.019,33.903C30.828,40.655,27.734,48.805,27.734,58.35C27.734,58.935,27.775,59.903,27.857,61.253C22.988,63.729,19.109,67.443,16.219,72.396C13.33,77.349,11.886,82.75,11.886,88.604C11.886,96.934,14.6,104.058,20.027,109.978C25.453,115.899,31.985,118.86,39.62,118.86L106.974,118.86C113.535,118.86,119.138,116.326,123.781,111.262C128.424,106.197,130.746,100.086,130.746,92.927C130.745,86.893,129.021,81.525,125.574,76.818ZM125.574,76.818"/>
</g>
  <g id="Bold-M" transform="matrix(1.0,0.0,0.0,1.0,2269.944250063259,1014.1769040991903)">  <path fill="#000000" stroke-linejoin="miter" fill-rule="evenodd" clip-rule="evenodd" stroke-dasharray="none" stroke-width="1px" stroke-miterlimit="4" fill-opacity="1" stroke="none" stroke-linecap="butt" stroke-opacity="1" d="M125.574,76.818C122.128,72.113,117.723,69.064,112.357,67.668C114.05,64.877,114.895,61.771,114.895,58.349C114.895,53.576,113.347,49.502,110.252,46.125C107.157,42.749,103.423,41.06,99.048,41.06C95.127,41.06,91.702,42.456,88.772,45.248C86.338,38.764,82.447,33.565,77.104,29.648C71.76,25.731,65.868,23.772,59.429,23.772C50.68,23.772,43.21,27.15,37.019,33.903C30.828,40.655,27.734,48.805,27.734,58.35C27.734,58.935,27.775,59.903,27.857,61.253C22.988,63.729,19.109,67.443,16.219,72.396C13.33,77.349,11.886,82.75,11.886,88.604C11.886,96.934,14.6,104.058,20.027,109.978C25.453,115.899,31.985,118.86,39.62,118.86L106.974,118.86C113.535,118.86,119.138,116.326,123.781,111.262C128.424,106.197,130.746,100.086,130.746,92.927C130.745,86.893,129.021,81.525,125.574,76.818ZM125.574,76.818"/>
</g>
  <g id="Semibold-M" transform="matrix(1.0,0.0,0.0,1.0,1973.234250063259,1014.1769040991903)">  <path fill-opacity="1" stroke-linecap="butt" stroke-miterlimit="4" stroke-opacity="1" stroke-width="1px" fill="#000000" clip-rule="evenodd" stroke="none" fill-rule="evenodd" stroke-linejoin="miter" stroke-dasharray="none" d="M125.574,76.818C122.128,72.113,117.723,69.064,112.357,67.668C114.05,64.877,114.895,61.771,114.895,58.349C114.895,53.576,113.347,49.502,110.252,46.125C107.157,42.749,103.423,41.06,99.048,41.06C95.127,41.06,91.702,42.456,88.772,45.248C86.338,38.764,82.447,33.565,77.104,29.648C71.76,25.731,65.868,23.772,59.429,23.772C50.68,23.772,43.21,27.15,37.019,33.903C30.828,40.655,27.734,48.805,27.734,58.35C27.734,58.935,27.775,59.903,27.857,61.253C22.988,63.729,19.109,67.443,16.219,72.396C13.33,77.349,11.886,82.75,11.886,88.604C11.886,96.934,14.6,104.058,20.027,109.978C25.453,115.899,31.985,118.86,39.62,118.86L106.974,118.86C113.535,118.86,119.138,116.326,123.781,111.262C128.424,106.197,130.746,100.086,130.746,92.927C130.745,86.893,129.021,81.525,125.574,76.818ZM125.574,76.818"/>
</g>
  <g id="Medium-M" transform="matrix(1.0,0.0,0.0,1.0,1676.524250063259,1014.1769040991903)">  <path stroke="none" stroke-miterlimit="4" stroke-opacity="1" stroke-linejoin="miter" fill-rule="evenodd" stroke-dasharray="none" stroke-width="1px" clip-rule="evenodd" stroke-linecap="butt" fill-opacity="1" fill="#000000" d="M125.574,76.818C122.128,72.113,117.723,69.064,112.357,67.668C114.05,64.877,114.895,61.771,114.895,58.349C114.895,53.576,113.347,49.502,110.252,46.125C107.157,42.749,103.423,41.06,99.048,41.06C95.127,41.06,91.702,42.456,88.772,45.248C86.338,38.764,82.447,33.565,77.104,29.648C71.76,25.731,65.868,23.772,59.429,23.772C50.68,23.772,43.21,27.15,37.019,33.903C30.828,40.655,27.734,48.805,27.734,58.35C27.734,58.935,27.775,59.903,27.857,61.253C22.988,63.729,19.109,67.443,16.219,72.396C13.33,77.349,11.886,82.75,11.886,88.604C11.886,96.934,14.6,104.058,20.027,109.978C25.453,115.899,31.985,118.86,39.62,118.86L106.974,118.86C113.535,118.86,119.138,116.326,123.781,111.262C128.424,106.197,130.746,100.086,130.746,92.927C130.745,86.893,129.021,81.525,125.574,76.818ZM125.574,76.818"/>
</g>
  <g id="Regular-M" transform="matrix(1.0,0.0,0.0,1.0,1379.814250063259,1014.1769040991903)">  <path fill="#000000" clip-rule="evenodd" fill-rule="evenodd" stroke-linecap="butt" stroke-linejoin="miter" fill-opacity="1" stroke-opacity="1" stroke="none" stroke-width="1px" stroke-dasharray="none" stroke-miterlimit="4" d="M125.574,76.818C122.128,72.113,117.723,69.064,112.357,67.668C114.05,64.877,114.895,61.771,114.895,58.349C114.895,53.576,113.347,49.502,110.252,46.125C107.157,42.749,103.423,41.06,99.048,41.06C95.127,41.06,91.702,42.456,88.772,45.248C86.338,38.764,82.447,33.565,77.104,29.648C71.76,25.731,65.868,23.772,59.429,23.772C50.68,23.772,43.21,27.15,37.019,33.903C30.828,40.655,27.734,48.805,27.734,58.35C27.734,58.935,27.775,59.903,27.857,61.253C22.988,63.729,19.109,67.443,16.219,72.396C13.33,77.349,11.886,82.75,11.886,88.604C11.886,96.934,14.6,104.058,20.027,109.978C25.453,115.899,31.985,118.86,39.62,118.86L106.974,118.86C113.535,118.86,119.138,116.326,123.781,111.262C128.424,106.197,130.746,100.086,130.746,92.927C130.745,86.893,129.021,81.525,125.574,76.818ZM125.574,76.818"/>
</g>
  <g id="Light-M" transform="matrix(1.0,0.0,0.0,1.0,1083.104250063259,1014.1769040991903)">  <path fill-rule="evenodd" fill="#000000" stroke-linejoin="miter" stroke-linecap="butt" stroke="none" stroke-miterlimit="4" clip-rule="evenodd" stroke-width="1px" fill-opacity="1" stroke-opacity="1" stroke-dasharray="none" d="M125.574,76.818C122.128,72.113,117.723,69.064,112.357,67.668C114.05,64.877,114.895,61.771,114.895,58.349C114.895,53.576,113.347,49.502,110.252,46.125C107.157,42.749,103.423,41.06,99.048,41.06C95.127,41.06,91.702,42.456,88.772,45.248C86.338,38.764,82.447,33.565,77.104,29.648C71.76,25.731,65.868,23.772,59.429,23.772C50.68,23.772,43.21,27.15,37.019,33.903C30.828,40.655,27.734,48.805,27.734,58.35C27.734,58.935,27.775,59.903,27.857,61.253C22.988,63.729,19.109,67.443,16.219,72.396C13.33,77.349,11.886,82.75,11.886,88.604C11.886,96.934,14.6,104.058,20.027,109.978C25.453,115.899,31.985,118.86,39.62,118.86L106.974,118.86C113.535,118.86,119.138,116.326,123.781,111.262C128.424,106.197,130.746,100.086,130.746,92.927C130.745,86.893,129.021,81.525,125.574,76.818ZM125.574,76.818"/>
</g>
  <g id="Thin-M" transform="matrix(1.0,0.0,0.0,1.0,786.3942500632592,1014.1769040991903)">  <path stroke-dasharray="none" fill="#000000" stroke-linecap="butt" clip-rule="evenodd" stroke-width="1px" stroke-miterlimit="4" stroke="none" stroke-opacity="1" fill-rule="evenodd" fill-opacity="1" stroke-linejoin="miter" d="M125.574,76.818C122.128,72.113,117.723,69.064,112.357,67.668C114.05,64.877,114.895,61.771,114.895,58.349C114.895,53.576,113.347,49.502,110.252,46.125C107.157,42.749,103.423,41.06,99.048,41.06C95.127,41.06,91.702,42.456,88.772,45.248C86.338,38.764,82.447,33.565,77.104,29.648C71.76,25.731,65.868,23.772,59.429,23.772C50.68,23.772,43.21,27.15,37.019,33.903C30.828,40.655,27.734,48.805,27.734,58.35C27.734,58.935,27.775,59.903,27.857,61.253C22.988,63.729,19.109,67.443,16.219,72.396C13.33,77.349,11.886,82.75,11.886,88.604C11.886,96.934,14.6,104.058,20.027,109.978C25.453,115.899,31.985,118.86,39.62,118.86L106.974,118.86C113.535,118.86,119.138,116.326,123.781,111.262C128.424,106.197,130.746,100.086,130.746,92.927C130.745,86.893,129.021,81.525,125.574,76.818ZM125.574,76.818"/>
</g>
  <g id="Ultralight-M" transform="matrix(1.0,0.0,0.0,1.0,489.6842500632591,1014.1769040991903)">  <path stroke-linecap="butt" stroke-linejoin="miter" fill-rule="evenodd" stroke-miterlimit="4" stroke-opacity="1" clip-rule="evenodd" stroke-dasharray="none" fill="#000000" stroke="none" fill-opacity="1" stroke-width="1px" d="M125.574,76.818C122.128,72.113,117.723,69.064,112.357,67.668C114.05,64.877,114.895,61.771,114.895,58.349C114.895,53.576,113.347,49.502,110.252,46.125C107.157,42.749,103.423,41.06,99.048,41.06C95.127,41.06,91.702,42.456,88.772,45.248C86.338,38.764,82.447,33.565,77.104,29.648C71.76,25.731,65.868,23.772,59.429,23.772C50.68,23.772,43.21,27.15,37.019,33.903C30.828,40.655,27.734,48.805,27.734,58.35C27.734,58.935,27.775,59.903,27.857,61.253C22.988,63.729,19.109,67.443,16.219,72.396C13.33,77.349,11.886,82.75,11.886,88.604C11.886,96.934,14.6,104.058,20.027,109.978C25.453,115.899,31.985,118.86,39.62,118.86L106.974,118.86C113.535,118.86,119.138,116.326,123.781,111.262C128.424,106.197,130.746,100.086,130.746,92.927C130.745,86.893,129.021,81.525,125.574,76.818ZM125.574,76.818"/>
</g>
  <g id="Black-S" transform="matrix(1.0,0.0,0.0,1.0,2878.8397677995317,600.7976101479472)">  <path fill="#000000" stroke-linecap="butt" stroke-opacity="1" clip-rule="evenodd" fill-opacity="1" stroke-miterlimit="4" stroke="none" stroke-dasharray="none" stroke-linejoin="miter" stroke-width="1px" fill-rule="evenodd" d="M98.324,60.149C95.626,56.465,92.177,54.077,87.975,52.984C89.301,50.799,89.963,48.366,89.963,45.687C89.963,41.95,88.751,38.76,86.328,36.116C83.904,33.472,80.98,32.15,77.555,32.15C74.484,32.15,71.803,33.243,69.509,35.429C67.603,30.352,64.556,26.281,60.372,23.214C56.188,20.147,51.575,18.613,46.533,18.613C39.683,18.613,33.833,21.258,28.986,26.546C24.139,31.833,21.715,38.214,21.715,45.688C21.715,46.146,21.748,46.904,21.812,47.961C17.999,49.9,14.962,52.808,12.7,56.686C10.438,60.564,9.307,64.793,9.307,69.377C9.307,75.899,11.432,81.477,15.681,86.113C19.93,90.749,25.044,93.067,31.022,93.067L83.761,93.067C88.898,93.067,93.285,91.083,96.92,87.118C100.556,83.153,102.374,78.367,102.374,72.762C102.373,68.038,101.024,63.834,98.324,60.149ZM98.324,60.149"/>
</g>
  <g id="Heavy-S" transform="matrix(1.0,0.0,0.0,1.0,2582.1297677995317,600.7976101479472)">  <path clip-rule="evenodd" stroke-opacity="1" fill-rule="evenodd" stroke-miterlimit="4" stroke-width="1px" stroke="none" stroke-linecap="butt" stroke-dasharray="none" fill-opacity="1" stroke-linejoin="miter" fill="#000000" d="M98.324,60.149C95.626,56.465,92.177,54.077,87.975,52.984C89.301,50.799,89.963,48.366,89.963,45.687C89.963,41.95,88.751,38.76,86.328,36.116C83.904,33.472,80.98,32.15,77.555,32.15C74.484,32.15,71.803,33.243,69.509,35.429C67.603,30.352,64.556,26.281,60.372,23.214C56.188,20.147,51.575,18.613,46.533,18.613C39.683,18.613,33.833,21.258,28.986,26.546C24.139,31.833,21.715,38.214,21.715,45.688C21.715,46.146,21.748,46.904,21.812,47.961C17.999,49.9,14.962,52.808,12.7,56.686C10.438,60.564,9.307,64.793,9.307,69.377C9.307,75.899,11.432,81.477,15.681,86.113C19.93,90.749,25.044,93.067,31.022,93.067L83.761,93.067C88.898,93.067,93.285,91.083,96.92,87.118C100.556,83.153,102.374,78.367,102.374,72.762C102.373,68.038,101.024,63.834,98.324,60.149ZM98.324,60.149"/>
</g>
  <g id="Bold-S" transform="matrix(1.0,0.0,0.0,1.0,2285.4197677995317,600.7976101479472)">  <path fill="#000000" stroke-linejoin="miter" fill-rule="evenodd" clip-rule="evenodd" stroke-dasharray="none" stroke-width="1px" stroke-miterlimit="4" fill-opacity="1" stroke="none" stroke-linecap="butt" stroke-opacity="1" d="M98.324,60.149C95.626,56.465,92.177,54.077,87.975,52.984C89.301,50.799,89.963,48.366,89.963,45.687C89.963,41.95,88.751,38.76,86.328,36.116C83.904,33.472,80.98,32.15,77.555,32.15C74.484,32.15,71.803,33.243,69.509,35.429C67.603,30.352,64.556,26.281,60.372,23.214C56.188,20.147,51.575,18.613,46.533,18.613C39.683,18.613,33.833,21.258,28.986,26.546C24.139,31.833,21.715,38.214,21.715,45.688C21.715,46.146,21.748,46.904,21.812,47.961C17.999,49.9,14.962,52.808,12.7,56.686C10.438,60.564,9.307,64.793,9.307,69.377C9.307,75.899,11.432,81.477,15.681,86.113C19.93,90.749,25.044,93.067,31.022,93.067L83.761,93.067C88.898,93.067,93.285,91.083,96.92,87.118C100.556,83.153,102.374,78.367,102.374,72.762C102.373,68.038,101.024,63.834,98.324,60.149ZM98.324,60.149"/>
</g>
  <g id="Semibold-S" transform="matrix(1.0,0.0,0.0,1.0,1988.7097677995318,600.7976101479472)">  <path fill-opacity="1" stroke-linecap="butt" stroke-miterlimit="4" stroke-opacity="1" stroke-width="1px" fill="#000000" clip-rule="evenodd" stroke="none" fill-rule="evenodd" stroke-linejoin="miter" stroke-dasharray="none" d="M98.324,60.149C95.626,56.465,92.177,54.077,87.975,52.984C89.301,50.799,89.963,48.366,89.963,45.687C89.963,41.95,88.751,38.76,86.328,36.116C83.904,33.472,80.98,32.15,77.555,32.15C74.484,32.15,71.803,33.243,69.509,35.429C67.603,30.352,64.556,26.281,60.372,23.214C56.188,20.147,51.575,18.613,46.533,18.613C39.683,18.613,33.833,21.258,28.986,26.546C24.139,31.833,21.715,38.214,21.715,45.688C21.715,46.146,21.748,46.904,21.812,47.961C17.999,49.9,14.962,52.808,12.7,56.686C10.438,60.564,9.307,64.793,9.307,69.377C9.307,75.899,11.432,81.477,15.681,86.113C19.93,90.749,25.044,93.067,31.022,93.067L83.761,93.067C88.898,93.067,93.285,91.083,96.92,87.118C100.556,83.153,102.374,78.367,102.374,72.762C102.373,68.038,101.024,63.834,98.324,60.149ZM98.324,60.149"/>
</g>
  <g id="Medium-S" transform="matrix(1.0,0.0,0.0,1.0,1691.9997677995318,600.7976101479472)">  <path stroke="none" stroke-miterlimit="4" stroke-opacity="1" stroke-linejoin="miter" fill-rule="evenodd" stroke-dasharray="none" stroke-width="1px" clip-rule="evenodd" stroke-linecap="butt" fill-opacity="1" fill="#000000" d="M98.324,60.149C95.626,56.465,92.177,54.077,87.975,52.984C89.301,50.799,89.963,48.366,89.963,45.687C89.963,41.95,88.751,38.76,86.328,36.116C83.904,33.472,80.98,32.15,77.555,32.15C74.484,32.15,71.803,33.243,69.509,35.429C67.603,30.352,64.556,26.281,60.372,23.214C56.188,20.147,51.575,18.613,46.533,18.613C39.683,18.613,33.833,21.258,28.986,26.546C24.139,31.833,21.715,38.214,21.715,45.688C21.715,46.146,21.748,46.904,21.812,47.961C17.999,49.9,14.962,52.808,12.7,56.686C10.438,60.564,9.307,64.793,9.307,69.377C9.307,75.899,11.432,81.477,15.681,86.113C19.93,90.749,25.044,93.067,31.022,93.067L83.761,93.067C88.898,93.067,93.285,91.083,96.92,87.118C100.556,83.153,102.374,78.367,102.374,72.762C102.373,68.038,101.024,63.834,98.324,60.149ZM98.324,60.149"/>
</g>
  <g id="Regular-S" transform="matrix(1.0,0.0,0.0,1.0,1395.2897677995318,600.7976101479472)">  <path fill="#000000" clip-rule="evenodd" fill-rule="evenodd" stroke-linecap="butt" stroke-linejoin="miter" fill-opacity="1" stroke-opacity="1" stroke="none" stroke-width="1px" stroke-dasharray="none" stroke-miterlimit="4" d="M98.324,60.149C95.626,56.465,92.177,54.077,87.975,52.984C89.301,50.799,89.963,48.366,89.963,45.687C89.963,41.95,88.751,38.76,86.328,36.116C83.904,33.472,80.98,32.15,77.555,32.15C74.484,32.15,71.803,33.243,69.509,35.429C67.603,30.352,64.556,26.281,60.372,23.214C56.188,20.147,51.575,18.613,46.533,18.613C39.683,18.613,33.833,21.258,28.986,26.546C24.139,31.833,21.715,38.214,21.715,45.688C21.715,46.146,21.748,46.904,21.812,47.961C17.999,49.9,14.962,52.808,12.7,56.686C10.438,60.564,9.307,64.793,9.307,69.377C9.307,75.899,11.432,81.477,15.681,86.113C19.93,90.749,25.044,93.067,31.022,93.067L83.761,93.067C88.898,93.067,93.285,91.083,96.92,87.118C100.556,83.153,102.374,78.367,102.374,72.762C102.373,68.038,101.024,63.834,98.324,60.149ZM98.324,60.149"/>
</g>
  <g id="Light-S" transform="matrix(1.0,0.0,0.0,1.0,1098.579767799532,600.7976101479472)">  <path fill-rule="evenodd" fill="#000000" stroke-linejoin="miter" stroke-linecap="butt" stroke="none" stroke-miterlimit="4" clip-rule="evenodd" stroke-width="1px" fill-opacity="1" stroke-opacity="1" stroke-dasharray="none" d="M98.324,60.149C95.626,56.465,92.177,54.077,87.975,52.984C89.301,50.799,89.963,48.366,89.963,45.687C89.963,41.95,88.751,38.76,86.328,36.116C83.904,33.472,80.98,32.15,77.555,32.15C74.484,32.15,71.803,33.243,69.509,35.429C67.603,30.352,64.556,26.281,60.372,23.214C56.188,20.147,51.575,18.613,46.533,18.613C39.683,18.613,33.833,21.258,28.986,26.546C24.139,31.833,21.715,38.214,21.715,45.688C21.715,46.146,21.748,46.904,21.812,47.961C17.999,49.9,14.962,52.808,12.7,56.686C10.438,60.564,9.307,64.793,9.307,69.377C9.307,75.899,11.432,81.477,15.681,86.113C19.93,90.749,25.044,93.067,31.022,93.067L83.761,93.067C88.898,93.067,93.285,91.083,96.92,87.118C100.556,83.153,102.374,78.367,102.374,72.762C102.373,68.038,101.024,63.834,98.324,60.149ZM98.324,60.149"/>
</g>
  <g id="Thin-S" transform="matrix(1.0,0.0,0.0,1.0,801.8697677995319,600.7976101479472)">  <path stroke-dasharray="none" fill="#000000" stroke-linecap="butt" clip-rule="evenodd" stroke-width="1px" stroke-miterlimit="4" stroke="none" stroke-opacity="1" fill-rule="evenodd" fill-opacity="1" stroke-linejoin="miter" d="M98.324,60.149C95.626,56.465,92.177,54.077,87.975,52.984C89.301,50.799,89.963,48.366,89.963,45.687C89.963,41.95,88.751,38.76,86.328,36.116C83.904,33.472,80.98,32.15,77.555,32.15C74.484,32.15,71.803,33.243,69.509,35.429C67.603,30.352,64.556,26.281,60.372,23.214C56.188,20.147,51.575,18.613,46.533,18.613C39.683,18.613,33.833,21.258,28.986,26.546C24.139,31.833,21.715,38.214,21.715,45.688C21.715,46.146,21.748,46.904,21.812,47.961C17.999,49.9,14.962,52.808,12.7,56.686C10.438,60.564,9.307,64.793,9.307,69.377C9.307,75.899,11.432,81.477,15.681,86.113C19.93,90.749,25.044,93.067,31.022,93.067L83.761,93.067C88.898,93.067,93.285,91.083,96.92,87.118C100.556,83.153,102.374,78.367,102.374,72.762C102.373,68.038,101.024,63.834,98.324,60.149ZM98.324,60.149"/>
</g>
  <g id="Ultralight-S" transform="matrix(1.0,0.0,0.0,1.0,505.1597677995319,600.7976101479472)">  <path stroke-linecap="butt" stroke-linejoin="miter" fill-rule="evenodd" stroke-miterlimit="4" stroke-opacity="1" clip-rule="evenodd" stroke-dasharray="none" fill="#000000" stroke="none" fill-opacity="1" stroke-width="1px" d="M98.324,60.149C95.626,56.465,92.177,54.077,87.975,52.984C89.301,50.799,89.963,48.366,89.963,45.687C89.963,41.95,88.751,38.76,86.328,36.116C83.904,33.472,80.98,32.15,77.555,32.15C74.484,32.15,71.803,33.243,69.509,35.429C67.603,30.352,64.556,26.281,60.372,23.214C56.188,20.147,51.575,18.613,46.533,18.613C39.683,18.613,33.833,21.258,28.986,26.546C24.139,31.833,21.715,38.214,21.715,45.688C21.715,46.146,21.748,46.904,21.812,47.961C17.999,49.9,14.962,52.808,12.7,56.686C10.438,60.564,9.307,64.793,9.307,69.377C9.307,75.899,11.432,81.477,15.681,86.113C19.93,90.749,25.044,93.067,31.022,93.067L83.761,93.067C88.898,93.067,93.285,91.083,96.92,87.118C100.556,83.153,102.374,78.367,102.374,72.762C102.373,68.038,101.024,63.834,98.324,60.149ZM98.324,60.149"/>
</g>
 </g>
</svg>
