<?xml version="1.0" encoding="UTF-8"?>
<!-- Generator: CustomSymbols v2.6.1.40 by @serious_bret https://bretlester.com/app_content/CustomSymbols/ -->
<!-- Guides: Left/Right 0.122/0.124 Cap/Base 0.2/0.2 -->
<!-- Settings: RefScale 1.0 Min/Max Stroke Scales 0.5/2.21 -->
<!DOCTYPE svg
PUBLIC "-//W3C//DTD SVG 1.1//EN"
       "http://www.w3.org/Graphics/SVG/1.1/DTD/svg11.dtd">
<svg version="1.1" xmlns="http://www.w3.org/2000/svg" xmlns:xlink="http://www.w3.org/1999/xlink" width="3300" height="2200">
<![CDATA[<svg width="24" height="24" viewBox="0 0 24 24" fill="none" xmlns="http://www.w3.org/2000/svg">
<path fill-rule="evenodd" clip-rule="evenodd" d="M20.1587 3.95349C20.0703 3.95349 20.1055 4.03068 19.8266 4.24608C19.5477 4.46149 19.2807 4.64554 18.9556 4.82895C18.6305 5.01236 18.2362 5.18346 17.804 5.34757C17.3716 5.51169 16.9715 5.59368 16.6037 5.59368C16.2632 5.59368 15.9635 5.51946 15.7046 5.37102C14.8465 4.91003 14.1009 4.56626 13.4675 4.33972C12.8342 4.11318 12.1532 3.99998 11.4245 3.99998C10.1645 3.99998 8.73099 4.46859 7.12382 5.40611C6.72873 5.63266 6.45978 5.80066 6.31672 5.90997C6.10557 6.08976 6 6.30451 6 6.5545V15.2498C6 15.4529 6.06482 15.6288 6.19422 15.7771C6.32349 15.9255 6.47684 15.9997 6.65388 15.9997C6.76284 15.9997 6.87505 15.9646 6.99091 15.8945C8.84333 14.7537 10.4233 14.1834 11.7309 14.1834C12.2279 14.1834 12.7133 14.2694 13.1864 14.4411C13.6597 14.613 14.053 14.8006 14.3662 15.0037C14.6797 15.2066 15.049 15.3943 15.4746 15.5662C15.9004 15.7378 16.321 15.8238 16.7362 15.8238C17.7851 15.8238 19.0417 15.3709 20.5058 14.4646C20.6897 14.3551 21.037 14.0901 21.037 13.6912V4.96144C21.037 4.40287 20.5652 3.95349 20.1587 3.95349Z" fill="black"/>
<rect x="3" y="3" width="2" height="18" rx="1" fill="black"/>
</svg>
]]>
 <g id="Notes">
  <rect height="2200" id="artboard" style="fill:white;opacity:1" width="3300" x="0" y="0"/>
  <line id="" style="fill:none;stroke:black;opacity:1;stroke-width:0.5;" x1="263" x2="3036" y1="292" y2="292"/>
  <text id="reftext1" style="stroke:none;fill:black;font-family:-apple-system,&quot;SF Pro Display&quot;,&quot;SF Pro Text&quot;,Helvetica,sans-serif;font-weight:bold;" transform="matrix(1 0 0 1 263 322)">Weight/Scale Variations</text>
  <text id="reftext2" style="stroke:none;fill:black;font-family:-apple-system,&quot;SF Pro Display&quot;,&quot;SF Pro Text&quot;,Helvetica,sans-serif;text-anchor:middle;" transform="matrix(1 0 0 1 559.711 322)">Ultralight</text>
  <text style="stroke:none;fill:black;font-family:-apple-system,&quot;SF Pro Display&quot;,&quot;SF Pro Text&quot;,Helvetica,sans-serif;text-anchor:middle;" transform="matrix(1 0 0 1 856.422 322)">Thin</text>
  <text style="stroke:none;fill:black;font-family:-apple-system,&quot;SF Pro Display&quot;,&quot;SF Pro Text&quot;,Helvetica,sans-serif;text-anchor:middle;" transform="matrix(1 0 0 1 1153.13 322)">Light</text>
  <text style="stroke:none;fill:black;font-family:-apple-system,&quot;SF Pro Display&quot;,&quot;SF Pro Text&quot;,Helvetica,sans-serif;text-anchor:middle;" transform="matrix(1 0 0 1 1449.84 322)">Regular</text>
  <text style="stroke:none;fill:black;font-family:-apple-system,&quot;SF Pro Display&quot;,&quot;SF Pro Text&quot;,Helvetica,sans-serif;text-anchor:middle;" transform="matrix(1 0 0 1 1746.56 322)">Medium</text>
  <text style="stroke:none;fill:black;font-family:-apple-system,&quot;SF Pro Display&quot;,&quot;SF Pro Text&quot;,Helvetica,sans-serif;text-anchor:middle;" transform="matrix(1 0 0 1 2043.27 322)">Semibold</text>
  <text style="stroke:none;fill:black;font-family:-apple-system,&quot;SF Pro Display&quot;,&quot;SF Pro Text&quot;,Helvetica,sans-serif;text-anchor:middle;" transform="matrix(1 0 0 1 2339.98 322)">Bold</text>
  <text style="stroke:none;fill:black;font-family:-apple-system,&quot;SF Pro Display&quot;,&quot;SF Pro Text&quot;,Helvetica,sans-serif;text-anchor:middle;" transform="matrix(1 0 0 1 2636.69 322)">Heavy</text>
  <text style="stroke:none;fill:black;font-family:-apple-system,&quot;SF Pro Display&quot;,&quot;SF Pro Text&quot;,Helvetica,sans-serif;text-anchor:middle;" transform="matrix(1 0 0 1 2933.4 322)">Black</text>
  <line id="" style="fill:none;stroke:black;opacity:1;stroke-width:0.5;" x1="263" x2="3036" y1="1903" y2="1903"/>
  <g id="" transform="matrix(1 0 0 1 263 1933)">
   <path d="M9.24805 0.830078C13.5547 0.830078 17.1387-2.74414 17.1387-7.05078C17.1387-11.3574 13.5449-14.9316 9.23828-14.9316C4.94141-14.9316 1.36719-11.3574 1.36719-7.05078C1.36719-2.74414 4.95117 0.830078 9.24805 0.830078ZM9.24805-0.654297C5.70312-0.654297 2.87109-3.49609 2.87109-7.05078C2.87109-10.6055 5.69336-13.4473 9.23828-13.4473C12.793-13.4473 15.6348-10.6055 15.6445-7.05078C15.6543-3.49609 12.8027-0.654297 9.24805-0.654297ZM6.39648-6.31836L8.50586-6.31836L8.50586-4.19922C8.50586-3.75977 8.79883-3.45703 9.22852-3.45703C9.67773-3.45703 9.9707-3.75977 9.9707-4.19922L9.9707-6.31836L12.0996-6.31836C12.5391-6.31836 12.8418-6.61133 12.8418-7.04102C12.8418-7.48047 12.5391-7.7832 12.0996-7.7832L9.9707-7.7832L9.9707-9.89258C9.9707-10.3418 9.67773-10.6445 9.22852-10.6445C8.79883-10.6445 8.50586-10.3418 8.50586-9.89258L8.50586-7.7832L6.39648-7.7832C5.94727-7.7832 5.64453-7.48047 5.64453-7.04102C5.64453-6.61133 5.94727-6.31836 6.39648-6.31836Z"/>
  </g>
  <g id="" transform="matrix(1 0 0 1 281.506 1933)">
   <path d="M11.709 2.91016C17.1582 2.91016 21.6699-1.61133 21.6699-7.05078C21.6699-12.5 17.1484-17.0117 11.6992-17.0117C6.25977-17.0117 1.74805-12.5 1.74805-7.05078C1.74805-1.61133 6.26953 2.91016 11.709 2.91016ZM11.709 1.25C7.09961 1.25 3.41797-2.44141 3.41797-7.05078C3.41797-11.6602 7.08984-15.3516 11.6992-15.3516C16.3086-15.3516 20-11.6602 20.0098-7.05078C20.0195-2.44141 16.3184 1.25 11.709 1.25ZM7.98828-6.23047L10.8789-6.23047L10.8789-3.32031C10.8789-2.83203 11.2109-2.5 11.6895-2.5C12.1777-2.5 12.5195-2.83203 12.5195-3.32031L12.5195-6.23047L15.4297-6.23047C15.918-6.23047 16.25-6.5625 16.25-7.04102C16.25-7.5293 15.918-7.87109 15.4297-7.87109L12.5195-7.87109L12.5195-10.7617C12.5195-11.2695 12.1777-11.6016 11.6895-11.6016C11.2109-11.6016 10.8789-11.2598 10.8789-10.7617L10.8789-7.87109L7.98828-7.87109C7.48047-7.87109 7.14844-7.5293 7.14844-7.04102C7.14844-6.5625 7.49023-6.23047 7.98828-6.23047Z"/>
  </g>
  <g id="" transform="matrix(1 0 0 1 304.924 1933)">
   <path d="M14.9707 5.66406C21.9336 5.66406 27.6953-0.0976562 27.6953-7.05078C27.6953-14.0137 21.9238-19.7754 14.9609-19.7754C8.00781-19.7754 2.25586-14.0137 2.25586-7.05078C2.25586-0.0976562 8.01758 5.66406 14.9707 5.66406ZM14.9707 3.84766C8.93555 3.84766 4.08203-1.01562 4.08203-7.05078C4.08203-13.0957 8.92578-17.9492 14.9609-17.9492C21.0059-17.9492 25.8594-13.0957 25.8691-7.05078C25.8789-1.01562 21.0156 3.84766 14.9707 3.84766ZM10.0586-6.14258L14.0625-6.14258L14.0625-2.12891C14.0625-1.5918 14.4336-1.2207 14.9512-1.2207C15.4883-1.2207 15.8594-1.5918 15.8594-2.12891L15.8594-6.14258L19.8828-6.14258C20.4102-6.14258 20.791-6.51367 20.791-7.03125C20.791-7.56836 20.4199-7.94922 19.8828-7.94922L15.8594-7.94922L15.8594-11.9531C15.8594-12.5098 15.4883-12.8809 14.9512-12.8809C14.4336-12.8809 14.0625-12.5 14.0625-11.9531L14.0625-7.94922L10.0586-7.94922C9.50195-7.94922 9.13086-7.56836 9.13086-7.03125C9.13086-6.51367 9.51172-6.14258 10.0586-6.14258Z"/>
  </g>
  <text style="stroke:none;fill:black;font-family:-apple-system,&quot;SF Pro Display&quot;,&quot;SF Pro Text&quot;,Helvetica,sans-serif;font-weight:bold;" transform="matrix(1 0 0 1 263 1953)">Design Variations</text>
  <text style="stroke:none;fill:black;font-family:-apple-system,&quot;SF Pro Display&quot;,&quot;SF Pro Text&quot;,Helvetica,sans-serif;" transform="matrix(1 0 0 1 263 1971)">Symbols are supported in up to nine weights and three scales.</text>
  <text style="stroke:none;fill:black;font-family:-apple-system,&quot;SF Pro Display&quot;,&quot;SF Pro Text&quot;,Helvetica,sans-serif;" transform="matrix(1 0 0 1 263 1989)">For optimal layout with text and other symbols, vertically align</text>
  <text style="stroke:none;fill:black;font-family:-apple-system,&quot;SF Pro Display&quot;,&quot;SF Pro Text&quot;,Helvetica,sans-serif;" transform="matrix(1 0 0 1 263 2007)">symbols with the adjacent text.</text>
  <line id="" style="fill:none;stroke:#00AEEF;stroke-width:0.5;opacity:1.0;" x1="776" x2="776" y1="1919" y2="1933"/>
  <g id="" transform="matrix(1 0 0 1 776 1933)">
   <path d="M3.31055 0.126953C3.82812 0.126953 4.08203-0.0683594 4.26758-0.605469L5.52734-4.0625L11.2891-4.0625L12.5488-0.605469C12.7344-0.0683594 12.9883 0.126953 13.4961 0.126953C14.0137 0.126953 14.3457-0.185547 14.3457-0.673828C14.3457-0.839844 14.3164-0.986328 14.2383-1.20117L9.6582-13.3887C9.43359-13.9941 9.0332-14.2871 8.4082-14.2871C7.80273-14.2871 7.39258-13.9941 7.17773-13.3984L2.59766-1.19141C2.51953-0.976562 2.49023-0.830078 2.49023-0.664062C2.49023-0.175781 2.80273 0.126953 3.31055 0.126953ZM6.00586-5.53711L8.37891-12.1094L8.42773-12.1094L10.8008-5.53711Z"/>
  </g>
  <line id="" style="fill:none;stroke:#00AEEF;stroke-width:0.5;opacity:1.0;" x1="792.836" x2="792.836" y1="1919" y2="1933"/>
  <text style="stroke:none;fill:black;font-family:-apple-system,&quot;SF Pro Display&quot;,&quot;SF Pro Text&quot;,Helvetica,sans-serif;font-weight:bold;" transform="matrix(1 0 0 1 776 1953)">Margins</text>
  <text style="stroke:none;fill:black;font-family:-apple-system,&quot;SF Pro Display&quot;,&quot;SF Pro Text&quot;,Helvetica,sans-serif;" transform="matrix(1 0 0 1 776 1971)">Leading and trailing margins on the left and right side of each symbol</text>
  <text style="stroke:none;fill:black;font-family:-apple-system,&quot;SF Pro Display&quot;,&quot;SF Pro Text&quot;,Helvetica,sans-serif;" transform="matrix(1 0 0 1 776 1989)">can be adjusted by modifying the x-location of the margin guidelines.</text>
  <text style="stroke:none;fill:black;font-family:-apple-system,&quot;SF Pro Display&quot;,&quot;SF Pro Text&quot;,Helvetica,sans-serif;" transform="matrix(1 0 0 1 776 2007)">Modifications are automatically applied proportionally to all</text>
  <text style="stroke:none;fill:black;font-family:-apple-system,&quot;SF Pro Display&quot;,&quot;SF Pro Text&quot;,Helvetica,sans-serif;" transform="matrix(1 0 0 1 776 2025)">scales and weights.</text>
  <g id="" transform="matrix(1 0 0 1 1289 1933)">
   <path d="M2.8418 1.86523L4.54102 3.57422C5.40039 4.44336 6.38672 4.38477 7.31445 3.35938L17.4902-7.85156C17.7539-7.76367 18.0273-7.7832 18.3398-7.8418L19.4043-8.03711L20.0684-7.36328L20.0293-6.80664C19.9902-6.30859 20.1172-5.92773 20.6055-5.44922L21.3672-4.70703C21.8457-4.22852 22.4609-4.19922 22.9297-4.66797L25.8398-7.58789C26.3086-8.05664 26.2891-8.65234 25.8105-9.13086L25.0391-9.89258C24.5605-10.3711 24.1895-10.5273 23.7109-10.4883L23.1348-10.4395L22.4902-11.0742L22.7344-12.1973C22.8613-12.7637 22.7051-13.2031 22.1191-13.7891L19.9219-15.9766C16.582-19.2969 12.1484-19.2188 9.25781-16.3281C8.83789-15.918 8.80859-15.3418 9.04297-14.9512C9.27734-14.5898 9.73633-14.3555 10.3809-14.5215C11.8457-14.8633 13.3691-14.9219 14.7949-13.9844L14.209-12.5293C14.0137-12.0508 13.9844-11.6504 14.1113-11.2891L3.04688-0.898438C2.06055 0.0195312 1.98242 0.996094 2.8418 1.86523ZM10.752-15.957C13.1836-17.7344 16.4746-17.4316 18.7012-15.2051L21.1328-12.793C21.3672-12.5586 21.4062-12.373 21.3379-12.0312L21.0156-10.5469L22.5195-9.0625L23.5059-9.12109C23.7598-9.13086 23.8379-9.11133 24.0332-8.91602L24.6094-8.33984L22.168-5.89844L21.5918-6.47461C21.3965-6.66992 21.3672-6.74805 21.377-7.01172L21.4453-7.98828L19.9512-9.47266L18.4277-9.21875C18.1055-9.15039 17.959-9.17969 17.7148-9.41406L15.7129-11.416C15.459-11.6504 15.4297-11.8164 15.5859-12.1875L16.4648-14.2773C14.9023-15.7324 12.8711-16.3574 10.8398-15.7617C10.6836-15.7227 10.625-15.8496 10.752-15.957ZM5.27344 2.30469L4.10156 1.14258C3.63281 0.683594 3.74023 0.341797 4.14062-0.0195312L14.9512-10.1953L16.416-8.71094L6.42578 2.27539C6.07422 2.67578 5.74219 2.77344 5.27344 2.30469Z"/>
  </g>
  <text style="stroke:none;fill:black;font-family:-apple-system,&quot;SF Pro Display&quot;,&quot;SF Pro Text&quot;,Helvetica,sans-serif;font-weight:bold;" transform="matrix(1 0 0 1 1289 1953)">Exporting</text>
  <text style="stroke:none;fill:black;font-family:-apple-system,&quot;SF Pro Display&quot;,&quot;SF Pro Text&quot;,Helvetica,sans-serif;" transform="matrix(1 0 0 1 1289 1971)">Symbols should be outlined when exporting to ensure the</text>
  <text style="stroke:none;fill:black;font-family:-apple-system,&quot;SF Pro Display&quot;,&quot;SF Pro Text&quot;,Helvetica,sans-serif;" transform="matrix(1 0 0 1 1289 1989)">design is preserved when submitting to Xcode.</text>
  <text id="template-version" style="stroke:none;fill:black;font-family:-apple-system,&quot;SF Pro Display&quot;,&quot;SF Pro Text&quot;,Helvetica,sans-serif;text-anchor:end;" transform="matrix(1 0 0 1 3036 1933)">Template v.2.0</text>
  <text style="stroke:none;fill:black;font-family:-apple-system,&quot;SF Pro Display&quot;,&quot;SF Pro Text&quot;,Helvetica,sans-serif;text-anchor:end;" transform="matrix(1 0 0 1 3036 1951)">Requires Xcode 12 or greater</text>
  <text style="stroke:none;fill:black;font-family:-apple-system,&quot;SF Pro Display&quot;,&quot;SF Pro Text&quot;,Helvetica,sans-serif;" transform="matrix(1 0 0 1 263 726)">Small</text>
  <text style="stroke:none;fill:black;font-family:-apple-system,&quot;SF Pro Display&quot;,&quot;SF Pro Text&quot;,Helvetica,sans-serif;" transform="matrix(1 0 0 1 263 1156)">Medium</text>
  <text style="stroke:none;fill:black;font-family:-apple-system,&quot;SF Pro Display&quot;,&quot;SF Pro Text&quot;,Helvetica,sans-serif;" transform="matrix(1 0 0 1 263 1586)">Large</text>
 </g>
 <g id="Guides">
  <g id="H-reference" style="fill:#27AAE1;stroke:none;" transform="matrix(1 0 0 1 339 696)">
   <path d="M0.976562 0L3.66211 0L12.9883-24.4629L45.752-24.4629L55.127 0L57.7637 0L30.6152-70.459L28.125-70.459ZM29.3457-67.1387L29.4434-67.1387L44.873-26.709L13.8672-26.709Z"/>
  </g>
  <line id="Baseline-S" style="fill:none;stroke:#27AAE1;opacity:1;stroke-width:0.5;" x1="263" x2="3036" y1="696" y2="696"/>
  <line id="Capline-S" style="fill:none;stroke:#27AAE1;opacity:1;stroke-width:0.5;" x1="263" x2="3036" y1="625.541" y2="625.541"/>
  <g id="H-reference" style="fill:#27AAE1;stroke:none;" transform="matrix(1 0 0 1 339 1126)">
   <path d="M0.976562 0L3.66211 0L12.9883-24.4629L45.752-24.4629L55.127 0L57.7637 0L30.6152-70.459L28.125-70.459ZM29.3457-67.1387L29.4434-67.1387L44.873-26.709L13.8672-26.709Z"/>
  </g>
  <line id="Baseline-M" style="fill:none;stroke:#27AAE1;opacity:1;stroke-width:0.5;" x1="263" x2="3036" y1="1126" y2="1126"/>
  <line id="Capline-M" style="fill:none;stroke:#27AAE1;opacity:1;stroke-width:0.5;" x1="263" x2="3036" y1="1055.54" y2="1055.54"/>
  <g id="H-reference" style="fill:#27AAE1;stroke:none;" transform="matrix(1 0 0 1 339 1556)">
   <path d="M0.976562 0L3.66211 0L12.9883-24.4629L45.752-24.4629L55.127 0L57.7637 0L30.6152-70.459L28.125-70.459ZM29.3457-67.1387L29.4434-67.1387L44.873-26.709L13.8672-26.709Z"/>
  </g>
  <line id="Baseline-L" style="fill:none;stroke:#27AAE1;opacity:1;stroke-width:0.5;" x1="263" x2="3036" y1="1556" y2="1556"/>
  <line id="Capline-L" style="fill:none;stroke:#27AAE1;opacity:1;stroke-width:0.5;" x1="263" x2="3036" y1="1485.54" y2="1485.54"/>
  <line id="left-margin" x1="1406.740224609375" x2="1406.740224609375" y1="1030.79" y2="1150.12" style="fill:none;stroke:#00AEEF;stroke-width:0.5;opacity:1.0;"/>
  <line id="right-margin" x1="1495.2849088541664" x2="1495.2849088541664" y1="1030.79" y2="1150.12" style="fill:none;stroke:#00AEEF;stroke-width:0.5;opacity:1.0;"/>
 </g>
 <g id="Symbols">
  <g id="Black-L" transform="matrix(1.0,0.0,0.0,1.0,2858.935541992187,1445.0255615234375)">  <path stroke-opacity="1" clip-rule="evenodd" stroke-linejoin="miter" fill="#000000" stroke-dasharray="none" stroke="none" stroke-width="1px" stroke-miterlimit="4" fill-opacity="1" fill-rule="evenodd" stroke-linecap="butt" d="M127.242,24.955C126.684,24.955,126.907,25.442,125.146,26.801C123.386,28.161,121.701,29.323,119.648,30.481C117.596,31.638,115.108,32.718,112.38,33.754C109.65,34.79,107.125,35.308,104.803,35.308C102.654,35.308,100.762,34.839,99.128,33.902C93.712,30.992,89.005,28.822,85.007,27.392C81.01,25.963,76.711,25.248,72.112,25.248C64.159,25.248,55.11,28.206,44.966,34.124C42.472,35.554,40.774,36.614,39.871,37.304C38.539,38.439,37.872,39.794,37.872,41.372L37.872,96.257C37.872,97.539,38.281,98.65,39.098,99.586C39.914,100.522,40.882,100.991,42,100.991C42.687,100.991,43.396,100.769,44.127,100.327C55.819,93.126,65.792,89.526,74.046,89.526C77.183,89.526,80.247,90.069,83.233,91.153C86.221,92.238,88.703,93.422,90.68,94.704C92.659,95.985,94.99,97.169,97.676,98.254C100.364,99.338,103.019,99.88,105.64,99.88C112.26,99.88,120.192,97.022,129.433,91.301C130.594,90.61,132.786,88.937,132.786,86.419L132.786,31.317C132.786,27.791,129.808,24.955,127.242,24.955ZM127.242,24.955"/>
  <path stroke-width="1px" fill-opacity="1" rx="1" stroke-linecap="butt" y="3" stroke-linejoin="miter" fill-rule="nonzero" fill="#000000" stroke-opacity="1" stroke-miterlimit="4" stroke-dasharray="none" stroke="none" x="3" d="M31.56,75.744L31.56,126.241C31.56,129.727,28.734,132.553,25.248,132.553L25.248,132.553C21.762,132.553,18.936,129.727,18.936,126.241L18.936,25.248C18.936,21.762,21.762,18.936,25.248,18.936L25.248,18.936C28.734,18.936,31.56,21.762,31.56,25.248ZM31.56,75.744"/>
</g>
  <g id="Heavy-L" transform="matrix(1.0,0.0,0.0,1.0,2562.225541992187,1445.0255615234375)">  <path stroke-miterlimit="4" stroke="none" stroke-width="1px" stroke-linejoin="miter" stroke-opacity="1" fill-rule="evenodd" stroke-linecap="butt" fill-opacity="1" clip-rule="evenodd" stroke-dasharray="none" fill="#000000" d="M127.242,24.955C126.684,24.955,126.907,25.442,125.146,26.801C123.386,28.161,121.701,29.323,119.648,30.481C117.596,31.638,115.108,32.718,112.38,33.754C109.65,34.79,107.125,35.308,104.803,35.308C102.654,35.308,100.762,34.839,99.128,33.902C93.712,30.992,89.005,28.822,85.007,27.392C81.01,25.963,76.711,25.248,72.112,25.248C64.159,25.248,55.11,28.206,44.966,34.124C42.472,35.554,40.774,36.614,39.871,37.304C38.539,38.439,37.872,39.794,37.872,41.372L37.872,96.257C37.872,97.539,38.281,98.65,39.098,99.586C39.914,100.522,40.882,100.991,42,100.991C42.687,100.991,43.396,100.769,44.127,100.327C55.819,93.126,65.792,89.526,74.046,89.526C77.183,89.526,80.247,90.069,83.233,91.153C86.221,92.238,88.703,93.422,90.68,94.704C92.659,95.985,94.99,97.169,97.676,98.254C100.364,99.338,103.019,99.88,105.64,99.88C112.26,99.88,120.192,97.022,129.433,91.301C130.594,90.61,132.786,88.937,132.786,86.419L132.786,31.317C132.786,27.791,129.808,24.955,127.242,24.955ZM127.242,24.955"/>
  <path x="3" stroke-width="1px" stroke-opacity="1" rx="1" fill="#000000" stroke-linejoin="miter" stroke-miterlimit="4" stroke="none" stroke-linecap="butt" stroke-dasharray="none" fill-rule="nonzero" y="3" fill-opacity="1" d="M31.56,75.744L31.56,126.241C31.56,129.727,28.734,132.553,25.248,132.553L25.248,132.553C21.762,132.553,18.936,129.727,18.936,126.241L18.936,25.248C18.936,21.762,21.762,18.936,25.248,18.936L25.248,18.936C28.734,18.936,31.56,21.762,31.56,25.248ZM31.56,75.744"/>
</g>
  <g id="Bold-L" transform="matrix(1.0,0.0,0.0,1.0,2265.515541992187,1445.0255615234375)">  <path clip-rule="evenodd" stroke-dasharray="none" fill="#000000" fill-rule="evenodd" stroke-linecap="butt" stroke-linejoin="miter" stroke-miterlimit="4" fill-opacity="1" stroke="none" stroke-opacity="1" stroke-width="1px" d="M127.242,24.955C126.684,24.955,126.907,25.442,125.146,26.801C123.386,28.161,121.701,29.323,119.648,30.481C117.596,31.638,115.108,32.718,112.38,33.754C109.65,34.79,107.125,35.308,104.803,35.308C102.654,35.308,100.762,34.839,99.128,33.902C93.712,30.992,89.005,28.822,85.007,27.392C81.01,25.963,76.711,25.248,72.112,25.248C64.159,25.248,55.11,28.206,44.966,34.124C42.472,35.554,40.774,36.614,39.871,37.304C38.539,38.439,37.872,39.794,37.872,41.372L37.872,96.257C37.872,97.539,38.281,98.65,39.098,99.586C39.914,100.522,40.882,100.991,42,100.991C42.687,100.991,43.396,100.769,44.127,100.327C55.819,93.126,65.792,89.526,74.046,89.526C77.183,89.526,80.247,90.069,83.233,91.153C86.221,92.238,88.703,93.422,90.68,94.704C92.659,95.985,94.99,97.169,97.676,98.254C100.364,99.338,103.019,99.88,105.64,99.88C112.26,99.88,120.192,97.022,129.433,91.301C130.594,90.61,132.786,88.937,132.786,86.419L132.786,31.317C132.786,27.791,129.808,24.955,127.242,24.955ZM127.242,24.955"/>
  <path fill="#000000" rx="1" stroke-opacity="1" stroke-linecap="butt" stroke-width="1px" stroke-linejoin="miter" stroke="none" fill-opacity="1" x="3" y="3" stroke-dasharray="none" stroke-miterlimit="4" fill-rule="nonzero" d="M31.56,75.744L31.56,126.241C31.56,129.727,28.734,132.553,25.248,132.553L25.248,132.553C21.762,132.553,18.936,129.727,18.936,126.241L18.936,25.248C18.936,21.762,21.762,18.936,25.248,18.936L25.248,18.936C28.734,18.936,31.56,21.762,31.56,25.248ZM31.56,75.744"/>
</g>
  <g id="Semibold-L" transform="matrix(1.0,0.0,0.0,1.0,1968.8055419921875,1445.0255615234375)">  <path stroke-width="1px" stroke-miterlimit="4" fill="#000000" fill-rule="evenodd" fill-opacity="1" stroke-linecap="butt" stroke-opacity="1" stroke="none" stroke-dasharray="none" clip-rule="evenodd" stroke-linejoin="miter" d="M127.242,24.955C126.684,24.955,126.907,25.442,125.146,26.801C123.386,28.161,121.701,29.323,119.648,30.481C117.596,31.638,115.108,32.718,112.38,33.754C109.65,34.79,107.125,35.308,104.803,35.308C102.654,35.308,100.762,34.839,99.128,33.902C93.712,30.992,89.005,28.822,85.007,27.392C81.01,25.963,76.711,25.248,72.112,25.248C64.159,25.248,55.11,28.206,44.966,34.124C42.472,35.554,40.774,36.614,39.871,37.304C38.539,38.439,37.872,39.794,37.872,41.372L37.872,96.257C37.872,97.539,38.281,98.65,39.098,99.586C39.914,100.522,40.882,100.991,42,100.991C42.687,100.991,43.396,100.769,44.127,100.327C55.819,93.126,65.792,89.526,74.046,89.526C77.183,89.526,80.247,90.069,83.233,91.153C86.221,92.238,88.703,93.422,90.68,94.704C92.659,95.985,94.99,97.169,97.676,98.254C100.364,99.338,103.019,99.88,105.64,99.88C112.26,99.88,120.192,97.022,129.433,91.301C130.594,90.61,132.786,88.937,132.786,86.419L132.786,31.317C132.786,27.791,129.808,24.955,127.242,24.955ZM127.242,24.955"/>
  <path y="3" fill-opacity="1" stroke-dasharray="none" stroke-width="1px" stroke-linecap="butt" rx="1" stroke-opacity="1" fill-rule="nonzero" x="3" stroke-miterlimit="4" fill="#000000" stroke-linejoin="miter" stroke="none" d="M31.56,75.744L31.56,126.241C31.56,129.727,28.734,132.553,25.248,132.553L25.248,132.553C21.762,132.553,18.936,129.727,18.936,126.241L18.936,25.248C18.936,21.762,21.762,18.936,25.248,18.936L25.248,18.936C28.734,18.936,31.56,21.762,31.56,25.248ZM31.56,75.744"/>
</g>
  <g id="Medium-L" transform="matrix(1.0,0.0,0.0,1.0,1672.0955419921875,1445.0255615234375)">  <path stroke-linejoin="miter" stroke="none" stroke-opacity="1" fill="#000000" stroke-miterlimit="4" stroke-linecap="butt" stroke-width="1px" fill-rule="evenodd" clip-rule="evenodd" stroke-dasharray="none" fill-opacity="1" d="M127.242,24.955C126.684,24.955,126.907,25.442,125.146,26.801C123.386,28.161,121.701,29.323,119.648,30.481C117.596,31.638,115.108,32.718,112.38,33.754C109.65,34.79,107.125,35.308,104.803,35.308C102.654,35.308,100.762,34.839,99.128,33.902C93.712,30.992,89.005,28.822,85.007,27.392C81.01,25.963,76.711,25.248,72.112,25.248C64.159,25.248,55.11,28.206,44.966,34.124C42.472,35.554,40.774,36.614,39.871,37.304C38.539,38.439,37.872,39.794,37.872,41.372L37.872,96.257C37.872,97.539,38.281,98.65,39.098,99.586C39.914,100.522,40.882,100.991,42,100.991C42.687,100.991,43.396,100.769,44.127,100.327C55.819,93.126,65.792,89.526,74.046,89.526C77.183,89.526,80.247,90.069,83.233,91.153C86.221,92.238,88.703,93.422,90.68,94.704C92.659,95.985,94.99,97.169,97.676,98.254C100.364,99.338,103.019,99.88,105.64,99.88C112.26,99.88,120.192,97.022,129.433,91.301C130.594,90.61,132.786,88.937,132.786,86.419L132.786,31.317C132.786,27.791,129.808,24.955,127.242,24.955ZM127.242,24.955"/>
  <path fill-rule="nonzero" stroke-width="1px" fill-opacity="1" rx="1" stroke="none" stroke-dasharray="none" stroke-miterlimit="4" stroke-linecap="butt" x="3" fill="#000000" y="3" stroke-linejoin="miter" stroke-opacity="1" d="M31.56,75.744L31.56,126.241C31.56,129.727,28.734,132.553,25.248,132.553L25.248,132.553C21.762,132.553,18.936,129.727,18.936,126.241L18.936,25.248C18.936,21.762,21.762,18.936,25.248,18.936L25.248,18.936C28.734,18.936,31.56,21.762,31.56,25.248ZM31.56,75.744"/>
</g>
  <g id="Regular-L" transform="matrix(1.0,0.0,0.0,1.0,1375.3855419921874,1445.0255615234375)">  <path stroke-width="1px" fill-rule="evenodd" clip-rule="evenodd" stroke-opacity="1" stroke="none" stroke-linecap="butt" fill="#000000" fill-opacity="1" stroke-miterlimit="4" stroke-linejoin="miter" stroke-dasharray="none" d="M127.242,24.955C126.684,24.955,126.907,25.442,125.146,26.801C123.386,28.161,121.701,29.323,119.648,30.481C117.596,31.638,115.108,32.718,112.38,33.754C109.65,34.79,107.125,35.308,104.803,35.308C102.654,35.308,100.762,34.839,99.128,33.902C93.712,30.992,89.005,28.822,85.007,27.392C81.01,25.963,76.711,25.248,72.112,25.248C64.159,25.248,55.11,28.206,44.966,34.124C42.472,35.554,40.774,36.614,39.871,37.304C38.539,38.439,37.872,39.794,37.872,41.372L37.872,96.257C37.872,97.539,38.281,98.65,39.098,99.586C39.914,100.522,40.882,100.991,42,100.991C42.687,100.991,43.396,100.769,44.127,100.327C55.819,93.126,65.792,89.526,74.046,89.526C77.183,89.526,80.247,90.069,83.233,91.153C86.221,92.238,88.703,93.422,90.68,94.704C92.659,95.985,94.99,97.169,97.676,98.254C100.364,99.338,103.019,99.88,105.64,99.88C112.26,99.88,120.192,97.022,129.433,91.301C130.594,90.61,132.786,88.937,132.786,86.419L132.786,31.317C132.786,27.791,129.808,24.955,127.242,24.955ZM127.242,24.955"/>
  <path stroke-dasharray="none" stroke-linejoin="miter" stroke-width="1px" rx="1" stroke-miterlimit="4" fill-rule="nonzero" stroke-linecap="butt" stroke="none" stroke-opacity="1" y="3" fill-opacity="1" x="3" fill="#000000" d="M31.56,75.744L31.56,126.241C31.56,129.727,28.734,132.553,25.248,132.553L25.248,132.553C21.762,132.553,18.936,129.727,18.936,126.241L18.936,25.248C18.936,21.762,21.762,18.936,25.248,18.936L25.248,18.936C28.734,18.936,31.56,21.762,31.56,25.248ZM31.56,75.744"/>
</g>
  <g id="Light-L" transform="matrix(1.0,0.0,0.0,1.0,1078.6755419921876,1445.0255615234375)">  <path stroke-opacity="1" stroke-dasharray="none" fill-opacity="1" fill-rule="evenodd" stroke-linecap="butt" fill="#000000" stroke-linejoin="miter" stroke-width="1px" stroke="none" stroke-miterlimit="4" clip-rule="evenodd" d="M127.242,24.955C126.684,24.955,126.907,25.442,125.146,26.801C123.386,28.161,121.701,29.323,119.648,30.481C117.596,31.638,115.108,32.718,112.38,33.754C109.65,34.79,107.125,35.308,104.803,35.308C102.654,35.308,100.762,34.839,99.128,33.902C93.712,30.992,89.005,28.822,85.007,27.392C81.01,25.963,76.711,25.248,72.112,25.248C64.159,25.248,55.11,28.206,44.966,34.124C42.472,35.554,40.774,36.614,39.871,37.304C38.539,38.439,37.872,39.794,37.872,41.372L37.872,96.257C37.872,97.539,38.281,98.65,39.098,99.586C39.914,100.522,40.882,100.991,42,100.991C42.687,100.991,43.396,100.769,44.127,100.327C55.819,93.126,65.792,89.526,74.046,89.526C77.183,89.526,80.247,90.069,83.233,91.153C86.221,92.238,88.703,93.422,90.68,94.704C92.659,95.985,94.99,97.169,97.676,98.254C100.364,99.338,103.019,99.88,105.64,99.88C112.26,99.88,120.192,97.022,129.433,91.301C130.594,90.61,132.786,88.937,132.786,86.419L132.786,31.317C132.786,27.791,129.808,24.955,127.242,24.955ZM127.242,24.955"/>
  <path stroke-dasharray="none" stroke-linejoin="miter" x="3" fill-rule="nonzero" stroke-miterlimit="4" fill="#000000" y="3" fill-opacity="1" rx="1" stroke-linecap="butt" stroke="none" stroke-opacity="1" stroke-width="1px" d="M31.56,75.744L31.56,126.241C31.56,129.727,28.734,132.553,25.248,132.553L25.248,132.553C21.762,132.553,18.936,129.727,18.936,126.241L18.936,25.248C18.936,21.762,21.762,18.936,25.248,18.936L25.248,18.936C28.734,18.936,31.56,21.762,31.56,25.248ZM31.56,75.744"/>
</g>
  <g id="Thin-L" transform="matrix(1.0,0.0,0.0,1.0,781.9655419921876,1445.0255615234375)">  <path fill="#000000" stroke-miterlimit="4" clip-rule="evenodd" stroke-width="1px" stroke-dasharray="none" fill-rule="evenodd" stroke-opacity="1" stroke-linejoin="miter" stroke-linecap="butt" stroke="none" fill-opacity="1" d="M127.242,24.955C126.684,24.955,126.907,25.442,125.146,26.801C123.386,28.161,121.701,29.323,119.648,30.481C117.596,31.638,115.108,32.718,112.38,33.754C109.65,34.79,107.125,35.308,104.803,35.308C102.654,35.308,100.762,34.839,99.128,33.902C93.712,30.992,89.005,28.822,85.007,27.392C81.01,25.963,76.711,25.248,72.112,25.248C64.159,25.248,55.11,28.206,44.966,34.124C42.472,35.554,40.774,36.614,39.871,37.304C38.539,38.439,37.872,39.794,37.872,41.372L37.872,96.257C37.872,97.539,38.281,98.65,39.098,99.586C39.914,100.522,40.882,100.991,42,100.991C42.687,100.991,43.396,100.769,44.127,100.327C55.819,93.126,65.792,89.526,74.046,89.526C77.183,89.526,80.247,90.069,83.233,91.153C86.221,92.238,88.703,93.422,90.68,94.704C92.659,95.985,94.99,97.169,97.676,98.254C100.364,99.338,103.019,99.88,105.64,99.88C112.26,99.88,120.192,97.022,129.433,91.301C130.594,90.61,132.786,88.937,132.786,86.419L132.786,31.317C132.786,27.791,129.808,24.955,127.242,24.955ZM127.242,24.955"/>
  <path stroke-miterlimit="4" fill-rule="nonzero" fill="#000000" fill-opacity="1" y="3" x="3" stroke-dasharray="none" rx="1" stroke-linejoin="miter" stroke-linecap="butt" stroke-opacity="1" stroke="none" stroke-width="1px" d="M31.56,75.744L31.56,126.241C31.56,129.727,28.734,132.553,25.248,132.553L25.248,132.553C21.762,132.553,18.936,129.727,18.936,126.241L18.936,25.248C18.936,21.762,21.762,18.936,25.248,18.936L25.248,18.936C28.734,18.936,31.56,21.762,31.56,25.248ZM31.56,75.744"/>
</g>
  <g id="Ultralight-L" transform="matrix(1.0,0.0,0.0,1.0,485.2555419921875,1445.0255615234375)">  <path stroke-width="1px" stroke-opacity="1" stroke-linejoin="miter" stroke-dasharray="none" stroke-miterlimit="4" clip-rule="evenodd" fill="#000000" fill-opacity="1" stroke="none" stroke-linecap="butt" fill-rule="evenodd" d="M127.242,24.955C126.684,24.955,126.907,25.442,125.146,26.801C123.386,28.161,121.701,29.323,119.648,30.481C117.596,31.638,115.108,32.718,112.38,33.754C109.65,34.79,107.125,35.308,104.803,35.308C102.654,35.308,100.762,34.839,99.128,33.902C93.712,30.992,89.005,28.822,85.007,27.392C81.01,25.963,76.711,25.248,72.112,25.248C64.159,25.248,55.11,28.206,44.966,34.124C42.472,35.554,40.774,36.614,39.871,37.304C38.539,38.439,37.872,39.794,37.872,41.372L37.872,96.257C37.872,97.539,38.281,98.65,39.098,99.586C39.914,100.522,40.882,100.991,42,100.991C42.687,100.991,43.396,100.769,44.127,100.327C55.819,93.126,65.792,89.526,74.046,89.526C77.183,89.526,80.247,90.069,83.233,91.153C86.221,92.238,88.703,93.422,90.68,94.704C92.659,95.985,94.99,97.169,97.676,98.254C100.364,99.338,103.019,99.88,105.64,99.88C112.26,99.88,120.192,97.022,129.433,91.301C130.594,90.61,132.786,88.937,132.786,86.419L132.786,31.317C132.786,27.791,129.808,24.955,127.242,24.955ZM127.242,24.955"/>
  <path fill="#000000" stroke-miterlimit="4" stroke-linejoin="miter" fill-rule="nonzero" stroke-opacity="1" stroke-linecap="butt" fill-opacity="1" stroke-width="1px" stroke-dasharray="none" rx="1" y="3" stroke="none" x="3" d="M31.56,75.744L31.56,126.241C31.56,129.727,28.734,132.553,25.248,132.553L25.248,132.553C21.762,132.553,18.936,129.727,18.936,126.241L18.936,25.248C18.936,21.762,21.762,18.936,25.248,18.936L25.248,18.936C28.734,18.936,31.56,21.762,31.56,25.248ZM31.56,75.744"/>
</g>
  <g id="Black-M" transform="matrix(1.0,0.0,0.0,1.0,2875.9633658854164,1032.0533854166667)">  <path stroke-opacity="1" clip-rule="evenodd" stroke-linejoin="miter" fill="#000000" stroke-dasharray="none" stroke="none" stroke-width="1px" stroke-miterlimit="4" fill-opacity="1" fill-rule="evenodd" stroke-linecap="butt" d="M98.638,19.345C98.205,19.345,98.377,19.722,97.013,20.776C95.648,21.83,94.341,22.731,92.751,23.628C91.16,24.526,89.231,25.363,87.116,26.166C85,26.969,83.042,27.37,81.243,27.37C79.577,27.37,78.11,27.007,76.843,26.281C72.645,24.025,68.996,22.343,65.897,21.234C62.798,20.126,59.466,19.572,55.901,19.572C49.735,19.572,42.721,21.865,34.857,26.452C32.924,27.561,31.608,28.383,30.908,28.918C29.875,29.798,29.358,30.848,29.358,32.072L29.358,74.618C29.358,75.612,29.675,76.473,30.309,77.198C30.941,77.924,31.692,78.287,32.558,78.287C33.091,78.287,33.64,78.116,34.207,77.773C43.271,72.191,51.002,69.4,57.4,69.4C59.832,69.4,62.207,69.821,64.522,70.661C66.838,71.502,68.762,72.42,70.295,73.414C71.829,74.407,73.636,75.325,75.718,76.166C77.801,77.006,79.86,77.427,81.891,77.427C87.023,77.427,93.172,75.211,100.336,70.776C101.236,70.24,102.935,68.944,102.935,66.992L102.935,24.277C102.935,21.543,100.627,19.345,98.638,19.345ZM98.638,19.345"/>
  <path stroke-width="1px" fill-opacity="1" rx="1" stroke-linecap="butt" y="3" stroke-linejoin="miter" fill-rule="nonzero" fill="#000000" stroke-opacity="1" stroke-miterlimit="4" stroke-dasharray="none" stroke="none" x="3" d="M24.465,58.717L24.465,97.861C24.465,100.563,22.275,102.754,19.572,102.754L19.572,102.754C16.87,102.754,14.679,100.563,14.679,97.861L14.679,19.572C14.679,16.87,16.87,14.679,19.572,14.679L19.572,14.679C22.275,14.679,24.465,16.87,24.465,19.572ZM24.465,58.717"/>
</g>
  <g id="Heavy-M" transform="matrix(1.0,0.0,0.0,1.0,2579.2533658854163,1032.0533854166667)">  <path stroke-miterlimit="4" stroke="none" stroke-width="1px" stroke-linejoin="miter" stroke-opacity="1" fill-rule="evenodd" stroke-linecap="butt" fill-opacity="1" clip-rule="evenodd" stroke-dasharray="none" fill="#000000" d="M98.638,19.345C98.205,19.345,98.377,19.722,97.013,20.776C95.648,21.83,94.341,22.731,92.751,23.628C91.16,24.526,89.231,25.363,87.116,26.166C85,26.969,83.042,27.37,81.243,27.37C79.577,27.37,78.11,27.007,76.843,26.281C72.645,24.025,68.996,22.343,65.897,21.234C62.798,20.126,59.466,19.572,55.901,19.572C49.735,19.572,42.721,21.865,34.857,26.452C32.924,27.561,31.608,28.383,30.908,28.918C29.875,29.798,29.358,30.848,29.358,32.072L29.358,74.618C29.358,75.612,29.675,76.473,30.309,77.198C30.941,77.924,31.692,78.287,32.558,78.287C33.091,78.287,33.64,78.116,34.207,77.773C43.271,72.191,51.002,69.4,57.4,69.4C59.832,69.4,62.207,69.821,64.522,70.661C66.838,71.502,68.762,72.42,70.295,73.414C71.829,74.407,73.636,75.325,75.718,76.166C77.801,77.006,79.86,77.427,81.891,77.427C87.023,77.427,93.172,75.211,100.336,70.776C101.236,70.24,102.935,68.944,102.935,66.992L102.935,24.277C102.935,21.543,100.627,19.345,98.638,19.345ZM98.638,19.345"/>
  <path x="3" stroke-width="1px" stroke-opacity="1" rx="1" fill="#000000" stroke-linejoin="miter" stroke-miterlimit="4" stroke="none" stroke-linecap="butt" stroke-dasharray="none" fill-rule="nonzero" y="3" fill-opacity="1" d="M24.465,58.717L24.465,97.861C24.465,100.563,22.275,102.754,19.572,102.754L19.572,102.754C16.87,102.754,14.679,100.563,14.679,97.861L14.679,19.572C14.679,16.87,16.87,14.679,19.572,14.679L19.572,14.679C22.275,14.679,24.465,16.87,24.465,19.572ZM24.465,58.717"/>
</g>
  <g id="Bold-M" transform="matrix(1.0,0.0,0.0,1.0,2282.5433658854163,1032.0533854166667)">  <path clip-rule="evenodd" stroke-dasharray="none" fill="#000000" fill-rule="evenodd" stroke-linecap="butt" stroke-linejoin="miter" stroke-miterlimit="4" fill-opacity="1" stroke="none" stroke-opacity="1" stroke-width="1px" d="M98.638,19.345C98.205,19.345,98.377,19.722,97.013,20.776C95.648,21.83,94.341,22.731,92.751,23.628C91.16,24.526,89.231,25.363,87.116,26.166C85,26.969,83.042,27.37,81.243,27.37C79.577,27.37,78.11,27.007,76.843,26.281C72.645,24.025,68.996,22.343,65.897,21.234C62.798,20.126,59.466,19.572,55.901,19.572C49.735,19.572,42.721,21.865,34.857,26.452C32.924,27.561,31.608,28.383,30.908,28.918C29.875,29.798,29.358,30.848,29.358,32.072L29.358,74.618C29.358,75.612,29.675,76.473,30.309,77.198C30.941,77.924,31.692,78.287,32.558,78.287C33.091,78.287,33.64,78.116,34.207,77.773C43.271,72.191,51.002,69.4,57.4,69.4C59.832,69.4,62.207,69.821,64.522,70.661C66.838,71.502,68.762,72.42,70.295,73.414C71.829,74.407,73.636,75.325,75.718,76.166C77.801,77.006,79.86,77.427,81.891,77.427C87.023,77.427,93.172,75.211,100.336,70.776C101.236,70.24,102.935,68.944,102.935,66.992L102.935,24.277C102.935,21.543,100.627,19.345,98.638,19.345ZM98.638,19.345"/>
  <path fill="#000000" rx="1" stroke-opacity="1" stroke-linecap="butt" stroke-width="1px" stroke-linejoin="miter" stroke="none" fill-opacity="1" x="3" y="3" stroke-dasharray="none" stroke-miterlimit="4" fill-rule="nonzero" d="M24.465,58.717L24.465,97.861C24.465,100.563,22.275,102.754,19.572,102.754L19.572,102.754C16.87,102.754,14.679,100.563,14.679,97.861L14.679,19.572C14.679,16.87,16.87,14.679,19.572,14.679L19.572,14.679C22.275,14.679,24.465,16.87,24.465,19.572ZM24.465,58.717"/>
</g>
  <g id="Semibold-M" transform="matrix(1.0,0.0,0.0,1.0,1985.8333658854167,1032.0533854166667)">  <path stroke-width="1px" stroke-miterlimit="4" fill="#000000" fill-rule="evenodd" fill-opacity="1" stroke-linecap="butt" stroke-opacity="1" stroke="none" stroke-dasharray="none" clip-rule="evenodd" stroke-linejoin="miter" d="M98.638,19.345C98.205,19.345,98.377,19.722,97.013,20.776C95.648,21.83,94.341,22.731,92.751,23.628C91.16,24.526,89.231,25.363,87.116,26.166C85,26.969,83.042,27.37,81.243,27.37C79.577,27.37,78.11,27.007,76.843,26.281C72.645,24.025,68.996,22.343,65.897,21.234C62.798,20.126,59.466,19.572,55.901,19.572C49.735,19.572,42.721,21.865,34.857,26.452C32.924,27.561,31.608,28.383,30.908,28.918C29.875,29.798,29.358,30.848,29.358,32.072L29.358,74.618C29.358,75.612,29.675,76.473,30.309,77.198C30.941,77.924,31.692,78.287,32.558,78.287C33.091,78.287,33.64,78.116,34.207,77.773C43.271,72.191,51.002,69.4,57.4,69.4C59.832,69.4,62.207,69.821,64.522,70.661C66.838,71.502,68.762,72.42,70.295,73.414C71.829,74.407,73.636,75.325,75.718,76.166C77.801,77.006,79.86,77.427,81.891,77.427C87.023,77.427,93.172,75.211,100.336,70.776C101.236,70.24,102.935,68.944,102.935,66.992L102.935,24.277C102.935,21.543,100.627,19.345,98.638,19.345ZM98.638,19.345"/>
  <path y="3" fill-opacity="1" stroke-dasharray="none" stroke-width="1px" stroke-linecap="butt" rx="1" stroke-opacity="1" fill-rule="nonzero" x="3" stroke-miterlimit="4" fill="#000000" stroke-linejoin="miter" stroke="none" d="M24.465,58.717L24.465,97.861C24.465,100.563,22.275,102.754,19.572,102.754L19.572,102.754C16.87,102.754,14.679,100.563,14.679,97.861L14.679,19.572C14.679,16.87,16.87,14.679,19.572,14.679L19.572,14.679C22.275,14.679,24.465,16.87,24.465,19.572ZM24.465,58.717"/>
</g>
  <g id="Medium-M" transform="matrix(1.0,0.0,0.0,1.0,1689.1233658854167,1032.0533854166667)">  <path stroke-linejoin="miter" stroke="none" stroke-opacity="1" fill="#000000" stroke-miterlimit="4" stroke-linecap="butt" stroke-width="1px" fill-rule="evenodd" clip-rule="evenodd" stroke-dasharray="none" fill-opacity="1" d="M98.638,19.345C98.205,19.345,98.377,19.722,97.013,20.776C95.648,21.83,94.341,22.731,92.751,23.628C91.16,24.526,89.231,25.363,87.116,26.166C85,26.969,83.042,27.37,81.243,27.37C79.577,27.37,78.11,27.007,76.843,26.281C72.645,24.025,68.996,22.343,65.897,21.234C62.798,20.126,59.466,19.572,55.901,19.572C49.735,19.572,42.721,21.865,34.857,26.452C32.924,27.561,31.608,28.383,30.908,28.918C29.875,29.798,29.358,30.848,29.358,32.072L29.358,74.618C29.358,75.612,29.675,76.473,30.309,77.198C30.941,77.924,31.692,78.287,32.558,78.287C33.091,78.287,33.64,78.116,34.207,77.773C43.271,72.191,51.002,69.4,57.4,69.4C59.832,69.4,62.207,69.821,64.522,70.661C66.838,71.502,68.762,72.42,70.295,73.414C71.829,74.407,73.636,75.325,75.718,76.166C77.801,77.006,79.86,77.427,81.891,77.427C87.023,77.427,93.172,75.211,100.336,70.776C101.236,70.24,102.935,68.944,102.935,66.992L102.935,24.277C102.935,21.543,100.627,19.345,98.638,19.345ZM98.638,19.345"/>
  <path fill-rule="nonzero" stroke-width="1px" fill-opacity="1" rx="1" stroke="none" stroke-dasharray="none" stroke-miterlimit="4" stroke-linecap="butt" x="3" fill="#000000" y="3" stroke-linejoin="miter" stroke-opacity="1" d="M24.465,58.717L24.465,97.861C24.465,100.563,22.275,102.754,19.572,102.754L19.572,102.754C16.87,102.754,14.679,100.563,14.679,97.861L14.679,19.572C14.679,16.87,16.87,14.679,19.572,14.679L19.572,14.679C22.275,14.679,24.465,16.87,24.465,19.572ZM24.465,58.717"/>
</g>
  <g id="Regular-M" transform="matrix(1.0,0.0,0.0,1.0,1392.4133658854166,1032.0533854166667)">  <path stroke-width="1px" fill-rule="evenodd" clip-rule="evenodd" stroke-opacity="1" stroke="none" stroke-linecap="butt" fill="#000000" fill-opacity="1" stroke-miterlimit="4" stroke-linejoin="miter" stroke-dasharray="none" d="M98.638,19.345C98.205,19.345,98.377,19.722,97.013,20.776C95.648,21.83,94.341,22.731,92.751,23.628C91.16,24.526,89.231,25.363,87.116,26.166C85,26.969,83.042,27.37,81.243,27.37C79.577,27.37,78.11,27.007,76.843,26.281C72.645,24.025,68.996,22.343,65.897,21.234C62.798,20.126,59.466,19.572,55.901,19.572C49.735,19.572,42.721,21.865,34.857,26.452C32.924,27.561,31.608,28.383,30.908,28.918C29.875,29.798,29.358,30.848,29.358,32.072L29.358,74.618C29.358,75.612,29.675,76.473,30.309,77.198C30.941,77.924,31.692,78.287,32.558,78.287C33.091,78.287,33.64,78.116,34.207,77.773C43.271,72.191,51.002,69.4,57.4,69.4C59.832,69.4,62.207,69.821,64.522,70.661C66.838,71.502,68.762,72.42,70.295,73.414C71.829,74.407,73.636,75.325,75.718,76.166C77.801,77.006,79.86,77.427,81.891,77.427C87.023,77.427,93.172,75.211,100.336,70.776C101.236,70.24,102.935,68.944,102.935,66.992L102.935,24.277C102.935,21.543,100.627,19.345,98.638,19.345ZM98.638,19.345"/>
  <path stroke-dasharray="none" stroke-linejoin="miter" stroke-width="1px" rx="1" stroke-miterlimit="4" fill-rule="nonzero" stroke-linecap="butt" stroke="none" stroke-opacity="1" y="3" fill-opacity="1" x="3" fill="#000000" d="M24.465,58.717L24.465,97.861C24.465,100.563,22.275,102.754,19.572,102.754L19.572,102.754C16.87,102.754,14.679,100.563,14.679,97.861L14.679,19.572C14.679,16.87,16.87,14.679,19.572,14.679L19.572,14.679C22.275,14.679,24.465,16.87,24.465,19.572ZM24.465,58.717"/>
</g>
  <g id="Light-M" transform="matrix(1.0,0.0,0.0,1.0,1095.7033658854168,1032.0533854166667)">  <path stroke-opacity="1" stroke-dasharray="none" fill-opacity="1" fill-rule="evenodd" stroke-linecap="butt" fill="#000000" stroke-linejoin="miter" stroke-width="1px" stroke="none" stroke-miterlimit="4" clip-rule="evenodd" d="M98.638,19.345C98.205,19.345,98.377,19.722,97.013,20.776C95.648,21.83,94.341,22.731,92.751,23.628C91.16,24.526,89.231,25.363,87.116,26.166C85,26.969,83.042,27.37,81.243,27.37C79.577,27.37,78.11,27.007,76.843,26.281C72.645,24.025,68.996,22.343,65.897,21.234C62.798,20.126,59.466,19.572,55.901,19.572C49.735,19.572,42.721,21.865,34.857,26.452C32.924,27.561,31.608,28.383,30.908,28.918C29.875,29.798,29.358,30.848,29.358,32.072L29.358,74.618C29.358,75.612,29.675,76.473,30.309,77.198C30.941,77.924,31.692,78.287,32.558,78.287C33.091,78.287,33.64,78.116,34.207,77.773C43.271,72.191,51.002,69.4,57.4,69.4C59.832,69.4,62.207,69.821,64.522,70.661C66.838,71.502,68.762,72.42,70.295,73.414C71.829,74.407,73.636,75.325,75.718,76.166C77.801,77.006,79.86,77.427,81.891,77.427C87.023,77.427,93.172,75.211,100.336,70.776C101.236,70.24,102.935,68.944,102.935,66.992L102.935,24.277C102.935,21.543,100.627,19.345,98.638,19.345ZM98.638,19.345"/>
  <path stroke-dasharray="none" stroke-linejoin="miter" x="3" fill-rule="nonzero" stroke-miterlimit="4" fill="#000000" y="3" fill-opacity="1" rx="1" stroke-linecap="butt" stroke="none" stroke-opacity="1" stroke-width="1px" d="M24.465,58.717L24.465,97.861C24.465,100.563,22.275,102.754,19.572,102.754L19.572,102.754C16.87,102.754,14.679,100.563,14.679,97.861L14.679,19.572C14.679,16.87,16.87,14.679,19.572,14.679L19.572,14.679C22.275,14.679,24.465,16.87,24.465,19.572ZM24.465,58.717"/>
</g>
  <g id="Thin-M" transform="matrix(1.0,0.0,0.0,1.0,798.9933658854167,1032.0533854166667)">  <path fill="#000000" stroke-miterlimit="4" clip-rule="evenodd" stroke-width="1px" stroke-dasharray="none" fill-rule="evenodd" stroke-opacity="1" stroke-linejoin="miter" stroke-linecap="butt" stroke="none" fill-opacity="1" d="M98.638,19.345C98.205,19.345,98.377,19.722,97.013,20.776C95.648,21.83,94.341,22.731,92.751,23.628C91.16,24.526,89.231,25.363,87.116,26.166C85,26.969,83.042,27.37,81.243,27.37C79.577,27.37,78.11,27.007,76.843,26.281C72.645,24.025,68.996,22.343,65.897,21.234C62.798,20.126,59.466,19.572,55.901,19.572C49.735,19.572,42.721,21.865,34.857,26.452C32.924,27.561,31.608,28.383,30.908,28.918C29.875,29.798,29.358,30.848,29.358,32.072L29.358,74.618C29.358,75.612,29.675,76.473,30.309,77.198C30.941,77.924,31.692,78.287,32.558,78.287C33.091,78.287,33.64,78.116,34.207,77.773C43.271,72.191,51.002,69.4,57.4,69.4C59.832,69.4,62.207,69.821,64.522,70.661C66.838,71.502,68.762,72.42,70.295,73.414C71.829,74.407,73.636,75.325,75.718,76.166C77.801,77.006,79.86,77.427,81.891,77.427C87.023,77.427,93.172,75.211,100.336,70.776C101.236,70.24,102.935,68.944,102.935,66.992L102.935,24.277C102.935,21.543,100.627,19.345,98.638,19.345ZM98.638,19.345"/>
  <path stroke-miterlimit="4" fill-rule="nonzero" fill="#000000" fill-opacity="1" y="3" x="3" stroke-dasharray="none" rx="1" stroke-linejoin="miter" stroke-linecap="butt" stroke-opacity="1" stroke="none" stroke-width="1px" d="M24.465,58.717L24.465,97.861C24.465,100.563,22.275,102.754,19.572,102.754L19.572,102.754C16.87,102.754,14.679,100.563,14.679,97.861L14.679,19.572C14.679,16.87,16.87,14.679,19.572,14.679L19.572,14.679C22.275,14.679,24.465,16.87,24.465,19.572ZM24.465,58.717"/>
</g>
  <g id="Ultralight-M" transform="matrix(1.0,0.0,0.0,1.0,502.2833658854167,1032.0533854166667)">  <path stroke-width="1px" stroke-opacity="1" stroke-linejoin="miter" stroke-dasharray="none" stroke-miterlimit="4" clip-rule="evenodd" fill="#000000" fill-opacity="1" stroke="none" stroke-linecap="butt" fill-rule="evenodd" d="M98.638,19.345C98.205,19.345,98.377,19.722,97.013,20.776C95.648,21.83,94.341,22.731,92.751,23.628C91.16,24.526,89.231,25.363,87.116,26.166C85,26.969,83.042,27.37,81.243,27.37C79.577,27.37,78.11,27.007,76.843,26.281C72.645,24.025,68.996,22.343,65.897,21.234C62.798,20.126,59.466,19.572,55.901,19.572C49.735,19.572,42.721,21.865,34.857,26.452C32.924,27.561,31.608,28.383,30.908,28.918C29.875,29.798,29.358,30.848,29.358,32.072L29.358,74.618C29.358,75.612,29.675,76.473,30.309,77.198C30.941,77.924,31.692,78.287,32.558,78.287C33.091,78.287,33.64,78.116,34.207,77.773C43.271,72.191,51.002,69.4,57.4,69.4C59.832,69.4,62.207,69.821,64.522,70.661C66.838,71.502,68.762,72.42,70.295,73.414C71.829,74.407,73.636,75.325,75.718,76.166C77.801,77.006,79.86,77.427,81.891,77.427C87.023,77.427,93.172,75.211,100.336,70.776C101.236,70.24,102.935,68.944,102.935,66.992L102.935,24.277C102.935,21.543,100.627,19.345,98.638,19.345ZM98.638,19.345"/>
  <path fill="#000000" stroke-miterlimit="4" stroke-linejoin="miter" fill-rule="nonzero" stroke-opacity="1" stroke-linecap="butt" fill-opacity="1" stroke-width="1px" stroke-dasharray="none" rx="1" y="3" stroke="none" x="3" d="M24.465,58.717L24.465,97.861C24.465,100.563,22.275,102.754,19.572,102.754L19.572,102.754C16.87,102.754,14.679,100.563,14.679,97.861L14.679,19.572C14.679,16.87,16.87,14.679,19.572,14.679L19.572,14.679C22.275,14.679,24.465,16.87,24.465,19.572ZM24.465,58.717"/>
</g>
  <g id="Black-S" transform="matrix(1.0,0.0,0.0,1.0,2888.7048754882812,614.7948950195313)">  <path stroke-opacity="1" clip-rule="evenodd" stroke-linejoin="miter" fill="#000000" stroke-dasharray="none" stroke="none" stroke-width="1px" stroke-miterlimit="4" fill-opacity="1" fill-rule="evenodd" stroke-linecap="butt" d="M77.233,15.147C76.895,15.147,77.029,15.443,75.961,16.268C74.892,17.093,73.869,17.798,72.624,18.501C71.378,19.204,69.868,19.859,68.212,20.488C66.555,21.117,65.022,21.431,63.613,21.431C62.309,21.431,61.16,21.146,60.168,20.578C56.881,18.812,54.024,17.495,51.597,16.627C49.171,15.759,46.562,15.325,43.77,15.325C38.943,15.325,33.451,17.12,27.293,20.712C25.78,21.58,24.749,22.224,24.201,22.643C23.392,23.331,22.988,24.154,22.988,25.112L22.988,58.426C22.988,59.204,23.236,59.878,23.732,60.446C24.227,61.015,24.814,61.299,25.493,61.299C25.91,61.299,26.34,61.165,26.784,60.896C33.881,56.525,39.934,54.34,44.944,54.34C46.848,54.34,48.708,54.67,50.521,55.328C52.334,55.986,53.841,56.705,55.041,57.483C56.242,58.26,57.657,58.98,59.287,59.638C60.919,60.296,62.53,60.625,64.121,60.625C68.139,60.625,72.954,58.89,78.563,55.418C79.268,54.998,80.598,53.983,80.598,52.455L80.598,19.009C80.598,16.869,78.791,15.147,77.233,15.147ZM77.233,15.147"/>
  <path stroke-width="1px" fill-opacity="1" rx="1" stroke-linecap="butt" y="3" stroke-linejoin="miter" fill-rule="nonzero" fill="#000000" stroke-opacity="1" stroke-miterlimit="4" stroke-dasharray="none" stroke="none" x="3" d="M19.156,45.975L19.156,76.625C19.156,78.741,17.441,80.456,15.325,80.456L15.325,80.456C13.209,80.456,11.494,78.741,11.494,76.625L11.494,15.325C11.494,13.209,13.209,11.494,15.325,11.494L15.325,11.494C17.441,11.494,19.156,13.209,19.156,15.325ZM19.156,45.975"/>
</g>
  <g id="Heavy-S" transform="matrix(1.0,0.0,0.0,1.0,2591.994875488281,614.7948950195313)">  <path stroke-miterlimit="4" stroke="none" stroke-width="1px" stroke-linejoin="miter" stroke-opacity="1" fill-rule="evenodd" stroke-linecap="butt" fill-opacity="1" clip-rule="evenodd" stroke-dasharray="none" fill="#000000" d="M77.233,15.147C76.895,15.147,77.029,15.443,75.961,16.268C74.892,17.093,73.869,17.798,72.624,18.501C71.378,19.204,69.868,19.859,68.212,20.488C66.555,21.117,65.022,21.431,63.613,21.431C62.309,21.431,61.16,21.146,60.168,20.578C56.881,18.812,54.024,17.495,51.597,16.627C49.171,15.759,46.562,15.325,43.77,15.325C38.943,15.325,33.451,17.12,27.293,20.712C25.78,21.58,24.749,22.224,24.201,22.643C23.392,23.331,22.988,24.154,22.988,25.112L22.988,58.426C22.988,59.204,23.236,59.878,23.732,60.446C24.227,61.015,24.814,61.299,25.493,61.299C25.91,61.299,26.34,61.165,26.784,60.896C33.881,56.525,39.934,54.34,44.944,54.34C46.848,54.34,48.708,54.67,50.521,55.328C52.334,55.986,53.841,56.705,55.041,57.483C56.242,58.26,57.657,58.98,59.287,59.638C60.919,60.296,62.53,60.625,64.121,60.625C68.139,60.625,72.954,58.89,78.563,55.418C79.268,54.998,80.598,53.983,80.598,52.455L80.598,19.009C80.598,16.869,78.791,15.147,77.233,15.147ZM77.233,15.147"/>
  <path x="3" stroke-width="1px" stroke-opacity="1" rx="1" fill="#000000" stroke-linejoin="miter" stroke-miterlimit="4" stroke="none" stroke-linecap="butt" stroke-dasharray="none" fill-rule="nonzero" y="3" fill-opacity="1" d="M19.156,45.975L19.156,76.625C19.156,78.741,17.441,80.456,15.325,80.456L15.325,80.456C13.209,80.456,11.494,78.741,11.494,76.625L11.494,15.325C11.494,13.209,13.209,11.494,15.325,11.494L15.325,11.494C17.441,11.494,19.156,13.209,19.156,15.325ZM19.156,45.975"/>
</g>
  <g id="Bold-S" transform="matrix(1.0,0.0,0.0,1.0,2295.284875488281,614.7948950195313)">  <path clip-rule="evenodd" stroke-dasharray="none" fill="#000000" fill-rule="evenodd" stroke-linecap="butt" stroke-linejoin="miter" stroke-miterlimit="4" fill-opacity="1" stroke="none" stroke-opacity="1" stroke-width="1px" d="M77.233,15.147C76.895,15.147,77.029,15.443,75.961,16.268C74.892,17.093,73.869,17.798,72.624,18.501C71.378,19.204,69.868,19.859,68.212,20.488C66.555,21.117,65.022,21.431,63.613,21.431C62.309,21.431,61.16,21.146,60.168,20.578C56.881,18.812,54.024,17.495,51.597,16.627C49.171,15.759,46.562,15.325,43.77,15.325C38.943,15.325,33.451,17.12,27.293,20.712C25.78,21.58,24.749,22.224,24.201,22.643C23.392,23.331,22.988,24.154,22.988,25.112L22.988,58.426C22.988,59.204,23.236,59.878,23.732,60.446C24.227,61.015,24.814,61.299,25.493,61.299C25.91,61.299,26.34,61.165,26.784,60.896C33.881,56.525,39.934,54.34,44.944,54.34C46.848,54.34,48.708,54.67,50.521,55.328C52.334,55.986,53.841,56.705,55.041,57.483C56.242,58.26,57.657,58.98,59.287,59.638C60.919,60.296,62.53,60.625,64.121,60.625C68.139,60.625,72.954,58.89,78.563,55.418C79.268,54.998,80.598,53.983,80.598,52.455L80.598,19.009C80.598,16.869,78.791,15.147,77.233,15.147ZM77.233,15.147"/>
  <path fill="#000000" rx="1" stroke-opacity="1" stroke-linecap="butt" stroke-width="1px" stroke-linejoin="miter" stroke="none" fill-opacity="1" x="3" y="3" stroke-dasharray="none" stroke-miterlimit="4" fill-rule="nonzero" d="M19.156,45.975L19.156,76.625C19.156,78.741,17.441,80.456,15.325,80.456L15.325,80.456C13.209,80.456,11.494,78.741,11.494,76.625L11.494,15.325C11.494,13.209,13.209,11.494,15.325,11.494L15.325,11.494C17.441,11.494,19.156,13.209,19.156,15.325ZM19.156,45.975"/>
</g>
  <g id="Semibold-S" transform="matrix(1.0,0.0,0.0,1.0,1998.5748754882811,614.7948950195313)">  <path stroke-width="1px" stroke-miterlimit="4" fill="#000000" fill-rule="evenodd" fill-opacity="1" stroke-linecap="butt" stroke-opacity="1" stroke="none" stroke-dasharray="none" clip-rule="evenodd" stroke-linejoin="miter" d="M77.233,15.147C76.895,15.147,77.029,15.443,75.961,16.268C74.892,17.093,73.869,17.798,72.624,18.501C71.378,19.204,69.868,19.859,68.212,20.488C66.555,21.117,65.022,21.431,63.613,21.431C62.309,21.431,61.16,21.146,60.168,20.578C56.881,18.812,54.024,17.495,51.597,16.627C49.171,15.759,46.562,15.325,43.77,15.325C38.943,15.325,33.451,17.12,27.293,20.712C25.78,21.58,24.749,22.224,24.201,22.643C23.392,23.331,22.988,24.154,22.988,25.112L22.988,58.426C22.988,59.204,23.236,59.878,23.732,60.446C24.227,61.015,24.814,61.299,25.493,61.299C25.91,61.299,26.34,61.165,26.784,60.896C33.881,56.525,39.934,54.34,44.944,54.34C46.848,54.34,48.708,54.67,50.521,55.328C52.334,55.986,53.841,56.705,55.041,57.483C56.242,58.26,57.657,58.98,59.287,59.638C60.919,60.296,62.53,60.625,64.121,60.625C68.139,60.625,72.954,58.89,78.563,55.418C79.268,54.998,80.598,53.983,80.598,52.455L80.598,19.009C80.598,16.869,78.791,15.147,77.233,15.147ZM77.233,15.147"/>
  <path y="3" fill-opacity="1" stroke-dasharray="none" stroke-width="1px" stroke-linecap="butt" rx="1" stroke-opacity="1" fill-rule="nonzero" x="3" stroke-miterlimit="4" fill="#000000" stroke-linejoin="miter" stroke="none" d="M19.156,45.975L19.156,76.625C19.156,78.741,17.441,80.456,15.325,80.456L15.325,80.456C13.209,80.456,11.494,78.741,11.494,76.625L11.494,15.325C11.494,13.209,13.209,11.494,15.325,11.494L15.325,11.494C17.441,11.494,19.156,13.209,19.156,15.325ZM19.156,45.975"/>
</g>
  <g id="Medium-S" transform="matrix(1.0,0.0,0.0,1.0,1701.864875488281,614.7948950195313)">  <path stroke-linejoin="miter" stroke="none" stroke-opacity="1" fill="#000000" stroke-miterlimit="4" stroke-linecap="butt" stroke-width="1px" fill-rule="evenodd" clip-rule="evenodd" stroke-dasharray="none" fill-opacity="1" d="M77.233,15.147C76.895,15.147,77.029,15.443,75.961,16.268C74.892,17.093,73.869,17.798,72.624,18.501C71.378,19.204,69.868,19.859,68.212,20.488C66.555,21.117,65.022,21.431,63.613,21.431C62.309,21.431,61.16,21.146,60.168,20.578C56.881,18.812,54.024,17.495,51.597,16.627C49.171,15.759,46.562,15.325,43.77,15.325C38.943,15.325,33.451,17.12,27.293,20.712C25.78,21.58,24.749,22.224,24.201,22.643C23.392,23.331,22.988,24.154,22.988,25.112L22.988,58.426C22.988,59.204,23.236,59.878,23.732,60.446C24.227,61.015,24.814,61.299,25.493,61.299C25.91,61.299,26.34,61.165,26.784,60.896C33.881,56.525,39.934,54.34,44.944,54.34C46.848,54.34,48.708,54.67,50.521,55.328C52.334,55.986,53.841,56.705,55.041,57.483C56.242,58.26,57.657,58.98,59.287,59.638C60.919,60.296,62.53,60.625,64.121,60.625C68.139,60.625,72.954,58.89,78.563,55.418C79.268,54.998,80.598,53.983,80.598,52.455L80.598,19.009C80.598,16.869,78.791,15.147,77.233,15.147ZM77.233,15.147"/>
  <path fill-rule="nonzero" stroke-width="1px" fill-opacity="1" rx="1" stroke="none" stroke-dasharray="none" stroke-miterlimit="4" stroke-linecap="butt" x="3" fill="#000000" y="3" stroke-linejoin="miter" stroke-opacity="1" d="M19.156,45.975L19.156,76.625C19.156,78.741,17.441,80.456,15.325,80.456L15.325,80.456C13.209,80.456,11.494,78.741,11.494,76.625L11.494,15.325C11.494,13.209,13.209,11.494,15.325,11.494L15.325,11.494C17.441,11.494,19.156,13.209,19.156,15.325ZM19.156,45.975"/>
</g>
  <g id="Regular-S" transform="matrix(1.0,0.0,0.0,1.0,1405.154875488281,614.7948950195313)">  <path stroke-width="1px" fill-rule="evenodd" clip-rule="evenodd" stroke-opacity="1" stroke="none" stroke-linecap="butt" fill="#000000" fill-opacity="1" stroke-miterlimit="4" stroke-linejoin="miter" stroke-dasharray="none" d="M77.233,15.147C76.895,15.147,77.029,15.443,75.961,16.268C74.892,17.093,73.869,17.798,72.624,18.501C71.378,19.204,69.868,19.859,68.212,20.488C66.555,21.117,65.022,21.431,63.613,21.431C62.309,21.431,61.16,21.146,60.168,20.578C56.881,18.812,54.024,17.495,51.597,16.627C49.171,15.759,46.562,15.325,43.77,15.325C38.943,15.325,33.451,17.12,27.293,20.712C25.78,21.58,24.749,22.224,24.201,22.643C23.392,23.331,22.988,24.154,22.988,25.112L22.988,58.426C22.988,59.204,23.236,59.878,23.732,60.446C24.227,61.015,24.814,61.299,25.493,61.299C25.91,61.299,26.34,61.165,26.784,60.896C33.881,56.525,39.934,54.34,44.944,54.34C46.848,54.34,48.708,54.67,50.521,55.328C52.334,55.986,53.841,56.705,55.041,57.483C56.242,58.26,57.657,58.98,59.287,59.638C60.919,60.296,62.53,60.625,64.121,60.625C68.139,60.625,72.954,58.89,78.563,55.418C79.268,54.998,80.598,53.983,80.598,52.455L80.598,19.009C80.598,16.869,78.791,15.147,77.233,15.147ZM77.233,15.147"/>
  <path stroke-dasharray="none" stroke-linejoin="miter" stroke-width="1px" rx="1" stroke-miterlimit="4" fill-rule="nonzero" stroke-linecap="butt" stroke="none" stroke-opacity="1" y="3" fill-opacity="1" x="3" fill="#000000" d="M19.156,45.975L19.156,76.625C19.156,78.741,17.441,80.456,15.325,80.456L15.325,80.456C13.209,80.456,11.494,78.741,11.494,76.625L11.494,15.325C11.494,13.209,13.209,11.494,15.325,11.494L15.325,11.494C17.441,11.494,19.156,13.209,19.156,15.325ZM19.156,45.975"/>
</g>
  <g id="Light-S" transform="matrix(1.0,0.0,0.0,1.0,1108.4448754882812,614.7948950195313)">  <path stroke-opacity="1" stroke-dasharray="none" fill-opacity="1" fill-rule="evenodd" stroke-linecap="butt" fill="#000000" stroke-linejoin="miter" stroke-width="1px" stroke="none" stroke-miterlimit="4" clip-rule="evenodd" d="M77.233,15.147C76.895,15.147,77.029,15.443,75.961,16.268C74.892,17.093,73.869,17.798,72.624,18.501C71.378,19.204,69.868,19.859,68.212,20.488C66.555,21.117,65.022,21.431,63.613,21.431C62.309,21.431,61.16,21.146,60.168,20.578C56.881,18.812,54.024,17.495,51.597,16.627C49.171,15.759,46.562,15.325,43.77,15.325C38.943,15.325,33.451,17.12,27.293,20.712C25.78,21.58,24.749,22.224,24.201,22.643C23.392,23.331,22.988,24.154,22.988,25.112L22.988,58.426C22.988,59.204,23.236,59.878,23.732,60.446C24.227,61.015,24.814,61.299,25.493,61.299C25.91,61.299,26.34,61.165,26.784,60.896C33.881,56.525,39.934,54.34,44.944,54.34C46.848,54.34,48.708,54.67,50.521,55.328C52.334,55.986,53.841,56.705,55.041,57.483C56.242,58.26,57.657,58.98,59.287,59.638C60.919,60.296,62.53,60.625,64.121,60.625C68.139,60.625,72.954,58.89,78.563,55.418C79.268,54.998,80.598,53.983,80.598,52.455L80.598,19.009C80.598,16.869,78.791,15.147,77.233,15.147ZM77.233,15.147"/>
  <path stroke-dasharray="none" stroke-linejoin="miter" x="3" fill-rule="nonzero" stroke-miterlimit="4" fill="#000000" y="3" fill-opacity="1" rx="1" stroke-linecap="butt" stroke="none" stroke-opacity="1" stroke-width="1px" d="M19.156,45.975L19.156,76.625C19.156,78.741,17.441,80.456,15.325,80.456L15.325,80.456C13.209,80.456,11.494,78.741,11.494,76.625L11.494,15.325C11.494,13.209,13.209,11.494,15.325,11.494L15.325,11.494C17.441,11.494,19.156,13.209,19.156,15.325ZM19.156,45.975"/>
</g>
  <g id="Thin-S" transform="matrix(1.0,0.0,0.0,1.0,811.7348754882813,614.7948950195313)">  <path fill="#000000" stroke-miterlimit="4" clip-rule="evenodd" stroke-width="1px" stroke-dasharray="none" fill-rule="evenodd" stroke-opacity="1" stroke-linejoin="miter" stroke-linecap="butt" stroke="none" fill-opacity="1" d="M77.233,15.147C76.895,15.147,77.029,15.443,75.961,16.268C74.892,17.093,73.869,17.798,72.624,18.501C71.378,19.204,69.868,19.859,68.212,20.488C66.555,21.117,65.022,21.431,63.613,21.431C62.309,21.431,61.16,21.146,60.168,20.578C56.881,18.812,54.024,17.495,51.597,16.627C49.171,15.759,46.562,15.325,43.77,15.325C38.943,15.325,33.451,17.12,27.293,20.712C25.78,21.58,24.749,22.224,24.201,22.643C23.392,23.331,22.988,24.154,22.988,25.112L22.988,58.426C22.988,59.204,23.236,59.878,23.732,60.446C24.227,61.015,24.814,61.299,25.493,61.299C25.91,61.299,26.34,61.165,26.784,60.896C33.881,56.525,39.934,54.34,44.944,54.34C46.848,54.34,48.708,54.67,50.521,55.328C52.334,55.986,53.841,56.705,55.041,57.483C56.242,58.26,57.657,58.98,59.287,59.638C60.919,60.296,62.53,60.625,64.121,60.625C68.139,60.625,72.954,58.89,78.563,55.418C79.268,54.998,80.598,53.983,80.598,52.455L80.598,19.009C80.598,16.869,78.791,15.147,77.233,15.147ZM77.233,15.147"/>
  <path stroke-miterlimit="4" fill-rule="nonzero" fill="#000000" fill-opacity="1" y="3" x="3" stroke-dasharray="none" rx="1" stroke-linejoin="miter" stroke-linecap="butt" stroke-opacity="1" stroke="none" stroke-width="1px" d="M19.156,45.975L19.156,76.625C19.156,78.741,17.441,80.456,15.325,80.456L15.325,80.456C13.209,80.456,11.494,78.741,11.494,76.625L11.494,15.325C11.494,13.209,13.209,11.494,15.325,11.494L15.325,11.494C17.441,11.494,19.156,13.209,19.156,15.325ZM19.156,45.975"/>
</g>
  <g id="Ultralight-S" transform="matrix(1.0,0.0,0.0,1.0,515.0248754882813,614.7948950195313)">  <path stroke-width="1px" stroke-opacity="1" stroke-linejoin="miter" stroke-dasharray="none" stroke-miterlimit="4" clip-rule="evenodd" fill="#000000" fill-opacity="1" stroke="none" stroke-linecap="butt" fill-rule="evenodd" d="M77.233,15.147C76.895,15.147,77.029,15.443,75.961,16.268C74.892,17.093,73.869,17.798,72.624,18.501C71.378,19.204,69.868,19.859,68.212,20.488C66.555,21.117,65.022,21.431,63.613,21.431C62.309,21.431,61.16,21.146,60.168,20.578C56.881,18.812,54.024,17.495,51.597,16.627C49.171,15.759,46.562,15.325,43.77,15.325C38.943,15.325,33.451,17.12,27.293,20.712C25.78,21.58,24.749,22.224,24.201,22.643C23.392,23.331,22.988,24.154,22.988,25.112L22.988,58.426C22.988,59.204,23.236,59.878,23.732,60.446C24.227,61.015,24.814,61.299,25.493,61.299C25.91,61.299,26.34,61.165,26.784,60.896C33.881,56.525,39.934,54.34,44.944,54.34C46.848,54.34,48.708,54.67,50.521,55.328C52.334,55.986,53.841,56.705,55.041,57.483C56.242,58.26,57.657,58.98,59.287,59.638C60.919,60.296,62.53,60.625,64.121,60.625C68.139,60.625,72.954,58.89,78.563,55.418C79.268,54.998,80.598,53.983,80.598,52.455L80.598,19.009C80.598,16.869,78.791,15.147,77.233,15.147ZM77.233,15.147"/>
  <path fill="#000000" stroke-miterlimit="4" stroke-linejoin="miter" fill-rule="nonzero" stroke-opacity="1" stroke-linecap="butt" fill-opacity="1" stroke-width="1px" stroke-dasharray="none" rx="1" y="3" stroke="none" x="3" d="M19.156,45.975L19.156,76.625C19.156,78.741,17.441,80.456,15.325,80.456L15.325,80.456C13.209,80.456,11.494,78.741,11.494,76.625L11.494,15.325C11.494,13.209,13.209,11.494,15.325,11.494L15.325,11.494C17.441,11.494,19.156,13.209,19.156,15.325ZM19.156,45.975"/>
</g>
 </g>
</svg>
