<?xml version="1.0" encoding="UTF-8"?>
<!-- Generator: CustomSymbols v2.6.1.40 by @serious_bret https://bretlester.com/app_content/CustomSymbols/ -->
<!-- Guides: Left/Right 0.13/0.126 Cap/Base 0.18/0.182 -->
<!-- Settings: RefScale 1.0 Min/Max Stroke Scales 0.5/2.21 -->
<!DOCTYPE svg
PUBLIC "-//W3C//DTD SVG 1.1//EN"
       "http://www.w3.org/Graphics/SVG/1.1/DTD/svg11.dtd">
<svg version="1.1" xmlns="http://www.w3.org/2000/svg" xmlns:xlink="http://www.w3.org/1999/xlink" width="3300" height="2200">
<![CDATA[<svg xmlns="http://www.w3.org/2000/svg" width="24" height="24" viewBox="0 0 24 24">
  <defs/>
  <path d="M20,14 L20,21 C20,21.552 19.552,22 19,22 L13,22 L13,18 L11,18 L11,22 L5,22 C4.448,22 4,21.552 4,21 L4,14 C3.206,14 2.772,13.074 3.28,12.464 L11.232,2.922 C11.632,2.442 12.368,2.442 12.768,2.922 L20.72,12.464 C21.228,13.074 20.794,14 20,14 Z M15,20 L18,20 L18,12.818 L12,5.828 L6,12.74 L6,20 L9,20 L9,17 C9,16.448 9.448,16 10,16 L14,16 C14.552,16 15,16.448 15,17 Z M20,8.093 L17,5.093 L17,4 C17,3.448 17.448,3 18,3 L19,3 C19.552,3 20,3.448 20,4 Z"/>
</svg>

]]>
 <g id="Notes">
  <rect height="2200" id="artboard" style="fill:white;opacity:1" width="3300" x="0" y="0"/>
  <line id="" style="fill:none;stroke:black;opacity:1;stroke-width:0.5;" x1="263" x2="3036" y1="292" y2="292"/>
  <text id="reftext1" style="stroke:none;fill:black;font-family:-apple-system,&quot;SF Pro Display&quot;,&quot;SF Pro Text&quot;,Helvetica,sans-serif;font-weight:bold;" transform="matrix(1 0 0 1 263 322)">Weight/Scale Variations</text>
  <text id="reftext2" style="stroke:none;fill:black;font-family:-apple-system,&quot;SF Pro Display&quot;,&quot;SF Pro Text&quot;,Helvetica,sans-serif;text-anchor:middle;" transform="matrix(1 0 0 1 559.711 322)">Ultralight</text>
  <text style="stroke:none;fill:black;font-family:-apple-system,&quot;SF Pro Display&quot;,&quot;SF Pro Text&quot;,Helvetica,sans-serif;text-anchor:middle;" transform="matrix(1 0 0 1 856.422 322)">Thin</text>
  <text style="stroke:none;fill:black;font-family:-apple-system,&quot;SF Pro Display&quot;,&quot;SF Pro Text&quot;,Helvetica,sans-serif;text-anchor:middle;" transform="matrix(1 0 0 1 1153.13 322)">Light</text>
  <text style="stroke:none;fill:black;font-family:-apple-system,&quot;SF Pro Display&quot;,&quot;SF Pro Text&quot;,Helvetica,sans-serif;text-anchor:middle;" transform="matrix(1 0 0 1 1449.84 322)">Regular</text>
  <text style="stroke:none;fill:black;font-family:-apple-system,&quot;SF Pro Display&quot;,&quot;SF Pro Text&quot;,Helvetica,sans-serif;text-anchor:middle;" transform="matrix(1 0 0 1 1746.56 322)">Medium</text>
  <text style="stroke:none;fill:black;font-family:-apple-system,&quot;SF Pro Display&quot;,&quot;SF Pro Text&quot;,Helvetica,sans-serif;text-anchor:middle;" transform="matrix(1 0 0 1 2043.27 322)">Semibold</text>
  <text style="stroke:none;fill:black;font-family:-apple-system,&quot;SF Pro Display&quot;,&quot;SF Pro Text&quot;,Helvetica,sans-serif;text-anchor:middle;" transform="matrix(1 0 0 1 2339.98 322)">Bold</text>
  <text style="stroke:none;fill:black;font-family:-apple-system,&quot;SF Pro Display&quot;,&quot;SF Pro Text&quot;,Helvetica,sans-serif;text-anchor:middle;" transform="matrix(1 0 0 1 2636.69 322)">Heavy</text>
  <text style="stroke:none;fill:black;font-family:-apple-system,&quot;SF Pro Display&quot;,&quot;SF Pro Text&quot;,Helvetica,sans-serif;text-anchor:middle;" transform="matrix(1 0 0 1 2933.4 322)">Black</text>
  <line id="" style="fill:none;stroke:black;opacity:1;stroke-width:0.5;" x1="263" x2="3036" y1="1903" y2="1903"/>
  <g id="" transform="matrix(1 0 0 1 263 1933)">
   <path d="M9.24805 0.830078C13.5547 0.830078 17.1387-2.74414 17.1387-7.05078C17.1387-11.3574 13.5449-14.9316 9.23828-14.9316C4.94141-14.9316 1.36719-11.3574 1.36719-7.05078C1.36719-2.74414 4.95117 0.830078 9.24805 0.830078ZM9.24805-0.654297C5.70312-0.654297 2.87109-3.49609 2.87109-7.05078C2.87109-10.6055 5.69336-13.4473 9.23828-13.4473C12.793-13.4473 15.6348-10.6055 15.6445-7.05078C15.6543-3.49609 12.8027-0.654297 9.24805-0.654297ZM6.39648-6.31836L8.50586-6.31836L8.50586-4.19922C8.50586-3.75977 8.79883-3.45703 9.22852-3.45703C9.67773-3.45703 9.9707-3.75977 9.9707-4.19922L9.9707-6.31836L12.0996-6.31836C12.5391-6.31836 12.8418-6.61133 12.8418-7.04102C12.8418-7.48047 12.5391-7.7832 12.0996-7.7832L9.9707-7.7832L9.9707-9.89258C9.9707-10.3418 9.67773-10.6445 9.22852-10.6445C8.79883-10.6445 8.50586-10.3418 8.50586-9.89258L8.50586-7.7832L6.39648-7.7832C5.94727-7.7832 5.64453-7.48047 5.64453-7.04102C5.64453-6.61133 5.94727-6.31836 6.39648-6.31836Z"/>
  </g>
  <g id="" transform="matrix(1 0 0 1 281.506 1933)">
   <path d="M11.709 2.91016C17.1582 2.91016 21.6699-1.61133 21.6699-7.05078C21.6699-12.5 17.1484-17.0117 11.6992-17.0117C6.25977-17.0117 1.74805-12.5 1.74805-7.05078C1.74805-1.61133 6.26953 2.91016 11.709 2.91016ZM11.709 1.25C7.09961 1.25 3.41797-2.44141 3.41797-7.05078C3.41797-11.6602 7.08984-15.3516 11.6992-15.3516C16.3086-15.3516 20-11.6602 20.0098-7.05078C20.0195-2.44141 16.3184 1.25 11.709 1.25ZM7.98828-6.23047L10.8789-6.23047L10.8789-3.32031C10.8789-2.83203 11.2109-2.5 11.6895-2.5C12.1777-2.5 12.5195-2.83203 12.5195-3.32031L12.5195-6.23047L15.4297-6.23047C15.918-6.23047 16.25-6.5625 16.25-7.04102C16.25-7.5293 15.918-7.87109 15.4297-7.87109L12.5195-7.87109L12.5195-10.7617C12.5195-11.2695 12.1777-11.6016 11.6895-11.6016C11.2109-11.6016 10.8789-11.2598 10.8789-10.7617L10.8789-7.87109L7.98828-7.87109C7.48047-7.87109 7.14844-7.5293 7.14844-7.04102C7.14844-6.5625 7.49023-6.23047 7.98828-6.23047Z"/>
  </g>
  <g id="" transform="matrix(1 0 0 1 304.924 1933)">
   <path d="M14.9707 5.66406C21.9336 5.66406 27.6953-0.0976562 27.6953-7.05078C27.6953-14.0137 21.9238-19.7754 14.9609-19.7754C8.00781-19.7754 2.25586-14.0137 2.25586-7.05078C2.25586-0.0976562 8.01758 5.66406 14.9707 5.66406ZM14.9707 3.84766C8.93555 3.84766 4.08203-1.01562 4.08203-7.05078C4.08203-13.0957 8.92578-17.9492 14.9609-17.9492C21.0059-17.9492 25.8594-13.0957 25.8691-7.05078C25.8789-1.01562 21.0156 3.84766 14.9707 3.84766ZM10.0586-6.14258L14.0625-6.14258L14.0625-2.12891C14.0625-1.5918 14.4336-1.2207 14.9512-1.2207C15.4883-1.2207 15.8594-1.5918 15.8594-2.12891L15.8594-6.14258L19.8828-6.14258C20.4102-6.14258 20.791-6.51367 20.791-7.03125C20.791-7.56836 20.4199-7.94922 19.8828-7.94922L15.8594-7.94922L15.8594-11.9531C15.8594-12.5098 15.4883-12.8809 14.9512-12.8809C14.4336-12.8809 14.0625-12.5 14.0625-11.9531L14.0625-7.94922L10.0586-7.94922C9.50195-7.94922 9.13086-7.56836 9.13086-7.03125C9.13086-6.51367 9.51172-6.14258 10.0586-6.14258Z"/>
  </g>
  <text style="stroke:none;fill:black;font-family:-apple-system,&quot;SF Pro Display&quot;,&quot;SF Pro Text&quot;,Helvetica,sans-serif;font-weight:bold;" transform="matrix(1 0 0 1 263 1953)">Design Variations</text>
  <text style="stroke:none;fill:black;font-family:-apple-system,&quot;SF Pro Display&quot;,&quot;SF Pro Text&quot;,Helvetica,sans-serif;" transform="matrix(1 0 0 1 263 1971)">Symbols are supported in up to nine weights and three scales.</text>
  <text style="stroke:none;fill:black;font-family:-apple-system,&quot;SF Pro Display&quot;,&quot;SF Pro Text&quot;,Helvetica,sans-serif;" transform="matrix(1 0 0 1 263 1989)">For optimal layout with text and other symbols, vertically align</text>
  <text style="stroke:none;fill:black;font-family:-apple-system,&quot;SF Pro Display&quot;,&quot;SF Pro Text&quot;,Helvetica,sans-serif;" transform="matrix(1 0 0 1 263 2007)">symbols with the adjacent text.</text>
  <line id="" style="fill:none;stroke:#00AEEF;stroke-width:0.5;opacity:1.0;" x1="776" x2="776" y1="1919" y2="1933"/>
  <g id="" transform="matrix(1 0 0 1 776 1933)">
   <path d="M3.31055 0.126953C3.82812 0.126953 4.08203-0.0683594 4.26758-0.605469L5.52734-4.0625L11.2891-4.0625L12.5488-0.605469C12.7344-0.0683594 12.9883 0.126953 13.4961 0.126953C14.0137 0.126953 14.3457-0.185547 14.3457-0.673828C14.3457-0.839844 14.3164-0.986328 14.2383-1.20117L9.6582-13.3887C9.43359-13.9941 9.0332-14.2871 8.4082-14.2871C7.80273-14.2871 7.39258-13.9941 7.17773-13.3984L2.59766-1.19141C2.51953-0.976562 2.49023-0.830078 2.49023-0.664062C2.49023-0.175781 2.80273 0.126953 3.31055 0.126953ZM6.00586-5.53711L8.37891-12.1094L8.42773-12.1094L10.8008-5.53711Z"/>
  </g>
  <line id="" style="fill:none;stroke:#00AEEF;stroke-width:0.5;opacity:1.0;" x1="792.836" x2="792.836" y1="1919" y2="1933"/>
  <text style="stroke:none;fill:black;font-family:-apple-system,&quot;SF Pro Display&quot;,&quot;SF Pro Text&quot;,Helvetica,sans-serif;font-weight:bold;" transform="matrix(1 0 0 1 776 1953)">Margins</text>
  <text style="stroke:none;fill:black;font-family:-apple-system,&quot;SF Pro Display&quot;,&quot;SF Pro Text&quot;,Helvetica,sans-serif;" transform="matrix(1 0 0 1 776 1971)">Leading and trailing margins on the left and right side of each symbol</text>
  <text style="stroke:none;fill:black;font-family:-apple-system,&quot;SF Pro Display&quot;,&quot;SF Pro Text&quot;,Helvetica,sans-serif;" transform="matrix(1 0 0 1 776 1989)">can be adjusted by modifying the x-location of the margin guidelines.</text>
  <text style="stroke:none;fill:black;font-family:-apple-system,&quot;SF Pro Display&quot;,&quot;SF Pro Text&quot;,Helvetica,sans-serif;" transform="matrix(1 0 0 1 776 2007)">Modifications are automatically applied proportionally to all</text>
  <text style="stroke:none;fill:black;font-family:-apple-system,&quot;SF Pro Display&quot;,&quot;SF Pro Text&quot;,Helvetica,sans-serif;" transform="matrix(1 0 0 1 776 2025)">scales and weights.</text>
  <g id="" transform="matrix(1 0 0 1 1289 1933)">
   <path d="M2.8418 1.86523L4.54102 3.57422C5.40039 4.44336 6.38672 4.38477 7.31445 3.35938L17.4902-7.85156C17.7539-7.76367 18.0273-7.7832 18.3398-7.8418L19.4043-8.03711L20.0684-7.36328L20.0293-6.80664C19.9902-6.30859 20.1172-5.92773 20.6055-5.44922L21.3672-4.70703C21.8457-4.22852 22.4609-4.19922 22.9297-4.66797L25.8398-7.58789C26.3086-8.05664 26.2891-8.65234 25.8105-9.13086L25.0391-9.89258C24.5605-10.3711 24.1895-10.5273 23.7109-10.4883L23.1348-10.4395L22.4902-11.0742L22.7344-12.1973C22.8613-12.7637 22.7051-13.2031 22.1191-13.7891L19.9219-15.9766C16.582-19.2969 12.1484-19.2188 9.25781-16.3281C8.83789-15.918 8.80859-15.3418 9.04297-14.9512C9.27734-14.5898 9.73633-14.3555 10.3809-14.5215C11.8457-14.8633 13.3691-14.9219 14.7949-13.9844L14.209-12.5293C14.0137-12.0508 13.9844-11.6504 14.1113-11.2891L3.04688-0.898438C2.06055 0.0195312 1.98242 0.996094 2.8418 1.86523ZM10.752-15.957C13.1836-17.7344 16.4746-17.4316 18.7012-15.2051L21.1328-12.793C21.3672-12.5586 21.4062-12.373 21.3379-12.0312L21.0156-10.5469L22.5195-9.0625L23.5059-9.12109C23.7598-9.13086 23.8379-9.11133 24.0332-8.91602L24.6094-8.33984L22.168-5.89844L21.5918-6.47461C21.3965-6.66992 21.3672-6.74805 21.377-7.01172L21.4453-7.98828L19.9512-9.47266L18.4277-9.21875C18.1055-9.15039 17.959-9.17969 17.7148-9.41406L15.7129-11.416C15.459-11.6504 15.4297-11.8164 15.5859-12.1875L16.4648-14.2773C14.9023-15.7324 12.8711-16.3574 10.8398-15.7617C10.6836-15.7227 10.625-15.8496 10.752-15.957ZM5.27344 2.30469L4.10156 1.14258C3.63281 0.683594 3.74023 0.341797 4.14062-0.0195312L14.9512-10.1953L16.416-8.71094L6.42578 2.27539C6.07422 2.67578 5.74219 2.77344 5.27344 2.30469Z"/>
  </g>
  <text style="stroke:none;fill:black;font-family:-apple-system,&quot;SF Pro Display&quot;,&quot;SF Pro Text&quot;,Helvetica,sans-serif;font-weight:bold;" transform="matrix(1 0 0 1 1289 1953)">Exporting</text>
  <text style="stroke:none;fill:black;font-family:-apple-system,&quot;SF Pro Display&quot;,&quot;SF Pro Text&quot;,Helvetica,sans-serif;" transform="matrix(1 0 0 1 1289 1971)">Symbols should be outlined when exporting to ensure the</text>
  <text style="stroke:none;fill:black;font-family:-apple-system,&quot;SF Pro Display&quot;,&quot;SF Pro Text&quot;,Helvetica,sans-serif;" transform="matrix(1 0 0 1 1289 1989)">design is preserved when submitting to Xcode.</text>
  <text id="template-version" style="stroke:none;fill:black;font-family:-apple-system,&quot;SF Pro Display&quot;,&quot;SF Pro Text&quot;,Helvetica,sans-serif;text-anchor:end;" transform="matrix(1 0 0 1 3036 1933)">Template v.2.0</text>
  <text style="stroke:none;fill:black;font-family:-apple-system,&quot;SF Pro Display&quot;,&quot;SF Pro Text&quot;,Helvetica,sans-serif;text-anchor:end;" transform="matrix(1 0 0 1 3036 1951)">Requires Xcode 12 or greater</text>
  <text style="stroke:none;fill:black;font-family:-apple-system,&quot;SF Pro Display&quot;,&quot;SF Pro Text&quot;,Helvetica,sans-serif;" transform="matrix(1 0 0 1 263 726)">Small</text>
  <text style="stroke:none;fill:black;font-family:-apple-system,&quot;SF Pro Display&quot;,&quot;SF Pro Text&quot;,Helvetica,sans-serif;" transform="matrix(1 0 0 1 263 1156)">Medium</text>
  <text style="stroke:none;fill:black;font-family:-apple-system,&quot;SF Pro Display&quot;,&quot;SF Pro Text&quot;,Helvetica,sans-serif;" transform="matrix(1 0 0 1 263 1586)">Large</text>
 </g>
 <g id="Guides">
  <g id="H-reference" style="fill:#27AAE1;stroke:none;" transform="matrix(1 0 0 1 339 696)">
   <path d="M0.976562 0L3.66211 0L12.9883-24.4629L45.752-24.4629L55.127 0L57.7637 0L30.6152-70.459L28.125-70.459ZM29.3457-67.1387L29.4434-67.1387L44.873-26.709L13.8672-26.709Z"/>
  </g>
  <line id="Baseline-S" style="fill:none;stroke:#27AAE1;opacity:1;stroke-width:0.5;" x1="263" x2="3036" y1="696" y2="696"/>
  <line id="Capline-S" style="fill:none;stroke:#27AAE1;opacity:1;stroke-width:0.5;" x1="263" x2="3036" y1="625.541" y2="625.541"/>
  <g id="H-reference" style="fill:#27AAE1;stroke:none;" transform="matrix(1 0 0 1 339 1126)">
   <path d="M0.976562 0L3.66211 0L12.9883-24.4629L45.752-24.4629L55.127 0L57.7637 0L30.6152-70.459L28.125-70.459ZM29.3457-67.1387L29.4434-67.1387L44.873-26.709L13.8672-26.709Z"/>
  </g>
  <line id="Baseline-M" style="fill:none;stroke:#27AAE1;opacity:1;stroke-width:0.5;" x1="263" x2="3036" y1="1126" y2="1126"/>
  <line id="Capline-M" style="fill:none;stroke:#27AAE1;opacity:1;stroke-width:0.5;" x1="263" x2="3036" y1="1055.54" y2="1055.54"/>
  <g id="H-reference" style="fill:#27AAE1;stroke:none;" transform="matrix(1 0 0 1 339 1556)">
   <path d="M0.976562 0L3.66211 0L12.9883-24.4629L45.752-24.4629L55.127 0L57.7637 0L30.6152-70.459L28.125-70.459ZM29.3457-67.1387L29.4434-67.1387L44.873-26.709L13.8672-26.709Z"/>
  </g>
  <line id="Baseline-L" style="fill:none;stroke:#27AAE1;opacity:1;stroke-width:0.5;" x1="263" x2="3036" y1="1556" y2="1556"/>
  <line id="Capline-L" style="fill:none;stroke:#27AAE1;opacity:1;stroke-width:0.5;" x1="263" x2="3036" y1="1485.54" y2="1485.54"/>
  <line id="left-margin" x1="1410.2676402086597" x2="1410.2676402086597" y1="1030.79" y2="1150.12" style="fill:none;stroke:#00AEEF;stroke-width:0.5;opacity:1.0;"/>
  <line id="right-margin" x1="1492.4341150323276" x2="1492.4341150323276" y1="1030.79" y2="1150.12" style="fill:none;stroke:#00AEEF;stroke-width:0.5;opacity:1.0;"/>
 </g>
 <g id="Symbols">
  <g id="Black-L" transform="matrix(1.0,0.0,0.0,1.0,2863.446967390772,1449.6794529872404)">  <path stroke-linejoin="miter" stroke-linecap="butt" fill-opacity="1" stroke="none" stroke-opacity="1" stroke-miterlimit="4" fill="#000000" stroke-dasharray="none" fill-rule="nonzero" stroke-width="1px" d="M118.722,83.105L118.722,124.658C118.722,127.935,116.062,130.594,112.786,130.594L77.169,130.594L77.169,106.85L65.297,106.85L65.297,130.594L29.68,130.594C26.404,130.594,23.744,127.935,23.744,124.658L23.744,83.105C19.031,83.105,16.455,77.608,19.47,73.987L66.674,17.345C69.049,14.496,73.418,14.496,75.792,17.345L122.996,73.987C126.011,77.608,123.435,83.105,118.722,83.105ZM89.041,118.722L106.85,118.722L106.85,76.089L71.233,34.596L35.617,75.626L35.617,118.722L53.425,118.722L53.425,100.913C53.425,97.637,56.084,94.977,59.361,94.977L83.105,94.977C86.382,94.977,89.041,97.637,89.041,100.913ZM118.722,48.041L100.913,30.232L100.913,23.744C100.913,20.468,103.573,17.808,106.85,17.808L112.786,17.808C116.062,17.808,118.722,20.468,118.722,23.744ZM118.722,48.041"/>
</g>
  <g id="Heavy-L" transform="matrix(1.0,0.0,0.0,1.0,2566.736967390772,1449.6794529872404)">  <path stroke-linecap="butt" stroke-dasharray="none" fill-opacity="1" fill-rule="nonzero" fill="#000000" stroke-linejoin="miter" stroke="none" stroke-width="1px" stroke-miterlimit="4" stroke-opacity="1" d="M118.722,83.105L118.722,124.658C118.722,127.935,116.062,130.594,112.786,130.594L77.169,130.594L77.169,106.85L65.297,106.85L65.297,130.594L29.68,130.594C26.404,130.594,23.744,127.935,23.744,124.658L23.744,83.105C19.031,83.105,16.455,77.608,19.47,73.987L66.674,17.345C69.049,14.496,73.418,14.496,75.792,17.345L122.996,73.987C126.011,77.608,123.435,83.105,118.722,83.105ZM89.041,118.722L106.85,118.722L106.85,76.089L71.233,34.596L35.617,75.626L35.617,118.722L53.425,118.722L53.425,100.913C53.425,97.637,56.084,94.977,59.361,94.977L83.105,94.977C86.382,94.977,89.041,97.637,89.041,100.913ZM118.722,48.041L100.913,30.232L100.913,23.744C100.913,20.468,103.573,17.808,106.85,17.808L112.786,17.808C116.062,17.808,118.722,20.468,118.722,23.744ZM118.722,48.041"/>
</g>
  <g id="Bold-L" transform="matrix(1.0,0.0,0.0,1.0,2270.026967390772,1449.6794529872404)">  <path stroke-linejoin="miter" stroke-opacity="1" fill="#000000" stroke-width="1px" stroke="none" fill-opacity="1" stroke-linecap="butt" stroke-dasharray="none" fill-rule="nonzero" stroke-miterlimit="4" d="M118.722,83.105L118.722,124.658C118.722,127.935,116.062,130.594,112.786,130.594L77.169,130.594L77.169,106.85L65.297,106.85L65.297,130.594L29.68,130.594C26.404,130.594,23.744,127.935,23.744,124.658L23.744,83.105C19.031,83.105,16.455,77.608,19.47,73.987L66.674,17.345C69.049,14.496,73.418,14.496,75.792,17.345L122.996,73.987C126.011,77.608,123.435,83.105,118.722,83.105ZM89.041,118.722L106.85,118.722L106.85,76.089L71.233,34.596L35.617,75.626L35.617,118.722L53.425,118.722L53.425,100.913C53.425,97.637,56.084,94.977,59.361,94.977L83.105,94.977C86.382,94.977,89.041,97.637,89.041,100.913ZM118.722,48.041L100.913,30.232L100.913,23.744C100.913,20.468,103.573,17.808,106.85,17.808L112.786,17.808C116.062,17.808,118.722,20.468,118.722,23.744ZM118.722,48.041"/>
</g>
  <g id="Semibold-L" transform="matrix(1.0,0.0,0.0,1.0,1973.3169673907719,1449.6794529872404)">  <path stroke-linecap="butt" fill-rule="nonzero" fill-opacity="1" stroke="none" stroke-linejoin="miter" stroke-opacity="1" stroke-width="1px" fill="#000000" stroke-dasharray="none" stroke-miterlimit="4" d="M118.722,83.105L118.722,124.658C118.722,127.935,116.062,130.594,112.786,130.594L77.169,130.594L77.169,106.85L65.297,106.85L65.297,130.594L29.68,130.594C26.404,130.594,23.744,127.935,23.744,124.658L23.744,83.105C19.031,83.105,16.455,77.608,19.47,73.987L66.674,17.345C69.049,14.496,73.418,14.496,75.792,17.345L122.996,73.987C126.011,77.608,123.435,83.105,118.722,83.105ZM89.041,118.722L106.85,118.722L106.85,76.089L71.233,34.596L35.617,75.626L35.617,118.722L53.425,118.722L53.425,100.913C53.425,97.637,56.084,94.977,59.361,94.977L83.105,94.977C86.382,94.977,89.041,97.637,89.041,100.913ZM118.722,48.041L100.913,30.232L100.913,23.744C100.913,20.468,103.573,17.808,106.85,17.808L112.786,17.808C116.062,17.808,118.722,20.468,118.722,23.744ZM118.722,48.041"/>
</g>
  <g id="Medium-L" transform="matrix(1.0,0.0,0.0,1.0,1676.6069673907718,1449.6794529872404)">  <path stroke-dasharray="none" fill-rule="nonzero" stroke-opacity="1" stroke-miterlimit="4" fill="#000000" stroke-linejoin="miter" stroke="none" stroke-linecap="butt" stroke-width="1px" fill-opacity="1" d="M118.722,83.105L118.722,124.658C118.722,127.935,116.062,130.594,112.786,130.594L77.169,130.594L77.169,106.85L65.297,106.85L65.297,130.594L29.68,130.594C26.404,130.594,23.744,127.935,23.744,124.658L23.744,83.105C19.031,83.105,16.455,77.608,19.47,73.987L66.674,17.345C69.049,14.496,73.418,14.496,75.792,17.345L122.996,73.987C126.011,77.608,123.435,83.105,118.722,83.105ZM89.041,118.722L106.85,118.722L106.85,76.089L71.233,34.596L35.617,75.626L35.617,118.722L53.425,118.722L53.425,100.913C53.425,97.637,56.084,94.977,59.361,94.977L83.105,94.977C86.382,94.977,89.041,97.637,89.041,100.913ZM118.722,48.041L100.913,30.232L100.913,23.744C100.913,20.468,103.573,17.808,106.85,17.808L112.786,17.808C116.062,17.808,118.722,20.468,118.722,23.744ZM118.722,48.041"/>
</g>
  <g id="Regular-L" transform="matrix(1.0,0.0,0.0,1.0,1379.8969673907718,1449.6794529872404)">  <path stroke-dasharray="none" stroke-opacity="1" stroke-miterlimit="4" stroke-linecap="butt" fill="#000000" stroke="none" fill-rule="nonzero" stroke-width="1px" stroke-linejoin="miter" fill-opacity="1" d="M118.722,83.105L118.722,124.658C118.722,127.935,116.062,130.594,112.786,130.594L77.169,130.594L77.169,106.85L65.297,106.85L65.297,130.594L29.68,130.594C26.404,130.594,23.744,127.935,23.744,124.658L23.744,83.105C19.031,83.105,16.455,77.608,19.47,73.987L66.674,17.345C69.049,14.496,73.418,14.496,75.792,17.345L122.996,73.987C126.011,77.608,123.435,83.105,118.722,83.105ZM89.041,118.722L106.85,118.722L106.85,76.089L71.233,34.596L35.617,75.626L35.617,118.722L53.425,118.722L53.425,100.913C53.425,97.637,56.084,94.977,59.361,94.977L83.105,94.977C86.382,94.977,89.041,97.637,89.041,100.913ZM118.722,48.041L100.913,30.232L100.913,23.744C100.913,20.468,103.573,17.808,106.85,17.808L112.786,17.808C116.062,17.808,118.722,20.468,118.722,23.744ZM118.722,48.041"/>
</g>
  <g id="Light-L" transform="matrix(1.0,0.0,0.0,1.0,1083.186967390772,1449.6794529872404)">  <path stroke-miterlimit="4" stroke-width="1px" stroke-linecap="butt" fill-opacity="1" fill-rule="nonzero" stroke="none" stroke-dasharray="none" stroke-linejoin="miter" fill="#000000" stroke-opacity="1" d="M118.722,83.105L118.722,124.658C118.722,127.935,116.062,130.594,112.786,130.594L77.169,130.594L77.169,106.85L65.297,106.85L65.297,130.594L29.68,130.594C26.404,130.594,23.744,127.935,23.744,124.658L23.744,83.105C19.031,83.105,16.455,77.608,19.47,73.987L66.674,17.345C69.049,14.496,73.418,14.496,75.792,17.345L122.996,73.987C126.011,77.608,123.435,83.105,118.722,83.105ZM89.041,118.722L106.85,118.722L106.85,76.089L71.233,34.596L35.617,75.626L35.617,118.722L53.425,118.722L53.425,100.913C53.425,97.637,56.084,94.977,59.361,94.977L83.105,94.977C86.382,94.977,89.041,97.637,89.041,100.913ZM118.722,48.041L100.913,30.232L100.913,23.744C100.913,20.468,103.573,17.808,106.85,17.808L112.786,17.808C116.062,17.808,118.722,20.468,118.722,23.744ZM118.722,48.041"/>
</g>
  <g id="Thin-L" transform="matrix(1.0,0.0,0.0,1.0,786.476967390772,1449.6794529872404)">  <path stroke-miterlimit="4" fill-rule="nonzero" stroke-linejoin="miter" stroke-dasharray="none" stroke-linecap="butt" stroke-opacity="1" fill-opacity="1" stroke="none" stroke-width="1px" fill="#000000" d="M118.722,83.105L118.722,124.658C118.722,127.935,116.062,130.594,112.786,130.594L77.169,130.594L77.169,106.85L65.297,106.85L65.297,130.594L29.68,130.594C26.404,130.594,23.744,127.935,23.744,124.658L23.744,83.105C19.031,83.105,16.455,77.608,19.47,73.987L66.674,17.345C69.049,14.496,73.418,14.496,75.792,17.345L122.996,73.987C126.011,77.608,123.435,83.105,118.722,83.105ZM89.041,118.722L106.85,118.722L106.85,76.089L71.233,34.596L35.617,75.626L35.617,118.722L53.425,118.722L53.425,100.913C53.425,97.637,56.084,94.977,59.361,94.977L83.105,94.977C86.382,94.977,89.041,97.637,89.041,100.913ZM118.722,48.041L100.913,30.232L100.913,23.744C100.913,20.468,103.573,17.808,106.85,17.808L112.786,17.808C116.062,17.808,118.722,20.468,118.722,23.744ZM118.722,48.041"/>
</g>
  <g id="Ultralight-L" transform="matrix(1.0,0.0,0.0,1.0,489.7669673907719,1449.6794529872404)">  <path stroke-opacity="1" fill-opacity="1" fill-rule="nonzero" stroke-miterlimit="4" stroke-dasharray="none" fill="#000000" stroke-linecap="butt" stroke-width="1px" stroke="none" stroke-linejoin="miter" d="M118.722,83.105L118.722,124.658C118.722,127.935,116.062,130.594,112.786,130.594L77.169,130.594L77.169,106.85L65.297,106.85L65.297,130.594L29.68,130.594C26.404,130.594,23.744,127.935,23.744,124.658L23.744,83.105C19.031,83.105,16.455,77.608,19.47,73.987L66.674,17.345C69.049,14.496,73.418,14.496,75.792,17.345L122.996,73.987C126.011,77.608,123.435,83.105,118.722,83.105ZM89.041,118.722L106.85,118.722L106.85,76.089L71.233,34.596L35.617,75.626L35.617,118.722L53.425,118.722L53.425,100.913C53.425,97.637,56.084,94.977,59.361,94.977L83.105,94.977C86.382,94.977,89.041,97.637,89.041,100.913ZM118.722,48.041L100.913,30.232L100.913,23.744C100.913,20.468,103.573,17.808,106.85,17.808L112.786,17.808C116.062,17.808,118.722,20.468,118.722,23.744ZM118.722,48.041"/>
</g>
  <g id="Black-M" transform="matrix(1.0,0.0,0.0,1.0,2879.460594876567,1035.6610532180644)">  <path stroke-linejoin="miter" stroke-linecap="butt" fill-opacity="1" stroke="none" stroke-opacity="1" stroke-miterlimit="4" fill="#000000" stroke-dasharray="none" fill-rule="nonzero" stroke-width="1px" d="M92.032,64.423L92.032,96.634C92.032,99.174,89.971,101.236,87.431,101.236L59.821,101.236L59.821,82.829L50.618,82.829L50.618,101.236L23.008,101.236C20.468,101.236,18.406,99.174,18.406,96.634L18.406,64.423C14.753,64.423,12.756,60.162,15.093,57.355L51.685,13.446C53.526,11.237,56.913,11.237,58.753,13.446L95.346,57.355C97.683,60.162,95.686,64.423,92.032,64.423ZM69.024,92.032L82.829,92.032L82.829,58.984L55.219,26.818L27.61,58.625L27.61,92.032L41.415,92.032L41.415,78.227C41.415,75.687,43.476,73.626,46.016,73.626L64.423,73.626C66.963,73.626,69.024,75.687,69.024,78.227ZM92.032,37.241L78.227,23.436L78.227,18.406C78.227,15.866,80.289,13.805,82.829,13.805L87.431,13.805C89.971,13.805,92.032,15.866,92.032,18.406ZM92.032,37.241"/>
</g>
  <g id="Heavy-M" transform="matrix(1.0,0.0,0.0,1.0,2582.750594876567,1035.6610532180644)">  <path stroke-linecap="butt" stroke-dasharray="none" fill-opacity="1" fill-rule="nonzero" fill="#000000" stroke-linejoin="miter" stroke="none" stroke-width="1px" stroke-miterlimit="4" stroke-opacity="1" d="M92.032,64.423L92.032,96.634C92.032,99.174,89.971,101.236,87.431,101.236L59.821,101.236L59.821,82.829L50.618,82.829L50.618,101.236L23.008,101.236C20.468,101.236,18.406,99.174,18.406,96.634L18.406,64.423C14.753,64.423,12.756,60.162,15.093,57.355L51.685,13.446C53.526,11.237,56.913,11.237,58.753,13.446L95.346,57.355C97.683,60.162,95.686,64.423,92.032,64.423ZM69.024,92.032L82.829,92.032L82.829,58.984L55.219,26.818L27.61,58.625L27.61,92.032L41.415,92.032L41.415,78.227C41.415,75.687,43.476,73.626,46.016,73.626L64.423,73.626C66.963,73.626,69.024,75.687,69.024,78.227ZM92.032,37.241L78.227,23.436L78.227,18.406C78.227,15.866,80.289,13.805,82.829,13.805L87.431,13.805C89.971,13.805,92.032,15.866,92.032,18.406ZM92.032,37.241"/>
</g>
  <g id="Bold-M" transform="matrix(1.0,0.0,0.0,1.0,2286.040594876567,1035.6610532180644)">  <path stroke-linejoin="miter" stroke-opacity="1" fill="#000000" stroke-width="1px" stroke="none" fill-opacity="1" stroke-linecap="butt" stroke-dasharray="none" fill-rule="nonzero" stroke-miterlimit="4" d="M92.032,64.423L92.032,96.634C92.032,99.174,89.971,101.236,87.431,101.236L59.821,101.236L59.821,82.829L50.618,82.829L50.618,101.236L23.008,101.236C20.468,101.236,18.406,99.174,18.406,96.634L18.406,64.423C14.753,64.423,12.756,60.162,15.093,57.355L51.685,13.446C53.526,11.237,56.913,11.237,58.753,13.446L95.346,57.355C97.683,60.162,95.686,64.423,92.032,64.423ZM69.024,92.032L82.829,92.032L82.829,58.984L55.219,26.818L27.61,58.625L27.61,92.032L41.415,92.032L41.415,78.227C41.415,75.687,43.476,73.626,46.016,73.626L64.423,73.626C66.963,73.626,69.024,75.687,69.024,78.227ZM92.032,37.241L78.227,23.436L78.227,18.406C78.227,15.866,80.289,13.805,82.829,13.805L87.431,13.805C89.971,13.805,92.032,15.866,92.032,18.406ZM92.032,37.241"/>
</g>
  <g id="Semibold-M" transform="matrix(1.0,0.0,0.0,1.0,1989.3305948765674,1035.6610532180644)">  <path stroke-linecap="butt" fill-rule="nonzero" fill-opacity="1" stroke="none" stroke-linejoin="miter" stroke-opacity="1" stroke-width="1px" fill="#000000" stroke-dasharray="none" stroke-miterlimit="4" d="M92.032,64.423L92.032,96.634C92.032,99.174,89.971,101.236,87.431,101.236L59.821,101.236L59.821,82.829L50.618,82.829L50.618,101.236L23.008,101.236C20.468,101.236,18.406,99.174,18.406,96.634L18.406,64.423C14.753,64.423,12.756,60.162,15.093,57.355L51.685,13.446C53.526,11.237,56.913,11.237,58.753,13.446L95.346,57.355C97.683,60.162,95.686,64.423,92.032,64.423ZM69.024,92.032L82.829,92.032L82.829,58.984L55.219,26.818L27.61,58.625L27.61,92.032L41.415,92.032L41.415,78.227C41.415,75.687,43.476,73.626,46.016,73.626L64.423,73.626C66.963,73.626,69.024,75.687,69.024,78.227ZM92.032,37.241L78.227,23.436L78.227,18.406C78.227,15.866,80.289,13.805,82.829,13.805L87.431,13.805C89.971,13.805,92.032,15.866,92.032,18.406ZM92.032,37.241"/>
</g>
  <g id="Medium-M" transform="matrix(1.0,0.0,0.0,1.0,1692.6205948765673,1035.6610532180644)">  <path stroke-dasharray="none" fill-rule="nonzero" stroke-opacity="1" stroke-miterlimit="4" fill="#000000" stroke-linejoin="miter" stroke="none" stroke-linecap="butt" stroke-width="1px" fill-opacity="1" d="M92.032,64.423L92.032,96.634C92.032,99.174,89.971,101.236,87.431,101.236L59.821,101.236L59.821,82.829L50.618,82.829L50.618,101.236L23.008,101.236C20.468,101.236,18.406,99.174,18.406,96.634L18.406,64.423C14.753,64.423,12.756,60.162,15.093,57.355L51.685,13.446C53.526,11.237,56.913,11.237,58.753,13.446L95.346,57.355C97.683,60.162,95.686,64.423,92.032,64.423ZM69.024,92.032L82.829,92.032L82.829,58.984L55.219,26.818L27.61,58.625L27.61,92.032L41.415,92.032L41.415,78.227C41.415,75.687,43.476,73.626,46.016,73.626L64.423,73.626C66.963,73.626,69.024,75.687,69.024,78.227ZM92.032,37.241L78.227,23.436L78.227,18.406C78.227,15.866,80.289,13.805,82.829,13.805L87.431,13.805C89.971,13.805,92.032,15.866,92.032,18.406ZM92.032,37.241"/>
</g>
  <g id="Regular-M" transform="matrix(1.0,0.0,0.0,1.0,1395.9105948765673,1035.6610532180644)">  <path stroke-dasharray="none" stroke-opacity="1" stroke-miterlimit="4" stroke-linecap="butt" fill="#000000" stroke="none" fill-rule="nonzero" stroke-width="1px" stroke-linejoin="miter" fill-opacity="1" d="M92.032,64.423L92.032,96.634C92.032,99.174,89.971,101.236,87.431,101.236L59.821,101.236L59.821,82.829L50.618,82.829L50.618,101.236L23.008,101.236C20.468,101.236,18.406,99.174,18.406,96.634L18.406,64.423C14.753,64.423,12.756,60.162,15.093,57.355L51.685,13.446C53.526,11.237,56.913,11.237,58.753,13.446L95.346,57.355C97.683,60.162,95.686,64.423,92.032,64.423ZM69.024,92.032L82.829,92.032L82.829,58.984L55.219,26.818L27.61,58.625L27.61,92.032L41.415,92.032L41.415,78.227C41.415,75.687,43.476,73.626,46.016,73.626L64.423,73.626C66.963,73.626,69.024,75.687,69.024,78.227ZM92.032,37.241L78.227,23.436L78.227,18.406C78.227,15.866,80.289,13.805,82.829,13.805L87.431,13.805C89.971,13.805,92.032,15.866,92.032,18.406ZM92.032,37.241"/>
</g>
  <g id="Light-M" transform="matrix(1.0,0.0,0.0,1.0,1099.2005948765675,1035.6610532180644)">  <path stroke-miterlimit="4" stroke-width="1px" stroke-linecap="butt" fill-opacity="1" fill-rule="nonzero" stroke="none" stroke-dasharray="none" stroke-linejoin="miter" fill="#000000" stroke-opacity="1" d="M92.032,64.423L92.032,96.634C92.032,99.174,89.971,101.236,87.431,101.236L59.821,101.236L59.821,82.829L50.618,82.829L50.618,101.236L23.008,101.236C20.468,101.236,18.406,99.174,18.406,96.634L18.406,64.423C14.753,64.423,12.756,60.162,15.093,57.355L51.685,13.446C53.526,11.237,56.913,11.237,58.753,13.446L95.346,57.355C97.683,60.162,95.686,64.423,92.032,64.423ZM69.024,92.032L82.829,92.032L82.829,58.984L55.219,26.818L27.61,58.625L27.61,92.032L41.415,92.032L41.415,78.227C41.415,75.687,43.476,73.626,46.016,73.626L64.423,73.626C66.963,73.626,69.024,75.687,69.024,78.227ZM92.032,37.241L78.227,23.436L78.227,18.406C78.227,15.866,80.289,13.805,82.829,13.805L87.431,13.805C89.971,13.805,92.032,15.866,92.032,18.406ZM92.032,37.241"/>
</g>
  <g id="Thin-M" transform="matrix(1.0,0.0,0.0,1.0,802.4905948765675,1035.6610532180644)">  <path stroke-miterlimit="4" fill-rule="nonzero" stroke-linejoin="miter" stroke-dasharray="none" stroke-linecap="butt" stroke-opacity="1" fill-opacity="1" stroke="none" stroke-width="1px" fill="#000000" d="M92.032,64.423L92.032,96.634C92.032,99.174,89.971,101.236,87.431,101.236L59.821,101.236L59.821,82.829L50.618,82.829L50.618,101.236L23.008,101.236C20.468,101.236,18.406,99.174,18.406,96.634L18.406,64.423C14.753,64.423,12.756,60.162,15.093,57.355L51.685,13.446C53.526,11.237,56.913,11.237,58.753,13.446L95.346,57.355C97.683,60.162,95.686,64.423,92.032,64.423ZM69.024,92.032L82.829,92.032L82.829,58.984L55.219,26.818L27.61,58.625L27.61,92.032L41.415,92.032L41.415,78.227C41.415,75.687,43.476,73.626,46.016,73.626L64.423,73.626C66.963,73.626,69.024,75.687,69.024,78.227ZM92.032,37.241L78.227,23.436L78.227,18.406C78.227,15.866,80.289,13.805,82.829,13.805L87.431,13.805C89.971,13.805,92.032,15.866,92.032,18.406ZM92.032,37.241"/>
</g>
  <g id="Ultralight-M" transform="matrix(1.0,0.0,0.0,1.0,505.7805948765674,1035.6610532180644)">  <path stroke-opacity="1" fill-opacity="1" fill-rule="nonzero" stroke-miterlimit="4" stroke-dasharray="none" fill="#000000" stroke-linecap="butt" stroke-width="1px" stroke="none" stroke-linejoin="miter" d="M92.032,64.423L92.032,96.634C92.032,99.174,89.971,101.236,87.431,101.236L59.821,101.236L59.821,82.829L50.618,82.829L50.618,101.236L23.008,101.236C20.468,101.236,18.406,99.174,18.406,96.634L18.406,64.423C14.753,64.423,12.756,60.162,15.093,57.355L51.685,13.446C53.526,11.237,56.913,11.237,58.753,13.446L95.346,57.355C97.683,60.162,95.686,64.423,92.032,64.423ZM69.024,92.032L82.829,92.032L82.829,58.984L55.219,26.818L27.61,58.625L27.61,92.032L41.415,92.032L41.415,78.227C41.415,75.687,43.476,73.626,46.016,73.626L64.423,73.626C66.963,73.626,69.024,75.687,69.024,78.227ZM92.032,37.241L78.227,23.436L78.227,18.406C78.227,15.866,80.289,13.805,82.829,13.805L87.431,13.805C89.971,13.805,92.032,15.866,92.032,18.406ZM92.032,37.241"/>
</g>
  <g id="Black-S" transform="matrix(1.0,0.0,0.0,1.0,2891.4432057883523,617.6196989080256)">  <path stroke-linejoin="miter" stroke-linecap="butt" fill-opacity="1" stroke="none" stroke-opacity="1" stroke-miterlimit="4" fill="#000000" stroke-dasharray="none" fill-rule="nonzero" stroke-width="1px" d="M72.061,50.443L72.061,75.664C72.061,77.653,70.447,79.267,68.458,79.267L46.84,79.267L46.84,64.855L39.634,64.855L39.634,79.267L18.015,79.267C16.026,79.267,14.412,77.653,14.412,75.664L14.412,50.443C11.551,50.443,9.988,47.106,11.818,44.909L40.47,10.528C41.911,8.799,44.563,8.799,46.004,10.528L74.656,44.909C76.486,47.106,74.922,50.443,72.061,50.443ZM54.046,72.061L64.855,72.061L64.855,46.184L43.237,20.999L21.618,45.903L21.618,72.061L32.428,72.061L32.428,61.252C32.428,59.263,34.042,57.649,36.031,57.649L50.443,57.649C52.432,57.649,54.046,59.263,54.046,61.252ZM72.061,29.16L61.252,18.35L61.252,14.412C61.252,12.423,62.866,10.809,64.855,10.809L68.458,10.809C70.447,10.809,72.061,12.423,72.061,14.412ZM72.061,29.16"/>
</g>
  <g id="Heavy-S" transform="matrix(1.0,0.0,0.0,1.0,2594.7332057883523,617.6196989080256)">  <path stroke-linecap="butt" stroke-dasharray="none" fill-opacity="1" fill-rule="nonzero" fill="#000000" stroke-linejoin="miter" stroke="none" stroke-width="1px" stroke-miterlimit="4" stroke-opacity="1" d="M72.061,50.443L72.061,75.664C72.061,77.653,70.447,79.267,68.458,79.267L46.84,79.267L46.84,64.855L39.634,64.855L39.634,79.267L18.015,79.267C16.026,79.267,14.412,77.653,14.412,75.664L14.412,50.443C11.551,50.443,9.988,47.106,11.818,44.909L40.47,10.528C41.911,8.799,44.563,8.799,46.004,10.528L74.656,44.909C76.486,47.106,74.922,50.443,72.061,50.443ZM54.046,72.061L64.855,72.061L64.855,46.184L43.237,20.999L21.618,45.903L21.618,72.061L32.428,72.061L32.428,61.252C32.428,59.263,34.042,57.649,36.031,57.649L50.443,57.649C52.432,57.649,54.046,59.263,54.046,61.252ZM72.061,29.16L61.252,18.35L61.252,14.412C61.252,12.423,62.866,10.809,64.855,10.809L68.458,10.809C70.447,10.809,72.061,12.423,72.061,14.412ZM72.061,29.16"/>
</g>
  <g id="Bold-S" transform="matrix(1.0,0.0,0.0,1.0,2298.0232057883522,617.6196989080256)">  <path stroke-linejoin="miter" stroke-opacity="1" fill="#000000" stroke-width="1px" stroke="none" fill-opacity="1" stroke-linecap="butt" stroke-dasharray="none" fill-rule="nonzero" stroke-miterlimit="4" d="M72.061,50.443L72.061,75.664C72.061,77.653,70.447,79.267,68.458,79.267L46.84,79.267L46.84,64.855L39.634,64.855L39.634,79.267L18.015,79.267C16.026,79.267,14.412,77.653,14.412,75.664L14.412,50.443C11.551,50.443,9.988,47.106,11.818,44.909L40.47,10.528C41.911,8.799,44.563,8.799,46.004,10.528L74.656,44.909C76.486,47.106,74.922,50.443,72.061,50.443ZM54.046,72.061L64.855,72.061L64.855,46.184L43.237,20.999L21.618,45.903L21.618,72.061L32.428,72.061L32.428,61.252C32.428,59.263,34.042,57.649,36.031,57.649L50.443,57.649C52.432,57.649,54.046,59.263,54.046,61.252ZM72.061,29.16L61.252,18.35L61.252,14.412C61.252,12.423,62.866,10.809,64.855,10.809L68.458,10.809C70.447,10.809,72.061,12.423,72.061,14.412ZM72.061,29.16"/>
</g>
  <g id="Semibold-S" transform="matrix(1.0,0.0,0.0,1.0,2001.3132057883522,617.6196989080256)">  <path stroke-linecap="butt" fill-rule="nonzero" fill-opacity="1" stroke="none" stroke-linejoin="miter" stroke-opacity="1" stroke-width="1px" fill="#000000" stroke-dasharray="none" stroke-miterlimit="4" d="M72.061,50.443L72.061,75.664C72.061,77.653,70.447,79.267,68.458,79.267L46.84,79.267L46.84,64.855L39.634,64.855L39.634,79.267L18.015,79.267C16.026,79.267,14.412,77.653,14.412,75.664L14.412,50.443C11.551,50.443,9.988,47.106,11.818,44.909L40.47,10.528C41.911,8.799,44.563,8.799,46.004,10.528L74.656,44.909C76.486,47.106,74.922,50.443,72.061,50.443ZM54.046,72.061L64.855,72.061L64.855,46.184L43.237,20.999L21.618,45.903L21.618,72.061L32.428,72.061L32.428,61.252C32.428,59.263,34.042,57.649,36.031,57.649L50.443,57.649C52.432,57.649,54.046,59.263,54.046,61.252ZM72.061,29.16L61.252,18.35L61.252,14.412C61.252,12.423,62.866,10.809,64.855,10.809L68.458,10.809C70.447,10.809,72.061,12.423,72.061,14.412ZM72.061,29.16"/>
</g>
  <g id="Medium-S" transform="matrix(1.0,0.0,0.0,1.0,1704.6032057883522,617.6196989080256)">  <path stroke-dasharray="none" fill-rule="nonzero" stroke-opacity="1" stroke-miterlimit="4" fill="#000000" stroke-linejoin="miter" stroke="none" stroke-linecap="butt" stroke-width="1px" fill-opacity="1" d="M72.061,50.443L72.061,75.664C72.061,77.653,70.447,79.267,68.458,79.267L46.84,79.267L46.84,64.855L39.634,64.855L39.634,79.267L18.015,79.267C16.026,79.267,14.412,77.653,14.412,75.664L14.412,50.443C11.551,50.443,9.988,47.106,11.818,44.909L40.47,10.528C41.911,8.799,44.563,8.799,46.004,10.528L74.656,44.909C76.486,47.106,74.922,50.443,72.061,50.443ZM54.046,72.061L64.855,72.061L64.855,46.184L43.237,20.999L21.618,45.903L21.618,72.061L32.428,72.061L32.428,61.252C32.428,59.263,34.042,57.649,36.031,57.649L50.443,57.649C52.432,57.649,54.046,59.263,54.046,61.252ZM72.061,29.16L61.252,18.35L61.252,14.412C61.252,12.423,62.866,10.809,64.855,10.809L68.458,10.809C70.447,10.809,72.061,12.423,72.061,14.412ZM72.061,29.16"/>
</g>
  <g id="Regular-S" transform="matrix(1.0,0.0,0.0,1.0,1407.8932057883521,617.6196989080256)">  <path stroke-dasharray="none" stroke-opacity="1" stroke-miterlimit="4" stroke-linecap="butt" fill="#000000" stroke="none" fill-rule="nonzero" stroke-width="1px" stroke-linejoin="miter" fill-opacity="1" d="M72.061,50.443L72.061,75.664C72.061,77.653,70.447,79.267,68.458,79.267L46.84,79.267L46.84,64.855L39.634,64.855L39.634,79.267L18.015,79.267C16.026,79.267,14.412,77.653,14.412,75.664L14.412,50.443C11.551,50.443,9.988,47.106,11.818,44.909L40.47,10.528C41.911,8.799,44.563,8.799,46.004,10.528L74.656,44.909C76.486,47.106,74.922,50.443,72.061,50.443ZM54.046,72.061L64.855,72.061L64.855,46.184L43.237,20.999L21.618,45.903L21.618,72.061L32.428,72.061L32.428,61.252C32.428,59.263,34.042,57.649,36.031,57.649L50.443,57.649C52.432,57.649,54.046,59.263,54.046,61.252ZM72.061,29.16L61.252,18.35L61.252,14.412C61.252,12.423,62.866,10.809,64.855,10.809L68.458,10.809C70.447,10.809,72.061,12.423,72.061,14.412ZM72.061,29.16"/>
</g>
  <g id="Light-S" transform="matrix(1.0,0.0,0.0,1.0,1111.1832057883523,617.6196989080256)">  <path stroke-miterlimit="4" stroke-width="1px" stroke-linecap="butt" fill-opacity="1" fill-rule="nonzero" stroke="none" stroke-dasharray="none" stroke-linejoin="miter" fill="#000000" stroke-opacity="1" d="M72.061,50.443L72.061,75.664C72.061,77.653,70.447,79.267,68.458,79.267L46.84,79.267L46.84,64.855L39.634,64.855L39.634,79.267L18.015,79.267C16.026,79.267,14.412,77.653,14.412,75.664L14.412,50.443C11.551,50.443,9.988,47.106,11.818,44.909L40.47,10.528C41.911,8.799,44.563,8.799,46.004,10.528L74.656,44.909C76.486,47.106,74.922,50.443,72.061,50.443ZM54.046,72.061L64.855,72.061L64.855,46.184L43.237,20.999L21.618,45.903L21.618,72.061L32.428,72.061L32.428,61.252C32.428,59.263,34.042,57.649,36.031,57.649L50.443,57.649C52.432,57.649,54.046,59.263,54.046,61.252ZM72.061,29.16L61.252,18.35L61.252,14.412C61.252,12.423,62.866,10.809,64.855,10.809L68.458,10.809C70.447,10.809,72.061,12.423,72.061,14.412ZM72.061,29.16"/>
</g>
  <g id="Thin-S" transform="matrix(1.0,0.0,0.0,1.0,814.4732057883523,617.6196989080256)">  <path stroke-miterlimit="4" fill-rule="nonzero" stroke-linejoin="miter" stroke-dasharray="none" stroke-linecap="butt" stroke-opacity="1" fill-opacity="1" stroke="none" stroke-width="1px" fill="#000000" d="M72.061,50.443L72.061,75.664C72.061,77.653,70.447,79.267,68.458,79.267L46.84,79.267L46.84,64.855L39.634,64.855L39.634,79.267L18.015,79.267C16.026,79.267,14.412,77.653,14.412,75.664L14.412,50.443C11.551,50.443,9.988,47.106,11.818,44.909L40.47,10.528C41.911,8.799,44.563,8.799,46.004,10.528L74.656,44.909C76.486,47.106,74.922,50.443,72.061,50.443ZM54.046,72.061L64.855,72.061L64.855,46.184L43.237,20.999L21.618,45.903L21.618,72.061L32.428,72.061L32.428,61.252C32.428,59.263,34.042,57.649,36.031,57.649L50.443,57.649C52.432,57.649,54.046,59.263,54.046,61.252ZM72.061,29.16L61.252,18.35L61.252,14.412C61.252,12.423,62.866,10.809,64.855,10.809L68.458,10.809C70.447,10.809,72.061,12.423,72.061,14.412ZM72.061,29.16"/>
</g>
  <g id="Ultralight-S" transform="matrix(1.0,0.0,0.0,1.0,517.7632057883523,617.6196989080256)">  <path stroke-opacity="1" fill-opacity="1" fill-rule="nonzero" stroke-miterlimit="4" stroke-dasharray="none" fill="#000000" stroke-linecap="butt" stroke-width="1px" stroke="none" stroke-linejoin="miter" d="M72.061,50.443L72.061,75.664C72.061,77.653,70.447,79.267,68.458,79.267L46.84,79.267L46.84,64.855L39.634,64.855L39.634,79.267L18.015,79.267C16.026,79.267,14.412,77.653,14.412,75.664L14.412,50.443C11.551,50.443,9.988,47.106,11.818,44.909L40.47,10.528C41.911,8.799,44.563,8.799,46.004,10.528L74.656,44.909C76.486,47.106,74.922,50.443,72.061,50.443ZM54.046,72.061L64.855,72.061L64.855,46.184L43.237,20.999L21.618,45.903L21.618,72.061L32.428,72.061L32.428,61.252C32.428,59.263,34.042,57.649,36.031,57.649L50.443,57.649C52.432,57.649,54.046,59.263,54.046,61.252ZM72.061,29.16L61.252,18.35L61.252,14.412C61.252,12.423,62.866,10.809,64.855,10.809L68.458,10.809C70.447,10.809,72.061,12.423,72.061,14.412ZM72.061,29.16"/>
</g>
 </g>
</svg>
