<?xml version="1.0" encoding="UTF-8"?>
<!-- Generator: CustomSymbols v2.6.1.40 by @serious_bret https://bretlester.com/app_content/CustomSymbols/ -->
<!-- Guides: Left/Right 0.079/0.081 Cap/Base 0.193/0.169 -->
<!-- Settings: RefScale 1.0 Min/Max Stroke Scales 0.5/2.21 -->
<!DOCTYPE svg
PUBLIC "-//W3C//DTD SVG 1.1//EN"
       "http://www.w3.org/Graphics/SVG/1.1/DTD/svg11.dtd">
<svg version="1.1" xmlns="http://www.w3.org/2000/svg" xmlns:xlink="http://www.w3.org/1999/xlink" width="3300" height="2200">
<![CDATA[<svg width="24" height="24" viewBox="0 0 24 24" fill="none" xmlns="http://www.w3.org/2000/svg">
<path fill-rule="evenodd" clip-rule="evenodd" d="M12.1812 7H10.9563V8.17625C10.9551 8.18817 10.9517 8.19932 10.9482 8.2104C10.9441 8.22371 10.94 8.23692 10.94 8.25125C10.94 8.26639 10.9442 8.27964 10.9483 8.29287C10.9517 8.30367 10.9551 8.31446 10.9563 8.32625V9.5H12.165C12.1711 9.50056 12.177 9.50235 12.183 9.50417C12.1904 9.50644 12.1979 9.50875 12.2062 9.50875C12.2135 9.50875 12.2205 9.50665 12.2276 9.50449C12.2339 9.50256 12.2404 9.50059 12.2475 9.5H13.4562V8.3275C13.4568 8.31511 13.4602 8.30356 13.4636 8.29192C13.4674 8.2789 13.4712 8.26577 13.4712 8.25125C13.4712 8.23772 13.4676 8.22519 13.4639 8.21245C13.4604 8.20048 13.4569 8.18833 13.4562 8.175V7H12.2312C12.2269 7 12.2228 6.99875 12.2188 6.9975C12.2147 6.99625 12.2106 6.995 12.2062 6.995C12.2019 6.995 12.1978 6.99625 12.1938 6.9975C12.1897 6.99875 12.1856 7 12.1812 7ZM10.1812 17.0075H14.23C14.4963 17.0075 14.7125 16.7562 14.7125 16.4475C14.7125 16.1388 14.4963 15.8875 14.23 15.8875L13.4562 15.75V10.75C13.4562 10.7045 13.4602 10.6856 13.4637 10.6688C13.4641 10.6667 13.4646 10.6646 13.465 10.6625C13.4513 10.695 13.42 10.735 13.3237 10.735H10.1812C9.915 10.735 9.7 10.9862 9.7 11.295C9.7 11.6038 9.915 11.855 10.1812 11.855L10.9563 12V15.75L10.1812 15.8875C9.915 15.8875 9.7 16.1388 9.7 16.4475C9.7 16.7562 9.915 17.0075 10.1812 17.0075ZM12 2C6.47625 2 2 6.4775 2 12C2 17.5225 6.47625 22 12 22C17.5225 22 22 17.5225 22 12C22 6.4775 17.5225 2 12 2Z" fill="black"/>
</svg>
]]>
 <g id="Notes">
  <rect height="2200" id="artboard" style="fill:white;opacity:1" width="3300" x="0" y="0"/>
  <line id="" style="fill:none;stroke:black;opacity:1;stroke-width:0.5;" x1="263" x2="3036" y1="292" y2="292"/>
  <text id="reftext1" style="stroke:none;fill:black;font-family:-apple-system,&quot;SF Pro Display&quot;,&quot;SF Pro Text&quot;,Helvetica,sans-serif;font-weight:bold;" transform="matrix(1 0 0 1 263 322)">Weight/Scale Variations</text>
  <text id="reftext2" style="stroke:none;fill:black;font-family:-apple-system,&quot;SF Pro Display&quot;,&quot;SF Pro Text&quot;,Helvetica,sans-serif;text-anchor:middle;" transform="matrix(1 0 0 1 559.711 322)">Ultralight</text>
  <text style="stroke:none;fill:black;font-family:-apple-system,&quot;SF Pro Display&quot;,&quot;SF Pro Text&quot;,Helvetica,sans-serif;text-anchor:middle;" transform="matrix(1 0 0 1 856.422 322)">Thin</text>
  <text style="stroke:none;fill:black;font-family:-apple-system,&quot;SF Pro Display&quot;,&quot;SF Pro Text&quot;,Helvetica,sans-serif;text-anchor:middle;" transform="matrix(1 0 0 1 1153.13 322)">Light</text>
  <text style="stroke:none;fill:black;font-family:-apple-system,&quot;SF Pro Display&quot;,&quot;SF Pro Text&quot;,Helvetica,sans-serif;text-anchor:middle;" transform="matrix(1 0 0 1 1449.84 322)">Regular</text>
  <text style="stroke:none;fill:black;font-family:-apple-system,&quot;SF Pro Display&quot;,&quot;SF Pro Text&quot;,Helvetica,sans-serif;text-anchor:middle;" transform="matrix(1 0 0 1 1746.56 322)">Medium</text>
  <text style="stroke:none;fill:black;font-family:-apple-system,&quot;SF Pro Display&quot;,&quot;SF Pro Text&quot;,Helvetica,sans-serif;text-anchor:middle;" transform="matrix(1 0 0 1 2043.27 322)">Semibold</text>
  <text style="stroke:none;fill:black;font-family:-apple-system,&quot;SF Pro Display&quot;,&quot;SF Pro Text&quot;,Helvetica,sans-serif;text-anchor:middle;" transform="matrix(1 0 0 1 2339.98 322)">Bold</text>
  <text style="stroke:none;fill:black;font-family:-apple-system,&quot;SF Pro Display&quot;,&quot;SF Pro Text&quot;,Helvetica,sans-serif;text-anchor:middle;" transform="matrix(1 0 0 1 2636.69 322)">Heavy</text>
  <text style="stroke:none;fill:black;font-family:-apple-system,&quot;SF Pro Display&quot;,&quot;SF Pro Text&quot;,Helvetica,sans-serif;text-anchor:middle;" transform="matrix(1 0 0 1 2933.4 322)">Black</text>
  <line id="" style="fill:none;stroke:black;opacity:1;stroke-width:0.5;" x1="263" x2="3036" y1="1903" y2="1903"/>
  <g id="" transform="matrix(1 0 0 1 263 1933)">
   <path d="M9.24805 0.830078C13.5547 0.830078 17.1387-2.74414 17.1387-7.05078C17.1387-11.3574 13.5449-14.9316 9.23828-14.9316C4.94141-14.9316 1.36719-11.3574 1.36719-7.05078C1.36719-2.74414 4.95117 0.830078 9.24805 0.830078ZM9.24805-0.654297C5.70312-0.654297 2.87109-3.49609 2.87109-7.05078C2.87109-10.6055 5.69336-13.4473 9.23828-13.4473C12.793-13.4473 15.6348-10.6055 15.6445-7.05078C15.6543-3.49609 12.8027-0.654297 9.24805-0.654297ZM6.39648-6.31836L8.50586-6.31836L8.50586-4.19922C8.50586-3.75977 8.79883-3.45703 9.22852-3.45703C9.67773-3.45703 9.9707-3.75977 9.9707-4.19922L9.9707-6.31836L12.0996-6.31836C12.5391-6.31836 12.8418-6.61133 12.8418-7.04102C12.8418-7.48047 12.5391-7.7832 12.0996-7.7832L9.9707-7.7832L9.9707-9.89258C9.9707-10.3418 9.67773-10.6445 9.22852-10.6445C8.79883-10.6445 8.50586-10.3418 8.50586-9.89258L8.50586-7.7832L6.39648-7.7832C5.94727-7.7832 5.64453-7.48047 5.64453-7.04102C5.64453-6.61133 5.94727-6.31836 6.39648-6.31836Z"/>
  </g>
  <g id="" transform="matrix(1 0 0 1 281.506 1933)">
   <path d="M11.709 2.91016C17.1582 2.91016 21.6699-1.61133 21.6699-7.05078C21.6699-12.5 17.1484-17.0117 11.6992-17.0117C6.25977-17.0117 1.74805-12.5 1.74805-7.05078C1.74805-1.61133 6.26953 2.91016 11.709 2.91016ZM11.709 1.25C7.09961 1.25 3.41797-2.44141 3.41797-7.05078C3.41797-11.6602 7.08984-15.3516 11.6992-15.3516C16.3086-15.3516 20-11.6602 20.0098-7.05078C20.0195-2.44141 16.3184 1.25 11.709 1.25ZM7.98828-6.23047L10.8789-6.23047L10.8789-3.32031C10.8789-2.83203 11.2109-2.5 11.6895-2.5C12.1777-2.5 12.5195-2.83203 12.5195-3.32031L12.5195-6.23047L15.4297-6.23047C15.918-6.23047 16.25-6.5625 16.25-7.04102C16.25-7.5293 15.918-7.87109 15.4297-7.87109L12.5195-7.87109L12.5195-10.7617C12.5195-11.2695 12.1777-11.6016 11.6895-11.6016C11.2109-11.6016 10.8789-11.2598 10.8789-10.7617L10.8789-7.87109L7.98828-7.87109C7.48047-7.87109 7.14844-7.5293 7.14844-7.04102C7.14844-6.5625 7.49023-6.23047 7.98828-6.23047Z"/>
  </g>
  <g id="" transform="matrix(1 0 0 1 304.924 1933)">
   <path d="M14.9707 5.66406C21.9336 5.66406 27.6953-0.0976562 27.6953-7.05078C27.6953-14.0137 21.9238-19.7754 14.9609-19.7754C8.00781-19.7754 2.25586-14.0137 2.25586-7.05078C2.25586-0.0976562 8.01758 5.66406 14.9707 5.66406ZM14.9707 3.84766C8.93555 3.84766 4.08203-1.01562 4.08203-7.05078C4.08203-13.0957 8.92578-17.9492 14.9609-17.9492C21.0059-17.9492 25.8594-13.0957 25.8691-7.05078C25.8789-1.01562 21.0156 3.84766 14.9707 3.84766ZM10.0586-6.14258L14.0625-6.14258L14.0625-2.12891C14.0625-1.5918 14.4336-1.2207 14.9512-1.2207C15.4883-1.2207 15.8594-1.5918 15.8594-2.12891L15.8594-6.14258L19.8828-6.14258C20.4102-6.14258 20.791-6.51367 20.791-7.03125C20.791-7.56836 20.4199-7.94922 19.8828-7.94922L15.8594-7.94922L15.8594-11.9531C15.8594-12.5098 15.4883-12.8809 14.9512-12.8809C14.4336-12.8809 14.0625-12.5 14.0625-11.9531L14.0625-7.94922L10.0586-7.94922C9.50195-7.94922 9.13086-7.56836 9.13086-7.03125C9.13086-6.51367 9.51172-6.14258 10.0586-6.14258Z"/>
  </g>
  <text style="stroke:none;fill:black;font-family:-apple-system,&quot;SF Pro Display&quot;,&quot;SF Pro Text&quot;,Helvetica,sans-serif;font-weight:bold;" transform="matrix(1 0 0 1 263 1953)">Design Variations</text>
  <text style="stroke:none;fill:black;font-family:-apple-system,&quot;SF Pro Display&quot;,&quot;SF Pro Text&quot;,Helvetica,sans-serif;" transform="matrix(1 0 0 1 263 1971)">Symbols are supported in up to nine weights and three scales.</text>
  <text style="stroke:none;fill:black;font-family:-apple-system,&quot;SF Pro Display&quot;,&quot;SF Pro Text&quot;,Helvetica,sans-serif;" transform="matrix(1 0 0 1 263 1989)">For optimal layout with text and other symbols, vertically align</text>
  <text style="stroke:none;fill:black;font-family:-apple-system,&quot;SF Pro Display&quot;,&quot;SF Pro Text&quot;,Helvetica,sans-serif;" transform="matrix(1 0 0 1 263 2007)">symbols with the adjacent text.</text>
  <line id="" style="fill:none;stroke:#00AEEF;stroke-width:0.5;opacity:1.0;" x1="776" x2="776" y1="1919" y2="1933"/>
  <g id="" transform="matrix(1 0 0 1 776 1933)">
   <path d="M3.31055 0.126953C3.82812 0.126953 4.08203-0.0683594 4.26758-0.605469L5.52734-4.0625L11.2891-4.0625L12.5488-0.605469C12.7344-0.0683594 12.9883 0.126953 13.4961 0.126953C14.0137 0.126953 14.3457-0.185547 14.3457-0.673828C14.3457-0.839844 14.3164-0.986328 14.2383-1.20117L9.6582-13.3887C9.43359-13.9941 9.0332-14.2871 8.4082-14.2871C7.80273-14.2871 7.39258-13.9941 7.17773-13.3984L2.59766-1.19141C2.51953-0.976562 2.49023-0.830078 2.49023-0.664062C2.49023-0.175781 2.80273 0.126953 3.31055 0.126953ZM6.00586-5.53711L8.37891-12.1094L8.42773-12.1094L10.8008-5.53711Z"/>
  </g>
  <line id="" style="fill:none;stroke:#00AEEF;stroke-width:0.5;opacity:1.0;" x1="792.836" x2="792.836" y1="1919" y2="1933"/>
  <text style="stroke:none;fill:black;font-family:-apple-system,&quot;SF Pro Display&quot;,&quot;SF Pro Text&quot;,Helvetica,sans-serif;font-weight:bold;" transform="matrix(1 0 0 1 776 1953)">Margins</text>
  <text style="stroke:none;fill:black;font-family:-apple-system,&quot;SF Pro Display&quot;,&quot;SF Pro Text&quot;,Helvetica,sans-serif;" transform="matrix(1 0 0 1 776 1971)">Leading and trailing margins on the left and right side of each symbol</text>
  <text style="stroke:none;fill:black;font-family:-apple-system,&quot;SF Pro Display&quot;,&quot;SF Pro Text&quot;,Helvetica,sans-serif;" transform="matrix(1 0 0 1 776 1989)">can be adjusted by modifying the x-location of the margin guidelines.</text>
  <text style="stroke:none;fill:black;font-family:-apple-system,&quot;SF Pro Display&quot;,&quot;SF Pro Text&quot;,Helvetica,sans-serif;" transform="matrix(1 0 0 1 776 2007)">Modifications are automatically applied proportionally to all</text>
  <text style="stroke:none;fill:black;font-family:-apple-system,&quot;SF Pro Display&quot;,&quot;SF Pro Text&quot;,Helvetica,sans-serif;" transform="matrix(1 0 0 1 776 2025)">scales and weights.</text>
  <g id="" transform="matrix(1 0 0 1 1289 1933)">
   <path d="M2.8418 1.86523L4.54102 3.57422C5.40039 4.44336 6.38672 4.38477 7.31445 3.35938L17.4902-7.85156C17.7539-7.76367 18.0273-7.7832 18.3398-7.8418L19.4043-8.03711L20.0684-7.36328L20.0293-6.80664C19.9902-6.30859 20.1172-5.92773 20.6055-5.44922L21.3672-4.70703C21.8457-4.22852 22.4609-4.19922 22.9297-4.66797L25.8398-7.58789C26.3086-8.05664 26.2891-8.65234 25.8105-9.13086L25.0391-9.89258C24.5605-10.3711 24.1895-10.5273 23.7109-10.4883L23.1348-10.4395L22.4902-11.0742L22.7344-12.1973C22.8613-12.7637 22.7051-13.2031 22.1191-13.7891L19.9219-15.9766C16.582-19.2969 12.1484-19.2188 9.25781-16.3281C8.83789-15.918 8.80859-15.3418 9.04297-14.9512C9.27734-14.5898 9.73633-14.3555 10.3809-14.5215C11.8457-14.8633 13.3691-14.9219 14.7949-13.9844L14.209-12.5293C14.0137-12.0508 13.9844-11.6504 14.1113-11.2891L3.04688-0.898438C2.06055 0.0195312 1.98242 0.996094 2.8418 1.86523ZM10.752-15.957C13.1836-17.7344 16.4746-17.4316 18.7012-15.2051L21.1328-12.793C21.3672-12.5586 21.4062-12.373 21.3379-12.0312L21.0156-10.5469L22.5195-9.0625L23.5059-9.12109C23.7598-9.13086 23.8379-9.11133 24.0332-8.91602L24.6094-8.33984L22.168-5.89844L21.5918-6.47461C21.3965-6.66992 21.3672-6.74805 21.377-7.01172L21.4453-7.98828L19.9512-9.47266L18.4277-9.21875C18.1055-9.15039 17.959-9.17969 17.7148-9.41406L15.7129-11.416C15.459-11.6504 15.4297-11.8164 15.5859-12.1875L16.4648-14.2773C14.9023-15.7324 12.8711-16.3574 10.8398-15.7617C10.6836-15.7227 10.625-15.8496 10.752-15.957ZM5.27344 2.30469L4.10156 1.14258C3.63281 0.683594 3.74023 0.341797 4.14062-0.0195312L14.9512-10.1953L16.416-8.71094L6.42578 2.27539C6.07422 2.67578 5.74219 2.77344 5.27344 2.30469Z"/>
  </g>
  <text style="stroke:none;fill:black;font-family:-apple-system,&quot;SF Pro Display&quot;,&quot;SF Pro Text&quot;,Helvetica,sans-serif;font-weight:bold;" transform="matrix(1 0 0 1 1289 1953)">Exporting</text>
  <text style="stroke:none;fill:black;font-family:-apple-system,&quot;SF Pro Display&quot;,&quot;SF Pro Text&quot;,Helvetica,sans-serif;" transform="matrix(1 0 0 1 1289 1971)">Symbols should be outlined when exporting to ensure the</text>
  <text style="stroke:none;fill:black;font-family:-apple-system,&quot;SF Pro Display&quot;,&quot;SF Pro Text&quot;,Helvetica,sans-serif;" transform="matrix(1 0 0 1 1289 1989)">design is preserved when submitting to Xcode.</text>
  <text id="template-version" style="stroke:none;fill:black;font-family:-apple-system,&quot;SF Pro Display&quot;,&quot;SF Pro Text&quot;,Helvetica,sans-serif;text-anchor:end;" transform="matrix(1 0 0 1 3036 1933)">Template v.2.0</text>
  <text style="stroke:none;fill:black;font-family:-apple-system,&quot;SF Pro Display&quot;,&quot;SF Pro Text&quot;,Helvetica,sans-serif;text-anchor:end;" transform="matrix(1 0 0 1 3036 1951)">Requires Xcode 12 or greater</text>
  <text style="stroke:none;fill:black;font-family:-apple-system,&quot;SF Pro Display&quot;,&quot;SF Pro Text&quot;,Helvetica,sans-serif;" transform="matrix(1 0 0 1 263 726)">Small</text>
  <text style="stroke:none;fill:black;font-family:-apple-system,&quot;SF Pro Display&quot;,&quot;SF Pro Text&quot;,Helvetica,sans-serif;" transform="matrix(1 0 0 1 263 1156)">Medium</text>
  <text style="stroke:none;fill:black;font-family:-apple-system,&quot;SF Pro Display&quot;,&quot;SF Pro Text&quot;,Helvetica,sans-serif;" transform="matrix(1 0 0 1 263 1586)">Large</text>
 </g>
 <g id="Guides">
  <g id="H-reference" style="fill:#27AAE1;stroke:none;" transform="matrix(1 0 0 1 339 696)">
   <path d="M0.976562 0L3.66211 0L12.9883-24.4629L45.752-24.4629L55.127 0L57.7637 0L30.6152-70.459L28.125-70.459ZM29.3457-67.1387L29.4434-67.1387L44.873-26.709L13.8672-26.709Z"/>
  </g>
  <line id="Baseline-S" style="fill:none;stroke:#27AAE1;opacity:1;stroke-width:0.5;" x1="263" x2="3036" y1="696" y2="696"/>
  <line id="Capline-S" style="fill:none;stroke:#27AAE1;opacity:1;stroke-width:0.5;" x1="263" x2="3036" y1="625.541" y2="625.541"/>
  <g id="H-reference" style="fill:#27AAE1;stroke:none;" transform="matrix(1 0 0 1 339 1126)">
   <path d="M0.976562 0L3.66211 0L12.9883-24.4629L45.752-24.4629L55.127 0L57.7637 0L30.6152-70.459L28.125-70.459ZM29.3457-67.1387L29.4434-67.1387L44.873-26.709L13.8672-26.709Z"/>
  </g>
  <line id="Baseline-M" style="fill:none;stroke:#27AAE1;opacity:1;stroke-width:0.5;" x1="263" x2="3036" y1="1126" y2="1126"/>
  <line id="Capline-M" style="fill:none;stroke:#27AAE1;opacity:1;stroke-width:0.5;" x1="263" x2="3036" y1="1055.54" y2="1055.54"/>
  <g id="H-reference" style="fill:#27AAE1;stroke:none;" transform="matrix(1 0 0 1 339 1556)">
   <path d="M0.976562 0L3.66211 0L12.9883-24.4629L45.752-24.4629L55.127 0L57.7637 0L30.6152-70.459L28.125-70.459ZM29.3457-67.1387L29.4434-67.1387L44.873-26.709L13.8672-26.709Z"/>
  </g>
  <line id="Baseline-L" style="fill:none;stroke:#27AAE1;opacity:1;stroke-width:0.5;" x1="263" x2="3036" y1="1556" y2="1556"/>
  <line id="Capline-L" style="fill:none;stroke:#27AAE1;opacity:1;stroke-width:0.5;" x1="263" x2="3036" y1="1485.54" y2="1485.54"/>
  <line id="left-margin" x1="1404.6352608860695" x2="1404.6352608860695" y1="1030.79" y2="1150.12" style="fill:none;stroke:#00AEEF;stroke-width:0.5;opacity:1.0;"/>
  <line id="right-margin" x1="1497.4038614934364" x2="1497.4038614934364" y1="1030.79" y2="1150.12" style="fill:none;stroke:#00AEEF;stroke-width:0.5;opacity:1.0;"/>
 </g>
 <g id="Symbols">
  <g id="Black-L" transform="matrix(1.0,0.0,0.0,1.0,2863.446967390772,1447.8273941394004)">  <path clip-rule="evenodd" fill="#000000" stroke-opacity="1" fill-rule="evenodd" stroke-linejoin="miter" stroke-miterlimit="4" stroke="none" stroke-linecap="butt" fill-opacity="1" stroke-dasharray="none" stroke-width="1px" d="M72.309,41.553L65.038,41.553L65.038,48.535C65.03,48.606,65.01,48.672,64.989,48.738C64.965,48.817,64.941,48.895,64.941,48.98C64.941,49.07,64.966,49.149,64.99,49.227C65.01,49.291,65.03,49.355,65.038,49.425L65.038,56.393L72.212,56.393C72.249,56.396,72.284,56.407,72.319,56.418C72.363,56.431,72.408,56.445,72.457,56.445C72.5,56.445,72.542,56.432,72.584,56.419C72.621,56.408,72.66,56.396,72.702,56.393L79.877,56.393L79.877,49.433C79.881,49.359,79.901,49.291,79.921,49.222C79.944,49.144,79.966,49.066,79.966,48.98C79.966,48.9,79.945,48.825,79.923,48.75C79.902,48.679,79.881,48.607,79.877,48.528L79.877,41.553L72.605,41.553C72.58,41.553,72.556,41.545,72.532,41.538C72.508,41.53,72.483,41.523,72.457,41.523C72.432,41.523,72.407,41.53,72.383,41.538C72.359,41.545,72.335,41.553,72.309,41.553ZM60.436,100.958L84.471,100.958C86.051,100.958,87.335,99.466,87.335,97.634C87.335,95.801,86.051,94.31,84.471,94.31L79.877,93.493L79.877,63.813C79.877,63.543,79.901,63.431,79.922,63.331C79.924,63.318,79.927,63.306,79.929,63.294C79.848,63.486,79.662,63.724,79.091,63.724L60.436,63.724C58.856,63.724,57.58,65.215,57.58,67.048C57.58,68.881,58.856,70.372,60.436,70.372L65.038,71.233L65.038,93.493L60.436,94.31C58.856,94.31,57.58,95.801,57.58,97.634C57.58,99.466,58.856,100.958,60.436,100.958ZM71.233,11.872C38.444,11.872,11.872,38.451,11.872,71.233C11.872,104.015,38.444,130.594,71.233,130.594C104.015,130.594,130.594,104.015,130.594,71.233C130.594,38.451,104.015,11.872,71.233,11.872ZM71.233,11.872"/>
</g>
  <g id="Heavy-L" transform="matrix(1.0,0.0,0.0,1.0,2566.736967390772,1447.8273941394004)">  <path fill-opacity="1" stroke-width="1px" fill="#000000" stroke-linejoin="miter" stroke-miterlimit="4" fill-rule="evenodd" stroke-linecap="butt" stroke-opacity="1" stroke="none" clip-rule="evenodd" stroke-dasharray="none" d="M72.309,41.553L65.038,41.553L65.038,48.535C65.03,48.606,65.01,48.672,64.989,48.738C64.965,48.817,64.941,48.895,64.941,48.98C64.941,49.07,64.966,49.149,64.99,49.227C65.01,49.291,65.03,49.355,65.038,49.425L65.038,56.393L72.212,56.393C72.249,56.396,72.284,56.407,72.319,56.418C72.363,56.431,72.408,56.445,72.457,56.445C72.5,56.445,72.542,56.432,72.584,56.419C72.621,56.408,72.66,56.396,72.702,56.393L79.877,56.393L79.877,49.433C79.881,49.359,79.901,49.291,79.921,49.222C79.944,49.144,79.966,49.066,79.966,48.98C79.966,48.9,79.945,48.825,79.923,48.75C79.902,48.679,79.881,48.607,79.877,48.528L79.877,41.553L72.605,41.553C72.58,41.553,72.556,41.545,72.532,41.538C72.508,41.53,72.483,41.523,72.457,41.523C72.432,41.523,72.407,41.53,72.383,41.538C72.359,41.545,72.335,41.553,72.309,41.553ZM60.436,100.958L84.471,100.958C86.051,100.958,87.335,99.466,87.335,97.634C87.335,95.801,86.051,94.31,84.471,94.31L79.877,93.493L79.877,63.813C79.877,63.543,79.901,63.431,79.922,63.331C79.924,63.318,79.927,63.306,79.929,63.294C79.848,63.486,79.662,63.724,79.091,63.724L60.436,63.724C58.856,63.724,57.58,65.215,57.58,67.048C57.58,68.881,58.856,70.372,60.436,70.372L65.038,71.233L65.038,93.493L60.436,94.31C58.856,94.31,57.58,95.801,57.58,97.634C57.58,99.466,58.856,100.958,60.436,100.958ZM71.233,11.872C38.444,11.872,11.872,38.451,11.872,71.233C11.872,104.015,38.444,130.594,71.233,130.594C104.015,130.594,130.594,104.015,130.594,71.233C130.594,38.451,104.015,11.872,71.233,11.872ZM71.233,11.872"/>
</g>
  <g id="Bold-L" transform="matrix(1.0,0.0,0.0,1.0,2270.026967390772,1447.8273941394004)">  <path stroke="none" fill="#000000" stroke-linejoin="miter" stroke-dasharray="none" stroke-linecap="butt" clip-rule="evenodd" fill-rule="evenodd" stroke-miterlimit="4" fill-opacity="1" stroke-width="1px" stroke-opacity="1" d="M72.309,41.553L65.038,41.553L65.038,48.535C65.03,48.606,65.01,48.672,64.989,48.738C64.965,48.817,64.941,48.895,64.941,48.98C64.941,49.07,64.966,49.149,64.99,49.227C65.01,49.291,65.03,49.355,65.038,49.425L65.038,56.393L72.212,56.393C72.249,56.396,72.284,56.407,72.319,56.418C72.363,56.431,72.408,56.445,72.457,56.445C72.5,56.445,72.542,56.432,72.584,56.419C72.621,56.408,72.66,56.396,72.702,56.393L79.877,56.393L79.877,49.433C79.881,49.359,79.901,49.291,79.921,49.222C79.944,49.144,79.966,49.066,79.966,48.98C79.966,48.9,79.945,48.825,79.923,48.75C79.902,48.679,79.881,48.607,79.877,48.528L79.877,41.553L72.605,41.553C72.58,41.553,72.556,41.545,72.532,41.538C72.508,41.53,72.483,41.523,72.457,41.523C72.432,41.523,72.407,41.53,72.383,41.538C72.359,41.545,72.335,41.553,72.309,41.553ZM60.436,100.958L84.471,100.958C86.051,100.958,87.335,99.466,87.335,97.634C87.335,95.801,86.051,94.31,84.471,94.31L79.877,93.493L79.877,63.813C79.877,63.543,79.901,63.431,79.922,63.331C79.924,63.318,79.927,63.306,79.929,63.294C79.848,63.486,79.662,63.724,79.091,63.724L60.436,63.724C58.856,63.724,57.58,65.215,57.58,67.048C57.58,68.881,58.856,70.372,60.436,70.372L65.038,71.233L65.038,93.493L60.436,94.31C58.856,94.31,57.58,95.801,57.58,97.634C57.58,99.466,58.856,100.958,60.436,100.958ZM71.233,11.872C38.444,11.872,11.872,38.451,11.872,71.233C11.872,104.015,38.444,130.594,71.233,130.594C104.015,130.594,130.594,104.015,130.594,71.233C130.594,38.451,104.015,11.872,71.233,11.872ZM71.233,11.872"/>
</g>
  <g id="Semibold-L" transform="matrix(1.0,0.0,0.0,1.0,1973.3169673907719,1447.8273941394004)">  <path stroke="none" fill-rule="evenodd" fill="#000000" stroke-width="1px" stroke-dasharray="none" stroke-linejoin="miter" clip-rule="evenodd" stroke-opacity="1" stroke-miterlimit="4" fill-opacity="1" stroke-linecap="butt" d="M72.309,41.553L65.038,41.553L65.038,48.535C65.03,48.606,65.01,48.672,64.989,48.738C64.965,48.817,64.941,48.895,64.941,48.98C64.941,49.07,64.966,49.149,64.99,49.227C65.01,49.291,65.03,49.355,65.038,49.425L65.038,56.393L72.212,56.393C72.249,56.396,72.284,56.407,72.319,56.418C72.363,56.431,72.408,56.445,72.457,56.445C72.5,56.445,72.542,56.432,72.584,56.419C72.621,56.408,72.66,56.396,72.702,56.393L79.877,56.393L79.877,49.433C79.881,49.359,79.901,49.291,79.921,49.222C79.944,49.144,79.966,49.066,79.966,48.98C79.966,48.9,79.945,48.825,79.923,48.75C79.902,48.679,79.881,48.607,79.877,48.528L79.877,41.553L72.605,41.553C72.58,41.553,72.556,41.545,72.532,41.538C72.508,41.53,72.483,41.523,72.457,41.523C72.432,41.523,72.407,41.53,72.383,41.538C72.359,41.545,72.335,41.553,72.309,41.553ZM60.436,100.958L84.471,100.958C86.051,100.958,87.335,99.466,87.335,97.634C87.335,95.801,86.051,94.31,84.471,94.31L79.877,93.493L79.877,63.813C79.877,63.543,79.901,63.431,79.922,63.331C79.924,63.318,79.927,63.306,79.929,63.294C79.848,63.486,79.662,63.724,79.091,63.724L60.436,63.724C58.856,63.724,57.58,65.215,57.58,67.048C57.58,68.881,58.856,70.372,60.436,70.372L65.038,71.233L65.038,93.493L60.436,94.31C58.856,94.31,57.58,95.801,57.58,97.634C57.58,99.466,58.856,100.958,60.436,100.958ZM71.233,11.872C38.444,11.872,11.872,38.451,11.872,71.233C11.872,104.015,38.444,130.594,71.233,130.594C104.015,130.594,130.594,104.015,130.594,71.233C130.594,38.451,104.015,11.872,71.233,11.872ZM71.233,11.872"/>
</g>
  <g id="Medium-L" transform="matrix(1.0,0.0,0.0,1.0,1676.6069673907718,1447.8273941394004)">  <path stroke="none" fill-rule="evenodd" clip-rule="evenodd" stroke-dasharray="none" stroke-linecap="butt" fill="#000000" fill-opacity="1" stroke-linejoin="miter" stroke-opacity="1" stroke-width="1px" stroke-miterlimit="4" d="M72.309,41.553L65.038,41.553L65.038,48.535C65.03,48.606,65.01,48.672,64.989,48.738C64.965,48.817,64.941,48.895,64.941,48.98C64.941,49.07,64.966,49.149,64.99,49.227C65.01,49.291,65.03,49.355,65.038,49.425L65.038,56.393L72.212,56.393C72.249,56.396,72.284,56.407,72.319,56.418C72.363,56.431,72.408,56.445,72.457,56.445C72.5,56.445,72.542,56.432,72.584,56.419C72.621,56.408,72.66,56.396,72.702,56.393L79.877,56.393L79.877,49.433C79.881,49.359,79.901,49.291,79.921,49.222C79.944,49.144,79.966,49.066,79.966,48.98C79.966,48.9,79.945,48.825,79.923,48.75C79.902,48.679,79.881,48.607,79.877,48.528L79.877,41.553L72.605,41.553C72.58,41.553,72.556,41.545,72.532,41.538C72.508,41.53,72.483,41.523,72.457,41.523C72.432,41.523,72.407,41.53,72.383,41.538C72.359,41.545,72.335,41.553,72.309,41.553ZM60.436,100.958L84.471,100.958C86.051,100.958,87.335,99.466,87.335,97.634C87.335,95.801,86.051,94.31,84.471,94.31L79.877,93.493L79.877,63.813C79.877,63.543,79.901,63.431,79.922,63.331C79.924,63.318,79.927,63.306,79.929,63.294C79.848,63.486,79.662,63.724,79.091,63.724L60.436,63.724C58.856,63.724,57.58,65.215,57.58,67.048C57.58,68.881,58.856,70.372,60.436,70.372L65.038,71.233L65.038,93.493L60.436,94.31C58.856,94.31,57.58,95.801,57.58,97.634C57.58,99.466,58.856,100.958,60.436,100.958ZM71.233,11.872C38.444,11.872,11.872,38.451,11.872,71.233C11.872,104.015,38.444,130.594,71.233,130.594C104.015,130.594,130.594,104.015,130.594,71.233C130.594,38.451,104.015,11.872,71.233,11.872ZM71.233,11.872"/>
</g>
  <g id="Regular-L" transform="matrix(1.0,0.0,0.0,1.0,1379.8969673907718,1447.8273941394004)">  <path fill-opacity="1" stroke-opacity="1" stroke="none" fill="#000000" clip-rule="evenodd" stroke-dasharray="none" stroke-miterlimit="4" stroke-linejoin="miter" stroke-linecap="butt" stroke-width="1px" fill-rule="evenodd" d="M72.309,41.553L65.038,41.553L65.038,48.535C65.03,48.606,65.01,48.672,64.989,48.738C64.965,48.817,64.941,48.895,64.941,48.98C64.941,49.07,64.966,49.149,64.99,49.227C65.01,49.291,65.03,49.355,65.038,49.425L65.038,56.393L72.212,56.393C72.249,56.396,72.284,56.407,72.319,56.418C72.363,56.431,72.408,56.445,72.457,56.445C72.5,56.445,72.542,56.432,72.584,56.419C72.621,56.408,72.66,56.396,72.702,56.393L79.877,56.393L79.877,49.433C79.881,49.359,79.901,49.291,79.921,49.222C79.944,49.144,79.966,49.066,79.966,48.98C79.966,48.9,79.945,48.825,79.923,48.75C79.902,48.679,79.881,48.607,79.877,48.528L79.877,41.553L72.605,41.553C72.58,41.553,72.556,41.545,72.532,41.538C72.508,41.53,72.483,41.523,72.457,41.523C72.432,41.523,72.407,41.53,72.383,41.538C72.359,41.545,72.335,41.553,72.309,41.553ZM60.436,100.958L84.471,100.958C86.051,100.958,87.335,99.466,87.335,97.634C87.335,95.801,86.051,94.31,84.471,94.31L79.877,93.493L79.877,63.813C79.877,63.543,79.901,63.431,79.922,63.331C79.924,63.318,79.927,63.306,79.929,63.294C79.848,63.486,79.662,63.724,79.091,63.724L60.436,63.724C58.856,63.724,57.58,65.215,57.58,67.048C57.58,68.881,58.856,70.372,60.436,70.372L65.038,71.233L65.038,93.493L60.436,94.31C58.856,94.31,57.58,95.801,57.58,97.634C57.58,99.466,58.856,100.958,60.436,100.958ZM71.233,11.872C38.444,11.872,11.872,38.451,11.872,71.233C11.872,104.015,38.444,130.594,71.233,130.594C104.015,130.594,130.594,104.015,130.594,71.233C130.594,38.451,104.015,11.872,71.233,11.872ZM71.233,11.872"/>
</g>
  <g id="Light-L" transform="matrix(1.0,0.0,0.0,1.0,1083.186967390772,1447.8273941394004)">  <path stroke-linecap="butt" stroke-opacity="1" clip-rule="evenodd" stroke-dasharray="none" stroke="none" stroke-linejoin="miter" stroke-miterlimit="4" fill-opacity="1" fill-rule="evenodd" stroke-width="1px" fill="#000000" d="M72.309,41.553L65.038,41.553L65.038,48.535C65.03,48.606,65.01,48.672,64.989,48.738C64.965,48.817,64.941,48.895,64.941,48.98C64.941,49.07,64.966,49.149,64.99,49.227C65.01,49.291,65.03,49.355,65.038,49.425L65.038,56.393L72.212,56.393C72.249,56.396,72.284,56.407,72.319,56.418C72.363,56.431,72.408,56.445,72.457,56.445C72.5,56.445,72.542,56.432,72.584,56.419C72.621,56.408,72.66,56.396,72.702,56.393L79.877,56.393L79.877,49.433C79.881,49.359,79.901,49.291,79.921,49.222C79.944,49.144,79.966,49.066,79.966,48.98C79.966,48.9,79.945,48.825,79.923,48.75C79.902,48.679,79.881,48.607,79.877,48.528L79.877,41.553L72.605,41.553C72.58,41.553,72.556,41.545,72.532,41.538C72.508,41.53,72.483,41.523,72.457,41.523C72.432,41.523,72.407,41.53,72.383,41.538C72.359,41.545,72.335,41.553,72.309,41.553ZM60.436,100.958L84.471,100.958C86.051,100.958,87.335,99.466,87.335,97.634C87.335,95.801,86.051,94.31,84.471,94.31L79.877,93.493L79.877,63.813C79.877,63.543,79.901,63.431,79.922,63.331C79.924,63.318,79.927,63.306,79.929,63.294C79.848,63.486,79.662,63.724,79.091,63.724L60.436,63.724C58.856,63.724,57.58,65.215,57.58,67.048C57.58,68.881,58.856,70.372,60.436,70.372L65.038,71.233L65.038,93.493L60.436,94.31C58.856,94.31,57.58,95.801,57.58,97.634C57.58,99.466,58.856,100.958,60.436,100.958ZM71.233,11.872C38.444,11.872,11.872,38.451,11.872,71.233C11.872,104.015,38.444,130.594,71.233,130.594C104.015,130.594,130.594,104.015,130.594,71.233C130.594,38.451,104.015,11.872,71.233,11.872ZM71.233,11.872"/>
</g>
  <g id="Thin-L" transform="matrix(1.0,0.0,0.0,1.0,786.476967390772,1447.8273941394004)">  <path fill-rule="evenodd" stroke-linecap="butt" stroke-width="1px" stroke="none" clip-rule="evenodd" fill="#000000" stroke-opacity="1" stroke-miterlimit="4" stroke-linejoin="miter" fill-opacity="1" stroke-dasharray="none" d="M72.309,41.553L65.038,41.553L65.038,48.535C65.03,48.606,65.01,48.672,64.989,48.738C64.965,48.817,64.941,48.895,64.941,48.98C64.941,49.07,64.966,49.149,64.99,49.227C65.01,49.291,65.03,49.355,65.038,49.425L65.038,56.393L72.212,56.393C72.249,56.396,72.284,56.407,72.319,56.418C72.363,56.431,72.408,56.445,72.457,56.445C72.5,56.445,72.542,56.432,72.584,56.419C72.621,56.408,72.66,56.396,72.702,56.393L79.877,56.393L79.877,49.433C79.881,49.359,79.901,49.291,79.921,49.222C79.944,49.144,79.966,49.066,79.966,48.98C79.966,48.9,79.945,48.825,79.923,48.75C79.902,48.679,79.881,48.607,79.877,48.528L79.877,41.553L72.605,41.553C72.58,41.553,72.556,41.545,72.532,41.538C72.508,41.53,72.483,41.523,72.457,41.523C72.432,41.523,72.407,41.53,72.383,41.538C72.359,41.545,72.335,41.553,72.309,41.553ZM60.436,100.958L84.471,100.958C86.051,100.958,87.335,99.466,87.335,97.634C87.335,95.801,86.051,94.31,84.471,94.31L79.877,93.493L79.877,63.813C79.877,63.543,79.901,63.431,79.922,63.331C79.924,63.318,79.927,63.306,79.929,63.294C79.848,63.486,79.662,63.724,79.091,63.724L60.436,63.724C58.856,63.724,57.58,65.215,57.58,67.048C57.58,68.881,58.856,70.372,60.436,70.372L65.038,71.233L65.038,93.493L60.436,94.31C58.856,94.31,57.58,95.801,57.58,97.634C57.58,99.466,58.856,100.958,60.436,100.958ZM71.233,11.872C38.444,11.872,11.872,38.451,11.872,71.233C11.872,104.015,38.444,130.594,71.233,130.594C104.015,130.594,130.594,104.015,130.594,71.233C130.594,38.451,104.015,11.872,71.233,11.872ZM71.233,11.872"/>
</g>
  <g id="Ultralight-L" transform="matrix(1.0,0.0,0.0,1.0,489.7669673907719,1447.8273941394004)">  <path fill="#000000" stroke-dasharray="none" clip-rule="evenodd" fill-opacity="1" stroke-linejoin="miter" stroke-miterlimit="4" stroke-opacity="1" fill-rule="evenodd" stroke-width="1px" stroke-linecap="butt" stroke="none" d="M72.309,41.553L65.038,41.553L65.038,48.535C65.03,48.606,65.01,48.672,64.989,48.738C64.965,48.817,64.941,48.895,64.941,48.98C64.941,49.07,64.966,49.149,64.99,49.227C65.01,49.291,65.03,49.355,65.038,49.425L65.038,56.393L72.212,56.393C72.249,56.396,72.284,56.407,72.319,56.418C72.363,56.431,72.408,56.445,72.457,56.445C72.5,56.445,72.542,56.432,72.584,56.419C72.621,56.408,72.66,56.396,72.702,56.393L79.877,56.393L79.877,49.433C79.881,49.359,79.901,49.291,79.921,49.222C79.944,49.144,79.966,49.066,79.966,48.98C79.966,48.9,79.945,48.825,79.923,48.75C79.902,48.679,79.881,48.607,79.877,48.528L79.877,41.553L72.605,41.553C72.58,41.553,72.556,41.545,72.532,41.538C72.508,41.53,72.483,41.523,72.457,41.523C72.432,41.523,72.407,41.53,72.383,41.538C72.359,41.545,72.335,41.553,72.309,41.553ZM60.436,100.958L84.471,100.958C86.051,100.958,87.335,99.466,87.335,97.634C87.335,95.801,86.051,94.31,84.471,94.31L79.877,93.493L79.877,63.813C79.877,63.543,79.901,63.431,79.922,63.331C79.924,63.318,79.927,63.306,79.929,63.294C79.848,63.486,79.662,63.724,79.091,63.724L60.436,63.724C58.856,63.724,57.58,65.215,57.58,67.048C57.58,68.881,58.856,70.372,60.436,70.372L65.038,71.233L65.038,93.493L60.436,94.31C58.856,94.31,57.58,95.801,57.58,97.634C57.58,99.466,58.856,100.958,60.436,100.958ZM71.233,11.872C38.444,11.872,11.872,38.451,11.872,71.233C11.872,104.015,38.444,130.594,71.233,130.594C104.015,130.594,130.594,104.015,130.594,71.233C130.594,38.451,104.015,11.872,71.233,11.872ZM71.233,11.872"/>
</g>
  <g id="Black-M" transform="matrix(1.0,0.0,0.0,1.0,2879.460594876567,1034.225348684855)">  <path clip-rule="evenodd" fill="#000000" stroke-opacity="1" fill-rule="evenodd" stroke-linejoin="miter" stroke-miterlimit="4" stroke="none" stroke-linecap="butt" fill-opacity="1" stroke-dasharray="none" stroke-width="1px" d="M56.053,32.211L50.417,32.211L50.417,37.624C50.411,37.679,50.396,37.73,50.379,37.781C50.361,37.842,50.342,37.903,50.342,37.969C50.342,38.039,50.361,38.1,50.38,38.161C50.396,38.21,50.411,38.26,50.417,38.314L50.417,43.715L55.979,43.715C56.007,43.718,56.034,43.726,56.061,43.735C56.096,43.745,56.13,43.756,56.168,43.756C56.202,43.756,56.234,43.746,56.267,43.736C56.296,43.727,56.326,43.718,56.358,43.715L61.92,43.715L61.92,38.32C61.923,38.263,61.939,38.21,61.954,38.156C61.972,38.096,61.989,38.036,61.989,37.969C61.989,37.907,61.973,37.849,61.956,37.791C61.94,37.735,61.923,37.68,61.92,37.618L61.92,32.211L56.283,32.211C56.264,32.211,56.245,32.206,56.226,32.2C56.207,32.194,56.189,32.188,56.168,32.188C56.148,32.188,56.13,32.194,56.111,32.2C56.092,32.206,56.073,32.211,56.053,32.211ZM46.85,78.262L65.481,78.262C66.706,78.262,67.701,77.106,67.701,75.685C67.701,74.265,66.706,73.108,65.481,73.108L61.92,72.475L61.92,49.467C61.92,49.258,61.939,49.171,61.955,49.094C61.957,49.084,61.959,49.074,61.961,49.065C61.898,49.214,61.754,49.398,61.311,49.398L46.85,49.398C45.625,49.398,44.636,50.554,44.636,51.975C44.636,53.396,45.625,54.552,46.85,54.552L50.417,55.219L50.417,72.475L46.85,73.108C45.625,73.108,44.636,74.265,44.636,75.685C44.636,77.106,45.625,78.262,46.85,78.262ZM55.219,9.203C29.801,9.203,9.203,29.807,9.203,55.219C9.203,80.632,29.801,101.236,55.219,101.236C80.632,101.236,101.236,80.632,101.236,55.219C101.236,29.807,80.632,9.203,55.219,9.203ZM55.219,9.203"/>
</g>
  <g id="Heavy-M" transform="matrix(1.0,0.0,0.0,1.0,2582.750594876567,1034.225348684855)">  <path fill-opacity="1" stroke-width="1px" fill="#000000" stroke-linejoin="miter" stroke-miterlimit="4" fill-rule="evenodd" stroke-linecap="butt" stroke-opacity="1" stroke="none" clip-rule="evenodd" stroke-dasharray="none" d="M56.053,32.211L50.417,32.211L50.417,37.624C50.411,37.679,50.396,37.73,50.379,37.781C50.361,37.842,50.342,37.903,50.342,37.969C50.342,38.039,50.361,38.1,50.38,38.161C50.396,38.21,50.411,38.26,50.417,38.314L50.417,43.715L55.979,43.715C56.007,43.718,56.034,43.726,56.061,43.735C56.096,43.745,56.13,43.756,56.168,43.756C56.202,43.756,56.234,43.746,56.267,43.736C56.296,43.727,56.326,43.718,56.358,43.715L61.92,43.715L61.92,38.32C61.923,38.263,61.939,38.21,61.954,38.156C61.972,38.096,61.989,38.036,61.989,37.969C61.989,37.907,61.973,37.849,61.956,37.791C61.94,37.735,61.923,37.68,61.92,37.618L61.92,32.211L56.283,32.211C56.264,32.211,56.245,32.206,56.226,32.2C56.207,32.194,56.189,32.188,56.168,32.188C56.148,32.188,56.13,32.194,56.111,32.2C56.092,32.206,56.073,32.211,56.053,32.211ZM46.85,78.262L65.481,78.262C66.706,78.262,67.701,77.106,67.701,75.685C67.701,74.265,66.706,73.108,65.481,73.108L61.92,72.475L61.92,49.467C61.92,49.258,61.939,49.171,61.955,49.094C61.957,49.084,61.959,49.074,61.961,49.065C61.898,49.214,61.754,49.398,61.311,49.398L46.85,49.398C45.625,49.398,44.636,50.554,44.636,51.975C44.636,53.396,45.625,54.552,46.85,54.552L50.417,55.219L50.417,72.475L46.85,73.108C45.625,73.108,44.636,74.265,44.636,75.685C44.636,77.106,45.625,78.262,46.85,78.262ZM55.219,9.203C29.801,9.203,9.203,29.807,9.203,55.219C9.203,80.632,29.801,101.236,55.219,101.236C80.632,101.236,101.236,80.632,101.236,55.219C101.236,29.807,80.632,9.203,55.219,9.203ZM55.219,9.203"/>
</g>
  <g id="Bold-M" transform="matrix(1.0,0.0,0.0,1.0,2286.040594876567,1034.225348684855)">  <path stroke="none" fill="#000000" stroke-linejoin="miter" stroke-dasharray="none" stroke-linecap="butt" clip-rule="evenodd" fill-rule="evenodd" stroke-miterlimit="4" fill-opacity="1" stroke-width="1px" stroke-opacity="1" d="M56.053,32.211L50.417,32.211L50.417,37.624C50.411,37.679,50.396,37.73,50.379,37.781C50.361,37.842,50.342,37.903,50.342,37.969C50.342,38.039,50.361,38.1,50.38,38.161C50.396,38.21,50.411,38.26,50.417,38.314L50.417,43.715L55.979,43.715C56.007,43.718,56.034,43.726,56.061,43.735C56.096,43.745,56.13,43.756,56.168,43.756C56.202,43.756,56.234,43.746,56.267,43.736C56.296,43.727,56.326,43.718,56.358,43.715L61.92,43.715L61.92,38.32C61.923,38.263,61.939,38.21,61.954,38.156C61.972,38.096,61.989,38.036,61.989,37.969C61.989,37.907,61.973,37.849,61.956,37.791C61.94,37.735,61.923,37.68,61.92,37.618L61.92,32.211L56.283,32.211C56.264,32.211,56.245,32.206,56.226,32.2C56.207,32.194,56.189,32.188,56.168,32.188C56.148,32.188,56.13,32.194,56.111,32.2C56.092,32.206,56.073,32.211,56.053,32.211ZM46.85,78.262L65.481,78.262C66.706,78.262,67.701,77.106,67.701,75.685C67.701,74.265,66.706,73.108,65.481,73.108L61.92,72.475L61.92,49.467C61.92,49.258,61.939,49.171,61.955,49.094C61.957,49.084,61.959,49.074,61.961,49.065C61.898,49.214,61.754,49.398,61.311,49.398L46.85,49.398C45.625,49.398,44.636,50.554,44.636,51.975C44.636,53.396,45.625,54.552,46.85,54.552L50.417,55.219L50.417,72.475L46.85,73.108C45.625,73.108,44.636,74.265,44.636,75.685C44.636,77.106,45.625,78.262,46.85,78.262ZM55.219,9.203C29.801,9.203,9.203,29.807,9.203,55.219C9.203,80.632,29.801,101.236,55.219,101.236C80.632,101.236,101.236,80.632,101.236,55.219C101.236,29.807,80.632,9.203,55.219,9.203ZM55.219,9.203"/>
</g>
  <g id="Semibold-M" transform="matrix(1.0,0.0,0.0,1.0,1989.3305948765674,1034.225348684855)">  <path stroke="none" fill-rule="evenodd" fill="#000000" stroke-width="1px" stroke-dasharray="none" stroke-linejoin="miter" clip-rule="evenodd" stroke-opacity="1" stroke-miterlimit="4" fill-opacity="1" stroke-linecap="butt" d="M56.053,32.211L50.417,32.211L50.417,37.624C50.411,37.679,50.396,37.73,50.379,37.781C50.361,37.842,50.342,37.903,50.342,37.969C50.342,38.039,50.361,38.1,50.38,38.161C50.396,38.21,50.411,38.26,50.417,38.314L50.417,43.715L55.979,43.715C56.007,43.718,56.034,43.726,56.061,43.735C56.096,43.745,56.13,43.756,56.168,43.756C56.202,43.756,56.234,43.746,56.267,43.736C56.296,43.727,56.326,43.718,56.358,43.715L61.92,43.715L61.92,38.32C61.923,38.263,61.939,38.21,61.954,38.156C61.972,38.096,61.989,38.036,61.989,37.969C61.989,37.907,61.973,37.849,61.956,37.791C61.94,37.735,61.923,37.68,61.92,37.618L61.92,32.211L56.283,32.211C56.264,32.211,56.245,32.206,56.226,32.2C56.207,32.194,56.189,32.188,56.168,32.188C56.148,32.188,56.13,32.194,56.111,32.2C56.092,32.206,56.073,32.211,56.053,32.211ZM46.85,78.262L65.481,78.262C66.706,78.262,67.701,77.106,67.701,75.685C67.701,74.265,66.706,73.108,65.481,73.108L61.92,72.475L61.92,49.467C61.92,49.258,61.939,49.171,61.955,49.094C61.957,49.084,61.959,49.074,61.961,49.065C61.898,49.214,61.754,49.398,61.311,49.398L46.85,49.398C45.625,49.398,44.636,50.554,44.636,51.975C44.636,53.396,45.625,54.552,46.85,54.552L50.417,55.219L50.417,72.475L46.85,73.108C45.625,73.108,44.636,74.265,44.636,75.685C44.636,77.106,45.625,78.262,46.85,78.262ZM55.219,9.203C29.801,9.203,9.203,29.807,9.203,55.219C9.203,80.632,29.801,101.236,55.219,101.236C80.632,101.236,101.236,80.632,101.236,55.219C101.236,29.807,80.632,9.203,55.219,9.203ZM55.219,9.203"/>
</g>
  <g id="Medium-M" transform="matrix(1.0,0.0,0.0,1.0,1692.6205948765673,1034.225348684855)">  <path stroke="none" fill-rule="evenodd" clip-rule="evenodd" stroke-dasharray="none" stroke-linecap="butt" fill="#000000" fill-opacity="1" stroke-linejoin="miter" stroke-opacity="1" stroke-width="1px" stroke-miterlimit="4" d="M56.053,32.211L50.417,32.211L50.417,37.624C50.411,37.679,50.396,37.73,50.379,37.781C50.361,37.842,50.342,37.903,50.342,37.969C50.342,38.039,50.361,38.1,50.38,38.161C50.396,38.21,50.411,38.26,50.417,38.314L50.417,43.715L55.979,43.715C56.007,43.718,56.034,43.726,56.061,43.735C56.096,43.745,56.13,43.756,56.168,43.756C56.202,43.756,56.234,43.746,56.267,43.736C56.296,43.727,56.326,43.718,56.358,43.715L61.92,43.715L61.92,38.32C61.923,38.263,61.939,38.21,61.954,38.156C61.972,38.096,61.989,38.036,61.989,37.969C61.989,37.907,61.973,37.849,61.956,37.791C61.94,37.735,61.923,37.68,61.92,37.618L61.92,32.211L56.283,32.211C56.264,32.211,56.245,32.206,56.226,32.2C56.207,32.194,56.189,32.188,56.168,32.188C56.148,32.188,56.13,32.194,56.111,32.2C56.092,32.206,56.073,32.211,56.053,32.211ZM46.85,78.262L65.481,78.262C66.706,78.262,67.701,77.106,67.701,75.685C67.701,74.265,66.706,73.108,65.481,73.108L61.92,72.475L61.92,49.467C61.92,49.258,61.939,49.171,61.955,49.094C61.957,49.084,61.959,49.074,61.961,49.065C61.898,49.214,61.754,49.398,61.311,49.398L46.85,49.398C45.625,49.398,44.636,50.554,44.636,51.975C44.636,53.396,45.625,54.552,46.85,54.552L50.417,55.219L50.417,72.475L46.85,73.108C45.625,73.108,44.636,74.265,44.636,75.685C44.636,77.106,45.625,78.262,46.85,78.262ZM55.219,9.203C29.801,9.203,9.203,29.807,9.203,55.219C9.203,80.632,29.801,101.236,55.219,101.236C80.632,101.236,101.236,80.632,101.236,55.219C101.236,29.807,80.632,9.203,55.219,9.203ZM55.219,9.203"/>
</g>
  <g id="Regular-M" transform="matrix(1.0,0.0,0.0,1.0,1395.9105948765673,1034.225348684855)">  <path fill-opacity="1" stroke-opacity="1" stroke="none" fill="#000000" clip-rule="evenodd" stroke-dasharray="none" stroke-miterlimit="4" stroke-linejoin="miter" stroke-linecap="butt" stroke-width="1px" fill-rule="evenodd" d="M56.053,32.211L50.417,32.211L50.417,37.624C50.411,37.679,50.396,37.73,50.379,37.781C50.361,37.842,50.342,37.903,50.342,37.969C50.342,38.039,50.361,38.1,50.38,38.161C50.396,38.21,50.411,38.26,50.417,38.314L50.417,43.715L55.979,43.715C56.007,43.718,56.034,43.726,56.061,43.735C56.096,43.745,56.13,43.756,56.168,43.756C56.202,43.756,56.234,43.746,56.267,43.736C56.296,43.727,56.326,43.718,56.358,43.715L61.92,43.715L61.92,38.32C61.923,38.263,61.939,38.21,61.954,38.156C61.972,38.096,61.989,38.036,61.989,37.969C61.989,37.907,61.973,37.849,61.956,37.791C61.94,37.735,61.923,37.68,61.92,37.618L61.92,32.211L56.283,32.211C56.264,32.211,56.245,32.206,56.226,32.2C56.207,32.194,56.189,32.188,56.168,32.188C56.148,32.188,56.13,32.194,56.111,32.2C56.092,32.206,56.073,32.211,56.053,32.211ZM46.85,78.262L65.481,78.262C66.706,78.262,67.701,77.106,67.701,75.685C67.701,74.265,66.706,73.108,65.481,73.108L61.92,72.475L61.92,49.467C61.92,49.258,61.939,49.171,61.955,49.094C61.957,49.084,61.959,49.074,61.961,49.065C61.898,49.214,61.754,49.398,61.311,49.398L46.85,49.398C45.625,49.398,44.636,50.554,44.636,51.975C44.636,53.396,45.625,54.552,46.85,54.552L50.417,55.219L50.417,72.475L46.85,73.108C45.625,73.108,44.636,74.265,44.636,75.685C44.636,77.106,45.625,78.262,46.85,78.262ZM55.219,9.203C29.801,9.203,9.203,29.807,9.203,55.219C9.203,80.632,29.801,101.236,55.219,101.236C80.632,101.236,101.236,80.632,101.236,55.219C101.236,29.807,80.632,9.203,55.219,9.203ZM55.219,9.203"/>
</g>
  <g id="Light-M" transform="matrix(1.0,0.0,0.0,1.0,1099.2005948765675,1034.225348684855)">  <path stroke-linecap="butt" stroke-opacity="1" clip-rule="evenodd" stroke-dasharray="none" stroke="none" stroke-linejoin="miter" stroke-miterlimit="4" fill-opacity="1" fill-rule="evenodd" stroke-width="1px" fill="#000000" d="M56.053,32.211L50.417,32.211L50.417,37.624C50.411,37.679,50.396,37.73,50.379,37.781C50.361,37.842,50.342,37.903,50.342,37.969C50.342,38.039,50.361,38.1,50.38,38.161C50.396,38.21,50.411,38.26,50.417,38.314L50.417,43.715L55.979,43.715C56.007,43.718,56.034,43.726,56.061,43.735C56.096,43.745,56.13,43.756,56.168,43.756C56.202,43.756,56.234,43.746,56.267,43.736C56.296,43.727,56.326,43.718,56.358,43.715L61.92,43.715L61.92,38.32C61.923,38.263,61.939,38.21,61.954,38.156C61.972,38.096,61.989,38.036,61.989,37.969C61.989,37.907,61.973,37.849,61.956,37.791C61.94,37.735,61.923,37.68,61.92,37.618L61.92,32.211L56.283,32.211C56.264,32.211,56.245,32.206,56.226,32.2C56.207,32.194,56.189,32.188,56.168,32.188C56.148,32.188,56.13,32.194,56.111,32.2C56.092,32.206,56.073,32.211,56.053,32.211ZM46.85,78.262L65.481,78.262C66.706,78.262,67.701,77.106,67.701,75.685C67.701,74.265,66.706,73.108,65.481,73.108L61.92,72.475L61.92,49.467C61.92,49.258,61.939,49.171,61.955,49.094C61.957,49.084,61.959,49.074,61.961,49.065C61.898,49.214,61.754,49.398,61.311,49.398L46.85,49.398C45.625,49.398,44.636,50.554,44.636,51.975C44.636,53.396,45.625,54.552,46.85,54.552L50.417,55.219L50.417,72.475L46.85,73.108C45.625,73.108,44.636,74.265,44.636,75.685C44.636,77.106,45.625,78.262,46.85,78.262ZM55.219,9.203C29.801,9.203,9.203,29.807,9.203,55.219C9.203,80.632,29.801,101.236,55.219,101.236C80.632,101.236,101.236,80.632,101.236,55.219C101.236,29.807,80.632,9.203,55.219,9.203ZM55.219,9.203"/>
</g>
  <g id="Thin-M" transform="matrix(1.0,0.0,0.0,1.0,802.4905948765675,1034.225348684855)">  <path fill-rule="evenodd" stroke-linecap="butt" stroke-width="1px" stroke="none" clip-rule="evenodd" fill="#000000" stroke-opacity="1" stroke-miterlimit="4" stroke-linejoin="miter" fill-opacity="1" stroke-dasharray="none" d="M56.053,32.211L50.417,32.211L50.417,37.624C50.411,37.679,50.396,37.73,50.379,37.781C50.361,37.842,50.342,37.903,50.342,37.969C50.342,38.039,50.361,38.1,50.38,38.161C50.396,38.21,50.411,38.26,50.417,38.314L50.417,43.715L55.979,43.715C56.007,43.718,56.034,43.726,56.061,43.735C56.096,43.745,56.13,43.756,56.168,43.756C56.202,43.756,56.234,43.746,56.267,43.736C56.296,43.727,56.326,43.718,56.358,43.715L61.92,43.715L61.92,38.32C61.923,38.263,61.939,38.21,61.954,38.156C61.972,38.096,61.989,38.036,61.989,37.969C61.989,37.907,61.973,37.849,61.956,37.791C61.94,37.735,61.923,37.68,61.92,37.618L61.92,32.211L56.283,32.211C56.264,32.211,56.245,32.206,56.226,32.2C56.207,32.194,56.189,32.188,56.168,32.188C56.148,32.188,56.13,32.194,56.111,32.2C56.092,32.206,56.073,32.211,56.053,32.211ZM46.85,78.262L65.481,78.262C66.706,78.262,67.701,77.106,67.701,75.685C67.701,74.265,66.706,73.108,65.481,73.108L61.92,72.475L61.92,49.467C61.92,49.258,61.939,49.171,61.955,49.094C61.957,49.084,61.959,49.074,61.961,49.065C61.898,49.214,61.754,49.398,61.311,49.398L46.85,49.398C45.625,49.398,44.636,50.554,44.636,51.975C44.636,53.396,45.625,54.552,46.85,54.552L50.417,55.219L50.417,72.475L46.85,73.108C45.625,73.108,44.636,74.265,44.636,75.685C44.636,77.106,45.625,78.262,46.85,78.262ZM55.219,9.203C29.801,9.203,9.203,29.807,9.203,55.219C9.203,80.632,29.801,101.236,55.219,101.236C80.632,101.236,101.236,80.632,101.236,55.219C101.236,29.807,80.632,9.203,55.219,9.203ZM55.219,9.203"/>
</g>
  <g id="Ultralight-M" transform="matrix(1.0,0.0,0.0,1.0,505.7805948765674,1034.225348684855)">  <path fill="#000000" stroke-dasharray="none" clip-rule="evenodd" fill-opacity="1" stroke-linejoin="miter" stroke-miterlimit="4" stroke-opacity="1" fill-rule="evenodd" stroke-width="1px" stroke-linecap="butt" stroke="none" d="M56.053,32.211L50.417,32.211L50.417,37.624C50.411,37.679,50.396,37.73,50.379,37.781C50.361,37.842,50.342,37.903,50.342,37.969C50.342,38.039,50.361,38.1,50.38,38.161C50.396,38.21,50.411,38.26,50.417,38.314L50.417,43.715L55.979,43.715C56.007,43.718,56.034,43.726,56.061,43.735C56.096,43.745,56.13,43.756,56.168,43.756C56.202,43.756,56.234,43.746,56.267,43.736C56.296,43.727,56.326,43.718,56.358,43.715L61.92,43.715L61.92,38.32C61.923,38.263,61.939,38.21,61.954,38.156C61.972,38.096,61.989,38.036,61.989,37.969C61.989,37.907,61.973,37.849,61.956,37.791C61.94,37.735,61.923,37.68,61.92,37.618L61.92,32.211L56.283,32.211C56.264,32.211,56.245,32.206,56.226,32.2C56.207,32.194,56.189,32.188,56.168,32.188C56.148,32.188,56.13,32.194,56.111,32.2C56.092,32.206,56.073,32.211,56.053,32.211ZM46.85,78.262L65.481,78.262C66.706,78.262,67.701,77.106,67.701,75.685C67.701,74.265,66.706,73.108,65.481,73.108L61.92,72.475L61.92,49.467C61.92,49.258,61.939,49.171,61.955,49.094C61.957,49.084,61.959,49.074,61.961,49.065C61.898,49.214,61.754,49.398,61.311,49.398L46.85,49.398C45.625,49.398,44.636,50.554,44.636,51.975C44.636,53.396,45.625,54.552,46.85,54.552L50.417,55.219L50.417,72.475L46.85,73.108C45.625,73.108,44.636,74.265,44.636,75.685C44.636,77.106,45.625,78.262,46.85,78.262ZM55.219,9.203C29.801,9.203,9.203,29.807,9.203,55.219C9.203,80.632,29.801,101.236,55.219,101.236C80.632,101.236,101.236,80.632,101.236,55.219C101.236,29.807,80.632,9.203,55.219,9.203ZM55.219,9.203"/>
</g>
  <g id="Black-S" transform="matrix(1.0,0.0,0.0,1.0,2891.4432057883523,616.4955422585227)">  <path clip-rule="evenodd" fill="#000000" stroke-opacity="1" fill-rule="evenodd" stroke-linejoin="miter" stroke-miterlimit="4" stroke="none" stroke-linecap="butt" fill-opacity="1" stroke-dasharray="none" stroke-width="1px" d="M43.89,25.221L39.476,25.221L39.476,29.46C39.472,29.503,39.46,29.543,39.447,29.583C39.432,29.631,39.418,29.678,39.418,29.73C39.418,29.784,39.433,29.832,39.447,29.88C39.46,29.919,39.472,29.958,39.476,30L39.476,34.229L43.831,34.229C43.853,34.231,43.875,34.238,43.896,34.244C43.923,34.252,43.95,34.261,43.98,34.261C44.006,34.261,44.031,34.253,44.057,34.245C44.08,34.238,44.103,34.231,44.129,34.229L48.484,34.229L48.484,30.005C48.486,29.96,48.498,29.918,48.51,29.876C48.524,29.829,48.538,29.782,48.538,29.73C48.538,29.681,48.525,29.636,48.511,29.59C48.499,29.547,48.486,29.503,48.484,29.455L48.484,25.221L44.07,25.221C44.054,25.221,44.04,25.217,44.025,25.212C44.01,25.208,43.996,25.203,43.98,25.203C43.964,25.203,43.949,25.208,43.935,25.212C43.92,25.217,43.906,25.221,43.89,25.221ZM36.684,61.279L51.272,61.279C52.231,61.279,53.01,60.374,53.01,59.261C53.01,58.149,52.231,57.244,51.272,57.244L48.484,56.748L48.484,38.733C48.484,38.569,48.498,38.501,48.511,38.44C48.512,38.433,48.514,38.425,48.515,38.418C48.466,38.535,48.353,38.679,48.006,38.679L36.684,38.679C35.724,38.679,34.95,39.584,34.95,40.697C34.95,41.809,35.724,42.714,36.684,42.714L39.476,43.237L39.476,56.748L36.684,57.244C35.724,57.244,34.95,58.149,34.95,59.261C34.95,60.374,35.724,61.279,36.684,61.279ZM43.237,7.206C23.334,7.206,7.206,23.339,7.206,43.237C7.206,63.135,23.334,79.267,43.237,79.267C63.135,79.267,79.267,63.135,79.267,43.237C79.267,23.339,63.135,7.206,43.237,7.206ZM43.237,7.206"/>
</g>
  <g id="Heavy-S" transform="matrix(1.0,0.0,0.0,1.0,2594.7332057883523,616.4955422585227)">  <path fill-opacity="1" stroke-width="1px" fill="#000000" stroke-linejoin="miter" stroke-miterlimit="4" fill-rule="evenodd" stroke-linecap="butt" stroke-opacity="1" stroke="none" clip-rule="evenodd" stroke-dasharray="none" d="M43.89,25.221L39.476,25.221L39.476,29.46C39.472,29.503,39.46,29.543,39.447,29.583C39.432,29.631,39.418,29.678,39.418,29.73C39.418,29.784,39.433,29.832,39.447,29.88C39.46,29.919,39.472,29.958,39.476,30L39.476,34.229L43.831,34.229C43.853,34.231,43.875,34.238,43.896,34.244C43.923,34.252,43.95,34.261,43.98,34.261C44.006,34.261,44.031,34.253,44.057,34.245C44.08,34.238,44.103,34.231,44.129,34.229L48.484,34.229L48.484,30.005C48.486,29.96,48.498,29.918,48.51,29.876C48.524,29.829,48.538,29.782,48.538,29.73C48.538,29.681,48.525,29.636,48.511,29.59C48.499,29.547,48.486,29.503,48.484,29.455L48.484,25.221L44.07,25.221C44.054,25.221,44.04,25.217,44.025,25.212C44.01,25.208,43.996,25.203,43.98,25.203C43.964,25.203,43.949,25.208,43.935,25.212C43.92,25.217,43.906,25.221,43.89,25.221ZM36.684,61.279L51.272,61.279C52.231,61.279,53.01,60.374,53.01,59.261C53.01,58.149,52.231,57.244,51.272,57.244L48.484,56.748L48.484,38.733C48.484,38.569,48.498,38.501,48.511,38.44C48.512,38.433,48.514,38.425,48.515,38.418C48.466,38.535,48.353,38.679,48.006,38.679L36.684,38.679C35.724,38.679,34.95,39.584,34.95,40.697C34.95,41.809,35.724,42.714,36.684,42.714L39.476,43.237L39.476,56.748L36.684,57.244C35.724,57.244,34.95,58.149,34.95,59.261C34.95,60.374,35.724,61.279,36.684,61.279ZM43.237,7.206C23.334,7.206,7.206,23.339,7.206,43.237C7.206,63.135,23.334,79.267,43.237,79.267C63.135,79.267,79.267,63.135,79.267,43.237C79.267,23.339,63.135,7.206,43.237,7.206ZM43.237,7.206"/>
</g>
  <g id="Bold-S" transform="matrix(1.0,0.0,0.0,1.0,2298.0232057883522,616.4955422585227)">  <path stroke="none" fill="#000000" stroke-linejoin="miter" stroke-dasharray="none" stroke-linecap="butt" clip-rule="evenodd" fill-rule="evenodd" stroke-miterlimit="4" fill-opacity="1" stroke-width="1px" stroke-opacity="1" d="M43.89,25.221L39.476,25.221L39.476,29.46C39.472,29.503,39.46,29.543,39.447,29.583C39.432,29.631,39.418,29.678,39.418,29.73C39.418,29.784,39.433,29.832,39.447,29.88C39.46,29.919,39.472,29.958,39.476,30L39.476,34.229L43.831,34.229C43.853,34.231,43.875,34.238,43.896,34.244C43.923,34.252,43.95,34.261,43.98,34.261C44.006,34.261,44.031,34.253,44.057,34.245C44.08,34.238,44.103,34.231,44.129,34.229L48.484,34.229L48.484,30.005C48.486,29.96,48.498,29.918,48.51,29.876C48.524,29.829,48.538,29.782,48.538,29.73C48.538,29.681,48.525,29.636,48.511,29.59C48.499,29.547,48.486,29.503,48.484,29.455L48.484,25.221L44.07,25.221C44.054,25.221,44.04,25.217,44.025,25.212C44.01,25.208,43.996,25.203,43.98,25.203C43.964,25.203,43.949,25.208,43.935,25.212C43.92,25.217,43.906,25.221,43.89,25.221ZM36.684,61.279L51.272,61.279C52.231,61.279,53.01,60.374,53.01,59.261C53.01,58.149,52.231,57.244,51.272,57.244L48.484,56.748L48.484,38.733C48.484,38.569,48.498,38.501,48.511,38.44C48.512,38.433,48.514,38.425,48.515,38.418C48.466,38.535,48.353,38.679,48.006,38.679L36.684,38.679C35.724,38.679,34.95,39.584,34.95,40.697C34.95,41.809,35.724,42.714,36.684,42.714L39.476,43.237L39.476,56.748L36.684,57.244C35.724,57.244,34.95,58.149,34.95,59.261C34.95,60.374,35.724,61.279,36.684,61.279ZM43.237,7.206C23.334,7.206,7.206,23.339,7.206,43.237C7.206,63.135,23.334,79.267,43.237,79.267C63.135,79.267,79.267,63.135,79.267,43.237C79.267,23.339,63.135,7.206,43.237,7.206ZM43.237,7.206"/>
</g>
  <g id="Semibold-S" transform="matrix(1.0,0.0,0.0,1.0,2001.3132057883522,616.4955422585227)">  <path stroke="none" fill-rule="evenodd" fill="#000000" stroke-width="1px" stroke-dasharray="none" stroke-linejoin="miter" clip-rule="evenodd" stroke-opacity="1" stroke-miterlimit="4" fill-opacity="1" stroke-linecap="butt" d="M43.89,25.221L39.476,25.221L39.476,29.46C39.472,29.503,39.46,29.543,39.447,29.583C39.432,29.631,39.418,29.678,39.418,29.73C39.418,29.784,39.433,29.832,39.447,29.88C39.46,29.919,39.472,29.958,39.476,30L39.476,34.229L43.831,34.229C43.853,34.231,43.875,34.238,43.896,34.244C43.923,34.252,43.95,34.261,43.98,34.261C44.006,34.261,44.031,34.253,44.057,34.245C44.08,34.238,44.103,34.231,44.129,34.229L48.484,34.229L48.484,30.005C48.486,29.96,48.498,29.918,48.51,29.876C48.524,29.829,48.538,29.782,48.538,29.73C48.538,29.681,48.525,29.636,48.511,29.59C48.499,29.547,48.486,29.503,48.484,29.455L48.484,25.221L44.07,25.221C44.054,25.221,44.04,25.217,44.025,25.212C44.01,25.208,43.996,25.203,43.98,25.203C43.964,25.203,43.949,25.208,43.935,25.212C43.92,25.217,43.906,25.221,43.89,25.221ZM36.684,61.279L51.272,61.279C52.231,61.279,53.01,60.374,53.01,59.261C53.01,58.149,52.231,57.244,51.272,57.244L48.484,56.748L48.484,38.733C48.484,38.569,48.498,38.501,48.511,38.44C48.512,38.433,48.514,38.425,48.515,38.418C48.466,38.535,48.353,38.679,48.006,38.679L36.684,38.679C35.724,38.679,34.95,39.584,34.95,40.697C34.95,41.809,35.724,42.714,36.684,42.714L39.476,43.237L39.476,56.748L36.684,57.244C35.724,57.244,34.95,58.149,34.95,59.261C34.95,60.374,35.724,61.279,36.684,61.279ZM43.237,7.206C23.334,7.206,7.206,23.339,7.206,43.237C7.206,63.135,23.334,79.267,43.237,79.267C63.135,79.267,79.267,63.135,79.267,43.237C79.267,23.339,63.135,7.206,43.237,7.206ZM43.237,7.206"/>
</g>
  <g id="Medium-S" transform="matrix(1.0,0.0,0.0,1.0,1704.6032057883522,616.4955422585227)">  <path stroke="none" fill-rule="evenodd" clip-rule="evenodd" stroke-dasharray="none" stroke-linecap="butt" fill="#000000" fill-opacity="1" stroke-linejoin="miter" stroke-opacity="1" stroke-width="1px" stroke-miterlimit="4" d="M43.89,25.221L39.476,25.221L39.476,29.46C39.472,29.503,39.46,29.543,39.447,29.583C39.432,29.631,39.418,29.678,39.418,29.73C39.418,29.784,39.433,29.832,39.447,29.88C39.46,29.919,39.472,29.958,39.476,30L39.476,34.229L43.831,34.229C43.853,34.231,43.875,34.238,43.896,34.244C43.923,34.252,43.95,34.261,43.98,34.261C44.006,34.261,44.031,34.253,44.057,34.245C44.08,34.238,44.103,34.231,44.129,34.229L48.484,34.229L48.484,30.005C48.486,29.96,48.498,29.918,48.51,29.876C48.524,29.829,48.538,29.782,48.538,29.73C48.538,29.681,48.525,29.636,48.511,29.59C48.499,29.547,48.486,29.503,48.484,29.455L48.484,25.221L44.07,25.221C44.054,25.221,44.04,25.217,44.025,25.212C44.01,25.208,43.996,25.203,43.98,25.203C43.964,25.203,43.949,25.208,43.935,25.212C43.92,25.217,43.906,25.221,43.89,25.221ZM36.684,61.279L51.272,61.279C52.231,61.279,53.01,60.374,53.01,59.261C53.01,58.149,52.231,57.244,51.272,57.244L48.484,56.748L48.484,38.733C48.484,38.569,48.498,38.501,48.511,38.44C48.512,38.433,48.514,38.425,48.515,38.418C48.466,38.535,48.353,38.679,48.006,38.679L36.684,38.679C35.724,38.679,34.95,39.584,34.95,40.697C34.95,41.809,35.724,42.714,36.684,42.714L39.476,43.237L39.476,56.748L36.684,57.244C35.724,57.244,34.95,58.149,34.95,59.261C34.95,60.374,35.724,61.279,36.684,61.279ZM43.237,7.206C23.334,7.206,7.206,23.339,7.206,43.237C7.206,63.135,23.334,79.267,43.237,79.267C63.135,79.267,79.267,63.135,79.267,43.237C79.267,23.339,63.135,7.206,43.237,7.206ZM43.237,7.206"/>
</g>
  <g id="Regular-S" transform="matrix(1.0,0.0,0.0,1.0,1407.8932057883521,616.4955422585227)">  <path fill-opacity="1" stroke-opacity="1" stroke="none" fill="#000000" clip-rule="evenodd" stroke-dasharray="none" stroke-miterlimit="4" stroke-linejoin="miter" stroke-linecap="butt" stroke-width="1px" fill-rule="evenodd" d="M43.89,25.221L39.476,25.221L39.476,29.46C39.472,29.503,39.46,29.543,39.447,29.583C39.432,29.631,39.418,29.678,39.418,29.73C39.418,29.784,39.433,29.832,39.447,29.88C39.46,29.919,39.472,29.958,39.476,30L39.476,34.229L43.831,34.229C43.853,34.231,43.875,34.238,43.896,34.244C43.923,34.252,43.95,34.261,43.98,34.261C44.006,34.261,44.031,34.253,44.057,34.245C44.08,34.238,44.103,34.231,44.129,34.229L48.484,34.229L48.484,30.005C48.486,29.96,48.498,29.918,48.51,29.876C48.524,29.829,48.538,29.782,48.538,29.73C48.538,29.681,48.525,29.636,48.511,29.59C48.499,29.547,48.486,29.503,48.484,29.455L48.484,25.221L44.07,25.221C44.054,25.221,44.04,25.217,44.025,25.212C44.01,25.208,43.996,25.203,43.98,25.203C43.964,25.203,43.949,25.208,43.935,25.212C43.92,25.217,43.906,25.221,43.89,25.221ZM36.684,61.279L51.272,61.279C52.231,61.279,53.01,60.374,53.01,59.261C53.01,58.149,52.231,57.244,51.272,57.244L48.484,56.748L48.484,38.733C48.484,38.569,48.498,38.501,48.511,38.44C48.512,38.433,48.514,38.425,48.515,38.418C48.466,38.535,48.353,38.679,48.006,38.679L36.684,38.679C35.724,38.679,34.95,39.584,34.95,40.697C34.95,41.809,35.724,42.714,36.684,42.714L39.476,43.237L39.476,56.748L36.684,57.244C35.724,57.244,34.95,58.149,34.95,59.261C34.95,60.374,35.724,61.279,36.684,61.279ZM43.237,7.206C23.334,7.206,7.206,23.339,7.206,43.237C7.206,63.135,23.334,79.267,43.237,79.267C63.135,79.267,79.267,63.135,79.267,43.237C79.267,23.339,63.135,7.206,43.237,7.206ZM43.237,7.206"/>
</g>
  <g id="Light-S" transform="matrix(1.0,0.0,0.0,1.0,1111.1832057883523,616.4955422585227)">  <path stroke-linecap="butt" stroke-opacity="1" clip-rule="evenodd" stroke-dasharray="none" stroke="none" stroke-linejoin="miter" stroke-miterlimit="4" fill-opacity="1" fill-rule="evenodd" stroke-width="1px" fill="#000000" d="M43.89,25.221L39.476,25.221L39.476,29.46C39.472,29.503,39.46,29.543,39.447,29.583C39.432,29.631,39.418,29.678,39.418,29.73C39.418,29.784,39.433,29.832,39.447,29.88C39.46,29.919,39.472,29.958,39.476,30L39.476,34.229L43.831,34.229C43.853,34.231,43.875,34.238,43.896,34.244C43.923,34.252,43.95,34.261,43.98,34.261C44.006,34.261,44.031,34.253,44.057,34.245C44.08,34.238,44.103,34.231,44.129,34.229L48.484,34.229L48.484,30.005C48.486,29.96,48.498,29.918,48.51,29.876C48.524,29.829,48.538,29.782,48.538,29.73C48.538,29.681,48.525,29.636,48.511,29.59C48.499,29.547,48.486,29.503,48.484,29.455L48.484,25.221L44.07,25.221C44.054,25.221,44.04,25.217,44.025,25.212C44.01,25.208,43.996,25.203,43.98,25.203C43.964,25.203,43.949,25.208,43.935,25.212C43.92,25.217,43.906,25.221,43.89,25.221ZM36.684,61.279L51.272,61.279C52.231,61.279,53.01,60.374,53.01,59.261C53.01,58.149,52.231,57.244,51.272,57.244L48.484,56.748L48.484,38.733C48.484,38.569,48.498,38.501,48.511,38.44C48.512,38.433,48.514,38.425,48.515,38.418C48.466,38.535,48.353,38.679,48.006,38.679L36.684,38.679C35.724,38.679,34.95,39.584,34.95,40.697C34.95,41.809,35.724,42.714,36.684,42.714L39.476,43.237L39.476,56.748L36.684,57.244C35.724,57.244,34.95,58.149,34.95,59.261C34.95,60.374,35.724,61.279,36.684,61.279ZM43.237,7.206C23.334,7.206,7.206,23.339,7.206,43.237C7.206,63.135,23.334,79.267,43.237,79.267C63.135,79.267,79.267,63.135,79.267,43.237C79.267,23.339,63.135,7.206,43.237,7.206ZM43.237,7.206"/>
</g>
  <g id="Thin-S" transform="matrix(1.0,0.0,0.0,1.0,814.4732057883523,616.4955422585227)">  <path fill-rule="evenodd" stroke-linecap="butt" stroke-width="1px" stroke="none" clip-rule="evenodd" fill="#000000" stroke-opacity="1" stroke-miterlimit="4" stroke-linejoin="miter" fill-opacity="1" stroke-dasharray="none" d="M43.89,25.221L39.476,25.221L39.476,29.46C39.472,29.503,39.46,29.543,39.447,29.583C39.432,29.631,39.418,29.678,39.418,29.73C39.418,29.784,39.433,29.832,39.447,29.88C39.46,29.919,39.472,29.958,39.476,30L39.476,34.229L43.831,34.229C43.853,34.231,43.875,34.238,43.896,34.244C43.923,34.252,43.95,34.261,43.98,34.261C44.006,34.261,44.031,34.253,44.057,34.245C44.08,34.238,44.103,34.231,44.129,34.229L48.484,34.229L48.484,30.005C48.486,29.96,48.498,29.918,48.51,29.876C48.524,29.829,48.538,29.782,48.538,29.73C48.538,29.681,48.525,29.636,48.511,29.59C48.499,29.547,48.486,29.503,48.484,29.455L48.484,25.221L44.07,25.221C44.054,25.221,44.04,25.217,44.025,25.212C44.01,25.208,43.996,25.203,43.98,25.203C43.964,25.203,43.949,25.208,43.935,25.212C43.92,25.217,43.906,25.221,43.89,25.221ZM36.684,61.279L51.272,61.279C52.231,61.279,53.01,60.374,53.01,59.261C53.01,58.149,52.231,57.244,51.272,57.244L48.484,56.748L48.484,38.733C48.484,38.569,48.498,38.501,48.511,38.44C48.512,38.433,48.514,38.425,48.515,38.418C48.466,38.535,48.353,38.679,48.006,38.679L36.684,38.679C35.724,38.679,34.95,39.584,34.95,40.697C34.95,41.809,35.724,42.714,36.684,42.714L39.476,43.237L39.476,56.748L36.684,57.244C35.724,57.244,34.95,58.149,34.95,59.261C34.95,60.374,35.724,61.279,36.684,61.279ZM43.237,7.206C23.334,7.206,7.206,23.339,7.206,43.237C7.206,63.135,23.334,79.267,43.237,79.267C63.135,79.267,79.267,63.135,79.267,43.237C79.267,23.339,63.135,7.206,43.237,7.206ZM43.237,7.206"/>
</g>
  <g id="Ultralight-S" transform="matrix(1.0,0.0,0.0,1.0,517.7632057883523,616.4955422585227)">  <path fill="#000000" stroke-dasharray="none" clip-rule="evenodd" fill-opacity="1" stroke-linejoin="miter" stroke-miterlimit="4" stroke-opacity="1" fill-rule="evenodd" stroke-width="1px" stroke-linecap="butt" stroke="none" d="M43.89,25.221L39.476,25.221L39.476,29.46C39.472,29.503,39.46,29.543,39.447,29.583C39.432,29.631,39.418,29.678,39.418,29.73C39.418,29.784,39.433,29.832,39.447,29.88C39.46,29.919,39.472,29.958,39.476,30L39.476,34.229L43.831,34.229C43.853,34.231,43.875,34.238,43.896,34.244C43.923,34.252,43.95,34.261,43.98,34.261C44.006,34.261,44.031,34.253,44.057,34.245C44.08,34.238,44.103,34.231,44.129,34.229L48.484,34.229L48.484,30.005C48.486,29.96,48.498,29.918,48.51,29.876C48.524,29.829,48.538,29.782,48.538,29.73C48.538,29.681,48.525,29.636,48.511,29.59C48.499,29.547,48.486,29.503,48.484,29.455L48.484,25.221L44.07,25.221C44.054,25.221,44.04,25.217,44.025,25.212C44.01,25.208,43.996,25.203,43.98,25.203C43.964,25.203,43.949,25.208,43.935,25.212C43.92,25.217,43.906,25.221,43.89,25.221ZM36.684,61.279L51.272,61.279C52.231,61.279,53.01,60.374,53.01,59.261C53.01,58.149,52.231,57.244,51.272,57.244L48.484,56.748L48.484,38.733C48.484,38.569,48.498,38.501,48.511,38.44C48.512,38.433,48.514,38.425,48.515,38.418C48.466,38.535,48.353,38.679,48.006,38.679L36.684,38.679C35.724,38.679,34.95,39.584,34.95,40.697C34.95,41.809,35.724,42.714,36.684,42.714L39.476,43.237L39.476,56.748L36.684,57.244C35.724,57.244,34.95,58.149,34.95,59.261C34.95,60.374,35.724,61.279,36.684,61.279ZM43.237,7.206C23.334,7.206,7.206,23.339,7.206,43.237C7.206,63.135,23.334,79.267,43.237,79.267C63.135,79.267,79.267,63.135,79.267,43.237C79.267,23.339,63.135,7.206,43.237,7.206ZM43.237,7.206"/>
</g>
 </g>
</svg>
