<?xml version="1.0" encoding="UTF-8"?>
<!-- Generator: CustomSymbols v2.6.1.40 by @serious_bret https://bretlester.com/app_content/CustomSymbols/ -->
<!-- Guides: Left/Right 0.082/0.084 Cap/Base 0.169/0.169 -->
<!-- Settings: RefScale 1.0 Min/Max Stroke Scales 0.5/2.21 -->
<!DOCTYPE svg
PUBLIC "-//W3C//DTD SVG 1.1//EN"
       "http://www.w3.org/Graphics/SVG/1.1/DTD/svg11.dtd">
<svg version="1.1" xmlns="http://www.w3.org/2000/svg" xmlns:xlink="http://www.w3.org/1999/xlink" width="3300" height="2200">
<![CDATA[<svg width="24" height="24" viewBox="0 0 24 24" fill="none" xmlns="http://www.w3.org/2000/svg">
<path fill-rule="evenodd" clip-rule="evenodd" d="M21.6515 19.6859L21.6725 19.7067L21.6707 19.7084C21.8703 19.9479 21.9904 20.2566 21.9904 20.5936C21.9904 21.355 21.3768 21.9723 20.6199 21.9723C20.1812 21.9723 19.7907 21.7651 19.5399 21.4426L14.5768 16.5347C13.2867 17.41 11.7252 17.9224 10.0464 17.9224C5.6141 17.9224 2.00964 14.3567 2.00964 9.97508C2.00964 5.59344 5.6141 2.02771 10.0464 2.02771C14.4773 2.02771 18.0831 5.59344 18.0831 9.97508C18.0831 11.7161 17.513 13.3291 16.5488 14.6399L21.5043 19.5403C21.5569 19.5851 21.6062 19.6337 21.6515 19.6859ZM10 4.00002C6.69104 4.00002 4.00004 6.69245 4.00004 10C4.00004 13.3076 6.69104 16 10 16C13.3076 16 16 13.3076 16 10C16 6.69245 13.3076 4.00002 10 4.00002ZM11 8.00002C11 7.44773 10.5523 7.00002 10 7.00002C9.44776 7.00002 9.00004 7.44773 9.00004 8.00002V9.00002H8.00004C7.44776 9.00002 7.00004 9.44773 7.00004 10C7.00004 10.5523 7.44776 11 8.00004 11H9.00004V12C9.00004 12.5523 9.44776 13 10 13C10.5523 13 11 12.5523 11 12V11H12C12.5523 11 13 10.5523 13 10C13 9.44773 12.5523 9.00002 12 9.00002H11V8.00002Z" fill="black"/>
</svg>
]]>
 <g id="Notes">
  <rect height="2200" id="artboard" style="fill:white;opacity:1" width="3300" x="0" y="0"/>
  <line id="" style="fill:none;stroke:black;opacity:1;stroke-width:0.5;" x1="263" x2="3036" y1="292" y2="292"/>
  <text id="reftext1" style="stroke:none;fill:black;font-family:-apple-system,&quot;SF Pro Display&quot;,&quot;SF Pro Text&quot;,Helvetica,sans-serif;font-weight:bold;" transform="matrix(1 0 0 1 263 322)">Weight/Scale Variations</text>
  <text id="reftext2" style="stroke:none;fill:black;font-family:-apple-system,&quot;SF Pro Display&quot;,&quot;SF Pro Text&quot;,Helvetica,sans-serif;text-anchor:middle;" transform="matrix(1 0 0 1 559.711 322)">Ultralight</text>
  <text style="stroke:none;fill:black;font-family:-apple-system,&quot;SF Pro Display&quot;,&quot;SF Pro Text&quot;,Helvetica,sans-serif;text-anchor:middle;" transform="matrix(1 0 0 1 856.422 322)">Thin</text>
  <text style="stroke:none;fill:black;font-family:-apple-system,&quot;SF Pro Display&quot;,&quot;SF Pro Text&quot;,Helvetica,sans-serif;text-anchor:middle;" transform="matrix(1 0 0 1 1153.13 322)">Light</text>
  <text style="stroke:none;fill:black;font-family:-apple-system,&quot;SF Pro Display&quot;,&quot;SF Pro Text&quot;,Helvetica,sans-serif;text-anchor:middle;" transform="matrix(1 0 0 1 1449.84 322)">Regular</text>
  <text style="stroke:none;fill:black;font-family:-apple-system,&quot;SF Pro Display&quot;,&quot;SF Pro Text&quot;,Helvetica,sans-serif;text-anchor:middle;" transform="matrix(1 0 0 1 1746.56 322)">Medium</text>
  <text style="stroke:none;fill:black;font-family:-apple-system,&quot;SF Pro Display&quot;,&quot;SF Pro Text&quot;,Helvetica,sans-serif;text-anchor:middle;" transform="matrix(1 0 0 1 2043.27 322)">Semibold</text>
  <text style="stroke:none;fill:black;font-family:-apple-system,&quot;SF Pro Display&quot;,&quot;SF Pro Text&quot;,Helvetica,sans-serif;text-anchor:middle;" transform="matrix(1 0 0 1 2339.98 322)">Bold</text>
  <text style="stroke:none;fill:black;font-family:-apple-system,&quot;SF Pro Display&quot;,&quot;SF Pro Text&quot;,Helvetica,sans-serif;text-anchor:middle;" transform="matrix(1 0 0 1 2636.69 322)">Heavy</text>
  <text style="stroke:none;fill:black;font-family:-apple-system,&quot;SF Pro Display&quot;,&quot;SF Pro Text&quot;,Helvetica,sans-serif;text-anchor:middle;" transform="matrix(1 0 0 1 2933.4 322)">Black</text>
  <line id="" style="fill:none;stroke:black;opacity:1;stroke-width:0.5;" x1="263" x2="3036" y1="1903" y2="1903"/>
  <g id="" transform="matrix(1 0 0 1 263 1933)">
   <path d="M9.24805 0.830078C13.5547 0.830078 17.1387-2.74414 17.1387-7.05078C17.1387-11.3574 13.5449-14.9316 9.23828-14.9316C4.94141-14.9316 1.36719-11.3574 1.36719-7.05078C1.36719-2.74414 4.95117 0.830078 9.24805 0.830078ZM9.24805-0.654297C5.70312-0.654297 2.87109-3.49609 2.87109-7.05078C2.87109-10.6055 5.69336-13.4473 9.23828-13.4473C12.793-13.4473 15.6348-10.6055 15.6445-7.05078C15.6543-3.49609 12.8027-0.654297 9.24805-0.654297ZM6.39648-6.31836L8.50586-6.31836L8.50586-4.19922C8.50586-3.75977 8.79883-3.45703 9.22852-3.45703C9.67773-3.45703 9.9707-3.75977 9.9707-4.19922L9.9707-6.31836L12.0996-6.31836C12.5391-6.31836 12.8418-6.61133 12.8418-7.04102C12.8418-7.48047 12.5391-7.7832 12.0996-7.7832L9.9707-7.7832L9.9707-9.89258C9.9707-10.3418 9.67773-10.6445 9.22852-10.6445C8.79883-10.6445 8.50586-10.3418 8.50586-9.89258L8.50586-7.7832L6.39648-7.7832C5.94727-7.7832 5.64453-7.48047 5.64453-7.04102C5.64453-6.61133 5.94727-6.31836 6.39648-6.31836Z"/>
  </g>
  <g id="" transform="matrix(1 0 0 1 281.506 1933)">
   <path d="M11.709 2.91016C17.1582 2.91016 21.6699-1.61133 21.6699-7.05078C21.6699-12.5 17.1484-17.0117 11.6992-17.0117C6.25977-17.0117 1.74805-12.5 1.74805-7.05078C1.74805-1.61133 6.26953 2.91016 11.709 2.91016ZM11.709 1.25C7.09961 1.25 3.41797-2.44141 3.41797-7.05078C3.41797-11.6602 7.08984-15.3516 11.6992-15.3516C16.3086-15.3516 20-11.6602 20.0098-7.05078C20.0195-2.44141 16.3184 1.25 11.709 1.25ZM7.98828-6.23047L10.8789-6.23047L10.8789-3.32031C10.8789-2.83203 11.2109-2.5 11.6895-2.5C12.1777-2.5 12.5195-2.83203 12.5195-3.32031L12.5195-6.23047L15.4297-6.23047C15.918-6.23047 16.25-6.5625 16.25-7.04102C16.25-7.5293 15.918-7.87109 15.4297-7.87109L12.5195-7.87109L12.5195-10.7617C12.5195-11.2695 12.1777-11.6016 11.6895-11.6016C11.2109-11.6016 10.8789-11.2598 10.8789-10.7617L10.8789-7.87109L7.98828-7.87109C7.48047-7.87109 7.14844-7.5293 7.14844-7.04102C7.14844-6.5625 7.49023-6.23047 7.98828-6.23047Z"/>
  </g>
  <g id="" transform="matrix(1 0 0 1 304.924 1933)">
   <path d="M14.9707 5.66406C21.9336 5.66406 27.6953-0.0976562 27.6953-7.05078C27.6953-14.0137 21.9238-19.7754 14.9609-19.7754C8.00781-19.7754 2.25586-14.0137 2.25586-7.05078C2.25586-0.0976562 8.01758 5.66406 14.9707 5.66406ZM14.9707 3.84766C8.93555 3.84766 4.08203-1.01562 4.08203-7.05078C4.08203-13.0957 8.92578-17.9492 14.9609-17.9492C21.0059-17.9492 25.8594-13.0957 25.8691-7.05078C25.8789-1.01562 21.0156 3.84766 14.9707 3.84766ZM10.0586-6.14258L14.0625-6.14258L14.0625-2.12891C14.0625-1.5918 14.4336-1.2207 14.9512-1.2207C15.4883-1.2207 15.8594-1.5918 15.8594-2.12891L15.8594-6.14258L19.8828-6.14258C20.4102-6.14258 20.791-6.51367 20.791-7.03125C20.791-7.56836 20.4199-7.94922 19.8828-7.94922L15.8594-7.94922L15.8594-11.9531C15.8594-12.5098 15.4883-12.8809 14.9512-12.8809C14.4336-12.8809 14.0625-12.5 14.0625-11.9531L14.0625-7.94922L10.0586-7.94922C9.50195-7.94922 9.13086-7.56836 9.13086-7.03125C9.13086-6.51367 9.51172-6.14258 10.0586-6.14258Z"/>
  </g>
  <text style="stroke:none;fill:black;font-family:-apple-system,&quot;SF Pro Display&quot;,&quot;SF Pro Text&quot;,Helvetica,sans-serif;font-weight:bold;" transform="matrix(1 0 0 1 263 1953)">Design Variations</text>
  <text style="stroke:none;fill:black;font-family:-apple-system,&quot;SF Pro Display&quot;,&quot;SF Pro Text&quot;,Helvetica,sans-serif;" transform="matrix(1 0 0 1 263 1971)">Symbols are supported in up to nine weights and three scales.</text>
  <text style="stroke:none;fill:black;font-family:-apple-system,&quot;SF Pro Display&quot;,&quot;SF Pro Text&quot;,Helvetica,sans-serif;" transform="matrix(1 0 0 1 263 1989)">For optimal layout with text and other symbols, vertically align</text>
  <text style="stroke:none;fill:black;font-family:-apple-system,&quot;SF Pro Display&quot;,&quot;SF Pro Text&quot;,Helvetica,sans-serif;" transform="matrix(1 0 0 1 263 2007)">symbols with the adjacent text.</text>
  <line id="" style="fill:none;stroke:#00AEEF;stroke-width:0.5;opacity:1.0;" x1="776" x2="776" y1="1919" y2="1933"/>
  <g id="" transform="matrix(1 0 0 1 776 1933)">
   <path d="M3.31055 0.126953C3.82812 0.126953 4.08203-0.0683594 4.26758-0.605469L5.52734-4.0625L11.2891-4.0625L12.5488-0.605469C12.7344-0.0683594 12.9883 0.126953 13.4961 0.126953C14.0137 0.126953 14.3457-0.185547 14.3457-0.673828C14.3457-0.839844 14.3164-0.986328 14.2383-1.20117L9.6582-13.3887C9.43359-13.9941 9.0332-14.2871 8.4082-14.2871C7.80273-14.2871 7.39258-13.9941 7.17773-13.3984L2.59766-1.19141C2.51953-0.976562 2.49023-0.830078 2.49023-0.664062C2.49023-0.175781 2.80273 0.126953 3.31055 0.126953ZM6.00586-5.53711L8.37891-12.1094L8.42773-12.1094L10.8008-5.53711Z"/>
  </g>
  <line id="" style="fill:none;stroke:#00AEEF;stroke-width:0.5;opacity:1.0;" x1="792.836" x2="792.836" y1="1919" y2="1933"/>
  <text style="stroke:none;fill:black;font-family:-apple-system,&quot;SF Pro Display&quot;,&quot;SF Pro Text&quot;,Helvetica,sans-serif;font-weight:bold;" transform="matrix(1 0 0 1 776 1953)">Margins</text>
  <text style="stroke:none;fill:black;font-family:-apple-system,&quot;SF Pro Display&quot;,&quot;SF Pro Text&quot;,Helvetica,sans-serif;" transform="matrix(1 0 0 1 776 1971)">Leading and trailing margins on the left and right side of each symbol</text>
  <text style="stroke:none;fill:black;font-family:-apple-system,&quot;SF Pro Display&quot;,&quot;SF Pro Text&quot;,Helvetica,sans-serif;" transform="matrix(1 0 0 1 776 1989)">can be adjusted by modifying the x-location of the margin guidelines.</text>
  <text style="stroke:none;fill:black;font-family:-apple-system,&quot;SF Pro Display&quot;,&quot;SF Pro Text&quot;,Helvetica,sans-serif;" transform="matrix(1 0 0 1 776 2007)">Modifications are automatically applied proportionally to all</text>
  <text style="stroke:none;fill:black;font-family:-apple-system,&quot;SF Pro Display&quot;,&quot;SF Pro Text&quot;,Helvetica,sans-serif;" transform="matrix(1 0 0 1 776 2025)">scales and weights.</text>
  <g id="" transform="matrix(1 0 0 1 1289 1933)">
   <path d="M2.8418 1.86523L4.54102 3.57422C5.40039 4.44336 6.38672 4.38477 7.31445 3.35938L17.4902-7.85156C17.7539-7.76367 18.0273-7.7832 18.3398-7.8418L19.4043-8.03711L20.0684-7.36328L20.0293-6.80664C19.9902-6.30859 20.1172-5.92773 20.6055-5.44922L21.3672-4.70703C21.8457-4.22852 22.4609-4.19922 22.9297-4.66797L25.8398-7.58789C26.3086-8.05664 26.2891-8.65234 25.8105-9.13086L25.0391-9.89258C24.5605-10.3711 24.1895-10.5273 23.7109-10.4883L23.1348-10.4395L22.4902-11.0742L22.7344-12.1973C22.8613-12.7637 22.7051-13.2031 22.1191-13.7891L19.9219-15.9766C16.582-19.2969 12.1484-19.2188 9.25781-16.3281C8.83789-15.918 8.80859-15.3418 9.04297-14.9512C9.27734-14.5898 9.73633-14.3555 10.3809-14.5215C11.8457-14.8633 13.3691-14.9219 14.7949-13.9844L14.209-12.5293C14.0137-12.0508 13.9844-11.6504 14.1113-11.2891L3.04688-0.898438C2.06055 0.0195312 1.98242 0.996094 2.8418 1.86523ZM10.752-15.957C13.1836-17.7344 16.4746-17.4316 18.7012-15.2051L21.1328-12.793C21.3672-12.5586 21.4062-12.373 21.3379-12.0312L21.0156-10.5469L22.5195-9.0625L23.5059-9.12109C23.7598-9.13086 23.8379-9.11133 24.0332-8.91602L24.6094-8.33984L22.168-5.89844L21.5918-6.47461C21.3965-6.66992 21.3672-6.74805 21.377-7.01172L21.4453-7.98828L19.9512-9.47266L18.4277-9.21875C18.1055-9.15039 17.959-9.17969 17.7148-9.41406L15.7129-11.416C15.459-11.6504 15.4297-11.8164 15.5859-12.1875L16.4648-14.2773C14.9023-15.7324 12.8711-16.3574 10.8398-15.7617C10.6836-15.7227 10.625-15.8496 10.752-15.957ZM5.27344 2.30469L4.10156 1.14258C3.63281 0.683594 3.74023 0.341797 4.14062-0.0195312L14.9512-10.1953L16.416-8.71094L6.42578 2.27539C6.07422 2.67578 5.74219 2.77344 5.27344 2.30469Z"/>
  </g>
  <text style="stroke:none;fill:black;font-family:-apple-system,&quot;SF Pro Display&quot;,&quot;SF Pro Text&quot;,Helvetica,sans-serif;font-weight:bold;" transform="matrix(1 0 0 1 1289 1953)">Exporting</text>
  <text style="stroke:none;fill:black;font-family:-apple-system,&quot;SF Pro Display&quot;,&quot;SF Pro Text&quot;,Helvetica,sans-serif;" transform="matrix(1 0 0 1 1289 1971)">Symbols should be outlined when exporting to ensure the</text>
  <text style="stroke:none;fill:black;font-family:-apple-system,&quot;SF Pro Display&quot;,&quot;SF Pro Text&quot;,Helvetica,sans-serif;" transform="matrix(1 0 0 1 1289 1989)">design is preserved when submitting to Xcode.</text>
  <text id="template-version" style="stroke:none;fill:black;font-family:-apple-system,&quot;SF Pro Display&quot;,&quot;SF Pro Text&quot;,Helvetica,sans-serif;text-anchor:end;" transform="matrix(1 0 0 1 3036 1933)">Template v.2.0</text>
  <text style="stroke:none;fill:black;font-family:-apple-system,&quot;SF Pro Display&quot;,&quot;SF Pro Text&quot;,Helvetica,sans-serif;text-anchor:end;" transform="matrix(1 0 0 1 3036 1951)">Requires Xcode 12 or greater</text>
  <text style="stroke:none;fill:black;font-family:-apple-system,&quot;SF Pro Display&quot;,&quot;SF Pro Text&quot;,Helvetica,sans-serif;" transform="matrix(1 0 0 1 263 726)">Small</text>
  <text style="stroke:none;fill:black;font-family:-apple-system,&quot;SF Pro Display&quot;,&quot;SF Pro Text&quot;,Helvetica,sans-serif;" transform="matrix(1 0 0 1 263 1156)">Medium</text>
  <text style="stroke:none;fill:black;font-family:-apple-system,&quot;SF Pro Display&quot;,&quot;SF Pro Text&quot;,Helvetica,sans-serif;" transform="matrix(1 0 0 1 263 1586)">Large</text>
 </g>
 <g id="Guides">
  <g id="H-reference" style="fill:#27AAE1;stroke:none;" transform="matrix(1 0 0 1 339 696)">
   <path d="M0.976562 0L3.66211 0L12.9883-24.4629L45.752-24.4629L55.127 0L57.7637 0L30.6152-70.459L28.125-70.459ZM29.3457-67.1387L29.4434-67.1387L44.873-26.709L13.8672-26.709Z"/>
  </g>
  <line id="Baseline-S" style="fill:none;stroke:#27AAE1;opacity:1;stroke-width:0.5;" x1="263" x2="3036" y1="696" y2="696"/>
  <line id="Capline-S" style="fill:none;stroke:#27AAE1;opacity:1;stroke-width:0.5;" x1="263" x2="3036" y1="625.541" y2="625.541"/>
  <g id="H-reference" style="fill:#27AAE1;stroke:none;" transform="matrix(1 0 0 1 339 1126)">
   <path d="M0.976562 0L3.66211 0L12.9883-24.4629L45.752-24.4629L55.127 0L57.7637 0L30.6152-70.459L28.125-70.459ZM29.3457-67.1387L29.4434-67.1387L44.873-26.709L13.8672-26.709Z"/>
  </g>
  <line id="Baseline-M" style="fill:none;stroke:#27AAE1;opacity:1;stroke-width:0.5;" x1="263" x2="3036" y1="1126" y2="1126"/>
  <line id="Capline-M" style="fill:none;stroke:#27AAE1;opacity:1;stroke-width:0.5;" x1="263" x2="3036" y1="1055.54" y2="1055.54"/>
  <g id="H-reference" style="fill:#27AAE1;stroke:none;" transform="matrix(1 0 0 1 339 1556)">
   <path d="M0.976562 0L3.66211 0L12.9883-24.4629L45.752-24.4629L55.127 0L57.7637 0L30.6152-70.459L28.125-70.459ZM29.3457-67.1387L29.4434-67.1387L44.873-26.709L13.8672-26.709Z"/>
  </g>
  <line id="Baseline-L" style="fill:none;stroke:#27AAE1;opacity:1;stroke-width:0.5;" x1="263" x2="3036" y1="1556" y2="1556"/>
  <line id="Capline-L" style="fill:none;stroke:#27AAE1;opacity:1;stroke-width:0.5;" x1="263" x2="3036" y1="1485.54" y2="1485.54"/>
  <line id="left-margin" x1="1406.6401757222432" x2="1406.6401757222432" y1="1030.79" y2="1150.12" style="fill:none;stroke:#00AEEF;stroke-width:0.5;opacity:1.0;"/>
  <line id="right-margin" x1="1495.406954305136" x2="1495.406954305136" y1="1030.79" y2="1150.12" style="fill:none;stroke:#00AEEF;stroke-width:0.5;opacity:1.0;"/>
 </g>
 <g id="Symbols">
  <g id="Black-L" transform="matrix(1.0,0.0,0.0,1.0,2866.029433829777,1452.1194533610271)">  <path fill-opacity="1" stroke-dasharray="none" stroke-opacity="1" fill="#000000" stroke="none" stroke-linejoin="miter" stroke-width="1px" stroke-miterlimit="4" fill-rule="evenodd" stroke-linecap="butt" clip-rule="evenodd" d="M123.866,112.621L123.986,112.74L123.975,112.749C125.117,114.12,125.804,115.886,125.804,117.814C125.804,122.169,122.294,125.701,117.964,125.701C115.454,125.701,113.22,124.516,111.785,122.671L83.392,94.593C76.012,99.601,67.078,102.532,57.474,102.532C32.118,102.532,11.497,82.133,11.497,57.066C11.497,31.999,32.118,11.6,57.474,11.6C82.823,11.6,103.451,31.999,103.451,57.066C103.451,67.026,100.19,76.254,94.674,83.753L123.024,111.788C123.324,112.044,123.606,112.322,123.866,112.621ZM57.209,22.884C38.279,22.884,22.884,38.287,22.884,57.209C22.884,76.131,38.279,91.534,57.209,91.534C76.131,91.534,91.534,76.131,91.534,57.209C91.534,38.287,76.131,22.884,57.209,22.884ZM62.93,45.767C62.93,42.608,60.368,40.046,57.209,40.046C54.05,40.046,51.488,42.608,51.488,45.767L51.488,51.488L45.767,51.488C42.608,51.488,40.046,54.049,40.046,57.209C40.046,60.368,42.608,62.93,45.767,62.93L51.488,62.93L51.488,68.651C51.488,71.81,54.05,74.371,57.209,74.371C60.368,74.371,62.93,71.81,62.93,68.651L62.93,62.93L68.651,62.93C71.81,62.93,74.371,60.368,74.371,57.209C74.371,54.049,71.81,51.488,68.651,51.488L62.93,51.488L62.93,45.767ZM62.93,45.767"/>
</g>
  <g id="Heavy-L" transform="matrix(1.0,0.0,0.0,1.0,2569.319433829777,1452.1194533610271)">  <path clip-rule="evenodd" stroke-dasharray="none" fill="#000000" fill-rule="evenodd" stroke-linecap="butt" stroke-linejoin="miter" stroke-miterlimit="4" fill-opacity="1" stroke="none" stroke-opacity="1" stroke-width="1px" d="M123.866,112.621L123.986,112.74L123.975,112.749C125.117,114.12,125.804,115.886,125.804,117.814C125.804,122.169,122.294,125.701,117.964,125.701C115.454,125.701,113.22,124.516,111.785,122.671L83.392,94.593C76.012,99.601,67.078,102.532,57.474,102.532C32.118,102.532,11.497,82.133,11.497,57.066C11.497,31.999,32.118,11.6,57.474,11.6C82.823,11.6,103.451,31.999,103.451,57.066C103.451,67.026,100.19,76.254,94.674,83.753L123.024,111.788C123.324,112.044,123.606,112.322,123.866,112.621ZM57.209,22.884C38.279,22.884,22.884,38.287,22.884,57.209C22.884,76.131,38.279,91.534,57.209,91.534C76.131,91.534,91.534,76.131,91.534,57.209C91.534,38.287,76.131,22.884,57.209,22.884ZM62.93,45.767C62.93,42.608,60.368,40.046,57.209,40.046C54.05,40.046,51.488,42.608,51.488,45.767L51.488,51.488L45.767,51.488C42.608,51.488,40.046,54.049,40.046,57.209C40.046,60.368,42.608,62.93,45.767,62.93L51.488,62.93L51.488,68.651C51.488,71.81,54.05,74.371,57.209,74.371C60.368,74.371,62.93,71.81,62.93,68.651L62.93,62.93L68.651,62.93C71.81,62.93,74.371,60.368,74.371,57.209C74.371,54.049,71.81,51.488,68.651,51.488L62.93,51.488L62.93,45.767ZM62.93,45.767"/>
</g>
  <g id="Bold-L" transform="matrix(1.0,0.0,0.0,1.0,2272.609433829777,1452.1194533610271)">  <path stroke-linejoin="miter" stroke-opacity="1" fill-rule="evenodd" stroke-dasharray="none" fill="#000000" clip-rule="evenodd" fill-opacity="1" stroke-miterlimit="4" stroke="none" stroke-width="1px" stroke-linecap="butt" d="M123.866,112.621L123.986,112.74L123.975,112.749C125.117,114.12,125.804,115.886,125.804,117.814C125.804,122.169,122.294,125.701,117.964,125.701C115.454,125.701,113.22,124.516,111.785,122.671L83.392,94.593C76.012,99.601,67.078,102.532,57.474,102.532C32.118,102.532,11.497,82.133,11.497,57.066C11.497,31.999,32.118,11.6,57.474,11.6C82.823,11.6,103.451,31.999,103.451,57.066C103.451,67.026,100.19,76.254,94.674,83.753L123.024,111.788C123.324,112.044,123.606,112.322,123.866,112.621ZM57.209,22.884C38.279,22.884,22.884,38.287,22.884,57.209C22.884,76.131,38.279,91.534,57.209,91.534C76.131,91.534,91.534,76.131,91.534,57.209C91.534,38.287,76.131,22.884,57.209,22.884ZM62.93,45.767C62.93,42.608,60.368,40.046,57.209,40.046C54.05,40.046,51.488,42.608,51.488,45.767L51.488,51.488L45.767,51.488C42.608,51.488,40.046,54.049,40.046,57.209C40.046,60.368,42.608,62.93,45.767,62.93L51.488,62.93L51.488,68.651C51.488,71.81,54.05,74.371,57.209,74.371C60.368,74.371,62.93,71.81,62.93,68.651L62.93,62.93L68.651,62.93C71.81,62.93,74.371,60.368,74.371,57.209C74.371,54.049,71.81,51.488,68.651,51.488L62.93,51.488L62.93,45.767ZM62.93,45.767"/>
</g>
  <g id="Semibold-L" transform="matrix(1.0,0.0,0.0,1.0,1975.899433829777,1452.1194533610271)">  <path fill-opacity="1" stroke-miterlimit="4" stroke-opacity="1" stroke-dasharray="none" clip-rule="evenodd" stroke="none" stroke-linejoin="miter" stroke-width="1px" stroke-linecap="butt" fill="#000000" fill-rule="evenodd" d="M123.866,112.621L123.986,112.74L123.975,112.749C125.117,114.12,125.804,115.886,125.804,117.814C125.804,122.169,122.294,125.701,117.964,125.701C115.454,125.701,113.22,124.516,111.785,122.671L83.392,94.593C76.012,99.601,67.078,102.532,57.474,102.532C32.118,102.532,11.497,82.133,11.497,57.066C11.497,31.999,32.118,11.6,57.474,11.6C82.823,11.6,103.451,31.999,103.451,57.066C103.451,67.026,100.19,76.254,94.674,83.753L123.024,111.788C123.324,112.044,123.606,112.322,123.866,112.621ZM57.209,22.884C38.279,22.884,22.884,38.287,22.884,57.209C22.884,76.131,38.279,91.534,57.209,91.534C76.131,91.534,91.534,76.131,91.534,57.209C91.534,38.287,76.131,22.884,57.209,22.884ZM62.93,45.767C62.93,42.608,60.368,40.046,57.209,40.046C54.05,40.046,51.488,42.608,51.488,45.767L51.488,51.488L45.767,51.488C42.608,51.488,40.046,54.049,40.046,57.209C40.046,60.368,42.608,62.93,45.767,62.93L51.488,62.93L51.488,68.651C51.488,71.81,54.05,74.371,57.209,74.371C60.368,74.371,62.93,71.81,62.93,68.651L62.93,62.93L68.651,62.93C71.81,62.93,74.371,60.368,74.371,57.209C74.371,54.049,71.81,51.488,68.651,51.488L62.93,51.488L62.93,45.767ZM62.93,45.767"/>
</g>
  <g id="Medium-L" transform="matrix(1.0,0.0,0.0,1.0,1679.189433829777,1452.1194533610271)">  <path stroke-opacity="1" fill="#000000" stroke-width="1px" stroke-linejoin="miter" stroke-linecap="butt" clip-rule="evenodd" fill-opacity="1" fill-rule="evenodd" stroke="none" stroke-miterlimit="4" stroke-dasharray="none" d="M123.866,112.621L123.986,112.74L123.975,112.749C125.117,114.12,125.804,115.886,125.804,117.814C125.804,122.169,122.294,125.701,117.964,125.701C115.454,125.701,113.22,124.516,111.785,122.671L83.392,94.593C76.012,99.601,67.078,102.532,57.474,102.532C32.118,102.532,11.497,82.133,11.497,57.066C11.497,31.999,32.118,11.6,57.474,11.6C82.823,11.6,103.451,31.999,103.451,57.066C103.451,67.026,100.19,76.254,94.674,83.753L123.024,111.788C123.324,112.044,123.606,112.322,123.866,112.621ZM57.209,22.884C38.279,22.884,22.884,38.287,22.884,57.209C22.884,76.131,38.279,91.534,57.209,91.534C76.131,91.534,91.534,76.131,91.534,57.209C91.534,38.287,76.131,22.884,57.209,22.884ZM62.93,45.767C62.93,42.608,60.368,40.046,57.209,40.046C54.05,40.046,51.488,42.608,51.488,45.767L51.488,51.488L45.767,51.488C42.608,51.488,40.046,54.049,40.046,57.209C40.046,60.368,42.608,62.93,45.767,62.93L51.488,62.93L51.488,68.651C51.488,71.81,54.05,74.371,57.209,74.371C60.368,74.371,62.93,71.81,62.93,68.651L62.93,62.93L68.651,62.93C71.81,62.93,74.371,60.368,74.371,57.209C74.371,54.049,71.81,51.488,68.651,51.488L62.93,51.488L62.93,45.767ZM62.93,45.767"/>
</g>
  <g id="Regular-L" transform="matrix(1.0,0.0,0.0,1.0,1382.479433829777,1452.1194533610271)">  <path stroke-linejoin="miter" stroke="none" stroke-opacity="1" fill="#000000" stroke-miterlimit="4" stroke-linecap="butt" stroke-width="1px" fill-rule="evenodd" clip-rule="evenodd" stroke-dasharray="none" fill-opacity="1" d="M123.866,112.621L123.986,112.74L123.975,112.749C125.117,114.12,125.804,115.886,125.804,117.814C125.804,122.169,122.294,125.701,117.964,125.701C115.454,125.701,113.22,124.516,111.785,122.671L83.392,94.593C76.012,99.601,67.078,102.532,57.474,102.532C32.118,102.532,11.497,82.133,11.497,57.066C11.497,31.999,32.118,11.6,57.474,11.6C82.823,11.6,103.451,31.999,103.451,57.066C103.451,67.026,100.19,76.254,94.674,83.753L123.024,111.788C123.324,112.044,123.606,112.322,123.866,112.621ZM57.209,22.884C38.279,22.884,22.884,38.287,22.884,57.209C22.884,76.131,38.279,91.534,57.209,91.534C76.131,91.534,91.534,76.131,91.534,57.209C91.534,38.287,76.131,22.884,57.209,22.884ZM62.93,45.767C62.93,42.608,60.368,40.046,57.209,40.046C54.05,40.046,51.488,42.608,51.488,45.767L51.488,51.488L45.767,51.488C42.608,51.488,40.046,54.049,40.046,57.209C40.046,60.368,42.608,62.93,45.767,62.93L51.488,62.93L51.488,68.651C51.488,71.81,54.05,74.371,57.209,74.371C60.368,74.371,62.93,71.81,62.93,68.651L62.93,62.93L68.651,62.93C71.81,62.93,74.371,60.368,74.371,57.209C74.371,54.049,71.81,51.488,68.651,51.488L62.93,51.488L62.93,45.767ZM62.93,45.767"/>
</g>
  <g id="Light-L" transform="matrix(1.0,0.0,0.0,1.0,1085.7694338297772,1452.1194533610271)">  <path stroke-dasharray="none" stroke-linejoin="miter" fill-rule="evenodd" stroke-miterlimit="4" fill="#000000" fill-opacity="1" stroke="none" stroke-linecap="butt" clip-rule="evenodd" stroke-opacity="1" stroke-width="1px" d="M123.866,112.621L123.986,112.74L123.975,112.749C125.117,114.12,125.804,115.886,125.804,117.814C125.804,122.169,122.294,125.701,117.964,125.701C115.454,125.701,113.22,124.516,111.785,122.671L83.392,94.593C76.012,99.601,67.078,102.532,57.474,102.532C32.118,102.532,11.497,82.133,11.497,57.066C11.497,31.999,32.118,11.6,57.474,11.6C82.823,11.6,103.451,31.999,103.451,57.066C103.451,67.026,100.19,76.254,94.674,83.753L123.024,111.788C123.324,112.044,123.606,112.322,123.866,112.621ZM57.209,22.884C38.279,22.884,22.884,38.287,22.884,57.209C22.884,76.131,38.279,91.534,57.209,91.534C76.131,91.534,91.534,76.131,91.534,57.209C91.534,38.287,76.131,22.884,57.209,22.884ZM62.93,45.767C62.93,42.608,60.368,40.046,57.209,40.046C54.05,40.046,51.488,42.608,51.488,45.767L51.488,51.488L45.767,51.488C42.608,51.488,40.046,54.049,40.046,57.209C40.046,60.368,42.608,62.93,45.767,62.93L51.488,62.93L51.488,68.651C51.488,71.81,54.05,74.371,57.209,74.371C60.368,74.371,62.93,71.81,62.93,68.651L62.93,62.93L68.651,62.93C71.81,62.93,74.371,60.368,74.371,57.209C74.371,54.049,71.81,51.488,68.651,51.488L62.93,51.488L62.93,45.767ZM62.93,45.767"/>
</g>
  <g id="Thin-L" transform="matrix(1.0,0.0,0.0,1.0,789.0594338297772,1452.1194533610271)">  <path fill-rule="evenodd" clip-rule="evenodd" stroke-dasharray="none" stroke-width="1px" fill-opacity="1" stroke-miterlimit="4" stroke-linejoin="miter" fill="#000000" stroke-opacity="1" stroke-linecap="butt" stroke="none" d="M123.866,112.621L123.986,112.74L123.975,112.749C125.117,114.12,125.804,115.886,125.804,117.814C125.804,122.169,122.294,125.701,117.964,125.701C115.454,125.701,113.22,124.516,111.785,122.671L83.392,94.593C76.012,99.601,67.078,102.532,57.474,102.532C32.118,102.532,11.497,82.133,11.497,57.066C11.497,31.999,32.118,11.6,57.474,11.6C82.823,11.6,103.451,31.999,103.451,57.066C103.451,67.026,100.19,76.254,94.674,83.753L123.024,111.788C123.324,112.044,123.606,112.322,123.866,112.621ZM57.209,22.884C38.279,22.884,22.884,38.287,22.884,57.209C22.884,76.131,38.279,91.534,57.209,91.534C76.131,91.534,91.534,76.131,91.534,57.209C91.534,38.287,76.131,22.884,57.209,22.884ZM62.93,45.767C62.93,42.608,60.368,40.046,57.209,40.046C54.05,40.046,51.488,42.608,51.488,45.767L51.488,51.488L45.767,51.488C42.608,51.488,40.046,54.049,40.046,57.209C40.046,60.368,42.608,62.93,45.767,62.93L51.488,62.93L51.488,68.651C51.488,71.81,54.05,74.371,57.209,74.371C60.368,74.371,62.93,71.81,62.93,68.651L62.93,62.93L68.651,62.93C71.81,62.93,74.371,60.368,74.371,57.209C74.371,54.049,71.81,51.488,68.651,51.488L62.93,51.488L62.93,45.767ZM62.93,45.767"/>
</g>
  <g id="Ultralight-L" transform="matrix(1.0,0.0,0.0,1.0,492.3494338297772,1452.1194533610271)">  <path stroke-linejoin="miter" stroke-opacity="1" fill-rule="evenodd" fill="#000000" fill-opacity="1" stroke-dasharray="none" clip-rule="evenodd" stroke="none" stroke-linecap="butt" stroke-miterlimit="4" stroke-width="1px" d="M123.866,112.621L123.986,112.74L123.975,112.749C125.117,114.12,125.804,115.886,125.804,117.814C125.804,122.169,122.294,125.701,117.964,125.701C115.454,125.701,113.22,124.516,111.785,122.671L83.392,94.593C76.012,99.601,67.078,102.532,57.474,102.532C32.118,102.532,11.497,82.133,11.497,57.066C11.497,31.999,32.118,11.6,57.474,11.6C82.823,11.6,103.451,31.999,103.451,57.066C103.451,67.026,100.19,76.254,94.674,83.753L123.024,111.788C123.324,112.044,123.606,112.322,123.866,112.621ZM57.209,22.884C38.279,22.884,22.884,38.287,22.884,57.209C22.884,76.131,38.279,91.534,57.209,91.534C76.131,91.534,91.534,76.131,91.534,57.209C91.534,38.287,76.131,22.884,57.209,22.884ZM62.93,45.767C62.93,42.608,60.368,40.046,57.209,40.046C54.05,40.046,51.488,42.608,51.488,45.767L51.488,51.488L45.767,51.488C42.608,51.488,40.046,54.049,40.046,57.209C40.046,60.368,42.608,62.93,45.767,62.93L51.488,62.93L51.488,68.651C51.488,71.81,54.05,74.371,57.209,74.371C60.368,74.371,62.93,71.81,62.93,68.651L62.93,62.93L68.651,62.93C71.81,62.93,74.371,60.368,74.371,57.209C74.371,54.049,71.81,51.488,68.651,51.488L62.93,51.488L62.93,45.767ZM62.93,45.767"/>
</g>
  <g id="Black-M" transform="matrix(1.0,0.0,0.0,1.0,2881.4625068447885,1037.5525263760385)">  <path fill-opacity="1" stroke-dasharray="none" stroke-opacity="1" fill="#000000" stroke="none" stroke-linejoin="miter" stroke-width="1px" stroke-miterlimit="4" fill-rule="evenodd" stroke-linecap="butt" clip-rule="evenodd" d="M96.02,87.303L96.113,87.395L96.105,87.403C96.99,88.465,97.523,89.834,97.523,91.328C97.523,94.705,94.802,97.443,91.445,97.443C89.499,97.443,87.768,96.524,86.655,95.093L64.645,73.328C58.924,77.21,51.999,79.482,44.554,79.482C24.897,79.482,8.912,63.669,8.912,44.237C8.912,24.806,24.897,8.992,44.554,8.992C64.204,8.992,80.195,24.806,80.195,44.237C80.195,51.958,77.666,59.112,73.39,64.925L95.367,86.657C95.6,86.856,95.819,87.071,96.02,87.303ZM44.348,17.739C29.673,17.739,17.739,29.68,17.739,44.348C17.739,59.016,29.673,70.957,44.348,70.957C59.016,70.957,70.957,59.016,70.957,44.348C70.957,29.68,59.016,17.739,44.348,17.739ZM48.783,35.478C48.783,33.029,46.797,31.044,44.348,31.044C41.899,31.044,39.913,33.029,39.913,35.478L39.913,39.913L35.479,39.913C33.029,39.913,31.044,41.899,31.044,44.348C31.044,46.797,33.029,48.783,35.479,48.783L39.913,48.783L39.913,53.217C39.913,55.667,41.899,57.652,44.348,57.652C46.797,57.652,48.783,55.667,48.783,53.217L48.783,48.783L53.217,48.783C55.667,48.783,57.652,46.797,57.652,44.348C57.652,41.899,55.667,39.913,53.217,39.913L48.783,39.913L48.783,35.478ZM48.783,35.478"/>
</g>
  <g id="Heavy-M" transform="matrix(1.0,0.0,0.0,1.0,2584.7525068447885,1037.5525263760385)">  <path clip-rule="evenodd" stroke-dasharray="none" fill="#000000" fill-rule="evenodd" stroke-linecap="butt" stroke-linejoin="miter" stroke-miterlimit="4" fill-opacity="1" stroke="none" stroke-opacity="1" stroke-width="1px" d="M96.02,87.303L96.113,87.395L96.105,87.403C96.99,88.465,97.523,89.834,97.523,91.328C97.523,94.705,94.802,97.443,91.445,97.443C89.499,97.443,87.768,96.524,86.655,95.093L64.645,73.328C58.924,77.21,51.999,79.482,44.554,79.482C24.897,79.482,8.912,63.669,8.912,44.237C8.912,24.806,24.897,8.992,44.554,8.992C64.204,8.992,80.195,24.806,80.195,44.237C80.195,51.958,77.666,59.112,73.39,64.925L95.367,86.657C95.6,86.856,95.819,87.071,96.02,87.303ZM44.348,17.739C29.673,17.739,17.739,29.68,17.739,44.348C17.739,59.016,29.673,70.957,44.348,70.957C59.016,70.957,70.957,59.016,70.957,44.348C70.957,29.68,59.016,17.739,44.348,17.739ZM48.783,35.478C48.783,33.029,46.797,31.044,44.348,31.044C41.899,31.044,39.913,33.029,39.913,35.478L39.913,39.913L35.479,39.913C33.029,39.913,31.044,41.899,31.044,44.348C31.044,46.797,33.029,48.783,35.479,48.783L39.913,48.783L39.913,53.217C39.913,55.667,41.899,57.652,44.348,57.652C46.797,57.652,48.783,55.667,48.783,53.217L48.783,48.783L53.217,48.783C55.667,48.783,57.652,46.797,57.652,44.348C57.652,41.899,55.667,39.913,53.217,39.913L48.783,39.913L48.783,35.478ZM48.783,35.478"/>
</g>
  <g id="Bold-M" transform="matrix(1.0,0.0,0.0,1.0,2288.0425068447885,1037.5525263760385)">  <path stroke-linejoin="miter" stroke-opacity="1" fill-rule="evenodd" stroke-dasharray="none" fill="#000000" clip-rule="evenodd" fill-opacity="1" stroke-miterlimit="4" stroke="none" stroke-width="1px" stroke-linecap="butt" d="M96.02,87.303L96.113,87.395L96.105,87.403C96.99,88.465,97.523,89.834,97.523,91.328C97.523,94.705,94.802,97.443,91.445,97.443C89.499,97.443,87.768,96.524,86.655,95.093L64.645,73.328C58.924,77.21,51.999,79.482,44.554,79.482C24.897,79.482,8.912,63.669,8.912,44.237C8.912,24.806,24.897,8.992,44.554,8.992C64.204,8.992,80.195,24.806,80.195,44.237C80.195,51.958,77.666,59.112,73.39,64.925L95.367,86.657C95.6,86.856,95.819,87.071,96.02,87.303ZM44.348,17.739C29.673,17.739,17.739,29.68,17.739,44.348C17.739,59.016,29.673,70.957,44.348,70.957C59.016,70.957,70.957,59.016,70.957,44.348C70.957,29.68,59.016,17.739,44.348,17.739ZM48.783,35.478C48.783,33.029,46.797,31.044,44.348,31.044C41.899,31.044,39.913,33.029,39.913,35.478L39.913,39.913L35.479,39.913C33.029,39.913,31.044,41.899,31.044,44.348C31.044,46.797,33.029,48.783,35.479,48.783L39.913,48.783L39.913,53.217C39.913,55.667,41.899,57.652,44.348,57.652C46.797,57.652,48.783,55.667,48.783,53.217L48.783,48.783L53.217,48.783C55.667,48.783,57.652,46.797,57.652,44.348C57.652,41.899,55.667,39.913,53.217,39.913L48.783,39.913L48.783,35.478ZM48.783,35.478"/>
</g>
  <g id="Semibold-M" transform="matrix(1.0,0.0,0.0,1.0,1991.3325068447884,1037.5525263760385)">  <path fill-opacity="1" stroke-miterlimit="4" stroke-opacity="1" stroke-dasharray="none" clip-rule="evenodd" stroke="none" stroke-linejoin="miter" stroke-width="1px" stroke-linecap="butt" fill="#000000" fill-rule="evenodd" d="M96.02,87.303L96.113,87.395L96.105,87.403C96.99,88.465,97.523,89.834,97.523,91.328C97.523,94.705,94.802,97.443,91.445,97.443C89.499,97.443,87.768,96.524,86.655,95.093L64.645,73.328C58.924,77.21,51.999,79.482,44.554,79.482C24.897,79.482,8.912,63.669,8.912,44.237C8.912,24.806,24.897,8.992,44.554,8.992C64.204,8.992,80.195,24.806,80.195,44.237C80.195,51.958,77.666,59.112,73.39,64.925L95.367,86.657C95.6,86.856,95.819,87.071,96.02,87.303ZM44.348,17.739C29.673,17.739,17.739,29.68,17.739,44.348C17.739,59.016,29.673,70.957,44.348,70.957C59.016,70.957,70.957,59.016,70.957,44.348C70.957,29.68,59.016,17.739,44.348,17.739ZM48.783,35.478C48.783,33.029,46.797,31.044,44.348,31.044C41.899,31.044,39.913,33.029,39.913,35.478L39.913,39.913L35.479,39.913C33.029,39.913,31.044,41.899,31.044,44.348C31.044,46.797,33.029,48.783,35.479,48.783L39.913,48.783L39.913,53.217C39.913,55.667,41.899,57.652,44.348,57.652C46.797,57.652,48.783,55.667,48.783,53.217L48.783,48.783L53.217,48.783C55.667,48.783,57.652,46.797,57.652,44.348C57.652,41.899,55.667,39.913,53.217,39.913L48.783,39.913L48.783,35.478ZM48.783,35.478"/>
</g>
  <g id="Medium-M" transform="matrix(1.0,0.0,0.0,1.0,1694.6225068447884,1037.5525263760385)">  <path stroke-opacity="1" fill="#000000" stroke-width="1px" stroke-linejoin="miter" stroke-linecap="butt" clip-rule="evenodd" fill-opacity="1" fill-rule="evenodd" stroke="none" stroke-miterlimit="4" stroke-dasharray="none" d="M96.02,87.303L96.113,87.395L96.105,87.403C96.99,88.465,97.523,89.834,97.523,91.328C97.523,94.705,94.802,97.443,91.445,97.443C89.499,97.443,87.768,96.524,86.655,95.093L64.645,73.328C58.924,77.21,51.999,79.482,44.554,79.482C24.897,79.482,8.912,63.669,8.912,44.237C8.912,24.806,24.897,8.992,44.554,8.992C64.204,8.992,80.195,24.806,80.195,44.237C80.195,51.958,77.666,59.112,73.39,64.925L95.367,86.657C95.6,86.856,95.819,87.071,96.02,87.303ZM44.348,17.739C29.673,17.739,17.739,29.68,17.739,44.348C17.739,59.016,29.673,70.957,44.348,70.957C59.016,70.957,70.957,59.016,70.957,44.348C70.957,29.68,59.016,17.739,44.348,17.739ZM48.783,35.478C48.783,33.029,46.797,31.044,44.348,31.044C41.899,31.044,39.913,33.029,39.913,35.478L39.913,39.913L35.479,39.913C33.029,39.913,31.044,41.899,31.044,44.348C31.044,46.797,33.029,48.783,35.479,48.783L39.913,48.783L39.913,53.217C39.913,55.667,41.899,57.652,44.348,57.652C46.797,57.652,48.783,55.667,48.783,53.217L48.783,48.783L53.217,48.783C55.667,48.783,57.652,46.797,57.652,44.348C57.652,41.899,55.667,39.913,53.217,39.913L48.783,39.913L48.783,35.478ZM48.783,35.478"/>
</g>
  <g id="Regular-M" transform="matrix(1.0,0.0,0.0,1.0,1397.9125068447884,1037.5525263760385)">  <path stroke-linejoin="miter" stroke="none" stroke-opacity="1" fill="#000000" stroke-miterlimit="4" stroke-linecap="butt" stroke-width="1px" fill-rule="evenodd" clip-rule="evenodd" stroke-dasharray="none" fill-opacity="1" d="M96.02,87.303L96.113,87.395L96.105,87.403C96.99,88.465,97.523,89.834,97.523,91.328C97.523,94.705,94.802,97.443,91.445,97.443C89.499,97.443,87.768,96.524,86.655,95.093L64.645,73.328C58.924,77.21,51.999,79.482,44.554,79.482C24.897,79.482,8.912,63.669,8.912,44.237C8.912,24.806,24.897,8.992,44.554,8.992C64.204,8.992,80.195,24.806,80.195,44.237C80.195,51.958,77.666,59.112,73.39,64.925L95.367,86.657C95.6,86.856,95.819,87.071,96.02,87.303ZM44.348,17.739C29.673,17.739,17.739,29.68,17.739,44.348C17.739,59.016,29.673,70.957,44.348,70.957C59.016,70.957,70.957,59.016,70.957,44.348C70.957,29.68,59.016,17.739,44.348,17.739ZM48.783,35.478C48.783,33.029,46.797,31.044,44.348,31.044C41.899,31.044,39.913,33.029,39.913,35.478L39.913,39.913L35.479,39.913C33.029,39.913,31.044,41.899,31.044,44.348C31.044,46.797,33.029,48.783,35.479,48.783L39.913,48.783L39.913,53.217C39.913,55.667,41.899,57.652,44.348,57.652C46.797,57.652,48.783,55.667,48.783,53.217L48.783,48.783L53.217,48.783C55.667,48.783,57.652,46.797,57.652,44.348C57.652,41.899,55.667,39.913,53.217,39.913L48.783,39.913L48.783,35.478ZM48.783,35.478"/>
</g>
  <g id="Light-M" transform="matrix(1.0,0.0,0.0,1.0,1101.2025068447886,1037.5525263760385)">  <path stroke-dasharray="none" stroke-linejoin="miter" fill-rule="evenodd" stroke-miterlimit="4" fill="#000000" fill-opacity="1" stroke="none" stroke-linecap="butt" clip-rule="evenodd" stroke-opacity="1" stroke-width="1px" d="M96.02,87.303L96.113,87.395L96.105,87.403C96.99,88.465,97.523,89.834,97.523,91.328C97.523,94.705,94.802,97.443,91.445,97.443C89.499,97.443,87.768,96.524,86.655,95.093L64.645,73.328C58.924,77.21,51.999,79.482,44.554,79.482C24.897,79.482,8.912,63.669,8.912,44.237C8.912,24.806,24.897,8.992,44.554,8.992C64.204,8.992,80.195,24.806,80.195,44.237C80.195,51.958,77.666,59.112,73.39,64.925L95.367,86.657C95.6,86.856,95.819,87.071,96.02,87.303ZM44.348,17.739C29.673,17.739,17.739,29.68,17.739,44.348C17.739,59.016,29.673,70.957,44.348,70.957C59.016,70.957,70.957,59.016,70.957,44.348C70.957,29.68,59.016,17.739,44.348,17.739ZM48.783,35.478C48.783,33.029,46.797,31.044,44.348,31.044C41.899,31.044,39.913,33.029,39.913,35.478L39.913,39.913L35.479,39.913C33.029,39.913,31.044,41.899,31.044,44.348C31.044,46.797,33.029,48.783,35.479,48.783L39.913,48.783L39.913,53.217C39.913,55.667,41.899,57.652,44.348,57.652C46.797,57.652,48.783,55.667,48.783,53.217L48.783,48.783L53.217,48.783C55.667,48.783,57.652,46.797,57.652,44.348C57.652,41.899,55.667,39.913,53.217,39.913L48.783,39.913L48.783,35.478ZM48.783,35.478"/>
</g>
  <g id="Thin-M" transform="matrix(1.0,0.0,0.0,1.0,804.4925068447885,1037.5525263760385)">  <path fill-rule="evenodd" clip-rule="evenodd" stroke-dasharray="none" stroke-width="1px" fill-opacity="1" stroke-miterlimit="4" stroke-linejoin="miter" fill="#000000" stroke-opacity="1" stroke-linecap="butt" stroke="none" d="M96.02,87.303L96.113,87.395L96.105,87.403C96.99,88.465,97.523,89.834,97.523,91.328C97.523,94.705,94.802,97.443,91.445,97.443C89.499,97.443,87.768,96.524,86.655,95.093L64.645,73.328C58.924,77.21,51.999,79.482,44.554,79.482C24.897,79.482,8.912,63.669,8.912,44.237C8.912,24.806,24.897,8.992,44.554,8.992C64.204,8.992,80.195,24.806,80.195,44.237C80.195,51.958,77.666,59.112,73.39,64.925L95.367,86.657C95.6,86.856,95.819,87.071,96.02,87.303ZM44.348,17.739C29.673,17.739,17.739,29.68,17.739,44.348C17.739,59.016,29.673,70.957,44.348,70.957C59.016,70.957,70.957,59.016,70.957,44.348C70.957,29.68,59.016,17.739,44.348,17.739ZM48.783,35.478C48.783,33.029,46.797,31.044,44.348,31.044C41.899,31.044,39.913,33.029,39.913,35.478L39.913,39.913L35.479,39.913C33.029,39.913,31.044,41.899,31.044,44.348C31.044,46.797,33.029,48.783,35.479,48.783L39.913,48.783L39.913,53.217C39.913,55.667,41.899,57.652,44.348,57.652C46.797,57.652,48.783,55.667,48.783,53.217L48.783,48.783L53.217,48.783C55.667,48.783,57.652,46.797,57.652,44.348C57.652,41.899,55.667,39.913,53.217,39.913L48.783,39.913L48.783,35.478ZM48.783,35.478"/>
</g>
  <g id="Ultralight-M" transform="matrix(1.0,0.0,0.0,1.0,507.7825068447885,1037.5525263760385)">  <path stroke-linejoin="miter" stroke-opacity="1" fill-rule="evenodd" fill="#000000" fill-opacity="1" stroke-dasharray="none" clip-rule="evenodd" stroke="none" stroke-linecap="butt" stroke-miterlimit="4" stroke-width="1px" d="M96.02,87.303L96.113,87.395L96.105,87.403C96.99,88.465,97.523,89.834,97.523,91.328C97.523,94.705,94.802,97.443,91.445,97.443C89.499,97.443,87.768,96.524,86.655,95.093L64.645,73.328C58.924,77.21,51.999,79.482,44.554,79.482C24.897,79.482,8.912,63.669,8.912,44.237C8.912,24.806,24.897,8.992,44.554,8.992C64.204,8.992,80.195,24.806,80.195,44.237C80.195,51.958,77.666,59.112,73.39,64.925L95.367,86.657C95.6,86.856,95.819,87.071,96.02,87.303ZM44.348,17.739C29.673,17.739,17.739,29.68,17.739,44.348C17.739,59.016,29.673,70.957,44.348,70.957C59.016,70.957,70.957,59.016,70.957,44.348C70.957,29.68,59.016,17.739,44.348,17.739ZM48.783,35.478C48.783,33.029,46.797,31.044,44.348,31.044C41.899,31.044,39.913,33.029,39.913,35.478L39.913,39.913L35.479,39.913C33.029,39.913,31.044,41.899,31.044,44.348C31.044,46.797,33.029,48.783,35.479,48.783L39.913,48.783L39.913,53.217C39.913,55.667,41.899,57.652,44.348,57.652C46.797,57.652,48.783,55.667,48.783,53.217L48.783,48.783L53.217,48.783C55.667,48.783,57.652,46.797,57.652,44.348C57.652,41.899,55.667,39.913,53.217,39.913L48.783,39.913L48.783,35.478ZM48.783,35.478"/>
</g>
  <g id="Black-S" transform="matrix(1.0,0.0,0.0,1.0,2893.0107028594693,619.1007223907194)">  <path fill-opacity="1" stroke-dasharray="none" stroke-opacity="1" fill="#000000" stroke="none" stroke-linejoin="miter" stroke-width="1px" stroke-miterlimit="4" fill-rule="evenodd" stroke-linecap="butt" clip-rule="evenodd" d="M75.184,68.358L75.256,68.43L75.25,68.436C75.943,69.268,76.36,70.34,76.36,71.51C76.36,74.154,74.23,76.298,71.601,76.298C70.078,76.298,68.722,75.578,67.851,74.458L50.617,57.416C46.137,60.455,40.715,62.234,34.886,62.234C19.495,62.234,6.978,49.853,6.978,34.638C6.978,19.423,19.495,7.041,34.886,7.041C50.272,7.041,62.793,19.423,62.793,34.638C62.793,40.683,60.813,46.285,57.465,50.836L74.672,67.853C74.855,68.008,75.026,68.177,75.184,68.358ZM34.724,13.89C23.234,13.89,13.89,23.239,13.89,34.724C13.89,46.21,23.234,55.559,34.724,55.559C46.21,55.559,55.559,46.21,55.559,34.724C55.559,23.239,46.21,13.89,34.724,13.89ZM38.197,27.78C38.197,25.862,36.642,24.307,34.724,24.307C32.807,24.307,31.252,25.862,31.252,27.78L31.252,31.252L27.78,31.252C25.862,31.252,24.307,32.807,24.307,34.724C24.307,36.642,25.862,38.197,27.78,38.197L31.252,38.197L31.252,41.669C31.252,43.587,32.807,45.142,34.724,45.142C36.642,45.142,38.197,43.587,38.197,41.669L38.197,38.197L41.669,38.197C43.587,38.197,45.142,36.642,45.142,34.724C45.142,32.807,43.587,31.252,41.669,31.252L38.197,31.252L38.197,27.78ZM38.197,27.78"/>
</g>
  <g id="Heavy-S" transform="matrix(1.0,0.0,0.0,1.0,2596.3007028594693,619.1007223907194)">  <path clip-rule="evenodd" stroke-dasharray="none" fill="#000000" fill-rule="evenodd" stroke-linecap="butt" stroke-linejoin="miter" stroke-miterlimit="4" fill-opacity="1" stroke="none" stroke-opacity="1" stroke-width="1px" d="M75.184,68.358L75.256,68.43L75.25,68.436C75.943,69.268,76.36,70.34,76.36,71.51C76.36,74.154,74.23,76.298,71.601,76.298C70.078,76.298,68.722,75.578,67.851,74.458L50.617,57.416C46.137,60.455,40.715,62.234,34.886,62.234C19.495,62.234,6.978,49.853,6.978,34.638C6.978,19.423,19.495,7.041,34.886,7.041C50.272,7.041,62.793,19.423,62.793,34.638C62.793,40.683,60.813,46.285,57.465,50.836L74.672,67.853C74.855,68.008,75.026,68.177,75.184,68.358ZM34.724,13.89C23.234,13.89,13.89,23.239,13.89,34.724C13.89,46.21,23.234,55.559,34.724,55.559C46.21,55.559,55.559,46.21,55.559,34.724C55.559,23.239,46.21,13.89,34.724,13.89ZM38.197,27.78C38.197,25.862,36.642,24.307,34.724,24.307C32.807,24.307,31.252,25.862,31.252,27.78L31.252,31.252L27.78,31.252C25.862,31.252,24.307,32.807,24.307,34.724C24.307,36.642,25.862,38.197,27.78,38.197L31.252,38.197L31.252,41.669C31.252,43.587,32.807,45.142,34.724,45.142C36.642,45.142,38.197,43.587,38.197,41.669L38.197,38.197L41.669,38.197C43.587,38.197,45.142,36.642,45.142,34.724C45.142,32.807,43.587,31.252,41.669,31.252L38.197,31.252L38.197,27.78ZM38.197,27.78"/>
</g>
  <g id="Bold-S" transform="matrix(1.0,0.0,0.0,1.0,2299.5907028594693,619.1007223907194)">  <path stroke-linejoin="miter" stroke-opacity="1" fill-rule="evenodd" stroke-dasharray="none" fill="#000000" clip-rule="evenodd" fill-opacity="1" stroke-miterlimit="4" stroke="none" stroke-width="1px" stroke-linecap="butt" d="M75.184,68.358L75.256,68.43L75.25,68.436C75.943,69.268,76.36,70.34,76.36,71.51C76.36,74.154,74.23,76.298,71.601,76.298C70.078,76.298,68.722,75.578,67.851,74.458L50.617,57.416C46.137,60.455,40.715,62.234,34.886,62.234C19.495,62.234,6.978,49.853,6.978,34.638C6.978,19.423,19.495,7.041,34.886,7.041C50.272,7.041,62.793,19.423,62.793,34.638C62.793,40.683,60.813,46.285,57.465,50.836L74.672,67.853C74.855,68.008,75.026,68.177,75.184,68.358ZM34.724,13.89C23.234,13.89,13.89,23.239,13.89,34.724C13.89,46.21,23.234,55.559,34.724,55.559C46.21,55.559,55.559,46.21,55.559,34.724C55.559,23.239,46.21,13.89,34.724,13.89ZM38.197,27.78C38.197,25.862,36.642,24.307,34.724,24.307C32.807,24.307,31.252,25.862,31.252,27.78L31.252,31.252L27.78,31.252C25.862,31.252,24.307,32.807,24.307,34.724C24.307,36.642,25.862,38.197,27.78,38.197L31.252,38.197L31.252,41.669C31.252,43.587,32.807,45.142,34.724,45.142C36.642,45.142,38.197,43.587,38.197,41.669L38.197,38.197L41.669,38.197C43.587,38.197,45.142,36.642,45.142,34.724C45.142,32.807,43.587,31.252,41.669,31.252L38.197,31.252L38.197,27.78ZM38.197,27.78"/>
</g>
  <g id="Semibold-S" transform="matrix(1.0,0.0,0.0,1.0,2002.8807028594695,619.1007223907194)">  <path fill-opacity="1" stroke-miterlimit="4" stroke-opacity="1" stroke-dasharray="none" clip-rule="evenodd" stroke="none" stroke-linejoin="miter" stroke-width="1px" stroke-linecap="butt" fill="#000000" fill-rule="evenodd" d="M75.184,68.358L75.256,68.43L75.25,68.436C75.943,69.268,76.36,70.34,76.36,71.51C76.36,74.154,74.23,76.298,71.601,76.298C70.078,76.298,68.722,75.578,67.851,74.458L50.617,57.416C46.137,60.455,40.715,62.234,34.886,62.234C19.495,62.234,6.978,49.853,6.978,34.638C6.978,19.423,19.495,7.041,34.886,7.041C50.272,7.041,62.793,19.423,62.793,34.638C62.793,40.683,60.813,46.285,57.465,50.836L74.672,67.853C74.855,68.008,75.026,68.177,75.184,68.358ZM34.724,13.89C23.234,13.89,13.89,23.239,13.89,34.724C13.89,46.21,23.234,55.559,34.724,55.559C46.21,55.559,55.559,46.21,55.559,34.724C55.559,23.239,46.21,13.89,34.724,13.89ZM38.197,27.78C38.197,25.862,36.642,24.307,34.724,24.307C32.807,24.307,31.252,25.862,31.252,27.78L31.252,31.252L27.78,31.252C25.862,31.252,24.307,32.807,24.307,34.724C24.307,36.642,25.862,38.197,27.78,38.197L31.252,38.197L31.252,41.669C31.252,43.587,32.807,45.142,34.724,45.142C36.642,45.142,38.197,43.587,38.197,41.669L38.197,38.197L41.669,38.197C43.587,38.197,45.142,36.642,45.142,34.724C45.142,32.807,43.587,31.252,41.669,31.252L38.197,31.252L38.197,27.78ZM38.197,27.78"/>
</g>
  <g id="Medium-S" transform="matrix(1.0,0.0,0.0,1.0,1706.1707028594694,619.1007223907194)">  <path stroke-opacity="1" fill="#000000" stroke-width="1px" stroke-linejoin="miter" stroke-linecap="butt" clip-rule="evenodd" fill-opacity="1" fill-rule="evenodd" stroke="none" stroke-miterlimit="4" stroke-dasharray="none" d="M75.184,68.358L75.256,68.43L75.25,68.436C75.943,69.268,76.36,70.34,76.36,71.51C76.36,74.154,74.23,76.298,71.601,76.298C70.078,76.298,68.722,75.578,67.851,74.458L50.617,57.416C46.137,60.455,40.715,62.234,34.886,62.234C19.495,62.234,6.978,49.853,6.978,34.638C6.978,19.423,19.495,7.041,34.886,7.041C50.272,7.041,62.793,19.423,62.793,34.638C62.793,40.683,60.813,46.285,57.465,50.836L74.672,67.853C74.855,68.008,75.026,68.177,75.184,68.358ZM34.724,13.89C23.234,13.89,13.89,23.239,13.89,34.724C13.89,46.21,23.234,55.559,34.724,55.559C46.21,55.559,55.559,46.21,55.559,34.724C55.559,23.239,46.21,13.89,34.724,13.89ZM38.197,27.78C38.197,25.862,36.642,24.307,34.724,24.307C32.807,24.307,31.252,25.862,31.252,27.78L31.252,31.252L27.78,31.252C25.862,31.252,24.307,32.807,24.307,34.724C24.307,36.642,25.862,38.197,27.78,38.197L31.252,38.197L31.252,41.669C31.252,43.587,32.807,45.142,34.724,45.142C36.642,45.142,38.197,43.587,38.197,41.669L38.197,38.197L41.669,38.197C43.587,38.197,45.142,36.642,45.142,34.724C45.142,32.807,43.587,31.252,41.669,31.252L38.197,31.252L38.197,27.78ZM38.197,27.78"/>
</g>
  <g id="Regular-S" transform="matrix(1.0,0.0,0.0,1.0,1409.4607028594694,619.1007223907194)">  <path stroke-linejoin="miter" stroke="none" stroke-opacity="1" fill="#000000" stroke-miterlimit="4" stroke-linecap="butt" stroke-width="1px" fill-rule="evenodd" clip-rule="evenodd" stroke-dasharray="none" fill-opacity="1" d="M75.184,68.358L75.256,68.43L75.25,68.436C75.943,69.268,76.36,70.34,76.36,71.51C76.36,74.154,74.23,76.298,71.601,76.298C70.078,76.298,68.722,75.578,67.851,74.458L50.617,57.416C46.137,60.455,40.715,62.234,34.886,62.234C19.495,62.234,6.978,49.853,6.978,34.638C6.978,19.423,19.495,7.041,34.886,7.041C50.272,7.041,62.793,19.423,62.793,34.638C62.793,40.683,60.813,46.285,57.465,50.836L74.672,67.853C74.855,68.008,75.026,68.177,75.184,68.358ZM34.724,13.89C23.234,13.89,13.89,23.239,13.89,34.724C13.89,46.21,23.234,55.559,34.724,55.559C46.21,55.559,55.559,46.21,55.559,34.724C55.559,23.239,46.21,13.89,34.724,13.89ZM38.197,27.78C38.197,25.862,36.642,24.307,34.724,24.307C32.807,24.307,31.252,25.862,31.252,27.78L31.252,31.252L27.78,31.252C25.862,31.252,24.307,32.807,24.307,34.724C24.307,36.642,25.862,38.197,27.78,38.197L31.252,38.197L31.252,41.669C31.252,43.587,32.807,45.142,34.724,45.142C36.642,45.142,38.197,43.587,38.197,41.669L38.197,38.197L41.669,38.197C43.587,38.197,45.142,36.642,45.142,34.724C45.142,32.807,43.587,31.252,41.669,31.252L38.197,31.252L38.197,27.78ZM38.197,27.78"/>
</g>
  <g id="Light-S" transform="matrix(1.0,0.0,0.0,1.0,1112.7507028594696,619.1007223907194)">  <path stroke-dasharray="none" stroke-linejoin="miter" fill-rule="evenodd" stroke-miterlimit="4" fill="#000000" fill-opacity="1" stroke="none" stroke-linecap="butt" clip-rule="evenodd" stroke-opacity="1" stroke-width="1px" d="M75.184,68.358L75.256,68.43L75.25,68.436C75.943,69.268,76.36,70.34,76.36,71.51C76.36,74.154,74.23,76.298,71.601,76.298C70.078,76.298,68.722,75.578,67.851,74.458L50.617,57.416C46.137,60.455,40.715,62.234,34.886,62.234C19.495,62.234,6.978,49.853,6.978,34.638C6.978,19.423,19.495,7.041,34.886,7.041C50.272,7.041,62.793,19.423,62.793,34.638C62.793,40.683,60.813,46.285,57.465,50.836L74.672,67.853C74.855,68.008,75.026,68.177,75.184,68.358ZM34.724,13.89C23.234,13.89,13.89,23.239,13.89,34.724C13.89,46.21,23.234,55.559,34.724,55.559C46.21,55.559,55.559,46.21,55.559,34.724C55.559,23.239,46.21,13.89,34.724,13.89ZM38.197,27.78C38.197,25.862,36.642,24.307,34.724,24.307C32.807,24.307,31.252,25.862,31.252,27.78L31.252,31.252L27.78,31.252C25.862,31.252,24.307,32.807,24.307,34.724C24.307,36.642,25.862,38.197,27.78,38.197L31.252,38.197L31.252,41.669C31.252,43.587,32.807,45.142,34.724,45.142C36.642,45.142,38.197,43.587,38.197,41.669L38.197,38.197L41.669,38.197C43.587,38.197,45.142,36.642,45.142,34.724C45.142,32.807,43.587,31.252,41.669,31.252L38.197,31.252L38.197,27.78ZM38.197,27.78"/>
</g>
  <g id="Thin-S" transform="matrix(1.0,0.0,0.0,1.0,816.0407028594694,619.1007223907194)">  <path fill-rule="evenodd" clip-rule="evenodd" stroke-dasharray="none" stroke-width="1px" fill-opacity="1" stroke-miterlimit="4" stroke-linejoin="miter" fill="#000000" stroke-opacity="1" stroke-linecap="butt" stroke="none" d="M75.184,68.358L75.256,68.43L75.25,68.436C75.943,69.268,76.36,70.34,76.36,71.51C76.36,74.154,74.23,76.298,71.601,76.298C70.078,76.298,68.722,75.578,67.851,74.458L50.617,57.416C46.137,60.455,40.715,62.234,34.886,62.234C19.495,62.234,6.978,49.853,6.978,34.638C6.978,19.423,19.495,7.041,34.886,7.041C50.272,7.041,62.793,19.423,62.793,34.638C62.793,40.683,60.813,46.285,57.465,50.836L74.672,67.853C74.855,68.008,75.026,68.177,75.184,68.358ZM34.724,13.89C23.234,13.89,13.89,23.239,13.89,34.724C13.89,46.21,23.234,55.559,34.724,55.559C46.21,55.559,55.559,46.21,55.559,34.724C55.559,23.239,46.21,13.89,34.724,13.89ZM38.197,27.78C38.197,25.862,36.642,24.307,34.724,24.307C32.807,24.307,31.252,25.862,31.252,27.78L31.252,31.252L27.78,31.252C25.862,31.252,24.307,32.807,24.307,34.724C24.307,36.642,25.862,38.197,27.78,38.197L31.252,38.197L31.252,41.669C31.252,43.587,32.807,45.142,34.724,45.142C36.642,45.142,38.197,43.587,38.197,41.669L38.197,38.197L41.669,38.197C43.587,38.197,45.142,36.642,45.142,34.724C45.142,32.807,43.587,31.252,41.669,31.252L38.197,31.252L38.197,27.78ZM38.197,27.78"/>
</g>
  <g id="Ultralight-S" transform="matrix(1.0,0.0,0.0,1.0,519.3307028594694,619.1007223907194)">  <path stroke-linejoin="miter" stroke-opacity="1" fill-rule="evenodd" fill="#000000" fill-opacity="1" stroke-dasharray="none" clip-rule="evenodd" stroke="none" stroke-linecap="butt" stroke-miterlimit="4" stroke-width="1px" d="M75.184,68.358L75.256,68.43L75.25,68.436C75.943,69.268,76.36,70.34,76.36,71.51C76.36,74.154,74.23,76.298,71.601,76.298C70.078,76.298,68.722,75.578,67.851,74.458L50.617,57.416C46.137,60.455,40.715,62.234,34.886,62.234C19.495,62.234,6.978,49.853,6.978,34.638C6.978,19.423,19.495,7.041,34.886,7.041C50.272,7.041,62.793,19.423,62.793,34.638C62.793,40.683,60.813,46.285,57.465,50.836L74.672,67.853C74.855,68.008,75.026,68.177,75.184,68.358ZM34.724,13.89C23.234,13.89,13.89,23.239,13.89,34.724C13.89,46.21,23.234,55.559,34.724,55.559C46.21,55.559,55.559,46.21,55.559,34.724C55.559,23.239,46.21,13.89,34.724,13.89ZM38.197,27.78C38.197,25.862,36.642,24.307,34.724,24.307C32.807,24.307,31.252,25.862,31.252,27.78L31.252,31.252L27.78,31.252C25.862,31.252,24.307,32.807,24.307,34.724C24.307,36.642,25.862,38.197,27.78,38.197L31.252,38.197L31.252,41.669C31.252,43.587,32.807,45.142,34.724,45.142C36.642,45.142,38.197,43.587,38.197,41.669L38.197,38.197L41.669,38.197C43.587,38.197,45.142,36.642,45.142,34.724C45.142,32.807,43.587,31.252,41.669,31.252L38.197,31.252L38.197,27.78ZM38.197,27.78"/>
</g>
 </g>
</svg>
