<?xml version="1.0" encoding="UTF-8"?>
<!-- Generator: CustomSymbols v2.6.1.40 by @serious_bret https://bretlester.com/app_content/CustomSymbols/ -->
<!-- Guides: Left/Right 0.123/0.119 Cap/Base 0.175/0.183 -->
<!-- Settings: RefScale 1.0 Min/Max Stroke Scales 0.5/2.21 -->
<!DOCTYPE svg
PUBLIC "-//W3C//DTD SVG 1.1//EN"
       "http://www.w3.org/Graphics/SVG/1.1/DTD/svg11.dtd">
<svg version="1.1" xmlns="http://www.w3.org/2000/svg" xmlns:xlink="http://www.w3.org/1999/xlink" width="3300" height="2200">
<![CDATA[<svg width="24" height="24" viewBox="0 0 24 24" fill="none" xmlns="http://www.w3.org/2000/svg">
<path fill-rule="evenodd" clip-rule="evenodd" d="M12.1548 10C12.7058 10 13.1548 9.548 13.1548 8.988V3.013C13.1548 2.452 12.7058 2 12.1548 2C11.6038 2 11.1548 2.452 11.1548 3.013V8.988C11.1548 9.548 11.6038 10 12.1548 10Z" fill="black"/>
<path fill-rule="evenodd" clip-rule="evenodd" d="M16.6602 5.02783C16.1812 4.74883 15.5712 4.90883 15.2922 5.38583C15.0142 5.86283 15.1742 6.47583 15.6502 6.75483C17.8172 8.02183 19.1632 10.3658 19.1632 12.8718C19.1632 16.7768 15.9862 19.9538 12.0812 19.9538C8.17721 19.9538 5.00021 16.7768 5.00021 12.8718C5.00021 10.3228 6.38021 7.95883 8.60221 6.70283C9.08321 6.43083 9.25221 5.82083 8.98121 5.33983C8.70921 4.85983 8.10021 4.68983 7.61821 4.96183C4.76921 6.57183 3.00021 9.60283 3.00021 12.8718C3.00021 17.8798 7.07421 21.9538 12.0812 21.9538C17.0892 21.9538 21.1632 17.8798 21.1632 12.8718C21.1632 9.65783 19.4372 6.65283 16.6602 5.02783Z" fill="black"/>
</svg>
]]>
 <g id="Notes">
  <rect height="2200" id="artboard" style="fill:white;opacity:1" width="3300" x="0" y="0"/>
  <line id="" style="fill:none;stroke:black;opacity:1;stroke-width:0.5;" x1="263" x2="3036" y1="292" y2="292"/>
  <text id="reftext1" style="stroke:none;fill:black;font-family:-apple-system,&quot;SF Pro Display&quot;,&quot;SF Pro Text&quot;,Helvetica,sans-serif;font-weight:bold;" transform="matrix(1 0 0 1 263 322)">Weight/Scale Variations</text>
  <text id="reftext2" style="stroke:none;fill:black;font-family:-apple-system,&quot;SF Pro Display&quot;,&quot;SF Pro Text&quot;,Helvetica,sans-serif;text-anchor:middle;" transform="matrix(1 0 0 1 559.711 322)">Ultralight</text>
  <text style="stroke:none;fill:black;font-family:-apple-system,&quot;SF Pro Display&quot;,&quot;SF Pro Text&quot;,Helvetica,sans-serif;text-anchor:middle;" transform="matrix(1 0 0 1 856.422 322)">Thin</text>
  <text style="stroke:none;fill:black;font-family:-apple-system,&quot;SF Pro Display&quot;,&quot;SF Pro Text&quot;,Helvetica,sans-serif;text-anchor:middle;" transform="matrix(1 0 0 1 1153.13 322)">Light</text>
  <text style="stroke:none;fill:black;font-family:-apple-system,&quot;SF Pro Display&quot;,&quot;SF Pro Text&quot;,Helvetica,sans-serif;text-anchor:middle;" transform="matrix(1 0 0 1 1449.84 322)">Regular</text>
  <text style="stroke:none;fill:black;font-family:-apple-system,&quot;SF Pro Display&quot;,&quot;SF Pro Text&quot;,Helvetica,sans-serif;text-anchor:middle;" transform="matrix(1 0 0 1 1746.56 322)">Medium</text>
  <text style="stroke:none;fill:black;font-family:-apple-system,&quot;SF Pro Display&quot;,&quot;SF Pro Text&quot;,Helvetica,sans-serif;text-anchor:middle;" transform="matrix(1 0 0 1 2043.27 322)">Semibold</text>
  <text style="stroke:none;fill:black;font-family:-apple-system,&quot;SF Pro Display&quot;,&quot;SF Pro Text&quot;,Helvetica,sans-serif;text-anchor:middle;" transform="matrix(1 0 0 1 2339.98 322)">Bold</text>
  <text style="stroke:none;fill:black;font-family:-apple-system,&quot;SF Pro Display&quot;,&quot;SF Pro Text&quot;,Helvetica,sans-serif;text-anchor:middle;" transform="matrix(1 0 0 1 2636.69 322)">Heavy</text>
  <text style="stroke:none;fill:black;font-family:-apple-system,&quot;SF Pro Display&quot;,&quot;SF Pro Text&quot;,Helvetica,sans-serif;text-anchor:middle;" transform="matrix(1 0 0 1 2933.4 322)">Black</text>
  <line id="" style="fill:none;stroke:black;opacity:1;stroke-width:0.5;" x1="263" x2="3036" y1="1903" y2="1903"/>
  <g id="" transform="matrix(1 0 0 1 263 1933)">
   <path d="M9.24805 0.830078C13.5547 0.830078 17.1387-2.74414 17.1387-7.05078C17.1387-11.3574 13.5449-14.9316 9.23828-14.9316C4.94141-14.9316 1.36719-11.3574 1.36719-7.05078C1.36719-2.74414 4.95117 0.830078 9.24805 0.830078ZM9.24805-0.654297C5.70312-0.654297 2.87109-3.49609 2.87109-7.05078C2.87109-10.6055 5.69336-13.4473 9.23828-13.4473C12.793-13.4473 15.6348-10.6055 15.6445-7.05078C15.6543-3.49609 12.8027-0.654297 9.24805-0.654297ZM6.39648-6.31836L8.50586-6.31836L8.50586-4.19922C8.50586-3.75977 8.79883-3.45703 9.22852-3.45703C9.67773-3.45703 9.9707-3.75977 9.9707-4.19922L9.9707-6.31836L12.0996-6.31836C12.5391-6.31836 12.8418-6.61133 12.8418-7.04102C12.8418-7.48047 12.5391-7.7832 12.0996-7.7832L9.9707-7.7832L9.9707-9.89258C9.9707-10.3418 9.67773-10.6445 9.22852-10.6445C8.79883-10.6445 8.50586-10.3418 8.50586-9.89258L8.50586-7.7832L6.39648-7.7832C5.94727-7.7832 5.64453-7.48047 5.64453-7.04102C5.64453-6.61133 5.94727-6.31836 6.39648-6.31836Z"/>
  </g>
  <g id="" transform="matrix(1 0 0 1 281.506 1933)">
   <path d="M11.709 2.91016C17.1582 2.91016 21.6699-1.61133 21.6699-7.05078C21.6699-12.5 17.1484-17.0117 11.6992-17.0117C6.25977-17.0117 1.74805-12.5 1.74805-7.05078C1.74805-1.61133 6.26953 2.91016 11.709 2.91016ZM11.709 1.25C7.09961 1.25 3.41797-2.44141 3.41797-7.05078C3.41797-11.6602 7.08984-15.3516 11.6992-15.3516C16.3086-15.3516 20-11.6602 20.0098-7.05078C20.0195-2.44141 16.3184 1.25 11.709 1.25ZM7.98828-6.23047L10.8789-6.23047L10.8789-3.32031C10.8789-2.83203 11.2109-2.5 11.6895-2.5C12.1777-2.5 12.5195-2.83203 12.5195-3.32031L12.5195-6.23047L15.4297-6.23047C15.918-6.23047 16.25-6.5625 16.25-7.04102C16.25-7.5293 15.918-7.87109 15.4297-7.87109L12.5195-7.87109L12.5195-10.7617C12.5195-11.2695 12.1777-11.6016 11.6895-11.6016C11.2109-11.6016 10.8789-11.2598 10.8789-10.7617L10.8789-7.87109L7.98828-7.87109C7.48047-7.87109 7.14844-7.5293 7.14844-7.04102C7.14844-6.5625 7.49023-6.23047 7.98828-6.23047Z"/>
  </g>
  <g id="" transform="matrix(1 0 0 1 304.924 1933)">
   <path d="M14.9707 5.66406C21.9336 5.66406 27.6953-0.0976562 27.6953-7.05078C27.6953-14.0137 21.9238-19.7754 14.9609-19.7754C8.00781-19.7754 2.25586-14.0137 2.25586-7.05078C2.25586-0.0976562 8.01758 5.66406 14.9707 5.66406ZM14.9707 3.84766C8.93555 3.84766 4.08203-1.01562 4.08203-7.05078C4.08203-13.0957 8.92578-17.9492 14.9609-17.9492C21.0059-17.9492 25.8594-13.0957 25.8691-7.05078C25.8789-1.01562 21.0156 3.84766 14.9707 3.84766ZM10.0586-6.14258L14.0625-6.14258L14.0625-2.12891C14.0625-1.5918 14.4336-1.2207 14.9512-1.2207C15.4883-1.2207 15.8594-1.5918 15.8594-2.12891L15.8594-6.14258L19.8828-6.14258C20.4102-6.14258 20.791-6.51367 20.791-7.03125C20.791-7.56836 20.4199-7.94922 19.8828-7.94922L15.8594-7.94922L15.8594-11.9531C15.8594-12.5098 15.4883-12.8809 14.9512-12.8809C14.4336-12.8809 14.0625-12.5 14.0625-11.9531L14.0625-7.94922L10.0586-7.94922C9.50195-7.94922 9.13086-7.56836 9.13086-7.03125C9.13086-6.51367 9.51172-6.14258 10.0586-6.14258Z"/>
  </g>
  <text style="stroke:none;fill:black;font-family:-apple-system,&quot;SF Pro Display&quot;,&quot;SF Pro Text&quot;,Helvetica,sans-serif;font-weight:bold;" transform="matrix(1 0 0 1 263 1953)">Design Variations</text>
  <text style="stroke:none;fill:black;font-family:-apple-system,&quot;SF Pro Display&quot;,&quot;SF Pro Text&quot;,Helvetica,sans-serif;" transform="matrix(1 0 0 1 263 1971)">Symbols are supported in up to nine weights and three scales.</text>
  <text style="stroke:none;fill:black;font-family:-apple-system,&quot;SF Pro Display&quot;,&quot;SF Pro Text&quot;,Helvetica,sans-serif;" transform="matrix(1 0 0 1 263 1989)">For optimal layout with text and other symbols, vertically align</text>
  <text style="stroke:none;fill:black;font-family:-apple-system,&quot;SF Pro Display&quot;,&quot;SF Pro Text&quot;,Helvetica,sans-serif;" transform="matrix(1 0 0 1 263 2007)">symbols with the adjacent text.</text>
  <line id="" style="fill:none;stroke:#00AEEF;stroke-width:0.5;opacity:1.0;" x1="776" x2="776" y1="1919" y2="1933"/>
  <g id="" transform="matrix(1 0 0 1 776 1933)">
   <path d="M3.31055 0.126953C3.82812 0.126953 4.08203-0.0683594 4.26758-0.605469L5.52734-4.0625L11.2891-4.0625L12.5488-0.605469C12.7344-0.0683594 12.9883 0.126953 13.4961 0.126953C14.0137 0.126953 14.3457-0.185547 14.3457-0.673828C14.3457-0.839844 14.3164-0.986328 14.2383-1.20117L9.6582-13.3887C9.43359-13.9941 9.0332-14.2871 8.4082-14.2871C7.80273-14.2871 7.39258-13.9941 7.17773-13.3984L2.59766-1.19141C2.51953-0.976562 2.49023-0.830078 2.49023-0.664062C2.49023-0.175781 2.80273 0.126953 3.31055 0.126953ZM6.00586-5.53711L8.37891-12.1094L8.42773-12.1094L10.8008-5.53711Z"/>
  </g>
  <line id="" style="fill:none;stroke:#00AEEF;stroke-width:0.5;opacity:1.0;" x1="792.836" x2="792.836" y1="1919" y2="1933"/>
  <text style="stroke:none;fill:black;font-family:-apple-system,&quot;SF Pro Display&quot;,&quot;SF Pro Text&quot;,Helvetica,sans-serif;font-weight:bold;" transform="matrix(1 0 0 1 776 1953)">Margins</text>
  <text style="stroke:none;fill:black;font-family:-apple-system,&quot;SF Pro Display&quot;,&quot;SF Pro Text&quot;,Helvetica,sans-serif;" transform="matrix(1 0 0 1 776 1971)">Leading and trailing margins on the left and right side of each symbol</text>
  <text style="stroke:none;fill:black;font-family:-apple-system,&quot;SF Pro Display&quot;,&quot;SF Pro Text&quot;,Helvetica,sans-serif;" transform="matrix(1 0 0 1 776 1989)">can be adjusted by modifying the x-location of the margin guidelines.</text>
  <text style="stroke:none;fill:black;font-family:-apple-system,&quot;SF Pro Display&quot;,&quot;SF Pro Text&quot;,Helvetica,sans-serif;" transform="matrix(1 0 0 1 776 2007)">Modifications are automatically applied proportionally to all</text>
  <text style="stroke:none;fill:black;font-family:-apple-system,&quot;SF Pro Display&quot;,&quot;SF Pro Text&quot;,Helvetica,sans-serif;" transform="matrix(1 0 0 1 776 2025)">scales and weights.</text>
  <g id="" transform="matrix(1 0 0 1 1289 1933)">
   <path d="M2.8418 1.86523L4.54102 3.57422C5.40039 4.44336 6.38672 4.38477 7.31445 3.35938L17.4902-7.85156C17.7539-7.76367 18.0273-7.7832 18.3398-7.8418L19.4043-8.03711L20.0684-7.36328L20.0293-6.80664C19.9902-6.30859 20.1172-5.92773 20.6055-5.44922L21.3672-4.70703C21.8457-4.22852 22.4609-4.19922 22.9297-4.66797L25.8398-7.58789C26.3086-8.05664 26.2891-8.65234 25.8105-9.13086L25.0391-9.89258C24.5605-10.3711 24.1895-10.5273 23.7109-10.4883L23.1348-10.4395L22.4902-11.0742L22.7344-12.1973C22.8613-12.7637 22.7051-13.2031 22.1191-13.7891L19.9219-15.9766C16.582-19.2969 12.1484-19.2188 9.25781-16.3281C8.83789-15.918 8.80859-15.3418 9.04297-14.9512C9.27734-14.5898 9.73633-14.3555 10.3809-14.5215C11.8457-14.8633 13.3691-14.9219 14.7949-13.9844L14.209-12.5293C14.0137-12.0508 13.9844-11.6504 14.1113-11.2891L3.04688-0.898438C2.06055 0.0195312 1.98242 0.996094 2.8418 1.86523ZM10.752-15.957C13.1836-17.7344 16.4746-17.4316 18.7012-15.2051L21.1328-12.793C21.3672-12.5586 21.4062-12.373 21.3379-12.0312L21.0156-10.5469L22.5195-9.0625L23.5059-9.12109C23.7598-9.13086 23.8379-9.11133 24.0332-8.91602L24.6094-8.33984L22.168-5.89844L21.5918-6.47461C21.3965-6.66992 21.3672-6.74805 21.377-7.01172L21.4453-7.98828L19.9512-9.47266L18.4277-9.21875C18.1055-9.15039 17.959-9.17969 17.7148-9.41406L15.7129-11.416C15.459-11.6504 15.4297-11.8164 15.5859-12.1875L16.4648-14.2773C14.9023-15.7324 12.8711-16.3574 10.8398-15.7617C10.6836-15.7227 10.625-15.8496 10.752-15.957ZM5.27344 2.30469L4.10156 1.14258C3.63281 0.683594 3.74023 0.341797 4.14062-0.0195312L14.9512-10.1953L16.416-8.71094L6.42578 2.27539C6.07422 2.67578 5.74219 2.77344 5.27344 2.30469Z"/>
  </g>
  <text style="stroke:none;fill:black;font-family:-apple-system,&quot;SF Pro Display&quot;,&quot;SF Pro Text&quot;,Helvetica,sans-serif;font-weight:bold;" transform="matrix(1 0 0 1 1289 1953)">Exporting</text>
  <text style="stroke:none;fill:black;font-family:-apple-system,&quot;SF Pro Display&quot;,&quot;SF Pro Text&quot;,Helvetica,sans-serif;" transform="matrix(1 0 0 1 1289 1971)">Symbols should be outlined when exporting to ensure the</text>
  <text style="stroke:none;fill:black;font-family:-apple-system,&quot;SF Pro Display&quot;,&quot;SF Pro Text&quot;,Helvetica,sans-serif;" transform="matrix(1 0 0 1 1289 1989)">design is preserved when submitting to Xcode.</text>
  <text id="template-version" style="stroke:none;fill:black;font-family:-apple-system,&quot;SF Pro Display&quot;,&quot;SF Pro Text&quot;,Helvetica,sans-serif;text-anchor:end;" transform="matrix(1 0 0 1 3036 1933)">Template v.2.0</text>
  <text style="stroke:none;fill:black;font-family:-apple-system,&quot;SF Pro Display&quot;,&quot;SF Pro Text&quot;,Helvetica,sans-serif;text-anchor:end;" transform="matrix(1 0 0 1 3036 1951)">Requires Xcode 12 or greater</text>
  <text style="stroke:none;fill:black;font-family:-apple-system,&quot;SF Pro Display&quot;,&quot;SF Pro Text&quot;,Helvetica,sans-serif;" transform="matrix(1 0 0 1 263 726)">Small</text>
  <text style="stroke:none;fill:black;font-family:-apple-system,&quot;SF Pro Display&quot;,&quot;SF Pro Text&quot;,Helvetica,sans-serif;" transform="matrix(1 0 0 1 263 1156)">Medium</text>
  <text style="stroke:none;fill:black;font-family:-apple-system,&quot;SF Pro Display&quot;,&quot;SF Pro Text&quot;,Helvetica,sans-serif;" transform="matrix(1 0 0 1 263 1586)">Large</text>
 </g>
 <g id="Guides">
  <g id="H-reference" style="fill:#27AAE1;stroke:none;" transform="matrix(1 0 0 1 339 696)">
   <path d="M0.976562 0L3.66211 0L12.9883-24.4629L45.752-24.4629L55.127 0L57.7637 0L30.6152-70.459L28.125-70.459ZM29.3457-67.1387L29.4434-67.1387L44.873-26.709L13.8672-26.709Z"/>
  </g>
  <line id="Baseline-S" style="fill:none;stroke:#27AAE1;opacity:1;stroke-width:0.5;" x1="263" x2="3036" y1="696" y2="696"/>
  <line id="Capline-S" style="fill:none;stroke:#27AAE1;opacity:1;stroke-width:0.5;" x1="263" x2="3036" y1="625.541" y2="625.541"/>
  <g id="H-reference" style="fill:#27AAE1;stroke:none;" transform="matrix(1 0 0 1 339 1126)">
   <path d="M0.976562 0L3.66211 0L12.9883-24.4629L45.752-24.4629L55.127 0L57.7637 0L30.6152-70.459L28.125-70.459ZM29.3457-67.1387L29.4434-67.1387L44.873-26.709L13.8672-26.709Z"/>
  </g>
  <line id="Baseline-M" style="fill:none;stroke:#27AAE1;opacity:1;stroke-width:0.5;" x1="263" x2="3036" y1="1126" y2="1126"/>
  <line id="Capline-M" style="fill:none;stroke:#27AAE1;opacity:1;stroke-width:0.5;" x1="263" x2="3036" y1="1055.54" y2="1055.54"/>
  <g id="H-reference" style="fill:#27AAE1;stroke:none;" transform="matrix(1 0 0 1 339 1556)">
   <path d="M0.976562 0L3.66211 0L12.9883-24.4629L45.752-24.4629L55.127 0L57.7637 0L30.6152-70.459L28.125-70.459ZM29.3457-67.1387L29.4434-67.1387L44.873-26.709L13.8672-26.709Z"/>
  </g>
  <line id="Baseline-L" style="fill:none;stroke:#27AAE1;opacity:1;stroke-width:0.5;" x1="263" x2="3036" y1="1556" y2="1556"/>
  <line id="Capline-L" style="fill:none;stroke:#27AAE1;opacity:1;stroke-width:0.5;" x1="263" x2="3036" y1="1485.54" y2="1485.54"/>
  <line id="left-margin" x1="1409.7539793248636" x2="1409.7539793248636" y1="1030.79" y2="1150.12" style="fill:none;stroke:#00AEEF;stroke-width:0.5;opacity:1.0;"/>
  <line id="right-margin" x1="1492.9450235470208" x2="1492.9450235470208" y1="1030.79" y2="1150.12" style="fill:none;stroke:#00AEEF;stroke-width:0.5;opacity:1.0;"/>
 </g>
 <g id="Symbols">
  <g id="Black-L" transform="matrix(1.0,0.0,0.0,1.0,2863.890786908586,1450.5471201445678)">  <path stroke="none" stroke-width="1px" clip-rule="evenodd" stroke-opacity="1" fill-opacity="1" stroke-linecap="butt" stroke-dasharray="none" fill="#000000" stroke-miterlimit="4" stroke-linejoin="miter" fill-rule="evenodd" d="M71.702,58.991C74.953,58.991,77.601,56.325,77.601,53.021L77.601,17.774C77.601,14.465,74.953,11.798,71.702,11.798C68.452,11.798,65.803,14.465,65.803,17.774L65.803,53.021C65.803,56.325,68.452,58.991,71.702,58.991ZM71.702,58.991"/>
  <path stroke-opacity="1" stroke-miterlimit="4" stroke="none" clip-rule="evenodd" stroke-dasharray="none" fill-opacity="1" fill="#000000" stroke-linejoin="miter" fill-rule="evenodd" stroke-linecap="butt" stroke-width="1px" d="M98.28,29.66C95.455,28.014,91.856,28.958,90.21,31.772C88.57,34.585,89.514,38.202,92.322,39.847C105.105,47.322,113.046,61.149,113.046,75.932C113.046,98.968,94.304,117.709,71.268,117.709C48.238,117.709,29.497,98.968,29.497,75.932C29.497,60.895,37.638,46.95,50.745,39.541C53.583,37.936,54.58,34.338,52.981,31.5C51.377,28.669,47.784,27.666,44.941,29.27C28.134,38.768,17.699,56.648,17.699,75.932C17.699,105.475,41.731,129.508,71.268,129.508C100.811,129.508,124.844,105.475,124.844,75.932C124.844,56.973,114.662,39.246,98.28,29.66ZM98.28,29.66"/>
</g>
  <g id="Heavy-L" transform="matrix(1.0,0.0,0.0,1.0,2567.180786908586,1450.5471201445678)">  <path stroke-miterlimit="4" stroke-linejoin="miter" stroke-width="1px" clip-rule="evenodd" stroke-linecap="butt" fill-opacity="1" fill="#000000" stroke="none" fill-rule="evenodd" stroke-dasharray="none" stroke-opacity="1" d="M71.702,58.991C74.953,58.991,77.601,56.325,77.601,53.021L77.601,17.774C77.601,14.465,74.953,11.798,71.702,11.798C68.452,11.798,65.803,14.465,65.803,17.774L65.803,53.021C65.803,56.325,68.452,58.991,71.702,58.991ZM71.702,58.991"/>
  <path fill="#000000" fill-rule="evenodd" fill-opacity="1" stroke-opacity="1" stroke-linejoin="miter" stroke-miterlimit="4" stroke-width="1px" stroke="none" stroke-linecap="butt" clip-rule="evenodd" stroke-dasharray="none" d="M98.28,29.66C95.455,28.014,91.856,28.958,90.21,31.772C88.57,34.585,89.514,38.202,92.322,39.847C105.105,47.322,113.046,61.149,113.046,75.932C113.046,98.968,94.304,117.709,71.268,117.709C48.238,117.709,29.497,98.968,29.497,75.932C29.497,60.895,37.638,46.95,50.745,39.541C53.583,37.936,54.58,34.338,52.981,31.5C51.377,28.669,47.784,27.666,44.941,29.27C28.134,38.768,17.699,56.648,17.699,75.932C17.699,105.475,41.731,129.508,71.268,129.508C100.811,129.508,124.844,105.475,124.844,75.932C124.844,56.973,114.662,39.246,98.28,29.66ZM98.28,29.66"/>
</g>
  <g id="Bold-L" transform="matrix(1.0,0.0,0.0,1.0,2270.470786908586,1450.5471201445678)">  <path stroke-opacity="1" stroke-linejoin="miter" fill="#000000" fill-rule="evenodd" fill-opacity="1" stroke-miterlimit="4" stroke-linecap="butt" clip-rule="evenodd" stroke-width="1px" stroke-dasharray="none" stroke="none" d="M71.702,58.991C74.953,58.991,77.601,56.325,77.601,53.021L77.601,17.774C77.601,14.465,74.953,11.798,71.702,11.798C68.452,11.798,65.803,14.465,65.803,17.774L65.803,53.021C65.803,56.325,68.452,58.991,71.702,58.991ZM71.702,58.991"/>
  <path stroke-dasharray="none" stroke-width="1px" stroke-linejoin="miter" fill-rule="evenodd" stroke-opacity="1" stroke-linecap="butt" clip-rule="evenodd" stroke="none" fill="#000000" stroke-miterlimit="4" fill-opacity="1" d="M98.28,29.66C95.455,28.014,91.856,28.958,90.21,31.772C88.57,34.585,89.514,38.202,92.322,39.847C105.105,47.322,113.046,61.149,113.046,75.932C113.046,98.968,94.304,117.709,71.268,117.709C48.238,117.709,29.497,98.968,29.497,75.932C29.497,60.895,37.638,46.95,50.745,39.541C53.583,37.936,54.58,34.338,52.981,31.5C51.377,28.669,47.784,27.666,44.941,29.27C28.134,38.768,17.699,56.648,17.699,75.932C17.699,105.475,41.731,129.508,71.268,129.508C100.811,129.508,124.844,105.475,124.844,75.932C124.844,56.973,114.662,39.246,98.28,29.66ZM98.28,29.66"/>
</g>
  <g id="Semibold-L" transform="matrix(1.0,0.0,0.0,1.0,1973.7607869085864,1450.5471201445678)">  <path stroke-width="1px" stroke-opacity="1" fill-rule="evenodd" stroke="none" stroke-miterlimit="4" fill-opacity="1" fill="#000000" stroke-linecap="butt" stroke-linejoin="miter" stroke-dasharray="none" clip-rule="evenodd" d="M71.702,58.991C74.953,58.991,77.601,56.325,77.601,53.021L77.601,17.774C77.601,14.465,74.953,11.798,71.702,11.798C68.452,11.798,65.803,14.465,65.803,17.774L65.803,53.021C65.803,56.325,68.452,58.991,71.702,58.991ZM71.702,58.991"/>
  <path fill-rule="evenodd" stroke-miterlimit="4" stroke-dasharray="none" stroke-linecap="butt" fill="#000000" stroke-opacity="1" stroke="none" stroke-width="1px" stroke-linejoin="miter" fill-opacity="1" clip-rule="evenodd" d="M98.28,29.66C95.455,28.014,91.856,28.958,90.21,31.772C88.57,34.585,89.514,38.202,92.322,39.847C105.105,47.322,113.046,61.149,113.046,75.932C113.046,98.968,94.304,117.709,71.268,117.709C48.238,117.709,29.497,98.968,29.497,75.932C29.497,60.895,37.638,46.95,50.745,39.541C53.583,37.936,54.58,34.338,52.981,31.5C51.377,28.669,47.784,27.666,44.941,29.27C28.134,38.768,17.699,56.648,17.699,75.932C17.699,105.475,41.731,129.508,71.268,129.508C100.811,129.508,124.844,105.475,124.844,75.932C124.844,56.973,114.662,39.246,98.28,29.66ZM98.28,29.66"/>
</g>
  <g id="Medium-L" transform="matrix(1.0,0.0,0.0,1.0,1677.0507869085864,1450.5471201445678)">  <path stroke-width="1px" stroke-opacity="1" stroke-linejoin="miter" stroke-linecap="butt" clip-rule="evenodd" fill-rule="evenodd" stroke-dasharray="none" stroke="none" stroke-miterlimit="4" fill-opacity="1" fill="#000000" d="M71.702,58.991C74.953,58.991,77.601,56.325,77.601,53.021L77.601,17.774C77.601,14.465,74.953,11.798,71.702,11.798C68.452,11.798,65.803,14.465,65.803,17.774L65.803,53.021C65.803,56.325,68.452,58.991,71.702,58.991ZM71.702,58.991"/>
  <path fill="#000000" stroke-linecap="butt" stroke-dasharray="none" stroke-width="1px" fill-opacity="1" clip-rule="evenodd" fill-rule="evenodd" stroke-opacity="1" stroke-linejoin="miter" stroke-miterlimit="4" stroke="none" d="M98.28,29.66C95.455,28.014,91.856,28.958,90.21,31.772C88.57,34.585,89.514,38.202,92.322,39.847C105.105,47.322,113.046,61.149,113.046,75.932C113.046,98.968,94.304,117.709,71.268,117.709C48.238,117.709,29.497,98.968,29.497,75.932C29.497,60.895,37.638,46.95,50.745,39.541C53.583,37.936,54.58,34.338,52.981,31.5C51.377,28.669,47.784,27.666,44.941,29.27C28.134,38.768,17.699,56.648,17.699,75.932C17.699,105.475,41.731,129.508,71.268,129.508C100.811,129.508,124.844,105.475,124.844,75.932C124.844,56.973,114.662,39.246,98.28,29.66ZM98.28,29.66"/>
</g>
  <g id="Regular-L" transform="matrix(1.0,0.0,0.0,1.0,1380.3407869085863,1450.5471201445678)">  <path fill="#000000" stroke="none" stroke-linecap="butt" stroke-miterlimit="4" stroke-dasharray="none" clip-rule="evenodd" stroke-opacity="1" fill-rule="evenodd" stroke-width="1px" fill-opacity="1" stroke-linejoin="miter" d="M71.702,58.991C74.953,58.991,77.601,56.325,77.601,53.021L77.601,17.774C77.601,14.465,74.953,11.798,71.702,11.798C68.452,11.798,65.803,14.465,65.803,17.774L65.803,53.021C65.803,56.325,68.452,58.991,71.702,58.991ZM71.702,58.991"/>
  <path stroke-opacity="1" stroke-dasharray="none" stroke-linejoin="miter" fill-rule="evenodd" clip-rule="evenodd" stroke-linecap="butt" fill-opacity="1" stroke-width="1px" stroke="none" stroke-miterlimit="4" fill="#000000" d="M98.28,29.66C95.455,28.014,91.856,28.958,90.21,31.772C88.57,34.585,89.514,38.202,92.322,39.847C105.105,47.322,113.046,61.149,113.046,75.932C113.046,98.968,94.304,117.709,71.268,117.709C48.238,117.709,29.497,98.968,29.497,75.932C29.497,60.895,37.638,46.95,50.745,39.541C53.583,37.936,54.58,34.338,52.981,31.5C51.377,28.669,47.784,27.666,44.941,29.27C28.134,38.768,17.699,56.648,17.699,75.932C17.699,105.475,41.731,129.508,71.268,129.508C100.811,129.508,124.844,105.475,124.844,75.932C124.844,56.973,114.662,39.246,98.28,29.66ZM98.28,29.66"/>
</g>
  <g id="Light-L" transform="matrix(1.0,0.0,0.0,1.0,1083.6307869085865,1450.5471201445678)">  <path stroke-linejoin="miter" stroke-opacity="1" fill-rule="evenodd" clip-rule="evenodd" fill="#000000" stroke-width="1px" stroke-dasharray="none" stroke="none" fill-opacity="1" stroke-linecap="butt" stroke-miterlimit="4" d="M71.702,58.991C74.953,58.991,77.601,56.325,77.601,53.021L77.601,17.774C77.601,14.465,74.953,11.798,71.702,11.798C68.452,11.798,65.803,14.465,65.803,17.774L65.803,53.021C65.803,56.325,68.452,58.991,71.702,58.991ZM71.702,58.991"/>
  <path stroke-linejoin="miter" fill-rule="evenodd" stroke-width="1px" fill-opacity="1" stroke-linecap="butt" stroke-miterlimit="4" stroke-opacity="1" stroke-dasharray="none" clip-rule="evenodd" stroke="none" fill="#000000" d="M98.28,29.66C95.455,28.014,91.856,28.958,90.21,31.772C88.57,34.585,89.514,38.202,92.322,39.847C105.105,47.322,113.046,61.149,113.046,75.932C113.046,98.968,94.304,117.709,71.268,117.709C48.238,117.709,29.497,98.968,29.497,75.932C29.497,60.895,37.638,46.95,50.745,39.541C53.583,37.936,54.58,34.338,52.981,31.5C51.377,28.669,47.784,27.666,44.941,29.27C28.134,38.768,17.699,56.648,17.699,75.932C17.699,105.475,41.731,129.508,71.268,129.508C100.811,129.508,124.844,105.475,124.844,75.932C124.844,56.973,114.662,39.246,98.28,29.66ZM98.28,29.66"/>
</g>
  <g id="Thin-L" transform="matrix(1.0,0.0,0.0,1.0,786.9207869085865,1450.5471201445678)">  <path clip-rule="evenodd" stroke-linejoin="miter" stroke="none" stroke-dasharray="none" stroke-linecap="butt" fill="#000000" fill-opacity="1" stroke-miterlimit="4" stroke-opacity="1" stroke-width="1px" fill-rule="evenodd" d="M71.702,58.991C74.953,58.991,77.601,56.325,77.601,53.021L77.601,17.774C77.601,14.465,74.953,11.798,71.702,11.798C68.452,11.798,65.803,14.465,65.803,17.774L65.803,53.021C65.803,56.325,68.452,58.991,71.702,58.991ZM71.702,58.991"/>
  <path stroke-linejoin="miter" stroke="none" clip-rule="evenodd" stroke-width="1px" fill="#000000" fill-opacity="1" stroke-linecap="butt" fill-rule="evenodd" stroke-miterlimit="4" stroke-opacity="1" stroke-dasharray="none" d="M98.28,29.66C95.455,28.014,91.856,28.958,90.21,31.772C88.57,34.585,89.514,38.202,92.322,39.847C105.105,47.322,113.046,61.149,113.046,75.932C113.046,98.968,94.304,117.709,71.268,117.709C48.238,117.709,29.497,98.968,29.497,75.932C29.497,60.895,37.638,46.95,50.745,39.541C53.583,37.936,54.58,34.338,52.981,31.5C51.377,28.669,47.784,27.666,44.941,29.27C28.134,38.768,17.699,56.648,17.699,75.932C17.699,105.475,41.731,129.508,71.268,129.508C100.811,129.508,124.844,105.475,124.844,75.932C124.844,56.973,114.662,39.246,98.28,29.66ZM98.28,29.66"/>
</g>
  <g id="Ultralight-L" transform="matrix(1.0,0.0,0.0,1.0,490.21078690858644,1450.5471201445678)">  <path stroke-linecap="butt" stroke-dasharray="none" stroke-opacity="1" fill="#000000" fill-rule="evenodd" stroke-miterlimit="4" stroke="none" clip-rule="evenodd" stroke-width="1px" fill-opacity="1" stroke-linejoin="miter" d="M71.702,58.991C74.953,58.991,77.601,56.325,77.601,53.021L77.601,17.774C77.601,14.465,74.953,11.798,71.702,11.798C68.452,11.798,65.803,14.465,65.803,17.774L65.803,53.021C65.803,56.325,68.452,58.991,71.702,58.991ZM71.702,58.991"/>
  <path fill-rule="evenodd" stroke-linejoin="miter" stroke-miterlimit="4" stroke-opacity="1" stroke="none" clip-rule="evenodd" stroke-linecap="butt" stroke-dasharray="none" stroke-width="1px" fill="#000000" fill-opacity="1" d="M98.28,29.66C95.455,28.014,91.856,28.958,90.21,31.772C88.57,34.585,89.514,38.202,92.322,39.847C105.105,47.322,113.046,61.149,113.046,75.932C113.046,98.968,94.304,117.709,71.268,117.709C48.238,117.709,29.497,98.968,29.497,75.932C29.497,60.895,37.638,46.95,50.745,39.541C53.583,37.936,54.58,34.338,52.981,31.5C51.377,28.669,47.784,27.666,44.941,29.27C28.134,38.768,17.699,56.648,17.699,75.932C17.699,105.475,41.731,129.508,71.268,129.508C100.811,129.508,124.844,105.475,124.844,75.932C124.844,56.973,114.662,39.246,98.28,29.66ZM98.28,29.66"/>
</g>
  <g id="Black-M" transform="matrix(1.0,0.0,0.0,1.0,2879.804641014408,1036.3336634175428)">  <path stroke="none" stroke-width="1px" clip-rule="evenodd" stroke-opacity="1" fill-opacity="1" stroke-linecap="butt" stroke-dasharray="none" fill="#000000" stroke-miterlimit="4" stroke-linejoin="miter" fill-rule="evenodd" d="M55.583,45.729C58.103,45.729,60.156,43.662,60.156,41.102L60.156,13.778C60.156,11.213,58.103,9.146,55.583,9.146C53.064,9.146,51.01,11.213,51.01,13.778L51.01,41.102C51.01,43.662,53.064,45.729,55.583,45.729ZM55.583,45.729"/>
  <path stroke-opacity="1" stroke-miterlimit="4" stroke="none" clip-rule="evenodd" stroke-dasharray="none" fill-opacity="1" fill="#000000" stroke-linejoin="miter" fill-rule="evenodd" stroke-linecap="butt" stroke-width="1px" d="M76.186,22.992C73.996,21.716,71.206,22.448,69.93,24.629C68.659,26.81,69.391,29.614,71.568,30.889C81.477,36.683,87.632,47.402,87.632,58.862C87.632,76.719,73.104,91.248,55.247,91.248C37.394,91.248,22.866,76.719,22.866,58.862C22.866,47.206,29.176,36.395,39.337,30.652C41.537,29.408,42.31,26.618,41.071,24.419C39.827,22.224,37.042,21.446,34.838,22.69C21.809,30.053,13.72,43.913,13.72,58.862C13.72,81.763,32.35,100.394,55.247,100.394C78.148,100.394,96.778,81.763,96.778,58.862C96.778,44.165,88.885,30.423,76.186,22.992ZM76.186,22.992"/>
</g>
  <g id="Heavy-M" transform="matrix(1.0,0.0,0.0,1.0,2583.094641014408,1036.3336634175428)">  <path stroke-miterlimit="4" stroke-linejoin="miter" stroke-width="1px" clip-rule="evenodd" stroke-linecap="butt" fill-opacity="1" fill="#000000" stroke="none" fill-rule="evenodd" stroke-dasharray="none" stroke-opacity="1" d="M55.583,45.729C58.103,45.729,60.156,43.662,60.156,41.102L60.156,13.778C60.156,11.213,58.103,9.146,55.583,9.146C53.064,9.146,51.01,11.213,51.01,13.778L51.01,41.102C51.01,43.662,53.064,45.729,55.583,45.729ZM55.583,45.729"/>
  <path fill="#000000" fill-rule="evenodd" fill-opacity="1" stroke-opacity="1" stroke-linejoin="miter" stroke-miterlimit="4" stroke-width="1px" stroke="none" stroke-linecap="butt" clip-rule="evenodd" stroke-dasharray="none" d="M76.186,22.992C73.996,21.716,71.206,22.448,69.93,24.629C68.659,26.81,69.391,29.614,71.568,30.889C81.477,36.683,87.632,47.402,87.632,58.862C87.632,76.719,73.104,91.248,55.247,91.248C37.394,91.248,22.866,76.719,22.866,58.862C22.866,47.206,29.176,36.395,39.337,30.652C41.537,29.408,42.31,26.618,41.071,24.419C39.827,22.224,37.042,21.446,34.838,22.69C21.809,30.053,13.72,43.913,13.72,58.862C13.72,81.763,32.35,100.394,55.247,100.394C78.148,100.394,96.778,81.763,96.778,58.862C96.778,44.165,88.885,30.423,76.186,22.992ZM76.186,22.992"/>
</g>
  <g id="Bold-M" transform="matrix(1.0,0.0,0.0,1.0,2286.384641014408,1036.3336634175428)">  <path stroke-opacity="1" stroke-linejoin="miter" fill="#000000" fill-rule="evenodd" fill-opacity="1" stroke-miterlimit="4" stroke-linecap="butt" clip-rule="evenodd" stroke-width="1px" stroke-dasharray="none" stroke="none" d="M55.583,45.729C58.103,45.729,60.156,43.662,60.156,41.102L60.156,13.778C60.156,11.213,58.103,9.146,55.583,9.146C53.064,9.146,51.01,11.213,51.01,13.778L51.01,41.102C51.01,43.662,53.064,45.729,55.583,45.729ZM55.583,45.729"/>
  <path stroke-dasharray="none" stroke-width="1px" stroke-linejoin="miter" fill-rule="evenodd" stroke-opacity="1" stroke-linecap="butt" clip-rule="evenodd" stroke="none" fill="#000000" stroke-miterlimit="4" fill-opacity="1" d="M76.186,22.992C73.996,21.716,71.206,22.448,69.93,24.629C68.659,26.81,69.391,29.614,71.568,30.889C81.477,36.683,87.632,47.402,87.632,58.862C87.632,76.719,73.104,91.248,55.247,91.248C37.394,91.248,22.866,76.719,22.866,58.862C22.866,47.206,29.176,36.395,39.337,30.652C41.537,29.408,42.31,26.618,41.071,24.419C39.827,22.224,37.042,21.446,34.838,22.69C21.809,30.053,13.72,43.913,13.72,58.862C13.72,81.763,32.35,100.394,55.247,100.394C78.148,100.394,96.778,81.763,96.778,58.862C96.778,44.165,88.885,30.423,76.186,22.992ZM76.186,22.992"/>
</g>
  <g id="Semibold-M" transform="matrix(1.0,0.0,0.0,1.0,1989.674641014408,1036.3336634175428)">  <path stroke-width="1px" stroke-opacity="1" fill-rule="evenodd" stroke="none" stroke-miterlimit="4" fill-opacity="1" fill="#000000" stroke-linecap="butt" stroke-linejoin="miter" stroke-dasharray="none" clip-rule="evenodd" d="M55.583,45.729C58.103,45.729,60.156,43.662,60.156,41.102L60.156,13.778C60.156,11.213,58.103,9.146,55.583,9.146C53.064,9.146,51.01,11.213,51.01,13.778L51.01,41.102C51.01,43.662,53.064,45.729,55.583,45.729ZM55.583,45.729"/>
  <path fill-rule="evenodd" stroke-miterlimit="4" stroke-dasharray="none" stroke-linecap="butt" fill="#000000" stroke-opacity="1" stroke="none" stroke-width="1px" stroke-linejoin="miter" fill-opacity="1" clip-rule="evenodd" d="M76.186,22.992C73.996,21.716,71.206,22.448,69.93,24.629C68.659,26.81,69.391,29.614,71.568,30.889C81.477,36.683,87.632,47.402,87.632,58.862C87.632,76.719,73.104,91.248,55.247,91.248C37.394,91.248,22.866,76.719,22.866,58.862C22.866,47.206,29.176,36.395,39.337,30.652C41.537,29.408,42.31,26.618,41.071,24.419C39.827,22.224,37.042,21.446,34.838,22.69C21.809,30.053,13.72,43.913,13.72,58.862C13.72,81.763,32.35,100.394,55.247,100.394C78.148,100.394,96.778,81.763,96.778,58.862C96.778,44.165,88.885,30.423,76.186,22.992ZM76.186,22.992"/>
</g>
  <g id="Medium-M" transform="matrix(1.0,0.0,0.0,1.0,1692.964641014408,1036.3336634175428)">  <path stroke-width="1px" stroke-opacity="1" stroke-linejoin="miter" stroke-linecap="butt" clip-rule="evenodd" fill-rule="evenodd" stroke-dasharray="none" stroke="none" stroke-miterlimit="4" fill-opacity="1" fill="#000000" d="M55.583,45.729C58.103,45.729,60.156,43.662,60.156,41.102L60.156,13.778C60.156,11.213,58.103,9.146,55.583,9.146C53.064,9.146,51.01,11.213,51.01,13.778L51.01,41.102C51.01,43.662,53.064,45.729,55.583,45.729ZM55.583,45.729"/>
  <path fill="#000000" stroke-linecap="butt" stroke-dasharray="none" stroke-width="1px" fill-opacity="1" clip-rule="evenodd" fill-rule="evenodd" stroke-opacity="1" stroke-linejoin="miter" stroke-miterlimit="4" stroke="none" d="M76.186,22.992C73.996,21.716,71.206,22.448,69.93,24.629C68.659,26.81,69.391,29.614,71.568,30.889C81.477,36.683,87.632,47.402,87.632,58.862C87.632,76.719,73.104,91.248,55.247,91.248C37.394,91.248,22.866,76.719,22.866,58.862C22.866,47.206,29.176,36.395,39.337,30.652C41.537,29.408,42.31,26.618,41.071,24.419C39.827,22.224,37.042,21.446,34.838,22.69C21.809,30.053,13.72,43.913,13.72,58.862C13.72,81.763,32.35,100.394,55.247,100.394C78.148,100.394,96.778,81.763,96.778,58.862C96.778,44.165,88.885,30.423,76.186,22.992ZM76.186,22.992"/>
</g>
  <g id="Regular-M" transform="matrix(1.0,0.0,0.0,1.0,1396.254641014408,1036.3336634175428)">  <path fill="#000000" stroke="none" stroke-linecap="butt" stroke-miterlimit="4" stroke-dasharray="none" clip-rule="evenodd" stroke-opacity="1" fill-rule="evenodd" stroke-width="1px" fill-opacity="1" stroke-linejoin="miter" d="M55.583,45.729C58.103,45.729,60.156,43.662,60.156,41.102L60.156,13.778C60.156,11.213,58.103,9.146,55.583,9.146C53.064,9.146,51.01,11.213,51.01,13.778L51.01,41.102C51.01,43.662,53.064,45.729,55.583,45.729ZM55.583,45.729"/>
  <path stroke-opacity="1" stroke-dasharray="none" stroke-linejoin="miter" fill-rule="evenodd" clip-rule="evenodd" stroke-linecap="butt" fill-opacity="1" stroke-width="1px" stroke="none" stroke-miterlimit="4" fill="#000000" d="M76.186,22.992C73.996,21.716,71.206,22.448,69.93,24.629C68.659,26.81,69.391,29.614,71.568,30.889C81.477,36.683,87.632,47.402,87.632,58.862C87.632,76.719,73.104,91.248,55.247,91.248C37.394,91.248,22.866,76.719,22.866,58.862C22.866,47.206,29.176,36.395,39.337,30.652C41.537,29.408,42.31,26.618,41.071,24.419C39.827,22.224,37.042,21.446,34.838,22.69C21.809,30.053,13.72,43.913,13.72,58.862C13.72,81.763,32.35,100.394,55.247,100.394C78.148,100.394,96.778,81.763,96.778,58.862C96.778,44.165,88.885,30.423,76.186,22.992ZM76.186,22.992"/>
</g>
  <g id="Light-M" transform="matrix(1.0,0.0,0.0,1.0,1099.5446410144082,1036.3336634175428)">  <path stroke-linejoin="miter" stroke-opacity="1" fill-rule="evenodd" clip-rule="evenodd" fill="#000000" stroke-width="1px" stroke-dasharray="none" stroke="none" fill-opacity="1" stroke-linecap="butt" stroke-miterlimit="4" d="M55.583,45.729C58.103,45.729,60.156,43.662,60.156,41.102L60.156,13.778C60.156,11.213,58.103,9.146,55.583,9.146C53.064,9.146,51.01,11.213,51.01,13.778L51.01,41.102C51.01,43.662,53.064,45.729,55.583,45.729ZM55.583,45.729"/>
  <path stroke-linejoin="miter" fill-rule="evenodd" stroke-width="1px" fill-opacity="1" stroke-linecap="butt" stroke-miterlimit="4" stroke-opacity="1" stroke-dasharray="none" clip-rule="evenodd" stroke="none" fill="#000000" d="M76.186,22.992C73.996,21.716,71.206,22.448,69.93,24.629C68.659,26.81,69.391,29.614,71.568,30.889C81.477,36.683,87.632,47.402,87.632,58.862C87.632,76.719,73.104,91.248,55.247,91.248C37.394,91.248,22.866,76.719,22.866,58.862C22.866,47.206,29.176,36.395,39.337,30.652C41.537,29.408,42.31,26.618,41.071,24.419C39.827,22.224,37.042,21.446,34.838,22.69C21.809,30.053,13.72,43.913,13.72,58.862C13.72,81.763,32.35,100.394,55.247,100.394C78.148,100.394,96.778,81.763,96.778,58.862C96.778,44.165,88.885,30.423,76.186,22.992ZM76.186,22.992"/>
</g>
  <g id="Thin-M" transform="matrix(1.0,0.0,0.0,1.0,802.8346410144081,1036.3336634175428)">  <path clip-rule="evenodd" stroke-linejoin="miter" stroke="none" stroke-dasharray="none" stroke-linecap="butt" fill="#000000" fill-opacity="1" stroke-miterlimit="4" stroke-opacity="1" stroke-width="1px" fill-rule="evenodd" d="M55.583,45.729C58.103,45.729,60.156,43.662,60.156,41.102L60.156,13.778C60.156,11.213,58.103,9.146,55.583,9.146C53.064,9.146,51.01,11.213,51.01,13.778L51.01,41.102C51.01,43.662,53.064,45.729,55.583,45.729ZM55.583,45.729"/>
  <path stroke-linejoin="miter" stroke="none" clip-rule="evenodd" stroke-width="1px" fill="#000000" fill-opacity="1" stroke-linecap="butt" fill-rule="evenodd" stroke-miterlimit="4" stroke-opacity="1" stroke-dasharray="none" d="M76.186,22.992C73.996,21.716,71.206,22.448,69.93,24.629C68.659,26.81,69.391,29.614,71.568,30.889C81.477,36.683,87.632,47.402,87.632,58.862C87.632,76.719,73.104,91.248,55.247,91.248C37.394,91.248,22.866,76.719,22.866,58.862C22.866,47.206,29.176,36.395,39.337,30.652C41.537,29.408,42.31,26.618,41.071,24.419C39.827,22.224,37.042,21.446,34.838,22.69C21.809,30.053,13.72,43.913,13.72,58.862C13.72,81.763,32.35,100.394,55.247,100.394C78.148,100.394,96.778,81.763,96.778,58.862C96.778,44.165,88.885,30.423,76.186,22.992ZM76.186,22.992"/>
</g>
  <g id="Ultralight-M" transform="matrix(1.0,0.0,0.0,1.0,506.1246410144081,1036.3336634175428)">  <path stroke-linecap="butt" stroke-dasharray="none" stroke-opacity="1" fill="#000000" fill-rule="evenodd" stroke-miterlimit="4" stroke="none" clip-rule="evenodd" stroke-width="1px" fill-opacity="1" stroke-linejoin="miter" d="M55.583,45.729C58.103,45.729,60.156,43.662,60.156,41.102L60.156,13.778C60.156,11.213,58.103,9.146,55.583,9.146C53.064,9.146,51.01,11.213,51.01,13.778L51.01,41.102C51.01,43.662,53.064,45.729,55.583,45.729ZM55.583,45.729"/>
  <path fill-rule="evenodd" stroke-linejoin="miter" stroke-miterlimit="4" stroke-opacity="1" stroke="none" clip-rule="evenodd" stroke-linecap="butt" stroke-dasharray="none" stroke-width="1px" fill="#000000" fill-opacity="1" d="M76.186,22.992C73.996,21.716,71.206,22.448,69.93,24.629C68.659,26.81,69.391,29.614,71.568,30.889C81.477,36.683,87.632,47.402,87.632,58.862C87.632,76.719,73.104,91.248,55.247,91.248C37.394,91.248,22.866,76.719,22.866,58.862C22.866,47.206,29.176,36.395,39.337,30.652C41.537,29.408,42.31,26.618,41.071,24.419C39.827,22.224,37.042,21.446,34.838,22.69C21.809,30.053,13.72,43.913,13.72,58.862C13.72,81.763,32.35,100.394,55.247,100.394C78.148,100.394,96.778,81.763,96.778,58.862C96.778,44.165,88.885,30.423,76.186,22.992ZM76.186,22.992"/>
</g>
  <g id="Black-S" transform="matrix(1.0,0.0,0.0,1.0,2891.7125939142816,618.1463526942173)">  <path stroke="none" stroke-width="1px" clip-rule="evenodd" stroke-opacity="1" fill-opacity="1" stroke-linecap="butt" stroke-dasharray="none" fill="#000000" stroke-miterlimit="4" stroke-linejoin="miter" fill-rule="evenodd" d="M43.522,35.806C45.495,35.806,47.102,34.188,47.102,32.183L47.102,10.788C47.102,8.78,45.495,7.161,43.522,7.161C41.549,7.161,39.941,8.78,39.941,10.788L39.941,32.183C39.941,34.188,41.549,35.806,43.522,35.806ZM43.522,35.806"/>
  <path stroke-opacity="1" stroke-miterlimit="4" stroke="none" clip-rule="evenodd" stroke-dasharray="none" fill-opacity="1" fill="#000000" stroke-linejoin="miter" fill-rule="evenodd" stroke-linecap="butt" stroke-width="1px" d="M59.654,18.003C57.939,17.004,55.755,17.577,54.756,19.285C53.76,20.993,54.333,23.187,56.037,24.186C63.797,28.723,68.616,37.116,68.616,46.089C68.616,60.071,57.24,71.447,43.258,71.447C29.279,71.447,17.904,60.071,17.904,46.089C17.904,36.962,22.845,28.498,30.801,24C32.523,23.026,33.129,20.842,32.158,19.12C31.184,17.401,29.004,16.792,27.278,17.766C17.077,23.531,10.743,34.384,10.743,46.089C10.743,64.021,25.33,78.608,43.258,78.608C61.19,78.608,75.777,64.021,75.777,46.089C75.777,34.581,69.597,23.821,59.654,18.003ZM59.654,18.003"/>
</g>
  <g id="Heavy-S" transform="matrix(1.0,0.0,0.0,1.0,2595.0025939142815,618.1463526942173)">  <path stroke-miterlimit="4" stroke-linejoin="miter" stroke-width="1px" clip-rule="evenodd" stroke-linecap="butt" fill-opacity="1" fill="#000000" stroke="none" fill-rule="evenodd" stroke-dasharray="none" stroke-opacity="1" d="M43.522,35.806C45.495,35.806,47.102,34.188,47.102,32.183L47.102,10.788C47.102,8.78,45.495,7.161,43.522,7.161C41.549,7.161,39.941,8.78,39.941,10.788L39.941,32.183C39.941,34.188,41.549,35.806,43.522,35.806ZM43.522,35.806"/>
  <path fill="#000000" fill-rule="evenodd" fill-opacity="1" stroke-opacity="1" stroke-linejoin="miter" stroke-miterlimit="4" stroke-width="1px" stroke="none" stroke-linecap="butt" clip-rule="evenodd" stroke-dasharray="none" d="M59.654,18.003C57.939,17.004,55.755,17.577,54.756,19.285C53.76,20.993,54.333,23.187,56.037,24.186C63.797,28.723,68.616,37.116,68.616,46.089C68.616,60.071,57.24,71.447,43.258,71.447C29.279,71.447,17.904,60.071,17.904,46.089C17.904,36.962,22.845,28.498,30.801,24C32.523,23.026,33.129,20.842,32.158,19.12C31.184,17.401,29.004,16.792,27.278,17.766C17.077,23.531,10.743,34.384,10.743,46.089C10.743,64.021,25.33,78.608,43.258,78.608C61.19,78.608,75.777,64.021,75.777,46.089C75.777,34.581,69.597,23.821,59.654,18.003ZM59.654,18.003"/>
</g>
  <g id="Bold-S" transform="matrix(1.0,0.0,0.0,1.0,2298.2925939142815,618.1463526942173)">  <path stroke-opacity="1" stroke-linejoin="miter" fill="#000000" fill-rule="evenodd" fill-opacity="1" stroke-miterlimit="4" stroke-linecap="butt" clip-rule="evenodd" stroke-width="1px" stroke-dasharray="none" stroke="none" d="M43.522,35.806C45.495,35.806,47.102,34.188,47.102,32.183L47.102,10.788C47.102,8.78,45.495,7.161,43.522,7.161C41.549,7.161,39.941,8.78,39.941,10.788L39.941,32.183C39.941,34.188,41.549,35.806,43.522,35.806ZM43.522,35.806"/>
  <path stroke-dasharray="none" stroke-width="1px" stroke-linejoin="miter" fill-rule="evenodd" stroke-opacity="1" stroke-linecap="butt" clip-rule="evenodd" stroke="none" fill="#000000" stroke-miterlimit="4" fill-opacity="1" d="M59.654,18.003C57.939,17.004,55.755,17.577,54.756,19.285C53.76,20.993,54.333,23.187,56.037,24.186C63.797,28.723,68.616,37.116,68.616,46.089C68.616,60.071,57.24,71.447,43.258,71.447C29.279,71.447,17.904,60.071,17.904,46.089C17.904,36.962,22.845,28.498,30.801,24C32.523,23.026,33.129,20.842,32.158,19.12C31.184,17.401,29.004,16.792,27.278,17.766C17.077,23.531,10.743,34.384,10.743,46.089C10.743,64.021,25.33,78.608,43.258,78.608C61.19,78.608,75.777,64.021,75.777,46.089C75.777,34.581,69.597,23.821,59.654,18.003ZM59.654,18.003"/>
</g>
  <g id="Semibold-S" transform="matrix(1.0,0.0,0.0,1.0,2001.5825939142815,618.1463526942173)">  <path stroke-width="1px" stroke-opacity="1" fill-rule="evenodd" stroke="none" stroke-miterlimit="4" fill-opacity="1" fill="#000000" stroke-linecap="butt" stroke-linejoin="miter" stroke-dasharray="none" clip-rule="evenodd" d="M43.522,35.806C45.495,35.806,47.102,34.188,47.102,32.183L47.102,10.788C47.102,8.78,45.495,7.161,43.522,7.161C41.549,7.161,39.941,8.78,39.941,10.788L39.941,32.183C39.941,34.188,41.549,35.806,43.522,35.806ZM43.522,35.806"/>
  <path fill-rule="evenodd" stroke-miterlimit="4" stroke-dasharray="none" stroke-linecap="butt" fill="#000000" stroke-opacity="1" stroke="none" stroke-width="1px" stroke-linejoin="miter" fill-opacity="1" clip-rule="evenodd" d="M59.654,18.003C57.939,17.004,55.755,17.577,54.756,19.285C53.76,20.993,54.333,23.187,56.037,24.186C63.797,28.723,68.616,37.116,68.616,46.089C68.616,60.071,57.24,71.447,43.258,71.447C29.279,71.447,17.904,60.071,17.904,46.089C17.904,36.962,22.845,28.498,30.801,24C32.523,23.026,33.129,20.842,32.158,19.12C31.184,17.401,29.004,16.792,27.278,17.766C17.077,23.531,10.743,34.384,10.743,46.089C10.743,64.021,25.33,78.608,43.258,78.608C61.19,78.608,75.777,64.021,75.777,46.089C75.777,34.581,69.597,23.821,59.654,18.003ZM59.654,18.003"/>
</g>
  <g id="Medium-S" transform="matrix(1.0,0.0,0.0,1.0,1704.8725939142814,618.1463526942173)">  <path stroke-width="1px" stroke-opacity="1" stroke-linejoin="miter" stroke-linecap="butt" clip-rule="evenodd" fill-rule="evenodd" stroke-dasharray="none" stroke="none" stroke-miterlimit="4" fill-opacity="1" fill="#000000" d="M43.522,35.806C45.495,35.806,47.102,34.188,47.102,32.183L47.102,10.788C47.102,8.78,45.495,7.161,43.522,7.161C41.549,7.161,39.941,8.78,39.941,10.788L39.941,32.183C39.941,34.188,41.549,35.806,43.522,35.806ZM43.522,35.806"/>
  <path fill="#000000" stroke-linecap="butt" stroke-dasharray="none" stroke-width="1px" fill-opacity="1" clip-rule="evenodd" fill-rule="evenodd" stroke-opacity="1" stroke-linejoin="miter" stroke-miterlimit="4" stroke="none" d="M59.654,18.003C57.939,17.004,55.755,17.577,54.756,19.285C53.76,20.993,54.333,23.187,56.037,24.186C63.797,28.723,68.616,37.116,68.616,46.089C68.616,60.071,57.24,71.447,43.258,71.447C29.279,71.447,17.904,60.071,17.904,46.089C17.904,36.962,22.845,28.498,30.801,24C32.523,23.026,33.129,20.842,32.158,19.12C31.184,17.401,29.004,16.792,27.278,17.766C17.077,23.531,10.743,34.384,10.743,46.089C10.743,64.021,25.33,78.608,43.258,78.608C61.19,78.608,75.777,64.021,75.777,46.089C75.777,34.581,69.597,23.821,59.654,18.003ZM59.654,18.003"/>
</g>
  <g id="Regular-S" transform="matrix(1.0,0.0,0.0,1.0,1408.1625939142814,618.1463526942173)">  <path fill="#000000" stroke="none" stroke-linecap="butt" stroke-miterlimit="4" stroke-dasharray="none" clip-rule="evenodd" stroke-opacity="1" fill-rule="evenodd" stroke-width="1px" fill-opacity="1" stroke-linejoin="miter" d="M43.522,35.806C45.495,35.806,47.102,34.188,47.102,32.183L47.102,10.788C47.102,8.78,45.495,7.161,43.522,7.161C41.549,7.161,39.941,8.78,39.941,10.788L39.941,32.183C39.941,34.188,41.549,35.806,43.522,35.806ZM43.522,35.806"/>
  <path stroke-opacity="1" stroke-dasharray="none" stroke-linejoin="miter" fill-rule="evenodd" clip-rule="evenodd" stroke-linecap="butt" fill-opacity="1" stroke-width="1px" stroke="none" stroke-miterlimit="4" fill="#000000" d="M59.654,18.003C57.939,17.004,55.755,17.577,54.756,19.285C53.76,20.993,54.333,23.187,56.037,24.186C63.797,28.723,68.616,37.116,68.616,46.089C68.616,60.071,57.24,71.447,43.258,71.447C29.279,71.447,17.904,60.071,17.904,46.089C17.904,36.962,22.845,28.498,30.801,24C32.523,23.026,33.129,20.842,32.158,19.12C31.184,17.401,29.004,16.792,27.278,17.766C17.077,23.531,10.743,34.384,10.743,46.089C10.743,64.021,25.33,78.608,43.258,78.608C61.19,78.608,75.777,64.021,75.777,46.089C75.777,34.581,69.597,23.821,59.654,18.003ZM59.654,18.003"/>
</g>
  <g id="Light-S" transform="matrix(1.0,0.0,0.0,1.0,1111.4525939142816,618.1463526942173)">  <path stroke-linejoin="miter" stroke-opacity="1" fill-rule="evenodd" clip-rule="evenodd" fill="#000000" stroke-width="1px" stroke-dasharray="none" stroke="none" fill-opacity="1" stroke-linecap="butt" stroke-miterlimit="4" d="M43.522,35.806C45.495,35.806,47.102,34.188,47.102,32.183L47.102,10.788C47.102,8.78,45.495,7.161,43.522,7.161C41.549,7.161,39.941,8.78,39.941,10.788L39.941,32.183C39.941,34.188,41.549,35.806,43.522,35.806ZM43.522,35.806"/>
  <path stroke-linejoin="miter" fill-rule="evenodd" stroke-width="1px" fill-opacity="1" stroke-linecap="butt" stroke-miterlimit="4" stroke-opacity="1" stroke-dasharray="none" clip-rule="evenodd" stroke="none" fill="#000000" d="M59.654,18.003C57.939,17.004,55.755,17.577,54.756,19.285C53.76,20.993,54.333,23.187,56.037,24.186C63.797,28.723,68.616,37.116,68.616,46.089C68.616,60.071,57.24,71.447,43.258,71.447C29.279,71.447,17.904,60.071,17.904,46.089C17.904,36.962,22.845,28.498,30.801,24C32.523,23.026,33.129,20.842,32.158,19.12C31.184,17.401,29.004,16.792,27.278,17.766C17.077,23.531,10.743,34.384,10.743,46.089C10.743,64.021,25.33,78.608,43.258,78.608C61.19,78.608,75.777,64.021,75.777,46.089C75.777,34.581,69.597,23.821,59.654,18.003ZM59.654,18.003"/>
</g>
  <g id="Thin-S" transform="matrix(1.0,0.0,0.0,1.0,814.7425939142815,618.1463526942173)">  <path clip-rule="evenodd" stroke-linejoin="miter" stroke="none" stroke-dasharray="none" stroke-linecap="butt" fill="#000000" fill-opacity="1" stroke-miterlimit="4" stroke-opacity="1" stroke-width="1px" fill-rule="evenodd" d="M43.522,35.806C45.495,35.806,47.102,34.188,47.102,32.183L47.102,10.788C47.102,8.78,45.495,7.161,43.522,7.161C41.549,7.161,39.941,8.78,39.941,10.788L39.941,32.183C39.941,34.188,41.549,35.806,43.522,35.806ZM43.522,35.806"/>
  <path stroke-linejoin="miter" stroke="none" clip-rule="evenodd" stroke-width="1px" fill="#000000" fill-opacity="1" stroke-linecap="butt" fill-rule="evenodd" stroke-miterlimit="4" stroke-opacity="1" stroke-dasharray="none" d="M59.654,18.003C57.939,17.004,55.755,17.577,54.756,19.285C53.76,20.993,54.333,23.187,56.037,24.186C63.797,28.723,68.616,37.116,68.616,46.089C68.616,60.071,57.24,71.447,43.258,71.447C29.279,71.447,17.904,60.071,17.904,46.089C17.904,36.962,22.845,28.498,30.801,24C32.523,23.026,33.129,20.842,32.158,19.12C31.184,17.401,29.004,16.792,27.278,17.766C17.077,23.531,10.743,34.384,10.743,46.089C10.743,64.021,25.33,78.608,43.258,78.608C61.19,78.608,75.777,64.021,75.777,46.089C75.777,34.581,69.597,23.821,59.654,18.003ZM59.654,18.003"/>
</g>
  <g id="Ultralight-S" transform="matrix(1.0,0.0,0.0,1.0,518.0325939142815,618.1463526942173)">  <path stroke-linecap="butt" stroke-dasharray="none" stroke-opacity="1" fill="#000000" fill-rule="evenodd" stroke-miterlimit="4" stroke="none" clip-rule="evenodd" stroke-width="1px" fill-opacity="1" stroke-linejoin="miter" d="M43.522,35.806C45.495,35.806,47.102,34.188,47.102,32.183L47.102,10.788C47.102,8.78,45.495,7.161,43.522,7.161C41.549,7.161,39.941,8.78,39.941,10.788L39.941,32.183C39.941,34.188,41.549,35.806,43.522,35.806ZM43.522,35.806"/>
  <path fill-rule="evenodd" stroke-linejoin="miter" stroke-miterlimit="4" stroke-opacity="1" stroke="none" clip-rule="evenodd" stroke-linecap="butt" stroke-dasharray="none" stroke-width="1px" fill="#000000" fill-opacity="1" d="M59.654,18.003C57.939,17.004,55.755,17.577,54.756,19.285C53.76,20.993,54.333,23.187,56.037,24.186C63.797,28.723,68.616,37.116,68.616,46.089C68.616,60.071,57.24,71.447,43.258,71.447C29.279,71.447,17.904,60.071,17.904,46.089C17.904,36.962,22.845,28.498,30.801,24C32.523,23.026,33.129,20.842,32.158,19.12C31.184,17.401,29.004,16.792,27.278,17.766C17.077,23.531,10.743,34.384,10.743,46.089C10.743,64.021,25.33,78.608,43.258,78.608C61.19,78.608,75.777,64.021,75.777,46.089C75.777,34.581,69.597,23.821,59.654,18.003ZM59.654,18.003"/>
</g>
 </g>
</svg>
