<?xml version="1.0" encoding="UTF-8"?>
<!-- Generator: CustomSymbols v2.6.1.40 by @serious_bret https://bretlester.com/app_content/CustomSymbols/ -->
<!-- Guides: Left/Right 0.083/0.085 Cap/Base 0.295/0.303 -->
<!-- Settings: RefScale 1.0 Min/Max Stroke Scales 0.5/2.21 -->
<!DOCTYPE svg
PUBLIC "-//W3C//DTD SVG 1.1//EN"
       "http://www.w3.org/Graphics/SVG/1.1/DTD/svg11.dtd">
<svg version="1.1" xmlns="http://www.w3.org/2000/svg" xmlns:xlink="http://www.w3.org/1999/xlink" width="3300" height="2200">
<![CDATA[<svg width="24" height="24" viewBox="0 0 24 24" fill="none" xmlns="http://www.w3.org/2000/svg">
<mask id="mask0" mask-type="alpha" maskUnits="userSpaceOnUse" x="2" y="6" width="20" height="12">
<path d="M16.8079 13.3911C15.9757 13.3911 15.4309 12.7476 15.4309 11.93C15.4309 11.1048 15.9757 10.4689 16.8079 10.4689C17.6401 10.4689 18.1772 11.1048 18.1772 11.93C18.1772 12.7476 17.6401 13.3911 16.8079 13.3911ZM11.6936 11.6196H10.6647V10.537H11.6936C12.0416 10.537 12.3215 10.7263 12.3215 11.0745C12.3215 11.4303 12.0416 11.6196 11.6936 11.6196ZM6.829 11.6196H5.80009V10.537H6.829C7.17701 10.537 7.45693 10.7338 7.45693 11.0821C7.45693 11.4228 7.17701 11.6196 6.829 11.6196ZM3.44231 17.86C2.64702 17.86 2 17.2365 2 16.4702V7.38984C2 6.62348 2.64702 6 3.44231 6H20.5577C21.353 6 22 6.62348 22 7.38984V16.4702C22 17.2365 21.353 17.86 20.5577 17.86H3.44231ZM5.80009 14.451V12.7552H7.0257C8.16052 12.7552 8.78089 11.9906 8.78089 11.0821C8.78089 10.166 8.16052 9.40139 7.0257 9.40139H4.49883V14.451H5.80009ZM13.6682 14.451L12.6393 12.5962C13.1159 12.4297 13.6455 11.9603 13.6455 11.0821C13.6455 10.1433 13.01 9.40139 11.8903 9.40139H9.36343V14.451H10.6647V12.7552H11.3305L12.1778 14.451H13.6682ZM16.8079 14.5419C18.3512 14.5419 19.5012 13.4668 19.5012 11.93C19.5012 10.3932 18.3512 9.31812 16.8079 9.31812C15.2645 9.31812 14.107 10.3932 14.107 11.93C14.107 13.4668 15.2645 14.5419 16.8079 14.5419Z" fill="black"/>
</mask>
<g mask="url(#mask0)">
<path d="M16.8079 13.3911C15.9757 13.3911 15.4309 12.7476 15.4309 11.93C15.4309 11.1048 15.9757 10.4689 16.8079 10.4689C17.6401 10.4689 18.1772 11.1048 18.1772 11.93C18.1772 12.7476 17.6401 13.3911 16.8079 13.3911ZM11.6936 11.6196H10.6647V10.537H11.6936C12.0416 10.537 12.3215 10.7263 12.3215 11.0745C12.3215 11.4303 12.0416 11.6196 11.6936 11.6196ZM6.829 11.6196H5.80009V10.537H6.829C7.17701 10.537 7.45693 10.7338 7.45693 11.0821C7.45693 11.4228 7.17701 11.6196 6.829 11.6196ZM3.44231 17.86C2.64702 17.86 2 17.2365 2 16.4702V7.38984C2 6.62348 2.64702 6 3.44231 6H20.5577C21.353 6 22 6.62348 22 7.38984V16.4702C22 17.2365 21.353 17.86 20.5577 17.86H3.44231ZM5.80009 14.451V12.7552H7.0257C8.16052 12.7552 8.78089 11.9906 8.78089 11.0821C8.78089 10.166 8.16052 9.40139 7.0257 9.40139H4.49883V14.451H5.80009ZM13.6682 14.451L12.6393 12.5962C13.1159 12.4297 13.6455 11.9603 13.6455 11.0821C13.6455 10.1433 13.01 9.40139 11.8903 9.40139H9.36343V14.451H10.6647V12.7552H11.3305L12.1778 14.451H13.6682ZM16.8079 14.5419C18.3512 14.5419 19.5012 13.4668 19.5012 11.93C19.5012 10.3932 18.3512 9.31812 16.8079 9.31812C15.2645 9.31812 14.107 10.3932 14.107 11.93C14.107 13.4668 15.2645 14.5419 16.8079 14.5419Z" fill="black"/>
</g>
</svg>
]]>
 <g id="Notes">
  <rect height="2200" id="artboard" style="fill:white;opacity:1" width="3300" x="0" y="0"/>
  <line id="" style="fill:none;stroke:black;opacity:1;stroke-width:0.5;" x1="263" x2="3036" y1="292" y2="292"/>
  <text id="reftext1" style="stroke:none;fill:black;font-family:-apple-system,&quot;SF Pro Display&quot;,&quot;SF Pro Text&quot;,Helvetica,sans-serif;font-weight:bold;" transform="matrix(1 0 0 1 263 322)">Weight/Scale Variations</text>
  <text id="reftext2" style="stroke:none;fill:black;font-family:-apple-system,&quot;SF Pro Display&quot;,&quot;SF Pro Text&quot;,Helvetica,sans-serif;text-anchor:middle;" transform="matrix(1 0 0 1 559.711 322)">Ultralight</text>
  <text style="stroke:none;fill:black;font-family:-apple-system,&quot;SF Pro Display&quot;,&quot;SF Pro Text&quot;,Helvetica,sans-serif;text-anchor:middle;" transform="matrix(1 0 0 1 856.422 322)">Thin</text>
  <text style="stroke:none;fill:black;font-family:-apple-system,&quot;SF Pro Display&quot;,&quot;SF Pro Text&quot;,Helvetica,sans-serif;text-anchor:middle;" transform="matrix(1 0 0 1 1153.13 322)">Light</text>
  <text style="stroke:none;fill:black;font-family:-apple-system,&quot;SF Pro Display&quot;,&quot;SF Pro Text&quot;,Helvetica,sans-serif;text-anchor:middle;" transform="matrix(1 0 0 1 1449.84 322)">Regular</text>
  <text style="stroke:none;fill:black;font-family:-apple-system,&quot;SF Pro Display&quot;,&quot;SF Pro Text&quot;,Helvetica,sans-serif;text-anchor:middle;" transform="matrix(1 0 0 1 1746.56 322)">Medium</text>
  <text style="stroke:none;fill:black;font-family:-apple-system,&quot;SF Pro Display&quot;,&quot;SF Pro Text&quot;,Helvetica,sans-serif;text-anchor:middle;" transform="matrix(1 0 0 1 2043.27 322)">Semibold</text>
  <text style="stroke:none;fill:black;font-family:-apple-system,&quot;SF Pro Display&quot;,&quot;SF Pro Text&quot;,Helvetica,sans-serif;text-anchor:middle;" transform="matrix(1 0 0 1 2339.98 322)">Bold</text>
  <text style="stroke:none;fill:black;font-family:-apple-system,&quot;SF Pro Display&quot;,&quot;SF Pro Text&quot;,Helvetica,sans-serif;text-anchor:middle;" transform="matrix(1 0 0 1 2636.69 322)">Heavy</text>
  <text style="stroke:none;fill:black;font-family:-apple-system,&quot;SF Pro Display&quot;,&quot;SF Pro Text&quot;,Helvetica,sans-serif;text-anchor:middle;" transform="matrix(1 0 0 1 2933.4 322)">Black</text>
  <line id="" style="fill:none;stroke:black;opacity:1;stroke-width:0.5;" x1="263" x2="3036" y1="1903" y2="1903"/>
  <g id="" transform="matrix(1 0 0 1 263 1933)">
   <path d="M9.24805 0.830078C13.5547 0.830078 17.1387-2.74414 17.1387-7.05078C17.1387-11.3574 13.5449-14.9316 9.23828-14.9316C4.94141-14.9316 1.36719-11.3574 1.36719-7.05078C1.36719-2.74414 4.95117 0.830078 9.24805 0.830078ZM9.24805-0.654297C5.70312-0.654297 2.87109-3.49609 2.87109-7.05078C2.87109-10.6055 5.69336-13.4473 9.23828-13.4473C12.793-13.4473 15.6348-10.6055 15.6445-7.05078C15.6543-3.49609 12.8027-0.654297 9.24805-0.654297ZM6.39648-6.31836L8.50586-6.31836L8.50586-4.19922C8.50586-3.75977 8.79883-3.45703 9.22852-3.45703C9.67773-3.45703 9.9707-3.75977 9.9707-4.19922L9.9707-6.31836L12.0996-6.31836C12.5391-6.31836 12.8418-6.61133 12.8418-7.04102C12.8418-7.48047 12.5391-7.7832 12.0996-7.7832L9.9707-7.7832L9.9707-9.89258C9.9707-10.3418 9.67773-10.6445 9.22852-10.6445C8.79883-10.6445 8.50586-10.3418 8.50586-9.89258L8.50586-7.7832L6.39648-7.7832C5.94727-7.7832 5.64453-7.48047 5.64453-7.04102C5.64453-6.61133 5.94727-6.31836 6.39648-6.31836Z"/>
  </g>
  <g id="" transform="matrix(1 0 0 1 281.506 1933)">
   <path d="M11.709 2.91016C17.1582 2.91016 21.6699-1.61133 21.6699-7.05078C21.6699-12.5 17.1484-17.0117 11.6992-17.0117C6.25977-17.0117 1.74805-12.5 1.74805-7.05078C1.74805-1.61133 6.26953 2.91016 11.709 2.91016ZM11.709 1.25C7.09961 1.25 3.41797-2.44141 3.41797-7.05078C3.41797-11.6602 7.08984-15.3516 11.6992-15.3516C16.3086-15.3516 20-11.6602 20.0098-7.05078C20.0195-2.44141 16.3184 1.25 11.709 1.25ZM7.98828-6.23047L10.8789-6.23047L10.8789-3.32031C10.8789-2.83203 11.2109-2.5 11.6895-2.5C12.1777-2.5 12.5195-2.83203 12.5195-3.32031L12.5195-6.23047L15.4297-6.23047C15.918-6.23047 16.25-6.5625 16.25-7.04102C16.25-7.5293 15.918-7.87109 15.4297-7.87109L12.5195-7.87109L12.5195-10.7617C12.5195-11.2695 12.1777-11.6016 11.6895-11.6016C11.2109-11.6016 10.8789-11.2598 10.8789-10.7617L10.8789-7.87109L7.98828-7.87109C7.48047-7.87109 7.14844-7.5293 7.14844-7.04102C7.14844-6.5625 7.49023-6.23047 7.98828-6.23047Z"/>
  </g>
  <g id="" transform="matrix(1 0 0 1 304.924 1933)">
   <path d="M14.9707 5.66406C21.9336 5.66406 27.6953-0.0976562 27.6953-7.05078C27.6953-14.0137 21.9238-19.7754 14.9609-19.7754C8.00781-19.7754 2.25586-14.0137 2.25586-7.05078C2.25586-0.0976562 8.01758 5.66406 14.9707 5.66406ZM14.9707 3.84766C8.93555 3.84766 4.08203-1.01562 4.08203-7.05078C4.08203-13.0957 8.92578-17.9492 14.9609-17.9492C21.0059-17.9492 25.8594-13.0957 25.8691-7.05078C25.8789-1.01562 21.0156 3.84766 14.9707 3.84766ZM10.0586-6.14258L14.0625-6.14258L14.0625-2.12891C14.0625-1.5918 14.4336-1.2207 14.9512-1.2207C15.4883-1.2207 15.8594-1.5918 15.8594-2.12891L15.8594-6.14258L19.8828-6.14258C20.4102-6.14258 20.791-6.51367 20.791-7.03125C20.791-7.56836 20.4199-7.94922 19.8828-7.94922L15.8594-7.94922L15.8594-11.9531C15.8594-12.5098 15.4883-12.8809 14.9512-12.8809C14.4336-12.8809 14.0625-12.5 14.0625-11.9531L14.0625-7.94922L10.0586-7.94922C9.50195-7.94922 9.13086-7.56836 9.13086-7.03125C9.13086-6.51367 9.51172-6.14258 10.0586-6.14258Z"/>
  </g>
  <text style="stroke:none;fill:black;font-family:-apple-system,&quot;SF Pro Display&quot;,&quot;SF Pro Text&quot;,Helvetica,sans-serif;font-weight:bold;" transform="matrix(1 0 0 1 263 1953)">Design Variations</text>
  <text style="stroke:none;fill:black;font-family:-apple-system,&quot;SF Pro Display&quot;,&quot;SF Pro Text&quot;,Helvetica,sans-serif;" transform="matrix(1 0 0 1 263 1971)">Symbols are supported in up to nine weights and three scales.</text>
  <text style="stroke:none;fill:black;font-family:-apple-system,&quot;SF Pro Display&quot;,&quot;SF Pro Text&quot;,Helvetica,sans-serif;" transform="matrix(1 0 0 1 263 1989)">For optimal layout with text and other symbols, vertically align</text>
  <text style="stroke:none;fill:black;font-family:-apple-system,&quot;SF Pro Display&quot;,&quot;SF Pro Text&quot;,Helvetica,sans-serif;" transform="matrix(1 0 0 1 263 2007)">symbols with the adjacent text.</text>
  <line id="" style="fill:none;stroke:#00AEEF;stroke-width:0.5;opacity:1.0;" x1="776" x2="776" y1="1919" y2="1933"/>
  <g id="" transform="matrix(1 0 0 1 776 1933)">
   <path d="M3.31055 0.126953C3.82812 0.126953 4.08203-0.0683594 4.26758-0.605469L5.52734-4.0625L11.2891-4.0625L12.5488-0.605469C12.7344-0.0683594 12.9883 0.126953 13.4961 0.126953C14.0137 0.126953 14.3457-0.185547 14.3457-0.673828C14.3457-0.839844 14.3164-0.986328 14.2383-1.20117L9.6582-13.3887C9.43359-13.9941 9.0332-14.2871 8.4082-14.2871C7.80273-14.2871 7.39258-13.9941 7.17773-13.3984L2.59766-1.19141C2.51953-0.976562 2.49023-0.830078 2.49023-0.664062C2.49023-0.175781 2.80273 0.126953 3.31055 0.126953ZM6.00586-5.53711L8.37891-12.1094L8.42773-12.1094L10.8008-5.53711Z"/>
  </g>
  <line id="" style="fill:none;stroke:#00AEEF;stroke-width:0.5;opacity:1.0;" x1="792.836" x2="792.836" y1="1919" y2="1933"/>
  <text style="stroke:none;fill:black;font-family:-apple-system,&quot;SF Pro Display&quot;,&quot;SF Pro Text&quot;,Helvetica,sans-serif;font-weight:bold;" transform="matrix(1 0 0 1 776 1953)">Margins</text>
  <text style="stroke:none;fill:black;font-family:-apple-system,&quot;SF Pro Display&quot;,&quot;SF Pro Text&quot;,Helvetica,sans-serif;" transform="matrix(1 0 0 1 776 1971)">Leading and trailing margins on the left and right side of each symbol</text>
  <text style="stroke:none;fill:black;font-family:-apple-system,&quot;SF Pro Display&quot;,&quot;SF Pro Text&quot;,Helvetica,sans-serif;" transform="matrix(1 0 0 1 776 1989)">can be adjusted by modifying the x-location of the margin guidelines.</text>
  <text style="stroke:none;fill:black;font-family:-apple-system,&quot;SF Pro Display&quot;,&quot;SF Pro Text&quot;,Helvetica,sans-serif;" transform="matrix(1 0 0 1 776 2007)">Modifications are automatically applied proportionally to all</text>
  <text style="stroke:none;fill:black;font-family:-apple-system,&quot;SF Pro Display&quot;,&quot;SF Pro Text&quot;,Helvetica,sans-serif;" transform="matrix(1 0 0 1 776 2025)">scales and weights.</text>
  <g id="" transform="matrix(1 0 0 1 1289 1933)">
   <path d="M2.8418 1.86523L4.54102 3.57422C5.40039 4.44336 6.38672 4.38477 7.31445 3.35938L17.4902-7.85156C17.7539-7.76367 18.0273-7.7832 18.3398-7.8418L19.4043-8.03711L20.0684-7.36328L20.0293-6.80664C19.9902-6.30859 20.1172-5.92773 20.6055-5.44922L21.3672-4.70703C21.8457-4.22852 22.4609-4.19922 22.9297-4.66797L25.8398-7.58789C26.3086-8.05664 26.2891-8.65234 25.8105-9.13086L25.0391-9.89258C24.5605-10.3711 24.1895-10.5273 23.7109-10.4883L23.1348-10.4395L22.4902-11.0742L22.7344-12.1973C22.8613-12.7637 22.7051-13.2031 22.1191-13.7891L19.9219-15.9766C16.582-19.2969 12.1484-19.2188 9.25781-16.3281C8.83789-15.918 8.80859-15.3418 9.04297-14.9512C9.27734-14.5898 9.73633-14.3555 10.3809-14.5215C11.8457-14.8633 13.3691-14.9219 14.7949-13.9844L14.209-12.5293C14.0137-12.0508 13.9844-11.6504 14.1113-11.2891L3.04688-0.898438C2.06055 0.0195312 1.98242 0.996094 2.8418 1.86523ZM10.752-15.957C13.1836-17.7344 16.4746-17.4316 18.7012-15.2051L21.1328-12.793C21.3672-12.5586 21.4062-12.373 21.3379-12.0312L21.0156-10.5469L22.5195-9.0625L23.5059-9.12109C23.7598-9.13086 23.8379-9.11133 24.0332-8.91602L24.6094-8.33984L22.168-5.89844L21.5918-6.47461C21.3965-6.66992 21.3672-6.74805 21.377-7.01172L21.4453-7.98828L19.9512-9.47266L18.4277-9.21875C18.1055-9.15039 17.959-9.17969 17.7148-9.41406L15.7129-11.416C15.459-11.6504 15.4297-11.8164 15.5859-12.1875L16.4648-14.2773C14.9023-15.7324 12.8711-16.3574 10.8398-15.7617C10.6836-15.7227 10.625-15.8496 10.752-15.957ZM5.27344 2.30469L4.10156 1.14258C3.63281 0.683594 3.74023 0.341797 4.14062-0.0195312L14.9512-10.1953L16.416-8.71094L6.42578 2.27539C6.07422 2.67578 5.74219 2.77344 5.27344 2.30469Z"/>
  </g>
  <text style="stroke:none;fill:black;font-family:-apple-system,&quot;SF Pro Display&quot;,&quot;SF Pro Text&quot;,Helvetica,sans-serif;font-weight:bold;" transform="matrix(1 0 0 1 1289 1953)">Exporting</text>
  <text style="stroke:none;fill:black;font-family:-apple-system,&quot;SF Pro Display&quot;,&quot;SF Pro Text&quot;,Helvetica,sans-serif;" transform="matrix(1 0 0 1 1289 1971)">Symbols should be outlined when exporting to ensure the</text>
  <text style="stroke:none;fill:black;font-family:-apple-system,&quot;SF Pro Display&quot;,&quot;SF Pro Text&quot;,Helvetica,sans-serif;" transform="matrix(1 0 0 1 1289 1989)">design is preserved when submitting to Xcode.</text>
  <text id="template-version" style="stroke:none;fill:black;font-family:-apple-system,&quot;SF Pro Display&quot;,&quot;SF Pro Text&quot;,Helvetica,sans-serif;text-anchor:end;" transform="matrix(1 0 0 1 3036 1933)">Template v.2.0</text>
  <text style="stroke:none;fill:black;font-family:-apple-system,&quot;SF Pro Display&quot;,&quot;SF Pro Text&quot;,Helvetica,sans-serif;text-anchor:end;" transform="matrix(1 0 0 1 3036 1951)">Requires Xcode 12 or greater</text>
  <text style="stroke:none;fill:black;font-family:-apple-system,&quot;SF Pro Display&quot;,&quot;SF Pro Text&quot;,Helvetica,sans-serif;" transform="matrix(1 0 0 1 263 726)">Small</text>
  <text style="stroke:none;fill:black;font-family:-apple-system,&quot;SF Pro Display&quot;,&quot;SF Pro Text&quot;,Helvetica,sans-serif;" transform="matrix(1 0 0 1 263 1156)">Medium</text>
  <text style="stroke:none;fill:black;font-family:-apple-system,&quot;SF Pro Display&quot;,&quot;SF Pro Text&quot;,Helvetica,sans-serif;" transform="matrix(1 0 0 1 263 1586)">Large</text>
 </g>
 <g id="Guides">
  <g id="H-reference" style="fill:#27AAE1;stroke:none;" transform="matrix(1 0 0 1 339 696)">
   <path d="M0.976562 0L3.66211 0L12.9883-24.4629L45.752-24.4629L55.127 0L57.7637 0L30.6152-70.459L28.125-70.459ZM29.3457-67.1387L29.4434-67.1387L44.873-26.709L13.8672-26.709Z"/>
  </g>
  <line id="Baseline-S" style="fill:none;stroke:#27AAE1;opacity:1;stroke-width:0.5;" x1="263" x2="3036" y1="696" y2="696"/>
  <line id="Capline-S" style="fill:none;stroke:#27AAE1;opacity:1;stroke-width:0.5;" x1="263" x2="3036" y1="625.541" y2="625.541"/>
  <g id="H-reference" style="fill:#27AAE1;stroke:none;" transform="matrix(1 0 0 1 339 1126)">
   <path d="M0.976562 0L3.66211 0L12.9883-24.4629L45.752-24.4629L55.127 0L57.7637 0L30.6152-70.459L28.125-70.459ZM29.3457-67.1387L29.4434-67.1387L44.873-26.709L13.8672-26.709Z"/>
  </g>
  <line id="Baseline-M" style="fill:none;stroke:#27AAE1;opacity:1;stroke-width:0.5;" x1="263" x2="3036" y1="1126" y2="1126"/>
  <line id="Capline-M" style="fill:none;stroke:#27AAE1;opacity:1;stroke-width:0.5;" x1="263" x2="3036" y1="1055.54" y2="1055.54"/>
  <g id="H-reference" style="fill:#27AAE1;stroke:none;" transform="matrix(1 0 0 1 339 1556)">
   <path d="M0.976562 0L3.66211 0L12.9883-24.4629L45.752-24.4629L55.127 0L57.7637 0L30.6152-70.459L28.125-70.459ZM29.3457-67.1387L29.4434-67.1387L44.873-26.709L13.8672-26.709Z"/>
  </g>
  <line id="Baseline-L" style="fill:none;stroke:#27AAE1;opacity:1;stroke-width:0.5;" x1="263" x2="3036" y1="1556" y2="1556"/>
  <line id="Capline-L" style="fill:none;stroke:#27AAE1;opacity:1;stroke-width:0.5;" x1="263" x2="3036" y1="1485.54" y2="1485.54"/>
  <line id="left-margin" x1="1378.040936042444" x2="1378.040936042444" y1="1030.79" y2="1150.12" style="fill:none;stroke:#00AEEF;stroke-width:0.5;opacity:1.0;"/>
  <line id="right-margin" x1="1523.868516888215" x2="1523.868516888215" y1="1030.79" y2="1150.12" style="fill:none;stroke:#00AEEF;stroke-width:0.5;opacity:1.0;"/>
 </g>
 <g id="Symbols">
  <g id="Black-L" transform="matrix(1.0,0.0,0.0,1.0,2821.628570137593,1408.6230011077425)">  <path stroke-linecap="butt" fill="#000000" stroke-width="1px" stroke-miterlimit="4" fill-opacity="1" stroke-opacity="1" mask="url(#mask0)" stroke-dasharray="none" fill-rule="nonzero" stroke="none" stroke-linejoin="miter" d="M158.346,126.157C150.506,126.157,145.374,120.095,145.374,112.392C145.374,104.618,150.506,98.627,158.346,98.627C166.187,98.627,171.247,104.618,171.247,112.392C171.247,120.095,166.187,126.157,158.346,126.157ZM110.165,109.468L100.472,109.468L100.472,99.269L110.165,99.269C113.443,99.269,116.08,101.052,116.08,104.332C116.08,107.684,113.443,109.468,110.165,109.468ZM64.336,109.468L54.642,109.468L54.642,99.269L64.336,99.269C67.614,99.269,70.251,101.123,70.251,104.404C70.251,107.614,67.614,109.468,64.336,109.468ZM32.43,168.258C24.937,168.258,18.842,162.384,18.842,155.165L18.842,69.619C18.842,62.399,24.937,56.526,32.43,56.526L193.673,56.526C201.166,56.526,207.261,62.399,207.261,69.619L207.261,155.165C207.261,162.384,201.166,168.258,193.673,168.258L32.43,168.258ZM54.642,136.142L54.642,120.166L66.189,120.166C76.88,120.166,82.724,112.963,82.724,104.404C82.724,95.773,76.88,88.57,66.189,88.57L42.383,88.57L42.383,136.142L54.642,136.142ZM128.767,136.142L119.074,118.668C123.564,117.1,128.554,112.677,128.554,104.404C128.554,95.56,122.567,88.57,112.018,88.57L88.212,88.57L88.212,136.142L100.472,136.142L100.472,120.166L106.744,120.166L114.726,136.142L128.767,136.142ZM158.346,136.999C172.886,136.999,183.72,126.87,183.72,112.392C183.72,97.914,172.886,87.786,158.346,87.786C143.806,87.786,132.901,97.914,132.901,112.392C132.901,126.87,143.806,136.999,158.346,136.999ZM158.346,136.999"/>
</g>
  <g id="Heavy-L" transform="matrix(1.0,0.0,0.0,1.0,2524.918570137593,1408.6230011077425)">  <path fill="#000000" stroke-linecap="butt" stroke="none" fill-opacity="1" mask="url(#mask0)" stroke-opacity="1" fill-rule="nonzero" stroke-dasharray="none" stroke-width="1px" stroke-linejoin="miter" stroke-miterlimit="4" d="M158.346,126.157C150.506,126.157,145.374,120.095,145.374,112.392C145.374,104.618,150.506,98.627,158.346,98.627C166.187,98.627,171.247,104.618,171.247,112.392C171.247,120.095,166.187,126.157,158.346,126.157ZM110.165,109.468L100.472,109.468L100.472,99.269L110.165,99.269C113.443,99.269,116.08,101.052,116.08,104.332C116.08,107.684,113.443,109.468,110.165,109.468ZM64.336,109.468L54.642,109.468L54.642,99.269L64.336,99.269C67.614,99.269,70.251,101.123,70.251,104.404C70.251,107.614,67.614,109.468,64.336,109.468ZM32.43,168.258C24.937,168.258,18.842,162.384,18.842,155.165L18.842,69.619C18.842,62.399,24.937,56.526,32.43,56.526L193.673,56.526C201.166,56.526,207.261,62.399,207.261,69.619L207.261,155.165C207.261,162.384,201.166,168.258,193.673,168.258L32.43,168.258ZM54.642,136.142L54.642,120.166L66.189,120.166C76.88,120.166,82.724,112.963,82.724,104.404C82.724,95.773,76.88,88.57,66.189,88.57L42.383,88.57L42.383,136.142L54.642,136.142ZM128.767,136.142L119.074,118.668C123.564,117.1,128.554,112.677,128.554,104.404C128.554,95.56,122.567,88.57,112.018,88.57L88.212,88.57L88.212,136.142L100.472,136.142L100.472,120.166L106.744,120.166L114.726,136.142L128.767,136.142ZM158.346,136.999C172.886,136.999,183.72,126.87,183.72,112.392C183.72,97.914,172.886,87.786,158.346,87.786C143.806,87.786,132.901,97.914,132.901,112.392C132.901,126.87,143.806,136.999,158.346,136.999ZM158.346,136.999"/>
</g>
  <g id="Bold-L" transform="matrix(1.0,0.0,0.0,1.0,2228.208570137593,1408.6230011077425)">  <path fill-rule="nonzero" mask="url(#mask0)" fill-opacity="1" stroke-opacity="1" stroke-width="1px" fill="#000000" stroke="none" stroke-linecap="butt" stroke-linejoin="miter" stroke-miterlimit="4" stroke-dasharray="none" d="M158.346,126.157C150.506,126.157,145.374,120.095,145.374,112.392C145.374,104.618,150.506,98.627,158.346,98.627C166.187,98.627,171.247,104.618,171.247,112.392C171.247,120.095,166.187,126.157,158.346,126.157ZM110.165,109.468L100.472,109.468L100.472,99.269L110.165,99.269C113.443,99.269,116.08,101.052,116.08,104.332C116.08,107.684,113.443,109.468,110.165,109.468ZM64.336,109.468L54.642,109.468L54.642,99.269L64.336,99.269C67.614,99.269,70.251,101.123,70.251,104.404C70.251,107.614,67.614,109.468,64.336,109.468ZM32.43,168.258C24.937,168.258,18.842,162.384,18.842,155.165L18.842,69.619C18.842,62.399,24.937,56.526,32.43,56.526L193.673,56.526C201.166,56.526,207.261,62.399,207.261,69.619L207.261,155.165C207.261,162.384,201.166,168.258,193.673,168.258L32.43,168.258ZM54.642,136.142L54.642,120.166L66.189,120.166C76.88,120.166,82.724,112.963,82.724,104.404C82.724,95.773,76.88,88.57,66.189,88.57L42.383,88.57L42.383,136.142L54.642,136.142ZM128.767,136.142L119.074,118.668C123.564,117.1,128.554,112.677,128.554,104.404C128.554,95.56,122.567,88.57,112.018,88.57L88.212,88.57L88.212,136.142L100.472,136.142L100.472,120.166L106.744,120.166L114.726,136.142L128.767,136.142ZM158.346,136.999C172.886,136.999,183.72,126.87,183.72,112.392C183.72,97.914,172.886,87.786,158.346,87.786C143.806,87.786,132.901,97.914,132.901,112.392C132.901,126.87,143.806,136.999,158.346,136.999ZM158.346,136.999"/>
</g>
  <g id="Semibold-L" transform="matrix(1.0,0.0,0.0,1.0,1931.4985701375933,1408.6230011077425)">  <path stroke-dasharray="none" stroke-linecap="butt" stroke-miterlimit="4" stroke-linejoin="miter" stroke-opacity="1" mask="url(#mask0)" stroke-width="1px" fill-rule="nonzero" stroke="none" fill="#000000" fill-opacity="1" d="M158.346,126.157C150.506,126.157,145.374,120.095,145.374,112.392C145.374,104.618,150.506,98.627,158.346,98.627C166.187,98.627,171.247,104.618,171.247,112.392C171.247,120.095,166.187,126.157,158.346,126.157ZM110.165,109.468L100.472,109.468L100.472,99.269L110.165,99.269C113.443,99.269,116.08,101.052,116.08,104.332C116.08,107.684,113.443,109.468,110.165,109.468ZM64.336,109.468L54.642,109.468L54.642,99.269L64.336,99.269C67.614,99.269,70.251,101.123,70.251,104.404C70.251,107.614,67.614,109.468,64.336,109.468ZM32.43,168.258C24.937,168.258,18.842,162.384,18.842,155.165L18.842,69.619C18.842,62.399,24.937,56.526,32.43,56.526L193.673,56.526C201.166,56.526,207.261,62.399,207.261,69.619L207.261,155.165C207.261,162.384,201.166,168.258,193.673,168.258L32.43,168.258ZM54.642,136.142L54.642,120.166L66.189,120.166C76.88,120.166,82.724,112.963,82.724,104.404C82.724,95.773,76.88,88.57,66.189,88.57L42.383,88.57L42.383,136.142L54.642,136.142ZM128.767,136.142L119.074,118.668C123.564,117.1,128.554,112.677,128.554,104.404C128.554,95.56,122.567,88.57,112.018,88.57L88.212,88.57L88.212,136.142L100.472,136.142L100.472,120.166L106.744,120.166L114.726,136.142L128.767,136.142ZM158.346,136.999C172.886,136.999,183.72,126.87,183.72,112.392C183.72,97.914,172.886,87.786,158.346,87.786C143.806,87.786,132.901,97.914,132.901,112.392C132.901,126.87,143.806,136.999,158.346,136.999ZM158.346,136.999"/>
</g>
  <g id="Medium-L" transform="matrix(1.0,0.0,0.0,1.0,1634.7885701375933,1408.6230011077425)">  <path stroke-opacity="1" stroke="none" fill-rule="nonzero" stroke-linejoin="miter" stroke-dasharray="none" fill="#000000" fill-opacity="1" stroke-miterlimit="4" mask="url(#mask0)" stroke-width="1px" stroke-linecap="butt" d="M158.346,126.157C150.506,126.157,145.374,120.095,145.374,112.392C145.374,104.618,150.506,98.627,158.346,98.627C166.187,98.627,171.247,104.618,171.247,112.392C171.247,120.095,166.187,126.157,158.346,126.157ZM110.165,109.468L100.472,109.468L100.472,99.269L110.165,99.269C113.443,99.269,116.08,101.052,116.08,104.332C116.08,107.684,113.443,109.468,110.165,109.468ZM64.336,109.468L54.642,109.468L54.642,99.269L64.336,99.269C67.614,99.269,70.251,101.123,70.251,104.404C70.251,107.614,67.614,109.468,64.336,109.468ZM32.43,168.258C24.937,168.258,18.842,162.384,18.842,155.165L18.842,69.619C18.842,62.399,24.937,56.526,32.43,56.526L193.673,56.526C201.166,56.526,207.261,62.399,207.261,69.619L207.261,155.165C207.261,162.384,201.166,168.258,193.673,168.258L32.43,168.258ZM54.642,136.142L54.642,120.166L66.189,120.166C76.88,120.166,82.724,112.963,82.724,104.404C82.724,95.773,76.88,88.57,66.189,88.57L42.383,88.57L42.383,136.142L54.642,136.142ZM128.767,136.142L119.074,118.668C123.564,117.1,128.554,112.677,128.554,104.404C128.554,95.56,122.567,88.57,112.018,88.57L88.212,88.57L88.212,136.142L100.472,136.142L100.472,120.166L106.744,120.166L114.726,136.142L128.767,136.142ZM158.346,136.999C172.886,136.999,183.72,126.87,183.72,112.392C183.72,97.914,172.886,87.786,158.346,87.786C143.806,87.786,132.901,97.914,132.901,112.392C132.901,126.87,143.806,136.999,158.346,136.999ZM158.346,136.999"/>
</g>
  <g id="Regular-L" transform="matrix(1.0,0.0,0.0,1.0,1338.0785701375933,1408.6230011077425)">  <path stroke-linecap="butt" stroke-linejoin="miter" stroke-opacity="1" stroke="none" fill-rule="nonzero" fill="#000000" stroke-dasharray="none" mask="url(#mask0)" stroke-width="1px" fill-opacity="1" stroke-miterlimit="4" d="M158.346,126.157C150.506,126.157,145.374,120.095,145.374,112.392C145.374,104.618,150.506,98.627,158.346,98.627C166.187,98.627,171.247,104.618,171.247,112.392C171.247,120.095,166.187,126.157,158.346,126.157ZM110.165,109.468L100.472,109.468L100.472,99.269L110.165,99.269C113.443,99.269,116.08,101.052,116.08,104.332C116.08,107.684,113.443,109.468,110.165,109.468ZM64.336,109.468L54.642,109.468L54.642,99.269L64.336,99.269C67.614,99.269,70.251,101.123,70.251,104.404C70.251,107.614,67.614,109.468,64.336,109.468ZM32.43,168.258C24.937,168.258,18.842,162.384,18.842,155.165L18.842,69.619C18.842,62.399,24.937,56.526,32.43,56.526L193.673,56.526C201.166,56.526,207.261,62.399,207.261,69.619L207.261,155.165C207.261,162.384,201.166,168.258,193.673,168.258L32.43,168.258ZM54.642,136.142L54.642,120.166L66.189,120.166C76.88,120.166,82.724,112.963,82.724,104.404C82.724,95.773,76.88,88.57,66.189,88.57L42.383,88.57L42.383,136.142L54.642,136.142ZM128.767,136.142L119.074,118.668C123.564,117.1,128.554,112.677,128.554,104.404C128.554,95.56,122.567,88.57,112.018,88.57L88.212,88.57L88.212,136.142L100.472,136.142L100.472,120.166L106.744,120.166L114.726,136.142L128.767,136.142ZM158.346,136.999C172.886,136.999,183.72,126.87,183.72,112.392C183.72,97.914,172.886,87.786,158.346,87.786C143.806,87.786,132.901,97.914,132.901,112.392C132.901,126.87,143.806,136.999,158.346,136.999ZM158.346,136.999"/>
</g>
  <g id="Light-L" transform="matrix(1.0,0.0,0.0,1.0,1041.3685701375935,1408.6230011077425)">  <path fill-opacity="1" stroke-opacity="1" stroke-linecap="butt" stroke-dasharray="none" stroke="none" stroke-width="1px" mask="url(#mask0)" fill-rule="nonzero" fill="#000000" stroke-miterlimit="4" stroke-linejoin="miter" d="M158.346,126.157C150.506,126.157,145.374,120.095,145.374,112.392C145.374,104.618,150.506,98.627,158.346,98.627C166.187,98.627,171.247,104.618,171.247,112.392C171.247,120.095,166.187,126.157,158.346,126.157ZM110.165,109.468L100.472,109.468L100.472,99.269L110.165,99.269C113.443,99.269,116.08,101.052,116.08,104.332C116.08,107.684,113.443,109.468,110.165,109.468ZM64.336,109.468L54.642,109.468L54.642,99.269L64.336,99.269C67.614,99.269,70.251,101.123,70.251,104.404C70.251,107.614,67.614,109.468,64.336,109.468ZM32.43,168.258C24.937,168.258,18.842,162.384,18.842,155.165L18.842,69.619C18.842,62.399,24.937,56.526,32.43,56.526L193.673,56.526C201.166,56.526,207.261,62.399,207.261,69.619L207.261,155.165C207.261,162.384,201.166,168.258,193.673,168.258L32.43,168.258ZM54.642,136.142L54.642,120.166L66.189,120.166C76.88,120.166,82.724,112.963,82.724,104.404C82.724,95.773,76.88,88.57,66.189,88.57L42.383,88.57L42.383,136.142L54.642,136.142ZM128.767,136.142L119.074,118.668C123.564,117.1,128.554,112.677,128.554,104.404C128.554,95.56,122.567,88.57,112.018,88.57L88.212,88.57L88.212,136.142L100.472,136.142L100.472,120.166L106.744,120.166L114.726,136.142L128.767,136.142ZM158.346,136.999C172.886,136.999,183.72,126.87,183.72,112.392C183.72,97.914,172.886,87.786,158.346,87.786C143.806,87.786,132.901,97.914,132.901,112.392C132.901,126.87,143.806,136.999,158.346,136.999ZM158.346,136.999"/>
</g>
  <g id="Thin-L" transform="matrix(1.0,0.0,0.0,1.0,744.6585701375933,1408.6230011077425)">  <path stroke-width="1px" stroke-opacity="1" stroke-linecap="butt" mask="url(#mask0)" stroke-dasharray="none" stroke="none" stroke-miterlimit="4" fill-opacity="1" fill-rule="nonzero" stroke-linejoin="miter" fill="#000000" d="M158.346,126.157C150.506,126.157,145.374,120.095,145.374,112.392C145.374,104.618,150.506,98.627,158.346,98.627C166.187,98.627,171.247,104.618,171.247,112.392C171.247,120.095,166.187,126.157,158.346,126.157ZM110.165,109.468L100.472,109.468L100.472,99.269L110.165,99.269C113.443,99.269,116.08,101.052,116.08,104.332C116.08,107.684,113.443,109.468,110.165,109.468ZM64.336,109.468L54.642,109.468L54.642,99.269L64.336,99.269C67.614,99.269,70.251,101.123,70.251,104.404C70.251,107.614,67.614,109.468,64.336,109.468ZM32.43,168.258C24.937,168.258,18.842,162.384,18.842,155.165L18.842,69.619C18.842,62.399,24.937,56.526,32.43,56.526L193.673,56.526C201.166,56.526,207.261,62.399,207.261,69.619L207.261,155.165C207.261,162.384,201.166,168.258,193.673,168.258L32.43,168.258ZM54.642,136.142L54.642,120.166L66.189,120.166C76.88,120.166,82.724,112.963,82.724,104.404C82.724,95.773,76.88,88.57,66.189,88.57L42.383,88.57L42.383,136.142L54.642,136.142ZM128.767,136.142L119.074,118.668C123.564,117.1,128.554,112.677,128.554,104.404C128.554,95.56,122.567,88.57,112.018,88.57L88.212,88.57L88.212,136.142L100.472,136.142L100.472,120.166L106.744,120.166L114.726,136.142L128.767,136.142ZM158.346,136.999C172.886,136.999,183.72,126.87,183.72,112.392C183.72,97.914,172.886,87.786,158.346,87.786C143.806,87.786,132.901,97.914,132.901,112.392C132.901,126.87,143.806,136.999,158.346,136.999ZM158.346,136.999"/>
</g>
  <g id="Ultralight-L" transform="matrix(1.0,0.0,0.0,1.0,447.94857013759326,1408.6230011077425)">  <path stroke-dasharray="none" stroke="none" fill="#000000" stroke-width="1px" stroke-linejoin="miter" fill-rule="nonzero" stroke-linecap="butt" fill-opacity="1" mask="url(#mask0)" stroke-miterlimit="4" stroke-opacity="1" d="M158.346,126.157C150.506,126.157,145.374,120.095,145.374,112.392C145.374,104.618,150.506,98.627,158.346,98.627C166.187,98.627,171.247,104.618,171.247,112.392C171.247,120.095,166.187,126.157,158.346,126.157ZM110.165,109.468L100.472,109.468L100.472,99.269L110.165,99.269C113.443,99.269,116.08,101.052,116.08,104.332C116.08,107.684,113.443,109.468,110.165,109.468ZM64.336,109.468L54.642,109.468L54.642,99.269L64.336,99.269C67.614,99.269,70.251,101.123,70.251,104.404C70.251,107.614,67.614,109.468,64.336,109.468ZM32.43,168.258C24.937,168.258,18.842,162.384,18.842,155.165L18.842,69.619C18.842,62.399,24.937,56.526,32.43,56.526L193.673,56.526C201.166,56.526,207.261,62.399,207.261,69.619L207.261,155.165C207.261,162.384,201.166,168.258,193.673,168.258L32.43,168.258ZM54.642,136.142L54.642,120.166L66.189,120.166C76.88,120.166,82.724,112.963,82.724,104.404C82.724,95.773,76.88,88.57,66.189,88.57L42.383,88.57L42.383,136.142L54.642,136.142ZM128.767,136.142L119.074,118.668C123.564,117.1,128.554,112.677,128.554,104.404C128.554,95.56,122.567,88.57,112.018,88.57L88.212,88.57L88.212,136.142L100.472,136.142L100.472,120.166L106.744,120.166L114.726,136.142L128.767,136.142ZM158.346,136.999C172.886,136.999,183.72,126.87,183.72,112.392C183.72,97.914,172.886,87.786,158.346,87.786C143.806,87.786,132.901,97.914,132.901,112.392C132.901,126.87,143.806,136.999,158.346,136.999ZM158.346,136.999"/>
</g>
  <g id="Black-M" transform="matrix(1.0,0.0,0.0,1.0,2847.043232664801,1003.8343463347326)">  <path stroke-linecap="butt" fill="#000000" stroke-width="1px" stroke-miterlimit="4" fill-opacity="1" stroke-opacity="1" mask="url(#mask0)" stroke-dasharray="none" fill-rule="nonzero" stroke="none" stroke-linejoin="miter" d="M122.749,97.796C116.672,97.796,112.693,93.097,112.693,87.126C112.693,81.099,116.672,76.455,122.749,76.455C128.827,76.455,132.749,81.099,132.749,87.126C132.749,93.097,128.827,97.796,122.749,97.796ZM85.399,84.859L77.885,84.859L77.885,76.952L85.399,76.952C87.941,76.952,89.985,78.335,89.985,80.878C89.985,83.476,87.941,84.859,85.399,84.859ZM49.873,84.859L42.358,84.859L42.358,76.952L49.873,76.952C52.414,76.952,54.458,78.39,54.458,80.933C54.458,83.421,52.414,84.859,49.873,84.859ZM25.139,130.433C19.331,130.433,14.606,125.879,14.606,120.283L14.606,53.968C14.606,48.372,19.331,43.818,25.139,43.818L150.134,43.818C155.942,43.818,160.667,48.372,160.667,53.968L160.667,120.283C160.667,125.879,155.942,130.433,150.134,130.433L25.139,130.433ZM42.358,105.537L42.358,93.152L51.309,93.152C59.597,93.152,64.127,87.568,64.127,80.933C64.127,74.243,59.597,68.659,51.309,68.659L32.855,68.659L32.855,105.537L42.358,105.537ZM99.82,105.537L92.306,91.991C95.786,90.775,99.654,87.347,99.654,80.933C99.654,74.077,95.013,68.659,86.836,68.659L68.382,68.659L68.382,105.537L77.885,105.537L77.885,93.152L82.747,93.152L88.935,105.537L99.82,105.537ZM122.749,106.2C134.02,106.2,142.419,98.349,142.419,87.126C142.419,75.902,134.02,68.051,122.749,68.051C111.478,68.051,103.024,75.902,103.024,87.126C103.024,98.349,111.478,106.2,122.749,106.2ZM122.749,106.2"/>
</g>
  <g id="Heavy-M" transform="matrix(1.0,0.0,0.0,1.0,2550.333232664801,1003.8343463347326)">  <path fill="#000000" stroke-linecap="butt" stroke="none" fill-opacity="1" mask="url(#mask0)" stroke-opacity="1" fill-rule="nonzero" stroke-dasharray="none" stroke-width="1px" stroke-linejoin="miter" stroke-miterlimit="4" d="M122.749,97.796C116.672,97.796,112.693,93.097,112.693,87.126C112.693,81.099,116.672,76.455,122.749,76.455C128.827,76.455,132.749,81.099,132.749,87.126C132.749,93.097,128.827,97.796,122.749,97.796ZM85.399,84.859L77.885,84.859L77.885,76.952L85.399,76.952C87.941,76.952,89.985,78.335,89.985,80.878C89.985,83.476,87.941,84.859,85.399,84.859ZM49.873,84.859L42.358,84.859L42.358,76.952L49.873,76.952C52.414,76.952,54.458,78.39,54.458,80.933C54.458,83.421,52.414,84.859,49.873,84.859ZM25.139,130.433C19.331,130.433,14.606,125.879,14.606,120.283L14.606,53.968C14.606,48.372,19.331,43.818,25.139,43.818L150.134,43.818C155.942,43.818,160.667,48.372,160.667,53.968L160.667,120.283C160.667,125.879,155.942,130.433,150.134,130.433L25.139,130.433ZM42.358,105.537L42.358,93.152L51.309,93.152C59.597,93.152,64.127,87.568,64.127,80.933C64.127,74.243,59.597,68.659,51.309,68.659L32.855,68.659L32.855,105.537L42.358,105.537ZM99.82,105.537L92.306,91.991C95.786,90.775,99.654,87.347,99.654,80.933C99.654,74.077,95.013,68.659,86.836,68.659L68.382,68.659L68.382,105.537L77.885,105.537L77.885,93.152L82.747,93.152L88.935,105.537L99.82,105.537ZM122.749,106.2C134.02,106.2,142.419,98.349,142.419,87.126C142.419,75.902,134.02,68.051,122.749,68.051C111.478,68.051,103.024,75.902,103.024,87.126C103.024,98.349,111.478,106.2,122.749,106.2ZM122.749,106.2"/>
</g>
  <g id="Bold-M" transform="matrix(1.0,0.0,0.0,1.0,2253.623232664801,1003.8343463347326)">  <path fill-rule="nonzero" mask="url(#mask0)" fill-opacity="1" stroke-opacity="1" stroke-width="1px" fill="#000000" stroke="none" stroke-linecap="butt" stroke-linejoin="miter" stroke-miterlimit="4" stroke-dasharray="none" d="M122.749,97.796C116.672,97.796,112.693,93.097,112.693,87.126C112.693,81.099,116.672,76.455,122.749,76.455C128.827,76.455,132.749,81.099,132.749,87.126C132.749,93.097,128.827,97.796,122.749,97.796ZM85.399,84.859L77.885,84.859L77.885,76.952L85.399,76.952C87.941,76.952,89.985,78.335,89.985,80.878C89.985,83.476,87.941,84.859,85.399,84.859ZM49.873,84.859L42.358,84.859L42.358,76.952L49.873,76.952C52.414,76.952,54.458,78.39,54.458,80.933C54.458,83.421,52.414,84.859,49.873,84.859ZM25.139,130.433C19.331,130.433,14.606,125.879,14.606,120.283L14.606,53.968C14.606,48.372,19.331,43.818,25.139,43.818L150.134,43.818C155.942,43.818,160.667,48.372,160.667,53.968L160.667,120.283C160.667,125.879,155.942,130.433,150.134,130.433L25.139,130.433ZM42.358,105.537L42.358,93.152L51.309,93.152C59.597,93.152,64.127,87.568,64.127,80.933C64.127,74.243,59.597,68.659,51.309,68.659L32.855,68.659L32.855,105.537L42.358,105.537ZM99.82,105.537L92.306,91.991C95.786,90.775,99.654,87.347,99.654,80.933C99.654,74.077,95.013,68.659,86.836,68.659L68.382,68.659L68.382,105.537L77.885,105.537L77.885,93.152L82.747,93.152L88.935,105.537L99.82,105.537ZM122.749,106.2C134.02,106.2,142.419,98.349,142.419,87.126C142.419,75.902,134.02,68.051,122.749,68.051C111.478,68.051,103.024,75.902,103.024,87.126C103.024,98.349,111.478,106.2,122.749,106.2ZM122.749,106.2"/>
</g>
  <g id="Semibold-M" transform="matrix(1.0,0.0,0.0,1.0,1956.913232664801,1003.8343463347326)">  <path stroke-dasharray="none" stroke-linecap="butt" stroke-miterlimit="4" stroke-linejoin="miter" stroke-opacity="1" mask="url(#mask0)" stroke-width="1px" fill-rule="nonzero" stroke="none" fill="#000000" fill-opacity="1" d="M122.749,97.796C116.672,97.796,112.693,93.097,112.693,87.126C112.693,81.099,116.672,76.455,122.749,76.455C128.827,76.455,132.749,81.099,132.749,87.126C132.749,93.097,128.827,97.796,122.749,97.796ZM85.399,84.859L77.885,84.859L77.885,76.952L85.399,76.952C87.941,76.952,89.985,78.335,89.985,80.878C89.985,83.476,87.941,84.859,85.399,84.859ZM49.873,84.859L42.358,84.859L42.358,76.952L49.873,76.952C52.414,76.952,54.458,78.39,54.458,80.933C54.458,83.421,52.414,84.859,49.873,84.859ZM25.139,130.433C19.331,130.433,14.606,125.879,14.606,120.283L14.606,53.968C14.606,48.372,19.331,43.818,25.139,43.818L150.134,43.818C155.942,43.818,160.667,48.372,160.667,53.968L160.667,120.283C160.667,125.879,155.942,130.433,150.134,130.433L25.139,130.433ZM42.358,105.537L42.358,93.152L51.309,93.152C59.597,93.152,64.127,87.568,64.127,80.933C64.127,74.243,59.597,68.659,51.309,68.659L32.855,68.659L32.855,105.537L42.358,105.537ZM99.82,105.537L92.306,91.991C95.786,90.775,99.654,87.347,99.654,80.933C99.654,74.077,95.013,68.659,86.836,68.659L68.382,68.659L68.382,105.537L77.885,105.537L77.885,93.152L82.747,93.152L88.935,105.537L99.82,105.537ZM122.749,106.2C134.02,106.2,142.419,98.349,142.419,87.126C142.419,75.902,134.02,68.051,122.749,68.051C111.478,68.051,103.024,75.902,103.024,87.126C103.024,98.349,111.478,106.2,122.749,106.2ZM122.749,106.2"/>
</g>
  <g id="Medium-M" transform="matrix(1.0,0.0,0.0,1.0,1660.203232664801,1003.8343463347326)">  <path stroke-opacity="1" stroke="none" fill-rule="nonzero" stroke-linejoin="miter" stroke-dasharray="none" fill="#000000" fill-opacity="1" stroke-miterlimit="4" mask="url(#mask0)" stroke-width="1px" stroke-linecap="butt" d="M122.749,97.796C116.672,97.796,112.693,93.097,112.693,87.126C112.693,81.099,116.672,76.455,122.749,76.455C128.827,76.455,132.749,81.099,132.749,87.126C132.749,93.097,128.827,97.796,122.749,97.796ZM85.399,84.859L77.885,84.859L77.885,76.952L85.399,76.952C87.941,76.952,89.985,78.335,89.985,80.878C89.985,83.476,87.941,84.859,85.399,84.859ZM49.873,84.859L42.358,84.859L42.358,76.952L49.873,76.952C52.414,76.952,54.458,78.39,54.458,80.933C54.458,83.421,52.414,84.859,49.873,84.859ZM25.139,130.433C19.331,130.433,14.606,125.879,14.606,120.283L14.606,53.968C14.606,48.372,19.331,43.818,25.139,43.818L150.134,43.818C155.942,43.818,160.667,48.372,160.667,53.968L160.667,120.283C160.667,125.879,155.942,130.433,150.134,130.433L25.139,130.433ZM42.358,105.537L42.358,93.152L51.309,93.152C59.597,93.152,64.127,87.568,64.127,80.933C64.127,74.243,59.597,68.659,51.309,68.659L32.855,68.659L32.855,105.537L42.358,105.537ZM99.82,105.537L92.306,91.991C95.786,90.775,99.654,87.347,99.654,80.933C99.654,74.077,95.013,68.659,86.836,68.659L68.382,68.659L68.382,105.537L77.885,105.537L77.885,93.152L82.747,93.152L88.935,105.537L99.82,105.537ZM122.749,106.2C134.02,106.2,142.419,98.349,142.419,87.126C142.419,75.902,134.02,68.051,122.749,68.051C111.478,68.051,103.024,75.902,103.024,87.126C103.024,98.349,111.478,106.2,122.749,106.2ZM122.749,106.2"/>
</g>
  <g id="Regular-M" transform="matrix(1.0,0.0,0.0,1.0,1363.4932326648009,1003.8343463347326)">  <path stroke-linecap="butt" stroke-linejoin="miter" stroke-opacity="1" stroke="none" fill-rule="nonzero" fill="#000000" stroke-dasharray="none" mask="url(#mask0)" stroke-width="1px" fill-opacity="1" stroke-miterlimit="4" d="M122.749,97.796C116.672,97.796,112.693,93.097,112.693,87.126C112.693,81.099,116.672,76.455,122.749,76.455C128.827,76.455,132.749,81.099,132.749,87.126C132.749,93.097,128.827,97.796,122.749,97.796ZM85.399,84.859L77.885,84.859L77.885,76.952L85.399,76.952C87.941,76.952,89.985,78.335,89.985,80.878C89.985,83.476,87.941,84.859,85.399,84.859ZM49.873,84.859L42.358,84.859L42.358,76.952L49.873,76.952C52.414,76.952,54.458,78.39,54.458,80.933C54.458,83.421,52.414,84.859,49.873,84.859ZM25.139,130.433C19.331,130.433,14.606,125.879,14.606,120.283L14.606,53.968C14.606,48.372,19.331,43.818,25.139,43.818L150.134,43.818C155.942,43.818,160.667,48.372,160.667,53.968L160.667,120.283C160.667,125.879,155.942,130.433,150.134,130.433L25.139,130.433ZM42.358,105.537L42.358,93.152L51.309,93.152C59.597,93.152,64.127,87.568,64.127,80.933C64.127,74.243,59.597,68.659,51.309,68.659L32.855,68.659L32.855,105.537L42.358,105.537ZM99.82,105.537L92.306,91.991C95.786,90.775,99.654,87.347,99.654,80.933C99.654,74.077,95.013,68.659,86.836,68.659L68.382,68.659L68.382,105.537L77.885,105.537L77.885,93.152L82.747,93.152L88.935,105.537L99.82,105.537ZM122.749,106.2C134.02,106.2,142.419,98.349,142.419,87.126C142.419,75.902,134.02,68.051,122.749,68.051C111.478,68.051,103.024,75.902,103.024,87.126C103.024,98.349,111.478,106.2,122.749,106.2ZM122.749,106.2"/>
</g>
  <g id="Light-M" transform="matrix(1.0,0.0,0.0,1.0,1066.783232664801,1003.8343463347326)">  <path fill-opacity="1" stroke-opacity="1" stroke-linecap="butt" stroke-dasharray="none" stroke="none" stroke-width="1px" mask="url(#mask0)" fill-rule="nonzero" fill="#000000" stroke-miterlimit="4" stroke-linejoin="miter" d="M122.749,97.796C116.672,97.796,112.693,93.097,112.693,87.126C112.693,81.099,116.672,76.455,122.749,76.455C128.827,76.455,132.749,81.099,132.749,87.126C132.749,93.097,128.827,97.796,122.749,97.796ZM85.399,84.859L77.885,84.859L77.885,76.952L85.399,76.952C87.941,76.952,89.985,78.335,89.985,80.878C89.985,83.476,87.941,84.859,85.399,84.859ZM49.873,84.859L42.358,84.859L42.358,76.952L49.873,76.952C52.414,76.952,54.458,78.39,54.458,80.933C54.458,83.421,52.414,84.859,49.873,84.859ZM25.139,130.433C19.331,130.433,14.606,125.879,14.606,120.283L14.606,53.968C14.606,48.372,19.331,43.818,25.139,43.818L150.134,43.818C155.942,43.818,160.667,48.372,160.667,53.968L160.667,120.283C160.667,125.879,155.942,130.433,150.134,130.433L25.139,130.433ZM42.358,105.537L42.358,93.152L51.309,93.152C59.597,93.152,64.127,87.568,64.127,80.933C64.127,74.243,59.597,68.659,51.309,68.659L32.855,68.659L32.855,105.537L42.358,105.537ZM99.82,105.537L92.306,91.991C95.786,90.775,99.654,87.347,99.654,80.933C99.654,74.077,95.013,68.659,86.836,68.659L68.382,68.659L68.382,105.537L77.885,105.537L77.885,93.152L82.747,93.152L88.935,105.537L99.82,105.537ZM122.749,106.2C134.02,106.2,142.419,98.349,142.419,87.126C142.419,75.902,134.02,68.051,122.749,68.051C111.478,68.051,103.024,75.902,103.024,87.126C103.024,98.349,111.478,106.2,122.749,106.2ZM122.749,106.2"/>
</g>
  <g id="Thin-M" transform="matrix(1.0,0.0,0.0,1.0,770.073232664801,1003.8343463347326)">  <path stroke-width="1px" stroke-opacity="1" stroke-linecap="butt" mask="url(#mask0)" stroke-dasharray="none" stroke="none" stroke-miterlimit="4" fill-opacity="1" fill-rule="nonzero" stroke-linejoin="miter" fill="#000000" d="M122.749,97.796C116.672,97.796,112.693,93.097,112.693,87.126C112.693,81.099,116.672,76.455,122.749,76.455C128.827,76.455,132.749,81.099,132.749,87.126C132.749,93.097,128.827,97.796,122.749,97.796ZM85.399,84.859L77.885,84.859L77.885,76.952L85.399,76.952C87.941,76.952,89.985,78.335,89.985,80.878C89.985,83.476,87.941,84.859,85.399,84.859ZM49.873,84.859L42.358,84.859L42.358,76.952L49.873,76.952C52.414,76.952,54.458,78.39,54.458,80.933C54.458,83.421,52.414,84.859,49.873,84.859ZM25.139,130.433C19.331,130.433,14.606,125.879,14.606,120.283L14.606,53.968C14.606,48.372,19.331,43.818,25.139,43.818L150.134,43.818C155.942,43.818,160.667,48.372,160.667,53.968L160.667,120.283C160.667,125.879,155.942,130.433,150.134,130.433L25.139,130.433ZM42.358,105.537L42.358,93.152L51.309,93.152C59.597,93.152,64.127,87.568,64.127,80.933C64.127,74.243,59.597,68.659,51.309,68.659L32.855,68.659L32.855,105.537L42.358,105.537ZM99.82,105.537L92.306,91.991C95.786,90.775,99.654,87.347,99.654,80.933C99.654,74.077,95.013,68.659,86.836,68.659L68.382,68.659L68.382,105.537L77.885,105.537L77.885,93.152L82.747,93.152L88.935,105.537L99.82,105.537ZM122.749,106.2C134.02,106.2,142.419,98.349,142.419,87.126C142.419,75.902,134.02,68.051,122.749,68.051C111.478,68.051,103.024,75.902,103.024,87.126C103.024,98.349,111.478,106.2,122.749,106.2ZM122.749,106.2"/>
</g>
  <g id="Ultralight-M" transform="matrix(1.0,0.0,0.0,1.0,473.363232664801,1003.8343463347326)">  <path stroke-dasharray="none" stroke="none" fill="#000000" stroke-width="1px" stroke-linejoin="miter" fill-rule="nonzero" stroke-linecap="butt" fill-opacity="1" mask="url(#mask0)" stroke-miterlimit="4" stroke-opacity="1" d="M122.749,97.796C116.672,97.796,112.693,93.097,112.693,87.126C112.693,81.099,116.672,76.455,122.749,76.455C128.827,76.455,132.749,81.099,132.749,87.126C132.749,93.097,128.827,97.796,122.749,97.796ZM85.399,84.859L77.885,84.859L77.885,76.952L85.399,76.952C87.941,76.952,89.985,78.335,89.985,80.878C89.985,83.476,87.941,84.859,85.399,84.859ZM49.873,84.859L42.358,84.859L42.358,76.952L49.873,76.952C52.414,76.952,54.458,78.39,54.458,80.933C54.458,83.421,52.414,84.859,49.873,84.859ZM25.139,130.433C19.331,130.433,14.606,125.879,14.606,120.283L14.606,53.968C14.606,48.372,19.331,43.818,25.139,43.818L150.134,43.818C155.942,43.818,160.667,48.372,160.667,53.968L160.667,120.283C160.667,125.879,155.942,130.433,150.134,130.433L25.139,130.433ZM42.358,105.537L42.358,93.152L51.309,93.152C59.597,93.152,64.127,87.568,64.127,80.933C64.127,74.243,59.597,68.659,51.309,68.659L32.855,68.659L32.855,105.537L42.358,105.537ZM99.82,105.537L92.306,91.991C95.786,90.775,99.654,87.347,99.654,80.933C99.654,74.077,95.013,68.659,86.836,68.659L68.382,68.659L68.382,105.537L77.885,105.537L77.885,93.152L82.747,93.152L88.935,105.537L99.82,105.537ZM122.749,106.2C134.02,106.2,142.419,98.349,142.419,87.126C142.419,75.902,134.02,68.051,122.749,68.051C111.478,68.051,103.024,75.902,103.024,87.126C103.024,98.349,111.478,106.2,122.749,106.2ZM122.749,106.2"/>
</g>
  <g id="Black-S" transform="matrix(1.0,0.0,0.0,1.0,2866.060411176539,592.6993874183769)">  <path stroke-linecap="butt" fill="#000000" stroke-width="1px" stroke-miterlimit="4" fill-opacity="1" stroke-opacity="1" mask="url(#mask0)" stroke-dasharray="none" fill-rule="nonzero" stroke="none" stroke-linejoin="miter" d="M96.113,76.574C91.354,76.574,88.238,72.895,88.238,68.219C88.238,63.501,91.354,59.864,96.113,59.864C100.871,59.864,103.943,63.501,103.943,68.219C103.943,72.895,100.871,76.574,96.113,76.574ZM66.868,66.444L60.984,66.444L60.984,60.254L66.868,60.254C68.857,60.254,70.458,61.336,70.458,63.327C70.458,65.362,68.857,66.444,66.868,66.444ZM39.05,66.444L33.167,66.444L33.167,60.254L39.05,60.254C41.04,60.254,42.641,61.379,42.641,63.371C42.641,65.319,41.04,66.444,39.05,66.444ZM19.684,102.129C15.136,102.129,11.437,98.563,11.437,94.182L11.437,42.257C11.437,37.875,15.136,34.31,19.684,34.31L117.555,34.31C122.103,34.31,125.803,37.875,125.803,42.257L125.803,94.182C125.803,98.563,122.103,102.129,117.555,102.129L19.684,102.129ZM33.167,82.635L33.167,72.938L40.175,72.938C46.664,72.938,50.212,68.566,50.212,63.371C50.212,58.132,46.664,53.76,40.175,53.76L25.726,53.76L25.726,82.635L33.167,82.635ZM78.159,82.635L72.275,72.029C75.001,71.077,78.029,68.393,78.029,63.371C78.029,58.002,74.395,53.76,67.992,53.76L53.543,53.76L53.543,82.635L60.984,82.635L60.984,72.938L64.791,72.938L69.636,82.635L78.159,82.635ZM96.113,83.155C104.938,83.155,111.514,77.007,111.514,68.219C111.514,59.431,104.938,53.284,96.113,53.284C87.287,53.284,80.668,59.431,80.668,68.219C80.668,77.007,87.287,83.155,96.113,83.155ZM96.113,83.155"/>
</g>
  <g id="Heavy-S" transform="matrix(1.0,0.0,0.0,1.0,2569.350411176539,592.6993874183769)">  <path fill="#000000" stroke-linecap="butt" stroke="none" fill-opacity="1" mask="url(#mask0)" stroke-opacity="1" fill-rule="nonzero" stroke-dasharray="none" stroke-width="1px" stroke-linejoin="miter" stroke-miterlimit="4" d="M96.113,76.574C91.354,76.574,88.238,72.895,88.238,68.219C88.238,63.501,91.354,59.864,96.113,59.864C100.871,59.864,103.943,63.501,103.943,68.219C103.943,72.895,100.871,76.574,96.113,76.574ZM66.868,66.444L60.984,66.444L60.984,60.254L66.868,60.254C68.857,60.254,70.458,61.336,70.458,63.327C70.458,65.362,68.857,66.444,66.868,66.444ZM39.05,66.444L33.167,66.444L33.167,60.254L39.05,60.254C41.04,60.254,42.641,61.379,42.641,63.371C42.641,65.319,41.04,66.444,39.05,66.444ZM19.684,102.129C15.136,102.129,11.437,98.563,11.437,94.182L11.437,42.257C11.437,37.875,15.136,34.31,19.684,34.31L117.555,34.31C122.103,34.31,125.803,37.875,125.803,42.257L125.803,94.182C125.803,98.563,122.103,102.129,117.555,102.129L19.684,102.129ZM33.167,82.635L33.167,72.938L40.175,72.938C46.664,72.938,50.212,68.566,50.212,63.371C50.212,58.132,46.664,53.76,40.175,53.76L25.726,53.76L25.726,82.635L33.167,82.635ZM78.159,82.635L72.275,72.029C75.001,71.077,78.029,68.393,78.029,63.371C78.029,58.002,74.395,53.76,67.992,53.76L53.543,53.76L53.543,82.635L60.984,82.635L60.984,72.938L64.791,72.938L69.636,82.635L78.159,82.635ZM96.113,83.155C104.938,83.155,111.514,77.007,111.514,68.219C111.514,59.431,104.938,53.284,96.113,53.284C87.287,53.284,80.668,59.431,80.668,68.219C80.668,77.007,87.287,83.155,96.113,83.155ZM96.113,83.155"/>
</g>
  <g id="Bold-S" transform="matrix(1.0,0.0,0.0,1.0,2272.640411176539,592.6993874183769)">  <path fill-rule="nonzero" mask="url(#mask0)" fill-opacity="1" stroke-opacity="1" stroke-width="1px" fill="#000000" stroke="none" stroke-linecap="butt" stroke-linejoin="miter" stroke-miterlimit="4" stroke-dasharray="none" d="M96.113,76.574C91.354,76.574,88.238,72.895,88.238,68.219C88.238,63.501,91.354,59.864,96.113,59.864C100.871,59.864,103.943,63.501,103.943,68.219C103.943,72.895,100.871,76.574,96.113,76.574ZM66.868,66.444L60.984,66.444L60.984,60.254L66.868,60.254C68.857,60.254,70.458,61.336,70.458,63.327C70.458,65.362,68.857,66.444,66.868,66.444ZM39.05,66.444L33.167,66.444L33.167,60.254L39.05,60.254C41.04,60.254,42.641,61.379,42.641,63.371C42.641,65.319,41.04,66.444,39.05,66.444ZM19.684,102.129C15.136,102.129,11.437,98.563,11.437,94.182L11.437,42.257C11.437,37.875,15.136,34.31,19.684,34.31L117.555,34.31C122.103,34.31,125.803,37.875,125.803,42.257L125.803,94.182C125.803,98.563,122.103,102.129,117.555,102.129L19.684,102.129ZM33.167,82.635L33.167,72.938L40.175,72.938C46.664,72.938,50.212,68.566,50.212,63.371C50.212,58.132,46.664,53.76,40.175,53.76L25.726,53.76L25.726,82.635L33.167,82.635ZM78.159,82.635L72.275,72.029C75.001,71.077,78.029,68.393,78.029,63.371C78.029,58.002,74.395,53.76,67.992,53.76L53.543,53.76L53.543,82.635L60.984,82.635L60.984,72.938L64.791,72.938L69.636,82.635L78.159,82.635ZM96.113,83.155C104.938,83.155,111.514,77.007,111.514,68.219C111.514,59.431,104.938,53.284,96.113,53.284C87.287,53.284,80.668,59.431,80.668,68.219C80.668,77.007,87.287,83.155,96.113,83.155ZM96.113,83.155"/>
</g>
  <g id="Semibold-S" transform="matrix(1.0,0.0,0.0,1.0,1975.930411176539,592.6993874183769)">  <path stroke-dasharray="none" stroke-linecap="butt" stroke-miterlimit="4" stroke-linejoin="miter" stroke-opacity="1" mask="url(#mask0)" stroke-width="1px" fill-rule="nonzero" stroke="none" fill="#000000" fill-opacity="1" d="M96.113,76.574C91.354,76.574,88.238,72.895,88.238,68.219C88.238,63.501,91.354,59.864,96.113,59.864C100.871,59.864,103.943,63.501,103.943,68.219C103.943,72.895,100.871,76.574,96.113,76.574ZM66.868,66.444L60.984,66.444L60.984,60.254L66.868,60.254C68.857,60.254,70.458,61.336,70.458,63.327C70.458,65.362,68.857,66.444,66.868,66.444ZM39.05,66.444L33.167,66.444L33.167,60.254L39.05,60.254C41.04,60.254,42.641,61.379,42.641,63.371C42.641,65.319,41.04,66.444,39.05,66.444ZM19.684,102.129C15.136,102.129,11.437,98.563,11.437,94.182L11.437,42.257C11.437,37.875,15.136,34.31,19.684,34.31L117.555,34.31C122.103,34.31,125.803,37.875,125.803,42.257L125.803,94.182C125.803,98.563,122.103,102.129,117.555,102.129L19.684,102.129ZM33.167,82.635L33.167,72.938L40.175,72.938C46.664,72.938,50.212,68.566,50.212,63.371C50.212,58.132,46.664,53.76,40.175,53.76L25.726,53.76L25.726,82.635L33.167,82.635ZM78.159,82.635L72.275,72.029C75.001,71.077,78.029,68.393,78.029,63.371C78.029,58.002,74.395,53.76,67.992,53.76L53.543,53.76L53.543,82.635L60.984,82.635L60.984,72.938L64.791,72.938L69.636,82.635L78.159,82.635ZM96.113,83.155C104.938,83.155,111.514,77.007,111.514,68.219C111.514,59.431,104.938,53.284,96.113,53.284C87.287,53.284,80.668,59.431,80.668,68.219C80.668,77.007,87.287,83.155,96.113,83.155ZM96.113,83.155"/>
</g>
  <g id="Medium-S" transform="matrix(1.0,0.0,0.0,1.0,1679.220411176539,592.6993874183769)">  <path stroke-opacity="1" stroke="none" fill-rule="nonzero" stroke-linejoin="miter" stroke-dasharray="none" fill="#000000" fill-opacity="1" stroke-miterlimit="4" mask="url(#mask0)" stroke-width="1px" stroke-linecap="butt" d="M96.113,76.574C91.354,76.574,88.238,72.895,88.238,68.219C88.238,63.501,91.354,59.864,96.113,59.864C100.871,59.864,103.943,63.501,103.943,68.219C103.943,72.895,100.871,76.574,96.113,76.574ZM66.868,66.444L60.984,66.444L60.984,60.254L66.868,60.254C68.857,60.254,70.458,61.336,70.458,63.327C70.458,65.362,68.857,66.444,66.868,66.444ZM39.05,66.444L33.167,66.444L33.167,60.254L39.05,60.254C41.04,60.254,42.641,61.379,42.641,63.371C42.641,65.319,41.04,66.444,39.05,66.444ZM19.684,102.129C15.136,102.129,11.437,98.563,11.437,94.182L11.437,42.257C11.437,37.875,15.136,34.31,19.684,34.31L117.555,34.31C122.103,34.31,125.803,37.875,125.803,42.257L125.803,94.182C125.803,98.563,122.103,102.129,117.555,102.129L19.684,102.129ZM33.167,82.635L33.167,72.938L40.175,72.938C46.664,72.938,50.212,68.566,50.212,63.371C50.212,58.132,46.664,53.76,40.175,53.76L25.726,53.76L25.726,82.635L33.167,82.635ZM78.159,82.635L72.275,72.029C75.001,71.077,78.029,68.393,78.029,63.371C78.029,58.002,74.395,53.76,67.992,53.76L53.543,53.76L53.543,82.635L60.984,82.635L60.984,72.938L64.791,72.938L69.636,82.635L78.159,82.635ZM96.113,83.155C104.938,83.155,111.514,77.007,111.514,68.219C111.514,59.431,104.938,53.284,96.113,53.284C87.287,53.284,80.668,59.431,80.668,68.219C80.668,77.007,87.287,83.155,96.113,83.155ZM96.113,83.155"/>
</g>
  <g id="Regular-S" transform="matrix(1.0,0.0,0.0,1.0,1382.510411176539,592.6993874183769)">  <path stroke-linecap="butt" stroke-linejoin="miter" stroke-opacity="1" stroke="none" fill-rule="nonzero" fill="#000000" stroke-dasharray="none" mask="url(#mask0)" stroke-width="1px" fill-opacity="1" stroke-miterlimit="4" d="M96.113,76.574C91.354,76.574,88.238,72.895,88.238,68.219C88.238,63.501,91.354,59.864,96.113,59.864C100.871,59.864,103.943,63.501,103.943,68.219C103.943,72.895,100.871,76.574,96.113,76.574ZM66.868,66.444L60.984,66.444L60.984,60.254L66.868,60.254C68.857,60.254,70.458,61.336,70.458,63.327C70.458,65.362,68.857,66.444,66.868,66.444ZM39.05,66.444L33.167,66.444L33.167,60.254L39.05,60.254C41.04,60.254,42.641,61.379,42.641,63.371C42.641,65.319,41.04,66.444,39.05,66.444ZM19.684,102.129C15.136,102.129,11.437,98.563,11.437,94.182L11.437,42.257C11.437,37.875,15.136,34.31,19.684,34.31L117.555,34.31C122.103,34.31,125.803,37.875,125.803,42.257L125.803,94.182C125.803,98.563,122.103,102.129,117.555,102.129L19.684,102.129ZM33.167,82.635L33.167,72.938L40.175,72.938C46.664,72.938,50.212,68.566,50.212,63.371C50.212,58.132,46.664,53.76,40.175,53.76L25.726,53.76L25.726,82.635L33.167,82.635ZM78.159,82.635L72.275,72.029C75.001,71.077,78.029,68.393,78.029,63.371C78.029,58.002,74.395,53.76,67.992,53.76L53.543,53.76L53.543,82.635L60.984,82.635L60.984,72.938L64.791,72.938L69.636,82.635L78.159,82.635ZM96.113,83.155C104.938,83.155,111.514,77.007,111.514,68.219C111.514,59.431,104.938,53.284,96.113,53.284C87.287,53.284,80.668,59.431,80.668,68.219C80.668,77.007,87.287,83.155,96.113,83.155ZM96.113,83.155"/>
</g>
  <g id="Light-S" transform="matrix(1.0,0.0,0.0,1.0,1085.8004111765392,592.6993874183769)">  <path fill-opacity="1" stroke-opacity="1" stroke-linecap="butt" stroke-dasharray="none" stroke="none" stroke-width="1px" mask="url(#mask0)" fill-rule="nonzero" fill="#000000" stroke-miterlimit="4" stroke-linejoin="miter" d="M96.113,76.574C91.354,76.574,88.238,72.895,88.238,68.219C88.238,63.501,91.354,59.864,96.113,59.864C100.871,59.864,103.943,63.501,103.943,68.219C103.943,72.895,100.871,76.574,96.113,76.574ZM66.868,66.444L60.984,66.444L60.984,60.254L66.868,60.254C68.857,60.254,70.458,61.336,70.458,63.327C70.458,65.362,68.857,66.444,66.868,66.444ZM39.05,66.444L33.167,66.444L33.167,60.254L39.05,60.254C41.04,60.254,42.641,61.379,42.641,63.371C42.641,65.319,41.04,66.444,39.05,66.444ZM19.684,102.129C15.136,102.129,11.437,98.563,11.437,94.182L11.437,42.257C11.437,37.875,15.136,34.31,19.684,34.31L117.555,34.31C122.103,34.31,125.803,37.875,125.803,42.257L125.803,94.182C125.803,98.563,122.103,102.129,117.555,102.129L19.684,102.129ZM33.167,82.635L33.167,72.938L40.175,72.938C46.664,72.938,50.212,68.566,50.212,63.371C50.212,58.132,46.664,53.76,40.175,53.76L25.726,53.76L25.726,82.635L33.167,82.635ZM78.159,82.635L72.275,72.029C75.001,71.077,78.029,68.393,78.029,63.371C78.029,58.002,74.395,53.76,67.992,53.76L53.543,53.76L53.543,82.635L60.984,82.635L60.984,72.938L64.791,72.938L69.636,82.635L78.159,82.635ZM96.113,83.155C104.938,83.155,111.514,77.007,111.514,68.219C111.514,59.431,104.938,53.284,96.113,53.284C87.287,53.284,80.668,59.431,80.668,68.219C80.668,77.007,87.287,83.155,96.113,83.155ZM96.113,83.155"/>
</g>
  <g id="Thin-S" transform="matrix(1.0,0.0,0.0,1.0,789.0904111765392,592.6993874183769)">  <path stroke-width="1px" stroke-opacity="1" stroke-linecap="butt" mask="url(#mask0)" stroke-dasharray="none" stroke="none" stroke-miterlimit="4" fill-opacity="1" fill-rule="nonzero" stroke-linejoin="miter" fill="#000000" d="M96.113,76.574C91.354,76.574,88.238,72.895,88.238,68.219C88.238,63.501,91.354,59.864,96.113,59.864C100.871,59.864,103.943,63.501,103.943,68.219C103.943,72.895,100.871,76.574,96.113,76.574ZM66.868,66.444L60.984,66.444L60.984,60.254L66.868,60.254C68.857,60.254,70.458,61.336,70.458,63.327C70.458,65.362,68.857,66.444,66.868,66.444ZM39.05,66.444L33.167,66.444L33.167,60.254L39.05,60.254C41.04,60.254,42.641,61.379,42.641,63.371C42.641,65.319,41.04,66.444,39.05,66.444ZM19.684,102.129C15.136,102.129,11.437,98.563,11.437,94.182L11.437,42.257C11.437,37.875,15.136,34.31,19.684,34.31L117.555,34.31C122.103,34.31,125.803,37.875,125.803,42.257L125.803,94.182C125.803,98.563,122.103,102.129,117.555,102.129L19.684,102.129ZM33.167,82.635L33.167,72.938L40.175,72.938C46.664,72.938,50.212,68.566,50.212,63.371C50.212,58.132,46.664,53.76,40.175,53.76L25.726,53.76L25.726,82.635L33.167,82.635ZM78.159,82.635L72.275,72.029C75.001,71.077,78.029,68.393,78.029,63.371C78.029,58.002,74.395,53.76,67.992,53.76L53.543,53.76L53.543,82.635L60.984,82.635L60.984,72.938L64.791,72.938L69.636,82.635L78.159,82.635ZM96.113,83.155C104.938,83.155,111.514,77.007,111.514,68.219C111.514,59.431,104.938,53.284,96.113,53.284C87.287,53.284,80.668,59.431,80.668,68.219C80.668,77.007,87.287,83.155,96.113,83.155ZM96.113,83.155"/>
</g>
  <g id="Ultralight-S" transform="matrix(1.0,0.0,0.0,1.0,492.38041117653916,592.6993874183769)">  <path stroke-dasharray="none" stroke="none" fill="#000000" stroke-width="1px" stroke-linejoin="miter" fill-rule="nonzero" stroke-linecap="butt" fill-opacity="1" mask="url(#mask0)" stroke-miterlimit="4" stroke-opacity="1" d="M96.113,76.574C91.354,76.574,88.238,72.895,88.238,68.219C88.238,63.501,91.354,59.864,96.113,59.864C100.871,59.864,103.943,63.501,103.943,68.219C103.943,72.895,100.871,76.574,96.113,76.574ZM66.868,66.444L60.984,66.444L60.984,60.254L66.868,60.254C68.857,60.254,70.458,61.336,70.458,63.327C70.458,65.362,68.857,66.444,66.868,66.444ZM39.05,66.444L33.167,66.444L33.167,60.254L39.05,60.254C41.04,60.254,42.641,61.379,42.641,63.371C42.641,65.319,41.04,66.444,39.05,66.444ZM19.684,102.129C15.136,102.129,11.437,98.563,11.437,94.182L11.437,42.257C11.437,37.875,15.136,34.31,19.684,34.31L117.555,34.31C122.103,34.31,125.803,37.875,125.803,42.257L125.803,94.182C125.803,98.563,122.103,102.129,117.555,102.129L19.684,102.129ZM33.167,82.635L33.167,72.938L40.175,72.938C46.664,72.938,50.212,68.566,50.212,63.371C50.212,58.132,46.664,53.76,40.175,53.76L25.726,53.76L25.726,82.635L33.167,82.635ZM78.159,82.635L72.275,72.029C75.001,71.077,78.029,68.393,78.029,63.371C78.029,58.002,74.395,53.76,67.992,53.76L53.543,53.76L53.543,82.635L60.984,82.635L60.984,72.938L64.791,72.938L69.636,82.635L78.159,82.635ZM96.113,83.155C104.938,83.155,111.514,77.007,111.514,68.219C111.514,59.431,104.938,53.284,96.113,53.284C87.287,53.284,80.668,59.431,80.668,68.219C80.668,77.007,87.287,83.155,96.113,83.155ZM96.113,83.155"/>
</g>
 </g>
</svg>
