<?xml version="1.0" encoding="UTF-8"?>
<!-- Generator: CustomSymbols v2.6.1.40 by @serious_bret https://bretlester.com/app_content/CustomSymbols/ -->
<!-- Guides: Left/Right 0.082/0.086 Cap/Base 0.152/0.18 -->
<!-- Settings: RefScale 1.0 Min/Max Stroke Scales 0.5/2.21 -->
<!DOCTYPE svg
PUBLIC "-//W3C//DTD SVG 1.1//EN"
       "http://www.w3.org/Graphics/SVG/1.1/DTD/svg11.dtd">
<svg version="1.1" xmlns="http://www.w3.org/2000/svg" xmlns:xlink="http://www.w3.org/1999/xlink" width="3300" height="2200">
<![CDATA[<svg width="24" height="24" viewBox="0 0 24 24" fill="none" xmlns="http://www.w3.org/2000/svg">
<path fill-rule="evenodd" clip-rule="evenodd" d="M2 3C2 2.44772 2.44772 2 3 2H10C10.5523 2 11 2.44772 11 3V10C11 10.5523 10.5523 11 10 11H3C2.44772 11 2 10.5523 2 10V3ZM4 4H9V9H4V4ZM2 14C2 13.4477 2.44772 13 3 13H10C10.5523 13 11 13.4477 11 14V21C11 21.5523 10.5523 22 10 22H3C2.44772 22 2 21.5523 2 21V14ZM4 15H9V20H4V15ZM14 13C13.4477 13 13 13.4477 13 14V21C13 21.5523 13.4477 22 14 22H21C21.5523 22 22 21.5523 22 21V14C22 13.4477 21.5523 13 21 13H14ZM20 15H15V20H20V15ZM14 2C13.4477 2 13 2.44772 13 3V10C13 10.5523 13.4477 11 14 11H21C21.5523 11 22 10.5523 22 10V3C22 2.44772 21.5523 2 21 2H14Z" fill="black"/>
</svg>
]]>
 <g id="Notes">
  <rect height="2200" id="artboard" style="fill:white;opacity:1" width="3300" x="0" y="0"/>
  <line id="" style="fill:none;stroke:black;opacity:1;stroke-width:0.5;" x1="263" x2="3036" y1="292" y2="292"/>
  <text id="reftext1" style="stroke:none;fill:black;font-family:-apple-system,&quot;SF Pro Display&quot;,&quot;SF Pro Text&quot;,Helvetica,sans-serif;font-weight:bold;" transform="matrix(1 0 0 1 263 322)">Weight/Scale Variations</text>
  <text id="reftext2" style="stroke:none;fill:black;font-family:-apple-system,&quot;SF Pro Display&quot;,&quot;SF Pro Text&quot;,Helvetica,sans-serif;text-anchor:middle;" transform="matrix(1 0 0 1 559.711 322)">Ultralight</text>
  <text style="stroke:none;fill:black;font-family:-apple-system,&quot;SF Pro Display&quot;,&quot;SF Pro Text&quot;,Helvetica,sans-serif;text-anchor:middle;" transform="matrix(1 0 0 1 856.422 322)">Thin</text>
  <text style="stroke:none;fill:black;font-family:-apple-system,&quot;SF Pro Display&quot;,&quot;SF Pro Text&quot;,Helvetica,sans-serif;text-anchor:middle;" transform="matrix(1 0 0 1 1153.13 322)">Light</text>
  <text style="stroke:none;fill:black;font-family:-apple-system,&quot;SF Pro Display&quot;,&quot;SF Pro Text&quot;,Helvetica,sans-serif;text-anchor:middle;" transform="matrix(1 0 0 1 1449.84 322)">Regular</text>
  <text style="stroke:none;fill:black;font-family:-apple-system,&quot;SF Pro Display&quot;,&quot;SF Pro Text&quot;,Helvetica,sans-serif;text-anchor:middle;" transform="matrix(1 0 0 1 1746.56 322)">Medium</text>
  <text style="stroke:none;fill:black;font-family:-apple-system,&quot;SF Pro Display&quot;,&quot;SF Pro Text&quot;,Helvetica,sans-serif;text-anchor:middle;" transform="matrix(1 0 0 1 2043.27 322)">Semibold</text>
  <text style="stroke:none;fill:black;font-family:-apple-system,&quot;SF Pro Display&quot;,&quot;SF Pro Text&quot;,Helvetica,sans-serif;text-anchor:middle;" transform="matrix(1 0 0 1 2339.98 322)">Bold</text>
  <text style="stroke:none;fill:black;font-family:-apple-system,&quot;SF Pro Display&quot;,&quot;SF Pro Text&quot;,Helvetica,sans-serif;text-anchor:middle;" transform="matrix(1 0 0 1 2636.69 322)">Heavy</text>
  <text style="stroke:none;fill:black;font-family:-apple-system,&quot;SF Pro Display&quot;,&quot;SF Pro Text&quot;,Helvetica,sans-serif;text-anchor:middle;" transform="matrix(1 0 0 1 2933.4 322)">Black</text>
  <line id="" style="fill:none;stroke:black;opacity:1;stroke-width:0.5;" x1="263" x2="3036" y1="1903" y2="1903"/>
  <g id="" transform="matrix(1 0 0 1 263 1933)">
   <path d="M9.24805 0.830078C13.5547 0.830078 17.1387-2.74414 17.1387-7.05078C17.1387-11.3574 13.5449-14.9316 9.23828-14.9316C4.94141-14.9316 1.36719-11.3574 1.36719-7.05078C1.36719-2.74414 4.95117 0.830078 9.24805 0.830078ZM9.24805-0.654297C5.70312-0.654297 2.87109-3.49609 2.87109-7.05078C2.87109-10.6055 5.69336-13.4473 9.23828-13.4473C12.793-13.4473 15.6348-10.6055 15.6445-7.05078C15.6543-3.49609 12.8027-0.654297 9.24805-0.654297ZM6.39648-6.31836L8.50586-6.31836L8.50586-4.19922C8.50586-3.75977 8.79883-3.45703 9.22852-3.45703C9.67773-3.45703 9.9707-3.75977 9.9707-4.19922L9.9707-6.31836L12.0996-6.31836C12.5391-6.31836 12.8418-6.61133 12.8418-7.04102C12.8418-7.48047 12.5391-7.7832 12.0996-7.7832L9.9707-7.7832L9.9707-9.89258C9.9707-10.3418 9.67773-10.6445 9.22852-10.6445C8.79883-10.6445 8.50586-10.3418 8.50586-9.89258L8.50586-7.7832L6.39648-7.7832C5.94727-7.7832 5.64453-7.48047 5.64453-7.04102C5.64453-6.61133 5.94727-6.31836 6.39648-6.31836Z"/>
  </g>
  <g id="" transform="matrix(1 0 0 1 281.506 1933)">
   <path d="M11.709 2.91016C17.1582 2.91016 21.6699-1.61133 21.6699-7.05078C21.6699-12.5 17.1484-17.0117 11.6992-17.0117C6.25977-17.0117 1.74805-12.5 1.74805-7.05078C1.74805-1.61133 6.26953 2.91016 11.709 2.91016ZM11.709 1.25C7.09961 1.25 3.41797-2.44141 3.41797-7.05078C3.41797-11.6602 7.08984-15.3516 11.6992-15.3516C16.3086-15.3516 20-11.6602 20.0098-7.05078C20.0195-2.44141 16.3184 1.25 11.709 1.25ZM7.98828-6.23047L10.8789-6.23047L10.8789-3.32031C10.8789-2.83203 11.2109-2.5 11.6895-2.5C12.1777-2.5 12.5195-2.83203 12.5195-3.32031L12.5195-6.23047L15.4297-6.23047C15.918-6.23047 16.25-6.5625 16.25-7.04102C16.25-7.5293 15.918-7.87109 15.4297-7.87109L12.5195-7.87109L12.5195-10.7617C12.5195-11.2695 12.1777-11.6016 11.6895-11.6016C11.2109-11.6016 10.8789-11.2598 10.8789-10.7617L10.8789-7.87109L7.98828-7.87109C7.48047-7.87109 7.14844-7.5293 7.14844-7.04102C7.14844-6.5625 7.49023-6.23047 7.98828-6.23047Z"/>
  </g>
  <g id="" transform="matrix(1 0 0 1 304.924 1933)">
   <path d="M14.9707 5.66406C21.9336 5.66406 27.6953-0.0976562 27.6953-7.05078C27.6953-14.0137 21.9238-19.7754 14.9609-19.7754C8.00781-19.7754 2.25586-14.0137 2.25586-7.05078C2.25586-0.0976562 8.01758 5.66406 14.9707 5.66406ZM14.9707 3.84766C8.93555 3.84766 4.08203-1.01562 4.08203-7.05078C4.08203-13.0957 8.92578-17.9492 14.9609-17.9492C21.0059-17.9492 25.8594-13.0957 25.8691-7.05078C25.8789-1.01562 21.0156 3.84766 14.9707 3.84766ZM10.0586-6.14258L14.0625-6.14258L14.0625-2.12891C14.0625-1.5918 14.4336-1.2207 14.9512-1.2207C15.4883-1.2207 15.8594-1.5918 15.8594-2.12891L15.8594-6.14258L19.8828-6.14258C20.4102-6.14258 20.791-6.51367 20.791-7.03125C20.791-7.56836 20.4199-7.94922 19.8828-7.94922L15.8594-7.94922L15.8594-11.9531C15.8594-12.5098 15.4883-12.8809 14.9512-12.8809C14.4336-12.8809 14.0625-12.5 14.0625-11.9531L14.0625-7.94922L10.0586-7.94922C9.50195-7.94922 9.13086-7.56836 9.13086-7.03125C9.13086-6.51367 9.51172-6.14258 10.0586-6.14258Z"/>
  </g>
  <text style="stroke:none;fill:black;font-family:-apple-system,&quot;SF Pro Display&quot;,&quot;SF Pro Text&quot;,Helvetica,sans-serif;font-weight:bold;" transform="matrix(1 0 0 1 263 1953)">Design Variations</text>
  <text style="stroke:none;fill:black;font-family:-apple-system,&quot;SF Pro Display&quot;,&quot;SF Pro Text&quot;,Helvetica,sans-serif;" transform="matrix(1 0 0 1 263 1971)">Symbols are supported in up to nine weights and three scales.</text>
  <text style="stroke:none;fill:black;font-family:-apple-system,&quot;SF Pro Display&quot;,&quot;SF Pro Text&quot;,Helvetica,sans-serif;" transform="matrix(1 0 0 1 263 1989)">For optimal layout with text and other symbols, vertically align</text>
  <text style="stroke:none;fill:black;font-family:-apple-system,&quot;SF Pro Display&quot;,&quot;SF Pro Text&quot;,Helvetica,sans-serif;" transform="matrix(1 0 0 1 263 2007)">symbols with the adjacent text.</text>
  <line id="" style="fill:none;stroke:#00AEEF;stroke-width:0.5;opacity:1.0;" x1="776" x2="776" y1="1919" y2="1933"/>
  <g id="" transform="matrix(1 0 0 1 776 1933)">
   <path d="M3.31055 0.126953C3.82812 0.126953 4.08203-0.0683594 4.26758-0.605469L5.52734-4.0625L11.2891-4.0625L12.5488-0.605469C12.7344-0.0683594 12.9883 0.126953 13.4961 0.126953C14.0137 0.126953 14.3457-0.185547 14.3457-0.673828C14.3457-0.839844 14.3164-0.986328 14.2383-1.20117L9.6582-13.3887C9.43359-13.9941 9.0332-14.2871 8.4082-14.2871C7.80273-14.2871 7.39258-13.9941 7.17773-13.3984L2.59766-1.19141C2.51953-0.976562 2.49023-0.830078 2.49023-0.664062C2.49023-0.175781 2.80273 0.126953 3.31055 0.126953ZM6.00586-5.53711L8.37891-12.1094L8.42773-12.1094L10.8008-5.53711Z"/>
  </g>
  <line id="" style="fill:none;stroke:#00AEEF;stroke-width:0.5;opacity:1.0;" x1="792.836" x2="792.836" y1="1919" y2="1933"/>
  <text style="stroke:none;fill:black;font-family:-apple-system,&quot;SF Pro Display&quot;,&quot;SF Pro Text&quot;,Helvetica,sans-serif;font-weight:bold;" transform="matrix(1 0 0 1 776 1953)">Margins</text>
  <text style="stroke:none;fill:black;font-family:-apple-system,&quot;SF Pro Display&quot;,&quot;SF Pro Text&quot;,Helvetica,sans-serif;" transform="matrix(1 0 0 1 776 1971)">Leading and trailing margins on the left and right side of each symbol</text>
  <text style="stroke:none;fill:black;font-family:-apple-system,&quot;SF Pro Display&quot;,&quot;SF Pro Text&quot;,Helvetica,sans-serif;" transform="matrix(1 0 0 1 776 1989)">can be adjusted by modifying the x-location of the margin guidelines.</text>
  <text style="stroke:none;fill:black;font-family:-apple-system,&quot;SF Pro Display&quot;,&quot;SF Pro Text&quot;,Helvetica,sans-serif;" transform="matrix(1 0 0 1 776 2007)">Modifications are automatically applied proportionally to all</text>
  <text style="stroke:none;fill:black;font-family:-apple-system,&quot;SF Pro Display&quot;,&quot;SF Pro Text&quot;,Helvetica,sans-serif;" transform="matrix(1 0 0 1 776 2025)">scales and weights.</text>
  <g id="" transform="matrix(1 0 0 1 1289 1933)">
   <path d="M2.8418 1.86523L4.54102 3.57422C5.40039 4.44336 6.38672 4.38477 7.31445 3.35938L17.4902-7.85156C17.7539-7.76367 18.0273-7.7832 18.3398-7.8418L19.4043-8.03711L20.0684-7.36328L20.0293-6.80664C19.9902-6.30859 20.1172-5.92773 20.6055-5.44922L21.3672-4.70703C21.8457-4.22852 22.4609-4.19922 22.9297-4.66797L25.8398-7.58789C26.3086-8.05664 26.2891-8.65234 25.8105-9.13086L25.0391-9.89258C24.5605-10.3711 24.1895-10.5273 23.7109-10.4883L23.1348-10.4395L22.4902-11.0742L22.7344-12.1973C22.8613-12.7637 22.7051-13.2031 22.1191-13.7891L19.9219-15.9766C16.582-19.2969 12.1484-19.2188 9.25781-16.3281C8.83789-15.918 8.80859-15.3418 9.04297-14.9512C9.27734-14.5898 9.73633-14.3555 10.3809-14.5215C11.8457-14.8633 13.3691-14.9219 14.7949-13.9844L14.209-12.5293C14.0137-12.0508 13.9844-11.6504 14.1113-11.2891L3.04688-0.898438C2.06055 0.0195312 1.98242 0.996094 2.8418 1.86523ZM10.752-15.957C13.1836-17.7344 16.4746-17.4316 18.7012-15.2051L21.1328-12.793C21.3672-12.5586 21.4062-12.373 21.3379-12.0312L21.0156-10.5469L22.5195-9.0625L23.5059-9.12109C23.7598-9.13086 23.8379-9.11133 24.0332-8.91602L24.6094-8.33984L22.168-5.89844L21.5918-6.47461C21.3965-6.66992 21.3672-6.74805 21.377-7.01172L21.4453-7.98828L19.9512-9.47266L18.4277-9.21875C18.1055-9.15039 17.959-9.17969 17.7148-9.41406L15.7129-11.416C15.459-11.6504 15.4297-11.8164 15.5859-12.1875L16.4648-14.2773C14.9023-15.7324 12.8711-16.3574 10.8398-15.7617C10.6836-15.7227 10.625-15.8496 10.752-15.957ZM5.27344 2.30469L4.10156 1.14258C3.63281 0.683594 3.74023 0.341797 4.14062-0.0195312L14.9512-10.1953L16.416-8.71094L6.42578 2.27539C6.07422 2.67578 5.74219 2.77344 5.27344 2.30469Z"/>
  </g>
  <text style="stroke:none;fill:black;font-family:-apple-system,&quot;SF Pro Display&quot;,&quot;SF Pro Text&quot;,Helvetica,sans-serif;font-weight:bold;" transform="matrix(1 0 0 1 1289 1953)">Exporting</text>
  <text style="stroke:none;fill:black;font-family:-apple-system,&quot;SF Pro Display&quot;,&quot;SF Pro Text&quot;,Helvetica,sans-serif;" transform="matrix(1 0 0 1 1289 1971)">Symbols should be outlined when exporting to ensure the</text>
  <text style="stroke:none;fill:black;font-family:-apple-system,&quot;SF Pro Display&quot;,&quot;SF Pro Text&quot;,Helvetica,sans-serif;" transform="matrix(1 0 0 1 1289 1989)">design is preserved when submitting to Xcode.</text>
  <text id="template-version" style="stroke:none;fill:black;font-family:-apple-system,&quot;SF Pro Display&quot;,&quot;SF Pro Text&quot;,Helvetica,sans-serif;text-anchor:end;" transform="matrix(1 0 0 1 3036 1933)">Template v.2.0</text>
  <text style="stroke:none;fill:black;font-family:-apple-system,&quot;SF Pro Display&quot;,&quot;SF Pro Text&quot;,Helvetica,sans-serif;text-anchor:end;" transform="matrix(1 0 0 1 3036 1951)">Requires Xcode 12 or greater</text>
  <text style="stroke:none;fill:black;font-family:-apple-system,&quot;SF Pro Display&quot;,&quot;SF Pro Text&quot;,Helvetica,sans-serif;" transform="matrix(1 0 0 1 263 726)">Small</text>
  <text style="stroke:none;fill:black;font-family:-apple-system,&quot;SF Pro Display&quot;,&quot;SF Pro Text&quot;,Helvetica,sans-serif;" transform="matrix(1 0 0 1 263 1156)">Medium</text>
  <text style="stroke:none;fill:black;font-family:-apple-system,&quot;SF Pro Display&quot;,&quot;SF Pro Text&quot;,Helvetica,sans-serif;" transform="matrix(1 0 0 1 263 1586)">Large</text>
 </g>
 <g id="Guides">
  <g id="H-reference" style="fill:#27AAE1;stroke:none;" transform="matrix(1 0 0 1 339 696)">
   <path d="M0.976562 0L3.66211 0L12.9883-24.4629L45.752-24.4629L55.127 0L57.7637 0L30.6152-70.459L28.125-70.459ZM29.3457-67.1387L29.4434-67.1387L44.873-26.709L13.8672-26.709Z"/>
  </g>
  <line id="Baseline-S" style="fill:none;stroke:#27AAE1;opacity:1;stroke-width:0.5;" x1="263" x2="3036" y1="696" y2="696"/>
  <line id="Capline-S" style="fill:none;stroke:#27AAE1;opacity:1;stroke-width:0.5;" x1="263" x2="3036" y1="625.541" y2="625.541"/>
  <g id="H-reference" style="fill:#27AAE1;stroke:none;" transform="matrix(1 0 0 1 339 1126)">
   <path d="M0.976562 0L3.66211 0L12.9883-24.4629L45.752-24.4629L55.127 0L57.7637 0L30.6152-70.459L28.125-70.459ZM29.3457-67.1387L29.4434-67.1387L44.873-26.709L13.8672-26.709Z"/>
  </g>
  <line id="Baseline-M" style="fill:none;stroke:#27AAE1;opacity:1;stroke-width:0.5;" x1="263" x2="3036" y1="1126" y2="1126"/>
  <line id="Capline-M" style="fill:none;stroke:#27AAE1;opacity:1;stroke-width:0.5;" x1="263" x2="3036" y1="1055.54" y2="1055.54"/>
  <g id="H-reference" style="fill:#27AAE1;stroke:none;" transform="matrix(1 0 0 1 339 1556)">
   <path d="M0.976562 0L3.66211 0L12.9883-24.4629L45.752-24.4629L55.127 0L57.7637 0L30.6152-70.459L28.125-70.459ZM29.3457-67.1387L29.4434-67.1387L44.873-26.709L13.8672-26.709Z"/>
  </g>
  <line id="Baseline-L" style="fill:none;stroke:#27AAE1;opacity:1;stroke-width:0.5;" x1="263" x2="3036" y1="1556" y2="1556"/>
  <line id="Capline-L" style="fill:none;stroke:#27AAE1;opacity:1;stroke-width:0.5;" x1="263" x2="3036" y1="1485.54" y2="1485.54"/>
  <line id="left-margin" x1="1407.0397849223427" x2="1407.0397849223427" y1="1030.79" y2="1150.12" style="fill:none;stroke:#00AEEF;stroke-width:0.5;opacity:1.0;"/>
  <line id="right-margin" x1="1494.7982991438996" x2="1494.7982991438996" y1="1030.79" y2="1150.12" style="fill:none;stroke:#00AEEF;stroke-width:0.5;opacity:1.0;"/>
 </g>
 <g id="Symbols">
  <g id="Black-L" transform="matrix(1.0,0.0,0.0,1.0,2866.6460556816055,1454.6410256537706)">  <path stroke-miterlimit="4" stroke-dasharray="none" stroke-linejoin="miter" stroke-linecap="butt" fill="#000000" stroke="none" clip-rule="evenodd" stroke-opacity="1" fill-rule="evenodd" fill-opacity="1" stroke-width="1px" d="M11.339,17.008C11.339,13.877,13.877,11.339,17.008,11.339L56.695,11.339C59.826,11.339,62.364,13.877,62.364,17.008L62.364,56.695C62.364,59.826,59.826,62.364,56.695,62.364L17.008,62.364C13.877,62.364,11.339,59.826,11.339,56.695L11.339,17.008ZM22.678,22.678L51.025,22.678L51.025,51.025L22.678,51.025L22.678,22.678ZM11.339,79.373C11.339,76.242,13.877,73.703,17.008,73.703L56.695,73.703C59.826,73.703,62.364,76.242,62.364,79.373L62.364,119.059C62.364,122.191,59.826,124.729,56.695,124.729L17.008,124.729C13.877,124.729,11.339,122.191,11.339,119.059L11.339,79.373ZM22.678,85.042L51.025,85.042L51.025,113.39L22.678,113.39L22.678,85.042ZM79.373,73.703C76.242,73.703,73.703,76.242,73.703,79.373L73.703,119.059C73.703,122.191,76.242,124.729,79.373,124.729L119.059,124.729C122.191,124.729,124.729,122.191,124.729,119.059L124.729,79.373C124.729,76.242,122.191,73.703,119.059,73.703L79.373,73.703ZM113.39,85.042L85.042,85.042L85.042,113.39L113.39,113.39L113.39,85.042ZM79.373,11.339C76.242,11.339,73.703,13.877,73.703,17.008L73.703,56.695C73.703,59.826,76.242,62.364,79.373,62.364L119.059,62.364C122.191,62.364,124.729,59.826,124.729,56.695L124.729,17.008C124.729,13.877,122.191,11.339,119.059,11.339L79.373,11.339ZM79.373,11.339"/>
</g>
  <g id="Heavy-L" transform="matrix(1.0,0.0,0.0,1.0,2569.9360556816055,1454.6410256537706)">  <path fill-opacity="1" stroke-dasharray="none" stroke-width="1px" clip-rule="evenodd" stroke-linecap="butt" stroke-linejoin="miter" stroke-miterlimit="4" stroke="none" fill="#000000" fill-rule="evenodd" stroke-opacity="1" d="M11.339,17.008C11.339,13.877,13.877,11.339,17.008,11.339L56.695,11.339C59.826,11.339,62.364,13.877,62.364,17.008L62.364,56.695C62.364,59.826,59.826,62.364,56.695,62.364L17.008,62.364C13.877,62.364,11.339,59.826,11.339,56.695L11.339,17.008ZM22.678,22.678L51.025,22.678L51.025,51.025L22.678,51.025L22.678,22.678ZM11.339,79.373C11.339,76.242,13.877,73.703,17.008,73.703L56.695,73.703C59.826,73.703,62.364,76.242,62.364,79.373L62.364,119.059C62.364,122.191,59.826,124.729,56.695,124.729L17.008,124.729C13.877,124.729,11.339,122.191,11.339,119.059L11.339,79.373ZM22.678,85.042L51.025,85.042L51.025,113.39L22.678,113.39L22.678,85.042ZM79.373,73.703C76.242,73.703,73.703,76.242,73.703,79.373L73.703,119.059C73.703,122.191,76.242,124.729,79.373,124.729L119.059,124.729C122.191,124.729,124.729,122.191,124.729,119.059L124.729,79.373C124.729,76.242,122.191,73.703,119.059,73.703L79.373,73.703ZM113.39,85.042L85.042,85.042L85.042,113.39L113.39,113.39L113.39,85.042ZM79.373,11.339C76.242,11.339,73.703,13.877,73.703,17.008L73.703,56.695C73.703,59.826,76.242,62.364,79.373,62.364L119.059,62.364C122.191,62.364,124.729,59.826,124.729,56.695L124.729,17.008C124.729,13.877,122.191,11.339,119.059,11.339L79.373,11.339ZM79.373,11.339"/>
</g>
  <g id="Bold-L" transform="matrix(1.0,0.0,0.0,1.0,2273.2260556816054,1454.6410256537706)">  <path stroke-linecap="butt" fill-opacity="1" stroke-miterlimit="4" stroke-dasharray="none" stroke-width="1px" fill="#000000" stroke-linejoin="miter" clip-rule="evenodd" stroke="none" stroke-opacity="1" fill-rule="evenodd" d="M11.339,17.008C11.339,13.877,13.877,11.339,17.008,11.339L56.695,11.339C59.826,11.339,62.364,13.877,62.364,17.008L62.364,56.695C62.364,59.826,59.826,62.364,56.695,62.364L17.008,62.364C13.877,62.364,11.339,59.826,11.339,56.695L11.339,17.008ZM22.678,22.678L51.025,22.678L51.025,51.025L22.678,51.025L22.678,22.678ZM11.339,79.373C11.339,76.242,13.877,73.703,17.008,73.703L56.695,73.703C59.826,73.703,62.364,76.242,62.364,79.373L62.364,119.059C62.364,122.191,59.826,124.729,56.695,124.729L17.008,124.729C13.877,124.729,11.339,122.191,11.339,119.059L11.339,79.373ZM22.678,85.042L51.025,85.042L51.025,113.39L22.678,113.39L22.678,85.042ZM79.373,73.703C76.242,73.703,73.703,76.242,73.703,79.373L73.703,119.059C73.703,122.191,76.242,124.729,79.373,124.729L119.059,124.729C122.191,124.729,124.729,122.191,124.729,119.059L124.729,79.373C124.729,76.242,122.191,73.703,119.059,73.703L79.373,73.703ZM113.39,85.042L85.042,85.042L85.042,113.39L113.39,113.39L113.39,85.042ZM79.373,11.339C76.242,11.339,73.703,13.877,73.703,17.008L73.703,56.695C73.703,59.826,76.242,62.364,79.373,62.364L119.059,62.364C122.191,62.364,124.729,59.826,124.729,56.695L124.729,17.008C124.729,13.877,122.191,11.339,119.059,11.339L79.373,11.339ZM79.373,11.339"/>
</g>
  <g id="Semibold-L" transform="matrix(1.0,0.0,0.0,1.0,1976.5160556816054,1454.6410256537706)">  <path fill-rule="evenodd" stroke-width="1px" stroke-linecap="butt" fill="#000000" stroke-linejoin="miter" stroke-miterlimit="4" stroke-dasharray="none" stroke="none" stroke-opacity="1" clip-rule="evenodd" fill-opacity="1" d="M11.339,17.008C11.339,13.877,13.877,11.339,17.008,11.339L56.695,11.339C59.826,11.339,62.364,13.877,62.364,17.008L62.364,56.695C62.364,59.826,59.826,62.364,56.695,62.364L17.008,62.364C13.877,62.364,11.339,59.826,11.339,56.695L11.339,17.008ZM22.678,22.678L51.025,22.678L51.025,51.025L22.678,51.025L22.678,22.678ZM11.339,79.373C11.339,76.242,13.877,73.703,17.008,73.703L56.695,73.703C59.826,73.703,62.364,76.242,62.364,79.373L62.364,119.059C62.364,122.191,59.826,124.729,56.695,124.729L17.008,124.729C13.877,124.729,11.339,122.191,11.339,119.059L11.339,79.373ZM22.678,85.042L51.025,85.042L51.025,113.39L22.678,113.39L22.678,85.042ZM79.373,73.703C76.242,73.703,73.703,76.242,73.703,79.373L73.703,119.059C73.703,122.191,76.242,124.729,79.373,124.729L119.059,124.729C122.191,124.729,124.729,122.191,124.729,119.059L124.729,79.373C124.729,76.242,122.191,73.703,119.059,73.703L79.373,73.703ZM113.39,85.042L85.042,85.042L85.042,113.39L113.39,113.39L113.39,85.042ZM79.373,11.339C76.242,11.339,73.703,13.877,73.703,17.008L73.703,56.695C73.703,59.826,76.242,62.364,79.373,62.364L119.059,62.364C122.191,62.364,124.729,59.826,124.729,56.695L124.729,17.008C124.729,13.877,122.191,11.339,119.059,11.339L79.373,11.339ZM79.373,11.339"/>
</g>
  <g id="Medium-L" transform="matrix(1.0,0.0,0.0,1.0,1679.8060556816054,1454.6410256537706)">  <path fill-opacity="1" stroke-linecap="butt" clip-rule="evenodd" stroke="none" stroke-miterlimit="4" stroke-dasharray="none" stroke-opacity="1" fill-rule="evenodd" fill="#000000" stroke-width="1px" stroke-linejoin="miter" d="M11.339,17.008C11.339,13.877,13.877,11.339,17.008,11.339L56.695,11.339C59.826,11.339,62.364,13.877,62.364,17.008L62.364,56.695C62.364,59.826,59.826,62.364,56.695,62.364L17.008,62.364C13.877,62.364,11.339,59.826,11.339,56.695L11.339,17.008ZM22.678,22.678L51.025,22.678L51.025,51.025L22.678,51.025L22.678,22.678ZM11.339,79.373C11.339,76.242,13.877,73.703,17.008,73.703L56.695,73.703C59.826,73.703,62.364,76.242,62.364,79.373L62.364,119.059C62.364,122.191,59.826,124.729,56.695,124.729L17.008,124.729C13.877,124.729,11.339,122.191,11.339,119.059L11.339,79.373ZM22.678,85.042L51.025,85.042L51.025,113.39L22.678,113.39L22.678,85.042ZM79.373,73.703C76.242,73.703,73.703,76.242,73.703,79.373L73.703,119.059C73.703,122.191,76.242,124.729,79.373,124.729L119.059,124.729C122.191,124.729,124.729,122.191,124.729,119.059L124.729,79.373C124.729,76.242,122.191,73.703,119.059,73.703L79.373,73.703ZM113.39,85.042L85.042,85.042L85.042,113.39L113.39,113.39L113.39,85.042ZM79.373,11.339C76.242,11.339,73.703,13.877,73.703,17.008L73.703,56.695C73.703,59.826,76.242,62.364,79.373,62.364L119.059,62.364C122.191,62.364,124.729,59.826,124.729,56.695L124.729,17.008C124.729,13.877,122.191,11.339,119.059,11.339L79.373,11.339ZM79.373,11.339"/>
</g>
  <g id="Regular-L" transform="matrix(1.0,0.0,0.0,1.0,1383.0960556816053,1454.6410256537706)">  <path clip-rule="evenodd" stroke-linejoin="miter" fill-rule="evenodd" stroke-width="1px" stroke-linecap="butt" fill="#000000" stroke="none" stroke-dasharray="none" stroke-opacity="1" fill-opacity="1" stroke-miterlimit="4" d="M11.339,17.008C11.339,13.877,13.877,11.339,17.008,11.339L56.695,11.339C59.826,11.339,62.364,13.877,62.364,17.008L62.364,56.695C62.364,59.826,59.826,62.364,56.695,62.364L17.008,62.364C13.877,62.364,11.339,59.826,11.339,56.695L11.339,17.008ZM22.678,22.678L51.025,22.678L51.025,51.025L22.678,51.025L22.678,22.678ZM11.339,79.373C11.339,76.242,13.877,73.703,17.008,73.703L56.695,73.703C59.826,73.703,62.364,76.242,62.364,79.373L62.364,119.059C62.364,122.191,59.826,124.729,56.695,124.729L17.008,124.729C13.877,124.729,11.339,122.191,11.339,119.059L11.339,79.373ZM22.678,85.042L51.025,85.042L51.025,113.39L22.678,113.39L22.678,85.042ZM79.373,73.703C76.242,73.703,73.703,76.242,73.703,79.373L73.703,119.059C73.703,122.191,76.242,124.729,79.373,124.729L119.059,124.729C122.191,124.729,124.729,122.191,124.729,119.059L124.729,79.373C124.729,76.242,122.191,73.703,119.059,73.703L79.373,73.703ZM113.39,85.042L85.042,85.042L85.042,113.39L113.39,113.39L113.39,85.042ZM79.373,11.339C76.242,11.339,73.703,13.877,73.703,17.008L73.703,56.695C73.703,59.826,76.242,62.364,79.373,62.364L119.059,62.364C122.191,62.364,124.729,59.826,124.729,56.695L124.729,17.008C124.729,13.877,122.191,11.339,119.059,11.339L79.373,11.339ZM79.373,11.339"/>
</g>
  <g id="Light-L" transform="matrix(1.0,0.0,0.0,1.0,1086.3860556816055,1454.6410256537706)">  <path stroke-miterlimit="4" stroke-width="1px" fill-opacity="1" stroke-opacity="1" clip-rule="evenodd" stroke-linecap="butt" stroke-dasharray="none" stroke-linejoin="miter" stroke="none" fill-rule="evenodd" fill="#000000" d="M11.339,17.008C11.339,13.877,13.877,11.339,17.008,11.339L56.695,11.339C59.826,11.339,62.364,13.877,62.364,17.008L62.364,56.695C62.364,59.826,59.826,62.364,56.695,62.364L17.008,62.364C13.877,62.364,11.339,59.826,11.339,56.695L11.339,17.008ZM22.678,22.678L51.025,22.678L51.025,51.025L22.678,51.025L22.678,22.678ZM11.339,79.373C11.339,76.242,13.877,73.703,17.008,73.703L56.695,73.703C59.826,73.703,62.364,76.242,62.364,79.373L62.364,119.059C62.364,122.191,59.826,124.729,56.695,124.729L17.008,124.729C13.877,124.729,11.339,122.191,11.339,119.059L11.339,79.373ZM22.678,85.042L51.025,85.042L51.025,113.39L22.678,113.39L22.678,85.042ZM79.373,73.703C76.242,73.703,73.703,76.242,73.703,79.373L73.703,119.059C73.703,122.191,76.242,124.729,79.373,124.729L119.059,124.729C122.191,124.729,124.729,122.191,124.729,119.059L124.729,79.373C124.729,76.242,122.191,73.703,119.059,73.703L79.373,73.703ZM113.39,85.042L85.042,85.042L85.042,113.39L113.39,113.39L113.39,85.042ZM79.373,11.339C76.242,11.339,73.703,13.877,73.703,17.008L73.703,56.695C73.703,59.826,76.242,62.364,79.373,62.364L119.059,62.364C122.191,62.364,124.729,59.826,124.729,56.695L124.729,17.008C124.729,13.877,122.191,11.339,119.059,11.339L79.373,11.339ZM79.373,11.339"/>
</g>
  <g id="Thin-L" transform="matrix(1.0,0.0,0.0,1.0,789.6760556816056,1454.6410256537706)">  <path stroke-opacity="1" fill-opacity="1" stroke-width="1px" stroke-linejoin="miter" stroke-linecap="butt" fill-rule="evenodd" clip-rule="evenodd" fill="#000000" stroke-miterlimit="4" stroke="none" stroke-dasharray="none" d="M11.339,17.008C11.339,13.877,13.877,11.339,17.008,11.339L56.695,11.339C59.826,11.339,62.364,13.877,62.364,17.008L62.364,56.695C62.364,59.826,59.826,62.364,56.695,62.364L17.008,62.364C13.877,62.364,11.339,59.826,11.339,56.695L11.339,17.008ZM22.678,22.678L51.025,22.678L51.025,51.025L22.678,51.025L22.678,22.678ZM11.339,79.373C11.339,76.242,13.877,73.703,17.008,73.703L56.695,73.703C59.826,73.703,62.364,76.242,62.364,79.373L62.364,119.059C62.364,122.191,59.826,124.729,56.695,124.729L17.008,124.729C13.877,124.729,11.339,122.191,11.339,119.059L11.339,79.373ZM22.678,85.042L51.025,85.042L51.025,113.39L22.678,113.39L22.678,85.042ZM79.373,73.703C76.242,73.703,73.703,76.242,73.703,79.373L73.703,119.059C73.703,122.191,76.242,124.729,79.373,124.729L119.059,124.729C122.191,124.729,124.729,122.191,124.729,119.059L124.729,79.373C124.729,76.242,122.191,73.703,119.059,73.703L79.373,73.703ZM113.39,85.042L85.042,85.042L85.042,113.39L113.39,113.39L113.39,85.042ZM79.373,11.339C76.242,11.339,73.703,13.877,73.703,17.008L73.703,56.695C73.703,59.826,76.242,62.364,79.373,62.364L119.059,62.364C122.191,62.364,124.729,59.826,124.729,56.695L124.729,17.008C124.729,13.877,122.191,11.339,119.059,11.339L79.373,11.339ZM79.373,11.339"/>
</g>
  <g id="Ultralight-L" transform="matrix(1.0,0.0,0.0,1.0,492.96605568160555,1454.6410256537706)">  <path fill-rule="evenodd" fill-opacity="1" stroke-linecap="butt" stroke-width="1px" clip-rule="evenodd" stroke="none" stroke-linejoin="miter" fill="#000000" stroke-opacity="1" stroke-dasharray="none" stroke-miterlimit="4" d="M11.339,17.008C11.339,13.877,13.877,11.339,17.008,11.339L56.695,11.339C59.826,11.339,62.364,13.877,62.364,17.008L62.364,56.695C62.364,59.826,59.826,62.364,56.695,62.364L17.008,62.364C13.877,62.364,11.339,59.826,11.339,56.695L11.339,17.008ZM22.678,22.678L51.025,22.678L51.025,51.025L22.678,51.025L22.678,22.678ZM11.339,79.373C11.339,76.242,13.877,73.703,17.008,73.703L56.695,73.703C59.826,73.703,62.364,76.242,62.364,79.373L62.364,119.059C62.364,122.191,59.826,124.729,56.695,124.729L17.008,124.729C13.877,124.729,11.339,122.191,11.339,119.059L11.339,79.373ZM22.678,85.042L51.025,85.042L51.025,113.39L22.678,113.39L22.678,85.042ZM79.373,73.703C76.242,73.703,73.703,76.242,73.703,79.373L73.703,119.059C73.703,122.191,76.242,124.729,79.373,124.729L119.059,124.729C122.191,124.729,124.729,122.191,124.729,119.059L124.729,79.373C124.729,76.242,122.191,73.703,119.059,73.703L79.373,73.703ZM113.39,85.042L85.042,85.042L85.042,113.39L113.39,113.39L113.39,85.042ZM79.373,11.339C76.242,11.339,73.703,13.877,73.703,17.008L73.703,56.695C73.703,59.826,76.242,62.364,79.373,62.364L119.059,62.364C122.191,62.364,124.729,59.826,124.729,56.695L124.729,17.008C124.729,13.877,122.191,11.339,119.059,11.339L79.373,11.339ZM79.373,11.339"/>
</g>
  <g id="Black-M" transform="matrix(1.0,0.0,0.0,1.0,2881.940508280314,1039.5072335797156)">  <path stroke-miterlimit="4" stroke-dasharray="none" stroke-linejoin="miter" stroke-linecap="butt" fill="#000000" stroke="none" clip-rule="evenodd" stroke-opacity="1" fill-rule="evenodd" fill-opacity="1" stroke-width="1px" d="M8.79,13.185C8.79,10.758,10.758,8.79,13.185,8.79L43.95,8.79C46.377,8.79,48.345,10.758,48.345,13.185L48.345,43.95C48.345,46.377,46.377,48.345,43.95,48.345L13.185,48.345C10.758,48.345,8.79,46.377,8.79,43.95L8.79,13.185ZM17.58,17.58L39.555,17.58L39.555,39.555L17.58,39.555L17.58,17.58ZM8.79,61.529C8.79,59.102,10.758,57.134,13.185,57.134L43.95,57.134C46.377,57.134,48.345,59.102,48.345,61.529L48.345,92.294C48.345,94.721,46.377,96.689,43.95,96.689L13.185,96.689C10.758,96.689,8.79,94.721,8.79,92.294L8.79,61.529ZM17.58,65.924L39.555,65.924L39.555,87.899L17.58,87.899L17.58,65.924ZM61.529,57.134C59.102,57.134,57.134,59.102,57.134,61.529L57.134,92.294C57.134,94.721,59.102,96.689,61.529,96.689L92.294,96.689C94.721,96.689,96.689,94.721,96.689,92.294L96.689,61.529C96.689,59.102,94.721,57.134,92.294,57.134L61.529,57.134ZM87.899,65.924L65.924,65.924L65.924,87.899L87.899,87.899L87.899,65.924ZM61.529,8.79C59.102,8.79,57.134,10.758,57.134,13.185L57.134,43.95C57.134,46.377,59.102,48.345,61.529,48.345L92.294,48.345C94.721,48.345,96.689,46.377,96.689,43.95L96.689,13.185C96.689,10.758,94.721,8.79,92.294,8.79L61.529,8.79ZM61.529,8.79"/>
</g>
  <g id="Heavy-M" transform="matrix(1.0,0.0,0.0,1.0,2585.230508280314,1039.5072335797156)">  <path fill-opacity="1" stroke-dasharray="none" stroke-width="1px" clip-rule="evenodd" stroke-linecap="butt" stroke-linejoin="miter" stroke-miterlimit="4" stroke="none" fill="#000000" fill-rule="evenodd" stroke-opacity="1" d="M8.79,13.185C8.79,10.758,10.758,8.79,13.185,8.79L43.95,8.79C46.377,8.79,48.345,10.758,48.345,13.185L48.345,43.95C48.345,46.377,46.377,48.345,43.95,48.345L13.185,48.345C10.758,48.345,8.79,46.377,8.79,43.95L8.79,13.185ZM17.58,17.58L39.555,17.58L39.555,39.555L17.58,39.555L17.58,17.58ZM8.79,61.529C8.79,59.102,10.758,57.134,13.185,57.134L43.95,57.134C46.377,57.134,48.345,59.102,48.345,61.529L48.345,92.294C48.345,94.721,46.377,96.689,43.95,96.689L13.185,96.689C10.758,96.689,8.79,94.721,8.79,92.294L8.79,61.529ZM17.58,65.924L39.555,65.924L39.555,87.899L17.58,87.899L17.58,65.924ZM61.529,57.134C59.102,57.134,57.134,59.102,57.134,61.529L57.134,92.294C57.134,94.721,59.102,96.689,61.529,96.689L92.294,96.689C94.721,96.689,96.689,94.721,96.689,92.294L96.689,61.529C96.689,59.102,94.721,57.134,92.294,57.134L61.529,57.134ZM87.899,65.924L65.924,65.924L65.924,87.899L87.899,87.899L87.899,65.924ZM61.529,8.79C59.102,8.79,57.134,10.758,57.134,13.185L57.134,43.95C57.134,46.377,59.102,48.345,61.529,48.345L92.294,48.345C94.721,48.345,96.689,46.377,96.689,43.95L96.689,13.185C96.689,10.758,94.721,8.79,92.294,8.79L61.529,8.79ZM61.529,8.79"/>
</g>
  <g id="Bold-M" transform="matrix(1.0,0.0,0.0,1.0,2288.520508280314,1039.5072335797156)">  <path stroke-linecap="butt" fill-opacity="1" stroke-miterlimit="4" stroke-dasharray="none" stroke-width="1px" fill="#000000" stroke-linejoin="miter" clip-rule="evenodd" stroke="none" stroke-opacity="1" fill-rule="evenodd" d="M8.79,13.185C8.79,10.758,10.758,8.79,13.185,8.79L43.95,8.79C46.377,8.79,48.345,10.758,48.345,13.185L48.345,43.95C48.345,46.377,46.377,48.345,43.95,48.345L13.185,48.345C10.758,48.345,8.79,46.377,8.79,43.95L8.79,13.185ZM17.58,17.58L39.555,17.58L39.555,39.555L17.58,39.555L17.58,17.58ZM8.79,61.529C8.79,59.102,10.758,57.134,13.185,57.134L43.95,57.134C46.377,57.134,48.345,59.102,48.345,61.529L48.345,92.294C48.345,94.721,46.377,96.689,43.95,96.689L13.185,96.689C10.758,96.689,8.79,94.721,8.79,92.294L8.79,61.529ZM17.58,65.924L39.555,65.924L39.555,87.899L17.58,87.899L17.58,65.924ZM61.529,57.134C59.102,57.134,57.134,59.102,57.134,61.529L57.134,92.294C57.134,94.721,59.102,96.689,61.529,96.689L92.294,96.689C94.721,96.689,96.689,94.721,96.689,92.294L96.689,61.529C96.689,59.102,94.721,57.134,92.294,57.134L61.529,57.134ZM87.899,65.924L65.924,65.924L65.924,87.899L87.899,87.899L87.899,65.924ZM61.529,8.79C59.102,8.79,57.134,10.758,57.134,13.185L57.134,43.95C57.134,46.377,59.102,48.345,61.529,48.345L92.294,48.345C94.721,48.345,96.689,46.377,96.689,43.95L96.689,13.185C96.689,10.758,94.721,8.79,92.294,8.79L61.529,8.79ZM61.529,8.79"/>
</g>
  <g id="Semibold-M" transform="matrix(1.0,0.0,0.0,1.0,1991.8105082803143,1039.5072335797156)">  <path fill-rule="evenodd" stroke-width="1px" stroke-linecap="butt" fill="#000000" stroke-linejoin="miter" stroke-miterlimit="4" stroke-dasharray="none" stroke="none" stroke-opacity="1" clip-rule="evenodd" fill-opacity="1" d="M8.79,13.185C8.79,10.758,10.758,8.79,13.185,8.79L43.95,8.79C46.377,8.79,48.345,10.758,48.345,13.185L48.345,43.95C48.345,46.377,46.377,48.345,43.95,48.345L13.185,48.345C10.758,48.345,8.79,46.377,8.79,43.95L8.79,13.185ZM17.58,17.58L39.555,17.58L39.555,39.555L17.58,39.555L17.58,17.58ZM8.79,61.529C8.79,59.102,10.758,57.134,13.185,57.134L43.95,57.134C46.377,57.134,48.345,59.102,48.345,61.529L48.345,92.294C48.345,94.721,46.377,96.689,43.95,96.689L13.185,96.689C10.758,96.689,8.79,94.721,8.79,92.294L8.79,61.529ZM17.58,65.924L39.555,65.924L39.555,87.899L17.58,87.899L17.58,65.924ZM61.529,57.134C59.102,57.134,57.134,59.102,57.134,61.529L57.134,92.294C57.134,94.721,59.102,96.689,61.529,96.689L92.294,96.689C94.721,96.689,96.689,94.721,96.689,92.294L96.689,61.529C96.689,59.102,94.721,57.134,92.294,57.134L61.529,57.134ZM87.899,65.924L65.924,65.924L65.924,87.899L87.899,87.899L87.899,65.924ZM61.529,8.79C59.102,8.79,57.134,10.758,57.134,13.185L57.134,43.95C57.134,46.377,59.102,48.345,61.529,48.345L92.294,48.345C94.721,48.345,96.689,46.377,96.689,43.95L96.689,13.185C96.689,10.758,94.721,8.79,92.294,8.79L61.529,8.79ZM61.529,8.79"/>
</g>
  <g id="Medium-M" transform="matrix(1.0,0.0,0.0,1.0,1695.1005082803142,1039.5072335797156)">  <path fill-opacity="1" stroke-linecap="butt" clip-rule="evenodd" stroke="none" stroke-miterlimit="4" stroke-dasharray="none" stroke-opacity="1" fill-rule="evenodd" fill="#000000" stroke-width="1px" stroke-linejoin="miter" d="M8.79,13.185C8.79,10.758,10.758,8.79,13.185,8.79L43.95,8.79C46.377,8.79,48.345,10.758,48.345,13.185L48.345,43.95C48.345,46.377,46.377,48.345,43.95,48.345L13.185,48.345C10.758,48.345,8.79,46.377,8.79,43.95L8.79,13.185ZM17.58,17.58L39.555,17.58L39.555,39.555L17.58,39.555L17.58,17.58ZM8.79,61.529C8.79,59.102,10.758,57.134,13.185,57.134L43.95,57.134C46.377,57.134,48.345,59.102,48.345,61.529L48.345,92.294C48.345,94.721,46.377,96.689,43.95,96.689L13.185,96.689C10.758,96.689,8.79,94.721,8.79,92.294L8.79,61.529ZM17.58,65.924L39.555,65.924L39.555,87.899L17.58,87.899L17.58,65.924ZM61.529,57.134C59.102,57.134,57.134,59.102,57.134,61.529L57.134,92.294C57.134,94.721,59.102,96.689,61.529,96.689L92.294,96.689C94.721,96.689,96.689,94.721,96.689,92.294L96.689,61.529C96.689,59.102,94.721,57.134,92.294,57.134L61.529,57.134ZM87.899,65.924L65.924,65.924L65.924,87.899L87.899,87.899L87.899,65.924ZM61.529,8.79C59.102,8.79,57.134,10.758,57.134,13.185L57.134,43.95C57.134,46.377,59.102,48.345,61.529,48.345L92.294,48.345C94.721,48.345,96.689,46.377,96.689,43.95L96.689,13.185C96.689,10.758,94.721,8.79,92.294,8.79L61.529,8.79ZM61.529,8.79"/>
</g>
  <g id="Regular-M" transform="matrix(1.0,0.0,0.0,1.0,1398.3905082803142,1039.5072335797156)">  <path clip-rule="evenodd" stroke-linejoin="miter" fill-rule="evenodd" stroke-width="1px" stroke-linecap="butt" fill="#000000" stroke="none" stroke-dasharray="none" stroke-opacity="1" fill-opacity="1" stroke-miterlimit="4" d="M8.79,13.185C8.79,10.758,10.758,8.79,13.185,8.79L43.95,8.79C46.377,8.79,48.345,10.758,48.345,13.185L48.345,43.95C48.345,46.377,46.377,48.345,43.95,48.345L13.185,48.345C10.758,48.345,8.79,46.377,8.79,43.95L8.79,13.185ZM17.58,17.58L39.555,17.58L39.555,39.555L17.58,39.555L17.58,17.58ZM8.79,61.529C8.79,59.102,10.758,57.134,13.185,57.134L43.95,57.134C46.377,57.134,48.345,59.102,48.345,61.529L48.345,92.294C48.345,94.721,46.377,96.689,43.95,96.689L13.185,96.689C10.758,96.689,8.79,94.721,8.79,92.294L8.79,61.529ZM17.58,65.924L39.555,65.924L39.555,87.899L17.58,87.899L17.58,65.924ZM61.529,57.134C59.102,57.134,57.134,59.102,57.134,61.529L57.134,92.294C57.134,94.721,59.102,96.689,61.529,96.689L92.294,96.689C94.721,96.689,96.689,94.721,96.689,92.294L96.689,61.529C96.689,59.102,94.721,57.134,92.294,57.134L61.529,57.134ZM87.899,65.924L65.924,65.924L65.924,87.899L87.899,87.899L87.899,65.924ZM61.529,8.79C59.102,8.79,57.134,10.758,57.134,13.185L57.134,43.95C57.134,46.377,59.102,48.345,61.529,48.345L92.294,48.345C94.721,48.345,96.689,46.377,96.689,43.95L96.689,13.185C96.689,10.758,94.721,8.79,92.294,8.79L61.529,8.79ZM61.529,8.79"/>
</g>
  <g id="Light-M" transform="matrix(1.0,0.0,0.0,1.0,1101.6805082803144,1039.5072335797156)">  <path stroke-miterlimit="4" stroke-width="1px" fill-opacity="1" stroke-opacity="1" clip-rule="evenodd" stroke-linecap="butt" stroke-dasharray="none" stroke-linejoin="miter" stroke="none" fill-rule="evenodd" fill="#000000" d="M8.79,13.185C8.79,10.758,10.758,8.79,13.185,8.79L43.95,8.79C46.377,8.79,48.345,10.758,48.345,13.185L48.345,43.95C48.345,46.377,46.377,48.345,43.95,48.345L13.185,48.345C10.758,48.345,8.79,46.377,8.79,43.95L8.79,13.185ZM17.58,17.58L39.555,17.58L39.555,39.555L17.58,39.555L17.58,17.58ZM8.79,61.529C8.79,59.102,10.758,57.134,13.185,57.134L43.95,57.134C46.377,57.134,48.345,59.102,48.345,61.529L48.345,92.294C48.345,94.721,46.377,96.689,43.95,96.689L13.185,96.689C10.758,96.689,8.79,94.721,8.79,92.294L8.79,61.529ZM17.58,65.924L39.555,65.924L39.555,87.899L17.58,87.899L17.58,65.924ZM61.529,57.134C59.102,57.134,57.134,59.102,57.134,61.529L57.134,92.294C57.134,94.721,59.102,96.689,61.529,96.689L92.294,96.689C94.721,96.689,96.689,94.721,96.689,92.294L96.689,61.529C96.689,59.102,94.721,57.134,92.294,57.134L61.529,57.134ZM87.899,65.924L65.924,65.924L65.924,87.899L87.899,87.899L87.899,65.924ZM61.529,8.79C59.102,8.79,57.134,10.758,57.134,13.185L57.134,43.95C57.134,46.377,59.102,48.345,61.529,48.345L92.294,48.345C94.721,48.345,96.689,46.377,96.689,43.95L96.689,13.185C96.689,10.758,94.721,8.79,92.294,8.79L61.529,8.79ZM61.529,8.79"/>
</g>
  <g id="Thin-M" transform="matrix(1.0,0.0,0.0,1.0,804.9705082803144,1039.5072335797156)">  <path stroke-opacity="1" fill-opacity="1" stroke-width="1px" stroke-linejoin="miter" stroke-linecap="butt" fill-rule="evenodd" clip-rule="evenodd" fill="#000000" stroke-miterlimit="4" stroke="none" stroke-dasharray="none" d="M8.79,13.185C8.79,10.758,10.758,8.79,13.185,8.79L43.95,8.79C46.377,8.79,48.345,10.758,48.345,13.185L48.345,43.95C48.345,46.377,46.377,48.345,43.95,48.345L13.185,48.345C10.758,48.345,8.79,46.377,8.79,43.95L8.79,13.185ZM17.58,17.58L39.555,17.58L39.555,39.555L17.58,39.555L17.58,17.58ZM8.79,61.529C8.79,59.102,10.758,57.134,13.185,57.134L43.95,57.134C46.377,57.134,48.345,59.102,48.345,61.529L48.345,92.294C48.345,94.721,46.377,96.689,43.95,96.689L13.185,96.689C10.758,96.689,8.79,94.721,8.79,92.294L8.79,61.529ZM17.58,65.924L39.555,65.924L39.555,87.899L17.58,87.899L17.58,65.924ZM61.529,57.134C59.102,57.134,57.134,59.102,57.134,61.529L57.134,92.294C57.134,94.721,59.102,96.689,61.529,96.689L92.294,96.689C94.721,96.689,96.689,94.721,96.689,92.294L96.689,61.529C96.689,59.102,94.721,57.134,92.294,57.134L61.529,57.134ZM87.899,65.924L65.924,65.924L65.924,87.899L87.899,87.899L87.899,65.924ZM61.529,8.79C59.102,8.79,57.134,10.758,57.134,13.185L57.134,43.95C57.134,46.377,59.102,48.345,61.529,48.345L92.294,48.345C94.721,48.345,96.689,46.377,96.689,43.95L96.689,13.185C96.689,10.758,94.721,8.79,92.294,8.79L61.529,8.79ZM61.529,8.79"/>
</g>
  <g id="Ultralight-M" transform="matrix(1.0,0.0,0.0,1.0,508.26050828031435,1039.5072335797156)">  <path fill-rule="evenodd" fill-opacity="1" stroke-linecap="butt" stroke-width="1px" clip-rule="evenodd" stroke="none" stroke-linejoin="miter" fill="#000000" stroke-opacity="1" stroke-dasharray="none" stroke-miterlimit="4" d="M8.79,13.185C8.79,10.758,10.758,8.79,13.185,8.79L43.95,8.79C46.377,8.79,48.345,10.758,48.345,13.185L48.345,43.95C48.345,46.377,46.377,48.345,43.95,48.345L13.185,48.345C10.758,48.345,8.79,46.377,8.79,43.95L8.79,13.185ZM17.58,17.58L39.555,17.58L39.555,39.555L17.58,39.555L17.58,17.58ZM8.79,61.529C8.79,59.102,10.758,57.134,13.185,57.134L43.95,57.134C46.377,57.134,48.345,59.102,48.345,61.529L48.345,92.294C48.345,94.721,46.377,96.689,43.95,96.689L13.185,96.689C10.758,96.689,8.79,94.721,8.79,92.294L8.79,61.529ZM17.58,65.924L39.555,65.924L39.555,87.899L17.58,87.899L17.58,65.924ZM61.529,57.134C59.102,57.134,57.134,59.102,57.134,61.529L57.134,92.294C57.134,94.721,59.102,96.689,61.529,96.689L92.294,96.689C94.721,96.689,96.689,94.721,96.689,92.294L96.689,61.529C96.689,59.102,94.721,57.134,92.294,57.134L61.529,57.134ZM87.899,65.924L65.924,65.924L65.924,87.899L87.899,87.899L87.899,65.924ZM61.529,8.79C59.102,8.79,57.134,10.758,57.134,13.185L57.134,43.95C57.134,46.377,59.102,48.345,61.529,48.345L92.294,48.345C94.721,48.345,96.689,46.377,96.689,43.95L96.689,13.185C96.689,10.758,94.721,8.79,92.294,8.79L61.529,8.79ZM61.529,8.79"/>
</g>
  <g id="Black-S" transform="matrix(1.0,0.0,0.0,1.0,2893.384977983486,620.6312581311986)">  <path stroke-miterlimit="4" stroke-dasharray="none" stroke-linejoin="miter" stroke-linecap="butt" fill="#000000" stroke="none" clip-rule="evenodd" stroke-opacity="1" fill-rule="evenodd" fill-opacity="1" stroke-width="1px" d="M6.883,10.324C6.883,8.423,8.423,6.883,10.324,6.883L34.413,6.883C36.313,6.883,37.854,8.423,37.854,10.324L37.854,34.413C37.854,36.313,36.313,37.854,34.413,37.854L10.324,37.854C8.423,37.854,6.883,36.313,6.883,34.413L6.883,10.324ZM13.765,13.765L30.971,13.765L30.971,30.971L13.765,30.971L13.765,13.765ZM6.883,48.178C6.883,46.277,8.423,44.736,10.324,44.736L34.413,44.736C36.313,44.736,37.854,46.277,37.854,48.178L37.854,72.266C37.854,74.167,36.313,75.708,34.413,75.708L10.324,75.708C8.423,75.708,6.883,74.167,6.883,72.266L6.883,48.178ZM13.765,51.619L30.971,51.619L30.971,68.825L13.765,68.825L13.765,51.619ZM48.178,44.736C46.277,44.736,44.736,46.277,44.736,48.178L44.736,72.266C44.736,74.167,46.277,75.708,48.178,75.708L72.266,75.708C74.167,75.708,75.708,74.167,75.708,72.266L75.708,48.178C75.708,46.277,74.167,44.736,72.266,44.736L48.178,44.736ZM68.825,51.619L51.619,51.619L51.619,68.825L68.825,68.825L68.825,51.619ZM48.178,6.883C46.277,6.883,44.736,8.423,44.736,10.324L44.736,34.413C44.736,36.313,46.277,37.854,48.178,37.854L72.266,37.854C74.167,37.854,75.708,36.313,75.708,34.413L75.708,10.324C75.708,8.423,74.167,6.883,72.266,6.883L48.178,6.883ZM48.178,6.883"/>
</g>
  <g id="Heavy-S" transform="matrix(1.0,0.0,0.0,1.0,2596.674977983486,620.6312581311986)">  <path fill-opacity="1" stroke-dasharray="none" stroke-width="1px" clip-rule="evenodd" stroke-linecap="butt" stroke-linejoin="miter" stroke-miterlimit="4" stroke="none" fill="#000000" fill-rule="evenodd" stroke-opacity="1" d="M6.883,10.324C6.883,8.423,8.423,6.883,10.324,6.883L34.413,6.883C36.313,6.883,37.854,8.423,37.854,10.324L37.854,34.413C37.854,36.313,36.313,37.854,34.413,37.854L10.324,37.854C8.423,37.854,6.883,36.313,6.883,34.413L6.883,10.324ZM13.765,13.765L30.971,13.765L30.971,30.971L13.765,30.971L13.765,13.765ZM6.883,48.178C6.883,46.277,8.423,44.736,10.324,44.736L34.413,44.736C36.313,44.736,37.854,46.277,37.854,48.178L37.854,72.266C37.854,74.167,36.313,75.708,34.413,75.708L10.324,75.708C8.423,75.708,6.883,74.167,6.883,72.266L6.883,48.178ZM13.765,51.619L30.971,51.619L30.971,68.825L13.765,68.825L13.765,51.619ZM48.178,44.736C46.277,44.736,44.736,46.277,44.736,48.178L44.736,72.266C44.736,74.167,46.277,75.708,48.178,75.708L72.266,75.708C74.167,75.708,75.708,74.167,75.708,72.266L75.708,48.178C75.708,46.277,74.167,44.736,72.266,44.736L48.178,44.736ZM68.825,51.619L51.619,51.619L51.619,68.825L68.825,68.825L68.825,51.619ZM48.178,6.883C46.277,6.883,44.736,8.423,44.736,10.324L44.736,34.413C44.736,36.313,46.277,37.854,48.178,37.854L72.266,37.854C74.167,37.854,75.708,36.313,75.708,34.413L75.708,10.324C75.708,8.423,74.167,6.883,72.266,6.883L48.178,6.883ZM48.178,6.883"/>
</g>
  <g id="Bold-S" transform="matrix(1.0,0.0,0.0,1.0,2299.964977983486,620.6312581311986)">  <path stroke-linecap="butt" fill-opacity="1" stroke-miterlimit="4" stroke-dasharray="none" stroke-width="1px" fill="#000000" stroke-linejoin="miter" clip-rule="evenodd" stroke="none" stroke-opacity="1" fill-rule="evenodd" d="M6.883,10.324C6.883,8.423,8.423,6.883,10.324,6.883L34.413,6.883C36.313,6.883,37.854,8.423,37.854,10.324L37.854,34.413C37.854,36.313,36.313,37.854,34.413,37.854L10.324,37.854C8.423,37.854,6.883,36.313,6.883,34.413L6.883,10.324ZM13.765,13.765L30.971,13.765L30.971,30.971L13.765,30.971L13.765,13.765ZM6.883,48.178C6.883,46.277,8.423,44.736,10.324,44.736L34.413,44.736C36.313,44.736,37.854,46.277,37.854,48.178L37.854,72.266C37.854,74.167,36.313,75.708,34.413,75.708L10.324,75.708C8.423,75.708,6.883,74.167,6.883,72.266L6.883,48.178ZM13.765,51.619L30.971,51.619L30.971,68.825L13.765,68.825L13.765,51.619ZM48.178,44.736C46.277,44.736,44.736,46.277,44.736,48.178L44.736,72.266C44.736,74.167,46.277,75.708,48.178,75.708L72.266,75.708C74.167,75.708,75.708,74.167,75.708,72.266L75.708,48.178C75.708,46.277,74.167,44.736,72.266,44.736L48.178,44.736ZM68.825,51.619L51.619,51.619L51.619,68.825L68.825,68.825L68.825,51.619ZM48.178,6.883C46.277,6.883,44.736,8.423,44.736,10.324L44.736,34.413C44.736,36.313,46.277,37.854,48.178,37.854L72.266,37.854C74.167,37.854,75.708,36.313,75.708,34.413L75.708,10.324C75.708,8.423,74.167,6.883,72.266,6.883L48.178,6.883ZM48.178,6.883"/>
</g>
  <g id="Semibold-S" transform="matrix(1.0,0.0,0.0,1.0,2003.254977983486,620.6312581311986)">  <path fill-rule="evenodd" stroke-width="1px" stroke-linecap="butt" fill="#000000" stroke-linejoin="miter" stroke-miterlimit="4" stroke-dasharray="none" stroke="none" stroke-opacity="1" clip-rule="evenodd" fill-opacity="1" d="M6.883,10.324C6.883,8.423,8.423,6.883,10.324,6.883L34.413,6.883C36.313,6.883,37.854,8.423,37.854,10.324L37.854,34.413C37.854,36.313,36.313,37.854,34.413,37.854L10.324,37.854C8.423,37.854,6.883,36.313,6.883,34.413L6.883,10.324ZM13.765,13.765L30.971,13.765L30.971,30.971L13.765,30.971L13.765,13.765ZM6.883,48.178C6.883,46.277,8.423,44.736,10.324,44.736L34.413,44.736C36.313,44.736,37.854,46.277,37.854,48.178L37.854,72.266C37.854,74.167,36.313,75.708,34.413,75.708L10.324,75.708C8.423,75.708,6.883,74.167,6.883,72.266L6.883,48.178ZM13.765,51.619L30.971,51.619L30.971,68.825L13.765,68.825L13.765,51.619ZM48.178,44.736C46.277,44.736,44.736,46.277,44.736,48.178L44.736,72.266C44.736,74.167,46.277,75.708,48.178,75.708L72.266,75.708C74.167,75.708,75.708,74.167,75.708,72.266L75.708,48.178C75.708,46.277,74.167,44.736,72.266,44.736L48.178,44.736ZM68.825,51.619L51.619,51.619L51.619,68.825L68.825,68.825L68.825,51.619ZM48.178,6.883C46.277,6.883,44.736,8.423,44.736,10.324L44.736,34.413C44.736,36.313,46.277,37.854,48.178,37.854L72.266,37.854C74.167,37.854,75.708,36.313,75.708,34.413L75.708,10.324C75.708,8.423,74.167,6.883,72.266,6.883L48.178,6.883ZM48.178,6.883"/>
</g>
  <g id="Medium-S" transform="matrix(1.0,0.0,0.0,1.0,1706.544977983486,620.6312581311986)">  <path fill-opacity="1" stroke-linecap="butt" clip-rule="evenodd" stroke="none" stroke-miterlimit="4" stroke-dasharray="none" stroke-opacity="1" fill-rule="evenodd" fill="#000000" stroke-width="1px" stroke-linejoin="miter" d="M6.883,10.324C6.883,8.423,8.423,6.883,10.324,6.883L34.413,6.883C36.313,6.883,37.854,8.423,37.854,10.324L37.854,34.413C37.854,36.313,36.313,37.854,34.413,37.854L10.324,37.854C8.423,37.854,6.883,36.313,6.883,34.413L6.883,10.324ZM13.765,13.765L30.971,13.765L30.971,30.971L13.765,30.971L13.765,13.765ZM6.883,48.178C6.883,46.277,8.423,44.736,10.324,44.736L34.413,44.736C36.313,44.736,37.854,46.277,37.854,48.178L37.854,72.266C37.854,74.167,36.313,75.708,34.413,75.708L10.324,75.708C8.423,75.708,6.883,74.167,6.883,72.266L6.883,48.178ZM13.765,51.619L30.971,51.619L30.971,68.825L13.765,68.825L13.765,51.619ZM48.178,44.736C46.277,44.736,44.736,46.277,44.736,48.178L44.736,72.266C44.736,74.167,46.277,75.708,48.178,75.708L72.266,75.708C74.167,75.708,75.708,74.167,75.708,72.266L75.708,48.178C75.708,46.277,74.167,44.736,72.266,44.736L48.178,44.736ZM68.825,51.619L51.619,51.619L51.619,68.825L68.825,68.825L68.825,51.619ZM48.178,6.883C46.277,6.883,44.736,8.423,44.736,10.324L44.736,34.413C44.736,36.313,46.277,37.854,48.178,37.854L72.266,37.854C74.167,37.854,75.708,36.313,75.708,34.413L75.708,10.324C75.708,8.423,74.167,6.883,72.266,6.883L48.178,6.883ZM48.178,6.883"/>
</g>
  <g id="Regular-S" transform="matrix(1.0,0.0,0.0,1.0,1409.834977983486,620.6312581311986)">  <path clip-rule="evenodd" stroke-linejoin="miter" fill-rule="evenodd" stroke-width="1px" stroke-linecap="butt" fill="#000000" stroke="none" stroke-dasharray="none" stroke-opacity="1" fill-opacity="1" stroke-miterlimit="4" d="M6.883,10.324C6.883,8.423,8.423,6.883,10.324,6.883L34.413,6.883C36.313,6.883,37.854,8.423,37.854,10.324L37.854,34.413C37.854,36.313,36.313,37.854,34.413,37.854L10.324,37.854C8.423,37.854,6.883,36.313,6.883,34.413L6.883,10.324ZM13.765,13.765L30.971,13.765L30.971,30.971L13.765,30.971L13.765,13.765ZM6.883,48.178C6.883,46.277,8.423,44.736,10.324,44.736L34.413,44.736C36.313,44.736,37.854,46.277,37.854,48.178L37.854,72.266C37.854,74.167,36.313,75.708,34.413,75.708L10.324,75.708C8.423,75.708,6.883,74.167,6.883,72.266L6.883,48.178ZM13.765,51.619L30.971,51.619L30.971,68.825L13.765,68.825L13.765,51.619ZM48.178,44.736C46.277,44.736,44.736,46.277,44.736,48.178L44.736,72.266C44.736,74.167,46.277,75.708,48.178,75.708L72.266,75.708C74.167,75.708,75.708,74.167,75.708,72.266L75.708,48.178C75.708,46.277,74.167,44.736,72.266,44.736L48.178,44.736ZM68.825,51.619L51.619,51.619L51.619,68.825L68.825,68.825L68.825,51.619ZM48.178,6.883C46.277,6.883,44.736,8.423,44.736,10.324L44.736,34.413C44.736,36.313,46.277,37.854,48.178,37.854L72.266,37.854C74.167,37.854,75.708,36.313,75.708,34.413L75.708,10.324C75.708,8.423,74.167,6.883,72.266,6.883L48.178,6.883ZM48.178,6.883"/>
</g>
  <g id="Light-S" transform="matrix(1.0,0.0,0.0,1.0,1113.1249779834861,620.6312581311986)">  <path stroke-miterlimit="4" stroke-width="1px" fill-opacity="1" stroke-opacity="1" clip-rule="evenodd" stroke-linecap="butt" stroke-dasharray="none" stroke-linejoin="miter" stroke="none" fill-rule="evenodd" fill="#000000" d="M6.883,10.324C6.883,8.423,8.423,6.883,10.324,6.883L34.413,6.883C36.313,6.883,37.854,8.423,37.854,10.324L37.854,34.413C37.854,36.313,36.313,37.854,34.413,37.854L10.324,37.854C8.423,37.854,6.883,36.313,6.883,34.413L6.883,10.324ZM13.765,13.765L30.971,13.765L30.971,30.971L13.765,30.971L13.765,13.765ZM6.883,48.178C6.883,46.277,8.423,44.736,10.324,44.736L34.413,44.736C36.313,44.736,37.854,46.277,37.854,48.178L37.854,72.266C37.854,74.167,36.313,75.708,34.413,75.708L10.324,75.708C8.423,75.708,6.883,74.167,6.883,72.266L6.883,48.178ZM13.765,51.619L30.971,51.619L30.971,68.825L13.765,68.825L13.765,51.619ZM48.178,44.736C46.277,44.736,44.736,46.277,44.736,48.178L44.736,72.266C44.736,74.167,46.277,75.708,48.178,75.708L72.266,75.708C74.167,75.708,75.708,74.167,75.708,72.266L75.708,48.178C75.708,46.277,74.167,44.736,72.266,44.736L48.178,44.736ZM68.825,51.619L51.619,51.619L51.619,68.825L68.825,68.825L68.825,51.619ZM48.178,6.883C46.277,6.883,44.736,8.423,44.736,10.324L44.736,34.413C44.736,36.313,46.277,37.854,48.178,37.854L72.266,37.854C74.167,37.854,75.708,36.313,75.708,34.413L75.708,10.324C75.708,8.423,74.167,6.883,72.266,6.883L48.178,6.883ZM48.178,6.883"/>
</g>
  <g id="Thin-S" transform="matrix(1.0,0.0,0.0,1.0,816.4149779834862,620.6312581311986)">  <path stroke-opacity="1" fill-opacity="1" stroke-width="1px" stroke-linejoin="miter" stroke-linecap="butt" fill-rule="evenodd" clip-rule="evenodd" fill="#000000" stroke-miterlimit="4" stroke="none" stroke-dasharray="none" d="M6.883,10.324C6.883,8.423,8.423,6.883,10.324,6.883L34.413,6.883C36.313,6.883,37.854,8.423,37.854,10.324L37.854,34.413C37.854,36.313,36.313,37.854,34.413,37.854L10.324,37.854C8.423,37.854,6.883,36.313,6.883,34.413L6.883,10.324ZM13.765,13.765L30.971,13.765L30.971,30.971L13.765,30.971L13.765,13.765ZM6.883,48.178C6.883,46.277,8.423,44.736,10.324,44.736L34.413,44.736C36.313,44.736,37.854,46.277,37.854,48.178L37.854,72.266C37.854,74.167,36.313,75.708,34.413,75.708L10.324,75.708C8.423,75.708,6.883,74.167,6.883,72.266L6.883,48.178ZM13.765,51.619L30.971,51.619L30.971,68.825L13.765,68.825L13.765,51.619ZM48.178,44.736C46.277,44.736,44.736,46.277,44.736,48.178L44.736,72.266C44.736,74.167,46.277,75.708,48.178,75.708L72.266,75.708C74.167,75.708,75.708,74.167,75.708,72.266L75.708,48.178C75.708,46.277,74.167,44.736,72.266,44.736L48.178,44.736ZM68.825,51.619L51.619,51.619L51.619,68.825L68.825,68.825L68.825,51.619ZM48.178,6.883C46.277,6.883,44.736,8.423,44.736,10.324L44.736,34.413C44.736,36.313,46.277,37.854,48.178,37.854L72.266,37.854C74.167,37.854,75.708,36.313,75.708,34.413L75.708,10.324C75.708,8.423,74.167,6.883,72.266,6.883L48.178,6.883ZM48.178,6.883"/>
</g>
  <g id="Ultralight-S" transform="matrix(1.0,0.0,0.0,1.0,519.7049779834862,620.6312581311986)">  <path fill-rule="evenodd" fill-opacity="1" stroke-linecap="butt" stroke-width="1px" clip-rule="evenodd" stroke="none" stroke-linejoin="miter" fill="#000000" stroke-opacity="1" stroke-dasharray="none" stroke-miterlimit="4" d="M6.883,10.324C6.883,8.423,8.423,6.883,10.324,6.883L34.413,6.883C36.313,6.883,37.854,8.423,37.854,10.324L37.854,34.413C37.854,36.313,36.313,37.854,34.413,37.854L10.324,37.854C8.423,37.854,6.883,36.313,6.883,34.413L6.883,10.324ZM13.765,13.765L30.971,13.765L30.971,30.971L13.765,30.971L13.765,13.765ZM6.883,48.178C6.883,46.277,8.423,44.736,10.324,44.736L34.413,44.736C36.313,44.736,37.854,46.277,37.854,48.178L37.854,72.266C37.854,74.167,36.313,75.708,34.413,75.708L10.324,75.708C8.423,75.708,6.883,74.167,6.883,72.266L6.883,48.178ZM13.765,51.619L30.971,51.619L30.971,68.825L13.765,68.825L13.765,51.619ZM48.178,44.736C46.277,44.736,44.736,46.277,44.736,48.178L44.736,72.266C44.736,74.167,46.277,75.708,48.178,75.708L72.266,75.708C74.167,75.708,75.708,74.167,75.708,72.266L75.708,48.178C75.708,46.277,74.167,44.736,72.266,44.736L48.178,44.736ZM68.825,51.619L51.619,51.619L51.619,68.825L68.825,68.825L68.825,51.619ZM48.178,6.883C46.277,6.883,44.736,8.423,44.736,10.324L44.736,34.413C44.736,36.313,46.277,37.854,48.178,37.854L72.266,37.854C74.167,37.854,75.708,36.313,75.708,34.413L75.708,10.324C75.708,8.423,74.167,6.883,72.266,6.883L48.178,6.883ZM48.178,6.883"/>
</g>
 </g>
</svg>
