<?xml version="1.0" encoding="UTF-8"?>
<!-- Generator: CustomSymbols v2.6.1.40 by @serious_bret https://bretlester.com/app_content/CustomSymbols/ -->
<!-- Guides: Left/Right 0.079/0.081 Cap/Base 0.195/0.131 -->
<!-- Settings: RefScale 1.0 Min/Max Stroke Scales 0.5/2.21 -->
<!DOCTYPE svg
PUBLIC "-//W3C//DTD SVG 1.1//EN"
       "http://www.w3.org/Graphics/SVG/1.1/DTD/svg11.dtd">
<svg version="1.1" xmlns="http://www.w3.org/2000/svg" xmlns:xlink="http://www.w3.org/1999/xlink" width="3300" height="2200">
<![CDATA[<svg width="24" height="24" viewBox="0 0 24 24" fill="none" xmlns="http://www.w3.org/2000/svg">
<path fill-rule="evenodd" clip-rule="evenodd" d="M10 17.9844H11.016V15.9924H10V17.9844ZM4 17.9844H6.012V15.9924H4V17.9844ZM4 7.98443H6V5.98443H4V7.98443ZM10 7.98443H11.016V5.98443H10V7.98443ZM7 7.98443H9.004V5.98443H7V7.98443ZM4 14.9804H11.016V8.97343H4V14.9804ZM7 17.9844H9V15.9924H7V17.9844ZM12.016 2.00043C11.466 2.00043 11.016 2.45043 11.016 3.00043V3.98443H2V19.9964H11.016V21.9844C11.016 22.5344 11.466 22.9844 12.016 22.9844C12.565 22.9844 13.016 22.5344 13.016 21.9844V3.00043C13.016 2.45043 12.565 2.00043 12.016 2.00043Z" fill="black"/>
<path fill-rule="evenodd" clip-rule="evenodd" d="M17.987 8.98838H19.999V6.99638H17.987V8.98838ZM17.999 18.9964H19.999V16.9884H17.999V18.9964ZM14.999 4.98438V6.99638H16.999V8.98838H14.999V9.98438H19.999V16.0074H14.999V16.9884H16.999V18.9964H14.999V20.9964H21.999V4.98438H14.999Z" fill="black"/>
</svg>
]]>
 <g id="Notes">
  <rect height="2200" id="artboard" style="fill:white;opacity:1" width="3300" x="0" y="0"/>
  <line id="" style="fill:none;stroke:black;opacity:1;stroke-width:0.5;" x1="263" x2="3036" y1="292" y2="292"/>
  <text id="reftext1" style="stroke:none;fill:black;font-family:-apple-system,&quot;SF Pro Display&quot;,&quot;SF Pro Text&quot;,Helvetica,sans-serif;font-weight:bold;" transform="matrix(1 0 0 1 263 322)">Weight/Scale Variations</text>
  <text id="reftext2" style="stroke:none;fill:black;font-family:-apple-system,&quot;SF Pro Display&quot;,&quot;SF Pro Text&quot;,Helvetica,sans-serif;text-anchor:middle;" transform="matrix(1 0 0 1 559.711 322)">Ultralight</text>
  <text style="stroke:none;fill:black;font-family:-apple-system,&quot;SF Pro Display&quot;,&quot;SF Pro Text&quot;,Helvetica,sans-serif;text-anchor:middle;" transform="matrix(1 0 0 1 856.422 322)">Thin</text>
  <text style="stroke:none;fill:black;font-family:-apple-system,&quot;SF Pro Display&quot;,&quot;SF Pro Text&quot;,Helvetica,sans-serif;text-anchor:middle;" transform="matrix(1 0 0 1 1153.13 322)">Light</text>
  <text style="stroke:none;fill:black;font-family:-apple-system,&quot;SF Pro Display&quot;,&quot;SF Pro Text&quot;,Helvetica,sans-serif;text-anchor:middle;" transform="matrix(1 0 0 1 1449.84 322)">Regular</text>
  <text style="stroke:none;fill:black;font-family:-apple-system,&quot;SF Pro Display&quot;,&quot;SF Pro Text&quot;,Helvetica,sans-serif;text-anchor:middle;" transform="matrix(1 0 0 1 1746.56 322)">Medium</text>
  <text style="stroke:none;fill:black;font-family:-apple-system,&quot;SF Pro Display&quot;,&quot;SF Pro Text&quot;,Helvetica,sans-serif;text-anchor:middle;" transform="matrix(1 0 0 1 2043.27 322)">Semibold</text>
  <text style="stroke:none;fill:black;font-family:-apple-system,&quot;SF Pro Display&quot;,&quot;SF Pro Text&quot;,Helvetica,sans-serif;text-anchor:middle;" transform="matrix(1 0 0 1 2339.98 322)">Bold</text>
  <text style="stroke:none;fill:black;font-family:-apple-system,&quot;SF Pro Display&quot;,&quot;SF Pro Text&quot;,Helvetica,sans-serif;text-anchor:middle;" transform="matrix(1 0 0 1 2636.69 322)">Heavy</text>
  <text style="stroke:none;fill:black;font-family:-apple-system,&quot;SF Pro Display&quot;,&quot;SF Pro Text&quot;,Helvetica,sans-serif;text-anchor:middle;" transform="matrix(1 0 0 1 2933.4 322)">Black</text>
  <line id="" style="fill:none;stroke:black;opacity:1;stroke-width:0.5;" x1="263" x2="3036" y1="1903" y2="1903"/>
  <g id="" transform="matrix(1 0 0 1 263 1933)">
   <path d="M9.24805 0.830078C13.5547 0.830078 17.1387-2.74414 17.1387-7.05078C17.1387-11.3574 13.5449-14.9316 9.23828-14.9316C4.94141-14.9316 1.36719-11.3574 1.36719-7.05078C1.36719-2.74414 4.95117 0.830078 9.24805 0.830078ZM9.24805-0.654297C5.70312-0.654297 2.87109-3.49609 2.87109-7.05078C2.87109-10.6055 5.69336-13.4473 9.23828-13.4473C12.793-13.4473 15.6348-10.6055 15.6445-7.05078C15.6543-3.49609 12.8027-0.654297 9.24805-0.654297ZM6.39648-6.31836L8.50586-6.31836L8.50586-4.19922C8.50586-3.75977 8.79883-3.45703 9.22852-3.45703C9.67773-3.45703 9.9707-3.75977 9.9707-4.19922L9.9707-6.31836L12.0996-6.31836C12.5391-6.31836 12.8418-6.61133 12.8418-7.04102C12.8418-7.48047 12.5391-7.7832 12.0996-7.7832L9.9707-7.7832L9.9707-9.89258C9.9707-10.3418 9.67773-10.6445 9.22852-10.6445C8.79883-10.6445 8.50586-10.3418 8.50586-9.89258L8.50586-7.7832L6.39648-7.7832C5.94727-7.7832 5.64453-7.48047 5.64453-7.04102C5.64453-6.61133 5.94727-6.31836 6.39648-6.31836Z"/>
  </g>
  <g id="" transform="matrix(1 0 0 1 281.506 1933)">
   <path d="M11.709 2.91016C17.1582 2.91016 21.6699-1.61133 21.6699-7.05078C21.6699-12.5 17.1484-17.0117 11.6992-17.0117C6.25977-17.0117 1.74805-12.5 1.74805-7.05078C1.74805-1.61133 6.26953 2.91016 11.709 2.91016ZM11.709 1.25C7.09961 1.25 3.41797-2.44141 3.41797-7.05078C3.41797-11.6602 7.08984-15.3516 11.6992-15.3516C16.3086-15.3516 20-11.6602 20.0098-7.05078C20.0195-2.44141 16.3184 1.25 11.709 1.25ZM7.98828-6.23047L10.8789-6.23047L10.8789-3.32031C10.8789-2.83203 11.2109-2.5 11.6895-2.5C12.1777-2.5 12.5195-2.83203 12.5195-3.32031L12.5195-6.23047L15.4297-6.23047C15.918-6.23047 16.25-6.5625 16.25-7.04102C16.25-7.5293 15.918-7.87109 15.4297-7.87109L12.5195-7.87109L12.5195-10.7617C12.5195-11.2695 12.1777-11.6016 11.6895-11.6016C11.2109-11.6016 10.8789-11.2598 10.8789-10.7617L10.8789-7.87109L7.98828-7.87109C7.48047-7.87109 7.14844-7.5293 7.14844-7.04102C7.14844-6.5625 7.49023-6.23047 7.98828-6.23047Z"/>
  </g>
  <g id="" transform="matrix(1 0 0 1 304.924 1933)">
   <path d="M14.9707 5.66406C21.9336 5.66406 27.6953-0.0976562 27.6953-7.05078C27.6953-14.0137 21.9238-19.7754 14.9609-19.7754C8.00781-19.7754 2.25586-14.0137 2.25586-7.05078C2.25586-0.0976562 8.01758 5.66406 14.9707 5.66406ZM14.9707 3.84766C8.93555 3.84766 4.08203-1.01562 4.08203-7.05078C4.08203-13.0957 8.92578-17.9492 14.9609-17.9492C21.0059-17.9492 25.8594-13.0957 25.8691-7.05078C25.8789-1.01562 21.0156 3.84766 14.9707 3.84766ZM10.0586-6.14258L14.0625-6.14258L14.0625-2.12891C14.0625-1.5918 14.4336-1.2207 14.9512-1.2207C15.4883-1.2207 15.8594-1.5918 15.8594-2.12891L15.8594-6.14258L19.8828-6.14258C20.4102-6.14258 20.791-6.51367 20.791-7.03125C20.791-7.56836 20.4199-7.94922 19.8828-7.94922L15.8594-7.94922L15.8594-11.9531C15.8594-12.5098 15.4883-12.8809 14.9512-12.8809C14.4336-12.8809 14.0625-12.5 14.0625-11.9531L14.0625-7.94922L10.0586-7.94922C9.50195-7.94922 9.13086-7.56836 9.13086-7.03125C9.13086-6.51367 9.51172-6.14258 10.0586-6.14258Z"/>
  </g>
  <text style="stroke:none;fill:black;font-family:-apple-system,&quot;SF Pro Display&quot;,&quot;SF Pro Text&quot;,Helvetica,sans-serif;font-weight:bold;" transform="matrix(1 0 0 1 263 1953)">Design Variations</text>
  <text style="stroke:none;fill:black;font-family:-apple-system,&quot;SF Pro Display&quot;,&quot;SF Pro Text&quot;,Helvetica,sans-serif;" transform="matrix(1 0 0 1 263 1971)">Symbols are supported in up to nine weights and three scales.</text>
  <text style="stroke:none;fill:black;font-family:-apple-system,&quot;SF Pro Display&quot;,&quot;SF Pro Text&quot;,Helvetica,sans-serif;" transform="matrix(1 0 0 1 263 1989)">For optimal layout with text and other symbols, vertically align</text>
  <text style="stroke:none;fill:black;font-family:-apple-system,&quot;SF Pro Display&quot;,&quot;SF Pro Text&quot;,Helvetica,sans-serif;" transform="matrix(1 0 0 1 263 2007)">symbols with the adjacent text.</text>
  <line id="" style="fill:none;stroke:#00AEEF;stroke-width:0.5;opacity:1.0;" x1="776" x2="776" y1="1919" y2="1933"/>
  <g id="" transform="matrix(1 0 0 1 776 1933)">
   <path d="M3.31055 0.126953C3.82812 0.126953 4.08203-0.0683594 4.26758-0.605469L5.52734-4.0625L11.2891-4.0625L12.5488-0.605469C12.7344-0.0683594 12.9883 0.126953 13.4961 0.126953C14.0137 0.126953 14.3457-0.185547 14.3457-0.673828C14.3457-0.839844 14.3164-0.986328 14.2383-1.20117L9.6582-13.3887C9.43359-13.9941 9.0332-14.2871 8.4082-14.2871C7.80273-14.2871 7.39258-13.9941 7.17773-13.3984L2.59766-1.19141C2.51953-0.976562 2.49023-0.830078 2.49023-0.664062C2.49023-0.175781 2.80273 0.126953 3.31055 0.126953ZM6.00586-5.53711L8.37891-12.1094L8.42773-12.1094L10.8008-5.53711Z"/>
  </g>
  <line id="" style="fill:none;stroke:#00AEEF;stroke-width:0.5;opacity:1.0;" x1="792.836" x2="792.836" y1="1919" y2="1933"/>
  <text style="stroke:none;fill:black;font-family:-apple-system,&quot;SF Pro Display&quot;,&quot;SF Pro Text&quot;,Helvetica,sans-serif;font-weight:bold;" transform="matrix(1 0 0 1 776 1953)">Margins</text>
  <text style="stroke:none;fill:black;font-family:-apple-system,&quot;SF Pro Display&quot;,&quot;SF Pro Text&quot;,Helvetica,sans-serif;" transform="matrix(1 0 0 1 776 1971)">Leading and trailing margins on the left and right side of each symbol</text>
  <text style="stroke:none;fill:black;font-family:-apple-system,&quot;SF Pro Display&quot;,&quot;SF Pro Text&quot;,Helvetica,sans-serif;" transform="matrix(1 0 0 1 776 1989)">can be adjusted by modifying the x-location of the margin guidelines.</text>
  <text style="stroke:none;fill:black;font-family:-apple-system,&quot;SF Pro Display&quot;,&quot;SF Pro Text&quot;,Helvetica,sans-serif;" transform="matrix(1 0 0 1 776 2007)">Modifications are automatically applied proportionally to all</text>
  <text style="stroke:none;fill:black;font-family:-apple-system,&quot;SF Pro Display&quot;,&quot;SF Pro Text&quot;,Helvetica,sans-serif;" transform="matrix(1 0 0 1 776 2025)">scales and weights.</text>
  <g id="" transform="matrix(1 0 0 1 1289 1933)">
   <path d="M2.8418 1.86523L4.54102 3.57422C5.40039 4.44336 6.38672 4.38477 7.31445 3.35938L17.4902-7.85156C17.7539-7.76367 18.0273-7.7832 18.3398-7.8418L19.4043-8.03711L20.0684-7.36328L20.0293-6.80664C19.9902-6.30859 20.1172-5.92773 20.6055-5.44922L21.3672-4.70703C21.8457-4.22852 22.4609-4.19922 22.9297-4.66797L25.8398-7.58789C26.3086-8.05664 26.2891-8.65234 25.8105-9.13086L25.0391-9.89258C24.5605-10.3711 24.1895-10.5273 23.7109-10.4883L23.1348-10.4395L22.4902-11.0742L22.7344-12.1973C22.8613-12.7637 22.7051-13.2031 22.1191-13.7891L19.9219-15.9766C16.582-19.2969 12.1484-19.2188 9.25781-16.3281C8.83789-15.918 8.80859-15.3418 9.04297-14.9512C9.27734-14.5898 9.73633-14.3555 10.3809-14.5215C11.8457-14.8633 13.3691-14.9219 14.7949-13.9844L14.209-12.5293C14.0137-12.0508 13.9844-11.6504 14.1113-11.2891L3.04688-0.898438C2.06055 0.0195312 1.98242 0.996094 2.8418 1.86523ZM10.752-15.957C13.1836-17.7344 16.4746-17.4316 18.7012-15.2051L21.1328-12.793C21.3672-12.5586 21.4062-12.373 21.3379-12.0312L21.0156-10.5469L22.5195-9.0625L23.5059-9.12109C23.7598-9.13086 23.8379-9.11133 24.0332-8.91602L24.6094-8.33984L22.168-5.89844L21.5918-6.47461C21.3965-6.66992 21.3672-6.74805 21.377-7.01172L21.4453-7.98828L19.9512-9.47266L18.4277-9.21875C18.1055-9.15039 17.959-9.17969 17.7148-9.41406L15.7129-11.416C15.459-11.6504 15.4297-11.8164 15.5859-12.1875L16.4648-14.2773C14.9023-15.7324 12.8711-16.3574 10.8398-15.7617C10.6836-15.7227 10.625-15.8496 10.752-15.957ZM5.27344 2.30469L4.10156 1.14258C3.63281 0.683594 3.74023 0.341797 4.14062-0.0195312L14.9512-10.1953L16.416-8.71094L6.42578 2.27539C6.07422 2.67578 5.74219 2.77344 5.27344 2.30469Z"/>
  </g>
  <text style="stroke:none;fill:black;font-family:-apple-system,&quot;SF Pro Display&quot;,&quot;SF Pro Text&quot;,Helvetica,sans-serif;font-weight:bold;" transform="matrix(1 0 0 1 1289 1953)">Exporting</text>
  <text style="stroke:none;fill:black;font-family:-apple-system,&quot;SF Pro Display&quot;,&quot;SF Pro Text&quot;,Helvetica,sans-serif;" transform="matrix(1 0 0 1 1289 1971)">Symbols should be outlined when exporting to ensure the</text>
  <text style="stroke:none;fill:black;font-family:-apple-system,&quot;SF Pro Display&quot;,&quot;SF Pro Text&quot;,Helvetica,sans-serif;" transform="matrix(1 0 0 1 1289 1989)">design is preserved when submitting to Xcode.</text>
  <text id="template-version" style="stroke:none;fill:black;font-family:-apple-system,&quot;SF Pro Display&quot;,&quot;SF Pro Text&quot;,Helvetica,sans-serif;text-anchor:end;" transform="matrix(1 0 0 1 3036 1933)">Template v.2.0</text>
  <text style="stroke:none;fill:black;font-family:-apple-system,&quot;SF Pro Display&quot;,&quot;SF Pro Text&quot;,Helvetica,sans-serif;text-anchor:end;" transform="matrix(1 0 0 1 3036 1951)">Requires Xcode 12 or greater</text>
  <text style="stroke:none;fill:black;font-family:-apple-system,&quot;SF Pro Display&quot;,&quot;SF Pro Text&quot;,Helvetica,sans-serif;" transform="matrix(1 0 0 1 263 726)">Small</text>
  <text style="stroke:none;fill:black;font-family:-apple-system,&quot;SF Pro Display&quot;,&quot;SF Pro Text&quot;,Helvetica,sans-serif;" transform="matrix(1 0 0 1 263 1156)">Medium</text>
  <text style="stroke:none;fill:black;font-family:-apple-system,&quot;SF Pro Display&quot;,&quot;SF Pro Text&quot;,Helvetica,sans-serif;" transform="matrix(1 0 0 1 263 1586)">Large</text>
 </g>
 <g id="Guides">
  <g id="H-reference" style="fill:#27AAE1;stroke:none;" transform="matrix(1 0 0 1 339 696)">
   <path d="M0.976562 0L3.66211 0L12.9883-24.4629L45.752-24.4629L55.127 0L57.7637 0L30.6152-70.459L28.125-70.459ZM29.3457-67.1387L29.4434-67.1387L44.873-26.709L13.8672-26.709Z"/>
  </g>
  <line id="Baseline-S" style="fill:none;stroke:#27AAE1;opacity:1;stroke-width:0.5;" x1="263" x2="3036" y1="696" y2="696"/>
  <line id="Capline-S" style="fill:none;stroke:#27AAE1;opacity:1;stroke-width:0.5;" x1="263" x2="3036" y1="625.541" y2="625.541"/>
  <g id="H-reference" style="fill:#27AAE1;stroke:none;" transform="matrix(1 0 0 1 339 1126)">
   <path d="M0.976562 0L3.66211 0L12.9883-24.4629L45.752-24.4629L55.127 0L57.7637 0L30.6152-70.459L28.125-70.459ZM29.3457-67.1387L29.4434-67.1387L44.873-26.709L13.8672-26.709Z"/>
  </g>
  <line id="Baseline-M" style="fill:none;stroke:#27AAE1;opacity:1;stroke-width:0.5;" x1="263" x2="3036" y1="1126" y2="1126"/>
  <line id="Capline-M" style="fill:none;stroke:#27AAE1;opacity:1;stroke-width:0.5;" x1="263" x2="3036" y1="1055.54" y2="1055.54"/>
  <g id="H-reference" style="fill:#27AAE1;stroke:none;" transform="matrix(1 0 0 1 339 1556)">
   <path d="M0.976562 0L3.66211 0L12.9883-24.4629L45.752-24.4629L55.127 0L57.7637 0L30.6152-70.459L28.125-70.459ZM29.3457-67.1387L29.4434-67.1387L44.873-26.709L13.8672-26.709Z"/>
  </g>
  <line id="Baseline-L" style="fill:none;stroke:#27AAE1;opacity:1;stroke-width:0.5;" x1="263" x2="3036" y1="1556" y2="1556"/>
  <line id="Capline-L" style="fill:none;stroke:#27AAE1;opacity:1;stroke-width:0.5;" x1="263" x2="3036" y1="1485.54" y2="1485.54"/>
  <line id="left-margin" x1="1407.11865941441" x2="1407.11865941441" y1="1030.79" y2="1150.12" style="fill:none;stroke:#00AEEF;stroke-width:0.5;opacity:1.0;"/>
  <line id="right-margin" x1="1494.9322605828079" x2="1494.9322605828079" y1="1030.79" y2="1150.12" style="fill:none;stroke:#00AEEF;stroke-width:0.5;opacity:1.0;"/>
 </g>
 <g id="Symbols">
  <g id="Black-L" transform="matrix(1.0,0.0,0.0,1.0,2867.2516991028374,1449.0263073766691)">  <path stroke-width="1px" stroke-dasharray="none" stroke="none" fill="#000000" clip-rule="evenodd" fill-opacity="1" fill-rule="evenodd" stroke-linecap="butt" stroke-miterlimit="4" stroke-opacity="1" stroke-linejoin="miter" d="M56.19,101.055L61.899,101.055L61.899,89.862L56.19,89.862L56.19,101.055ZM22.476,101.055L33.782,101.055L33.782,89.862L22.476,89.862L22.476,101.055ZM22.476,44.865L33.714,44.865L33.714,33.627L22.476,33.627L22.476,44.865ZM56.19,44.865L61.899,44.865L61.899,33.627L56.19,33.627L56.19,44.865ZM39.333,44.865L50.594,44.865L50.594,33.627L39.333,33.627L39.333,44.865ZM22.476,84.175L61.899,84.175L61.899,50.422L22.476,50.422L22.476,84.175ZM39.333,101.055L50.571,101.055L50.571,89.862L39.333,89.862L39.333,101.055ZM67.518,11.24C64.428,11.24,61.899,13.769,61.899,16.859L61.899,22.389L11.238,22.389L11.238,112.36L61.899,112.36L61.899,123.531C61.899,126.621,64.428,129.15,67.518,129.15C70.603,129.15,73.137,126.621,73.137,123.531L73.137,16.859C73.137,13.769,70.603,11.24,67.518,11.24ZM67.518,11.24"/>
  <path stroke="none" fill="#000000" stroke-linejoin="miter" stroke-dasharray="none" stroke-linecap="butt" clip-rule="evenodd" fill-rule="evenodd" stroke-miterlimit="4" fill-opacity="1" stroke-width="1px" stroke-opacity="1" d="M101.069,50.506L112.375,50.506L112.375,39.313L101.069,39.313L101.069,50.506ZM101.137,106.741L112.375,106.741L112.375,95.458L101.137,95.458L101.137,106.741ZM84.28,28.007L84.28,39.313L95.518,39.313L95.518,50.506L84.28,50.506L84.28,56.102L112.375,56.102L112.375,89.946L84.28,89.946L84.28,95.458L95.518,95.458L95.518,106.741L84.28,106.741L84.28,117.979L123.613,117.979L123.613,28.007L84.28,28.007ZM84.28,28.007"/>
</g>
  <g id="Heavy-L" transform="matrix(1.0,0.0,0.0,1.0,2570.5416991028374,1449.0263073766691)">  <path stroke-linejoin="miter" stroke-width="1px" stroke-linecap="butt" stroke-opacity="1" stroke-miterlimit="4" stroke="none" fill-opacity="1" fill="#000000" fill-rule="evenodd" stroke-dasharray="none" clip-rule="evenodd" d="M56.19,101.055L61.899,101.055L61.899,89.862L56.19,89.862L56.19,101.055ZM22.476,101.055L33.782,101.055L33.782,89.862L22.476,89.862L22.476,101.055ZM22.476,44.865L33.714,44.865L33.714,33.627L22.476,33.627L22.476,44.865ZM56.19,44.865L61.899,44.865L61.899,33.627L56.19,33.627L56.19,44.865ZM39.333,44.865L50.594,44.865L50.594,33.627L39.333,33.627L39.333,44.865ZM22.476,84.175L61.899,84.175L61.899,50.422L22.476,50.422L22.476,84.175ZM39.333,101.055L50.571,101.055L50.571,89.862L39.333,89.862L39.333,101.055ZM67.518,11.24C64.428,11.24,61.899,13.769,61.899,16.859L61.899,22.389L11.238,22.389L11.238,112.36L61.899,112.36L61.899,123.531C61.899,126.621,64.428,129.15,67.518,129.15C70.603,129.15,73.137,126.621,73.137,123.531L73.137,16.859C73.137,13.769,70.603,11.24,67.518,11.24ZM67.518,11.24"/>
  <path stroke-linejoin="miter" stroke-width="1px" stroke-miterlimit="4" clip-rule="evenodd" stroke-linecap="butt" fill-opacity="1" stroke-dasharray="none" stroke="none" fill="#000000" fill-rule="evenodd" stroke-opacity="1" d="M101.069,50.506L112.375,50.506L112.375,39.313L101.069,39.313L101.069,50.506ZM101.137,106.741L112.375,106.741L112.375,95.458L101.137,95.458L101.137,106.741ZM84.28,28.007L84.28,39.313L95.518,39.313L95.518,50.506L84.28,50.506L84.28,56.102L112.375,56.102L112.375,89.946L84.28,89.946L84.28,95.458L95.518,95.458L95.518,106.741L84.28,106.741L84.28,117.979L123.613,117.979L123.613,28.007L84.28,28.007ZM84.28,28.007"/>
</g>
  <g id="Bold-L" transform="matrix(1.0,0.0,0.0,1.0,2273.8316991028373,1449.0263073766691)">  <path fill="#000000" stroke="none" stroke-linecap="butt" fill-rule="evenodd" stroke-linejoin="miter" clip-rule="evenodd" fill-opacity="1" stroke-dasharray="none" stroke-miterlimit="4" stroke-width="1px" stroke-opacity="1" d="M56.19,101.055L61.899,101.055L61.899,89.862L56.19,89.862L56.19,101.055ZM22.476,101.055L33.782,101.055L33.782,89.862L22.476,89.862L22.476,101.055ZM22.476,44.865L33.714,44.865L33.714,33.627L22.476,33.627L22.476,44.865ZM56.19,44.865L61.899,44.865L61.899,33.627L56.19,33.627L56.19,44.865ZM39.333,44.865L50.594,44.865L50.594,33.627L39.333,33.627L39.333,44.865ZM22.476,84.175L61.899,84.175L61.899,50.422L22.476,50.422L22.476,84.175ZM39.333,101.055L50.571,101.055L50.571,89.862L39.333,89.862L39.333,101.055ZM67.518,11.24C64.428,11.24,61.899,13.769,61.899,16.859L61.899,22.389L11.238,22.389L11.238,112.36L61.899,112.36L61.899,123.531C61.899,126.621,64.428,129.15,67.518,129.15C70.603,129.15,73.137,126.621,73.137,123.531L73.137,16.859C73.137,13.769,70.603,11.24,67.518,11.24ZM67.518,11.24"/>
  <path stroke-miterlimit="4" clip-rule="evenodd" stroke-width="1px" stroke="none" stroke-linejoin="miter" fill-rule="evenodd" fill-opacity="1" stroke-dasharray="none" stroke-linecap="butt" fill="#000000" stroke-opacity="1" d="M101.069,50.506L112.375,50.506L112.375,39.313L101.069,39.313L101.069,50.506ZM101.137,106.741L112.375,106.741L112.375,95.458L101.137,95.458L101.137,106.741ZM84.28,28.007L84.28,39.313L95.518,39.313L95.518,50.506L84.28,50.506L84.28,56.102L112.375,56.102L112.375,89.946L84.28,89.946L84.28,95.458L95.518,95.458L95.518,106.741L84.28,106.741L84.28,117.979L123.613,117.979L123.613,28.007L84.28,28.007ZM84.28,28.007"/>
</g>
  <g id="Semibold-L" transform="matrix(1.0,0.0,0.0,1.0,1977.1216991028375,1449.0263073766691)">  <path stroke-linejoin="miter" stroke-dasharray="none" stroke-opacity="1" stroke-linecap="butt" clip-rule="evenodd" fill="#000000" fill-opacity="1" stroke-width="1px" fill-rule="evenodd" stroke-miterlimit="4" stroke="none" d="M56.19,101.055L61.899,101.055L61.899,89.862L56.19,89.862L56.19,101.055ZM22.476,101.055L33.782,101.055L33.782,89.862L22.476,89.862L22.476,101.055ZM22.476,44.865L33.714,44.865L33.714,33.627L22.476,33.627L22.476,44.865ZM56.19,44.865L61.899,44.865L61.899,33.627L56.19,33.627L56.19,44.865ZM39.333,44.865L50.594,44.865L50.594,33.627L39.333,33.627L39.333,44.865ZM22.476,84.175L61.899,84.175L61.899,50.422L22.476,50.422L22.476,84.175ZM39.333,101.055L50.571,101.055L50.571,89.862L39.333,89.862L39.333,101.055ZM67.518,11.24C64.428,11.24,61.899,13.769,61.899,16.859L61.899,22.389L11.238,22.389L11.238,112.36L61.899,112.36L61.899,123.531C61.899,126.621,64.428,129.15,67.518,129.15C70.603,129.15,73.137,126.621,73.137,123.531L73.137,16.859C73.137,13.769,70.603,11.24,67.518,11.24ZM67.518,11.24"/>
  <path stroke-dasharray="none" stroke-opacity="1" stroke-linecap="butt" fill-rule="evenodd" clip-rule="evenodd" fill-opacity="1" stroke="none" stroke-width="1px" stroke-linejoin="miter" stroke-miterlimit="4" fill="#000000" d="M101.069,50.506L112.375,50.506L112.375,39.313L101.069,39.313L101.069,50.506ZM101.137,106.741L112.375,106.741L112.375,95.458L101.137,95.458L101.137,106.741ZM84.28,28.007L84.28,39.313L95.518,39.313L95.518,50.506L84.28,50.506L84.28,56.102L112.375,56.102L112.375,89.946L84.28,89.946L84.28,95.458L95.518,95.458L95.518,106.741L84.28,106.741L84.28,117.979L123.613,117.979L123.613,28.007L84.28,28.007ZM84.28,28.007"/>
</g>
  <g id="Medium-L" transform="matrix(1.0,0.0,0.0,1.0,1680.4116991028375,1449.0263073766691)">  <path stroke="none" fill-rule="evenodd" fill="#000000" stroke-width="1px" stroke-dasharray="none" stroke-linejoin="miter" clip-rule="evenodd" stroke-opacity="1" stroke-miterlimit="4" fill-opacity="1" stroke-linecap="butt" d="M56.19,101.055L61.899,101.055L61.899,89.862L56.19,89.862L56.19,101.055ZM22.476,101.055L33.782,101.055L33.782,89.862L22.476,89.862L22.476,101.055ZM22.476,44.865L33.714,44.865L33.714,33.627L22.476,33.627L22.476,44.865ZM56.19,44.865L61.899,44.865L61.899,33.627L56.19,33.627L56.19,44.865ZM39.333,44.865L50.594,44.865L50.594,33.627L39.333,33.627L39.333,44.865ZM22.476,84.175L61.899,84.175L61.899,50.422L22.476,50.422L22.476,84.175ZM39.333,101.055L50.571,101.055L50.571,89.862L39.333,89.862L39.333,101.055ZM67.518,11.24C64.428,11.24,61.899,13.769,61.899,16.859L61.899,22.389L11.238,22.389L11.238,112.36L61.899,112.36L61.899,123.531C61.899,126.621,64.428,129.15,67.518,129.15C70.603,129.15,73.137,126.621,73.137,123.531L73.137,16.859C73.137,13.769,70.603,11.24,67.518,11.24ZM67.518,11.24"/>
  <path fill-rule="evenodd" stroke="none" fill="#000000" stroke-linecap="butt" fill-opacity="1" stroke-width="1px" clip-rule="evenodd" stroke-opacity="1" stroke-miterlimit="4" stroke-dasharray="none" stroke-linejoin="miter" d="M101.069,50.506L112.375,50.506L112.375,39.313L101.069,39.313L101.069,50.506ZM101.137,106.741L112.375,106.741L112.375,95.458L101.137,95.458L101.137,106.741ZM84.28,28.007L84.28,39.313L95.518,39.313L95.518,50.506L84.28,50.506L84.28,56.102L112.375,56.102L112.375,89.946L84.28,89.946L84.28,95.458L95.518,95.458L95.518,106.741L84.28,106.741L84.28,117.979L123.613,117.979L123.613,28.007L84.28,28.007ZM84.28,28.007"/>
</g>
  <g id="Regular-L" transform="matrix(1.0,0.0,0.0,1.0,1383.7016991028374,1449.0263073766691)">  <path stroke-dasharray="none" fill-rule="evenodd" stroke-miterlimit="4" stroke-linecap="butt" stroke-opacity="1" stroke-linejoin="miter" clip-rule="evenodd" stroke-width="1px" stroke="none" fill-opacity="1" fill="#000000" d="M56.19,101.055L61.899,101.055L61.899,89.862L56.19,89.862L56.19,101.055ZM22.476,101.055L33.782,101.055L33.782,89.862L22.476,89.862L22.476,101.055ZM22.476,44.865L33.714,44.865L33.714,33.627L22.476,33.627L22.476,44.865ZM56.19,44.865L61.899,44.865L61.899,33.627L56.19,33.627L56.19,44.865ZM39.333,44.865L50.594,44.865L50.594,33.627L39.333,33.627L39.333,44.865ZM22.476,84.175L61.899,84.175L61.899,50.422L22.476,50.422L22.476,84.175ZM39.333,101.055L50.571,101.055L50.571,89.862L39.333,89.862L39.333,101.055ZM67.518,11.24C64.428,11.24,61.899,13.769,61.899,16.859L61.899,22.389L11.238,22.389L11.238,112.36L61.899,112.36L61.899,123.531C61.899,126.621,64.428,129.15,67.518,129.15C70.603,129.15,73.137,126.621,73.137,123.531L73.137,16.859C73.137,13.769,70.603,11.24,67.518,11.24ZM67.518,11.24"/>
  <path stroke-dasharray="none" stroke-width="1px" stroke-miterlimit="4" stroke-opacity="1" stroke-linecap="butt" stroke-linejoin="miter" fill-rule="evenodd" stroke="none" fill="#000000" clip-rule="evenodd" fill-opacity="1" d="M101.069,50.506L112.375,50.506L112.375,39.313L101.069,39.313L101.069,50.506ZM101.137,106.741L112.375,106.741L112.375,95.458L101.137,95.458L101.137,106.741ZM84.28,28.007L84.28,39.313L95.518,39.313L95.518,50.506L84.28,50.506L84.28,56.102L112.375,56.102L112.375,89.946L84.28,89.946L84.28,95.458L95.518,95.458L95.518,106.741L84.28,106.741L84.28,117.979L123.613,117.979L123.613,28.007L84.28,28.007ZM84.28,28.007"/>
</g>
  <g id="Light-L" transform="matrix(1.0,0.0,0.0,1.0,1086.9916991028376,1449.0263073766691)">  <path stroke-opacity="1" stroke-dasharray="none" stroke-linejoin="miter" fill-rule="evenodd" clip-rule="evenodd" stroke-linecap="butt" fill-opacity="1" stroke-width="1px" stroke="none" stroke-miterlimit="4" fill="#000000" d="M56.19,101.055L61.899,101.055L61.899,89.862L56.19,89.862L56.19,101.055ZM22.476,101.055L33.782,101.055L33.782,89.862L22.476,89.862L22.476,101.055ZM22.476,44.865L33.714,44.865L33.714,33.627L22.476,33.627L22.476,44.865ZM56.19,44.865L61.899,44.865L61.899,33.627L56.19,33.627L56.19,44.865ZM39.333,44.865L50.594,44.865L50.594,33.627L39.333,33.627L39.333,44.865ZM22.476,84.175L61.899,84.175L61.899,50.422L22.476,50.422L22.476,84.175ZM39.333,101.055L50.571,101.055L50.571,89.862L39.333,89.862L39.333,101.055ZM67.518,11.24C64.428,11.24,61.899,13.769,61.899,16.859L61.899,22.389L11.238,22.389L11.238,112.36L61.899,112.36L61.899,123.531C61.899,126.621,64.428,129.15,67.518,129.15C70.603,129.15,73.137,126.621,73.137,123.531L73.137,16.859C73.137,13.769,70.603,11.24,67.518,11.24ZM67.518,11.24"/>
  <path fill-rule="evenodd" stroke-linecap="butt" stroke-opacity="1" stroke-linejoin="miter" stroke-miterlimit="4" stroke-dasharray="none" fill="#000000" fill-opacity="1" clip-rule="evenodd" stroke="none" stroke-width="1px" d="M101.069,50.506L112.375,50.506L112.375,39.313L101.069,39.313L101.069,50.506ZM101.137,106.741L112.375,106.741L112.375,95.458L101.137,95.458L101.137,106.741ZM84.28,28.007L84.28,39.313L95.518,39.313L95.518,50.506L84.28,50.506L84.28,56.102L112.375,56.102L112.375,89.946L84.28,89.946L84.28,95.458L95.518,95.458L95.518,106.741L84.28,106.741L84.28,117.979L123.613,117.979L123.613,28.007L84.28,28.007ZM84.28,28.007"/>
</g>
  <g id="Thin-L" transform="matrix(1.0,0.0,0.0,1.0,790.2816991028376,1449.0263073766691)">  <path stroke-width="1px" stroke-dasharray="none" stroke="none" stroke-opacity="1" stroke-linejoin="miter" fill-rule="evenodd" stroke-miterlimit="4" fill-opacity="1" stroke-linecap="butt" clip-rule="evenodd" fill="#000000" d="M56.19,101.055L61.899,101.055L61.899,89.862L56.19,89.862L56.19,101.055ZM22.476,101.055L33.782,101.055L33.782,89.862L22.476,89.862L22.476,101.055ZM22.476,44.865L33.714,44.865L33.714,33.627L22.476,33.627L22.476,44.865ZM56.19,44.865L61.899,44.865L61.899,33.627L56.19,33.627L56.19,44.865ZM39.333,44.865L50.594,44.865L50.594,33.627L39.333,33.627L39.333,44.865ZM22.476,84.175L61.899,84.175L61.899,50.422L22.476,50.422L22.476,84.175ZM39.333,101.055L50.571,101.055L50.571,89.862L39.333,89.862L39.333,101.055ZM67.518,11.24C64.428,11.24,61.899,13.769,61.899,16.859L61.899,22.389L11.238,22.389L11.238,112.36L61.899,112.36L61.899,123.531C61.899,126.621,64.428,129.15,67.518,129.15C70.603,129.15,73.137,126.621,73.137,123.531L73.137,16.859C73.137,13.769,70.603,11.24,67.518,11.24ZM67.518,11.24"/>
  <path stroke-linejoin="miter" fill-rule="evenodd" stroke-width="1px" fill-opacity="1" stroke-linecap="butt" stroke-miterlimit="4" stroke-opacity="1" stroke-dasharray="none" clip-rule="evenodd" stroke="none" fill="#000000" d="M101.069,50.506L112.375,50.506L112.375,39.313L101.069,39.313L101.069,50.506ZM101.137,106.741L112.375,106.741L112.375,95.458L101.137,95.458L101.137,106.741ZM84.28,28.007L84.28,39.313L95.518,39.313L95.518,50.506L84.28,50.506L84.28,56.102L112.375,56.102L112.375,89.946L84.28,89.946L84.28,95.458L95.518,95.458L95.518,106.741L84.28,106.741L84.28,117.979L123.613,117.979L123.613,28.007L84.28,28.007ZM84.28,28.007"/>
</g>
  <g id="Ultralight-L" transform="matrix(1.0,0.0,0.0,1.0,493.57169910283756,1449.0263073766691)">  <path fill-rule="evenodd" stroke-linejoin="miter" stroke-miterlimit="4" stroke-opacity="1" stroke="none" clip-rule="evenodd" stroke-linecap="butt" stroke-dasharray="none" stroke-width="1px" fill="#000000" fill-opacity="1" d="M56.19,101.055L61.899,101.055L61.899,89.862L56.19,89.862L56.19,101.055ZM22.476,101.055L33.782,101.055L33.782,89.862L22.476,89.862L22.476,101.055ZM22.476,44.865L33.714,44.865L33.714,33.627L22.476,33.627L22.476,44.865ZM56.19,44.865L61.899,44.865L61.899,33.627L56.19,33.627L56.19,44.865ZM39.333,44.865L50.594,44.865L50.594,33.627L39.333,33.627L39.333,44.865ZM22.476,84.175L61.899,84.175L61.899,50.422L22.476,50.422L22.476,84.175ZM39.333,101.055L50.571,101.055L50.571,89.862L39.333,89.862L39.333,101.055ZM67.518,11.24C64.428,11.24,61.899,13.769,61.899,16.859L61.899,22.389L11.238,22.389L11.238,112.36L61.899,112.36L61.899,123.531C61.899,126.621,64.428,129.15,67.518,129.15C70.603,129.15,73.137,126.621,73.137,123.531L73.137,16.859C73.137,13.769,70.603,11.24,67.518,11.24ZM67.518,11.24"/>
  <path stroke-miterlimit="4" stroke-width="1px" clip-rule="evenodd" stroke-opacity="1" fill="#000000" fill-rule="evenodd" stroke-linejoin="miter" stroke-dasharray="none" stroke="none" fill-opacity="1" stroke-linecap="butt" d="M101.069,50.506L112.375,50.506L112.375,39.313L101.069,39.313L101.069,50.506ZM101.137,106.741L112.375,106.741L112.375,95.458L101.137,95.458L101.137,106.741ZM84.28,28.007L84.28,39.313L95.518,39.313L95.518,50.506L84.28,50.506L84.28,56.102L112.375,56.102L112.375,89.946L84.28,89.946L84.28,95.458L95.518,95.458L95.518,106.741L84.28,106.741L84.28,117.979L123.613,117.979L123.613,28.007L84.28,28.007ZM84.28,28.007"/>
</g>
  <g id="Black-M" transform="matrix(1.0,0.0,0.0,1.0,2882.409999304525,1035.154738791265)">  <path stroke-width="1px" stroke-dasharray="none" stroke="none" fill="#000000" clip-rule="evenodd" fill-opacity="1" fill-rule="evenodd" stroke-linecap="butt" stroke-miterlimit="4" stroke-opacity="1" stroke-linejoin="miter" d="M43.558,78.337L47.984,78.337L47.984,69.66L43.558,69.66L43.558,78.337ZM17.423,78.337L26.187,78.337L26.187,69.66L17.423,69.66L17.423,78.337ZM17.423,34.779L26.135,34.779L26.135,26.067L17.423,26.067L17.423,34.779ZM43.558,34.779L47.984,34.779L47.984,26.067L43.558,26.067L43.558,34.779ZM30.491,34.779L39.22,34.779L39.22,26.067L30.491,26.067L30.491,34.779ZM17.423,65.252L47.984,65.252L47.984,39.087L17.423,39.087L17.423,65.252ZM30.491,78.337L39.203,78.337L39.203,69.66L30.491,69.66L30.491,78.337ZM52.34,8.714C49.944,8.714,47.984,10.674,47.984,13.069L47.984,17.356L8.712,17.356L8.712,87.101L47.984,87.101L47.984,95.76C47.984,98.156,49.944,100.116,52.34,100.116C54.731,100.116,56.696,98.156,56.696,95.76L56.696,13.069C56.696,10.674,54.731,8.714,52.34,8.714ZM52.34,8.714"/>
  <path stroke="none" fill="#000000" stroke-linejoin="miter" stroke-dasharray="none" stroke-linecap="butt" clip-rule="evenodd" fill-rule="evenodd" stroke-miterlimit="4" fill-opacity="1" stroke-width="1px" stroke-opacity="1" d="M78.348,39.152L87.112,39.152L87.112,30.475L78.348,30.475L78.348,39.152ZM78.401,82.745L87.112,82.745L87.112,73.999L78.401,73.999L78.401,82.745ZM65.333,21.711L65.333,30.475L74.045,30.475L74.045,39.152L65.333,39.152L65.333,43.49L87.112,43.49L87.112,69.726L65.333,69.726L65.333,73.999L74.045,73.999L74.045,82.745L65.333,82.745L65.333,91.457L95.824,91.457L95.824,21.711L65.333,21.711ZM65.333,21.711"/>
</g>
  <g id="Heavy-M" transform="matrix(1.0,0.0,0.0,1.0,2585.699999304525,1035.154738791265)">  <path stroke-linejoin="miter" stroke-width="1px" stroke-linecap="butt" stroke-opacity="1" stroke-miterlimit="4" stroke="none" fill-opacity="1" fill="#000000" fill-rule="evenodd" stroke-dasharray="none" clip-rule="evenodd" d="M43.558,78.337L47.984,78.337L47.984,69.66L43.558,69.66L43.558,78.337ZM17.423,78.337L26.187,78.337L26.187,69.66L17.423,69.66L17.423,78.337ZM17.423,34.779L26.135,34.779L26.135,26.067L17.423,26.067L17.423,34.779ZM43.558,34.779L47.984,34.779L47.984,26.067L43.558,26.067L43.558,34.779ZM30.491,34.779L39.22,34.779L39.22,26.067L30.491,26.067L30.491,34.779ZM17.423,65.252L47.984,65.252L47.984,39.087L17.423,39.087L17.423,65.252ZM30.491,78.337L39.203,78.337L39.203,69.66L30.491,69.66L30.491,78.337ZM52.34,8.714C49.944,8.714,47.984,10.674,47.984,13.069L47.984,17.356L8.712,17.356L8.712,87.101L47.984,87.101L47.984,95.76C47.984,98.156,49.944,100.116,52.34,100.116C54.731,100.116,56.696,98.156,56.696,95.76L56.696,13.069C56.696,10.674,54.731,8.714,52.34,8.714ZM52.34,8.714"/>
  <path stroke-linejoin="miter" stroke-width="1px" stroke-miterlimit="4" clip-rule="evenodd" stroke-linecap="butt" fill-opacity="1" stroke-dasharray="none" stroke="none" fill="#000000" fill-rule="evenodd" stroke-opacity="1" d="M78.348,39.152L87.112,39.152L87.112,30.475L78.348,30.475L78.348,39.152ZM78.401,82.745L87.112,82.745L87.112,73.999L78.401,73.999L78.401,82.745ZM65.333,21.711L65.333,30.475L74.045,30.475L74.045,39.152L65.333,39.152L65.333,43.49L87.112,43.49L87.112,69.726L65.333,69.726L65.333,73.999L74.045,73.999L74.045,82.745L65.333,82.745L65.333,91.457L95.824,91.457L95.824,21.711L65.333,21.711ZM65.333,21.711"/>
</g>
  <g id="Bold-M" transform="matrix(1.0,0.0,0.0,1.0,2288.989999304525,1035.154738791265)">  <path fill="#000000" stroke="none" stroke-linecap="butt" fill-rule="evenodd" stroke-linejoin="miter" clip-rule="evenodd" fill-opacity="1" stroke-dasharray="none" stroke-miterlimit="4" stroke-width="1px" stroke-opacity="1" d="M43.558,78.337L47.984,78.337L47.984,69.66L43.558,69.66L43.558,78.337ZM17.423,78.337L26.187,78.337L26.187,69.66L17.423,69.66L17.423,78.337ZM17.423,34.779L26.135,34.779L26.135,26.067L17.423,26.067L17.423,34.779ZM43.558,34.779L47.984,34.779L47.984,26.067L43.558,26.067L43.558,34.779ZM30.491,34.779L39.22,34.779L39.22,26.067L30.491,26.067L30.491,34.779ZM17.423,65.252L47.984,65.252L47.984,39.087L17.423,39.087L17.423,65.252ZM30.491,78.337L39.203,78.337L39.203,69.66L30.491,69.66L30.491,78.337ZM52.34,8.714C49.944,8.714,47.984,10.674,47.984,13.069L47.984,17.356L8.712,17.356L8.712,87.101L47.984,87.101L47.984,95.76C47.984,98.156,49.944,100.116,52.34,100.116C54.731,100.116,56.696,98.156,56.696,95.76L56.696,13.069C56.696,10.674,54.731,8.714,52.34,8.714ZM52.34,8.714"/>
  <path stroke-miterlimit="4" clip-rule="evenodd" stroke-width="1px" stroke="none" stroke-linejoin="miter" fill-rule="evenodd" fill-opacity="1" stroke-dasharray="none" stroke-linecap="butt" fill="#000000" stroke-opacity="1" d="M78.348,39.152L87.112,39.152L87.112,30.475L78.348,30.475L78.348,39.152ZM78.401,82.745L87.112,82.745L87.112,73.999L78.401,73.999L78.401,82.745ZM65.333,21.711L65.333,30.475L74.045,30.475L74.045,39.152L65.333,39.152L65.333,43.49L87.112,43.49L87.112,69.726L65.333,69.726L65.333,73.999L74.045,73.999L74.045,82.745L65.333,82.745L65.333,91.457L95.824,91.457L95.824,21.711L65.333,21.711ZM65.333,21.711"/>
</g>
  <g id="Semibold-M" transform="matrix(1.0,0.0,0.0,1.0,1992.279999304525,1035.154738791265)">  <path stroke-linejoin="miter" stroke-dasharray="none" stroke-opacity="1" stroke-linecap="butt" clip-rule="evenodd" fill="#000000" fill-opacity="1" stroke-width="1px" fill-rule="evenodd" stroke-miterlimit="4" stroke="none" d="M43.558,78.337L47.984,78.337L47.984,69.66L43.558,69.66L43.558,78.337ZM17.423,78.337L26.187,78.337L26.187,69.66L17.423,69.66L17.423,78.337ZM17.423,34.779L26.135,34.779L26.135,26.067L17.423,26.067L17.423,34.779ZM43.558,34.779L47.984,34.779L47.984,26.067L43.558,26.067L43.558,34.779ZM30.491,34.779L39.22,34.779L39.22,26.067L30.491,26.067L30.491,34.779ZM17.423,65.252L47.984,65.252L47.984,39.087L17.423,39.087L17.423,65.252ZM30.491,78.337L39.203,78.337L39.203,69.66L30.491,69.66L30.491,78.337ZM52.34,8.714C49.944,8.714,47.984,10.674,47.984,13.069L47.984,17.356L8.712,17.356L8.712,87.101L47.984,87.101L47.984,95.76C47.984,98.156,49.944,100.116,52.34,100.116C54.731,100.116,56.696,98.156,56.696,95.76L56.696,13.069C56.696,10.674,54.731,8.714,52.34,8.714ZM52.34,8.714"/>
  <path stroke-dasharray="none" stroke-opacity="1" stroke-linecap="butt" fill-rule="evenodd" clip-rule="evenodd" fill-opacity="1" stroke="none" stroke-width="1px" stroke-linejoin="miter" stroke-miterlimit="4" fill="#000000" d="M78.348,39.152L87.112,39.152L87.112,30.475L78.348,30.475L78.348,39.152ZM78.401,82.745L87.112,82.745L87.112,73.999L78.401,73.999L78.401,82.745ZM65.333,21.711L65.333,30.475L74.045,30.475L74.045,39.152L65.333,39.152L65.333,43.49L87.112,43.49L87.112,69.726L65.333,69.726L65.333,73.999L74.045,73.999L74.045,82.745L65.333,82.745L65.333,91.457L95.824,91.457L95.824,21.711L65.333,21.711ZM65.333,21.711"/>
</g>
  <g id="Medium-M" transform="matrix(1.0,0.0,0.0,1.0,1695.569999304525,1035.154738791265)">  <path stroke="none" fill-rule="evenodd" fill="#000000" stroke-width="1px" stroke-dasharray="none" stroke-linejoin="miter" clip-rule="evenodd" stroke-opacity="1" stroke-miterlimit="4" fill-opacity="1" stroke-linecap="butt" d="M43.558,78.337L47.984,78.337L47.984,69.66L43.558,69.66L43.558,78.337ZM17.423,78.337L26.187,78.337L26.187,69.66L17.423,69.66L17.423,78.337ZM17.423,34.779L26.135,34.779L26.135,26.067L17.423,26.067L17.423,34.779ZM43.558,34.779L47.984,34.779L47.984,26.067L43.558,26.067L43.558,34.779ZM30.491,34.779L39.22,34.779L39.22,26.067L30.491,26.067L30.491,34.779ZM17.423,65.252L47.984,65.252L47.984,39.087L17.423,39.087L17.423,65.252ZM30.491,78.337L39.203,78.337L39.203,69.66L30.491,69.66L30.491,78.337ZM52.34,8.714C49.944,8.714,47.984,10.674,47.984,13.069L47.984,17.356L8.712,17.356L8.712,87.101L47.984,87.101L47.984,95.76C47.984,98.156,49.944,100.116,52.34,100.116C54.731,100.116,56.696,98.156,56.696,95.76L56.696,13.069C56.696,10.674,54.731,8.714,52.34,8.714ZM52.34,8.714"/>
  <path fill-rule="evenodd" stroke="none" fill="#000000" stroke-linecap="butt" fill-opacity="1" stroke-width="1px" clip-rule="evenodd" stroke-opacity="1" stroke-miterlimit="4" stroke-dasharray="none" stroke-linejoin="miter" d="M78.348,39.152L87.112,39.152L87.112,30.475L78.348,30.475L78.348,39.152ZM78.401,82.745L87.112,82.745L87.112,73.999L78.401,73.999L78.401,82.745ZM65.333,21.711L65.333,30.475L74.045,30.475L74.045,39.152L65.333,39.152L65.333,43.49L87.112,43.49L87.112,69.726L65.333,69.726L65.333,73.999L74.045,73.999L74.045,82.745L65.333,82.745L65.333,91.457L95.824,91.457L95.824,21.711L65.333,21.711ZM65.333,21.711"/>
</g>
  <g id="Regular-M" transform="matrix(1.0,0.0,0.0,1.0,1398.859999304525,1035.154738791265)">  <path stroke-dasharray="none" fill-rule="evenodd" stroke-miterlimit="4" stroke-linecap="butt" stroke-opacity="1" stroke-linejoin="miter" clip-rule="evenodd" stroke-width="1px" stroke="none" fill-opacity="1" fill="#000000" d="M43.558,78.337L47.984,78.337L47.984,69.66L43.558,69.66L43.558,78.337ZM17.423,78.337L26.187,78.337L26.187,69.66L17.423,69.66L17.423,78.337ZM17.423,34.779L26.135,34.779L26.135,26.067L17.423,26.067L17.423,34.779ZM43.558,34.779L47.984,34.779L47.984,26.067L43.558,26.067L43.558,34.779ZM30.491,34.779L39.22,34.779L39.22,26.067L30.491,26.067L30.491,34.779ZM17.423,65.252L47.984,65.252L47.984,39.087L17.423,39.087L17.423,65.252ZM30.491,78.337L39.203,78.337L39.203,69.66L30.491,69.66L30.491,78.337ZM52.34,8.714C49.944,8.714,47.984,10.674,47.984,13.069L47.984,17.356L8.712,17.356L8.712,87.101L47.984,87.101L47.984,95.76C47.984,98.156,49.944,100.116,52.34,100.116C54.731,100.116,56.696,98.156,56.696,95.76L56.696,13.069C56.696,10.674,54.731,8.714,52.34,8.714ZM52.34,8.714"/>
  <path stroke-dasharray="none" stroke-width="1px" stroke-miterlimit="4" stroke-opacity="1" stroke-linecap="butt" stroke-linejoin="miter" fill-rule="evenodd" stroke="none" fill="#000000" clip-rule="evenodd" fill-opacity="1" d="M78.348,39.152L87.112,39.152L87.112,30.475L78.348,30.475L78.348,39.152ZM78.401,82.745L87.112,82.745L87.112,73.999L78.401,73.999L78.401,82.745ZM65.333,21.711L65.333,30.475L74.045,30.475L74.045,39.152L65.333,39.152L65.333,43.49L87.112,43.49L87.112,69.726L65.333,69.726L65.333,73.999L74.045,73.999L74.045,82.745L65.333,82.745L65.333,91.457L95.824,91.457L95.824,21.711L65.333,21.711ZM65.333,21.711"/>
</g>
  <g id="Light-M" transform="matrix(1.0,0.0,0.0,1.0,1102.1499993045252,1035.154738791265)">  <path stroke-opacity="1" stroke-dasharray="none" stroke-linejoin="miter" fill-rule="evenodd" clip-rule="evenodd" stroke-linecap="butt" fill-opacity="1" stroke-width="1px" stroke="none" stroke-miterlimit="4" fill="#000000" d="M43.558,78.337L47.984,78.337L47.984,69.66L43.558,69.66L43.558,78.337ZM17.423,78.337L26.187,78.337L26.187,69.66L17.423,69.66L17.423,78.337ZM17.423,34.779L26.135,34.779L26.135,26.067L17.423,26.067L17.423,34.779ZM43.558,34.779L47.984,34.779L47.984,26.067L43.558,26.067L43.558,34.779ZM30.491,34.779L39.22,34.779L39.22,26.067L30.491,26.067L30.491,34.779ZM17.423,65.252L47.984,65.252L47.984,39.087L17.423,39.087L17.423,65.252ZM30.491,78.337L39.203,78.337L39.203,69.66L30.491,69.66L30.491,78.337ZM52.34,8.714C49.944,8.714,47.984,10.674,47.984,13.069L47.984,17.356L8.712,17.356L8.712,87.101L47.984,87.101L47.984,95.76C47.984,98.156,49.944,100.116,52.34,100.116C54.731,100.116,56.696,98.156,56.696,95.76L56.696,13.069C56.696,10.674,54.731,8.714,52.34,8.714ZM52.34,8.714"/>
  <path fill-rule="evenodd" stroke-linecap="butt" stroke-opacity="1" stroke-linejoin="miter" stroke-miterlimit="4" stroke-dasharray="none" fill="#000000" fill-opacity="1" clip-rule="evenodd" stroke="none" stroke-width="1px" d="M78.348,39.152L87.112,39.152L87.112,30.475L78.348,30.475L78.348,39.152ZM78.401,82.745L87.112,82.745L87.112,73.999L78.401,73.999L78.401,82.745ZM65.333,21.711L65.333,30.475L74.045,30.475L74.045,39.152L65.333,39.152L65.333,43.49L87.112,43.49L87.112,69.726L65.333,69.726L65.333,73.999L74.045,73.999L74.045,82.745L65.333,82.745L65.333,91.457L95.824,91.457L95.824,21.711L65.333,21.711ZM65.333,21.711"/>
</g>
  <g id="Thin-M" transform="matrix(1.0,0.0,0.0,1.0,805.4399993045253,1035.154738791265)">  <path stroke-width="1px" stroke-dasharray="none" stroke="none" stroke-opacity="1" stroke-linejoin="miter" fill-rule="evenodd" stroke-miterlimit="4" fill-opacity="1" stroke-linecap="butt" clip-rule="evenodd" fill="#000000" d="M43.558,78.337L47.984,78.337L47.984,69.66L43.558,69.66L43.558,78.337ZM17.423,78.337L26.187,78.337L26.187,69.66L17.423,69.66L17.423,78.337ZM17.423,34.779L26.135,34.779L26.135,26.067L17.423,26.067L17.423,34.779ZM43.558,34.779L47.984,34.779L47.984,26.067L43.558,26.067L43.558,34.779ZM30.491,34.779L39.22,34.779L39.22,26.067L30.491,26.067L30.491,34.779ZM17.423,65.252L47.984,65.252L47.984,39.087L17.423,39.087L17.423,65.252ZM30.491,78.337L39.203,78.337L39.203,69.66L30.491,69.66L30.491,78.337ZM52.34,8.714C49.944,8.714,47.984,10.674,47.984,13.069L47.984,17.356L8.712,17.356L8.712,87.101L47.984,87.101L47.984,95.76C47.984,98.156,49.944,100.116,52.34,100.116C54.731,100.116,56.696,98.156,56.696,95.76L56.696,13.069C56.696,10.674,54.731,8.714,52.34,8.714ZM52.34,8.714"/>
  <path stroke-linejoin="miter" fill-rule="evenodd" stroke-width="1px" fill-opacity="1" stroke-linecap="butt" stroke-miterlimit="4" stroke-opacity="1" stroke-dasharray="none" clip-rule="evenodd" stroke="none" fill="#000000" d="M78.348,39.152L87.112,39.152L87.112,30.475L78.348,30.475L78.348,39.152ZM78.401,82.745L87.112,82.745L87.112,73.999L78.401,73.999L78.401,82.745ZM65.333,21.711L65.333,30.475L74.045,30.475L74.045,39.152L65.333,39.152L65.333,43.49L87.112,43.49L87.112,69.726L65.333,69.726L65.333,73.999L74.045,73.999L74.045,82.745L65.333,82.745L65.333,91.457L95.824,91.457L95.824,21.711L65.333,21.711ZM65.333,21.711"/>
</g>
  <g id="Ultralight-M" transform="matrix(1.0,0.0,0.0,1.0,508.7299993045252,1035.154738791265)">  <path fill-rule="evenodd" stroke-linejoin="miter" stroke-miterlimit="4" stroke-opacity="1" stroke="none" clip-rule="evenodd" stroke-linecap="butt" stroke-dasharray="none" stroke-width="1px" fill="#000000" fill-opacity="1" d="M43.558,78.337L47.984,78.337L47.984,69.66L43.558,69.66L43.558,78.337ZM17.423,78.337L26.187,78.337L26.187,69.66L17.423,69.66L17.423,78.337ZM17.423,34.779L26.135,34.779L26.135,26.067L17.423,26.067L17.423,34.779ZM43.558,34.779L47.984,34.779L47.984,26.067L43.558,26.067L43.558,34.779ZM30.491,34.779L39.22,34.779L39.22,26.067L30.491,26.067L30.491,34.779ZM17.423,65.252L47.984,65.252L47.984,39.087L17.423,39.087L17.423,65.252ZM30.491,78.337L39.203,78.337L39.203,69.66L30.491,69.66L30.491,78.337ZM52.34,8.714C49.944,8.714,47.984,10.674,47.984,13.069L47.984,17.356L8.712,17.356L8.712,87.101L47.984,87.101L47.984,95.76C47.984,98.156,49.944,100.116,52.34,100.116C54.731,100.116,56.696,98.156,56.696,95.76L56.696,13.069C56.696,10.674,54.731,8.714,52.34,8.714ZM52.34,8.714"/>
  <path stroke-miterlimit="4" stroke-width="1px" clip-rule="evenodd" stroke-opacity="1" fill="#000000" fill-rule="evenodd" stroke-linejoin="miter" stroke-dasharray="none" stroke="none" fill-opacity="1" stroke-linecap="butt" d="M78.348,39.152L87.112,39.152L87.112,30.475L78.348,30.475L78.348,39.152ZM78.401,82.745L87.112,82.745L87.112,73.999L78.401,73.999L78.401,82.745ZM65.333,21.711L65.333,30.475L74.045,30.475L74.045,39.152L65.333,39.152L65.333,43.49L87.112,43.49L87.112,69.726L65.333,69.726L65.333,73.999L74.045,73.999L74.045,82.745L65.333,82.745L65.333,91.457L95.824,91.457L95.824,21.711L65.333,21.711ZM65.333,21.711"/>
</g>
  <g id="Black-S" transform="matrix(1.0,0.0,0.0,1.0,2893.7525894554433,617.2232547118416)">  <path stroke-width="1px" stroke-dasharray="none" stroke="none" fill="#000000" clip-rule="evenodd" fill-opacity="1" fill-rule="evenodd" stroke-linecap="butt" stroke-miterlimit="4" stroke-opacity="1" stroke-linejoin="miter" d="M34.106,61.338L37.571,61.338L37.571,54.544L34.106,54.544L34.106,61.338ZM13.642,61.338L20.505,61.338L20.505,54.544L13.642,54.544L13.642,61.338ZM13.642,27.232L20.464,27.232L20.464,20.411L13.642,20.411L13.642,27.232ZM34.106,27.232L37.571,27.232L37.571,20.411L34.106,20.411L34.106,27.232ZM23.874,27.232L30.709,27.232L30.709,20.411L23.874,20.411L23.874,27.232ZM13.642,51.092L37.571,51.092L37.571,30.605L13.642,30.605L13.642,51.092ZM23.874,61.338L30.696,61.338L30.696,54.544L23.874,54.544L23.874,61.338ZM40.982,6.823C39.106,6.823,37.571,8.357,37.571,10.233L37.571,13.589L6.821,13.589L6.821,68.2L37.571,68.2L37.571,74.98C37.571,76.856,39.106,78.391,40.982,78.391C42.854,78.391,44.393,76.856,44.393,74.98L44.393,10.233C44.393,8.357,42.854,6.823,40.982,6.823ZM40.982,6.823"/>
  <path stroke="none" fill="#000000" stroke-linejoin="miter" stroke-dasharray="none" stroke-linecap="butt" clip-rule="evenodd" fill-rule="evenodd" stroke-miterlimit="4" fill-opacity="1" stroke-width="1px" stroke-opacity="1" d="M61.347,30.656L68.209,30.656L68.209,23.862L61.347,23.862L61.347,30.656ZM61.388,64.789L68.209,64.789L68.209,57.941L61.388,57.941L61.388,64.789ZM51.156,17L51.156,23.862L57.977,23.862L57.977,30.656L51.156,30.656L51.156,34.053L68.209,34.053L68.209,54.595L51.156,54.595L51.156,57.941L57.977,57.941L57.977,64.789L51.156,64.789L51.156,71.611L75.03,71.611L75.03,17L51.156,17ZM51.156,17"/>
</g>
  <g id="Heavy-S" transform="matrix(1.0,0.0,0.0,1.0,2597.0425894554432,617.2232547118416)">  <path stroke-linejoin="miter" stroke-width="1px" stroke-linecap="butt" stroke-opacity="1" stroke-miterlimit="4" stroke="none" fill-opacity="1" fill="#000000" fill-rule="evenodd" stroke-dasharray="none" clip-rule="evenodd" d="M34.106,61.338L37.571,61.338L37.571,54.544L34.106,54.544L34.106,61.338ZM13.642,61.338L20.505,61.338L20.505,54.544L13.642,54.544L13.642,61.338ZM13.642,27.232L20.464,27.232L20.464,20.411L13.642,20.411L13.642,27.232ZM34.106,27.232L37.571,27.232L37.571,20.411L34.106,20.411L34.106,27.232ZM23.874,27.232L30.709,27.232L30.709,20.411L23.874,20.411L23.874,27.232ZM13.642,51.092L37.571,51.092L37.571,30.605L13.642,30.605L13.642,51.092ZM23.874,61.338L30.696,61.338L30.696,54.544L23.874,54.544L23.874,61.338ZM40.982,6.823C39.106,6.823,37.571,8.357,37.571,10.233L37.571,13.589L6.821,13.589L6.821,68.2L37.571,68.2L37.571,74.98C37.571,76.856,39.106,78.391,40.982,78.391C42.854,78.391,44.393,76.856,44.393,74.98L44.393,10.233C44.393,8.357,42.854,6.823,40.982,6.823ZM40.982,6.823"/>
  <path stroke-linejoin="miter" stroke-width="1px" stroke-miterlimit="4" clip-rule="evenodd" stroke-linecap="butt" fill-opacity="1" stroke-dasharray="none" stroke="none" fill="#000000" fill-rule="evenodd" stroke-opacity="1" d="M61.347,30.656L68.209,30.656L68.209,23.862L61.347,23.862L61.347,30.656ZM61.388,64.789L68.209,64.789L68.209,57.941L61.388,57.941L61.388,64.789ZM51.156,17L51.156,23.862L57.977,23.862L57.977,30.656L51.156,30.656L51.156,34.053L68.209,34.053L68.209,54.595L51.156,54.595L51.156,57.941L57.977,57.941L57.977,64.789L51.156,64.789L51.156,71.611L75.03,71.611L75.03,17L51.156,17ZM51.156,17"/>
</g>
  <g id="Bold-S" transform="matrix(1.0,0.0,0.0,1.0,2300.332589455443,617.2232547118416)">  <path fill="#000000" stroke="none" stroke-linecap="butt" fill-rule="evenodd" stroke-linejoin="miter" clip-rule="evenodd" fill-opacity="1" stroke-dasharray="none" stroke-miterlimit="4" stroke-width="1px" stroke-opacity="1" d="M34.106,61.338L37.571,61.338L37.571,54.544L34.106,54.544L34.106,61.338ZM13.642,61.338L20.505,61.338L20.505,54.544L13.642,54.544L13.642,61.338ZM13.642,27.232L20.464,27.232L20.464,20.411L13.642,20.411L13.642,27.232ZM34.106,27.232L37.571,27.232L37.571,20.411L34.106,20.411L34.106,27.232ZM23.874,27.232L30.709,27.232L30.709,20.411L23.874,20.411L23.874,27.232ZM13.642,51.092L37.571,51.092L37.571,30.605L13.642,30.605L13.642,51.092ZM23.874,61.338L30.696,61.338L30.696,54.544L23.874,54.544L23.874,61.338ZM40.982,6.823C39.106,6.823,37.571,8.357,37.571,10.233L37.571,13.589L6.821,13.589L6.821,68.2L37.571,68.2L37.571,74.98C37.571,76.856,39.106,78.391,40.982,78.391C42.854,78.391,44.393,76.856,44.393,74.98L44.393,10.233C44.393,8.357,42.854,6.823,40.982,6.823ZM40.982,6.823"/>
  <path stroke-miterlimit="4" clip-rule="evenodd" stroke-width="1px" stroke="none" stroke-linejoin="miter" fill-rule="evenodd" fill-opacity="1" stroke-dasharray="none" stroke-linecap="butt" fill="#000000" stroke-opacity="1" d="M61.347,30.656L68.209,30.656L68.209,23.862L61.347,23.862L61.347,30.656ZM61.388,64.789L68.209,64.789L68.209,57.941L61.388,57.941L61.388,64.789ZM51.156,17L51.156,23.862L57.977,23.862L57.977,30.656L51.156,30.656L51.156,34.053L68.209,34.053L68.209,54.595L51.156,54.595L51.156,57.941L57.977,57.941L57.977,64.789L51.156,64.789L51.156,71.611L75.03,71.611L75.03,17L51.156,17ZM51.156,17"/>
</g>
  <g id="Semibold-S" transform="matrix(1.0,0.0,0.0,1.0,2003.6225894554432,617.2232547118416)">  <path stroke-linejoin="miter" stroke-dasharray="none" stroke-opacity="1" stroke-linecap="butt" clip-rule="evenodd" fill="#000000" fill-opacity="1" stroke-width="1px" fill-rule="evenodd" stroke-miterlimit="4" stroke="none" d="M34.106,61.338L37.571,61.338L37.571,54.544L34.106,54.544L34.106,61.338ZM13.642,61.338L20.505,61.338L20.505,54.544L13.642,54.544L13.642,61.338ZM13.642,27.232L20.464,27.232L20.464,20.411L13.642,20.411L13.642,27.232ZM34.106,27.232L37.571,27.232L37.571,20.411L34.106,20.411L34.106,27.232ZM23.874,27.232L30.709,27.232L30.709,20.411L23.874,20.411L23.874,27.232ZM13.642,51.092L37.571,51.092L37.571,30.605L13.642,30.605L13.642,51.092ZM23.874,61.338L30.696,61.338L30.696,54.544L23.874,54.544L23.874,61.338ZM40.982,6.823C39.106,6.823,37.571,8.357,37.571,10.233L37.571,13.589L6.821,13.589L6.821,68.2L37.571,68.2L37.571,74.98C37.571,76.856,39.106,78.391,40.982,78.391C42.854,78.391,44.393,76.856,44.393,74.98L44.393,10.233C44.393,8.357,42.854,6.823,40.982,6.823ZM40.982,6.823"/>
  <path stroke-dasharray="none" stroke-opacity="1" stroke-linecap="butt" fill-rule="evenodd" clip-rule="evenodd" fill-opacity="1" stroke="none" stroke-width="1px" stroke-linejoin="miter" stroke-miterlimit="4" fill="#000000" d="M61.347,30.656L68.209,30.656L68.209,23.862L61.347,23.862L61.347,30.656ZM61.388,64.789L68.209,64.789L68.209,57.941L61.388,57.941L61.388,64.789ZM51.156,17L51.156,23.862L57.977,23.862L57.977,30.656L51.156,30.656L51.156,34.053L68.209,34.053L68.209,54.595L51.156,54.595L51.156,57.941L57.977,57.941L57.977,64.789L51.156,64.789L51.156,71.611L75.03,71.611L75.03,17L51.156,17ZM51.156,17"/>
</g>
  <g id="Medium-S" transform="matrix(1.0,0.0,0.0,1.0,1706.9125894554431,617.2232547118416)">  <path stroke="none" fill-rule="evenodd" fill="#000000" stroke-width="1px" stroke-dasharray="none" stroke-linejoin="miter" clip-rule="evenodd" stroke-opacity="1" stroke-miterlimit="4" fill-opacity="1" stroke-linecap="butt" d="M34.106,61.338L37.571,61.338L37.571,54.544L34.106,54.544L34.106,61.338ZM13.642,61.338L20.505,61.338L20.505,54.544L13.642,54.544L13.642,61.338ZM13.642,27.232L20.464,27.232L20.464,20.411L13.642,20.411L13.642,27.232ZM34.106,27.232L37.571,27.232L37.571,20.411L34.106,20.411L34.106,27.232ZM23.874,27.232L30.709,27.232L30.709,20.411L23.874,20.411L23.874,27.232ZM13.642,51.092L37.571,51.092L37.571,30.605L13.642,30.605L13.642,51.092ZM23.874,61.338L30.696,61.338L30.696,54.544L23.874,54.544L23.874,61.338ZM40.982,6.823C39.106,6.823,37.571,8.357,37.571,10.233L37.571,13.589L6.821,13.589L6.821,68.2L37.571,68.2L37.571,74.98C37.571,76.856,39.106,78.391,40.982,78.391C42.854,78.391,44.393,76.856,44.393,74.98L44.393,10.233C44.393,8.357,42.854,6.823,40.982,6.823ZM40.982,6.823"/>
  <path fill-rule="evenodd" stroke="none" fill="#000000" stroke-linecap="butt" fill-opacity="1" stroke-width="1px" clip-rule="evenodd" stroke-opacity="1" stroke-miterlimit="4" stroke-dasharray="none" stroke-linejoin="miter" d="M61.347,30.656L68.209,30.656L68.209,23.862L61.347,23.862L61.347,30.656ZM61.388,64.789L68.209,64.789L68.209,57.941L61.388,57.941L61.388,64.789ZM51.156,17L51.156,23.862L57.977,23.862L57.977,30.656L51.156,30.656L51.156,34.053L68.209,34.053L68.209,54.595L51.156,54.595L51.156,57.941L57.977,57.941L57.977,64.789L51.156,64.789L51.156,71.611L75.03,71.611L75.03,17L51.156,17ZM51.156,17"/>
</g>
  <g id="Regular-S" transform="matrix(1.0,0.0,0.0,1.0,1410.202589455443,617.2232547118416)">  <path stroke-dasharray="none" fill-rule="evenodd" stroke-miterlimit="4" stroke-linecap="butt" stroke-opacity="1" stroke-linejoin="miter" clip-rule="evenodd" stroke-width="1px" stroke="none" fill-opacity="1" fill="#000000" d="M34.106,61.338L37.571,61.338L37.571,54.544L34.106,54.544L34.106,61.338ZM13.642,61.338L20.505,61.338L20.505,54.544L13.642,54.544L13.642,61.338ZM13.642,27.232L20.464,27.232L20.464,20.411L13.642,20.411L13.642,27.232ZM34.106,27.232L37.571,27.232L37.571,20.411L34.106,20.411L34.106,27.232ZM23.874,27.232L30.709,27.232L30.709,20.411L23.874,20.411L23.874,27.232ZM13.642,51.092L37.571,51.092L37.571,30.605L13.642,30.605L13.642,51.092ZM23.874,61.338L30.696,61.338L30.696,54.544L23.874,54.544L23.874,61.338ZM40.982,6.823C39.106,6.823,37.571,8.357,37.571,10.233L37.571,13.589L6.821,13.589L6.821,68.2L37.571,68.2L37.571,74.98C37.571,76.856,39.106,78.391,40.982,78.391C42.854,78.391,44.393,76.856,44.393,74.98L44.393,10.233C44.393,8.357,42.854,6.823,40.982,6.823ZM40.982,6.823"/>
  <path stroke-dasharray="none" stroke-width="1px" stroke-miterlimit="4" stroke-opacity="1" stroke-linecap="butt" stroke-linejoin="miter" fill-rule="evenodd" stroke="none" fill="#000000" clip-rule="evenodd" fill-opacity="1" d="M61.347,30.656L68.209,30.656L68.209,23.862L61.347,23.862L61.347,30.656ZM61.388,64.789L68.209,64.789L68.209,57.941L61.388,57.941L61.388,64.789ZM51.156,17L51.156,23.862L57.977,23.862L57.977,30.656L51.156,30.656L51.156,34.053L68.209,34.053L68.209,54.595L51.156,54.595L51.156,57.941L57.977,57.941L57.977,64.789L51.156,64.789L51.156,71.611L75.03,71.611L75.03,17L51.156,17ZM51.156,17"/>
</g>
  <g id="Light-S" transform="matrix(1.0,0.0,0.0,1.0,1113.4925894554433,617.2232547118416)">  <path stroke-opacity="1" stroke-dasharray="none" stroke-linejoin="miter" fill-rule="evenodd" clip-rule="evenodd" stroke-linecap="butt" fill-opacity="1" stroke-width="1px" stroke="none" stroke-miterlimit="4" fill="#000000" d="M34.106,61.338L37.571,61.338L37.571,54.544L34.106,54.544L34.106,61.338ZM13.642,61.338L20.505,61.338L20.505,54.544L13.642,54.544L13.642,61.338ZM13.642,27.232L20.464,27.232L20.464,20.411L13.642,20.411L13.642,27.232ZM34.106,27.232L37.571,27.232L37.571,20.411L34.106,20.411L34.106,27.232ZM23.874,27.232L30.709,27.232L30.709,20.411L23.874,20.411L23.874,27.232ZM13.642,51.092L37.571,51.092L37.571,30.605L13.642,30.605L13.642,51.092ZM23.874,61.338L30.696,61.338L30.696,54.544L23.874,54.544L23.874,61.338ZM40.982,6.823C39.106,6.823,37.571,8.357,37.571,10.233L37.571,13.589L6.821,13.589L6.821,68.2L37.571,68.2L37.571,74.98C37.571,76.856,39.106,78.391,40.982,78.391C42.854,78.391,44.393,76.856,44.393,74.98L44.393,10.233C44.393,8.357,42.854,6.823,40.982,6.823ZM40.982,6.823"/>
  <path fill-rule="evenodd" stroke-linecap="butt" stroke-opacity="1" stroke-linejoin="miter" stroke-miterlimit="4" stroke-dasharray="none" fill="#000000" fill-opacity="1" clip-rule="evenodd" stroke="none" stroke-width="1px" d="M61.347,30.656L68.209,30.656L68.209,23.862L61.347,23.862L61.347,30.656ZM61.388,64.789L68.209,64.789L68.209,57.941L61.388,57.941L61.388,64.789ZM51.156,17L51.156,23.862L57.977,23.862L57.977,30.656L51.156,30.656L51.156,34.053L68.209,34.053L68.209,54.595L51.156,54.595L51.156,57.941L57.977,57.941L57.977,64.789L51.156,64.789L51.156,71.611L75.03,71.611L75.03,17L51.156,17ZM51.156,17"/>
</g>
  <g id="Thin-S" transform="matrix(1.0,0.0,0.0,1.0,816.7825894554433,617.2232547118416)">  <path stroke-width="1px" stroke-dasharray="none" stroke="none" stroke-opacity="1" stroke-linejoin="miter" fill-rule="evenodd" stroke-miterlimit="4" fill-opacity="1" stroke-linecap="butt" clip-rule="evenodd" fill="#000000" d="M34.106,61.338L37.571,61.338L37.571,54.544L34.106,54.544L34.106,61.338ZM13.642,61.338L20.505,61.338L20.505,54.544L13.642,54.544L13.642,61.338ZM13.642,27.232L20.464,27.232L20.464,20.411L13.642,20.411L13.642,27.232ZM34.106,27.232L37.571,27.232L37.571,20.411L34.106,20.411L34.106,27.232ZM23.874,27.232L30.709,27.232L30.709,20.411L23.874,20.411L23.874,27.232ZM13.642,51.092L37.571,51.092L37.571,30.605L13.642,30.605L13.642,51.092ZM23.874,61.338L30.696,61.338L30.696,54.544L23.874,54.544L23.874,61.338ZM40.982,6.823C39.106,6.823,37.571,8.357,37.571,10.233L37.571,13.589L6.821,13.589L6.821,68.2L37.571,68.2L37.571,74.98C37.571,76.856,39.106,78.391,40.982,78.391C42.854,78.391,44.393,76.856,44.393,74.98L44.393,10.233C44.393,8.357,42.854,6.823,40.982,6.823ZM40.982,6.823"/>
  <path stroke-linejoin="miter" fill-rule="evenodd" stroke-width="1px" fill-opacity="1" stroke-linecap="butt" stroke-miterlimit="4" stroke-opacity="1" stroke-dasharray="none" clip-rule="evenodd" stroke="none" fill="#000000" d="M61.347,30.656L68.209,30.656L68.209,23.862L61.347,23.862L61.347,30.656ZM61.388,64.789L68.209,64.789L68.209,57.941L61.388,57.941L61.388,64.789ZM51.156,17L51.156,23.862L57.977,23.862L57.977,30.656L51.156,30.656L51.156,34.053L68.209,34.053L68.209,54.595L51.156,54.595L51.156,57.941L57.977,57.941L57.977,64.789L51.156,64.789L51.156,71.611L75.03,71.611L75.03,17L51.156,17ZM51.156,17"/>
</g>
  <g id="Ultralight-S" transform="matrix(1.0,0.0,0.0,1.0,520.0725894554432,617.2232547118416)">  <path fill-rule="evenodd" stroke-linejoin="miter" stroke-miterlimit="4" stroke-opacity="1" stroke="none" clip-rule="evenodd" stroke-linecap="butt" stroke-dasharray="none" stroke-width="1px" fill="#000000" fill-opacity="1" d="M34.106,61.338L37.571,61.338L37.571,54.544L34.106,54.544L34.106,61.338ZM13.642,61.338L20.505,61.338L20.505,54.544L13.642,54.544L13.642,61.338ZM13.642,27.232L20.464,27.232L20.464,20.411L13.642,20.411L13.642,27.232ZM34.106,27.232L37.571,27.232L37.571,20.411L34.106,20.411L34.106,27.232ZM23.874,27.232L30.709,27.232L30.709,20.411L23.874,20.411L23.874,27.232ZM13.642,51.092L37.571,51.092L37.571,30.605L13.642,30.605L13.642,51.092ZM23.874,61.338L30.696,61.338L30.696,54.544L23.874,54.544L23.874,61.338ZM40.982,6.823C39.106,6.823,37.571,8.357,37.571,10.233L37.571,13.589L6.821,13.589L6.821,68.2L37.571,68.2L37.571,74.98C37.571,76.856,39.106,78.391,40.982,78.391C42.854,78.391,44.393,76.856,44.393,74.98L44.393,10.233C44.393,8.357,42.854,6.823,40.982,6.823ZM40.982,6.823"/>
  <path stroke-miterlimit="4" stroke-width="1px" clip-rule="evenodd" stroke-opacity="1" fill="#000000" fill-rule="evenodd" stroke-linejoin="miter" stroke-dasharray="none" stroke="none" fill-opacity="1" stroke-linecap="butt" d="M61.347,30.656L68.209,30.656L68.209,23.862L61.347,23.862L61.347,30.656ZM61.388,64.789L68.209,64.789L68.209,57.941L61.388,57.941L61.388,64.789ZM51.156,17L51.156,23.862L57.977,23.862L57.977,30.656L51.156,30.656L51.156,34.053L68.209,34.053L68.209,54.595L51.156,54.595L51.156,57.941L57.977,57.941L57.977,64.789L51.156,64.789L51.156,71.611L75.03,71.611L75.03,17L51.156,17ZM51.156,17"/>
</g>
 </g>
</svg>
