<?xml version="1.0" encoding="UTF-8"?>
<!-- Generator: CustomSymbols v2.6.1.40 by @serious_bret https://bretlester.com/app_content/CustomSymbols/ -->
<!-- Guides: Left/Right 0.088/0.084 Cap/Base 0.204/0.136 -->
<!-- Settings: RefScale 1.0 Min/Max Stroke Scales 0.5/2.21 -->
<!DOCTYPE svg
PUBLIC "-//W3C//DTD SVG 1.1//EN"
       "http://www.w3.org/Graphics/SVG/1.1/DTD/svg11.dtd">
<svg version="1.1" xmlns="http://www.w3.org/2000/svg" xmlns:xlink="http://www.w3.org/1999/xlink" width="3300" height="2200">
<![CDATA[<svg xmlns="http://www.w3.org/2000/svg" width="24" height="24" viewBox="0 0 24 24">
  <defs/>
  <path d="M12.016,2 C12.565,2 13.016,2.45 13.016,3 L13.016,21.984 C13.016,22.534 12.565,22.984 12.016,22.984 C11.466,22.984 11.016,22.534 11.016,21.984 L11.016,19.996 L2,19.996 L2,3.984 L11.016,3.984 L11.016,3 C11.016,2.45 11.466,2 12.016,2 Z M4,14.98 L11.016,14.98 L11.016,8.973 L4,8.973 Z M7,7.984 L9.004,7.984 L9.004,5.984 L7,5.984 Z M4,17.984 L6.012,17.984 L6.012,15.992 L4,15.992 Z M4,7.984 L6,7.984 L6,5.984 L4,5.984 Z M7,17.984 L9,17.984 L9,15.992 L7,15.992 Z M10,7.984 L11.016,7.984 L11.016,5.984 L10,5.984 Z M10,17.984 L11.016,17.984 L11.016,15.992 L10,15.992 Z"/>
  <path d="M14.999,4.984 L21.999,4.984 L21.999,20.996 L14.999,20.996 L14.999,18.996 L16.999,18.996 L16.999,16.988 L14.999,16.988 L14.999,16.007 L19.999,16.007 L19.999,9.984 L14.999,9.984 L14.999,8.988 L16.999,8.988 L16.999,6.996 L14.999,6.996 Z M17.999,18.996 L19.999,18.996 L19.999,16.988 L17.999,16.988 Z M17.987,8.988 L19.999,8.988 L19.999,6.996 L17.987,6.996 Z"/>
</svg>

]]>
 <g id="Notes">
  <rect height="2200" id="artboard" style="fill:white;opacity:1" width="3300" x="0" y="0"/>
  <line id="" style="fill:none;stroke:black;opacity:1;stroke-width:0.5;" x1="263" x2="3036" y1="292" y2="292"/>
  <text id="reftext1" style="stroke:none;fill:black;font-family:-apple-system,&quot;SF Pro Display&quot;,&quot;SF Pro Text&quot;,Helvetica,sans-serif;font-weight:bold;" transform="matrix(1 0 0 1 263 322)">Weight/Scale Variations</text>
  <text id="reftext2" style="stroke:none;fill:black;font-family:-apple-system,&quot;SF Pro Display&quot;,&quot;SF Pro Text&quot;,Helvetica,sans-serif;text-anchor:middle;" transform="matrix(1 0 0 1 559.711 322)">Ultralight</text>
  <text style="stroke:none;fill:black;font-family:-apple-system,&quot;SF Pro Display&quot;,&quot;SF Pro Text&quot;,Helvetica,sans-serif;text-anchor:middle;" transform="matrix(1 0 0 1 856.422 322)">Thin</text>
  <text style="stroke:none;fill:black;font-family:-apple-system,&quot;SF Pro Display&quot;,&quot;SF Pro Text&quot;,Helvetica,sans-serif;text-anchor:middle;" transform="matrix(1 0 0 1 1153.13 322)">Light</text>
  <text style="stroke:none;fill:black;font-family:-apple-system,&quot;SF Pro Display&quot;,&quot;SF Pro Text&quot;,Helvetica,sans-serif;text-anchor:middle;" transform="matrix(1 0 0 1 1449.84 322)">Regular</text>
  <text style="stroke:none;fill:black;font-family:-apple-system,&quot;SF Pro Display&quot;,&quot;SF Pro Text&quot;,Helvetica,sans-serif;text-anchor:middle;" transform="matrix(1 0 0 1 1746.56 322)">Medium</text>
  <text style="stroke:none;fill:black;font-family:-apple-system,&quot;SF Pro Display&quot;,&quot;SF Pro Text&quot;,Helvetica,sans-serif;text-anchor:middle;" transform="matrix(1 0 0 1 2043.27 322)">Semibold</text>
  <text style="stroke:none;fill:black;font-family:-apple-system,&quot;SF Pro Display&quot;,&quot;SF Pro Text&quot;,Helvetica,sans-serif;text-anchor:middle;" transform="matrix(1 0 0 1 2339.98 322)">Bold</text>
  <text style="stroke:none;fill:black;font-family:-apple-system,&quot;SF Pro Display&quot;,&quot;SF Pro Text&quot;,Helvetica,sans-serif;text-anchor:middle;" transform="matrix(1 0 0 1 2636.69 322)">Heavy</text>
  <text style="stroke:none;fill:black;font-family:-apple-system,&quot;SF Pro Display&quot;,&quot;SF Pro Text&quot;,Helvetica,sans-serif;text-anchor:middle;" transform="matrix(1 0 0 1 2933.4 322)">Black</text>
  <line id="" style="fill:none;stroke:black;opacity:1;stroke-width:0.5;" x1="263" x2="3036" y1="1903" y2="1903"/>
  <g id="" transform="matrix(1 0 0 1 263 1933)">
   <path d="M9.24805 0.830078C13.5547 0.830078 17.1387-2.74414 17.1387-7.05078C17.1387-11.3574 13.5449-14.9316 9.23828-14.9316C4.94141-14.9316 1.36719-11.3574 1.36719-7.05078C1.36719-2.74414 4.95117 0.830078 9.24805 0.830078ZM9.24805-0.654297C5.70312-0.654297 2.87109-3.49609 2.87109-7.05078C2.87109-10.6055 5.69336-13.4473 9.23828-13.4473C12.793-13.4473 15.6348-10.6055 15.6445-7.05078C15.6543-3.49609 12.8027-0.654297 9.24805-0.654297ZM6.39648-6.31836L8.50586-6.31836L8.50586-4.19922C8.50586-3.75977 8.79883-3.45703 9.22852-3.45703C9.67773-3.45703 9.9707-3.75977 9.9707-4.19922L9.9707-6.31836L12.0996-6.31836C12.5391-6.31836 12.8418-6.61133 12.8418-7.04102C12.8418-7.48047 12.5391-7.7832 12.0996-7.7832L9.9707-7.7832L9.9707-9.89258C9.9707-10.3418 9.67773-10.6445 9.22852-10.6445C8.79883-10.6445 8.50586-10.3418 8.50586-9.89258L8.50586-7.7832L6.39648-7.7832C5.94727-7.7832 5.64453-7.48047 5.64453-7.04102C5.64453-6.61133 5.94727-6.31836 6.39648-6.31836Z"/>
  </g>
  <g id="" transform="matrix(1 0 0 1 281.506 1933)">
   <path d="M11.709 2.91016C17.1582 2.91016 21.6699-1.61133 21.6699-7.05078C21.6699-12.5 17.1484-17.0117 11.6992-17.0117C6.25977-17.0117 1.74805-12.5 1.74805-7.05078C1.74805-1.61133 6.26953 2.91016 11.709 2.91016ZM11.709 1.25C7.09961 1.25 3.41797-2.44141 3.41797-7.05078C3.41797-11.6602 7.08984-15.3516 11.6992-15.3516C16.3086-15.3516 20-11.6602 20.0098-7.05078C20.0195-2.44141 16.3184 1.25 11.709 1.25ZM7.98828-6.23047L10.8789-6.23047L10.8789-3.32031C10.8789-2.83203 11.2109-2.5 11.6895-2.5C12.1777-2.5 12.5195-2.83203 12.5195-3.32031L12.5195-6.23047L15.4297-6.23047C15.918-6.23047 16.25-6.5625 16.25-7.04102C16.25-7.5293 15.918-7.87109 15.4297-7.87109L12.5195-7.87109L12.5195-10.7617C12.5195-11.2695 12.1777-11.6016 11.6895-11.6016C11.2109-11.6016 10.8789-11.2598 10.8789-10.7617L10.8789-7.87109L7.98828-7.87109C7.48047-7.87109 7.14844-7.5293 7.14844-7.04102C7.14844-6.5625 7.49023-6.23047 7.98828-6.23047Z"/>
  </g>
  <g id="" transform="matrix(1 0 0 1 304.924 1933)">
   <path d="M14.9707 5.66406C21.9336 5.66406 27.6953-0.0976562 27.6953-7.05078C27.6953-14.0137 21.9238-19.7754 14.9609-19.7754C8.00781-19.7754 2.25586-14.0137 2.25586-7.05078C2.25586-0.0976562 8.01758 5.66406 14.9707 5.66406ZM14.9707 3.84766C8.93555 3.84766 4.08203-1.01562 4.08203-7.05078C4.08203-13.0957 8.92578-17.9492 14.9609-17.9492C21.0059-17.9492 25.8594-13.0957 25.8691-7.05078C25.8789-1.01562 21.0156 3.84766 14.9707 3.84766ZM10.0586-6.14258L14.0625-6.14258L14.0625-2.12891C14.0625-1.5918 14.4336-1.2207 14.9512-1.2207C15.4883-1.2207 15.8594-1.5918 15.8594-2.12891L15.8594-6.14258L19.8828-6.14258C20.4102-6.14258 20.791-6.51367 20.791-7.03125C20.791-7.56836 20.4199-7.94922 19.8828-7.94922L15.8594-7.94922L15.8594-11.9531C15.8594-12.5098 15.4883-12.8809 14.9512-12.8809C14.4336-12.8809 14.0625-12.5 14.0625-11.9531L14.0625-7.94922L10.0586-7.94922C9.50195-7.94922 9.13086-7.56836 9.13086-7.03125C9.13086-6.51367 9.51172-6.14258 10.0586-6.14258Z"/>
  </g>
  <text style="stroke:none;fill:black;font-family:-apple-system,&quot;SF Pro Display&quot;,&quot;SF Pro Text&quot;,Helvetica,sans-serif;font-weight:bold;" transform="matrix(1 0 0 1 263 1953)">Design Variations</text>
  <text style="stroke:none;fill:black;font-family:-apple-system,&quot;SF Pro Display&quot;,&quot;SF Pro Text&quot;,Helvetica,sans-serif;" transform="matrix(1 0 0 1 263 1971)">Symbols are supported in up to nine weights and three scales.</text>
  <text style="stroke:none;fill:black;font-family:-apple-system,&quot;SF Pro Display&quot;,&quot;SF Pro Text&quot;,Helvetica,sans-serif;" transform="matrix(1 0 0 1 263 1989)">For optimal layout with text and other symbols, vertically align</text>
  <text style="stroke:none;fill:black;font-family:-apple-system,&quot;SF Pro Display&quot;,&quot;SF Pro Text&quot;,Helvetica,sans-serif;" transform="matrix(1 0 0 1 263 2007)">symbols with the adjacent text.</text>
  <line id="" style="fill:none;stroke:#00AEEF;stroke-width:0.5;opacity:1.0;" x1="776" x2="776" y1="1919" y2="1933"/>
  <g id="" transform="matrix(1 0 0 1 776 1933)">
   <path d="M3.31055 0.126953C3.82812 0.126953 4.08203-0.0683594 4.26758-0.605469L5.52734-4.0625L11.2891-4.0625L12.5488-0.605469C12.7344-0.0683594 12.9883 0.126953 13.4961 0.126953C14.0137 0.126953 14.3457-0.185547 14.3457-0.673828C14.3457-0.839844 14.3164-0.986328 14.2383-1.20117L9.6582-13.3887C9.43359-13.9941 9.0332-14.2871 8.4082-14.2871C7.80273-14.2871 7.39258-13.9941 7.17773-13.3984L2.59766-1.19141C2.51953-0.976562 2.49023-0.830078 2.49023-0.664062C2.49023-0.175781 2.80273 0.126953 3.31055 0.126953ZM6.00586-5.53711L8.37891-12.1094L8.42773-12.1094L10.8008-5.53711Z"/>
  </g>
  <line id="" style="fill:none;stroke:#00AEEF;stroke-width:0.5;opacity:1.0;" x1="792.836" x2="792.836" y1="1919" y2="1933"/>
  <text style="stroke:none;fill:black;font-family:-apple-system,&quot;SF Pro Display&quot;,&quot;SF Pro Text&quot;,Helvetica,sans-serif;font-weight:bold;" transform="matrix(1 0 0 1 776 1953)">Margins</text>
  <text style="stroke:none;fill:black;font-family:-apple-system,&quot;SF Pro Display&quot;,&quot;SF Pro Text&quot;,Helvetica,sans-serif;" transform="matrix(1 0 0 1 776 1971)">Leading and trailing margins on the left and right side of each symbol</text>
  <text style="stroke:none;fill:black;font-family:-apple-system,&quot;SF Pro Display&quot;,&quot;SF Pro Text&quot;,Helvetica,sans-serif;" transform="matrix(1 0 0 1 776 1989)">can be adjusted by modifying the x-location of the margin guidelines.</text>
  <text style="stroke:none;fill:black;font-family:-apple-system,&quot;SF Pro Display&quot;,&quot;SF Pro Text&quot;,Helvetica,sans-serif;" transform="matrix(1 0 0 1 776 2007)">Modifications are automatically applied proportionally to all</text>
  <text style="stroke:none;fill:black;font-family:-apple-system,&quot;SF Pro Display&quot;,&quot;SF Pro Text&quot;,Helvetica,sans-serif;" transform="matrix(1 0 0 1 776 2025)">scales and weights.</text>
  <g id="" transform="matrix(1 0 0 1 1289 1933)">
   <path d="M2.8418 1.86523L4.54102 3.57422C5.40039 4.44336 6.38672 4.38477 7.31445 3.35938L17.4902-7.85156C17.7539-7.76367 18.0273-7.7832 18.3398-7.8418L19.4043-8.03711L20.0684-7.36328L20.0293-6.80664C19.9902-6.30859 20.1172-5.92773 20.6055-5.44922L21.3672-4.70703C21.8457-4.22852 22.4609-4.19922 22.9297-4.66797L25.8398-7.58789C26.3086-8.05664 26.2891-8.65234 25.8105-9.13086L25.0391-9.89258C24.5605-10.3711 24.1895-10.5273 23.7109-10.4883L23.1348-10.4395L22.4902-11.0742L22.7344-12.1973C22.8613-12.7637 22.7051-13.2031 22.1191-13.7891L19.9219-15.9766C16.582-19.2969 12.1484-19.2188 9.25781-16.3281C8.83789-15.918 8.80859-15.3418 9.04297-14.9512C9.27734-14.5898 9.73633-14.3555 10.3809-14.5215C11.8457-14.8633 13.3691-14.9219 14.7949-13.9844L14.209-12.5293C14.0137-12.0508 13.9844-11.6504 14.1113-11.2891L3.04688-0.898438C2.06055 0.0195312 1.98242 0.996094 2.8418 1.86523ZM10.752-15.957C13.1836-17.7344 16.4746-17.4316 18.7012-15.2051L21.1328-12.793C21.3672-12.5586 21.4062-12.373 21.3379-12.0312L21.0156-10.5469L22.5195-9.0625L23.5059-9.12109C23.7598-9.13086 23.8379-9.11133 24.0332-8.91602L24.6094-8.33984L22.168-5.89844L21.5918-6.47461C21.3965-6.66992 21.3672-6.74805 21.377-7.01172L21.4453-7.98828L19.9512-9.47266L18.4277-9.21875C18.1055-9.15039 17.959-9.17969 17.7148-9.41406L15.7129-11.416C15.459-11.6504 15.4297-11.8164 15.5859-12.1875L16.4648-14.2773C14.9023-15.7324 12.8711-16.3574 10.8398-15.7617C10.6836-15.7227 10.625-15.8496 10.752-15.957ZM5.27344 2.30469L4.10156 1.14258C3.63281 0.683594 3.74023 0.341797 4.14062-0.0195312L14.9512-10.1953L16.416-8.71094L6.42578 2.27539C6.07422 2.67578 5.74219 2.77344 5.27344 2.30469Z"/>
  </g>
  <text style="stroke:none;fill:black;font-family:-apple-system,&quot;SF Pro Display&quot;,&quot;SF Pro Text&quot;,Helvetica,sans-serif;font-weight:bold;" transform="matrix(1 0 0 1 1289 1953)">Exporting</text>
  <text style="stroke:none;fill:black;font-family:-apple-system,&quot;SF Pro Display&quot;,&quot;SF Pro Text&quot;,Helvetica,sans-serif;" transform="matrix(1 0 0 1 1289 1971)">Symbols should be outlined when exporting to ensure the</text>
  <text style="stroke:none;fill:black;font-family:-apple-system,&quot;SF Pro Display&quot;,&quot;SF Pro Text&quot;,Helvetica,sans-serif;" transform="matrix(1 0 0 1 1289 1989)">design is preserved when submitting to Xcode.</text>
  <text id="template-version" style="stroke:none;fill:black;font-family:-apple-system,&quot;SF Pro Display&quot;,&quot;SF Pro Text&quot;,Helvetica,sans-serif;text-anchor:end;" transform="matrix(1 0 0 1 3036 1933)">Template v.2.0</text>
  <text style="stroke:none;fill:black;font-family:-apple-system,&quot;SF Pro Display&quot;,&quot;SF Pro Text&quot;,Helvetica,sans-serif;text-anchor:end;" transform="matrix(1 0 0 1 3036 1951)">Requires Xcode 12 or greater</text>
  <text style="stroke:none;fill:black;font-family:-apple-system,&quot;SF Pro Display&quot;,&quot;SF Pro Text&quot;,Helvetica,sans-serif;" transform="matrix(1 0 0 1 263 726)">Small</text>
  <text style="stroke:none;fill:black;font-family:-apple-system,&quot;SF Pro Display&quot;,&quot;SF Pro Text&quot;,Helvetica,sans-serif;" transform="matrix(1 0 0 1 263 1156)">Medium</text>
  <text style="stroke:none;fill:black;font-family:-apple-system,&quot;SF Pro Display&quot;,&quot;SF Pro Text&quot;,Helvetica,sans-serif;" transform="matrix(1 0 0 1 263 1586)">Large</text>
 </g>
 <g id="Guides">
  <g id="H-reference" style="fill:#27AAE1;stroke:none;" transform="matrix(1 0 0 1 339 696)">
   <path d="M0.976562 0L3.66211 0L12.9883-24.4629L45.752-24.4629L55.127 0L57.7637 0L30.6152-70.459L28.125-70.459ZM29.3457-67.1387L29.4434-67.1387L44.873-26.709L13.8672-26.709Z"/>
  </g>
  <line id="Baseline-S" style="fill:none;stroke:#27AAE1;opacity:1;stroke-width:0.5;" x1="263" x2="3036" y1="696" y2="696"/>
  <line id="Capline-S" style="fill:none;stroke:#27AAE1;opacity:1;stroke-width:0.5;" x1="263" x2="3036" y1="625.541" y2="625.541"/>
  <g id="H-reference" style="fill:#27AAE1;stroke:none;" transform="matrix(1 0 0 1 339 1126)">
   <path d="M0.976562 0L3.66211 0L12.9883-24.4629L45.752-24.4629L55.127 0L57.7637 0L30.6152-70.459L28.125-70.459ZM29.3457-67.1387L29.4434-67.1387L44.873-26.709L13.8672-26.709Z"/>
  </g>
  <line id="Baseline-M" style="fill:none;stroke:#27AAE1;opacity:1;stroke-width:0.5;" x1="263" x2="3036" y1="1126" y2="1126"/>
  <line id="Capline-M" style="fill:none;stroke:#27AAE1;opacity:1;stroke-width:0.5;" x1="263" x2="3036" y1="1055.54" y2="1055.54"/>
  <g id="H-reference" style="fill:#27AAE1;stroke:none;" transform="matrix(1 0 0 1 339 1556)">
   <path d="M0.976562 0L3.66211 0L12.9883-24.4629L45.752-24.4629L55.127 0L57.7637 0L30.6152-70.459L28.125-70.459ZM29.3457-67.1387L29.4434-67.1387L44.873-26.709L13.8672-26.709Z"/>
  </g>
  <line id="Baseline-L" style="fill:none;stroke:#27AAE1;opacity:1;stroke-width:0.5;" x1="263" x2="3036" y1="1556" y2="1556"/>
  <line id="Capline-L" style="fill:none;stroke:#27AAE1;opacity:1;stroke-width:0.5;" x1="263" x2="3036" y1="1485.54" y2="1485.54"/>
  <line id="left-margin" x1="1407.1459031723484" x2="1407.1459031723484" y1="1030.79" y2="1150.12" style="fill:none;stroke:#00AEEF;stroke-width:0.5;opacity:1.0;"/>
  <line id="right-margin" x1="1495.5411268939392" x2="1495.5411268939392" y1="1030.79" y2="1150.12" style="fill:none;stroke:#00AEEF;stroke-width:0.5;opacity:1.0;"/>
 </g>
 <g id="Symbols">
  <g id="Black-L" transform="matrix(1.0,0.0,0.0,1.0,2865.8214018110793,1447.229036665483)">  <path stroke-miterlimit="4" stroke-dasharray="none" stroke-opacity="1" fill="#000000" stroke-linejoin="miter" fill-opacity="1" stroke-linecap="butt" fill-rule="nonzero" stroke="none" stroke-width="1px" d="M68.95,11.476C72.101,11.476,74.689,14.059,74.689,17.215L74.689,126.149C74.689,129.305,72.101,131.887,68.95,131.887C65.794,131.887,63.212,129.305,63.212,126.149L63.212,114.741L11.476,114.741L11.476,22.861L63.212,22.861L63.212,17.215C63.212,14.059,65.794,11.476,68.95,11.476ZM22.953,85.958L63.212,85.958L63.212,51.489L22.953,51.489ZM40.168,45.814L51.667,45.814L51.667,34.337L40.168,34.337ZM22.953,103.196L34.498,103.196L34.498,91.766L22.953,91.766ZM22.953,45.814L34.429,45.814L34.429,34.337L22.953,34.337ZM40.168,103.196L51.644,103.196L51.644,91.766L40.168,91.766ZM57.382,45.814L63.212,45.814L63.212,34.337L57.382,34.337ZM57.382,103.196L63.212,103.196L63.212,91.766L57.382,91.766ZM57.382,103.196"/>
  <path stroke-miterlimit="4" stroke-linejoin="miter" fill="#000000" fill-rule="nonzero" stroke-width="1px" stroke-dasharray="none" stroke-linecap="butt" stroke="none" fill-opacity="1" stroke-opacity="1" d="M86.068,28.599L126.235,28.599L126.235,120.48L86.068,120.48L86.068,109.003L97.544,109.003L97.544,97.481L86.068,97.481L86.068,91.852L114.759,91.852L114.759,57.29L86.068,57.29L86.068,51.575L97.544,51.575L97.544,40.145L86.068,40.145ZM103.282,109.003L114.759,109.003L114.759,97.481L103.282,97.481ZM103.213,51.575L114.759,51.575L114.759,40.145L103.213,40.145ZM103.213,51.575"/>
</g>
  <g id="Heavy-L" transform="matrix(1.0,0.0,0.0,1.0,2569.1114018110793,1447.229036665483)">  <path stroke-opacity="1" stroke-width="1px" stroke-linecap="butt" stroke="none" stroke-linejoin="miter" stroke-dasharray="none" stroke-miterlimit="4" fill-rule="nonzero" fill-opacity="1" fill="#000000" d="M68.95,11.476C72.101,11.476,74.689,14.059,74.689,17.215L74.689,126.149C74.689,129.305,72.101,131.887,68.95,131.887C65.794,131.887,63.212,129.305,63.212,126.149L63.212,114.741L11.476,114.741L11.476,22.861L63.212,22.861L63.212,17.215C63.212,14.059,65.794,11.476,68.95,11.476ZM22.953,85.958L63.212,85.958L63.212,51.489L22.953,51.489ZM40.168,45.814L51.667,45.814L51.667,34.337L40.168,34.337ZM22.953,103.196L34.498,103.196L34.498,91.766L22.953,91.766ZM22.953,45.814L34.429,45.814L34.429,34.337L22.953,34.337ZM40.168,103.196L51.644,103.196L51.644,91.766L40.168,91.766ZM57.382,45.814L63.212,45.814L63.212,34.337L57.382,34.337ZM57.382,103.196L63.212,103.196L63.212,91.766L57.382,91.766ZM57.382,103.196"/>
  <path stroke-linecap="butt" fill-rule="nonzero" stroke-width="1px" stroke-miterlimit="4" stroke-dasharray="none" stroke-linejoin="miter" fill-opacity="1" stroke-opacity="1" stroke="none" fill="#000000" d="M86.068,28.599L126.235,28.599L126.235,120.48L86.068,120.48L86.068,109.003L97.544,109.003L97.544,97.481L86.068,97.481L86.068,91.852L114.759,91.852L114.759,57.29L86.068,57.29L86.068,51.575L97.544,51.575L97.544,40.145L86.068,40.145ZM103.282,109.003L114.759,109.003L114.759,97.481L103.282,97.481ZM103.213,51.575L114.759,51.575L114.759,40.145L103.213,40.145ZM103.213,51.575"/>
</g>
  <g id="Bold-L" transform="matrix(1.0,0.0,0.0,1.0,2272.4014018110793,1447.229036665483)">  <path stroke-linecap="butt" fill-rule="nonzero" stroke-width="1px" fill-opacity="1" stroke-linejoin="miter" stroke-dasharray="none" stroke-opacity="1" fill="#000000" stroke="none" stroke-miterlimit="4" d="M68.95,11.476C72.101,11.476,74.689,14.059,74.689,17.215L74.689,126.149C74.689,129.305,72.101,131.887,68.95,131.887C65.794,131.887,63.212,129.305,63.212,126.149L63.212,114.741L11.476,114.741L11.476,22.861L63.212,22.861L63.212,17.215C63.212,14.059,65.794,11.476,68.95,11.476ZM22.953,85.958L63.212,85.958L63.212,51.489L22.953,51.489ZM40.168,45.814L51.667,45.814L51.667,34.337L40.168,34.337ZM22.953,103.196L34.498,103.196L34.498,91.766L22.953,91.766ZM22.953,45.814L34.429,45.814L34.429,34.337L22.953,34.337ZM40.168,103.196L51.644,103.196L51.644,91.766L40.168,91.766ZM57.382,45.814L63.212,45.814L63.212,34.337L57.382,34.337ZM57.382,103.196L63.212,103.196L63.212,91.766L57.382,91.766ZM57.382,103.196"/>
  <path stroke-linecap="butt" stroke-opacity="1" fill-rule="nonzero" fill="#000000" stroke="none" stroke-linejoin="miter" stroke-miterlimit="4" fill-opacity="1" stroke-dasharray="none" stroke-width="1px" d="M86.068,28.599L126.235,28.599L126.235,120.48L86.068,120.48L86.068,109.003L97.544,109.003L97.544,97.481L86.068,97.481L86.068,91.852L114.759,91.852L114.759,57.29L86.068,57.29L86.068,51.575L97.544,51.575L97.544,40.145L86.068,40.145ZM103.282,109.003L114.759,109.003L114.759,97.481L103.282,97.481ZM103.213,51.575L114.759,51.575L114.759,40.145L103.213,40.145ZM103.213,51.575"/>
</g>
  <g id="Semibold-L" transform="matrix(1.0,0.0,0.0,1.0,1975.6914018110795,1447.229036665483)">  <path stroke-linecap="butt" stroke-miterlimit="4" stroke-width="1px" stroke-opacity="1" fill-rule="nonzero" stroke-dasharray="none" stroke-linejoin="miter" stroke="none" fill="#000000" fill-opacity="1" d="M68.95,11.476C72.101,11.476,74.689,14.059,74.689,17.215L74.689,126.149C74.689,129.305,72.101,131.887,68.95,131.887C65.794,131.887,63.212,129.305,63.212,126.149L63.212,114.741L11.476,114.741L11.476,22.861L63.212,22.861L63.212,17.215C63.212,14.059,65.794,11.476,68.95,11.476ZM22.953,85.958L63.212,85.958L63.212,51.489L22.953,51.489ZM40.168,45.814L51.667,45.814L51.667,34.337L40.168,34.337ZM22.953,103.196L34.498,103.196L34.498,91.766L22.953,91.766ZM22.953,45.814L34.429,45.814L34.429,34.337L22.953,34.337ZM40.168,103.196L51.644,103.196L51.644,91.766L40.168,91.766ZM57.382,45.814L63.212,45.814L63.212,34.337L57.382,34.337ZM57.382,103.196L63.212,103.196L63.212,91.766L57.382,91.766ZM57.382,103.196"/>
  <path stroke-opacity="1" fill-rule="nonzero" fill-opacity="1" stroke="none" fill="#000000" stroke-linejoin="miter" stroke-width="1px" stroke-miterlimit="4" stroke-linecap="butt" stroke-dasharray="none" d="M86.068,28.599L126.235,28.599L126.235,120.48L86.068,120.48L86.068,109.003L97.544,109.003L97.544,97.481L86.068,97.481L86.068,91.852L114.759,91.852L114.759,57.29L86.068,57.29L86.068,51.575L97.544,51.575L97.544,40.145L86.068,40.145ZM103.282,109.003L114.759,109.003L114.759,97.481L103.282,97.481ZM103.213,51.575L114.759,51.575L114.759,40.145L103.213,40.145ZM103.213,51.575"/>
</g>
  <g id="Medium-L" transform="matrix(1.0,0.0,0.0,1.0,1678.9814018110794,1447.229036665483)">  <path fill="#000000" fill-opacity="1" stroke="none" stroke-linejoin="miter" fill-rule="nonzero" stroke-linecap="butt" stroke-opacity="1" stroke-width="1px" stroke-dasharray="none" stroke-miterlimit="4" d="M68.95,11.476C72.101,11.476,74.689,14.059,74.689,17.215L74.689,126.149C74.689,129.305,72.101,131.887,68.95,131.887C65.794,131.887,63.212,129.305,63.212,126.149L63.212,114.741L11.476,114.741L11.476,22.861L63.212,22.861L63.212,17.215C63.212,14.059,65.794,11.476,68.95,11.476ZM22.953,85.958L63.212,85.958L63.212,51.489L22.953,51.489ZM40.168,45.814L51.667,45.814L51.667,34.337L40.168,34.337ZM22.953,103.196L34.498,103.196L34.498,91.766L22.953,91.766ZM22.953,45.814L34.429,45.814L34.429,34.337L22.953,34.337ZM40.168,103.196L51.644,103.196L51.644,91.766L40.168,91.766ZM57.382,45.814L63.212,45.814L63.212,34.337L57.382,34.337ZM57.382,103.196L63.212,103.196L63.212,91.766L57.382,91.766ZM57.382,103.196"/>
  <path fill="#000000" stroke-miterlimit="4" stroke-linecap="butt" stroke-dasharray="none" fill-opacity="1" stroke-opacity="1" stroke-linejoin="miter" stroke="none" fill-rule="nonzero" stroke-width="1px" d="M86.068,28.599L126.235,28.599L126.235,120.48L86.068,120.48L86.068,109.003L97.544,109.003L97.544,97.481L86.068,97.481L86.068,91.852L114.759,91.852L114.759,57.29L86.068,57.29L86.068,51.575L97.544,51.575L97.544,40.145L86.068,40.145ZM103.282,109.003L114.759,109.003L114.759,97.481L103.282,97.481ZM103.213,51.575L114.759,51.575L114.759,40.145L103.213,40.145ZM103.213,51.575"/>
</g>
  <g id="Regular-L" transform="matrix(1.0,0.0,0.0,1.0,1382.2714018110794,1447.229036665483)">  <path stroke-width="1px" stroke-dasharray="none" fill-opacity="1" stroke-opacity="1" stroke="none" fill="#000000" stroke-miterlimit="4" stroke-linecap="butt" fill-rule="nonzero" stroke-linejoin="miter" d="M68.95,11.476C72.101,11.476,74.689,14.059,74.689,17.215L74.689,126.149C74.689,129.305,72.101,131.887,68.95,131.887C65.794,131.887,63.212,129.305,63.212,126.149L63.212,114.741L11.476,114.741L11.476,22.861L63.212,22.861L63.212,17.215C63.212,14.059,65.794,11.476,68.95,11.476ZM22.953,85.958L63.212,85.958L63.212,51.489L22.953,51.489ZM40.168,45.814L51.667,45.814L51.667,34.337L40.168,34.337ZM22.953,103.196L34.498,103.196L34.498,91.766L22.953,91.766ZM22.953,45.814L34.429,45.814L34.429,34.337L22.953,34.337ZM40.168,103.196L51.644,103.196L51.644,91.766L40.168,91.766ZM57.382,45.814L63.212,45.814L63.212,34.337L57.382,34.337ZM57.382,103.196L63.212,103.196L63.212,91.766L57.382,91.766ZM57.382,103.196"/>
  <path fill-rule="nonzero" stroke-linejoin="miter" stroke-width="1px" stroke="none" fill="#000000" stroke-linecap="butt" stroke-dasharray="none" fill-opacity="1" stroke-opacity="1" stroke-miterlimit="4" d="M86.068,28.599L126.235,28.599L126.235,120.48L86.068,120.48L86.068,109.003L97.544,109.003L97.544,97.481L86.068,97.481L86.068,91.852L114.759,91.852L114.759,57.29L86.068,57.29L86.068,51.575L97.544,51.575L97.544,40.145L86.068,40.145ZM103.282,109.003L114.759,109.003L114.759,97.481L103.282,97.481ZM103.213,51.575L114.759,51.575L114.759,40.145L103.213,40.145ZM103.213,51.575"/>
</g>
  <g id="Light-L" transform="matrix(1.0,0.0,0.0,1.0,1085.5614018110796,1447.229036665483)">  <path fill-opacity="1" stroke="none" stroke-linejoin="miter" stroke-opacity="1" stroke-miterlimit="4" stroke-width="1px" stroke-dasharray="none" fill="#000000" fill-rule="nonzero" stroke-linecap="butt" d="M68.95,11.476C72.101,11.476,74.689,14.059,74.689,17.215L74.689,126.149C74.689,129.305,72.101,131.887,68.95,131.887C65.794,131.887,63.212,129.305,63.212,126.149L63.212,114.741L11.476,114.741L11.476,22.861L63.212,22.861L63.212,17.215C63.212,14.059,65.794,11.476,68.95,11.476ZM22.953,85.958L63.212,85.958L63.212,51.489L22.953,51.489ZM40.168,45.814L51.667,45.814L51.667,34.337L40.168,34.337ZM22.953,103.196L34.498,103.196L34.498,91.766L22.953,91.766ZM22.953,45.814L34.429,45.814L34.429,34.337L22.953,34.337ZM40.168,103.196L51.644,103.196L51.644,91.766L40.168,91.766ZM57.382,45.814L63.212,45.814L63.212,34.337L57.382,34.337ZM57.382,103.196L63.212,103.196L63.212,91.766L57.382,91.766ZM57.382,103.196"/>
  <path fill="#000000" stroke="none" stroke-width="1px" stroke-linecap="butt" stroke-miterlimit="4" fill-rule="nonzero" fill-opacity="1" stroke-opacity="1" stroke-dasharray="none" stroke-linejoin="miter" d="M86.068,28.599L126.235,28.599L126.235,120.48L86.068,120.48L86.068,109.003L97.544,109.003L97.544,97.481L86.068,97.481L86.068,91.852L114.759,91.852L114.759,57.29L86.068,57.29L86.068,51.575L97.544,51.575L97.544,40.145L86.068,40.145ZM103.282,109.003L114.759,109.003L114.759,97.481L103.282,97.481ZM103.213,51.575L114.759,51.575L114.759,40.145L103.213,40.145ZM103.213,51.575"/>
</g>
  <g id="Thin-L" transform="matrix(1.0,0.0,0.0,1.0,788.8514018110795,1447.229036665483)">  <path stroke-linecap="butt" stroke-opacity="1" fill-rule="nonzero" stroke-linejoin="miter" fill="#000000" stroke-miterlimit="4" stroke-dasharray="none" stroke-width="1px" stroke="none" fill-opacity="1" d="M68.95,11.476C72.101,11.476,74.689,14.059,74.689,17.215L74.689,126.149C74.689,129.305,72.101,131.887,68.95,131.887C65.794,131.887,63.212,129.305,63.212,126.149L63.212,114.741L11.476,114.741L11.476,22.861L63.212,22.861L63.212,17.215C63.212,14.059,65.794,11.476,68.95,11.476ZM22.953,85.958L63.212,85.958L63.212,51.489L22.953,51.489ZM40.168,45.814L51.667,45.814L51.667,34.337L40.168,34.337ZM22.953,103.196L34.498,103.196L34.498,91.766L22.953,91.766ZM22.953,45.814L34.429,45.814L34.429,34.337L22.953,34.337ZM40.168,103.196L51.644,103.196L51.644,91.766L40.168,91.766ZM57.382,45.814L63.212,45.814L63.212,34.337L57.382,34.337ZM57.382,103.196L63.212,103.196L63.212,91.766L57.382,91.766ZM57.382,103.196"/>
  <path fill="#000000" stroke-linejoin="miter" fill-rule="nonzero" stroke-width="1px" stroke-opacity="1" fill-opacity="1" stroke-miterlimit="4" stroke-linecap="butt" stroke-dasharray="none" stroke="none" d="M86.068,28.599L126.235,28.599L126.235,120.48L86.068,120.48L86.068,109.003L97.544,109.003L97.544,97.481L86.068,97.481L86.068,91.852L114.759,91.852L114.759,57.29L86.068,57.29L86.068,51.575L97.544,51.575L97.544,40.145L86.068,40.145ZM103.282,109.003L114.759,109.003L114.759,97.481L103.282,97.481ZM103.213,51.575L114.759,51.575L114.759,40.145L103.213,40.145ZM103.213,51.575"/>
</g>
  <g id="Ultralight-L" transform="matrix(1.0,0.0,0.0,1.0,492.14140181107956,1447.229036665483)">  <path fill-opacity="1" fill-rule="nonzero" stroke-dasharray="none" stroke-opacity="1" stroke="none" stroke-linejoin="miter" stroke-width="1px" stroke-linecap="butt" stroke-miterlimit="4" fill="#000000" d="M68.95,11.476C72.101,11.476,74.689,14.059,74.689,17.215L74.689,126.149C74.689,129.305,72.101,131.887,68.95,131.887C65.794,131.887,63.212,129.305,63.212,126.149L63.212,114.741L11.476,114.741L11.476,22.861L63.212,22.861L63.212,17.215C63.212,14.059,65.794,11.476,68.95,11.476ZM22.953,85.958L63.212,85.958L63.212,51.489L22.953,51.489ZM40.168,45.814L51.667,45.814L51.667,34.337L40.168,34.337ZM22.953,103.196L34.498,103.196L34.498,91.766L22.953,91.766ZM22.953,45.814L34.429,45.814L34.429,34.337L22.953,34.337ZM40.168,103.196L51.644,103.196L51.644,91.766L40.168,91.766ZM57.382,45.814L63.212,45.814L63.212,34.337L57.382,34.337ZM57.382,103.196L63.212,103.196L63.212,91.766L57.382,91.766ZM57.382,103.196"/>
  <path fill="#000000" stroke-opacity="1" stroke-linejoin="miter" stroke-width="1px" stroke-miterlimit="4" stroke-dasharray="none" stroke-linecap="butt" stroke="none" fill-opacity="1" fill-rule="nonzero" d="M86.068,28.599L126.235,28.599L126.235,120.48L86.068,120.48L86.068,109.003L97.544,109.003L97.544,97.481L86.068,97.481L86.068,91.852L114.759,91.852L114.759,57.29L86.068,57.29L86.068,51.575L97.544,51.575L97.544,40.145L86.068,40.145ZM103.282,109.003L114.759,109.003L114.759,97.481L103.282,97.481ZM103.213,51.575L114.759,51.575L114.759,40.145L103.213,40.145ZM103.213,51.575"/>
</g>
  <g id="Black-M" transform="matrix(1.0,0.0,0.0,1.0,2881.301241714015,1033.761505681818)">  <path stroke-miterlimit="4" stroke-dasharray="none" stroke-opacity="1" fill="#000000" stroke-linejoin="miter" fill-opacity="1" stroke-linecap="butt" fill-rule="nonzero" stroke="none" stroke-width="1px" d="M53.45,8.896C55.892,8.896,57.898,10.898,57.898,13.345L57.898,97.79C57.898,100.236,55.892,102.238,53.45,102.238C51.003,102.238,49.002,100.236,49.002,97.79L49.002,88.947L8.896,88.947L8.896,17.722L49.002,17.722L49.002,13.345C49.002,10.898,51.003,8.896,53.45,8.896ZM17.793,66.634L49.002,66.634L49.002,39.914L17.793,39.914ZM31.138,35.515L40.052,35.515L40.052,26.618L31.138,26.618ZM17.793,79.997L26.743,79.997L26.743,71.136L17.793,71.136ZM17.793,35.515L26.689,35.515L26.689,26.618L17.793,26.618ZM31.138,79.997L40.034,79.997L40.034,71.136L31.138,71.136ZM44.482,35.515L49.002,35.515L49.002,26.618L44.482,26.618ZM44.482,79.997L49.002,79.997L49.002,71.136L44.482,71.136ZM44.482,79.997"/>
  <path stroke-miterlimit="4" stroke-linejoin="miter" fill="#000000" fill-rule="nonzero" stroke-width="1px" stroke-dasharray="none" stroke-linecap="butt" stroke="none" fill-opacity="1" stroke-opacity="1" d="M66.719,22.17L97.857,22.17L97.857,93.395L66.719,93.395L66.719,84.499L75.615,84.499L75.615,75.567L66.719,75.567L66.719,71.203L88.96,71.203L88.96,44.411L66.719,44.411L66.719,39.981L75.615,39.981L75.615,31.12L66.719,31.12ZM80.064,84.499L88.96,84.499L88.96,75.567L80.064,75.567ZM80.01,39.981L88.96,39.981L88.96,31.12L80.01,31.12ZM80.01,39.981"/>
</g>
  <g id="Heavy-M" transform="matrix(1.0,0.0,0.0,1.0,2584.591241714015,1033.761505681818)">  <path stroke-opacity="1" stroke-width="1px" stroke-linecap="butt" stroke="none" stroke-linejoin="miter" stroke-dasharray="none" stroke-miterlimit="4" fill-rule="nonzero" fill-opacity="1" fill="#000000" d="M53.45,8.896C55.892,8.896,57.898,10.898,57.898,13.345L57.898,97.79C57.898,100.236,55.892,102.238,53.45,102.238C51.003,102.238,49.002,100.236,49.002,97.79L49.002,88.947L8.896,88.947L8.896,17.722L49.002,17.722L49.002,13.345C49.002,10.898,51.003,8.896,53.45,8.896ZM17.793,66.634L49.002,66.634L49.002,39.914L17.793,39.914ZM31.138,35.515L40.052,35.515L40.052,26.618L31.138,26.618ZM17.793,79.997L26.743,79.997L26.743,71.136L17.793,71.136ZM17.793,35.515L26.689,35.515L26.689,26.618L17.793,26.618ZM31.138,79.997L40.034,79.997L40.034,71.136L31.138,71.136ZM44.482,35.515L49.002,35.515L49.002,26.618L44.482,26.618ZM44.482,79.997L49.002,79.997L49.002,71.136L44.482,71.136ZM44.482,79.997"/>
  <path stroke-linecap="butt" fill-rule="nonzero" stroke-width="1px" stroke-miterlimit="4" stroke-dasharray="none" stroke-linejoin="miter" fill-opacity="1" stroke-opacity="1" stroke="none" fill="#000000" d="M66.719,22.17L97.857,22.17L97.857,93.395L66.719,93.395L66.719,84.499L75.615,84.499L75.615,75.567L66.719,75.567L66.719,71.203L88.96,71.203L88.96,44.411L66.719,44.411L66.719,39.981L75.615,39.981L75.615,31.12L66.719,31.12ZM80.064,84.499L88.96,84.499L88.96,75.567L80.064,75.567ZM80.01,39.981L88.96,39.981L88.96,31.12L80.01,31.12ZM80.01,39.981"/>
</g>
  <g id="Bold-M" transform="matrix(1.0,0.0,0.0,1.0,2287.881241714015,1033.761505681818)">  <path stroke-linecap="butt" fill-rule="nonzero" stroke-width="1px" fill-opacity="1" stroke-linejoin="miter" stroke-dasharray="none" stroke-opacity="1" fill="#000000" stroke="none" stroke-miterlimit="4" d="M53.45,8.896C55.892,8.896,57.898,10.898,57.898,13.345L57.898,97.79C57.898,100.236,55.892,102.238,53.45,102.238C51.003,102.238,49.002,100.236,49.002,97.79L49.002,88.947L8.896,88.947L8.896,17.722L49.002,17.722L49.002,13.345C49.002,10.898,51.003,8.896,53.45,8.896ZM17.793,66.634L49.002,66.634L49.002,39.914L17.793,39.914ZM31.138,35.515L40.052,35.515L40.052,26.618L31.138,26.618ZM17.793,79.997L26.743,79.997L26.743,71.136L17.793,71.136ZM17.793,35.515L26.689,35.515L26.689,26.618L17.793,26.618ZM31.138,79.997L40.034,79.997L40.034,71.136L31.138,71.136ZM44.482,35.515L49.002,35.515L49.002,26.618L44.482,26.618ZM44.482,79.997L49.002,79.997L49.002,71.136L44.482,71.136ZM44.482,79.997"/>
  <path stroke-linecap="butt" stroke-opacity="1" fill-rule="nonzero" fill="#000000" stroke="none" stroke-linejoin="miter" stroke-miterlimit="4" fill-opacity="1" stroke-dasharray="none" stroke-width="1px" d="M66.719,22.17L97.857,22.17L97.857,93.395L66.719,93.395L66.719,84.499L75.615,84.499L75.615,75.567L66.719,75.567L66.719,71.203L88.96,71.203L88.96,44.411L66.719,44.411L66.719,39.981L75.615,39.981L75.615,31.12L66.719,31.12ZM80.064,84.499L88.96,84.499L88.96,75.567L80.064,75.567ZM80.01,39.981L88.96,39.981L88.96,31.12L80.01,31.12ZM80.01,39.981"/>
</g>
  <g id="Semibold-M" transform="matrix(1.0,0.0,0.0,1.0,1991.1712417140152,1033.761505681818)">  <path stroke-linecap="butt" stroke-miterlimit="4" stroke-width="1px" stroke-opacity="1" fill-rule="nonzero" stroke-dasharray="none" stroke-linejoin="miter" stroke="none" fill="#000000" fill-opacity="1" d="M53.45,8.896C55.892,8.896,57.898,10.898,57.898,13.345L57.898,97.79C57.898,100.236,55.892,102.238,53.45,102.238C51.003,102.238,49.002,100.236,49.002,97.79L49.002,88.947L8.896,88.947L8.896,17.722L49.002,17.722L49.002,13.345C49.002,10.898,51.003,8.896,53.45,8.896ZM17.793,66.634L49.002,66.634L49.002,39.914L17.793,39.914ZM31.138,35.515L40.052,35.515L40.052,26.618L31.138,26.618ZM17.793,79.997L26.743,79.997L26.743,71.136L17.793,71.136ZM17.793,35.515L26.689,35.515L26.689,26.618L17.793,26.618ZM31.138,79.997L40.034,79.997L40.034,71.136L31.138,71.136ZM44.482,35.515L49.002,35.515L49.002,26.618L44.482,26.618ZM44.482,79.997L49.002,79.997L49.002,71.136L44.482,71.136ZM44.482,79.997"/>
  <path stroke-opacity="1" fill-rule="nonzero" fill-opacity="1" stroke="none" fill="#000000" stroke-linejoin="miter" stroke-width="1px" stroke-miterlimit="4" stroke-linecap="butt" stroke-dasharray="none" d="M66.719,22.17L97.857,22.17L97.857,93.395L66.719,93.395L66.719,84.499L75.615,84.499L75.615,75.567L66.719,75.567L66.719,71.203L88.96,71.203L88.96,44.411L66.719,44.411L66.719,39.981L75.615,39.981L75.615,31.12L66.719,31.12ZM80.064,84.499L88.96,84.499L88.96,75.567L80.064,75.567ZM80.01,39.981L88.96,39.981L88.96,31.12L80.01,31.12ZM80.01,39.981"/>
</g>
  <g id="Medium-M" transform="matrix(1.0,0.0,0.0,1.0,1694.4612417140152,1033.761505681818)">  <path fill="#000000" fill-opacity="1" stroke="none" stroke-linejoin="miter" fill-rule="nonzero" stroke-linecap="butt" stroke-opacity="1" stroke-width="1px" stroke-dasharray="none" stroke-miterlimit="4" d="M53.45,8.896C55.892,8.896,57.898,10.898,57.898,13.345L57.898,97.79C57.898,100.236,55.892,102.238,53.45,102.238C51.003,102.238,49.002,100.236,49.002,97.79L49.002,88.947L8.896,88.947L8.896,17.722L49.002,17.722L49.002,13.345C49.002,10.898,51.003,8.896,53.45,8.896ZM17.793,66.634L49.002,66.634L49.002,39.914L17.793,39.914ZM31.138,35.515L40.052,35.515L40.052,26.618L31.138,26.618ZM17.793,79.997L26.743,79.997L26.743,71.136L17.793,71.136ZM17.793,35.515L26.689,35.515L26.689,26.618L17.793,26.618ZM31.138,79.997L40.034,79.997L40.034,71.136L31.138,71.136ZM44.482,35.515L49.002,35.515L49.002,26.618L44.482,26.618ZM44.482,79.997L49.002,79.997L49.002,71.136L44.482,71.136ZM44.482,79.997"/>
  <path fill="#000000" stroke-miterlimit="4" stroke-linecap="butt" stroke-dasharray="none" fill-opacity="1" stroke-opacity="1" stroke-linejoin="miter" stroke="none" fill-rule="nonzero" stroke-width="1px" d="M66.719,22.17L97.857,22.17L97.857,93.395L66.719,93.395L66.719,84.499L75.615,84.499L75.615,75.567L66.719,75.567L66.719,71.203L88.96,71.203L88.96,44.411L66.719,44.411L66.719,39.981L75.615,39.981L75.615,31.12L66.719,31.12ZM80.064,84.499L88.96,84.499L88.96,75.567L80.064,75.567ZM80.01,39.981L88.96,39.981L88.96,31.12L80.01,31.12ZM80.01,39.981"/>
</g>
  <g id="Regular-M" transform="matrix(1.0,0.0,0.0,1.0,1397.7512417140151,1033.761505681818)">  <path stroke-width="1px" stroke-dasharray="none" fill-opacity="1" stroke-opacity="1" stroke="none" fill="#000000" stroke-miterlimit="4" stroke-linecap="butt" fill-rule="nonzero" stroke-linejoin="miter" d="M53.45,8.896C55.892,8.896,57.898,10.898,57.898,13.345L57.898,97.79C57.898,100.236,55.892,102.238,53.45,102.238C51.003,102.238,49.002,100.236,49.002,97.79L49.002,88.947L8.896,88.947L8.896,17.722L49.002,17.722L49.002,13.345C49.002,10.898,51.003,8.896,53.45,8.896ZM17.793,66.634L49.002,66.634L49.002,39.914L17.793,39.914ZM31.138,35.515L40.052,35.515L40.052,26.618L31.138,26.618ZM17.793,79.997L26.743,79.997L26.743,71.136L17.793,71.136ZM17.793,35.515L26.689,35.515L26.689,26.618L17.793,26.618ZM31.138,79.997L40.034,79.997L40.034,71.136L31.138,71.136ZM44.482,35.515L49.002,35.515L49.002,26.618L44.482,26.618ZM44.482,79.997L49.002,79.997L49.002,71.136L44.482,71.136ZM44.482,79.997"/>
  <path fill-rule="nonzero" stroke-linejoin="miter" stroke-width="1px" stroke="none" fill="#000000" stroke-linecap="butt" stroke-dasharray="none" fill-opacity="1" stroke-opacity="1" stroke-miterlimit="4" d="M66.719,22.17L97.857,22.17L97.857,93.395L66.719,93.395L66.719,84.499L75.615,84.499L75.615,75.567L66.719,75.567L66.719,71.203L88.96,71.203L88.96,44.411L66.719,44.411L66.719,39.981L75.615,39.981L75.615,31.12L66.719,31.12ZM80.064,84.499L88.96,84.499L88.96,75.567L80.064,75.567ZM80.01,39.981L88.96,39.981L88.96,31.12L80.01,31.12ZM80.01,39.981"/>
</g>
  <g id="Light-M" transform="matrix(1.0,0.0,0.0,1.0,1101.0412417140153,1033.761505681818)">  <path fill-opacity="1" stroke="none" stroke-linejoin="miter" stroke-opacity="1" stroke-miterlimit="4" stroke-width="1px" stroke-dasharray="none" fill="#000000" fill-rule="nonzero" stroke-linecap="butt" d="M53.45,8.896C55.892,8.896,57.898,10.898,57.898,13.345L57.898,97.79C57.898,100.236,55.892,102.238,53.45,102.238C51.003,102.238,49.002,100.236,49.002,97.79L49.002,88.947L8.896,88.947L8.896,17.722L49.002,17.722L49.002,13.345C49.002,10.898,51.003,8.896,53.45,8.896ZM17.793,66.634L49.002,66.634L49.002,39.914L17.793,39.914ZM31.138,35.515L40.052,35.515L40.052,26.618L31.138,26.618ZM17.793,79.997L26.743,79.997L26.743,71.136L17.793,71.136ZM17.793,35.515L26.689,35.515L26.689,26.618L17.793,26.618ZM31.138,79.997L40.034,79.997L40.034,71.136L31.138,71.136ZM44.482,35.515L49.002,35.515L49.002,26.618L44.482,26.618ZM44.482,79.997L49.002,79.997L49.002,71.136L44.482,71.136ZM44.482,79.997"/>
  <path fill="#000000" stroke="none" stroke-width="1px" stroke-linecap="butt" stroke-miterlimit="4" fill-rule="nonzero" fill-opacity="1" stroke-opacity="1" stroke-dasharray="none" stroke-linejoin="miter" d="M66.719,22.17L97.857,22.17L97.857,93.395L66.719,93.395L66.719,84.499L75.615,84.499L75.615,75.567L66.719,75.567L66.719,71.203L88.96,71.203L88.96,44.411L66.719,44.411L66.719,39.981L75.615,39.981L75.615,31.12L66.719,31.12ZM80.064,84.499L88.96,84.499L88.96,75.567L80.064,75.567ZM80.01,39.981L88.96,39.981L88.96,31.12L80.01,31.12ZM80.01,39.981"/>
</g>
  <g id="Thin-M" transform="matrix(1.0,0.0,0.0,1.0,804.3312417140152,1033.761505681818)">  <path stroke-linecap="butt" stroke-opacity="1" fill-rule="nonzero" stroke-linejoin="miter" fill="#000000" stroke-miterlimit="4" stroke-dasharray="none" stroke-width="1px" stroke="none" fill-opacity="1" d="M53.45,8.896C55.892,8.896,57.898,10.898,57.898,13.345L57.898,97.79C57.898,100.236,55.892,102.238,53.45,102.238C51.003,102.238,49.002,100.236,49.002,97.79L49.002,88.947L8.896,88.947L8.896,17.722L49.002,17.722L49.002,13.345C49.002,10.898,51.003,8.896,53.45,8.896ZM17.793,66.634L49.002,66.634L49.002,39.914L17.793,39.914ZM31.138,35.515L40.052,35.515L40.052,26.618L31.138,26.618ZM17.793,79.997L26.743,79.997L26.743,71.136L17.793,71.136ZM17.793,35.515L26.689,35.515L26.689,26.618L17.793,26.618ZM31.138,79.997L40.034,79.997L40.034,71.136L31.138,71.136ZM44.482,35.515L49.002,35.515L49.002,26.618L44.482,26.618ZM44.482,79.997L49.002,79.997L49.002,71.136L44.482,71.136ZM44.482,79.997"/>
  <path fill="#000000" stroke-linejoin="miter" fill-rule="nonzero" stroke-width="1px" stroke-opacity="1" fill-opacity="1" stroke-miterlimit="4" stroke-linecap="butt" stroke-dasharray="none" stroke="none" d="M66.719,22.17L97.857,22.17L97.857,93.395L66.719,93.395L66.719,84.499L75.615,84.499L75.615,75.567L66.719,75.567L66.719,71.203L88.96,71.203L88.96,44.411L66.719,44.411L66.719,39.981L75.615,39.981L75.615,31.12L66.719,31.12ZM80.064,84.499L88.96,84.499L88.96,75.567L80.064,75.567ZM80.01,39.981L88.96,39.981L88.96,31.12L80.01,31.12ZM80.01,39.981"/>
</g>
  <g id="Ultralight-M" transform="matrix(1.0,0.0,0.0,1.0,507.6212417140151,1033.761505681818)">  <path fill-opacity="1" fill-rule="nonzero" stroke-dasharray="none" stroke-opacity="1" stroke="none" stroke-linejoin="miter" stroke-width="1px" stroke-linecap="butt" stroke-miterlimit="4" fill="#000000" d="M53.45,8.896C55.892,8.896,57.898,10.898,57.898,13.345L57.898,97.79C57.898,100.236,55.892,102.238,53.45,102.238C51.003,102.238,49.002,100.236,49.002,97.79L49.002,88.947L8.896,88.947L8.896,17.722L49.002,17.722L49.002,13.345C49.002,10.898,51.003,8.896,53.45,8.896ZM17.793,66.634L49.002,66.634L49.002,39.914L17.793,39.914ZM31.138,35.515L40.052,35.515L40.052,26.618L31.138,26.618ZM17.793,79.997L26.743,79.997L26.743,71.136L17.793,71.136ZM17.793,35.515L26.689,35.515L26.689,26.618L17.793,26.618ZM31.138,79.997L40.034,79.997L40.034,71.136L31.138,71.136ZM44.482,35.515L49.002,35.515L49.002,26.618L44.482,26.618ZM44.482,79.997L49.002,79.997L49.002,71.136L44.482,71.136ZM44.482,79.997"/>
  <path fill="#000000" stroke-opacity="1" stroke-linejoin="miter" stroke-width="1px" stroke-miterlimit="4" stroke-dasharray="none" stroke-linecap="butt" stroke="none" fill-opacity="1" fill-rule="nonzero" d="M66.719,22.17L97.857,22.17L97.857,93.395L66.719,93.395L66.719,84.499L75.615,84.499L75.615,75.567L66.719,75.567L66.719,71.203L88.96,71.203L88.96,44.411L66.719,44.411L66.719,39.981L75.615,39.981L75.615,31.12L66.719,31.12ZM80.064,84.499L88.96,84.499L88.96,75.567L80.064,75.567ZM80.01,39.981L88.96,39.981L88.96,31.12L80.01,31.12ZM80.01,39.981"/>
</g>
  <g id="Black-S" transform="matrix(1.0,0.0,0.0,1.0,2892.884432262074,616.1323531871449)">  <path stroke-miterlimit="4" stroke-dasharray="none" stroke-opacity="1" fill="#000000" stroke-linejoin="miter" fill-opacity="1" stroke-linecap="butt" fill-rule="nonzero" stroke="none" stroke-width="1px" d="M41.851,6.966C43.763,6.966,45.334,8.533,45.334,10.449L45.334,76.569C45.334,78.485,43.763,80.052,41.851,80.052C39.936,80.052,38.368,78.485,38.368,76.569L38.368,69.645L6.966,69.645L6.966,13.876L38.368,13.876L38.368,10.449C38.368,8.533,39.936,6.966,41.851,6.966ZM13.932,52.175L38.368,52.175L38.368,31.253L13.932,31.253ZM24.381,27.808L31.361,27.808L31.361,20.842L24.381,20.842ZM13.932,62.638L20.94,62.638L20.94,55.7L13.932,55.7ZM13.932,27.808L20.898,27.808L20.898,20.842L13.932,20.842ZM24.381,62.638L31.347,62.638L31.347,55.7L24.381,55.7ZM34.83,27.808L38.368,27.808L38.368,20.842L34.83,20.842ZM34.83,62.638L38.368,62.638L38.368,55.7L34.83,55.7ZM34.83,62.638"/>
  <path stroke-miterlimit="4" stroke-linejoin="miter" fill="#000000" fill-rule="nonzero" stroke-width="1px" stroke-dasharray="none" stroke-linecap="butt" stroke="none" fill-opacity="1" stroke-opacity="1" d="M52.241,17.359L76.622,17.359L76.622,73.128L52.241,73.128L52.241,66.162L59.207,66.162L59.207,59.169L52.241,59.169L52.241,55.752L69.656,55.752L69.656,34.774L52.241,34.774L52.241,31.305L59.207,31.305L59.207,24.367L52.241,24.367ZM62.69,66.162L69.656,66.162L69.656,59.169L62.69,59.169ZM62.648,31.305L69.656,31.305L69.656,24.367L62.648,24.367ZM62.648,31.305"/>
</g>
  <g id="Heavy-S" transform="matrix(1.0,0.0,0.0,1.0,2596.174432262074,616.1323531871449)">  <path stroke-opacity="1" stroke-width="1px" stroke-linecap="butt" stroke="none" stroke-linejoin="miter" stroke-dasharray="none" stroke-miterlimit="4" fill-rule="nonzero" fill-opacity="1" fill="#000000" d="M41.851,6.966C43.763,6.966,45.334,8.533,45.334,10.449L45.334,76.569C45.334,78.485,43.763,80.052,41.851,80.052C39.936,80.052,38.368,78.485,38.368,76.569L38.368,69.645L6.966,69.645L6.966,13.876L38.368,13.876L38.368,10.449C38.368,8.533,39.936,6.966,41.851,6.966ZM13.932,52.175L38.368,52.175L38.368,31.253L13.932,31.253ZM24.381,27.808L31.361,27.808L31.361,20.842L24.381,20.842ZM13.932,62.638L20.94,62.638L20.94,55.7L13.932,55.7ZM13.932,27.808L20.898,27.808L20.898,20.842L13.932,20.842ZM24.381,62.638L31.347,62.638L31.347,55.7L24.381,55.7ZM34.83,27.808L38.368,27.808L38.368,20.842L34.83,20.842ZM34.83,62.638L38.368,62.638L38.368,55.7L34.83,55.7ZM34.83,62.638"/>
  <path stroke-linecap="butt" fill-rule="nonzero" stroke-width="1px" stroke-miterlimit="4" stroke-dasharray="none" stroke-linejoin="miter" fill-opacity="1" stroke-opacity="1" stroke="none" fill="#000000" d="M52.241,17.359L76.622,17.359L76.622,73.128L52.241,73.128L52.241,66.162L59.207,66.162L59.207,59.169L52.241,59.169L52.241,55.752L69.656,55.752L69.656,34.774L52.241,34.774L52.241,31.305L59.207,31.305L59.207,24.367L52.241,24.367ZM62.69,66.162L69.656,66.162L69.656,59.169L62.69,59.169ZM62.648,31.305L69.656,31.305L69.656,24.367L62.648,24.367ZM62.648,31.305"/>
</g>
  <g id="Bold-S" transform="matrix(1.0,0.0,0.0,1.0,2299.464432262074,616.1323531871449)">  <path stroke-linecap="butt" fill-rule="nonzero" stroke-width="1px" fill-opacity="1" stroke-linejoin="miter" stroke-dasharray="none" stroke-opacity="1" fill="#000000" stroke="none" stroke-miterlimit="4" d="M41.851,6.966C43.763,6.966,45.334,8.533,45.334,10.449L45.334,76.569C45.334,78.485,43.763,80.052,41.851,80.052C39.936,80.052,38.368,78.485,38.368,76.569L38.368,69.645L6.966,69.645L6.966,13.876L38.368,13.876L38.368,10.449C38.368,8.533,39.936,6.966,41.851,6.966ZM13.932,52.175L38.368,52.175L38.368,31.253L13.932,31.253ZM24.381,27.808L31.361,27.808L31.361,20.842L24.381,20.842ZM13.932,62.638L20.94,62.638L20.94,55.7L13.932,55.7ZM13.932,27.808L20.898,27.808L20.898,20.842L13.932,20.842ZM24.381,62.638L31.347,62.638L31.347,55.7L24.381,55.7ZM34.83,27.808L38.368,27.808L38.368,20.842L34.83,20.842ZM34.83,62.638L38.368,62.638L38.368,55.7L34.83,55.7ZM34.83,62.638"/>
  <path stroke-linecap="butt" stroke-opacity="1" fill-rule="nonzero" fill="#000000" stroke="none" stroke-linejoin="miter" stroke-miterlimit="4" fill-opacity="1" stroke-dasharray="none" stroke-width="1px" d="M52.241,17.359L76.622,17.359L76.622,73.128L52.241,73.128L52.241,66.162L59.207,66.162L59.207,59.169L52.241,59.169L52.241,55.752L69.656,55.752L69.656,34.774L52.241,34.774L52.241,31.305L59.207,31.305L59.207,24.367L52.241,24.367ZM62.69,66.162L69.656,66.162L69.656,59.169L62.69,59.169ZM62.648,31.305L69.656,31.305L69.656,24.367L62.648,24.367ZM62.648,31.305"/>
</g>
  <g id="Semibold-S" transform="matrix(1.0,0.0,0.0,1.0,2002.7544322620738,616.1323531871449)">  <path stroke-linecap="butt" stroke-miterlimit="4" stroke-width="1px" stroke-opacity="1" fill-rule="nonzero" stroke-dasharray="none" stroke-linejoin="miter" stroke="none" fill="#000000" fill-opacity="1" d="M41.851,6.966C43.763,6.966,45.334,8.533,45.334,10.449L45.334,76.569C45.334,78.485,43.763,80.052,41.851,80.052C39.936,80.052,38.368,78.485,38.368,76.569L38.368,69.645L6.966,69.645L6.966,13.876L38.368,13.876L38.368,10.449C38.368,8.533,39.936,6.966,41.851,6.966ZM13.932,52.175L38.368,52.175L38.368,31.253L13.932,31.253ZM24.381,27.808L31.361,27.808L31.361,20.842L24.381,20.842ZM13.932,62.638L20.94,62.638L20.94,55.7L13.932,55.7ZM13.932,27.808L20.898,27.808L20.898,20.842L13.932,20.842ZM24.381,62.638L31.347,62.638L31.347,55.7L24.381,55.7ZM34.83,27.808L38.368,27.808L38.368,20.842L34.83,20.842ZM34.83,62.638L38.368,62.638L38.368,55.7L34.83,55.7ZM34.83,62.638"/>
  <path stroke-opacity="1" fill-rule="nonzero" fill-opacity="1" stroke="none" fill="#000000" stroke-linejoin="miter" stroke-width="1px" stroke-miterlimit="4" stroke-linecap="butt" stroke-dasharray="none" d="M52.241,17.359L76.622,17.359L76.622,73.128L52.241,73.128L52.241,66.162L59.207,66.162L59.207,59.169L52.241,59.169L52.241,55.752L69.656,55.752L69.656,34.774L52.241,34.774L52.241,31.305L59.207,31.305L59.207,24.367L52.241,24.367ZM62.69,66.162L69.656,66.162L69.656,59.169L62.69,59.169ZM62.648,31.305L69.656,31.305L69.656,24.367L62.648,24.367ZM62.648,31.305"/>
</g>
  <g id="Medium-S" transform="matrix(1.0,0.0,0.0,1.0,1706.0444322620738,616.1323531871449)">  <path fill="#000000" fill-opacity="1" stroke="none" stroke-linejoin="miter" fill-rule="nonzero" stroke-linecap="butt" stroke-opacity="1" stroke-width="1px" stroke-dasharray="none" stroke-miterlimit="4" d="M41.851,6.966C43.763,6.966,45.334,8.533,45.334,10.449L45.334,76.569C45.334,78.485,43.763,80.052,41.851,80.052C39.936,80.052,38.368,78.485,38.368,76.569L38.368,69.645L6.966,69.645L6.966,13.876L38.368,13.876L38.368,10.449C38.368,8.533,39.936,6.966,41.851,6.966ZM13.932,52.175L38.368,52.175L38.368,31.253L13.932,31.253ZM24.381,27.808L31.361,27.808L31.361,20.842L24.381,20.842ZM13.932,62.638L20.94,62.638L20.94,55.7L13.932,55.7ZM13.932,27.808L20.898,27.808L20.898,20.842L13.932,20.842ZM24.381,62.638L31.347,62.638L31.347,55.7L24.381,55.7ZM34.83,27.808L38.368,27.808L38.368,20.842L34.83,20.842ZM34.83,62.638L38.368,62.638L38.368,55.7L34.83,55.7ZM34.83,62.638"/>
  <path fill="#000000" stroke-miterlimit="4" stroke-linecap="butt" stroke-dasharray="none" fill-opacity="1" stroke-opacity="1" stroke-linejoin="miter" stroke="none" fill-rule="nonzero" stroke-width="1px" d="M52.241,17.359L76.622,17.359L76.622,73.128L52.241,73.128L52.241,66.162L59.207,66.162L59.207,59.169L52.241,59.169L52.241,55.752L69.656,55.752L69.656,34.774L52.241,34.774L52.241,31.305L59.207,31.305L59.207,24.367L52.241,24.367ZM62.69,66.162L69.656,66.162L69.656,59.169L62.69,59.169ZM62.648,31.305L69.656,31.305L69.656,24.367L62.648,24.367ZM62.648,31.305"/>
</g>
  <g id="Regular-S" transform="matrix(1.0,0.0,0.0,1.0,1409.3344322620737,616.1323531871449)">  <path stroke-width="1px" stroke-dasharray="none" fill-opacity="1" stroke-opacity="1" stroke="none" fill="#000000" stroke-miterlimit="4" stroke-linecap="butt" fill-rule="nonzero" stroke-linejoin="miter" d="M41.851,6.966C43.763,6.966,45.334,8.533,45.334,10.449L45.334,76.569C45.334,78.485,43.763,80.052,41.851,80.052C39.936,80.052,38.368,78.485,38.368,76.569L38.368,69.645L6.966,69.645L6.966,13.876L38.368,13.876L38.368,10.449C38.368,8.533,39.936,6.966,41.851,6.966ZM13.932,52.175L38.368,52.175L38.368,31.253L13.932,31.253ZM24.381,27.808L31.361,27.808L31.361,20.842L24.381,20.842ZM13.932,62.638L20.94,62.638L20.94,55.7L13.932,55.7ZM13.932,27.808L20.898,27.808L20.898,20.842L13.932,20.842ZM24.381,62.638L31.347,62.638L31.347,55.7L24.381,55.7ZM34.83,27.808L38.368,27.808L38.368,20.842L34.83,20.842ZM34.83,62.638L38.368,62.638L38.368,55.7L34.83,55.7ZM34.83,62.638"/>
  <path fill-rule="nonzero" stroke-linejoin="miter" stroke-width="1px" stroke="none" fill="#000000" stroke-linecap="butt" stroke-dasharray="none" fill-opacity="1" stroke-opacity="1" stroke-miterlimit="4" d="M52.241,17.359L76.622,17.359L76.622,73.128L52.241,73.128L52.241,66.162L59.207,66.162L59.207,59.169L52.241,59.169L52.241,55.752L69.656,55.752L69.656,34.774L52.241,34.774L52.241,31.305L59.207,31.305L59.207,24.367L52.241,24.367ZM62.69,66.162L69.656,66.162L69.656,59.169L62.69,59.169ZM62.648,31.305L69.656,31.305L69.656,24.367L62.648,24.367ZM62.648,31.305"/>
</g>
  <g id="Light-S" transform="matrix(1.0,0.0,0.0,1.0,1112.624432262074,616.1323531871449)">  <path fill-opacity="1" stroke="none" stroke-linejoin="miter" stroke-opacity="1" stroke-miterlimit="4" stroke-width="1px" stroke-dasharray="none" fill="#000000" fill-rule="nonzero" stroke-linecap="butt" d="M41.851,6.966C43.763,6.966,45.334,8.533,45.334,10.449L45.334,76.569C45.334,78.485,43.763,80.052,41.851,80.052C39.936,80.052,38.368,78.485,38.368,76.569L38.368,69.645L6.966,69.645L6.966,13.876L38.368,13.876L38.368,10.449C38.368,8.533,39.936,6.966,41.851,6.966ZM13.932,52.175L38.368,52.175L38.368,31.253L13.932,31.253ZM24.381,27.808L31.361,27.808L31.361,20.842L24.381,20.842ZM13.932,62.638L20.94,62.638L20.94,55.7L13.932,55.7ZM13.932,27.808L20.898,27.808L20.898,20.842L13.932,20.842ZM24.381,62.638L31.347,62.638L31.347,55.7L24.381,55.7ZM34.83,27.808L38.368,27.808L38.368,20.842L34.83,20.842ZM34.83,62.638L38.368,62.638L38.368,55.7L34.83,55.7ZM34.83,62.638"/>
  <path fill="#000000" stroke="none" stroke-width="1px" stroke-linecap="butt" stroke-miterlimit="4" fill-rule="nonzero" fill-opacity="1" stroke-opacity="1" stroke-dasharray="none" stroke-linejoin="miter" d="M52.241,17.359L76.622,17.359L76.622,73.128L52.241,73.128L52.241,66.162L59.207,66.162L59.207,59.169L52.241,59.169L52.241,55.752L69.656,55.752L69.656,34.774L52.241,34.774L52.241,31.305L59.207,31.305L59.207,24.367L52.241,24.367ZM62.69,66.162L69.656,66.162L69.656,59.169L62.69,59.169ZM62.648,31.305L69.656,31.305L69.656,24.367L62.648,24.367ZM62.648,31.305"/>
</g>
  <g id="Thin-S" transform="matrix(1.0,0.0,0.0,1.0,815.9144322620739,616.1323531871449)">  <path stroke-linecap="butt" stroke-opacity="1" fill-rule="nonzero" stroke-linejoin="miter" fill="#000000" stroke-miterlimit="4" stroke-dasharray="none" stroke-width="1px" stroke="none" fill-opacity="1" d="M41.851,6.966C43.763,6.966,45.334,8.533,45.334,10.449L45.334,76.569C45.334,78.485,43.763,80.052,41.851,80.052C39.936,80.052,38.368,78.485,38.368,76.569L38.368,69.645L6.966,69.645L6.966,13.876L38.368,13.876L38.368,10.449C38.368,8.533,39.936,6.966,41.851,6.966ZM13.932,52.175L38.368,52.175L38.368,31.253L13.932,31.253ZM24.381,27.808L31.361,27.808L31.361,20.842L24.381,20.842ZM13.932,62.638L20.94,62.638L20.94,55.7L13.932,55.7ZM13.932,27.808L20.898,27.808L20.898,20.842L13.932,20.842ZM24.381,62.638L31.347,62.638L31.347,55.7L24.381,55.7ZM34.83,27.808L38.368,27.808L38.368,20.842L34.83,20.842ZM34.83,62.638L38.368,62.638L38.368,55.7L34.83,55.7ZM34.83,62.638"/>
  <path fill="#000000" stroke-linejoin="miter" fill-rule="nonzero" stroke-width="1px" stroke-opacity="1" fill-opacity="1" stroke-miterlimit="4" stroke-linecap="butt" stroke-dasharray="none" stroke="none" d="M52.241,17.359L76.622,17.359L76.622,73.128L52.241,73.128L52.241,66.162L59.207,66.162L59.207,59.169L52.241,59.169L52.241,55.752L69.656,55.752L69.656,34.774L52.241,34.774L52.241,31.305L59.207,31.305L59.207,24.367L52.241,24.367ZM62.69,66.162L69.656,66.162L69.656,59.169L62.69,59.169ZM62.648,31.305L69.656,31.305L69.656,24.367L62.648,24.367ZM62.648,31.305"/>
</g>
  <g id="Ultralight-S" transform="matrix(1.0,0.0,0.0,1.0,519.2044322620739,616.1323531871449)">  <path fill-opacity="1" fill-rule="nonzero" stroke-dasharray="none" stroke-opacity="1" stroke="none" stroke-linejoin="miter" stroke-width="1px" stroke-linecap="butt" stroke-miterlimit="4" fill="#000000" d="M41.851,6.966C43.763,6.966,45.334,8.533,45.334,10.449L45.334,76.569C45.334,78.485,43.763,80.052,41.851,80.052C39.936,80.052,38.368,78.485,38.368,76.569L38.368,69.645L6.966,69.645L6.966,13.876L38.368,13.876L38.368,10.449C38.368,8.533,39.936,6.966,41.851,6.966ZM13.932,52.175L38.368,52.175L38.368,31.253L13.932,31.253ZM24.381,27.808L31.361,27.808L31.361,20.842L24.381,20.842ZM13.932,62.638L20.94,62.638L20.94,55.7L13.932,55.7ZM13.932,27.808L20.898,27.808L20.898,20.842L13.932,20.842ZM24.381,62.638L31.347,62.638L31.347,55.7L24.381,55.7ZM34.83,27.808L38.368,27.808L38.368,20.842L34.83,20.842ZM34.83,62.638L38.368,62.638L38.368,55.7L34.83,55.7ZM34.83,62.638"/>
  <path fill="#000000" stroke-opacity="1" stroke-linejoin="miter" stroke-width="1px" stroke-miterlimit="4" stroke-dasharray="none" stroke-linecap="butt" stroke="none" fill-opacity="1" fill-rule="nonzero" d="M52.241,17.359L76.622,17.359L76.622,73.128L52.241,73.128L52.241,66.162L59.207,66.162L59.207,59.169L52.241,59.169L52.241,55.752L69.656,55.752L69.656,34.774L52.241,34.774L52.241,31.305L59.207,31.305L59.207,24.367L52.241,24.367ZM62.69,66.162L69.656,66.162L69.656,59.169L62.69,59.169ZM62.648,31.305L69.656,31.305L69.656,24.367L62.648,24.367ZM62.648,31.305"/>
</g>
 </g>
</svg>
