<?xml version="1.0" encoding="UTF-8"?>
<!-- Generator: CustomSymbols v2.6.1.40 by @serious_bret https://bretlester.com/app_content/CustomSymbols/ -->
<!-- Guides: Left/Right 0.088/0.082 Cap/Base 0.284/0.204 -->
<!-- Settings: RefScale 1.0 Min/Max Stroke Scales 0.5/2.21 -->
<!DOCTYPE svg
PUBLIC "-//W3C//DTD SVG 1.1//EN"
       "http://www.w3.org/Graphics/SVG/1.1/DTD/svg11.dtd">
<svg version="1.1" xmlns="http://www.w3.org/2000/svg" xmlns:xlink="http://www.w3.org/1999/xlink" width="3300" height="2200">
<![CDATA[<svg width="24" height="24" viewBox="0 0 24 24" fill="none" xmlns="http://www.w3.org/2000/svg">
<path fill-rule="evenodd" clip-rule="evenodd" d="M17.7119 2C18.1139 2 18.4545 2.13959 18.7337 2.41876C19.0128 2.69794 19.1524 3.03294 19.1524 3.42379C19.1524 3.8258 19.0128 4.16359 18.7337 4.43719C18.4545 4.71078 18.1139 4.84757 17.7119 4.84757C17.6114 4.84757 17.5081 4.8364 17.402 4.81407C17.2959 4.79174 17.1926 4.75824 17.0921 4.71357L13.5913 8.23116L13.9095 8.66667C14.4344 8.36516 14.9788 8.09715 15.5427 7.86265C16.1066 7.62814 16.6873 7.42993 17.2848 7.26801C17.8822 7.10609 18.4964 6.98046 19.1273 6.89112C19.7582 6.80179 20.4031 6.75712 21.062 6.75712L22 6.79062V8.70017L21.062 8.66667C20.4478 8.66667 19.842 8.71133 19.2446 8.80067C18.6471 8.89001 18.0692 9.01563 17.5109 9.17755C16.9525 9.33948 16.4109 9.54327 15.8861 9.78894C15.3612 10.0346 14.8587 10.3082 14.3786 10.6097C14.3786 11.1346 14.2808 11.6259 14.0854 12.0838C13.89 12.5416 13.622 12.9408 13.2814 13.2814C12.9408 13.622 12.5416 13.89 12.0838 14.0854C11.6259 14.2808 11.1346 14.3786 10.6097 14.3786C10.3082 14.8587 10.0346 15.3612 9.78894 15.8861C9.54327 16.4109 9.33948 16.9525 9.17755 17.5109C9.01563 18.0692 8.89001 18.6471 8.80067 19.2446C8.71133 19.842 8.66667 20.4478 8.66667 21.062L8.70017 22H6.79062L6.75712 21.062C6.75712 20.4031 6.80179 19.7582 6.89112 19.1273C6.98046 18.4964 7.10609 17.8822 7.26801 17.2848C7.42993 16.6873 7.62814 16.1066 7.86265 15.5427C8.09715 14.9788 8.36516 14.4344 8.66667 13.9095L8.23116 13.5913L4.71357 17.0921C4.75824 17.1926 4.79174 17.2959 4.81407 17.402C4.8364 17.5081 4.84757 17.6114 4.84757 17.7119C4.84757 18.1139 4.71078 18.4545 4.43719 18.7337C4.16359 19.0128 3.8258 19.1524 3.42379 19.1524C3.03294 19.1524 2.69794 19.0128 2.41876 18.7337C2.13959 18.4545 2 18.1139 2 17.7119C2 17.321 2.13959 16.986 2.41876 16.7069C2.69794 16.4277 3.03294 16.2881 3.42379 16.2881C3.53546 16.2881 3.64433 16.2993 3.75042 16.3216C3.85651 16.3439 3.95422 16.383 4.04355 16.4389L7.56114 12.9045C7.3043 12.5918 7.10609 12.2345 6.9665 11.8325C6.82691 11.4305 6.75712 11.0117 6.75712 10.5762C6.75712 10.0514 6.85762 9.55723 7.05863 9.0938C7.25963 8.63037 7.53322 8.22557 7.8794 7.8794C8.22557 7.53322 8.63037 7.25963 9.0938 7.05863C9.55723 6.85762 10.0514 6.75712 10.5762 6.75712C11.0117 6.75712 11.4305 6.82691 11.8325 6.9665C12.2345 7.10609 12.5918 7.3043 12.9045 7.56114L16.4389 4.04355C16.383 3.95422 16.3439 3.85651 16.3216 3.75042C16.2993 3.64433 16.2881 3.53546 16.2881 3.42379C16.2881 3.03294 16.4277 2.69794 16.7069 2.41876C16.986 2.13959 17.321 2 17.7119 2ZM10.5762 8.66667C10.0514 8.66667 9.6019 8.85371 9.22781 9.22781C8.85371 9.6019 8.66667 10.0514 8.66667 10.5762C8.66667 11.1011 8.85371 11.5505 9.22781 11.9246C9.6019 12.2987 10.0514 12.4858 10.5762 12.4858C11.1011 12.4858 11.5505 12.2987 11.9246 11.9246C12.2987 11.5505 12.4858 11.1011 12.4858 10.5762C12.4858 10.0514 12.2987 9.6019 11.9246 9.22781C11.5505 8.85371 11.1011 8.66667 10.5762 8.66667Z" fill="black"/>
</svg>
]]>
 <g id="Notes">
  <rect height="2200" id="artboard" style="fill:white;opacity:1" width="3300" x="0" y="0"/>
  <line id="" style="fill:none;stroke:black;opacity:1;stroke-width:0.5;" x1="263" x2="3036" y1="292" y2="292"/>
  <text id="reftext1" style="stroke:none;fill:black;font-family:-apple-system,&quot;SF Pro Display&quot;,&quot;SF Pro Text&quot;,Helvetica,sans-serif;font-weight:bold;" transform="matrix(1 0 0 1 263 322)">Weight/Scale Variations</text>
  <text id="reftext2" style="stroke:none;fill:black;font-family:-apple-system,&quot;SF Pro Display&quot;,&quot;SF Pro Text&quot;,Helvetica,sans-serif;text-anchor:middle;" transform="matrix(1 0 0 1 559.711 322)">Ultralight</text>
  <text style="stroke:none;fill:black;font-family:-apple-system,&quot;SF Pro Display&quot;,&quot;SF Pro Text&quot;,Helvetica,sans-serif;text-anchor:middle;" transform="matrix(1 0 0 1 856.422 322)">Thin</text>
  <text style="stroke:none;fill:black;font-family:-apple-system,&quot;SF Pro Display&quot;,&quot;SF Pro Text&quot;,Helvetica,sans-serif;text-anchor:middle;" transform="matrix(1 0 0 1 1153.13 322)">Light</text>
  <text style="stroke:none;fill:black;font-family:-apple-system,&quot;SF Pro Display&quot;,&quot;SF Pro Text&quot;,Helvetica,sans-serif;text-anchor:middle;" transform="matrix(1 0 0 1 1449.84 322)">Regular</text>
  <text style="stroke:none;fill:black;font-family:-apple-system,&quot;SF Pro Display&quot;,&quot;SF Pro Text&quot;,Helvetica,sans-serif;text-anchor:middle;" transform="matrix(1 0 0 1 1746.56 322)">Medium</text>
  <text style="stroke:none;fill:black;font-family:-apple-system,&quot;SF Pro Display&quot;,&quot;SF Pro Text&quot;,Helvetica,sans-serif;text-anchor:middle;" transform="matrix(1 0 0 1 2043.27 322)">Semibold</text>
  <text style="stroke:none;fill:black;font-family:-apple-system,&quot;SF Pro Display&quot;,&quot;SF Pro Text&quot;,Helvetica,sans-serif;text-anchor:middle;" transform="matrix(1 0 0 1 2339.98 322)">Bold</text>
  <text style="stroke:none;fill:black;font-family:-apple-system,&quot;SF Pro Display&quot;,&quot;SF Pro Text&quot;,Helvetica,sans-serif;text-anchor:middle;" transform="matrix(1 0 0 1 2636.69 322)">Heavy</text>
  <text style="stroke:none;fill:black;font-family:-apple-system,&quot;SF Pro Display&quot;,&quot;SF Pro Text&quot;,Helvetica,sans-serif;text-anchor:middle;" transform="matrix(1 0 0 1 2933.4 322)">Black</text>
  <line id="" style="fill:none;stroke:black;opacity:1;stroke-width:0.5;" x1="263" x2="3036" y1="1903" y2="1903"/>
  <g id="" transform="matrix(1 0 0 1 263 1933)">
   <path d="M9.24805 0.830078C13.5547 0.830078 17.1387-2.74414 17.1387-7.05078C17.1387-11.3574 13.5449-14.9316 9.23828-14.9316C4.94141-14.9316 1.36719-11.3574 1.36719-7.05078C1.36719-2.74414 4.95117 0.830078 9.24805 0.830078ZM9.24805-0.654297C5.70312-0.654297 2.87109-3.49609 2.87109-7.05078C2.87109-10.6055 5.69336-13.4473 9.23828-13.4473C12.793-13.4473 15.6348-10.6055 15.6445-7.05078C15.6543-3.49609 12.8027-0.654297 9.24805-0.654297ZM6.39648-6.31836L8.50586-6.31836L8.50586-4.19922C8.50586-3.75977 8.79883-3.45703 9.22852-3.45703C9.67773-3.45703 9.9707-3.75977 9.9707-4.19922L9.9707-6.31836L12.0996-6.31836C12.5391-6.31836 12.8418-6.61133 12.8418-7.04102C12.8418-7.48047 12.5391-7.7832 12.0996-7.7832L9.9707-7.7832L9.9707-9.89258C9.9707-10.3418 9.67773-10.6445 9.22852-10.6445C8.79883-10.6445 8.50586-10.3418 8.50586-9.89258L8.50586-7.7832L6.39648-7.7832C5.94727-7.7832 5.64453-7.48047 5.64453-7.04102C5.64453-6.61133 5.94727-6.31836 6.39648-6.31836Z"/>
  </g>
  <g id="" transform="matrix(1 0 0 1 281.506 1933)">
   <path d="M11.709 2.91016C17.1582 2.91016 21.6699-1.61133 21.6699-7.05078C21.6699-12.5 17.1484-17.0117 11.6992-17.0117C6.25977-17.0117 1.74805-12.5 1.74805-7.05078C1.74805-1.61133 6.26953 2.91016 11.709 2.91016ZM11.709 1.25C7.09961 1.25 3.41797-2.44141 3.41797-7.05078C3.41797-11.6602 7.08984-15.3516 11.6992-15.3516C16.3086-15.3516 20-11.6602 20.0098-7.05078C20.0195-2.44141 16.3184 1.25 11.709 1.25ZM7.98828-6.23047L10.8789-6.23047L10.8789-3.32031C10.8789-2.83203 11.2109-2.5 11.6895-2.5C12.1777-2.5 12.5195-2.83203 12.5195-3.32031L12.5195-6.23047L15.4297-6.23047C15.918-6.23047 16.25-6.5625 16.25-7.04102C16.25-7.5293 15.918-7.87109 15.4297-7.87109L12.5195-7.87109L12.5195-10.7617C12.5195-11.2695 12.1777-11.6016 11.6895-11.6016C11.2109-11.6016 10.8789-11.2598 10.8789-10.7617L10.8789-7.87109L7.98828-7.87109C7.48047-7.87109 7.14844-7.5293 7.14844-7.04102C7.14844-6.5625 7.49023-6.23047 7.98828-6.23047Z"/>
  </g>
  <g id="" transform="matrix(1 0 0 1 304.924 1933)">
   <path d="M14.9707 5.66406C21.9336 5.66406 27.6953-0.0976562 27.6953-7.05078C27.6953-14.0137 21.9238-19.7754 14.9609-19.7754C8.00781-19.7754 2.25586-14.0137 2.25586-7.05078C2.25586-0.0976562 8.01758 5.66406 14.9707 5.66406ZM14.9707 3.84766C8.93555 3.84766 4.08203-1.01562 4.08203-7.05078C4.08203-13.0957 8.92578-17.9492 14.9609-17.9492C21.0059-17.9492 25.8594-13.0957 25.8691-7.05078C25.8789-1.01562 21.0156 3.84766 14.9707 3.84766ZM10.0586-6.14258L14.0625-6.14258L14.0625-2.12891C14.0625-1.5918 14.4336-1.2207 14.9512-1.2207C15.4883-1.2207 15.8594-1.5918 15.8594-2.12891L15.8594-6.14258L19.8828-6.14258C20.4102-6.14258 20.791-6.51367 20.791-7.03125C20.791-7.56836 20.4199-7.94922 19.8828-7.94922L15.8594-7.94922L15.8594-11.9531C15.8594-12.5098 15.4883-12.8809 14.9512-12.8809C14.4336-12.8809 14.0625-12.5 14.0625-11.9531L14.0625-7.94922L10.0586-7.94922C9.50195-7.94922 9.13086-7.56836 9.13086-7.03125C9.13086-6.51367 9.51172-6.14258 10.0586-6.14258Z"/>
  </g>
  <text style="stroke:none;fill:black;font-family:-apple-system,&quot;SF Pro Display&quot;,&quot;SF Pro Text&quot;,Helvetica,sans-serif;font-weight:bold;" transform="matrix(1 0 0 1 263 1953)">Design Variations</text>
  <text style="stroke:none;fill:black;font-family:-apple-system,&quot;SF Pro Display&quot;,&quot;SF Pro Text&quot;,Helvetica,sans-serif;" transform="matrix(1 0 0 1 263 1971)">Symbols are supported in up to nine weights and three scales.</text>
  <text style="stroke:none;fill:black;font-family:-apple-system,&quot;SF Pro Display&quot;,&quot;SF Pro Text&quot;,Helvetica,sans-serif;" transform="matrix(1 0 0 1 263 1989)">For optimal layout with text and other symbols, vertically align</text>
  <text style="stroke:none;fill:black;font-family:-apple-system,&quot;SF Pro Display&quot;,&quot;SF Pro Text&quot;,Helvetica,sans-serif;" transform="matrix(1 0 0 1 263 2007)">symbols with the adjacent text.</text>
  <line id="" style="fill:none;stroke:#00AEEF;stroke-width:0.5;opacity:1.0;" x1="776" x2="776" y1="1919" y2="1933"/>
  <g id="" transform="matrix(1 0 0 1 776 1933)">
   <path d="M3.31055 0.126953C3.82812 0.126953 4.08203-0.0683594 4.26758-0.605469L5.52734-4.0625L11.2891-4.0625L12.5488-0.605469C12.7344-0.0683594 12.9883 0.126953 13.4961 0.126953C14.0137 0.126953 14.3457-0.185547 14.3457-0.673828C14.3457-0.839844 14.3164-0.986328 14.2383-1.20117L9.6582-13.3887C9.43359-13.9941 9.0332-14.2871 8.4082-14.2871C7.80273-14.2871 7.39258-13.9941 7.17773-13.3984L2.59766-1.19141C2.51953-0.976562 2.49023-0.830078 2.49023-0.664062C2.49023-0.175781 2.80273 0.126953 3.31055 0.126953ZM6.00586-5.53711L8.37891-12.1094L8.42773-12.1094L10.8008-5.53711Z"/>
  </g>
  <line id="" style="fill:none;stroke:#00AEEF;stroke-width:0.5;opacity:1.0;" x1="792.836" x2="792.836" y1="1919" y2="1933"/>
  <text style="stroke:none;fill:black;font-family:-apple-system,&quot;SF Pro Display&quot;,&quot;SF Pro Text&quot;,Helvetica,sans-serif;font-weight:bold;" transform="matrix(1 0 0 1 776 1953)">Margins</text>
  <text style="stroke:none;fill:black;font-family:-apple-system,&quot;SF Pro Display&quot;,&quot;SF Pro Text&quot;,Helvetica,sans-serif;" transform="matrix(1 0 0 1 776 1971)">Leading and trailing margins on the left and right side of each symbol</text>
  <text style="stroke:none;fill:black;font-family:-apple-system,&quot;SF Pro Display&quot;,&quot;SF Pro Text&quot;,Helvetica,sans-serif;" transform="matrix(1 0 0 1 776 1989)">can be adjusted by modifying the x-location of the margin guidelines.</text>
  <text style="stroke:none;fill:black;font-family:-apple-system,&quot;SF Pro Display&quot;,&quot;SF Pro Text&quot;,Helvetica,sans-serif;" transform="matrix(1 0 0 1 776 2007)">Modifications are automatically applied proportionally to all</text>
  <text style="stroke:none;fill:black;font-family:-apple-system,&quot;SF Pro Display&quot;,&quot;SF Pro Text&quot;,Helvetica,sans-serif;" transform="matrix(1 0 0 1 776 2025)">scales and weights.</text>
  <g id="" transform="matrix(1 0 0 1 1289 1933)">
   <path d="M2.8418 1.86523L4.54102 3.57422C5.40039 4.44336 6.38672 4.38477 7.31445 3.35938L17.4902-7.85156C17.7539-7.76367 18.0273-7.7832 18.3398-7.8418L19.4043-8.03711L20.0684-7.36328L20.0293-6.80664C19.9902-6.30859 20.1172-5.92773 20.6055-5.44922L21.3672-4.70703C21.8457-4.22852 22.4609-4.19922 22.9297-4.66797L25.8398-7.58789C26.3086-8.05664 26.2891-8.65234 25.8105-9.13086L25.0391-9.89258C24.5605-10.3711 24.1895-10.5273 23.7109-10.4883L23.1348-10.4395L22.4902-11.0742L22.7344-12.1973C22.8613-12.7637 22.7051-13.2031 22.1191-13.7891L19.9219-15.9766C16.582-19.2969 12.1484-19.2188 9.25781-16.3281C8.83789-15.918 8.80859-15.3418 9.04297-14.9512C9.27734-14.5898 9.73633-14.3555 10.3809-14.5215C11.8457-14.8633 13.3691-14.9219 14.7949-13.9844L14.209-12.5293C14.0137-12.0508 13.9844-11.6504 14.1113-11.2891L3.04688-0.898438C2.06055 0.0195312 1.98242 0.996094 2.8418 1.86523ZM10.752-15.957C13.1836-17.7344 16.4746-17.4316 18.7012-15.2051L21.1328-12.793C21.3672-12.5586 21.4062-12.373 21.3379-12.0312L21.0156-10.5469L22.5195-9.0625L23.5059-9.12109C23.7598-9.13086 23.8379-9.11133 24.0332-8.91602L24.6094-8.33984L22.168-5.89844L21.5918-6.47461C21.3965-6.66992 21.3672-6.74805 21.377-7.01172L21.4453-7.98828L19.9512-9.47266L18.4277-9.21875C18.1055-9.15039 17.959-9.17969 17.7148-9.41406L15.7129-11.416C15.459-11.6504 15.4297-11.8164 15.5859-12.1875L16.4648-14.2773C14.9023-15.7324 12.8711-16.3574 10.8398-15.7617C10.6836-15.7227 10.625-15.8496 10.752-15.957ZM5.27344 2.30469L4.10156 1.14258C3.63281 0.683594 3.74023 0.341797 4.14062-0.0195312L14.9512-10.1953L16.416-8.71094L6.42578 2.27539C6.07422 2.67578 5.74219 2.77344 5.27344 2.30469Z"/>
  </g>
  <text style="stroke:none;fill:black;font-family:-apple-system,&quot;SF Pro Display&quot;,&quot;SF Pro Text&quot;,Helvetica,sans-serif;font-weight:bold;" transform="matrix(1 0 0 1 1289 1953)">Exporting</text>
  <text style="stroke:none;fill:black;font-family:-apple-system,&quot;SF Pro Display&quot;,&quot;SF Pro Text&quot;,Helvetica,sans-serif;" transform="matrix(1 0 0 1 1289 1971)">Symbols should be outlined when exporting to ensure the</text>
  <text style="stroke:none;fill:black;font-family:-apple-system,&quot;SF Pro Display&quot;,&quot;SF Pro Text&quot;,Helvetica,sans-serif;" transform="matrix(1 0 0 1 1289 1989)">design is preserved when submitting to Xcode.</text>
  <text id="template-version" style="stroke:none;fill:black;font-family:-apple-system,&quot;SF Pro Display&quot;,&quot;SF Pro Text&quot;,Helvetica,sans-serif;text-anchor:end;" transform="matrix(1 0 0 1 3036 1933)">Template v.2.0</text>
  <text style="stroke:none;fill:black;font-family:-apple-system,&quot;SF Pro Display&quot;,&quot;SF Pro Text&quot;,Helvetica,sans-serif;text-anchor:end;" transform="matrix(1 0 0 1 3036 1951)">Requires Xcode 12 or greater</text>
  <text style="stroke:none;fill:black;font-family:-apple-system,&quot;SF Pro Display&quot;,&quot;SF Pro Text&quot;,Helvetica,sans-serif;" transform="matrix(1 0 0 1 263 726)">Small</text>
  <text style="stroke:none;fill:black;font-family:-apple-system,&quot;SF Pro Display&quot;,&quot;SF Pro Text&quot;,Helvetica,sans-serif;" transform="matrix(1 0 0 1 263 1156)">Medium</text>
  <text style="stroke:none;fill:black;font-family:-apple-system,&quot;SF Pro Display&quot;,&quot;SF Pro Text&quot;,Helvetica,sans-serif;" transform="matrix(1 0 0 1 263 1586)">Large</text>
 </g>
 <g id="Guides">
  <g id="H-reference" style="fill:#27AAE1;stroke:none;" transform="matrix(1 0 0 1 339 696)">
   <path d="M0.976562 0L3.66211 0L12.9883-24.4629L45.752-24.4629L55.127 0L57.7637 0L30.6152-70.459L28.125-70.459ZM29.3457-67.1387L29.4434-67.1387L44.873-26.709L13.8672-26.709Z"/>
  </g>
  <line id="Baseline-S" style="fill:none;stroke:#27AAE1;opacity:1;stroke-width:0.5;" x1="263" x2="3036" y1="696" y2="696"/>
  <line id="Capline-S" style="fill:none;stroke:#27AAE1;opacity:1;stroke-width:0.5;" x1="263" x2="3036" y1="625.541" y2="625.541"/>
  <g id="H-reference" style="fill:#27AAE1;stroke:none;" transform="matrix(1 0 0 1 339 1126)">
   <path d="M0.976562 0L3.66211 0L12.9883-24.4629L45.752-24.4629L55.127 0L57.7637 0L30.6152-70.459L28.125-70.459ZM29.3457-67.1387L29.4434-67.1387L44.873-26.709L13.8672-26.709Z"/>
  </g>
  <line id="Baseline-M" style="fill:none;stroke:#27AAE1;opacity:1;stroke-width:0.5;" x1="263" x2="3036" y1="1126" y2="1126"/>
  <line id="Capline-M" style="fill:none;stroke:#27AAE1;opacity:1;stroke-width:0.5;" x1="263" x2="3036" y1="1055.54" y2="1055.54"/>
  <g id="H-reference" style="fill:#27AAE1;stroke:none;" transform="matrix(1 0 0 1 339 1556)">
   <path d="M0.976562 0L3.66211 0L12.9883-24.4629L45.752-24.4629L55.127 0L57.7637 0L30.6152-70.459L28.125-70.459ZM29.3457-67.1387L29.4434-67.1387L44.873-26.709L13.8672-26.709Z"/>
  </g>
  <line id="Baseline-L" style="fill:none;stroke:#27AAE1;opacity:1;stroke-width:0.5;" x1="263" x2="3036" y1="1556" y2="1556"/>
  <line id="Capline-L" style="fill:none;stroke:#27AAE1;opacity:1;stroke-width:0.5;" x1="263" x2="3036" y1="1485.54" y2="1485.54"/>
  <line id="left-margin" x1="1394.4317501831054" x2="1394.4317501831054" y1="1030.79" y2="1150.12" style="fill:none;stroke:#00AEEF;stroke-width:0.5;opacity:1.0;"/>
  <line id="right-margin" x1="1508.6539524841307" x2="1508.6539524841307" y1="1030.79" y2="1150.12" style="fill:none;stroke:#00AEEF;stroke-width:0.5;opacity:1.0;"/>
 </g>
 <g id="Symbols">
  <g id="Black-L" transform="matrix(1.0,0.0,0.0,1.0,2845.9169632720946,1424.9059398651123)">  <path stroke-linecap="butt" fill-rule="evenodd" clip-rule="evenodd" fill="#000000" stroke-linejoin="miter" stroke-opacity="1" stroke-dasharray="none" stroke-width="1px" stroke="none" fill-opacity="1" stroke-miterlimit="4" d="M131.014,14.794C133.987,14.794,136.506,15.826,138.572,17.891C140.636,19.956,141.669,22.434,141.669,25.325C141.669,28.299,140.636,30.798,138.572,32.822C136.506,34.845,133.987,35.857,131.014,35.857C130.27,35.857,129.506,35.774,128.721,35.609C127.936,35.444,127.172,35.196,126.429,34.866L100.534,60.885L102.887,64.107C106.77,61.876,110.797,59.894,114.968,58.159C119.139,56.425,123.435,54.959,127.854,53.761C132.273,52.563,136.816,51.634,141.483,50.973C146.15,50.312,150.92,49.982,155.794,49.982L162.732,50.23L162.732,64.354L155.794,64.107C151.251,64.107,146.77,64.437,142.351,65.098C137.931,65.759,133.656,66.688,129.527,67.886C125.396,69.083,121.39,70.591,117.508,72.408C113.626,74.225,109.909,76.249,106.357,78.479C106.357,82.362,105.634,85.996,104.189,89.383C102.743,92.769,100.761,95.722,98.241,98.241C95.722,100.761,92.769,102.743,89.383,104.189C85.996,105.634,82.362,106.357,78.479,106.357C76.249,109.909,74.225,113.626,72.408,117.508C70.591,121.39,69.083,125.396,67.886,129.527C66.688,133.656,65.759,137.931,65.098,142.351C64.437,146.77,64.107,151.251,64.107,155.794L64.354,162.732L50.23,162.732L49.982,155.794C49.982,150.92,50.312,146.15,50.973,141.483C51.634,136.816,52.563,132.273,53.761,127.854C54.959,123.435,56.425,119.139,58.159,114.968C59.894,110.797,61.876,106.77,64.107,102.887L60.885,100.534L34.866,126.429C35.196,127.172,35.444,127.936,35.609,128.721C35.774,129.506,35.857,130.27,35.857,131.014C35.857,133.987,34.845,136.506,32.822,138.572C30.798,140.636,28.299,141.669,25.325,141.669C22.434,141.669,19.956,140.636,17.891,138.572C15.826,136.506,14.794,133.987,14.794,131.014C14.794,128.122,15.826,125.644,17.891,123.58C19.956,121.514,22.434,120.482,25.325,120.482C26.152,120.482,26.957,120.565,27.742,120.73C28.526,120.895,29.249,121.184,29.91,121.597L55.929,95.454C54.029,93.141,52.563,90.498,51.531,87.524C50.498,84.55,49.982,81.453,49.982,78.231C49.982,74.349,50.725,70.694,52.212,67.266C53.699,63.838,55.723,60.844,58.283,58.283C60.844,55.723,63.838,53.699,67.266,52.212C70.694,50.725,74.349,49.982,78.231,49.982C81.453,49.982,84.55,50.498,87.524,51.531C90.498,52.563,93.141,54.029,95.454,55.929L121.597,29.91C121.184,29.249,120.895,28.526,120.73,27.742C120.565,26.957,120.482,26.152,120.482,25.325C120.482,22.434,121.514,19.956,123.58,17.891C125.644,15.826,128.122,14.794,131.014,14.794ZM78.231,64.107C74.349,64.107,71.024,65.49,68.257,68.257C65.49,71.024,64.107,74.349,64.107,78.231C64.107,82.114,65.49,85.438,68.257,88.205C71.024,90.972,74.349,92.356,78.231,92.356C82.114,92.356,85.438,90.972,88.205,88.205C90.972,85.438,92.356,82.114,92.356,78.231C92.356,74.349,90.972,71.024,88.205,68.257C85.438,65.49,82.114,64.107,78.231,64.107ZM78.231,64.107"/>
</g>
  <g id="Heavy-L" transform="matrix(1.0,0.0,0.0,1.0,2549.2069632720945,1424.9059398651123)">  <path clip-rule="evenodd" stroke="none" stroke-linecap="butt" stroke-linejoin="miter" stroke-opacity="1" stroke-width="1px" fill="#000000" fill-rule="evenodd" stroke-miterlimit="4" stroke-dasharray="none" fill-opacity="1" d="M131.014,14.794C133.987,14.794,136.506,15.826,138.572,17.891C140.636,19.956,141.669,22.434,141.669,25.325C141.669,28.299,140.636,30.798,138.572,32.822C136.506,34.845,133.987,35.857,131.014,35.857C130.27,35.857,129.506,35.774,128.721,35.609C127.936,35.444,127.172,35.196,126.429,34.866L100.534,60.885L102.887,64.107C106.77,61.876,110.797,59.894,114.968,58.159C119.139,56.425,123.435,54.959,127.854,53.761C132.273,52.563,136.816,51.634,141.483,50.973C146.15,50.312,150.92,49.982,155.794,49.982L162.732,50.23L162.732,64.354L155.794,64.107C151.251,64.107,146.77,64.437,142.351,65.098C137.931,65.759,133.656,66.688,129.527,67.886C125.396,69.083,121.39,70.591,117.508,72.408C113.626,74.225,109.909,76.249,106.357,78.479C106.357,82.362,105.634,85.996,104.189,89.383C102.743,92.769,100.761,95.722,98.241,98.241C95.722,100.761,92.769,102.743,89.383,104.189C85.996,105.634,82.362,106.357,78.479,106.357C76.249,109.909,74.225,113.626,72.408,117.508C70.591,121.39,69.083,125.396,67.886,129.527C66.688,133.656,65.759,137.931,65.098,142.351C64.437,146.77,64.107,151.251,64.107,155.794L64.354,162.732L50.23,162.732L49.982,155.794C49.982,150.92,50.312,146.15,50.973,141.483C51.634,136.816,52.563,132.273,53.761,127.854C54.959,123.435,56.425,119.139,58.159,114.968C59.894,110.797,61.876,106.77,64.107,102.887L60.885,100.534L34.866,126.429C35.196,127.172,35.444,127.936,35.609,128.721C35.774,129.506,35.857,130.27,35.857,131.014C35.857,133.987,34.845,136.506,32.822,138.572C30.798,140.636,28.299,141.669,25.325,141.669C22.434,141.669,19.956,140.636,17.891,138.572C15.826,136.506,14.794,133.987,14.794,131.014C14.794,128.122,15.826,125.644,17.891,123.58C19.956,121.514,22.434,120.482,25.325,120.482C26.152,120.482,26.957,120.565,27.742,120.73C28.526,120.895,29.249,121.184,29.91,121.597L55.929,95.454C54.029,93.141,52.563,90.498,51.531,87.524C50.498,84.55,49.982,81.453,49.982,78.231C49.982,74.349,50.725,70.694,52.212,67.266C53.699,63.838,55.723,60.844,58.283,58.283C60.844,55.723,63.838,53.699,67.266,52.212C70.694,50.725,74.349,49.982,78.231,49.982C81.453,49.982,84.55,50.498,87.524,51.531C90.498,52.563,93.141,54.029,95.454,55.929L121.597,29.91C121.184,29.249,120.895,28.526,120.73,27.742C120.565,26.957,120.482,26.152,120.482,25.325C120.482,22.434,121.514,19.956,123.58,17.891C125.644,15.826,128.122,14.794,131.014,14.794ZM78.231,64.107C74.349,64.107,71.024,65.49,68.257,68.257C65.49,71.024,64.107,74.349,64.107,78.231C64.107,82.114,65.49,85.438,68.257,88.205C71.024,90.972,74.349,92.356,78.231,92.356C82.114,92.356,85.438,90.972,88.205,88.205C90.972,85.438,92.356,82.114,92.356,78.231C92.356,74.349,90.972,71.024,88.205,68.257C85.438,65.49,82.114,64.107,78.231,64.107ZM78.231,64.107"/>
</g>
  <g id="Bold-L" transform="matrix(1.0,0.0,0.0,1.0,2252.4969632720945,1424.9059398651123)">  <path stroke-width="1px" stroke-miterlimit="4" stroke-linecap="butt" stroke-dasharray="none" fill-opacity="1" stroke-opacity="1" stroke-linejoin="miter" clip-rule="evenodd" fill-rule="evenodd" stroke="none" fill="#000000" d="M131.014,14.794C133.987,14.794,136.506,15.826,138.572,17.891C140.636,19.956,141.669,22.434,141.669,25.325C141.669,28.299,140.636,30.798,138.572,32.822C136.506,34.845,133.987,35.857,131.014,35.857C130.27,35.857,129.506,35.774,128.721,35.609C127.936,35.444,127.172,35.196,126.429,34.866L100.534,60.885L102.887,64.107C106.77,61.876,110.797,59.894,114.968,58.159C119.139,56.425,123.435,54.959,127.854,53.761C132.273,52.563,136.816,51.634,141.483,50.973C146.15,50.312,150.92,49.982,155.794,49.982L162.732,50.23L162.732,64.354L155.794,64.107C151.251,64.107,146.77,64.437,142.351,65.098C137.931,65.759,133.656,66.688,129.527,67.886C125.396,69.083,121.39,70.591,117.508,72.408C113.626,74.225,109.909,76.249,106.357,78.479C106.357,82.362,105.634,85.996,104.189,89.383C102.743,92.769,100.761,95.722,98.241,98.241C95.722,100.761,92.769,102.743,89.383,104.189C85.996,105.634,82.362,106.357,78.479,106.357C76.249,109.909,74.225,113.626,72.408,117.508C70.591,121.39,69.083,125.396,67.886,129.527C66.688,133.656,65.759,137.931,65.098,142.351C64.437,146.77,64.107,151.251,64.107,155.794L64.354,162.732L50.23,162.732L49.982,155.794C49.982,150.92,50.312,146.15,50.973,141.483C51.634,136.816,52.563,132.273,53.761,127.854C54.959,123.435,56.425,119.139,58.159,114.968C59.894,110.797,61.876,106.77,64.107,102.887L60.885,100.534L34.866,126.429C35.196,127.172,35.444,127.936,35.609,128.721C35.774,129.506,35.857,130.27,35.857,131.014C35.857,133.987,34.845,136.506,32.822,138.572C30.798,140.636,28.299,141.669,25.325,141.669C22.434,141.669,19.956,140.636,17.891,138.572C15.826,136.506,14.794,133.987,14.794,131.014C14.794,128.122,15.826,125.644,17.891,123.58C19.956,121.514,22.434,120.482,25.325,120.482C26.152,120.482,26.957,120.565,27.742,120.73C28.526,120.895,29.249,121.184,29.91,121.597L55.929,95.454C54.029,93.141,52.563,90.498,51.531,87.524C50.498,84.55,49.982,81.453,49.982,78.231C49.982,74.349,50.725,70.694,52.212,67.266C53.699,63.838,55.723,60.844,58.283,58.283C60.844,55.723,63.838,53.699,67.266,52.212C70.694,50.725,74.349,49.982,78.231,49.982C81.453,49.982,84.55,50.498,87.524,51.531C90.498,52.563,93.141,54.029,95.454,55.929L121.597,29.91C121.184,29.249,120.895,28.526,120.73,27.742C120.565,26.957,120.482,26.152,120.482,25.325C120.482,22.434,121.514,19.956,123.58,17.891C125.644,15.826,128.122,14.794,131.014,14.794ZM78.231,64.107C74.349,64.107,71.024,65.49,68.257,68.257C65.49,71.024,64.107,74.349,64.107,78.231C64.107,82.114,65.49,85.438,68.257,88.205C71.024,90.972,74.349,92.356,78.231,92.356C82.114,92.356,85.438,90.972,88.205,88.205C90.972,85.438,92.356,82.114,92.356,78.231C92.356,74.349,90.972,71.024,88.205,68.257C85.438,65.49,82.114,64.107,78.231,64.107ZM78.231,64.107"/>
</g>
  <g id="Semibold-L" transform="matrix(1.0,0.0,0.0,1.0,1955.7869632720947,1424.9059398651123)">  <path stroke-linejoin="miter" stroke-width="1px" fill-rule="evenodd" stroke="none" stroke-opacity="1" stroke-miterlimit="4" stroke-dasharray="none" fill-opacity="1" stroke-linecap="butt" clip-rule="evenodd" fill="#000000" d="M131.014,14.794C133.987,14.794,136.506,15.826,138.572,17.891C140.636,19.956,141.669,22.434,141.669,25.325C141.669,28.299,140.636,30.798,138.572,32.822C136.506,34.845,133.987,35.857,131.014,35.857C130.27,35.857,129.506,35.774,128.721,35.609C127.936,35.444,127.172,35.196,126.429,34.866L100.534,60.885L102.887,64.107C106.77,61.876,110.797,59.894,114.968,58.159C119.139,56.425,123.435,54.959,127.854,53.761C132.273,52.563,136.816,51.634,141.483,50.973C146.15,50.312,150.92,49.982,155.794,49.982L162.732,50.23L162.732,64.354L155.794,64.107C151.251,64.107,146.77,64.437,142.351,65.098C137.931,65.759,133.656,66.688,129.527,67.886C125.396,69.083,121.39,70.591,117.508,72.408C113.626,74.225,109.909,76.249,106.357,78.479C106.357,82.362,105.634,85.996,104.189,89.383C102.743,92.769,100.761,95.722,98.241,98.241C95.722,100.761,92.769,102.743,89.383,104.189C85.996,105.634,82.362,106.357,78.479,106.357C76.249,109.909,74.225,113.626,72.408,117.508C70.591,121.39,69.083,125.396,67.886,129.527C66.688,133.656,65.759,137.931,65.098,142.351C64.437,146.77,64.107,151.251,64.107,155.794L64.354,162.732L50.23,162.732L49.982,155.794C49.982,150.92,50.312,146.15,50.973,141.483C51.634,136.816,52.563,132.273,53.761,127.854C54.959,123.435,56.425,119.139,58.159,114.968C59.894,110.797,61.876,106.77,64.107,102.887L60.885,100.534L34.866,126.429C35.196,127.172,35.444,127.936,35.609,128.721C35.774,129.506,35.857,130.27,35.857,131.014C35.857,133.987,34.845,136.506,32.822,138.572C30.798,140.636,28.299,141.669,25.325,141.669C22.434,141.669,19.956,140.636,17.891,138.572C15.826,136.506,14.794,133.987,14.794,131.014C14.794,128.122,15.826,125.644,17.891,123.58C19.956,121.514,22.434,120.482,25.325,120.482C26.152,120.482,26.957,120.565,27.742,120.73C28.526,120.895,29.249,121.184,29.91,121.597L55.929,95.454C54.029,93.141,52.563,90.498,51.531,87.524C50.498,84.55,49.982,81.453,49.982,78.231C49.982,74.349,50.725,70.694,52.212,67.266C53.699,63.838,55.723,60.844,58.283,58.283C60.844,55.723,63.838,53.699,67.266,52.212C70.694,50.725,74.349,49.982,78.231,49.982C81.453,49.982,84.55,50.498,87.524,51.531C90.498,52.563,93.141,54.029,95.454,55.929L121.597,29.91C121.184,29.249,120.895,28.526,120.73,27.742C120.565,26.957,120.482,26.152,120.482,25.325C120.482,22.434,121.514,19.956,123.58,17.891C125.644,15.826,128.122,14.794,131.014,14.794ZM78.231,64.107C74.349,64.107,71.024,65.49,68.257,68.257C65.49,71.024,64.107,74.349,64.107,78.231C64.107,82.114,65.49,85.438,68.257,88.205C71.024,90.972,74.349,92.356,78.231,92.356C82.114,92.356,85.438,90.972,88.205,88.205C90.972,85.438,92.356,82.114,92.356,78.231C92.356,74.349,90.972,71.024,88.205,68.257C85.438,65.49,82.114,64.107,78.231,64.107ZM78.231,64.107"/>
</g>
  <g id="Medium-L" transform="matrix(1.0,0.0,0.0,1.0,1659.0769632720946,1424.9059398651123)">  <path stroke-opacity="1" stroke-width="1px" clip-rule="evenodd" fill-opacity="1" stroke-miterlimit="4" stroke-dasharray="none" stroke-linejoin="miter" fill="#000000" fill-rule="evenodd" stroke-linecap="butt" stroke="none" d="M131.014,14.794C133.987,14.794,136.506,15.826,138.572,17.891C140.636,19.956,141.669,22.434,141.669,25.325C141.669,28.299,140.636,30.798,138.572,32.822C136.506,34.845,133.987,35.857,131.014,35.857C130.27,35.857,129.506,35.774,128.721,35.609C127.936,35.444,127.172,35.196,126.429,34.866L100.534,60.885L102.887,64.107C106.77,61.876,110.797,59.894,114.968,58.159C119.139,56.425,123.435,54.959,127.854,53.761C132.273,52.563,136.816,51.634,141.483,50.973C146.15,50.312,150.92,49.982,155.794,49.982L162.732,50.23L162.732,64.354L155.794,64.107C151.251,64.107,146.77,64.437,142.351,65.098C137.931,65.759,133.656,66.688,129.527,67.886C125.396,69.083,121.39,70.591,117.508,72.408C113.626,74.225,109.909,76.249,106.357,78.479C106.357,82.362,105.634,85.996,104.189,89.383C102.743,92.769,100.761,95.722,98.241,98.241C95.722,100.761,92.769,102.743,89.383,104.189C85.996,105.634,82.362,106.357,78.479,106.357C76.249,109.909,74.225,113.626,72.408,117.508C70.591,121.39,69.083,125.396,67.886,129.527C66.688,133.656,65.759,137.931,65.098,142.351C64.437,146.77,64.107,151.251,64.107,155.794L64.354,162.732L50.23,162.732L49.982,155.794C49.982,150.92,50.312,146.15,50.973,141.483C51.634,136.816,52.563,132.273,53.761,127.854C54.959,123.435,56.425,119.139,58.159,114.968C59.894,110.797,61.876,106.77,64.107,102.887L60.885,100.534L34.866,126.429C35.196,127.172,35.444,127.936,35.609,128.721C35.774,129.506,35.857,130.27,35.857,131.014C35.857,133.987,34.845,136.506,32.822,138.572C30.798,140.636,28.299,141.669,25.325,141.669C22.434,141.669,19.956,140.636,17.891,138.572C15.826,136.506,14.794,133.987,14.794,131.014C14.794,128.122,15.826,125.644,17.891,123.58C19.956,121.514,22.434,120.482,25.325,120.482C26.152,120.482,26.957,120.565,27.742,120.73C28.526,120.895,29.249,121.184,29.91,121.597L55.929,95.454C54.029,93.141,52.563,90.498,51.531,87.524C50.498,84.55,49.982,81.453,49.982,78.231C49.982,74.349,50.725,70.694,52.212,67.266C53.699,63.838,55.723,60.844,58.283,58.283C60.844,55.723,63.838,53.699,67.266,52.212C70.694,50.725,74.349,49.982,78.231,49.982C81.453,49.982,84.55,50.498,87.524,51.531C90.498,52.563,93.141,54.029,95.454,55.929L121.597,29.91C121.184,29.249,120.895,28.526,120.73,27.742C120.565,26.957,120.482,26.152,120.482,25.325C120.482,22.434,121.514,19.956,123.58,17.891C125.644,15.826,128.122,14.794,131.014,14.794ZM78.231,64.107C74.349,64.107,71.024,65.49,68.257,68.257C65.49,71.024,64.107,74.349,64.107,78.231C64.107,82.114,65.49,85.438,68.257,88.205C71.024,90.972,74.349,92.356,78.231,92.356C82.114,92.356,85.438,90.972,88.205,88.205C90.972,85.438,92.356,82.114,92.356,78.231C92.356,74.349,90.972,71.024,88.205,68.257C85.438,65.49,82.114,64.107,78.231,64.107ZM78.231,64.107"/>
</g>
  <g id="Regular-L" transform="matrix(1.0,0.0,0.0,1.0,1362.3669632720946,1424.9059398651123)">  <path stroke="none" stroke-opacity="1" stroke-linejoin="miter" stroke-miterlimit="4" stroke-linecap="butt" fill-rule="evenodd" fill="#000000" fill-opacity="1" clip-rule="evenodd" stroke-width="1px" stroke-dasharray="none" d="M131.014,14.794C133.987,14.794,136.506,15.826,138.572,17.891C140.636,19.956,141.669,22.434,141.669,25.325C141.669,28.299,140.636,30.798,138.572,32.822C136.506,34.845,133.987,35.857,131.014,35.857C130.27,35.857,129.506,35.774,128.721,35.609C127.936,35.444,127.172,35.196,126.429,34.866L100.534,60.885L102.887,64.107C106.77,61.876,110.797,59.894,114.968,58.159C119.139,56.425,123.435,54.959,127.854,53.761C132.273,52.563,136.816,51.634,141.483,50.973C146.15,50.312,150.92,49.982,155.794,49.982L162.732,50.23L162.732,64.354L155.794,64.107C151.251,64.107,146.77,64.437,142.351,65.098C137.931,65.759,133.656,66.688,129.527,67.886C125.396,69.083,121.39,70.591,117.508,72.408C113.626,74.225,109.909,76.249,106.357,78.479C106.357,82.362,105.634,85.996,104.189,89.383C102.743,92.769,100.761,95.722,98.241,98.241C95.722,100.761,92.769,102.743,89.383,104.189C85.996,105.634,82.362,106.357,78.479,106.357C76.249,109.909,74.225,113.626,72.408,117.508C70.591,121.39,69.083,125.396,67.886,129.527C66.688,133.656,65.759,137.931,65.098,142.351C64.437,146.77,64.107,151.251,64.107,155.794L64.354,162.732L50.23,162.732L49.982,155.794C49.982,150.92,50.312,146.15,50.973,141.483C51.634,136.816,52.563,132.273,53.761,127.854C54.959,123.435,56.425,119.139,58.159,114.968C59.894,110.797,61.876,106.77,64.107,102.887L60.885,100.534L34.866,126.429C35.196,127.172,35.444,127.936,35.609,128.721C35.774,129.506,35.857,130.27,35.857,131.014C35.857,133.987,34.845,136.506,32.822,138.572C30.798,140.636,28.299,141.669,25.325,141.669C22.434,141.669,19.956,140.636,17.891,138.572C15.826,136.506,14.794,133.987,14.794,131.014C14.794,128.122,15.826,125.644,17.891,123.58C19.956,121.514,22.434,120.482,25.325,120.482C26.152,120.482,26.957,120.565,27.742,120.73C28.526,120.895,29.249,121.184,29.91,121.597L55.929,95.454C54.029,93.141,52.563,90.498,51.531,87.524C50.498,84.55,49.982,81.453,49.982,78.231C49.982,74.349,50.725,70.694,52.212,67.266C53.699,63.838,55.723,60.844,58.283,58.283C60.844,55.723,63.838,53.699,67.266,52.212C70.694,50.725,74.349,49.982,78.231,49.982C81.453,49.982,84.55,50.498,87.524,51.531C90.498,52.563,93.141,54.029,95.454,55.929L121.597,29.91C121.184,29.249,120.895,28.526,120.73,27.742C120.565,26.957,120.482,26.152,120.482,25.325C120.482,22.434,121.514,19.956,123.58,17.891C125.644,15.826,128.122,14.794,131.014,14.794ZM78.231,64.107C74.349,64.107,71.024,65.49,68.257,68.257C65.49,71.024,64.107,74.349,64.107,78.231C64.107,82.114,65.49,85.438,68.257,88.205C71.024,90.972,74.349,92.356,78.231,92.356C82.114,92.356,85.438,90.972,88.205,88.205C90.972,85.438,92.356,82.114,92.356,78.231C92.356,74.349,90.972,71.024,88.205,68.257C85.438,65.49,82.114,64.107,78.231,64.107ZM78.231,64.107"/>
</g>
  <g id="Light-L" transform="matrix(1.0,0.0,0.0,1.0,1065.6569632720948,1424.9059398651123)">  <path stroke-linecap="butt" stroke-width="1px" clip-rule="evenodd" stroke-linejoin="miter" stroke-dasharray="none" stroke="none" stroke-miterlimit="4" fill-opacity="1" fill="#000000" fill-rule="evenodd" stroke-opacity="1" d="M131.014,14.794C133.987,14.794,136.506,15.826,138.572,17.891C140.636,19.956,141.669,22.434,141.669,25.325C141.669,28.299,140.636,30.798,138.572,32.822C136.506,34.845,133.987,35.857,131.014,35.857C130.27,35.857,129.506,35.774,128.721,35.609C127.936,35.444,127.172,35.196,126.429,34.866L100.534,60.885L102.887,64.107C106.77,61.876,110.797,59.894,114.968,58.159C119.139,56.425,123.435,54.959,127.854,53.761C132.273,52.563,136.816,51.634,141.483,50.973C146.15,50.312,150.92,49.982,155.794,49.982L162.732,50.23L162.732,64.354L155.794,64.107C151.251,64.107,146.77,64.437,142.351,65.098C137.931,65.759,133.656,66.688,129.527,67.886C125.396,69.083,121.39,70.591,117.508,72.408C113.626,74.225,109.909,76.249,106.357,78.479C106.357,82.362,105.634,85.996,104.189,89.383C102.743,92.769,100.761,95.722,98.241,98.241C95.722,100.761,92.769,102.743,89.383,104.189C85.996,105.634,82.362,106.357,78.479,106.357C76.249,109.909,74.225,113.626,72.408,117.508C70.591,121.39,69.083,125.396,67.886,129.527C66.688,133.656,65.759,137.931,65.098,142.351C64.437,146.77,64.107,151.251,64.107,155.794L64.354,162.732L50.23,162.732L49.982,155.794C49.982,150.92,50.312,146.15,50.973,141.483C51.634,136.816,52.563,132.273,53.761,127.854C54.959,123.435,56.425,119.139,58.159,114.968C59.894,110.797,61.876,106.77,64.107,102.887L60.885,100.534L34.866,126.429C35.196,127.172,35.444,127.936,35.609,128.721C35.774,129.506,35.857,130.27,35.857,131.014C35.857,133.987,34.845,136.506,32.822,138.572C30.798,140.636,28.299,141.669,25.325,141.669C22.434,141.669,19.956,140.636,17.891,138.572C15.826,136.506,14.794,133.987,14.794,131.014C14.794,128.122,15.826,125.644,17.891,123.58C19.956,121.514,22.434,120.482,25.325,120.482C26.152,120.482,26.957,120.565,27.742,120.73C28.526,120.895,29.249,121.184,29.91,121.597L55.929,95.454C54.029,93.141,52.563,90.498,51.531,87.524C50.498,84.55,49.982,81.453,49.982,78.231C49.982,74.349,50.725,70.694,52.212,67.266C53.699,63.838,55.723,60.844,58.283,58.283C60.844,55.723,63.838,53.699,67.266,52.212C70.694,50.725,74.349,49.982,78.231,49.982C81.453,49.982,84.55,50.498,87.524,51.531C90.498,52.563,93.141,54.029,95.454,55.929L121.597,29.91C121.184,29.249,120.895,28.526,120.73,27.742C120.565,26.957,120.482,26.152,120.482,25.325C120.482,22.434,121.514,19.956,123.58,17.891C125.644,15.826,128.122,14.794,131.014,14.794ZM78.231,64.107C74.349,64.107,71.024,65.49,68.257,68.257C65.49,71.024,64.107,74.349,64.107,78.231C64.107,82.114,65.49,85.438,68.257,88.205C71.024,90.972,74.349,92.356,78.231,92.356C82.114,92.356,85.438,90.972,88.205,88.205C90.972,85.438,92.356,82.114,92.356,78.231C92.356,74.349,90.972,71.024,88.205,68.257C85.438,65.49,82.114,64.107,78.231,64.107ZM78.231,64.107"/>
</g>
  <g id="Thin-L" transform="matrix(1.0,0.0,0.0,1.0,768.9469632720948,1424.9059398651123)">  <path fill-rule="evenodd" fill="#000000" stroke-width="1px" fill-opacity="1" stroke-linejoin="miter" stroke="none" stroke-miterlimit="4" stroke-opacity="1" stroke-linecap="butt" stroke-dasharray="none" clip-rule="evenodd" d="M131.014,14.794C133.987,14.794,136.506,15.826,138.572,17.891C140.636,19.956,141.669,22.434,141.669,25.325C141.669,28.299,140.636,30.798,138.572,32.822C136.506,34.845,133.987,35.857,131.014,35.857C130.27,35.857,129.506,35.774,128.721,35.609C127.936,35.444,127.172,35.196,126.429,34.866L100.534,60.885L102.887,64.107C106.77,61.876,110.797,59.894,114.968,58.159C119.139,56.425,123.435,54.959,127.854,53.761C132.273,52.563,136.816,51.634,141.483,50.973C146.15,50.312,150.92,49.982,155.794,49.982L162.732,50.23L162.732,64.354L155.794,64.107C151.251,64.107,146.77,64.437,142.351,65.098C137.931,65.759,133.656,66.688,129.527,67.886C125.396,69.083,121.39,70.591,117.508,72.408C113.626,74.225,109.909,76.249,106.357,78.479C106.357,82.362,105.634,85.996,104.189,89.383C102.743,92.769,100.761,95.722,98.241,98.241C95.722,100.761,92.769,102.743,89.383,104.189C85.996,105.634,82.362,106.357,78.479,106.357C76.249,109.909,74.225,113.626,72.408,117.508C70.591,121.39,69.083,125.396,67.886,129.527C66.688,133.656,65.759,137.931,65.098,142.351C64.437,146.77,64.107,151.251,64.107,155.794L64.354,162.732L50.23,162.732L49.982,155.794C49.982,150.92,50.312,146.15,50.973,141.483C51.634,136.816,52.563,132.273,53.761,127.854C54.959,123.435,56.425,119.139,58.159,114.968C59.894,110.797,61.876,106.77,64.107,102.887L60.885,100.534L34.866,126.429C35.196,127.172,35.444,127.936,35.609,128.721C35.774,129.506,35.857,130.27,35.857,131.014C35.857,133.987,34.845,136.506,32.822,138.572C30.798,140.636,28.299,141.669,25.325,141.669C22.434,141.669,19.956,140.636,17.891,138.572C15.826,136.506,14.794,133.987,14.794,131.014C14.794,128.122,15.826,125.644,17.891,123.58C19.956,121.514,22.434,120.482,25.325,120.482C26.152,120.482,26.957,120.565,27.742,120.73C28.526,120.895,29.249,121.184,29.91,121.597L55.929,95.454C54.029,93.141,52.563,90.498,51.531,87.524C50.498,84.55,49.982,81.453,49.982,78.231C49.982,74.349,50.725,70.694,52.212,67.266C53.699,63.838,55.723,60.844,58.283,58.283C60.844,55.723,63.838,53.699,67.266,52.212C70.694,50.725,74.349,49.982,78.231,49.982C81.453,49.982,84.55,50.498,87.524,51.531C90.498,52.563,93.141,54.029,95.454,55.929L121.597,29.91C121.184,29.249,120.895,28.526,120.73,27.742C120.565,26.957,120.482,26.152,120.482,25.325C120.482,22.434,121.514,19.956,123.58,17.891C125.644,15.826,128.122,14.794,131.014,14.794ZM78.231,64.107C74.349,64.107,71.024,65.49,68.257,68.257C65.49,71.024,64.107,74.349,64.107,78.231C64.107,82.114,65.49,85.438,68.257,88.205C71.024,90.972,74.349,92.356,78.231,92.356C82.114,92.356,85.438,90.972,88.205,88.205C90.972,85.438,92.356,82.114,92.356,78.231C92.356,74.349,90.972,71.024,88.205,68.257C85.438,65.49,82.114,64.107,78.231,64.107ZM78.231,64.107"/>
</g>
  <g id="Ultralight-L" transform="matrix(1.0,0.0,0.0,1.0,472.2369632720947,1424.9059398651123)">  <path fill="#000000" stroke-opacity="1" stroke-miterlimit="4" stroke-dasharray="none" stroke="none" stroke-width="1px" fill-opacity="1" stroke-linecap="butt" stroke-linejoin="miter" clip-rule="evenodd" fill-rule="evenodd" d="M131.014,14.794C133.987,14.794,136.506,15.826,138.572,17.891C140.636,19.956,141.669,22.434,141.669,25.325C141.669,28.299,140.636,30.798,138.572,32.822C136.506,34.845,133.987,35.857,131.014,35.857C130.27,35.857,129.506,35.774,128.721,35.609C127.936,35.444,127.172,35.196,126.429,34.866L100.534,60.885L102.887,64.107C106.77,61.876,110.797,59.894,114.968,58.159C119.139,56.425,123.435,54.959,127.854,53.761C132.273,52.563,136.816,51.634,141.483,50.973C146.15,50.312,150.92,49.982,155.794,49.982L162.732,50.23L162.732,64.354L155.794,64.107C151.251,64.107,146.77,64.437,142.351,65.098C137.931,65.759,133.656,66.688,129.527,67.886C125.396,69.083,121.39,70.591,117.508,72.408C113.626,74.225,109.909,76.249,106.357,78.479C106.357,82.362,105.634,85.996,104.189,89.383C102.743,92.769,100.761,95.722,98.241,98.241C95.722,100.761,92.769,102.743,89.383,104.189C85.996,105.634,82.362,106.357,78.479,106.357C76.249,109.909,74.225,113.626,72.408,117.508C70.591,121.39,69.083,125.396,67.886,129.527C66.688,133.656,65.759,137.931,65.098,142.351C64.437,146.77,64.107,151.251,64.107,155.794L64.354,162.732L50.23,162.732L49.982,155.794C49.982,150.92,50.312,146.15,50.973,141.483C51.634,136.816,52.563,132.273,53.761,127.854C54.959,123.435,56.425,119.139,58.159,114.968C59.894,110.797,61.876,106.77,64.107,102.887L60.885,100.534L34.866,126.429C35.196,127.172,35.444,127.936,35.609,128.721C35.774,129.506,35.857,130.27,35.857,131.014C35.857,133.987,34.845,136.506,32.822,138.572C30.798,140.636,28.299,141.669,25.325,141.669C22.434,141.669,19.956,140.636,17.891,138.572C15.826,136.506,14.794,133.987,14.794,131.014C14.794,128.122,15.826,125.644,17.891,123.58C19.956,121.514,22.434,120.482,25.325,120.482C26.152,120.482,26.957,120.565,27.742,120.73C28.526,120.895,29.249,121.184,29.91,121.597L55.929,95.454C54.029,93.141,52.563,90.498,51.531,87.524C50.498,84.55,49.982,81.453,49.982,78.231C49.982,74.349,50.725,70.694,52.212,67.266C53.699,63.838,55.723,60.844,58.283,58.283C60.844,55.723,63.838,53.699,67.266,52.212C70.694,50.725,74.349,49.982,78.231,49.982C81.453,49.982,84.55,50.498,87.524,51.531C90.498,52.563,93.141,54.029,95.454,55.929L121.597,29.91C121.184,29.249,120.895,28.526,120.73,27.742C120.565,26.957,120.482,26.152,120.482,25.325C120.482,22.434,121.514,19.956,123.58,17.891C125.644,15.826,128.122,14.794,131.014,14.794ZM78.231,64.107C74.349,64.107,71.024,65.49,68.257,68.257C65.49,71.024,64.107,74.349,64.107,78.231C64.107,82.114,65.49,85.438,68.257,88.205C71.024,90.972,74.349,92.356,78.231,92.356C82.114,92.356,85.438,90.972,88.205,88.205C90.972,85.438,92.356,82.114,92.356,78.231C92.356,74.349,90.972,71.024,88.205,68.257C85.438,65.49,82.114,64.107,78.231,64.107ZM78.231,64.107"/>
</g>
  <g id="Black-M" transform="matrix(1.0,0.0,0.0,1.0,2865.8714443969725,1016.4567794799805)">  <path stroke-linecap="butt" fill-rule="evenodd" clip-rule="evenodd" fill="#000000" stroke-linejoin="miter" stroke-opacity="1" stroke-dasharray="none" stroke-width="1px" stroke="none" fill-opacity="1" stroke-miterlimit="4" d="M101.561,11.468C103.866,11.468,105.819,12.269,107.42,13.869C109.02,15.47,109.821,17.391,109.821,19.632C109.821,21.937,109.02,23.874,107.42,25.443C105.819,27.012,103.866,27.796,101.561,27.796C100.985,27.796,100.392,27.732,99.784,27.604C99.175,27.476,98.583,27.284,98.007,27.028L77.933,47.198L79.758,49.695C82.768,47.966,85.889,46.429,89.123,45.085C92.356,43.74,95.686,42.604,99.112,41.675C102.537,40.747,106.059,40.026,109.677,39.514C113.294,39.002,116.992,38.746,120.77,38.746L126.149,38.938L126.149,49.887L120.77,49.695C117.249,49.695,113.775,49.951,110.349,50.463C106.923,50.976,103.61,51.696,100.408,52.624C97.206,53.553,94.101,54.722,91.092,56.13C88.082,57.539,85.2,59.108,82.448,60.837C82.448,63.846,81.887,66.663,80.766,69.289C79.646,71.914,78.109,74.203,76.156,76.156C74.203,78.109,71.914,79.646,69.289,80.766C66.663,81.887,63.846,82.448,60.837,82.448C59.108,85.2,57.539,88.082,56.13,91.092C54.722,94.101,53.553,97.206,52.624,100.408C51.696,103.61,50.976,106.923,50.463,110.349C49.951,113.775,49.695,117.249,49.695,120.77L49.887,126.149L38.938,126.149L38.746,120.77C38.746,116.992,39.002,113.294,39.514,109.677C40.026,106.059,40.747,102.537,41.675,99.112C42.604,95.686,43.74,92.356,45.085,89.123C46.429,85.889,47.966,82.768,49.695,79.758L47.198,77.933L27.028,98.007C27.284,98.583,27.476,99.175,27.604,99.784C27.732,100.392,27.796,100.985,27.796,101.561C27.796,103.866,27.012,105.819,25.443,107.42C23.874,109.02,21.937,109.821,19.632,109.821C17.391,109.821,15.47,109.02,13.869,107.42C12.269,105.819,11.468,103.866,11.468,101.561C11.468,99.319,12.269,97.399,13.869,95.798C15.47,94.197,17.391,93.397,19.632,93.397C20.272,93.397,20.897,93.461,21.505,93.589C22.113,93.717,22.674,93.941,23.186,94.261L43.356,73.995C41.883,72.202,40.747,70.153,39.946,67.848C39.146,65.543,38.746,63.142,38.746,60.644C38.746,57.635,39.322,54.802,40.475,52.144C41.627,49.487,43.196,47.166,45.181,45.181C47.166,43.196,49.487,41.627,52.144,40.475C54.802,39.322,57.635,38.746,60.644,38.746C63.142,38.746,65.543,39.146,67.848,39.946C70.153,40.747,72.202,41.883,73.995,43.356L94.261,23.186C93.941,22.674,93.717,22.113,93.589,21.505C93.461,20.897,93.397,20.272,93.397,19.632C93.397,17.391,94.197,15.47,95.798,13.869C97.399,12.269,99.319,11.468,101.561,11.468ZM60.644,49.695C57.635,49.695,55.058,50.768,52.913,52.913C50.768,55.058,49.695,57.635,49.695,60.644C49.695,63.654,50.768,66.231,52.913,68.376C55.058,70.521,57.635,71.594,60.644,71.594C63.654,71.594,66.231,70.521,68.376,68.376C70.521,66.231,71.594,63.654,71.594,60.644C71.594,57.635,70.521,55.058,68.376,52.913C66.231,50.768,63.654,49.695,60.644,49.695ZM60.644,49.695"/>
</g>
  <g id="Heavy-M" transform="matrix(1.0,0.0,0.0,1.0,2569.1614443969725,1016.4567794799805)">  <path clip-rule="evenodd" stroke="none" stroke-linecap="butt" stroke-linejoin="miter" stroke-opacity="1" stroke-width="1px" fill="#000000" fill-rule="evenodd" stroke-miterlimit="4" stroke-dasharray="none" fill-opacity="1" d="M101.561,11.468C103.866,11.468,105.819,12.269,107.42,13.869C109.02,15.47,109.821,17.391,109.821,19.632C109.821,21.937,109.02,23.874,107.42,25.443C105.819,27.012,103.866,27.796,101.561,27.796C100.985,27.796,100.392,27.732,99.784,27.604C99.175,27.476,98.583,27.284,98.007,27.028L77.933,47.198L79.758,49.695C82.768,47.966,85.889,46.429,89.123,45.085C92.356,43.74,95.686,42.604,99.112,41.675C102.537,40.747,106.059,40.026,109.677,39.514C113.294,39.002,116.992,38.746,120.77,38.746L126.149,38.938L126.149,49.887L120.77,49.695C117.249,49.695,113.775,49.951,110.349,50.463C106.923,50.976,103.61,51.696,100.408,52.624C97.206,53.553,94.101,54.722,91.092,56.13C88.082,57.539,85.2,59.108,82.448,60.837C82.448,63.846,81.887,66.663,80.766,69.289C79.646,71.914,78.109,74.203,76.156,76.156C74.203,78.109,71.914,79.646,69.289,80.766C66.663,81.887,63.846,82.448,60.837,82.448C59.108,85.2,57.539,88.082,56.13,91.092C54.722,94.101,53.553,97.206,52.624,100.408C51.696,103.61,50.976,106.923,50.463,110.349C49.951,113.775,49.695,117.249,49.695,120.77L49.887,126.149L38.938,126.149L38.746,120.77C38.746,116.992,39.002,113.294,39.514,109.677C40.026,106.059,40.747,102.537,41.675,99.112C42.604,95.686,43.74,92.356,45.085,89.123C46.429,85.889,47.966,82.768,49.695,79.758L47.198,77.933L27.028,98.007C27.284,98.583,27.476,99.175,27.604,99.784C27.732,100.392,27.796,100.985,27.796,101.561C27.796,103.866,27.012,105.819,25.443,107.42C23.874,109.02,21.937,109.821,19.632,109.821C17.391,109.821,15.47,109.02,13.869,107.42C12.269,105.819,11.468,103.866,11.468,101.561C11.468,99.319,12.269,97.399,13.869,95.798C15.47,94.197,17.391,93.397,19.632,93.397C20.272,93.397,20.897,93.461,21.505,93.589C22.113,93.717,22.674,93.941,23.186,94.261L43.356,73.995C41.883,72.202,40.747,70.153,39.946,67.848C39.146,65.543,38.746,63.142,38.746,60.644C38.746,57.635,39.322,54.802,40.475,52.144C41.627,49.487,43.196,47.166,45.181,45.181C47.166,43.196,49.487,41.627,52.144,40.475C54.802,39.322,57.635,38.746,60.644,38.746C63.142,38.746,65.543,39.146,67.848,39.946C70.153,40.747,72.202,41.883,73.995,43.356L94.261,23.186C93.941,22.674,93.717,22.113,93.589,21.505C93.461,20.897,93.397,20.272,93.397,19.632C93.397,17.391,94.197,15.47,95.798,13.869C97.399,12.269,99.319,11.468,101.561,11.468ZM60.644,49.695C57.635,49.695,55.058,50.768,52.913,52.913C50.768,55.058,49.695,57.635,49.695,60.644C49.695,63.654,50.768,66.231,52.913,68.376C55.058,70.521,57.635,71.594,60.644,71.594C63.654,71.594,66.231,70.521,68.376,68.376C70.521,66.231,71.594,63.654,71.594,60.644C71.594,57.635,70.521,55.058,68.376,52.913C66.231,50.768,63.654,49.695,60.644,49.695ZM60.644,49.695"/>
</g>
  <g id="Bold-M" transform="matrix(1.0,0.0,0.0,1.0,2272.4514443969724,1016.4567794799805)">  <path stroke-width="1px" stroke-miterlimit="4" stroke-linecap="butt" stroke-dasharray="none" fill-opacity="1" stroke-opacity="1" stroke-linejoin="miter" clip-rule="evenodd" fill-rule="evenodd" stroke="none" fill="#000000" d="M101.561,11.468C103.866,11.468,105.819,12.269,107.42,13.869C109.02,15.47,109.821,17.391,109.821,19.632C109.821,21.937,109.02,23.874,107.42,25.443C105.819,27.012,103.866,27.796,101.561,27.796C100.985,27.796,100.392,27.732,99.784,27.604C99.175,27.476,98.583,27.284,98.007,27.028L77.933,47.198L79.758,49.695C82.768,47.966,85.889,46.429,89.123,45.085C92.356,43.74,95.686,42.604,99.112,41.675C102.537,40.747,106.059,40.026,109.677,39.514C113.294,39.002,116.992,38.746,120.77,38.746L126.149,38.938L126.149,49.887L120.77,49.695C117.249,49.695,113.775,49.951,110.349,50.463C106.923,50.976,103.61,51.696,100.408,52.624C97.206,53.553,94.101,54.722,91.092,56.13C88.082,57.539,85.2,59.108,82.448,60.837C82.448,63.846,81.887,66.663,80.766,69.289C79.646,71.914,78.109,74.203,76.156,76.156C74.203,78.109,71.914,79.646,69.289,80.766C66.663,81.887,63.846,82.448,60.837,82.448C59.108,85.2,57.539,88.082,56.13,91.092C54.722,94.101,53.553,97.206,52.624,100.408C51.696,103.61,50.976,106.923,50.463,110.349C49.951,113.775,49.695,117.249,49.695,120.77L49.887,126.149L38.938,126.149L38.746,120.77C38.746,116.992,39.002,113.294,39.514,109.677C40.026,106.059,40.747,102.537,41.675,99.112C42.604,95.686,43.74,92.356,45.085,89.123C46.429,85.889,47.966,82.768,49.695,79.758L47.198,77.933L27.028,98.007C27.284,98.583,27.476,99.175,27.604,99.784C27.732,100.392,27.796,100.985,27.796,101.561C27.796,103.866,27.012,105.819,25.443,107.42C23.874,109.02,21.937,109.821,19.632,109.821C17.391,109.821,15.47,109.02,13.869,107.42C12.269,105.819,11.468,103.866,11.468,101.561C11.468,99.319,12.269,97.399,13.869,95.798C15.47,94.197,17.391,93.397,19.632,93.397C20.272,93.397,20.897,93.461,21.505,93.589C22.113,93.717,22.674,93.941,23.186,94.261L43.356,73.995C41.883,72.202,40.747,70.153,39.946,67.848C39.146,65.543,38.746,63.142,38.746,60.644C38.746,57.635,39.322,54.802,40.475,52.144C41.627,49.487,43.196,47.166,45.181,45.181C47.166,43.196,49.487,41.627,52.144,40.475C54.802,39.322,57.635,38.746,60.644,38.746C63.142,38.746,65.543,39.146,67.848,39.946C70.153,40.747,72.202,41.883,73.995,43.356L94.261,23.186C93.941,22.674,93.717,22.113,93.589,21.505C93.461,20.897,93.397,20.272,93.397,19.632C93.397,17.391,94.197,15.47,95.798,13.869C97.399,12.269,99.319,11.468,101.561,11.468ZM60.644,49.695C57.635,49.695,55.058,50.768,52.913,52.913C50.768,55.058,49.695,57.635,49.695,60.644C49.695,63.654,50.768,66.231,52.913,68.376C55.058,70.521,57.635,71.594,60.644,71.594C63.654,71.594,66.231,70.521,68.376,68.376C70.521,66.231,71.594,63.654,71.594,60.644C71.594,57.635,70.521,55.058,68.376,52.913C66.231,50.768,63.654,49.695,60.644,49.695ZM60.644,49.695"/>
</g>
  <g id="Semibold-M" transform="matrix(1.0,0.0,0.0,1.0,1975.7414443969726,1016.4567794799805)">  <path stroke-linejoin="miter" stroke-width="1px" fill-rule="evenodd" stroke="none" stroke-opacity="1" stroke-miterlimit="4" stroke-dasharray="none" fill-opacity="1" stroke-linecap="butt" clip-rule="evenodd" fill="#000000" d="M101.561,11.468C103.866,11.468,105.819,12.269,107.42,13.869C109.02,15.47,109.821,17.391,109.821,19.632C109.821,21.937,109.02,23.874,107.42,25.443C105.819,27.012,103.866,27.796,101.561,27.796C100.985,27.796,100.392,27.732,99.784,27.604C99.175,27.476,98.583,27.284,98.007,27.028L77.933,47.198L79.758,49.695C82.768,47.966,85.889,46.429,89.123,45.085C92.356,43.74,95.686,42.604,99.112,41.675C102.537,40.747,106.059,40.026,109.677,39.514C113.294,39.002,116.992,38.746,120.77,38.746L126.149,38.938L126.149,49.887L120.77,49.695C117.249,49.695,113.775,49.951,110.349,50.463C106.923,50.976,103.61,51.696,100.408,52.624C97.206,53.553,94.101,54.722,91.092,56.13C88.082,57.539,85.2,59.108,82.448,60.837C82.448,63.846,81.887,66.663,80.766,69.289C79.646,71.914,78.109,74.203,76.156,76.156C74.203,78.109,71.914,79.646,69.289,80.766C66.663,81.887,63.846,82.448,60.837,82.448C59.108,85.2,57.539,88.082,56.13,91.092C54.722,94.101,53.553,97.206,52.624,100.408C51.696,103.61,50.976,106.923,50.463,110.349C49.951,113.775,49.695,117.249,49.695,120.77L49.887,126.149L38.938,126.149L38.746,120.77C38.746,116.992,39.002,113.294,39.514,109.677C40.026,106.059,40.747,102.537,41.675,99.112C42.604,95.686,43.74,92.356,45.085,89.123C46.429,85.889,47.966,82.768,49.695,79.758L47.198,77.933L27.028,98.007C27.284,98.583,27.476,99.175,27.604,99.784C27.732,100.392,27.796,100.985,27.796,101.561C27.796,103.866,27.012,105.819,25.443,107.42C23.874,109.02,21.937,109.821,19.632,109.821C17.391,109.821,15.47,109.02,13.869,107.42C12.269,105.819,11.468,103.866,11.468,101.561C11.468,99.319,12.269,97.399,13.869,95.798C15.47,94.197,17.391,93.397,19.632,93.397C20.272,93.397,20.897,93.461,21.505,93.589C22.113,93.717,22.674,93.941,23.186,94.261L43.356,73.995C41.883,72.202,40.747,70.153,39.946,67.848C39.146,65.543,38.746,63.142,38.746,60.644C38.746,57.635,39.322,54.802,40.475,52.144C41.627,49.487,43.196,47.166,45.181,45.181C47.166,43.196,49.487,41.627,52.144,40.475C54.802,39.322,57.635,38.746,60.644,38.746C63.142,38.746,65.543,39.146,67.848,39.946C70.153,40.747,72.202,41.883,73.995,43.356L94.261,23.186C93.941,22.674,93.717,22.113,93.589,21.505C93.461,20.897,93.397,20.272,93.397,19.632C93.397,17.391,94.197,15.47,95.798,13.869C97.399,12.269,99.319,11.468,101.561,11.468ZM60.644,49.695C57.635,49.695,55.058,50.768,52.913,52.913C50.768,55.058,49.695,57.635,49.695,60.644C49.695,63.654,50.768,66.231,52.913,68.376C55.058,70.521,57.635,71.594,60.644,71.594C63.654,71.594,66.231,70.521,68.376,68.376C70.521,66.231,71.594,63.654,71.594,60.644C71.594,57.635,70.521,55.058,68.376,52.913C66.231,50.768,63.654,49.695,60.644,49.695ZM60.644,49.695"/>
</g>
  <g id="Medium-M" transform="matrix(1.0,0.0,0.0,1.0,1679.0314443969726,1016.4567794799805)">  <path stroke-opacity="1" stroke-width="1px" clip-rule="evenodd" fill-opacity="1" stroke-miterlimit="4" stroke-dasharray="none" stroke-linejoin="miter" fill="#000000" fill-rule="evenodd" stroke-linecap="butt" stroke="none" d="M101.561,11.468C103.866,11.468,105.819,12.269,107.42,13.869C109.02,15.47,109.821,17.391,109.821,19.632C109.821,21.937,109.02,23.874,107.42,25.443C105.819,27.012,103.866,27.796,101.561,27.796C100.985,27.796,100.392,27.732,99.784,27.604C99.175,27.476,98.583,27.284,98.007,27.028L77.933,47.198L79.758,49.695C82.768,47.966,85.889,46.429,89.123,45.085C92.356,43.74,95.686,42.604,99.112,41.675C102.537,40.747,106.059,40.026,109.677,39.514C113.294,39.002,116.992,38.746,120.77,38.746L126.149,38.938L126.149,49.887L120.77,49.695C117.249,49.695,113.775,49.951,110.349,50.463C106.923,50.976,103.61,51.696,100.408,52.624C97.206,53.553,94.101,54.722,91.092,56.13C88.082,57.539,85.2,59.108,82.448,60.837C82.448,63.846,81.887,66.663,80.766,69.289C79.646,71.914,78.109,74.203,76.156,76.156C74.203,78.109,71.914,79.646,69.289,80.766C66.663,81.887,63.846,82.448,60.837,82.448C59.108,85.2,57.539,88.082,56.13,91.092C54.722,94.101,53.553,97.206,52.624,100.408C51.696,103.61,50.976,106.923,50.463,110.349C49.951,113.775,49.695,117.249,49.695,120.77L49.887,126.149L38.938,126.149L38.746,120.77C38.746,116.992,39.002,113.294,39.514,109.677C40.026,106.059,40.747,102.537,41.675,99.112C42.604,95.686,43.74,92.356,45.085,89.123C46.429,85.889,47.966,82.768,49.695,79.758L47.198,77.933L27.028,98.007C27.284,98.583,27.476,99.175,27.604,99.784C27.732,100.392,27.796,100.985,27.796,101.561C27.796,103.866,27.012,105.819,25.443,107.42C23.874,109.02,21.937,109.821,19.632,109.821C17.391,109.821,15.47,109.02,13.869,107.42C12.269,105.819,11.468,103.866,11.468,101.561C11.468,99.319,12.269,97.399,13.869,95.798C15.47,94.197,17.391,93.397,19.632,93.397C20.272,93.397,20.897,93.461,21.505,93.589C22.113,93.717,22.674,93.941,23.186,94.261L43.356,73.995C41.883,72.202,40.747,70.153,39.946,67.848C39.146,65.543,38.746,63.142,38.746,60.644C38.746,57.635,39.322,54.802,40.475,52.144C41.627,49.487,43.196,47.166,45.181,45.181C47.166,43.196,49.487,41.627,52.144,40.475C54.802,39.322,57.635,38.746,60.644,38.746C63.142,38.746,65.543,39.146,67.848,39.946C70.153,40.747,72.202,41.883,73.995,43.356L94.261,23.186C93.941,22.674,93.717,22.113,93.589,21.505C93.461,20.897,93.397,20.272,93.397,19.632C93.397,17.391,94.197,15.47,95.798,13.869C97.399,12.269,99.319,11.468,101.561,11.468ZM60.644,49.695C57.635,49.695,55.058,50.768,52.913,52.913C50.768,55.058,49.695,57.635,49.695,60.644C49.695,63.654,50.768,66.231,52.913,68.376C55.058,70.521,57.635,71.594,60.644,71.594C63.654,71.594,66.231,70.521,68.376,68.376C70.521,66.231,71.594,63.654,71.594,60.644C71.594,57.635,70.521,55.058,68.376,52.913C66.231,50.768,63.654,49.695,60.644,49.695ZM60.644,49.695"/>
</g>
  <g id="Regular-M" transform="matrix(1.0,0.0,0.0,1.0,1382.3214443969725,1016.4567794799805)">  <path stroke="none" stroke-opacity="1" stroke-linejoin="miter" stroke-miterlimit="4" stroke-linecap="butt" fill-rule="evenodd" fill="#000000" fill-opacity="1" clip-rule="evenodd" stroke-width="1px" stroke-dasharray="none" d="M101.561,11.468C103.866,11.468,105.819,12.269,107.42,13.869C109.02,15.47,109.821,17.391,109.821,19.632C109.821,21.937,109.02,23.874,107.42,25.443C105.819,27.012,103.866,27.796,101.561,27.796C100.985,27.796,100.392,27.732,99.784,27.604C99.175,27.476,98.583,27.284,98.007,27.028L77.933,47.198L79.758,49.695C82.768,47.966,85.889,46.429,89.123,45.085C92.356,43.74,95.686,42.604,99.112,41.675C102.537,40.747,106.059,40.026,109.677,39.514C113.294,39.002,116.992,38.746,120.77,38.746L126.149,38.938L126.149,49.887L120.77,49.695C117.249,49.695,113.775,49.951,110.349,50.463C106.923,50.976,103.61,51.696,100.408,52.624C97.206,53.553,94.101,54.722,91.092,56.13C88.082,57.539,85.2,59.108,82.448,60.837C82.448,63.846,81.887,66.663,80.766,69.289C79.646,71.914,78.109,74.203,76.156,76.156C74.203,78.109,71.914,79.646,69.289,80.766C66.663,81.887,63.846,82.448,60.837,82.448C59.108,85.2,57.539,88.082,56.13,91.092C54.722,94.101,53.553,97.206,52.624,100.408C51.696,103.61,50.976,106.923,50.463,110.349C49.951,113.775,49.695,117.249,49.695,120.77L49.887,126.149L38.938,126.149L38.746,120.77C38.746,116.992,39.002,113.294,39.514,109.677C40.026,106.059,40.747,102.537,41.675,99.112C42.604,95.686,43.74,92.356,45.085,89.123C46.429,85.889,47.966,82.768,49.695,79.758L47.198,77.933L27.028,98.007C27.284,98.583,27.476,99.175,27.604,99.784C27.732,100.392,27.796,100.985,27.796,101.561C27.796,103.866,27.012,105.819,25.443,107.42C23.874,109.02,21.937,109.821,19.632,109.821C17.391,109.821,15.47,109.02,13.869,107.42C12.269,105.819,11.468,103.866,11.468,101.561C11.468,99.319,12.269,97.399,13.869,95.798C15.47,94.197,17.391,93.397,19.632,93.397C20.272,93.397,20.897,93.461,21.505,93.589C22.113,93.717,22.674,93.941,23.186,94.261L43.356,73.995C41.883,72.202,40.747,70.153,39.946,67.848C39.146,65.543,38.746,63.142,38.746,60.644C38.746,57.635,39.322,54.802,40.475,52.144C41.627,49.487,43.196,47.166,45.181,45.181C47.166,43.196,49.487,41.627,52.144,40.475C54.802,39.322,57.635,38.746,60.644,38.746C63.142,38.746,65.543,39.146,67.848,39.946C70.153,40.747,72.202,41.883,73.995,43.356L94.261,23.186C93.941,22.674,93.717,22.113,93.589,21.505C93.461,20.897,93.397,20.272,93.397,19.632C93.397,17.391,94.197,15.47,95.798,13.869C97.399,12.269,99.319,11.468,101.561,11.468ZM60.644,49.695C57.635,49.695,55.058,50.768,52.913,52.913C50.768,55.058,49.695,57.635,49.695,60.644C49.695,63.654,50.768,66.231,52.913,68.376C55.058,70.521,57.635,71.594,60.644,71.594C63.654,71.594,66.231,70.521,68.376,68.376C70.521,66.231,71.594,63.654,71.594,60.644C71.594,57.635,70.521,55.058,68.376,52.913C66.231,50.768,63.654,49.695,60.644,49.695ZM60.644,49.695"/>
</g>
  <g id="Light-M" transform="matrix(1.0,0.0,0.0,1.0,1085.6114443969727,1016.4567794799805)">  <path stroke-linecap="butt" stroke-width="1px" clip-rule="evenodd" stroke-linejoin="miter" stroke-dasharray="none" stroke="none" stroke-miterlimit="4" fill-opacity="1" fill="#000000" fill-rule="evenodd" stroke-opacity="1" d="M101.561,11.468C103.866,11.468,105.819,12.269,107.42,13.869C109.02,15.47,109.821,17.391,109.821,19.632C109.821,21.937,109.02,23.874,107.42,25.443C105.819,27.012,103.866,27.796,101.561,27.796C100.985,27.796,100.392,27.732,99.784,27.604C99.175,27.476,98.583,27.284,98.007,27.028L77.933,47.198L79.758,49.695C82.768,47.966,85.889,46.429,89.123,45.085C92.356,43.74,95.686,42.604,99.112,41.675C102.537,40.747,106.059,40.026,109.677,39.514C113.294,39.002,116.992,38.746,120.77,38.746L126.149,38.938L126.149,49.887L120.77,49.695C117.249,49.695,113.775,49.951,110.349,50.463C106.923,50.976,103.61,51.696,100.408,52.624C97.206,53.553,94.101,54.722,91.092,56.13C88.082,57.539,85.2,59.108,82.448,60.837C82.448,63.846,81.887,66.663,80.766,69.289C79.646,71.914,78.109,74.203,76.156,76.156C74.203,78.109,71.914,79.646,69.289,80.766C66.663,81.887,63.846,82.448,60.837,82.448C59.108,85.2,57.539,88.082,56.13,91.092C54.722,94.101,53.553,97.206,52.624,100.408C51.696,103.61,50.976,106.923,50.463,110.349C49.951,113.775,49.695,117.249,49.695,120.77L49.887,126.149L38.938,126.149L38.746,120.77C38.746,116.992,39.002,113.294,39.514,109.677C40.026,106.059,40.747,102.537,41.675,99.112C42.604,95.686,43.74,92.356,45.085,89.123C46.429,85.889,47.966,82.768,49.695,79.758L47.198,77.933L27.028,98.007C27.284,98.583,27.476,99.175,27.604,99.784C27.732,100.392,27.796,100.985,27.796,101.561C27.796,103.866,27.012,105.819,25.443,107.42C23.874,109.02,21.937,109.821,19.632,109.821C17.391,109.821,15.47,109.02,13.869,107.42C12.269,105.819,11.468,103.866,11.468,101.561C11.468,99.319,12.269,97.399,13.869,95.798C15.47,94.197,17.391,93.397,19.632,93.397C20.272,93.397,20.897,93.461,21.505,93.589C22.113,93.717,22.674,93.941,23.186,94.261L43.356,73.995C41.883,72.202,40.747,70.153,39.946,67.848C39.146,65.543,38.746,63.142,38.746,60.644C38.746,57.635,39.322,54.802,40.475,52.144C41.627,49.487,43.196,47.166,45.181,45.181C47.166,43.196,49.487,41.627,52.144,40.475C54.802,39.322,57.635,38.746,60.644,38.746C63.142,38.746,65.543,39.146,67.848,39.946C70.153,40.747,72.202,41.883,73.995,43.356L94.261,23.186C93.941,22.674,93.717,22.113,93.589,21.505C93.461,20.897,93.397,20.272,93.397,19.632C93.397,17.391,94.197,15.47,95.798,13.869C97.399,12.269,99.319,11.468,101.561,11.468ZM60.644,49.695C57.635,49.695,55.058,50.768,52.913,52.913C50.768,55.058,49.695,57.635,49.695,60.644C49.695,63.654,50.768,66.231,52.913,68.376C55.058,70.521,57.635,71.594,60.644,71.594C63.654,71.594,66.231,70.521,68.376,68.376C70.521,66.231,71.594,63.654,71.594,60.644C71.594,57.635,70.521,55.058,68.376,52.913C66.231,50.768,63.654,49.695,60.644,49.695ZM60.644,49.695"/>
</g>
  <g id="Thin-M" transform="matrix(1.0,0.0,0.0,1.0,788.9014443969727,1016.4567794799805)">  <path fill-rule="evenodd" fill="#000000" stroke-width="1px" fill-opacity="1" stroke-linejoin="miter" stroke="none" stroke-miterlimit="4" stroke-opacity="1" stroke-linecap="butt" stroke-dasharray="none" clip-rule="evenodd" d="M101.561,11.468C103.866,11.468,105.819,12.269,107.42,13.869C109.02,15.47,109.821,17.391,109.821,19.632C109.821,21.937,109.02,23.874,107.42,25.443C105.819,27.012,103.866,27.796,101.561,27.796C100.985,27.796,100.392,27.732,99.784,27.604C99.175,27.476,98.583,27.284,98.007,27.028L77.933,47.198L79.758,49.695C82.768,47.966,85.889,46.429,89.123,45.085C92.356,43.74,95.686,42.604,99.112,41.675C102.537,40.747,106.059,40.026,109.677,39.514C113.294,39.002,116.992,38.746,120.77,38.746L126.149,38.938L126.149,49.887L120.77,49.695C117.249,49.695,113.775,49.951,110.349,50.463C106.923,50.976,103.61,51.696,100.408,52.624C97.206,53.553,94.101,54.722,91.092,56.13C88.082,57.539,85.2,59.108,82.448,60.837C82.448,63.846,81.887,66.663,80.766,69.289C79.646,71.914,78.109,74.203,76.156,76.156C74.203,78.109,71.914,79.646,69.289,80.766C66.663,81.887,63.846,82.448,60.837,82.448C59.108,85.2,57.539,88.082,56.13,91.092C54.722,94.101,53.553,97.206,52.624,100.408C51.696,103.61,50.976,106.923,50.463,110.349C49.951,113.775,49.695,117.249,49.695,120.77L49.887,126.149L38.938,126.149L38.746,120.77C38.746,116.992,39.002,113.294,39.514,109.677C40.026,106.059,40.747,102.537,41.675,99.112C42.604,95.686,43.74,92.356,45.085,89.123C46.429,85.889,47.966,82.768,49.695,79.758L47.198,77.933L27.028,98.007C27.284,98.583,27.476,99.175,27.604,99.784C27.732,100.392,27.796,100.985,27.796,101.561C27.796,103.866,27.012,105.819,25.443,107.42C23.874,109.02,21.937,109.821,19.632,109.821C17.391,109.821,15.47,109.02,13.869,107.42C12.269,105.819,11.468,103.866,11.468,101.561C11.468,99.319,12.269,97.399,13.869,95.798C15.47,94.197,17.391,93.397,19.632,93.397C20.272,93.397,20.897,93.461,21.505,93.589C22.113,93.717,22.674,93.941,23.186,94.261L43.356,73.995C41.883,72.202,40.747,70.153,39.946,67.848C39.146,65.543,38.746,63.142,38.746,60.644C38.746,57.635,39.322,54.802,40.475,52.144C41.627,49.487,43.196,47.166,45.181,45.181C47.166,43.196,49.487,41.627,52.144,40.475C54.802,39.322,57.635,38.746,60.644,38.746C63.142,38.746,65.543,39.146,67.848,39.946C70.153,40.747,72.202,41.883,73.995,43.356L94.261,23.186C93.941,22.674,93.717,22.113,93.589,21.505C93.461,20.897,93.397,20.272,93.397,19.632C93.397,17.391,94.197,15.47,95.798,13.869C97.399,12.269,99.319,11.468,101.561,11.468ZM60.644,49.695C57.635,49.695,55.058,50.768,52.913,52.913C50.768,55.058,49.695,57.635,49.695,60.644C49.695,63.654,50.768,66.231,52.913,68.376C55.058,70.521,57.635,71.594,60.644,71.594C63.654,71.594,66.231,70.521,68.376,68.376C70.521,66.231,71.594,63.654,71.594,60.644C71.594,57.635,70.521,55.058,68.376,52.913C66.231,50.768,63.654,49.695,60.644,49.695ZM60.644,49.695"/>
</g>
  <g id="Ultralight-M" transform="matrix(1.0,0.0,0.0,1.0,492.19144439697266,1016.4567794799805)">  <path fill="#000000" stroke-opacity="1" stroke-miterlimit="4" stroke-dasharray="none" stroke="none" stroke-width="1px" fill-opacity="1" stroke-linecap="butt" stroke-linejoin="miter" clip-rule="evenodd" fill-rule="evenodd" d="M101.561,11.468C103.866,11.468,105.819,12.269,107.42,13.869C109.02,15.47,109.821,17.391,109.821,19.632C109.821,21.937,109.02,23.874,107.42,25.443C105.819,27.012,103.866,27.796,101.561,27.796C100.985,27.796,100.392,27.732,99.784,27.604C99.175,27.476,98.583,27.284,98.007,27.028L77.933,47.198L79.758,49.695C82.768,47.966,85.889,46.429,89.123,45.085C92.356,43.74,95.686,42.604,99.112,41.675C102.537,40.747,106.059,40.026,109.677,39.514C113.294,39.002,116.992,38.746,120.77,38.746L126.149,38.938L126.149,49.887L120.77,49.695C117.249,49.695,113.775,49.951,110.349,50.463C106.923,50.976,103.61,51.696,100.408,52.624C97.206,53.553,94.101,54.722,91.092,56.13C88.082,57.539,85.2,59.108,82.448,60.837C82.448,63.846,81.887,66.663,80.766,69.289C79.646,71.914,78.109,74.203,76.156,76.156C74.203,78.109,71.914,79.646,69.289,80.766C66.663,81.887,63.846,82.448,60.837,82.448C59.108,85.2,57.539,88.082,56.13,91.092C54.722,94.101,53.553,97.206,52.624,100.408C51.696,103.61,50.976,106.923,50.463,110.349C49.951,113.775,49.695,117.249,49.695,120.77L49.887,126.149L38.938,126.149L38.746,120.77C38.746,116.992,39.002,113.294,39.514,109.677C40.026,106.059,40.747,102.537,41.675,99.112C42.604,95.686,43.74,92.356,45.085,89.123C46.429,85.889,47.966,82.768,49.695,79.758L47.198,77.933L27.028,98.007C27.284,98.583,27.476,99.175,27.604,99.784C27.732,100.392,27.796,100.985,27.796,101.561C27.796,103.866,27.012,105.819,25.443,107.42C23.874,109.02,21.937,109.821,19.632,109.821C17.391,109.821,15.47,109.02,13.869,107.42C12.269,105.819,11.468,103.866,11.468,101.561C11.468,99.319,12.269,97.399,13.869,95.798C15.47,94.197,17.391,93.397,19.632,93.397C20.272,93.397,20.897,93.461,21.505,93.589C22.113,93.717,22.674,93.941,23.186,94.261L43.356,73.995C41.883,72.202,40.747,70.153,39.946,67.848C39.146,65.543,38.746,63.142,38.746,60.644C38.746,57.635,39.322,54.802,40.475,52.144C41.627,49.487,43.196,47.166,45.181,45.181C47.166,43.196,49.487,41.627,52.144,40.475C54.802,39.322,57.635,38.746,60.644,38.746C63.142,38.746,65.543,39.146,67.848,39.946C70.153,40.747,72.202,41.883,73.995,43.356L94.261,23.186C93.941,22.674,93.717,22.113,93.589,21.505C93.461,20.897,93.397,20.272,93.397,19.632C93.397,17.391,94.197,15.47,95.798,13.869C97.399,12.269,99.319,11.468,101.561,11.468ZM60.644,49.695C57.635,49.695,55.058,50.768,52.913,52.913C50.768,55.058,49.695,57.635,49.695,60.644C49.695,63.654,50.768,66.231,52.913,68.376C55.058,70.521,57.635,71.594,60.644,71.594C63.654,71.594,66.231,70.521,68.376,68.376C70.521,66.231,71.594,63.654,71.594,60.644C71.594,57.635,70.521,55.058,68.376,52.913C66.231,50.768,63.654,49.695,60.644,49.695ZM60.644,49.695"/>
</g>
  <g id="Black-S" transform="matrix(1.0,0.0,0.0,1.0,2880.8029009628294,602.582752571106)">  <path stroke-linecap="butt" fill-rule="evenodd" clip-rule="evenodd" fill="#000000" stroke-linejoin="miter" stroke-opacity="1" stroke-dasharray="none" stroke-width="1px" stroke="none" fill-opacity="1" stroke-miterlimit="4" d="M79.522,8.98C81.327,8.98,82.856,9.606,84.11,10.86C85.363,12.113,85.99,13.617,85.99,15.372C85.99,17.177,85.363,18.694,84.11,19.922C82.856,21.15,81.327,21.764,79.522,21.764C79.071,21.764,78.607,21.714,78.131,21.614C77.654,21.514,77.191,21.363,76.739,21.163L61.022,36.956L62.45,38.911C64.807,37.558,67.251,36.354,69.783,35.301C72.315,34.249,74.922,33.359,77.605,32.632C80.287,31.905,83.044,31.341,85.877,30.939C88.71,30.538,91.605,30.338,94.563,30.338L98.775,30.488L98.775,39.062L94.563,38.911C91.806,38.911,89.086,39.112,86.404,39.513C83.721,39.914,81.126,40.478,78.62,41.205C76.113,41.932,73.681,42.847,71.325,43.95C68.968,45.053,66.712,46.281,64.556,47.635C64.556,49.992,64.117,52.197,63.24,54.253C62.363,56.309,61.159,58.101,59.63,59.63C58.101,61.159,56.309,62.363,54.253,63.24C52.197,64.117,49.992,64.556,47.635,64.556C46.281,66.712,45.053,68.968,43.95,71.325C42.847,73.681,41.932,76.113,41.205,78.62C40.478,81.126,39.914,83.721,39.513,86.404C39.112,89.086,38.911,91.806,38.911,94.563L39.062,98.775L30.488,98.775L30.338,94.563C30.338,91.605,30.538,88.71,30.939,85.877C31.341,83.044,31.905,80.287,32.632,77.605C33.359,74.922,34.249,72.315,35.301,69.783C36.354,67.251,37.558,64.807,38.911,62.45L36.956,61.022L21.163,76.739C21.363,77.191,21.514,77.654,21.614,78.131C21.714,78.607,21.764,79.071,21.764,79.522C21.764,81.327,21.15,82.856,19.922,84.11C18.694,85.363,17.177,85.99,15.372,85.99C13.617,85.99,12.113,85.363,10.86,84.11C9.606,82.856,8.98,81.327,8.98,79.522C8.98,77.767,9.606,76.263,10.86,75.01C12.113,73.756,13.617,73.13,15.372,73.13C15.873,73.13,16.362,73.18,16.838,73.28C17.315,73.38,17.753,73.556,18.155,73.807L33.948,57.938C32.795,56.534,31.905,54.93,31.278,53.125C30.651,51.32,30.338,49.44,30.338,47.485C30.338,45.128,30.789,42.91,31.692,40.829C32.594,38.748,33.822,36.931,35.377,35.377C36.931,33.822,38.748,32.594,40.829,31.692C42.91,30.789,45.128,30.338,47.485,30.338C49.44,30.338,51.32,30.651,53.125,31.278C54.93,31.905,56.534,32.795,57.938,33.948L73.807,18.155C73.556,17.753,73.38,17.315,73.28,16.838C73.18,16.362,73.13,15.873,73.13,15.372C73.13,13.617,73.756,12.113,75.01,10.86C76.263,9.606,77.767,8.98,79.522,8.98ZM47.485,38.911C45.128,38.911,43.11,39.751,41.431,41.431C39.751,43.11,38.911,45.128,38.911,47.485C38.911,49.841,39.751,51.859,41.431,53.539C43.11,55.218,45.128,56.058,47.485,56.058C49.841,56.058,51.859,55.218,53.539,53.539C55.218,51.859,56.058,49.841,56.058,47.485C56.058,45.128,55.218,43.11,53.539,41.431C51.859,39.751,49.841,38.911,47.485,38.911ZM47.485,38.911"/>
</g>
  <g id="Heavy-S" transform="matrix(1.0,0.0,0.0,1.0,2584.0929009628294,602.582752571106)">  <path clip-rule="evenodd" stroke="none" stroke-linecap="butt" stroke-linejoin="miter" stroke-opacity="1" stroke-width="1px" fill="#000000" fill-rule="evenodd" stroke-miterlimit="4" stroke-dasharray="none" fill-opacity="1" d="M79.522,8.98C81.327,8.98,82.856,9.606,84.11,10.86C85.363,12.113,85.99,13.617,85.99,15.372C85.99,17.177,85.363,18.694,84.11,19.922C82.856,21.15,81.327,21.764,79.522,21.764C79.071,21.764,78.607,21.714,78.131,21.614C77.654,21.514,77.191,21.363,76.739,21.163L61.022,36.956L62.45,38.911C64.807,37.558,67.251,36.354,69.783,35.301C72.315,34.249,74.922,33.359,77.605,32.632C80.287,31.905,83.044,31.341,85.877,30.939C88.71,30.538,91.605,30.338,94.563,30.338L98.775,30.488L98.775,39.062L94.563,38.911C91.806,38.911,89.086,39.112,86.404,39.513C83.721,39.914,81.126,40.478,78.62,41.205C76.113,41.932,73.681,42.847,71.325,43.95C68.968,45.053,66.712,46.281,64.556,47.635C64.556,49.992,64.117,52.197,63.24,54.253C62.363,56.309,61.159,58.101,59.63,59.63C58.101,61.159,56.309,62.363,54.253,63.24C52.197,64.117,49.992,64.556,47.635,64.556C46.281,66.712,45.053,68.968,43.95,71.325C42.847,73.681,41.932,76.113,41.205,78.62C40.478,81.126,39.914,83.721,39.513,86.404C39.112,89.086,38.911,91.806,38.911,94.563L39.062,98.775L30.488,98.775L30.338,94.563C30.338,91.605,30.538,88.71,30.939,85.877C31.341,83.044,31.905,80.287,32.632,77.605C33.359,74.922,34.249,72.315,35.301,69.783C36.354,67.251,37.558,64.807,38.911,62.45L36.956,61.022L21.163,76.739C21.363,77.191,21.514,77.654,21.614,78.131C21.714,78.607,21.764,79.071,21.764,79.522C21.764,81.327,21.15,82.856,19.922,84.11C18.694,85.363,17.177,85.99,15.372,85.99C13.617,85.99,12.113,85.363,10.86,84.11C9.606,82.856,8.98,81.327,8.98,79.522C8.98,77.767,9.606,76.263,10.86,75.01C12.113,73.756,13.617,73.13,15.372,73.13C15.873,73.13,16.362,73.18,16.838,73.28C17.315,73.38,17.753,73.556,18.155,73.807L33.948,57.938C32.795,56.534,31.905,54.93,31.278,53.125C30.651,51.32,30.338,49.44,30.338,47.485C30.338,45.128,30.789,42.91,31.692,40.829C32.594,38.748,33.822,36.931,35.377,35.377C36.931,33.822,38.748,32.594,40.829,31.692C42.91,30.789,45.128,30.338,47.485,30.338C49.44,30.338,51.32,30.651,53.125,31.278C54.93,31.905,56.534,32.795,57.938,33.948L73.807,18.155C73.556,17.753,73.38,17.315,73.28,16.838C73.18,16.362,73.13,15.873,73.13,15.372C73.13,13.617,73.756,12.113,75.01,10.86C76.263,9.606,77.767,8.98,79.522,8.98ZM47.485,38.911C45.128,38.911,43.11,39.751,41.431,41.431C39.751,43.11,38.911,45.128,38.911,47.485C38.911,49.841,39.751,51.859,41.431,53.539C43.11,55.218,45.128,56.058,47.485,56.058C49.841,56.058,51.859,55.218,53.539,53.539C55.218,51.859,56.058,49.841,56.058,47.485C56.058,45.128,55.218,43.11,53.539,41.431C51.859,39.751,49.841,38.911,47.485,38.911ZM47.485,38.911"/>
</g>
  <g id="Bold-S" transform="matrix(1.0,0.0,0.0,1.0,2287.3829009628294,602.582752571106)">  <path stroke-width="1px" stroke-miterlimit="4" stroke-linecap="butt" stroke-dasharray="none" fill-opacity="1" stroke-opacity="1" stroke-linejoin="miter" clip-rule="evenodd" fill-rule="evenodd" stroke="none" fill="#000000" d="M79.522,8.98C81.327,8.98,82.856,9.606,84.11,10.86C85.363,12.113,85.99,13.617,85.99,15.372C85.99,17.177,85.363,18.694,84.11,19.922C82.856,21.15,81.327,21.764,79.522,21.764C79.071,21.764,78.607,21.714,78.131,21.614C77.654,21.514,77.191,21.363,76.739,21.163L61.022,36.956L62.45,38.911C64.807,37.558,67.251,36.354,69.783,35.301C72.315,34.249,74.922,33.359,77.605,32.632C80.287,31.905,83.044,31.341,85.877,30.939C88.71,30.538,91.605,30.338,94.563,30.338L98.775,30.488L98.775,39.062L94.563,38.911C91.806,38.911,89.086,39.112,86.404,39.513C83.721,39.914,81.126,40.478,78.62,41.205C76.113,41.932,73.681,42.847,71.325,43.95C68.968,45.053,66.712,46.281,64.556,47.635C64.556,49.992,64.117,52.197,63.24,54.253C62.363,56.309,61.159,58.101,59.63,59.63C58.101,61.159,56.309,62.363,54.253,63.24C52.197,64.117,49.992,64.556,47.635,64.556C46.281,66.712,45.053,68.968,43.95,71.325C42.847,73.681,41.932,76.113,41.205,78.62C40.478,81.126,39.914,83.721,39.513,86.404C39.112,89.086,38.911,91.806,38.911,94.563L39.062,98.775L30.488,98.775L30.338,94.563C30.338,91.605,30.538,88.71,30.939,85.877C31.341,83.044,31.905,80.287,32.632,77.605C33.359,74.922,34.249,72.315,35.301,69.783C36.354,67.251,37.558,64.807,38.911,62.45L36.956,61.022L21.163,76.739C21.363,77.191,21.514,77.654,21.614,78.131C21.714,78.607,21.764,79.071,21.764,79.522C21.764,81.327,21.15,82.856,19.922,84.11C18.694,85.363,17.177,85.99,15.372,85.99C13.617,85.99,12.113,85.363,10.86,84.11C9.606,82.856,8.98,81.327,8.98,79.522C8.98,77.767,9.606,76.263,10.86,75.01C12.113,73.756,13.617,73.13,15.372,73.13C15.873,73.13,16.362,73.18,16.838,73.28C17.315,73.38,17.753,73.556,18.155,73.807L33.948,57.938C32.795,56.534,31.905,54.93,31.278,53.125C30.651,51.32,30.338,49.44,30.338,47.485C30.338,45.128,30.789,42.91,31.692,40.829C32.594,38.748,33.822,36.931,35.377,35.377C36.931,33.822,38.748,32.594,40.829,31.692C42.91,30.789,45.128,30.338,47.485,30.338C49.44,30.338,51.32,30.651,53.125,31.278C54.93,31.905,56.534,32.795,57.938,33.948L73.807,18.155C73.556,17.753,73.38,17.315,73.28,16.838C73.18,16.362,73.13,15.873,73.13,15.372C73.13,13.617,73.756,12.113,75.01,10.86C76.263,9.606,77.767,8.98,79.522,8.98ZM47.485,38.911C45.128,38.911,43.11,39.751,41.431,41.431C39.751,43.11,38.911,45.128,38.911,47.485C38.911,49.841,39.751,51.859,41.431,53.539C43.11,55.218,45.128,56.058,47.485,56.058C49.841,56.058,51.859,55.218,53.539,53.539C55.218,51.859,56.058,49.841,56.058,47.485C56.058,45.128,55.218,43.11,53.539,41.431C51.859,39.751,49.841,38.911,47.485,38.911ZM47.485,38.911"/>
</g>
  <g id="Semibold-S" transform="matrix(1.0,0.0,0.0,1.0,1990.6729009628295,602.582752571106)">  <path stroke-linejoin="miter" stroke-width="1px" fill-rule="evenodd" stroke="none" stroke-opacity="1" stroke-miterlimit="4" stroke-dasharray="none" fill-opacity="1" stroke-linecap="butt" clip-rule="evenodd" fill="#000000" d="M79.522,8.98C81.327,8.98,82.856,9.606,84.11,10.86C85.363,12.113,85.99,13.617,85.99,15.372C85.99,17.177,85.363,18.694,84.11,19.922C82.856,21.15,81.327,21.764,79.522,21.764C79.071,21.764,78.607,21.714,78.131,21.614C77.654,21.514,77.191,21.363,76.739,21.163L61.022,36.956L62.45,38.911C64.807,37.558,67.251,36.354,69.783,35.301C72.315,34.249,74.922,33.359,77.605,32.632C80.287,31.905,83.044,31.341,85.877,30.939C88.71,30.538,91.605,30.338,94.563,30.338L98.775,30.488L98.775,39.062L94.563,38.911C91.806,38.911,89.086,39.112,86.404,39.513C83.721,39.914,81.126,40.478,78.62,41.205C76.113,41.932,73.681,42.847,71.325,43.95C68.968,45.053,66.712,46.281,64.556,47.635C64.556,49.992,64.117,52.197,63.24,54.253C62.363,56.309,61.159,58.101,59.63,59.63C58.101,61.159,56.309,62.363,54.253,63.24C52.197,64.117,49.992,64.556,47.635,64.556C46.281,66.712,45.053,68.968,43.95,71.325C42.847,73.681,41.932,76.113,41.205,78.62C40.478,81.126,39.914,83.721,39.513,86.404C39.112,89.086,38.911,91.806,38.911,94.563L39.062,98.775L30.488,98.775L30.338,94.563C30.338,91.605,30.538,88.71,30.939,85.877C31.341,83.044,31.905,80.287,32.632,77.605C33.359,74.922,34.249,72.315,35.301,69.783C36.354,67.251,37.558,64.807,38.911,62.45L36.956,61.022L21.163,76.739C21.363,77.191,21.514,77.654,21.614,78.131C21.714,78.607,21.764,79.071,21.764,79.522C21.764,81.327,21.15,82.856,19.922,84.11C18.694,85.363,17.177,85.99,15.372,85.99C13.617,85.99,12.113,85.363,10.86,84.11C9.606,82.856,8.98,81.327,8.98,79.522C8.98,77.767,9.606,76.263,10.86,75.01C12.113,73.756,13.617,73.13,15.372,73.13C15.873,73.13,16.362,73.18,16.838,73.28C17.315,73.38,17.753,73.556,18.155,73.807L33.948,57.938C32.795,56.534,31.905,54.93,31.278,53.125C30.651,51.32,30.338,49.44,30.338,47.485C30.338,45.128,30.789,42.91,31.692,40.829C32.594,38.748,33.822,36.931,35.377,35.377C36.931,33.822,38.748,32.594,40.829,31.692C42.91,30.789,45.128,30.338,47.485,30.338C49.44,30.338,51.32,30.651,53.125,31.278C54.93,31.905,56.534,32.795,57.938,33.948L73.807,18.155C73.556,17.753,73.38,17.315,73.28,16.838C73.18,16.362,73.13,15.873,73.13,15.372C73.13,13.617,73.756,12.113,75.01,10.86C76.263,9.606,77.767,8.98,79.522,8.98ZM47.485,38.911C45.128,38.911,43.11,39.751,41.431,41.431C39.751,43.11,38.911,45.128,38.911,47.485C38.911,49.841,39.751,51.859,41.431,53.539C43.11,55.218,45.128,56.058,47.485,56.058C49.841,56.058,51.859,55.218,53.539,53.539C55.218,51.859,56.058,49.841,56.058,47.485C56.058,45.128,55.218,43.11,53.539,41.431C51.859,39.751,49.841,38.911,47.485,38.911ZM47.485,38.911"/>
</g>
  <g id="Medium-S" transform="matrix(1.0,0.0,0.0,1.0,1693.9629009628295,602.582752571106)">  <path stroke-opacity="1" stroke-width="1px" clip-rule="evenodd" fill-opacity="1" stroke-miterlimit="4" stroke-dasharray="none" stroke-linejoin="miter" fill="#000000" fill-rule="evenodd" stroke-linecap="butt" stroke="none" d="M79.522,8.98C81.327,8.98,82.856,9.606,84.11,10.86C85.363,12.113,85.99,13.617,85.99,15.372C85.99,17.177,85.363,18.694,84.11,19.922C82.856,21.15,81.327,21.764,79.522,21.764C79.071,21.764,78.607,21.714,78.131,21.614C77.654,21.514,77.191,21.363,76.739,21.163L61.022,36.956L62.45,38.911C64.807,37.558,67.251,36.354,69.783,35.301C72.315,34.249,74.922,33.359,77.605,32.632C80.287,31.905,83.044,31.341,85.877,30.939C88.71,30.538,91.605,30.338,94.563,30.338L98.775,30.488L98.775,39.062L94.563,38.911C91.806,38.911,89.086,39.112,86.404,39.513C83.721,39.914,81.126,40.478,78.62,41.205C76.113,41.932,73.681,42.847,71.325,43.95C68.968,45.053,66.712,46.281,64.556,47.635C64.556,49.992,64.117,52.197,63.24,54.253C62.363,56.309,61.159,58.101,59.63,59.63C58.101,61.159,56.309,62.363,54.253,63.24C52.197,64.117,49.992,64.556,47.635,64.556C46.281,66.712,45.053,68.968,43.95,71.325C42.847,73.681,41.932,76.113,41.205,78.62C40.478,81.126,39.914,83.721,39.513,86.404C39.112,89.086,38.911,91.806,38.911,94.563L39.062,98.775L30.488,98.775L30.338,94.563C30.338,91.605,30.538,88.71,30.939,85.877C31.341,83.044,31.905,80.287,32.632,77.605C33.359,74.922,34.249,72.315,35.301,69.783C36.354,67.251,37.558,64.807,38.911,62.45L36.956,61.022L21.163,76.739C21.363,77.191,21.514,77.654,21.614,78.131C21.714,78.607,21.764,79.071,21.764,79.522C21.764,81.327,21.15,82.856,19.922,84.11C18.694,85.363,17.177,85.99,15.372,85.99C13.617,85.99,12.113,85.363,10.86,84.11C9.606,82.856,8.98,81.327,8.98,79.522C8.98,77.767,9.606,76.263,10.86,75.01C12.113,73.756,13.617,73.13,15.372,73.13C15.873,73.13,16.362,73.18,16.838,73.28C17.315,73.38,17.753,73.556,18.155,73.807L33.948,57.938C32.795,56.534,31.905,54.93,31.278,53.125C30.651,51.32,30.338,49.44,30.338,47.485C30.338,45.128,30.789,42.91,31.692,40.829C32.594,38.748,33.822,36.931,35.377,35.377C36.931,33.822,38.748,32.594,40.829,31.692C42.91,30.789,45.128,30.338,47.485,30.338C49.44,30.338,51.32,30.651,53.125,31.278C54.93,31.905,56.534,32.795,57.938,33.948L73.807,18.155C73.556,17.753,73.38,17.315,73.28,16.838C73.18,16.362,73.13,15.873,73.13,15.372C73.13,13.617,73.756,12.113,75.01,10.86C76.263,9.606,77.767,8.98,79.522,8.98ZM47.485,38.911C45.128,38.911,43.11,39.751,41.431,41.431C39.751,43.11,38.911,45.128,38.911,47.485C38.911,49.841,39.751,51.859,41.431,53.539C43.11,55.218,45.128,56.058,47.485,56.058C49.841,56.058,51.859,55.218,53.539,53.539C55.218,51.859,56.058,49.841,56.058,47.485C56.058,45.128,55.218,43.11,53.539,41.431C51.859,39.751,49.841,38.911,47.485,38.911ZM47.485,38.911"/>
</g>
  <g id="Regular-S" transform="matrix(1.0,0.0,0.0,1.0,1397.2529009628295,602.582752571106)">  <path stroke="none" stroke-opacity="1" stroke-linejoin="miter" stroke-miterlimit="4" stroke-linecap="butt" fill-rule="evenodd" fill="#000000" fill-opacity="1" clip-rule="evenodd" stroke-width="1px" stroke-dasharray="none" d="M79.522,8.98C81.327,8.98,82.856,9.606,84.11,10.86C85.363,12.113,85.99,13.617,85.99,15.372C85.99,17.177,85.363,18.694,84.11,19.922C82.856,21.15,81.327,21.764,79.522,21.764C79.071,21.764,78.607,21.714,78.131,21.614C77.654,21.514,77.191,21.363,76.739,21.163L61.022,36.956L62.45,38.911C64.807,37.558,67.251,36.354,69.783,35.301C72.315,34.249,74.922,33.359,77.605,32.632C80.287,31.905,83.044,31.341,85.877,30.939C88.71,30.538,91.605,30.338,94.563,30.338L98.775,30.488L98.775,39.062L94.563,38.911C91.806,38.911,89.086,39.112,86.404,39.513C83.721,39.914,81.126,40.478,78.62,41.205C76.113,41.932,73.681,42.847,71.325,43.95C68.968,45.053,66.712,46.281,64.556,47.635C64.556,49.992,64.117,52.197,63.24,54.253C62.363,56.309,61.159,58.101,59.63,59.63C58.101,61.159,56.309,62.363,54.253,63.24C52.197,64.117,49.992,64.556,47.635,64.556C46.281,66.712,45.053,68.968,43.95,71.325C42.847,73.681,41.932,76.113,41.205,78.62C40.478,81.126,39.914,83.721,39.513,86.404C39.112,89.086,38.911,91.806,38.911,94.563L39.062,98.775L30.488,98.775L30.338,94.563C30.338,91.605,30.538,88.71,30.939,85.877C31.341,83.044,31.905,80.287,32.632,77.605C33.359,74.922,34.249,72.315,35.301,69.783C36.354,67.251,37.558,64.807,38.911,62.45L36.956,61.022L21.163,76.739C21.363,77.191,21.514,77.654,21.614,78.131C21.714,78.607,21.764,79.071,21.764,79.522C21.764,81.327,21.15,82.856,19.922,84.11C18.694,85.363,17.177,85.99,15.372,85.99C13.617,85.99,12.113,85.363,10.86,84.11C9.606,82.856,8.98,81.327,8.98,79.522C8.98,77.767,9.606,76.263,10.86,75.01C12.113,73.756,13.617,73.13,15.372,73.13C15.873,73.13,16.362,73.18,16.838,73.28C17.315,73.38,17.753,73.556,18.155,73.807L33.948,57.938C32.795,56.534,31.905,54.93,31.278,53.125C30.651,51.32,30.338,49.44,30.338,47.485C30.338,45.128,30.789,42.91,31.692,40.829C32.594,38.748,33.822,36.931,35.377,35.377C36.931,33.822,38.748,32.594,40.829,31.692C42.91,30.789,45.128,30.338,47.485,30.338C49.44,30.338,51.32,30.651,53.125,31.278C54.93,31.905,56.534,32.795,57.938,33.948L73.807,18.155C73.556,17.753,73.38,17.315,73.28,16.838C73.18,16.362,73.13,15.873,73.13,15.372C73.13,13.617,73.756,12.113,75.01,10.86C76.263,9.606,77.767,8.98,79.522,8.98ZM47.485,38.911C45.128,38.911,43.11,39.751,41.431,41.431C39.751,43.11,38.911,45.128,38.911,47.485C38.911,49.841,39.751,51.859,41.431,53.539C43.11,55.218,45.128,56.058,47.485,56.058C49.841,56.058,51.859,55.218,53.539,53.539C55.218,51.859,56.058,49.841,56.058,47.485C56.058,45.128,55.218,43.11,53.539,41.431C51.859,39.751,49.841,38.911,47.485,38.911ZM47.485,38.911"/>
</g>
  <g id="Light-S" transform="matrix(1.0,0.0,0.0,1.0,1100.5429009628297,602.582752571106)">  <path stroke-linecap="butt" stroke-width="1px" clip-rule="evenodd" stroke-linejoin="miter" stroke-dasharray="none" stroke="none" stroke-miterlimit="4" fill-opacity="1" fill="#000000" fill-rule="evenodd" stroke-opacity="1" d="M79.522,8.98C81.327,8.98,82.856,9.606,84.11,10.86C85.363,12.113,85.99,13.617,85.99,15.372C85.99,17.177,85.363,18.694,84.11,19.922C82.856,21.15,81.327,21.764,79.522,21.764C79.071,21.764,78.607,21.714,78.131,21.614C77.654,21.514,77.191,21.363,76.739,21.163L61.022,36.956L62.45,38.911C64.807,37.558,67.251,36.354,69.783,35.301C72.315,34.249,74.922,33.359,77.605,32.632C80.287,31.905,83.044,31.341,85.877,30.939C88.71,30.538,91.605,30.338,94.563,30.338L98.775,30.488L98.775,39.062L94.563,38.911C91.806,38.911,89.086,39.112,86.404,39.513C83.721,39.914,81.126,40.478,78.62,41.205C76.113,41.932,73.681,42.847,71.325,43.95C68.968,45.053,66.712,46.281,64.556,47.635C64.556,49.992,64.117,52.197,63.24,54.253C62.363,56.309,61.159,58.101,59.63,59.63C58.101,61.159,56.309,62.363,54.253,63.24C52.197,64.117,49.992,64.556,47.635,64.556C46.281,66.712,45.053,68.968,43.95,71.325C42.847,73.681,41.932,76.113,41.205,78.62C40.478,81.126,39.914,83.721,39.513,86.404C39.112,89.086,38.911,91.806,38.911,94.563L39.062,98.775L30.488,98.775L30.338,94.563C30.338,91.605,30.538,88.71,30.939,85.877C31.341,83.044,31.905,80.287,32.632,77.605C33.359,74.922,34.249,72.315,35.301,69.783C36.354,67.251,37.558,64.807,38.911,62.45L36.956,61.022L21.163,76.739C21.363,77.191,21.514,77.654,21.614,78.131C21.714,78.607,21.764,79.071,21.764,79.522C21.764,81.327,21.15,82.856,19.922,84.11C18.694,85.363,17.177,85.99,15.372,85.99C13.617,85.99,12.113,85.363,10.86,84.11C9.606,82.856,8.98,81.327,8.98,79.522C8.98,77.767,9.606,76.263,10.86,75.01C12.113,73.756,13.617,73.13,15.372,73.13C15.873,73.13,16.362,73.18,16.838,73.28C17.315,73.38,17.753,73.556,18.155,73.807L33.948,57.938C32.795,56.534,31.905,54.93,31.278,53.125C30.651,51.32,30.338,49.44,30.338,47.485C30.338,45.128,30.789,42.91,31.692,40.829C32.594,38.748,33.822,36.931,35.377,35.377C36.931,33.822,38.748,32.594,40.829,31.692C42.91,30.789,45.128,30.338,47.485,30.338C49.44,30.338,51.32,30.651,53.125,31.278C54.93,31.905,56.534,32.795,57.938,33.948L73.807,18.155C73.556,17.753,73.38,17.315,73.28,16.838C73.18,16.362,73.13,15.873,73.13,15.372C73.13,13.617,73.756,12.113,75.01,10.86C76.263,9.606,77.767,8.98,79.522,8.98ZM47.485,38.911C45.128,38.911,43.11,39.751,41.431,41.431C39.751,43.11,38.911,45.128,38.911,47.485C38.911,49.841,39.751,51.859,41.431,53.539C43.11,55.218,45.128,56.058,47.485,56.058C49.841,56.058,51.859,55.218,53.539,53.539C55.218,51.859,56.058,49.841,56.058,47.485C56.058,45.128,55.218,43.11,53.539,41.431C51.859,39.751,49.841,38.911,47.485,38.911ZM47.485,38.911"/>
</g>
  <g id="Thin-S" transform="matrix(1.0,0.0,0.0,1.0,803.8329009628296,602.582752571106)">  <path fill-rule="evenodd" fill="#000000" stroke-width="1px" fill-opacity="1" stroke-linejoin="miter" stroke="none" stroke-miterlimit="4" stroke-opacity="1" stroke-linecap="butt" stroke-dasharray="none" clip-rule="evenodd" d="M79.522,8.98C81.327,8.98,82.856,9.606,84.11,10.86C85.363,12.113,85.99,13.617,85.99,15.372C85.99,17.177,85.363,18.694,84.11,19.922C82.856,21.15,81.327,21.764,79.522,21.764C79.071,21.764,78.607,21.714,78.131,21.614C77.654,21.514,77.191,21.363,76.739,21.163L61.022,36.956L62.45,38.911C64.807,37.558,67.251,36.354,69.783,35.301C72.315,34.249,74.922,33.359,77.605,32.632C80.287,31.905,83.044,31.341,85.877,30.939C88.71,30.538,91.605,30.338,94.563,30.338L98.775,30.488L98.775,39.062L94.563,38.911C91.806,38.911,89.086,39.112,86.404,39.513C83.721,39.914,81.126,40.478,78.62,41.205C76.113,41.932,73.681,42.847,71.325,43.95C68.968,45.053,66.712,46.281,64.556,47.635C64.556,49.992,64.117,52.197,63.24,54.253C62.363,56.309,61.159,58.101,59.63,59.63C58.101,61.159,56.309,62.363,54.253,63.24C52.197,64.117,49.992,64.556,47.635,64.556C46.281,66.712,45.053,68.968,43.95,71.325C42.847,73.681,41.932,76.113,41.205,78.62C40.478,81.126,39.914,83.721,39.513,86.404C39.112,89.086,38.911,91.806,38.911,94.563L39.062,98.775L30.488,98.775L30.338,94.563C30.338,91.605,30.538,88.71,30.939,85.877C31.341,83.044,31.905,80.287,32.632,77.605C33.359,74.922,34.249,72.315,35.301,69.783C36.354,67.251,37.558,64.807,38.911,62.45L36.956,61.022L21.163,76.739C21.363,77.191,21.514,77.654,21.614,78.131C21.714,78.607,21.764,79.071,21.764,79.522C21.764,81.327,21.15,82.856,19.922,84.11C18.694,85.363,17.177,85.99,15.372,85.99C13.617,85.99,12.113,85.363,10.86,84.11C9.606,82.856,8.98,81.327,8.98,79.522C8.98,77.767,9.606,76.263,10.86,75.01C12.113,73.756,13.617,73.13,15.372,73.13C15.873,73.13,16.362,73.18,16.838,73.28C17.315,73.38,17.753,73.556,18.155,73.807L33.948,57.938C32.795,56.534,31.905,54.93,31.278,53.125C30.651,51.32,30.338,49.44,30.338,47.485C30.338,45.128,30.789,42.91,31.692,40.829C32.594,38.748,33.822,36.931,35.377,35.377C36.931,33.822,38.748,32.594,40.829,31.692C42.91,30.789,45.128,30.338,47.485,30.338C49.44,30.338,51.32,30.651,53.125,31.278C54.93,31.905,56.534,32.795,57.938,33.948L73.807,18.155C73.556,17.753,73.38,17.315,73.28,16.838C73.18,16.362,73.13,15.873,73.13,15.372C73.13,13.617,73.756,12.113,75.01,10.86C76.263,9.606,77.767,8.98,79.522,8.98ZM47.485,38.911C45.128,38.911,43.11,39.751,41.431,41.431C39.751,43.11,38.911,45.128,38.911,47.485C38.911,49.841,39.751,51.859,41.431,53.539C43.11,55.218,45.128,56.058,47.485,56.058C49.841,56.058,51.859,55.218,53.539,53.539C55.218,51.859,56.058,49.841,56.058,47.485C56.058,45.128,55.218,43.11,53.539,41.431C51.859,39.751,49.841,38.911,47.485,38.911ZM47.485,38.911"/>
</g>
  <g id="Ultralight-S" transform="matrix(1.0,0.0,0.0,1.0,507.1229009628296,602.582752571106)">  <path fill="#000000" stroke-opacity="1" stroke-miterlimit="4" stroke-dasharray="none" stroke="none" stroke-width="1px" fill-opacity="1" stroke-linecap="butt" stroke-linejoin="miter" clip-rule="evenodd" fill-rule="evenodd" d="M79.522,8.98C81.327,8.98,82.856,9.606,84.11,10.86C85.363,12.113,85.99,13.617,85.99,15.372C85.99,17.177,85.363,18.694,84.11,19.922C82.856,21.15,81.327,21.764,79.522,21.764C79.071,21.764,78.607,21.714,78.131,21.614C77.654,21.514,77.191,21.363,76.739,21.163L61.022,36.956L62.45,38.911C64.807,37.558,67.251,36.354,69.783,35.301C72.315,34.249,74.922,33.359,77.605,32.632C80.287,31.905,83.044,31.341,85.877,30.939C88.71,30.538,91.605,30.338,94.563,30.338L98.775,30.488L98.775,39.062L94.563,38.911C91.806,38.911,89.086,39.112,86.404,39.513C83.721,39.914,81.126,40.478,78.62,41.205C76.113,41.932,73.681,42.847,71.325,43.95C68.968,45.053,66.712,46.281,64.556,47.635C64.556,49.992,64.117,52.197,63.24,54.253C62.363,56.309,61.159,58.101,59.63,59.63C58.101,61.159,56.309,62.363,54.253,63.24C52.197,64.117,49.992,64.556,47.635,64.556C46.281,66.712,45.053,68.968,43.95,71.325C42.847,73.681,41.932,76.113,41.205,78.62C40.478,81.126,39.914,83.721,39.513,86.404C39.112,89.086,38.911,91.806,38.911,94.563L39.062,98.775L30.488,98.775L30.338,94.563C30.338,91.605,30.538,88.71,30.939,85.877C31.341,83.044,31.905,80.287,32.632,77.605C33.359,74.922,34.249,72.315,35.301,69.783C36.354,67.251,37.558,64.807,38.911,62.45L36.956,61.022L21.163,76.739C21.363,77.191,21.514,77.654,21.614,78.131C21.714,78.607,21.764,79.071,21.764,79.522C21.764,81.327,21.15,82.856,19.922,84.11C18.694,85.363,17.177,85.99,15.372,85.99C13.617,85.99,12.113,85.363,10.86,84.11C9.606,82.856,8.98,81.327,8.98,79.522C8.98,77.767,9.606,76.263,10.86,75.01C12.113,73.756,13.617,73.13,15.372,73.13C15.873,73.13,16.362,73.18,16.838,73.28C17.315,73.38,17.753,73.556,18.155,73.807L33.948,57.938C32.795,56.534,31.905,54.93,31.278,53.125C30.651,51.32,30.338,49.44,30.338,47.485C30.338,45.128,30.789,42.91,31.692,40.829C32.594,38.748,33.822,36.931,35.377,35.377C36.931,33.822,38.748,32.594,40.829,31.692C42.91,30.789,45.128,30.338,47.485,30.338C49.44,30.338,51.32,30.651,53.125,31.278C54.93,31.905,56.534,32.795,57.938,33.948L73.807,18.155C73.556,17.753,73.38,17.315,73.28,16.838C73.18,16.362,73.13,15.873,73.13,15.372C73.13,13.617,73.756,12.113,75.01,10.86C76.263,9.606,77.767,8.98,79.522,8.98ZM47.485,38.911C45.128,38.911,43.11,39.751,41.431,41.431C39.751,43.11,38.911,45.128,38.911,47.485C38.911,49.841,39.751,51.859,41.431,53.539C43.11,55.218,45.128,56.058,47.485,56.058C49.841,56.058,51.859,55.218,53.539,53.539C55.218,51.859,56.058,49.841,56.058,47.485C56.058,45.128,55.218,43.11,53.539,41.431C51.859,39.751,49.841,38.911,47.485,38.911ZM47.485,38.911"/>
</g>
 </g>
</svg>
