<?xml version="1.0" encoding="UTF-8"?><svg xmlns="http://www.w3.org/2000/svg" xmlns:xlink="http://www.w3.org/1999/xlink"><symbol viewBox="0 0 24 24" id="academic" xmlns="http://www.w3.org/2000/svg"><defs><path d="M17.4 11.346l.156 2.833c.069 1.263-2.492 2.294-5.556 2.294s-5.625-1.03-5.556-2.294l.157-2.833 4.982 1.622c.14.045.278.063.417.063.139 0 .278-.018.417-.063l4.982-1.622zM22 8.442a.3.3 0 0 1-.191.278l-9.722 3.155c-.035.009-.061.009-.087.009-.026 0-.052 0-.087-.01l-5.66-1.846c-.494.404-.842 1.39-.911 2.6.33.197.547.556.547.977 0 .403-.2.753-.504.959l.504 3.881a.301.301 0 0 1-.07.224.274.274 0 0 1-.208.099H3.944a.274.274 0 0 1-.208-.099.301.301 0 0 1-.07-.224l.504-3.881a1.152 1.152 0 0 1-.503-.96c0-.43.234-.797.564-.994.052-1.049.312-2.178.85-2.958l-2.89-.932A.3.3 0 0 1 2 8.442a.3.3 0 0 1 .191-.278l9.722-3.155C11.948 5 11.974 5 12 5c.026 0 .052 0 .087.009l9.722 3.155a.3.3 0 0 1 .191.278z" id="aaa"/></defs><use xlink:href="#aaa" fill-rule="evenodd"/></symbol><symbol viewBox="0 0 24 24" id="activity" xmlns="http://www.w3.org/2000/svg"><defs><path d="M12 2C6.422 2.044 1.956 6.556 2 12.067 2.045 17.533 6.511 22 12 22h.067c2.666-.022 5.177-1.067 7.044-2.978 1.866-1.91 2.91-4.422 2.889-7.089C21.955 6.467 17.489 2 12 2zm6.51 10.424H16.5a.642.642 0 0 1-.59-.437l-1.027-2.943-2.031 6.782c-.087.276-.306.46-.568.46h-.044c-.24 0-.48-.161-.568-.391l-2.337-5.517-1.114 1.747a.608.608 0 0 1-.524.299H5.49c-.35 0-.634-.3-.634-.667 0-.368.284-.667.634-.667h1.856l1.551-2.46a.62.62 0 0 1 .59-.298c.24.023.437.16.524.39l2.12 5.035 2.118-7.012a.634.634 0 0 1 .59-.46.62.62 0 0 1 .611.437l1.486 4.345h1.572c.35 0 .634.3.634.667 0 .368-.284.69-.634.69z" id="aba"/></defs><use fill-rule="nonzero" xlink:href="#aba"/></symbol><symbol viewBox="0 0 24 24" id="align-c" xmlns="http://www.w3.org/2000/svg"><g transform="translate(3 5)" fill-rule="evenodd"><rect x="3" width="12" height="2" rx="1"/><rect x="1" y="4" width="16" height="2" rx="1"/><rect x="2" y="8" width="14" height="2" rx="1"/><rect y="12" width="18" height="2" rx="1"/></g></symbol><symbol viewBox="0 0 24 24" id="align-l" xmlns="http://www.w3.org/2000/svg"><g transform="translate(3 5)" fill-rule="evenodd"><rect width="12" height="2" rx="1"/><rect y="4" width="16" height="2" rx="1"/><rect y="8" width="14" height="2" rx="1"/><rect y="12" width="18" height="2" rx="1"/></g></symbol><symbol viewBox="0 0 24 24" id="align-r" xmlns="http://www.w3.org/2000/svg"><g transform="translate(3 5)" fill-rule="evenodd"><rect x="6" width="12" height="2" rx="1"/><rect x="2" y="4" width="16" height="2" rx="1"/><rect x="4" y="8" width="14" height="2" rx="1"/><rect y="12" width="18" height="2" rx="1"/></g></symbol><symbol viewBox="0 0 24 24" id="arrow" xmlns="http://www.w3.org/2000/svg"><defs><path d="M5.473 4.384l6.06.437a1 1 0 0 1 .569 1.764L10 8.342l10.103 11.275a.329.329 0 0 1-.03.468.376.376 0 0 1-.498-.005L8.329 9.932 6.522 12.08a1 1 0 0 1-1.764-.586L4.403 5.44a1 1 0 0 1 1.07-1.056z" id="afa"/></defs><use fill-rule="nonzero" xlink:href="#afa"/></symbol><symbol viewBox="0 0 24 24" id="arrow-down-rect" xmlns="http://www.w3.org/2000/svg"><g fill-rule="evenodd"><path d="M12.037 6.6h-.521a.351.351 0 0 0-.372.363v7.153l-3.232-1.823a.353.353 0 0 0-.338.216.359.359 0 0 0 .058.397l4.16 4.38a.391.391 0 0 0 .28.113.386.386 0 0 0 .279-.113l4.16-4.38a.359.359 0 0 0 .06-.397.355.355 0 0 0-.338-.216L13 14.116V6.964a.348.348 0 0 0-.105-.261.37.37 0 0 0-.267-.102h-.591z"/><path d="M18.465 19H5.535A.535.535 0 0 1 5 18.465V5.535C5 5.24 5.239 5 5.535 5h12.93c.296 0 .535.24.535.535v12.93a.535.535 0 0 1-.535.535M19 3H5a2 2 0 0 0-2 2v14a2 2 0 0 0 2 2h14a2 2 0 0 0 2-2V5a2 2 0 0 0-2-2"/></g></symbol><symbol viewBox="0 0 24 24" id="arrow-left" xmlns="http://www.w3.org/2000/svg"><defs><path d="M14.5 7.002c0-.553-.352-.72-.774-.382l-5.952 4.76c-.427.343-.422.901 0 1.24l5.952 4.76c.427.343.774.164.774-.382V7.002z" id="aha"/></defs><use xlink:href="#aha" fill-rule="evenodd"/></symbol><symbol viewBox="0 0 24 24" id="arrow-right" xmlns="http://www.w3.org/2000/svg"><defs><path d="M16.5 7.002c0-.553-.352-.72-.774-.382l-5.952 4.76c-.427.343-.422.901 0 1.24l5.952 4.76c.427.343.774.164.774-.382V7.002z" id="aia"/></defs><use transform="matrix(-1 0 0 1 25.5 0)" xlink:href="#aia" fill-rule="evenodd"/></symbol><symbol viewBox="0 0 24 24" id="arrow-up-rect" xmlns="http://www.w3.org/2000/svg"><g fill-rule="evenodd"><path d="M12.628 17.399h-1.112a.351.351 0 0 1-.372-.363V9.884l-3.232 1.823a.353.353 0 0 1-.338-.216.359.359 0 0 1 .058-.397l4.16-4.38a.391.391 0 0 1 .28-.113c.109 0 .202.038.279.113l4.16 4.38c.102.12.12.254.06.397a.355.355 0 0 1-.338.216L13 9.884v7.152a.348.348 0 0 1-.105.26.37.37 0 0 1-.267.103z"/><path d="M18.465 19H5.535A.535.535 0 0 1 5 18.465V5.535C5 5.24 5.239 5 5.535 5h12.93c.296 0 .535.24.535.535v12.93a.535.535 0 0 1-.535.535M19 3H5a2 2 0 0 0-2 2v14a2 2 0 0 0 2 2h14a2 2 0 0 0 2-2V5a2 2 0 0 0-2-2"/></g></symbol><symbol viewBox="0 0 24 24" id="beaver" xmlns="http://www.w3.org/2000/svg"><defs><path d="M11.008 14.774v.125L11.357 17h1.287l.349-2.101.005-.123c.62.216 1.198.61 1.656 1.156.13.155.425.019.326-.15a3.477 3.477 0 0 0-1.972-1.586v-2.627c.43-.339.833-.87.987-1.572a.568.568 0 0 0-.268-.617c-.304-.175-.846-.38-1.718-.38-.873 0-1.415.205-1.72.38a.568.568 0 0 0-.267.617c.154.702.557 1.233.986 1.572v2.621a3.48 3.48 0 0 0-1.988 1.592c-.099.169.197.305.326.15a3.795 3.795 0 0 1 1.662-1.158zm5.382-5.066a.461.461 0 0 1-.437.615.461.461 0 0 1-.46-.525l-.284.028c-.125.013-.21.143-.18.278.133.61.61 2.096 2.1 1.947.247-.024.456-.087.634-.177.777 2.02 1.191 4.532 1.237 7.267A9.968 9.968 0 0 1 12 22a9.967 9.967 0 0 1-6.992-2.85c.046-2.734.458-5.245 1.234-7.265.173.084.375.143.61.166 1.492.15 1.969-1.337 2.101-1.947.03-.135-.055-.265-.18-.278l-.284-.028a.461.461 0 0 1-.46.525.461.461 0 0 1-.436-.615l-.229-.023C8.504 8.003 10.052 7 12.004 7c1.952 0 3.5 1.002 4.639 2.683l-.253.025zM5.822 10.914a1.946 1.946 0 0 1-.038-.088c.09-.189.262-.48.514-.873l.224.023s-.022.6.361 1.04c.362.418.91.445.91.444-.246.18-.54.258-.902.222-.53-.053-.865-.318-1.07-.768zm12.339 0c-.204.45-.539.715-1.07.768-.36.036-.655-.042-.902-.222 0 .001.549-.026.91-.443.384-.442.36-1.041.361-1.041l.214-.022c.15.218.323.513.519.886-.01.025-.02.05-.032.074zm-6.659 3.241c-.04-.151.496-.155.496-.155s.54-.007.5.143l-.378 1.439c-.012.036-.068.05-.122.048-.053.003-.109-.012-.121-.048l-.375-1.427zm7.48-4.86a9.66 9.66 0 0 0-.278-.48c-1.533-2.483-4.02-3.965-6.65-3.965-2.63 0-5.117 1.482-6.65 3.966a9.659 9.659 0 0 0-.278.48h-.748c-.374 0-.878.284-.878.993 0 .642.417.935.77.986-.506 1.45-.903 3.203-1.188 5.253A9.958 9.958 0 0 1 2 12C2 6.477 6.477 2 12 2s10 4.477 10 10a9.96 9.96 0 0 1-.998 4.359c-.283-1.974-.67-3.668-1.16-5.077.367-.001.874-.285.874-.993 0-.71-.503-.993-.878-.993h-.856zM11.545 21.99a10.17 10.17 0 0 0 .911 0h-.911z" id="aka"/></defs><use xlink:href="#aka" fill-rule="evenodd"/></symbol><symbol viewBox="0 0 24 24" id="bell" xmlns="http://www.w3.org/2000/svg"><defs><path d="M10.774 19.547a1.88 1.88 0 0 1-.566-1.376c0-.118.059-.177.176-.177.117 0 .176.06.176.177 0 .435.156.809.467 1.122.311.313.683.47 1.115.47.117 0 .176.059.176.176 0 .118-.059.177-.176.177-.535 0-.99-.19-1.368-.569zM16.987 8.4c0-1.215-.35-1.923-1.048-2.638-.7-.714-1.662-1.145-2.886-1.292.059-.133.088-.27.088-.41 0-.294-.102-.545-.306-.75a1.006 1.006 0 0 0-.743-.31c-.292 0-.54.103-.743.31a1.029 1.029 0 0 0-.306.75c0 .14.029.277.087.41-1.224.147-2.185.578-2.885 1.292-.7.715-1.049 1.68-1.049 2.895 0 1.93-.353 3.766-1.06 5.508C5.43 15.907 4.384 15.571 3 16.757c0 .383.138.715.415.995.277.28.606.553.985.553h4.896c0 .781.272 1.314.818 1.866a2.681 2.681 0 0 0 1.978.829 2.68 2.68 0 0 0 1.978-.829c.546-.552.82-1.085.82-1.866h4.896c.38 0 .706-.273.982-.553.277-.28.034-.612.034-.995-1.384-1.186-2.048-.85-2.755-2.592-.706-1.742-1.06-3.835-1.06-5.765z" id="ala"/></defs><use xlink:href="#ala" fill-rule="evenodd"/></symbol><symbol viewBox="0 0 24 24" id="blog" xmlns="http://www.w3.org/2000/svg"><g fill-rule="evenodd"><path d="M13 8l-4.951.016L8 16h5V8zm-1 1.003V15H9.006l.037-5.988L12 9.003zM14 9h5V8h-5zM14 11h5v-1h-5zM14 13h5v-1h-5zM14 15h5v-1h-5z"/><path d="M20 17a1 1 0 0 1-1 1H7V6h13v11zm-15 .5c0 .275-.225.5-.5.5a.501.501 0 0 1-.5-.5V8h1v9.5zM5 4v2H2v11a3 3 0 0 0 3 3h14a3 3 0 0 0 3-3V4H5z"/></g></symbol><symbol viewBox="0 0 24 24" id="business" xmlns="http://www.w3.org/2000/svg"><g fill-rule="evenodd"><path d="M8 14.006h2V12H8zM11 11.006h2V9h-2zM11 8.006h2V6h-2zM8 8.006h2V6H8zM8 11.006h2V9H8zM14 14.006h2V12h-2zM11 14.006h2V12h-2zM14 11.006h2V9h-2zM14 8.006h2V6h-2z"/><path d="M18 19h-2v-4H8v4H6V5h12v14zm-8 0h1v-1.966h-1V19zm3 0h1v-1.965h-1V19zm7 0V5c0-1.1-.9-2-2-2H6c-1.1 0-2 .9-2 2v14a1 1 0 0 0 0 2h16a1 1 0 1 0 0-2z"/></g></symbol><symbol viewBox="0 0 24 24" id="calendar" xmlns="http://www.w3.org/2000/svg"><defs><path d="M15 19h4v-3h-4v3zm-5 0h4v-3h-4v3zm-5 0h4v-3H5v3zm0-8h4V8H5v3zm10 4h4v-3h-4v3zm-5-4h4V8h-4v3zm-5 4h4v-3H5v3zm5 0h4v-3h-4v3zm5-4h4V8h-4v3zm4-5.997h-1V3h-3v2.003H9V3H6v2.003H5c-1.1 0-2 .9-2 2v12c0 1.1.9 2 2 2h14c1.1 0 2-.9 2-2v-12c0-1.1-.9-2-2-2z" id="aoa"/></defs><use xlink:href="#aoa" fill-rule="evenodd"/></symbol><symbol viewBox="0 0 24 24" id="camera" xmlns="http://www.w3.org/2000/svg"><defs><path d="M7.556 7V6a2 2 0 0 1 2-2h4.888a2 2 0 0 1 2 2v1H20a2 2 0 0 1 2 2v10a2 2 0 0 1-2 2H4a2 2 0 0 1-2-2V9a2 2 0 0 1 2-2h3.556zM12 18.444a4.444 4.444 0 1 0 0-8.888 4.444 4.444 0 0 0 0 8.888z" id="apa"/></defs><use xlink:href="#apa" fill-rule="evenodd"/></symbol><symbol viewBox="0 0 24 24" id="cancel" xmlns="http://www.w3.org/2000/svg"><defs><path d="M12 3a8.934 8.934 0 0 0-6.363 2.637L3.858 3.858A.503.503 0 0 0 3 4.215v5.282c0 .277.226.503.503.503h5.282a.503.503 0 0 0 .357-.858L7.051 7.051A6.955 6.955 0 0 1 12 5c3.859 0 7 3.141 7 7s-3.141 7-7 7a6.955 6.955 0 0 1-4.949-2.051 1 1 0 0 0-1.414 1.414A8.934 8.934 0 0 0 12 21c4.963 0 9-4.037 9-9s-4.037-9-9-9" id="aqa"/></defs><use xlink:href="#aqa" fill-rule="evenodd"/></symbol><symbol viewBox="0 0 24 24" id="caption" xmlns="http://www.w3.org/2000/svg"><defs><path d="M8.998 10.667V10H7.014v4h1.984v-.667H11v1.334C11 15.4 10.466 16 9.8 16H6.2c-.666 0-1.2-.6-1.2-1.333V9.333C5 8.6 5.534 8 6.2 8h3.6c.666 0 1.2.6 1.2 1.333v1.334H8.998zm10.002 0h-1.995V10H15v4h2.004v-.667H19v1.334C19 15.4 18.466 16 17.8 16h-3.6c-.666 0-1.2-.6-1.2-1.333V9.333C13 8.6 13.534 8 14.2 8h3.6c.666 0 1.2.6 1.2 1.333v1.334z" id="ara"/></defs><use xlink:href="#ara" fill-rule="evenodd"/></symbol><symbol viewBox="0 0 24 24" id="card" xmlns="http://www.w3.org/2000/svg"><defs><path d="M6 5a1 1 0 0 0-1 1v12a1 1 0 0 0 1 1h12a1 1 0 0 0 1-1V6a1 1 0 0 0-1-1H6zm0-2h12a3 3 0 0 1 3 3v12a3 3 0 0 1-3 3H6a3 3 0 0 1-3-3V6a3 3 0 0 1 3-3zM5 15h14v2H5v-2z" id="asa"/></defs><use fill-rule="nonzero" xlink:href="#asa"/></symbol><symbol viewBox="0 0 24 24" id="card-double" xmlns="http://www.w3.org/2000/svg"><defs><path d="M8 19v.037c0 .532.431.963.962.963h10.076a.963.963 0 0 0 .962-.963V18h-1v-2h1V8.962A.963.963 0 0 0 19.038 8H19V6h.538A2.462 2.462 0 0 1 22 8.462v11.076A2.462 2.462 0 0 1 19.538 22H8.462A2.462 2.462 0 0 1 6 19.538V19h2zm7.538-1H4.462A2.462 2.462 0 0 1 2 15.538V4.462A2.462 2.462 0 0 1 4.462 2h11.076A2.462 2.462 0 0 1 18 4.462v11.076A2.462 2.462 0 0 1 15.538 18zm-.5-2a.963.963 0 0 0 .962-.963V4.962A.963.963 0 0 0 15.038 4H4.962A.963.963 0 0 0 4 4.962v10.075c0 .532.431.963.962.963h10.076zM4 12h12v2H4v-2z" id="ata"/></defs><use fill-rule="nonzero" xlink:href="#ata"/></symbol><symbol viewBox="0 0 24 24" id="card-plus" xmlns="http://www.w3.org/2000/svg"><defs><path d="M8 19v.037c0 .532.431.963.962.963h10.076a.963.963 0 0 0 .962-.963V18h-1v-2h1V8.962A.963.963 0 0 0 19.038 8H19V6h.538A2.462 2.462 0 0 1 22 8.462v11.076A2.462 2.462 0 0 1 19.538 22H8.462A2.462 2.462 0 0 1 6 19.538V19h2zm7.538-1H4.462A2.462 2.462 0 0 1 2 15.538V4.462A2.462 2.462 0 0 1 4.462 2h11.076A2.462 2.462 0 0 1 18 4.462v11.076A2.462 2.462 0 0 1 15.538 18zm-.5-2a.963.963 0 0 0 .962-.963V4.962A.963.963 0 0 0 15.038 4H4.962A.963.963 0 0 0 4 4.962v10.075c0 .532.431.963.962.963h10.076zM11 9h1.01c.546 0 .99.444.99 1a1 1 0 0 1-.99 1H11v1.01c0 .546-.444.99-1 .99a1 1 0 0 1-1-.99V11H7.99A.993.993 0 0 1 7 10a1 1 0 0 1 .99-1H9V7.99c0-.546.444-.99 1-.99a1 1 0 0 1 1 .99V9z" id="aua"/></defs><use fill-rule="nonzero" xlink:href="#aua"/></symbol><symbol viewBox="0 0 24 24" id="caret-down" xmlns="http://www.w3.org/2000/svg"><defs><path d="M11.777 14.73a.996.996 0 0 1-.703-.289l-3.777-3.73a1 1 0 1 1 1.405-1.423l3.075 3.037 3.074-3.037a1.001 1.001 0 0 1 1.406 1.423l-3.777 3.73a.996.996 0 0 1-.703.29" id="ava"/></defs><use xlink:href="#ava" fill-rule="evenodd"/></symbol><symbol viewBox="0 0 24 24" id="check" xmlns="http://www.w3.org/2000/svg"><path d="M8.955 17.87a.997.997 0 0 1-.707-.294L3.293 12.62a.999.999 0 1 1 1.414-1.414l4.248 4.25L19.117 5.292a.999.999 0 1 1 1.414 1.414L9.662 17.577a.997.997 0 0 1-.707.292" fill-rule="evenodd"/></symbol><symbol viewBox="0 0 24 24" id="check-circle" xmlns="http://www.w3.org/2000/svg"><path d="M12 2c5.523 0 10 4.478 10 10 0 5.523-4.477 10-10 10S2 17.523 2 12C2 6.478 6.477 2 12 2zm0 18a8 8 0 1 0 0-16 8 8 0 0 0 0 16zm-2.176-4.694l-2.53-2.523a1.007 1.007 0 0 1-.007-1.415v-.001a.985.985 0 0 1 1.401-.007l1.825 1.821 4.793-4.885a.985.985 0 0 1 1.4-.007v.001c.389.389.392 1.021.008 1.414l-5.49 5.595a.985.985 0 0 1-1.4.007z" fill-rule="evenodd"/></symbol><symbol viewBox="0 0 24 24" id="check-circle-fill" xmlns="http://www.w3.org/2000/svg"><path d="M12 2c5.523 0 10 4.478 10 10 0 5.523-4.477 10-10 10S2 17.523 2 12C2 6.478 6.477 2 12 2zM9.824 15.306a.985.985 0 0 0 1.4-.007l5.49-5.595a1.007 1.007 0 0 0-.007-1.414v-.001a.985.985 0 0 0-1.401.007l-4.793 4.885-1.825-1.821a.985.985 0 0 0-1.401.007v.001a1.007 1.007 0 0 0 .007 1.415l2.53 2.523z" fill-rule="evenodd"/></symbol><symbol viewBox="0 0 24 24" id="check-small" xmlns="http://www.w3.org/2000/svg"><defs><path d="M9.824 15.306l-2.53-2.523a1.007 1.007 0 0 1-.007-1.415v-.001a.985.985 0 0 1 1.401-.007l1.825 1.821 4.793-4.885a.985.985 0 0 1 1.4-.007v.001c.389.389.392 1.021.008 1.414l-5.49 5.595a.985.985 0 0 1-1.4.007" id="aza"/></defs><use xlink:href="#aza" fill-rule="evenodd"/></symbol><symbol viewBox="0 0 24 24" id="chrome" xmlns="http://www.w3.org/2000/svg"><defs><path d="M7.045 10.722L4.183 5.764A9.98 9.98 0 0 1 12 2a9.995 9.995 0 0 1 8.604 4.902h-8.16a5.126 5.126 0 0 0-5.4 3.82zm8.535-2.374h5.732A9.973 9.973 0 0 1 22 12c0 5.485-4.416 9.938-9.887 9.999l4.09-7.084a5.102 5.102 0 0 0-.623-6.567zM8.367 12A3.637 3.637 0 0 1 12 8.367 3.637 3.637 0 0 1 15.633 12 3.637 3.637 0 0 1 12 15.633 3.637 3.637 0 0 1 8.367 12zm5.004 4.93l-2.863 4.96C5.693 21.168 2 17.015 2 12c0-1.782.466-3.454 1.283-4.903l4.083 7.072a5.124 5.124 0 0 0 6.005 2.761z" id="baa"/></defs><use fill-rule="nonzero" xlink:href="#baa"/></symbol><symbol viewBox="0 0 24 24" id="circle" xmlns="http://www.w3.org/2000/svg"><defs><path d="M22 12c0-5.523-4.477-10-10-10S2 6.477 2 12s4.477 10 10 10 10-4.477 10-10zM4 12a8 8 0 1 1 16 0 8 8 0 0 1-16 0z" id="bba"/></defs><use fill-rule="nonzero" xlink:href="#bba"/></symbol><symbol viewBox="0 0 24 24" id="circle-fill" xmlns="http://www.w3.org/2000/svg"><defs><path d="M12 2C6.476 2 2 6.478 2 12c0 5.523 4.476 10 10 10 5.523 0 10-4.477 10-10 0-5.522-4.477-10-10-10z" id="bca"/></defs><use xlink:href="#bca" fill-rule="evenodd"/></symbol><symbol viewBox="0 0 24 24" id="clock" xmlns="http://www.w3.org/2000/svg"><g fill-rule="nonzero"><path d="M12 4c-4.42 0-8 3.58-8 8s3.58 8 8 8 8-3.58 8-8-3.58-8-8-8zm0-2c5.524 0 10 4.476 10 10s-4.476 10-10 10S2 17.524 2 12 6.476 2 12 2z"/><path d="M14.492 15.855l-3.423-2.488a.487.487 0 0 1-.198-.391V6.355c0-.266.218-.484.484-.484h1.29c.266 0 .484.218.484.484v5.714l2.694 1.96c.217.156.262.459.104.677l-.758 1.044a.487.487 0 0 1-.677.105z"/></g></symbol><symbol viewBox="0 0 24 24" id="cloud" xmlns="http://www.w3.org/2000/svg"><defs><path d="M19.076 12.292a3.72 3.72 0 0 1 2.112 1.393 3.84 3.84 0 0 1 .812 2.41c0 1.073-.36 1.98-1.096 2.746C20.161 19.615 19.27 20 18.21 20H6.48c-1.246 0-2.3-.457-3.18-1.373-.87-.908-1.3-1.983-1.3-3.252 0-.889.229-1.706.69-2.461a4.416 4.416 0 0 1 1.875-1.712.418.418 0 0 0 .216-.405 8.443 8.443 0 0 1-.021-.453c0-1.471.496-2.717 1.5-3.763C7.272 5.526 8.49 5 9.93 5c1.059 0 2.023.306 2.899.919.87.61 1.499 1.411 1.893 2.413.097.247.359.312.533.153.448-.408.969-.61 1.575-.61.678 0 1.245.245 1.718.738.466.485.692 1.053.692 1.73 0 .481-.123.914-.374 1.31-.157.246-.03.579.21.639zm-1.836-1.949c0-.163-.029-.234-.135-.345-.098-.102-.145-.123-.275-.123-.108 0-.149.016-.23.09-1.22 1.11-3.135.637-3.74-.901a3.196 3.196 0 0 0-1.178-1.507A2.94 2.94 0 0 0 9.93 7c-.892 0-1.59.301-2.227.966-.645.671-.943 1.42-.943 2.378 0 .032.006.158.017.326a2.416 2.416 0 0 1-1.339 2.332c-.441.214-.775.52-1.041.954-.27.441-.397.897-.397 1.42 0 .754.231 1.332.744 1.866.505.527 1.039.758 1.736.758h11.73c.51 0 .883-.16 1.251-.544.376-.391.539-.801.539-1.362 0-.465-.124-.834-.398-1.191a1.725 1.725 0 0 0-1.009-.67c-1.584-.394-2.294-2.269-1.415-3.653a.39.39 0 0 0 .062-.237z" id="bea"/></defs><use fill-rule="nonzero" xlink:href="#bea"/></symbol><symbol viewBox="0 0 24 24" id="cloud-fill" xmlns="http://www.w3.org/2000/svg"><defs><path d="M21.13 12.926c-.58-.792-1.321-1.305-2.224-1.54.285-.47.427-.992.427-1.568 0-.803-.26-1.489-.781-2.057-.521-.568-1.15-.852-1.886-.852-.66 0-1.236.235-1.729.705-.41-1.091-1.064-1.966-1.963-2.625C12.074 4.329 11.084 4 10 4c-1.472 0-2.73.568-3.77 1.705C5.186 6.84 4.666 8.212 4.666 9.818c0 .099.007.262.02.489-.819.416-1.472 1.041-1.958 1.875A5.318 5.318 0 0 0 2 14.909c0 1.402.457 2.6 1.37 3.597C4.283 19.502 5.382 20 6.667 20H18c1.104 0 2.047-.426 2.828-1.278C21.61 17.869 22 16.84 22 15.636c0-1.015-.29-1.918-.87-2.71z" id="bfa"/></defs><use xlink:href="#bfa" fill-rule="evenodd"/></symbol><symbol viewBox="0 0 24 24" id="comment" xmlns="http://www.w3.org/2000/svg"><defs><path d="M8.767 16.098a2.223 2.223 0 0 1 1.708-.544c.48.05.941.076 1.382.076 1.53 0 2.914-.263 4.17-.784 1.206-.5 2.117-1.151 2.767-1.95.578-.71.84-1.414.84-2.184 0-.77-.262-1.475-.84-2.185-.65-.799-1.56-1.45-2.766-1.95-1.256-.521-2.641-.784-4.17-.784-1.139 0-2.215.156-3.238.467-1.012.308-1.857.711-2.544 1.203a5.394 5.394 0 0 0-1.52 1.618c-.325.542-.477 1.073-.477 1.63 0 .658.196 1.265.616 1.873.477.69 1.145 1.283 2.03 1.785a2.221 2.221 0 0 1 1.047 2.522c-.106.387-.16.228.995-.793zm11.751-8.973c.893 1.097 1.34 2.293 1.34 3.587s-.447 2.49-1.34 3.586c-.893 1.097-2.106 1.964-3.639 2.6-1.532.636-3.206.954-5.022.954-.52 0-1.06-.03-1.618-.09-1.473 1.302-3.185 2.202-5.134 2.7a8.409 8.409 0 0 1-1.272.246.438.438 0 0 1-.34-.1.556.556 0 0 1-.196-.335c-.022-.03-.024-.074-.006-.134a.299.299 0 0 0 .023-.111c-.004-.015.013-.05.05-.106l.067-.1.078-.095a.777.777 0 0 1 .09-.1c.051-.06.167-.188.345-.386l.385-.424a5.82 5.82 0 0 0 .346-.44c.153-.208.274-.398.363-.57.09-.17.19-.39.301-.658.112-.267.209-.55.29-.847-1.168-.662-2.088-1.48-2.762-2.455-.673-.974-1.01-2.02-1.01-3.135 0-.967.264-1.891.793-2.773A7.611 7.611 0 0 1 4.78 5.658c.893-.64 1.957-1.148 3.192-1.523a13.275 13.275 0 0 1 3.884-.564c1.816 0 3.49.318 5.023.954 1.532.636 2.745 1.503 3.638 2.6z" id="bga"/></defs><use fill-rule="nonzero" xlink:href="#bga"/></symbol><symbol viewBox="0 0 24 24" id="comment-double" xmlns="http://www.w3.org/2000/svg"><g fill-rule="evenodd"><path d="M13.803 14.688c-1.21.511-2.525.766-3.946.766-.64 0-1.294-.06-1.964-.179a9.385 9.385 0 0 1-3.102 1.432 9.113 9.113 0 0 1-.96.178h-.034a.345.345 0 0 1-.229-.089.37.37 0 0 1-.129-.235.241.241 0 0 1-.01-.072c0-.027.001-.05.005-.073a.22.22 0 0 1 .022-.067l.028-.056.04-.06c.025-.042.04-.062.044-.058.004.004.02-.014.05-.055.03-.04.045-.058.045-.05.037-.045.123-.139.257-.28a4.31 4.31 0 0 0 .29-.33c.06-.079.144-.186.252-.324.108-.138.2-.282.278-.43.079-.15.155-.314.23-.494-.923-.536-1.648-1.196-2.177-1.979C2.265 11.45 2 10.614 2 9.727 2 8.69 2.35 7.732 3.05 6.852c.699-.88 1.653-1.575 2.862-2.086C7.12 4.256 8.437 4 9.858 4c1.42 0 2.736.255 3.945.766 1.209.511 2.163 1.206 2.862 2.086.7.88 1.05 1.838 1.05 2.875 0 1.036-.35 1.995-1.05 2.875-.7.88-1.653 1.575-2.862 2.086zm-6.04-1.268l.538.102a8.88 8.88 0 0 0 1.556.142 7.903 7.903 0 0 0 2.908-.53c.902-.353 1.62-.832 2.151-1.437.533-.605.8-1.254.8-1.947 0-.693-.267-1.342-.8-1.946-.532-.606-1.249-1.084-2.15-1.438a7.903 7.903 0 0 0-2.909-.53 7.913 7.913 0 0 0-2.909.53c-.9.354-1.619.832-2.15 1.438-.533.604-.799 1.253-.799 1.946 0 .558.18 1.095.54 1.61.358.517.864.965 1.515 1.346l.986.57-.356.857c.23-.136.44-.27.63-.398l.448-.315z"/><path d="M21.207 15.101c.528-.779.792-1.616.792-2.51 0-.918-.279-1.775-.836-2.573a6.333 6.333 0 0 0-1.615-1.582c.09.423.145.854.145 1.3 0 4.296-4.295 7.661-9.785 7.676 1.255.597 2.663.905 4.235.905.64 0 1.294-.06 1.964-.179a9.365 9.365 0 0 0 3.102 1.432c.268.067.588.127.96.18a.339.339 0 0 0 .246-.079.414.414 0 0 0 .145-.246c-.004-.045 0-.069.011-.073.011-.002.01-.027-.006-.072l-.022-.068-.028-.055a.552.552 0 0 0-.038-.062c-.02-.025-.034-.045-.045-.056-.012-.01-.028-.03-.05-.055l-.045-.05a7.606 7.606 0 0 0-.256-.28 4.509 4.509 0 0 1-.29-.33 26.15 26.15 0 0 0-.252-.325 2.769 2.769 0 0 1-.279-.43 6.353 6.353 0 0 1-.229-.492c.923-.538 1.648-1.196 2.176-1.976"/></g></symbol><symbol viewBox="0 0 24 24" id="contents" xmlns="http://www.w3.org/2000/svg"><defs><path d="M3 5.009C3 3.899 3.893 3 4.995 3h14.01C20.107 3 21 3.902 21 5.009v7.982c0 1.11-.89 2.009-2.006 2.009H5A2.005 2.005 0 0 1 3 12.991V5.01zM3 19c0-1.105.893-2 1.995-2h14.01c1.102 0 1.995.888 1.995 2 0 1.105-.89 2-2.006 2H5A1.994 1.994 0 0 1 3 19z" id="bia"/></defs><use xlink:href="#bia" fill-rule="evenodd"/></symbol><symbol viewBox="0 0 24 24" id="copy" xmlns="http://www.w3.org/2000/svg"><defs><path d="M20 20h-9v-6h4a2 2 0 0 0 2-2V8h3v12zM9 12l.042 4H4v-6h4a2 2 0 0 0 2-2V4h3v4l-4 4zM8 5v3H5l3-3zm7 4v3h-3l3-3zm5-3h-5V4a2 2 0 0 0-2-2H8L2 8v8a2 2 0 0 0 2 2h5v2a2 2 0 0 0 2 2h9a2 2 0 0 0 2-2V8a2 2 0 0 0-2-2z" id="bja"/></defs><use xlink:href="#bja" fill-rule="evenodd"/></symbol><symbol viewBox="0 0 24 24" id="credit-card" xmlns="http://www.w3.org/2000/svg"><defs><path d="M19.997 5H4C2.988 5 2 6.044 2 6.92v9.578C2 17.878 2.443 19 4 19h15.997c.938 0 2.003-.94 2.003-2.019V6.921S22 5 19.997 5zM20 16.117c0 .351-.35.883-.892.883H4.899c-.711 0-.899-.409-.892-.883L4 10h16v6.116zM6.172 15h2.656c.095 0 .172-.089.172-.198v-.604c0-.11-.077-.198-.172-.198H6.172c-.095 0-.172.089-.172.198v.604c0 .11.077.198.172.198z" id="bka"/></defs><use fill-rule="nonzero" xlink:href="#bka"/></symbol><symbol viewBox="0 0 24 24" id="cross" xmlns="http://www.w3.org/2000/svg"><defs><path d="M12 10.586l5.657-5.657a1 1 0 0 1 1.414 1.414L13.414 12l5.657 5.657a1 1 0 0 1-1.414 1.414L12 13.414l-5.657 5.657a1 1 0 1 1-1.414-1.414L10.586 12 4.929 6.343A1 1 0 0 1 6.343 4.93L12 10.586z" id="bla"/></defs><use xlink:href="#bla" fill-rule="evenodd"/></symbol><symbol viewBox="0 0 24 24" id="cross-circle" xmlns="http://www.w3.org/2000/svg"><path d="M12 2C6.476 2 2 6.478 2 12s4.476 10 10 10c5.522 0 10-4.477 10-10S17.522 2 12 2zm0 8.586l2.121-2.122a1 1 0 0 1 1.415 1.415L13.414 12l2.122 2.121a1 1 0 0 1-1.415 1.415L12 13.414l-2.121 2.122a1 1 0 1 1-1.415-1.415L10.586 12 8.464 9.879A1 1 0 0 1 9.88 8.464L12 10.586z" fill-rule="evenodd"/></symbol><symbol viewBox="0 0 24 24" id="cross-small" xmlns="http://www.w3.org/2000/svg"><defs><path d="M12 10.586l2.121-2.122a1 1 0 0 1 1.415 1.415L13.414 12l2.122 2.121a1 1 0 0 1-1.415 1.415L12 13.414l-2.121 2.122a1 1 0 1 1-1.415-1.415L10.586 12 8.464 9.879A1 1 0 0 1 9.88 8.464L12 10.586z" id="bna"/></defs><use xlink:href="#bna" fill-rule="evenodd"/></symbol><symbol viewBox="0 0 24 24" id="date" xmlns="http://www.w3.org/2000/svg"><defs><path d="M5 19h14V8H5v11zM19 5.003h-1V3h-3v2.003H9V3H6v2.003H5c-1.1 0-2 .9-2 2v12c0 1.1.9 2 2 2h14c1.1 0 2-.9 2-2v-12c0-1.1-.9-2-2-2z" id="boa"/></defs><use xlink:href="#boa" fill-rule="evenodd"/></symbol><symbol viewBox="0 0 24 24" id="direction-down" xmlns="http://www.w3.org/2000/svg"><defs><path d="M21 8.084c0 .287-.11.574-.326.79l-7.957 7.83a1.014 1.014 0 0 1-1.434 0l-7.957-7.83a1.117 1.117 0 0 1-.04-1.535 1.015 1.015 0 0 1 1.475-.043L12 14.422l7.239-7.126a1.015 1.015 0 0 1 1.475.043c.19.21.286.477.286.745z" id="bpa"/></defs><use xlink:href="#bpa" fill-rule="evenodd"/></symbol><symbol viewBox="0 0 24 24" id="direction-left" xmlns="http://www.w3.org/2000/svg"><path d="M15.916 21c-.287 0-.574-.11-.79-.326l-7.83-7.957a1.014 1.014 0 0 1 0-1.434l7.83-7.957a1.117 1.117 0 0 1 1.535-.04c.436.396.454 1.056.043 1.475L9.578 12l7.126 7.239a1.015 1.015 0 0 1-.043 1.475c-.21.19-.477.286-.745.286" fill-rule="evenodd"/></symbol><symbol viewBox="0 0 24 24" id="direction-right" xmlns="http://www.w3.org/2000/svg"><defs><path d="M8.084 21c-.268 0-.535-.095-.745-.286a1.015 1.015 0 0 1-.043-1.475l7.126-7.24-7.126-7.238a1.015 1.015 0 0 1 .043-1.475 1.117 1.117 0 0 1 1.534.04l7.83 7.957a1.014 1.014 0 0 1 0 1.434l-7.83 7.957a1.108 1.108 0 0 1-.789.326z" id="bra"/></defs><use xlink:href="#bra" fill-rule="evenodd"/></symbol><symbol viewBox="0 0 24 24" id="direction-up" xmlns="http://www.w3.org/2000/svg"><defs><path d="M21 15.916c0 .268-.095.535-.286.745a1.015 1.015 0 0 1-1.475.043l-7.24-7.126-7.238 7.126a1.015 1.015 0 0 1-1.475-.043 1.117 1.117 0 0 1 .04-1.534l7.957-7.83a1.014 1.014 0 0 1 1.434 0l7.957 7.83c.217.215.326.502.326.789z" id="bsa"/></defs><use xlink:href="#bsa" fill-rule="evenodd"/></symbol><symbol viewBox="0 0 24 24" id="display" xmlns="http://www.w3.org/2000/svg"><defs><path d="M20.914 3.032L20.816 3H3.076C2.5 3.074 2.068 3.57 2 4.17v12.641c0 .243.059.448.157.633.225.427.557.553 1.017.553h6.807v2.007H8.39c-.303 0-.389.089-.389.415 0 .327.086.581.39.581h7.21c.304 0 .4-.254.4-.58 0-.327-.096-.416-.4-.416h-1.62v-2.007h6.836c.46 0 .796-.126 1.018-.553.1-.194.166-.401.166-.633V4.17c-.068-.6-.528-1.096-1.086-1.138zM20 5.092v10.817c0 .064-.026.091-.088.091H4.088C4.026 16 4 15.973 4 15.909V5h16v.091z" id="bta"/></defs><use fill-rule="nonzero" xlink:href="#bta"/></symbol><symbol viewBox="0 0 24 24" id="document" xmlns="http://www.w3.org/2000/svg"><defs><path d="M20 7.153v12.972C20 21.16 19.16 22 18.125 22H5.875A1.874 1.874 0 0 1 4 20.125V3.875C4 2.84 4.839 2 5.875 2h8.967c.499 0 .977.198 1.33.55l3.277 3.278c.352.348.551.829.551 1.325zm-5-3.125V7h2.973L15 4.028zM17.998 20L18 9.06h-3.937a.937.937 0 0 1-.938-.937L13.123 4H6v16h11.998zM9 11h6a1 1 0 0 1 0 2H9a1 1 0 0 1 0-2zm0 4h6a1 1 0 0 1 0 2H9a1 1 0 0 1 0-2z" id="bua"/></defs><use xlink:href="#bua" fill-rule="evenodd"/></symbol><symbol viewBox="0 0 24 24" id="dollar" xmlns="http://www.w3.org/2000/svg"><defs><path d="M16.86 14.176a4.126 4.126 0 0 0-.338-.853 2.864 2.864 0 0 0-.568-.71 6.845 6.845 0 0 0-.664-.557 6.416 6.416 0 0 0-.81-.475 14.241 14.241 0 0 0-.814-.39c-.2-.086-.49-.203-.868-.352a16.216 16.216 0 0 1-1.399-.608 3.74 3.74 0 0 1-.6-.346 4.768 4.768 0 0 1-.423-.368c-.15-.145-.256-.3-.317-.463a1.531 1.531 0 0 1-.09-.536c0-.506.214-.919.642-1.239.43-.32.983-.48 1.662-.48.3 0 .605.043.916.129a4.657 4.657 0 0 1 1.426.647c.196.13.335.229.418.296.082.067.134.111.155.134.093.074.19.1.29.078.106-.008.189-.067.246-.179l.868-1.63c.086-.148.068-.29-.053-.423a3.864 3.864 0 0 0-.161-.157 5.601 5.601 0 0 0-.418-.323 5.133 5.133 0 0 0-.68-.419 6.71 6.71 0 0 0-.933-.374 5.745 5.745 0 0 0-1.185-.256V2.357a.356.356 0 0 0-.096-.257.327.327 0 0 0-.247-.1h-1.447a.323.323 0 0 0-.24.106.35.35 0 0 0-.102.251v2.01c-1.122.222-2.033.72-2.734 1.495-.7.773-1.05 1.674-1.05 2.7 0 .306.03.596.091.87.061.276.136.524.225.743.09.22.217.436.38.648.165.212.32.394.467.546.147.153.338.311.574.475.235.164.437.296.605.396.168.1.391.216.67.346.279.13.498.229.66.296l.658.278c.386.157.672.278.858.363.186.086.421.205.707.357.286.153.495.292.627.419.132.126.252.283.36.469.107.186.16.383.16.591 0 .588-.22 1.042-.659 1.362-.44.32-.949.48-1.527.48-.264 0-.529-.03-.793-.09-.93-.193-1.797-.658-2.605-1.395l-.021-.022a.26.26 0 0 0-.257-.1c-.115.014-.197.06-.247.134l-1.104 1.506c-.107.149-.1.301.022.458.036.044.098.112.187.2.09.09.256.23.499.42.243.19.507.368.793.535.286.168.648.333 1.088.497.44.163.895.279 1.366.346v1.953c0 .097.034.18.102.251.068.07.148.106.241.106h1.447c.1 0 .183-.033.247-.1a.356.356 0 0 0 .096-.257V19.69c1.136-.194 2.06-.702 2.77-1.524.712-.822 1.067-1.802 1.067-2.94 0-.372-.047-.722-.14-1.05z" id="bva"/></defs><use xlink:href="#bva" fill-rule="evenodd"/></symbol><symbol viewBox="0 0 24 24" id="dollar-denial" xmlns="http://www.w3.org/2000/svg"><defs><path d="M11.375 16.063v1.875h1.25v-1.875h-1.25zM11.746 2C6.346 2.138 2 6.567 2 12.001 2 17.52 6.48 22 12 22s10-4.48 10-10-4.48-9.999-10-9.999c-.087 0-.168-.002-.254 0zm-.371 5.51c-.643.092-1.158.317-1.543.673-.352.325-.57.737-.675 1.218L5.282 7.656a8.003 8.003 0 0 1 6.463-3.655c.086-.002.169 0 .255 0a8.002 8.002 0 0 1 7.706 10.154l-4.612-2.078a2.009 2.009 0 0 0-.128-.156c-.38-.415-1.104-.769-2.169-1.06-.95-.258-1.426-.452-1.608-.583-.183-.123-.273-.28-.273-.469 0-.21.099-.38.298-.509.199-.135.443-.202.912-.202.746 0 1.197.046 1.806.556l1.08-1.173c-.533-.632-1.526-.913-2.387-.993V6.063h-1.25v1.448zm7.646 8.325A8 8 0 0 1 4.475 9.282l5.11 2.302c.036.034.074.068.114.103.396.34 1.36.8 2.752 1.189l.817.368c.084.071.15.139.19.181.1.109.15.256.15.446 0 .274-.061.68-.31.821-.674.38-2.64.316-3.284-.585l-1.255 1.156c.487.862 2.251 1.33 3.573 1.33 1.027 0 1.74-.42 2.32-.959a2.62 2.62 0 0 0 .81-1.402l3.56 1.604z" id="bwa"/></defs><use fill-rule="nonzero" xlink:href="#bwa"/></symbol><symbol viewBox="0 0 24 24" id="double-arrow-rect" xmlns="http://www.w3.org/2000/svg"><g fill-rule="evenodd"><path d="M12 14.659l2.624-2.533.907.903L12 16.543l-3.531-3.514.907-.903zM12 10.219l2.624-2.533.907.903L12 12.103 8.469 8.589l.907-.903z"/><path d="M18.465 19H5.535A.535.535 0 0 1 5 18.465V5.535C5 5.24 5.239 5 5.535 5h12.93c.296 0 .535.24.535.535v12.93a.535.535 0 0 1-.535.535M19 3H5a2 2 0 0 0-2 2v14a2 2 0 0 0 2 2h14a2 2 0 0 0 2-2V5a2 2 0 0 0-2-2"/></g></symbol><symbol viewBox="0 0 24 24" id="embed" xmlns="http://www.w3.org/2000/svg"><g fill-rule="evenodd"><path d="M7.735 7.541l-.02-.02a1 1 0 0 0-1.39-.024l-4.008 3.75a1 1 0 0 0 0 1.461l4.007 3.75a1 1 0 0 0 1.39-.023l.021-.02a1 1 0 0 0 0-1.416l-3.022-3.02 3.022-3.024a.999.999 0 0 0 0-1.414M20.819 11.248l-4.008-3.75a.998.998 0 0 0-1.39.023l-.021.02a1 1 0 0 0 0 1.415l3.023 3.022L15.4 15a1.002 1.002 0 0 0 0 1.415l.022.02a.997.997 0 0 0 1.389.023l4.008-3.75a1 1 0 0 0 0-1.46M13.705 5.045a1.002 1.002 0 0 0-1.252.656L8.726 17.633a1.002 1.002 0 0 0 .656 1.252 1.003 1.003 0 0 0 1.253-.656l3.726-11.932a1.002 1.002 0 0 0-.656-1.252"/></g></symbol><symbol viewBox="0 0 24 24" id="enter" xmlns="http://www.w3.org/2000/svg"><g fill-rule="evenodd"><path d="M17.404 12.01a.751.751 0 0 1-.247.563l-7.077 6.799a.817.817 0 0 1-.586.238.811.811 0 0 1-.585-.238.752.752 0 0 1-.248-.562v-3.8H2.833a.818.818 0 0 1-.586-.236A.755.755 0 0 1 2 14.21v-4.4c0-.217.082-.404.247-.563a.818.818 0 0 1 .586-.237h5.828v-3.8c0-.216.083-.403.248-.561a.811.811 0 0 1 .585-.238c.225 0 .421.079.586.238l7.077 6.799a.751.751 0 0 1 .247.562"/><path d="M18.999 20h-4.354a1 1 0 1 1 0-2h4.354c.552 0 1.001-.449 1.001-1V7c0-.551-.449-1-1.001-1h-4.354a1 1 0 1 1 0-2h4.354A3.005 3.005 0 0 1 22 7v10c0 1.654-1.347 3-3.001 3"/></g></symbol><symbol viewBox="0 0 24 24" id="exclamation" xmlns="http://www.w3.org/2000/svg"><defs><path d="M15.004 21.264c0 .208-.07.383-.209.524a.675.675 0 0 1-.497.212H10.06a.675.675 0 0 1-.497-.212.717.717 0 0 1-.21-.524v-4.241c0-.209.07-.383.21-.525a.674.674 0 0 1 .497-.212h4.238c.191 0 .357.07.497.212s.21.316.21.525v4.24zm-.043-8.348a.5.5 0 0 1-.232.368.889.889 0 0 1-.52.145h-4.083a.943.943 0 0 1-.53-.145c-.147-.097-.22-.22-.22-.369L9 2.715c0-.21.074-.365.22-.47.192-.163.369-.245.53-.245h4.857c.162 0 .339.082.53.245.147.105.22.246.22.425l-.396 10.246z" id="caa"/></defs><use xlink:href="#caa" fill-rule="evenodd"/></symbol><symbol viewBox="0 0 24 24" id="extentions" xmlns="http://www.w3.org/2000/svg"><defs><path d="M20.025 13.69c-.327 0-.643.054-.948.162-.304.108-.55.229-.736.362a4.438 4.438 0 0 1-.605.362c-.217.108-.41.163-.577.163-.343 0-.681-.166-1.016-.498-.267-.267-.4-.688-.4-1.265 0-.685.091-1.568.274-2.65.008-.021.02-.099.04-.232s.038-.256.057-.368c.019-.112.032-.175.04-.19-.358-.006-.978.055-1.861.163-.883.108-1.568.278-2.055.278-.465 0-.857-.211-1.177-.402-.32-.191-.48-.492-.48-.903 0-.267.067-.523.2-.768.134-.245.278-.449.434-.611.157-.163.301-.375.434-.638.134-.263.2-.543.2-.838 0-.57-.205-1.015-.616-1.336-.411-.32-.921-.481-1.53-.481-.647 0-1.195.164-1.645.492-.449.328-.673.788-.673 1.379 0 .31.057.609.171.897.114.289.242.521.382.698.141.177.269.368.383.573.114.206.171.388.171.546 0 .325-.175.646-.525.963-.282.252-.727.546-1.336.546-.723 0-1.656-.06-2.797-.233a2.294 2.294 0 0 0-.246-.038c-.14-.018-.27-.036-.388-.054a1.38 1.38 0 0 1-.2-.038v10.88c.038.018.05.021.057.021l.148.022c.07.014.174.029.315.043.14.015.245.03.314.043 1.141.174 2.074.26 2.797.26.61 0 1.054-.126 1.336-.379.35-.317.525-.638.525-.962 0-.159-.057-.34-.171-.546a4.163 4.163 0 0 0-.382-.573 2.74 2.74 0 0 1-.383-.698 2.417 2.417 0 0 1-.171-.897c0-.592.225-1.051.674-1.38.449-.327.993-.491 1.632-.491.617 0 1.13.16 1.542.48.41.321.616.767.616 1.336 0 .296-.066.575-.2.838a2.63 2.63 0 0 1-.433.639c-.157.162-.301.365-.434.61-.134.246-.2.502-.2.768 0 .411.16.712.48.904.32.19.711.286 1.176.286.35 0 .723-.018 1.118-.054.396-.036.836-.085 1.32-.146.483-.062.854-.103 1.112-.125.084-.007.21-.01.377-.01v-.054c.008-.282-.05-.696-.17-1.244-.123-.548-.184-.963-.184-1.244 0-.894.419-1.34 1.256-1.34.282 0 .552.062.811.188.259.127.474.264.645.412.172.147.396.284.674.41.278.127.573.19.885.19.601 0 1.071-.195 1.41-.584.339-.39.508-.876.508-1.46 0-.606-.173-1.12-.52-1.546-.346-.426-.83-.639-1.455-.639z" id="cba"/></defs><use xlink:href="#cba" fill-rule="evenodd"/></symbol><symbol viewBox="0 0 24 24" id="eye-off" xmlns="http://www.w3.org/2000/svg"><g fill-rule="evenodd"><path d="M17.128 11.296c0-.535-.09-1.046-.246-1.528l-3.666 6.472c2.241-.536 3.912-2.539 3.912-4.944"/><path d="M21.777 11.839a12.146 12.146 0 0 0-3.8-4.003l-.93 1.64a11.419 11.419 0 0 1 3.05 3.166c-.956 1.461-2.11 2.609-3.461 3.464a8.563 8.563 0 0 1-4.087 1.314l-1.072 1.892c.175.009.347.036.523.036 1.957 0 3.815-.537 5.575-1.613a12.083 12.083 0 0 0 4.202-4.289c.148-.272.224-.54.224-.803 0-.264-.076-.532-.224-.804M8.373 16.651a9.14 9.14 0 0 1-1.008-.545c-1.367-.864-2.53-2.028-3.463-3.464.932-1.435 2.096-2.6 3.462-3.463.02-.012.043-.02.063-.033a5.046 5.046 0 0 0-.491 2.15c0 1.705.845 3.206 2.132 4.13l-.694 1.225zm1.133-7.746c.665-.694 1.463-1.041 2.393-1.041.15 0 .277.054.38.163a.55.55 0 0 1 .156.396.553.553 0 0 1-.155.396.508.508 0 0 1-.38.161c-.64 0-1.187.237-1.64.711a2.381 2.381 0 0 0-.681 1.711.553.553 0 0 1-.157.396.51.51 0 0 1-.38.163.508.508 0 0 1-.378-.163.554.554 0 0 1-.158-.396c0-.97.333-1.803 1-2.497zM9.36 18.992l.972-1.715c-.005 0-.009 0-.013-.002l.577-1.019.012.002 5.329-9.408-.01-.006.486-.858L14.973 5l-.69 1.217A10.198 10.198 0 0 0 12 5.937c-1.956 0-3.814.54-5.574 1.618a12.158 12.158 0 0 0-4.201 4.284 1.66 1.66 0 0 0-.225.803c0 .264.075.532.224.803a12.15 12.15 0 0 0 4.203 4.284c.337.208.683.377 1.029.545l-.466.821 1.74.986.62-1.093.011.002z"/></g></symbol><symbol viewBox="0 0 24 24" id="eye-on" xmlns="http://www.w3.org/2000/svg"><path d="M16.636 15.169A8.56 8.56 0 0 1 12 16.521a8.552 8.552 0 0 1-4.635-1.352c-1.366-.863-2.53-2.028-3.462-3.463.932-1.436 2.096-2.6 3.462-3.463.02-.013.042-.021.062-.033a5.042 5.042 0 0 0-.491 2.149 5.097 5.097 0 1 0 10.192 0c0-.748-.17-1.453-.46-2.093 1.353.862 2.507 2.017 3.429 3.439-.956 1.461-2.11 2.609-3.461 3.464m-7.13-7.201c.666-.694 1.464-1.042 2.394-1.042a.51.51 0 0 1 .38.163.553.553 0 0 1 .156.396.55.55 0 0 1-.156.396.505.505 0 0 1-.38.163c-.64 0-1.186.237-1.64.71a2.385 2.385 0 0 0-.681 1.711.551.551 0 0 1-.156.396.507.507 0 0 1-.38.163.507.507 0 0 1-.38-.163.551.551 0 0 1-.156-.396c0-.97.333-1.802.999-2.497m12.272 2.934a12.18 12.18 0 0 0-4.204-4.284C15.814 5.54 13.957 5 12 5c-1.957 0-3.815.539-5.574 1.618a12.177 12.177 0 0 0-4.203 4.284c-.15.272-.223.54-.223.804 0 .263.074.531.223.803a12.177 12.177 0 0 0 4.203 4.284c1.759 1.079 3.617 1.618 5.574 1.618 1.957 0 3.816-.537 5.574-1.612a12.1 12.1 0 0 0 4.204-4.29 1.67 1.67 0 0 0 .222-.803c0-.264-.074-.532-.222-.804" fill-rule="evenodd"/></symbol><symbol viewBox="0 0 24 24" id="facebook" xmlns="http://www.w3.org/2000/svg"><defs><path d="M20.01 3.99A3.25 3.25 0 0 0 17.625 3H6.375c-.93 0-1.725.33-2.385.99C3.33 4.65 3 5.445 3 6.375v11.25c0 .93.33 1.724.99 2.385.66.66 1.455.99 2.385.99h11.25c.93 0 1.725-.33 2.385-.99.66-.66.99-1.455.99-2.385V6.375c0-.93-.33-1.725-.99-2.385zm-1.693 8.268h-2.051v7.441h-3.07v-7.441H11.66V9.69h1.535V8.156c0-1.102.258-1.934.774-2.496.515-.563 1.367-.844 2.554-.844h2.051v2.567h-1.289c-.437 0-.716.076-.838.228-.12.153-.181.42-.181.803v1.277h2.32l-.27 2.567z" id="cea"/></defs><use xlink:href="#cea" fill-rule="evenodd"/></symbol><symbol viewBox="0 0 24 24" id="firefox" xmlns="http://www.w3.org/2000/svg"><defs><path d="M21.801 9.204a.164.164 0 0 0-.174.095l-.224.495c-.085-.65-.242-1.699-.45-2.386a4.595 4.595 0 0 0-1.018-1.771.164.164 0 0 0-.277.151l.174.784c-.418-.438-1.09-1.065-1.755-1.37-.16-.079-.323-.15-.465-.212A7.855 7.855 0 0 0 12.39 3a7.832 7.832 0 0 0-6.637 3.638 1.455 1.455 0 0 1-.44-.585C5.11 5.56 5.01 5.007 5.008 5a.164.164 0 0 0-.275-.089c-1.205 1.155-1.085 2.955-1.04 3.364-.15.159-.571.632-.997 1.313-.53.848-.69 2.329-.696 2.391a.164.164 0 0 0 .282.13l.352-.372a7.205 7.205 0 0 0-.112.487c-.16.785-.113 2.003-.11 2.054a.164.164 0 0 0 .311.064l.208-.44c.153 1.07.74 3.344 2.99 5.44 1.668 1.552 3.987 2.443 6.363 2.443 2.306 0 4.484-.825 6.297-2.385 2.143-1.847 2.942-4.484 3.234-6.371.316-2.038.131-3.617.123-3.683a.164.164 0 0 0-.138-.143zm-3.66.06c.002.003.225.294.273 1.04.034.559-.081 1.452-.153 1.94l-.437-.506a.164.164 0 0 0-.287.127c.001.012.15 1.274-.1 2.371a3.5 3.5 0 0 1-.463 1.13l.06-.826a.164.164 0 0 0-.312-.08c-.007.017-.764 1.642-2.838 2.286-.29.09-.594.134-.906.134-1.106 0-2.11-.563-2.679-.96.049.003.098.004.146.004.816 0 1.443-.351 1.947-.633.132-.075.257-.145.377-.204.725-.364 1.061-.395 1.32-.395.137 0 .242-.08.275-.208.081-.315-.298-.877-.766-1.134a1.573 1.573 0 0 0-.78-.185c-.479 0-1.071.15-1.92.38a1.78 1.78 0 0 1-.458.063c-.52 0-.864-.252-1.062-.463-.265-.284-.416-.66-.393-.98.01-.146.067-.295.414-.295.309 0 .651.127.654.128.02.007.039.01.058.01h.001a.164.164 0 0 0 .162-.19l-.045-1.435c.165-.106.561-.362.942-.64.921-.67 1.045-.925.946-1.12-.13-.265-.474-.308-.872-.358a3.83 3.83 0 0 1-.72-.138c-.485-.161-.805-.58-.878-.683-.015-.087-.051-.377.091-.626.155-.27.689-.69.881-.83a.164.164 0 0 0-.078-.296c-.016-.002-.506-.05-1.306.214a4.926 4.926 0 0 0-1.33.703 4.794 4.794 0 0 0-.416-.056 6.524 6.524 0 0 1 4.902-2.211c1.383 0 2.69.42 3.804 1.22l-1.102.185a.164.164 0 0 0-.022.318c.014.005 1.482.469 2.577 1.313.244.19.467.438.663.734.183.392.326.796.427 1.206l-.369-.286a.164.164 0 0 0-.229.232z" id="cfa"/></defs><use fill-rule="nonzero" xlink:href="#cfa"/></symbol><symbol viewBox="0 0 24 24" id="flug" xmlns="http://www.w3.org/2000/svg"><g transform="translate(3 3)" fill-rule="evenodd"><path d="M17.159.954c-.089 0-.054.077-.332.292-.28.216-.546.4-.871.583-.325.183-.72.354-1.152.519-.432.164-.833.246-1.2.246-.34 0-.64-.075-.9-.223-.858-.461-1.603-.805-2.237-1.031A6.021 6.021 0 0 0 8.424 1c-1.26 0-2.693.469-4.3 1.406a8.457 8.457 0 0 0-.807.504c-.211.18-.317.395-.317.645v8.695c0 .203.065.379.194.527.13.149.283.223.46.223a.65.65 0 0 0 .337-.106c1.852-1.14 3.432-1.71 4.74-1.71.497 0 .982.085 1.455.257.474.172.867.36 1.18.563.314.203.683.39 1.109.562.425.172.846.258 1.261.258 1.05 0 2.306-.453 3.77-1.36.184-.109.531-.374.531-.773v-8.73c0-.558-.472-1.007-.878-1.007z"/><rect width="2" height="18" rx="1"/></g></symbol><symbol viewBox="0 0 24 24" id="focus" xmlns="http://www.w3.org/2000/svg"><defs><path d="M21.67 19.708c.2.24.32.549.32.886 0 .761-.613 1.378-1.37 1.378-.439 0-.83-.207-1.08-.53l-4.963-4.907a8.047 8.047 0 0 1-4.53 1.387c-4.433 0-8.037-3.565-8.037-7.947s3.604-7.947 8.036-7.947c4.431 0 8.037 3.565 8.037 7.947 0 1.741-.57 3.354-1.534 4.665l4.955 4.9c.053.045.102.094.148.146l.02.02-.001.002zM4.367 9.975c0 3.096 2.548 5.617 5.68 5.617 3.132 0 5.68-2.52 5.68-5.617 0-3.096-2.548-5.617-5.68-5.617-3.132 0-5.68 2.52-5.68 5.617zM11 9h1.01c.546 0 .99.444.99 1a1 1 0 0 1-.99 1H11v1.01c0 .546-.444.99-1 .99a1 1 0 0 1-1-.99V11H7.99A.993.993 0 0 1 7 10a1 1 0 0 1 .99-1H9V7.99c0-.546.444-.99 1-.99a1 1 0 0 1 1 .99V9z" id="cha"/></defs><use xlink:href="#cha" fill-rule="evenodd"/></symbol><symbol viewBox="0 0 24 24" id="focus-out" xmlns="http://www.w3.org/2000/svg"><defs><path d="M21.68 19.73c.2.24.32.55.32.887 0 .764-.614 1.383-1.372 1.383-.439 0-.83-.208-1.08-.531l-4.969-4.922a8.045 8.045 0 0 1-4.535 1.392C5.608 17.939 2 14.363 2 9.969 2 5.576 5.608 2 10.044 2s8.045 3.576 8.045 7.97a7.88 7.88 0 0 1-1.536 4.677l4.96 4.914c.053.045.102.094.148.146l.02.021-.001.002zM4.359 9.97c0 3.104 2.55 5.632 5.685 5.632s5.686-2.528 5.686-5.633-2.551-5.632-5.686-5.632S4.36 6.864 4.36 9.969zM12 11H8a1 1 0 0 1 0-2h4a1 1 0 0 1 0 2z" id="cia"/></defs><use xlink:href="#cia" fill-rule="evenodd"/></symbol><symbol viewBox="0 0 24 24" id="gear" xmlns="http://www.w3.org/2000/svg"><defs><path d="M21.623 10.112l-2.383-.365a7.854 7.854 0 0 0-.534-1.276c.156-.217.39-.523.703-.918.312-.395.533-.683.664-.865a.501.501 0 0 0 .104-.3.42.42 0 0 0-.091-.286c-.313-.443-1.029-1.181-2.149-2.214a.502.502 0 0 0-.325-.13.423.423 0 0 0-.313.117l-1.848 1.393a8.052 8.052 0 0 0-1.172-.482l-.365-2.395a.386.386 0 0 0-.15-.28.492.492 0 0 0-.319-.111h-2.89c-.252 0-.408.121-.47.365-.112.433-.238 1.24-.377 2.421-.408.13-.803.296-1.185.495L6.727 3.888a.554.554 0 0 0-.339-.13c-.191 0-.601.31-1.23.93-.63.622-1.057 1.088-1.283 1.4a.549.549 0 0 0-.117.3c0 .104.043.208.13.312a29.645 29.645 0 0 1 1.393 1.797c-.217.4-.386.8-.507 1.198l-2.422.365a.393.393 0 0 0-.248.17.501.501 0 0 0-.104.299v2.89c0 .113.035.215.104.306a.41.41 0 0 0 .274.163l2.383.352c.121.425.299.855.533 1.289-.156.217-.39.523-.703.918-.312.395-.534.683-.664.865a.502.502 0 0 0-.013.6c.339.468 1.055 1.198 2.149 2.187a.449.449 0 0 0 .325.143c.13 0 .239-.039.326-.117l1.836-1.393a8.07 8.07 0 0 0 1.172.482l.364 2.395a.386.386 0 0 0 .15.28.49.49 0 0 0 .319.111h2.89c.253 0 .409-.121.47-.365.112-.434.238-1.24.377-2.421.408-.13.803-.296 1.185-.495l1.797 1.406a.637.637 0 0 0 .338.117c.191 0 .6-.308 1.224-.924.625-.617 1.055-1.085 1.29-1.407a.434.434 0 0 0 .116-.299.502.502 0 0 0-.13-.326 32.73 32.73 0 0 1-1.393-1.796 8.35 8.35 0 0 0 .508-1.185l2.409-.365a.397.397 0 0 0 .26-.17.503.503 0 0 0 .104-.299v-2.89a.49.49 0 0 0-.104-.306.41.41 0 0 0-.273-.163zm-6.088 5.423C14.56 16.512 13.38 17 12 17c-1.38 0-2.559-.488-3.535-1.465C7.488 14.559 7 13.38 7 12c0-1.38.488-2.559 1.465-3.535C9.44 7.488 10.62 7 12 7c1.38 0 2.559.488 3.535 1.465C16.512 9.44 17 10.62 17 12c0 1.38-.488 2.559-1.465 3.535z" id="cja"/></defs><use xlink:href="#cja" fill-rule="evenodd"/></symbol><symbol viewBox="0 0 24 24" id="github" xmlns="http://www.w3.org/2000/svg"><defs><path d="M12 2C6.478 2 2 6.59 2 12.253c0 4.53 2.865 8.373 6.839 9.728.5.094.682-.223.682-.493 0-.244-.009-1.052-.014-1.909-2.78.62-3.368-1.209-3.368-1.209-.456-1.184-1.11-1.499-1.11-1.499-.91-.636.069-.623.069-.623 1.004.071 1.532 1.056 1.532 1.056.892 1.567 2.341 1.114 2.91.851.091-.66.35-1.114.635-1.369-2.22-.26-4.555-1.139-4.555-5.068 0-1.12.39-2.033 1.028-2.751-.101-.26-.446-1.304.1-2.715 0 0 .838-.275 2.75 1.052A9.3 9.3 0 0 1 12 6.959a9.32 9.32 0 0 1 2.504.346c1.908-1.328 2.747-1.052 2.747-1.052.547 1.413.203 2.455.1 2.714.641.718 1.028 1.631 1.028 2.751 0 3.939-2.338 4.806-4.566 5.06.36.318.678.942.678 1.898 0 1.37-.013 2.475-.013 2.813 0 .273.182.592.689.492 3.97-1.358 6.833-5.2 6.833-9.728C22 6.59 17.522 2 12 2z" id="cka"/></defs><use xlink:href="#cka" fill-rule="evenodd"/></symbol><symbol viewBox="0 0 24 24" id="grid-4" xmlns="http://www.w3.org/2000/svg"><defs><path d="M14 13h6a1 1 0 0 1 1 1v6a1 1 0 0 1-1 1h-6a1 1 0 0 1-1-1v-6a1 1 0 0 1 1-1zM4 13h6a1 1 0 0 1 1 1v6a1 1 0 0 1-1 1H4a1 1 0 0 1-1-1v-6a1 1 0 0 1 1-1zM4 3h6a1 1 0 0 1 1 1v6a1 1 0 0 1-1 1H4a1 1 0 0 1-1-1V4a1 1 0 0 1 1-1zm10 0h6a1 1 0 0 1 1 1v6a1 1 0 0 1-1 1h-6a1 1 0 0 1-1-1V4a1 1 0 0 1 1-1z" id="cla"/></defs><use xlink:href="#cla" fill-rule="evenodd"/></symbol><symbol viewBox="0 0 24 24" id="grid-9" xmlns="http://www.w3.org/2000/svg"><defs><path d="M16.5 3.999A1 1 0 0 1 17.499 3H20a1 1 0 0 1 .999.999V6.5a.996.996 0 0 1-.999.999h.09-2.596a.997.997 0 0 1-.995-.999V4zm-6.75 0A1 1 0 0 1 10.749 3h2.502a1 1 0 0 1 .999.999V6.5a.996.996 0 0 1-.999.999h.09-2.596a.997.997 0 0 1-.995-.999V4zm-6.75 0A1 1 0 0 1 3.999 3H6.5a1 1 0 0 1 .999.999V6.5a.996.996 0 0 1-.999.999h.09-2.596A.997.997 0 0 1 3 6.501V4zm13.5 6.75a1 1 0 0 1 .999-.999H20a1 1 0 0 1 .999.999v2.502a.996.996 0 0 1-.999.999h.09-2.596a.997.997 0 0 1-.995-.999V10.75zm-6.75 0a1 1 0 0 1 .999-.999h2.502a1 1 0 0 1 .999.999v2.502a.996.996 0 0 1-.999.999h.09-2.596a.997.997 0 0 1-.995-.999V10.75zm-6.75 0a1 1 0 0 1 .999-.999H6.5a1 1 0 0 1 .999.999v2.502a.996.996 0 0 1-.999.999h.09-2.596A.997.997 0 0 1 3 13.251V10.75zm13.5 6.75a1 1 0 0 1 .999-.999H20a1 1 0 0 1 .999.999V20a.996.996 0 0 1-.999.999h.09-2.596a.997.997 0 0 1-.995-.999V17.5zm-6.75 0a1 1 0 0 1 .999-.999h2.502a1 1 0 0 1 .999.999V20a.996.996 0 0 1-.999.999h.09-2.596a.997.997 0 0 1-.995-.999V17.5zm-6.75 0a1 1 0 0 1 .999-.999H6.5a1 1 0 0 1 .999.999V20a.996.996 0 0 1-.999.999h.09-2.596A.997.997 0 0 1 3 20.001V17.5z" id="cma"/></defs><use xlink:href="#cma" fill-rule="evenodd"/></symbol><symbol viewBox="0 0 24 24" id="gyazo" xmlns="http://www.w3.org/2000/svg"><defs><path d="M21 10.294h-5.345l4.046 8.06-.007.022-.009.023a.212.212 0 0 0-.009.025l-.005.015-.012.028-.01.023-.01.025-.009.02-.015.036-.016.032-.007.014-.01.019-.003.002-.01.02-.013.024-.01.017-.012.021-.014.023c-.01.014-.016.026-.023.037l-.013.02-.008.011-.018.029a.078.078 0 0 1-.014.019l-.013.017-.014.021-.012.018c-.155.21-.347.391-.567.535l-2.572-5.123-10.682 5.336-.003-.002-.021-.009-.022-.009a.287.287 0 0 1-.022-.01l-.02-.009-.024-.01-.022-.01-.037-.017-.026-.012c-.005-.004-.012-.005-.02-.009a.157.157 0 0 1-.017-.009l-.025-.012-.02-.01-.022-.013-.02-.012-.024-.014-.035-.021-.021-.012-.016-.011-.025-.016-.02-.014-.02-.014a.118.118 0 0 0-.02-.012l-.017-.014a2.17 2.17 0 0 1-.532-.558l5.12-2.557L4.299 5.626c.155-.446.454-.827.842-1.085L7.7 9.627 20.951 3H6.37A3.364 3.364 0 0 0 3 6.36v11.28A3.364 3.364 0 0 0 6.37 21h11.26c1.861 0 3.37-1.504 3.37-3.36v-7.346z" id="cna"/></defs><use xlink:href="#cna" fill-rule="evenodd"/></symbol><symbol viewBox="0 0 24 24" id="handset" xmlns="http://www.w3.org/2000/svg"><defs><path d="M17.205 15.23c.795.791 1.59 1.582 2.381 2.377.662.666.658 1.482-.008 2.156-.45.454-.928.887-1.353 1.361-.62.695-1.394.92-2.285.87-1.294-.07-2.484-.5-3.633-1.057a19.806 19.806 0 0 1-6.56-5.132c-1.352-1.606-2.467-3.359-3.2-5.331-.358-.953-.612-1.931-.533-2.968.05-.637.288-1.182.758-1.627.508-.483.986-.986 1.486-1.478.649-.64 1.465-.64 2.118-.004.404.396.8.8 1.199 1.199.387.391.774.774 1.161 1.165.683.687.683 1.486.004 2.169-.487.49-.97.982-1.465 1.46-.129.13-.141.233-.075.392.329.782.8 1.477 1.328 2.126 1.065 1.307 2.268 2.468 3.704 3.372.308.191.65.332.97.507.162.092.274.063.408-.075.487-.5.982-.99 1.477-1.481.65-.645 1.465-.645 2.118 0zm-.794-3.316a5.296 5.296 0 0 0-1.482-2.864 5.297 5.297 0 0 0-3.03-1.51l.216-1.545a6.827 6.827 0 0 1 3.913 1.952 6.864 6.864 0 0 1 1.918 3.704l-1.535.263zm2.401-6.676A11.407 11.407 0 0 1 22 11.385l-1.536.262a9.811 9.811 0 0 0-2.75-5.306 9.819 9.819 0 0 0-5.611-2.797L12.319 2a11.324 11.324 0 0 1 6.493 3.238z" id="coa"/></defs><use fill-rule="nonzero" xlink:href="#coa"/></symbol><symbol viewBox="0 0 24 24" id="hash" xmlns="http://www.w3.org/2000/svg"><defs><path d="M11.968 16.135H8.19L6.358 20.63c-.31.757-.738 1.382-1.89 1.37-.834 0-1.399-.61-1.089-1.37l1.833-4.495h-1.96a1.259 1.259 0 0 1 0-2.516h2.985l2.051-5.031H6.23a1.259 1.259 0 0 1 0-2.516h3.084l1.1-2.697c.309-.76.918-1.37 2.05-1.375.822 0 1.238.615.928 1.375l-1.1 2.697h3.778l1.1-2.697c.31-.76.918-1.37 2.05-1.375.822 0 1.238.615.928 1.375l-1.1 2.697h1.7a1.259 1.259 0 0 1 0 2.516h-2.725l-2.051 5.03h1.798a1.259 1.259 0 0 1 0 2.516h-2.824l-1.832 4.496c-.31.757-.738 1.382-1.89 1.37-.834 0-1.399-.61-1.089-1.37l1.833-4.495zm1.025-2.516l2.051-5.031h-3.777l-2.051 5.03h3.777z" id="cpa"/></defs><use xlink:href="#cpa" fill-rule="evenodd"/></symbol><symbol viewBox="0 0 24 24" id="home" xmlns="http://www.w3.org/2000/svg"><defs><path d="M20 8.093V4a1 1 0 0 0-1-1h-1a1 1 0 0 0-1 1v1.093l3 3zm.72 4.37l-7.952-9.541a1 1 0 0 0-1.536 0L3.28 12.464A.937.937 0 0 0 4 14v7a1 1 0 0 0 1 1h6v-4h2v4h6a1 1 0 0 0 1-1v-7a.937.937 0 0 0 .72-1.536zM18 20h-3v-3a1 1 0 0 0-1-1h-4a1 1 0 0 0-1 1v3H6v-7.26l6-6.912 6 6.99V20z" id="cqa"/></defs><use fill-rule="nonzero" xlink:href="#cqa"/></symbol><symbol viewBox="0 0 24 24" id="image" xmlns="http://www.w3.org/2000/svg"><defs><path d="M8.417 10.417A1.929 1.929 0 0 1 7 11a1.929 1.929 0 0 1-1.417-.583A1.928 1.928 0 0 1 5 9c0-.556.194-1.028.583-1.417A1.929 1.929 0 0 1 7 7a1.93 1.93 0 0 1 1.417.583C8.805 7.973 9 8.444 9 9s-.195 1.028-.583 1.417zm1.605 3.618L15.044 9 19 13.015V17H5v-.985l3.017-3 2.005 1.02zM3 4h18a1 1 0 0 1 1 1v14a1 1 0 0 1-1 1H3a1 1 0 0 1-1-1V5a1 1 0 0 1 1-1zm1 2v12h16V6H4z" id="cra"/></defs><use xlink:href="#cra" fill-rule="evenodd"/></symbol><symbol viewBox="0 0 24 24" id="image-plus" xmlns="http://www.w3.org/2000/svg"><defs><path d="M17 17v-2a1 1 0 0 1 1-1h.003a1 1 0 0 1 1 1v2H21a1 1 0 0 1 1 1v.003a1 1 0 0 1-1 1h-1.997V21a1 1 0 0 1-1 1H18a1 1 0 0 1-1-1v-1.997h-2a1 1 0 0 1-1-1V18a1 1 0 0 1 1-1h2zm4.942-3.523A5.995 5.995 0 0 0 20 12.34V6.3a.285.285 0 0 0-.091-.211.3.3 0 0 0-.216-.089H4.308a.3.3 0 0 0-.217.089.285.285 0 0 0-.091.21v11.404c0 .081.03.151.091.21a.3.3 0 0 0 .217.09H12c0 .7.12 1.372.341 1.997h-9.35C2.456 20 2 19.552 2 19V5c0-.555.447-1 .998-1H20.86c.547 0 1.003.448 1.008 1l.074 8.477zM9.867 14.636L16.023 9 18 12.111s-1.364-.39-3.601 1.066S12.469 16 12.469 16H6l.01-1.364L8 12.996l1.867 1.64zm-.69-3.459c-.361.362-.8.543-1.317.543-.517 0-.956-.181-1.318-.543A1.793 1.793 0 0 1 6 9.86c0-.517.18-.956.542-1.318C6.904 8.181 7.343 8 7.86 8s.956.18 1.317.542c.362.362.543.801.543 1.318s-.181.956-.543 1.317z" id="csa"/></defs><use xlink:href="#csa" fill-rule="evenodd"/></symbol><symbol viewBox="0 0 24 24" id="indentmine" xmlns="http://www.w3.org/2000/svg"><defs><rect id="cta" x="7" y="11" width="10" height="2" rx="1"/></defs><use xlink:href="#cta" fill-rule="evenodd"/></symbol><symbol viewBox="0 0 24 24" id="info" xmlns="http://www.w3.org/2000/svg"><defs><path d="M10.095 8c-.258 0-.48-.08-.67-.237-.188-.159-.282-.346-.282-.563V4.8c0-.217.094-.404.283-.563.188-.158.411-.237.67-.237h3.809c.258 0 .48.08.67.237.188.159.282.346.282.563v2.4c0 .217-.094.404-.282.563a1.009 1.009 0 0 1-.67.237h-3.81zm4.76 9.018S16 17.111 16 18.056v1.012c0 .194-.21.932-1.144.932H8.8a.818.818 0 0 1-.562-.212.653.653 0 0 1-.238-.502v-1.553c0-.378.238-.715.8-.715h1.473v-4.021H9.127C8.477 12.997 8 12.193 8 12v-1.286c0-.193.08-.36.238-.502A.817.817 0 0 1 8.8 10h5.256c.216 0 .404.07.562.212a.653.653 0 0 1 .238.502v6.304z" id="cua"/></defs><use xlink:href="#cua" fill-rule="evenodd"/></symbol><symbol viewBox="0 0 24 24" id="info-circle" xmlns="http://www.w3.org/2000/svg"><g fill-rule="evenodd"><path d="M14.224 17.008h-4.049c-.266 0-.481-.252-.481-.56 0-.31.215-.56.481-.56l.775-.138V12l-.775-.145c-.266 0-.481-.251-.481-.56 0-.309.215-.56.481-.56h3.142c.097 0 .128-.04.142-.073-.004.02-.009.037-.009.088v5l.774.137c.266 0 .482.252.482.56 0 .31-.216.56-.482.56zM10.95 7h1.225c.009 0 .016-.005.025-.005.009 0 .016.005.025.005h1.225v1.175c.001.028.015.05.015.076 0 .028-.014.05-.015.077V9.5h-1.209c-.015.001-.027.009-.041.009-.015 0-.027-.008-.041-.009H10.95V8.326c-.002-.026-.016-.047-.016-.075 0-.026.014-.048.016-.075V7z"/><path d="M12 4a8 8 0 0 0-8 8 8 8 0 1 0 16 0 8 8 0 0 0-8-8zm0-2c5.523 0 10 4.478 10 10 0 5.523-4.477 10-10 10-5.524 0-10-4.477-10-10C2 6.478 6.476 2 12 2z" fill-rule="nonzero"/></g></symbol><symbol viewBox="0 0 24 24" id="info-circle-fill" xmlns="http://www.w3.org/2000/svg"><defs><path d="M14.23 17.008h-4.049c-.266 0-.481-.252-.481-.56 0-.31.215-.56.481-.56l.775-.138V12l-.775-.145c-.266 0-.481-.251-.481-.56 0-.309.215-.56.481-.56h3.143c.096 0 .127-.04.141-.072-.004.018-.009.036-.009.087v5l.774.137c.266 0 .482.252.482.56 0 .31-.216.56-.482.56zM10.956 7h1.225c.009 0 .017-.005.025-.005.009 0 .017.005.025.005h1.225v1.175c.002.027.015.05.015.076 0 .028-.014.05-.015.077V9.5h-1.208c-.015.001-.028.009-.042.009-.015 0-.027-.008-.041-.009h-1.209V8.326c-.002-.026-.016-.047-.016-.075 0-.026.014-.048.016-.075V7zM12 2C6.476 2 2 6.478 2 12c0 5.523 4.476 10 10 10 5.523 0 10-4.477 10-10 0-5.522-4.477-10-10-10z" id="cwa"/></defs><use xlink:href="#cwa" fill-rule="evenodd"/></symbol><symbol viewBox="0 0 24 24" id="kebab-horizontal" xmlns="http://www.w3.org/2000/svg"><defs><path d="M19 14a2 2 0 1 1 0-4 2 2 0 0 1 0 4zm-7 0a2 2 0 1 1 0-4 2 2 0 0 1 0 4zm-7 0a2 2 0 1 1 0-4 2 2 0 0 1 0 4z" id="cxa"/></defs><use xlink:href="#cxa" fill-rule="evenodd"/></symbol><symbol viewBox="0 0 24 24" id="kebab-vertical" xmlns="http://www.w3.org/2000/svg"><defs><path d="M12 21a2 2 0 1 1 0-4 2 2 0 0 1 0 4zm0-7a2 2 0 1 1 0-4 2 2 0 0 1 0 4zm0-7a2 2 0 1 1 0-4 2 2 0 0 1 0 4z" id="cya"/></defs><use xlink:href="#cya" fill-rule="evenodd"/></symbol><symbol viewBox="0 0 24 24" id="line" xmlns="http://www.w3.org/2000/svg"><defs><path d="M4.667 6.444L17.555 19.33a1 1 0 0 0 1.414 0l.362-.362a1 1 0 0 0 0-1.414L6.444 4.667a1 1 0 0 0-1.414 0l-.363.363a1 1 0 0 0 0 1.414z" id="cza"/></defs><use fill-rule="nonzero" xlink:href="#cza"/></symbol><symbol viewBox="0 0 24 24" id="link-off" xmlns="http://www.w3.org/2000/svg"><g fill-rule="evenodd"><path d="M11.431 16.037L9.328 18.14c-.924.924-2.432 1.105-3.445.278a2.503 2.503 0 0 1-.194-3.71l2.206-2.207a.999.999 0 1 0-1.414-1.414l-2.056 2.057c-1.66 1.66-1.944 4.353-.46 6.171 1.703 2.086 4.816 2.201 6.674.343l2.206-2.206a1 1 0 1 0-1.414-1.415M12.45 7.933l2.104-2.103c.923-.924 2.432-1.105 3.445-.278a2.502 2.502 0 0 1 .193 3.71l-2.206 2.207a1 1 0 0 0 1.414 1.414l2.057-2.057c1.659-1.659 1.943-4.353.46-6.17-1.703-2.087-4.817-2.202-6.674-.344l-2.207 2.206a1 1 0 1 0 1.415 1.415M7.482 7.529a.502.502 0 0 1-.707 0l-.919-.919a.5.5 0 0 1 .708-.707l.919.919a.5.5 0 0 1 0 .707M6.666 8.843a.501.501 0 0 1-.566.424l-1.287-.183a.501.501 0 0 1 .142-.99l1.286.183a.502.502 0 0 1 .425.566M8.817 6.691a.5.5 0 0 0 .424-.565l-.183-1.288a.501.501 0 0 0-.99.142l.184 1.287a.5.5 0 0 0 .565.424M16.374 16.42a.502.502 0 0 0 0 .707l.919.92a.5.5 0 0 0 .707-.708l-.92-.919a.502.502 0 0 0-.706 0M15.06 17.237a.501.501 0 0 0-.425.566l.183 1.287a.501.501 0 0 0 .99-.142l-.184-1.286a.5.5 0 0 0-.565-.425M17.212 15.085a.5.5 0 0 1 .565-.424l1.287.183a.502.502 0 0 1 .425.566.501.501 0 0 1-.565.424l-1.287-.184a.5.5 0 0 1-.425-.565"/></g></symbol><symbol viewBox="0 0 24 24" id="link-on" xmlns="http://www.w3.org/2000/svg"><g fill-rule="evenodd"><path d="M19.693 4.32a4.443 4.443 0 0 0-6.319 0l-1.572 1.586a1.01 1.01 0 0 0 0 1.418.987.987 0 0 0 1.405 0l1.571-1.587a2.468 2.468 0 0 1 3.511 0 2.526 2.526 0 0 1 0 3.544l-3.511 3.545a2.47 2.47 0 0 1-3.739-.266.984.984 0 0 0-1.389-.204c-.44.331-.53.96-.202 1.403a4.443 4.443 0 0 0 6.734.485l3.511-3.545a4.548 4.548 0 0 0 0-6.38"/><path d="M10.794 16.676l-1.572 1.587a2.47 2.47 0 0 1-3.511 0 2.527 2.527 0 0 1 0-3.545l3.51-3.544a2.467 2.467 0 0 1 3.742.268.988.988 0 0 0 1.39.2 1.01 1.01 0 0 0 .198-1.404 4.444 4.444 0 0 0-6.734-.482l-3.51 3.545a4.546 4.546 0 0 0 0 6.38 4.441 4.441 0 0 0 6.319 0l1.572-1.587a1.01 1.01 0 0 0 0-1.418.985.985 0 0 0-1.404 0"/></g></symbol><symbol viewBox="0 0 24 24" id="list" xmlns="http://www.w3.org/2000/svg"><defs><path d="M4 4h16a1 1 0 0 1 0 2H4a1 1 0 1 1 0-2zm0 7h16a1 1 0 0 1 0 2H4a1 1 0 0 1 0-2zm0 7h16a1 1 0 0 1 0 2H4a1 1 0 0 1 0-2z" id="dca"/></defs><use xlink:href="#dca" fill-rule="evenodd"/></symbol><symbol viewBox="0 0 24 24" id="locked" xmlns="http://www.w3.org/2000/svg"><defs><path d="M4.964 20.019h14v-8h-14v8zM8.042 8c0-2.206 1.794-4 4-4 2.205 0 4 1.794 4 4v2h-8V8zm10.882 2h-.882V8c0-3.3-2.7-6-6-6s-6 2.7-6 6v2h-.966C3.93 10 3 10.821 3 11.834v8.331C3 21.176 3.932 22 5.076 22h13.848C20.068 22 21 20.839 21 19.828v-7.994C21 10.823 20.068 10 18.924 10z" id="dda"/></defs><use xlink:href="#dda" fill-rule="evenodd"/></symbol><symbol viewBox="0 0 24 24" id="mail" xmlns="http://www.w3.org/2000/svg"><defs><path d="M3.92 8.481c-.462-.289-.897-.686-1.306-1.192C2.204 6.783 2 6.313 2 5.879c0-.537.154-.984.463-1.342.309-.358.75-.537 1.323-.537h16.428c.484 0 .902.162 1.256.485.353.324.53.713.53 1.167 0 .544-.182 1.064-.547 1.56a5.12 5.12 0 0 1-1.361 1.27 9340.06 9340.06 0 0 0-5.224 3.355l-.474.315c-.242.162-.443.293-.603.393-.16.1-.353.211-.58.335a3.51 3.51 0 0 1-.642.279 1.899 1.899 0 0 1-.558.092h-.022c-.171 0-.357-.03-.558-.092a3.504 3.504 0 0 1-.642-.279 11.75 11.75 0 0 1-.58-.335c-.16-.1-.361-.231-.603-.393l-.474-.315c-.677-.44-1.652-1.068-2.924-1.884A521.557 521.557 0 0 1 3.92 8.48zm11.406 4.877c1.265-.886 3.118-2.129 5.558-3.728A6.105 6.105 0 0 0 22 8.69v9.58c0 .476-.175.883-.525 1.222-.35.338-.77.508-1.26.508H3.784c-.49 0-.91-.17-1.26-.508A1.64 1.64 0 0 1 2 18.27V8.69c.327.352.703.666 1.127.94 2.694 1.772 4.543 3.015 5.547 3.728.424.303.768.539 1.032.708.265.17.616.342 1.055.519.439.177.848.265 1.228.265h.022c.38 0 .789-.088 1.228-.265a6.45 6.45 0 0 0 1.055-.519c.264-.169.608-.405 1.032-.708z" id="dea"/></defs><use xlink:href="#dea" fill-rule="evenodd"/></symbol><symbol viewBox="0 0 24 24" id="map" xmlns="http://www.w3.org/2000/svg"><path d="M2.705 22C2.316 22 2 21.639 2 21.195V5.648c0-.331.174-.624.443-.747l6.218-2.835a.632.632 0 0 1 .525 0l5.708 2.617a.491.491 0 0 0 .396 0l5.742-2.624a.622.622 0 0 1 .263-.06c.39 0 .705.362.705.806v15.484c0 .328-.173.62-.44.745L15.388 21.9a.637.637 0 0 1-.528.003l-5.77-2.618a.474.474 0 0 0-.395.002L2.971 21.94a.622.622 0 0 1-.266.06zM15.626 6.727l.012 12.813 4.374-1.947L20 4.72l-4.374 2.006zm-1 .01L9.387 4.379v12.825l5.239 2.417V6.737zm-6.24-2.298L4 6.419v12.825l4.387-1.98V4.439z" fill-rule="evenodd"/></symbol><symbol viewBox="0 0 24 24" id="markdown" xmlns="http://www.w3.org/2000/svg"><defs><path d="M19.692 11.93H17.77V8.78h-1.923v3.15h-1.923l2.885 3.243 2.884-3.243zM6.808 15.08v-3.613l1.923 2.316 1.923-2.316v3.613h1.923v-6.3h-1.923L8.73 11.096 6.808 8.78H4.885v6.3h1.923zm-3.366 2.78C2.647 17.86 2 17.237 2 16.47V7.39C2 6.623 2.647 6 3.442 6h17.116C21.353 6 22 6.623 22 7.39v9.08c0 .767-.647 1.39-1.442 1.39H3.442z" id="dga"/></defs><use xlink:href="#dga" fill-rule="evenodd"/></symbol><symbol viewBox="0 0 24 24" id="mosaic" xmlns="http://www.w3.org/2000/svg"><defs><path d="M3 2h7a1 1 0 0 1 1 1v7a1 1 0 0 1-1 1H3a1 1 0 0 1-1-1V3a1 1 0 0 1 1-1zm1 2v5h5V4H4zm-1 9h7a1 1 0 0 1 1 1v7a1 1 0 0 1-1 1H3a1 1 0 0 1-1-1v-7a1 1 0 0 1 1-1zm1 2v5h5v-5H4zm10-2h7a1 1 0 0 1 1 1v7a1 1 0 0 1-1 1h-7a1 1 0 0 1-1-1v-7a1 1 0 0 1 1-1zm1 2v5h5v-5h-5zM14 2h7a1 1 0 0 1 1 1v7a1 1 0 0 1-1 1h-7a1 1 0 0 1-1-1V3a1 1 0 0 1 1-1z" id="dha"/></defs><use xlink:href="#dha" fill-rule="evenodd"/></symbol><symbol viewBox="0 0 24 24" id="ocr" xmlns="http://www.w3.org/2000/svg"><g fill-rule="evenodd"><path d="M18.465 19H5.535A.535.535 0 0 1 5 18.465V5.535C5 5.239 5.239 5 5.535 5h12.93c.296 0 .535.239.535.535v12.93a.535.535 0 0 1-.535.535M19 3H5a2 2 0 0 0-2 2v14a2 2 0 0 0 2 2h14a2 2 0 0 0 2-2V5a2 2 0 0 0-2-2"/><path d="M7.989 10.621c-.407 0-.704.126-.904.384-.208.262-.314.659-.314 1.178 0 .521.106.918.31 1.181.202.259.497.386.901.386.402 0 .696-.125.9-.381.205-.26.307-.659.307-1.186 0-.521-.102-.916-.304-1.178-.201-.258-.494-.384-.896-.384m-.006 3.947c-.697 0-1.241-.212-1.618-.629-.375-.415-.564-1.006-.564-1.761 0-.757.19-1.348.568-1.757.379-.412.925-.621 1.62-.621.687 0 1.228.213 1.605.631.375.415.566 1.003.566 1.752 0 .745-.191 1.334-.567 1.752-.378.42-.92.633-1.61.633M12.722 14.568c-.678 0-1.207-.21-1.574-.624-.363-.412-.548-1.004-.548-1.759 0-.473.089-.897.265-1.257.177-.364.437-.646.773-.839.334-.193.73-.29 1.178-.29.468 0 .907.1 1.303.295l.086.042-.34.788-.094-.044a3.825 3.825 0 0 0-.464-.182 1.577 1.577 0 0 0-.497-.076c-.39 0-.687.133-.906.406-.225.277-.338.67-.338 1.163 0 .52.108.914.322 1.174.212.26.515.385.922.385.183 0 .359-.02.526-.056.174-.037.355-.084.542-.142l.129-.04v.828l-.063.025a3.442 3.442 0 0 1-1.222.203M15.966 11.925c.322 0 .556-.058.692-.171.133-.11.2-.273.2-.498 0-.226-.07-.38-.209-.474-.153-.1-.391-.152-.707-.152h-.396v1.295h.42zm1.312 2.645l-1.179-1.874-.553.04v1.834H14.6V9.8h1.39c.61 0 1.072.118 1.372.353.308.239.463.6.463 1.078 0 .575-.282.998-.838 1.26l1.325 2.079h-1.034z"/></g></symbol><symbol viewBox="0 0 24 24" id="page" xmlns="http://www.w3.org/2000/svg"><defs><path d="M4.8 17.912c0 .71.67 1.288 1.362 1.288h11.782c.692 0 1.256-.578 1.256-1.288V8.4H4.8v9.512zM5.695 3h12.61A2.696 2.696 0 0 1 21 5.695v12.61A2.696 2.696 0 0 1 18.305 21H5.695A2.696 2.696 0 0 1 3 18.305V5.695A2.696 2.696 0 0 1 5.695 3z" id="dja"/></defs><use fill-rule="nonzero" xlink:href="#dja"/></symbol><symbol viewBox="0 0 24 24" id="palette" xmlns="http://www.w3.org/2000/svg"><defs><path d="M11.402 21c-6.11-.018-.868-4.319-2.82-6.373C6.921 12.883 2.02 17.055 2 12 1.98 6.536 5.83 3 11.714 3S22 6.536 22 12s-4.712 9.017-10.598 9zM7.51 9.487c.892 0 1.614-.714 1.614-1.594 0-.88-.722-1.594-1.614-1.594-.892 0-1.615.714-1.615 1.594 0 .88.723 1.594 1.615 1.594zM11.76 8.35c.892 0 1.615-.714 1.615-1.594 0-.88-.723-1.594-1.615-1.594s-1.614.713-1.614 1.594c0 .88.722 1.594 1.614 1.594zm4.467 1.138c.892 0 1.615-.714 1.615-1.594 0-.88-.723-1.594-1.615-1.594s-1.615.714-1.615 1.594c0 .88.723 1.594 1.615 1.594zm0 7.921c.892 0 1.615-.713 1.615-1.594 0-.88-.723-1.593-1.615-1.593s-1.615.713-1.615 1.593.723 1.594 1.615 1.594zm2.485-3.96c.892 0 1.614-.714 1.614-1.594 0-.88-.722-1.594-1.614-1.594-.892 0-1.615.713-1.615 1.594 0 .88.723 1.594 1.615 1.594zm-13.318-.18c.892 0 1.615-.715 1.615-1.595s-.723-1.594-1.615-1.594-1.615.714-1.615 1.594c0 .88.723 1.594 1.615 1.594zm6.366 5.464c.892 0 1.615-.714 1.615-1.594 0-.88-.723-1.594-1.615-1.594s-1.614.714-1.614 1.594c0 .88.722 1.594 1.614 1.594z" id="dka"/></defs><use xlink:href="#dka" fill-rule="evenodd"/></symbol><symbol viewBox="0 0 24 24" id="pause" xmlns="http://www.w3.org/2000/svg"><defs><path d="M7 3a2 2 0 0 1 2 2v14a2 2 0 1 1-4 0V5a2 2 0 0 1 2-2zm9 0a2 2 0 0 1 2 2v14a2 2 0 1 1-4 0V5a2 2 0 0 1 2-2z" id="dla"/></defs><use xlink:href="#dla" fill-rule="evenodd"/></symbol><symbol viewBox="0 0 24 24" id="pencil" xmlns="http://www.w3.org/2000/svg"><defs><path d="M2 16.055v5.082h5.172l10.345-10.163-5.173-5.082L2 16.055zm1.54.748l.994-.974 2.935 2.877-.97.973H3.54v-2.876zM18.19 2.464l2.921 2.858c.307.318.46.689.46 1.112 0 .432-.153.798-.46 1.1L19.049 9.56 13.875 4.48l2.064-2.016A1.49 1.49 0 0 1 17.06 2c.438 0 .816.155 1.13.464z" id="dma"/></defs><use xlink:href="#dma" fill-rule="evenodd"/></symbol><symbol viewBox="0 0 24 24" id="people" xmlns="http://www.w3.org/2000/svg"><path d="M14.867 11.272c-.513 0-.99-.129-1.422-.34a5.11 5.11 0 0 0 .84-2.79 5.064 5.064 0 0 0-.912-2.901 3.22 3.22 0 0 1 1.494-.379c1.785 0 3.237 1.438 3.237 3.205 0 1.768-1.452 3.205-3.237 3.205m-5.776 0c-1.786 0-3.238-1.437-3.238-3.205 0-1.767 1.452-3.205 3.238-3.205 1.785 0 3.237 1.438 3.237 3.205 0 1.768-1.452 3.205-3.237 3.205m8.996.901a5.143 5.143 0 0 0 1.974-4.031c0-2.835-2.33-5.142-5.194-5.142a5.196 5.196 0 0 0-2.888.872A5.196 5.196 0 0 0 9.091 3C6.227 3 3.897 5.307 3.897 8.142c0 1.566.735 3.059 1.974 4.031-2.358 1.289-3.87 3.913-3.87 6.744v1.115c0 .534.438.968.977.968.54 0 .98-.434.98-.968v-1.115c0-3.106 2.302-5.633 5.133-5.633 2.83 0 5.133 2.527 5.133 5.633v1.115c0 .534.44.968.98.968s.977-.434.977-.968v-1.115c0-2.118-.847-4.119-2.26-5.533.306-.063.622-.1.946-.1 2.831 0 5.134 2.527 5.134 5.633v1.115c0 .534.438.968.978.968s.98-.434.98-.968v-1.115c0-2.831-1.515-5.455-3.872-6.744" fill-rule="evenodd"/></symbol><symbol viewBox="0 0 24 24" id="person" xmlns="http://www.w3.org/2000/svg"><defs><path d="M15.432 12.199C18.131 13.546 20 16.429 20 19.76v1.289c0 .525-.439.95-.98.95-.541 0-.98-.425-.98-.95V19.76c0-3.57-2.71-6.473-6.04-6.473s-6.04 2.904-6.04 6.473v1.289c0 .525-.439.95-.98.95-.542 0-.98-.425-.98-.95V19.76c0-3.332 1.87-6.215 4.568-7.562-1.448-1.028-2.39-2.686-2.39-4.555C6.178 4.532 8.79 2 12 2s5.822 2.532 5.822 5.644c0 1.869-.943 3.527-2.39 4.555zM8.138 7.644c0 2.064 1.733 3.743 3.862 3.743 2.13 0 3.862-1.679 3.862-3.743S14.129 3.901 12 3.901c-2.13 0-3.862 1.679-3.862 3.743z" id="doa"/></defs><use xlink:href="#doa" fill-rule="evenodd"/></symbol><symbol viewBox="0 0 24 24" id="pie-chart" xmlns="http://www.w3.org/2000/svg"><defs><path d="M11.056 2.643v4.745c0 .269-.169.51-.422.603a4.154 4.154 0 0 0-.583.266.646.646 0 0 1-.768-.107L5.956 4.834a.642.642 0 0 1 .068-.968 10.041 10.041 0 0 1 4.274-1.856.646.646 0 0 1 .758.633zm2.035 4.745V2.642a.642.642 0 0 1 .758-.632c4.14.734 7.405 3.988 8.141 8.114a.641.641 0 0 1-.634.755h-4.762a.645.645 0 0 1-.605-.42 4.176 4.176 0 0 0-2.476-2.468.642.642 0 0 1-.422-.603zm3.503 5.52h4.762a.646.646 0 0 1 .634.755c-.839 4.7-4.96 8.27-9.917 8.27C6.51 21.932 2 17.437 2 11.892c0-2.003.59-3.869 1.604-5.435a.645.645 0 0 1 .997-.106l3.416 3.405a.641.641 0 0 1 .148.68c-.17.453-.264.944-.264 1.456a4.165 4.165 0 0 0 4.172 4.158 4.172 4.172 0 0 0 3.916-2.723.644.644 0 0 1 .605-.42z" id="dpa"/></defs><use fill-rule="nonzero" xlink:href="#dpa"/></symbol><symbol viewBox="0 0 24 24" id="pin" xmlns="http://www.w3.org/2000/svg"><defs><path d="M11.848 21.248S5 13.642 5 9.5a7.5 7.5 0 1 1 15 0c0 4.142-6.848 11.748-6.848 11.748-.358.417-.944.415-1.304 0zM12.5 14.5a5 5 0 1 0 0-10 5 5 0 0 0 0 10zm0-2.5a2.5 2.5 0 1 1 0-5 2.5 2.5 0 0 1 0 5z" id="dqa"/></defs><use xlink:href="#dqa" fill-rule="evenodd"/></symbol><symbol viewBox="0 0 24 24" id="play" xmlns="http://www.w3.org/2000/svg"><defs><path d="M6.286 3.228c-.492-.296-1-.304-1.524-.023C4.254 3.502 4 3.94 4 4.516v14.986c0 .577.254 1.014.762 1.31.254.126.508.188.762.188.27 0 .524-.07.762-.21l12.952-7.493c.508-.281.762-.71.762-1.288 0-.577-.255-1.007-.762-1.288L6.286 3.228z" id="dra"/></defs><use fill-rule="nonzero" xlink:href="#dra"/></symbol><symbol viewBox="0 0 24 24" id="plus" xmlns="http://www.w3.org/2000/svg"><defs><path d="M13 11h6a1 1 0 0 1 0 2h-6v6a1 1 0 0 1-2 0v-6H5a1 1 0 0 1 0-2h6V5a1 1 0 0 1 2 0v6z" id="dsa"/></defs><use xlink:href="#dsa" fill-rule="evenodd"/></symbol><symbol viewBox="0 0 24 24" id="plus-rect" xmlns="http://www.w3.org/2000/svg"><defs><path d="M18.465 19c.296 0 .535-.24.535-.535V5.535A.534.534 0 0 0 18.465 5H5.535A.534.534 0 0 0 5 5.535v12.93c0 .295.239.535.535.535h12.93zM19 3a2 2 0 0 1 2 2v14a2 2 0 0 1-2 2H5a2 2 0 0 1-2-2V5a2 2 0 0 1 2-2h14zm-6 8h3a1 1 0 0 1 0 2h-3v3a1 1 0 0 1-2 0v-3H8a1 1 0 0 1 0-2h3V8a1 1 0 0 1 2 0v3z" id="dta"/></defs><use xlink:href="#dta" fill-rule="evenodd"/></symbol><symbol viewBox="0 0 24 24" id="power-off" xmlns="http://www.w3.org/2000/svg"><g fill-rule="evenodd"><path d="M12.155 10c.55 0 1-.452 1-1.012V3.013c0-.561-.45-1.013-1-1.013-.551 0-1 .452-1 1.013v5.975c0 .56.449 1.012 1 1.012"/><path d="M16.66 5.028a.999.999 0 0 0-1.368.358 1.002 1.002 0 0 0 .358 1.369 7.113 7.113 0 0 1 3.513 6.117 7.09 7.09 0 0 1-7.082 7.082c-3.904 0-7.08-3.177-7.08-7.082a7.099 7.099 0 0 1 3.601-6.17 1.001 1.001 0 0 0-.984-1.74A9.1 9.1 0 0 0 3 12.872c0 5.008 4.074 9.082 9.081 9.082 5.008 0 9.082-4.074 9.082-9.082a9.123 9.123 0 0 0-4.503-7.844"/></g></symbol><symbol viewBox="0 0 24 24" id="presentation" xmlns="http://www.w3.org/2000/svg"><defs><path d="M15.834 20.66a.561.561 0 0 1 0 .8l-.37.374a.534.534 0 0 1-.772 0l-2.907-2.947h.43l-2.908 2.947a.534.534 0 0 1-.771 0l-.37-.375a.56.56 0 0 1 0-.8l3.448-3.493a.534.534 0 0 1 .771 0l3.449 3.494zM5.409 4A1.41 1.41 0 0 0 4 5.409v9.183A1.41 1.41 0 0 0 5.409 16H18.59A1.41 1.41 0 0 0 20 14.592V5.409A1.41 1.41 0 0 0 18.591 4H5.41zm-.417 14A2.996 2.996 0 0 1 2 15.008V4.992A2.996 2.996 0 0 1 4.992 2h14.016A2.996 2.996 0 0 1 22 4.992v10.016A2.996 2.996 0 0 1 19.008 18H4.992zM7 11h1a1 1 0 0 1 1 1v1a1 1 0 0 1-1 1H7a1 1 0 0 1-1-1v-1a1 1 0 0 1 1-1zm4-2h2a1 1 0 0 1 1 1v3a1 1 0 0 1-1 1h-2a1 1 0 0 1-1-1v-3a1 1 0 0 1 1-1zm5-1h1a1 1 0 0 1 1 1v4a1 1 0 0 1-1 1h-1a1 1 0 0 1-1-1V9a1 1 0 0 1 1-1z" id="dva"/></defs><use fill-rule="nonzero" xlink:href="#dva"/></symbol><symbol viewBox="0 0 24 24" id="print" xmlns="http://www.w3.org/2000/svg"><defs><path d="M19 15a1 1 0 1 1 0-2 1 1 0 0 1 0 2zm-2-3H7V4h7v3h3v5zM7 20h10v-3H7v3zm12-10V6.062L15.031 2H7a2 2 0 0 0-2 2v6a3 3 0 0 0-3 3v6h3v1a2 2 0 0 0 2 2h10a2 2 0 0 0 2-2v-1h3v-6a3 3 0 0 0-3-3z" id="dwa"/></defs><use xlink:href="#dwa" fill-rule="evenodd"/></symbol><symbol viewBox="0 0 24 24" id="pro" xmlns="http://www.w3.org/2000/svg"><defs><path d="M16.808 13.391c-.832 0-1.377-.643-1.377-1.461 0-.825.545-1.461 1.377-1.461s1.37.636 1.37 1.461c0 .818-.538 1.461-1.37 1.461zm-5.114-1.771h-1.03v-1.083h1.03c.348 0 .628.19.628.538 0 .355-.28.545-.628.545zm-4.865 0H5.8v-1.083H6.83c.348 0 .628.197.628.545 0 .34-.28.538-.628.538zm-3.387 6.24C2.647 17.86 2 17.237 2 16.47V7.39C2 6.623 2.647 6 3.442 6h17.116C21.353 6 22 6.623 22 7.39v9.08c0 .767-.647 1.39-1.442 1.39H3.442zM5.8 14.451v-1.696h1.226c1.135 0 1.755-.764 1.755-1.673 0-.916-.62-1.68-1.755-1.68H4.499v5.049H5.8zm7.868 0l-1.029-1.855c.477-.166 1.006-.636 1.006-1.514 0-.939-.635-1.68-1.755-1.68H9.363v5.049h1.302v-1.696h.665l.848 1.696h1.49zm3.14.09c1.543 0 2.693-1.074 2.693-2.611 0-1.537-1.15-2.612-2.693-2.612-1.543 0-2.701 1.075-2.701 2.612 0 1.537 1.158 2.612 2.7 2.612z" id="dxa"/></defs><use xlink:href="#dxa" fill-rule="evenodd"/></symbol><symbol viewBox="0 0 24 24" id="question-rect" xmlns="http://www.w3.org/2000/svg"><defs><path d="M12.052 17.2a1.21 1.21 0 0 1-1.195-1.194c0-.65.545-1.195 1.195-1.195.649 0 1.195.546 1.195 1.195a1.21 1.21 0 0 1-1.195 1.195zm-.709-3.171a1.921 1.921 0 0 1-.486-1.313c0-1.741 2.168-1.948 2.168-2.966 0-.457-.354-.841-1.165-.841-.738 0-1.358.354-1.815.915L8.85 8.48c.782-.93 1.962-1.431 3.231-1.431 1.903 0 3.069.959 3.069 2.331 0 2.154-2.464 2.317-2.464 3.556 0 .236.118.487.28.62l-1.623.472zM18.465 19c.296 0 .535-.24.535-.535V5.535A.534.534 0 0 0 18.465 5H5.535A.534.534 0 0 0 5 5.535v12.93c0 .295.239.535.535.535h12.93zM19 3a2 2 0 0 1 2 2v14a2 2 0 0 1-2 2H5a2 2 0 0 1-2-2V5a2 2 0 0 1 2-2h14z" id="dya"/></defs><use xlink:href="#dya" fill-rule="evenodd"/></symbol><symbol viewBox="0 0 24 24" id="rect" xmlns="http://www.w3.org/2000/svg"><defs><path d="M17.318 3c1.014 0 1.881.36 2.602 1.08.72.72 1.08 1.588 1.08 2.602v10.636c0 1.014-.36 1.881-1.08 2.602-.72.72-1.588 1.08-2.602 1.08H6.682c-1.014 0-1.882-.36-2.602-1.08C3.36 19.2 3 18.332 3 17.318V6.682C3 5.668 3.36 4.8 4.08 4.08 4.8 3.36 5.668 3 6.682 3h10.636zM6 5a1 1 0 0 0-1 1v12a1 1 0 0 0 1 1h12a1 1 0 0 0 1-1V6a1 1 0 0 0-1-1H6z" id="dza"/></defs><use fill-rule="nonzero" xlink:href="#dza"/></symbol><symbol viewBox="0 0 24 24" id="reload" xmlns="http://www.w3.org/2000/svg"><g fill-rule="evenodd"><path d="M20.497 14h-5.282a.503.503 0 0 0-.357.858l2.081 2.081A6.969 6.969 0 0 1 12 19a6.977 6.977 0 0 1-6.492-4.375 1 1 0 0 0-1.854.75A8.968 8.968 0 0 0 12 21a8.969 8.969 0 0 0 6.351-2.649l1.791 1.791a.503.503 0 0 0 .858-.357v-5.282a.504.504 0 0 0-.503-.503M9.142 9.142L7.057 7.057A6.943 6.943 0 0 1 12 5a6.99 6.99 0 0 1 6.45 4.276.997.997 0 0 0 1.31.53 1 1 0 0 0 .532-1.31A8.986 8.986 0 0 0 12 3c-2.448 0-4.7.98-6.355 2.645L3.859 3.859a.503.503 0 0 0-.86.356v5.282c0 .278.227.503.504.503h5.283a.503.503 0 0 0 .356-.858"/></g></symbol><symbol viewBox="0 0 24 24" id="revoke" xmlns="http://www.w3.org/2000/svg"><defs><path d="M20.66 6.98a9.957 9.957 0 0 0-3.64-3.639C15.488 2.447 13.815 2 12 2c-1.814 0-3.487.447-5.02 1.341a9.954 9.954 0 0 0-3.639 3.64C2.447 8.512 2 10.185 2 12s.447 3.487 1.341 5.02a9.958 9.958 0 0 0 3.64 3.639C8.513 21.553 10.186 22 12 22c1.813 0 3.487-.447 5.019-1.341a9.956 9.956 0 0 0 3.639-3.64C21.553 15.488 22 13.815 22 12s-.447-3.488-1.34-5.02zm-2.826 5.853a.8.8 0 0 1-.248.586.801.801 0 0 1-.586.248H7a.801.801 0 0 1-.586-.248.8.8 0 0 1-.247-.586v-1.666a.8.8 0 0 1 .247-.586.8.8 0 0 1 .586-.248h10a.8.8 0 0 1 .586.248.8.8 0 0 1 .248.586v1.666z" id="eba"/></defs><use xlink:href="#eba" fill-rule="evenodd"/></symbol><symbol viewBox="0 0 24 24" id="sales" xmlns="http://www.w3.org/2000/svg"><path d="M20.215 6h-4.203V4.125c0-.313-.105-.578-.313-.797A1.006 1.006 0 0 0 14.94 3H9.07c-.297 0-.55.109-.758.328A1.11 1.11 0 0 0 8 4.125V6H3.786a1.68 1.68 0 0 0-1.261.551A1.85 1.85 0 0 0 2 7.875v4.098h20V7.875c0-.516-.175-.957-.524-1.324A1.682 1.682 0 0 0 20.215 6zM10 6h4v-.997h-4V6zm.992 8.938h1.987v-1.926h-1.987v1.926zm4.012.309v.128-2.36H22v6.11c0 .516-.175.957-.524 1.324-.35.367-.771.551-1.261.551H3.785a1.68 1.68 0 0 1-1.26-.551A1.85 1.85 0 0 1 2 19.125v-6.11h7.007v2.232a.74.74 0 0 0 .212.527.67.67 0 0 0 .502.223h4.569a.667.667 0 0 0 .502-.223.735.735 0 0 0 .212-.527z" fill-rule="evenodd"/></symbol><symbol viewBox="0 0 24 24" id="scrapbox" xmlns="http://www.w3.org/2000/svg"><defs><path d="M12.535 3.113c-.295-.15-.774-.15-1.07 0L6.535 5.62c-.295.15-.535.541-.535.872v4.908c0 .33.239.72.535.871l5.145 2.618c.177.09.176.236 0 .326l-5.145 2.618c-.295.15-.296.394 0 .545l4.93 2.508c.295.15.774.15 1.07 0l4.93-2.508c.295-.15.535-.541.535-.872v-4.908c0-.33-.239-.72-.535-.871L12.32 9.11c-.177-.09-.177-.236 0-.326l5.144-2.618c.295-.15.296-.394 0-.545l-4.93-2.508z" id="eda"/></defs><use xlink:href="#eda" fill-rule="evenodd"/></symbol><symbol viewBox="0 0 24 24" id="search" xmlns="http://www.w3.org/2000/svg"><defs><path d="M20.632 22c-.424 0-.817-.193-1.078-.53l-4.973-4.926h-.002a8.035 8.035 0 0 1-4.535 1.393C5.608 17.937 2 14.363 2 9.97S5.608 2 10.044 2c4.435 0 8.043 3.575 8.043 7.969 0 1.691-.53 3.309-1.535 4.677l-.001.001v.003l4.963 4.917c.053.045.102.094.148.146l.018.018-.002.002.002.001c.207.249.32.563.32.887 0 .76-.614 1.379-1.368 1.379zM10 4c-3.308 0-6 2.692-6 6s2.692 6 6 6 6-2.692 6-6-2.692-6-6-6z" id="eea"/></defs><use xlink:href="#eea" fill-rule="evenodd"/></symbol><symbol viewBox="0 0 24 24" id="share" xmlns="http://www.w3.org/2000/svg"><path d="M18 13a3.99 3.99 0 0 0-3.255 1.687L9.94 12.613c.03-.194.06-.39.06-.592 0-.232-.03-.456-.067-.676l4.888-1.942A3.979 3.979 0 0 0 18 11a4 4 0 1 0-4-4c0 .19.03.372.056.555L9.101 9.52A3.979 3.979 0 0 0 6 8.02a4 4 0 0 0 0 8 3.98 3.98 0 0 0 3.155-1.568l4.89 2.11c-.017.146-.045.288-.045.437a4 4 0 1 0 4-4" fill-rule="evenodd"/></symbol><symbol viewBox="0 0 24 24" id="slack" xmlns="http://www.w3.org/2000/svg"><defs><path d="M21.908 12.531a1.725 1.725 0 0 0-.875-1.005 1.765 1.765 0 0 0-1.34-.093l-1.858.624-1.258-3.738 1.809-.61a1.745 1.745 0 0 0 1.1-2.219 1.726 1.726 0 0 0-.875-1.006 1.766 1.766 0 0 0-1.341-.094L15.461 5l-.609-1.81a1.725 1.725 0 0 0-.874-1.006 1.749 1.749 0 0 0-2.44 2.126l.609 1.81L8.33 7.404l-.602-1.787a1.726 1.726 0 0 0-.875-1.007 1.749 1.749 0 0 0-2.44 2.126l.6 1.789-1.82.616a1.749 1.749 0 0 0-1.098 2.22c.143.437.458.8.874 1.006.416.207.9.24 1.34.093l1.82-.617 1.259 3.73-1.771.595a1.749 1.749 0 0 0-1.1 2.22c.144.437.459.8.875 1.006.416.207.899.24 1.34.094l1.771-.597.647 1.92c.143.437.458.8.875 1.006a1.749 1.749 0 0 0 2.44-2.127l-.646-1.918 3.817-1.285.64 1.897c.143.437.458.8.874 1.006a1.748 1.748 0 0 0 2.44-2.126l-.638-1.896 1.856-.625a1.748 1.748 0 0 0 1.1-2.212zm-11.36 1.777l-1.24-3.721 3.76-1.28 1.24 3.722-3.76 1.279z" id="ega"/></defs><use xlink:href="#ega" fill-rule="evenodd"/></symbol><symbol viewBox="0 0 24 24" id="sort" xmlns="http://www.w3.org/2000/svg"><defs><path d="M6.917 8.067v7.637l1.664-1.69a.525.525 0 0 1 .758-.001l.364.369a.552.552 0 0 1 0 .786l-3.39 3.436a.526.526 0 0 1-.759 0l-3.39-3.436a.552.552 0 0 1 0-.786l.363-.369a.525.525 0 0 1 .758 0L4.95 15.7V8.063l-1.664 1.69a.525.525 0 0 1-.759 0l-.363-.368a.552.552 0 0 1 0-.786l3.39-3.436a.526.526 0 0 1 .758 0L9.703 8.6a.552.552 0 0 1 0 .786l-.363.368a.525.525 0 0 1-.759 0L6.917 8.067zM12 6c0-.552.456-1 .995-1h8.01c.55 0 .995.444.995 1 0 .552-.456 1-.995 1h-8.01A.995.995 0 0 1 12 6zm0 6c0-.552.456-1 .995-1h8.01c.55 0 .995.444.995 1 0 .552-.456 1-.995 1h-8.01A.995.995 0 0 1 12 12zm0 6c0-.552.456-1 .995-1h8.01c.55 0 .995.444.995 1 0 .552-.456 1-.995 1h-8.01A.995.995 0 0 1 12 18z" id="eha"/></defs><use xlink:href="#eha" fill-rule="evenodd"/></symbol><symbol viewBox="0 0 24 24" id="space" xmlns="http://www.w3.org/2000/svg"><g fill-rule="evenodd"><path d="M11.958 19h-2a1 1 0 1 0 0 2h2a1 1 0 1 0 0-2M7.958 3H4a1 1 0 0 0-1 1v2.042a1 1 0 1 0 2 0V5h2.958a1 1 0 1 0 0-2M4 13a1 1 0 0 0 1-1v-2a1 1 0 1 0-2 0v2a1 1 0 0 0 1 1M19.977 15a1 1 0 0 0 1-1v-2a1 1 0 1 0-2 0v2a1 1 0 0 0 1 1M13.958 3.021h-1.979a1 1 0 0 0 0 2h1.979a1 1 0 1 0 0-2M5.98 19H5v-2.979a1 1 0 0 0-2 0v3.98a1 1 0 0 0 1 1h1.98a1 1 0 1 0 0-2M20 3h-2.022a1 1 0 1 0 0 2H19v2.979a1 1 0 1 0 2 0V4a1 1 0 0 0-1-1M20 17.01a1 1 0 0 0-1 1v1.021h-3.021a1 1 0 0 0 0 2H20a1 1 0 0 0 1-1v-2.02a1 1 0 0 0-1-1"/></g></symbol><symbol viewBox="0 0 24 24" id="space-arrow" xmlns="http://www.w3.org/2000/svg"><g fill-rule="evenodd"><path d="M20.547 14.652l-9.084-2.788c-.502-.154-.787.13-.633.633l2.788 9.084c.155.503.511.55.793.108l1.267-1.993c.282-.444.825-.512 1.208-.152l1.856 1.75a.992.992 0 0 0 1.37-.02l.127-.128a.994.994 0 0 0 .021-1.37l-1.749-1.856c-.36-.383-.292-.926.151-1.209l1.992-1.266c.445-.282.396-.639-.107-.793M7.958 3H4a1 1 0 0 0-1 1v2.042a1 1 0 0 0 2 0V5h2.958a1 1 0 0 0 0-2M4 13a1 1 0 0 0 1-1v-2a1 1 0 0 0-2 0v2a1 1 0 0 0 1 1M10.979 19h-1a1 1 0 0 0 0 2h1a1 1 0 0 0 0-2M19.977 11a1 1 0 1 0 0 2 1 1 0 0 0 0-2M11.979 5.021h1.979a1 1 0 1 0 0-2h-1.979a1 1 0 0 0 0 2M5.979 19H5v-2.979a1 1 0 0 0-2 0V20a1 1 0 0 0 1 1h1.979a1 1 0 0 0 0-2M20 3h-2.021a1 1 0 1 0 0 2h1.02v2.979a1 1 0 1 0 2 0V4a1 1 0 0 0-1-1"/></g></symbol><symbol viewBox="0 0 24 24" id="spreadsheet" xmlns="http://www.w3.org/2000/svg"><defs><path d="M6 14h5v-4H6v4zm0 2v4h5v-4H6zm7 0v4h5V4H6v4h5V4h2v4h5v2h-5v4h5v2h-5zM6 2h12a2 2 0 0 1 2 2v16a2 2 0 0 1-2 2H6a2 2 0 0 1-2-2V4a2 2 0 0 1 2-2z" id="eka"/></defs><use fill-rule="nonzero" xlink:href="#eka"/></symbol><symbol viewBox="0 0 24 24" id="star" xmlns="http://www.w3.org/2000/svg"><path d="M15.644 14.192l.868 5.27-4.521-2.483-4.506 2.482.852-5.282-3.74-3.8 5.2-.79 2.206-4.69 2.226 4.693 5.164.784-3.75 3.816zM22 9.95c0-.797-.552-1.272-1.33-1.402l-5.09-.773-2.282-4.81C13.043 2.386 12.6 2 12 2c-.6 0-1.042.386-1.307.983L8.442 7.771l-5.101.775C2.553 8.678 2 9.152 2 9.95c0 .425.186.798.5 1.152l3.7 3.76-.854 5.3a2.87 2.87 0 0 0-.034.38c0 .34.09.657.276.926.244.353.618.533 1.033.533.288 0 .568-.088.846-.246l4.526-2.493 4.553 2.5c.249.148.537.24.834.24.41 0 .78-.185 1.023-.534.185-.269.275-.587.275-.926a2.83 2.83 0 0 0-.02-.356l-.875-5.315 3.675-3.737c.343-.356.542-.74.542-1.184z" fill-rule="evenodd"/></symbol><symbol viewBox="0 0 24 24" id="star-fill" xmlns="http://www.w3.org/2000/svg"><defs><path d="M13.402 2.652c-.276-.596-.754-.996-1.402-.996-.648 0-1.126.4-1.412 1.017L8.156 7.625l-5.508.801c-.85.137-1.448.627-1.448 1.452 0 .439.2.825.54 1.191l4.01 3.925-.936 5.446c-.026.176-.037.29-.037.393 0 .35.097.68.297.957a1.34 1.34 0 0 0 1.116.551c.31 0 .614-.09.914-.254l4.859-2.554 4.947 2.56c.269.155.58.248.9.248.443 0 .843-.19 1.104-.55.2-.279.298-.607.298-.958 0-.144-.006-.262-.022-.369l-.953-5.482 3.978-3.88c.37-.368.585-.766.585-1.224 0-.825-.597-1.315-1.435-1.45l-5.542-.806-2.421-4.97z" id="ema"/></defs><use fill-rule="nonzero" xlink:href="#ema"/></symbol><symbol viewBox="0 0 24 24" id="switch" xmlns="http://www.w3.org/2000/svg"><defs><path d="M17.819 14.03c-.213-.187-.582-.057-.582.207v2.77h-1.37a.996.996 0 0 1-.84-.453l-2.671-4.771 2.402-4.271a1.01 1.01 0 0 1 .858-.483h1.62v2.734c0 .263.37.393.583.206l3.987-3.53a.533.533 0 0 0 0-.821l-3.987-3.53c-.213-.187-.582-.057-.582.207v2.734h-1.62c-1.046 0-2.031.555-2.588 1.476L11.21 9.737 9.355 6.425a3.021 3.021 0 0 0-2.57-1.45H3a1 1 0 1 0 0 2h3.784c.348 0 .676.186.839.454l2.436 4.352-2.67 4.744c-.18.298-.507.483-.856.483H3.001a1 1 0 1 0 0 2h3.533c1.045 0 2.03-.556 2.587-1.477l2.084-3.705 2.09 3.733a3.024 3.024 0 0 0 2.572 1.449h1.37v2.697c0 .263.37.393.582.205l3.987-3.53a.532.532 0 0 0 0-.82l-3.987-3.53z" id="ena"/></defs><use xlink:href="#ena" fill-rule="evenodd"/></symbol><symbol viewBox="0 0 24 24" id="tag" xmlns="http://www.w3.org/2000/svg"><defs><path d="M4 4v6.586l9 9L19.586 13l-9-9H4zm3 5a2 2 0 1 0 0-4 2 2 0 0 0 0 4zM3 2h8a1 1 0 0 1 .707.293l10 10a1 1 0 0 1 0 1.414l-8 8a1 1 0 0 1-1.414 0l-10-10A1 1 0 0 1 2 11V3a1 1 0 0 1 1-1z" id="eoa"/></defs><use fill-rule="nonzero" xlink:href="#eoa"/></symbol><symbol viewBox="0 0 24 24" id="text" xmlns="http://www.w3.org/2000/svg"><defs><path d="M19.975 4.236V3.012a4.914 4.914 0 0 0-.35-.012l-.525.012-.087.093a1.017 1.017 0 0 1-.263.188.641.641 0 0 1-.35.082l-.425-.023h-3.663l-2.687-.012-1.438.012-.237.035H8.325c-1.592 0-2.471-.02-2.638-.059l-.675-.316L4 3.024V7.512c.1.133.333.305.7.516.058 0 .144-.051.256-.153A.87.87 0 0 0 5.2 7.5c.092-.257.192-.586.3-.984.108-.398.2-.692.275-.879.075-.187.166-.316.275-.387.133-.086.437-.181.912-.287a5.857 5.857 0 0 1 1.25-.158c.917 0 1.533.024 1.85.07a.344.344 0 0 1 .175.07c.034.032.058.09.075.176.017.086.025.31.025.669 0 .359-.002.76-.006 1.2-.004.442-.002.905.006 1.39l.063 5.015a96.202 96.202 0 0 1-.075 5.074 2.057 2.057 0 0 1-.15.656c-.167.094-.83.29-1.988.586-.483.125-.812.316-.987.574v.106l.012.304c0 .032.009.133.025.305.183 0 .475-.016.875-.047 1.208-.11 2.18-.164 2.913-.164 1.383 0 2.375.031 2.975.094.641.078 1.42.117 2.337.117.167 0 .309-.004.425-.012.025-.149.038-.262.038-.34 0-.039-.021-.234-.063-.586a3.483 3.483 0 0 0-.625-.21 34.165 34.165 0 0 1-1.087-.294 1.828 1.828 0 0 0-.225-.058 4.201 4.201 0 0 1-1.112-.375 2.955 2.955 0 0 1-.138-.997l.013-1.722-.038-4.207v-3.89l-.013-1.782c-.016-.304.017-.836.1-1.594a5.96 5.96 0 0 1 .838-.058c.358 0 .82-.004 1.388-.012.566-.008.997-.012 1.293-.012.296 0 .473.008.532.024.116.031.229.105.337.223.017.015.042.128.075.34.033.21.081.466.144.767.063.3.127.545.194.732.241.665.466 1.165.675 1.5.241-.023.525-.093.85-.21.033-.149.05-.348.05-.598l.012-.68-.012-1.172-.013-1.54z" id="epa"/></defs><use fill-rule="nonzero" xlink:href="#epa"/></symbol><symbol viewBox="0 0 24 24" id="trash" xmlns="http://www.w3.org/2000/svg"><g fill-rule="evenodd"><path d="M6 20h12V7H6v13zm4.07-16h3.86l.637.956-5.151.025L10.07 4zM20 5h-3l-1.702-2.553A1.002 1.002 0 0 0 14.463 2H9.537c-.335 0-.649.167-.835.447L7 5H4a1 1 0 0 0 0 2v12.996C4 21.103 4.897 22 6.004 22h11.992A2.004 2.004 0 0 0 20 19.996V7a1 1 0 1 0 0-2z"/><path d="M10 18a1 1 0 0 0 1-1v-7a1 1 0 0 0-2 0v7a1 1 0 0 0 1 1M14 18a1 1 0 0 0 1-1v-7a1 1 0 1 0-2 0v7a1 1 0 0 0 1 1"/></g></symbol><symbol viewBox="0 0 24 24" id="trim" xmlns="http://www.w3.org/2000/svg"><defs><path d="M18.707 5.293A.997.997 0 0 1 19 6v11h2a1 1 0 0 1 0 2h-2v2a1 1 0 0 1-2 0v-2H6a1 1 0 0 1-1-1V7H3a1 1 0 1 1 0-2h2V3a1 1 0 1 1 2 0v2h11c.276 0 .526.112.707.293zM17 7H7v10h10V7z" id="era"/></defs><use xlink:href="#era" fill-rule="evenodd"/></symbol><symbol viewBox="0 0 24 24" id="twitter" xmlns="http://www.w3.org/2000/svg"><defs><path d="M22 6.275a8.681 8.681 0 0 1-2.357.596c.847-.468 1.498-1.21 1.805-2.094a8.645 8.645 0 0 1-2.606.918C18.093 4.96 17.027 4.5 15.846 4.5c-2.266 0-4.102 1.695-4.102 3.786 0 .297.035.587.105.863-3.41-.158-6.433-1.665-8.457-3.956a3.555 3.555 0 0 0-.556 1.904c0 1.314.725 2.472 1.825 3.152a4.354 4.354 0 0 1-1.858-.474v.048c0 1.835 1.414 3.365 3.291 3.713a4.455 4.455 0 0 1-1.852.066c.521 1.503 2.037 2.598 3.832 2.63-1.403 1.015-3.173 1.62-5.095 1.62-.331 0-.658-.017-.979-.052a12.339 12.339 0 0 0 6.29 1.7c7.547 0 11.674-5.77 11.674-10.774 0-.164-.005-.328-.012-.49A8 8 0 0 0 22 6.276z" id="esa"/></defs><use xlink:href="#esa" fill-rule="evenodd"/></symbol><symbol viewBox="0 0 24 24" id="unlocked" xmlns="http://www.w3.org/2000/svg"><defs><path d="M18 19.715c0 .151-.134.274-.299.274H6.3c-.165 0-.299-.123-.299-.274v-6.452c0-.152.134-.274.299-.274H17.7c.165 0 .299.122.299.274v6.452zM18 11V7.415C18 4.425 15.223 2 11.992 2S6 4.425 6 7.416v.612c0 .387.31.941 1 .941s1-.554 1-.94v-.613C8 5.199 9.597 4 11.992 4S16 5.198 16 7.415V11H5.539C4.52 11 4 11.53 4 12.438v8.498C4 21.707 4.567 22 5.088 22H18.97c.877 0 1.03-.798 1.03-1.064v-8.498c0-.906-.49-1.438-1.507-1.438H18z" id="eta"/></defs><use xlink:href="#eta" fill-rule="evenodd"/></symbol><symbol viewBox="0 0 24 24" id="up-down" xmlns="http://www.w3.org/2000/svg"><g fill-rule="evenodd"><path d="M11.563 19a.992.992 0 0 1-.687-.274l-3.563-3.375a1 1 0 0 1 1.375-1.452l2.875 2.724 2.875-2.724a.999.999 0 1 1 1.375 1.452l-3.563 3.375a.992.992 0 0 1-.687.274M15.125 10.375a.995.995 0 0 1-.687-.274l-2.876-2.724-2.874 2.724a1 1 0 1 1-1.375-1.452l3.562-3.375a1 1 0 0 1 1.375 0l3.562 3.375a1 1 0 0 1-.687 1.726"/></g></symbol><symbol viewBox="0 0 24 24" id="user-plus" xmlns="http://www.w3.org/2000/svg"><defs><path d="M19 19v2a1 1 0 0 1-2 0v-2h-2a1 1 0 0 1 0-2h2v-2a1 1 0 0 1 2 0v2h2a1 1 0 0 1 0 2h-2zm-3.476-6.121c-.502.26-.928.617-1.485 1.32-.956-.871-2.187-1.398-3.529-1.398-3.038 0-5.51 2.693-5.51 6.002v1.213A.992.992 0 0 1 4 21c-.552 0-1-.44-1-.984v-1.213c0-3.117 1.696-5.82 4.159-7.129-1.3-.989-2.139-2.536-2.139-4.273C5.02 4.423 7.483 2 10.51 2S16 4.423 16 7.4c0 1.738-.84 3.285-2.139 4.274a7.543 7.543 0 0 1 1.663 1.205zM7 7.5C7 9.43 8.57 11 10.5 11S14 9.43 14 7.5 12.43 4 10.5 4 7 5.57 7 7.5z" id="eva"/></defs><use xlink:href="#eva" fill-rule="evenodd"/></symbol><symbol viewBox="0 0 24 24" id="vector" xmlns="http://www.w3.org/2000/svg"><defs><path d="M17.712 2c.402 0 .742.14 1.022.419.279.279.418.614.418 1.005 0 .402-.14.74-.418 1.013-.28.274-.62.41-1.022.41a1.502 1.502 0 0 1-.62-.133l-3.5 3.517.318.436a14.29 14.29 0 0 1 3.375-1.399 15.163 15.163 0 0 1 1.842-.377c.631-.09 1.276-.134 1.935-.134l.938.034V8.7l-.938-.034c-.614 0-1.22.044-1.817.134-.598.089-1.176.215-1.734.377-.558.161-1.1.365-1.625.61-.525.247-1.027.52-1.507.822a3.766 3.766 0 0 1-1.097 2.672 3.766 3.766 0 0 1-2.672 1.097c-.302.48-.575.982-.821 1.507-.246.525-.45 1.067-.611 1.625a13.256 13.256 0 0 0-.377 1.734c-.09.597-.134 1.203-.134 1.817L8.7 22H6.79l-.033-.938c0-.659.045-1.304.134-1.935.09-.63.215-1.245.377-1.842a14.219 14.219 0 0 1 1.399-3.375l-.436-.319-3.517 3.501a1.545 1.545 0 0 1 .134.62c0 .402-.137.742-.41 1.022-.274.279-.612.418-1.014.418-.391 0-.726-.14-1.005-.418A1.39 1.39 0 0 1 2 17.712c0-.391.14-.726.419-1.005a1.37 1.37 0 0 1 1.005-.419c.111 0 .22.011.326.034a.897.897 0 0 1 .294.117l3.517-3.534a3.461 3.461 0 0 1-.595-1.073c-.14-.402-.209-.82-.209-1.256 0-.525.1-1.019.302-1.482.2-.464.474-.868.82-1.215.347-.346.751-.62 1.215-.82a3.685 3.685 0 0 1 1.482-.302c.436 0 .854.07 1.256.21.403.14.76.337 1.073.594l3.534-3.517a.897.897 0 0 1-.117-.294 1.581 1.581 0 0 1-.034-.326c0-.391.14-.726.419-1.005A1.37 1.37 0 0 1 17.712 2zm-7.136 6.667c-.525 0-.974.187-1.348.56a1.839 1.839 0 0 0-.561 1.35c0 .524.187.974.56 1.348.375.374.824.56 1.35.56.524 0 .974-.186 1.348-.56.374-.374.56-.824.56-1.349s-.186-.974-.56-1.348a1.839 1.839 0 0 0-1.349-.561z" id="ewa"/></defs><use xlink:href="#ewa" fill-rule="evenodd"/></symbol><symbol viewBox="0 0 24 24" id="video" xmlns="http://www.w3.org/2000/svg"><defs><path d="M4 5h9a2 2 0 0 1 2 2v10a2 2 0 0 1-2 2H4a2 2 0 0 1-2-2V7a2 2 0 0 1 2-2zm14.633 3.616A2 2 0 0 1 22 10.076v3.848a2 2 0 0 1-3.367 1.46l-2.054-1.925a2 2 0 0 1 0-2.918l2.054-1.925zm-11.1.699A1 1 0 0 0 6 10.16v3.678a1 1 0 0 0 1.533.846l2.922-1.839a1 1 0 0 0 0-1.692l-2.922-1.84z" id="exa"/></defs><use xlink:href="#exa" fill-rule="evenodd"/></symbol><symbol viewBox="0 0 24 24" id="volume" xmlns="http://www.w3.org/2000/svg"><defs><path d="M10.82 8.848H9a1 1 0 0 0-1 1v3.399a1 1 0 0 0 1 1h1.82l3.465 3.544a1 1 0 0 0 1.715-.7V6a1 1 0 0 0-1.715-.699L10.82 8.848z" id="eya"/></defs><use fill-rule="nonzero" xlink:href="#eya"/></symbol><symbol viewBox="0 0 24 24" id="volume-off" xmlns="http://www.w3.org/2000/svg"><defs><path d="M10.25 4c.203 0 .379.084.527.252a.87.87 0 0 1 .223.596v14.407c0 .23-.074.326-.223.493a.684.684 0 0 1-.527.252.684.684 0 0 1-.527-.252L5.82 15.002H3.011c-.36 0-1.011-.283-1.011-1V9.994c0-.23.808-.992 1.011-.992h2.81l3.902-4.751A.683.683 0 0 1 10.25 4zm10.804 12a.94.94 0 0 1-.668-.277L18 13.337l-2.386 2.386a.94.94 0 0 1-.669.277.947.947 0 0 1-.669-1.614L16.663 12l-2.385-2.386a.947.947 0 0 1 1.337-1.337L18 10.663l2.386-2.386A.94.94 0 0 1 21.054 8a.94.94 0 0 1 .669.277.94.94 0 0 1 .277.669.94.94 0 0 1-.277.668L19.337 12l2.386 2.386a.94.94 0 0 1 .277.668.94.94 0 0 1-.277.669.94.94 0 0 1-.669.277z" id="eza"/></defs><use xlink:href="#eza" fill-rule="evenodd"/></symbol><symbol viewBox="0 0 24 24" id="volume-on" xmlns="http://www.w3.org/2000/svg"><defs><path d="M5.82 9.303l3.465-3.547A1 1 0 0 1 11 6.455v11.092a1 1 0 0 1-1.715.699L5.82 14.702H4a1 1 0 0 1-1-1v-3.399a1 1 0 0 1 1-1h1.82zm8.893 4.534c-.339.553-.788.949-1.347 1.186a.64.64 0 0 1-.3.063.726.726 0 0 1-.538-.235.797.797 0 0 1-.228-.577.71.71 0 0 1 .144-.45c.096-.122.211-.228.347-.317a6.19 6.19 0 0 0 .408-.291c.135-.106.251-.256.347-.45.096-.195.144-.436.144-.723 0-.288-.049-.528-.144-.723a1.265 1.265 0 0 0-.347-.45 6.19 6.19 0 0 0-.408-.292 1.423 1.423 0 0 1-.347-.317.708.708 0 0 1-.144-.45c0-.228.076-.42.228-.576A.726.726 0 0 1 13.067 9c.12 0 .22.021.299.063.56.229 1.008.622 1.347 1.18.34.557.51 1.158.51 1.8 0 .642-.17 1.24-.51 1.794zm2.367 1.751c-.68 1.092-1.58 1.886-2.7 2.383a.803.803 0 0 1-.3.063c-.216 0-.4-.08-.552-.24a.799.799 0 0 1-.228-.569c0-.329.156-.577.468-.746.448-.244.752-.43.912-.556a4.715 4.715 0 0 0 1.386-1.713 4.975 4.975 0 0 0 .498-2.193c0-.775-.166-1.506-.498-2.193A4.715 4.715 0 0 0 14.68 8.11c-.16-.126-.464-.312-.912-.556-.312-.169-.468-.417-.468-.746 0-.22.076-.409.228-.569a.72.72 0 0 1 .54-.24c.104 0 .208.021.312.063 1.12.497 2.02 1.292 2.7 2.383a6.627 6.627 0 0 1 1.02 3.571c0 1.29-.34 2.48-1.02 3.571zm2.37-8.936c1.018 1.624 1.528 3.407 1.528 5.348 0 1.94-.51 3.723-1.528 5.348-1.019 1.624-2.375 2.82-4.067 3.589a.825.825 0 0 1-.313.063.722.722 0 0 1-.541-.24.798.798 0 0 1-.229-.57c0-.304.157-.553.47-.747.056-.034.146-.078.27-.133.124-.055.214-.099.27-.133.37-.21.699-.426.988-.645a7.977 7.977 0 0 0 2.31-2.874 8.314 8.314 0 0 0 .83-3.658c0-1.291-.277-2.51-.83-3.658a7.981 7.981 0 0 0-2.31-2.874 9.096 9.096 0 0 0-.987-.645 2.633 2.633 0 0 0-.271-.133 2.732 2.732 0 0 1-.27-.133c-.313-.194-.47-.443-.47-.747 0-.22.076-.41.229-.57A.723.723 0 0 1 15.07 3c.104 0 .209.021.313.063 1.692.768 3.048 1.965 4.067 3.589z" id="faa"/></defs><use fill-rule="nonzero" xlink:href="#faa"/></symbol></svg>