<?xml version="1.0" encoding="UTF-8"?>
<!-- Generator: CustomSymbols v2.6.1.40 by @serious_bret https://bretlester.com/app_content/CustomSymbols/ -->
<!-- Guides: Left/Right 0.125/0.129 Cap/Base 0.21/0.212 -->
<!-- Settings: RefScale 1.0 Min/Max Stroke Scales 0.5/2.21 -->
<!DOCTYPE svg
PUBLIC "-//W3C//DTD SVG 1.1//EN"
       "http://www.w3.org/Graphics/SVG/1.1/DTD/svg11.dtd">
<svg version="1.1" xmlns="http://www.w3.org/2000/svg" xmlns:xlink="http://www.w3.org/1999/xlink" width="3300" height="2200">
<![CDATA[<svg width="24" height="24" viewBox="0 0 24 24" fill="none" xmlns="http://www.w3.org/2000/svg">
<path fill-rule="evenodd" clip-rule="evenodd" d="M12.0366 6.60071H11.5156C11.4076 6.60071 11.3176 6.63571 11.2476 6.70271C11.1786 6.77071 11.1436 6.85771 11.1436 6.96371V14.1157L7.9116 12.2927C7.7566 12.2927 7.6426 12.3657 7.5736 12.5087C7.5116 12.6517 7.5316 12.7857 7.6316 12.9057L11.7916 17.2857C11.8696 17.3607 11.9636 17.3987 12.0716 17.3987C12.1806 17.3987 12.2736 17.3607 12.3506 17.2857L16.5116 12.9057C16.6126 12.7857 16.6316 12.6517 16.5706 12.5087C16.5006 12.3657 16.3866 12.2927 16.2326 12.2927L12.9996 14.1157V6.96371C12.9996 6.85771 12.9646 6.77071 12.8946 6.70271C12.8256 6.63571 12.7356 6.60071 12.6276 6.60071H12.1066H12.0366Z" fill="black"/>
<path fill-rule="evenodd" clip-rule="evenodd" d="M18.4648 19.0001H5.53482C5.23882 19.0001 4.99982 18.7601 4.99982 18.4651V5.53509C4.99982 5.23909 5.23882 5.00009 5.53482 5.00009H18.4648C18.7608 5.00009 18.9998 5.23909 18.9998 5.53509V18.4651C18.9998 18.7601 18.7608 19.0001 18.4648 19.0001ZM18.9998 3.00009H4.99982C3.89582 3.00009 2.99982 3.89609 2.99982 5.00009V19.0001C2.99982 20.1041 3.89582 21.0001 4.99982 21.0001H18.9998C20.1048 21.0001 20.9998 20.1041 20.9998 19.0001V5.00009C20.9998 3.89609 20.1048 3.00009 18.9998 3.00009Z" fill="black"/>
</svg>
]]>
 <g id="Notes">
  <rect height="2200" id="artboard" style="fill:white;opacity:1" width="3300" x="0" y="0"/>
  <line id="" style="fill:none;stroke:black;opacity:1;stroke-width:0.5;" x1="263" x2="3036" y1="292" y2="292"/>
  <text id="reftext1" style="stroke:none;fill:black;font-family:-apple-system,&quot;SF Pro Display&quot;,&quot;SF Pro Text&quot;,Helvetica,sans-serif;font-weight:bold;" transform="matrix(1 0 0 1 263 322)">Weight/Scale Variations</text>
  <text id="reftext2" style="stroke:none;fill:black;font-family:-apple-system,&quot;SF Pro Display&quot;,&quot;SF Pro Text&quot;,Helvetica,sans-serif;text-anchor:middle;" transform="matrix(1 0 0 1 559.711 322)">Ultralight</text>
  <text style="stroke:none;fill:black;font-family:-apple-system,&quot;SF Pro Display&quot;,&quot;SF Pro Text&quot;,Helvetica,sans-serif;text-anchor:middle;" transform="matrix(1 0 0 1 856.422 322)">Thin</text>
  <text style="stroke:none;fill:black;font-family:-apple-system,&quot;SF Pro Display&quot;,&quot;SF Pro Text&quot;,Helvetica,sans-serif;text-anchor:middle;" transform="matrix(1 0 0 1 1153.13 322)">Light</text>
  <text style="stroke:none;fill:black;font-family:-apple-system,&quot;SF Pro Display&quot;,&quot;SF Pro Text&quot;,Helvetica,sans-serif;text-anchor:middle;" transform="matrix(1 0 0 1 1449.84 322)">Regular</text>
  <text style="stroke:none;fill:black;font-family:-apple-system,&quot;SF Pro Display&quot;,&quot;SF Pro Text&quot;,Helvetica,sans-serif;text-anchor:middle;" transform="matrix(1 0 0 1 1746.56 322)">Medium</text>
  <text style="stroke:none;fill:black;font-family:-apple-system,&quot;SF Pro Display&quot;,&quot;SF Pro Text&quot;,Helvetica,sans-serif;text-anchor:middle;" transform="matrix(1 0 0 1 2043.27 322)">Semibold</text>
  <text style="stroke:none;fill:black;font-family:-apple-system,&quot;SF Pro Display&quot;,&quot;SF Pro Text&quot;,Helvetica,sans-serif;text-anchor:middle;" transform="matrix(1 0 0 1 2339.98 322)">Bold</text>
  <text style="stroke:none;fill:black;font-family:-apple-system,&quot;SF Pro Display&quot;,&quot;SF Pro Text&quot;,Helvetica,sans-serif;text-anchor:middle;" transform="matrix(1 0 0 1 2636.69 322)">Heavy</text>
  <text style="stroke:none;fill:black;font-family:-apple-system,&quot;SF Pro Display&quot;,&quot;SF Pro Text&quot;,Helvetica,sans-serif;text-anchor:middle;" transform="matrix(1 0 0 1 2933.4 322)">Black</text>
  <line id="" style="fill:none;stroke:black;opacity:1;stroke-width:0.5;" x1="263" x2="3036" y1="1903" y2="1903"/>
  <g id="" transform="matrix(1 0 0 1 263 1933)">
   <path d="M9.24805 0.830078C13.5547 0.830078 17.1387-2.74414 17.1387-7.05078C17.1387-11.3574 13.5449-14.9316 9.23828-14.9316C4.94141-14.9316 1.36719-11.3574 1.36719-7.05078C1.36719-2.74414 4.95117 0.830078 9.24805 0.830078ZM9.24805-0.654297C5.70312-0.654297 2.87109-3.49609 2.87109-7.05078C2.87109-10.6055 5.69336-13.4473 9.23828-13.4473C12.793-13.4473 15.6348-10.6055 15.6445-7.05078C15.6543-3.49609 12.8027-0.654297 9.24805-0.654297ZM6.39648-6.31836L8.50586-6.31836L8.50586-4.19922C8.50586-3.75977 8.79883-3.45703 9.22852-3.45703C9.67773-3.45703 9.9707-3.75977 9.9707-4.19922L9.9707-6.31836L12.0996-6.31836C12.5391-6.31836 12.8418-6.61133 12.8418-7.04102C12.8418-7.48047 12.5391-7.7832 12.0996-7.7832L9.9707-7.7832L9.9707-9.89258C9.9707-10.3418 9.67773-10.6445 9.22852-10.6445C8.79883-10.6445 8.50586-10.3418 8.50586-9.89258L8.50586-7.7832L6.39648-7.7832C5.94727-7.7832 5.64453-7.48047 5.64453-7.04102C5.64453-6.61133 5.94727-6.31836 6.39648-6.31836Z"/>
  </g>
  <g id="" transform="matrix(1 0 0 1 281.506 1933)">
   <path d="M11.709 2.91016C17.1582 2.91016 21.6699-1.61133 21.6699-7.05078C21.6699-12.5 17.1484-17.0117 11.6992-17.0117C6.25977-17.0117 1.74805-12.5 1.74805-7.05078C1.74805-1.61133 6.26953 2.91016 11.709 2.91016ZM11.709 1.25C7.09961 1.25 3.41797-2.44141 3.41797-7.05078C3.41797-11.6602 7.08984-15.3516 11.6992-15.3516C16.3086-15.3516 20-11.6602 20.0098-7.05078C20.0195-2.44141 16.3184 1.25 11.709 1.25ZM7.98828-6.23047L10.8789-6.23047L10.8789-3.32031C10.8789-2.83203 11.2109-2.5 11.6895-2.5C12.1777-2.5 12.5195-2.83203 12.5195-3.32031L12.5195-6.23047L15.4297-6.23047C15.918-6.23047 16.25-6.5625 16.25-7.04102C16.25-7.5293 15.918-7.87109 15.4297-7.87109L12.5195-7.87109L12.5195-10.7617C12.5195-11.2695 12.1777-11.6016 11.6895-11.6016C11.2109-11.6016 10.8789-11.2598 10.8789-10.7617L10.8789-7.87109L7.98828-7.87109C7.48047-7.87109 7.14844-7.5293 7.14844-7.04102C7.14844-6.5625 7.49023-6.23047 7.98828-6.23047Z"/>
  </g>
  <g id="" transform="matrix(1 0 0 1 304.924 1933)">
   <path d="M14.9707 5.66406C21.9336 5.66406 27.6953-0.0976562 27.6953-7.05078C27.6953-14.0137 21.9238-19.7754 14.9609-19.7754C8.00781-19.7754 2.25586-14.0137 2.25586-7.05078C2.25586-0.0976562 8.01758 5.66406 14.9707 5.66406ZM14.9707 3.84766C8.93555 3.84766 4.08203-1.01562 4.08203-7.05078C4.08203-13.0957 8.92578-17.9492 14.9609-17.9492C21.0059-17.9492 25.8594-13.0957 25.8691-7.05078C25.8789-1.01562 21.0156 3.84766 14.9707 3.84766ZM10.0586-6.14258L14.0625-6.14258L14.0625-2.12891C14.0625-1.5918 14.4336-1.2207 14.9512-1.2207C15.4883-1.2207 15.8594-1.5918 15.8594-2.12891L15.8594-6.14258L19.8828-6.14258C20.4102-6.14258 20.791-6.51367 20.791-7.03125C20.791-7.56836 20.4199-7.94922 19.8828-7.94922L15.8594-7.94922L15.8594-11.9531C15.8594-12.5098 15.4883-12.8809 14.9512-12.8809C14.4336-12.8809 14.0625-12.5 14.0625-11.9531L14.0625-7.94922L10.0586-7.94922C9.50195-7.94922 9.13086-7.56836 9.13086-7.03125C9.13086-6.51367 9.51172-6.14258 10.0586-6.14258Z"/>
  </g>
  <text style="stroke:none;fill:black;font-family:-apple-system,&quot;SF Pro Display&quot;,&quot;SF Pro Text&quot;,Helvetica,sans-serif;font-weight:bold;" transform="matrix(1 0 0 1 263 1953)">Design Variations</text>
  <text style="stroke:none;fill:black;font-family:-apple-system,&quot;SF Pro Display&quot;,&quot;SF Pro Text&quot;,Helvetica,sans-serif;" transform="matrix(1 0 0 1 263 1971)">Symbols are supported in up to nine weights and three scales.</text>
  <text style="stroke:none;fill:black;font-family:-apple-system,&quot;SF Pro Display&quot;,&quot;SF Pro Text&quot;,Helvetica,sans-serif;" transform="matrix(1 0 0 1 263 1989)">For optimal layout with text and other symbols, vertically align</text>
  <text style="stroke:none;fill:black;font-family:-apple-system,&quot;SF Pro Display&quot;,&quot;SF Pro Text&quot;,Helvetica,sans-serif;" transform="matrix(1 0 0 1 263 2007)">symbols with the adjacent text.</text>
  <line id="" style="fill:none;stroke:#00AEEF;stroke-width:0.5;opacity:1.0;" x1="776" x2="776" y1="1919" y2="1933"/>
  <g id="" transform="matrix(1 0 0 1 776 1933)">
   <path d="M3.31055 0.126953C3.82812 0.126953 4.08203-0.0683594 4.26758-0.605469L5.52734-4.0625L11.2891-4.0625L12.5488-0.605469C12.7344-0.0683594 12.9883 0.126953 13.4961 0.126953C14.0137 0.126953 14.3457-0.185547 14.3457-0.673828C14.3457-0.839844 14.3164-0.986328 14.2383-1.20117L9.6582-13.3887C9.43359-13.9941 9.0332-14.2871 8.4082-14.2871C7.80273-14.2871 7.39258-13.9941 7.17773-13.3984L2.59766-1.19141C2.51953-0.976562 2.49023-0.830078 2.49023-0.664062C2.49023-0.175781 2.80273 0.126953 3.31055 0.126953ZM6.00586-5.53711L8.37891-12.1094L8.42773-12.1094L10.8008-5.53711Z"/>
  </g>
  <line id="" style="fill:none;stroke:#00AEEF;stroke-width:0.5;opacity:1.0;" x1="792.836" x2="792.836" y1="1919" y2="1933"/>
  <text style="stroke:none;fill:black;font-family:-apple-system,&quot;SF Pro Display&quot;,&quot;SF Pro Text&quot;,Helvetica,sans-serif;font-weight:bold;" transform="matrix(1 0 0 1 776 1953)">Margins</text>
  <text style="stroke:none;fill:black;font-family:-apple-system,&quot;SF Pro Display&quot;,&quot;SF Pro Text&quot;,Helvetica,sans-serif;" transform="matrix(1 0 0 1 776 1971)">Leading and trailing margins on the left and right side of each symbol</text>
  <text style="stroke:none;fill:black;font-family:-apple-system,&quot;SF Pro Display&quot;,&quot;SF Pro Text&quot;,Helvetica,sans-serif;" transform="matrix(1 0 0 1 776 1989)">can be adjusted by modifying the x-location of the margin guidelines.</text>
  <text style="stroke:none;fill:black;font-family:-apple-system,&quot;SF Pro Display&quot;,&quot;SF Pro Text&quot;,Helvetica,sans-serif;" transform="matrix(1 0 0 1 776 2007)">Modifications are automatically applied proportionally to all</text>
  <text style="stroke:none;fill:black;font-family:-apple-system,&quot;SF Pro Display&quot;,&quot;SF Pro Text&quot;,Helvetica,sans-serif;" transform="matrix(1 0 0 1 776 2025)">scales and weights.</text>
  <g id="" transform="matrix(1 0 0 1 1289 1933)">
   <path d="M2.8418 1.86523L4.54102 3.57422C5.40039 4.44336 6.38672 4.38477 7.31445 3.35938L17.4902-7.85156C17.7539-7.76367 18.0273-7.7832 18.3398-7.8418L19.4043-8.03711L20.0684-7.36328L20.0293-6.80664C19.9902-6.30859 20.1172-5.92773 20.6055-5.44922L21.3672-4.70703C21.8457-4.22852 22.4609-4.19922 22.9297-4.66797L25.8398-7.58789C26.3086-8.05664 26.2891-8.65234 25.8105-9.13086L25.0391-9.89258C24.5605-10.3711 24.1895-10.5273 23.7109-10.4883L23.1348-10.4395L22.4902-11.0742L22.7344-12.1973C22.8613-12.7637 22.7051-13.2031 22.1191-13.7891L19.9219-15.9766C16.582-19.2969 12.1484-19.2188 9.25781-16.3281C8.83789-15.918 8.80859-15.3418 9.04297-14.9512C9.27734-14.5898 9.73633-14.3555 10.3809-14.5215C11.8457-14.8633 13.3691-14.9219 14.7949-13.9844L14.209-12.5293C14.0137-12.0508 13.9844-11.6504 14.1113-11.2891L3.04688-0.898438C2.06055 0.0195312 1.98242 0.996094 2.8418 1.86523ZM10.752-15.957C13.1836-17.7344 16.4746-17.4316 18.7012-15.2051L21.1328-12.793C21.3672-12.5586 21.4062-12.373 21.3379-12.0312L21.0156-10.5469L22.5195-9.0625L23.5059-9.12109C23.7598-9.13086 23.8379-9.11133 24.0332-8.91602L24.6094-8.33984L22.168-5.89844L21.5918-6.47461C21.3965-6.66992 21.3672-6.74805 21.377-7.01172L21.4453-7.98828L19.9512-9.47266L18.4277-9.21875C18.1055-9.15039 17.959-9.17969 17.7148-9.41406L15.7129-11.416C15.459-11.6504 15.4297-11.8164 15.5859-12.1875L16.4648-14.2773C14.9023-15.7324 12.8711-16.3574 10.8398-15.7617C10.6836-15.7227 10.625-15.8496 10.752-15.957ZM5.27344 2.30469L4.10156 1.14258C3.63281 0.683594 3.74023 0.341797 4.14062-0.0195312L14.9512-10.1953L16.416-8.71094L6.42578 2.27539C6.07422 2.67578 5.74219 2.77344 5.27344 2.30469Z"/>
  </g>
  <text style="stroke:none;fill:black;font-family:-apple-system,&quot;SF Pro Display&quot;,&quot;SF Pro Text&quot;,Helvetica,sans-serif;font-weight:bold;" transform="matrix(1 0 0 1 1289 1953)">Exporting</text>
  <text style="stroke:none;fill:black;font-family:-apple-system,&quot;SF Pro Display&quot;,&quot;SF Pro Text&quot;,Helvetica,sans-serif;" transform="matrix(1 0 0 1 1289 1971)">Symbols should be outlined when exporting to ensure the</text>
  <text style="stroke:none;fill:black;font-family:-apple-system,&quot;SF Pro Display&quot;,&quot;SF Pro Text&quot;,Helvetica,sans-serif;" transform="matrix(1 0 0 1 1289 1989)">design is preserved when submitting to Xcode.</text>
  <text id="template-version" style="stroke:none;fill:black;font-family:-apple-system,&quot;SF Pro Display&quot;,&quot;SF Pro Text&quot;,Helvetica,sans-serif;text-anchor:end;" transform="matrix(1 0 0 1 3036 1933)">Template v.2.0</text>
  <text style="stroke:none;fill:black;font-family:-apple-system,&quot;SF Pro Display&quot;,&quot;SF Pro Text&quot;,Helvetica,sans-serif;text-anchor:end;" transform="matrix(1 0 0 1 3036 1951)">Requires Xcode 12 or greater</text>
  <text style="stroke:none;fill:black;font-family:-apple-system,&quot;SF Pro Display&quot;,&quot;SF Pro Text&quot;,Helvetica,sans-serif;" transform="matrix(1 0 0 1 263 726)">Small</text>
  <text style="stroke:none;fill:black;font-family:-apple-system,&quot;SF Pro Display&quot;,&quot;SF Pro Text&quot;,Helvetica,sans-serif;" transform="matrix(1 0 0 1 263 1156)">Medium</text>
  <text style="stroke:none;fill:black;font-family:-apple-system,&quot;SF Pro Display&quot;,&quot;SF Pro Text&quot;,Helvetica,sans-serif;" transform="matrix(1 0 0 1 263 1586)">Large</text>
 </g>
 <g id="Guides">
  <g id="H-reference" style="fill:#27AAE1;stroke:none;" transform="matrix(1 0 0 1 339 696)">
   <path d="M0.976562 0L3.66211 0L12.9883-24.4629L45.752-24.4629L55.127 0L57.7637 0L30.6152-70.459L28.125-70.459ZM29.3457-67.1387L29.4434-67.1387L44.873-26.709L13.8672-26.709Z"/>
  </g>
  <line id="Baseline-S" style="fill:none;stroke:#27AAE1;opacity:1;stroke-width:0.5;" x1="263" x2="3036" y1="696" y2="696"/>
  <line id="Capline-S" style="fill:none;stroke:#27AAE1;opacity:1;stroke-width:0.5;" x1="263" x2="3036" y1="625.541" y2="625.541"/>
  <g id="H-reference" style="fill:#27AAE1;stroke:none;" transform="matrix(1 0 0 1 339 1126)">
   <path d="M0.976562 0L3.66211 0L12.9883-24.4629L45.752-24.4629L55.127 0L57.7637 0L30.6152-70.459L28.125-70.459ZM29.3457-67.1387L29.4434-67.1387L44.873-26.709L13.8672-26.709Z"/>
  </g>
  <line id="Baseline-M" style="fill:none;stroke:#27AAE1;opacity:1;stroke-width:0.5;" x1="263" x2="3036" y1="1126" y2="1126"/>
  <line id="Capline-M" style="fill:none;stroke:#27AAE1;opacity:1;stroke-width:0.5;" x1="263" x2="3036" y1="1055.54" y2="1055.54"/>
  <g id="H-reference" style="fill:#27AAE1;stroke:none;" transform="matrix(1 0 0 1 339 1556)">
   <path d="M0.976562 0L3.66211 0L12.9883-24.4629L45.752-24.4629L55.127 0L57.7637 0L30.6152-70.459L28.125-70.459ZM29.3457-67.1387L29.4434-67.1387L44.873-26.709L13.8672-26.709Z"/>
  </g>
  <line id="Baseline-L" style="fill:none;stroke:#27AAE1;opacity:1;stroke-width:0.5;" x1="263" x2="3036" y1="1556" y2="1556"/>
  <line id="Capline-L" style="fill:none;stroke:#27AAE1;opacity:1;stroke-width:0.5;" x1="263" x2="3036" y1="1485.54" y2="1485.54"/>
  <line id="left-margin" x1="1405.4163575232483" x2="1405.4163575232483" y1="1030.79" y2="1150.12" style="fill:none;stroke:#00AEEF;stroke-width:0.5;opacity:1.0;"/>
  <line id="right-margin" x1="1496.356030290333" x2="1496.356030290333" y1="1030.79" y2="1150.12" style="fill:none;stroke:#00AEEF;stroke-width:0.5;opacity:1.0;"/>
 </g>
 <g id="Symbols">
  <g id="Black-L" transform="matrix(1.0,0.0,0.0,1.0,2856.052534939987,1442.2998094013572)">  <path stroke-miterlimit="4" fill="#000000" stroke-linecap="butt" clip-rule="evenodd" stroke-opacity="1" fill-rule="evenodd" stroke-dasharray="none" stroke="none" stroke-width="1px" stroke-linejoin="miter" fill-opacity="1" d="M78.867,43.25L75.454,43.25C74.746,43.25,74.156,43.479,73.698,43.918C73.245,44.364,73.016,44.934,73.016,45.628L73.016,92.49L51.839,80.545C50.823,80.545,50.077,81.024,49.624,81.961C49.218,82.898,49.349,83.776,50.004,84.562L77.262,113.261C77.773,113.752,78.389,114.001,79.097,114.001C79.811,114.001,80.42,113.752,80.925,113.261L108.189,84.562C108.851,83.776,108.975,82.898,108.575,81.961C108.117,81.024,107.37,80.545,106.361,80.545L85.177,92.49L85.177,45.628C85.177,44.934,84.948,44.364,84.489,43.918C84.037,43.479,83.447,43.25,82.74,43.25L79.326,43.25L78.867,43.25ZM78.867,43.25"/>
  <path fill="#000000" stroke-linecap="butt" stroke-linejoin="miter" stroke="none" fill-rule="evenodd" stroke-width="1px" clip-rule="evenodd" fill-opacity="1" stroke-opacity="1" stroke-dasharray="none" stroke-miterlimit="4" d="M120.987,124.494L36.266,124.494C34.326,124.494,32.76,122.922,32.76,120.989L32.76,36.268C32.76,34.328,34.326,32.762,36.266,32.762L120.987,32.762C122.926,32.762,124.492,34.328,124.492,36.268L124.492,120.989C124.492,122.922,122.926,124.494,120.987,124.494ZM124.492,19.657L32.76,19.657C25.527,19.657,19.656,25.528,19.656,32.762L19.656,124.494C19.656,131.728,25.527,137.599,32.76,137.599L124.492,137.599C131.732,137.599,137.597,131.728,137.597,124.494L137.597,32.762C137.597,25.528,131.732,19.657,124.492,19.657ZM124.492,19.657"/>
</g>
  <g id="Heavy-L" transform="matrix(1.0,0.0,0.0,1.0,2559.3425349399868,1442.2998094013572)">  <path fill="#000000" stroke-linecap="butt" fill-opacity="1" stroke-opacity="1" stroke="none" stroke-miterlimit="4" stroke-width="1px" fill-rule="evenodd" clip-rule="evenodd" stroke-linejoin="miter" stroke-dasharray="none" d="M78.867,43.25L75.454,43.25C74.746,43.25,74.156,43.479,73.698,43.918C73.245,44.364,73.016,44.934,73.016,45.628L73.016,92.49L51.839,80.545C50.823,80.545,50.077,81.024,49.624,81.961C49.218,82.898,49.349,83.776,50.004,84.562L77.262,113.261C77.773,113.752,78.389,114.001,79.097,114.001C79.811,114.001,80.42,113.752,80.925,113.261L108.189,84.562C108.851,83.776,108.975,82.898,108.575,81.961C108.117,81.024,107.37,80.545,106.361,80.545L85.177,92.49L85.177,45.628C85.177,44.934,84.948,44.364,84.489,43.918C84.037,43.479,83.447,43.25,82.74,43.25L79.326,43.25L78.867,43.25ZM78.867,43.25"/>
  <path fill-rule="evenodd" stroke-opacity="1" stroke-dasharray="none" stroke-linejoin="miter" stroke-width="1px" clip-rule="evenodd" stroke="none" stroke-linecap="butt" fill="#000000" stroke-miterlimit="4" fill-opacity="1" d="M120.987,124.494L36.266,124.494C34.326,124.494,32.76,122.922,32.76,120.989L32.76,36.268C32.76,34.328,34.326,32.762,36.266,32.762L120.987,32.762C122.926,32.762,124.492,34.328,124.492,36.268L124.492,120.989C124.492,122.922,122.926,124.494,120.987,124.494ZM124.492,19.657L32.76,19.657C25.527,19.657,19.656,25.528,19.656,32.762L19.656,124.494C19.656,131.728,25.527,137.599,32.76,137.599L124.492,137.599C131.732,137.599,137.597,131.728,137.597,124.494L137.597,32.762C137.597,25.528,131.732,19.657,124.492,19.657ZM124.492,19.657"/>
</g>
  <g id="Bold-L" transform="matrix(1.0,0.0,0.0,1.0,2262.6325349399867,1442.2998094013572)">  <path stroke-miterlimit="4" stroke-dasharray="none" stroke-linejoin="miter" stroke-opacity="1" clip-rule="evenodd" stroke-linecap="butt" fill-opacity="1" stroke-width="1px" fill-rule="evenodd" stroke="none" fill="#000000" d="M78.867,43.25L75.454,43.25C74.746,43.25,74.156,43.479,73.698,43.918C73.245,44.364,73.016,44.934,73.016,45.628L73.016,92.49L51.839,80.545C50.823,80.545,50.077,81.024,49.624,81.961C49.218,82.898,49.349,83.776,50.004,84.562L77.262,113.261C77.773,113.752,78.389,114.001,79.097,114.001C79.811,114.001,80.42,113.752,80.925,113.261L108.189,84.562C108.851,83.776,108.975,82.898,108.575,81.961C108.117,81.024,107.37,80.545,106.361,80.545L85.177,92.49L85.177,45.628C85.177,44.934,84.948,44.364,84.489,43.918C84.037,43.479,83.447,43.25,82.74,43.25L79.326,43.25L78.867,43.25ZM78.867,43.25"/>
  <path fill-opacity="1" stroke-opacity="1" stroke-linecap="butt" stroke-miterlimit="4" stroke-dasharray="none" fill-rule="evenodd" stroke-width="1px" stroke="none" stroke-linejoin="miter" fill="#000000" clip-rule="evenodd" d="M120.987,124.494L36.266,124.494C34.326,124.494,32.76,122.922,32.76,120.989L32.76,36.268C32.76,34.328,34.326,32.762,36.266,32.762L120.987,32.762C122.926,32.762,124.492,34.328,124.492,36.268L124.492,120.989C124.492,122.922,122.926,124.494,120.987,124.494ZM124.492,19.657L32.76,19.657C25.527,19.657,19.656,25.528,19.656,32.762L19.656,124.494C19.656,131.728,25.527,137.599,32.76,137.599L124.492,137.599C131.732,137.599,137.597,131.728,137.597,124.494L137.597,32.762C137.597,25.528,131.732,19.657,124.492,19.657ZM124.492,19.657"/>
</g>
  <g id="Semibold-L" transform="matrix(1.0,0.0,0.0,1.0,1965.922534939987,1442.2998094013572)">  <path stroke-dasharray="none" stroke="none" fill="#000000" stroke-width="1px" stroke-linejoin="miter" fill-rule="evenodd" stroke-linecap="butt" fill-opacity="1" clip-rule="evenodd" stroke-miterlimit="4" stroke-opacity="1" d="M78.867,43.25L75.454,43.25C74.746,43.25,74.156,43.479,73.698,43.918C73.245,44.364,73.016,44.934,73.016,45.628L73.016,92.49L51.839,80.545C50.823,80.545,50.077,81.024,49.624,81.961C49.218,82.898,49.349,83.776,50.004,84.562L77.262,113.261C77.773,113.752,78.389,114.001,79.097,114.001C79.811,114.001,80.42,113.752,80.925,113.261L108.189,84.562C108.851,83.776,108.975,82.898,108.575,81.961C108.117,81.024,107.37,80.545,106.361,80.545L85.177,92.49L85.177,45.628C85.177,44.934,84.948,44.364,84.489,43.918C84.037,43.479,83.447,43.25,82.74,43.25L79.326,43.25L78.867,43.25ZM78.867,43.25"/>
  <path stroke-opacity="1" clip-rule="evenodd" stroke-width="1px" fill-rule="evenodd" stroke="none" stroke-linejoin="miter" fill="#000000" stroke-dasharray="none" stroke-linecap="butt" fill-opacity="1" stroke-miterlimit="4" d="M120.987,124.494L36.266,124.494C34.326,124.494,32.76,122.922,32.76,120.989L32.76,36.268C32.76,34.328,34.326,32.762,36.266,32.762L120.987,32.762C122.926,32.762,124.492,34.328,124.492,36.268L124.492,120.989C124.492,122.922,122.926,124.494,120.987,124.494ZM124.492,19.657L32.76,19.657C25.527,19.657,19.656,25.528,19.656,32.762L19.656,124.494C19.656,131.728,25.527,137.599,32.76,137.599L124.492,137.599C131.732,137.599,137.597,131.728,137.597,124.494L137.597,32.762C137.597,25.528,131.732,19.657,124.492,19.657ZM124.492,19.657"/>
</g>
  <g id="Medium-L" transform="matrix(1.0,0.0,0.0,1.0,1669.2125349399869,1442.2998094013572)">  <path stroke-opacity="1" stroke-width="1px" clip-rule="evenodd" fill-opacity="1" stroke-miterlimit="4" stroke-dasharray="none" stroke-linejoin="miter" fill="#000000" fill-rule="evenodd" stroke-linecap="butt" stroke="none" d="M78.867,43.25L75.454,43.25C74.746,43.25,74.156,43.479,73.698,43.918C73.245,44.364,73.016,44.934,73.016,45.628L73.016,92.49L51.839,80.545C50.823,80.545,50.077,81.024,49.624,81.961C49.218,82.898,49.349,83.776,50.004,84.562L77.262,113.261C77.773,113.752,78.389,114.001,79.097,114.001C79.811,114.001,80.42,113.752,80.925,113.261L108.189,84.562C108.851,83.776,108.975,82.898,108.575,81.961C108.117,81.024,107.37,80.545,106.361,80.545L85.177,92.49L85.177,45.628C85.177,44.934,84.948,44.364,84.489,43.918C84.037,43.479,83.447,43.25,82.74,43.25L79.326,43.25L78.867,43.25ZM78.867,43.25"/>
  <path stroke-linecap="butt" stroke-linejoin="miter" fill-rule="evenodd" stroke-dasharray="none" stroke-width="1px" clip-rule="evenodd" fill="#000000" fill-opacity="1" stroke="none" stroke-opacity="1" stroke-miterlimit="4" d="M120.987,124.494L36.266,124.494C34.326,124.494,32.76,122.922,32.76,120.989L32.76,36.268C32.76,34.328,34.326,32.762,36.266,32.762L120.987,32.762C122.926,32.762,124.492,34.328,124.492,36.268L124.492,120.989C124.492,122.922,122.926,124.494,120.987,124.494ZM124.492,19.657L32.76,19.657C25.527,19.657,19.656,25.528,19.656,32.762L19.656,124.494C19.656,131.728,25.527,137.599,32.76,137.599L124.492,137.599C131.732,137.599,137.597,131.728,137.597,124.494L137.597,32.762C137.597,25.528,131.732,19.657,124.492,19.657ZM124.492,19.657"/>
</g>
  <g id="Regular-L" transform="matrix(1.0,0.0,0.0,1.0,1372.5025349399868,1442.2998094013572)">  <path stroke="none" stroke-opacity="1" stroke-linejoin="miter" stroke-miterlimit="4" stroke-linecap="butt" fill-rule="evenodd" fill="#000000" fill-opacity="1" clip-rule="evenodd" stroke-width="1px" stroke-dasharray="none" d="M78.867,43.25L75.454,43.25C74.746,43.25,74.156,43.479,73.698,43.918C73.245,44.364,73.016,44.934,73.016,45.628L73.016,92.49L51.839,80.545C50.823,80.545,50.077,81.024,49.624,81.961C49.218,82.898,49.349,83.776,50.004,84.562L77.262,113.261C77.773,113.752,78.389,114.001,79.097,114.001C79.811,114.001,80.42,113.752,80.925,113.261L108.189,84.562C108.851,83.776,108.975,82.898,108.575,81.961C108.117,81.024,107.37,80.545,106.361,80.545L85.177,92.49L85.177,45.628C85.177,44.934,84.948,44.364,84.489,43.918C84.037,43.479,83.447,43.25,82.74,43.25L79.326,43.25L78.867,43.25ZM78.867,43.25"/>
  <path stroke-linecap="butt" stroke-dasharray="none" stroke-miterlimit="4" stroke-width="1px" fill="#000000" clip-rule="evenodd" stroke="none" fill-rule="evenodd" stroke-opacity="1" fill-opacity="1" stroke-linejoin="miter" d="M120.987,124.494L36.266,124.494C34.326,124.494,32.76,122.922,32.76,120.989L32.76,36.268C32.76,34.328,34.326,32.762,36.266,32.762L120.987,32.762C122.926,32.762,124.492,34.328,124.492,36.268L124.492,120.989C124.492,122.922,122.926,124.494,120.987,124.494ZM124.492,19.657L32.76,19.657C25.527,19.657,19.656,25.528,19.656,32.762L19.656,124.494C19.656,131.728,25.527,137.599,32.76,137.599L124.492,137.599C131.732,137.599,137.597,131.728,137.597,124.494L137.597,32.762C137.597,25.528,131.732,19.657,124.492,19.657ZM124.492,19.657"/>
</g>
  <g id="Light-L" transform="matrix(1.0,0.0,0.0,1.0,1075.792534939987,1442.2998094013572)">  <path clip-rule="evenodd" stroke-width="1px" fill="#000000" fill-opacity="1" stroke-opacity="1" fill-rule="evenodd" stroke-linejoin="miter" stroke-linecap="butt" stroke-dasharray="none" stroke-miterlimit="4" stroke="none" d="M78.867,43.25L75.454,43.25C74.746,43.25,74.156,43.479,73.698,43.918C73.245,44.364,73.016,44.934,73.016,45.628L73.016,92.49L51.839,80.545C50.823,80.545,50.077,81.024,49.624,81.961C49.218,82.898,49.349,83.776,50.004,84.562L77.262,113.261C77.773,113.752,78.389,114.001,79.097,114.001C79.811,114.001,80.42,113.752,80.925,113.261L108.189,84.562C108.851,83.776,108.975,82.898,108.575,81.961C108.117,81.024,107.37,80.545,106.361,80.545L85.177,92.49L85.177,45.628C85.177,44.934,84.948,44.364,84.489,43.918C84.037,43.479,83.447,43.25,82.74,43.25L79.326,43.25L78.867,43.25ZM78.867,43.25"/>
  <path stroke-linejoin="miter" stroke-width="1px" fill-opacity="1" stroke-opacity="1" stroke="none" fill="#000000" fill-rule="evenodd" clip-rule="evenodd" stroke-miterlimit="4" stroke-dasharray="none" stroke-linecap="butt" d="M120.987,124.494L36.266,124.494C34.326,124.494,32.76,122.922,32.76,120.989L32.76,36.268C32.76,34.328,34.326,32.762,36.266,32.762L120.987,32.762C122.926,32.762,124.492,34.328,124.492,36.268L124.492,120.989C124.492,122.922,122.926,124.494,120.987,124.494ZM124.492,19.657L32.76,19.657C25.527,19.657,19.656,25.528,19.656,32.762L19.656,124.494C19.656,131.728,25.527,137.599,32.76,137.599L124.492,137.599C131.732,137.599,137.597,131.728,137.597,124.494L137.597,32.762C137.597,25.528,131.732,19.657,124.492,19.657ZM124.492,19.657"/>
</g>
  <g id="Thin-L" transform="matrix(1.0,0.0,0.0,1.0,779.082534939987,1442.2998094013572)">  <path stroke-dasharray="none" clip-rule="evenodd" stroke="none" fill="#000000" stroke-miterlimit="4" stroke-linecap="butt" fill-rule="evenodd" fill-opacity="1" stroke-width="1px" stroke-opacity="1" stroke-linejoin="miter" d="M78.867,43.25L75.454,43.25C74.746,43.25,74.156,43.479,73.698,43.918C73.245,44.364,73.016,44.934,73.016,45.628L73.016,92.49L51.839,80.545C50.823,80.545,50.077,81.024,49.624,81.961C49.218,82.898,49.349,83.776,50.004,84.562L77.262,113.261C77.773,113.752,78.389,114.001,79.097,114.001C79.811,114.001,80.42,113.752,80.925,113.261L108.189,84.562C108.851,83.776,108.975,82.898,108.575,81.961C108.117,81.024,107.37,80.545,106.361,80.545L85.177,92.49L85.177,45.628C85.177,44.934,84.948,44.364,84.489,43.918C84.037,43.479,83.447,43.25,82.74,43.25L79.326,43.25L78.867,43.25ZM78.867,43.25"/>
  <path fill-rule="evenodd" stroke-miterlimit="4" stroke-linecap="butt" fill="#000000" stroke="none" stroke-linejoin="miter" fill-opacity="1" stroke-width="1px" stroke-opacity="1" clip-rule="evenodd" stroke-dasharray="none" d="M120.987,124.494L36.266,124.494C34.326,124.494,32.76,122.922,32.76,120.989L32.76,36.268C32.76,34.328,34.326,32.762,36.266,32.762L120.987,32.762C122.926,32.762,124.492,34.328,124.492,36.268L124.492,120.989C124.492,122.922,122.926,124.494,120.987,124.494ZM124.492,19.657L32.76,19.657C25.527,19.657,19.656,25.528,19.656,32.762L19.656,124.494C19.656,131.728,25.527,137.599,32.76,137.599L124.492,137.599C131.732,137.599,137.597,131.728,137.597,124.494L137.597,32.762C137.597,25.528,131.732,19.657,124.492,19.657ZM124.492,19.657"/>
</g>
  <g id="Ultralight-L" transform="matrix(1.0,0.0,0.0,1.0,482.372534939987,1442.2998094013572)">  <path fill-rule="evenodd" stroke-dasharray="none" stroke-linejoin="miter" stroke="none" fill-opacity="1" stroke-opacity="1" stroke-width="1px" stroke-miterlimit="4" clip-rule="evenodd" stroke-linecap="butt" fill="#000000" d="M78.867,43.25L75.454,43.25C74.746,43.25,74.156,43.479,73.698,43.918C73.245,44.364,73.016,44.934,73.016,45.628L73.016,92.49L51.839,80.545C50.823,80.545,50.077,81.024,49.624,81.961C49.218,82.898,49.349,83.776,50.004,84.562L77.262,113.261C77.773,113.752,78.389,114.001,79.097,114.001C79.811,114.001,80.42,113.752,80.925,113.261L108.189,84.562C108.851,83.776,108.975,82.898,108.575,81.961C108.117,81.024,107.37,80.545,106.361,80.545L85.177,92.49L85.177,45.628C85.177,44.934,84.948,44.364,84.489,43.918C84.037,43.479,83.447,43.25,82.74,43.25L79.326,43.25L78.867,43.25ZM78.867,43.25"/>
  <path fill="#000000" stroke-dasharray="none" fill-opacity="1" clip-rule="evenodd" stroke-linejoin="miter" stroke="none" fill-rule="evenodd" stroke-width="1px" stroke-miterlimit="4" stroke-opacity="1" stroke-linecap="butt" d="M120.987,124.494L36.266,124.494C34.326,124.494,32.76,122.922,32.76,120.989L32.76,36.268C32.76,34.328,34.326,32.762,36.266,32.762L120.987,32.762C122.926,32.762,124.492,34.328,124.492,36.268L124.492,120.989C124.492,122.922,122.926,124.494,120.987,124.494ZM124.492,19.657L32.76,19.657C25.527,19.657,19.656,25.528,19.656,32.762L19.656,124.494C19.656,131.728,25.527,137.599,32.76,137.599L124.492,137.599C131.732,137.599,137.597,131.728,137.597,124.494L137.597,32.762C137.597,25.528,131.732,19.657,124.492,19.657ZM124.492,19.657"/>
</g>
  <g id="Black-M" transform="matrix(1.0,0.0,0.0,1.0,2873.728476697664,1029.940399275519)">  <path stroke-miterlimit="4" fill="#000000" stroke-linecap="butt" clip-rule="evenodd" stroke-opacity="1" fill-rule="evenodd" stroke-dasharray="none" stroke="none" stroke-width="1px" stroke-linejoin="miter" fill-opacity="1" d="M61.137,33.527L58.491,33.527C57.943,33.527,57.485,33.705,57.13,34.045C56.779,34.39,56.602,34.832,56.602,35.371L56.602,71.698L40.185,62.438C39.398,62.438,38.819,62.809,38.469,63.535C38.154,64.262,38.255,64.942,38.763,65.552L59.893,87.799C60.289,88.18,60.767,88.373,61.315,88.373C61.869,88.373,62.341,88.18,62.732,87.799L83.867,65.552C84.38,64.942,84.477,64.262,84.167,63.535C83.811,62.809,83.232,62.438,82.45,62.438L66.029,71.698L66.029,35.371C66.029,34.832,65.851,34.39,65.495,34.045C65.145,33.705,64.688,33.527,64.139,33.527L61.493,33.527L61.137,33.527ZM61.137,33.527"/>
  <path fill="#000000" stroke-linecap="butt" stroke-linejoin="miter" stroke="none" fill-rule="evenodd" stroke-width="1px" clip-rule="evenodd" fill-opacity="1" stroke-opacity="1" stroke-dasharray="none" stroke-miterlimit="4" d="M93.788,96.507L28.113,96.507C26.61,96.507,25.396,95.288,25.396,93.79L25.396,28.114C25.396,26.611,26.61,25.397,28.113,25.397L93.788,25.397C95.292,25.397,96.506,26.611,96.506,28.114L96.506,93.79C96.506,95.288,95.292,96.507,93.788,96.507ZM96.506,15.238L25.396,15.238C19.788,15.238,15.237,19.789,15.237,25.397L15.237,96.507C15.237,102.115,19.788,106.666,25.396,106.666L96.506,106.666C102.118,106.666,106.664,102.115,106.664,96.507L106.664,25.397C106.664,19.789,102.118,15.238,96.506,15.238ZM96.506,15.238"/>
</g>
  <g id="Heavy-M" transform="matrix(1.0,0.0,0.0,1.0,2577.018476697664,1029.940399275519)">  <path fill="#000000" stroke-linecap="butt" fill-opacity="1" stroke-opacity="1" stroke="none" stroke-miterlimit="4" stroke-width="1px" fill-rule="evenodd" clip-rule="evenodd" stroke-linejoin="miter" stroke-dasharray="none" d="M61.137,33.527L58.491,33.527C57.943,33.527,57.485,33.705,57.13,34.045C56.779,34.39,56.602,34.832,56.602,35.371L56.602,71.698L40.185,62.438C39.398,62.438,38.819,62.809,38.469,63.535C38.154,64.262,38.255,64.942,38.763,65.552L59.893,87.799C60.289,88.18,60.767,88.373,61.315,88.373C61.869,88.373,62.341,88.18,62.732,87.799L83.867,65.552C84.38,64.942,84.477,64.262,84.167,63.535C83.811,62.809,83.232,62.438,82.45,62.438L66.029,71.698L66.029,35.371C66.029,34.832,65.851,34.39,65.495,34.045C65.145,33.705,64.688,33.527,64.139,33.527L61.493,33.527L61.137,33.527ZM61.137,33.527"/>
  <path fill-rule="evenodd" stroke-opacity="1" stroke-dasharray="none" stroke-linejoin="miter" stroke-width="1px" clip-rule="evenodd" stroke="none" stroke-linecap="butt" fill="#000000" stroke-miterlimit="4" fill-opacity="1" d="M93.788,96.507L28.113,96.507C26.61,96.507,25.396,95.288,25.396,93.79L25.396,28.114C25.396,26.611,26.61,25.397,28.113,25.397L93.788,25.397C95.292,25.397,96.506,26.611,96.506,28.114L96.506,93.79C96.506,95.288,95.292,96.507,93.788,96.507ZM96.506,15.238L25.396,15.238C19.788,15.238,15.237,19.789,15.237,25.397L15.237,96.507C15.237,102.115,19.788,106.666,25.396,106.666L96.506,106.666C102.118,106.666,106.664,102.115,106.664,96.507L106.664,25.397C106.664,19.789,102.118,15.238,96.506,15.238ZM96.506,15.238"/>
</g>
  <g id="Bold-M" transform="matrix(1.0,0.0,0.0,1.0,2280.308476697664,1029.940399275519)">  <path stroke-miterlimit="4" stroke-dasharray="none" stroke-linejoin="miter" stroke-opacity="1" clip-rule="evenodd" stroke-linecap="butt" fill-opacity="1" stroke-width="1px" fill-rule="evenodd" stroke="none" fill="#000000" d="M61.137,33.527L58.491,33.527C57.943,33.527,57.485,33.705,57.13,34.045C56.779,34.39,56.602,34.832,56.602,35.371L56.602,71.698L40.185,62.438C39.398,62.438,38.819,62.809,38.469,63.535C38.154,64.262,38.255,64.942,38.763,65.552L59.893,87.799C60.289,88.18,60.767,88.373,61.315,88.373C61.869,88.373,62.341,88.18,62.732,87.799L83.867,65.552C84.38,64.942,84.477,64.262,84.167,63.535C83.811,62.809,83.232,62.438,82.45,62.438L66.029,71.698L66.029,35.371C66.029,34.832,65.851,34.39,65.495,34.045C65.145,33.705,64.688,33.527,64.139,33.527L61.493,33.527L61.137,33.527ZM61.137,33.527"/>
  <path fill-opacity="1" stroke-opacity="1" stroke-linecap="butt" stroke-miterlimit="4" stroke-dasharray="none" fill-rule="evenodd" stroke-width="1px" stroke="none" stroke-linejoin="miter" fill="#000000" clip-rule="evenodd" d="M93.788,96.507L28.113,96.507C26.61,96.507,25.396,95.288,25.396,93.79L25.396,28.114C25.396,26.611,26.61,25.397,28.113,25.397L93.788,25.397C95.292,25.397,96.506,26.611,96.506,28.114L96.506,93.79C96.506,95.288,95.292,96.507,93.788,96.507ZM96.506,15.238L25.396,15.238C19.788,15.238,15.237,19.789,15.237,25.397L15.237,96.507C15.237,102.115,19.788,106.666,25.396,106.666L96.506,106.666C102.118,106.666,106.664,102.115,106.664,96.507L106.664,25.397C106.664,19.789,102.118,15.238,96.506,15.238ZM96.506,15.238"/>
</g>
  <g id="Semibold-M" transform="matrix(1.0,0.0,0.0,1.0,1983.5984766976644,1029.940399275519)">  <path stroke-dasharray="none" stroke="none" fill="#000000" stroke-width="1px" stroke-linejoin="miter" fill-rule="evenodd" stroke-linecap="butt" fill-opacity="1" clip-rule="evenodd" stroke-miterlimit="4" stroke-opacity="1" d="M61.137,33.527L58.491,33.527C57.943,33.527,57.485,33.705,57.13,34.045C56.779,34.39,56.602,34.832,56.602,35.371L56.602,71.698L40.185,62.438C39.398,62.438,38.819,62.809,38.469,63.535C38.154,64.262,38.255,64.942,38.763,65.552L59.893,87.799C60.289,88.18,60.767,88.373,61.315,88.373C61.869,88.373,62.341,88.18,62.732,87.799L83.867,65.552C84.38,64.942,84.477,64.262,84.167,63.535C83.811,62.809,83.232,62.438,82.45,62.438L66.029,71.698L66.029,35.371C66.029,34.832,65.851,34.39,65.495,34.045C65.145,33.705,64.688,33.527,64.139,33.527L61.493,33.527L61.137,33.527ZM61.137,33.527"/>
  <path stroke-opacity="1" clip-rule="evenodd" stroke-width="1px" fill-rule="evenodd" stroke="none" stroke-linejoin="miter" fill="#000000" stroke-dasharray="none" stroke-linecap="butt" fill-opacity="1" stroke-miterlimit="4" d="M93.788,96.507L28.113,96.507C26.61,96.507,25.396,95.288,25.396,93.79L25.396,28.114C25.396,26.611,26.61,25.397,28.113,25.397L93.788,25.397C95.292,25.397,96.506,26.611,96.506,28.114L96.506,93.79C96.506,95.288,95.292,96.507,93.788,96.507ZM96.506,15.238L25.396,15.238C19.788,15.238,15.237,19.789,15.237,25.397L15.237,96.507C15.237,102.115,19.788,106.666,25.396,106.666L96.506,106.666C102.118,106.666,106.664,102.115,106.664,96.507L106.664,25.397C106.664,19.789,102.118,15.238,96.506,15.238ZM96.506,15.238"/>
</g>
  <g id="Medium-M" transform="matrix(1.0,0.0,0.0,1.0,1686.8884766976644,1029.940399275519)">  <path stroke-opacity="1" stroke-width="1px" clip-rule="evenodd" fill-opacity="1" stroke-miterlimit="4" stroke-dasharray="none" stroke-linejoin="miter" fill="#000000" fill-rule="evenodd" stroke-linecap="butt" stroke="none" d="M61.137,33.527L58.491,33.527C57.943,33.527,57.485,33.705,57.13,34.045C56.779,34.39,56.602,34.832,56.602,35.371L56.602,71.698L40.185,62.438C39.398,62.438,38.819,62.809,38.469,63.535C38.154,64.262,38.255,64.942,38.763,65.552L59.893,87.799C60.289,88.18,60.767,88.373,61.315,88.373C61.869,88.373,62.341,88.18,62.732,87.799L83.867,65.552C84.38,64.942,84.477,64.262,84.167,63.535C83.811,62.809,83.232,62.438,82.45,62.438L66.029,71.698L66.029,35.371C66.029,34.832,65.851,34.39,65.495,34.045C65.145,33.705,64.688,33.527,64.139,33.527L61.493,33.527L61.137,33.527ZM61.137,33.527"/>
  <path stroke-linecap="butt" stroke-linejoin="miter" fill-rule="evenodd" stroke-dasharray="none" stroke-width="1px" clip-rule="evenodd" fill="#000000" fill-opacity="1" stroke="none" stroke-opacity="1" stroke-miterlimit="4" d="M93.788,96.507L28.113,96.507C26.61,96.507,25.396,95.288,25.396,93.79L25.396,28.114C25.396,26.611,26.61,25.397,28.113,25.397L93.788,25.397C95.292,25.397,96.506,26.611,96.506,28.114L96.506,93.79C96.506,95.288,95.292,96.507,93.788,96.507ZM96.506,15.238L25.396,15.238C19.788,15.238,15.237,19.789,15.237,25.397L15.237,96.507C15.237,102.115,19.788,106.666,25.396,106.666L96.506,106.666C102.118,106.666,106.664,102.115,106.664,96.507L106.664,25.397C106.664,19.789,102.118,15.238,96.506,15.238ZM96.506,15.238"/>
</g>
  <g id="Regular-M" transform="matrix(1.0,0.0,0.0,1.0,1390.1784766976643,1029.940399275519)">  <path stroke="none" stroke-opacity="1" stroke-linejoin="miter" stroke-miterlimit="4" stroke-linecap="butt" fill-rule="evenodd" fill="#000000" fill-opacity="1" clip-rule="evenodd" stroke-width="1px" stroke-dasharray="none" d="M61.137,33.527L58.491,33.527C57.943,33.527,57.485,33.705,57.13,34.045C56.779,34.39,56.602,34.832,56.602,35.371L56.602,71.698L40.185,62.438C39.398,62.438,38.819,62.809,38.469,63.535C38.154,64.262,38.255,64.942,38.763,65.552L59.893,87.799C60.289,88.18,60.767,88.373,61.315,88.373C61.869,88.373,62.341,88.18,62.732,87.799L83.867,65.552C84.38,64.942,84.477,64.262,84.167,63.535C83.811,62.809,83.232,62.438,82.45,62.438L66.029,71.698L66.029,35.371C66.029,34.832,65.851,34.39,65.495,34.045C65.145,33.705,64.688,33.527,64.139,33.527L61.493,33.527L61.137,33.527ZM61.137,33.527"/>
  <path stroke-linecap="butt" stroke-dasharray="none" stroke-miterlimit="4" stroke-width="1px" fill="#000000" clip-rule="evenodd" stroke="none" fill-rule="evenodd" stroke-opacity="1" fill-opacity="1" stroke-linejoin="miter" d="M93.788,96.507L28.113,96.507C26.61,96.507,25.396,95.288,25.396,93.79L25.396,28.114C25.396,26.611,26.61,25.397,28.113,25.397L93.788,25.397C95.292,25.397,96.506,26.611,96.506,28.114L96.506,93.79C96.506,95.288,95.292,96.507,93.788,96.507ZM96.506,15.238L25.396,15.238C19.788,15.238,15.237,19.789,15.237,25.397L15.237,96.507C15.237,102.115,19.788,106.666,25.396,106.666L96.506,106.666C102.118,106.666,106.664,102.115,106.664,96.507L106.664,25.397C106.664,19.789,102.118,15.238,96.506,15.238ZM96.506,15.238"/>
</g>
  <g id="Light-M" transform="matrix(1.0,0.0,0.0,1.0,1093.4684766976645,1029.940399275519)">  <path clip-rule="evenodd" stroke-width="1px" fill="#000000" fill-opacity="1" stroke-opacity="1" fill-rule="evenodd" stroke-linejoin="miter" stroke-linecap="butt" stroke-dasharray="none" stroke-miterlimit="4" stroke="none" d="M61.137,33.527L58.491,33.527C57.943,33.527,57.485,33.705,57.13,34.045C56.779,34.39,56.602,34.832,56.602,35.371L56.602,71.698L40.185,62.438C39.398,62.438,38.819,62.809,38.469,63.535C38.154,64.262,38.255,64.942,38.763,65.552L59.893,87.799C60.289,88.18,60.767,88.373,61.315,88.373C61.869,88.373,62.341,88.18,62.732,87.799L83.867,65.552C84.38,64.942,84.477,64.262,84.167,63.535C83.811,62.809,83.232,62.438,82.45,62.438L66.029,71.698L66.029,35.371C66.029,34.832,65.851,34.39,65.495,34.045C65.145,33.705,64.688,33.527,64.139,33.527L61.493,33.527L61.137,33.527ZM61.137,33.527"/>
  <path stroke-linejoin="miter" stroke-width="1px" fill-opacity="1" stroke-opacity="1" stroke="none" fill="#000000" fill-rule="evenodd" clip-rule="evenodd" stroke-miterlimit="4" stroke-dasharray="none" stroke-linecap="butt" d="M93.788,96.507L28.113,96.507C26.61,96.507,25.396,95.288,25.396,93.79L25.396,28.114C25.396,26.611,26.61,25.397,28.113,25.397L93.788,25.397C95.292,25.397,96.506,26.611,96.506,28.114L96.506,93.79C96.506,95.288,95.292,96.507,93.788,96.507ZM96.506,15.238L25.396,15.238C19.788,15.238,15.237,19.789,15.237,25.397L15.237,96.507C15.237,102.115,19.788,106.666,25.396,106.666L96.506,106.666C102.118,106.666,106.664,102.115,106.664,96.507L106.664,25.397C106.664,19.789,102.118,15.238,96.506,15.238ZM96.506,15.238"/>
</g>
  <g id="Thin-M" transform="matrix(1.0,0.0,0.0,1.0,796.7584766976644,1029.940399275519)">  <path stroke-dasharray="none" clip-rule="evenodd" stroke="none" fill="#000000" stroke-miterlimit="4" stroke-linecap="butt" fill-rule="evenodd" fill-opacity="1" stroke-width="1px" stroke-opacity="1" stroke-linejoin="miter" d="M61.137,33.527L58.491,33.527C57.943,33.527,57.485,33.705,57.13,34.045C56.779,34.39,56.602,34.832,56.602,35.371L56.602,71.698L40.185,62.438C39.398,62.438,38.819,62.809,38.469,63.535C38.154,64.262,38.255,64.942,38.763,65.552L59.893,87.799C60.289,88.18,60.767,88.373,61.315,88.373C61.869,88.373,62.341,88.18,62.732,87.799L83.867,65.552C84.38,64.942,84.477,64.262,84.167,63.535C83.811,62.809,83.232,62.438,82.45,62.438L66.029,71.698L66.029,35.371C66.029,34.832,65.851,34.39,65.495,34.045C65.145,33.705,64.688,33.527,64.139,33.527L61.493,33.527L61.137,33.527ZM61.137,33.527"/>
  <path fill-rule="evenodd" stroke-miterlimit="4" stroke-linecap="butt" fill="#000000" stroke="none" stroke-linejoin="miter" fill-opacity="1" stroke-width="1px" stroke-opacity="1" clip-rule="evenodd" stroke-dasharray="none" d="M93.788,96.507L28.113,96.507C26.61,96.507,25.396,95.288,25.396,93.79L25.396,28.114C25.396,26.611,26.61,25.397,28.113,25.397L93.788,25.397C95.292,25.397,96.506,26.611,96.506,28.114L96.506,93.79C96.506,95.288,95.292,96.507,93.788,96.507ZM96.506,15.238L25.396,15.238C19.788,15.238,15.237,19.789,15.237,25.397L15.237,96.507C15.237,102.115,19.788,106.666,25.396,106.666L96.506,106.666C102.118,106.666,106.664,102.115,106.664,96.507L106.664,25.397C106.664,19.789,102.118,15.238,96.506,15.238ZM96.506,15.238"/>
</g>
  <g id="Ultralight-M" transform="matrix(1.0,0.0,0.0,1.0,500.04847669766434,1029.940399275519)">  <path fill-rule="evenodd" stroke-dasharray="none" stroke-linejoin="miter" stroke="none" fill-opacity="1" stroke-opacity="1" stroke-width="1px" stroke-miterlimit="4" clip-rule="evenodd" stroke-linecap="butt" fill="#000000" d="M61.137,33.527L58.491,33.527C57.943,33.527,57.485,33.705,57.13,34.045C56.779,34.39,56.602,34.832,56.602,35.371L56.602,71.698L40.185,62.438C39.398,62.438,38.819,62.809,38.469,63.535C38.154,64.262,38.255,64.942,38.763,65.552L59.893,87.799C60.289,88.18,60.767,88.373,61.315,88.373C61.869,88.373,62.341,88.18,62.732,87.799L83.867,65.552C84.38,64.942,84.477,64.262,84.167,63.535C83.811,62.809,83.232,62.438,82.45,62.438L66.029,71.698L66.029,35.371C66.029,34.832,65.851,34.39,65.495,34.045C65.145,33.705,64.688,33.527,64.139,33.527L61.493,33.527L61.137,33.527ZM61.137,33.527"/>
  <path fill="#000000" stroke-dasharray="none" fill-opacity="1" clip-rule="evenodd" stroke-linejoin="miter" stroke="none" fill-rule="evenodd" stroke-width="1px" stroke-miterlimit="4" stroke-opacity="1" stroke-linecap="butt" d="M93.788,96.507L28.113,96.507C26.61,96.507,25.396,95.288,25.396,93.79L25.396,28.114C25.396,26.611,26.61,25.397,28.113,25.397L93.788,25.397C95.292,25.397,96.506,26.611,96.506,28.114L96.506,93.79C96.506,95.288,95.292,96.507,93.788,96.507ZM96.506,15.238L25.396,15.238C19.788,15.238,15.237,19.789,15.237,25.397L15.237,96.507C15.237,102.115,19.788,106.666,25.396,106.666L96.506,106.666C102.118,106.666,106.664,102.115,106.664,96.507L106.664,25.397C106.664,19.789,102.118,15.238,96.506,15.238ZM96.506,15.238"/>
</g>
  <g id="Black-S" transform="matrix(1.0,0.0,0.0,1.0,2886.954957254271,613.1404268710127)">  <path stroke-miterlimit="4" fill="#000000" stroke-linecap="butt" clip-rule="evenodd" stroke-opacity="1" fill-rule="evenodd" stroke-dasharray="none" stroke="none" stroke-width="1px" stroke-linejoin="miter" fill-opacity="1" d="M47.871,26.252L45.799,26.252C45.369,26.252,45.011,26.391,44.733,26.657C44.458,26.928,44.319,27.274,44.319,27.695L44.319,56.139L31.465,48.889C30.849,48.889,30.395,49.179,30.121,49.748C29.874,50.317,29.954,50.85,30.352,51.327L46.896,68.747C47.206,69.045,47.58,69.196,48.01,69.196C48.443,69.196,48.813,69.045,49.119,68.747L65.668,51.327C66.07,50.85,66.145,50.317,65.903,49.748C65.624,49.179,65.171,48.889,64.558,48.889L51.701,56.139L51.701,27.695C51.701,27.274,51.561,26.928,51.283,26.657C51.009,26.391,50.651,26.252,50.221,26.252L48.149,26.252L47.871,26.252ZM47.871,26.252"/>
  <path fill="#000000" stroke-linecap="butt" stroke-linejoin="miter" stroke="none" fill-rule="evenodd" stroke-width="1px" clip-rule="evenodd" fill-opacity="1" stroke-opacity="1" stroke-dasharray="none" stroke-miterlimit="4" d="M73.436,75.565L22.012,75.565C20.835,75.565,19.885,74.611,19.885,73.437L19.885,22.014C19.885,20.836,20.835,19.886,22.012,19.886L73.436,19.886C74.613,19.886,75.564,20.836,75.564,22.014L75.564,73.437C75.564,74.611,74.613,75.565,73.436,75.565ZM75.564,11.932L19.885,11.932C15.494,11.932,11.931,15.495,11.931,19.886L11.931,75.565C11.931,79.956,15.494,83.519,19.885,83.519L75.564,83.519C79.959,83.519,83.518,79.956,83.518,75.565L83.518,19.886C83.518,15.495,79.959,11.932,75.564,11.932ZM75.564,11.932"/>
</g>
  <g id="Heavy-S" transform="matrix(1.0,0.0,0.0,1.0,2590.244957254271,613.1404268710127)">  <path fill="#000000" stroke-linecap="butt" fill-opacity="1" stroke-opacity="1" stroke="none" stroke-miterlimit="4" stroke-width="1px" fill-rule="evenodd" clip-rule="evenodd" stroke-linejoin="miter" stroke-dasharray="none" d="M47.871,26.252L45.799,26.252C45.369,26.252,45.011,26.391,44.733,26.657C44.458,26.928,44.319,27.274,44.319,27.695L44.319,56.139L31.465,48.889C30.849,48.889,30.395,49.179,30.121,49.748C29.874,50.317,29.954,50.85,30.352,51.327L46.896,68.747C47.206,69.045,47.58,69.196,48.01,69.196C48.443,69.196,48.813,69.045,49.119,68.747L65.668,51.327C66.07,50.85,66.145,50.317,65.903,49.748C65.624,49.179,65.171,48.889,64.558,48.889L51.701,56.139L51.701,27.695C51.701,27.274,51.561,26.928,51.283,26.657C51.009,26.391,50.651,26.252,50.221,26.252L48.149,26.252L47.871,26.252ZM47.871,26.252"/>
  <path fill-rule="evenodd" stroke-opacity="1" stroke-dasharray="none" stroke-linejoin="miter" stroke-width="1px" clip-rule="evenodd" stroke="none" stroke-linecap="butt" fill="#000000" stroke-miterlimit="4" fill-opacity="1" d="M73.436,75.565L22.012,75.565C20.835,75.565,19.885,74.611,19.885,73.437L19.885,22.014C19.885,20.836,20.835,19.886,22.012,19.886L73.436,19.886C74.613,19.886,75.564,20.836,75.564,22.014L75.564,73.437C75.564,74.611,74.613,75.565,73.436,75.565ZM75.564,11.932L19.885,11.932C15.494,11.932,11.931,15.495,11.931,19.886L11.931,75.565C11.931,79.956,15.494,83.519,19.885,83.519L75.564,83.519C79.959,83.519,83.518,79.956,83.518,75.565L83.518,19.886C83.518,15.495,79.959,11.932,75.564,11.932ZM75.564,11.932"/>
</g>
  <g id="Bold-S" transform="matrix(1.0,0.0,0.0,1.0,2293.534957254271,613.1404268710127)">  <path stroke-miterlimit="4" stroke-dasharray="none" stroke-linejoin="miter" stroke-opacity="1" clip-rule="evenodd" stroke-linecap="butt" fill-opacity="1" stroke-width="1px" fill-rule="evenodd" stroke="none" fill="#000000" d="M47.871,26.252L45.799,26.252C45.369,26.252,45.011,26.391,44.733,26.657C44.458,26.928,44.319,27.274,44.319,27.695L44.319,56.139L31.465,48.889C30.849,48.889,30.395,49.179,30.121,49.748C29.874,50.317,29.954,50.85,30.352,51.327L46.896,68.747C47.206,69.045,47.58,69.196,48.01,69.196C48.443,69.196,48.813,69.045,49.119,68.747L65.668,51.327C66.07,50.85,66.145,50.317,65.903,49.748C65.624,49.179,65.171,48.889,64.558,48.889L51.701,56.139L51.701,27.695C51.701,27.274,51.561,26.928,51.283,26.657C51.009,26.391,50.651,26.252,50.221,26.252L48.149,26.252L47.871,26.252ZM47.871,26.252"/>
  <path fill-opacity="1" stroke-opacity="1" stroke-linecap="butt" stroke-miterlimit="4" stroke-dasharray="none" fill-rule="evenodd" stroke-width="1px" stroke="none" stroke-linejoin="miter" fill="#000000" clip-rule="evenodd" d="M73.436,75.565L22.012,75.565C20.835,75.565,19.885,74.611,19.885,73.437L19.885,22.014C19.885,20.836,20.835,19.886,22.012,19.886L73.436,19.886C74.613,19.886,75.564,20.836,75.564,22.014L75.564,73.437C75.564,74.611,74.613,75.565,73.436,75.565ZM75.564,11.932L19.885,11.932C15.494,11.932,11.931,15.495,11.931,19.886L11.931,75.565C11.931,79.956,15.494,83.519,19.885,83.519L75.564,83.519C79.959,83.519,83.518,79.956,83.518,75.565L83.518,19.886C83.518,15.495,79.959,11.932,75.564,11.932ZM75.564,11.932"/>
</g>
  <g id="Semibold-S" transform="matrix(1.0,0.0,0.0,1.0,1996.824957254271,613.1404268710127)">  <path stroke-dasharray="none" stroke="none" fill="#000000" stroke-width="1px" stroke-linejoin="miter" fill-rule="evenodd" stroke-linecap="butt" fill-opacity="1" clip-rule="evenodd" stroke-miterlimit="4" stroke-opacity="1" d="M47.871,26.252L45.799,26.252C45.369,26.252,45.011,26.391,44.733,26.657C44.458,26.928,44.319,27.274,44.319,27.695L44.319,56.139L31.465,48.889C30.849,48.889,30.395,49.179,30.121,49.748C29.874,50.317,29.954,50.85,30.352,51.327L46.896,68.747C47.206,69.045,47.58,69.196,48.01,69.196C48.443,69.196,48.813,69.045,49.119,68.747L65.668,51.327C66.07,50.85,66.145,50.317,65.903,49.748C65.624,49.179,65.171,48.889,64.558,48.889L51.701,56.139L51.701,27.695C51.701,27.274,51.561,26.928,51.283,26.657C51.009,26.391,50.651,26.252,50.221,26.252L48.149,26.252L47.871,26.252ZM47.871,26.252"/>
  <path stroke-opacity="1" clip-rule="evenodd" stroke-width="1px" fill-rule="evenodd" stroke="none" stroke-linejoin="miter" fill="#000000" stroke-dasharray="none" stroke-linecap="butt" fill-opacity="1" stroke-miterlimit="4" d="M73.436,75.565L22.012,75.565C20.835,75.565,19.885,74.611,19.885,73.437L19.885,22.014C19.885,20.836,20.835,19.886,22.012,19.886L73.436,19.886C74.613,19.886,75.564,20.836,75.564,22.014L75.564,73.437C75.564,74.611,74.613,75.565,73.436,75.565ZM75.564,11.932L19.885,11.932C15.494,11.932,11.931,15.495,11.931,19.886L11.931,75.565C11.931,79.956,15.494,83.519,19.885,83.519L75.564,83.519C79.959,83.519,83.518,79.956,83.518,75.565L83.518,19.886C83.518,15.495,79.959,11.932,75.564,11.932ZM75.564,11.932"/>
</g>
  <g id="Medium-S" transform="matrix(1.0,0.0,0.0,1.0,1700.114957254271,613.1404268710127)">  <path stroke-opacity="1" stroke-width="1px" clip-rule="evenodd" fill-opacity="1" stroke-miterlimit="4" stroke-dasharray="none" stroke-linejoin="miter" fill="#000000" fill-rule="evenodd" stroke-linecap="butt" stroke="none" d="M47.871,26.252L45.799,26.252C45.369,26.252,45.011,26.391,44.733,26.657C44.458,26.928,44.319,27.274,44.319,27.695L44.319,56.139L31.465,48.889C30.849,48.889,30.395,49.179,30.121,49.748C29.874,50.317,29.954,50.85,30.352,51.327L46.896,68.747C47.206,69.045,47.58,69.196,48.01,69.196C48.443,69.196,48.813,69.045,49.119,68.747L65.668,51.327C66.07,50.85,66.145,50.317,65.903,49.748C65.624,49.179,65.171,48.889,64.558,48.889L51.701,56.139L51.701,27.695C51.701,27.274,51.561,26.928,51.283,26.657C51.009,26.391,50.651,26.252,50.221,26.252L48.149,26.252L47.871,26.252ZM47.871,26.252"/>
  <path stroke-linecap="butt" stroke-linejoin="miter" fill-rule="evenodd" stroke-dasharray="none" stroke-width="1px" clip-rule="evenodd" fill="#000000" fill-opacity="1" stroke="none" stroke-opacity="1" stroke-miterlimit="4" d="M73.436,75.565L22.012,75.565C20.835,75.565,19.885,74.611,19.885,73.437L19.885,22.014C19.885,20.836,20.835,19.886,22.012,19.886L73.436,19.886C74.613,19.886,75.564,20.836,75.564,22.014L75.564,73.437C75.564,74.611,74.613,75.565,73.436,75.565ZM75.564,11.932L19.885,11.932C15.494,11.932,11.931,15.495,11.931,19.886L11.931,75.565C11.931,79.956,15.494,83.519,19.885,83.519L75.564,83.519C79.959,83.519,83.518,79.956,83.518,75.565L83.518,19.886C83.518,15.495,79.959,11.932,75.564,11.932ZM75.564,11.932"/>
</g>
  <g id="Regular-S" transform="matrix(1.0,0.0,0.0,1.0,1403.404957254271,613.1404268710127)">  <path stroke="none" stroke-opacity="1" stroke-linejoin="miter" stroke-miterlimit="4" stroke-linecap="butt" fill-rule="evenodd" fill="#000000" fill-opacity="1" clip-rule="evenodd" stroke-width="1px" stroke-dasharray="none" d="M47.871,26.252L45.799,26.252C45.369,26.252,45.011,26.391,44.733,26.657C44.458,26.928,44.319,27.274,44.319,27.695L44.319,56.139L31.465,48.889C30.849,48.889,30.395,49.179,30.121,49.748C29.874,50.317,29.954,50.85,30.352,51.327L46.896,68.747C47.206,69.045,47.58,69.196,48.01,69.196C48.443,69.196,48.813,69.045,49.119,68.747L65.668,51.327C66.07,50.85,66.145,50.317,65.903,49.748C65.624,49.179,65.171,48.889,64.558,48.889L51.701,56.139L51.701,27.695C51.701,27.274,51.561,26.928,51.283,26.657C51.009,26.391,50.651,26.252,50.221,26.252L48.149,26.252L47.871,26.252ZM47.871,26.252"/>
  <path stroke-linecap="butt" stroke-dasharray="none" stroke-miterlimit="4" stroke-width="1px" fill="#000000" clip-rule="evenodd" stroke="none" fill-rule="evenodd" stroke-opacity="1" fill-opacity="1" stroke-linejoin="miter" d="M73.436,75.565L22.012,75.565C20.835,75.565,19.885,74.611,19.885,73.437L19.885,22.014C19.885,20.836,20.835,19.886,22.012,19.886L73.436,19.886C74.613,19.886,75.564,20.836,75.564,22.014L75.564,73.437C75.564,74.611,74.613,75.565,73.436,75.565ZM75.564,11.932L19.885,11.932C15.494,11.932,11.931,15.495,11.931,19.886L11.931,75.565C11.931,79.956,15.494,83.519,19.885,83.519L75.564,83.519C79.959,83.519,83.518,79.956,83.518,75.565L83.518,19.886C83.518,15.495,79.959,11.932,75.564,11.932ZM75.564,11.932"/>
</g>
  <g id="Light-S" transform="matrix(1.0,0.0,0.0,1.0,1106.6949572542712,613.1404268710127)">  <path clip-rule="evenodd" stroke-width="1px" fill="#000000" fill-opacity="1" stroke-opacity="1" fill-rule="evenodd" stroke-linejoin="miter" stroke-linecap="butt" stroke-dasharray="none" stroke-miterlimit="4" stroke="none" d="M47.871,26.252L45.799,26.252C45.369,26.252,45.011,26.391,44.733,26.657C44.458,26.928,44.319,27.274,44.319,27.695L44.319,56.139L31.465,48.889C30.849,48.889,30.395,49.179,30.121,49.748C29.874,50.317,29.954,50.85,30.352,51.327L46.896,68.747C47.206,69.045,47.58,69.196,48.01,69.196C48.443,69.196,48.813,69.045,49.119,68.747L65.668,51.327C66.07,50.85,66.145,50.317,65.903,49.748C65.624,49.179,65.171,48.889,64.558,48.889L51.701,56.139L51.701,27.695C51.701,27.274,51.561,26.928,51.283,26.657C51.009,26.391,50.651,26.252,50.221,26.252L48.149,26.252L47.871,26.252ZM47.871,26.252"/>
  <path stroke-linejoin="miter" stroke-width="1px" fill-opacity="1" stroke-opacity="1" stroke="none" fill="#000000" fill-rule="evenodd" clip-rule="evenodd" stroke-miterlimit="4" stroke-dasharray="none" stroke-linecap="butt" d="M73.436,75.565L22.012,75.565C20.835,75.565,19.885,74.611,19.885,73.437L19.885,22.014C19.885,20.836,20.835,19.886,22.012,19.886L73.436,19.886C74.613,19.886,75.564,20.836,75.564,22.014L75.564,73.437C75.564,74.611,74.613,75.565,73.436,75.565ZM75.564,11.932L19.885,11.932C15.494,11.932,11.931,15.495,11.931,19.886L11.931,75.565C11.931,79.956,15.494,83.519,19.885,83.519L75.564,83.519C79.959,83.519,83.518,79.956,83.518,75.565L83.518,19.886C83.518,15.495,79.959,11.932,75.564,11.932ZM75.564,11.932"/>
</g>
  <g id="Thin-S" transform="matrix(1.0,0.0,0.0,1.0,809.9849572542712,613.1404268710127)">  <path stroke-dasharray="none" clip-rule="evenodd" stroke="none" fill="#000000" stroke-miterlimit="4" stroke-linecap="butt" fill-rule="evenodd" fill-opacity="1" stroke-width="1px" stroke-opacity="1" stroke-linejoin="miter" d="M47.871,26.252L45.799,26.252C45.369,26.252,45.011,26.391,44.733,26.657C44.458,26.928,44.319,27.274,44.319,27.695L44.319,56.139L31.465,48.889C30.849,48.889,30.395,49.179,30.121,49.748C29.874,50.317,29.954,50.85,30.352,51.327L46.896,68.747C47.206,69.045,47.58,69.196,48.01,69.196C48.443,69.196,48.813,69.045,49.119,68.747L65.668,51.327C66.07,50.85,66.145,50.317,65.903,49.748C65.624,49.179,65.171,48.889,64.558,48.889L51.701,56.139L51.701,27.695C51.701,27.274,51.561,26.928,51.283,26.657C51.009,26.391,50.651,26.252,50.221,26.252L48.149,26.252L47.871,26.252ZM47.871,26.252"/>
  <path fill-rule="evenodd" stroke-miterlimit="4" stroke-linecap="butt" fill="#000000" stroke="none" stroke-linejoin="miter" fill-opacity="1" stroke-width="1px" stroke-opacity="1" clip-rule="evenodd" stroke-dasharray="none" d="M73.436,75.565L22.012,75.565C20.835,75.565,19.885,74.611,19.885,73.437L19.885,22.014C19.885,20.836,20.835,19.886,22.012,19.886L73.436,19.886C74.613,19.886,75.564,20.836,75.564,22.014L75.564,73.437C75.564,74.611,74.613,75.565,73.436,75.565ZM75.564,11.932L19.885,11.932C15.494,11.932,11.931,15.495,11.931,19.886L11.931,75.565C11.931,79.956,15.494,83.519,19.885,83.519L75.564,83.519C79.959,83.519,83.518,79.956,83.518,75.565L83.518,19.886C83.518,15.495,79.959,11.932,75.564,11.932ZM75.564,11.932"/>
</g>
  <g id="Ultralight-S" transform="matrix(1.0,0.0,0.0,1.0,513.2749572542712,613.1404268710127)">  <path fill-rule="evenodd" stroke-dasharray="none" stroke-linejoin="miter" stroke="none" fill-opacity="1" stroke-opacity="1" stroke-width="1px" stroke-miterlimit="4" clip-rule="evenodd" stroke-linecap="butt" fill="#000000" d="M47.871,26.252L45.799,26.252C45.369,26.252,45.011,26.391,44.733,26.657C44.458,26.928,44.319,27.274,44.319,27.695L44.319,56.139L31.465,48.889C30.849,48.889,30.395,49.179,30.121,49.748C29.874,50.317,29.954,50.85,30.352,51.327L46.896,68.747C47.206,69.045,47.58,69.196,48.01,69.196C48.443,69.196,48.813,69.045,49.119,68.747L65.668,51.327C66.07,50.85,66.145,50.317,65.903,49.748C65.624,49.179,65.171,48.889,64.558,48.889L51.701,56.139L51.701,27.695C51.701,27.274,51.561,26.928,51.283,26.657C51.009,26.391,50.651,26.252,50.221,26.252L48.149,26.252L47.871,26.252ZM47.871,26.252"/>
  <path fill="#000000" stroke-dasharray="none" fill-opacity="1" clip-rule="evenodd" stroke-linejoin="miter" stroke="none" fill-rule="evenodd" stroke-width="1px" stroke-miterlimit="4" stroke-opacity="1" stroke-linecap="butt" d="M73.436,75.565L22.012,75.565C20.835,75.565,19.885,74.611,19.885,73.437L19.885,22.014C19.885,20.836,20.835,19.886,22.012,19.886L73.436,19.886C74.613,19.886,75.564,20.836,75.564,22.014L75.564,73.437C75.564,74.611,74.613,75.565,73.436,75.565ZM75.564,11.932L19.885,11.932C15.494,11.932,11.931,15.495,11.931,19.886L11.931,75.565C11.931,79.956,15.494,83.519,19.885,83.519L75.564,83.519C79.959,83.519,83.518,79.956,83.518,75.565L83.518,19.886C83.518,15.495,79.959,11.932,75.564,11.932ZM75.564,11.932"/>
</g>
 </g>
</svg>
