<?xml version="1.0" encoding="UTF-8"?>
<!-- Generator: CustomSymbols v2.6.1.40 by @serious_bret https://bretlester.com/app_content/CustomSymbols/ -->
<!-- Guides: Left/Right 0.212/0.21 Cap/Base 0.163/0.183 -->
<!-- Settings: RefScale 1.0 Min/Max Stroke Scales 0.5/2.21 -->
<!DOCTYPE svg
PUBLIC "-//W3C//DTD SVG 1.1//EN"
       "http://www.w3.org/Graphics/SVG/1.1/DTD/svg11.dtd">
<svg version="1.1" xmlns="http://www.w3.org/2000/svg" xmlns:xlink="http://www.w3.org/1999/xlink" width="3300" height="2200">
<![CDATA[<svg width="24" height="24" viewBox="0 0 24 24" fill="none" xmlns="http://www.w3.org/2000/svg">
<path fill-rule="evenodd" clip-rule="evenodd" d="M8.99808 10V10.6667H10.9999V9.33331C10.9999 8.6 10.466 8 9.79997 8H6.19998C5.53398 8 5 8.6 5 9.33338V14.6667C5 15.4 5.53398 16 6.20003 15.9999H9.80002C10.466 15.9999 11 15.3999 11 14.6666V13.3333H8.99808V14H7.01402V10H8.99808ZM17.0046 10.6666H19V9.33331C19 8.6 18.466 8 17.8 8H14.2C13.534 8 13 8.6 13 9.33331V14.6666C13 15.3999 13.534 15.9999 14.2 15.9999H17.8C18.466 15.9999 19 15.3999 19 14.6666V13.3333H17.0046V13.9999H15.0007V9.99994H17.0046V10.6666Z" fill="black"/>
</svg>
]]>
 <g id="Notes">
  <rect height="2200" id="artboard" style="fill:white;opacity:1" width="3300" x="0" y="0"/>
  <line id="" style="fill:none;stroke:black;opacity:1;stroke-width:0.5;" x1="263" x2="3036" y1="292" y2="292"/>
  <text id="reftext1" style="stroke:none;fill:black;font-family:-apple-system,&quot;SF Pro Display&quot;,&quot;SF Pro Text&quot;,Helvetica,sans-serif;font-weight:bold;" transform="matrix(1 0 0 1 263 322)">Weight/Scale Variations</text>
  <text id="reftext2" style="stroke:none;fill:black;font-family:-apple-system,&quot;SF Pro Display&quot;,&quot;SF Pro Text&quot;,Helvetica,sans-serif;text-anchor:middle;" transform="matrix(1 0 0 1 559.711 322)">Ultralight</text>
  <text style="stroke:none;fill:black;font-family:-apple-system,&quot;SF Pro Display&quot;,&quot;SF Pro Text&quot;,Helvetica,sans-serif;text-anchor:middle;" transform="matrix(1 0 0 1 856.422 322)">Thin</text>
  <text style="stroke:none;fill:black;font-family:-apple-system,&quot;SF Pro Display&quot;,&quot;SF Pro Text&quot;,Helvetica,sans-serif;text-anchor:middle;" transform="matrix(1 0 0 1 1153.13 322)">Light</text>
  <text style="stroke:none;fill:black;font-family:-apple-system,&quot;SF Pro Display&quot;,&quot;SF Pro Text&quot;,Helvetica,sans-serif;text-anchor:middle;" transform="matrix(1 0 0 1 1449.84 322)">Regular</text>
  <text style="stroke:none;fill:black;font-family:-apple-system,&quot;SF Pro Display&quot;,&quot;SF Pro Text&quot;,Helvetica,sans-serif;text-anchor:middle;" transform="matrix(1 0 0 1 1746.56 322)">Medium</text>
  <text style="stroke:none;fill:black;font-family:-apple-system,&quot;SF Pro Display&quot;,&quot;SF Pro Text&quot;,Helvetica,sans-serif;text-anchor:middle;" transform="matrix(1 0 0 1 2043.27 322)">Semibold</text>
  <text style="stroke:none;fill:black;font-family:-apple-system,&quot;SF Pro Display&quot;,&quot;SF Pro Text&quot;,Helvetica,sans-serif;text-anchor:middle;" transform="matrix(1 0 0 1 2339.98 322)">Bold</text>
  <text style="stroke:none;fill:black;font-family:-apple-system,&quot;SF Pro Display&quot;,&quot;SF Pro Text&quot;,Helvetica,sans-serif;text-anchor:middle;" transform="matrix(1 0 0 1 2636.69 322)">Heavy</text>
  <text style="stroke:none;fill:black;font-family:-apple-system,&quot;SF Pro Display&quot;,&quot;SF Pro Text&quot;,Helvetica,sans-serif;text-anchor:middle;" transform="matrix(1 0 0 1 2933.4 322)">Black</text>
  <line id="" style="fill:none;stroke:black;opacity:1;stroke-width:0.5;" x1="263" x2="3036" y1="1903" y2="1903"/>
  <g id="" transform="matrix(1 0 0 1 263 1933)">
   <path d="M9.24805 0.830078C13.5547 0.830078 17.1387-2.74414 17.1387-7.05078C17.1387-11.3574 13.5449-14.9316 9.23828-14.9316C4.94141-14.9316 1.36719-11.3574 1.36719-7.05078C1.36719-2.74414 4.95117 0.830078 9.24805 0.830078ZM9.24805-0.654297C5.70312-0.654297 2.87109-3.49609 2.87109-7.05078C2.87109-10.6055 5.69336-13.4473 9.23828-13.4473C12.793-13.4473 15.6348-10.6055 15.6445-7.05078C15.6543-3.49609 12.8027-0.654297 9.24805-0.654297ZM6.39648-6.31836L8.50586-6.31836L8.50586-4.19922C8.50586-3.75977 8.79883-3.45703 9.22852-3.45703C9.67773-3.45703 9.9707-3.75977 9.9707-4.19922L9.9707-6.31836L12.0996-6.31836C12.5391-6.31836 12.8418-6.61133 12.8418-7.04102C12.8418-7.48047 12.5391-7.7832 12.0996-7.7832L9.9707-7.7832L9.9707-9.89258C9.9707-10.3418 9.67773-10.6445 9.22852-10.6445C8.79883-10.6445 8.50586-10.3418 8.50586-9.89258L8.50586-7.7832L6.39648-7.7832C5.94727-7.7832 5.64453-7.48047 5.64453-7.04102C5.64453-6.61133 5.94727-6.31836 6.39648-6.31836Z"/>
  </g>
  <g id="" transform="matrix(1 0 0 1 281.506 1933)">
   <path d="M11.709 2.91016C17.1582 2.91016 21.6699-1.61133 21.6699-7.05078C21.6699-12.5 17.1484-17.0117 11.6992-17.0117C6.25977-17.0117 1.74805-12.5 1.74805-7.05078C1.74805-1.61133 6.26953 2.91016 11.709 2.91016ZM11.709 1.25C7.09961 1.25 3.41797-2.44141 3.41797-7.05078C3.41797-11.6602 7.08984-15.3516 11.6992-15.3516C16.3086-15.3516 20-11.6602 20.0098-7.05078C20.0195-2.44141 16.3184 1.25 11.709 1.25ZM7.98828-6.23047L10.8789-6.23047L10.8789-3.32031C10.8789-2.83203 11.2109-2.5 11.6895-2.5C12.1777-2.5 12.5195-2.83203 12.5195-3.32031L12.5195-6.23047L15.4297-6.23047C15.918-6.23047 16.25-6.5625 16.25-7.04102C16.25-7.5293 15.918-7.87109 15.4297-7.87109L12.5195-7.87109L12.5195-10.7617C12.5195-11.2695 12.1777-11.6016 11.6895-11.6016C11.2109-11.6016 10.8789-11.2598 10.8789-10.7617L10.8789-7.87109L7.98828-7.87109C7.48047-7.87109 7.14844-7.5293 7.14844-7.04102C7.14844-6.5625 7.49023-6.23047 7.98828-6.23047Z"/>
  </g>
  <g id="" transform="matrix(1 0 0 1 304.924 1933)">
   <path d="M14.9707 5.66406C21.9336 5.66406 27.6953-0.0976562 27.6953-7.05078C27.6953-14.0137 21.9238-19.7754 14.9609-19.7754C8.00781-19.7754 2.25586-14.0137 2.25586-7.05078C2.25586-0.0976562 8.01758 5.66406 14.9707 5.66406ZM14.9707 3.84766C8.93555 3.84766 4.08203-1.01562 4.08203-7.05078C4.08203-13.0957 8.92578-17.9492 14.9609-17.9492C21.0059-17.9492 25.8594-13.0957 25.8691-7.05078C25.8789-1.01562 21.0156 3.84766 14.9707 3.84766ZM10.0586-6.14258L14.0625-6.14258L14.0625-2.12891C14.0625-1.5918 14.4336-1.2207 14.9512-1.2207C15.4883-1.2207 15.8594-1.5918 15.8594-2.12891L15.8594-6.14258L19.8828-6.14258C20.4102-6.14258 20.791-6.51367 20.791-7.03125C20.791-7.56836 20.4199-7.94922 19.8828-7.94922L15.8594-7.94922L15.8594-11.9531C15.8594-12.5098 15.4883-12.8809 14.9512-12.8809C14.4336-12.8809 14.0625-12.5 14.0625-11.9531L14.0625-7.94922L10.0586-7.94922C9.50195-7.94922 9.13086-7.56836 9.13086-7.03125C9.13086-6.51367 9.51172-6.14258 10.0586-6.14258Z"/>
  </g>
  <text style="stroke:none;fill:black;font-family:-apple-system,&quot;SF Pro Display&quot;,&quot;SF Pro Text&quot;,Helvetica,sans-serif;font-weight:bold;" transform="matrix(1 0 0 1 263 1953)">Design Variations</text>
  <text style="stroke:none;fill:black;font-family:-apple-system,&quot;SF Pro Display&quot;,&quot;SF Pro Text&quot;,Helvetica,sans-serif;" transform="matrix(1 0 0 1 263 1971)">Symbols are supported in up to nine weights and three scales.</text>
  <text style="stroke:none;fill:black;font-family:-apple-system,&quot;SF Pro Display&quot;,&quot;SF Pro Text&quot;,Helvetica,sans-serif;" transform="matrix(1 0 0 1 263 1989)">For optimal layout with text and other symbols, vertically align</text>
  <text style="stroke:none;fill:black;font-family:-apple-system,&quot;SF Pro Display&quot;,&quot;SF Pro Text&quot;,Helvetica,sans-serif;" transform="matrix(1 0 0 1 263 2007)">symbols with the adjacent text.</text>
  <line id="" style="fill:none;stroke:#00AEEF;stroke-width:0.5;opacity:1.0;" x1="776" x2="776" y1="1919" y2="1933"/>
  <g id="" transform="matrix(1 0 0 1 776 1933)">
   <path d="M3.31055 0.126953C3.82812 0.126953 4.08203-0.0683594 4.26758-0.605469L5.52734-4.0625L11.2891-4.0625L12.5488-0.605469C12.7344-0.0683594 12.9883 0.126953 13.4961 0.126953C14.0137 0.126953 14.3457-0.185547 14.3457-0.673828C14.3457-0.839844 14.3164-0.986328 14.2383-1.20117L9.6582-13.3887C9.43359-13.9941 9.0332-14.2871 8.4082-14.2871C7.80273-14.2871 7.39258-13.9941 7.17773-13.3984L2.59766-1.19141C2.51953-0.976562 2.49023-0.830078 2.49023-0.664062C2.49023-0.175781 2.80273 0.126953 3.31055 0.126953ZM6.00586-5.53711L8.37891-12.1094L8.42773-12.1094L10.8008-5.53711Z"/>
  </g>
  <line id="" style="fill:none;stroke:#00AEEF;stroke-width:0.5;opacity:1.0;" x1="792.836" x2="792.836" y1="1919" y2="1933"/>
  <text style="stroke:none;fill:black;font-family:-apple-system,&quot;SF Pro Display&quot;,&quot;SF Pro Text&quot;,Helvetica,sans-serif;font-weight:bold;" transform="matrix(1 0 0 1 776 1953)">Margins</text>
  <text style="stroke:none;fill:black;font-family:-apple-system,&quot;SF Pro Display&quot;,&quot;SF Pro Text&quot;,Helvetica,sans-serif;" transform="matrix(1 0 0 1 776 1971)">Leading and trailing margins on the left and right side of each symbol</text>
  <text style="stroke:none;fill:black;font-family:-apple-system,&quot;SF Pro Display&quot;,&quot;SF Pro Text&quot;,Helvetica,sans-serif;" transform="matrix(1 0 0 1 776 1989)">can be adjusted by modifying the x-location of the margin guidelines.</text>
  <text style="stroke:none;fill:black;font-family:-apple-system,&quot;SF Pro Display&quot;,&quot;SF Pro Text&quot;,Helvetica,sans-serif;" transform="matrix(1 0 0 1 776 2007)">Modifications are automatically applied proportionally to all</text>
  <text style="stroke:none;fill:black;font-family:-apple-system,&quot;SF Pro Display&quot;,&quot;SF Pro Text&quot;,Helvetica,sans-serif;" transform="matrix(1 0 0 1 776 2025)">scales and weights.</text>
  <g id="" transform="matrix(1 0 0 1 1289 1933)">
   <path d="M2.8418 1.86523L4.54102 3.57422C5.40039 4.44336 6.38672 4.38477 7.31445 3.35938L17.4902-7.85156C17.7539-7.76367 18.0273-7.7832 18.3398-7.8418L19.4043-8.03711L20.0684-7.36328L20.0293-6.80664C19.9902-6.30859 20.1172-5.92773 20.6055-5.44922L21.3672-4.70703C21.8457-4.22852 22.4609-4.19922 22.9297-4.66797L25.8398-7.58789C26.3086-8.05664 26.2891-8.65234 25.8105-9.13086L25.0391-9.89258C24.5605-10.3711 24.1895-10.5273 23.7109-10.4883L23.1348-10.4395L22.4902-11.0742L22.7344-12.1973C22.8613-12.7637 22.7051-13.2031 22.1191-13.7891L19.9219-15.9766C16.582-19.2969 12.1484-19.2188 9.25781-16.3281C8.83789-15.918 8.80859-15.3418 9.04297-14.9512C9.27734-14.5898 9.73633-14.3555 10.3809-14.5215C11.8457-14.8633 13.3691-14.9219 14.7949-13.9844L14.209-12.5293C14.0137-12.0508 13.9844-11.6504 14.1113-11.2891L3.04688-0.898438C2.06055 0.0195312 1.98242 0.996094 2.8418 1.86523ZM10.752-15.957C13.1836-17.7344 16.4746-17.4316 18.7012-15.2051L21.1328-12.793C21.3672-12.5586 21.4062-12.373 21.3379-12.0312L21.0156-10.5469L22.5195-9.0625L23.5059-9.12109C23.7598-9.13086 23.8379-9.11133 24.0332-8.91602L24.6094-8.33984L22.168-5.89844L21.5918-6.47461C21.3965-6.66992 21.3672-6.74805 21.377-7.01172L21.4453-7.98828L19.9512-9.47266L18.4277-9.21875C18.1055-9.15039 17.959-9.17969 17.7148-9.41406L15.7129-11.416C15.459-11.6504 15.4297-11.8164 15.5859-12.1875L16.4648-14.2773C14.9023-15.7324 12.8711-16.3574 10.8398-15.7617C10.6836-15.7227 10.625-15.8496 10.752-15.957ZM5.27344 2.30469L4.10156 1.14258C3.63281 0.683594 3.74023 0.341797 4.14062-0.0195312L14.9512-10.1953L16.416-8.71094L6.42578 2.27539C6.07422 2.67578 5.74219 2.77344 5.27344 2.30469Z"/>
  </g>
  <text style="stroke:none;fill:black;font-family:-apple-system,&quot;SF Pro Display&quot;,&quot;SF Pro Text&quot;,Helvetica,sans-serif;font-weight:bold;" transform="matrix(1 0 0 1 1289 1953)">Exporting</text>
  <text style="stroke:none;fill:black;font-family:-apple-system,&quot;SF Pro Display&quot;,&quot;SF Pro Text&quot;,Helvetica,sans-serif;" transform="matrix(1 0 0 1 1289 1971)">Symbols should be outlined when exporting to ensure the</text>
  <text style="stroke:none;fill:black;font-family:-apple-system,&quot;SF Pro Display&quot;,&quot;SF Pro Text&quot;,Helvetica,sans-serif;" transform="matrix(1 0 0 1 1289 1989)">design is preserved when submitting to Xcode.</text>
  <text id="template-version" style="stroke:none;fill:black;font-family:-apple-system,&quot;SF Pro Display&quot;,&quot;SF Pro Text&quot;,Helvetica,sans-serif;text-anchor:end;" transform="matrix(1 0 0 1 3036 1933)">Template v.2.0</text>
  <text style="stroke:none;fill:black;font-family:-apple-system,&quot;SF Pro Display&quot;,&quot;SF Pro Text&quot;,Helvetica,sans-serif;text-anchor:end;" transform="matrix(1 0 0 1 3036 1951)">Requires Xcode 12 or greater</text>
  <text style="stroke:none;fill:black;font-family:-apple-system,&quot;SF Pro Display&quot;,&quot;SF Pro Text&quot;,Helvetica,sans-serif;" transform="matrix(1 0 0 1 263 726)">Small</text>
  <text style="stroke:none;fill:black;font-family:-apple-system,&quot;SF Pro Display&quot;,&quot;SF Pro Text&quot;,Helvetica,sans-serif;" transform="matrix(1 0 0 1 263 1156)">Medium</text>
  <text style="stroke:none;fill:black;font-family:-apple-system,&quot;SF Pro Display&quot;,&quot;SF Pro Text&quot;,Helvetica,sans-serif;" transform="matrix(1 0 0 1 263 1586)">Large</text>
 </g>
 <g id="Guides">
  <g id="H-reference" style="fill:#27AAE1;stroke:none;" transform="matrix(1 0 0 1 339 696)">
   <path d="M0.976562 0L3.66211 0L12.9883-24.4629L45.752-24.4629L55.127 0L57.7637 0L30.6152-70.459L28.125-70.459ZM29.3457-67.1387L29.4434-67.1387L44.873-26.709L13.8672-26.709Z"/>
  </g>
  <line id="Baseline-S" style="fill:none;stroke:#27AAE1;opacity:1;stroke-width:0.5;" x1="263" x2="3036" y1="696" y2="696"/>
  <line id="Capline-S" style="fill:none;stroke:#27AAE1;opacity:1;stroke-width:0.5;" x1="263" x2="3036" y1="625.541" y2="625.541"/>
  <g id="H-reference" style="fill:#27AAE1;stroke:none;" transform="matrix(1 0 0 1 339 1126)">
   <path d="M0.976562 0L3.66211 0L12.9883-24.4629L45.752-24.4629L55.127 0L57.7637 0L30.6152-70.459L28.125-70.459ZM29.3457-67.1387L29.4434-67.1387L44.873-26.709L13.8672-26.709Z"/>
  </g>
  <line id="Baseline-M" style="fill:none;stroke:#27AAE1;opacity:1;stroke-width:0.5;" x1="263" x2="3036" y1="1126" y2="1126"/>
  <line id="Capline-M" style="fill:none;stroke:#27AAE1;opacity:1;stroke-width:0.5;" x1="263" x2="3036" y1="1055.54" y2="1055.54"/>
  <g id="H-reference" style="fill:#27AAE1;stroke:none;" transform="matrix(1 0 0 1 339 1556)">
   <path d="M0.976562 0L3.66211 0L12.9883-24.4629L45.752-24.4629L55.127 0L57.7637 0L30.6152-70.459L28.125-70.459ZM29.3457-67.1387L29.4434-67.1387L44.873-26.709L13.8672-26.709Z"/>
  </g>
  <line id="Baseline-L" style="fill:none;stroke:#27AAE1;opacity:1;stroke-width:0.5;" x1="263" x2="3036" y1="1556" y2="1556"/>
  <line id="Capline-L" style="fill:none;stroke:#27AAE1;opacity:1;stroke-width:0.5;" x1="263" x2="3036" y1="1485.54" y2="1485.54"/>
  <line id="left-margin" x1="1420.1017603211008" x2="1420.1017603211008" y1="1030.79" y2="1150.12" style="fill:none;stroke:#00AEEF;stroke-width:0.5;opacity:1.0;"/>
  <line id="right-margin" x1="1482.373713565558" x2="1482.373713565558" y1="1030.79" y2="1150.12" style="fill:none;stroke:#00AEEF;stroke-width:0.5;opacity:1.0;"/>
 </g>
 <g id="Symbols">
  <g id="Black-L" transform="matrix(1.0,0.0,0.0,1.0,2865.1896715524654,1452.6694976526662)">  <path stroke-opacity="1" stroke="none" fill-opacity="1" stroke-linejoin="miter" stroke-miterlimit="4" stroke-width="1px" stroke-dasharray="none" clip-rule="evenodd" fill-rule="evenodd" fill="#000000" stroke-linecap="butt" d="M52.107,57.909L52.107,61.769L63.699,61.769L63.699,54.048C63.699,49.801,60.607,46.327,56.75,46.327L35.903,46.327C32.047,46.327,28.954,49.801,28.954,54.048L28.954,84.933C28.954,89.179,32.047,92.654,35.904,92.653L56.751,92.653C60.607,92.653,63.699,89.179,63.699,84.932L63.699,77.211L52.107,77.211L52.107,81.072L40.617,81.072L40.617,57.909L52.107,57.909ZM98.471,61.769L110.026,61.769L110.026,54.048C110.026,49.801,106.934,46.327,103.077,46.327L82.23,46.327C78.374,46.327,75.281,49.801,75.281,54.048L75.281,84.932C75.281,89.179,78.374,92.653,82.23,92.653L103.077,92.653C106.934,92.653,110.026,89.179,110.026,84.932L110.026,77.211L98.471,77.211L98.471,81.071L86.867,81.071L86.867,57.908L98.471,57.908L98.471,61.769ZM98.471,61.769"/>
</g>
  <g id="Heavy-L" transform="matrix(1.0,0.0,0.0,1.0,2568.4796715524653,1452.6694976526662)">  <path stroke="none" stroke-opacity="1" stroke-linejoin="miter" stroke-miterlimit="4" stroke-linecap="butt" fill-rule="evenodd" fill="#000000" fill-opacity="1" clip-rule="evenodd" stroke-width="1px" stroke-dasharray="none" d="M52.107,57.909L52.107,61.769L63.699,61.769L63.699,54.048C63.699,49.801,60.607,46.327,56.75,46.327L35.903,46.327C32.047,46.327,28.954,49.801,28.954,54.048L28.954,84.933C28.954,89.179,32.047,92.654,35.904,92.653L56.751,92.653C60.607,92.653,63.699,89.179,63.699,84.932L63.699,77.211L52.107,77.211L52.107,81.072L40.617,81.072L40.617,57.909L52.107,57.909ZM98.471,61.769L110.026,61.769L110.026,54.048C110.026,49.801,106.934,46.327,103.077,46.327L82.23,46.327C78.374,46.327,75.281,49.801,75.281,54.048L75.281,84.932C75.281,89.179,78.374,92.653,82.23,92.653L103.077,92.653C106.934,92.653,110.026,89.179,110.026,84.932L110.026,77.211L98.471,77.211L98.471,81.071L86.867,81.071L86.867,57.908L98.471,57.908L98.471,61.769ZM98.471,61.769"/>
</g>
  <g id="Bold-L" transform="matrix(1.0,0.0,0.0,1.0,2271.7696715524653,1452.6694976526662)">  <path stroke-opacity="1" fill="#000000" fill-rule="evenodd" stroke-width="1px" stroke-linejoin="miter" stroke-linecap="butt" fill-opacity="1" stroke-dasharray="none" stroke-miterlimit="4" stroke="none" clip-rule="evenodd" d="M52.107,57.909L52.107,61.769L63.699,61.769L63.699,54.048C63.699,49.801,60.607,46.327,56.75,46.327L35.903,46.327C32.047,46.327,28.954,49.801,28.954,54.048L28.954,84.933C28.954,89.179,32.047,92.654,35.904,92.653L56.751,92.653C60.607,92.653,63.699,89.179,63.699,84.932L63.699,77.211L52.107,77.211L52.107,81.072L40.617,81.072L40.617,57.909L52.107,57.909ZM98.471,61.769L110.026,61.769L110.026,54.048C110.026,49.801,106.934,46.327,103.077,46.327L82.23,46.327C78.374,46.327,75.281,49.801,75.281,54.048L75.281,84.932C75.281,89.179,78.374,92.653,82.23,92.653L103.077,92.653C106.934,92.653,110.026,89.179,110.026,84.932L110.026,77.211L98.471,77.211L98.471,81.071L86.867,81.071L86.867,57.908L98.471,57.908L98.471,61.769ZM98.471,61.769"/>
</g>
  <g id="Semibold-L" transform="matrix(1.0,0.0,0.0,1.0,1975.0596715524655,1452.6694976526662)">  <path stroke="none" stroke-linecap="butt" clip-rule="evenodd" stroke-miterlimit="4" fill="#000000" fill-opacity="1" stroke-linejoin="miter" fill-rule="evenodd" stroke-opacity="1" stroke-dasharray="none" stroke-width="1px" d="M52.107,57.909L52.107,61.769L63.699,61.769L63.699,54.048C63.699,49.801,60.607,46.327,56.75,46.327L35.903,46.327C32.047,46.327,28.954,49.801,28.954,54.048L28.954,84.933C28.954,89.179,32.047,92.654,35.904,92.653L56.751,92.653C60.607,92.653,63.699,89.179,63.699,84.932L63.699,77.211L52.107,77.211L52.107,81.072L40.617,81.072L40.617,57.909L52.107,57.909ZM98.471,61.769L110.026,61.769L110.026,54.048C110.026,49.801,106.934,46.327,103.077,46.327L82.23,46.327C78.374,46.327,75.281,49.801,75.281,54.048L75.281,84.932C75.281,89.179,78.374,92.653,82.23,92.653L103.077,92.653C106.934,92.653,110.026,89.179,110.026,84.932L110.026,77.211L98.471,77.211L98.471,81.071L86.867,81.071L86.867,57.908L98.471,57.908L98.471,61.769ZM98.471,61.769"/>
</g>
  <g id="Medium-L" transform="matrix(1.0,0.0,0.0,1.0,1678.3496715524655,1452.6694976526662)">  <path fill="#000000" stroke-opacity="1" stroke-dasharray="none" stroke="none" stroke-miterlimit="4" stroke-linecap="butt" fill-rule="evenodd" clip-rule="evenodd" stroke-linejoin="miter" fill-opacity="1" stroke-width="1px" d="M52.107,57.909L52.107,61.769L63.699,61.769L63.699,54.048C63.699,49.801,60.607,46.327,56.75,46.327L35.903,46.327C32.047,46.327,28.954,49.801,28.954,54.048L28.954,84.933C28.954,89.179,32.047,92.654,35.904,92.653L56.751,92.653C60.607,92.653,63.699,89.179,63.699,84.932L63.699,77.211L52.107,77.211L52.107,81.072L40.617,81.072L40.617,57.909L52.107,57.909ZM98.471,61.769L110.026,61.769L110.026,54.048C110.026,49.801,106.934,46.327,103.077,46.327L82.23,46.327C78.374,46.327,75.281,49.801,75.281,54.048L75.281,84.932C75.281,89.179,78.374,92.653,82.23,92.653L103.077,92.653C106.934,92.653,110.026,89.179,110.026,84.932L110.026,77.211L98.471,77.211L98.471,81.071L86.867,81.071L86.867,57.908L98.471,57.908L98.471,61.769ZM98.471,61.769"/>
</g>
  <g id="Regular-L" transform="matrix(1.0,0.0,0.0,1.0,1381.6396715524654,1452.6694976526662)">  <path fill="#000000" stroke-opacity="1" clip-rule="evenodd" fill-opacity="1" fill-rule="evenodd" stroke-dasharray="none" stroke-linecap="butt" stroke-linejoin="miter" stroke-width="1px" stroke-miterlimit="4" stroke="none" d="M52.107,57.909L52.107,61.769L63.699,61.769L63.699,54.048C63.699,49.801,60.607,46.327,56.75,46.327L35.903,46.327C32.047,46.327,28.954,49.801,28.954,54.048L28.954,84.933C28.954,89.179,32.047,92.654,35.904,92.653L56.751,92.653C60.607,92.653,63.699,89.179,63.699,84.932L63.699,77.211L52.107,77.211L52.107,81.072L40.617,81.072L40.617,57.909L52.107,57.909ZM98.471,61.769L110.026,61.769L110.026,54.048C110.026,49.801,106.934,46.327,103.077,46.327L82.23,46.327C78.374,46.327,75.281,49.801,75.281,54.048L75.281,84.932C75.281,89.179,78.374,92.653,82.23,92.653L103.077,92.653C106.934,92.653,110.026,89.179,110.026,84.932L110.026,77.211L98.471,77.211L98.471,81.071L86.867,81.071L86.867,57.908L98.471,57.908L98.471,61.769ZM98.471,61.769"/>
</g>
  <g id="Light-L" transform="matrix(1.0,0.0,0.0,1.0,1084.9296715524656,1452.6694976526662)">  <path fill="#000000" stroke-miterlimit="4" stroke-linejoin="miter" fill-rule="evenodd" stroke="none" stroke-opacity="1" clip-rule="evenodd" stroke-width="1px" stroke-dasharray="none" stroke-linecap="butt" fill-opacity="1" d="M52.107,57.909L52.107,61.769L63.699,61.769L63.699,54.048C63.699,49.801,60.607,46.327,56.75,46.327L35.903,46.327C32.047,46.327,28.954,49.801,28.954,54.048L28.954,84.933C28.954,89.179,32.047,92.654,35.904,92.653L56.751,92.653C60.607,92.653,63.699,89.179,63.699,84.932L63.699,77.211L52.107,77.211L52.107,81.072L40.617,81.072L40.617,57.909L52.107,57.909ZM98.471,61.769L110.026,61.769L110.026,54.048C110.026,49.801,106.934,46.327,103.077,46.327L82.23,46.327C78.374,46.327,75.281,49.801,75.281,54.048L75.281,84.932C75.281,89.179,78.374,92.653,82.23,92.653L103.077,92.653C106.934,92.653,110.026,89.179,110.026,84.932L110.026,77.211L98.471,77.211L98.471,81.071L86.867,81.071L86.867,57.908L98.471,57.908L98.471,61.769ZM98.471,61.769"/>
</g>
  <g id="Thin-L" transform="matrix(1.0,0.0,0.0,1.0,788.2196715524656,1452.6694976526662)">  <path stroke-miterlimit="4" fill-opacity="1" stroke="none" stroke-linecap="butt" fill="#000000" stroke-opacity="1" stroke-width="1px" fill-rule="evenodd" clip-rule="evenodd" stroke-dasharray="none" stroke-linejoin="miter" d="M52.107,57.909L52.107,61.769L63.699,61.769L63.699,54.048C63.699,49.801,60.607,46.327,56.75,46.327L35.903,46.327C32.047,46.327,28.954,49.801,28.954,54.048L28.954,84.933C28.954,89.179,32.047,92.654,35.904,92.653L56.751,92.653C60.607,92.653,63.699,89.179,63.699,84.932L63.699,77.211L52.107,77.211L52.107,81.072L40.617,81.072L40.617,57.909L52.107,57.909ZM98.471,61.769L110.026,61.769L110.026,54.048C110.026,49.801,106.934,46.327,103.077,46.327L82.23,46.327C78.374,46.327,75.281,49.801,75.281,54.048L75.281,84.932C75.281,89.179,78.374,92.653,82.23,92.653L103.077,92.653C106.934,92.653,110.026,89.179,110.026,84.932L110.026,77.211L98.471,77.211L98.471,81.071L86.867,81.071L86.867,57.908L98.471,57.908L98.471,61.769ZM98.471,61.769"/>
</g>
  <g id="Ultralight-L" transform="matrix(1.0,0.0,0.0,1.0,491.5096715524656,1452.6694976526662)">  <path stroke-linejoin="miter" fill-rule="evenodd" stroke-width="1px" fill-opacity="1" clip-rule="evenodd" stroke-dasharray="none" stroke-opacity="1" stroke="none" stroke-linecap="butt" stroke-miterlimit="4" fill="#000000" d="M52.107,57.909L52.107,61.769L63.699,61.769L63.699,54.048C63.699,49.801,60.607,46.327,56.75,46.327L35.903,46.327C32.047,46.327,28.954,49.801,28.954,54.048L28.954,84.933C28.954,89.179,32.047,92.654,35.904,92.653L56.751,92.653C60.607,92.653,63.699,89.179,63.699,84.932L63.699,77.211L52.107,77.211L52.107,81.072L40.617,81.072L40.617,57.909L52.107,57.909ZM98.471,61.769L110.026,61.769L110.026,54.048C110.026,49.801,106.934,46.327,103.077,46.327L82.23,46.327C78.374,46.327,75.281,49.801,75.281,54.048L75.281,84.932C75.281,89.179,78.374,92.653,82.23,92.653L103.077,92.653C106.934,92.653,110.026,89.179,110.026,84.932L110.026,77.211L98.471,77.211L98.471,81.071L86.867,81.071L86.867,57.908L98.471,57.908L98.471,61.769ZM98.471,61.769"/>
</g>
  <g id="Black-M" transform="matrix(1.0,0.0,0.0,1.0,2880.8115283352445,1037.9789172997898)">  <path stroke-opacity="1" stroke="none" fill-opacity="1" stroke-linejoin="miter" stroke-miterlimit="4" stroke-width="1px" stroke-dasharray="none" clip-rule="evenodd" fill-rule="evenodd" fill="#000000" stroke-linecap="butt" d="M40.393,44.89L40.393,47.883L49.379,47.883L49.379,41.898C49.379,38.606,46.982,35.912,43.992,35.912L27.832,35.912C24.842,35.912,22.445,38.606,22.445,41.898L22.445,65.839C22.445,69.131,24.842,71.825,27.832,71.824L43.993,71.824C46.982,71.824,49.379,69.131,49.379,65.839L49.379,59.854L40.393,59.854L40.393,62.847L31.486,62.847L31.486,44.89L40.393,44.89ZM76.334,47.883L85.292,47.883L85.292,41.898C85.292,38.606,82.895,35.912,79.905,35.912L63.744,35.912C60.755,35.912,58.358,38.606,58.358,41.898L58.358,65.839C58.358,69.131,60.755,71.824,63.744,71.824L79.905,71.824C82.895,71.824,85.292,69.131,85.292,65.839L85.292,59.854L76.334,59.854L76.334,62.846L67.339,62.846L67.339,44.89L76.334,44.89L76.334,47.883ZM76.334,47.883"/>
</g>
  <g id="Heavy-M" transform="matrix(1.0,0.0,0.0,1.0,2584.1015283352444,1037.9789172997898)">  <path stroke="none" stroke-opacity="1" stroke-linejoin="miter" stroke-miterlimit="4" stroke-linecap="butt" fill-rule="evenodd" fill="#000000" fill-opacity="1" clip-rule="evenodd" stroke-width="1px" stroke-dasharray="none" d="M40.393,44.89L40.393,47.883L49.379,47.883L49.379,41.898C49.379,38.606,46.982,35.912,43.992,35.912L27.832,35.912C24.842,35.912,22.445,38.606,22.445,41.898L22.445,65.839C22.445,69.131,24.842,71.825,27.832,71.824L43.993,71.824C46.982,71.824,49.379,69.131,49.379,65.839L49.379,59.854L40.393,59.854L40.393,62.847L31.486,62.847L31.486,44.89L40.393,44.89ZM76.334,47.883L85.292,47.883L85.292,41.898C85.292,38.606,82.895,35.912,79.905,35.912L63.744,35.912C60.755,35.912,58.358,38.606,58.358,41.898L58.358,65.839C58.358,69.131,60.755,71.824,63.744,71.824L79.905,71.824C82.895,71.824,85.292,69.131,85.292,65.839L85.292,59.854L76.334,59.854L76.334,62.846L67.339,62.846L67.339,44.89L76.334,44.89L76.334,47.883ZM76.334,47.883"/>
</g>
  <g id="Bold-M" transform="matrix(1.0,0.0,0.0,1.0,2287.3915283352444,1037.9789172997898)">  <path stroke-opacity="1" fill="#000000" fill-rule="evenodd" stroke-width="1px" stroke-linejoin="miter" stroke-linecap="butt" fill-opacity="1" stroke-dasharray="none" stroke-miterlimit="4" stroke="none" clip-rule="evenodd" d="M40.393,44.89L40.393,47.883L49.379,47.883L49.379,41.898C49.379,38.606,46.982,35.912,43.992,35.912L27.832,35.912C24.842,35.912,22.445,38.606,22.445,41.898L22.445,65.839C22.445,69.131,24.842,71.825,27.832,71.824L43.993,71.824C46.982,71.824,49.379,69.131,49.379,65.839L49.379,59.854L40.393,59.854L40.393,62.847L31.486,62.847L31.486,44.89L40.393,44.89ZM76.334,47.883L85.292,47.883L85.292,41.898C85.292,38.606,82.895,35.912,79.905,35.912L63.744,35.912C60.755,35.912,58.358,38.606,58.358,41.898L58.358,65.839C58.358,69.131,60.755,71.824,63.744,71.824L79.905,71.824C82.895,71.824,85.292,69.131,85.292,65.839L85.292,59.854L76.334,59.854L76.334,62.846L67.339,62.846L67.339,44.89L76.334,44.89L76.334,47.883ZM76.334,47.883"/>
</g>
  <g id="Semibold-M" transform="matrix(1.0,0.0,0.0,1.0,1990.6815283352446,1037.9789172997898)">  <path stroke="none" stroke-linecap="butt" clip-rule="evenodd" stroke-miterlimit="4" fill="#000000" fill-opacity="1" stroke-linejoin="miter" fill-rule="evenodd" stroke-opacity="1" stroke-dasharray="none" stroke-width="1px" d="M40.393,44.89L40.393,47.883L49.379,47.883L49.379,41.898C49.379,38.606,46.982,35.912,43.992,35.912L27.832,35.912C24.842,35.912,22.445,38.606,22.445,41.898L22.445,65.839C22.445,69.131,24.842,71.825,27.832,71.824L43.993,71.824C46.982,71.824,49.379,69.131,49.379,65.839L49.379,59.854L40.393,59.854L40.393,62.847L31.486,62.847L31.486,44.89L40.393,44.89ZM76.334,47.883L85.292,47.883L85.292,41.898C85.292,38.606,82.895,35.912,79.905,35.912L63.744,35.912C60.755,35.912,58.358,38.606,58.358,41.898L58.358,65.839C58.358,69.131,60.755,71.824,63.744,71.824L79.905,71.824C82.895,71.824,85.292,69.131,85.292,65.839L85.292,59.854L76.334,59.854L76.334,62.846L67.339,62.846L67.339,44.89L76.334,44.89L76.334,47.883ZM76.334,47.883"/>
</g>
  <g id="Medium-M" transform="matrix(1.0,0.0,0.0,1.0,1693.9715283352446,1037.9789172997898)">  <path fill="#000000" stroke-opacity="1" stroke-dasharray="none" stroke="none" stroke-miterlimit="4" stroke-linecap="butt" fill-rule="evenodd" clip-rule="evenodd" stroke-linejoin="miter" fill-opacity="1" stroke-width="1px" d="M40.393,44.89L40.393,47.883L49.379,47.883L49.379,41.898C49.379,38.606,46.982,35.912,43.992,35.912L27.832,35.912C24.842,35.912,22.445,38.606,22.445,41.898L22.445,65.839C22.445,69.131,24.842,71.825,27.832,71.824L43.993,71.824C46.982,71.824,49.379,69.131,49.379,65.839L49.379,59.854L40.393,59.854L40.393,62.847L31.486,62.847L31.486,44.89L40.393,44.89ZM76.334,47.883L85.292,47.883L85.292,41.898C85.292,38.606,82.895,35.912,79.905,35.912L63.744,35.912C60.755,35.912,58.358,38.606,58.358,41.898L58.358,65.839C58.358,69.131,60.755,71.824,63.744,71.824L79.905,71.824C82.895,71.824,85.292,69.131,85.292,65.839L85.292,59.854L76.334,59.854L76.334,62.846L67.339,62.846L67.339,44.89L76.334,44.89L76.334,47.883ZM76.334,47.883"/>
</g>
  <g id="Regular-M" transform="matrix(1.0,0.0,0.0,1.0,1397.2615283352445,1037.9789172997898)">  <path fill="#000000" stroke-opacity="1" clip-rule="evenodd" fill-opacity="1" fill-rule="evenodd" stroke-dasharray="none" stroke-linecap="butt" stroke-linejoin="miter" stroke-width="1px" stroke-miterlimit="4" stroke="none" d="M40.393,44.89L40.393,47.883L49.379,47.883L49.379,41.898C49.379,38.606,46.982,35.912,43.992,35.912L27.832,35.912C24.842,35.912,22.445,38.606,22.445,41.898L22.445,65.839C22.445,69.131,24.842,71.825,27.832,71.824L43.993,71.824C46.982,71.824,49.379,69.131,49.379,65.839L49.379,59.854L40.393,59.854L40.393,62.847L31.486,62.847L31.486,44.89L40.393,44.89ZM76.334,47.883L85.292,47.883L85.292,41.898C85.292,38.606,82.895,35.912,79.905,35.912L63.744,35.912C60.755,35.912,58.358,38.606,58.358,41.898L58.358,65.839C58.358,69.131,60.755,71.824,63.744,71.824L79.905,71.824C82.895,71.824,85.292,69.131,85.292,65.839L85.292,59.854L76.334,59.854L76.334,62.846L67.339,62.846L67.339,44.89L76.334,44.89L76.334,47.883ZM76.334,47.883"/>
</g>
  <g id="Light-M" transform="matrix(1.0,0.0,0.0,1.0,1100.5515283352447,1037.9789172997898)">  <path fill="#000000" stroke-miterlimit="4" stroke-linejoin="miter" fill-rule="evenodd" stroke="none" stroke-opacity="1" clip-rule="evenodd" stroke-width="1px" stroke-dasharray="none" stroke-linecap="butt" fill-opacity="1" d="M40.393,44.89L40.393,47.883L49.379,47.883L49.379,41.898C49.379,38.606,46.982,35.912,43.992,35.912L27.832,35.912C24.842,35.912,22.445,38.606,22.445,41.898L22.445,65.839C22.445,69.131,24.842,71.825,27.832,71.824L43.993,71.824C46.982,71.824,49.379,69.131,49.379,65.839L49.379,59.854L40.393,59.854L40.393,62.847L31.486,62.847L31.486,44.89L40.393,44.89ZM76.334,47.883L85.292,47.883L85.292,41.898C85.292,38.606,82.895,35.912,79.905,35.912L63.744,35.912C60.755,35.912,58.358,38.606,58.358,41.898L58.358,65.839C58.358,69.131,60.755,71.824,63.744,71.824L79.905,71.824C82.895,71.824,85.292,69.131,85.292,65.839L85.292,59.854L76.334,59.854L76.334,62.846L67.339,62.846L67.339,44.89L76.334,44.89L76.334,47.883ZM76.334,47.883"/>
</g>
  <g id="Thin-M" transform="matrix(1.0,0.0,0.0,1.0,803.8415283352447,1037.9789172997898)">  <path stroke-miterlimit="4" fill-opacity="1" stroke="none" stroke-linecap="butt" fill="#000000" stroke-opacity="1" stroke-width="1px" fill-rule="evenodd" clip-rule="evenodd" stroke-dasharray="none" stroke-linejoin="miter" d="M40.393,44.89L40.393,47.883L49.379,47.883L49.379,41.898C49.379,38.606,46.982,35.912,43.992,35.912L27.832,35.912C24.842,35.912,22.445,38.606,22.445,41.898L22.445,65.839C22.445,69.131,24.842,71.825,27.832,71.824L43.993,71.824C46.982,71.824,49.379,69.131,49.379,65.839L49.379,59.854L40.393,59.854L40.393,62.847L31.486,62.847L31.486,44.89L40.393,44.89ZM76.334,47.883L85.292,47.883L85.292,41.898C85.292,38.606,82.895,35.912,79.905,35.912L63.744,35.912C60.755,35.912,58.358,38.606,58.358,41.898L58.358,65.839C58.358,69.131,60.755,71.824,63.744,71.824L79.905,71.824C82.895,71.824,85.292,69.131,85.292,65.839L85.292,59.854L76.334,59.854L76.334,62.846L67.339,62.846L67.339,44.89L76.334,44.89L76.334,47.883ZM76.334,47.883"/>
</g>
  <g id="Ultralight-M" transform="matrix(1.0,0.0,0.0,1.0,507.13152833524464,1037.9789172997898)">  <path stroke-linejoin="miter" fill-rule="evenodd" stroke-width="1px" fill-opacity="1" clip-rule="evenodd" stroke-dasharray="none" stroke-opacity="1" stroke="none" stroke-linecap="butt" stroke-miterlimit="4" fill="#000000" d="M40.393,44.89L40.393,47.883L49.379,47.883L49.379,41.898C49.379,38.606,46.982,35.912,43.992,35.912L27.832,35.912C24.842,35.912,22.445,38.606,22.445,41.898L22.445,65.839C22.445,69.131,24.842,71.825,27.832,71.824L43.993,71.824C46.982,71.824,49.379,69.131,49.379,65.839L49.379,59.854L40.393,59.854L40.393,62.847L31.486,62.847L31.486,44.89L40.393,44.89ZM76.334,47.883L85.292,47.883L85.292,41.898C85.292,38.606,82.895,35.912,79.905,35.912L63.744,35.912C60.755,35.912,58.358,38.606,58.358,41.898L58.358,65.839C58.358,69.131,60.755,71.824,63.744,71.824L79.905,71.824C82.895,71.824,85.292,69.131,85.292,65.839L85.292,59.854L76.334,59.854L76.334,62.846L67.339,62.846L67.339,44.89L76.334,44.89L76.334,47.883ZM76.334,47.883"/>
</g>
  <g id="Black-S" transform="matrix(1.0,0.0,0.0,1.0,2892.5009866864966,619.4345864840166)">  <path stroke-opacity="1" stroke="none" fill-opacity="1" stroke-linejoin="miter" stroke-miterlimit="4" stroke-width="1px" stroke-dasharray="none" clip-rule="evenodd" fill-rule="evenodd" fill="#000000" stroke-linecap="butt" d="M31.628,35.149L31.628,37.493L38.664,37.493L38.664,32.806C38.664,30.228,36.787,28.119,34.446,28.119L21.792,28.119C19.451,28.119,17.575,30.228,17.575,32.806L17.575,51.552C17.575,54.13,19.451,56.239,21.793,56.238L34.446,56.238C36.787,56.238,38.664,54.129,38.664,51.552L38.664,46.865L31.628,46.865L31.628,49.209L24.654,49.209L24.654,35.149L31.628,35.149ZM59.77,37.492L66.783,37.492L66.783,32.806C66.783,30.228,64.906,28.119,62.566,28.119L49.912,28.119C47.571,28.119,45.694,30.228,45.694,32.806L45.694,51.552C45.694,54.129,47.571,56.238,49.912,56.238L62.566,56.238C64.906,56.238,66.783,54.129,66.783,51.552L66.783,46.865L59.77,46.865L59.77,49.208L52.726,49.208L52.726,35.149L59.77,35.149L59.77,37.492ZM59.77,37.492"/>
</g>
  <g id="Heavy-S" transform="matrix(1.0,0.0,0.0,1.0,2595.7909866864966,619.4345864840166)">  <path stroke="none" stroke-opacity="1" stroke-linejoin="miter" stroke-miterlimit="4" stroke-linecap="butt" fill-rule="evenodd" fill="#000000" fill-opacity="1" clip-rule="evenodd" stroke-width="1px" stroke-dasharray="none" d="M31.628,35.149L31.628,37.493L38.664,37.493L38.664,32.806C38.664,30.228,36.787,28.119,34.446,28.119L21.792,28.119C19.451,28.119,17.575,30.228,17.575,32.806L17.575,51.552C17.575,54.13,19.451,56.239,21.793,56.238L34.446,56.238C36.787,56.238,38.664,54.129,38.664,51.552L38.664,46.865L31.628,46.865L31.628,49.209L24.654,49.209L24.654,35.149L31.628,35.149ZM59.77,37.492L66.783,37.492L66.783,32.806C66.783,30.228,64.906,28.119,62.566,28.119L49.912,28.119C47.571,28.119,45.694,30.228,45.694,32.806L45.694,51.552C45.694,54.129,47.571,56.238,49.912,56.238L62.566,56.238C64.906,56.238,66.783,54.129,66.783,51.552L66.783,46.865L59.77,46.865L59.77,49.208L52.726,49.208L52.726,35.149L59.77,35.149L59.77,37.492ZM59.77,37.492"/>
</g>
  <g id="Bold-S" transform="matrix(1.0,0.0,0.0,1.0,2299.0809866864965,619.4345864840166)">  <path stroke-opacity="1" fill="#000000" fill-rule="evenodd" stroke-width="1px" stroke-linejoin="miter" stroke-linecap="butt" fill-opacity="1" stroke-dasharray="none" stroke-miterlimit="4" stroke="none" clip-rule="evenodd" d="M31.628,35.149L31.628,37.493L38.664,37.493L38.664,32.806C38.664,30.228,36.787,28.119,34.446,28.119L21.792,28.119C19.451,28.119,17.575,30.228,17.575,32.806L17.575,51.552C17.575,54.13,19.451,56.239,21.793,56.238L34.446,56.238C36.787,56.238,38.664,54.129,38.664,51.552L38.664,46.865L31.628,46.865L31.628,49.209L24.654,49.209L24.654,35.149L31.628,35.149ZM59.77,37.492L66.783,37.492L66.783,32.806C66.783,30.228,64.906,28.119,62.566,28.119L49.912,28.119C47.571,28.119,45.694,30.228,45.694,32.806L45.694,51.552C45.694,54.129,47.571,56.238,49.912,56.238L62.566,56.238C64.906,56.238,66.783,54.129,66.783,51.552L66.783,46.865L59.77,46.865L59.77,49.208L52.726,49.208L52.726,35.149L59.77,35.149L59.77,37.492ZM59.77,37.492"/>
</g>
  <g id="Semibold-S" transform="matrix(1.0,0.0,0.0,1.0,2002.3709866864965,619.4345864840166)">  <path stroke="none" stroke-linecap="butt" clip-rule="evenodd" stroke-miterlimit="4" fill="#000000" fill-opacity="1" stroke-linejoin="miter" fill-rule="evenodd" stroke-opacity="1" stroke-dasharray="none" stroke-width="1px" d="M31.628,35.149L31.628,37.493L38.664,37.493L38.664,32.806C38.664,30.228,36.787,28.119,34.446,28.119L21.792,28.119C19.451,28.119,17.575,30.228,17.575,32.806L17.575,51.552C17.575,54.13,19.451,56.239,21.793,56.238L34.446,56.238C36.787,56.238,38.664,54.129,38.664,51.552L38.664,46.865L31.628,46.865L31.628,49.209L24.654,49.209L24.654,35.149L31.628,35.149ZM59.77,37.492L66.783,37.492L66.783,32.806C66.783,30.228,64.906,28.119,62.566,28.119L49.912,28.119C47.571,28.119,45.694,30.228,45.694,32.806L45.694,51.552C45.694,54.129,47.571,56.238,49.912,56.238L62.566,56.238C64.906,56.238,66.783,54.129,66.783,51.552L66.783,46.865L59.77,46.865L59.77,49.208L52.726,49.208L52.726,35.149L59.77,35.149L59.77,37.492ZM59.77,37.492"/>
</g>
  <g id="Medium-S" transform="matrix(1.0,0.0,0.0,1.0,1705.6609866864965,619.4345864840166)">  <path fill="#000000" stroke-opacity="1" stroke-dasharray="none" stroke="none" stroke-miterlimit="4" stroke-linecap="butt" fill-rule="evenodd" clip-rule="evenodd" stroke-linejoin="miter" fill-opacity="1" stroke-width="1px" d="M31.628,35.149L31.628,37.493L38.664,37.493L38.664,32.806C38.664,30.228,36.787,28.119,34.446,28.119L21.792,28.119C19.451,28.119,17.575,30.228,17.575,32.806L17.575,51.552C17.575,54.13,19.451,56.239,21.793,56.238L34.446,56.238C36.787,56.238,38.664,54.129,38.664,51.552L38.664,46.865L31.628,46.865L31.628,49.209L24.654,49.209L24.654,35.149L31.628,35.149ZM59.77,37.492L66.783,37.492L66.783,32.806C66.783,30.228,64.906,28.119,62.566,28.119L49.912,28.119C47.571,28.119,45.694,30.228,45.694,32.806L45.694,51.552C45.694,54.129,47.571,56.238,49.912,56.238L62.566,56.238C64.906,56.238,66.783,54.129,66.783,51.552L66.783,46.865L59.77,46.865L59.77,49.208L52.726,49.208L52.726,35.149L59.77,35.149L59.77,37.492ZM59.77,37.492"/>
</g>
  <g id="Regular-S" transform="matrix(1.0,0.0,0.0,1.0,1408.9509866864964,619.4345864840166)">  <path fill="#000000" stroke-opacity="1" clip-rule="evenodd" fill-opacity="1" fill-rule="evenodd" stroke-dasharray="none" stroke-linecap="butt" stroke-linejoin="miter" stroke-width="1px" stroke-miterlimit="4" stroke="none" d="M31.628,35.149L31.628,37.493L38.664,37.493L38.664,32.806C38.664,30.228,36.787,28.119,34.446,28.119L21.792,28.119C19.451,28.119,17.575,30.228,17.575,32.806L17.575,51.552C17.575,54.13,19.451,56.239,21.793,56.238L34.446,56.238C36.787,56.238,38.664,54.129,38.664,51.552L38.664,46.865L31.628,46.865L31.628,49.209L24.654,49.209L24.654,35.149L31.628,35.149ZM59.77,37.492L66.783,37.492L66.783,32.806C66.783,30.228,64.906,28.119,62.566,28.119L49.912,28.119C47.571,28.119,45.694,30.228,45.694,32.806L45.694,51.552C45.694,54.129,47.571,56.238,49.912,56.238L62.566,56.238C64.906,56.238,66.783,54.129,66.783,51.552L66.783,46.865L59.77,46.865L59.77,49.208L52.726,49.208L52.726,35.149L59.77,35.149L59.77,37.492ZM59.77,37.492"/>
</g>
  <g id="Light-S" transform="matrix(1.0,0.0,0.0,1.0,1112.2409866864966,619.4345864840166)">  <path fill="#000000" stroke-miterlimit="4" stroke-linejoin="miter" fill-rule="evenodd" stroke="none" stroke-opacity="1" clip-rule="evenodd" stroke-width="1px" stroke-dasharray="none" stroke-linecap="butt" fill-opacity="1" d="M31.628,35.149L31.628,37.493L38.664,37.493L38.664,32.806C38.664,30.228,36.787,28.119,34.446,28.119L21.792,28.119C19.451,28.119,17.575,30.228,17.575,32.806L17.575,51.552C17.575,54.13,19.451,56.239,21.793,56.238L34.446,56.238C36.787,56.238,38.664,54.129,38.664,51.552L38.664,46.865L31.628,46.865L31.628,49.209L24.654,49.209L24.654,35.149L31.628,35.149ZM59.77,37.492L66.783,37.492L66.783,32.806C66.783,30.228,64.906,28.119,62.566,28.119L49.912,28.119C47.571,28.119,45.694,30.228,45.694,32.806L45.694,51.552C45.694,54.129,47.571,56.238,49.912,56.238L62.566,56.238C64.906,56.238,66.783,54.129,66.783,51.552L66.783,46.865L59.77,46.865L59.77,49.208L52.726,49.208L52.726,35.149L59.77,35.149L59.77,37.492ZM59.77,37.492"/>
</g>
  <g id="Thin-S" transform="matrix(1.0,0.0,0.0,1.0,815.5309866864966,619.4345864840166)">  <path stroke-miterlimit="4" fill-opacity="1" stroke="none" stroke-linecap="butt" fill="#000000" stroke-opacity="1" stroke-width="1px" fill-rule="evenodd" clip-rule="evenodd" stroke-dasharray="none" stroke-linejoin="miter" d="M31.628,35.149L31.628,37.493L38.664,37.493L38.664,32.806C38.664,30.228,36.787,28.119,34.446,28.119L21.792,28.119C19.451,28.119,17.575,30.228,17.575,32.806L17.575,51.552C17.575,54.13,19.451,56.239,21.793,56.238L34.446,56.238C36.787,56.238,38.664,54.129,38.664,51.552L38.664,46.865L31.628,46.865L31.628,49.209L24.654,49.209L24.654,35.149L31.628,35.149ZM59.77,37.492L66.783,37.492L66.783,32.806C66.783,30.228,64.906,28.119,62.566,28.119L49.912,28.119C47.571,28.119,45.694,30.228,45.694,32.806L45.694,51.552C45.694,54.129,47.571,56.238,49.912,56.238L62.566,56.238C64.906,56.238,66.783,54.129,66.783,51.552L66.783,46.865L59.77,46.865L59.77,49.208L52.726,49.208L52.726,35.149L59.77,35.149L59.77,37.492ZM59.77,37.492"/>
</g>
  <g id="Ultralight-S" transform="matrix(1.0,0.0,0.0,1.0,518.8209866864966,619.4345864840166)">  <path stroke-linejoin="miter" fill-rule="evenodd" stroke-width="1px" fill-opacity="1" clip-rule="evenodd" stroke-dasharray="none" stroke-opacity="1" stroke="none" stroke-linecap="butt" stroke-miterlimit="4" fill="#000000" d="M31.628,35.149L31.628,37.493L38.664,37.493L38.664,32.806C38.664,30.228,36.787,28.119,34.446,28.119L21.792,28.119C19.451,28.119,17.575,30.228,17.575,32.806L17.575,51.552C17.575,54.13,19.451,56.239,21.793,56.238L34.446,56.238C36.787,56.238,38.664,54.129,38.664,51.552L38.664,46.865L31.628,46.865L31.628,49.209L24.654,49.209L24.654,35.149L31.628,35.149ZM59.77,37.492L66.783,37.492L66.783,32.806C66.783,30.228,64.906,28.119,62.566,28.119L49.912,28.119C47.571,28.119,45.694,30.228,45.694,32.806L45.694,51.552C45.694,54.129,47.571,56.238,49.912,56.238L62.566,56.238C64.906,56.238,66.783,54.129,66.783,51.552L66.783,46.865L59.77,46.865L59.77,49.208L52.726,49.208L52.726,35.149L59.77,35.149L59.77,37.492ZM59.77,37.492"/>
</g>
 </g>
</svg>
