<?xml version="1.0" encoding="UTF-8"?>
<!-- Generator: CustomSymbols v2.6.1.40 by @serious_bret https://bretlester.com/app_content/CustomSymbols/ -->
<!-- Guides: Left/Right 0.082/0.082 Cap/Base 0.166/0.166 -->
<!-- Settings: RefScale 1.0 Min/Max Stroke Scales 0.5/2.21 -->
<!DOCTYPE svg
PUBLIC "-//W3C//DTD SVG 1.1//EN"
       "http://www.w3.org/Graphics/SVG/1.1/DTD/svg11.dtd">
<svg version="1.1" xmlns="http://www.w3.org/2000/svg" xmlns:xlink="http://www.w3.org/1999/xlink" width="3300" height="2200">
<![CDATA[<svg width="24" height="24" viewBox="0 0 24 24" fill="none" xmlns="http://www.w3.org/2000/svg">
<path fill-rule="evenodd" clip-rule="evenodd" d="M22 12C22 6.47581 17.5242 2 12 2C6.47581 2 2 6.47581 2 12C2 17.5242 6.47581 22 12 22C17.5242 22 22 17.5242 22 12ZM4 12C4 7.58042 7.58042 4 12 4C16.4196 4 20 7.58042 20 12C20 16.4196 16.4196 20 12 20C7.58042 20 4 16.4196 4 12Z" fill="black"/>
<path d="M14.4919 15.8548L11.0686 13.3669C10.9436 13.2742 10.871 13.129 10.871 12.9758V6.35484C10.871 6.08871 11.0887 5.87097 11.3548 5.87097H12.6452C12.9113 5.87097 13.129 6.08871 13.129 6.35484V12.0686L15.8226 14.0282C16.0403 14.1855 16.0847 14.4879 15.9274 14.7056L15.1694 15.75C15.0121 15.9637 14.7097 16.0121 14.4919 15.8548Z" fill="black"/>
</svg>
]]>
 <g id="Notes">
  <rect height="2200" id="artboard" style="fill:white;opacity:1" width="3300" x="0" y="0"/>
  <line id="" style="fill:none;stroke:black;opacity:1;stroke-width:0.5;" x1="263" x2="3036" y1="292" y2="292"/>
  <text id="reftext1" style="stroke:none;fill:black;font-family:-apple-system,&quot;SF Pro Display&quot;,&quot;SF Pro Text&quot;,Helvetica,sans-serif;font-weight:bold;" transform="matrix(1 0 0 1 263 322)">Weight/Scale Variations</text>
  <text id="reftext2" style="stroke:none;fill:black;font-family:-apple-system,&quot;SF Pro Display&quot;,&quot;SF Pro Text&quot;,Helvetica,sans-serif;text-anchor:middle;" transform="matrix(1 0 0 1 559.711 322)">Ultralight</text>
  <text style="stroke:none;fill:black;font-family:-apple-system,&quot;SF Pro Display&quot;,&quot;SF Pro Text&quot;,Helvetica,sans-serif;text-anchor:middle;" transform="matrix(1 0 0 1 856.422 322)">Thin</text>
  <text style="stroke:none;fill:black;font-family:-apple-system,&quot;SF Pro Display&quot;,&quot;SF Pro Text&quot;,Helvetica,sans-serif;text-anchor:middle;" transform="matrix(1 0 0 1 1153.13 322)">Light</text>
  <text style="stroke:none;fill:black;font-family:-apple-system,&quot;SF Pro Display&quot;,&quot;SF Pro Text&quot;,Helvetica,sans-serif;text-anchor:middle;" transform="matrix(1 0 0 1 1449.84 322)">Regular</text>
  <text style="stroke:none;fill:black;font-family:-apple-system,&quot;SF Pro Display&quot;,&quot;SF Pro Text&quot;,Helvetica,sans-serif;text-anchor:middle;" transform="matrix(1 0 0 1 1746.56 322)">Medium</text>
  <text style="stroke:none;fill:black;font-family:-apple-system,&quot;SF Pro Display&quot;,&quot;SF Pro Text&quot;,Helvetica,sans-serif;text-anchor:middle;" transform="matrix(1 0 0 1 2043.27 322)">Semibold</text>
  <text style="stroke:none;fill:black;font-family:-apple-system,&quot;SF Pro Display&quot;,&quot;SF Pro Text&quot;,Helvetica,sans-serif;text-anchor:middle;" transform="matrix(1 0 0 1 2339.98 322)">Bold</text>
  <text style="stroke:none;fill:black;font-family:-apple-system,&quot;SF Pro Display&quot;,&quot;SF Pro Text&quot;,Helvetica,sans-serif;text-anchor:middle;" transform="matrix(1 0 0 1 2636.69 322)">Heavy</text>
  <text style="stroke:none;fill:black;font-family:-apple-system,&quot;SF Pro Display&quot;,&quot;SF Pro Text&quot;,Helvetica,sans-serif;text-anchor:middle;" transform="matrix(1 0 0 1 2933.4 322)">Black</text>
  <line id="" style="fill:none;stroke:black;opacity:1;stroke-width:0.5;" x1="263" x2="3036" y1="1903" y2="1903"/>
  <g id="" transform="matrix(1 0 0 1 263 1933)">
   <path d="M9.24805 0.830078C13.5547 0.830078 17.1387-2.74414 17.1387-7.05078C17.1387-11.3574 13.5449-14.9316 9.23828-14.9316C4.94141-14.9316 1.36719-11.3574 1.36719-7.05078C1.36719-2.74414 4.95117 0.830078 9.24805 0.830078ZM9.24805-0.654297C5.70312-0.654297 2.87109-3.49609 2.87109-7.05078C2.87109-10.6055 5.69336-13.4473 9.23828-13.4473C12.793-13.4473 15.6348-10.6055 15.6445-7.05078C15.6543-3.49609 12.8027-0.654297 9.24805-0.654297ZM6.39648-6.31836L8.50586-6.31836L8.50586-4.19922C8.50586-3.75977 8.79883-3.45703 9.22852-3.45703C9.67773-3.45703 9.9707-3.75977 9.9707-4.19922L9.9707-6.31836L12.0996-6.31836C12.5391-6.31836 12.8418-6.61133 12.8418-7.04102C12.8418-7.48047 12.5391-7.7832 12.0996-7.7832L9.9707-7.7832L9.9707-9.89258C9.9707-10.3418 9.67773-10.6445 9.22852-10.6445C8.79883-10.6445 8.50586-10.3418 8.50586-9.89258L8.50586-7.7832L6.39648-7.7832C5.94727-7.7832 5.64453-7.48047 5.64453-7.04102C5.64453-6.61133 5.94727-6.31836 6.39648-6.31836Z"/>
  </g>
  <g id="" transform="matrix(1 0 0 1 281.506 1933)">
   <path d="M11.709 2.91016C17.1582 2.91016 21.6699-1.61133 21.6699-7.05078C21.6699-12.5 17.1484-17.0117 11.6992-17.0117C6.25977-17.0117 1.74805-12.5 1.74805-7.05078C1.74805-1.61133 6.26953 2.91016 11.709 2.91016ZM11.709 1.25C7.09961 1.25 3.41797-2.44141 3.41797-7.05078C3.41797-11.6602 7.08984-15.3516 11.6992-15.3516C16.3086-15.3516 20-11.6602 20.0098-7.05078C20.0195-2.44141 16.3184 1.25 11.709 1.25ZM7.98828-6.23047L10.8789-6.23047L10.8789-3.32031C10.8789-2.83203 11.2109-2.5 11.6895-2.5C12.1777-2.5 12.5195-2.83203 12.5195-3.32031L12.5195-6.23047L15.4297-6.23047C15.918-6.23047 16.25-6.5625 16.25-7.04102C16.25-7.5293 15.918-7.87109 15.4297-7.87109L12.5195-7.87109L12.5195-10.7617C12.5195-11.2695 12.1777-11.6016 11.6895-11.6016C11.2109-11.6016 10.8789-11.2598 10.8789-10.7617L10.8789-7.87109L7.98828-7.87109C7.48047-7.87109 7.14844-7.5293 7.14844-7.04102C7.14844-6.5625 7.49023-6.23047 7.98828-6.23047Z"/>
  </g>
  <g id="" transform="matrix(1 0 0 1 304.924 1933)">
   <path d="M14.9707 5.66406C21.9336 5.66406 27.6953-0.0976562 27.6953-7.05078C27.6953-14.0137 21.9238-19.7754 14.9609-19.7754C8.00781-19.7754 2.25586-14.0137 2.25586-7.05078C2.25586-0.0976562 8.01758 5.66406 14.9707 5.66406ZM14.9707 3.84766C8.93555 3.84766 4.08203-1.01562 4.08203-7.05078C4.08203-13.0957 8.92578-17.9492 14.9609-17.9492C21.0059-17.9492 25.8594-13.0957 25.8691-7.05078C25.8789-1.01562 21.0156 3.84766 14.9707 3.84766ZM10.0586-6.14258L14.0625-6.14258L14.0625-2.12891C14.0625-1.5918 14.4336-1.2207 14.9512-1.2207C15.4883-1.2207 15.8594-1.5918 15.8594-2.12891L15.8594-6.14258L19.8828-6.14258C20.4102-6.14258 20.791-6.51367 20.791-7.03125C20.791-7.56836 20.4199-7.94922 19.8828-7.94922L15.8594-7.94922L15.8594-11.9531C15.8594-12.5098 15.4883-12.8809 14.9512-12.8809C14.4336-12.8809 14.0625-12.5 14.0625-11.9531L14.0625-7.94922L10.0586-7.94922C9.50195-7.94922 9.13086-7.56836 9.13086-7.03125C9.13086-6.51367 9.51172-6.14258 10.0586-6.14258Z"/>
  </g>
  <text style="stroke:none;fill:black;font-family:-apple-system,&quot;SF Pro Display&quot;,&quot;SF Pro Text&quot;,Helvetica,sans-serif;font-weight:bold;" transform="matrix(1 0 0 1 263 1953)">Design Variations</text>
  <text style="stroke:none;fill:black;font-family:-apple-system,&quot;SF Pro Display&quot;,&quot;SF Pro Text&quot;,Helvetica,sans-serif;" transform="matrix(1 0 0 1 263 1971)">Symbols are supported in up to nine weights and three scales.</text>
  <text style="stroke:none;fill:black;font-family:-apple-system,&quot;SF Pro Display&quot;,&quot;SF Pro Text&quot;,Helvetica,sans-serif;" transform="matrix(1 0 0 1 263 1989)">For optimal layout with text and other symbols, vertically align</text>
  <text style="stroke:none;fill:black;font-family:-apple-system,&quot;SF Pro Display&quot;,&quot;SF Pro Text&quot;,Helvetica,sans-serif;" transform="matrix(1 0 0 1 263 2007)">symbols with the adjacent text.</text>
  <line id="" style="fill:none;stroke:#00AEEF;stroke-width:0.5;opacity:1.0;" x1="776" x2="776" y1="1919" y2="1933"/>
  <g id="" transform="matrix(1 0 0 1 776 1933)">
   <path d="M3.31055 0.126953C3.82812 0.126953 4.08203-0.0683594 4.26758-0.605469L5.52734-4.0625L11.2891-4.0625L12.5488-0.605469C12.7344-0.0683594 12.9883 0.126953 13.4961 0.126953C14.0137 0.126953 14.3457-0.185547 14.3457-0.673828C14.3457-0.839844 14.3164-0.986328 14.2383-1.20117L9.6582-13.3887C9.43359-13.9941 9.0332-14.2871 8.4082-14.2871C7.80273-14.2871 7.39258-13.9941 7.17773-13.3984L2.59766-1.19141C2.51953-0.976562 2.49023-0.830078 2.49023-0.664062C2.49023-0.175781 2.80273 0.126953 3.31055 0.126953ZM6.00586-5.53711L8.37891-12.1094L8.42773-12.1094L10.8008-5.53711Z"/>
  </g>
  <line id="" style="fill:none;stroke:#00AEEF;stroke-width:0.5;opacity:1.0;" x1="792.836" x2="792.836" y1="1919" y2="1933"/>
  <text style="stroke:none;fill:black;font-family:-apple-system,&quot;SF Pro Display&quot;,&quot;SF Pro Text&quot;,Helvetica,sans-serif;font-weight:bold;" transform="matrix(1 0 0 1 776 1953)">Margins</text>
  <text style="stroke:none;fill:black;font-family:-apple-system,&quot;SF Pro Display&quot;,&quot;SF Pro Text&quot;,Helvetica,sans-serif;" transform="matrix(1 0 0 1 776 1971)">Leading and trailing margins on the left and right side of each symbol</text>
  <text style="stroke:none;fill:black;font-family:-apple-system,&quot;SF Pro Display&quot;,&quot;SF Pro Text&quot;,Helvetica,sans-serif;" transform="matrix(1 0 0 1 776 1989)">can be adjusted by modifying the x-location of the margin guidelines.</text>
  <text style="stroke:none;fill:black;font-family:-apple-system,&quot;SF Pro Display&quot;,&quot;SF Pro Text&quot;,Helvetica,sans-serif;" transform="matrix(1 0 0 1 776 2007)">Modifications are automatically applied proportionally to all</text>
  <text style="stroke:none;fill:black;font-family:-apple-system,&quot;SF Pro Display&quot;,&quot;SF Pro Text&quot;,Helvetica,sans-serif;" transform="matrix(1 0 0 1 776 2025)">scales and weights.</text>
  <g id="" transform="matrix(1 0 0 1 1289 1933)">
   <path d="M2.8418 1.86523L4.54102 3.57422C5.40039 4.44336 6.38672 4.38477 7.31445 3.35938L17.4902-7.85156C17.7539-7.76367 18.0273-7.7832 18.3398-7.8418L19.4043-8.03711L20.0684-7.36328L20.0293-6.80664C19.9902-6.30859 20.1172-5.92773 20.6055-5.44922L21.3672-4.70703C21.8457-4.22852 22.4609-4.19922 22.9297-4.66797L25.8398-7.58789C26.3086-8.05664 26.2891-8.65234 25.8105-9.13086L25.0391-9.89258C24.5605-10.3711 24.1895-10.5273 23.7109-10.4883L23.1348-10.4395L22.4902-11.0742L22.7344-12.1973C22.8613-12.7637 22.7051-13.2031 22.1191-13.7891L19.9219-15.9766C16.582-19.2969 12.1484-19.2188 9.25781-16.3281C8.83789-15.918 8.80859-15.3418 9.04297-14.9512C9.27734-14.5898 9.73633-14.3555 10.3809-14.5215C11.8457-14.8633 13.3691-14.9219 14.7949-13.9844L14.209-12.5293C14.0137-12.0508 13.9844-11.6504 14.1113-11.2891L3.04688-0.898438C2.06055 0.0195312 1.98242 0.996094 2.8418 1.86523ZM10.752-15.957C13.1836-17.7344 16.4746-17.4316 18.7012-15.2051L21.1328-12.793C21.3672-12.5586 21.4062-12.373 21.3379-12.0312L21.0156-10.5469L22.5195-9.0625L23.5059-9.12109C23.7598-9.13086 23.8379-9.11133 24.0332-8.91602L24.6094-8.33984L22.168-5.89844L21.5918-6.47461C21.3965-6.66992 21.3672-6.74805 21.377-7.01172L21.4453-7.98828L19.9512-9.47266L18.4277-9.21875C18.1055-9.15039 17.959-9.17969 17.7148-9.41406L15.7129-11.416C15.459-11.6504 15.4297-11.8164 15.5859-12.1875L16.4648-14.2773C14.9023-15.7324 12.8711-16.3574 10.8398-15.7617C10.6836-15.7227 10.625-15.8496 10.752-15.957ZM5.27344 2.30469L4.10156 1.14258C3.63281 0.683594 3.74023 0.341797 4.14062-0.0195312L14.9512-10.1953L16.416-8.71094L6.42578 2.27539C6.07422 2.67578 5.74219 2.77344 5.27344 2.30469Z"/>
  </g>
  <text style="stroke:none;fill:black;font-family:-apple-system,&quot;SF Pro Display&quot;,&quot;SF Pro Text&quot;,Helvetica,sans-serif;font-weight:bold;" transform="matrix(1 0 0 1 1289 1953)">Exporting</text>
  <text style="stroke:none;fill:black;font-family:-apple-system,&quot;SF Pro Display&quot;,&quot;SF Pro Text&quot;,Helvetica,sans-serif;" transform="matrix(1 0 0 1 1289 1971)">Symbols should be outlined when exporting to ensure the</text>
  <text style="stroke:none;fill:black;font-family:-apple-system,&quot;SF Pro Display&quot;,&quot;SF Pro Text&quot;,Helvetica,sans-serif;" transform="matrix(1 0 0 1 1289 1989)">design is preserved when submitting to Xcode.</text>
  <text id="template-version" style="stroke:none;fill:black;font-family:-apple-system,&quot;SF Pro Display&quot;,&quot;SF Pro Text&quot;,Helvetica,sans-serif;text-anchor:end;" transform="matrix(1 0 0 1 3036 1933)">Template v.2.0</text>
  <text style="stroke:none;fill:black;font-family:-apple-system,&quot;SF Pro Display&quot;,&quot;SF Pro Text&quot;,Helvetica,sans-serif;text-anchor:end;" transform="matrix(1 0 0 1 3036 1951)">Requires Xcode 12 or greater</text>
  <text style="stroke:none;fill:black;font-family:-apple-system,&quot;SF Pro Display&quot;,&quot;SF Pro Text&quot;,Helvetica,sans-serif;" transform="matrix(1 0 0 1 263 726)">Small</text>
  <text style="stroke:none;fill:black;font-family:-apple-system,&quot;SF Pro Display&quot;,&quot;SF Pro Text&quot;,Helvetica,sans-serif;" transform="matrix(1 0 0 1 263 1156)">Medium</text>
  <text style="stroke:none;fill:black;font-family:-apple-system,&quot;SF Pro Display&quot;,&quot;SF Pro Text&quot;,Helvetica,sans-serif;" transform="matrix(1 0 0 1 263 1586)">Large</text>
 </g>
 <g id="Guides">
  <g id="H-reference" style="fill:#27AAE1;stroke:none;" transform="matrix(1 0 0 1 339 696)">
   <path d="M0.976562 0L3.66211 0L12.9883-24.4629L45.752-24.4629L55.127 0L57.7637 0L30.6152-70.459L28.125-70.459ZM29.3457-67.1387L29.4434-67.1387L44.873-26.709L13.8672-26.709Z"/>
  </g>
  <line id="Baseline-S" style="fill:none;stroke:#27AAE1;opacity:1;stroke-width:0.5;" x1="263" x2="3036" y1="696" y2="696"/>
  <line id="Capline-S" style="fill:none;stroke:#27AAE1;opacity:1;stroke-width:0.5;" x1="263" x2="3036" y1="625.541" y2="625.541"/>
  <g id="H-reference" style="fill:#27AAE1;stroke:none;" transform="matrix(1 0 0 1 339 1126)">
   <path d="M0.976562 0L3.66211 0L12.9883-24.4629L45.752-24.4629L55.127 0L57.7637 0L30.6152-70.459L28.125-70.459ZM29.3457-67.1387L29.4434-67.1387L44.873-26.709L13.8672-26.709Z"/>
  </g>
  <line id="Baseline-M" style="fill:none;stroke:#27AAE1;opacity:1;stroke-width:0.5;" x1="263" x2="3036" y1="1126" y2="1126"/>
  <line id="Capline-M" style="fill:none;stroke:#27AAE1;opacity:1;stroke-width:0.5;" x1="263" x2="3036" y1="1055.54" y2="1055.54"/>
  <g id="H-reference" style="fill:#27AAE1;stroke:none;" transform="matrix(1 0 0 1 339 1556)">
   <path d="M0.976562 0L3.66211 0L12.9883-24.4629L45.752-24.4629L55.127 0L57.7637 0L30.6152-70.459L28.125-70.459ZM29.3457-67.1387L29.4434-67.1387L44.873-26.709L13.8672-26.709Z"/>
  </g>
  <line id="Baseline-L" style="fill:none;stroke:#27AAE1;opacity:1;stroke-width:0.5;" x1="263" x2="3036" y1="1556" y2="1556"/>
  <line id="Capline-L" style="fill:none;stroke:#27AAE1;opacity:1;stroke-width:0.5;" x1="263" x2="3036" y1="1485.54" y2="1485.54"/>
  <line id="left-margin" x1="1407.0397849223427" x2="1407.0397849223427" y1="1030.79" y2="1150.12" style="fill:none;stroke:#00AEEF;stroke-width:0.5;opacity:1.0;"/>
  <line id="right-margin" x1="1495.220215077657" x2="1495.220215077657" y1="1030.79" y2="1150.12" style="fill:none;stroke:#00AEEF;stroke-width:0.5;opacity:1.0;"/>
 </g>
 <g id="Symbols">
  <g id="Black-L" transform="matrix(1.0,0.0,0.0,1.0,2866.6460556816055,1452.7360752128554)">  <path fill="#000000" clip-rule="evenodd" stroke="none" stroke-dasharray="none" stroke-miterlimit="4" stroke-linejoin="miter" stroke-linecap="butt" stroke-width="1px" fill-opacity="1" fill-rule="evenodd" stroke-opacity="1" d="M124.729,68.034C124.729,36.715,99.353,11.339,68.034,11.339C36.715,11.339,11.339,36.715,11.339,68.034C11.339,99.353,36.715,124.729,68.034,124.729C99.353,124.729,124.729,99.353,124.729,68.034ZM22.678,68.034C22.678,42.977,42.977,22.678,68.034,22.678C93.091,22.678,113.39,42.977,113.39,68.034C113.39,93.091,93.091,113.39,68.034,113.39C42.977,113.39,22.678,93.091,22.678,68.034ZM22.678,68.034"/>
  <path fill-rule="nonzero" stroke-opacity="1" fill-opacity="1" stroke-width="1px" fill="#000000" stroke="none" stroke-linecap="butt" stroke-linejoin="miter" stroke-miterlimit="4" stroke-dasharray="none" d="M82.162,89.889L62.753,75.784C62.045,75.258,61.633,74.435,61.633,73.566L61.633,36.029C61.633,34.52,62.867,33.285,64.376,33.285L71.692,33.285C73.201,33.285,74.435,34.52,74.435,36.029L74.435,68.423L89.706,79.533C90.94,80.425,91.192,82.139,90.3,83.373L86.003,89.295C85.111,90.506,83.397,90.781,82.162,89.889ZM82.162,89.889"/>
</g>
  <g id="Heavy-L" transform="matrix(1.0,0.0,0.0,1.0,2569.9360556816055,1452.7360752128554)">  <path fill-opacity="1" stroke-miterlimit="4" fill="#000000" clip-rule="evenodd" stroke-dasharray="none" stroke-opacity="1" stroke-linejoin="miter" stroke-linecap="butt" stroke="none" fill-rule="evenodd" stroke-width="1px" d="M124.729,68.034C124.729,36.715,99.353,11.339,68.034,11.339C36.715,11.339,11.339,36.715,11.339,68.034C11.339,99.353,36.715,124.729,68.034,124.729C99.353,124.729,124.729,99.353,124.729,68.034ZM22.678,68.034C22.678,42.977,42.977,22.678,68.034,22.678C93.091,22.678,113.39,42.977,113.39,68.034C113.39,93.091,93.091,113.39,68.034,113.39C42.977,113.39,22.678,93.091,22.678,68.034ZM22.678,68.034"/>
  <path stroke-opacity="1" stroke="none" fill="#000000" stroke-linejoin="miter" stroke-miterlimit="4" stroke-width="1px" stroke-dasharray="none" fill-rule="nonzero" stroke-linecap="butt" fill-opacity="1" d="M82.162,89.889L62.753,75.784C62.045,75.258,61.633,74.435,61.633,73.566L61.633,36.029C61.633,34.52,62.867,33.285,64.376,33.285L71.692,33.285C73.201,33.285,74.435,34.52,74.435,36.029L74.435,68.423L89.706,79.533C90.94,80.425,91.192,82.139,90.3,83.373L86.003,89.295C85.111,90.506,83.397,90.781,82.162,89.889ZM82.162,89.889"/>
</g>
  <g id="Bold-L" transform="matrix(1.0,0.0,0.0,1.0,2273.2260556816054,1452.7360752128554)">  <path stroke-opacity="1" stroke="none" stroke-linecap="butt" stroke-miterlimit="4" fill-opacity="1" stroke-width="1px" stroke-linejoin="miter" fill="#000000" stroke-dasharray="none" fill-rule="evenodd" clip-rule="evenodd" d="M124.729,68.034C124.729,36.715,99.353,11.339,68.034,11.339C36.715,11.339,11.339,36.715,11.339,68.034C11.339,99.353,36.715,124.729,68.034,124.729C99.353,124.729,124.729,99.353,124.729,68.034ZM22.678,68.034C22.678,42.977,42.977,22.678,68.034,22.678C93.091,22.678,113.39,42.977,113.39,68.034C113.39,93.091,93.091,113.39,68.034,113.39C42.977,113.39,22.678,93.091,22.678,68.034ZM22.678,68.034"/>
  <path stroke-linecap="butt" stroke-miterlimit="4" stroke-width="1px" stroke-dasharray="none" stroke="none" stroke-opacity="1" fill="#000000" fill-opacity="1" fill-rule="nonzero" stroke-linejoin="miter" d="M82.162,89.889L62.753,75.784C62.045,75.258,61.633,74.435,61.633,73.566L61.633,36.029C61.633,34.52,62.867,33.285,64.376,33.285L71.692,33.285C73.201,33.285,74.435,34.52,74.435,36.029L74.435,68.423L89.706,79.533C90.94,80.425,91.192,82.139,90.3,83.373L86.003,89.295C85.111,90.506,83.397,90.781,82.162,89.889ZM82.162,89.889"/>
</g>
  <g id="Semibold-L" transform="matrix(1.0,0.0,0.0,1.0,1976.5160556816054,1452.7360752128554)">  <path stroke-miterlimit="4" stroke-linejoin="miter" fill-opacity="1" stroke-dasharray="none" fill-rule="evenodd" clip-rule="evenodd" fill="#000000" stroke-opacity="1" stroke="none" stroke-linecap="butt" stroke-width="1px" d="M124.729,68.034C124.729,36.715,99.353,11.339,68.034,11.339C36.715,11.339,11.339,36.715,11.339,68.034C11.339,99.353,36.715,124.729,68.034,124.729C99.353,124.729,124.729,99.353,124.729,68.034ZM22.678,68.034C22.678,42.977,42.977,22.678,68.034,22.678C93.091,22.678,113.39,42.977,113.39,68.034C113.39,93.091,93.091,113.39,68.034,113.39C42.977,113.39,22.678,93.091,22.678,68.034ZM22.678,68.034"/>
  <path stroke-linecap="butt" stroke-dasharray="none" stroke-linejoin="miter" fill="#000000" fill-rule="nonzero" stroke-miterlimit="4" stroke="none" stroke-opacity="1" stroke-width="1px" fill-opacity="1" d="M82.162,89.889L62.753,75.784C62.045,75.258,61.633,74.435,61.633,73.566L61.633,36.029C61.633,34.52,62.867,33.285,64.376,33.285L71.692,33.285C73.201,33.285,74.435,34.52,74.435,36.029L74.435,68.423L89.706,79.533C90.94,80.425,91.192,82.139,90.3,83.373L86.003,89.295C85.111,90.506,83.397,90.781,82.162,89.889ZM82.162,89.889"/>
</g>
  <g id="Medium-L" transform="matrix(1.0,0.0,0.0,1.0,1679.8060556816054,1452.7360752128554)">  <path stroke-linecap="butt" stroke-linejoin="miter" stroke-width="1px" stroke-opacity="1" stroke-miterlimit="4" stroke="none" clip-rule="evenodd" fill-rule="evenodd" fill="#000000" fill-opacity="1" stroke-dasharray="none" d="M124.729,68.034C124.729,36.715,99.353,11.339,68.034,11.339C36.715,11.339,11.339,36.715,11.339,68.034C11.339,99.353,36.715,124.729,68.034,124.729C99.353,124.729,124.729,99.353,124.729,68.034ZM22.678,68.034C22.678,42.977,42.977,22.678,68.034,22.678C93.091,22.678,113.39,42.977,113.39,68.034C113.39,93.091,93.091,113.39,68.034,113.39C42.977,113.39,22.678,93.091,22.678,68.034ZM22.678,68.034"/>
  <path stroke-opacity="1" fill="#000000" stroke-linecap="butt" stroke-miterlimit="4" stroke-linejoin="miter" stroke-dasharray="none" stroke="none" fill-rule="nonzero" fill-opacity="1" stroke-width="1px" d="M82.162,89.889L62.753,75.784C62.045,75.258,61.633,74.435,61.633,73.566L61.633,36.029C61.633,34.52,62.867,33.285,64.376,33.285L71.692,33.285C73.201,33.285,74.435,34.52,74.435,36.029L74.435,68.423L89.706,79.533C90.94,80.425,91.192,82.139,90.3,83.373L86.003,89.295C85.111,90.506,83.397,90.781,82.162,89.889ZM82.162,89.889"/>
</g>
  <g id="Regular-L" transform="matrix(1.0,0.0,0.0,1.0,1383.0960556816053,1452.7360752128554)">  <path fill-opacity="1" stroke-opacity="1" stroke-linecap="butt" stroke-miterlimit="4" stroke-dasharray="none" fill-rule="evenodd" stroke-width="1px" stroke="none" stroke-linejoin="miter" fill="#000000" clip-rule="evenodd" d="M124.729,68.034C124.729,36.715,99.353,11.339,68.034,11.339C36.715,11.339,11.339,36.715,11.339,68.034C11.339,99.353,36.715,124.729,68.034,124.729C99.353,124.729,124.729,99.353,124.729,68.034ZM22.678,68.034C22.678,42.977,42.977,22.678,68.034,22.678C93.091,22.678,113.39,42.977,113.39,68.034C113.39,93.091,93.091,113.39,68.034,113.39C42.977,113.39,22.678,93.091,22.678,68.034ZM22.678,68.034"/>
  <path fill="#000000" stroke-linecap="butt" fill-opacity="1" stroke-opacity="1" stroke="none" stroke-miterlimit="4" stroke-width="1px" fill-rule="nonzero" stroke-linejoin="miter" stroke-dasharray="none" d="M82.162,89.889L62.753,75.784C62.045,75.258,61.633,74.435,61.633,73.566L61.633,36.029C61.633,34.52,62.867,33.285,64.376,33.285L71.692,33.285C73.201,33.285,74.435,34.52,74.435,36.029L74.435,68.423L89.706,79.533C90.94,80.425,91.192,82.139,90.3,83.373L86.003,89.295C85.111,90.506,83.397,90.781,82.162,89.889ZM82.162,89.889"/>
</g>
  <g id="Light-L" transform="matrix(1.0,0.0,0.0,1.0,1086.3860556816055,1452.7360752128554)">  <path clip-rule="evenodd" stroke-miterlimit="4" fill-rule="evenodd" stroke-opacity="1" stroke-linejoin="miter" stroke-width="1px" stroke-dasharray="none" fill-opacity="1" stroke="none" fill="#000000" stroke-linecap="butt" d="M124.729,68.034C124.729,36.715,99.353,11.339,68.034,11.339C36.715,11.339,11.339,36.715,11.339,68.034C11.339,99.353,36.715,124.729,68.034,124.729C99.353,124.729,124.729,99.353,124.729,68.034ZM22.678,68.034C22.678,42.977,42.977,22.678,68.034,22.678C93.091,22.678,113.39,42.977,113.39,68.034C113.39,93.091,93.091,113.39,68.034,113.39C42.977,113.39,22.678,93.091,22.678,68.034ZM22.678,68.034"/>
  <path stroke-miterlimit="4" stroke-dasharray="none" stroke-linejoin="miter" stroke-opacity="1" fill-opacity="1" stroke-linecap="butt" stroke-width="1px" fill-rule="nonzero" stroke="none" fill="#000000" d="M82.162,89.889L62.753,75.784C62.045,75.258,61.633,74.435,61.633,73.566L61.633,36.029C61.633,34.52,62.867,33.285,64.376,33.285L71.692,33.285C73.201,33.285,74.435,34.52,74.435,36.029L74.435,68.423L89.706,79.533C90.94,80.425,91.192,82.139,90.3,83.373L86.003,89.295C85.111,90.506,83.397,90.781,82.162,89.889ZM82.162,89.889"/>
</g>
  <g id="Thin-L" transform="matrix(1.0,0.0,0.0,1.0,789.6760556816056,1452.7360752128554)">  <path stroke-miterlimit="4" fill-opacity="1" stroke-width="1px" stroke-linejoin="miter" stroke-linecap="butt" clip-rule="evenodd" fill-rule="evenodd" stroke-dasharray="none" fill="#000000" stroke="none" stroke-opacity="1" d="M124.729,68.034C124.729,36.715,99.353,11.339,68.034,11.339C36.715,11.339,11.339,36.715,11.339,68.034C11.339,99.353,36.715,124.729,68.034,124.729C99.353,124.729,124.729,99.353,124.729,68.034ZM22.678,68.034C22.678,42.977,42.977,22.678,68.034,22.678C93.091,22.678,113.39,42.977,113.39,68.034C113.39,93.091,93.091,113.39,68.034,113.39C42.977,113.39,22.678,93.091,22.678,68.034ZM22.678,68.034"/>
  <path fill-opacity="1" stroke-linejoin="miter" stroke-miterlimit="4" fill="#000000" stroke="none" stroke-width="1px" stroke-dasharray="none" stroke-opacity="1" stroke-linecap="butt" fill-rule="nonzero" d="M82.162,89.889L62.753,75.784C62.045,75.258,61.633,74.435,61.633,73.566L61.633,36.029C61.633,34.52,62.867,33.285,64.376,33.285L71.692,33.285C73.201,33.285,74.435,34.52,74.435,36.029L74.435,68.423L89.706,79.533C90.94,80.425,91.192,82.139,90.3,83.373L86.003,89.295C85.111,90.506,83.397,90.781,82.162,89.889ZM82.162,89.889"/>
</g>
  <g id="Ultralight-L" transform="matrix(1.0,0.0,0.0,1.0,492.96605568160555,1452.7360752128554)">  <path stroke-linejoin="miter" stroke="none" stroke-miterlimit="4" stroke-linecap="butt" fill="#000000" fill-rule="evenodd" stroke-dasharray="none" fill-opacity="1" clip-rule="evenodd" stroke-width="1px" stroke-opacity="1" d="M124.729,68.034C124.729,36.715,99.353,11.339,68.034,11.339C36.715,11.339,11.339,36.715,11.339,68.034C11.339,99.353,36.715,124.729,68.034,124.729C99.353,124.729,124.729,99.353,124.729,68.034ZM22.678,68.034C22.678,42.977,42.977,22.678,68.034,22.678C93.091,22.678,113.39,42.977,113.39,68.034C113.39,93.091,93.091,113.39,68.034,113.39C42.977,113.39,22.678,93.091,22.678,68.034ZM22.678,68.034"/>
  <path stroke-width="1px" stroke-opacity="1" stroke="none" stroke-linejoin="miter" fill="#000000" fill-rule="nonzero" stroke-linecap="butt" fill-opacity="1" stroke-dasharray="none" stroke-miterlimit="4" d="M82.162,89.889L62.753,75.784C62.045,75.258,61.633,74.435,61.633,73.566L61.633,36.029C61.633,34.52,62.867,33.285,64.376,33.285L71.692,33.285C73.201,33.285,74.435,34.52,74.435,36.029L74.435,68.423L89.706,79.533C90.94,80.425,91.192,82.139,90.3,83.373L86.003,89.295C85.111,90.506,83.397,90.781,82.162,89.889ZM82.162,89.889"/>
</g>
  <g id="Black-M" transform="matrix(1.0,0.0,0.0,1.0,2881.940508280314,1038.0305278115643)">  <path fill="#000000" clip-rule="evenodd" stroke="none" stroke-dasharray="none" stroke-miterlimit="4" stroke-linejoin="miter" stroke-linecap="butt" stroke-width="1px" fill-opacity="1" fill-rule="evenodd" stroke-opacity="1" d="M96.689,52.739C96.689,28.461,77.018,8.79,52.739,8.79C28.461,8.79,8.79,28.461,8.79,52.739C8.79,77.018,28.461,96.689,52.739,96.689C77.018,96.689,96.689,77.018,96.689,52.739ZM17.58,52.739C17.58,33.316,33.316,17.58,52.739,17.58C72.163,17.58,87.899,33.316,87.899,52.739C87.899,72.163,72.163,87.899,52.739,87.899C33.316,87.899,17.58,72.163,17.58,52.739ZM17.58,52.739"/>
  <path fill-rule="nonzero" stroke-opacity="1" fill-opacity="1" stroke-width="1px" fill="#000000" stroke="none" stroke-linecap="butt" stroke-linejoin="miter" stroke-miterlimit="4" stroke-dasharray="none" d="M63.691,69.681L48.646,58.747C48.097,58.34,47.778,57.701,47.778,57.028L47.778,27.929C47.778,26.76,48.734,25.803,49.904,25.803L55.575,25.803C56.745,25.803,57.701,26.76,57.701,27.929L57.701,53.041L69.54,61.653C70.496,62.345,70.692,63.674,70,64.63L66.669,69.221C65.978,70.16,64.649,70.373,63.691,69.681ZM63.691,69.681"/>
</g>
  <g id="Heavy-M" transform="matrix(1.0,0.0,0.0,1.0,2585.230508280314,1038.0305278115643)">  <path fill-opacity="1" stroke-miterlimit="4" fill="#000000" clip-rule="evenodd" stroke-dasharray="none" stroke-opacity="1" stroke-linejoin="miter" stroke-linecap="butt" stroke="none" fill-rule="evenodd" stroke-width="1px" d="M96.689,52.739C96.689,28.461,77.018,8.79,52.739,8.79C28.461,8.79,8.79,28.461,8.79,52.739C8.79,77.018,28.461,96.689,52.739,96.689C77.018,96.689,96.689,77.018,96.689,52.739ZM17.58,52.739C17.58,33.316,33.316,17.58,52.739,17.58C72.163,17.58,87.899,33.316,87.899,52.739C87.899,72.163,72.163,87.899,52.739,87.899C33.316,87.899,17.58,72.163,17.58,52.739ZM17.58,52.739"/>
  <path stroke-opacity="1" stroke="none" fill="#000000" stroke-linejoin="miter" stroke-miterlimit="4" stroke-width="1px" stroke-dasharray="none" fill-rule="nonzero" stroke-linecap="butt" fill-opacity="1" d="M63.691,69.681L48.646,58.747C48.097,58.34,47.778,57.701,47.778,57.028L47.778,27.929C47.778,26.76,48.734,25.803,49.904,25.803L55.575,25.803C56.745,25.803,57.701,26.76,57.701,27.929L57.701,53.041L69.54,61.653C70.496,62.345,70.692,63.674,70,64.63L66.669,69.221C65.978,70.16,64.649,70.373,63.691,69.681ZM63.691,69.681"/>
</g>
  <g id="Bold-M" transform="matrix(1.0,0.0,0.0,1.0,2288.520508280314,1038.0305278115643)">  <path stroke-opacity="1" stroke="none" stroke-linecap="butt" stroke-miterlimit="4" fill-opacity="1" stroke-width="1px" stroke-linejoin="miter" fill="#000000" stroke-dasharray="none" fill-rule="evenodd" clip-rule="evenodd" d="M96.689,52.739C96.689,28.461,77.018,8.79,52.739,8.79C28.461,8.79,8.79,28.461,8.79,52.739C8.79,77.018,28.461,96.689,52.739,96.689C77.018,96.689,96.689,77.018,96.689,52.739ZM17.58,52.739C17.58,33.316,33.316,17.58,52.739,17.58C72.163,17.58,87.899,33.316,87.899,52.739C87.899,72.163,72.163,87.899,52.739,87.899C33.316,87.899,17.58,72.163,17.58,52.739ZM17.58,52.739"/>
  <path stroke-linecap="butt" stroke-miterlimit="4" stroke-width="1px" stroke-dasharray="none" stroke="none" stroke-opacity="1" fill="#000000" fill-opacity="1" fill-rule="nonzero" stroke-linejoin="miter" d="M63.691,69.681L48.646,58.747C48.097,58.34,47.778,57.701,47.778,57.028L47.778,27.929C47.778,26.76,48.734,25.803,49.904,25.803L55.575,25.803C56.745,25.803,57.701,26.76,57.701,27.929L57.701,53.041L69.54,61.653C70.496,62.345,70.692,63.674,70,64.63L66.669,69.221C65.978,70.16,64.649,70.373,63.691,69.681ZM63.691,69.681"/>
</g>
  <g id="Semibold-M" transform="matrix(1.0,0.0,0.0,1.0,1991.8105082803143,1038.0305278115643)">  <path stroke-miterlimit="4" stroke-linejoin="miter" fill-opacity="1" stroke-dasharray="none" fill-rule="evenodd" clip-rule="evenodd" fill="#000000" stroke-opacity="1" stroke="none" stroke-linecap="butt" stroke-width="1px" d="M96.689,52.739C96.689,28.461,77.018,8.79,52.739,8.79C28.461,8.79,8.79,28.461,8.79,52.739C8.79,77.018,28.461,96.689,52.739,96.689C77.018,96.689,96.689,77.018,96.689,52.739ZM17.58,52.739C17.58,33.316,33.316,17.58,52.739,17.58C72.163,17.58,87.899,33.316,87.899,52.739C87.899,72.163,72.163,87.899,52.739,87.899C33.316,87.899,17.58,72.163,17.58,52.739ZM17.58,52.739"/>
  <path stroke-linecap="butt" stroke-dasharray="none" stroke-linejoin="miter" fill="#000000" fill-rule="nonzero" stroke-miterlimit="4" stroke="none" stroke-opacity="1" stroke-width="1px" fill-opacity="1" d="M63.691,69.681L48.646,58.747C48.097,58.34,47.778,57.701,47.778,57.028L47.778,27.929C47.778,26.76,48.734,25.803,49.904,25.803L55.575,25.803C56.745,25.803,57.701,26.76,57.701,27.929L57.701,53.041L69.54,61.653C70.496,62.345,70.692,63.674,70,64.63L66.669,69.221C65.978,70.16,64.649,70.373,63.691,69.681ZM63.691,69.681"/>
</g>
  <g id="Medium-M" transform="matrix(1.0,0.0,0.0,1.0,1695.1005082803142,1038.0305278115643)">  <path stroke-linecap="butt" stroke-linejoin="miter" stroke-width="1px" stroke-opacity="1" stroke-miterlimit="4" stroke="none" clip-rule="evenodd" fill-rule="evenodd" fill="#000000" fill-opacity="1" stroke-dasharray="none" d="M96.689,52.739C96.689,28.461,77.018,8.79,52.739,8.79C28.461,8.79,8.79,28.461,8.79,52.739C8.79,77.018,28.461,96.689,52.739,96.689C77.018,96.689,96.689,77.018,96.689,52.739ZM17.58,52.739C17.58,33.316,33.316,17.58,52.739,17.58C72.163,17.58,87.899,33.316,87.899,52.739C87.899,72.163,72.163,87.899,52.739,87.899C33.316,87.899,17.58,72.163,17.58,52.739ZM17.58,52.739"/>
  <path stroke-opacity="1" fill="#000000" stroke-linecap="butt" stroke-miterlimit="4" stroke-linejoin="miter" stroke-dasharray="none" stroke="none" fill-rule="nonzero" fill-opacity="1" stroke-width="1px" d="M63.691,69.681L48.646,58.747C48.097,58.34,47.778,57.701,47.778,57.028L47.778,27.929C47.778,26.76,48.734,25.803,49.904,25.803L55.575,25.803C56.745,25.803,57.701,26.76,57.701,27.929L57.701,53.041L69.54,61.653C70.496,62.345,70.692,63.674,70,64.63L66.669,69.221C65.978,70.16,64.649,70.373,63.691,69.681ZM63.691,69.681"/>
</g>
  <g id="Regular-M" transform="matrix(1.0,0.0,0.0,1.0,1398.3905082803142,1038.0305278115643)">  <path fill-opacity="1" stroke-opacity="1" stroke-linecap="butt" stroke-miterlimit="4" stroke-dasharray="none" fill-rule="evenodd" stroke-width="1px" stroke="none" stroke-linejoin="miter" fill="#000000" clip-rule="evenodd" d="M96.689,52.739C96.689,28.461,77.018,8.79,52.739,8.79C28.461,8.79,8.79,28.461,8.79,52.739C8.79,77.018,28.461,96.689,52.739,96.689C77.018,96.689,96.689,77.018,96.689,52.739ZM17.58,52.739C17.58,33.316,33.316,17.58,52.739,17.58C72.163,17.58,87.899,33.316,87.899,52.739C87.899,72.163,72.163,87.899,52.739,87.899C33.316,87.899,17.58,72.163,17.58,52.739ZM17.58,52.739"/>
  <path fill="#000000" stroke-linecap="butt" fill-opacity="1" stroke-opacity="1" stroke="none" stroke-miterlimit="4" stroke-width="1px" fill-rule="nonzero" stroke-linejoin="miter" stroke-dasharray="none" d="M63.691,69.681L48.646,58.747C48.097,58.34,47.778,57.701,47.778,57.028L47.778,27.929C47.778,26.76,48.734,25.803,49.904,25.803L55.575,25.803C56.745,25.803,57.701,26.76,57.701,27.929L57.701,53.041L69.54,61.653C70.496,62.345,70.692,63.674,70,64.63L66.669,69.221C65.978,70.16,64.649,70.373,63.691,69.681ZM63.691,69.681"/>
</g>
  <g id="Light-M" transform="matrix(1.0,0.0,0.0,1.0,1101.6805082803144,1038.0305278115643)">  <path clip-rule="evenodd" stroke-miterlimit="4" fill-rule="evenodd" stroke-opacity="1" stroke-linejoin="miter" stroke-width="1px" stroke-dasharray="none" fill-opacity="1" stroke="none" fill="#000000" stroke-linecap="butt" d="M96.689,52.739C96.689,28.461,77.018,8.79,52.739,8.79C28.461,8.79,8.79,28.461,8.79,52.739C8.79,77.018,28.461,96.689,52.739,96.689C77.018,96.689,96.689,77.018,96.689,52.739ZM17.58,52.739C17.58,33.316,33.316,17.58,52.739,17.58C72.163,17.58,87.899,33.316,87.899,52.739C87.899,72.163,72.163,87.899,52.739,87.899C33.316,87.899,17.58,72.163,17.58,52.739ZM17.58,52.739"/>
  <path stroke-miterlimit="4" stroke-dasharray="none" stroke-linejoin="miter" stroke-opacity="1" fill-opacity="1" stroke-linecap="butt" stroke-width="1px" fill-rule="nonzero" stroke="none" fill="#000000" d="M63.691,69.681L48.646,58.747C48.097,58.34,47.778,57.701,47.778,57.028L47.778,27.929C47.778,26.76,48.734,25.803,49.904,25.803L55.575,25.803C56.745,25.803,57.701,26.76,57.701,27.929L57.701,53.041L69.54,61.653C70.496,62.345,70.692,63.674,70,64.63L66.669,69.221C65.978,70.16,64.649,70.373,63.691,69.681ZM63.691,69.681"/>
</g>
  <g id="Thin-M" transform="matrix(1.0,0.0,0.0,1.0,804.9705082803144,1038.0305278115643)">  <path stroke-miterlimit="4" fill-opacity="1" stroke-width="1px" stroke-linejoin="miter" stroke-linecap="butt" clip-rule="evenodd" fill-rule="evenodd" stroke-dasharray="none" fill="#000000" stroke="none" stroke-opacity="1" d="M96.689,52.739C96.689,28.461,77.018,8.79,52.739,8.79C28.461,8.79,8.79,28.461,8.79,52.739C8.79,77.018,28.461,96.689,52.739,96.689C77.018,96.689,96.689,77.018,96.689,52.739ZM17.58,52.739C17.58,33.316,33.316,17.58,52.739,17.58C72.163,17.58,87.899,33.316,87.899,52.739C87.899,72.163,72.163,87.899,52.739,87.899C33.316,87.899,17.58,72.163,17.58,52.739ZM17.58,52.739"/>
  <path fill-opacity="1" stroke-linejoin="miter" stroke-miterlimit="4" fill="#000000" stroke="none" stroke-width="1px" stroke-dasharray="none" stroke-opacity="1" stroke-linecap="butt" fill-rule="nonzero" d="M63.691,69.681L48.646,58.747C48.097,58.34,47.778,57.701,47.778,57.028L47.778,27.929C47.778,26.76,48.734,25.803,49.904,25.803L55.575,25.803C56.745,25.803,57.701,26.76,57.701,27.929L57.701,53.041L69.54,61.653C70.496,62.345,70.692,63.674,70,64.63L66.669,69.221C65.978,70.16,64.649,70.373,63.691,69.681ZM63.691,69.681"/>
</g>
  <g id="Ultralight-M" transform="matrix(1.0,0.0,0.0,1.0,508.26050828031435,1038.0305278115643)">  <path stroke-linejoin="miter" stroke="none" stroke-miterlimit="4" stroke-linecap="butt" fill="#000000" fill-rule="evenodd" stroke-dasharray="none" fill-opacity="1" clip-rule="evenodd" stroke-width="1px" stroke-opacity="1" d="M96.689,52.739C96.689,28.461,77.018,8.79,52.739,8.79C28.461,8.79,8.79,28.461,8.79,52.739C8.79,77.018,28.461,96.689,52.739,96.689C77.018,96.689,96.689,77.018,96.689,52.739ZM17.58,52.739C17.58,33.316,33.316,17.58,52.739,17.58C72.163,17.58,87.899,33.316,87.899,52.739C87.899,72.163,72.163,87.899,52.739,87.899C33.316,87.899,17.58,72.163,17.58,52.739ZM17.58,52.739"/>
  <path stroke-width="1px" stroke-opacity="1" stroke="none" stroke-linejoin="miter" fill="#000000" fill-rule="nonzero" stroke-linecap="butt" fill-opacity="1" stroke-dasharray="none" stroke-miterlimit="4" d="M63.691,69.681L48.646,58.747C48.097,58.34,47.778,57.701,47.778,57.028L47.778,27.929C47.778,26.76,48.734,25.803,49.904,25.803L55.575,25.803C56.745,25.803,57.701,26.76,57.701,27.929L57.701,53.041L69.54,61.653C70.496,62.345,70.692,63.674,70,64.63L66.669,69.221C65.978,70.16,64.649,70.373,63.691,69.681ZM63.691,69.681"/>
</g>
  <g id="Black-S" transform="matrix(1.0,0.0,0.0,1.0,2893.384977983486,619.4749975147362)">  <path fill="#000000" clip-rule="evenodd" stroke="none" stroke-dasharray="none" stroke-miterlimit="4" stroke-linejoin="miter" stroke-linecap="butt" stroke-width="1px" fill-opacity="1" fill-rule="evenodd" stroke-opacity="1" d="M75.708,41.295C75.708,22.285,60.305,6.883,41.295,6.883C22.285,6.883,6.883,22.285,6.883,41.295C6.883,60.305,22.285,75.708,41.295,75.708C60.305,75.708,75.708,60.305,75.708,41.295ZM13.765,41.295C13.765,26.086,26.086,13.765,41.295,13.765C56.504,13.765,68.825,26.086,68.825,41.295C68.825,56.504,56.504,68.825,41.295,68.825C26.086,68.825,13.765,56.504,13.765,41.295ZM13.765,41.295"/>
  <path fill-rule="nonzero" stroke-opacity="1" fill-opacity="1" stroke-width="1px" fill="#000000" stroke="none" stroke-linecap="butt" stroke-linejoin="miter" stroke-miterlimit="4" stroke-dasharray="none" d="M49.87,54.56L38.09,45.999C37.66,45.68,37.41,45.18,37.41,44.653L37.41,21.869C37.41,20.953,38.159,20.203,39.075,20.203L43.515,20.203C44.431,20.203,45.18,20.953,45.18,21.869L45.18,41.531L54.45,48.275C55.199,48.816,55.352,49.857,54.81,50.606L52.202,54.2C51.66,54.935,50.62,55.102,49.87,54.56ZM49.87,54.56"/>
</g>
  <g id="Heavy-S" transform="matrix(1.0,0.0,0.0,1.0,2596.674977983486,619.4749975147362)">  <path fill-opacity="1" stroke-miterlimit="4" fill="#000000" clip-rule="evenodd" stroke-dasharray="none" stroke-opacity="1" stroke-linejoin="miter" stroke-linecap="butt" stroke="none" fill-rule="evenodd" stroke-width="1px" d="M75.708,41.295C75.708,22.285,60.305,6.883,41.295,6.883C22.285,6.883,6.883,22.285,6.883,41.295C6.883,60.305,22.285,75.708,41.295,75.708C60.305,75.708,75.708,60.305,75.708,41.295ZM13.765,41.295C13.765,26.086,26.086,13.765,41.295,13.765C56.504,13.765,68.825,26.086,68.825,41.295C68.825,56.504,56.504,68.825,41.295,68.825C26.086,68.825,13.765,56.504,13.765,41.295ZM13.765,41.295"/>
  <path stroke-opacity="1" stroke="none" fill="#000000" stroke-linejoin="miter" stroke-miterlimit="4" stroke-width="1px" stroke-dasharray="none" fill-rule="nonzero" stroke-linecap="butt" fill-opacity="1" d="M49.87,54.56L38.09,45.999C37.66,45.68,37.41,45.18,37.41,44.653L37.41,21.869C37.41,20.953,38.159,20.203,39.075,20.203L43.515,20.203C44.431,20.203,45.18,20.953,45.18,21.869L45.18,41.531L54.45,48.275C55.199,48.816,55.352,49.857,54.81,50.606L52.202,54.2C51.66,54.935,50.62,55.102,49.87,54.56ZM49.87,54.56"/>
</g>
  <g id="Bold-S" transform="matrix(1.0,0.0,0.0,1.0,2299.964977983486,619.4749975147362)">  <path stroke-opacity="1" stroke="none" stroke-linecap="butt" stroke-miterlimit="4" fill-opacity="1" stroke-width="1px" stroke-linejoin="miter" fill="#000000" stroke-dasharray="none" fill-rule="evenodd" clip-rule="evenodd" d="M75.708,41.295C75.708,22.285,60.305,6.883,41.295,6.883C22.285,6.883,6.883,22.285,6.883,41.295C6.883,60.305,22.285,75.708,41.295,75.708C60.305,75.708,75.708,60.305,75.708,41.295ZM13.765,41.295C13.765,26.086,26.086,13.765,41.295,13.765C56.504,13.765,68.825,26.086,68.825,41.295C68.825,56.504,56.504,68.825,41.295,68.825C26.086,68.825,13.765,56.504,13.765,41.295ZM13.765,41.295"/>
  <path stroke-linecap="butt" stroke-miterlimit="4" stroke-width="1px" stroke-dasharray="none" stroke="none" stroke-opacity="1" fill="#000000" fill-opacity="1" fill-rule="nonzero" stroke-linejoin="miter" d="M49.87,54.56L38.09,45.999C37.66,45.68,37.41,45.18,37.41,44.653L37.41,21.869C37.41,20.953,38.159,20.203,39.075,20.203L43.515,20.203C44.431,20.203,45.18,20.953,45.18,21.869L45.18,41.531L54.45,48.275C55.199,48.816,55.352,49.857,54.81,50.606L52.202,54.2C51.66,54.935,50.62,55.102,49.87,54.56ZM49.87,54.56"/>
</g>
  <g id="Semibold-S" transform="matrix(1.0,0.0,0.0,1.0,2003.254977983486,619.4749975147362)">  <path stroke-miterlimit="4" stroke-linejoin="miter" fill-opacity="1" stroke-dasharray="none" fill-rule="evenodd" clip-rule="evenodd" fill="#000000" stroke-opacity="1" stroke="none" stroke-linecap="butt" stroke-width="1px" d="M75.708,41.295C75.708,22.285,60.305,6.883,41.295,6.883C22.285,6.883,6.883,22.285,6.883,41.295C6.883,60.305,22.285,75.708,41.295,75.708C60.305,75.708,75.708,60.305,75.708,41.295ZM13.765,41.295C13.765,26.086,26.086,13.765,41.295,13.765C56.504,13.765,68.825,26.086,68.825,41.295C68.825,56.504,56.504,68.825,41.295,68.825C26.086,68.825,13.765,56.504,13.765,41.295ZM13.765,41.295"/>
  <path stroke-linecap="butt" stroke-dasharray="none" stroke-linejoin="miter" fill="#000000" fill-rule="nonzero" stroke-miterlimit="4" stroke="none" stroke-opacity="1" stroke-width="1px" fill-opacity="1" d="M49.87,54.56L38.09,45.999C37.66,45.68,37.41,45.18,37.41,44.653L37.41,21.869C37.41,20.953,38.159,20.203,39.075,20.203L43.515,20.203C44.431,20.203,45.18,20.953,45.18,21.869L45.18,41.531L54.45,48.275C55.199,48.816,55.352,49.857,54.81,50.606L52.202,54.2C51.66,54.935,50.62,55.102,49.87,54.56ZM49.87,54.56"/>
</g>
  <g id="Medium-S" transform="matrix(1.0,0.0,0.0,1.0,1706.544977983486,619.4749975147362)">  <path stroke-linecap="butt" stroke-linejoin="miter" stroke-width="1px" stroke-opacity="1" stroke-miterlimit="4" stroke="none" clip-rule="evenodd" fill-rule="evenodd" fill="#000000" fill-opacity="1" stroke-dasharray="none" d="M75.708,41.295C75.708,22.285,60.305,6.883,41.295,6.883C22.285,6.883,6.883,22.285,6.883,41.295C6.883,60.305,22.285,75.708,41.295,75.708C60.305,75.708,75.708,60.305,75.708,41.295ZM13.765,41.295C13.765,26.086,26.086,13.765,41.295,13.765C56.504,13.765,68.825,26.086,68.825,41.295C68.825,56.504,56.504,68.825,41.295,68.825C26.086,68.825,13.765,56.504,13.765,41.295ZM13.765,41.295"/>
  <path stroke-opacity="1" fill="#000000" stroke-linecap="butt" stroke-miterlimit="4" stroke-linejoin="miter" stroke-dasharray="none" stroke="none" fill-rule="nonzero" fill-opacity="1" stroke-width="1px" d="M49.87,54.56L38.09,45.999C37.66,45.68,37.41,45.18,37.41,44.653L37.41,21.869C37.41,20.953,38.159,20.203,39.075,20.203L43.515,20.203C44.431,20.203,45.18,20.953,45.18,21.869L45.18,41.531L54.45,48.275C55.199,48.816,55.352,49.857,54.81,50.606L52.202,54.2C51.66,54.935,50.62,55.102,49.87,54.56ZM49.87,54.56"/>
</g>
  <g id="Regular-S" transform="matrix(1.0,0.0,0.0,1.0,1409.834977983486,619.4749975147362)">  <path fill-opacity="1" stroke-opacity="1" stroke-linecap="butt" stroke-miterlimit="4" stroke-dasharray="none" fill-rule="evenodd" stroke-width="1px" stroke="none" stroke-linejoin="miter" fill="#000000" clip-rule="evenodd" d="M75.708,41.295C75.708,22.285,60.305,6.883,41.295,6.883C22.285,6.883,6.883,22.285,6.883,41.295C6.883,60.305,22.285,75.708,41.295,75.708C60.305,75.708,75.708,60.305,75.708,41.295ZM13.765,41.295C13.765,26.086,26.086,13.765,41.295,13.765C56.504,13.765,68.825,26.086,68.825,41.295C68.825,56.504,56.504,68.825,41.295,68.825C26.086,68.825,13.765,56.504,13.765,41.295ZM13.765,41.295"/>
  <path fill="#000000" stroke-linecap="butt" fill-opacity="1" stroke-opacity="1" stroke="none" stroke-miterlimit="4" stroke-width="1px" fill-rule="nonzero" stroke-linejoin="miter" stroke-dasharray="none" d="M49.87,54.56L38.09,45.999C37.66,45.68,37.41,45.18,37.41,44.653L37.41,21.869C37.41,20.953,38.159,20.203,39.075,20.203L43.515,20.203C44.431,20.203,45.18,20.953,45.18,21.869L45.18,41.531L54.45,48.275C55.199,48.816,55.352,49.857,54.81,50.606L52.202,54.2C51.66,54.935,50.62,55.102,49.87,54.56ZM49.87,54.56"/>
</g>
  <g id="Light-S" transform="matrix(1.0,0.0,0.0,1.0,1113.1249779834861,619.4749975147362)">  <path clip-rule="evenodd" stroke-miterlimit="4" fill-rule="evenodd" stroke-opacity="1" stroke-linejoin="miter" stroke-width="1px" stroke-dasharray="none" fill-opacity="1" stroke="none" fill="#000000" stroke-linecap="butt" d="M75.708,41.295C75.708,22.285,60.305,6.883,41.295,6.883C22.285,6.883,6.883,22.285,6.883,41.295C6.883,60.305,22.285,75.708,41.295,75.708C60.305,75.708,75.708,60.305,75.708,41.295ZM13.765,41.295C13.765,26.086,26.086,13.765,41.295,13.765C56.504,13.765,68.825,26.086,68.825,41.295C68.825,56.504,56.504,68.825,41.295,68.825C26.086,68.825,13.765,56.504,13.765,41.295ZM13.765,41.295"/>
  <path stroke-miterlimit="4" stroke-dasharray="none" stroke-linejoin="miter" stroke-opacity="1" fill-opacity="1" stroke-linecap="butt" stroke-width="1px" fill-rule="nonzero" stroke="none" fill="#000000" d="M49.87,54.56L38.09,45.999C37.66,45.68,37.41,45.18,37.41,44.653L37.41,21.869C37.41,20.953,38.159,20.203,39.075,20.203L43.515,20.203C44.431,20.203,45.18,20.953,45.18,21.869L45.18,41.531L54.45,48.275C55.199,48.816,55.352,49.857,54.81,50.606L52.202,54.2C51.66,54.935,50.62,55.102,49.87,54.56ZM49.87,54.56"/>
</g>
  <g id="Thin-S" transform="matrix(1.0,0.0,0.0,1.0,816.4149779834862,619.4749975147362)">  <path stroke-miterlimit="4" fill-opacity="1" stroke-width="1px" stroke-linejoin="miter" stroke-linecap="butt" clip-rule="evenodd" fill-rule="evenodd" stroke-dasharray="none" fill="#000000" stroke="none" stroke-opacity="1" d="M75.708,41.295C75.708,22.285,60.305,6.883,41.295,6.883C22.285,6.883,6.883,22.285,6.883,41.295C6.883,60.305,22.285,75.708,41.295,75.708C60.305,75.708,75.708,60.305,75.708,41.295ZM13.765,41.295C13.765,26.086,26.086,13.765,41.295,13.765C56.504,13.765,68.825,26.086,68.825,41.295C68.825,56.504,56.504,68.825,41.295,68.825C26.086,68.825,13.765,56.504,13.765,41.295ZM13.765,41.295"/>
  <path fill-opacity="1" stroke-linejoin="miter" stroke-miterlimit="4" fill="#000000" stroke="none" stroke-width="1px" stroke-dasharray="none" stroke-opacity="1" stroke-linecap="butt" fill-rule="nonzero" d="M49.87,54.56L38.09,45.999C37.66,45.68,37.41,45.18,37.41,44.653L37.41,21.869C37.41,20.953,38.159,20.203,39.075,20.203L43.515,20.203C44.431,20.203,45.18,20.953,45.18,21.869L45.18,41.531L54.45,48.275C55.199,48.816,55.352,49.857,54.81,50.606L52.202,54.2C51.66,54.935,50.62,55.102,49.87,54.56ZM49.87,54.56"/>
</g>
  <g id="Ultralight-S" transform="matrix(1.0,0.0,0.0,1.0,519.7049779834862,619.4749975147362)">  <path stroke-linejoin="miter" stroke="none" stroke-miterlimit="4" stroke-linecap="butt" fill="#000000" fill-rule="evenodd" stroke-dasharray="none" fill-opacity="1" clip-rule="evenodd" stroke-width="1px" stroke-opacity="1" d="M75.708,41.295C75.708,22.285,60.305,6.883,41.295,6.883C22.285,6.883,6.883,22.285,6.883,41.295C6.883,60.305,22.285,75.708,41.295,75.708C60.305,75.708,75.708,60.305,75.708,41.295ZM13.765,41.295C13.765,26.086,26.086,13.765,41.295,13.765C56.504,13.765,68.825,26.086,68.825,41.295C68.825,56.504,56.504,68.825,41.295,68.825C26.086,68.825,13.765,56.504,13.765,41.295ZM13.765,41.295"/>
  <path stroke-width="1px" stroke-opacity="1" stroke="none" stroke-linejoin="miter" fill="#000000" fill-rule="nonzero" stroke-linecap="butt" fill-opacity="1" stroke-dasharray="none" stroke-miterlimit="4" d="M49.87,54.56L38.09,45.999C37.66,45.68,37.41,45.18,37.41,44.653L37.41,21.869C37.41,20.953,38.159,20.203,39.075,20.203L43.515,20.203C44.431,20.203,45.18,20.953,45.18,21.869L45.18,41.531L54.45,48.275C55.199,48.816,55.352,49.857,54.81,50.606L52.202,54.2C51.66,54.935,50.62,55.102,49.87,54.56ZM49.87,54.56"/>
</g>
 </g>
</svg>
