<?xml version="1.0" encoding="UTF-8"?>
<!-- Generator: CustomSymbols v2.6.1.40 by @serious_bret https://bretlester.com/app_content/CustomSymbols/ -->
<!-- Guides: Left/Right 0.082/0.082 Cap/Base 0.29/0.216 -->
<!-- Settings: RefScale 1.0 Min/Max Stroke Scales 0.5/2.21 -->
<!DOCTYPE svg
PUBLIC "-//W3C//DTD SVG 1.1//EN"
       "http://www.w3.org/Graphics/SVG/1.1/DTD/svg11.dtd">
<svg version="1.1" xmlns="http://www.w3.org/2000/svg" xmlns:xlink="http://www.w3.org/1999/xlink" width="3300" height="2200">
<![CDATA[<svg width="24" height="24" viewBox="0 0 24 24" fill="none" xmlns="http://www.w3.org/2000/svg">
<path fill-rule="evenodd" clip-rule="evenodd" d="M21.1885 13.6853C20.6391 12.9691 19.9387 12.5061 19.0757 12.2917C18.8352 12.2319 18.7093 11.8995 18.866 11.6527C19.1173 11.257 19.2395 10.8243 19.2395 10.3434C19.2395 9.66632 19.0135 9.09823 18.5482 8.61331C18.0748 8.12014 17.5076 7.87529 16.8297 7.87529C16.2239 7.87529 15.7029 8.07733 15.2549 8.48501C15.0806 8.64366 14.8186 8.57911 14.7216 8.33225C14.3278 7.33047 13.6994 6.52842 12.8287 5.91899C11.9532 5.30609 10.989 5 9.92987 5C8.49024 5 7.27245 5.52581 6.25993 6.58064C5.25552 7.62677 4.75996 8.8726 4.75996 10.3436C4.75996 10.4319 4.76728 10.5878 4.78058 10.7969C4.79197 10.9757 4.7007 11.1365 4.56479 11.2025C3.77679 11.5851 3.15437 12.1542 2.69021 12.9138C2.22872 13.6694 2 14.486 2 15.3754C2 16.6442 2.42933 17.7195 3.30081 18.6274C4.17978 19.5433 5.23383 20 6.47996 20H18.2101C19.2686 20 20.1611 19.6147 20.9041 18.8409C21.6392 18.0751 22 17.1681 22 16.0943C21.9999 15.1911 21.732 14.3939 21.1885 13.6853ZM17.1052 9.9982C17.2112 10.1086 17.2395 10.1798 17.2395 10.3434C17.2395 10.4497 17.2225 10.51 17.1778 10.5804C16.2988 11.9642 17.0089 13.839 18.5935 14.2327C19.0141 14.3372 19.3261 14.5435 19.6015 14.9026C19.8759 15.2603 19.9999 15.6293 20 16.0945C20 16.6546 19.8369 17.0645 19.4613 17.4558C19.0932 17.8391 18.7206 18 18.2101 18H6.47996C5.78283 18 5.24854 17.7685 4.74376 17.2425C4.23099 16.7083 4 16.1297 4 15.3754C4 14.8531 4.12767 14.3973 4.39696 13.9564C4.66265 13.5216 4.99691 13.2159 5.43835 13.0016C6.31288 12.577 6.83894 11.6503 6.77655 10.6698C6.76588 10.5022 6.75996 10.3762 6.75996 10.3436C6.75996 9.38615 7.05779 8.6374 7.7027 7.96571C8.34046 7.3013 9.03827 7 9.92987 7C10.5772 7 11.1412 7.17905 11.6818 7.55747C12.2288 7.94038 12.6096 8.42633 12.8602 9.06388C13.4649 10.6023 15.3809 11.0744 16.6009 9.96427C16.6812 9.89126 16.7223 9.87529 16.8297 9.87529C16.9596 9.87529 17.0068 9.89565 17.1052 9.9982Z" fill="black"/>
</svg>
]]>
 <g id="Notes">
  <rect height="2200" id="artboard" style="fill:white;opacity:1" width="3300" x="0" y="0"/>
  <line id="" style="fill:none;stroke:black;opacity:1;stroke-width:0.5;" x1="263" x2="3036" y1="292" y2="292"/>
  <text id="reftext1" style="stroke:none;fill:black;font-family:-apple-system,&quot;SF Pro Display&quot;,&quot;SF Pro Text&quot;,Helvetica,sans-serif;font-weight:bold;" transform="matrix(1 0 0 1 263 322)">Weight/Scale Variations</text>
  <text id="reftext2" style="stroke:none;fill:black;font-family:-apple-system,&quot;SF Pro Display&quot;,&quot;SF Pro Text&quot;,Helvetica,sans-serif;text-anchor:middle;" transform="matrix(1 0 0 1 559.711 322)">Ultralight</text>
  <text style="stroke:none;fill:black;font-family:-apple-system,&quot;SF Pro Display&quot;,&quot;SF Pro Text&quot;,Helvetica,sans-serif;text-anchor:middle;" transform="matrix(1 0 0 1 856.422 322)">Thin</text>
  <text style="stroke:none;fill:black;font-family:-apple-system,&quot;SF Pro Display&quot;,&quot;SF Pro Text&quot;,Helvetica,sans-serif;text-anchor:middle;" transform="matrix(1 0 0 1 1153.13 322)">Light</text>
  <text style="stroke:none;fill:black;font-family:-apple-system,&quot;SF Pro Display&quot;,&quot;SF Pro Text&quot;,Helvetica,sans-serif;text-anchor:middle;" transform="matrix(1 0 0 1 1449.84 322)">Regular</text>
  <text style="stroke:none;fill:black;font-family:-apple-system,&quot;SF Pro Display&quot;,&quot;SF Pro Text&quot;,Helvetica,sans-serif;text-anchor:middle;" transform="matrix(1 0 0 1 1746.56 322)">Medium</text>
  <text style="stroke:none;fill:black;font-family:-apple-system,&quot;SF Pro Display&quot;,&quot;SF Pro Text&quot;,Helvetica,sans-serif;text-anchor:middle;" transform="matrix(1 0 0 1 2043.27 322)">Semibold</text>
  <text style="stroke:none;fill:black;font-family:-apple-system,&quot;SF Pro Display&quot;,&quot;SF Pro Text&quot;,Helvetica,sans-serif;text-anchor:middle;" transform="matrix(1 0 0 1 2339.98 322)">Bold</text>
  <text style="stroke:none;fill:black;font-family:-apple-system,&quot;SF Pro Display&quot;,&quot;SF Pro Text&quot;,Helvetica,sans-serif;text-anchor:middle;" transform="matrix(1 0 0 1 2636.69 322)">Heavy</text>
  <text style="stroke:none;fill:black;font-family:-apple-system,&quot;SF Pro Display&quot;,&quot;SF Pro Text&quot;,Helvetica,sans-serif;text-anchor:middle;" transform="matrix(1 0 0 1 2933.4 322)">Black</text>
  <line id="" style="fill:none;stroke:black;opacity:1;stroke-width:0.5;" x1="263" x2="3036" y1="1903" y2="1903"/>
  <g id="" transform="matrix(1 0 0 1 263 1933)">
   <path d="M9.24805 0.830078C13.5547 0.830078 17.1387-2.74414 17.1387-7.05078C17.1387-11.3574 13.5449-14.9316 9.23828-14.9316C4.94141-14.9316 1.36719-11.3574 1.36719-7.05078C1.36719-2.74414 4.95117 0.830078 9.24805 0.830078ZM9.24805-0.654297C5.70312-0.654297 2.87109-3.49609 2.87109-7.05078C2.87109-10.6055 5.69336-13.4473 9.23828-13.4473C12.793-13.4473 15.6348-10.6055 15.6445-7.05078C15.6543-3.49609 12.8027-0.654297 9.24805-0.654297ZM6.39648-6.31836L8.50586-6.31836L8.50586-4.19922C8.50586-3.75977 8.79883-3.45703 9.22852-3.45703C9.67773-3.45703 9.9707-3.75977 9.9707-4.19922L9.9707-6.31836L12.0996-6.31836C12.5391-6.31836 12.8418-6.61133 12.8418-7.04102C12.8418-7.48047 12.5391-7.7832 12.0996-7.7832L9.9707-7.7832L9.9707-9.89258C9.9707-10.3418 9.67773-10.6445 9.22852-10.6445C8.79883-10.6445 8.50586-10.3418 8.50586-9.89258L8.50586-7.7832L6.39648-7.7832C5.94727-7.7832 5.64453-7.48047 5.64453-7.04102C5.64453-6.61133 5.94727-6.31836 6.39648-6.31836Z"/>
  </g>
  <g id="" transform="matrix(1 0 0 1 281.506 1933)">
   <path d="M11.709 2.91016C17.1582 2.91016 21.6699-1.61133 21.6699-7.05078C21.6699-12.5 17.1484-17.0117 11.6992-17.0117C6.25977-17.0117 1.74805-12.5 1.74805-7.05078C1.74805-1.61133 6.26953 2.91016 11.709 2.91016ZM11.709 1.25C7.09961 1.25 3.41797-2.44141 3.41797-7.05078C3.41797-11.6602 7.08984-15.3516 11.6992-15.3516C16.3086-15.3516 20-11.6602 20.0098-7.05078C20.0195-2.44141 16.3184 1.25 11.709 1.25ZM7.98828-6.23047L10.8789-6.23047L10.8789-3.32031C10.8789-2.83203 11.2109-2.5 11.6895-2.5C12.1777-2.5 12.5195-2.83203 12.5195-3.32031L12.5195-6.23047L15.4297-6.23047C15.918-6.23047 16.25-6.5625 16.25-7.04102C16.25-7.5293 15.918-7.87109 15.4297-7.87109L12.5195-7.87109L12.5195-10.7617C12.5195-11.2695 12.1777-11.6016 11.6895-11.6016C11.2109-11.6016 10.8789-11.2598 10.8789-10.7617L10.8789-7.87109L7.98828-7.87109C7.48047-7.87109 7.14844-7.5293 7.14844-7.04102C7.14844-6.5625 7.49023-6.23047 7.98828-6.23047Z"/>
  </g>
  <g id="" transform="matrix(1 0 0 1 304.924 1933)">
   <path d="M14.9707 5.66406C21.9336 5.66406 27.6953-0.0976562 27.6953-7.05078C27.6953-14.0137 21.9238-19.7754 14.9609-19.7754C8.00781-19.7754 2.25586-14.0137 2.25586-7.05078C2.25586-0.0976562 8.01758 5.66406 14.9707 5.66406ZM14.9707 3.84766C8.93555 3.84766 4.08203-1.01562 4.08203-7.05078C4.08203-13.0957 8.92578-17.9492 14.9609-17.9492C21.0059-17.9492 25.8594-13.0957 25.8691-7.05078C25.8789-1.01562 21.0156 3.84766 14.9707 3.84766ZM10.0586-6.14258L14.0625-6.14258L14.0625-2.12891C14.0625-1.5918 14.4336-1.2207 14.9512-1.2207C15.4883-1.2207 15.8594-1.5918 15.8594-2.12891L15.8594-6.14258L19.8828-6.14258C20.4102-6.14258 20.791-6.51367 20.791-7.03125C20.791-7.56836 20.4199-7.94922 19.8828-7.94922L15.8594-7.94922L15.8594-11.9531C15.8594-12.5098 15.4883-12.8809 14.9512-12.8809C14.4336-12.8809 14.0625-12.5 14.0625-11.9531L14.0625-7.94922L10.0586-7.94922C9.50195-7.94922 9.13086-7.56836 9.13086-7.03125C9.13086-6.51367 9.51172-6.14258 10.0586-6.14258Z"/>
  </g>
  <text style="stroke:none;fill:black;font-family:-apple-system,&quot;SF Pro Display&quot;,&quot;SF Pro Text&quot;,Helvetica,sans-serif;font-weight:bold;" transform="matrix(1 0 0 1 263 1953)">Design Variations</text>
  <text style="stroke:none;fill:black;font-family:-apple-system,&quot;SF Pro Display&quot;,&quot;SF Pro Text&quot;,Helvetica,sans-serif;" transform="matrix(1 0 0 1 263 1971)">Symbols are supported in up to nine weights and three scales.</text>
  <text style="stroke:none;fill:black;font-family:-apple-system,&quot;SF Pro Display&quot;,&quot;SF Pro Text&quot;,Helvetica,sans-serif;" transform="matrix(1 0 0 1 263 1989)">For optimal layout with text and other symbols, vertically align</text>
  <text style="stroke:none;fill:black;font-family:-apple-system,&quot;SF Pro Display&quot;,&quot;SF Pro Text&quot;,Helvetica,sans-serif;" transform="matrix(1 0 0 1 263 2007)">symbols with the adjacent text.</text>
  <line id="" style="fill:none;stroke:#00AEEF;stroke-width:0.5;opacity:1.0;" x1="776" x2="776" y1="1919" y2="1933"/>
  <g id="" transform="matrix(1 0 0 1 776 1933)">
   <path d="M3.31055 0.126953C3.82812 0.126953 4.08203-0.0683594 4.26758-0.605469L5.52734-4.0625L11.2891-4.0625L12.5488-0.605469C12.7344-0.0683594 12.9883 0.126953 13.4961 0.126953C14.0137 0.126953 14.3457-0.185547 14.3457-0.673828C14.3457-0.839844 14.3164-0.986328 14.2383-1.20117L9.6582-13.3887C9.43359-13.9941 9.0332-14.2871 8.4082-14.2871C7.80273-14.2871 7.39258-13.9941 7.17773-13.3984L2.59766-1.19141C2.51953-0.976562 2.49023-0.830078 2.49023-0.664062C2.49023-0.175781 2.80273 0.126953 3.31055 0.126953ZM6.00586-5.53711L8.37891-12.1094L8.42773-12.1094L10.8008-5.53711Z"/>
  </g>
  <line id="" style="fill:none;stroke:#00AEEF;stroke-width:0.5;opacity:1.0;" x1="792.836" x2="792.836" y1="1919" y2="1933"/>
  <text style="stroke:none;fill:black;font-family:-apple-system,&quot;SF Pro Display&quot;,&quot;SF Pro Text&quot;,Helvetica,sans-serif;font-weight:bold;" transform="matrix(1 0 0 1 776 1953)">Margins</text>
  <text style="stroke:none;fill:black;font-family:-apple-system,&quot;SF Pro Display&quot;,&quot;SF Pro Text&quot;,Helvetica,sans-serif;" transform="matrix(1 0 0 1 776 1971)">Leading and trailing margins on the left and right side of each symbol</text>
  <text style="stroke:none;fill:black;font-family:-apple-system,&quot;SF Pro Display&quot;,&quot;SF Pro Text&quot;,Helvetica,sans-serif;" transform="matrix(1 0 0 1 776 1989)">can be adjusted by modifying the x-location of the margin guidelines.</text>
  <text style="stroke:none;fill:black;font-family:-apple-system,&quot;SF Pro Display&quot;,&quot;SF Pro Text&quot;,Helvetica,sans-serif;" transform="matrix(1 0 0 1 776 2007)">Modifications are automatically applied proportionally to all</text>
  <text style="stroke:none;fill:black;font-family:-apple-system,&quot;SF Pro Display&quot;,&quot;SF Pro Text&quot;,Helvetica,sans-serif;" transform="matrix(1 0 0 1 776 2025)">scales and weights.</text>
  <g id="" transform="matrix(1 0 0 1 1289 1933)">
   <path d="M2.8418 1.86523L4.54102 3.57422C5.40039 4.44336 6.38672 4.38477 7.31445 3.35938L17.4902-7.85156C17.7539-7.76367 18.0273-7.7832 18.3398-7.8418L19.4043-8.03711L20.0684-7.36328L20.0293-6.80664C19.9902-6.30859 20.1172-5.92773 20.6055-5.44922L21.3672-4.70703C21.8457-4.22852 22.4609-4.19922 22.9297-4.66797L25.8398-7.58789C26.3086-8.05664 26.2891-8.65234 25.8105-9.13086L25.0391-9.89258C24.5605-10.3711 24.1895-10.5273 23.7109-10.4883L23.1348-10.4395L22.4902-11.0742L22.7344-12.1973C22.8613-12.7637 22.7051-13.2031 22.1191-13.7891L19.9219-15.9766C16.582-19.2969 12.1484-19.2188 9.25781-16.3281C8.83789-15.918 8.80859-15.3418 9.04297-14.9512C9.27734-14.5898 9.73633-14.3555 10.3809-14.5215C11.8457-14.8633 13.3691-14.9219 14.7949-13.9844L14.209-12.5293C14.0137-12.0508 13.9844-11.6504 14.1113-11.2891L3.04688-0.898438C2.06055 0.0195312 1.98242 0.996094 2.8418 1.86523ZM10.752-15.957C13.1836-17.7344 16.4746-17.4316 18.7012-15.2051L21.1328-12.793C21.3672-12.5586 21.4062-12.373 21.3379-12.0312L21.0156-10.5469L22.5195-9.0625L23.5059-9.12109C23.7598-9.13086 23.8379-9.11133 24.0332-8.91602L24.6094-8.33984L22.168-5.89844L21.5918-6.47461C21.3965-6.66992 21.3672-6.74805 21.377-7.01172L21.4453-7.98828L19.9512-9.47266L18.4277-9.21875C18.1055-9.15039 17.959-9.17969 17.7148-9.41406L15.7129-11.416C15.459-11.6504 15.4297-11.8164 15.5859-12.1875L16.4648-14.2773C14.9023-15.7324 12.8711-16.3574 10.8398-15.7617C10.6836-15.7227 10.625-15.8496 10.752-15.957ZM5.27344 2.30469L4.10156 1.14258C3.63281 0.683594 3.74023 0.341797 4.14062-0.0195312L14.9512-10.1953L16.416-8.71094L6.42578 2.27539C6.07422 2.67578 5.74219 2.77344 5.27344 2.30469Z"/>
  </g>
  <text style="stroke:none;fill:black;font-family:-apple-system,&quot;SF Pro Display&quot;,&quot;SF Pro Text&quot;,Helvetica,sans-serif;font-weight:bold;" transform="matrix(1 0 0 1 1289 1953)">Exporting</text>
  <text style="stroke:none;fill:black;font-family:-apple-system,&quot;SF Pro Display&quot;,&quot;SF Pro Text&quot;,Helvetica,sans-serif;" transform="matrix(1 0 0 1 1289 1971)">Symbols should be outlined when exporting to ensure the</text>
  <text style="stroke:none;fill:black;font-family:-apple-system,&quot;SF Pro Display&quot;,&quot;SF Pro Text&quot;,Helvetica,sans-serif;" transform="matrix(1 0 0 1 1289 1989)">design is preserved when submitting to Xcode.</text>
  <text id="template-version" style="stroke:none;fill:black;font-family:-apple-system,&quot;SF Pro Display&quot;,&quot;SF Pro Text&quot;,Helvetica,sans-serif;text-anchor:end;" transform="matrix(1 0 0 1 3036 1933)">Template v.2.0</text>
  <text style="stroke:none;fill:black;font-family:-apple-system,&quot;SF Pro Display&quot;,&quot;SF Pro Text&quot;,Helvetica,sans-serif;text-anchor:end;" transform="matrix(1 0 0 1 3036 1951)">Requires Xcode 12 or greater</text>
  <text style="stroke:none;fill:black;font-family:-apple-system,&quot;SF Pro Display&quot;,&quot;SF Pro Text&quot;,Helvetica,sans-serif;" transform="matrix(1 0 0 1 263 726)">Small</text>
  <text style="stroke:none;fill:black;font-family:-apple-system,&quot;SF Pro Display&quot;,&quot;SF Pro Text&quot;,Helvetica,sans-serif;" transform="matrix(1 0 0 1 263 1156)">Medium</text>
  <text style="stroke:none;fill:black;font-family:-apple-system,&quot;SF Pro Display&quot;,&quot;SF Pro Text&quot;,Helvetica,sans-serif;" transform="matrix(1 0 0 1 263 1586)">Large</text>
 </g>
 <g id="Guides">
  <g id="H-reference" style="fill:#27AAE1;stroke:none;" transform="matrix(1 0 0 1 339 696)">
   <path d="M0.976562 0L3.66211 0L12.9883-24.4629L45.752-24.4629L55.127 0L57.7637 0L30.6152-70.459L28.125-70.459ZM29.3457-67.1387L29.4434-67.1387L44.873-26.709L13.8672-26.709Z"/>
  </g>
  <line id="Baseline-S" style="fill:none;stroke:#27AAE1;opacity:1;stroke-width:0.5;" x1="263" x2="3036" y1="696" y2="696"/>
  <line id="Capline-S" style="fill:none;stroke:#27AAE1;opacity:1;stroke-width:0.5;" x1="263" x2="3036" y1="625.541" y2="625.541"/>
  <g id="H-reference" style="fill:#27AAE1;stroke:none;" transform="matrix(1 0 0 1 339 1126)">
   <path d="M0.976562 0L3.66211 0L12.9883-24.4629L45.752-24.4629L55.127 0L57.7637 0L30.6152-70.459L28.125-70.459ZM29.3457-67.1387L29.4434-67.1387L44.873-26.709L13.8672-26.709Z"/>
  </g>
  <line id="Baseline-M" style="fill:none;stroke:#27AAE1;opacity:1;stroke-width:0.5;" x1="263" x2="3036" y1="1126" y2="1126"/>
  <line id="Capline-M" style="fill:none;stroke:#27AAE1;opacity:1;stroke-width:0.5;" x1="263" x2="3036" y1="1055.54" y2="1055.54"/>
  <g id="H-reference" style="fill:#27AAE1;stroke:none;" transform="matrix(1 0 0 1 339 1556)">
   <path d="M0.976562 0L3.66211 0L12.9883-24.4629L45.752-24.4629L55.127 0L57.7637 0L30.6152-70.459L28.125-70.459ZM29.3457-67.1387L29.4434-67.1387L44.873-26.709L13.8672-26.709Z"/>
  </g>
  <line id="Baseline-L" style="fill:none;stroke:#27AAE1;opacity:1;stroke-width:0.5;" x1="263" x2="3036" y1="1556" y2="1556"/>
  <line id="Capline-L" style="fill:none;stroke:#27AAE1;opacity:1;stroke-width:0.5;" x1="263" x2="3036" y1="1485.54" y2="1485.54"/>
  <line id="left-margin" x1="1391.5100330528844" x2="1391.5100330528844" y1="1030.79" y2="1150.12" style="fill:none;stroke:#00AEEF;stroke-width:0.5;opacity:1.0;"/>
  <line id="right-margin" x1="1510.7499669471154" x2="1510.7499669471154" y1="1030.79" y2="1150.12" style="fill:none;stroke:#00AEEF;stroke-width:0.5;opacity:1.0;"/>
 </g>
 <g id="Symbols">
  <g id="Black-L" transform="matrix(1.0,0.0,0.0,1.0,2842.6826825816042,1421.964900623893)">  <path stroke-linecap="butt" fill="#000000" fill-opacity="1" stroke-dasharray="none" fill-rule="evenodd" stroke-width="1px" stroke="none" stroke-opacity="1" stroke-linejoin="miter" stroke-miterlimit="4" clip-rule="evenodd" d="M162.44,104.918C158.228,99.427,152.859,95.877,146.243,94.234C144.399,93.775,143.434,91.227,144.635,89.335C146.562,86.301,147.499,82.984,147.499,79.297C147.499,74.106,145.766,69.751,142.199,66.033C138.569,62.253,134.221,60.375,129.024,60.375C124.38,60.375,120.385,61.924,116.951,65.05C115.615,66.266,113.606,65.771,112.862,63.879C109.843,56.199,105.026,50.05,98.35,45.378C91.639,40.679,84.247,38.332,76.127,38.332C65.09,38.332,55.754,42.363,47.991,50.45C40.291,58.47,36.492,68.021,36.492,79.299C36.492,79.976,36.548,81.171,36.65,82.774C36.737,84.145,36.038,85.377,34.996,85.883C28.955,88.817,24.183,93.179,20.624,99.003C17.086,104.796,15.333,111.056,15.333,117.875C15.333,127.602,18.624,135.846,25.305,142.806C32.044,149.828,40.125,153.329,49.678,153.329L139.607,153.329C147.722,153.329,154.564,150.375,160.26,144.443C165.896,138.572,168.662,131.618,168.662,123.386C168.661,116.462,166.607,110.35,162.44,104.918ZM131.136,76.651C131.949,77.497,132.166,78.043,132.166,79.297C132.166,80.112,132.035,80.574,131.693,81.114C124.954,91.723,130.398,106.096,142.546,109.114C145.771,109.915,148.162,111.497,150.274,114.25C152.377,116.992,153.328,119.821,153.329,123.388C153.329,127.682,152.078,130.824,149.199,133.824C146.377,136.762,143.52,137.996,139.607,137.996L49.678,137.996C44.334,137.996,40.238,136.221,36.368,132.189C32.437,128.093,30.666,123.657,30.666,117.875C30.666,113.87,31.645,110.376,33.709,106.996C35.746,103.663,38.309,101.319,41.693,99.676C48.397,96.421,52.43,89.316,51.952,81.799C51.87,80.515,51.825,79.549,51.825,79.299C51.825,71.958,54.108,66.218,59.052,61.069C63.942,55.975,69.291,53.665,76.127,53.665C81.09,53.665,85.413,55.038,89.558,57.939C93.751,60.874,96.671,64.6,98.592,69.488C103.228,81.282,117.917,84.901,127.27,76.391C127.885,75.831,128.201,75.708,129.024,75.708C130.02,75.708,130.382,75.864,131.136,76.651ZM131.136,76.651"/>
</g>
  <g id="Heavy-L" transform="matrix(1.0,0.0,0.0,1.0,2545.972682581604,1421.964900623893)">  <path stroke-linecap="butt" fill="#000000" stroke-miterlimit="4" fill-opacity="1" stroke="none" fill-rule="evenodd" clip-rule="evenodd" stroke-opacity="1" stroke-linejoin="miter" stroke-dasharray="none" stroke-width="1px" d="M162.44,104.918C158.228,99.427,152.859,95.877,146.243,94.234C144.399,93.775,143.434,91.227,144.635,89.335C146.562,86.301,147.499,82.984,147.499,79.297C147.499,74.106,145.766,69.751,142.199,66.033C138.569,62.253,134.221,60.375,129.024,60.375C124.38,60.375,120.385,61.924,116.951,65.05C115.615,66.266,113.606,65.771,112.862,63.879C109.843,56.199,105.026,50.05,98.35,45.378C91.639,40.679,84.247,38.332,76.127,38.332C65.09,38.332,55.754,42.363,47.991,50.45C40.291,58.47,36.492,68.021,36.492,79.299C36.492,79.976,36.548,81.171,36.65,82.774C36.737,84.145,36.038,85.377,34.996,85.883C28.955,88.817,24.183,93.179,20.624,99.003C17.086,104.796,15.333,111.056,15.333,117.875C15.333,127.602,18.624,135.846,25.305,142.806C32.044,149.828,40.125,153.329,49.678,153.329L139.607,153.329C147.722,153.329,154.564,150.375,160.26,144.443C165.896,138.572,168.662,131.618,168.662,123.386C168.661,116.462,166.607,110.35,162.44,104.918ZM131.136,76.651C131.949,77.497,132.166,78.043,132.166,79.297C132.166,80.112,132.035,80.574,131.693,81.114C124.954,91.723,130.398,106.096,142.546,109.114C145.771,109.915,148.162,111.497,150.274,114.25C152.377,116.992,153.328,119.821,153.329,123.388C153.329,127.682,152.078,130.824,149.199,133.824C146.377,136.762,143.52,137.996,139.607,137.996L49.678,137.996C44.334,137.996,40.238,136.221,36.368,132.189C32.437,128.093,30.666,123.657,30.666,117.875C30.666,113.87,31.645,110.376,33.709,106.996C35.746,103.663,38.309,101.319,41.693,99.676C48.397,96.421,52.43,89.316,51.952,81.799C51.87,80.515,51.825,79.549,51.825,79.299C51.825,71.958,54.108,66.218,59.052,61.069C63.942,55.975,69.291,53.665,76.127,53.665C81.09,53.665,85.413,55.038,89.558,57.939C93.751,60.874,96.671,64.6,98.592,69.488C103.228,81.282,117.917,84.901,127.27,76.391C127.885,75.831,128.201,75.708,129.024,75.708C130.02,75.708,130.382,75.864,131.136,76.651ZM131.136,76.651"/>
</g>
  <g id="Bold-L" transform="matrix(1.0,0.0,0.0,1.0,2249.262682581604,1421.964900623893)">  <path stroke-linejoin="miter" stroke-opacity="1" stroke-dasharray="none" fill-opacity="1" fill="#000000" stroke-width="1px" fill-rule="evenodd" stroke-linecap="butt" stroke="none" stroke-miterlimit="4" clip-rule="evenodd" d="M162.44,104.918C158.228,99.427,152.859,95.877,146.243,94.234C144.399,93.775,143.434,91.227,144.635,89.335C146.562,86.301,147.499,82.984,147.499,79.297C147.499,74.106,145.766,69.751,142.199,66.033C138.569,62.253,134.221,60.375,129.024,60.375C124.38,60.375,120.385,61.924,116.951,65.05C115.615,66.266,113.606,65.771,112.862,63.879C109.843,56.199,105.026,50.05,98.35,45.378C91.639,40.679,84.247,38.332,76.127,38.332C65.09,38.332,55.754,42.363,47.991,50.45C40.291,58.47,36.492,68.021,36.492,79.299C36.492,79.976,36.548,81.171,36.65,82.774C36.737,84.145,36.038,85.377,34.996,85.883C28.955,88.817,24.183,93.179,20.624,99.003C17.086,104.796,15.333,111.056,15.333,117.875C15.333,127.602,18.624,135.846,25.305,142.806C32.044,149.828,40.125,153.329,49.678,153.329L139.607,153.329C147.722,153.329,154.564,150.375,160.26,144.443C165.896,138.572,168.662,131.618,168.662,123.386C168.661,116.462,166.607,110.35,162.44,104.918ZM131.136,76.651C131.949,77.497,132.166,78.043,132.166,79.297C132.166,80.112,132.035,80.574,131.693,81.114C124.954,91.723,130.398,106.096,142.546,109.114C145.771,109.915,148.162,111.497,150.274,114.25C152.377,116.992,153.328,119.821,153.329,123.388C153.329,127.682,152.078,130.824,149.199,133.824C146.377,136.762,143.52,137.996,139.607,137.996L49.678,137.996C44.334,137.996,40.238,136.221,36.368,132.189C32.437,128.093,30.666,123.657,30.666,117.875C30.666,113.87,31.645,110.376,33.709,106.996C35.746,103.663,38.309,101.319,41.693,99.676C48.397,96.421,52.43,89.316,51.952,81.799C51.87,80.515,51.825,79.549,51.825,79.299C51.825,71.958,54.108,66.218,59.052,61.069C63.942,55.975,69.291,53.665,76.127,53.665C81.09,53.665,85.413,55.038,89.558,57.939C93.751,60.874,96.671,64.6,98.592,69.488C103.228,81.282,117.917,84.901,127.27,76.391C127.885,75.831,128.201,75.708,129.024,75.708C130.02,75.708,130.382,75.864,131.136,76.651ZM131.136,76.651"/>
</g>
  <g id="Semibold-L" transform="matrix(1.0,0.0,0.0,1.0,1952.5526825816041,1421.964900623893)">  <path fill="#000000" stroke-width="1px" stroke-opacity="1" stroke-linejoin="miter" stroke="none" fill-rule="evenodd" stroke-dasharray="none" stroke-linecap="butt" stroke-miterlimit="4" clip-rule="evenodd" fill-opacity="1" d="M162.44,104.918C158.228,99.427,152.859,95.877,146.243,94.234C144.399,93.775,143.434,91.227,144.635,89.335C146.562,86.301,147.499,82.984,147.499,79.297C147.499,74.106,145.766,69.751,142.199,66.033C138.569,62.253,134.221,60.375,129.024,60.375C124.38,60.375,120.385,61.924,116.951,65.05C115.615,66.266,113.606,65.771,112.862,63.879C109.843,56.199,105.026,50.05,98.35,45.378C91.639,40.679,84.247,38.332,76.127,38.332C65.09,38.332,55.754,42.363,47.991,50.45C40.291,58.47,36.492,68.021,36.492,79.299C36.492,79.976,36.548,81.171,36.65,82.774C36.737,84.145,36.038,85.377,34.996,85.883C28.955,88.817,24.183,93.179,20.624,99.003C17.086,104.796,15.333,111.056,15.333,117.875C15.333,127.602,18.624,135.846,25.305,142.806C32.044,149.828,40.125,153.329,49.678,153.329L139.607,153.329C147.722,153.329,154.564,150.375,160.26,144.443C165.896,138.572,168.662,131.618,168.662,123.386C168.661,116.462,166.607,110.35,162.44,104.918ZM131.136,76.651C131.949,77.497,132.166,78.043,132.166,79.297C132.166,80.112,132.035,80.574,131.693,81.114C124.954,91.723,130.398,106.096,142.546,109.114C145.771,109.915,148.162,111.497,150.274,114.25C152.377,116.992,153.328,119.821,153.329,123.388C153.329,127.682,152.078,130.824,149.199,133.824C146.377,136.762,143.52,137.996,139.607,137.996L49.678,137.996C44.334,137.996,40.238,136.221,36.368,132.189C32.437,128.093,30.666,123.657,30.666,117.875C30.666,113.87,31.645,110.376,33.709,106.996C35.746,103.663,38.309,101.319,41.693,99.676C48.397,96.421,52.43,89.316,51.952,81.799C51.87,80.515,51.825,79.549,51.825,79.299C51.825,71.958,54.108,66.218,59.052,61.069C63.942,55.975,69.291,53.665,76.127,53.665C81.09,53.665,85.413,55.038,89.558,57.939C93.751,60.874,96.671,64.6,98.592,69.488C103.228,81.282,117.917,84.901,127.27,76.391C127.885,75.831,128.201,75.708,129.024,75.708C130.02,75.708,130.382,75.864,131.136,76.651ZM131.136,76.651"/>
</g>
  <g id="Medium-L" transform="matrix(1.0,0.0,0.0,1.0,1655.842682581604,1421.964900623893)">  <path clip-rule="evenodd" fill-opacity="1" stroke-dasharray="none" stroke-opacity="1" fill-rule="evenodd" stroke-width="1px" stroke="none" stroke-linecap="butt" stroke-linejoin="miter" fill="#000000" stroke-miterlimit="4" d="M162.44,104.918C158.228,99.427,152.859,95.877,146.243,94.234C144.399,93.775,143.434,91.227,144.635,89.335C146.562,86.301,147.499,82.984,147.499,79.297C147.499,74.106,145.766,69.751,142.199,66.033C138.569,62.253,134.221,60.375,129.024,60.375C124.38,60.375,120.385,61.924,116.951,65.05C115.615,66.266,113.606,65.771,112.862,63.879C109.843,56.199,105.026,50.05,98.35,45.378C91.639,40.679,84.247,38.332,76.127,38.332C65.09,38.332,55.754,42.363,47.991,50.45C40.291,58.47,36.492,68.021,36.492,79.299C36.492,79.976,36.548,81.171,36.65,82.774C36.737,84.145,36.038,85.377,34.996,85.883C28.955,88.817,24.183,93.179,20.624,99.003C17.086,104.796,15.333,111.056,15.333,117.875C15.333,127.602,18.624,135.846,25.305,142.806C32.044,149.828,40.125,153.329,49.678,153.329L139.607,153.329C147.722,153.329,154.564,150.375,160.26,144.443C165.896,138.572,168.662,131.618,168.662,123.386C168.661,116.462,166.607,110.35,162.44,104.918ZM131.136,76.651C131.949,77.497,132.166,78.043,132.166,79.297C132.166,80.112,132.035,80.574,131.693,81.114C124.954,91.723,130.398,106.096,142.546,109.114C145.771,109.915,148.162,111.497,150.274,114.25C152.377,116.992,153.328,119.821,153.329,123.388C153.329,127.682,152.078,130.824,149.199,133.824C146.377,136.762,143.52,137.996,139.607,137.996L49.678,137.996C44.334,137.996,40.238,136.221,36.368,132.189C32.437,128.093,30.666,123.657,30.666,117.875C30.666,113.87,31.645,110.376,33.709,106.996C35.746,103.663,38.309,101.319,41.693,99.676C48.397,96.421,52.43,89.316,51.952,81.799C51.87,80.515,51.825,79.549,51.825,79.299C51.825,71.958,54.108,66.218,59.052,61.069C63.942,55.975,69.291,53.665,76.127,53.665C81.09,53.665,85.413,55.038,89.558,57.939C93.751,60.874,96.671,64.6,98.592,69.488C103.228,81.282,117.917,84.901,127.27,76.391C127.885,75.831,128.201,75.708,129.024,75.708C130.02,75.708,130.382,75.864,131.136,76.651ZM131.136,76.651"/>
</g>
  <g id="Regular-L" transform="matrix(1.0,0.0,0.0,1.0,1359.132682581604,1421.964900623893)">  <path fill-opacity="1" stroke-dasharray="none" stroke-linejoin="miter" stroke-opacity="1" stroke-miterlimit="4" fill="#000000" stroke-linecap="butt" fill-rule="evenodd" stroke-width="1px" clip-rule="evenodd" stroke="none" d="M162.44,104.918C158.228,99.427,152.859,95.877,146.243,94.234C144.399,93.775,143.434,91.227,144.635,89.335C146.562,86.301,147.499,82.984,147.499,79.297C147.499,74.106,145.766,69.751,142.199,66.033C138.569,62.253,134.221,60.375,129.024,60.375C124.38,60.375,120.385,61.924,116.951,65.05C115.615,66.266,113.606,65.771,112.862,63.879C109.843,56.199,105.026,50.05,98.35,45.378C91.639,40.679,84.247,38.332,76.127,38.332C65.09,38.332,55.754,42.363,47.991,50.45C40.291,58.47,36.492,68.021,36.492,79.299C36.492,79.976,36.548,81.171,36.65,82.774C36.737,84.145,36.038,85.377,34.996,85.883C28.955,88.817,24.183,93.179,20.624,99.003C17.086,104.796,15.333,111.056,15.333,117.875C15.333,127.602,18.624,135.846,25.305,142.806C32.044,149.828,40.125,153.329,49.678,153.329L139.607,153.329C147.722,153.329,154.564,150.375,160.26,144.443C165.896,138.572,168.662,131.618,168.662,123.386C168.661,116.462,166.607,110.35,162.44,104.918ZM131.136,76.651C131.949,77.497,132.166,78.043,132.166,79.297C132.166,80.112,132.035,80.574,131.693,81.114C124.954,91.723,130.398,106.096,142.546,109.114C145.771,109.915,148.162,111.497,150.274,114.25C152.377,116.992,153.328,119.821,153.329,123.388C153.329,127.682,152.078,130.824,149.199,133.824C146.377,136.762,143.52,137.996,139.607,137.996L49.678,137.996C44.334,137.996,40.238,136.221,36.368,132.189C32.437,128.093,30.666,123.657,30.666,117.875C30.666,113.87,31.645,110.376,33.709,106.996C35.746,103.663,38.309,101.319,41.693,99.676C48.397,96.421,52.43,89.316,51.952,81.799C51.87,80.515,51.825,79.549,51.825,79.299C51.825,71.958,54.108,66.218,59.052,61.069C63.942,55.975,69.291,53.665,76.127,53.665C81.09,53.665,85.413,55.038,89.558,57.939C93.751,60.874,96.671,64.6,98.592,69.488C103.228,81.282,117.917,84.901,127.27,76.391C127.885,75.831,128.201,75.708,129.024,75.708C130.02,75.708,130.382,75.864,131.136,76.651ZM131.136,76.651"/>
</g>
  <g id="Light-L" transform="matrix(1.0,0.0,0.0,1.0,1062.4226825816042,1421.964900623893)">  <path stroke-linecap="butt" fill="#000000" stroke="none" fill-rule="evenodd" stroke-dasharray="none" clip-rule="evenodd" fill-opacity="1" stroke-opacity="1" stroke-width="1px" stroke-miterlimit="4" stroke-linejoin="miter" d="M162.44,104.918C158.228,99.427,152.859,95.877,146.243,94.234C144.399,93.775,143.434,91.227,144.635,89.335C146.562,86.301,147.499,82.984,147.499,79.297C147.499,74.106,145.766,69.751,142.199,66.033C138.569,62.253,134.221,60.375,129.024,60.375C124.38,60.375,120.385,61.924,116.951,65.05C115.615,66.266,113.606,65.771,112.862,63.879C109.843,56.199,105.026,50.05,98.35,45.378C91.639,40.679,84.247,38.332,76.127,38.332C65.09,38.332,55.754,42.363,47.991,50.45C40.291,58.47,36.492,68.021,36.492,79.299C36.492,79.976,36.548,81.171,36.65,82.774C36.737,84.145,36.038,85.377,34.996,85.883C28.955,88.817,24.183,93.179,20.624,99.003C17.086,104.796,15.333,111.056,15.333,117.875C15.333,127.602,18.624,135.846,25.305,142.806C32.044,149.828,40.125,153.329,49.678,153.329L139.607,153.329C147.722,153.329,154.564,150.375,160.26,144.443C165.896,138.572,168.662,131.618,168.662,123.386C168.661,116.462,166.607,110.35,162.44,104.918ZM131.136,76.651C131.949,77.497,132.166,78.043,132.166,79.297C132.166,80.112,132.035,80.574,131.693,81.114C124.954,91.723,130.398,106.096,142.546,109.114C145.771,109.915,148.162,111.497,150.274,114.25C152.377,116.992,153.328,119.821,153.329,123.388C153.329,127.682,152.078,130.824,149.199,133.824C146.377,136.762,143.52,137.996,139.607,137.996L49.678,137.996C44.334,137.996,40.238,136.221,36.368,132.189C32.437,128.093,30.666,123.657,30.666,117.875C30.666,113.87,31.645,110.376,33.709,106.996C35.746,103.663,38.309,101.319,41.693,99.676C48.397,96.421,52.43,89.316,51.952,81.799C51.87,80.515,51.825,79.549,51.825,79.299C51.825,71.958,54.108,66.218,59.052,61.069C63.942,55.975,69.291,53.665,76.127,53.665C81.09,53.665,85.413,55.038,89.558,57.939C93.751,60.874,96.671,64.6,98.592,69.488C103.228,81.282,117.917,84.901,127.27,76.391C127.885,75.831,128.201,75.708,129.024,75.708C130.02,75.708,130.382,75.864,131.136,76.651ZM131.136,76.651"/>
</g>
  <g id="Thin-L" transform="matrix(1.0,0.0,0.0,1.0,765.7126825816043,1421.964900623893)">  <path fill-opacity="1" stroke-dasharray="none" stroke-width="1px" stroke-miterlimit="4" stroke-linejoin="miter" fill="#000000" stroke-opacity="1" fill-rule="evenodd" clip-rule="evenodd" stroke-linecap="butt" stroke="none" d="M162.44,104.918C158.228,99.427,152.859,95.877,146.243,94.234C144.399,93.775,143.434,91.227,144.635,89.335C146.562,86.301,147.499,82.984,147.499,79.297C147.499,74.106,145.766,69.751,142.199,66.033C138.569,62.253,134.221,60.375,129.024,60.375C124.38,60.375,120.385,61.924,116.951,65.05C115.615,66.266,113.606,65.771,112.862,63.879C109.843,56.199,105.026,50.05,98.35,45.378C91.639,40.679,84.247,38.332,76.127,38.332C65.09,38.332,55.754,42.363,47.991,50.45C40.291,58.47,36.492,68.021,36.492,79.299C36.492,79.976,36.548,81.171,36.65,82.774C36.737,84.145,36.038,85.377,34.996,85.883C28.955,88.817,24.183,93.179,20.624,99.003C17.086,104.796,15.333,111.056,15.333,117.875C15.333,127.602,18.624,135.846,25.305,142.806C32.044,149.828,40.125,153.329,49.678,153.329L139.607,153.329C147.722,153.329,154.564,150.375,160.26,144.443C165.896,138.572,168.662,131.618,168.662,123.386C168.661,116.462,166.607,110.35,162.44,104.918ZM131.136,76.651C131.949,77.497,132.166,78.043,132.166,79.297C132.166,80.112,132.035,80.574,131.693,81.114C124.954,91.723,130.398,106.096,142.546,109.114C145.771,109.915,148.162,111.497,150.274,114.25C152.377,116.992,153.328,119.821,153.329,123.388C153.329,127.682,152.078,130.824,149.199,133.824C146.377,136.762,143.52,137.996,139.607,137.996L49.678,137.996C44.334,137.996,40.238,136.221,36.368,132.189C32.437,128.093,30.666,123.657,30.666,117.875C30.666,113.87,31.645,110.376,33.709,106.996C35.746,103.663,38.309,101.319,41.693,99.676C48.397,96.421,52.43,89.316,51.952,81.799C51.87,80.515,51.825,79.549,51.825,79.299C51.825,71.958,54.108,66.218,59.052,61.069C63.942,55.975,69.291,53.665,76.127,53.665C81.09,53.665,85.413,55.038,89.558,57.939C93.751,60.874,96.671,64.6,98.592,69.488C103.228,81.282,117.917,84.901,127.27,76.391C127.885,75.831,128.201,75.708,129.024,75.708C130.02,75.708,130.382,75.864,131.136,76.651ZM131.136,76.651"/>
</g>
  <g id="Ultralight-L" transform="matrix(1.0,0.0,0.0,1.0,469.0026825816043,1421.964900623893)">  <path stroke-linecap="butt" stroke-miterlimit="4" fill-opacity="1" fill="#000000" clip-rule="evenodd" stroke-width="1px" stroke-opacity="1" stroke="none" stroke-dasharray="none" stroke-linejoin="miter" fill-rule="evenodd" d="M162.44,104.918C158.228,99.427,152.859,95.877,146.243,94.234C144.399,93.775,143.434,91.227,144.635,89.335C146.562,86.301,147.499,82.984,147.499,79.297C147.499,74.106,145.766,69.751,142.199,66.033C138.569,62.253,134.221,60.375,129.024,60.375C124.38,60.375,120.385,61.924,116.951,65.05C115.615,66.266,113.606,65.771,112.862,63.879C109.843,56.199,105.026,50.05,98.35,45.378C91.639,40.679,84.247,38.332,76.127,38.332C65.09,38.332,55.754,42.363,47.991,50.45C40.291,58.47,36.492,68.021,36.492,79.299C36.492,79.976,36.548,81.171,36.65,82.774C36.737,84.145,36.038,85.377,34.996,85.883C28.955,88.817,24.183,93.179,20.624,99.003C17.086,104.796,15.333,111.056,15.333,117.875C15.333,127.602,18.624,135.846,25.305,142.806C32.044,149.828,40.125,153.329,49.678,153.329L139.607,153.329C147.722,153.329,154.564,150.375,160.26,144.443C165.896,138.572,168.662,131.618,168.662,123.386C168.661,116.462,166.607,110.35,162.44,104.918ZM131.136,76.651C131.949,77.497,132.166,78.043,132.166,79.297C132.166,80.112,132.035,80.574,131.693,81.114C124.954,91.723,130.398,106.096,142.546,109.114C145.771,109.915,148.162,111.497,150.274,114.25C152.377,116.992,153.328,119.821,153.329,123.388C153.329,127.682,152.078,130.824,149.199,133.824C146.377,136.762,143.52,137.996,139.607,137.996L49.678,137.996C44.334,137.996,40.238,136.221,36.368,132.189C32.437,128.093,30.666,123.657,30.666,117.875C30.666,113.87,31.645,110.376,33.709,106.996C35.746,103.663,38.309,101.319,41.693,99.676C48.397,96.421,52.43,89.316,51.952,81.799C51.87,80.515,51.825,79.549,51.825,79.299C51.825,71.958,54.108,66.218,59.052,61.069C63.942,55.975,69.291,53.665,76.127,53.665C81.09,53.665,85.413,55.038,89.558,57.939C93.751,60.874,96.671,64.6,98.592,69.488C103.228,81.282,117.917,84.901,127.27,76.391C127.885,75.831,128.201,75.708,129.024,75.708C130.02,75.708,130.382,75.864,131.136,76.651ZM131.136,76.651"/>
</g>
  <g id="Black-M" transform="matrix(1.0,0.0,0.0,1.0,2863.364250063259,1014.1769040991903)">  <path stroke-linecap="butt" fill="#000000" fill-opacity="1" stroke-dasharray="none" fill-rule="evenodd" stroke-width="1px" stroke="none" stroke-opacity="1" stroke-linejoin="miter" stroke-miterlimit="4" clip-rule="evenodd" d="M125.923,81.331C122.658,77.075,118.495,74.323,113.366,73.049C111.937,72.694,111.189,70.718,112.12,69.252C113.614,66.9,114.34,64.329,114.34,61.471C114.34,57.447,112.997,54.071,110.232,51.189C107.418,48.258,104.047,46.803,100.019,46.803C96.418,46.803,93.322,48.003,90.66,50.426C89.624,51.369,88.067,50.985,87.49,49.518C85.15,43.565,81.415,38.798,76.241,35.176C71.038,31.534,65.307,29.715,59.013,29.715C50.457,29.715,43.22,32.84,37.203,39.109C31.233,45.326,28.288,52.73,28.288,61.472C28.288,61.997,28.332,62.923,28.411,64.166C28.479,65.228,27.936,66.184,27.128,66.576C22.445,68.85,18.746,72.232,15.988,76.746C13.245,81.237,11.886,86.09,11.886,91.376C11.886,98.916,14.437,105.307,19.617,110.702C24.84,116.145,31.105,118.86,38.51,118.86L108.222,118.86C114.513,118.86,119.817,116.57,124.233,111.971C128.601,107.42,130.746,102.03,130.746,95.648C130.745,90.28,129.153,85.543,125.923,81.331ZM101.656,59.419C102.286,60.075,102.454,60.498,102.454,61.471C102.454,62.102,102.353,62.461,102.087,62.879C96.863,71.103,101.084,82.245,110.501,84.585C113,85.206,114.855,86.432,116.491,88.566C118.122,90.692,118.859,92.885,118.86,95.649C118.86,98.978,117.89,101.414,115.658,103.739C113.47,106.017,111.256,106.974,108.222,106.974L38.51,106.974C34.367,106.974,31.192,105.598,28.192,102.472C25.145,99.297,23.772,95.858,23.772,91.376C23.772,88.272,24.531,85.563,26.131,82.943C27.71,80.359,29.697,78.542,32.32,77.268C37.517,74.745,40.644,69.237,40.273,63.41C40.209,62.414,40.174,61.666,40.174,61.472C40.174,55.782,41.944,51.332,45.777,47.34C49.567,43.391,53.714,41.601,59.013,41.601C62.86,41.601,66.212,42.665,69.425,44.914C72.676,47.19,74.939,50.078,76.428,53.866C80.022,63.009,91.408,65.815,98.659,59.217C99.136,58.784,99.38,58.689,100.019,58.689C100.791,58.689,101.071,58.81,101.656,59.419ZM101.656,59.419"/>
</g>
  <g id="Heavy-M" transform="matrix(1.0,0.0,0.0,1.0,2566.654250063259,1014.1769040991903)">  <path stroke-linecap="butt" fill="#000000" stroke-miterlimit="4" fill-opacity="1" stroke="none" fill-rule="evenodd" clip-rule="evenodd" stroke-opacity="1" stroke-linejoin="miter" stroke-dasharray="none" stroke-width="1px" d="M125.923,81.331C122.658,77.075,118.495,74.323,113.366,73.049C111.937,72.694,111.189,70.718,112.12,69.252C113.614,66.9,114.34,64.329,114.34,61.471C114.34,57.447,112.997,54.071,110.232,51.189C107.418,48.258,104.047,46.803,100.019,46.803C96.418,46.803,93.322,48.003,90.66,50.426C89.624,51.369,88.067,50.985,87.49,49.518C85.15,43.565,81.415,38.798,76.241,35.176C71.038,31.534,65.307,29.715,59.013,29.715C50.457,29.715,43.22,32.84,37.203,39.109C31.233,45.326,28.288,52.73,28.288,61.472C28.288,61.997,28.332,62.923,28.411,64.166C28.479,65.228,27.936,66.184,27.128,66.576C22.445,68.85,18.746,72.232,15.988,76.746C13.245,81.237,11.886,86.09,11.886,91.376C11.886,98.916,14.437,105.307,19.617,110.702C24.84,116.145,31.105,118.86,38.51,118.86L108.222,118.86C114.513,118.86,119.817,116.57,124.233,111.971C128.601,107.42,130.746,102.03,130.746,95.648C130.745,90.28,129.153,85.543,125.923,81.331ZM101.656,59.419C102.286,60.075,102.454,60.498,102.454,61.471C102.454,62.102,102.353,62.461,102.087,62.879C96.863,71.103,101.084,82.245,110.501,84.585C113,85.206,114.855,86.432,116.491,88.566C118.122,90.692,118.859,92.885,118.86,95.649C118.86,98.978,117.89,101.414,115.658,103.739C113.47,106.017,111.256,106.974,108.222,106.974L38.51,106.974C34.367,106.974,31.192,105.598,28.192,102.472C25.145,99.297,23.772,95.858,23.772,91.376C23.772,88.272,24.531,85.563,26.131,82.943C27.71,80.359,29.697,78.542,32.32,77.268C37.517,74.745,40.644,69.237,40.273,63.41C40.209,62.414,40.174,61.666,40.174,61.472C40.174,55.782,41.944,51.332,45.777,47.34C49.567,43.391,53.714,41.601,59.013,41.601C62.86,41.601,66.212,42.665,69.425,44.914C72.676,47.19,74.939,50.078,76.428,53.866C80.022,63.009,91.408,65.815,98.659,59.217C99.136,58.784,99.38,58.689,100.019,58.689C100.791,58.689,101.071,58.81,101.656,59.419ZM101.656,59.419"/>
</g>
  <g id="Bold-M" transform="matrix(1.0,0.0,0.0,1.0,2269.944250063259,1014.1769040991903)">  <path stroke-linejoin="miter" stroke-opacity="1" stroke-dasharray="none" fill-opacity="1" fill="#000000" stroke-width="1px" fill-rule="evenodd" stroke-linecap="butt" stroke="none" stroke-miterlimit="4" clip-rule="evenodd" d="M125.923,81.331C122.658,77.075,118.495,74.323,113.366,73.049C111.937,72.694,111.189,70.718,112.12,69.252C113.614,66.9,114.34,64.329,114.34,61.471C114.34,57.447,112.997,54.071,110.232,51.189C107.418,48.258,104.047,46.803,100.019,46.803C96.418,46.803,93.322,48.003,90.66,50.426C89.624,51.369,88.067,50.985,87.49,49.518C85.15,43.565,81.415,38.798,76.241,35.176C71.038,31.534,65.307,29.715,59.013,29.715C50.457,29.715,43.22,32.84,37.203,39.109C31.233,45.326,28.288,52.73,28.288,61.472C28.288,61.997,28.332,62.923,28.411,64.166C28.479,65.228,27.936,66.184,27.128,66.576C22.445,68.85,18.746,72.232,15.988,76.746C13.245,81.237,11.886,86.09,11.886,91.376C11.886,98.916,14.437,105.307,19.617,110.702C24.84,116.145,31.105,118.86,38.51,118.86L108.222,118.86C114.513,118.86,119.817,116.57,124.233,111.971C128.601,107.42,130.746,102.03,130.746,95.648C130.745,90.28,129.153,85.543,125.923,81.331ZM101.656,59.419C102.286,60.075,102.454,60.498,102.454,61.471C102.454,62.102,102.353,62.461,102.087,62.879C96.863,71.103,101.084,82.245,110.501,84.585C113,85.206,114.855,86.432,116.491,88.566C118.122,90.692,118.859,92.885,118.86,95.649C118.86,98.978,117.89,101.414,115.658,103.739C113.47,106.017,111.256,106.974,108.222,106.974L38.51,106.974C34.367,106.974,31.192,105.598,28.192,102.472C25.145,99.297,23.772,95.858,23.772,91.376C23.772,88.272,24.531,85.563,26.131,82.943C27.71,80.359,29.697,78.542,32.32,77.268C37.517,74.745,40.644,69.237,40.273,63.41C40.209,62.414,40.174,61.666,40.174,61.472C40.174,55.782,41.944,51.332,45.777,47.34C49.567,43.391,53.714,41.601,59.013,41.601C62.86,41.601,66.212,42.665,69.425,44.914C72.676,47.19,74.939,50.078,76.428,53.866C80.022,63.009,91.408,65.815,98.659,59.217C99.136,58.784,99.38,58.689,100.019,58.689C100.791,58.689,101.071,58.81,101.656,59.419ZM101.656,59.419"/>
</g>
  <g id="Semibold-M" transform="matrix(1.0,0.0,0.0,1.0,1973.234250063259,1014.1769040991903)">  <path fill="#000000" stroke-width="1px" stroke-opacity="1" stroke-linejoin="miter" stroke="none" fill-rule="evenodd" stroke-dasharray="none" stroke-linecap="butt" stroke-miterlimit="4" clip-rule="evenodd" fill-opacity="1" d="M125.923,81.331C122.658,77.075,118.495,74.323,113.366,73.049C111.937,72.694,111.189,70.718,112.12,69.252C113.614,66.9,114.34,64.329,114.34,61.471C114.34,57.447,112.997,54.071,110.232,51.189C107.418,48.258,104.047,46.803,100.019,46.803C96.418,46.803,93.322,48.003,90.66,50.426C89.624,51.369,88.067,50.985,87.49,49.518C85.15,43.565,81.415,38.798,76.241,35.176C71.038,31.534,65.307,29.715,59.013,29.715C50.457,29.715,43.22,32.84,37.203,39.109C31.233,45.326,28.288,52.73,28.288,61.472C28.288,61.997,28.332,62.923,28.411,64.166C28.479,65.228,27.936,66.184,27.128,66.576C22.445,68.85,18.746,72.232,15.988,76.746C13.245,81.237,11.886,86.09,11.886,91.376C11.886,98.916,14.437,105.307,19.617,110.702C24.84,116.145,31.105,118.86,38.51,118.86L108.222,118.86C114.513,118.86,119.817,116.57,124.233,111.971C128.601,107.42,130.746,102.03,130.746,95.648C130.745,90.28,129.153,85.543,125.923,81.331ZM101.656,59.419C102.286,60.075,102.454,60.498,102.454,61.471C102.454,62.102,102.353,62.461,102.087,62.879C96.863,71.103,101.084,82.245,110.501,84.585C113,85.206,114.855,86.432,116.491,88.566C118.122,90.692,118.859,92.885,118.86,95.649C118.86,98.978,117.89,101.414,115.658,103.739C113.47,106.017,111.256,106.974,108.222,106.974L38.51,106.974C34.367,106.974,31.192,105.598,28.192,102.472C25.145,99.297,23.772,95.858,23.772,91.376C23.772,88.272,24.531,85.563,26.131,82.943C27.71,80.359,29.697,78.542,32.32,77.268C37.517,74.745,40.644,69.237,40.273,63.41C40.209,62.414,40.174,61.666,40.174,61.472C40.174,55.782,41.944,51.332,45.777,47.34C49.567,43.391,53.714,41.601,59.013,41.601C62.86,41.601,66.212,42.665,69.425,44.914C72.676,47.19,74.939,50.078,76.428,53.866C80.022,63.009,91.408,65.815,98.659,59.217C99.136,58.784,99.38,58.689,100.019,58.689C100.791,58.689,101.071,58.81,101.656,59.419ZM101.656,59.419"/>
</g>
  <g id="Medium-M" transform="matrix(1.0,0.0,0.0,1.0,1676.524250063259,1014.1769040991903)">  <path clip-rule="evenodd" fill-opacity="1" stroke-dasharray="none" stroke-opacity="1" fill-rule="evenodd" stroke-width="1px" stroke="none" stroke-linecap="butt" stroke-linejoin="miter" fill="#000000" stroke-miterlimit="4" d="M125.923,81.331C122.658,77.075,118.495,74.323,113.366,73.049C111.937,72.694,111.189,70.718,112.12,69.252C113.614,66.9,114.34,64.329,114.34,61.471C114.34,57.447,112.997,54.071,110.232,51.189C107.418,48.258,104.047,46.803,100.019,46.803C96.418,46.803,93.322,48.003,90.66,50.426C89.624,51.369,88.067,50.985,87.49,49.518C85.15,43.565,81.415,38.798,76.241,35.176C71.038,31.534,65.307,29.715,59.013,29.715C50.457,29.715,43.22,32.84,37.203,39.109C31.233,45.326,28.288,52.73,28.288,61.472C28.288,61.997,28.332,62.923,28.411,64.166C28.479,65.228,27.936,66.184,27.128,66.576C22.445,68.85,18.746,72.232,15.988,76.746C13.245,81.237,11.886,86.09,11.886,91.376C11.886,98.916,14.437,105.307,19.617,110.702C24.84,116.145,31.105,118.86,38.51,118.86L108.222,118.86C114.513,118.86,119.817,116.57,124.233,111.971C128.601,107.42,130.746,102.03,130.746,95.648C130.745,90.28,129.153,85.543,125.923,81.331ZM101.656,59.419C102.286,60.075,102.454,60.498,102.454,61.471C102.454,62.102,102.353,62.461,102.087,62.879C96.863,71.103,101.084,82.245,110.501,84.585C113,85.206,114.855,86.432,116.491,88.566C118.122,90.692,118.859,92.885,118.86,95.649C118.86,98.978,117.89,101.414,115.658,103.739C113.47,106.017,111.256,106.974,108.222,106.974L38.51,106.974C34.367,106.974,31.192,105.598,28.192,102.472C25.145,99.297,23.772,95.858,23.772,91.376C23.772,88.272,24.531,85.563,26.131,82.943C27.71,80.359,29.697,78.542,32.32,77.268C37.517,74.745,40.644,69.237,40.273,63.41C40.209,62.414,40.174,61.666,40.174,61.472C40.174,55.782,41.944,51.332,45.777,47.34C49.567,43.391,53.714,41.601,59.013,41.601C62.86,41.601,66.212,42.665,69.425,44.914C72.676,47.19,74.939,50.078,76.428,53.866C80.022,63.009,91.408,65.815,98.659,59.217C99.136,58.784,99.38,58.689,100.019,58.689C100.791,58.689,101.071,58.81,101.656,59.419ZM101.656,59.419"/>
</g>
  <g id="Regular-M" transform="matrix(1.0,0.0,0.0,1.0,1379.814250063259,1014.1769040991903)">  <path fill-opacity="1" stroke-dasharray="none" stroke-linejoin="miter" stroke-opacity="1" stroke-miterlimit="4" fill="#000000" stroke-linecap="butt" fill-rule="evenodd" stroke-width="1px" clip-rule="evenodd" stroke="none" d="M125.923,81.331C122.658,77.075,118.495,74.323,113.366,73.049C111.937,72.694,111.189,70.718,112.12,69.252C113.614,66.9,114.34,64.329,114.34,61.471C114.34,57.447,112.997,54.071,110.232,51.189C107.418,48.258,104.047,46.803,100.019,46.803C96.418,46.803,93.322,48.003,90.66,50.426C89.624,51.369,88.067,50.985,87.49,49.518C85.15,43.565,81.415,38.798,76.241,35.176C71.038,31.534,65.307,29.715,59.013,29.715C50.457,29.715,43.22,32.84,37.203,39.109C31.233,45.326,28.288,52.73,28.288,61.472C28.288,61.997,28.332,62.923,28.411,64.166C28.479,65.228,27.936,66.184,27.128,66.576C22.445,68.85,18.746,72.232,15.988,76.746C13.245,81.237,11.886,86.09,11.886,91.376C11.886,98.916,14.437,105.307,19.617,110.702C24.84,116.145,31.105,118.86,38.51,118.86L108.222,118.86C114.513,118.86,119.817,116.57,124.233,111.971C128.601,107.42,130.746,102.03,130.746,95.648C130.745,90.28,129.153,85.543,125.923,81.331ZM101.656,59.419C102.286,60.075,102.454,60.498,102.454,61.471C102.454,62.102,102.353,62.461,102.087,62.879C96.863,71.103,101.084,82.245,110.501,84.585C113,85.206,114.855,86.432,116.491,88.566C118.122,90.692,118.859,92.885,118.86,95.649C118.86,98.978,117.89,101.414,115.658,103.739C113.47,106.017,111.256,106.974,108.222,106.974L38.51,106.974C34.367,106.974,31.192,105.598,28.192,102.472C25.145,99.297,23.772,95.858,23.772,91.376C23.772,88.272,24.531,85.563,26.131,82.943C27.71,80.359,29.697,78.542,32.32,77.268C37.517,74.745,40.644,69.237,40.273,63.41C40.209,62.414,40.174,61.666,40.174,61.472C40.174,55.782,41.944,51.332,45.777,47.34C49.567,43.391,53.714,41.601,59.013,41.601C62.86,41.601,66.212,42.665,69.425,44.914C72.676,47.19,74.939,50.078,76.428,53.866C80.022,63.009,91.408,65.815,98.659,59.217C99.136,58.784,99.38,58.689,100.019,58.689C100.791,58.689,101.071,58.81,101.656,59.419ZM101.656,59.419"/>
</g>
  <g id="Light-M" transform="matrix(1.0,0.0,0.0,1.0,1083.104250063259,1014.1769040991903)">  <path stroke-linecap="butt" fill="#000000" stroke="none" fill-rule="evenodd" stroke-dasharray="none" clip-rule="evenodd" fill-opacity="1" stroke-opacity="1" stroke-width="1px" stroke-miterlimit="4" stroke-linejoin="miter" d="M125.923,81.331C122.658,77.075,118.495,74.323,113.366,73.049C111.937,72.694,111.189,70.718,112.12,69.252C113.614,66.9,114.34,64.329,114.34,61.471C114.34,57.447,112.997,54.071,110.232,51.189C107.418,48.258,104.047,46.803,100.019,46.803C96.418,46.803,93.322,48.003,90.66,50.426C89.624,51.369,88.067,50.985,87.49,49.518C85.15,43.565,81.415,38.798,76.241,35.176C71.038,31.534,65.307,29.715,59.013,29.715C50.457,29.715,43.22,32.84,37.203,39.109C31.233,45.326,28.288,52.73,28.288,61.472C28.288,61.997,28.332,62.923,28.411,64.166C28.479,65.228,27.936,66.184,27.128,66.576C22.445,68.85,18.746,72.232,15.988,76.746C13.245,81.237,11.886,86.09,11.886,91.376C11.886,98.916,14.437,105.307,19.617,110.702C24.84,116.145,31.105,118.86,38.51,118.86L108.222,118.86C114.513,118.86,119.817,116.57,124.233,111.971C128.601,107.42,130.746,102.03,130.746,95.648C130.745,90.28,129.153,85.543,125.923,81.331ZM101.656,59.419C102.286,60.075,102.454,60.498,102.454,61.471C102.454,62.102,102.353,62.461,102.087,62.879C96.863,71.103,101.084,82.245,110.501,84.585C113,85.206,114.855,86.432,116.491,88.566C118.122,90.692,118.859,92.885,118.86,95.649C118.86,98.978,117.89,101.414,115.658,103.739C113.47,106.017,111.256,106.974,108.222,106.974L38.51,106.974C34.367,106.974,31.192,105.598,28.192,102.472C25.145,99.297,23.772,95.858,23.772,91.376C23.772,88.272,24.531,85.563,26.131,82.943C27.71,80.359,29.697,78.542,32.32,77.268C37.517,74.745,40.644,69.237,40.273,63.41C40.209,62.414,40.174,61.666,40.174,61.472C40.174,55.782,41.944,51.332,45.777,47.34C49.567,43.391,53.714,41.601,59.013,41.601C62.86,41.601,66.212,42.665,69.425,44.914C72.676,47.19,74.939,50.078,76.428,53.866C80.022,63.009,91.408,65.815,98.659,59.217C99.136,58.784,99.38,58.689,100.019,58.689C100.791,58.689,101.071,58.81,101.656,59.419ZM101.656,59.419"/>
</g>
  <g id="Thin-M" transform="matrix(1.0,0.0,0.0,1.0,786.3942500632592,1014.1769040991903)">  <path fill-opacity="1" stroke-dasharray="none" stroke-width="1px" stroke-miterlimit="4" stroke-linejoin="miter" fill="#000000" stroke-opacity="1" fill-rule="evenodd" clip-rule="evenodd" stroke-linecap="butt" stroke="none" d="M125.923,81.331C122.658,77.075,118.495,74.323,113.366,73.049C111.937,72.694,111.189,70.718,112.12,69.252C113.614,66.9,114.34,64.329,114.34,61.471C114.34,57.447,112.997,54.071,110.232,51.189C107.418,48.258,104.047,46.803,100.019,46.803C96.418,46.803,93.322,48.003,90.66,50.426C89.624,51.369,88.067,50.985,87.49,49.518C85.15,43.565,81.415,38.798,76.241,35.176C71.038,31.534,65.307,29.715,59.013,29.715C50.457,29.715,43.22,32.84,37.203,39.109C31.233,45.326,28.288,52.73,28.288,61.472C28.288,61.997,28.332,62.923,28.411,64.166C28.479,65.228,27.936,66.184,27.128,66.576C22.445,68.85,18.746,72.232,15.988,76.746C13.245,81.237,11.886,86.09,11.886,91.376C11.886,98.916,14.437,105.307,19.617,110.702C24.84,116.145,31.105,118.86,38.51,118.86L108.222,118.86C114.513,118.86,119.817,116.57,124.233,111.971C128.601,107.42,130.746,102.03,130.746,95.648C130.745,90.28,129.153,85.543,125.923,81.331ZM101.656,59.419C102.286,60.075,102.454,60.498,102.454,61.471C102.454,62.102,102.353,62.461,102.087,62.879C96.863,71.103,101.084,82.245,110.501,84.585C113,85.206,114.855,86.432,116.491,88.566C118.122,90.692,118.859,92.885,118.86,95.649C118.86,98.978,117.89,101.414,115.658,103.739C113.47,106.017,111.256,106.974,108.222,106.974L38.51,106.974C34.367,106.974,31.192,105.598,28.192,102.472C25.145,99.297,23.772,95.858,23.772,91.376C23.772,88.272,24.531,85.563,26.131,82.943C27.71,80.359,29.697,78.542,32.32,77.268C37.517,74.745,40.644,69.237,40.273,63.41C40.209,62.414,40.174,61.666,40.174,61.472C40.174,55.782,41.944,51.332,45.777,47.34C49.567,43.391,53.714,41.601,59.013,41.601C62.86,41.601,66.212,42.665,69.425,44.914C72.676,47.19,74.939,50.078,76.428,53.866C80.022,63.009,91.408,65.815,98.659,59.217C99.136,58.784,99.38,58.689,100.019,58.689C100.791,58.689,101.071,58.81,101.656,59.419ZM101.656,59.419"/>
</g>
  <g id="Ultralight-M" transform="matrix(1.0,0.0,0.0,1.0,489.6842500632591,1014.1769040991903)">  <path stroke-linecap="butt" stroke-miterlimit="4" fill-opacity="1" fill="#000000" clip-rule="evenodd" stroke-width="1px" stroke-opacity="1" stroke="none" stroke-dasharray="none" stroke-linejoin="miter" fill-rule="evenodd" d="M125.923,81.331C122.658,77.075,118.495,74.323,113.366,73.049C111.937,72.694,111.189,70.718,112.12,69.252C113.614,66.9,114.34,64.329,114.34,61.471C114.34,57.447,112.997,54.071,110.232,51.189C107.418,48.258,104.047,46.803,100.019,46.803C96.418,46.803,93.322,48.003,90.66,50.426C89.624,51.369,88.067,50.985,87.49,49.518C85.15,43.565,81.415,38.798,76.241,35.176C71.038,31.534,65.307,29.715,59.013,29.715C50.457,29.715,43.22,32.84,37.203,39.109C31.233,45.326,28.288,52.73,28.288,61.472C28.288,61.997,28.332,62.923,28.411,64.166C28.479,65.228,27.936,66.184,27.128,66.576C22.445,68.85,18.746,72.232,15.988,76.746C13.245,81.237,11.886,86.09,11.886,91.376C11.886,98.916,14.437,105.307,19.617,110.702C24.84,116.145,31.105,118.86,38.51,118.86L108.222,118.86C114.513,118.86,119.817,116.57,124.233,111.971C128.601,107.42,130.746,102.03,130.746,95.648C130.745,90.28,129.153,85.543,125.923,81.331ZM101.656,59.419C102.286,60.075,102.454,60.498,102.454,61.471C102.454,62.102,102.353,62.461,102.087,62.879C96.863,71.103,101.084,82.245,110.501,84.585C113,85.206,114.855,86.432,116.491,88.566C118.122,90.692,118.859,92.885,118.86,95.649C118.86,98.978,117.89,101.414,115.658,103.739C113.47,106.017,111.256,106.974,108.222,106.974L38.51,106.974C34.367,106.974,31.192,105.598,28.192,102.472C25.145,99.297,23.772,95.858,23.772,91.376C23.772,88.272,24.531,85.563,26.131,82.943C27.71,80.359,29.697,78.542,32.32,77.268C37.517,74.745,40.644,69.237,40.273,63.41C40.209,62.414,40.174,61.666,40.174,61.472C40.174,55.782,41.944,51.332,45.777,47.34C49.567,43.391,53.714,41.601,59.013,41.601C62.86,41.601,66.212,42.665,69.425,44.914C72.676,47.19,74.939,50.078,76.428,53.866C80.022,63.009,91.408,65.815,98.659,59.217C99.136,58.784,99.38,58.689,100.019,58.689C100.791,58.689,101.071,58.81,101.656,59.419ZM101.656,59.419"/>
</g>
  <g id="Black-S" transform="matrix(1.0,0.0,0.0,1.0,2878.8397677995317,600.7976101479472)">  <path stroke-linecap="butt" fill="#000000" fill-opacity="1" stroke-dasharray="none" fill-rule="evenodd" stroke-width="1px" stroke="none" stroke-opacity="1" stroke-linejoin="miter" stroke-miterlimit="4" clip-rule="evenodd" d="M98.598,63.683C96.041,60.35,92.782,58.195,88.766,57.198C87.647,56.919,87.061,55.373,87.79,54.224C88.96,52.383,89.528,50.369,89.528,48.131C89.528,44.981,88.477,42.337,86.311,40.081C84.108,37.786,81.469,36.647,78.315,36.647C75.496,36.647,73.071,37.587,70.986,39.484C70.175,40.222,68.956,39.922,68.505,38.773C66.672,34.111,63.748,30.379,59.696,27.543C55.622,24.691,51.136,23.267,46.207,23.267C39.508,23.267,33.841,25.714,29.13,30.622C24.456,35.49,22.15,41.287,22.15,48.132C22.15,48.543,22.184,49.269,22.246,50.242C22.299,51.074,21.874,51.822,21.242,52.129C17.575,53.91,14.678,56.558,12.518,60.092C10.371,63.609,9.307,67.408,9.307,71.547C9.307,77.451,11.305,82.455,15.36,86.68C19.45,90.942,24.355,93.067,30.154,93.067L84.738,93.067C89.664,93.067,93.817,91.274,97.274,87.673C100.695,84.11,102.374,79.889,102.374,74.892C102.373,70.69,101.127,66.98,98.598,63.683ZM79.597,46.525C80.09,47.039,80.221,47.37,80.221,48.131C80.221,48.626,80.142,48.907,79.934,49.234C75.844,55.674,79.148,64.398,86.522,66.23C88.479,66.716,89.931,67.676,91.213,69.347C92.49,71.012,93.067,72.729,93.067,74.893C93.067,77.5,92.308,79.407,90.56,81.228C88.847,83.012,87.114,83.76,84.738,83.76L30.154,83.76C26.91,83.76,24.423,82.683,22.074,80.235C19.688,77.75,18.613,75.057,18.613,71.547C18.613,69.117,19.208,66.996,20.461,64.944C21.697,62.921,23.252,61.498,25.307,60.501C29.376,58.525,31.824,54.213,31.534,49.65C31.484,48.87,31.456,48.284,31.456,48.132C31.456,43.677,32.842,40.193,35.843,37.067C38.811,33.976,42.058,32.573,46.207,32.573C49.219,32.573,51.844,33.407,54.36,35.168C56.905,36.949,58.677,39.211,59.843,42.177C62.657,49.336,71.573,51.533,77.25,46.367C77.624,46.028,77.815,45.953,78.315,45.953C78.919,45.953,79.139,46.048,79.597,46.525ZM79.597,46.525"/>
</g>
  <g id="Heavy-S" transform="matrix(1.0,0.0,0.0,1.0,2582.1297677995317,600.7976101479472)">  <path stroke-linecap="butt" fill="#000000" stroke-miterlimit="4" fill-opacity="1" stroke="none" fill-rule="evenodd" clip-rule="evenodd" stroke-opacity="1" stroke-linejoin="miter" stroke-dasharray="none" stroke-width="1px" d="M98.598,63.683C96.041,60.35,92.782,58.195,88.766,57.198C87.647,56.919,87.061,55.373,87.79,54.224C88.96,52.383,89.528,50.369,89.528,48.131C89.528,44.981,88.477,42.337,86.311,40.081C84.108,37.786,81.469,36.647,78.315,36.647C75.496,36.647,73.071,37.587,70.986,39.484C70.175,40.222,68.956,39.922,68.505,38.773C66.672,34.111,63.748,30.379,59.696,27.543C55.622,24.691,51.136,23.267,46.207,23.267C39.508,23.267,33.841,25.714,29.13,30.622C24.456,35.49,22.15,41.287,22.15,48.132C22.15,48.543,22.184,49.269,22.246,50.242C22.299,51.074,21.874,51.822,21.242,52.129C17.575,53.91,14.678,56.558,12.518,60.092C10.371,63.609,9.307,67.408,9.307,71.547C9.307,77.451,11.305,82.455,15.36,86.68C19.45,90.942,24.355,93.067,30.154,93.067L84.738,93.067C89.664,93.067,93.817,91.274,97.274,87.673C100.695,84.11,102.374,79.889,102.374,74.892C102.373,70.69,101.127,66.98,98.598,63.683ZM79.597,46.525C80.09,47.039,80.221,47.37,80.221,48.131C80.221,48.626,80.142,48.907,79.934,49.234C75.844,55.674,79.148,64.398,86.522,66.23C88.479,66.716,89.931,67.676,91.213,69.347C92.49,71.012,93.067,72.729,93.067,74.893C93.067,77.5,92.308,79.407,90.56,81.228C88.847,83.012,87.114,83.76,84.738,83.76L30.154,83.76C26.91,83.76,24.423,82.683,22.074,80.235C19.688,77.75,18.613,75.057,18.613,71.547C18.613,69.117,19.208,66.996,20.461,64.944C21.697,62.921,23.252,61.498,25.307,60.501C29.376,58.525,31.824,54.213,31.534,49.65C31.484,48.87,31.456,48.284,31.456,48.132C31.456,43.677,32.842,40.193,35.843,37.067C38.811,33.976,42.058,32.573,46.207,32.573C49.219,32.573,51.844,33.407,54.36,35.168C56.905,36.949,58.677,39.211,59.843,42.177C62.657,49.336,71.573,51.533,77.25,46.367C77.624,46.028,77.815,45.953,78.315,45.953C78.919,45.953,79.139,46.048,79.597,46.525ZM79.597,46.525"/>
</g>
  <g id="Bold-S" transform="matrix(1.0,0.0,0.0,1.0,2285.4197677995317,600.7976101479472)">  <path stroke-linejoin="miter" stroke-opacity="1" stroke-dasharray="none" fill-opacity="1" fill="#000000" stroke-width="1px" fill-rule="evenodd" stroke-linecap="butt" stroke="none" stroke-miterlimit="4" clip-rule="evenodd" d="M98.598,63.683C96.041,60.35,92.782,58.195,88.766,57.198C87.647,56.919,87.061,55.373,87.79,54.224C88.96,52.383,89.528,50.369,89.528,48.131C89.528,44.981,88.477,42.337,86.311,40.081C84.108,37.786,81.469,36.647,78.315,36.647C75.496,36.647,73.071,37.587,70.986,39.484C70.175,40.222,68.956,39.922,68.505,38.773C66.672,34.111,63.748,30.379,59.696,27.543C55.622,24.691,51.136,23.267,46.207,23.267C39.508,23.267,33.841,25.714,29.13,30.622C24.456,35.49,22.15,41.287,22.15,48.132C22.15,48.543,22.184,49.269,22.246,50.242C22.299,51.074,21.874,51.822,21.242,52.129C17.575,53.91,14.678,56.558,12.518,60.092C10.371,63.609,9.307,67.408,9.307,71.547C9.307,77.451,11.305,82.455,15.36,86.68C19.45,90.942,24.355,93.067,30.154,93.067L84.738,93.067C89.664,93.067,93.817,91.274,97.274,87.673C100.695,84.11,102.374,79.889,102.374,74.892C102.373,70.69,101.127,66.98,98.598,63.683ZM79.597,46.525C80.09,47.039,80.221,47.37,80.221,48.131C80.221,48.626,80.142,48.907,79.934,49.234C75.844,55.674,79.148,64.398,86.522,66.23C88.479,66.716,89.931,67.676,91.213,69.347C92.49,71.012,93.067,72.729,93.067,74.893C93.067,77.5,92.308,79.407,90.56,81.228C88.847,83.012,87.114,83.76,84.738,83.76L30.154,83.76C26.91,83.76,24.423,82.683,22.074,80.235C19.688,77.75,18.613,75.057,18.613,71.547C18.613,69.117,19.208,66.996,20.461,64.944C21.697,62.921,23.252,61.498,25.307,60.501C29.376,58.525,31.824,54.213,31.534,49.65C31.484,48.87,31.456,48.284,31.456,48.132C31.456,43.677,32.842,40.193,35.843,37.067C38.811,33.976,42.058,32.573,46.207,32.573C49.219,32.573,51.844,33.407,54.36,35.168C56.905,36.949,58.677,39.211,59.843,42.177C62.657,49.336,71.573,51.533,77.25,46.367C77.624,46.028,77.815,45.953,78.315,45.953C78.919,45.953,79.139,46.048,79.597,46.525ZM79.597,46.525"/>
</g>
  <g id="Semibold-S" transform="matrix(1.0,0.0,0.0,1.0,1988.7097677995318,600.7976101479472)">  <path fill="#000000" stroke-width="1px" stroke-opacity="1" stroke-linejoin="miter" stroke="none" fill-rule="evenodd" stroke-dasharray="none" stroke-linecap="butt" stroke-miterlimit="4" clip-rule="evenodd" fill-opacity="1" d="M98.598,63.683C96.041,60.35,92.782,58.195,88.766,57.198C87.647,56.919,87.061,55.373,87.79,54.224C88.96,52.383,89.528,50.369,89.528,48.131C89.528,44.981,88.477,42.337,86.311,40.081C84.108,37.786,81.469,36.647,78.315,36.647C75.496,36.647,73.071,37.587,70.986,39.484C70.175,40.222,68.956,39.922,68.505,38.773C66.672,34.111,63.748,30.379,59.696,27.543C55.622,24.691,51.136,23.267,46.207,23.267C39.508,23.267,33.841,25.714,29.13,30.622C24.456,35.49,22.15,41.287,22.15,48.132C22.15,48.543,22.184,49.269,22.246,50.242C22.299,51.074,21.874,51.822,21.242,52.129C17.575,53.91,14.678,56.558,12.518,60.092C10.371,63.609,9.307,67.408,9.307,71.547C9.307,77.451,11.305,82.455,15.36,86.68C19.45,90.942,24.355,93.067,30.154,93.067L84.738,93.067C89.664,93.067,93.817,91.274,97.274,87.673C100.695,84.11,102.374,79.889,102.374,74.892C102.373,70.69,101.127,66.98,98.598,63.683ZM79.597,46.525C80.09,47.039,80.221,47.37,80.221,48.131C80.221,48.626,80.142,48.907,79.934,49.234C75.844,55.674,79.148,64.398,86.522,66.23C88.479,66.716,89.931,67.676,91.213,69.347C92.49,71.012,93.067,72.729,93.067,74.893C93.067,77.5,92.308,79.407,90.56,81.228C88.847,83.012,87.114,83.76,84.738,83.76L30.154,83.76C26.91,83.76,24.423,82.683,22.074,80.235C19.688,77.75,18.613,75.057,18.613,71.547C18.613,69.117,19.208,66.996,20.461,64.944C21.697,62.921,23.252,61.498,25.307,60.501C29.376,58.525,31.824,54.213,31.534,49.65C31.484,48.87,31.456,48.284,31.456,48.132C31.456,43.677,32.842,40.193,35.843,37.067C38.811,33.976,42.058,32.573,46.207,32.573C49.219,32.573,51.844,33.407,54.36,35.168C56.905,36.949,58.677,39.211,59.843,42.177C62.657,49.336,71.573,51.533,77.25,46.367C77.624,46.028,77.815,45.953,78.315,45.953C78.919,45.953,79.139,46.048,79.597,46.525ZM79.597,46.525"/>
</g>
  <g id="Medium-S" transform="matrix(1.0,0.0,0.0,1.0,1691.9997677995318,600.7976101479472)">  <path clip-rule="evenodd" fill-opacity="1" stroke-dasharray="none" stroke-opacity="1" fill-rule="evenodd" stroke-width="1px" stroke="none" stroke-linecap="butt" stroke-linejoin="miter" fill="#000000" stroke-miterlimit="4" d="M98.598,63.683C96.041,60.35,92.782,58.195,88.766,57.198C87.647,56.919,87.061,55.373,87.79,54.224C88.96,52.383,89.528,50.369,89.528,48.131C89.528,44.981,88.477,42.337,86.311,40.081C84.108,37.786,81.469,36.647,78.315,36.647C75.496,36.647,73.071,37.587,70.986,39.484C70.175,40.222,68.956,39.922,68.505,38.773C66.672,34.111,63.748,30.379,59.696,27.543C55.622,24.691,51.136,23.267,46.207,23.267C39.508,23.267,33.841,25.714,29.13,30.622C24.456,35.49,22.15,41.287,22.15,48.132C22.15,48.543,22.184,49.269,22.246,50.242C22.299,51.074,21.874,51.822,21.242,52.129C17.575,53.91,14.678,56.558,12.518,60.092C10.371,63.609,9.307,67.408,9.307,71.547C9.307,77.451,11.305,82.455,15.36,86.68C19.45,90.942,24.355,93.067,30.154,93.067L84.738,93.067C89.664,93.067,93.817,91.274,97.274,87.673C100.695,84.11,102.374,79.889,102.374,74.892C102.373,70.69,101.127,66.98,98.598,63.683ZM79.597,46.525C80.09,47.039,80.221,47.37,80.221,48.131C80.221,48.626,80.142,48.907,79.934,49.234C75.844,55.674,79.148,64.398,86.522,66.23C88.479,66.716,89.931,67.676,91.213,69.347C92.49,71.012,93.067,72.729,93.067,74.893C93.067,77.5,92.308,79.407,90.56,81.228C88.847,83.012,87.114,83.76,84.738,83.76L30.154,83.76C26.91,83.76,24.423,82.683,22.074,80.235C19.688,77.75,18.613,75.057,18.613,71.547C18.613,69.117,19.208,66.996,20.461,64.944C21.697,62.921,23.252,61.498,25.307,60.501C29.376,58.525,31.824,54.213,31.534,49.65C31.484,48.87,31.456,48.284,31.456,48.132C31.456,43.677,32.842,40.193,35.843,37.067C38.811,33.976,42.058,32.573,46.207,32.573C49.219,32.573,51.844,33.407,54.36,35.168C56.905,36.949,58.677,39.211,59.843,42.177C62.657,49.336,71.573,51.533,77.25,46.367C77.624,46.028,77.815,45.953,78.315,45.953C78.919,45.953,79.139,46.048,79.597,46.525ZM79.597,46.525"/>
</g>
  <g id="Regular-S" transform="matrix(1.0,0.0,0.0,1.0,1395.2897677995318,600.7976101479472)">  <path fill-opacity="1" stroke-dasharray="none" stroke-linejoin="miter" stroke-opacity="1" stroke-miterlimit="4" fill="#000000" stroke-linecap="butt" fill-rule="evenodd" stroke-width="1px" clip-rule="evenodd" stroke="none" d="M98.598,63.683C96.041,60.35,92.782,58.195,88.766,57.198C87.647,56.919,87.061,55.373,87.79,54.224C88.96,52.383,89.528,50.369,89.528,48.131C89.528,44.981,88.477,42.337,86.311,40.081C84.108,37.786,81.469,36.647,78.315,36.647C75.496,36.647,73.071,37.587,70.986,39.484C70.175,40.222,68.956,39.922,68.505,38.773C66.672,34.111,63.748,30.379,59.696,27.543C55.622,24.691,51.136,23.267,46.207,23.267C39.508,23.267,33.841,25.714,29.13,30.622C24.456,35.49,22.15,41.287,22.15,48.132C22.15,48.543,22.184,49.269,22.246,50.242C22.299,51.074,21.874,51.822,21.242,52.129C17.575,53.91,14.678,56.558,12.518,60.092C10.371,63.609,9.307,67.408,9.307,71.547C9.307,77.451,11.305,82.455,15.36,86.68C19.45,90.942,24.355,93.067,30.154,93.067L84.738,93.067C89.664,93.067,93.817,91.274,97.274,87.673C100.695,84.11,102.374,79.889,102.374,74.892C102.373,70.69,101.127,66.98,98.598,63.683ZM79.597,46.525C80.09,47.039,80.221,47.37,80.221,48.131C80.221,48.626,80.142,48.907,79.934,49.234C75.844,55.674,79.148,64.398,86.522,66.23C88.479,66.716,89.931,67.676,91.213,69.347C92.49,71.012,93.067,72.729,93.067,74.893C93.067,77.5,92.308,79.407,90.56,81.228C88.847,83.012,87.114,83.76,84.738,83.76L30.154,83.76C26.91,83.76,24.423,82.683,22.074,80.235C19.688,77.75,18.613,75.057,18.613,71.547C18.613,69.117,19.208,66.996,20.461,64.944C21.697,62.921,23.252,61.498,25.307,60.501C29.376,58.525,31.824,54.213,31.534,49.65C31.484,48.87,31.456,48.284,31.456,48.132C31.456,43.677,32.842,40.193,35.843,37.067C38.811,33.976,42.058,32.573,46.207,32.573C49.219,32.573,51.844,33.407,54.36,35.168C56.905,36.949,58.677,39.211,59.843,42.177C62.657,49.336,71.573,51.533,77.25,46.367C77.624,46.028,77.815,45.953,78.315,45.953C78.919,45.953,79.139,46.048,79.597,46.525ZM79.597,46.525"/>
</g>
  <g id="Light-S" transform="matrix(1.0,0.0,0.0,1.0,1098.579767799532,600.7976101479472)">  <path stroke-linecap="butt" fill="#000000" stroke="none" fill-rule="evenodd" stroke-dasharray="none" clip-rule="evenodd" fill-opacity="1" stroke-opacity="1" stroke-width="1px" stroke-miterlimit="4" stroke-linejoin="miter" d="M98.598,63.683C96.041,60.35,92.782,58.195,88.766,57.198C87.647,56.919,87.061,55.373,87.79,54.224C88.96,52.383,89.528,50.369,89.528,48.131C89.528,44.981,88.477,42.337,86.311,40.081C84.108,37.786,81.469,36.647,78.315,36.647C75.496,36.647,73.071,37.587,70.986,39.484C70.175,40.222,68.956,39.922,68.505,38.773C66.672,34.111,63.748,30.379,59.696,27.543C55.622,24.691,51.136,23.267,46.207,23.267C39.508,23.267,33.841,25.714,29.13,30.622C24.456,35.49,22.15,41.287,22.15,48.132C22.15,48.543,22.184,49.269,22.246,50.242C22.299,51.074,21.874,51.822,21.242,52.129C17.575,53.91,14.678,56.558,12.518,60.092C10.371,63.609,9.307,67.408,9.307,71.547C9.307,77.451,11.305,82.455,15.36,86.68C19.45,90.942,24.355,93.067,30.154,93.067L84.738,93.067C89.664,93.067,93.817,91.274,97.274,87.673C100.695,84.11,102.374,79.889,102.374,74.892C102.373,70.69,101.127,66.98,98.598,63.683ZM79.597,46.525C80.09,47.039,80.221,47.37,80.221,48.131C80.221,48.626,80.142,48.907,79.934,49.234C75.844,55.674,79.148,64.398,86.522,66.23C88.479,66.716,89.931,67.676,91.213,69.347C92.49,71.012,93.067,72.729,93.067,74.893C93.067,77.5,92.308,79.407,90.56,81.228C88.847,83.012,87.114,83.76,84.738,83.76L30.154,83.76C26.91,83.76,24.423,82.683,22.074,80.235C19.688,77.75,18.613,75.057,18.613,71.547C18.613,69.117,19.208,66.996,20.461,64.944C21.697,62.921,23.252,61.498,25.307,60.501C29.376,58.525,31.824,54.213,31.534,49.65C31.484,48.87,31.456,48.284,31.456,48.132C31.456,43.677,32.842,40.193,35.843,37.067C38.811,33.976,42.058,32.573,46.207,32.573C49.219,32.573,51.844,33.407,54.36,35.168C56.905,36.949,58.677,39.211,59.843,42.177C62.657,49.336,71.573,51.533,77.25,46.367C77.624,46.028,77.815,45.953,78.315,45.953C78.919,45.953,79.139,46.048,79.597,46.525ZM79.597,46.525"/>
</g>
  <g id="Thin-S" transform="matrix(1.0,0.0,0.0,1.0,801.8697677995319,600.7976101479472)">  <path fill-opacity="1" stroke-dasharray="none" stroke-width="1px" stroke-miterlimit="4" stroke-linejoin="miter" fill="#000000" stroke-opacity="1" fill-rule="evenodd" clip-rule="evenodd" stroke-linecap="butt" stroke="none" d="M98.598,63.683C96.041,60.35,92.782,58.195,88.766,57.198C87.647,56.919,87.061,55.373,87.79,54.224C88.96,52.383,89.528,50.369,89.528,48.131C89.528,44.981,88.477,42.337,86.311,40.081C84.108,37.786,81.469,36.647,78.315,36.647C75.496,36.647,73.071,37.587,70.986,39.484C70.175,40.222,68.956,39.922,68.505,38.773C66.672,34.111,63.748,30.379,59.696,27.543C55.622,24.691,51.136,23.267,46.207,23.267C39.508,23.267,33.841,25.714,29.13,30.622C24.456,35.49,22.15,41.287,22.15,48.132C22.15,48.543,22.184,49.269,22.246,50.242C22.299,51.074,21.874,51.822,21.242,52.129C17.575,53.91,14.678,56.558,12.518,60.092C10.371,63.609,9.307,67.408,9.307,71.547C9.307,77.451,11.305,82.455,15.36,86.68C19.45,90.942,24.355,93.067,30.154,93.067L84.738,93.067C89.664,93.067,93.817,91.274,97.274,87.673C100.695,84.11,102.374,79.889,102.374,74.892C102.373,70.69,101.127,66.98,98.598,63.683ZM79.597,46.525C80.09,47.039,80.221,47.37,80.221,48.131C80.221,48.626,80.142,48.907,79.934,49.234C75.844,55.674,79.148,64.398,86.522,66.23C88.479,66.716,89.931,67.676,91.213,69.347C92.49,71.012,93.067,72.729,93.067,74.893C93.067,77.5,92.308,79.407,90.56,81.228C88.847,83.012,87.114,83.76,84.738,83.76L30.154,83.76C26.91,83.76,24.423,82.683,22.074,80.235C19.688,77.75,18.613,75.057,18.613,71.547C18.613,69.117,19.208,66.996,20.461,64.944C21.697,62.921,23.252,61.498,25.307,60.501C29.376,58.525,31.824,54.213,31.534,49.65C31.484,48.87,31.456,48.284,31.456,48.132C31.456,43.677,32.842,40.193,35.843,37.067C38.811,33.976,42.058,32.573,46.207,32.573C49.219,32.573,51.844,33.407,54.36,35.168C56.905,36.949,58.677,39.211,59.843,42.177C62.657,49.336,71.573,51.533,77.25,46.367C77.624,46.028,77.815,45.953,78.315,45.953C78.919,45.953,79.139,46.048,79.597,46.525ZM79.597,46.525"/>
</g>
  <g id="Ultralight-S" transform="matrix(1.0,0.0,0.0,1.0,505.1597677995319,600.7976101479472)">  <path stroke-linecap="butt" stroke-miterlimit="4" fill-opacity="1" fill="#000000" clip-rule="evenodd" stroke-width="1px" stroke-opacity="1" stroke="none" stroke-dasharray="none" stroke-linejoin="miter" fill-rule="evenodd" d="M98.598,63.683C96.041,60.35,92.782,58.195,88.766,57.198C87.647,56.919,87.061,55.373,87.79,54.224C88.96,52.383,89.528,50.369,89.528,48.131C89.528,44.981,88.477,42.337,86.311,40.081C84.108,37.786,81.469,36.647,78.315,36.647C75.496,36.647,73.071,37.587,70.986,39.484C70.175,40.222,68.956,39.922,68.505,38.773C66.672,34.111,63.748,30.379,59.696,27.543C55.622,24.691,51.136,23.267,46.207,23.267C39.508,23.267,33.841,25.714,29.13,30.622C24.456,35.49,22.15,41.287,22.15,48.132C22.15,48.543,22.184,49.269,22.246,50.242C22.299,51.074,21.874,51.822,21.242,52.129C17.575,53.91,14.678,56.558,12.518,60.092C10.371,63.609,9.307,67.408,9.307,71.547C9.307,77.451,11.305,82.455,15.36,86.68C19.45,90.942,24.355,93.067,30.154,93.067L84.738,93.067C89.664,93.067,93.817,91.274,97.274,87.673C100.695,84.11,102.374,79.889,102.374,74.892C102.373,70.69,101.127,66.98,98.598,63.683ZM79.597,46.525C80.09,47.039,80.221,47.37,80.221,48.131C80.221,48.626,80.142,48.907,79.934,49.234C75.844,55.674,79.148,64.398,86.522,66.23C88.479,66.716,89.931,67.676,91.213,69.347C92.49,71.012,93.067,72.729,93.067,74.893C93.067,77.5,92.308,79.407,90.56,81.228C88.847,83.012,87.114,83.76,84.738,83.76L30.154,83.76C26.91,83.76,24.423,82.683,22.074,80.235C19.688,77.75,18.613,75.057,18.613,71.547C18.613,69.117,19.208,66.996,20.461,64.944C21.697,62.921,23.252,61.498,25.307,60.501C29.376,58.525,31.824,54.213,31.534,49.65C31.484,48.87,31.456,48.284,31.456,48.132C31.456,43.677,32.842,40.193,35.843,37.067C38.811,33.976,42.058,32.573,46.207,32.573C49.219,32.573,51.844,33.407,54.36,35.168C56.905,36.949,58.677,39.211,59.843,42.177C62.657,49.336,71.573,51.533,77.25,46.367C77.624,46.028,77.815,45.953,78.315,45.953C78.919,45.953,79.139,46.048,79.597,46.525ZM79.597,46.525"/>
</g>
 </g>
</svg>
