<?xml version="1.0" encoding="UTF-8"?>
<!-- Generator: CustomSymbols v2.6.1.40 by @serious_bret https://bretlester.com/app_content/CustomSymbols/ -->
<!-- Guides: Left/Right 0.039/0.043 Cap/Base 0.141/0.145 -->
<!-- Settings: RefScale 1.0 Min/Max Stroke Scales 0.5/2.21 -->
<!DOCTYPE svg
PUBLIC "-//W3C//DTD SVG 1.1//EN"
       "http://www.w3.org/Graphics/SVG/1.1/DTD/svg11.dtd">
<svg version="1.1" xmlns="http://www.w3.org/2000/svg" xmlns:xlink="http://www.w3.org/1999/xlink" width="3300" height="2200">
<![CDATA[<svg width="24" height="24" viewBox="0 0 24 24" fill="none" xmlns="http://www.w3.org/2000/svg">
<path fill-rule="evenodd" clip-rule="evenodd" d="M9 15.9999C8.44772 15.9999 8 15.5522 8 14.9999L8 9.99988H6C5.44771 9.99988 5 9.55216 5 8.99988C5 8.44759 5.44772 7.99988 6 7.99988H8V5.99988C8 5.44759 8.44772 4.99988 9 4.99988C9.55228 4.99988 10 5.44759 10 5.99988V7.99988H15C15.5523 7.99988 16 8.44759 16 8.99988C16 8.99992 16 8.99984 16 8.99988V13.9999H18C18.5523 13.9999 19 14.4476 19 14.9999C19 15.5522 18.5523 15.9999 18 15.9999H16V18C16 18.5523 15.5523 19 15 19C14.4477 19 14 18.5523 14 18V15.9999H9ZM10 13.9999H14V9.99988H10V13.9999Z" fill="black"/>
<path d="M12.8026 1.02879C18.503 1.43986 23 6.19475 23 12H21C21 8.29552 18.7619 5.11382 15.5641 3.73326L14.6615 6.47603C14.5661 6.72393 14.2194 6.73479 14.1088 6.49333L12.3076 1.67118C12.1562 1.31641 12.3671 0.997292 12.8026 1.02879Z" fill="black"/>
<path d="M11.1916 22.9711C5.49124 22.56 0.99428 17.8051 0.99428 11.9999L2.99428 11.9999C2.99428 15.7044 5.23237 18.8861 8.43014 20.2666L9.33278 17.5238C9.42812 17.2759 9.77483 17.2651 9.8855 17.5065L11.6866 22.3287C11.838 22.6835 11.6272 23.0026 11.1916 22.9711Z" fill="black"/>
</svg>
]]>
 <g id="Notes">
  <rect height="2200" id="artboard" style="fill:white;opacity:1" width="3300" x="0" y="0"/>
  <line id="" style="fill:none;stroke:black;opacity:1;stroke-width:0.5;" x1="263" x2="3036" y1="292" y2="292"/>
  <text id="reftext1" style="stroke:none;fill:black;font-family:-apple-system,&quot;SF Pro Display&quot;,&quot;SF Pro Text&quot;,Helvetica,sans-serif;font-weight:bold;" transform="matrix(1 0 0 1 263 322)">Weight/Scale Variations</text>
  <text id="reftext2" style="stroke:none;fill:black;font-family:-apple-system,&quot;SF Pro Display&quot;,&quot;SF Pro Text&quot;,Helvetica,sans-serif;text-anchor:middle;" transform="matrix(1 0 0 1 559.711 322)">Ultralight</text>
  <text style="stroke:none;fill:black;font-family:-apple-system,&quot;SF Pro Display&quot;,&quot;SF Pro Text&quot;,Helvetica,sans-serif;text-anchor:middle;" transform="matrix(1 0 0 1 856.422 322)">Thin</text>
  <text style="stroke:none;fill:black;font-family:-apple-system,&quot;SF Pro Display&quot;,&quot;SF Pro Text&quot;,Helvetica,sans-serif;text-anchor:middle;" transform="matrix(1 0 0 1 1153.13 322)">Light</text>
  <text style="stroke:none;fill:black;font-family:-apple-system,&quot;SF Pro Display&quot;,&quot;SF Pro Text&quot;,Helvetica,sans-serif;text-anchor:middle;" transform="matrix(1 0 0 1 1449.84 322)">Regular</text>
  <text style="stroke:none;fill:black;font-family:-apple-system,&quot;SF Pro Display&quot;,&quot;SF Pro Text&quot;,Helvetica,sans-serif;text-anchor:middle;" transform="matrix(1 0 0 1 1746.56 322)">Medium</text>
  <text style="stroke:none;fill:black;font-family:-apple-system,&quot;SF Pro Display&quot;,&quot;SF Pro Text&quot;,Helvetica,sans-serif;text-anchor:middle;" transform="matrix(1 0 0 1 2043.27 322)">Semibold</text>
  <text style="stroke:none;fill:black;font-family:-apple-system,&quot;SF Pro Display&quot;,&quot;SF Pro Text&quot;,Helvetica,sans-serif;text-anchor:middle;" transform="matrix(1 0 0 1 2339.98 322)">Bold</text>
  <text style="stroke:none;fill:black;font-family:-apple-system,&quot;SF Pro Display&quot;,&quot;SF Pro Text&quot;,Helvetica,sans-serif;text-anchor:middle;" transform="matrix(1 0 0 1 2636.69 322)">Heavy</text>
  <text style="stroke:none;fill:black;font-family:-apple-system,&quot;SF Pro Display&quot;,&quot;SF Pro Text&quot;,Helvetica,sans-serif;text-anchor:middle;" transform="matrix(1 0 0 1 2933.4 322)">Black</text>
  <line id="" style="fill:none;stroke:black;opacity:1;stroke-width:0.5;" x1="263" x2="3036" y1="1903" y2="1903"/>
  <g id="" transform="matrix(1 0 0 1 263 1933)">
   <path d="M9.24805 0.830078C13.5547 0.830078 17.1387-2.74414 17.1387-7.05078C17.1387-11.3574 13.5449-14.9316 9.23828-14.9316C4.94141-14.9316 1.36719-11.3574 1.36719-7.05078C1.36719-2.74414 4.95117 0.830078 9.24805 0.830078ZM9.24805-0.654297C5.70312-0.654297 2.87109-3.49609 2.87109-7.05078C2.87109-10.6055 5.69336-13.4473 9.23828-13.4473C12.793-13.4473 15.6348-10.6055 15.6445-7.05078C15.6543-3.49609 12.8027-0.654297 9.24805-0.654297ZM6.39648-6.31836L8.50586-6.31836L8.50586-4.19922C8.50586-3.75977 8.79883-3.45703 9.22852-3.45703C9.67773-3.45703 9.9707-3.75977 9.9707-4.19922L9.9707-6.31836L12.0996-6.31836C12.5391-6.31836 12.8418-6.61133 12.8418-7.04102C12.8418-7.48047 12.5391-7.7832 12.0996-7.7832L9.9707-7.7832L9.9707-9.89258C9.9707-10.3418 9.67773-10.6445 9.22852-10.6445C8.79883-10.6445 8.50586-10.3418 8.50586-9.89258L8.50586-7.7832L6.39648-7.7832C5.94727-7.7832 5.64453-7.48047 5.64453-7.04102C5.64453-6.61133 5.94727-6.31836 6.39648-6.31836Z"/>
  </g>
  <g id="" transform="matrix(1 0 0 1 281.506 1933)">
   <path d="M11.709 2.91016C17.1582 2.91016 21.6699-1.61133 21.6699-7.05078C21.6699-12.5 17.1484-17.0117 11.6992-17.0117C6.25977-17.0117 1.74805-12.5 1.74805-7.05078C1.74805-1.61133 6.26953 2.91016 11.709 2.91016ZM11.709 1.25C7.09961 1.25 3.41797-2.44141 3.41797-7.05078C3.41797-11.6602 7.08984-15.3516 11.6992-15.3516C16.3086-15.3516 20-11.6602 20.0098-7.05078C20.0195-2.44141 16.3184 1.25 11.709 1.25ZM7.98828-6.23047L10.8789-6.23047L10.8789-3.32031C10.8789-2.83203 11.2109-2.5 11.6895-2.5C12.1777-2.5 12.5195-2.83203 12.5195-3.32031L12.5195-6.23047L15.4297-6.23047C15.918-6.23047 16.25-6.5625 16.25-7.04102C16.25-7.5293 15.918-7.87109 15.4297-7.87109L12.5195-7.87109L12.5195-10.7617C12.5195-11.2695 12.1777-11.6016 11.6895-11.6016C11.2109-11.6016 10.8789-11.2598 10.8789-10.7617L10.8789-7.87109L7.98828-7.87109C7.48047-7.87109 7.14844-7.5293 7.14844-7.04102C7.14844-6.5625 7.49023-6.23047 7.98828-6.23047Z"/>
  </g>
  <g id="" transform="matrix(1 0 0 1 304.924 1933)">
   <path d="M14.9707 5.66406C21.9336 5.66406 27.6953-0.0976562 27.6953-7.05078C27.6953-14.0137 21.9238-19.7754 14.9609-19.7754C8.00781-19.7754 2.25586-14.0137 2.25586-7.05078C2.25586-0.0976562 8.01758 5.66406 14.9707 5.66406ZM14.9707 3.84766C8.93555 3.84766 4.08203-1.01562 4.08203-7.05078C4.08203-13.0957 8.92578-17.9492 14.9609-17.9492C21.0059-17.9492 25.8594-13.0957 25.8691-7.05078C25.8789-1.01562 21.0156 3.84766 14.9707 3.84766ZM10.0586-6.14258L14.0625-6.14258L14.0625-2.12891C14.0625-1.5918 14.4336-1.2207 14.9512-1.2207C15.4883-1.2207 15.8594-1.5918 15.8594-2.12891L15.8594-6.14258L19.8828-6.14258C20.4102-6.14258 20.791-6.51367 20.791-7.03125C20.791-7.56836 20.4199-7.94922 19.8828-7.94922L15.8594-7.94922L15.8594-11.9531C15.8594-12.5098 15.4883-12.8809 14.9512-12.8809C14.4336-12.8809 14.0625-12.5 14.0625-11.9531L14.0625-7.94922L10.0586-7.94922C9.50195-7.94922 9.13086-7.56836 9.13086-7.03125C9.13086-6.51367 9.51172-6.14258 10.0586-6.14258Z"/>
  </g>
  <text style="stroke:none;fill:black;font-family:-apple-system,&quot;SF Pro Display&quot;,&quot;SF Pro Text&quot;,Helvetica,sans-serif;font-weight:bold;" transform="matrix(1 0 0 1 263 1953)">Design Variations</text>
  <text style="stroke:none;fill:black;font-family:-apple-system,&quot;SF Pro Display&quot;,&quot;SF Pro Text&quot;,Helvetica,sans-serif;" transform="matrix(1 0 0 1 263 1971)">Symbols are supported in up to nine weights and three scales.</text>
  <text style="stroke:none;fill:black;font-family:-apple-system,&quot;SF Pro Display&quot;,&quot;SF Pro Text&quot;,Helvetica,sans-serif;" transform="matrix(1 0 0 1 263 1989)">For optimal layout with text and other symbols, vertically align</text>
  <text style="stroke:none;fill:black;font-family:-apple-system,&quot;SF Pro Display&quot;,&quot;SF Pro Text&quot;,Helvetica,sans-serif;" transform="matrix(1 0 0 1 263 2007)">symbols with the adjacent text.</text>
  <line id="" style="fill:none;stroke:#00AEEF;stroke-width:0.5;opacity:1.0;" x1="776" x2="776" y1="1919" y2="1933"/>
  <g id="" transform="matrix(1 0 0 1 776 1933)">
   <path d="M3.31055 0.126953C3.82812 0.126953 4.08203-0.0683594 4.26758-0.605469L5.52734-4.0625L11.2891-4.0625L12.5488-0.605469C12.7344-0.0683594 12.9883 0.126953 13.4961 0.126953C14.0137 0.126953 14.3457-0.185547 14.3457-0.673828C14.3457-0.839844 14.3164-0.986328 14.2383-1.20117L9.6582-13.3887C9.43359-13.9941 9.0332-14.2871 8.4082-14.2871C7.80273-14.2871 7.39258-13.9941 7.17773-13.3984L2.59766-1.19141C2.51953-0.976562 2.49023-0.830078 2.49023-0.664062C2.49023-0.175781 2.80273 0.126953 3.31055 0.126953ZM6.00586-5.53711L8.37891-12.1094L8.42773-12.1094L10.8008-5.53711Z"/>
  </g>
  <line id="" style="fill:none;stroke:#00AEEF;stroke-width:0.5;opacity:1.0;" x1="792.836" x2="792.836" y1="1919" y2="1933"/>
  <text style="stroke:none;fill:black;font-family:-apple-system,&quot;SF Pro Display&quot;,&quot;SF Pro Text&quot;,Helvetica,sans-serif;font-weight:bold;" transform="matrix(1 0 0 1 776 1953)">Margins</text>
  <text style="stroke:none;fill:black;font-family:-apple-system,&quot;SF Pro Display&quot;,&quot;SF Pro Text&quot;,Helvetica,sans-serif;" transform="matrix(1 0 0 1 776 1971)">Leading and trailing margins on the left and right side of each symbol</text>
  <text style="stroke:none;fill:black;font-family:-apple-system,&quot;SF Pro Display&quot;,&quot;SF Pro Text&quot;,Helvetica,sans-serif;" transform="matrix(1 0 0 1 776 1989)">can be adjusted by modifying the x-location of the margin guidelines.</text>
  <text style="stroke:none;fill:black;font-family:-apple-system,&quot;SF Pro Display&quot;,&quot;SF Pro Text&quot;,Helvetica,sans-serif;" transform="matrix(1 0 0 1 776 2007)">Modifications are automatically applied proportionally to all</text>
  <text style="stroke:none;fill:black;font-family:-apple-system,&quot;SF Pro Display&quot;,&quot;SF Pro Text&quot;,Helvetica,sans-serif;" transform="matrix(1 0 0 1 776 2025)">scales and weights.</text>
  <g id="" transform="matrix(1 0 0 1 1289 1933)">
   <path d="M2.8418 1.86523L4.54102 3.57422C5.40039 4.44336 6.38672 4.38477 7.31445 3.35938L17.4902-7.85156C17.7539-7.76367 18.0273-7.7832 18.3398-7.8418L19.4043-8.03711L20.0684-7.36328L20.0293-6.80664C19.9902-6.30859 20.1172-5.92773 20.6055-5.44922L21.3672-4.70703C21.8457-4.22852 22.4609-4.19922 22.9297-4.66797L25.8398-7.58789C26.3086-8.05664 26.2891-8.65234 25.8105-9.13086L25.0391-9.89258C24.5605-10.3711 24.1895-10.5273 23.7109-10.4883L23.1348-10.4395L22.4902-11.0742L22.7344-12.1973C22.8613-12.7637 22.7051-13.2031 22.1191-13.7891L19.9219-15.9766C16.582-19.2969 12.1484-19.2188 9.25781-16.3281C8.83789-15.918 8.80859-15.3418 9.04297-14.9512C9.27734-14.5898 9.73633-14.3555 10.3809-14.5215C11.8457-14.8633 13.3691-14.9219 14.7949-13.9844L14.209-12.5293C14.0137-12.0508 13.9844-11.6504 14.1113-11.2891L3.04688-0.898438C2.06055 0.0195312 1.98242 0.996094 2.8418 1.86523ZM10.752-15.957C13.1836-17.7344 16.4746-17.4316 18.7012-15.2051L21.1328-12.793C21.3672-12.5586 21.4062-12.373 21.3379-12.0312L21.0156-10.5469L22.5195-9.0625L23.5059-9.12109C23.7598-9.13086 23.8379-9.11133 24.0332-8.91602L24.6094-8.33984L22.168-5.89844L21.5918-6.47461C21.3965-6.66992 21.3672-6.74805 21.377-7.01172L21.4453-7.98828L19.9512-9.47266L18.4277-9.21875C18.1055-9.15039 17.959-9.17969 17.7148-9.41406L15.7129-11.416C15.459-11.6504 15.4297-11.8164 15.5859-12.1875L16.4648-14.2773C14.9023-15.7324 12.8711-16.3574 10.8398-15.7617C10.6836-15.7227 10.625-15.8496 10.752-15.957ZM5.27344 2.30469L4.10156 1.14258C3.63281 0.683594 3.74023 0.341797 4.14062-0.0195312L14.9512-10.1953L16.416-8.71094L6.42578 2.27539C6.07422 2.67578 5.74219 2.77344 5.27344 2.30469Z"/>
  </g>
  <text style="stroke:none;fill:black;font-family:-apple-system,&quot;SF Pro Display&quot;,&quot;SF Pro Text&quot;,Helvetica,sans-serif;font-weight:bold;" transform="matrix(1 0 0 1 1289 1953)">Exporting</text>
  <text style="stroke:none;fill:black;font-family:-apple-system,&quot;SF Pro Display&quot;,&quot;SF Pro Text&quot;,Helvetica,sans-serif;" transform="matrix(1 0 0 1 1289 1971)">Symbols should be outlined when exporting to ensure the</text>
  <text style="stroke:none;fill:black;font-family:-apple-system,&quot;SF Pro Display&quot;,&quot;SF Pro Text&quot;,Helvetica,sans-serif;" transform="matrix(1 0 0 1 1289 1989)">design is preserved when submitting to Xcode.</text>
  <text id="template-version" style="stroke:none;fill:black;font-family:-apple-system,&quot;SF Pro Display&quot;,&quot;SF Pro Text&quot;,Helvetica,sans-serif;text-anchor:end;" transform="matrix(1 0 0 1 3036 1933)">Template v.2.0</text>
  <text style="stroke:none;fill:black;font-family:-apple-system,&quot;SF Pro Display&quot;,&quot;SF Pro Text&quot;,Helvetica,sans-serif;text-anchor:end;" transform="matrix(1 0 0 1 3036 1951)">Requires Xcode 12 or greater</text>
  <text style="stroke:none;fill:black;font-family:-apple-system,&quot;SF Pro Display&quot;,&quot;SF Pro Text&quot;,Helvetica,sans-serif;" transform="matrix(1 0 0 1 263 726)">Small</text>
  <text style="stroke:none;fill:black;font-family:-apple-system,&quot;SF Pro Display&quot;,&quot;SF Pro Text&quot;,Helvetica,sans-serif;" transform="matrix(1 0 0 1 263 1156)">Medium</text>
  <text style="stroke:none;fill:black;font-family:-apple-system,&quot;SF Pro Display&quot;,&quot;SF Pro Text&quot;,Helvetica,sans-serif;" transform="matrix(1 0 0 1 263 1586)">Large</text>
 </g>
 <g id="Guides">
  <g id="H-reference" style="fill:#27AAE1;stroke:none;" transform="matrix(1 0 0 1 339 696)">
   <path d="M0.976562 0L3.66211 0L12.9883-24.4629L45.752-24.4629L55.127 0L57.7637 0L30.6152-70.459L28.125-70.459ZM29.3457-67.1387L29.4434-67.1387L44.873-26.709L13.8672-26.709Z"/>
  </g>
  <line id="Baseline-S" style="fill:none;stroke:#27AAE1;opacity:1;stroke-width:0.5;" x1="263" x2="3036" y1="696" y2="696"/>
  <line id="Capline-S" style="fill:none;stroke:#27AAE1;opacity:1;stroke-width:0.5;" x1="263" x2="3036" y1="625.541" y2="625.541"/>
  <g id="H-reference" style="fill:#27AAE1;stroke:none;" transform="matrix(1 0 0 1 339 1126)">
   <path d="M0.976562 0L3.66211 0L12.9883-24.4629L45.752-24.4629L55.127 0L57.7637 0L30.6152-70.459L28.125-70.459ZM29.3457-67.1387L29.4434-67.1387L44.873-26.709L13.8672-26.709Z"/>
  </g>
  <line id="Baseline-M" style="fill:none;stroke:#27AAE1;opacity:1;stroke-width:0.5;" x1="263" x2="3036" y1="1126" y2="1126"/>
  <line id="Capline-M" style="fill:none;stroke:#27AAE1;opacity:1;stroke-width:0.5;" x1="263" x2="3036" y1="1055.54" y2="1055.54"/>
  <g id="H-reference" style="fill:#27AAE1;stroke:none;" transform="matrix(1 0 0 1 339 1556)">
   <path d="M0.976562 0L3.66211 0L12.9883-24.4629L45.752-24.4629L55.127 0L57.7637 0L30.6152-70.459L28.125-70.459ZM29.3457-67.1387L29.4434-67.1387L44.873-26.709L13.8672-26.709Z"/>
  </g>
  <line id="Baseline-L" style="fill:none;stroke:#27AAE1;opacity:1;stroke-width:0.5;" x1="263" x2="3036" y1="1556" y2="1556"/>
  <line id="Capline-L" style="fill:none;stroke:#27AAE1;opacity:1;stroke-width:0.5;" x1="263" x2="3036" y1="1485.54" y2="1485.54"/>
  <line id="left-margin" x1="1405.6369439885327" x2="1405.6369439885327" y1="1030.79" y2="1150.12" style="fill:none;stroke:#00AEEF;stroke-width:0.5;opacity:1.0;"/>
  <line id="right-margin" x1="1496.2283223367472" x2="1496.2283223367472" y1="1030.79" y2="1150.12" style="fill:none;stroke:#00AEEF;stroke-width:0.5;opacity:1.0;"/>
 </g>
 <g id="Symbols">
  <g id="Black-L" transform="matrix(1.0,0.0,0.0,1.0,2871.029194951418,1457.3738177028624)">  <path fill="#000000" stroke="none" clip-rule="evenodd" stroke-opacity="1" fill-rule="evenodd" stroke-width="1px" stroke-linejoin="miter" stroke-linecap="butt" stroke-dasharray="none" fill-opacity="1" stroke-miterlimit="4" d="M47.738,84.867C44.809,84.867,42.434,82.493,42.434,79.563L42.434,53.042L31.825,53.042C28.896,53.042,26.521,50.667,26.521,47.737C26.521,44.808,28.896,42.433,31.825,42.433L42.434,42.433L42.434,31.825C42.434,28.895,44.809,26.521,47.738,26.521C50.668,26.521,53.042,28.895,53.042,31.825L53.042,42.433L79.564,42.433C82.493,42.433,84.868,44.808,84.868,47.737C84.868,47.738,84.868,47.737,84.868,47.737L84.868,74.259L95.476,74.259C98.406,74.259,100.78,76.633,100.78,79.563C100.78,82.493,98.406,84.867,95.476,84.867L84.868,84.867L84.868,95.476C84.868,98.406,82.493,100.78,79.564,100.78C76.634,100.78,74.259,98.406,74.259,95.476L74.259,84.867L47.738,84.867ZM53.042,74.259L74.259,74.259L74.259,53.042L53.042,53.042L53.042,74.259ZM53.042,74.259"/>
  <path fill="#000000" stroke-miterlimit="4" stroke-linejoin="miter" stroke-linecap="butt" stroke-dasharray="none" fill-opacity="1" stroke-width="1px" fill-rule="nonzero" stroke="none" stroke-opacity="1" d="M67.908,5.457C98.144,7.637,121.997,32.858,121.997,63.651L111.389,63.651C111.389,44.001,99.518,27.125,82.556,19.802L77.768,34.35C77.262,35.665,75.423,35.723,74.836,34.442L65.282,8.864C64.479,6.983,65.598,5.29,67.908,5.457ZM67.908,5.457"/>
  <path stroke-width="1px" stroke-dasharray="none" stroke-linecap="butt" stroke-miterlimit="4" stroke-opacity="1" stroke-linejoin="miter" stroke="none" fill-rule="nonzero" fill-opacity="1" fill="#000000" d="M59.363,121.844C29.127,119.664,5.274,94.442,5.274,63.65L15.882,63.65C15.882,83.3,27.754,100.176,44.715,107.499L49.503,92.95C50.009,91.635,51.848,91.578,52.435,92.859L61.988,118.437C62.792,120.319,61.673,122.011,59.363,121.844ZM59.363,121.844"/>
</g>
  <g id="Heavy-L" transform="matrix(1.0,0.0,0.0,1.0,2574.319194951418,1457.3738177028624)">  <path fill-rule="evenodd" stroke-linejoin="miter" clip-rule="evenodd" stroke-width="1px" stroke-dasharray="none" fill="#000000" fill-opacity="1" stroke-linecap="butt" stroke-miterlimit="4" stroke-opacity="1" stroke="none" d="M47.738,84.867C44.809,84.867,42.434,82.493,42.434,79.563L42.434,53.042L31.825,53.042C28.896,53.042,26.521,50.667,26.521,47.737C26.521,44.808,28.896,42.433,31.825,42.433L42.434,42.433L42.434,31.825C42.434,28.895,44.809,26.521,47.738,26.521C50.668,26.521,53.042,28.895,53.042,31.825L53.042,42.433L79.564,42.433C82.493,42.433,84.868,44.808,84.868,47.737C84.868,47.738,84.868,47.737,84.868,47.737L84.868,74.259L95.476,74.259C98.406,74.259,100.78,76.633,100.78,79.563C100.78,82.493,98.406,84.867,95.476,84.867L84.868,84.867L84.868,95.476C84.868,98.406,82.493,100.78,79.564,100.78C76.634,100.78,74.259,98.406,74.259,95.476L74.259,84.867L47.738,84.867ZM53.042,74.259L74.259,74.259L74.259,53.042L53.042,53.042L53.042,74.259ZM53.042,74.259"/>
  <path stroke-dasharray="none" fill-opacity="1" stroke-linecap="butt" stroke="none" stroke-linejoin="miter" stroke-miterlimit="4" fill="#000000" stroke-opacity="1" fill-rule="nonzero" stroke-width="1px" d="M67.908,5.457C98.144,7.637,121.997,32.858,121.997,63.651L111.389,63.651C111.389,44.001,99.518,27.125,82.556,19.802L77.768,34.35C77.262,35.665,75.423,35.723,74.836,34.442L65.282,8.864C64.479,6.983,65.598,5.29,67.908,5.457ZM67.908,5.457"/>
  <path stroke-dasharray="none" stroke-linejoin="miter" fill-rule="nonzero" stroke-linecap="butt" stroke-miterlimit="4" fill="#000000" stroke-opacity="1" stroke="none" stroke-width="1px" fill-opacity="1" d="M59.363,121.844C29.127,119.664,5.274,94.442,5.274,63.65L15.882,63.65C15.882,83.3,27.754,100.176,44.715,107.499L49.503,92.95C50.009,91.635,51.848,91.578,52.435,92.859L61.988,118.437C62.792,120.319,61.673,122.011,59.363,121.844ZM59.363,121.844"/>
</g>
  <g id="Bold-L" transform="matrix(1.0,0.0,0.0,1.0,2277.609194951418,1457.3738177028624)">  <path stroke-linecap="butt" stroke-miterlimit="4" stroke-linejoin="miter" fill="#000000" stroke-width="1px" clip-rule="evenodd" fill-opacity="1" stroke-opacity="1" stroke="none" fill-rule="evenodd" stroke-dasharray="none" d="M47.738,84.867C44.809,84.867,42.434,82.493,42.434,79.563L42.434,53.042L31.825,53.042C28.896,53.042,26.521,50.667,26.521,47.737C26.521,44.808,28.896,42.433,31.825,42.433L42.434,42.433L42.434,31.825C42.434,28.895,44.809,26.521,47.738,26.521C50.668,26.521,53.042,28.895,53.042,31.825L53.042,42.433L79.564,42.433C82.493,42.433,84.868,44.808,84.868,47.737C84.868,47.738,84.868,47.737,84.868,47.737L84.868,74.259L95.476,74.259C98.406,74.259,100.78,76.633,100.78,79.563C100.78,82.493,98.406,84.867,95.476,84.867L84.868,84.867L84.868,95.476C84.868,98.406,82.493,100.78,79.564,100.78C76.634,100.78,74.259,98.406,74.259,95.476L74.259,84.867L47.738,84.867ZM53.042,74.259L74.259,74.259L74.259,53.042L53.042,53.042L53.042,74.259ZM53.042,74.259"/>
  <path fill-opacity="1" fill-rule="nonzero" fill="#000000" stroke-dasharray="none" stroke-linecap="butt" stroke-linejoin="miter" stroke-opacity="1" stroke-width="1px" stroke="none" stroke-miterlimit="4" d="M67.908,5.457C98.144,7.637,121.997,32.858,121.997,63.651L111.389,63.651C111.389,44.001,99.518,27.125,82.556,19.802L77.768,34.35C77.262,35.665,75.423,35.723,74.836,34.442L65.282,8.864C64.479,6.983,65.598,5.29,67.908,5.457ZM67.908,5.457"/>
  <path fill-opacity="1" stroke-width="1px" stroke="none" stroke-miterlimit="4" stroke-linejoin="miter" fill-rule="nonzero" stroke-dasharray="none" fill="#000000" stroke-linecap="butt" stroke-opacity="1" d="M59.363,121.844C29.127,119.664,5.274,94.442,5.274,63.65L15.882,63.65C15.882,83.3,27.754,100.176,44.715,107.499L49.503,92.95C50.009,91.635,51.848,91.578,52.435,92.859L61.988,118.437C62.792,120.319,61.673,122.011,59.363,121.844ZM59.363,121.844"/>
</g>
  <g id="Semibold-L" transform="matrix(1.0,0.0,0.0,1.0,1980.899194951418,1457.3738177028624)">  <path stroke-width="1px" stroke="none" stroke-opacity="1" stroke-miterlimit="4" fill-opacity="1" fill="#000000" stroke-linecap="butt" clip-rule="evenodd" fill-rule="evenodd" stroke-dasharray="none" stroke-linejoin="miter" d="M47.738,84.867C44.809,84.867,42.434,82.493,42.434,79.563L42.434,53.042L31.825,53.042C28.896,53.042,26.521,50.667,26.521,47.737C26.521,44.808,28.896,42.433,31.825,42.433L42.434,42.433L42.434,31.825C42.434,28.895,44.809,26.521,47.738,26.521C50.668,26.521,53.042,28.895,53.042,31.825L53.042,42.433L79.564,42.433C82.493,42.433,84.868,44.808,84.868,47.737C84.868,47.738,84.868,47.737,84.868,47.737L84.868,74.259L95.476,74.259C98.406,74.259,100.78,76.633,100.78,79.563C100.78,82.493,98.406,84.867,95.476,84.867L84.868,84.867L84.868,95.476C84.868,98.406,82.493,100.78,79.564,100.78C76.634,100.78,74.259,98.406,74.259,95.476L74.259,84.867L47.738,84.867ZM53.042,74.259L74.259,74.259L74.259,53.042L53.042,53.042L53.042,74.259ZM53.042,74.259"/>
  <path fill-rule="nonzero" stroke="none" stroke-opacity="1" stroke-linejoin="miter" stroke-linecap="butt" stroke-miterlimit="4" stroke-dasharray="none" fill="#000000" fill-opacity="1" stroke-width="1px" d="M67.908,5.457C98.144,7.637,121.997,32.858,121.997,63.651L111.389,63.651C111.389,44.001,99.518,27.125,82.556,19.802L77.768,34.35C77.262,35.665,75.423,35.723,74.836,34.442L65.282,8.864C64.479,6.983,65.598,5.29,67.908,5.457ZM67.908,5.457"/>
  <path stroke-width="1px" stroke-linejoin="miter" fill="#000000" fill-rule="nonzero" stroke-opacity="1" stroke-linecap="butt" fill-opacity="1" stroke-dasharray="none" stroke="none" stroke-miterlimit="4" d="M59.363,121.844C29.127,119.664,5.274,94.442,5.274,63.65L15.882,63.65C15.882,83.3,27.754,100.176,44.715,107.499L49.503,92.95C50.009,91.635,51.848,91.578,52.435,92.859L61.988,118.437C62.792,120.319,61.673,122.011,59.363,121.844ZM59.363,121.844"/>
</g>
  <g id="Medium-L" transform="matrix(1.0,0.0,0.0,1.0,1684.189194951418,1457.3738177028624)">  <path stroke="none" clip-rule="evenodd" fill-opacity="1" stroke-miterlimit="4" stroke-width="1px" fill-rule="evenodd" stroke-linejoin="miter" stroke-opacity="1" fill="#000000" stroke-linecap="butt" stroke-dasharray="none" d="M47.738,84.867C44.809,84.867,42.434,82.493,42.434,79.563L42.434,53.042L31.825,53.042C28.896,53.042,26.521,50.667,26.521,47.737C26.521,44.808,28.896,42.433,31.825,42.433L42.434,42.433L42.434,31.825C42.434,28.895,44.809,26.521,47.738,26.521C50.668,26.521,53.042,28.895,53.042,31.825L53.042,42.433L79.564,42.433C82.493,42.433,84.868,44.808,84.868,47.737C84.868,47.738,84.868,47.737,84.868,47.737L84.868,74.259L95.476,74.259C98.406,74.259,100.78,76.633,100.78,79.563C100.78,82.493,98.406,84.867,95.476,84.867L84.868,84.867L84.868,95.476C84.868,98.406,82.493,100.78,79.564,100.78C76.634,100.78,74.259,98.406,74.259,95.476L74.259,84.867L47.738,84.867ZM53.042,74.259L74.259,74.259L74.259,53.042L53.042,53.042L53.042,74.259ZM53.042,74.259"/>
  <path stroke-miterlimit="4" stroke-linejoin="miter" fill-rule="nonzero" stroke-linecap="butt" stroke-dasharray="none" stroke-opacity="1" fill="#000000" stroke="none" fill-opacity="1" stroke-width="1px" d="M67.908,5.457C98.144,7.637,121.997,32.858,121.997,63.651L111.389,63.651C111.389,44.001,99.518,27.125,82.556,19.802L77.768,34.35C77.262,35.665,75.423,35.723,74.836,34.442L65.282,8.864C64.479,6.983,65.598,5.29,67.908,5.457ZM67.908,5.457"/>
  <path stroke-linejoin="miter" stroke="none" stroke-linecap="butt" fill-rule="nonzero" stroke-width="1px" stroke-dasharray="none" stroke-miterlimit="4" fill-opacity="1" fill="#000000" stroke-opacity="1" d="M59.363,121.844C29.127,119.664,5.274,94.442,5.274,63.65L15.882,63.65C15.882,83.3,27.754,100.176,44.715,107.499L49.503,92.95C50.009,91.635,51.848,91.578,52.435,92.859L61.988,118.437C62.792,120.319,61.673,122.011,59.363,121.844ZM59.363,121.844"/>
</g>
  <g id="Regular-L" transform="matrix(1.0,0.0,0.0,1.0,1387.4791949514179,1457.3738177028624)">  <path stroke-dasharray="none" stroke-linejoin="miter" fill-opacity="1" stroke-opacity="1" fill="#000000" clip-rule="evenodd" stroke-miterlimit="4" fill-rule="evenodd" stroke-width="1px" stroke="none" stroke-linecap="butt" d="M47.738,84.867C44.809,84.867,42.434,82.493,42.434,79.563L42.434,53.042L31.825,53.042C28.896,53.042,26.521,50.667,26.521,47.737C26.521,44.808,28.896,42.433,31.825,42.433L42.434,42.433L42.434,31.825C42.434,28.895,44.809,26.521,47.738,26.521C50.668,26.521,53.042,28.895,53.042,31.825L53.042,42.433L79.564,42.433C82.493,42.433,84.868,44.808,84.868,47.737C84.868,47.738,84.868,47.737,84.868,47.737L84.868,74.259L95.476,74.259C98.406,74.259,100.78,76.633,100.78,79.563C100.78,82.493,98.406,84.867,95.476,84.867L84.868,84.867L84.868,95.476C84.868,98.406,82.493,100.78,79.564,100.78C76.634,100.78,74.259,98.406,74.259,95.476L74.259,84.867L47.738,84.867ZM53.042,74.259L74.259,74.259L74.259,53.042L53.042,53.042L53.042,74.259ZM53.042,74.259"/>
  <path stroke-miterlimit="4" stroke-width="1px" stroke-opacity="1" stroke-dasharray="none" fill-rule="nonzero" stroke-linecap="butt" stroke-linejoin="miter" fill-opacity="1" fill="#000000" stroke="none" d="M67.908,5.457C98.144,7.637,121.997,32.858,121.997,63.651L111.389,63.651C111.389,44.001,99.518,27.125,82.556,19.802L77.768,34.35C77.262,35.665,75.423,35.723,74.836,34.442L65.282,8.864C64.479,6.983,65.598,5.29,67.908,5.457ZM67.908,5.457"/>
  <path stroke-linejoin="miter" fill-rule="nonzero" stroke-opacity="1" fill="#000000" stroke-dasharray="none" stroke-width="1px" stroke-miterlimit="4" stroke-linecap="butt" fill-opacity="1" stroke="none" d="M59.363,121.844C29.127,119.664,5.274,94.442,5.274,63.65L15.882,63.65C15.882,83.3,27.754,100.176,44.715,107.499L49.503,92.95C50.009,91.635,51.848,91.578,52.435,92.859L61.988,118.437C62.792,120.319,61.673,122.011,59.363,121.844ZM59.363,121.844"/>
</g>
  <g id="Light-L" transform="matrix(1.0,0.0,0.0,1.0,1090.769194951418,1457.3738177028624)">  <path stroke-opacity="1" fill-opacity="1" clip-rule="evenodd" stroke-dasharray="none" stroke="none" stroke-linecap="butt" stroke-width="1px" fill-rule="evenodd" stroke-miterlimit="4" stroke-linejoin="miter" fill="#000000" d="M47.738,84.867C44.809,84.867,42.434,82.493,42.434,79.563L42.434,53.042L31.825,53.042C28.896,53.042,26.521,50.667,26.521,47.737C26.521,44.808,28.896,42.433,31.825,42.433L42.434,42.433L42.434,31.825C42.434,28.895,44.809,26.521,47.738,26.521C50.668,26.521,53.042,28.895,53.042,31.825L53.042,42.433L79.564,42.433C82.493,42.433,84.868,44.808,84.868,47.737C84.868,47.738,84.868,47.737,84.868,47.737L84.868,74.259L95.476,74.259C98.406,74.259,100.78,76.633,100.78,79.563C100.78,82.493,98.406,84.867,95.476,84.867L84.868,84.867L84.868,95.476C84.868,98.406,82.493,100.78,79.564,100.78C76.634,100.78,74.259,98.406,74.259,95.476L74.259,84.867L47.738,84.867ZM53.042,74.259L74.259,74.259L74.259,53.042L53.042,53.042L53.042,74.259ZM53.042,74.259"/>
  <path stroke-linecap="butt" stroke-miterlimit="4" fill-opacity="1" stroke-width="1px" fill="#000000" stroke-dasharray="none" stroke-linejoin="miter" fill-rule="nonzero" stroke-opacity="1" stroke="none" d="M67.908,5.457C98.144,7.637,121.997,32.858,121.997,63.651L111.389,63.651C111.389,44.001,99.518,27.125,82.556,19.802L77.768,34.35C77.262,35.665,75.423,35.723,74.836,34.442L65.282,8.864C64.479,6.983,65.598,5.29,67.908,5.457ZM67.908,5.457"/>
  <path fill="#000000" fill-opacity="1" stroke-dasharray="none" stroke-opacity="1" stroke-linecap="butt" fill-rule="nonzero" stroke="none" stroke-width="1px" stroke-linejoin="miter" stroke-miterlimit="4" d="M59.363,121.844C29.127,119.664,5.274,94.442,5.274,63.65L15.882,63.65C15.882,83.3,27.754,100.176,44.715,107.499L49.503,92.95C50.009,91.635,51.848,91.578,52.435,92.859L61.988,118.437C62.792,120.319,61.673,122.011,59.363,121.844ZM59.363,121.844"/>
</g>
  <g id="Thin-L" transform="matrix(1.0,0.0,0.0,1.0,794.0591949514181,1457.3738177028624)">  <path stroke-width="1px" fill-opacity="1" clip-rule="evenodd" stroke-miterlimit="4" stroke-dasharray="none" stroke-linejoin="miter" stroke-opacity="1" stroke="none" stroke-linecap="butt" fill-rule="evenodd" fill="#000000" d="M47.738,84.867C44.809,84.867,42.434,82.493,42.434,79.563L42.434,53.042L31.825,53.042C28.896,53.042,26.521,50.667,26.521,47.737C26.521,44.808,28.896,42.433,31.825,42.433L42.434,42.433L42.434,31.825C42.434,28.895,44.809,26.521,47.738,26.521C50.668,26.521,53.042,28.895,53.042,31.825L53.042,42.433L79.564,42.433C82.493,42.433,84.868,44.808,84.868,47.737C84.868,47.738,84.868,47.737,84.868,47.737L84.868,74.259L95.476,74.259C98.406,74.259,100.78,76.633,100.78,79.563C100.78,82.493,98.406,84.867,95.476,84.867L84.868,84.867L84.868,95.476C84.868,98.406,82.493,100.78,79.564,100.78C76.634,100.78,74.259,98.406,74.259,95.476L74.259,84.867L47.738,84.867ZM53.042,74.259L74.259,74.259L74.259,53.042L53.042,53.042L53.042,74.259ZM53.042,74.259"/>
  <path fill="#000000" fill-opacity="1" stroke="none" stroke-linejoin="miter" stroke-opacity="1" stroke-dasharray="none" stroke-width="1px" stroke-miterlimit="4" stroke-linecap="butt" fill-rule="nonzero" d="M67.908,5.457C98.144,7.637,121.997,32.858,121.997,63.651L111.389,63.651C111.389,44.001,99.518,27.125,82.556,19.802L77.768,34.35C77.262,35.665,75.423,35.723,74.836,34.442L65.282,8.864C64.479,6.983,65.598,5.29,67.908,5.457ZM67.908,5.457"/>
  <path stroke-dasharray="none" stroke-linejoin="miter" fill-rule="nonzero" fill-opacity="1" stroke-opacity="1" stroke-miterlimit="4" stroke="none" stroke-width="1px" stroke-linecap="butt" fill="#000000" d="M59.363,121.844C29.127,119.664,5.274,94.442,5.274,63.65L15.882,63.65C15.882,83.3,27.754,100.176,44.715,107.499L49.503,92.95C50.009,91.635,51.848,91.578,52.435,92.859L61.988,118.437C62.792,120.319,61.673,122.011,59.363,121.844ZM59.363,121.844"/>
</g>
  <g id="Ultralight-L" transform="matrix(1.0,0.0,0.0,1.0,497.34919495141804,1457.3738177028624)">  <path stroke-linecap="butt" fill="#000000" stroke-width="1px" stroke-miterlimit="4" stroke-dasharray="none" clip-rule="evenodd" stroke="none" stroke-opacity="1" fill-opacity="1" fill-rule="evenodd" stroke-linejoin="miter" d="M47.738,84.867C44.809,84.867,42.434,82.493,42.434,79.563L42.434,53.042L31.825,53.042C28.896,53.042,26.521,50.667,26.521,47.737C26.521,44.808,28.896,42.433,31.825,42.433L42.434,42.433L42.434,31.825C42.434,28.895,44.809,26.521,47.738,26.521C50.668,26.521,53.042,28.895,53.042,31.825L53.042,42.433L79.564,42.433C82.493,42.433,84.868,44.808,84.868,47.737C84.868,47.738,84.868,47.737,84.868,47.737L84.868,74.259L95.476,74.259C98.406,74.259,100.78,76.633,100.78,79.563C100.78,82.493,98.406,84.867,95.476,84.867L84.868,84.867L84.868,95.476C84.868,98.406,82.493,100.78,79.564,100.78C76.634,100.78,74.259,98.406,74.259,95.476L74.259,84.867L47.738,84.867ZM53.042,74.259L74.259,74.259L74.259,53.042L53.042,53.042L53.042,74.259ZM53.042,74.259"/>
  <path stroke-miterlimit="4" stroke-linejoin="miter" stroke-width="1px" fill="#000000" stroke-linecap="butt" fill-opacity="1" stroke-dasharray="none" fill-rule="nonzero" stroke="none" stroke-opacity="1" d="M67.908,5.457C98.144,7.637,121.997,32.858,121.997,63.651L111.389,63.651C111.389,44.001,99.518,27.125,82.556,19.802L77.768,34.35C77.262,35.665,75.423,35.723,74.836,34.442L65.282,8.864C64.479,6.983,65.598,5.29,67.908,5.457ZM67.908,5.457"/>
  <path stroke-opacity="1" stroke-linecap="butt" fill="#000000" stroke-dasharray="none" fill-rule="nonzero" fill-opacity="1" stroke-linejoin="miter" stroke-miterlimit="4" stroke="none" stroke-width="1px" d="M59.363,121.844C29.127,119.664,5.274,94.442,5.274,63.65L15.882,63.65C15.882,83.3,27.754,100.176,44.715,107.499L49.503,92.95C50.009,91.635,51.848,91.578,52.435,92.859L61.988,118.437C62.792,120.319,61.673,122.011,59.363,121.844ZM59.363,121.844"/>
</g>
  <g id="Black-M" transform="matrix(1.0,0.0,0.0,1.0,2885.3382906600136,1041.6256770286238)">  <path fill="#000000" stroke="none" clip-rule="evenodd" stroke-opacity="1" fill-rule="evenodd" stroke-width="1px" stroke-linejoin="miter" stroke-linecap="butt" stroke-dasharray="none" fill-opacity="1" stroke-miterlimit="4" d="M37.006,65.789C34.735,65.789,32.894,63.948,32.894,61.677L32.894,41.118L24.671,41.118C22.4,41.118,20.559,39.277,20.559,37.006C20.559,34.735,22.4,32.894,24.671,32.894L32.894,32.894L32.894,24.67C32.894,22.399,34.735,20.559,37.006,20.559C39.277,20.559,41.118,22.399,41.118,24.67L41.118,32.894L61.677,32.894C63.948,32.894,65.789,34.735,65.789,37.006C65.789,37.006,65.789,37.006,65.789,37.006L65.789,57.565L74.013,57.565C76.284,57.565,78.124,59.406,78.124,61.677C78.124,63.948,76.284,65.789,74.013,65.789L65.789,65.789L65.789,74.013C65.789,76.284,63.948,78.124,61.677,78.124C59.406,78.124,57.565,76.284,57.565,74.013L57.565,65.789L37.006,65.789ZM41.118,57.565L57.565,57.565L57.565,41.118L41.118,41.118L41.118,57.565ZM41.118,57.565"/>
  <path fill="#000000" stroke-miterlimit="4" stroke-linejoin="miter" stroke-linecap="butt" stroke-dasharray="none" fill-opacity="1" stroke-width="1px" fill-rule="nonzero" stroke="none" stroke-opacity="1" d="M52.642,4.23C76.081,5.92,94.572,25.472,94.572,49.342L86.348,49.342C86.348,34.11,77.145,21.027,63.997,15.35L60.285,26.628C59.893,27.648,58.467,27.692,58.013,26.699L50.607,6.872C49.984,5.413,50.851,4.101,52.642,4.23ZM52.642,4.23"/>
  <path stroke-width="1px" stroke-dasharray="none" stroke-linecap="butt" stroke-miterlimit="4" stroke-opacity="1" stroke-linejoin="miter" stroke="none" fill-rule="nonzero" fill-opacity="1" fill="#000000" d="M46.018,94.453C22.579,92.762,4.088,73.211,4.088,49.341L12.312,49.341C12.312,64.573,21.515,77.656,34.663,83.332L38.375,72.055C38.767,71.035,40.192,70.991,40.647,71.983L48.053,91.811C48.676,93.27,47.809,94.582,46.018,94.453ZM46.018,94.453"/>
</g>
  <g id="Heavy-M" transform="matrix(1.0,0.0,0.0,1.0,2588.6282906600136,1041.6256770286238)">  <path fill-rule="evenodd" stroke-linejoin="miter" clip-rule="evenodd" stroke-width="1px" stroke-dasharray="none" fill="#000000" fill-opacity="1" stroke-linecap="butt" stroke-miterlimit="4" stroke-opacity="1" stroke="none" d="M37.006,65.789C34.735,65.789,32.894,63.948,32.894,61.677L32.894,41.118L24.671,41.118C22.4,41.118,20.559,39.277,20.559,37.006C20.559,34.735,22.4,32.894,24.671,32.894L32.894,32.894L32.894,24.67C32.894,22.399,34.735,20.559,37.006,20.559C39.277,20.559,41.118,22.399,41.118,24.67L41.118,32.894L61.677,32.894C63.948,32.894,65.789,34.735,65.789,37.006C65.789,37.006,65.789,37.006,65.789,37.006L65.789,57.565L74.013,57.565C76.284,57.565,78.124,59.406,78.124,61.677C78.124,63.948,76.284,65.789,74.013,65.789L65.789,65.789L65.789,74.013C65.789,76.284,63.948,78.124,61.677,78.124C59.406,78.124,57.565,76.284,57.565,74.013L57.565,65.789L37.006,65.789ZM41.118,57.565L57.565,57.565L57.565,41.118L41.118,41.118L41.118,57.565ZM41.118,57.565"/>
  <path stroke-dasharray="none" fill-opacity="1" stroke-linecap="butt" stroke="none" stroke-linejoin="miter" stroke-miterlimit="4" fill="#000000" stroke-opacity="1" fill-rule="nonzero" stroke-width="1px" d="M52.642,4.23C76.081,5.92,94.572,25.472,94.572,49.342L86.348,49.342C86.348,34.11,77.145,21.027,63.997,15.35L60.285,26.628C59.893,27.648,58.467,27.692,58.013,26.699L50.607,6.872C49.984,5.413,50.851,4.101,52.642,4.23ZM52.642,4.23"/>
  <path stroke-dasharray="none" stroke-linejoin="miter" fill-rule="nonzero" stroke-linecap="butt" stroke-miterlimit="4" fill="#000000" stroke-opacity="1" stroke="none" stroke-width="1px" fill-opacity="1" d="M46.018,94.453C22.579,92.762,4.088,73.211,4.088,49.341L12.312,49.341C12.312,64.573,21.515,77.656,34.663,83.332L38.375,72.055C38.767,71.035,40.192,70.991,40.647,71.983L48.053,91.811C48.676,93.27,47.809,94.582,46.018,94.453ZM46.018,94.453"/>
</g>
  <g id="Bold-M" transform="matrix(1.0,0.0,0.0,1.0,2291.9182906600136,1041.6256770286238)">  <path stroke-linecap="butt" stroke-miterlimit="4" stroke-linejoin="miter" fill="#000000" stroke-width="1px" clip-rule="evenodd" fill-opacity="1" stroke-opacity="1" stroke="none" fill-rule="evenodd" stroke-dasharray="none" d="M37.006,65.789C34.735,65.789,32.894,63.948,32.894,61.677L32.894,41.118L24.671,41.118C22.4,41.118,20.559,39.277,20.559,37.006C20.559,34.735,22.4,32.894,24.671,32.894L32.894,32.894L32.894,24.67C32.894,22.399,34.735,20.559,37.006,20.559C39.277,20.559,41.118,22.399,41.118,24.67L41.118,32.894L61.677,32.894C63.948,32.894,65.789,34.735,65.789,37.006C65.789,37.006,65.789,37.006,65.789,37.006L65.789,57.565L74.013,57.565C76.284,57.565,78.124,59.406,78.124,61.677C78.124,63.948,76.284,65.789,74.013,65.789L65.789,65.789L65.789,74.013C65.789,76.284,63.948,78.124,61.677,78.124C59.406,78.124,57.565,76.284,57.565,74.013L57.565,65.789L37.006,65.789ZM41.118,57.565L57.565,57.565L57.565,41.118L41.118,41.118L41.118,57.565ZM41.118,57.565"/>
  <path fill-opacity="1" fill-rule="nonzero" fill="#000000" stroke-dasharray="none" stroke-linecap="butt" stroke-linejoin="miter" stroke-opacity="1" stroke-width="1px" stroke="none" stroke-miterlimit="4" d="M52.642,4.23C76.081,5.92,94.572,25.472,94.572,49.342L86.348,49.342C86.348,34.11,77.145,21.027,63.997,15.35L60.285,26.628C59.893,27.648,58.467,27.692,58.013,26.699L50.607,6.872C49.984,5.413,50.851,4.101,52.642,4.23ZM52.642,4.23"/>
  <path fill-opacity="1" stroke-width="1px" stroke="none" stroke-miterlimit="4" stroke-linejoin="miter" fill-rule="nonzero" stroke-dasharray="none" fill="#000000" stroke-linecap="butt" stroke-opacity="1" d="M46.018,94.453C22.579,92.762,4.088,73.211,4.088,49.341L12.312,49.341C12.312,64.573,21.515,77.656,34.663,83.332L38.375,72.055C38.767,71.035,40.192,70.991,40.647,71.983L48.053,91.811C48.676,93.27,47.809,94.582,46.018,94.453ZM46.018,94.453"/>
</g>
  <g id="Semibold-M" transform="matrix(1.0,0.0,0.0,1.0,1995.208290660014,1041.6256770286238)">  <path stroke-width="1px" stroke="none" stroke-opacity="1" stroke-miterlimit="4" fill-opacity="1" fill="#000000" stroke-linecap="butt" clip-rule="evenodd" fill-rule="evenodd" stroke-dasharray="none" stroke-linejoin="miter" d="M37.006,65.789C34.735,65.789,32.894,63.948,32.894,61.677L32.894,41.118L24.671,41.118C22.4,41.118,20.559,39.277,20.559,37.006C20.559,34.735,22.4,32.894,24.671,32.894L32.894,32.894L32.894,24.67C32.894,22.399,34.735,20.559,37.006,20.559C39.277,20.559,41.118,22.399,41.118,24.67L41.118,32.894L61.677,32.894C63.948,32.894,65.789,34.735,65.789,37.006C65.789,37.006,65.789,37.006,65.789,37.006L65.789,57.565L74.013,57.565C76.284,57.565,78.124,59.406,78.124,61.677C78.124,63.948,76.284,65.789,74.013,65.789L65.789,65.789L65.789,74.013C65.789,76.284,63.948,78.124,61.677,78.124C59.406,78.124,57.565,76.284,57.565,74.013L57.565,65.789L37.006,65.789ZM41.118,57.565L57.565,57.565L57.565,41.118L41.118,41.118L41.118,57.565ZM41.118,57.565"/>
  <path fill-rule="nonzero" stroke="none" stroke-opacity="1" stroke-linejoin="miter" stroke-linecap="butt" stroke-miterlimit="4" stroke-dasharray="none" fill="#000000" fill-opacity="1" stroke-width="1px" d="M52.642,4.23C76.081,5.92,94.572,25.472,94.572,49.342L86.348,49.342C86.348,34.11,77.145,21.027,63.997,15.35L60.285,26.628C59.893,27.648,58.467,27.692,58.013,26.699L50.607,6.872C49.984,5.413,50.851,4.101,52.642,4.23ZM52.642,4.23"/>
  <path stroke-width="1px" stroke-linejoin="miter" fill="#000000" fill-rule="nonzero" stroke-opacity="1" stroke-linecap="butt" fill-opacity="1" stroke-dasharray="none" stroke="none" stroke-miterlimit="4" d="M46.018,94.453C22.579,92.762,4.088,73.211,4.088,49.341L12.312,49.341C12.312,64.573,21.515,77.656,34.663,83.332L38.375,72.055C38.767,71.035,40.192,70.991,40.647,71.983L48.053,91.811C48.676,93.27,47.809,94.582,46.018,94.453ZM46.018,94.453"/>
</g>
  <g id="Medium-M" transform="matrix(1.0,0.0,0.0,1.0,1698.498290660014,1041.6256770286238)">  <path stroke="none" clip-rule="evenodd" fill-opacity="1" stroke-miterlimit="4" stroke-width="1px" fill-rule="evenodd" stroke-linejoin="miter" stroke-opacity="1" fill="#000000" stroke-linecap="butt" stroke-dasharray="none" d="M37.006,65.789C34.735,65.789,32.894,63.948,32.894,61.677L32.894,41.118L24.671,41.118C22.4,41.118,20.559,39.277,20.559,37.006C20.559,34.735,22.4,32.894,24.671,32.894L32.894,32.894L32.894,24.67C32.894,22.399,34.735,20.559,37.006,20.559C39.277,20.559,41.118,22.399,41.118,24.67L41.118,32.894L61.677,32.894C63.948,32.894,65.789,34.735,65.789,37.006C65.789,37.006,65.789,37.006,65.789,37.006L65.789,57.565L74.013,57.565C76.284,57.565,78.124,59.406,78.124,61.677C78.124,63.948,76.284,65.789,74.013,65.789L65.789,65.789L65.789,74.013C65.789,76.284,63.948,78.124,61.677,78.124C59.406,78.124,57.565,76.284,57.565,74.013L57.565,65.789L37.006,65.789ZM41.118,57.565L57.565,57.565L57.565,41.118L41.118,41.118L41.118,57.565ZM41.118,57.565"/>
  <path stroke-miterlimit="4" stroke-linejoin="miter" fill-rule="nonzero" stroke-linecap="butt" stroke-dasharray="none" stroke-opacity="1" fill="#000000" stroke="none" fill-opacity="1" stroke-width="1px" d="M52.642,4.23C76.081,5.92,94.572,25.472,94.572,49.342L86.348,49.342C86.348,34.11,77.145,21.027,63.997,15.35L60.285,26.628C59.893,27.648,58.467,27.692,58.013,26.699L50.607,6.872C49.984,5.413,50.851,4.101,52.642,4.23ZM52.642,4.23"/>
  <path stroke-linejoin="miter" stroke="none" stroke-linecap="butt" fill-rule="nonzero" stroke-width="1px" stroke-dasharray="none" stroke-miterlimit="4" fill-opacity="1" fill="#000000" stroke-opacity="1" d="M46.018,94.453C22.579,92.762,4.088,73.211,4.088,49.341L12.312,49.341C12.312,64.573,21.515,77.656,34.663,83.332L38.375,72.055C38.767,71.035,40.192,70.991,40.647,71.983L48.053,91.811C48.676,93.27,47.809,94.582,46.018,94.453ZM46.018,94.453"/>
</g>
  <g id="Regular-M" transform="matrix(1.0,0.0,0.0,1.0,1401.788290660014,1041.6256770286238)">  <path stroke-dasharray="none" stroke-linejoin="miter" fill-opacity="1" stroke-opacity="1" fill="#000000" clip-rule="evenodd" stroke-miterlimit="4" fill-rule="evenodd" stroke-width="1px" stroke="none" stroke-linecap="butt" d="M37.006,65.789C34.735,65.789,32.894,63.948,32.894,61.677L32.894,41.118L24.671,41.118C22.4,41.118,20.559,39.277,20.559,37.006C20.559,34.735,22.4,32.894,24.671,32.894L32.894,32.894L32.894,24.67C32.894,22.399,34.735,20.559,37.006,20.559C39.277,20.559,41.118,22.399,41.118,24.67L41.118,32.894L61.677,32.894C63.948,32.894,65.789,34.735,65.789,37.006C65.789,37.006,65.789,37.006,65.789,37.006L65.789,57.565L74.013,57.565C76.284,57.565,78.124,59.406,78.124,61.677C78.124,63.948,76.284,65.789,74.013,65.789L65.789,65.789L65.789,74.013C65.789,76.284,63.948,78.124,61.677,78.124C59.406,78.124,57.565,76.284,57.565,74.013L57.565,65.789L37.006,65.789ZM41.118,57.565L57.565,57.565L57.565,41.118L41.118,41.118L41.118,57.565ZM41.118,57.565"/>
  <path stroke-miterlimit="4" stroke-width="1px" stroke-opacity="1" stroke-dasharray="none" fill-rule="nonzero" stroke-linecap="butt" stroke-linejoin="miter" fill-opacity="1" fill="#000000" stroke="none" d="M52.642,4.23C76.081,5.92,94.572,25.472,94.572,49.342L86.348,49.342C86.348,34.11,77.145,21.027,63.997,15.35L60.285,26.628C59.893,27.648,58.467,27.692,58.013,26.699L50.607,6.872C49.984,5.413,50.851,4.101,52.642,4.23ZM52.642,4.23"/>
  <path stroke-linejoin="miter" fill-rule="nonzero" stroke-opacity="1" fill="#000000" stroke-dasharray="none" stroke-width="1px" stroke-miterlimit="4" stroke-linecap="butt" fill-opacity="1" stroke="none" d="M46.018,94.453C22.579,92.762,4.088,73.211,4.088,49.341L12.312,49.341C12.312,64.573,21.515,77.656,34.663,83.332L38.375,72.055C38.767,71.035,40.192,70.991,40.647,71.983L48.053,91.811C48.676,93.27,47.809,94.582,46.018,94.453ZM46.018,94.453"/>
</g>
  <g id="Light-M" transform="matrix(1.0,0.0,0.0,1.0,1105.078290660014,1041.6256770286238)">  <path stroke-opacity="1" fill-opacity="1" clip-rule="evenodd" stroke-dasharray="none" stroke="none" stroke-linecap="butt" stroke-width="1px" fill-rule="evenodd" stroke-miterlimit="4" stroke-linejoin="miter" fill="#000000" d="M37.006,65.789C34.735,65.789,32.894,63.948,32.894,61.677L32.894,41.118L24.671,41.118C22.4,41.118,20.559,39.277,20.559,37.006C20.559,34.735,22.4,32.894,24.671,32.894L32.894,32.894L32.894,24.67C32.894,22.399,34.735,20.559,37.006,20.559C39.277,20.559,41.118,22.399,41.118,24.67L41.118,32.894L61.677,32.894C63.948,32.894,65.789,34.735,65.789,37.006C65.789,37.006,65.789,37.006,65.789,37.006L65.789,57.565L74.013,57.565C76.284,57.565,78.124,59.406,78.124,61.677C78.124,63.948,76.284,65.789,74.013,65.789L65.789,65.789L65.789,74.013C65.789,76.284,63.948,78.124,61.677,78.124C59.406,78.124,57.565,76.284,57.565,74.013L57.565,65.789L37.006,65.789ZM41.118,57.565L57.565,57.565L57.565,41.118L41.118,41.118L41.118,57.565ZM41.118,57.565"/>
  <path stroke-linecap="butt" stroke-miterlimit="4" fill-opacity="1" stroke-width="1px" fill="#000000" stroke-dasharray="none" stroke-linejoin="miter" fill-rule="nonzero" stroke-opacity="1" stroke="none" d="M52.642,4.23C76.081,5.92,94.572,25.472,94.572,49.342L86.348,49.342C86.348,34.11,77.145,21.027,63.997,15.35L60.285,26.628C59.893,27.648,58.467,27.692,58.013,26.699L50.607,6.872C49.984,5.413,50.851,4.101,52.642,4.23ZM52.642,4.23"/>
  <path fill="#000000" fill-opacity="1" stroke-dasharray="none" stroke-opacity="1" stroke-linecap="butt" fill-rule="nonzero" stroke="none" stroke-width="1px" stroke-linejoin="miter" stroke-miterlimit="4" d="M46.018,94.453C22.579,92.762,4.088,73.211,4.088,49.341L12.312,49.341C12.312,64.573,21.515,77.656,34.663,83.332L38.375,72.055C38.767,71.035,40.192,70.991,40.647,71.983L48.053,91.811C48.676,93.27,47.809,94.582,46.018,94.453ZM46.018,94.453"/>
</g>
  <g id="Thin-M" transform="matrix(1.0,0.0,0.0,1.0,808.368290660014,1041.6256770286238)">  <path stroke-width="1px" fill-opacity="1" clip-rule="evenodd" stroke-miterlimit="4" stroke-dasharray="none" stroke-linejoin="miter" stroke-opacity="1" stroke="none" stroke-linecap="butt" fill-rule="evenodd" fill="#000000" d="M37.006,65.789C34.735,65.789,32.894,63.948,32.894,61.677L32.894,41.118L24.671,41.118C22.4,41.118,20.559,39.277,20.559,37.006C20.559,34.735,22.4,32.894,24.671,32.894L32.894,32.894L32.894,24.67C32.894,22.399,34.735,20.559,37.006,20.559C39.277,20.559,41.118,22.399,41.118,24.67L41.118,32.894L61.677,32.894C63.948,32.894,65.789,34.735,65.789,37.006C65.789,37.006,65.789,37.006,65.789,37.006L65.789,57.565L74.013,57.565C76.284,57.565,78.124,59.406,78.124,61.677C78.124,63.948,76.284,65.789,74.013,65.789L65.789,65.789L65.789,74.013C65.789,76.284,63.948,78.124,61.677,78.124C59.406,78.124,57.565,76.284,57.565,74.013L57.565,65.789L37.006,65.789ZM41.118,57.565L57.565,57.565L57.565,41.118L41.118,41.118L41.118,57.565ZM41.118,57.565"/>
  <path fill="#000000" fill-opacity="1" stroke="none" stroke-linejoin="miter" stroke-opacity="1" stroke-dasharray="none" stroke-width="1px" stroke-miterlimit="4" stroke-linecap="butt" fill-rule="nonzero" d="M52.642,4.23C76.081,5.92,94.572,25.472,94.572,49.342L86.348,49.342C86.348,34.11,77.145,21.027,63.997,15.35L60.285,26.628C59.893,27.648,58.467,27.692,58.013,26.699L50.607,6.872C49.984,5.413,50.851,4.101,52.642,4.23ZM52.642,4.23"/>
  <path stroke-dasharray="none" stroke-linejoin="miter" fill-rule="nonzero" fill-opacity="1" stroke-opacity="1" stroke-miterlimit="4" stroke="none" stroke-width="1px" stroke-linecap="butt" fill="#000000" d="M46.018,94.453C22.579,92.762,4.088,73.211,4.088,49.341L12.312,49.341C12.312,64.573,21.515,77.656,34.663,83.332L38.375,72.055C38.767,71.035,40.192,70.991,40.647,71.983L48.053,91.811C48.676,93.27,47.809,94.582,46.018,94.453ZM46.018,94.453"/>
</g>
  <g id="Ultralight-M" transform="matrix(1.0,0.0,0.0,1.0,511.658290660014,1041.6256770286238)">  <path stroke-linecap="butt" fill="#000000" stroke-width="1px" stroke-miterlimit="4" stroke-dasharray="none" clip-rule="evenodd" stroke="none" stroke-opacity="1" fill-opacity="1" fill-rule="evenodd" stroke-linejoin="miter" d="M37.006,65.789C34.735,65.789,32.894,63.948,32.894,61.677L32.894,41.118L24.671,41.118C22.4,41.118,20.559,39.277,20.559,37.006C20.559,34.735,22.4,32.894,24.671,32.894L32.894,32.894L32.894,24.67C32.894,22.399,34.735,20.559,37.006,20.559C39.277,20.559,41.118,22.399,41.118,24.67L41.118,32.894L61.677,32.894C63.948,32.894,65.789,34.735,65.789,37.006C65.789,37.006,65.789,37.006,65.789,37.006L65.789,57.565L74.013,57.565C76.284,57.565,78.124,59.406,78.124,61.677C78.124,63.948,76.284,65.789,74.013,65.789L65.789,65.789L65.789,74.013C65.789,76.284,63.948,78.124,61.677,78.124C59.406,78.124,57.565,76.284,57.565,74.013L57.565,65.789L37.006,65.789ZM41.118,57.565L57.565,57.565L57.565,41.118L41.118,41.118L41.118,57.565ZM41.118,57.565"/>
  <path stroke-miterlimit="4" stroke-linejoin="miter" stroke-width="1px" fill="#000000" stroke-linecap="butt" fill-opacity="1" stroke-dasharray="none" fill-rule="nonzero" stroke="none" stroke-opacity="1" d="M52.642,4.23C76.081,5.92,94.572,25.472,94.572,49.342L86.348,49.342C86.348,34.11,77.145,21.027,63.997,15.35L60.285,26.628C59.893,27.648,58.467,27.692,58.013,26.699L50.607,6.872C49.984,5.413,50.851,4.101,52.642,4.23ZM52.642,4.23"/>
  <path stroke-opacity="1" stroke-linecap="butt" fill="#000000" stroke-dasharray="none" fill-rule="nonzero" fill-opacity="1" stroke-linejoin="miter" stroke-miterlimit="4" stroke="none" stroke-width="1px" d="M46.018,94.453C22.579,92.762,4.088,73.211,4.088,49.341L12.312,49.341C12.312,64.573,21.515,77.656,34.663,83.332L38.375,72.055C38.767,71.035,40.192,70.991,40.647,71.983L48.053,91.811C48.676,93.27,47.809,94.582,46.018,94.453ZM46.018,94.453"/>
</g>
  <g id="Black-S" transform="matrix(1.0,0.0,0.0,1.0,2896.0454415867907,622.2899993516938)">  <path fill="#000000" stroke="none" clip-rule="evenodd" stroke-opacity="1" fill-rule="evenodd" stroke-width="1px" stroke-linejoin="miter" stroke-linecap="butt" stroke-dasharray="none" fill-opacity="1" stroke-miterlimit="4" d="M28.976,51.512C27.198,51.512,25.756,50.071,25.756,48.293L25.756,32.195L19.317,32.195C17.539,32.195,16.098,30.754,16.098,28.976C16.098,27.197,17.539,25.756,19.317,25.756L25.756,25.756L25.756,19.317C25.756,17.539,27.198,16.097,28.976,16.097C30.754,16.097,32.195,17.539,32.195,19.317L32.195,25.756L48.293,25.756C50.071,25.756,51.513,27.197,51.513,28.976C51.513,28.976,51.513,28.975,51.513,28.976L51.513,45.073L57.952,45.073C59.73,45.073,61.171,46.515,61.171,48.293C61.171,50.071,59.73,51.512,57.952,51.512L51.513,51.512L51.513,57.952C51.513,59.73,50.071,61.171,48.293,61.171C46.515,61.171,45.074,59.73,45.074,57.952L45.074,51.512L28.976,51.512ZM32.195,45.073L45.074,45.073L45.074,32.195L32.195,32.195L32.195,45.073ZM32.195,45.073"/>
  <path fill="#000000" stroke-miterlimit="4" stroke-linejoin="miter" stroke-linecap="butt" stroke-dasharray="none" fill-opacity="1" stroke-width="1px" fill-rule="nonzero" stroke="none" stroke-opacity="1" d="M41.219,3.312C59.571,4.636,74.05,19.944,74.05,38.635L67.61,38.635C67.61,26.708,60.405,16.464,50.109,12.019L47.203,20.85C46.896,21.648,45.78,21.683,45.424,20.906L39.625,5.38C39.137,4.238,39.816,3.211,41.219,3.312ZM41.219,3.312"/>
  <path stroke-width="1px" stroke-dasharray="none" stroke-linecap="butt" stroke-miterlimit="4" stroke-opacity="1" stroke-linejoin="miter" stroke="none" fill-rule="nonzero" fill-opacity="1" fill="#000000" d="M36.032,73.957C17.679,72.633,3.201,57.324,3.201,38.634L9.64,38.634C9.64,50.561,16.846,60.805,27.141,65.249L30.047,56.419C30.354,55.621,31.471,55.586,31.827,56.363L37.626,71.888C38.113,73.031,37.434,74.058,36.032,73.957ZM36.032,73.957"/>
</g>
  <g id="Heavy-S" transform="matrix(1.0,0.0,0.0,1.0,2599.3354415867907,622.2899993516938)">  <path fill-rule="evenodd" stroke-linejoin="miter" clip-rule="evenodd" stroke-width="1px" stroke-dasharray="none" fill="#000000" fill-opacity="1" stroke-linecap="butt" stroke-miterlimit="4" stroke-opacity="1" stroke="none" d="M28.976,51.512C27.198,51.512,25.756,50.071,25.756,48.293L25.756,32.195L19.317,32.195C17.539,32.195,16.098,30.754,16.098,28.976C16.098,27.197,17.539,25.756,19.317,25.756L25.756,25.756L25.756,19.317C25.756,17.539,27.198,16.097,28.976,16.097C30.754,16.097,32.195,17.539,32.195,19.317L32.195,25.756L48.293,25.756C50.071,25.756,51.513,27.197,51.513,28.976C51.513,28.976,51.513,28.975,51.513,28.976L51.513,45.073L57.952,45.073C59.73,45.073,61.171,46.515,61.171,48.293C61.171,50.071,59.73,51.512,57.952,51.512L51.513,51.512L51.513,57.952C51.513,59.73,50.071,61.171,48.293,61.171C46.515,61.171,45.074,59.73,45.074,57.952L45.074,51.512L28.976,51.512ZM32.195,45.073L45.074,45.073L45.074,32.195L32.195,32.195L32.195,45.073ZM32.195,45.073"/>
  <path stroke-dasharray="none" fill-opacity="1" stroke-linecap="butt" stroke="none" stroke-linejoin="miter" stroke-miterlimit="4" fill="#000000" stroke-opacity="1" fill-rule="nonzero" stroke-width="1px" d="M41.219,3.312C59.571,4.636,74.05,19.944,74.05,38.635L67.61,38.635C67.61,26.708,60.405,16.464,50.109,12.019L47.203,20.85C46.896,21.648,45.78,21.683,45.424,20.906L39.625,5.38C39.137,4.238,39.816,3.211,41.219,3.312ZM41.219,3.312"/>
  <path stroke-dasharray="none" stroke-linejoin="miter" fill-rule="nonzero" stroke-linecap="butt" stroke-miterlimit="4" fill="#000000" stroke-opacity="1" stroke="none" stroke-width="1px" fill-opacity="1" d="M36.032,73.957C17.679,72.633,3.201,57.324,3.201,38.634L9.64,38.634C9.64,50.561,16.846,60.805,27.141,65.249L30.047,56.419C30.354,55.621,31.471,55.586,31.827,56.363L37.626,71.888C38.113,73.031,37.434,74.058,36.032,73.957ZM36.032,73.957"/>
</g>
  <g id="Bold-S" transform="matrix(1.0,0.0,0.0,1.0,2302.6254415867907,622.2899993516938)">  <path stroke-linecap="butt" stroke-miterlimit="4" stroke-linejoin="miter" fill="#000000" stroke-width="1px" clip-rule="evenodd" fill-opacity="1" stroke-opacity="1" stroke="none" fill-rule="evenodd" stroke-dasharray="none" d="M28.976,51.512C27.198,51.512,25.756,50.071,25.756,48.293L25.756,32.195L19.317,32.195C17.539,32.195,16.098,30.754,16.098,28.976C16.098,27.197,17.539,25.756,19.317,25.756L25.756,25.756L25.756,19.317C25.756,17.539,27.198,16.097,28.976,16.097C30.754,16.097,32.195,17.539,32.195,19.317L32.195,25.756L48.293,25.756C50.071,25.756,51.513,27.197,51.513,28.976C51.513,28.976,51.513,28.975,51.513,28.976L51.513,45.073L57.952,45.073C59.73,45.073,61.171,46.515,61.171,48.293C61.171,50.071,59.73,51.512,57.952,51.512L51.513,51.512L51.513,57.952C51.513,59.73,50.071,61.171,48.293,61.171C46.515,61.171,45.074,59.73,45.074,57.952L45.074,51.512L28.976,51.512ZM32.195,45.073L45.074,45.073L45.074,32.195L32.195,32.195L32.195,45.073ZM32.195,45.073"/>
  <path fill-opacity="1" fill-rule="nonzero" fill="#000000" stroke-dasharray="none" stroke-linecap="butt" stroke-linejoin="miter" stroke-opacity="1" stroke-width="1px" stroke="none" stroke-miterlimit="4" d="M41.219,3.312C59.571,4.636,74.05,19.944,74.05,38.635L67.61,38.635C67.61,26.708,60.405,16.464,50.109,12.019L47.203,20.85C46.896,21.648,45.78,21.683,45.424,20.906L39.625,5.38C39.137,4.238,39.816,3.211,41.219,3.312ZM41.219,3.312"/>
  <path fill-opacity="1" stroke-width="1px" stroke="none" stroke-miterlimit="4" stroke-linejoin="miter" fill-rule="nonzero" stroke-dasharray="none" fill="#000000" stroke-linecap="butt" stroke-opacity="1" d="M36.032,73.957C17.679,72.633,3.201,57.324,3.201,38.634L9.64,38.634C9.64,50.561,16.846,60.805,27.141,65.249L30.047,56.419C30.354,55.621,31.471,55.586,31.827,56.363L37.626,71.888C38.113,73.031,37.434,74.058,36.032,73.957ZM36.032,73.957"/>
</g>
  <g id="Semibold-S" transform="matrix(1.0,0.0,0.0,1.0,2005.9154415867908,622.2899993516938)">  <path stroke-width="1px" stroke="none" stroke-opacity="1" stroke-miterlimit="4" fill-opacity="1" fill="#000000" stroke-linecap="butt" clip-rule="evenodd" fill-rule="evenodd" stroke-dasharray="none" stroke-linejoin="miter" d="M28.976,51.512C27.198,51.512,25.756,50.071,25.756,48.293L25.756,32.195L19.317,32.195C17.539,32.195,16.098,30.754,16.098,28.976C16.098,27.197,17.539,25.756,19.317,25.756L25.756,25.756L25.756,19.317C25.756,17.539,27.198,16.097,28.976,16.097C30.754,16.097,32.195,17.539,32.195,19.317L32.195,25.756L48.293,25.756C50.071,25.756,51.513,27.197,51.513,28.976C51.513,28.976,51.513,28.975,51.513,28.976L51.513,45.073L57.952,45.073C59.73,45.073,61.171,46.515,61.171,48.293C61.171,50.071,59.73,51.512,57.952,51.512L51.513,51.512L51.513,57.952C51.513,59.73,50.071,61.171,48.293,61.171C46.515,61.171,45.074,59.73,45.074,57.952L45.074,51.512L28.976,51.512ZM32.195,45.073L45.074,45.073L45.074,32.195L32.195,32.195L32.195,45.073ZM32.195,45.073"/>
  <path fill-rule="nonzero" stroke="none" stroke-opacity="1" stroke-linejoin="miter" stroke-linecap="butt" stroke-miterlimit="4" stroke-dasharray="none" fill="#000000" fill-opacity="1" stroke-width="1px" d="M41.219,3.312C59.571,4.636,74.05,19.944,74.05,38.635L67.61,38.635C67.61,26.708,60.405,16.464,50.109,12.019L47.203,20.85C46.896,21.648,45.78,21.683,45.424,20.906L39.625,5.38C39.137,4.238,39.816,3.211,41.219,3.312ZM41.219,3.312"/>
  <path stroke-width="1px" stroke-linejoin="miter" fill="#000000" fill-rule="nonzero" stroke-opacity="1" stroke-linecap="butt" fill-opacity="1" stroke-dasharray="none" stroke="none" stroke-miterlimit="4" d="M36.032,73.957C17.679,72.633,3.201,57.324,3.201,38.634L9.64,38.634C9.64,50.561,16.846,60.805,27.141,65.249L30.047,56.419C30.354,55.621,31.471,55.586,31.827,56.363L37.626,71.888C38.113,73.031,37.434,74.058,36.032,73.957ZM36.032,73.957"/>
</g>
  <g id="Medium-S" transform="matrix(1.0,0.0,0.0,1.0,1709.2054415867908,622.2899993516938)">  <path stroke="none" clip-rule="evenodd" fill-opacity="1" stroke-miterlimit="4" stroke-width="1px" fill-rule="evenodd" stroke-linejoin="miter" stroke-opacity="1" fill="#000000" stroke-linecap="butt" stroke-dasharray="none" d="M28.976,51.512C27.198,51.512,25.756,50.071,25.756,48.293L25.756,32.195L19.317,32.195C17.539,32.195,16.098,30.754,16.098,28.976C16.098,27.197,17.539,25.756,19.317,25.756L25.756,25.756L25.756,19.317C25.756,17.539,27.198,16.097,28.976,16.097C30.754,16.097,32.195,17.539,32.195,19.317L32.195,25.756L48.293,25.756C50.071,25.756,51.513,27.197,51.513,28.976C51.513,28.976,51.513,28.975,51.513,28.976L51.513,45.073L57.952,45.073C59.73,45.073,61.171,46.515,61.171,48.293C61.171,50.071,59.73,51.512,57.952,51.512L51.513,51.512L51.513,57.952C51.513,59.73,50.071,61.171,48.293,61.171C46.515,61.171,45.074,59.73,45.074,57.952L45.074,51.512L28.976,51.512ZM32.195,45.073L45.074,45.073L45.074,32.195L32.195,32.195L32.195,45.073ZM32.195,45.073"/>
  <path stroke-miterlimit="4" stroke-linejoin="miter" fill-rule="nonzero" stroke-linecap="butt" stroke-dasharray="none" stroke-opacity="1" fill="#000000" stroke="none" fill-opacity="1" stroke-width="1px" d="M41.219,3.312C59.571,4.636,74.05,19.944,74.05,38.635L67.61,38.635C67.61,26.708,60.405,16.464,50.109,12.019L47.203,20.85C46.896,21.648,45.78,21.683,45.424,20.906L39.625,5.38C39.137,4.238,39.816,3.211,41.219,3.312ZM41.219,3.312"/>
  <path stroke-linejoin="miter" stroke="none" stroke-linecap="butt" fill-rule="nonzero" stroke-width="1px" stroke-dasharray="none" stroke-miterlimit="4" fill-opacity="1" fill="#000000" stroke-opacity="1" d="M36.032,73.957C17.679,72.633,3.201,57.324,3.201,38.634L9.64,38.634C9.64,50.561,16.846,60.805,27.141,65.249L30.047,56.419C30.354,55.621,31.471,55.586,31.827,56.363L37.626,71.888C38.113,73.031,37.434,74.058,36.032,73.957ZM36.032,73.957"/>
</g>
  <g id="Regular-S" transform="matrix(1.0,0.0,0.0,1.0,1412.4954415867908,622.2899993516938)">  <path stroke-dasharray="none" stroke-linejoin="miter" fill-opacity="1" stroke-opacity="1" fill="#000000" clip-rule="evenodd" stroke-miterlimit="4" fill-rule="evenodd" stroke-width="1px" stroke="none" stroke-linecap="butt" d="M28.976,51.512C27.198,51.512,25.756,50.071,25.756,48.293L25.756,32.195L19.317,32.195C17.539,32.195,16.098,30.754,16.098,28.976C16.098,27.197,17.539,25.756,19.317,25.756L25.756,25.756L25.756,19.317C25.756,17.539,27.198,16.097,28.976,16.097C30.754,16.097,32.195,17.539,32.195,19.317L32.195,25.756L48.293,25.756C50.071,25.756,51.513,27.197,51.513,28.976C51.513,28.976,51.513,28.975,51.513,28.976L51.513,45.073L57.952,45.073C59.73,45.073,61.171,46.515,61.171,48.293C61.171,50.071,59.73,51.512,57.952,51.512L51.513,51.512L51.513,57.952C51.513,59.73,50.071,61.171,48.293,61.171C46.515,61.171,45.074,59.73,45.074,57.952L45.074,51.512L28.976,51.512ZM32.195,45.073L45.074,45.073L45.074,32.195L32.195,32.195L32.195,45.073ZM32.195,45.073"/>
  <path stroke-miterlimit="4" stroke-width="1px" stroke-opacity="1" stroke-dasharray="none" fill-rule="nonzero" stroke-linecap="butt" stroke-linejoin="miter" fill-opacity="1" fill="#000000" stroke="none" d="M41.219,3.312C59.571,4.636,74.05,19.944,74.05,38.635L67.61,38.635C67.61,26.708,60.405,16.464,50.109,12.019L47.203,20.85C46.896,21.648,45.78,21.683,45.424,20.906L39.625,5.38C39.137,4.238,39.816,3.211,41.219,3.312ZM41.219,3.312"/>
  <path stroke-linejoin="miter" fill-rule="nonzero" stroke-opacity="1" fill="#000000" stroke-dasharray="none" stroke-width="1px" stroke-miterlimit="4" stroke-linecap="butt" fill-opacity="1" stroke="none" d="M36.032,73.957C17.679,72.633,3.201,57.324,3.201,38.634L9.64,38.634C9.64,50.561,16.846,60.805,27.141,65.249L30.047,56.419C30.354,55.621,31.471,55.586,31.827,56.363L37.626,71.888C38.113,73.031,37.434,74.058,36.032,73.957ZM36.032,73.957"/>
</g>
  <g id="Light-S" transform="matrix(1.0,0.0,0.0,1.0,1115.785441586791,622.2899993516938)">  <path stroke-opacity="1" fill-opacity="1" clip-rule="evenodd" stroke-dasharray="none" stroke="none" stroke-linecap="butt" stroke-width="1px" fill-rule="evenodd" stroke-miterlimit="4" stroke-linejoin="miter" fill="#000000" d="M28.976,51.512C27.198,51.512,25.756,50.071,25.756,48.293L25.756,32.195L19.317,32.195C17.539,32.195,16.098,30.754,16.098,28.976C16.098,27.197,17.539,25.756,19.317,25.756L25.756,25.756L25.756,19.317C25.756,17.539,27.198,16.097,28.976,16.097C30.754,16.097,32.195,17.539,32.195,19.317L32.195,25.756L48.293,25.756C50.071,25.756,51.513,27.197,51.513,28.976C51.513,28.976,51.513,28.975,51.513,28.976L51.513,45.073L57.952,45.073C59.73,45.073,61.171,46.515,61.171,48.293C61.171,50.071,59.73,51.512,57.952,51.512L51.513,51.512L51.513,57.952C51.513,59.73,50.071,61.171,48.293,61.171C46.515,61.171,45.074,59.73,45.074,57.952L45.074,51.512L28.976,51.512ZM32.195,45.073L45.074,45.073L45.074,32.195L32.195,32.195L32.195,45.073ZM32.195,45.073"/>
  <path stroke-linecap="butt" stroke-miterlimit="4" fill-opacity="1" stroke-width="1px" fill="#000000" stroke-dasharray="none" stroke-linejoin="miter" fill-rule="nonzero" stroke-opacity="1" stroke="none" d="M41.219,3.312C59.571,4.636,74.05,19.944,74.05,38.635L67.61,38.635C67.61,26.708,60.405,16.464,50.109,12.019L47.203,20.85C46.896,21.648,45.78,21.683,45.424,20.906L39.625,5.38C39.137,4.238,39.816,3.211,41.219,3.312ZM41.219,3.312"/>
  <path fill="#000000" fill-opacity="1" stroke-dasharray="none" stroke-opacity="1" stroke-linecap="butt" fill-rule="nonzero" stroke="none" stroke-width="1px" stroke-linejoin="miter" stroke-miterlimit="4" d="M36.032,73.957C17.679,72.633,3.201,57.324,3.201,38.634L9.64,38.634C9.64,50.561,16.846,60.805,27.141,65.249L30.047,56.419C30.354,55.621,31.471,55.586,31.827,56.363L37.626,71.888C38.113,73.031,37.434,74.058,36.032,73.957ZM36.032,73.957"/>
</g>
  <g id="Thin-S" transform="matrix(1.0,0.0,0.0,1.0,819.075441586791,622.2899993516938)">  <path stroke-width="1px" fill-opacity="1" clip-rule="evenodd" stroke-miterlimit="4" stroke-dasharray="none" stroke-linejoin="miter" stroke-opacity="1" stroke="none" stroke-linecap="butt" fill-rule="evenodd" fill="#000000" d="M28.976,51.512C27.198,51.512,25.756,50.071,25.756,48.293L25.756,32.195L19.317,32.195C17.539,32.195,16.098,30.754,16.098,28.976C16.098,27.197,17.539,25.756,19.317,25.756L25.756,25.756L25.756,19.317C25.756,17.539,27.198,16.097,28.976,16.097C30.754,16.097,32.195,17.539,32.195,19.317L32.195,25.756L48.293,25.756C50.071,25.756,51.513,27.197,51.513,28.976C51.513,28.976,51.513,28.975,51.513,28.976L51.513,45.073L57.952,45.073C59.73,45.073,61.171,46.515,61.171,48.293C61.171,50.071,59.73,51.512,57.952,51.512L51.513,51.512L51.513,57.952C51.513,59.73,50.071,61.171,48.293,61.171C46.515,61.171,45.074,59.73,45.074,57.952L45.074,51.512L28.976,51.512ZM32.195,45.073L45.074,45.073L45.074,32.195L32.195,32.195L32.195,45.073ZM32.195,45.073"/>
  <path fill="#000000" fill-opacity="1" stroke="none" stroke-linejoin="miter" stroke-opacity="1" stroke-dasharray="none" stroke-width="1px" stroke-miterlimit="4" stroke-linecap="butt" fill-rule="nonzero" d="M41.219,3.312C59.571,4.636,74.05,19.944,74.05,38.635L67.61,38.635C67.61,26.708,60.405,16.464,50.109,12.019L47.203,20.85C46.896,21.648,45.78,21.683,45.424,20.906L39.625,5.38C39.137,4.238,39.816,3.211,41.219,3.312ZM41.219,3.312"/>
  <path stroke-dasharray="none" stroke-linejoin="miter" fill-rule="nonzero" fill-opacity="1" stroke-opacity="1" stroke-miterlimit="4" stroke="none" stroke-width="1px" stroke-linecap="butt" fill="#000000" d="M36.032,73.957C17.679,72.633,3.201,57.324,3.201,38.634L9.64,38.634C9.64,50.561,16.846,60.805,27.141,65.249L30.047,56.419C30.354,55.621,31.471,55.586,31.827,56.363L37.626,71.888C38.113,73.031,37.434,74.058,36.032,73.957ZM36.032,73.957"/>
</g>
  <g id="Ultralight-S" transform="matrix(1.0,0.0,0.0,1.0,522.365441586791,622.2899993516938)">  <path stroke-linecap="butt" fill="#000000" stroke-width="1px" stroke-miterlimit="4" stroke-dasharray="none" clip-rule="evenodd" stroke="none" stroke-opacity="1" fill-opacity="1" fill-rule="evenodd" stroke-linejoin="miter" d="M28.976,51.512C27.198,51.512,25.756,50.071,25.756,48.293L25.756,32.195L19.317,32.195C17.539,32.195,16.098,30.754,16.098,28.976C16.098,27.197,17.539,25.756,19.317,25.756L25.756,25.756L25.756,19.317C25.756,17.539,27.198,16.097,28.976,16.097C30.754,16.097,32.195,17.539,32.195,19.317L32.195,25.756L48.293,25.756C50.071,25.756,51.513,27.197,51.513,28.976C51.513,28.976,51.513,28.975,51.513,28.976L51.513,45.073L57.952,45.073C59.73,45.073,61.171,46.515,61.171,48.293C61.171,50.071,59.73,51.512,57.952,51.512L51.513,51.512L51.513,57.952C51.513,59.73,50.071,61.171,48.293,61.171C46.515,61.171,45.074,59.73,45.074,57.952L45.074,51.512L28.976,51.512ZM32.195,45.073L45.074,45.073L45.074,32.195L32.195,32.195L32.195,45.073ZM32.195,45.073"/>
  <path stroke-miterlimit="4" stroke-linejoin="miter" stroke-width="1px" fill="#000000" stroke-linecap="butt" fill-opacity="1" stroke-dasharray="none" fill-rule="nonzero" stroke="none" stroke-opacity="1" d="M41.219,3.312C59.571,4.636,74.05,19.944,74.05,38.635L67.61,38.635C67.61,26.708,60.405,16.464,50.109,12.019L47.203,20.85C46.896,21.648,45.78,21.683,45.424,20.906L39.625,5.38C39.137,4.238,39.816,3.211,41.219,3.312ZM41.219,3.312"/>
  <path stroke-opacity="1" stroke-linecap="butt" fill="#000000" stroke-dasharray="none" fill-rule="nonzero" fill-opacity="1" stroke-linejoin="miter" stroke-miterlimit="4" stroke="none" stroke-width="1px" d="M36.032,73.957C17.679,72.633,3.201,57.324,3.201,38.634L9.64,38.634C9.64,50.561,16.846,60.805,27.141,65.249L30.047,56.419C30.354,55.621,31.471,55.586,31.827,56.363L37.626,71.888C38.113,73.031,37.434,74.058,36.032,73.957ZM36.032,73.957"/>
</g>
 </g>
</svg>
