<?xml version="1.0" encoding="UTF-8"?>
<!-- Generator: CustomSymbols v2.6.1.40 by @serious_bret https://bretlester.com/app_content/CustomSymbols/ -->
<!-- Guides: Left/Right 0.082/0.082 Cap/Base 0.25/0.236 -->
<!-- Settings: RefScale 1.0 Min/Max Stroke Scales 0.5/2.21 -->
<!DOCTYPE svg
PUBLIC "-//W3C//DTD SVG 1.1//EN"
       "http://www.w3.org/Graphics/SVG/1.1/DTD/svg11.dtd">
<svg version="1.1" xmlns="http://www.w3.org/2000/svg" xmlns:xlink="http://www.w3.org/1999/xlink" width="3300" height="2200">
<![CDATA[<svg width="24" height="24" viewBox="0 0 24 24" fill="none" xmlns="http://www.w3.org/2000/svg">
<path fill-rule="evenodd" clip-rule="evenodd" d="M20.816 3L20.9139 3.03154C21.4716 3.07432 21.9315 3.56948 22 4.1705V4.27628V16.8112C22 17.043 21.9344 17.2501 21.8336 17.4437C21.6115 17.8714 21.276 17.9972 20.816 17.9972H13.9792V20.0038H15.6008C15.9041 20.0038 16 20.0929 16 20.4193C16 20.7457 15.9041 21 15.6008 21H8.38947C8.08617 21 8 20.7457 8 20.4193C8 20.0929 8.08617 20.0038 8.38947 20.0038H9.98148V17.9972H3.17421C2.71435 17.9972 2.38183 17.8714 2.15657 17.4437C2.05866 17.2591 2 17.0543 2 16.8112V4.27625V4.17046C2.06846 3.56948 2.49908 3.07432 3.07627 3H3.17418H20.816ZM20 15.9087V5.09129H20V5H4V5.09129V15.9087C4 15.9728 4.02641 16 4.08782 16H19.9122C19.9738 16 20 15.9728 20 15.9087Z" fill="black"/>
</svg>
]]>
 <g id="Notes">
  <rect height="2200" id="artboard" style="fill:white;opacity:1" width="3300" x="0" y="0"/>
  <line id="" style="fill:none;stroke:black;opacity:1;stroke-width:0.5;" x1="263" x2="3036" y1="292" y2="292"/>
  <text id="reftext1" style="stroke:none;fill:black;font-family:-apple-system,&quot;SF Pro Display&quot;,&quot;SF Pro Text&quot;,Helvetica,sans-serif;font-weight:bold;" transform="matrix(1 0 0 1 263 322)">Weight/Scale Variations</text>
  <text id="reftext2" style="stroke:none;fill:black;font-family:-apple-system,&quot;SF Pro Display&quot;,&quot;SF Pro Text&quot;,Helvetica,sans-serif;text-anchor:middle;" transform="matrix(1 0 0 1 559.711 322)">Ultralight</text>
  <text style="stroke:none;fill:black;font-family:-apple-system,&quot;SF Pro Display&quot;,&quot;SF Pro Text&quot;,Helvetica,sans-serif;text-anchor:middle;" transform="matrix(1 0 0 1 856.422 322)">Thin</text>
  <text style="stroke:none;fill:black;font-family:-apple-system,&quot;SF Pro Display&quot;,&quot;SF Pro Text&quot;,Helvetica,sans-serif;text-anchor:middle;" transform="matrix(1 0 0 1 1153.13 322)">Light</text>
  <text style="stroke:none;fill:black;font-family:-apple-system,&quot;SF Pro Display&quot;,&quot;SF Pro Text&quot;,Helvetica,sans-serif;text-anchor:middle;" transform="matrix(1 0 0 1 1449.84 322)">Regular</text>
  <text style="stroke:none;fill:black;font-family:-apple-system,&quot;SF Pro Display&quot;,&quot;SF Pro Text&quot;,Helvetica,sans-serif;text-anchor:middle;" transform="matrix(1 0 0 1 1746.56 322)">Medium</text>
  <text style="stroke:none;fill:black;font-family:-apple-system,&quot;SF Pro Display&quot;,&quot;SF Pro Text&quot;,Helvetica,sans-serif;text-anchor:middle;" transform="matrix(1 0 0 1 2043.27 322)">Semibold</text>
  <text style="stroke:none;fill:black;font-family:-apple-system,&quot;SF Pro Display&quot;,&quot;SF Pro Text&quot;,Helvetica,sans-serif;text-anchor:middle;" transform="matrix(1 0 0 1 2339.98 322)">Bold</text>
  <text style="stroke:none;fill:black;font-family:-apple-system,&quot;SF Pro Display&quot;,&quot;SF Pro Text&quot;,Helvetica,sans-serif;text-anchor:middle;" transform="matrix(1 0 0 1 2636.69 322)">Heavy</text>
  <text style="stroke:none;fill:black;font-family:-apple-system,&quot;SF Pro Display&quot;,&quot;SF Pro Text&quot;,Helvetica,sans-serif;text-anchor:middle;" transform="matrix(1 0 0 1 2933.4 322)">Black</text>
  <line id="" style="fill:none;stroke:black;opacity:1;stroke-width:0.5;" x1="263" x2="3036" y1="1903" y2="1903"/>
  <g id="" transform="matrix(1 0 0 1 263 1933)">
   <path d="M9.24805 0.830078C13.5547 0.830078 17.1387-2.74414 17.1387-7.05078C17.1387-11.3574 13.5449-14.9316 9.23828-14.9316C4.94141-14.9316 1.36719-11.3574 1.36719-7.05078C1.36719-2.74414 4.95117 0.830078 9.24805 0.830078ZM9.24805-0.654297C5.70312-0.654297 2.87109-3.49609 2.87109-7.05078C2.87109-10.6055 5.69336-13.4473 9.23828-13.4473C12.793-13.4473 15.6348-10.6055 15.6445-7.05078C15.6543-3.49609 12.8027-0.654297 9.24805-0.654297ZM6.39648-6.31836L8.50586-6.31836L8.50586-4.19922C8.50586-3.75977 8.79883-3.45703 9.22852-3.45703C9.67773-3.45703 9.9707-3.75977 9.9707-4.19922L9.9707-6.31836L12.0996-6.31836C12.5391-6.31836 12.8418-6.61133 12.8418-7.04102C12.8418-7.48047 12.5391-7.7832 12.0996-7.7832L9.9707-7.7832L9.9707-9.89258C9.9707-10.3418 9.67773-10.6445 9.22852-10.6445C8.79883-10.6445 8.50586-10.3418 8.50586-9.89258L8.50586-7.7832L6.39648-7.7832C5.94727-7.7832 5.64453-7.48047 5.64453-7.04102C5.64453-6.61133 5.94727-6.31836 6.39648-6.31836Z"/>
  </g>
  <g id="" transform="matrix(1 0 0 1 281.506 1933)">
   <path d="M11.709 2.91016C17.1582 2.91016 21.6699-1.61133 21.6699-7.05078C21.6699-12.5 17.1484-17.0117 11.6992-17.0117C6.25977-17.0117 1.74805-12.5 1.74805-7.05078C1.74805-1.61133 6.26953 2.91016 11.709 2.91016ZM11.709 1.25C7.09961 1.25 3.41797-2.44141 3.41797-7.05078C3.41797-11.6602 7.08984-15.3516 11.6992-15.3516C16.3086-15.3516 20-11.6602 20.0098-7.05078C20.0195-2.44141 16.3184 1.25 11.709 1.25ZM7.98828-6.23047L10.8789-6.23047L10.8789-3.32031C10.8789-2.83203 11.2109-2.5 11.6895-2.5C12.1777-2.5 12.5195-2.83203 12.5195-3.32031L12.5195-6.23047L15.4297-6.23047C15.918-6.23047 16.25-6.5625 16.25-7.04102C16.25-7.5293 15.918-7.87109 15.4297-7.87109L12.5195-7.87109L12.5195-10.7617C12.5195-11.2695 12.1777-11.6016 11.6895-11.6016C11.2109-11.6016 10.8789-11.2598 10.8789-10.7617L10.8789-7.87109L7.98828-7.87109C7.48047-7.87109 7.14844-7.5293 7.14844-7.04102C7.14844-6.5625 7.49023-6.23047 7.98828-6.23047Z"/>
  </g>
  <g id="" transform="matrix(1 0 0 1 304.924 1933)">
   <path d="M14.9707 5.66406C21.9336 5.66406 27.6953-0.0976562 27.6953-7.05078C27.6953-14.0137 21.9238-19.7754 14.9609-19.7754C8.00781-19.7754 2.25586-14.0137 2.25586-7.05078C2.25586-0.0976562 8.01758 5.66406 14.9707 5.66406ZM14.9707 3.84766C8.93555 3.84766 4.08203-1.01562 4.08203-7.05078C4.08203-13.0957 8.92578-17.9492 14.9609-17.9492C21.0059-17.9492 25.8594-13.0957 25.8691-7.05078C25.8789-1.01562 21.0156 3.84766 14.9707 3.84766ZM10.0586-6.14258L14.0625-6.14258L14.0625-2.12891C14.0625-1.5918 14.4336-1.2207 14.9512-1.2207C15.4883-1.2207 15.8594-1.5918 15.8594-2.12891L15.8594-6.14258L19.8828-6.14258C20.4102-6.14258 20.791-6.51367 20.791-7.03125C20.791-7.56836 20.4199-7.94922 19.8828-7.94922L15.8594-7.94922L15.8594-11.9531C15.8594-12.5098 15.4883-12.8809 14.9512-12.8809C14.4336-12.8809 14.0625-12.5 14.0625-11.9531L14.0625-7.94922L10.0586-7.94922C9.50195-7.94922 9.13086-7.56836 9.13086-7.03125C9.13086-6.51367 9.51172-6.14258 10.0586-6.14258Z"/>
  </g>
  <text style="stroke:none;fill:black;font-family:-apple-system,&quot;SF Pro Display&quot;,&quot;SF Pro Text&quot;,Helvetica,sans-serif;font-weight:bold;" transform="matrix(1 0 0 1 263 1953)">Design Variations</text>
  <text style="stroke:none;fill:black;font-family:-apple-system,&quot;SF Pro Display&quot;,&quot;SF Pro Text&quot;,Helvetica,sans-serif;" transform="matrix(1 0 0 1 263 1971)">Symbols are supported in up to nine weights and three scales.</text>
  <text style="stroke:none;fill:black;font-family:-apple-system,&quot;SF Pro Display&quot;,&quot;SF Pro Text&quot;,Helvetica,sans-serif;" transform="matrix(1 0 0 1 263 1989)">For optimal layout with text and other symbols, vertically align</text>
  <text style="stroke:none;fill:black;font-family:-apple-system,&quot;SF Pro Display&quot;,&quot;SF Pro Text&quot;,Helvetica,sans-serif;" transform="matrix(1 0 0 1 263 2007)">symbols with the adjacent text.</text>
  <line id="" style="fill:none;stroke:#00AEEF;stroke-width:0.5;opacity:1.0;" x1="776" x2="776" y1="1919" y2="1933"/>
  <g id="" transform="matrix(1 0 0 1 776 1933)">
   <path d="M3.31055 0.126953C3.82812 0.126953 4.08203-0.0683594 4.26758-0.605469L5.52734-4.0625L11.2891-4.0625L12.5488-0.605469C12.7344-0.0683594 12.9883 0.126953 13.4961 0.126953C14.0137 0.126953 14.3457-0.185547 14.3457-0.673828C14.3457-0.839844 14.3164-0.986328 14.2383-1.20117L9.6582-13.3887C9.43359-13.9941 9.0332-14.2871 8.4082-14.2871C7.80273-14.2871 7.39258-13.9941 7.17773-13.3984L2.59766-1.19141C2.51953-0.976562 2.49023-0.830078 2.49023-0.664062C2.49023-0.175781 2.80273 0.126953 3.31055 0.126953ZM6.00586-5.53711L8.37891-12.1094L8.42773-12.1094L10.8008-5.53711Z"/>
  </g>
  <line id="" style="fill:none;stroke:#00AEEF;stroke-width:0.5;opacity:1.0;" x1="792.836" x2="792.836" y1="1919" y2="1933"/>
  <text style="stroke:none;fill:black;font-family:-apple-system,&quot;SF Pro Display&quot;,&quot;SF Pro Text&quot;,Helvetica,sans-serif;font-weight:bold;" transform="matrix(1 0 0 1 776 1953)">Margins</text>
  <text style="stroke:none;fill:black;font-family:-apple-system,&quot;SF Pro Display&quot;,&quot;SF Pro Text&quot;,Helvetica,sans-serif;" transform="matrix(1 0 0 1 776 1971)">Leading and trailing margins on the left and right side of each symbol</text>
  <text style="stroke:none;fill:black;font-family:-apple-system,&quot;SF Pro Display&quot;,&quot;SF Pro Text&quot;,Helvetica,sans-serif;" transform="matrix(1 0 0 1 776 1989)">can be adjusted by modifying the x-location of the margin guidelines.</text>
  <text style="stroke:none;fill:black;font-family:-apple-system,&quot;SF Pro Display&quot;,&quot;SF Pro Text&quot;,Helvetica,sans-serif;" transform="matrix(1 0 0 1 776 2007)">Modifications are automatically applied proportionally to all</text>
  <text style="stroke:none;fill:black;font-family:-apple-system,&quot;SF Pro Display&quot;,&quot;SF Pro Text&quot;,Helvetica,sans-serif;" transform="matrix(1 0 0 1 776 2025)">scales and weights.</text>
  <g id="" transform="matrix(1 0 0 1 1289 1933)">
   <path d="M2.8418 1.86523L4.54102 3.57422C5.40039 4.44336 6.38672 4.38477 7.31445 3.35938L17.4902-7.85156C17.7539-7.76367 18.0273-7.7832 18.3398-7.8418L19.4043-8.03711L20.0684-7.36328L20.0293-6.80664C19.9902-6.30859 20.1172-5.92773 20.6055-5.44922L21.3672-4.70703C21.8457-4.22852 22.4609-4.19922 22.9297-4.66797L25.8398-7.58789C26.3086-8.05664 26.2891-8.65234 25.8105-9.13086L25.0391-9.89258C24.5605-10.3711 24.1895-10.5273 23.7109-10.4883L23.1348-10.4395L22.4902-11.0742L22.7344-12.1973C22.8613-12.7637 22.7051-13.2031 22.1191-13.7891L19.9219-15.9766C16.582-19.2969 12.1484-19.2188 9.25781-16.3281C8.83789-15.918 8.80859-15.3418 9.04297-14.9512C9.27734-14.5898 9.73633-14.3555 10.3809-14.5215C11.8457-14.8633 13.3691-14.9219 14.7949-13.9844L14.209-12.5293C14.0137-12.0508 13.9844-11.6504 14.1113-11.2891L3.04688-0.898438C2.06055 0.0195312 1.98242 0.996094 2.8418 1.86523ZM10.752-15.957C13.1836-17.7344 16.4746-17.4316 18.7012-15.2051L21.1328-12.793C21.3672-12.5586 21.4062-12.373 21.3379-12.0312L21.0156-10.5469L22.5195-9.0625L23.5059-9.12109C23.7598-9.13086 23.8379-9.11133 24.0332-8.91602L24.6094-8.33984L22.168-5.89844L21.5918-6.47461C21.3965-6.66992 21.3672-6.74805 21.377-7.01172L21.4453-7.98828L19.9512-9.47266L18.4277-9.21875C18.1055-9.15039 17.959-9.17969 17.7148-9.41406L15.7129-11.416C15.459-11.6504 15.4297-11.8164 15.5859-12.1875L16.4648-14.2773C14.9023-15.7324 12.8711-16.3574 10.8398-15.7617C10.6836-15.7227 10.625-15.8496 10.752-15.957ZM5.27344 2.30469L4.10156 1.14258C3.63281 0.683594 3.74023 0.341797 4.14062-0.0195312L14.9512-10.1953L16.416-8.71094L6.42578 2.27539C6.07422 2.67578 5.74219 2.77344 5.27344 2.30469Z"/>
  </g>
  <text style="stroke:none;fill:black;font-family:-apple-system,&quot;SF Pro Display&quot;,&quot;SF Pro Text&quot;,Helvetica,sans-serif;font-weight:bold;" transform="matrix(1 0 0 1 1289 1953)">Exporting</text>
  <text style="stroke:none;fill:black;font-family:-apple-system,&quot;SF Pro Display&quot;,&quot;SF Pro Text&quot;,Helvetica,sans-serif;" transform="matrix(1 0 0 1 1289 1971)">Symbols should be outlined when exporting to ensure the</text>
  <text style="stroke:none;fill:black;font-family:-apple-system,&quot;SF Pro Display&quot;,&quot;SF Pro Text&quot;,Helvetica,sans-serif;" transform="matrix(1 0 0 1 1289 1989)">design is preserved when submitting to Xcode.</text>
  <text id="template-version" style="stroke:none;fill:black;font-family:-apple-system,&quot;SF Pro Display&quot;,&quot;SF Pro Text&quot;,Helvetica,sans-serif;text-anchor:end;" transform="matrix(1 0 0 1 3036 1933)">Template v.2.0</text>
  <text style="stroke:none;fill:black;font-family:-apple-system,&quot;SF Pro Display&quot;,&quot;SF Pro Text&quot;,Helvetica,sans-serif;text-anchor:end;" transform="matrix(1 0 0 1 3036 1951)">Requires Xcode 12 or greater</text>
  <text style="stroke:none;fill:black;font-family:-apple-system,&quot;SF Pro Display&quot;,&quot;SF Pro Text&quot;,Helvetica,sans-serif;" transform="matrix(1 0 0 1 263 726)">Small</text>
  <text style="stroke:none;fill:black;font-family:-apple-system,&quot;SF Pro Display&quot;,&quot;SF Pro Text&quot;,Helvetica,sans-serif;" transform="matrix(1 0 0 1 263 1156)">Medium</text>
  <text style="stroke:none;fill:black;font-family:-apple-system,&quot;SF Pro Display&quot;,&quot;SF Pro Text&quot;,Helvetica,sans-serif;" transform="matrix(1 0 0 1 263 1586)">Large</text>
 </g>
 <g id="Guides">
  <g id="H-reference" style="fill:#27AAE1;stroke:none;" transform="matrix(1 0 0 1 339 696)">
   <path d="M0.976562 0L3.66211 0L12.9883-24.4629L45.752-24.4629L55.127 0L57.7637 0L30.6152-70.459L28.125-70.459ZM29.3457-67.1387L29.4434-67.1387L44.873-26.709L13.8672-26.709Z"/>
  </g>
  <line id="Baseline-S" style="fill:none;stroke:#27AAE1;opacity:1;stroke-width:0.5;" x1="263" x2="3036" y1="696" y2="696"/>
  <line id="Capline-S" style="fill:none;stroke:#27AAE1;opacity:1;stroke-width:0.5;" x1="263" x2="3036" y1="625.541" y2="625.541"/>
  <g id="H-reference" style="fill:#27AAE1;stroke:none;" transform="matrix(1 0 0 1 339 1126)">
   <path d="M0.976562 0L3.66211 0L12.9883-24.4629L45.752-24.4629L55.127 0L57.7637 0L30.6152-70.459L28.125-70.459ZM29.3457-67.1387L29.4434-67.1387L44.873-26.709L13.8672-26.709Z"/>
  </g>
  <line id="Baseline-M" style="fill:none;stroke:#27AAE1;opacity:1;stroke-width:0.5;" x1="263" x2="3036" y1="1126" y2="1126"/>
  <line id="Capline-M" style="fill:none;stroke:#27AAE1;opacity:1;stroke-width:0.5;" x1="263" x2="3036" y1="1055.54" y2="1055.54"/>
  <g id="H-reference" style="fill:#27AAE1;stroke:none;" transform="matrix(1 0 0 1 339 1556)">
   <path d="M0.976562 0L3.66211 0L12.9883-24.4629L45.752-24.4629L55.127 0L57.7637 0L30.6152-70.459L28.125-70.459ZM29.3457-67.1387L29.4434-67.1387L44.873-26.709L13.8672-26.709Z"/>
  </g>
  <line id="Baseline-L" style="fill:none;stroke:#27AAE1;opacity:1;stroke-width:0.5;" x1="263" x2="3036" y1="1556" y2="1556"/>
  <line id="Capline-L" style="fill:none;stroke:#27AAE1;opacity:1;stroke-width:0.5;" x1="263" x2="3036" y1="1485.54" y2="1485.54"/>
  <line id="left-margin" x1="1393.8298761247565" x2="1393.8298761247565" y1="1030.79" y2="1150.12" style="fill:none;stroke:#00AEEF;stroke-width:0.5;opacity:1.0;"/>
  <line id="right-margin" x1="1508.4301238752432" x2="1508.4301238752432" y1="1030.79" y2="1150.12" style="fill:none;stroke:#00AEEF;stroke-width:0.5;opacity:1.0;"/>
 </g>
 <g id="Symbols">
  <g id="Black-L" transform="matrix(1.0,0.0,0.0,1.0,2846.262344737962,1431.1145170955435)">  <path fill-rule="evenodd" stroke-opacity="1" stroke-dasharray="none" fill="#000000" fill-opacity="1" stroke="none" stroke-width="1px" clip-rule="evenodd" stroke-linecap="butt" stroke-miterlimit="4" stroke-linejoin="miter" d="M153.375,22.104L154.097,22.337C158.206,22.652,161.594,26.3,162.099,30.729L162.099,31.508L162.099,123.867C162.099,125.575,161.616,127.101,160.873,128.528C159.237,131.679,156.764,132.606,153.375,132.606L103.001,132.606L103.001,147.391L114.949,147.391C117.184,147.391,117.89,148.047,117.89,150.452C117.89,152.857,117.184,154.731,114.949,154.731L61.815,154.731C59.58,154.731,58.945,152.857,58.945,150.452C58.945,148.047,59.58,147.391,61.815,147.391L73.545,147.391L73.545,132.606L23.388,132.606C20,132.606,17.55,131.679,15.89,128.528C15.168,127.167,14.736,125.658,14.736,123.867L14.736,31.508L14.736,30.729C15.241,26.3,18.414,22.652,22.666,22.104L23.388,22.104L153.375,22.104ZM147.363,117.217L147.363,37.513L147.363,37.513L147.363,36.841L29.473,36.841L29.473,37.513L29.473,117.217C29.473,117.69,29.667,117.89,30.12,117.89L146.716,117.89C147.17,117.89,147.363,117.69,147.363,117.217ZM147.363,117.217"/>
</g>
  <g id="Heavy-L" transform="matrix(1.0,0.0,0.0,1.0,2549.552344737962,1431.1145170955435)">  <path stroke-linecap="butt" fill-rule="evenodd" stroke-opacity="1" stroke-linejoin="miter" stroke-dasharray="none" fill-opacity="1" clip-rule="evenodd" stroke-miterlimit="4" fill="#000000" stroke-width="1px" stroke="none" d="M153.375,22.104L154.097,22.337C158.206,22.652,161.594,26.3,162.099,30.729L162.099,31.508L162.099,123.867C162.099,125.575,161.616,127.101,160.873,128.528C159.237,131.679,156.764,132.606,153.375,132.606L103.001,132.606L103.001,147.391L114.949,147.391C117.184,147.391,117.89,148.047,117.89,150.452C117.89,152.857,117.184,154.731,114.949,154.731L61.815,154.731C59.58,154.731,58.945,152.857,58.945,150.452C58.945,148.047,59.58,147.391,61.815,147.391L73.545,147.391L73.545,132.606L23.388,132.606C20,132.606,17.55,131.679,15.89,128.528C15.168,127.167,14.736,125.658,14.736,123.867L14.736,31.508L14.736,30.729C15.241,26.3,18.414,22.652,22.666,22.104L23.388,22.104L153.375,22.104ZM147.363,117.217L147.363,37.513L147.363,37.513L147.363,36.841L29.473,36.841L29.473,37.513L29.473,117.217C29.473,117.69,29.667,117.89,30.12,117.89L146.716,117.89C147.17,117.89,147.363,117.69,147.363,117.217ZM147.363,117.217"/>
</g>
  <g id="Bold-L" transform="matrix(1.0,0.0,0.0,1.0,2252.842344737962,1431.1145170955435)">  <path fill-opacity="1" stroke-linecap="butt" fill="#000000" stroke-dasharray="none" stroke-width="1px" stroke-opacity="1" stroke-miterlimit="4" stroke="none" stroke-linejoin="miter" fill-rule="evenodd" clip-rule="evenodd" d="M153.375,22.104L154.097,22.337C158.206,22.652,161.594,26.3,162.099,30.729L162.099,31.508L162.099,123.867C162.099,125.575,161.616,127.101,160.873,128.528C159.237,131.679,156.764,132.606,153.375,132.606L103.001,132.606L103.001,147.391L114.949,147.391C117.184,147.391,117.89,148.047,117.89,150.452C117.89,152.857,117.184,154.731,114.949,154.731L61.815,154.731C59.58,154.731,58.945,152.857,58.945,150.452C58.945,148.047,59.58,147.391,61.815,147.391L73.545,147.391L73.545,132.606L23.388,132.606C20,132.606,17.55,131.679,15.89,128.528C15.168,127.167,14.736,125.658,14.736,123.867L14.736,31.508L14.736,30.729C15.241,26.3,18.414,22.652,22.666,22.104L23.388,22.104L153.375,22.104ZM147.363,117.217L147.363,37.513L147.363,37.513L147.363,36.841L29.473,36.841L29.473,37.513L29.473,117.217C29.473,117.69,29.667,117.89,30.12,117.89L146.716,117.89C147.17,117.89,147.363,117.69,147.363,117.217ZM147.363,117.217"/>
</g>
  <g id="Semibold-L" transform="matrix(1.0,0.0,0.0,1.0,1956.132344737962,1431.1145170955435)">  <path stroke-miterlimit="4" clip-rule="evenodd" stroke-linejoin="miter" fill-rule="evenodd" stroke="none" stroke-opacity="1" stroke-dasharray="none" stroke-linecap="butt" stroke-width="1px" fill-opacity="1" fill="#000000" d="M153.375,22.104L154.097,22.337C158.206,22.652,161.594,26.3,162.099,30.729L162.099,31.508L162.099,123.867C162.099,125.575,161.616,127.101,160.873,128.528C159.237,131.679,156.764,132.606,153.375,132.606L103.001,132.606L103.001,147.391L114.949,147.391C117.184,147.391,117.89,148.047,117.89,150.452C117.89,152.857,117.184,154.731,114.949,154.731L61.815,154.731C59.58,154.731,58.945,152.857,58.945,150.452C58.945,148.047,59.58,147.391,61.815,147.391L73.545,147.391L73.545,132.606L23.388,132.606C20,132.606,17.55,131.679,15.89,128.528C15.168,127.167,14.736,125.658,14.736,123.867L14.736,31.508L14.736,30.729C15.241,26.3,18.414,22.652,22.666,22.104L23.388,22.104L153.375,22.104ZM147.363,117.217L147.363,37.513L147.363,37.513L147.363,36.841L29.473,36.841L29.473,37.513L29.473,117.217C29.473,117.69,29.667,117.89,30.12,117.89L146.716,117.89C147.17,117.89,147.363,117.69,147.363,117.217ZM147.363,117.217"/>
</g>
  <g id="Medium-L" transform="matrix(1.0,0.0,0.0,1.0,1659.422344737962,1431.1145170955435)">  <path stroke="none" stroke-miterlimit="4" stroke-opacity="1" stroke-linejoin="miter" fill-rule="evenodd" stroke-dasharray="none" stroke-width="1px" clip-rule="evenodd" stroke-linecap="butt" fill-opacity="1" fill="#000000" d="M153.375,22.104L154.097,22.337C158.206,22.652,161.594,26.3,162.099,30.729L162.099,31.508L162.099,123.867C162.099,125.575,161.616,127.101,160.873,128.528C159.237,131.679,156.764,132.606,153.375,132.606L103.001,132.606L103.001,147.391L114.949,147.391C117.184,147.391,117.89,148.047,117.89,150.452C117.89,152.857,117.184,154.731,114.949,154.731L61.815,154.731C59.58,154.731,58.945,152.857,58.945,150.452C58.945,148.047,59.58,147.391,61.815,147.391L73.545,147.391L73.545,132.606L23.388,132.606C20,132.606,17.55,131.679,15.89,128.528C15.168,127.167,14.736,125.658,14.736,123.867L14.736,31.508L14.736,30.729C15.241,26.3,18.414,22.652,22.666,22.104L23.388,22.104L153.375,22.104ZM147.363,117.217L147.363,37.513L147.363,37.513L147.363,36.841L29.473,36.841L29.473,37.513L29.473,117.217C29.473,117.69,29.667,117.89,30.12,117.89L146.716,117.89C147.17,117.89,147.363,117.69,147.363,117.217ZM147.363,117.217"/>
</g>
  <g id="Regular-L" transform="matrix(1.0,0.0,0.0,1.0,1362.712344737962,1431.1145170955435)">  <path stroke-opacity="1" fill="#000000" stroke-miterlimit="4" stroke="none" stroke-dasharray="none" fill-rule="evenodd" stroke-linecap="butt" stroke-width="1px" stroke-linejoin="miter" fill-opacity="1" clip-rule="evenodd" d="M153.375,22.104L154.097,22.337C158.206,22.652,161.594,26.3,162.099,30.729L162.099,31.508L162.099,123.867C162.099,125.575,161.616,127.101,160.873,128.528C159.237,131.679,156.764,132.606,153.375,132.606L103.001,132.606L103.001,147.391L114.949,147.391C117.184,147.391,117.89,148.047,117.89,150.452C117.89,152.857,117.184,154.731,114.949,154.731L61.815,154.731C59.58,154.731,58.945,152.857,58.945,150.452C58.945,148.047,59.58,147.391,61.815,147.391L73.545,147.391L73.545,132.606L23.388,132.606C20,132.606,17.55,131.679,15.89,128.528C15.168,127.167,14.736,125.658,14.736,123.867L14.736,31.508L14.736,30.729C15.241,26.3,18.414,22.652,22.666,22.104L23.388,22.104L153.375,22.104ZM147.363,117.217L147.363,37.513L147.363,37.513L147.363,36.841L29.473,36.841L29.473,37.513L29.473,117.217C29.473,117.69,29.667,117.89,30.12,117.89L146.716,117.89C147.17,117.89,147.363,117.69,147.363,117.217ZM147.363,117.217"/>
</g>
  <g id="Light-L" transform="matrix(1.0,0.0,0.0,1.0,1066.0023447379622,1431.1145170955435)">  <path stroke-width="1px" stroke="none" stroke-opacity="1" fill-rule="evenodd" stroke-miterlimit="4" stroke-dasharray="none" fill="#000000" clip-rule="evenodd" fill-opacity="1" stroke-linejoin="miter" stroke-linecap="butt" d="M153.375,22.104L154.097,22.337C158.206,22.652,161.594,26.3,162.099,30.729L162.099,31.508L162.099,123.867C162.099,125.575,161.616,127.101,160.873,128.528C159.237,131.679,156.764,132.606,153.375,132.606L103.001,132.606L103.001,147.391L114.949,147.391C117.184,147.391,117.89,148.047,117.89,150.452C117.89,152.857,117.184,154.731,114.949,154.731L61.815,154.731C59.58,154.731,58.945,152.857,58.945,150.452C58.945,148.047,59.58,147.391,61.815,147.391L73.545,147.391L73.545,132.606L23.388,132.606C20,132.606,17.55,131.679,15.89,128.528C15.168,127.167,14.736,125.658,14.736,123.867L14.736,31.508L14.736,30.729C15.241,26.3,18.414,22.652,22.666,22.104L23.388,22.104L153.375,22.104ZM147.363,117.217L147.363,37.513L147.363,37.513L147.363,36.841L29.473,36.841L29.473,37.513L29.473,117.217C29.473,117.69,29.667,117.89,30.12,117.89L146.716,117.89C147.17,117.89,147.363,117.69,147.363,117.217ZM147.363,117.217"/>
</g>
  <g id="Thin-L" transform="matrix(1.0,0.0,0.0,1.0,769.2923447379621,1431.1145170955435)">  <path fill="#000000" stroke-miterlimit="4" stroke-linejoin="miter" fill-rule="evenodd" stroke="none" stroke-opacity="1" clip-rule="evenodd" stroke-width="1px" stroke-dasharray="none" stroke-linecap="butt" fill-opacity="1" d="M153.375,22.104L154.097,22.337C158.206,22.652,161.594,26.3,162.099,30.729L162.099,31.508L162.099,123.867C162.099,125.575,161.616,127.101,160.873,128.528C159.237,131.679,156.764,132.606,153.375,132.606L103.001,132.606L103.001,147.391L114.949,147.391C117.184,147.391,117.89,148.047,117.89,150.452C117.89,152.857,117.184,154.731,114.949,154.731L61.815,154.731C59.58,154.731,58.945,152.857,58.945,150.452C58.945,148.047,59.58,147.391,61.815,147.391L73.545,147.391L73.545,132.606L23.388,132.606C20,132.606,17.55,131.679,15.89,128.528C15.168,127.167,14.736,125.658,14.736,123.867L14.736,31.508L14.736,30.729C15.241,26.3,18.414,22.652,22.666,22.104L23.388,22.104L153.375,22.104ZM147.363,117.217L147.363,37.513L147.363,37.513L147.363,36.841L29.473,36.841L29.473,37.513L29.473,117.217C29.473,117.69,29.667,117.89,30.12,117.89L146.716,117.89C147.17,117.89,147.363,117.69,147.363,117.217ZM147.363,117.217"/>
</g>
  <g id="Ultralight-L" transform="matrix(1.0,0.0,0.0,1.0,472.58234473796205,1431.1145170955435)">  <path stroke-miterlimit="4" stroke-linecap="butt" stroke-opacity="1" fill-opacity="1" stroke-width="1px" clip-rule="evenodd" stroke-dasharray="none" fill="#000000" fill-rule="evenodd" stroke="none" stroke-linejoin="miter" d="M153.375,22.104L154.097,22.337C158.206,22.652,161.594,26.3,162.099,30.729L162.099,31.508L162.099,123.867C162.099,125.575,161.616,127.101,160.873,128.528C159.237,131.679,156.764,132.606,153.375,132.606L103.001,132.606L103.001,147.391L114.949,147.391C117.184,147.391,117.89,148.047,117.89,150.452C117.89,152.857,117.184,154.731,114.949,154.731L61.815,154.731C59.58,154.731,58.945,152.857,58.945,150.452C58.945,148.047,59.58,147.391,61.815,147.391L73.545,147.391L73.545,132.606L23.388,132.606C20,132.606,17.55,131.679,15.89,128.528C15.168,127.167,14.736,125.658,14.736,123.867L14.736,31.508L14.736,30.729C15.241,26.3,18.414,22.652,22.666,22.104L23.388,22.104L153.375,22.104ZM147.363,117.217L147.363,37.513L147.363,37.513L147.363,36.841L29.473,36.841L29.473,37.513L29.473,117.217C29.473,117.69,29.667,117.89,30.12,117.89L146.716,117.89C147.17,117.89,147.363,117.69,147.363,117.217ZM147.363,117.217"/>
</g>
  <g id="Black-M" transform="matrix(1.0,0.0,0.0,1.0,2866.1391819674122,1021.2696300462062)">  <path fill-rule="evenodd" stroke-opacity="1" stroke-dasharray="none" fill="#000000" fill-opacity="1" stroke="none" stroke-width="1px" clip-rule="evenodd" stroke-linecap="butt" stroke-miterlimit="4" stroke-linejoin="miter" d="M118.895,17.135L119.455,17.315C122.64,17.56,125.267,20.388,125.658,23.821L125.658,24.425L125.658,96.021C125.658,97.345,125.283,98.528,124.708,99.634C123.439,102.077,121.523,102.795,118.895,102.795L79.845,102.795L79.845,114.256L89.108,114.256C90.84,114.256,91.388,114.765,91.388,116.63C91.388,118.494,90.84,119.946,89.108,119.946L47.918,119.946C46.186,119.946,45.694,118.494,45.694,116.63C45.694,114.765,46.186,114.256,47.918,114.256L57.012,114.256L57.012,102.795L18.13,102.795C15.504,102.795,13.604,102.077,12.318,99.634C11.759,98.579,11.423,97.41,11.423,96.021L11.423,24.425L11.423,23.821C11.814,20.388,14.274,17.56,17.571,17.135L18.13,17.135L118.895,17.135ZM114.235,90.866L114.235,29.08L114.235,29.08L114.235,28.559L22.847,28.559L22.847,29.08L22.847,90.866C22.847,91.232,22.998,91.388,23.349,91.388L113.733,91.388C114.085,91.388,114.235,91.232,114.235,90.866ZM114.235,90.866"/>
</g>
  <g id="Heavy-M" transform="matrix(1.0,0.0,0.0,1.0,2569.429181967412,1021.2696300462062)">  <path stroke-linecap="butt" fill-rule="evenodd" stroke-opacity="1" stroke-linejoin="miter" stroke-dasharray="none" fill-opacity="1" clip-rule="evenodd" stroke-miterlimit="4" fill="#000000" stroke-width="1px" stroke="none" d="M118.895,17.135L119.455,17.315C122.64,17.56,125.267,20.388,125.658,23.821L125.658,24.425L125.658,96.021C125.658,97.345,125.283,98.528,124.708,99.634C123.439,102.077,121.523,102.795,118.895,102.795L79.845,102.795L79.845,114.256L89.108,114.256C90.84,114.256,91.388,114.765,91.388,116.63C91.388,118.494,90.84,119.946,89.108,119.946L47.918,119.946C46.186,119.946,45.694,118.494,45.694,116.63C45.694,114.765,46.186,114.256,47.918,114.256L57.012,114.256L57.012,102.795L18.13,102.795C15.504,102.795,13.604,102.077,12.318,99.634C11.759,98.579,11.423,97.41,11.423,96.021L11.423,24.425L11.423,23.821C11.814,20.388,14.274,17.56,17.571,17.135L18.13,17.135L118.895,17.135ZM114.235,90.866L114.235,29.08L114.235,29.08L114.235,28.559L22.847,28.559L22.847,29.08L22.847,90.866C22.847,91.232,22.998,91.388,23.349,91.388L113.733,91.388C114.085,91.388,114.235,91.232,114.235,90.866ZM114.235,90.866"/>
</g>
  <g id="Bold-M" transform="matrix(1.0,0.0,0.0,1.0,2272.719181967412,1021.2696300462062)">  <path fill-opacity="1" stroke-linecap="butt" fill="#000000" stroke-dasharray="none" stroke-width="1px" stroke-opacity="1" stroke-miterlimit="4" stroke="none" stroke-linejoin="miter" fill-rule="evenodd" clip-rule="evenodd" d="M118.895,17.135L119.455,17.315C122.64,17.56,125.267,20.388,125.658,23.821L125.658,24.425L125.658,96.021C125.658,97.345,125.283,98.528,124.708,99.634C123.439,102.077,121.523,102.795,118.895,102.795L79.845,102.795L79.845,114.256L89.108,114.256C90.84,114.256,91.388,114.765,91.388,116.63C91.388,118.494,90.84,119.946,89.108,119.946L47.918,119.946C46.186,119.946,45.694,118.494,45.694,116.63C45.694,114.765,46.186,114.256,47.918,114.256L57.012,114.256L57.012,102.795L18.13,102.795C15.504,102.795,13.604,102.077,12.318,99.634C11.759,98.579,11.423,97.41,11.423,96.021L11.423,24.425L11.423,23.821C11.814,20.388,14.274,17.56,17.571,17.135L18.13,17.135L118.895,17.135ZM114.235,90.866L114.235,29.08L114.235,29.08L114.235,28.559L22.847,28.559L22.847,29.08L22.847,90.866C22.847,91.232,22.998,91.388,23.349,91.388L113.733,91.388C114.085,91.388,114.235,91.232,114.235,90.866ZM114.235,90.866"/>
</g>
  <g id="Semibold-M" transform="matrix(1.0,0.0,0.0,1.0,1976.0091819674124,1021.2696300462062)">  <path stroke-miterlimit="4" clip-rule="evenodd" stroke-linejoin="miter" fill-rule="evenodd" stroke="none" stroke-opacity="1" stroke-dasharray="none" stroke-linecap="butt" stroke-width="1px" fill-opacity="1" fill="#000000" d="M118.895,17.135L119.455,17.315C122.64,17.56,125.267,20.388,125.658,23.821L125.658,24.425L125.658,96.021C125.658,97.345,125.283,98.528,124.708,99.634C123.439,102.077,121.523,102.795,118.895,102.795L79.845,102.795L79.845,114.256L89.108,114.256C90.84,114.256,91.388,114.765,91.388,116.63C91.388,118.494,90.84,119.946,89.108,119.946L47.918,119.946C46.186,119.946,45.694,118.494,45.694,116.63C45.694,114.765,46.186,114.256,47.918,114.256L57.012,114.256L57.012,102.795L18.13,102.795C15.504,102.795,13.604,102.077,12.318,99.634C11.759,98.579,11.423,97.41,11.423,96.021L11.423,24.425L11.423,23.821C11.814,20.388,14.274,17.56,17.571,17.135L18.13,17.135L118.895,17.135ZM114.235,90.866L114.235,29.08L114.235,29.08L114.235,28.559L22.847,28.559L22.847,29.08L22.847,90.866C22.847,91.232,22.998,91.388,23.349,91.388L113.733,91.388C114.085,91.388,114.235,91.232,114.235,90.866ZM114.235,90.866"/>
</g>
  <g id="Medium-M" transform="matrix(1.0,0.0,0.0,1.0,1679.2991819674123,1021.2696300462062)">  <path stroke="none" stroke-miterlimit="4" stroke-opacity="1" stroke-linejoin="miter" fill-rule="evenodd" stroke-dasharray="none" stroke-width="1px" clip-rule="evenodd" stroke-linecap="butt" fill-opacity="1" fill="#000000" d="M118.895,17.135L119.455,17.315C122.64,17.56,125.267,20.388,125.658,23.821L125.658,24.425L125.658,96.021C125.658,97.345,125.283,98.528,124.708,99.634C123.439,102.077,121.523,102.795,118.895,102.795L79.845,102.795L79.845,114.256L89.108,114.256C90.84,114.256,91.388,114.765,91.388,116.63C91.388,118.494,90.84,119.946,89.108,119.946L47.918,119.946C46.186,119.946,45.694,118.494,45.694,116.63C45.694,114.765,46.186,114.256,47.918,114.256L57.012,114.256L57.012,102.795L18.13,102.795C15.504,102.795,13.604,102.077,12.318,99.634C11.759,98.579,11.423,97.41,11.423,96.021L11.423,24.425L11.423,23.821C11.814,20.388,14.274,17.56,17.571,17.135L18.13,17.135L118.895,17.135ZM114.235,90.866L114.235,29.08L114.235,29.08L114.235,28.559L22.847,28.559L22.847,29.08L22.847,90.866C22.847,91.232,22.998,91.388,23.349,91.388L113.733,91.388C114.085,91.388,114.235,91.232,114.235,90.866ZM114.235,90.866"/>
</g>
  <g id="Regular-M" transform="matrix(1.0,0.0,0.0,1.0,1382.5891819674123,1021.2696300462062)">  <path stroke-opacity="1" fill="#000000" stroke-miterlimit="4" stroke="none" stroke-dasharray="none" fill-rule="evenodd" stroke-linecap="butt" stroke-width="1px" stroke-linejoin="miter" fill-opacity="1" clip-rule="evenodd" d="M118.895,17.135L119.455,17.315C122.64,17.56,125.267,20.388,125.658,23.821L125.658,24.425L125.658,96.021C125.658,97.345,125.283,98.528,124.708,99.634C123.439,102.077,121.523,102.795,118.895,102.795L79.845,102.795L79.845,114.256L89.108,114.256C90.84,114.256,91.388,114.765,91.388,116.63C91.388,118.494,90.84,119.946,89.108,119.946L47.918,119.946C46.186,119.946,45.694,118.494,45.694,116.63C45.694,114.765,46.186,114.256,47.918,114.256L57.012,114.256L57.012,102.795L18.13,102.795C15.504,102.795,13.604,102.077,12.318,99.634C11.759,98.579,11.423,97.41,11.423,96.021L11.423,24.425L11.423,23.821C11.814,20.388,14.274,17.56,17.571,17.135L18.13,17.135L118.895,17.135ZM114.235,90.866L114.235,29.08L114.235,29.08L114.235,28.559L22.847,28.559L22.847,29.08L22.847,90.866C22.847,91.232,22.998,91.388,23.349,91.388L113.733,91.388C114.085,91.388,114.235,91.232,114.235,90.866ZM114.235,90.866"/>
</g>
  <g id="Light-M" transform="matrix(1.0,0.0,0.0,1.0,1085.8791819674125,1021.2696300462062)">  <path stroke-width="1px" stroke="none" stroke-opacity="1" fill-rule="evenodd" stroke-miterlimit="4" stroke-dasharray="none" fill="#000000" clip-rule="evenodd" fill-opacity="1" stroke-linejoin="miter" stroke-linecap="butt" d="M118.895,17.135L119.455,17.315C122.64,17.56,125.267,20.388,125.658,23.821L125.658,24.425L125.658,96.021C125.658,97.345,125.283,98.528,124.708,99.634C123.439,102.077,121.523,102.795,118.895,102.795L79.845,102.795L79.845,114.256L89.108,114.256C90.84,114.256,91.388,114.765,91.388,116.63C91.388,118.494,90.84,119.946,89.108,119.946L47.918,119.946C46.186,119.946,45.694,118.494,45.694,116.63C45.694,114.765,46.186,114.256,47.918,114.256L57.012,114.256L57.012,102.795L18.13,102.795C15.504,102.795,13.604,102.077,12.318,99.634C11.759,98.579,11.423,97.41,11.423,96.021L11.423,24.425L11.423,23.821C11.814,20.388,14.274,17.56,17.571,17.135L18.13,17.135L118.895,17.135ZM114.235,90.866L114.235,29.08L114.235,29.08L114.235,28.559L22.847,28.559L22.847,29.08L22.847,90.866C22.847,91.232,22.998,91.388,23.349,91.388L113.733,91.388C114.085,91.388,114.235,91.232,114.235,90.866ZM114.235,90.866"/>
</g>
  <g id="Thin-M" transform="matrix(1.0,0.0,0.0,1.0,789.1691819674124,1021.2696300462062)">  <path fill="#000000" stroke-miterlimit="4" stroke-linejoin="miter" fill-rule="evenodd" stroke="none" stroke-opacity="1" clip-rule="evenodd" stroke-width="1px" stroke-dasharray="none" stroke-linecap="butt" fill-opacity="1" d="M118.895,17.135L119.455,17.315C122.64,17.56,125.267,20.388,125.658,23.821L125.658,24.425L125.658,96.021C125.658,97.345,125.283,98.528,124.708,99.634C123.439,102.077,121.523,102.795,118.895,102.795L79.845,102.795L79.845,114.256L89.108,114.256C90.84,114.256,91.388,114.765,91.388,116.63C91.388,118.494,90.84,119.946,89.108,119.946L47.918,119.946C46.186,119.946,45.694,118.494,45.694,116.63C45.694,114.765,46.186,114.256,47.918,114.256L57.012,114.256L57.012,102.795L18.13,102.795C15.504,102.795,13.604,102.077,12.318,99.634C11.759,98.579,11.423,97.41,11.423,96.021L11.423,24.425L11.423,23.821C11.814,20.388,14.274,17.56,17.571,17.135L18.13,17.135L118.895,17.135ZM114.235,90.866L114.235,29.08L114.235,29.08L114.235,28.559L22.847,28.559L22.847,29.08L22.847,90.866C22.847,91.232,22.998,91.388,23.349,91.388L113.733,91.388C114.085,91.388,114.235,91.232,114.235,90.866ZM114.235,90.866"/>
</g>
  <g id="Ultralight-M" transform="matrix(1.0,0.0,0.0,1.0,492.45918196741246,1021.2696300462062)">  <path stroke-miterlimit="4" stroke-linecap="butt" stroke-opacity="1" fill-opacity="1" stroke-width="1px" clip-rule="evenodd" stroke-dasharray="none" fill="#000000" fill-rule="evenodd" stroke="none" stroke-linejoin="miter" d="M118.895,17.135L119.455,17.315C122.64,17.56,125.267,20.388,125.658,23.821L125.658,24.425L125.658,96.021C125.658,97.345,125.283,98.528,124.708,99.634C123.439,102.077,121.523,102.795,118.895,102.795L79.845,102.795L79.845,114.256L89.108,114.256C90.84,114.256,91.388,114.765,91.388,116.63C91.388,118.494,90.84,119.946,89.108,119.946L47.918,119.946C46.186,119.946,45.694,118.494,45.694,116.63C45.694,114.765,46.186,114.256,47.918,114.256L57.012,114.256L57.012,102.795L18.13,102.795C15.504,102.795,13.604,102.077,12.318,99.634C11.759,98.579,11.423,97.41,11.423,96.021L11.423,24.425L11.423,23.821C11.814,20.388,14.274,17.56,17.571,17.135L18.13,17.135L118.895,17.135ZM114.235,90.866L114.235,29.08L114.235,29.08L114.235,28.559L22.847,28.559L22.847,29.08L22.847,90.866C22.847,91.232,22.998,91.388,23.349,91.388L113.733,91.388C114.085,91.388,114.235,91.232,114.235,90.866ZM114.235,90.866"/>
</g>
  <g id="Black-S" transform="matrix(1.0,0.0,0.0,1.0,2881.0125394804836,606.3512145644607)">  <path fill-rule="evenodd" stroke-opacity="1" stroke-dasharray="none" fill="#000000" fill-opacity="1" stroke="none" stroke-width="1px" clip-rule="evenodd" stroke-linecap="butt" stroke-miterlimit="4" stroke-linejoin="miter" d="M93.095,13.417L93.533,13.558C96.027,13.749,98.084,15.964,98.39,18.652L98.39,19.125L98.39,75.185C98.39,76.221,98.097,77.147,97.646,78.013C96.653,79.926,95.152,80.489,93.095,80.489L62.519,80.489L62.519,89.463L69.771,89.463C71.128,89.463,71.557,89.861,71.557,91.321C71.557,92.781,71.128,93.918,69.771,93.918L37.52,93.918C36.164,93.918,35.778,92.781,35.778,91.321C35.778,89.861,36.164,89.463,37.52,89.463L44.64,89.463L44.64,80.489L14.196,80.489C12.139,80.489,10.652,79.926,9.645,78.013C9.207,77.188,8.945,76.272,8.945,75.185L8.945,19.125L8.945,18.652C9.251,15.964,11.177,13.749,13.758,13.417L14.196,13.417L93.095,13.417ZM89.446,71.148L89.446,22.77L89.446,22.77L89.446,22.361L17.889,22.361L17.889,22.77L17.889,71.148C17.889,71.435,18.007,71.557,18.282,71.557L89.053,71.557C89.329,71.557,89.446,71.435,89.446,71.148ZM89.446,71.148"/>
</g>
  <g id="Heavy-S" transform="matrix(1.0,0.0,0.0,1.0,2584.3025394804836,606.3512145644607)">  <path stroke-linecap="butt" fill-rule="evenodd" stroke-opacity="1" stroke-linejoin="miter" stroke-dasharray="none" fill-opacity="1" clip-rule="evenodd" stroke-miterlimit="4" fill="#000000" stroke-width="1px" stroke="none" d="M93.095,13.417L93.533,13.558C96.027,13.749,98.084,15.964,98.39,18.652L98.39,19.125L98.39,75.185C98.39,76.221,98.097,77.147,97.646,78.013C96.653,79.926,95.152,80.489,93.095,80.489L62.519,80.489L62.519,89.463L69.771,89.463C71.128,89.463,71.557,89.861,71.557,91.321C71.557,92.781,71.128,93.918,69.771,93.918L37.52,93.918C36.164,93.918,35.778,92.781,35.778,91.321C35.778,89.861,36.164,89.463,37.52,89.463L44.64,89.463L44.64,80.489L14.196,80.489C12.139,80.489,10.652,79.926,9.645,78.013C9.207,77.188,8.945,76.272,8.945,75.185L8.945,19.125L8.945,18.652C9.251,15.964,11.177,13.749,13.758,13.417L14.196,13.417L93.095,13.417ZM89.446,71.148L89.446,22.77L89.446,22.77L89.446,22.361L17.889,22.361L17.889,22.77L17.889,71.148C17.889,71.435,18.007,71.557,18.282,71.557L89.053,71.557C89.329,71.557,89.446,71.435,89.446,71.148ZM89.446,71.148"/>
</g>
  <g id="Bold-S" transform="matrix(1.0,0.0,0.0,1.0,2287.5925394804835,606.3512145644607)">  <path fill-opacity="1" stroke-linecap="butt" fill="#000000" stroke-dasharray="none" stroke-width="1px" stroke-opacity="1" stroke-miterlimit="4" stroke="none" stroke-linejoin="miter" fill-rule="evenodd" clip-rule="evenodd" d="M93.095,13.417L93.533,13.558C96.027,13.749,98.084,15.964,98.39,18.652L98.39,19.125L98.39,75.185C98.39,76.221,98.097,77.147,97.646,78.013C96.653,79.926,95.152,80.489,93.095,80.489L62.519,80.489L62.519,89.463L69.771,89.463C71.128,89.463,71.557,89.861,71.557,91.321C71.557,92.781,71.128,93.918,69.771,93.918L37.52,93.918C36.164,93.918,35.778,92.781,35.778,91.321C35.778,89.861,36.164,89.463,37.52,89.463L44.64,89.463L44.64,80.489L14.196,80.489C12.139,80.489,10.652,79.926,9.645,78.013C9.207,77.188,8.945,76.272,8.945,75.185L8.945,19.125L8.945,18.652C9.251,15.964,11.177,13.749,13.758,13.417L14.196,13.417L93.095,13.417ZM89.446,71.148L89.446,22.77L89.446,22.77L89.446,22.361L17.889,22.361L17.889,22.77L17.889,71.148C17.889,71.435,18.007,71.557,18.282,71.557L89.053,71.557C89.329,71.557,89.446,71.435,89.446,71.148ZM89.446,71.148"/>
</g>
  <g id="Semibold-S" transform="matrix(1.0,0.0,0.0,1.0,1990.882539480484,606.3512145644607)">  <path stroke-miterlimit="4" clip-rule="evenodd" stroke-linejoin="miter" fill-rule="evenodd" stroke="none" stroke-opacity="1" stroke-dasharray="none" stroke-linecap="butt" stroke-width="1px" fill-opacity="1" fill="#000000" d="M93.095,13.417L93.533,13.558C96.027,13.749,98.084,15.964,98.39,18.652L98.39,19.125L98.39,75.185C98.39,76.221,98.097,77.147,97.646,78.013C96.653,79.926,95.152,80.489,93.095,80.489L62.519,80.489L62.519,89.463L69.771,89.463C71.128,89.463,71.557,89.861,71.557,91.321C71.557,92.781,71.128,93.918,69.771,93.918L37.52,93.918C36.164,93.918,35.778,92.781,35.778,91.321C35.778,89.861,36.164,89.463,37.52,89.463L44.64,89.463L44.64,80.489L14.196,80.489C12.139,80.489,10.652,79.926,9.645,78.013C9.207,77.188,8.945,76.272,8.945,75.185L8.945,19.125L8.945,18.652C9.251,15.964,11.177,13.749,13.758,13.417L14.196,13.417L93.095,13.417ZM89.446,71.148L89.446,22.77L89.446,22.77L89.446,22.361L17.889,22.361L17.889,22.77L17.889,71.148C17.889,71.435,18.007,71.557,18.282,71.557L89.053,71.557C89.329,71.557,89.446,71.435,89.446,71.148ZM89.446,71.148"/>
</g>
  <g id="Medium-S" transform="matrix(1.0,0.0,0.0,1.0,1694.172539480484,606.3512145644607)">  <path stroke="none" stroke-miterlimit="4" stroke-opacity="1" stroke-linejoin="miter" fill-rule="evenodd" stroke-dasharray="none" stroke-width="1px" clip-rule="evenodd" stroke-linecap="butt" fill-opacity="1" fill="#000000" d="M93.095,13.417L93.533,13.558C96.027,13.749,98.084,15.964,98.39,18.652L98.39,19.125L98.39,75.185C98.39,76.221,98.097,77.147,97.646,78.013C96.653,79.926,95.152,80.489,93.095,80.489L62.519,80.489L62.519,89.463L69.771,89.463C71.128,89.463,71.557,89.861,71.557,91.321C71.557,92.781,71.128,93.918,69.771,93.918L37.52,93.918C36.164,93.918,35.778,92.781,35.778,91.321C35.778,89.861,36.164,89.463,37.52,89.463L44.64,89.463L44.64,80.489L14.196,80.489C12.139,80.489,10.652,79.926,9.645,78.013C9.207,77.188,8.945,76.272,8.945,75.185L8.945,19.125L8.945,18.652C9.251,15.964,11.177,13.749,13.758,13.417L14.196,13.417L93.095,13.417ZM89.446,71.148L89.446,22.77L89.446,22.77L89.446,22.361L17.889,22.361L17.889,22.77L17.889,71.148C17.889,71.435,18.007,71.557,18.282,71.557L89.053,71.557C89.329,71.557,89.446,71.435,89.446,71.148ZM89.446,71.148"/>
</g>
  <g id="Regular-S" transform="matrix(1.0,0.0,0.0,1.0,1397.4625394804839,606.3512145644607)">  <path stroke-opacity="1" fill="#000000" stroke-miterlimit="4" stroke="none" stroke-dasharray="none" fill-rule="evenodd" stroke-linecap="butt" stroke-width="1px" stroke-linejoin="miter" fill-opacity="1" clip-rule="evenodd" d="M93.095,13.417L93.533,13.558C96.027,13.749,98.084,15.964,98.39,18.652L98.39,19.125L98.39,75.185C98.39,76.221,98.097,77.147,97.646,78.013C96.653,79.926,95.152,80.489,93.095,80.489L62.519,80.489L62.519,89.463L69.771,89.463C71.128,89.463,71.557,89.861,71.557,91.321C71.557,92.781,71.128,93.918,69.771,93.918L37.52,93.918C36.164,93.918,35.778,92.781,35.778,91.321C35.778,89.861,36.164,89.463,37.52,89.463L44.64,89.463L44.64,80.489L14.196,80.489C12.139,80.489,10.652,79.926,9.645,78.013C9.207,77.188,8.945,76.272,8.945,75.185L8.945,19.125L8.945,18.652C9.251,15.964,11.177,13.749,13.758,13.417L14.196,13.417L93.095,13.417ZM89.446,71.148L89.446,22.77L89.446,22.77L89.446,22.361L17.889,22.361L17.889,22.77L17.889,71.148C17.889,71.435,18.007,71.557,18.282,71.557L89.053,71.557C89.329,71.557,89.446,71.435,89.446,71.148ZM89.446,71.148"/>
</g>
  <g id="Light-S" transform="matrix(1.0,0.0,0.0,1.0,1100.752539480484,606.3512145644607)">  <path stroke-width="1px" stroke="none" stroke-opacity="1" fill-rule="evenodd" stroke-miterlimit="4" stroke-dasharray="none" fill="#000000" clip-rule="evenodd" fill-opacity="1" stroke-linejoin="miter" stroke-linecap="butt" d="M93.095,13.417L93.533,13.558C96.027,13.749,98.084,15.964,98.39,18.652L98.39,19.125L98.39,75.185C98.39,76.221,98.097,77.147,97.646,78.013C96.653,79.926,95.152,80.489,93.095,80.489L62.519,80.489L62.519,89.463L69.771,89.463C71.128,89.463,71.557,89.861,71.557,91.321C71.557,92.781,71.128,93.918,69.771,93.918L37.52,93.918C36.164,93.918,35.778,92.781,35.778,91.321C35.778,89.861,36.164,89.463,37.52,89.463L44.64,89.463L44.64,80.489L14.196,80.489C12.139,80.489,10.652,79.926,9.645,78.013C9.207,77.188,8.945,76.272,8.945,75.185L8.945,19.125L8.945,18.652C9.251,15.964,11.177,13.749,13.758,13.417L14.196,13.417L93.095,13.417ZM89.446,71.148L89.446,22.77L89.446,22.77L89.446,22.361L17.889,22.361L17.889,22.77L17.889,71.148C17.889,71.435,18.007,71.557,18.282,71.557L89.053,71.557C89.329,71.557,89.446,71.435,89.446,71.148ZM89.446,71.148"/>
</g>
  <g id="Thin-S" transform="matrix(1.0,0.0,0.0,1.0,804.042539480484,606.3512145644607)">  <path fill="#000000" stroke-miterlimit="4" stroke-linejoin="miter" fill-rule="evenodd" stroke="none" stroke-opacity="1" clip-rule="evenodd" stroke-width="1px" stroke-dasharray="none" stroke-linecap="butt" fill-opacity="1" d="M93.095,13.417L93.533,13.558C96.027,13.749,98.084,15.964,98.39,18.652L98.39,19.125L98.39,75.185C98.39,76.221,98.097,77.147,97.646,78.013C96.653,79.926,95.152,80.489,93.095,80.489L62.519,80.489L62.519,89.463L69.771,89.463C71.128,89.463,71.557,89.861,71.557,91.321C71.557,92.781,71.128,93.918,69.771,93.918L37.52,93.918C36.164,93.918,35.778,92.781,35.778,91.321C35.778,89.861,36.164,89.463,37.52,89.463L44.64,89.463L44.64,80.489L14.196,80.489C12.139,80.489,10.652,79.926,9.645,78.013C9.207,77.188,8.945,76.272,8.945,75.185L8.945,19.125L8.945,18.652C9.251,15.964,11.177,13.749,13.758,13.417L14.196,13.417L93.095,13.417ZM89.446,71.148L89.446,22.77L89.446,22.77L89.446,22.361L17.889,22.361L17.889,22.77L17.889,71.148C17.889,71.435,18.007,71.557,18.282,71.557L89.053,71.557C89.329,71.557,89.446,71.435,89.446,71.148ZM89.446,71.148"/>
</g>
  <g id="Ultralight-S" transform="matrix(1.0,0.0,0.0,1.0,507.33253948048394,606.3512145644607)">  <path stroke-miterlimit="4" stroke-linecap="butt" stroke-opacity="1" fill-opacity="1" stroke-width="1px" clip-rule="evenodd" stroke-dasharray="none" fill="#000000" fill-rule="evenodd" stroke="none" stroke-linejoin="miter" d="M93.095,13.417L93.533,13.558C96.027,13.749,98.084,15.964,98.39,18.652L98.39,19.125L98.39,75.185C98.39,76.221,98.097,77.147,97.646,78.013C96.653,79.926,95.152,80.489,93.095,80.489L62.519,80.489L62.519,89.463L69.771,89.463C71.128,89.463,71.557,89.861,71.557,91.321C71.557,92.781,71.128,93.918,69.771,93.918L37.52,93.918C36.164,93.918,35.778,92.781,35.778,91.321C35.778,89.861,36.164,89.463,37.52,89.463L44.64,89.463L44.64,80.489L14.196,80.489C12.139,80.489,10.652,79.926,9.645,78.013C9.207,77.188,8.945,76.272,8.945,75.185L8.945,19.125L8.945,18.652C9.251,15.964,11.177,13.749,13.758,13.417L14.196,13.417L93.095,13.417ZM89.446,71.148L89.446,22.77L89.446,22.77L89.446,22.361L17.889,22.361L17.889,22.77L17.889,71.148C17.889,71.435,18.007,71.557,18.282,71.557L89.053,71.557C89.329,71.557,89.446,71.435,89.446,71.148ZM89.446,71.148"/>
</g>
 </g>
</svg>
