<?xml version="1.0" encoding="UTF-8"?>
<!-- Generator: CustomSymbols v2.6.1.40 by @serious_bret https://bretlester.com/app_content/CustomSymbols/ -->
<!-- Guides: Left/Right 0.09/0.086 Cap/Base 0.18/0.182 -->
<!-- Settings: RefScale 1.0 Min/Max Stroke Scales 0.5/2.21 -->
<!DOCTYPE svg
PUBLIC "-//W3C//DTD SVG 1.1//EN"
       "http://www.w3.org/Graphics/SVG/1.1/DTD/svg11.dtd">
<svg version="1.1" xmlns="http://www.w3.org/2000/svg" xmlns:xlink="http://www.w3.org/1999/xlink" width="3300" height="2200">
<![CDATA[<svg xmlns="http://www.w3.org/2000/svg" width="24" height="24" viewBox="0 0 24 24">
  <defs/>
  <path d="M11.914,2.001 C11.942,2.001 11.971,2.001 12,2.001 C17.52,2.001 22,6.481 22,12 C22,17.52 17.52,22 12,22 C6.48,22 2,17.52 2,12 C2,6.567 6.346,2.138 11.746,2.001 C11.803,1.999 11.858,2 11.913,2.001 Z M19.021,15.836 L15.462,14.232 C15.345,14.776 15.075,15.243 14.651,15.634 C14.128,16.121 13.497,16.509 12.625,16.581 L12.625,17.938 L11.375,17.938 L11.375,16.52 C10.269,16.358 9.135,15.928 8.759,15.263 L10.014,14.107 C10.658,15.008 12.624,15.073 13.299,14.692 C13.547,14.552 13.608,14.145 13.608,13.871 C13.608,13.681 13.559,13.534 13.459,13.425 L13.457,13.424 C13.416,13.381 13.351,13.314 13.268,13.244 L12.451,12.876 C11.059,12.487 10.095,12.027 9.699,11.687 C9.659,11.652 9.621,11.618 9.585,11.584 L4.475,9.282 C4.168,10.131 4,11.046 4,12.001 C4,16.417 7.584,20 12,20 C15.027,20 17.662,18.317 19.021,15.836 Z M19.706,14.155 C19.898,13.47 20,12.747 20,12.001 C20,7.585 16.416,4.001 12,4.001 C11.971,4.001 11.943,4.001 11.914,4.001 L11.914,4.001 C11.858,4 11.802,3.999 11.745,4.001 C9.037,4.087 6.666,5.523 5.282,7.656 L9.157,9.402 C9.261,8.921 9.48,8.509 9.832,8.184 C10.217,7.828 10.732,7.603 11.375,7.511 L11.375,6.063 L12.625,6.063 L12.625,7.488 C13.486,7.568 14.479,7.849 15.012,8.481 L13.932,9.654 C13.323,9.144 12.872,9.098 12.126,9.098 C11.657,9.098 11.413,9.165 11.214,9.3 C11.015,9.43 10.916,9.6 10.916,9.809 C10.916,9.999 11.006,10.155 11.189,10.278 C11.371,10.409 11.847,10.603 12.797,10.862 C13.862,11.152 14.585,11.506 14.966,11.921 C15.011,11.971 15.054,12.023 15.094,12.077 Z"/>
</svg>

]]>
 <g id="Notes">
  <rect height="2200" id="artboard" style="fill:white;opacity:1" width="3300" x="0" y="0"/>
  <line id="" style="fill:none;stroke:black;opacity:1;stroke-width:0.5;" x1="263" x2="3036" y1="292" y2="292"/>
  <text id="reftext1" style="stroke:none;fill:black;font-family:-apple-system,&quot;SF Pro Display&quot;,&quot;SF Pro Text&quot;,Helvetica,sans-serif;font-weight:bold;" transform="matrix(1 0 0 1 263 322)">Weight/Scale Variations</text>
  <text id="reftext2" style="stroke:none;fill:black;font-family:-apple-system,&quot;SF Pro Display&quot;,&quot;SF Pro Text&quot;,Helvetica,sans-serif;text-anchor:middle;" transform="matrix(1 0 0 1 559.711 322)">Ultralight</text>
  <text style="stroke:none;fill:black;font-family:-apple-system,&quot;SF Pro Display&quot;,&quot;SF Pro Text&quot;,Helvetica,sans-serif;text-anchor:middle;" transform="matrix(1 0 0 1 856.422 322)">Thin</text>
  <text style="stroke:none;fill:black;font-family:-apple-system,&quot;SF Pro Display&quot;,&quot;SF Pro Text&quot;,Helvetica,sans-serif;text-anchor:middle;" transform="matrix(1 0 0 1 1153.13 322)">Light</text>
  <text style="stroke:none;fill:black;font-family:-apple-system,&quot;SF Pro Display&quot;,&quot;SF Pro Text&quot;,Helvetica,sans-serif;text-anchor:middle;" transform="matrix(1 0 0 1 1449.84 322)">Regular</text>
  <text style="stroke:none;fill:black;font-family:-apple-system,&quot;SF Pro Display&quot;,&quot;SF Pro Text&quot;,Helvetica,sans-serif;text-anchor:middle;" transform="matrix(1 0 0 1 1746.56 322)">Medium</text>
  <text style="stroke:none;fill:black;font-family:-apple-system,&quot;SF Pro Display&quot;,&quot;SF Pro Text&quot;,Helvetica,sans-serif;text-anchor:middle;" transform="matrix(1 0 0 1 2043.27 322)">Semibold</text>
  <text style="stroke:none;fill:black;font-family:-apple-system,&quot;SF Pro Display&quot;,&quot;SF Pro Text&quot;,Helvetica,sans-serif;text-anchor:middle;" transform="matrix(1 0 0 1 2339.98 322)">Bold</text>
  <text style="stroke:none;fill:black;font-family:-apple-system,&quot;SF Pro Display&quot;,&quot;SF Pro Text&quot;,Helvetica,sans-serif;text-anchor:middle;" transform="matrix(1 0 0 1 2636.69 322)">Heavy</text>
  <text style="stroke:none;fill:black;font-family:-apple-system,&quot;SF Pro Display&quot;,&quot;SF Pro Text&quot;,Helvetica,sans-serif;text-anchor:middle;" transform="matrix(1 0 0 1 2933.4 322)">Black</text>
  <line id="" style="fill:none;stroke:black;opacity:1;stroke-width:0.5;" x1="263" x2="3036" y1="1903" y2="1903"/>
  <g id="" transform="matrix(1 0 0 1 263 1933)">
   <path d="M9.24805 0.830078C13.5547 0.830078 17.1387-2.74414 17.1387-7.05078C17.1387-11.3574 13.5449-14.9316 9.23828-14.9316C4.94141-14.9316 1.36719-11.3574 1.36719-7.05078C1.36719-2.74414 4.95117 0.830078 9.24805 0.830078ZM9.24805-0.654297C5.70312-0.654297 2.87109-3.49609 2.87109-7.05078C2.87109-10.6055 5.69336-13.4473 9.23828-13.4473C12.793-13.4473 15.6348-10.6055 15.6445-7.05078C15.6543-3.49609 12.8027-0.654297 9.24805-0.654297ZM6.39648-6.31836L8.50586-6.31836L8.50586-4.19922C8.50586-3.75977 8.79883-3.45703 9.22852-3.45703C9.67773-3.45703 9.9707-3.75977 9.9707-4.19922L9.9707-6.31836L12.0996-6.31836C12.5391-6.31836 12.8418-6.61133 12.8418-7.04102C12.8418-7.48047 12.5391-7.7832 12.0996-7.7832L9.9707-7.7832L9.9707-9.89258C9.9707-10.3418 9.67773-10.6445 9.22852-10.6445C8.79883-10.6445 8.50586-10.3418 8.50586-9.89258L8.50586-7.7832L6.39648-7.7832C5.94727-7.7832 5.64453-7.48047 5.64453-7.04102C5.64453-6.61133 5.94727-6.31836 6.39648-6.31836Z"/>
  </g>
  <g id="" transform="matrix(1 0 0 1 281.506 1933)">
   <path d="M11.709 2.91016C17.1582 2.91016 21.6699-1.61133 21.6699-7.05078C21.6699-12.5 17.1484-17.0117 11.6992-17.0117C6.25977-17.0117 1.74805-12.5 1.74805-7.05078C1.74805-1.61133 6.26953 2.91016 11.709 2.91016ZM11.709 1.25C7.09961 1.25 3.41797-2.44141 3.41797-7.05078C3.41797-11.6602 7.08984-15.3516 11.6992-15.3516C16.3086-15.3516 20-11.6602 20.0098-7.05078C20.0195-2.44141 16.3184 1.25 11.709 1.25ZM7.98828-6.23047L10.8789-6.23047L10.8789-3.32031C10.8789-2.83203 11.2109-2.5 11.6895-2.5C12.1777-2.5 12.5195-2.83203 12.5195-3.32031L12.5195-6.23047L15.4297-6.23047C15.918-6.23047 16.25-6.5625 16.25-7.04102C16.25-7.5293 15.918-7.87109 15.4297-7.87109L12.5195-7.87109L12.5195-10.7617C12.5195-11.2695 12.1777-11.6016 11.6895-11.6016C11.2109-11.6016 10.8789-11.2598 10.8789-10.7617L10.8789-7.87109L7.98828-7.87109C7.48047-7.87109 7.14844-7.5293 7.14844-7.04102C7.14844-6.5625 7.49023-6.23047 7.98828-6.23047Z"/>
  </g>
  <g id="" transform="matrix(1 0 0 1 304.924 1933)">
   <path d="M14.9707 5.66406C21.9336 5.66406 27.6953-0.0976562 27.6953-7.05078C27.6953-14.0137 21.9238-19.7754 14.9609-19.7754C8.00781-19.7754 2.25586-14.0137 2.25586-7.05078C2.25586-0.0976562 8.01758 5.66406 14.9707 5.66406ZM14.9707 3.84766C8.93555 3.84766 4.08203-1.01562 4.08203-7.05078C4.08203-13.0957 8.92578-17.9492 14.9609-17.9492C21.0059-17.9492 25.8594-13.0957 25.8691-7.05078C25.8789-1.01562 21.0156 3.84766 14.9707 3.84766ZM10.0586-6.14258L14.0625-6.14258L14.0625-2.12891C14.0625-1.5918 14.4336-1.2207 14.9512-1.2207C15.4883-1.2207 15.8594-1.5918 15.8594-2.12891L15.8594-6.14258L19.8828-6.14258C20.4102-6.14258 20.791-6.51367 20.791-7.03125C20.791-7.56836 20.4199-7.94922 19.8828-7.94922L15.8594-7.94922L15.8594-11.9531C15.8594-12.5098 15.4883-12.8809 14.9512-12.8809C14.4336-12.8809 14.0625-12.5 14.0625-11.9531L14.0625-7.94922L10.0586-7.94922C9.50195-7.94922 9.13086-7.56836 9.13086-7.03125C9.13086-6.51367 9.51172-6.14258 10.0586-6.14258Z"/>
  </g>
  <text style="stroke:none;fill:black;font-family:-apple-system,&quot;SF Pro Display&quot;,&quot;SF Pro Text&quot;,Helvetica,sans-serif;font-weight:bold;" transform="matrix(1 0 0 1 263 1953)">Design Variations</text>
  <text style="stroke:none;fill:black;font-family:-apple-system,&quot;SF Pro Display&quot;,&quot;SF Pro Text&quot;,Helvetica,sans-serif;" transform="matrix(1 0 0 1 263 1971)">Symbols are supported in up to nine weights and three scales.</text>
  <text style="stroke:none;fill:black;font-family:-apple-system,&quot;SF Pro Display&quot;,&quot;SF Pro Text&quot;,Helvetica,sans-serif;" transform="matrix(1 0 0 1 263 1989)">For optimal layout with text and other symbols, vertically align</text>
  <text style="stroke:none;fill:black;font-family:-apple-system,&quot;SF Pro Display&quot;,&quot;SF Pro Text&quot;,Helvetica,sans-serif;" transform="matrix(1 0 0 1 263 2007)">symbols with the adjacent text.</text>
  <line id="" style="fill:none;stroke:#00AEEF;stroke-width:0.5;opacity:1.0;" x1="776" x2="776" y1="1919" y2="1933"/>
  <g id="" transform="matrix(1 0 0 1 776 1933)">
   <path d="M3.31055 0.126953C3.82812 0.126953 4.08203-0.0683594 4.26758-0.605469L5.52734-4.0625L11.2891-4.0625L12.5488-0.605469C12.7344-0.0683594 12.9883 0.126953 13.4961 0.126953C14.0137 0.126953 14.3457-0.185547 14.3457-0.673828C14.3457-0.839844 14.3164-0.986328 14.2383-1.20117L9.6582-13.3887C9.43359-13.9941 9.0332-14.2871 8.4082-14.2871C7.80273-14.2871 7.39258-13.9941 7.17773-13.3984L2.59766-1.19141C2.51953-0.976562 2.49023-0.830078 2.49023-0.664062C2.49023-0.175781 2.80273 0.126953 3.31055 0.126953ZM6.00586-5.53711L8.37891-12.1094L8.42773-12.1094L10.8008-5.53711Z"/>
  </g>
  <line id="" style="fill:none;stroke:#00AEEF;stroke-width:0.5;opacity:1.0;" x1="792.836" x2="792.836" y1="1919" y2="1933"/>
  <text style="stroke:none;fill:black;font-family:-apple-system,&quot;SF Pro Display&quot;,&quot;SF Pro Text&quot;,Helvetica,sans-serif;font-weight:bold;" transform="matrix(1 0 0 1 776 1953)">Margins</text>
  <text style="stroke:none;fill:black;font-family:-apple-system,&quot;SF Pro Display&quot;,&quot;SF Pro Text&quot;,Helvetica,sans-serif;" transform="matrix(1 0 0 1 776 1971)">Leading and trailing margins on the left and right side of each symbol</text>
  <text style="stroke:none;fill:black;font-family:-apple-system,&quot;SF Pro Display&quot;,&quot;SF Pro Text&quot;,Helvetica,sans-serif;" transform="matrix(1 0 0 1 776 1989)">can be adjusted by modifying the x-location of the margin guidelines.</text>
  <text style="stroke:none;fill:black;font-family:-apple-system,&quot;SF Pro Display&quot;,&quot;SF Pro Text&quot;,Helvetica,sans-serif;" transform="matrix(1 0 0 1 776 2007)">Modifications are automatically applied proportionally to all</text>
  <text style="stroke:none;fill:black;font-family:-apple-system,&quot;SF Pro Display&quot;,&quot;SF Pro Text&quot;,Helvetica,sans-serif;" transform="matrix(1 0 0 1 776 2025)">scales and weights.</text>
  <g id="" transform="matrix(1 0 0 1 1289 1933)">
   <path d="M2.8418 1.86523L4.54102 3.57422C5.40039 4.44336 6.38672 4.38477 7.31445 3.35938L17.4902-7.85156C17.7539-7.76367 18.0273-7.7832 18.3398-7.8418L19.4043-8.03711L20.0684-7.36328L20.0293-6.80664C19.9902-6.30859 20.1172-5.92773 20.6055-5.44922L21.3672-4.70703C21.8457-4.22852 22.4609-4.19922 22.9297-4.66797L25.8398-7.58789C26.3086-8.05664 26.2891-8.65234 25.8105-9.13086L25.0391-9.89258C24.5605-10.3711 24.1895-10.5273 23.7109-10.4883L23.1348-10.4395L22.4902-11.0742L22.7344-12.1973C22.8613-12.7637 22.7051-13.2031 22.1191-13.7891L19.9219-15.9766C16.582-19.2969 12.1484-19.2188 9.25781-16.3281C8.83789-15.918 8.80859-15.3418 9.04297-14.9512C9.27734-14.5898 9.73633-14.3555 10.3809-14.5215C11.8457-14.8633 13.3691-14.9219 14.7949-13.9844L14.209-12.5293C14.0137-12.0508 13.9844-11.6504 14.1113-11.2891L3.04688-0.898438C2.06055 0.0195312 1.98242 0.996094 2.8418 1.86523ZM10.752-15.957C13.1836-17.7344 16.4746-17.4316 18.7012-15.2051L21.1328-12.793C21.3672-12.5586 21.4062-12.373 21.3379-12.0312L21.0156-10.5469L22.5195-9.0625L23.5059-9.12109C23.7598-9.13086 23.8379-9.11133 24.0332-8.91602L24.6094-8.33984L22.168-5.89844L21.5918-6.47461C21.3965-6.66992 21.3672-6.74805 21.377-7.01172L21.4453-7.98828L19.9512-9.47266L18.4277-9.21875C18.1055-9.15039 17.959-9.17969 17.7148-9.41406L15.7129-11.416C15.459-11.6504 15.4297-11.8164 15.5859-12.1875L16.4648-14.2773C14.9023-15.7324 12.8711-16.3574 10.8398-15.7617C10.6836-15.7227 10.625-15.8496 10.752-15.957ZM5.27344 2.30469L4.10156 1.14258C3.63281 0.683594 3.74023 0.341797 4.14062-0.0195312L14.9512-10.1953L16.416-8.71094L6.42578 2.27539C6.07422 2.67578 5.74219 2.77344 5.27344 2.30469Z"/>
  </g>
  <text style="stroke:none;fill:black;font-family:-apple-system,&quot;SF Pro Display&quot;,&quot;SF Pro Text&quot;,Helvetica,sans-serif;font-weight:bold;" transform="matrix(1 0 0 1 1289 1953)">Exporting</text>
  <text style="stroke:none;fill:black;font-family:-apple-system,&quot;SF Pro Display&quot;,&quot;SF Pro Text&quot;,Helvetica,sans-serif;" transform="matrix(1 0 0 1 1289 1971)">Symbols should be outlined when exporting to ensure the</text>
  <text style="stroke:none;fill:black;font-family:-apple-system,&quot;SF Pro Display&quot;,&quot;SF Pro Text&quot;,Helvetica,sans-serif;" transform="matrix(1 0 0 1 1289 1989)">design is preserved when submitting to Xcode.</text>
  <text id="template-version" style="stroke:none;fill:black;font-family:-apple-system,&quot;SF Pro Display&quot;,&quot;SF Pro Text&quot;,Helvetica,sans-serif;text-anchor:end;" transform="matrix(1 0 0 1 3036 1933)">Template v.2.0</text>
  <text style="stroke:none;fill:black;font-family:-apple-system,&quot;SF Pro Display&quot;,&quot;SF Pro Text&quot;,Helvetica,sans-serif;text-anchor:end;" transform="matrix(1 0 0 1 3036 1951)">Requires Xcode 12 or greater</text>
  <text style="stroke:none;fill:black;font-family:-apple-system,&quot;SF Pro Display&quot;,&quot;SF Pro Text&quot;,Helvetica,sans-serif;" transform="matrix(1 0 0 1 263 726)">Small</text>
  <text style="stroke:none;fill:black;font-family:-apple-system,&quot;SF Pro Display&quot;,&quot;SF Pro Text&quot;,Helvetica,sans-serif;" transform="matrix(1 0 0 1 263 1156)">Medium</text>
  <text style="stroke:none;fill:black;font-family:-apple-system,&quot;SF Pro Display&quot;,&quot;SF Pro Text&quot;,Helvetica,sans-serif;" transform="matrix(1 0 0 1 263 1586)">Large</text>
 </g>
 <g id="Guides">
  <g id="H-reference" style="fill:#27AAE1;stroke:none;" transform="matrix(1 0 0 1 339 696)">
   <path d="M0.976562 0L3.66211 0L12.9883-24.4629L45.752-24.4629L55.127 0L57.7637 0L30.6152-70.459L28.125-70.459ZM29.3457-67.1387L29.4434-67.1387L44.873-26.709L13.8672-26.709Z"/>
  </g>
  <line id="Baseline-S" style="fill:none;stroke:#27AAE1;opacity:1;stroke-width:0.5;" x1="263" x2="3036" y1="696" y2="696"/>
  <line id="Capline-S" style="fill:none;stroke:#27AAE1;opacity:1;stroke-width:0.5;" x1="263" x2="3036" y1="625.541" y2="625.541"/>
  <g id="H-reference" style="fill:#27AAE1;stroke:none;" transform="matrix(1 0 0 1 339 1126)">
   <path d="M0.976562 0L3.66211 0L12.9883-24.4629L45.752-24.4629L55.127 0L57.7637 0L30.6152-70.459L28.125-70.459ZM29.3457-67.1387L29.4434-67.1387L44.873-26.709L13.8672-26.709Z"/>
  </g>
  <line id="Baseline-M" style="fill:none;stroke:#27AAE1;opacity:1;stroke-width:0.5;" x1="263" x2="3036" y1="1126" y2="1126"/>
  <line id="Capline-M" style="fill:none;stroke:#27AAE1;opacity:1;stroke-width:0.5;" x1="263" x2="3036" y1="1055.54" y2="1055.54"/>
  <g id="H-reference" style="fill:#27AAE1;stroke:none;" transform="matrix(1 0 0 1 339 1556)">
   <path d="M0.976562 0L3.66211 0L12.9883-24.4629L45.752-24.4629L55.127 0L57.7637 0L30.6152-70.459L28.125-70.459ZM29.3457-67.1387L29.4434-67.1387L44.873-26.709L13.8672-26.709Z"/>
  </g>
  <line id="Baseline-L" style="fill:none;stroke:#27AAE1;opacity:1;stroke-width:0.5;" x1="263" x2="3036" y1="1556" y2="1556"/>
  <line id="Capline-L" style="fill:none;stroke:#27AAE1;opacity:1;stroke-width:0.5;" x1="263" x2="3036" y1="1485.54" y2="1485.54"/>
  <line id="left-margin" x1="1405.8500877987851" x2="1405.8500877987851" y1="1030.79" y2="1150.12" style="fill:none;stroke:#00AEEF;stroke-width:0.5;opacity:1.0;"/>
  <line id="right-margin" x1="1496.8516674422021" x2="1496.8516674422021" y1="1030.79" y2="1150.12" style="fill:none;stroke:#00AEEF;stroke-width:0.5;opacity:1.0;"/>
 </g>
 <g id="Symbols">
  <g id="Black-L" transform="matrix(1.0,0.0,0.0,1.0,2863.446967390772,1449.6794529872404)">  <path stroke-dasharray="none" stroke-linejoin="miter" fill-opacity="1" stroke-linecap="butt" stroke-miterlimit="4" fill="#000000" fill-rule="nonzero" stroke-width="1px" stroke="none" stroke-opacity="1" d="M70.723,11.878C70.889,11.878,71.061,11.878,71.233,11.878C104,11.878,130.594,38.472,130.594,71.233C130.594,104,104,130.594,71.233,130.594C38.466,130.594,11.872,104,11.872,71.233C11.872,38.982,37.67,12.691,69.725,11.878C70.064,11.866,70.39,11.872,70.717,11.878ZM112.91,94.004L91.784,84.482C91.089,87.712,89.486,90.484,86.97,92.805C83.865,95.696,80.119,97.999,74.943,98.426L74.943,106.482L67.523,106.482L67.523,98.064C60.958,97.102,54.226,94.55,51.994,90.602L59.444,83.74C63.267,89.089,74.937,89.475,78.944,87.213C80.416,86.382,80.778,83.966,80.778,82.339C80.778,81.212,80.487,80.339,79.894,79.692L79.882,79.686C79.639,79.431,79.253,79.033,78.76,78.618L73.91,76.433C65.647,74.124,59.925,71.393,57.574,69.375C57.337,69.167,57.111,68.965,56.897,68.764L26.564,55.099C24.742,60.138,23.744,65.57,23.744,71.239C23.744,97.453,45.019,118.722,71.233,118.722C89.202,118.722,104.843,108.731,112.91,94.004ZM116.977,84.025C118.116,79.959,118.722,75.667,118.722,71.239C118.722,45.025,97.447,23.75,71.233,23.75C71.061,23.75,70.895,23.75,70.723,23.75L70.723,23.75C70.39,23.744,70.058,23.738,69.719,23.75C53.644,24.261,39.57,32.785,31.354,45.447L54.357,55.811C54.974,52.956,56.274,50.51,58.364,48.581C60.649,46.468,63.706,45.132,67.523,44.586L67.523,35.99L74.943,35.99L74.943,44.449C80.054,44.924,85.949,46.592,89.113,50.344L82.702,57.307C79.086,54.28,76.409,54.007,71.981,54.007C69.197,54.007,67.749,54.404,66.567,55.206C65.386,55.977,64.798,56.986,64.798,58.227C64.798,59.355,65.333,60.281,66.419,61.011C67.499,61.789,70.325,62.94,75.964,64.478C82.286,66.199,86.578,68.301,88.839,70.764C89.107,71.061,89.362,71.37,89.599,71.69ZM116.977,84.025"/>
</g>
  <g id="Heavy-L" transform="matrix(1.0,0.0,0.0,1.0,2566.736967390772,1449.6794529872404)">  <path stroke="none" stroke-opacity="1" fill-opacity="1" stroke-dasharray="none" stroke-miterlimit="4" stroke-linejoin="miter" stroke-linecap="butt" fill-rule="nonzero" stroke-width="1px" fill="#000000" d="M70.723,11.878C70.889,11.878,71.061,11.878,71.233,11.878C104,11.878,130.594,38.472,130.594,71.233C130.594,104,104,130.594,71.233,130.594C38.466,130.594,11.872,104,11.872,71.233C11.872,38.982,37.67,12.691,69.725,11.878C70.064,11.866,70.39,11.872,70.717,11.878ZM112.91,94.004L91.784,84.482C91.089,87.712,89.486,90.484,86.97,92.805C83.865,95.696,80.119,97.999,74.943,98.426L74.943,106.482L67.523,106.482L67.523,98.064C60.958,97.102,54.226,94.55,51.994,90.602L59.444,83.74C63.267,89.089,74.937,89.475,78.944,87.213C80.416,86.382,80.778,83.966,80.778,82.339C80.778,81.212,80.487,80.339,79.894,79.692L79.882,79.686C79.639,79.431,79.253,79.033,78.76,78.618L73.91,76.433C65.647,74.124,59.925,71.393,57.574,69.375C57.337,69.167,57.111,68.965,56.897,68.764L26.564,55.099C24.742,60.138,23.744,65.57,23.744,71.239C23.744,97.453,45.019,118.722,71.233,118.722C89.202,118.722,104.843,108.731,112.91,94.004ZM116.977,84.025C118.116,79.959,118.722,75.667,118.722,71.239C118.722,45.025,97.447,23.75,71.233,23.75C71.061,23.75,70.895,23.75,70.723,23.75L70.723,23.75C70.39,23.744,70.058,23.738,69.719,23.75C53.644,24.261,39.57,32.785,31.354,45.447L54.357,55.811C54.974,52.956,56.274,50.51,58.364,48.581C60.649,46.468,63.706,45.132,67.523,44.586L67.523,35.99L74.943,35.99L74.943,44.449C80.054,44.924,85.949,46.592,89.113,50.344L82.702,57.307C79.086,54.28,76.409,54.007,71.981,54.007C69.197,54.007,67.749,54.404,66.567,55.206C65.386,55.977,64.798,56.986,64.798,58.227C64.798,59.355,65.333,60.281,66.419,61.011C67.499,61.789,70.325,62.94,75.964,64.478C82.286,66.199,86.578,68.301,88.839,70.764C89.107,71.061,89.362,71.37,89.599,71.69ZM116.977,84.025"/>
</g>
  <g id="Bold-L" transform="matrix(1.0,0.0,0.0,1.0,2270.026967390772,1449.6794529872404)">  <path stroke-width="1px" stroke-dasharray="none" fill-rule="nonzero" stroke-miterlimit="4" stroke-linecap="butt" stroke="none" stroke-linejoin="miter" fill="#000000" stroke-opacity="1" fill-opacity="1" d="M70.723,11.878C70.889,11.878,71.061,11.878,71.233,11.878C104,11.878,130.594,38.472,130.594,71.233C130.594,104,104,130.594,71.233,130.594C38.466,130.594,11.872,104,11.872,71.233C11.872,38.982,37.67,12.691,69.725,11.878C70.064,11.866,70.39,11.872,70.717,11.878ZM112.91,94.004L91.784,84.482C91.089,87.712,89.486,90.484,86.97,92.805C83.865,95.696,80.119,97.999,74.943,98.426L74.943,106.482L67.523,106.482L67.523,98.064C60.958,97.102,54.226,94.55,51.994,90.602L59.444,83.74C63.267,89.089,74.937,89.475,78.944,87.213C80.416,86.382,80.778,83.966,80.778,82.339C80.778,81.212,80.487,80.339,79.894,79.692L79.882,79.686C79.639,79.431,79.253,79.033,78.76,78.618L73.91,76.433C65.647,74.124,59.925,71.393,57.574,69.375C57.337,69.167,57.111,68.965,56.897,68.764L26.564,55.099C24.742,60.138,23.744,65.57,23.744,71.239C23.744,97.453,45.019,118.722,71.233,118.722C89.202,118.722,104.843,108.731,112.91,94.004ZM116.977,84.025C118.116,79.959,118.722,75.667,118.722,71.239C118.722,45.025,97.447,23.75,71.233,23.75C71.061,23.75,70.895,23.75,70.723,23.75L70.723,23.75C70.39,23.744,70.058,23.738,69.719,23.75C53.644,24.261,39.57,32.785,31.354,45.447L54.357,55.811C54.974,52.956,56.274,50.51,58.364,48.581C60.649,46.468,63.706,45.132,67.523,44.586L67.523,35.99L74.943,35.99L74.943,44.449C80.054,44.924,85.949,46.592,89.113,50.344L82.702,57.307C79.086,54.28,76.409,54.007,71.981,54.007C69.197,54.007,67.749,54.404,66.567,55.206C65.386,55.977,64.798,56.986,64.798,58.227C64.798,59.355,65.333,60.281,66.419,61.011C67.499,61.789,70.325,62.94,75.964,64.478C82.286,66.199,86.578,68.301,88.839,70.764C89.107,71.061,89.362,71.37,89.599,71.69ZM116.977,84.025"/>
</g>
  <g id="Semibold-L" transform="matrix(1.0,0.0,0.0,1.0,1973.3169673907719,1449.6794529872404)">  <path stroke-linejoin="miter" fill-rule="nonzero" stroke-linecap="butt" fill-opacity="1" stroke="none" stroke-opacity="1" fill="#000000" stroke-dasharray="none" stroke-miterlimit="4" stroke-width="1px" d="M70.723,11.878C70.889,11.878,71.061,11.878,71.233,11.878C104,11.878,130.594,38.472,130.594,71.233C130.594,104,104,130.594,71.233,130.594C38.466,130.594,11.872,104,11.872,71.233C11.872,38.982,37.67,12.691,69.725,11.878C70.064,11.866,70.39,11.872,70.717,11.878ZM112.91,94.004L91.784,84.482C91.089,87.712,89.486,90.484,86.97,92.805C83.865,95.696,80.119,97.999,74.943,98.426L74.943,106.482L67.523,106.482L67.523,98.064C60.958,97.102,54.226,94.55,51.994,90.602L59.444,83.74C63.267,89.089,74.937,89.475,78.944,87.213C80.416,86.382,80.778,83.966,80.778,82.339C80.778,81.212,80.487,80.339,79.894,79.692L79.882,79.686C79.639,79.431,79.253,79.033,78.76,78.618L73.91,76.433C65.647,74.124,59.925,71.393,57.574,69.375C57.337,69.167,57.111,68.965,56.897,68.764L26.564,55.099C24.742,60.138,23.744,65.57,23.744,71.239C23.744,97.453,45.019,118.722,71.233,118.722C89.202,118.722,104.843,108.731,112.91,94.004ZM116.977,84.025C118.116,79.959,118.722,75.667,118.722,71.239C118.722,45.025,97.447,23.75,71.233,23.75C71.061,23.75,70.895,23.75,70.723,23.75L70.723,23.75C70.39,23.744,70.058,23.738,69.719,23.75C53.644,24.261,39.57,32.785,31.354,45.447L54.357,55.811C54.974,52.956,56.274,50.51,58.364,48.581C60.649,46.468,63.706,45.132,67.523,44.586L67.523,35.99L74.943,35.99L74.943,44.449C80.054,44.924,85.949,46.592,89.113,50.344L82.702,57.307C79.086,54.28,76.409,54.007,71.981,54.007C69.197,54.007,67.749,54.404,66.567,55.206C65.386,55.977,64.798,56.986,64.798,58.227C64.798,59.355,65.333,60.281,66.419,61.011C67.499,61.789,70.325,62.94,75.964,64.478C82.286,66.199,86.578,68.301,88.839,70.764C89.107,71.061,89.362,71.37,89.599,71.69ZM116.977,84.025"/>
</g>
  <g id="Medium-L" transform="matrix(1.0,0.0,0.0,1.0,1676.6069673907718,1449.6794529872404)">  <path stroke-linejoin="miter" stroke-opacity="1" stroke-dasharray="none" fill="#000000" stroke-width="1px" stroke-miterlimit="4" stroke="none" fill-opacity="1" fill-rule="nonzero" stroke-linecap="butt" d="M70.723,11.878C70.889,11.878,71.061,11.878,71.233,11.878C104,11.878,130.594,38.472,130.594,71.233C130.594,104,104,130.594,71.233,130.594C38.466,130.594,11.872,104,11.872,71.233C11.872,38.982,37.67,12.691,69.725,11.878C70.064,11.866,70.39,11.872,70.717,11.878ZM112.91,94.004L91.784,84.482C91.089,87.712,89.486,90.484,86.97,92.805C83.865,95.696,80.119,97.999,74.943,98.426L74.943,106.482L67.523,106.482L67.523,98.064C60.958,97.102,54.226,94.55,51.994,90.602L59.444,83.74C63.267,89.089,74.937,89.475,78.944,87.213C80.416,86.382,80.778,83.966,80.778,82.339C80.778,81.212,80.487,80.339,79.894,79.692L79.882,79.686C79.639,79.431,79.253,79.033,78.76,78.618L73.91,76.433C65.647,74.124,59.925,71.393,57.574,69.375C57.337,69.167,57.111,68.965,56.897,68.764L26.564,55.099C24.742,60.138,23.744,65.57,23.744,71.239C23.744,97.453,45.019,118.722,71.233,118.722C89.202,118.722,104.843,108.731,112.91,94.004ZM116.977,84.025C118.116,79.959,118.722,75.667,118.722,71.239C118.722,45.025,97.447,23.75,71.233,23.75C71.061,23.75,70.895,23.75,70.723,23.75L70.723,23.75C70.39,23.744,70.058,23.738,69.719,23.75C53.644,24.261,39.57,32.785,31.354,45.447L54.357,55.811C54.974,52.956,56.274,50.51,58.364,48.581C60.649,46.468,63.706,45.132,67.523,44.586L67.523,35.99L74.943,35.99L74.943,44.449C80.054,44.924,85.949,46.592,89.113,50.344L82.702,57.307C79.086,54.28,76.409,54.007,71.981,54.007C69.197,54.007,67.749,54.404,66.567,55.206C65.386,55.977,64.798,56.986,64.798,58.227C64.798,59.355,65.333,60.281,66.419,61.011C67.499,61.789,70.325,62.94,75.964,64.478C82.286,66.199,86.578,68.301,88.839,70.764C89.107,71.061,89.362,71.37,89.599,71.69ZM116.977,84.025"/>
</g>
  <g id="Regular-L" transform="matrix(1.0,0.0,0.0,1.0,1379.8969673907718,1449.6794529872404)">  <path fill-rule="nonzero" stroke-linejoin="miter" stroke-linecap="butt" stroke="none" stroke-opacity="1" stroke-miterlimit="4" fill-opacity="1" stroke-dasharray="none" stroke-width="1px" fill="#000000" d="M70.723,11.878C70.889,11.878,71.061,11.878,71.233,11.878C104,11.878,130.594,38.472,130.594,71.233C130.594,104,104,130.594,71.233,130.594C38.466,130.594,11.872,104,11.872,71.233C11.872,38.982,37.67,12.691,69.725,11.878C70.064,11.866,70.39,11.872,70.717,11.878ZM112.91,94.004L91.784,84.482C91.089,87.712,89.486,90.484,86.97,92.805C83.865,95.696,80.119,97.999,74.943,98.426L74.943,106.482L67.523,106.482L67.523,98.064C60.958,97.102,54.226,94.55,51.994,90.602L59.444,83.74C63.267,89.089,74.937,89.475,78.944,87.213C80.416,86.382,80.778,83.966,80.778,82.339C80.778,81.212,80.487,80.339,79.894,79.692L79.882,79.686C79.639,79.431,79.253,79.033,78.76,78.618L73.91,76.433C65.647,74.124,59.925,71.393,57.574,69.375C57.337,69.167,57.111,68.965,56.897,68.764L26.564,55.099C24.742,60.138,23.744,65.57,23.744,71.239C23.744,97.453,45.019,118.722,71.233,118.722C89.202,118.722,104.843,108.731,112.91,94.004ZM116.977,84.025C118.116,79.959,118.722,75.667,118.722,71.239C118.722,45.025,97.447,23.75,71.233,23.75C71.061,23.75,70.895,23.75,70.723,23.75L70.723,23.75C70.39,23.744,70.058,23.738,69.719,23.75C53.644,24.261,39.57,32.785,31.354,45.447L54.357,55.811C54.974,52.956,56.274,50.51,58.364,48.581C60.649,46.468,63.706,45.132,67.523,44.586L67.523,35.99L74.943,35.99L74.943,44.449C80.054,44.924,85.949,46.592,89.113,50.344L82.702,57.307C79.086,54.28,76.409,54.007,71.981,54.007C69.197,54.007,67.749,54.404,66.567,55.206C65.386,55.977,64.798,56.986,64.798,58.227C64.798,59.355,65.333,60.281,66.419,61.011C67.499,61.789,70.325,62.94,75.964,64.478C82.286,66.199,86.578,68.301,88.839,70.764C89.107,71.061,89.362,71.37,89.599,71.69ZM116.977,84.025"/>
</g>
  <g id="Light-L" transform="matrix(1.0,0.0,0.0,1.0,1083.186967390772,1449.6794529872404)">  <path stroke-dasharray="none" stroke-linejoin="miter" fill-rule="nonzero" stroke-linecap="butt" stroke="none" stroke-opacity="1" fill-opacity="1" stroke-miterlimit="4" stroke-width="1px" fill="#000000" d="M70.723,11.878C70.889,11.878,71.061,11.878,71.233,11.878C104,11.878,130.594,38.472,130.594,71.233C130.594,104,104,130.594,71.233,130.594C38.466,130.594,11.872,104,11.872,71.233C11.872,38.982,37.67,12.691,69.725,11.878C70.064,11.866,70.39,11.872,70.717,11.878ZM112.91,94.004L91.784,84.482C91.089,87.712,89.486,90.484,86.97,92.805C83.865,95.696,80.119,97.999,74.943,98.426L74.943,106.482L67.523,106.482L67.523,98.064C60.958,97.102,54.226,94.55,51.994,90.602L59.444,83.74C63.267,89.089,74.937,89.475,78.944,87.213C80.416,86.382,80.778,83.966,80.778,82.339C80.778,81.212,80.487,80.339,79.894,79.692L79.882,79.686C79.639,79.431,79.253,79.033,78.76,78.618L73.91,76.433C65.647,74.124,59.925,71.393,57.574,69.375C57.337,69.167,57.111,68.965,56.897,68.764L26.564,55.099C24.742,60.138,23.744,65.57,23.744,71.239C23.744,97.453,45.019,118.722,71.233,118.722C89.202,118.722,104.843,108.731,112.91,94.004ZM116.977,84.025C118.116,79.959,118.722,75.667,118.722,71.239C118.722,45.025,97.447,23.75,71.233,23.75C71.061,23.75,70.895,23.75,70.723,23.75L70.723,23.75C70.39,23.744,70.058,23.738,69.719,23.75C53.644,24.261,39.57,32.785,31.354,45.447L54.357,55.811C54.974,52.956,56.274,50.51,58.364,48.581C60.649,46.468,63.706,45.132,67.523,44.586L67.523,35.99L74.943,35.99L74.943,44.449C80.054,44.924,85.949,46.592,89.113,50.344L82.702,57.307C79.086,54.28,76.409,54.007,71.981,54.007C69.197,54.007,67.749,54.404,66.567,55.206C65.386,55.977,64.798,56.986,64.798,58.227C64.798,59.355,65.333,60.281,66.419,61.011C67.499,61.789,70.325,62.94,75.964,64.478C82.286,66.199,86.578,68.301,88.839,70.764C89.107,71.061,89.362,71.37,89.599,71.69ZM116.977,84.025"/>
</g>
  <g id="Thin-L" transform="matrix(1.0,0.0,0.0,1.0,786.476967390772,1449.6794529872404)">  <path stroke-dasharray="none" stroke-opacity="1" stroke-linecap="butt" stroke-width="1px" fill-opacity="1" stroke="none" stroke-linejoin="miter" fill="#000000" stroke-miterlimit="4" fill-rule="nonzero" d="M70.723,11.878C70.889,11.878,71.061,11.878,71.233,11.878C104,11.878,130.594,38.472,130.594,71.233C130.594,104,104,130.594,71.233,130.594C38.466,130.594,11.872,104,11.872,71.233C11.872,38.982,37.67,12.691,69.725,11.878C70.064,11.866,70.39,11.872,70.717,11.878ZM112.91,94.004L91.784,84.482C91.089,87.712,89.486,90.484,86.97,92.805C83.865,95.696,80.119,97.999,74.943,98.426L74.943,106.482L67.523,106.482L67.523,98.064C60.958,97.102,54.226,94.55,51.994,90.602L59.444,83.74C63.267,89.089,74.937,89.475,78.944,87.213C80.416,86.382,80.778,83.966,80.778,82.339C80.778,81.212,80.487,80.339,79.894,79.692L79.882,79.686C79.639,79.431,79.253,79.033,78.76,78.618L73.91,76.433C65.647,74.124,59.925,71.393,57.574,69.375C57.337,69.167,57.111,68.965,56.897,68.764L26.564,55.099C24.742,60.138,23.744,65.57,23.744,71.239C23.744,97.453,45.019,118.722,71.233,118.722C89.202,118.722,104.843,108.731,112.91,94.004ZM116.977,84.025C118.116,79.959,118.722,75.667,118.722,71.239C118.722,45.025,97.447,23.75,71.233,23.75C71.061,23.75,70.895,23.75,70.723,23.75L70.723,23.75C70.39,23.744,70.058,23.738,69.719,23.75C53.644,24.261,39.57,32.785,31.354,45.447L54.357,55.811C54.974,52.956,56.274,50.51,58.364,48.581C60.649,46.468,63.706,45.132,67.523,44.586L67.523,35.99L74.943,35.99L74.943,44.449C80.054,44.924,85.949,46.592,89.113,50.344L82.702,57.307C79.086,54.28,76.409,54.007,71.981,54.007C69.197,54.007,67.749,54.404,66.567,55.206C65.386,55.977,64.798,56.986,64.798,58.227C64.798,59.355,65.333,60.281,66.419,61.011C67.499,61.789,70.325,62.94,75.964,64.478C82.286,66.199,86.578,68.301,88.839,70.764C89.107,71.061,89.362,71.37,89.599,71.69ZM116.977,84.025"/>
</g>
  <g id="Ultralight-L" transform="matrix(1.0,0.0,0.0,1.0,489.7669673907719,1449.6794529872404)">  <path fill="#000000" stroke-dasharray="none" fill-opacity="1" stroke-linejoin="miter" stroke="none" fill-rule="nonzero" stroke-width="1px" stroke-miterlimit="4" stroke-opacity="1" stroke-linecap="butt" d="M70.723,11.878C70.889,11.878,71.061,11.878,71.233,11.878C104,11.878,130.594,38.472,130.594,71.233C130.594,104,104,130.594,71.233,130.594C38.466,130.594,11.872,104,11.872,71.233C11.872,38.982,37.67,12.691,69.725,11.878C70.064,11.866,70.39,11.872,70.717,11.878ZM112.91,94.004L91.784,84.482C91.089,87.712,89.486,90.484,86.97,92.805C83.865,95.696,80.119,97.999,74.943,98.426L74.943,106.482L67.523,106.482L67.523,98.064C60.958,97.102,54.226,94.55,51.994,90.602L59.444,83.74C63.267,89.089,74.937,89.475,78.944,87.213C80.416,86.382,80.778,83.966,80.778,82.339C80.778,81.212,80.487,80.339,79.894,79.692L79.882,79.686C79.639,79.431,79.253,79.033,78.76,78.618L73.91,76.433C65.647,74.124,59.925,71.393,57.574,69.375C57.337,69.167,57.111,68.965,56.897,68.764L26.564,55.099C24.742,60.138,23.744,65.57,23.744,71.239C23.744,97.453,45.019,118.722,71.233,118.722C89.202,118.722,104.843,108.731,112.91,94.004ZM116.977,84.025C118.116,79.959,118.722,75.667,118.722,71.239C118.722,45.025,97.447,23.75,71.233,23.75C71.061,23.75,70.895,23.75,70.723,23.75L70.723,23.75C70.39,23.744,70.058,23.738,69.719,23.75C53.644,24.261,39.57,32.785,31.354,45.447L54.357,55.811C54.974,52.956,56.274,50.51,58.364,48.581C60.649,46.468,63.706,45.132,67.523,44.586L67.523,35.99L74.943,35.99L74.943,44.449C80.054,44.924,85.949,46.592,89.113,50.344L82.702,57.307C79.086,54.28,76.409,54.007,71.981,54.007C69.197,54.007,67.749,54.404,66.567,55.206C65.386,55.977,64.798,56.986,64.798,58.227C64.798,59.355,65.333,60.281,66.419,61.011C67.499,61.789,70.325,62.94,75.964,64.478C82.286,66.199,86.578,68.301,88.839,70.764C89.107,71.061,89.362,71.37,89.599,71.69ZM116.977,84.025"/>
</g>
  <g id="Black-M" transform="matrix(1.0,0.0,0.0,1.0,2879.460594876567,1035.6610532180644)">  <path stroke-dasharray="none" stroke-linejoin="miter" fill-opacity="1" stroke-linecap="butt" stroke-miterlimit="4" fill="#000000" fill-rule="nonzero" stroke-width="1px" stroke="none" stroke-opacity="1" d="M54.824,9.208C54.953,9.208,55.086,9.208,55.219,9.208C80.62,9.208,101.236,29.823,101.236,55.219C101.236,80.62,80.62,101.236,55.219,101.236C29.818,101.236,9.203,80.62,9.203,55.219C9.203,30.219,29.202,9.838,54.051,9.208C54.313,9.199,54.566,9.203,54.819,9.208ZM87.527,72.871L71.15,65.49C70.612,67.993,69.369,70.142,67.418,71.942C65.012,74.183,62.108,75.968,58.095,76.299L58.095,82.544L52.343,82.544L52.343,76.019C47.254,75.273,42.036,73.295,40.306,70.234L46.081,64.915C49.044,69.061,58.091,69.36,61.197,67.607C62.338,66.963,62.619,65.09,62.619,63.829C62.619,62.955,62.393,62.278,61.933,61.777L61.924,61.772C61.735,61.574,61.436,61.266,61.054,60.944L57.295,59.25C50.889,57.46,46.453,55.344,44.631,53.779C44.447,53.618,44.272,53.462,44.107,53.305L20.592,42.712C19.18,46.619,18.406,50.829,18.406,55.224C18.406,75.545,34.899,92.032,55.219,92.032C69.149,92.032,81.274,84.288,87.527,72.871ZM90.679,65.136C91.563,61.984,92.032,58.657,92.032,55.224C92.032,34.903,75.54,18.411,55.219,18.411C55.086,18.411,54.957,18.411,54.824,18.411L54.824,18.411C54.566,18.406,54.308,18.402,54.046,18.411C41.585,18.807,30.674,25.415,24.306,35.23L42.137,43.264C42.616,41.051,43.623,39.155,45.243,37.66C47.015,36.021,49.385,34.986,52.343,34.563L52.343,27.9L58.095,27.9L58.095,34.457C62.057,34.825,66.627,36.118,69.079,39.026L64.11,44.424C61.307,42.077,59.232,41.866,55.799,41.866C53.641,41.866,52.518,42.174,51.603,42.795C50.687,43.393,50.231,44.176,50.231,45.137C50.231,46.012,50.645,46.729,51.487,47.295C52.325,47.898,54.515,48.791,58.887,49.983C63.788,51.317,67.115,52.946,68.868,54.856C69.075,55.086,69.273,55.325,69.457,55.574ZM90.679,65.136"/>
</g>
  <g id="Heavy-M" transform="matrix(1.0,0.0,0.0,1.0,2582.750594876567,1035.6610532180644)">  <path stroke="none" stroke-opacity="1" fill-opacity="1" stroke-dasharray="none" stroke-miterlimit="4" stroke-linejoin="miter" stroke-linecap="butt" fill-rule="nonzero" stroke-width="1px" fill="#000000" d="M54.824,9.208C54.953,9.208,55.086,9.208,55.219,9.208C80.62,9.208,101.236,29.823,101.236,55.219C101.236,80.62,80.62,101.236,55.219,101.236C29.818,101.236,9.203,80.62,9.203,55.219C9.203,30.219,29.202,9.838,54.051,9.208C54.313,9.199,54.566,9.203,54.819,9.208ZM87.527,72.871L71.15,65.49C70.612,67.993,69.369,70.142,67.418,71.942C65.012,74.183,62.108,75.968,58.095,76.299L58.095,82.544L52.343,82.544L52.343,76.019C47.254,75.273,42.036,73.295,40.306,70.234L46.081,64.915C49.044,69.061,58.091,69.36,61.197,67.607C62.338,66.963,62.619,65.09,62.619,63.829C62.619,62.955,62.393,62.278,61.933,61.777L61.924,61.772C61.735,61.574,61.436,61.266,61.054,60.944L57.295,59.25C50.889,57.46,46.453,55.344,44.631,53.779C44.447,53.618,44.272,53.462,44.107,53.305L20.592,42.712C19.18,46.619,18.406,50.829,18.406,55.224C18.406,75.545,34.899,92.032,55.219,92.032C69.149,92.032,81.274,84.288,87.527,72.871ZM90.679,65.136C91.563,61.984,92.032,58.657,92.032,55.224C92.032,34.903,75.54,18.411,55.219,18.411C55.086,18.411,54.957,18.411,54.824,18.411L54.824,18.411C54.566,18.406,54.308,18.402,54.046,18.411C41.585,18.807,30.674,25.415,24.306,35.23L42.137,43.264C42.616,41.051,43.623,39.155,45.243,37.66C47.015,36.021,49.385,34.986,52.343,34.563L52.343,27.9L58.095,27.9L58.095,34.457C62.057,34.825,66.627,36.118,69.079,39.026L64.11,44.424C61.307,42.077,59.232,41.866,55.799,41.866C53.641,41.866,52.518,42.174,51.603,42.795C50.687,43.393,50.231,44.176,50.231,45.137C50.231,46.012,50.645,46.729,51.487,47.295C52.325,47.898,54.515,48.791,58.887,49.983C63.788,51.317,67.115,52.946,68.868,54.856C69.075,55.086,69.273,55.325,69.457,55.574ZM90.679,65.136"/>
</g>
  <g id="Bold-M" transform="matrix(1.0,0.0,0.0,1.0,2286.040594876567,1035.6610532180644)">  <path stroke-width="1px" stroke-dasharray="none" fill-rule="nonzero" stroke-miterlimit="4" stroke-linecap="butt" stroke="none" stroke-linejoin="miter" fill="#000000" stroke-opacity="1" fill-opacity="1" d="M54.824,9.208C54.953,9.208,55.086,9.208,55.219,9.208C80.62,9.208,101.236,29.823,101.236,55.219C101.236,80.62,80.62,101.236,55.219,101.236C29.818,101.236,9.203,80.62,9.203,55.219C9.203,30.219,29.202,9.838,54.051,9.208C54.313,9.199,54.566,9.203,54.819,9.208ZM87.527,72.871L71.15,65.49C70.612,67.993,69.369,70.142,67.418,71.942C65.012,74.183,62.108,75.968,58.095,76.299L58.095,82.544L52.343,82.544L52.343,76.019C47.254,75.273,42.036,73.295,40.306,70.234L46.081,64.915C49.044,69.061,58.091,69.36,61.197,67.607C62.338,66.963,62.619,65.09,62.619,63.829C62.619,62.955,62.393,62.278,61.933,61.777L61.924,61.772C61.735,61.574,61.436,61.266,61.054,60.944L57.295,59.25C50.889,57.46,46.453,55.344,44.631,53.779C44.447,53.618,44.272,53.462,44.107,53.305L20.592,42.712C19.18,46.619,18.406,50.829,18.406,55.224C18.406,75.545,34.899,92.032,55.219,92.032C69.149,92.032,81.274,84.288,87.527,72.871ZM90.679,65.136C91.563,61.984,92.032,58.657,92.032,55.224C92.032,34.903,75.54,18.411,55.219,18.411C55.086,18.411,54.957,18.411,54.824,18.411L54.824,18.411C54.566,18.406,54.308,18.402,54.046,18.411C41.585,18.807,30.674,25.415,24.306,35.23L42.137,43.264C42.616,41.051,43.623,39.155,45.243,37.66C47.015,36.021,49.385,34.986,52.343,34.563L52.343,27.9L58.095,27.9L58.095,34.457C62.057,34.825,66.627,36.118,69.079,39.026L64.11,44.424C61.307,42.077,59.232,41.866,55.799,41.866C53.641,41.866,52.518,42.174,51.603,42.795C50.687,43.393,50.231,44.176,50.231,45.137C50.231,46.012,50.645,46.729,51.487,47.295C52.325,47.898,54.515,48.791,58.887,49.983C63.788,51.317,67.115,52.946,68.868,54.856C69.075,55.086,69.273,55.325,69.457,55.574ZM90.679,65.136"/>
</g>
  <g id="Semibold-M" transform="matrix(1.0,0.0,0.0,1.0,1989.3305948765674,1035.6610532180644)">  <path stroke-linejoin="miter" fill-rule="nonzero" stroke-linecap="butt" fill-opacity="1" stroke="none" stroke-opacity="1" fill="#000000" stroke-dasharray="none" stroke-miterlimit="4" stroke-width="1px" d="M54.824,9.208C54.953,9.208,55.086,9.208,55.219,9.208C80.62,9.208,101.236,29.823,101.236,55.219C101.236,80.62,80.62,101.236,55.219,101.236C29.818,101.236,9.203,80.62,9.203,55.219C9.203,30.219,29.202,9.838,54.051,9.208C54.313,9.199,54.566,9.203,54.819,9.208ZM87.527,72.871L71.15,65.49C70.612,67.993,69.369,70.142,67.418,71.942C65.012,74.183,62.108,75.968,58.095,76.299L58.095,82.544L52.343,82.544L52.343,76.019C47.254,75.273,42.036,73.295,40.306,70.234L46.081,64.915C49.044,69.061,58.091,69.36,61.197,67.607C62.338,66.963,62.619,65.09,62.619,63.829C62.619,62.955,62.393,62.278,61.933,61.777L61.924,61.772C61.735,61.574,61.436,61.266,61.054,60.944L57.295,59.25C50.889,57.46,46.453,55.344,44.631,53.779C44.447,53.618,44.272,53.462,44.107,53.305L20.592,42.712C19.18,46.619,18.406,50.829,18.406,55.224C18.406,75.545,34.899,92.032,55.219,92.032C69.149,92.032,81.274,84.288,87.527,72.871ZM90.679,65.136C91.563,61.984,92.032,58.657,92.032,55.224C92.032,34.903,75.54,18.411,55.219,18.411C55.086,18.411,54.957,18.411,54.824,18.411L54.824,18.411C54.566,18.406,54.308,18.402,54.046,18.411C41.585,18.807,30.674,25.415,24.306,35.23L42.137,43.264C42.616,41.051,43.623,39.155,45.243,37.66C47.015,36.021,49.385,34.986,52.343,34.563L52.343,27.9L58.095,27.9L58.095,34.457C62.057,34.825,66.627,36.118,69.079,39.026L64.11,44.424C61.307,42.077,59.232,41.866,55.799,41.866C53.641,41.866,52.518,42.174,51.603,42.795C50.687,43.393,50.231,44.176,50.231,45.137C50.231,46.012,50.645,46.729,51.487,47.295C52.325,47.898,54.515,48.791,58.887,49.983C63.788,51.317,67.115,52.946,68.868,54.856C69.075,55.086,69.273,55.325,69.457,55.574ZM90.679,65.136"/>
</g>
  <g id="Medium-M" transform="matrix(1.0,0.0,0.0,1.0,1692.6205948765673,1035.6610532180644)">  <path stroke-linejoin="miter" stroke-opacity="1" stroke-dasharray="none" fill="#000000" stroke-width="1px" stroke-miterlimit="4" stroke="none" fill-opacity="1" fill-rule="nonzero" stroke-linecap="butt" d="M54.824,9.208C54.953,9.208,55.086,9.208,55.219,9.208C80.62,9.208,101.236,29.823,101.236,55.219C101.236,80.62,80.62,101.236,55.219,101.236C29.818,101.236,9.203,80.62,9.203,55.219C9.203,30.219,29.202,9.838,54.051,9.208C54.313,9.199,54.566,9.203,54.819,9.208ZM87.527,72.871L71.15,65.49C70.612,67.993,69.369,70.142,67.418,71.942C65.012,74.183,62.108,75.968,58.095,76.299L58.095,82.544L52.343,82.544L52.343,76.019C47.254,75.273,42.036,73.295,40.306,70.234L46.081,64.915C49.044,69.061,58.091,69.36,61.197,67.607C62.338,66.963,62.619,65.09,62.619,63.829C62.619,62.955,62.393,62.278,61.933,61.777L61.924,61.772C61.735,61.574,61.436,61.266,61.054,60.944L57.295,59.25C50.889,57.46,46.453,55.344,44.631,53.779C44.447,53.618,44.272,53.462,44.107,53.305L20.592,42.712C19.18,46.619,18.406,50.829,18.406,55.224C18.406,75.545,34.899,92.032,55.219,92.032C69.149,92.032,81.274,84.288,87.527,72.871ZM90.679,65.136C91.563,61.984,92.032,58.657,92.032,55.224C92.032,34.903,75.54,18.411,55.219,18.411C55.086,18.411,54.957,18.411,54.824,18.411L54.824,18.411C54.566,18.406,54.308,18.402,54.046,18.411C41.585,18.807,30.674,25.415,24.306,35.23L42.137,43.264C42.616,41.051,43.623,39.155,45.243,37.66C47.015,36.021,49.385,34.986,52.343,34.563L52.343,27.9L58.095,27.9L58.095,34.457C62.057,34.825,66.627,36.118,69.079,39.026L64.11,44.424C61.307,42.077,59.232,41.866,55.799,41.866C53.641,41.866,52.518,42.174,51.603,42.795C50.687,43.393,50.231,44.176,50.231,45.137C50.231,46.012,50.645,46.729,51.487,47.295C52.325,47.898,54.515,48.791,58.887,49.983C63.788,51.317,67.115,52.946,68.868,54.856C69.075,55.086,69.273,55.325,69.457,55.574ZM90.679,65.136"/>
</g>
  <g id="Regular-M" transform="matrix(1.0,0.0,0.0,1.0,1395.9105948765673,1035.6610532180644)">  <path fill-rule="nonzero" stroke-linejoin="miter" stroke-linecap="butt" stroke="none" stroke-opacity="1" stroke-miterlimit="4" fill-opacity="1" stroke-dasharray="none" stroke-width="1px" fill="#000000" d="M54.824,9.208C54.953,9.208,55.086,9.208,55.219,9.208C80.62,9.208,101.236,29.823,101.236,55.219C101.236,80.62,80.62,101.236,55.219,101.236C29.818,101.236,9.203,80.62,9.203,55.219C9.203,30.219,29.202,9.838,54.051,9.208C54.313,9.199,54.566,9.203,54.819,9.208ZM87.527,72.871L71.15,65.49C70.612,67.993,69.369,70.142,67.418,71.942C65.012,74.183,62.108,75.968,58.095,76.299L58.095,82.544L52.343,82.544L52.343,76.019C47.254,75.273,42.036,73.295,40.306,70.234L46.081,64.915C49.044,69.061,58.091,69.36,61.197,67.607C62.338,66.963,62.619,65.09,62.619,63.829C62.619,62.955,62.393,62.278,61.933,61.777L61.924,61.772C61.735,61.574,61.436,61.266,61.054,60.944L57.295,59.25C50.889,57.46,46.453,55.344,44.631,53.779C44.447,53.618,44.272,53.462,44.107,53.305L20.592,42.712C19.18,46.619,18.406,50.829,18.406,55.224C18.406,75.545,34.899,92.032,55.219,92.032C69.149,92.032,81.274,84.288,87.527,72.871ZM90.679,65.136C91.563,61.984,92.032,58.657,92.032,55.224C92.032,34.903,75.54,18.411,55.219,18.411C55.086,18.411,54.957,18.411,54.824,18.411L54.824,18.411C54.566,18.406,54.308,18.402,54.046,18.411C41.585,18.807,30.674,25.415,24.306,35.23L42.137,43.264C42.616,41.051,43.623,39.155,45.243,37.66C47.015,36.021,49.385,34.986,52.343,34.563L52.343,27.9L58.095,27.9L58.095,34.457C62.057,34.825,66.627,36.118,69.079,39.026L64.11,44.424C61.307,42.077,59.232,41.866,55.799,41.866C53.641,41.866,52.518,42.174,51.603,42.795C50.687,43.393,50.231,44.176,50.231,45.137C50.231,46.012,50.645,46.729,51.487,47.295C52.325,47.898,54.515,48.791,58.887,49.983C63.788,51.317,67.115,52.946,68.868,54.856C69.075,55.086,69.273,55.325,69.457,55.574ZM90.679,65.136"/>
</g>
  <g id="Light-M" transform="matrix(1.0,0.0,0.0,1.0,1099.2005948765675,1035.6610532180644)">  <path stroke-dasharray="none" stroke-linejoin="miter" fill-rule="nonzero" stroke-linecap="butt" stroke="none" stroke-opacity="1" fill-opacity="1" stroke-miterlimit="4" stroke-width="1px" fill="#000000" d="M54.824,9.208C54.953,9.208,55.086,9.208,55.219,9.208C80.62,9.208,101.236,29.823,101.236,55.219C101.236,80.62,80.62,101.236,55.219,101.236C29.818,101.236,9.203,80.62,9.203,55.219C9.203,30.219,29.202,9.838,54.051,9.208C54.313,9.199,54.566,9.203,54.819,9.208ZM87.527,72.871L71.15,65.49C70.612,67.993,69.369,70.142,67.418,71.942C65.012,74.183,62.108,75.968,58.095,76.299L58.095,82.544L52.343,82.544L52.343,76.019C47.254,75.273,42.036,73.295,40.306,70.234L46.081,64.915C49.044,69.061,58.091,69.36,61.197,67.607C62.338,66.963,62.619,65.09,62.619,63.829C62.619,62.955,62.393,62.278,61.933,61.777L61.924,61.772C61.735,61.574,61.436,61.266,61.054,60.944L57.295,59.25C50.889,57.46,46.453,55.344,44.631,53.779C44.447,53.618,44.272,53.462,44.107,53.305L20.592,42.712C19.18,46.619,18.406,50.829,18.406,55.224C18.406,75.545,34.899,92.032,55.219,92.032C69.149,92.032,81.274,84.288,87.527,72.871ZM90.679,65.136C91.563,61.984,92.032,58.657,92.032,55.224C92.032,34.903,75.54,18.411,55.219,18.411C55.086,18.411,54.957,18.411,54.824,18.411L54.824,18.411C54.566,18.406,54.308,18.402,54.046,18.411C41.585,18.807,30.674,25.415,24.306,35.23L42.137,43.264C42.616,41.051,43.623,39.155,45.243,37.66C47.015,36.021,49.385,34.986,52.343,34.563L52.343,27.9L58.095,27.9L58.095,34.457C62.057,34.825,66.627,36.118,69.079,39.026L64.11,44.424C61.307,42.077,59.232,41.866,55.799,41.866C53.641,41.866,52.518,42.174,51.603,42.795C50.687,43.393,50.231,44.176,50.231,45.137C50.231,46.012,50.645,46.729,51.487,47.295C52.325,47.898,54.515,48.791,58.887,49.983C63.788,51.317,67.115,52.946,68.868,54.856C69.075,55.086,69.273,55.325,69.457,55.574ZM90.679,65.136"/>
</g>
  <g id="Thin-M" transform="matrix(1.0,0.0,0.0,1.0,802.4905948765675,1035.6610532180644)">  <path stroke-dasharray="none" stroke-opacity="1" stroke-linecap="butt" stroke-width="1px" fill-opacity="1" stroke="none" stroke-linejoin="miter" fill="#000000" stroke-miterlimit="4" fill-rule="nonzero" d="M54.824,9.208C54.953,9.208,55.086,9.208,55.219,9.208C80.62,9.208,101.236,29.823,101.236,55.219C101.236,80.62,80.62,101.236,55.219,101.236C29.818,101.236,9.203,80.62,9.203,55.219C9.203,30.219,29.202,9.838,54.051,9.208C54.313,9.199,54.566,9.203,54.819,9.208ZM87.527,72.871L71.15,65.49C70.612,67.993,69.369,70.142,67.418,71.942C65.012,74.183,62.108,75.968,58.095,76.299L58.095,82.544L52.343,82.544L52.343,76.019C47.254,75.273,42.036,73.295,40.306,70.234L46.081,64.915C49.044,69.061,58.091,69.36,61.197,67.607C62.338,66.963,62.619,65.09,62.619,63.829C62.619,62.955,62.393,62.278,61.933,61.777L61.924,61.772C61.735,61.574,61.436,61.266,61.054,60.944L57.295,59.25C50.889,57.46,46.453,55.344,44.631,53.779C44.447,53.618,44.272,53.462,44.107,53.305L20.592,42.712C19.18,46.619,18.406,50.829,18.406,55.224C18.406,75.545,34.899,92.032,55.219,92.032C69.149,92.032,81.274,84.288,87.527,72.871ZM90.679,65.136C91.563,61.984,92.032,58.657,92.032,55.224C92.032,34.903,75.54,18.411,55.219,18.411C55.086,18.411,54.957,18.411,54.824,18.411L54.824,18.411C54.566,18.406,54.308,18.402,54.046,18.411C41.585,18.807,30.674,25.415,24.306,35.23L42.137,43.264C42.616,41.051,43.623,39.155,45.243,37.66C47.015,36.021,49.385,34.986,52.343,34.563L52.343,27.9L58.095,27.9L58.095,34.457C62.057,34.825,66.627,36.118,69.079,39.026L64.11,44.424C61.307,42.077,59.232,41.866,55.799,41.866C53.641,41.866,52.518,42.174,51.603,42.795C50.687,43.393,50.231,44.176,50.231,45.137C50.231,46.012,50.645,46.729,51.487,47.295C52.325,47.898,54.515,48.791,58.887,49.983C63.788,51.317,67.115,52.946,68.868,54.856C69.075,55.086,69.273,55.325,69.457,55.574ZM90.679,65.136"/>
</g>
  <g id="Ultralight-M" transform="matrix(1.0,0.0,0.0,1.0,505.7805948765674,1035.6610532180644)">  <path fill="#000000" stroke-dasharray="none" fill-opacity="1" stroke-linejoin="miter" stroke="none" fill-rule="nonzero" stroke-width="1px" stroke-miterlimit="4" stroke-opacity="1" stroke-linecap="butt" d="M54.824,9.208C54.953,9.208,55.086,9.208,55.219,9.208C80.62,9.208,101.236,29.823,101.236,55.219C101.236,80.62,80.62,101.236,55.219,101.236C29.818,101.236,9.203,80.62,9.203,55.219C9.203,30.219,29.202,9.838,54.051,9.208C54.313,9.199,54.566,9.203,54.819,9.208ZM87.527,72.871L71.15,65.49C70.612,67.993,69.369,70.142,67.418,71.942C65.012,74.183,62.108,75.968,58.095,76.299L58.095,82.544L52.343,82.544L52.343,76.019C47.254,75.273,42.036,73.295,40.306,70.234L46.081,64.915C49.044,69.061,58.091,69.36,61.197,67.607C62.338,66.963,62.619,65.09,62.619,63.829C62.619,62.955,62.393,62.278,61.933,61.777L61.924,61.772C61.735,61.574,61.436,61.266,61.054,60.944L57.295,59.25C50.889,57.46,46.453,55.344,44.631,53.779C44.447,53.618,44.272,53.462,44.107,53.305L20.592,42.712C19.18,46.619,18.406,50.829,18.406,55.224C18.406,75.545,34.899,92.032,55.219,92.032C69.149,92.032,81.274,84.288,87.527,72.871ZM90.679,65.136C91.563,61.984,92.032,58.657,92.032,55.224C92.032,34.903,75.54,18.411,55.219,18.411C55.086,18.411,54.957,18.411,54.824,18.411L54.824,18.411C54.566,18.406,54.308,18.402,54.046,18.411C41.585,18.807,30.674,25.415,24.306,35.23L42.137,43.264C42.616,41.051,43.623,39.155,45.243,37.66C47.015,36.021,49.385,34.986,52.343,34.563L52.343,27.9L58.095,27.9L58.095,34.457C62.057,34.825,66.627,36.118,69.079,39.026L64.11,44.424C61.307,42.077,59.232,41.866,55.799,41.866C53.641,41.866,52.518,42.174,51.603,42.795C50.687,43.393,50.231,44.176,50.231,45.137C50.231,46.012,50.645,46.729,51.487,47.295C52.325,47.898,54.515,48.791,58.887,49.983C63.788,51.317,67.115,52.946,68.868,54.856C69.075,55.086,69.273,55.325,69.457,55.574ZM90.679,65.136"/>
</g>
  <g id="Black-S" transform="matrix(1.0,0.0,0.0,1.0,2891.4432057883523,617.6196989080256)">  <path stroke-dasharray="none" stroke-linejoin="miter" fill-opacity="1" stroke-linecap="butt" stroke-miterlimit="4" fill="#000000" fill-rule="nonzero" stroke-width="1px" stroke="none" stroke-opacity="1" d="M42.927,7.21C43.028,7.21,43.132,7.21,43.237,7.21C63.126,7.21,79.267,23.351,79.267,43.237C79.267,63.126,63.126,79.267,43.237,79.267C23.348,79.267,7.206,63.126,7.206,43.237C7.206,23.661,22.865,7.703,42.322,7.21C42.527,7.203,42.725,7.206,42.923,7.21ZM68.534,57.058L55.711,51.279C55.289,53.239,54.316,54.922,52.789,56.33C50.904,58.085,48.631,59.483,45.489,59.742L45.489,64.632L40.985,64.632L40.985,59.523C37,58.939,32.914,57.39,31.559,54.994L36.081,50.828C38.401,54.075,45.485,54.309,47.917,52.936C48.811,52.432,49.031,50.965,49.031,49.978C49.031,49.294,48.854,48.764,48.494,48.371L48.486,48.368C48.339,48.213,48.105,47.971,47.805,47.719L44.862,46.393C39.846,44.991,36.373,43.334,34.946,42.109C34.802,41.983,34.665,41.86,34.535,41.738L16.124,33.444C15.018,36.503,14.412,39.799,14.412,43.24C14.412,59.152,27.326,72.061,43.237,72.061C54.143,72.061,63.637,65.997,68.534,57.058ZM71.002,51.001C71.694,48.533,72.061,45.928,72.061,43.24C72.061,27.329,59.148,14.416,43.237,14.416C43.132,14.416,43.031,14.416,42.927,14.416L42.927,14.416C42.725,14.412,42.523,14.409,42.318,14.416C32.561,14.726,24.018,19.9,19.031,27.585L32.993,33.876C33.368,32.143,34.157,30.658,35.425,29.487C36.813,28.205,38.668,27.394,40.985,27.063L40.985,21.845L45.489,21.845L45.489,26.98C48.591,27.268,52.169,28.28,54.089,30.558L50.198,34.784C48.004,32.946,46.379,32.781,43.691,32.781C42.001,32.781,41.122,33.022,40.405,33.509C39.688,33.977,39.331,34.589,39.331,35.342C39.331,36.027,39.655,36.589,40.315,37.032C40.97,37.504,42.686,38.203,46.108,39.137C49.946,40.181,52.551,41.457,53.923,42.952C54.086,43.132,54.241,43.32,54.385,43.514ZM71.002,51.001"/>
</g>
  <g id="Heavy-S" transform="matrix(1.0,0.0,0.0,1.0,2594.7332057883523,617.6196989080256)">  <path stroke="none" stroke-opacity="1" fill-opacity="1" stroke-dasharray="none" stroke-miterlimit="4" stroke-linejoin="miter" stroke-linecap="butt" fill-rule="nonzero" stroke-width="1px" fill="#000000" d="M42.927,7.21C43.028,7.21,43.132,7.21,43.237,7.21C63.126,7.21,79.267,23.351,79.267,43.237C79.267,63.126,63.126,79.267,43.237,79.267C23.348,79.267,7.206,63.126,7.206,43.237C7.206,23.661,22.865,7.703,42.322,7.21C42.527,7.203,42.725,7.206,42.923,7.21ZM68.534,57.058L55.711,51.279C55.289,53.239,54.316,54.922,52.789,56.33C50.904,58.085,48.631,59.483,45.489,59.742L45.489,64.632L40.985,64.632L40.985,59.523C37,58.939,32.914,57.39,31.559,54.994L36.081,50.828C38.401,54.075,45.485,54.309,47.917,52.936C48.811,52.432,49.031,50.965,49.031,49.978C49.031,49.294,48.854,48.764,48.494,48.371L48.486,48.368C48.339,48.213,48.105,47.971,47.805,47.719L44.862,46.393C39.846,44.991,36.373,43.334,34.946,42.109C34.802,41.983,34.665,41.86,34.535,41.738L16.124,33.444C15.018,36.503,14.412,39.799,14.412,43.24C14.412,59.152,27.326,72.061,43.237,72.061C54.143,72.061,63.637,65.997,68.534,57.058ZM71.002,51.001C71.694,48.533,72.061,45.928,72.061,43.24C72.061,27.329,59.148,14.416,43.237,14.416C43.132,14.416,43.031,14.416,42.927,14.416L42.927,14.416C42.725,14.412,42.523,14.409,42.318,14.416C32.561,14.726,24.018,19.9,19.031,27.585L32.993,33.876C33.368,32.143,34.157,30.658,35.425,29.487C36.813,28.205,38.668,27.394,40.985,27.063L40.985,21.845L45.489,21.845L45.489,26.98C48.591,27.268,52.169,28.28,54.089,30.558L50.198,34.784C48.004,32.946,46.379,32.781,43.691,32.781C42.001,32.781,41.122,33.022,40.405,33.509C39.688,33.977,39.331,34.589,39.331,35.342C39.331,36.027,39.655,36.589,40.315,37.032C40.97,37.504,42.686,38.203,46.108,39.137C49.946,40.181,52.551,41.457,53.923,42.952C54.086,43.132,54.241,43.32,54.385,43.514ZM71.002,51.001"/>
</g>
  <g id="Bold-S" transform="matrix(1.0,0.0,0.0,1.0,2298.0232057883522,617.6196989080256)">  <path stroke-width="1px" stroke-dasharray="none" fill-rule="nonzero" stroke-miterlimit="4" stroke-linecap="butt" stroke="none" stroke-linejoin="miter" fill="#000000" stroke-opacity="1" fill-opacity="1" d="M42.927,7.21C43.028,7.21,43.132,7.21,43.237,7.21C63.126,7.21,79.267,23.351,79.267,43.237C79.267,63.126,63.126,79.267,43.237,79.267C23.348,79.267,7.206,63.126,7.206,43.237C7.206,23.661,22.865,7.703,42.322,7.21C42.527,7.203,42.725,7.206,42.923,7.21ZM68.534,57.058L55.711,51.279C55.289,53.239,54.316,54.922,52.789,56.33C50.904,58.085,48.631,59.483,45.489,59.742L45.489,64.632L40.985,64.632L40.985,59.523C37,58.939,32.914,57.39,31.559,54.994L36.081,50.828C38.401,54.075,45.485,54.309,47.917,52.936C48.811,52.432,49.031,50.965,49.031,49.978C49.031,49.294,48.854,48.764,48.494,48.371L48.486,48.368C48.339,48.213,48.105,47.971,47.805,47.719L44.862,46.393C39.846,44.991,36.373,43.334,34.946,42.109C34.802,41.983,34.665,41.86,34.535,41.738L16.124,33.444C15.018,36.503,14.412,39.799,14.412,43.24C14.412,59.152,27.326,72.061,43.237,72.061C54.143,72.061,63.637,65.997,68.534,57.058ZM71.002,51.001C71.694,48.533,72.061,45.928,72.061,43.24C72.061,27.329,59.148,14.416,43.237,14.416C43.132,14.416,43.031,14.416,42.927,14.416L42.927,14.416C42.725,14.412,42.523,14.409,42.318,14.416C32.561,14.726,24.018,19.9,19.031,27.585L32.993,33.876C33.368,32.143,34.157,30.658,35.425,29.487C36.813,28.205,38.668,27.394,40.985,27.063L40.985,21.845L45.489,21.845L45.489,26.98C48.591,27.268,52.169,28.28,54.089,30.558L50.198,34.784C48.004,32.946,46.379,32.781,43.691,32.781C42.001,32.781,41.122,33.022,40.405,33.509C39.688,33.977,39.331,34.589,39.331,35.342C39.331,36.027,39.655,36.589,40.315,37.032C40.97,37.504,42.686,38.203,46.108,39.137C49.946,40.181,52.551,41.457,53.923,42.952C54.086,43.132,54.241,43.32,54.385,43.514ZM71.002,51.001"/>
</g>
  <g id="Semibold-S" transform="matrix(1.0,0.0,0.0,1.0,2001.3132057883522,617.6196989080256)">  <path stroke-linejoin="miter" fill-rule="nonzero" stroke-linecap="butt" fill-opacity="1" stroke="none" stroke-opacity="1" fill="#000000" stroke-dasharray="none" stroke-miterlimit="4" stroke-width="1px" d="M42.927,7.21C43.028,7.21,43.132,7.21,43.237,7.21C63.126,7.21,79.267,23.351,79.267,43.237C79.267,63.126,63.126,79.267,43.237,79.267C23.348,79.267,7.206,63.126,7.206,43.237C7.206,23.661,22.865,7.703,42.322,7.21C42.527,7.203,42.725,7.206,42.923,7.21ZM68.534,57.058L55.711,51.279C55.289,53.239,54.316,54.922,52.789,56.33C50.904,58.085,48.631,59.483,45.489,59.742L45.489,64.632L40.985,64.632L40.985,59.523C37,58.939,32.914,57.39,31.559,54.994L36.081,50.828C38.401,54.075,45.485,54.309,47.917,52.936C48.811,52.432,49.031,50.965,49.031,49.978C49.031,49.294,48.854,48.764,48.494,48.371L48.486,48.368C48.339,48.213,48.105,47.971,47.805,47.719L44.862,46.393C39.846,44.991,36.373,43.334,34.946,42.109C34.802,41.983,34.665,41.86,34.535,41.738L16.124,33.444C15.018,36.503,14.412,39.799,14.412,43.24C14.412,59.152,27.326,72.061,43.237,72.061C54.143,72.061,63.637,65.997,68.534,57.058ZM71.002,51.001C71.694,48.533,72.061,45.928,72.061,43.24C72.061,27.329,59.148,14.416,43.237,14.416C43.132,14.416,43.031,14.416,42.927,14.416L42.927,14.416C42.725,14.412,42.523,14.409,42.318,14.416C32.561,14.726,24.018,19.9,19.031,27.585L32.993,33.876C33.368,32.143,34.157,30.658,35.425,29.487C36.813,28.205,38.668,27.394,40.985,27.063L40.985,21.845L45.489,21.845L45.489,26.98C48.591,27.268,52.169,28.28,54.089,30.558L50.198,34.784C48.004,32.946,46.379,32.781,43.691,32.781C42.001,32.781,41.122,33.022,40.405,33.509C39.688,33.977,39.331,34.589,39.331,35.342C39.331,36.027,39.655,36.589,40.315,37.032C40.97,37.504,42.686,38.203,46.108,39.137C49.946,40.181,52.551,41.457,53.923,42.952C54.086,43.132,54.241,43.32,54.385,43.514ZM71.002,51.001"/>
</g>
  <g id="Medium-S" transform="matrix(1.0,0.0,0.0,1.0,1704.6032057883522,617.6196989080256)">  <path stroke-linejoin="miter" stroke-opacity="1" stroke-dasharray="none" fill="#000000" stroke-width="1px" stroke-miterlimit="4" stroke="none" fill-opacity="1" fill-rule="nonzero" stroke-linecap="butt" d="M42.927,7.21C43.028,7.21,43.132,7.21,43.237,7.21C63.126,7.21,79.267,23.351,79.267,43.237C79.267,63.126,63.126,79.267,43.237,79.267C23.348,79.267,7.206,63.126,7.206,43.237C7.206,23.661,22.865,7.703,42.322,7.21C42.527,7.203,42.725,7.206,42.923,7.21ZM68.534,57.058L55.711,51.279C55.289,53.239,54.316,54.922,52.789,56.33C50.904,58.085,48.631,59.483,45.489,59.742L45.489,64.632L40.985,64.632L40.985,59.523C37,58.939,32.914,57.39,31.559,54.994L36.081,50.828C38.401,54.075,45.485,54.309,47.917,52.936C48.811,52.432,49.031,50.965,49.031,49.978C49.031,49.294,48.854,48.764,48.494,48.371L48.486,48.368C48.339,48.213,48.105,47.971,47.805,47.719L44.862,46.393C39.846,44.991,36.373,43.334,34.946,42.109C34.802,41.983,34.665,41.86,34.535,41.738L16.124,33.444C15.018,36.503,14.412,39.799,14.412,43.24C14.412,59.152,27.326,72.061,43.237,72.061C54.143,72.061,63.637,65.997,68.534,57.058ZM71.002,51.001C71.694,48.533,72.061,45.928,72.061,43.24C72.061,27.329,59.148,14.416,43.237,14.416C43.132,14.416,43.031,14.416,42.927,14.416L42.927,14.416C42.725,14.412,42.523,14.409,42.318,14.416C32.561,14.726,24.018,19.9,19.031,27.585L32.993,33.876C33.368,32.143,34.157,30.658,35.425,29.487C36.813,28.205,38.668,27.394,40.985,27.063L40.985,21.845L45.489,21.845L45.489,26.98C48.591,27.268,52.169,28.28,54.089,30.558L50.198,34.784C48.004,32.946,46.379,32.781,43.691,32.781C42.001,32.781,41.122,33.022,40.405,33.509C39.688,33.977,39.331,34.589,39.331,35.342C39.331,36.027,39.655,36.589,40.315,37.032C40.97,37.504,42.686,38.203,46.108,39.137C49.946,40.181,52.551,41.457,53.923,42.952C54.086,43.132,54.241,43.32,54.385,43.514ZM71.002,51.001"/>
</g>
  <g id="Regular-S" transform="matrix(1.0,0.0,0.0,1.0,1407.8932057883521,617.6196989080256)">  <path fill-rule="nonzero" stroke-linejoin="miter" stroke-linecap="butt" stroke="none" stroke-opacity="1" stroke-miterlimit="4" fill-opacity="1" stroke-dasharray="none" stroke-width="1px" fill="#000000" d="M42.927,7.21C43.028,7.21,43.132,7.21,43.237,7.21C63.126,7.21,79.267,23.351,79.267,43.237C79.267,63.126,63.126,79.267,43.237,79.267C23.348,79.267,7.206,63.126,7.206,43.237C7.206,23.661,22.865,7.703,42.322,7.21C42.527,7.203,42.725,7.206,42.923,7.21ZM68.534,57.058L55.711,51.279C55.289,53.239,54.316,54.922,52.789,56.33C50.904,58.085,48.631,59.483,45.489,59.742L45.489,64.632L40.985,64.632L40.985,59.523C37,58.939,32.914,57.39,31.559,54.994L36.081,50.828C38.401,54.075,45.485,54.309,47.917,52.936C48.811,52.432,49.031,50.965,49.031,49.978C49.031,49.294,48.854,48.764,48.494,48.371L48.486,48.368C48.339,48.213,48.105,47.971,47.805,47.719L44.862,46.393C39.846,44.991,36.373,43.334,34.946,42.109C34.802,41.983,34.665,41.86,34.535,41.738L16.124,33.444C15.018,36.503,14.412,39.799,14.412,43.24C14.412,59.152,27.326,72.061,43.237,72.061C54.143,72.061,63.637,65.997,68.534,57.058ZM71.002,51.001C71.694,48.533,72.061,45.928,72.061,43.24C72.061,27.329,59.148,14.416,43.237,14.416C43.132,14.416,43.031,14.416,42.927,14.416L42.927,14.416C42.725,14.412,42.523,14.409,42.318,14.416C32.561,14.726,24.018,19.9,19.031,27.585L32.993,33.876C33.368,32.143,34.157,30.658,35.425,29.487C36.813,28.205,38.668,27.394,40.985,27.063L40.985,21.845L45.489,21.845L45.489,26.98C48.591,27.268,52.169,28.28,54.089,30.558L50.198,34.784C48.004,32.946,46.379,32.781,43.691,32.781C42.001,32.781,41.122,33.022,40.405,33.509C39.688,33.977,39.331,34.589,39.331,35.342C39.331,36.027,39.655,36.589,40.315,37.032C40.97,37.504,42.686,38.203,46.108,39.137C49.946,40.181,52.551,41.457,53.923,42.952C54.086,43.132,54.241,43.32,54.385,43.514ZM71.002,51.001"/>
</g>
  <g id="Light-S" transform="matrix(1.0,0.0,0.0,1.0,1111.1832057883523,617.6196989080256)">  <path stroke-dasharray="none" stroke-linejoin="miter" fill-rule="nonzero" stroke-linecap="butt" stroke="none" stroke-opacity="1" fill-opacity="1" stroke-miterlimit="4" stroke-width="1px" fill="#000000" d="M42.927,7.21C43.028,7.21,43.132,7.21,43.237,7.21C63.126,7.21,79.267,23.351,79.267,43.237C79.267,63.126,63.126,79.267,43.237,79.267C23.348,79.267,7.206,63.126,7.206,43.237C7.206,23.661,22.865,7.703,42.322,7.21C42.527,7.203,42.725,7.206,42.923,7.21ZM68.534,57.058L55.711,51.279C55.289,53.239,54.316,54.922,52.789,56.33C50.904,58.085,48.631,59.483,45.489,59.742L45.489,64.632L40.985,64.632L40.985,59.523C37,58.939,32.914,57.39,31.559,54.994L36.081,50.828C38.401,54.075,45.485,54.309,47.917,52.936C48.811,52.432,49.031,50.965,49.031,49.978C49.031,49.294,48.854,48.764,48.494,48.371L48.486,48.368C48.339,48.213,48.105,47.971,47.805,47.719L44.862,46.393C39.846,44.991,36.373,43.334,34.946,42.109C34.802,41.983,34.665,41.86,34.535,41.738L16.124,33.444C15.018,36.503,14.412,39.799,14.412,43.24C14.412,59.152,27.326,72.061,43.237,72.061C54.143,72.061,63.637,65.997,68.534,57.058ZM71.002,51.001C71.694,48.533,72.061,45.928,72.061,43.24C72.061,27.329,59.148,14.416,43.237,14.416C43.132,14.416,43.031,14.416,42.927,14.416L42.927,14.416C42.725,14.412,42.523,14.409,42.318,14.416C32.561,14.726,24.018,19.9,19.031,27.585L32.993,33.876C33.368,32.143,34.157,30.658,35.425,29.487C36.813,28.205,38.668,27.394,40.985,27.063L40.985,21.845L45.489,21.845L45.489,26.98C48.591,27.268,52.169,28.28,54.089,30.558L50.198,34.784C48.004,32.946,46.379,32.781,43.691,32.781C42.001,32.781,41.122,33.022,40.405,33.509C39.688,33.977,39.331,34.589,39.331,35.342C39.331,36.027,39.655,36.589,40.315,37.032C40.97,37.504,42.686,38.203,46.108,39.137C49.946,40.181,52.551,41.457,53.923,42.952C54.086,43.132,54.241,43.32,54.385,43.514ZM71.002,51.001"/>
</g>
  <g id="Thin-S" transform="matrix(1.0,0.0,0.0,1.0,814.4732057883523,617.6196989080256)">  <path stroke-dasharray="none" stroke-opacity="1" stroke-linecap="butt" stroke-width="1px" fill-opacity="1" stroke="none" stroke-linejoin="miter" fill="#000000" stroke-miterlimit="4" fill-rule="nonzero" d="M42.927,7.21C43.028,7.21,43.132,7.21,43.237,7.21C63.126,7.21,79.267,23.351,79.267,43.237C79.267,63.126,63.126,79.267,43.237,79.267C23.348,79.267,7.206,63.126,7.206,43.237C7.206,23.661,22.865,7.703,42.322,7.21C42.527,7.203,42.725,7.206,42.923,7.21ZM68.534,57.058L55.711,51.279C55.289,53.239,54.316,54.922,52.789,56.33C50.904,58.085,48.631,59.483,45.489,59.742L45.489,64.632L40.985,64.632L40.985,59.523C37,58.939,32.914,57.39,31.559,54.994L36.081,50.828C38.401,54.075,45.485,54.309,47.917,52.936C48.811,52.432,49.031,50.965,49.031,49.978C49.031,49.294,48.854,48.764,48.494,48.371L48.486,48.368C48.339,48.213,48.105,47.971,47.805,47.719L44.862,46.393C39.846,44.991,36.373,43.334,34.946,42.109C34.802,41.983,34.665,41.86,34.535,41.738L16.124,33.444C15.018,36.503,14.412,39.799,14.412,43.24C14.412,59.152,27.326,72.061,43.237,72.061C54.143,72.061,63.637,65.997,68.534,57.058ZM71.002,51.001C71.694,48.533,72.061,45.928,72.061,43.24C72.061,27.329,59.148,14.416,43.237,14.416C43.132,14.416,43.031,14.416,42.927,14.416L42.927,14.416C42.725,14.412,42.523,14.409,42.318,14.416C32.561,14.726,24.018,19.9,19.031,27.585L32.993,33.876C33.368,32.143,34.157,30.658,35.425,29.487C36.813,28.205,38.668,27.394,40.985,27.063L40.985,21.845L45.489,21.845L45.489,26.98C48.591,27.268,52.169,28.28,54.089,30.558L50.198,34.784C48.004,32.946,46.379,32.781,43.691,32.781C42.001,32.781,41.122,33.022,40.405,33.509C39.688,33.977,39.331,34.589,39.331,35.342C39.331,36.027,39.655,36.589,40.315,37.032C40.97,37.504,42.686,38.203,46.108,39.137C49.946,40.181,52.551,41.457,53.923,42.952C54.086,43.132,54.241,43.32,54.385,43.514ZM71.002,51.001"/>
</g>
  <g id="Ultralight-S" transform="matrix(1.0,0.0,0.0,1.0,517.7632057883523,617.6196989080256)">  <path fill="#000000" stroke-dasharray="none" fill-opacity="1" stroke-linejoin="miter" stroke="none" fill-rule="nonzero" stroke-width="1px" stroke-miterlimit="4" stroke-opacity="1" stroke-linecap="butt" d="M42.927,7.21C43.028,7.21,43.132,7.21,43.237,7.21C63.126,7.21,79.267,23.351,79.267,43.237C79.267,63.126,63.126,79.267,43.237,79.267C23.348,79.267,7.206,63.126,7.206,43.237C7.206,23.661,22.865,7.703,42.322,7.21C42.527,7.203,42.725,7.206,42.923,7.21ZM68.534,57.058L55.711,51.279C55.289,53.239,54.316,54.922,52.789,56.33C50.904,58.085,48.631,59.483,45.489,59.742L45.489,64.632L40.985,64.632L40.985,59.523C37,58.939,32.914,57.39,31.559,54.994L36.081,50.828C38.401,54.075,45.485,54.309,47.917,52.936C48.811,52.432,49.031,50.965,49.031,49.978C49.031,49.294,48.854,48.764,48.494,48.371L48.486,48.368C48.339,48.213,48.105,47.971,47.805,47.719L44.862,46.393C39.846,44.991,36.373,43.334,34.946,42.109C34.802,41.983,34.665,41.86,34.535,41.738L16.124,33.444C15.018,36.503,14.412,39.799,14.412,43.24C14.412,59.152,27.326,72.061,43.237,72.061C54.143,72.061,63.637,65.997,68.534,57.058ZM71.002,51.001C71.694,48.533,72.061,45.928,72.061,43.24C72.061,27.329,59.148,14.416,43.237,14.416C43.132,14.416,43.031,14.416,42.927,14.416L42.927,14.416C42.725,14.412,42.523,14.409,42.318,14.416C32.561,14.726,24.018,19.9,19.031,27.585L32.993,33.876C33.368,32.143,34.157,30.658,35.425,29.487C36.813,28.205,38.668,27.394,40.985,27.063L40.985,21.845L45.489,21.845L45.489,26.98C48.591,27.268,52.169,28.28,54.089,30.558L50.198,34.784C48.004,32.946,46.379,32.781,43.691,32.781C42.001,32.781,41.122,33.022,40.405,33.509C39.688,33.977,39.331,34.589,39.331,35.342C39.331,36.027,39.655,36.589,40.315,37.032C40.97,37.504,42.686,38.203,46.108,39.137C49.946,40.181,52.551,41.457,53.923,42.952C54.086,43.132,54.241,43.32,54.385,43.514ZM71.002,51.001"/>
</g>
 </g>
</svg>
