<?xml version="1.0" encoding="UTF-8"?>
<!-- Generator: CustomSymbols v2.6.1.40 by @serious_bret https://bretlester.com/app_content/CustomSymbols/ -->
<!-- Guides: Left/Right 0.08/0.082 Cap/Base 0.234/0.226 -->
<!-- Settings: RefScale 1.0 Min/Max Stroke Scales 0.5/2.21 -->
<!DOCTYPE svg
PUBLIC "-//W3C//DTD SVG 1.1//EN"
       "http://www.w3.org/Graphics/SVG/1.1/DTD/svg11.dtd">
<svg version="1.1" xmlns="http://www.w3.org/2000/svg" xmlns:xlink="http://www.w3.org/1999/xlink" width="3300" height="2200">
<![CDATA[<svg width="24" height="24" viewBox="0 0 24 24" fill="none" xmlns="http://www.w3.org/2000/svg">
<path fill-rule="evenodd" clip-rule="evenodd" d="M17.4043 12.0107C17.4043 12.2277 17.3223 12.4147 17.1573 12.5727L10.0803 19.3717C9.91531 19.5307 9.71931 19.6097 9.49431 19.6097C9.26831 19.6097 9.07331 19.5307 8.90931 19.3717C8.74431 19.2137 8.6613 19.0267 8.6613 18.8097V15.0107H2.83331C2.60731 15.0107 2.41231 14.9317 2.24731 14.7737C2.08231 14.6147 2.00031 14.4277 2.00031 14.2107V9.81068C2.00031 9.59368 2.08231 9.40668 2.24731 9.24768C2.41231 9.08968 2.60731 9.01068 2.83331 9.01068H8.6613V5.21168C8.6613 4.99468 8.74431 4.80768 8.90931 4.64968C9.07331 4.49068 9.26831 4.41168 9.49431 4.41168C9.71931 4.41168 9.91531 4.49068 10.0803 4.64968L17.1573 11.4487C17.3223 11.6067 17.4043 11.7937 17.4043 12.0107Z" fill="black"/>
<path fill-rule="evenodd" clip-rule="evenodd" d="M18.999 20H14.645C14.092 20 13.645 19.553 13.645 19C13.645 18.447 14.092 18 14.645 18H18.999C19.551 18 20 17.551 20 17V7C20 6.449 19.551 6 18.999 6H14.645C14.092 6 13.645 5.553 13.645 5C13.645 4.447 14.092 4 14.645 4H18.999C20.653 4 22 5.346 22 7V17C22 18.654 20.653 20 18.999 20Z" fill="black"/>
</svg>
]]>
 <g id="Notes">
  <rect height="2200" id="artboard" style="fill:white;opacity:1" width="3300" x="0" y="0"/>
  <line id="" style="fill:none;stroke:black;opacity:1;stroke-width:0.5;" x1="263" x2="3036" y1="292" y2="292"/>
  <text id="reftext1" style="stroke:none;fill:black;font-family:-apple-system,&quot;SF Pro Display&quot;,&quot;SF Pro Text&quot;,Helvetica,sans-serif;font-weight:bold;" transform="matrix(1 0 0 1 263 322)">Weight/Scale Variations</text>
  <text id="reftext2" style="stroke:none;fill:black;font-family:-apple-system,&quot;SF Pro Display&quot;,&quot;SF Pro Text&quot;,Helvetica,sans-serif;text-anchor:middle;" transform="matrix(1 0 0 1 559.711 322)">Ultralight</text>
  <text style="stroke:none;fill:black;font-family:-apple-system,&quot;SF Pro Display&quot;,&quot;SF Pro Text&quot;,Helvetica,sans-serif;text-anchor:middle;" transform="matrix(1 0 0 1 856.422 322)">Thin</text>
  <text style="stroke:none;fill:black;font-family:-apple-system,&quot;SF Pro Display&quot;,&quot;SF Pro Text&quot;,Helvetica,sans-serif;text-anchor:middle;" transform="matrix(1 0 0 1 1153.13 322)">Light</text>
  <text style="stroke:none;fill:black;font-family:-apple-system,&quot;SF Pro Display&quot;,&quot;SF Pro Text&quot;,Helvetica,sans-serif;text-anchor:middle;" transform="matrix(1 0 0 1 1449.84 322)">Regular</text>
  <text style="stroke:none;fill:black;font-family:-apple-system,&quot;SF Pro Display&quot;,&quot;SF Pro Text&quot;,Helvetica,sans-serif;text-anchor:middle;" transform="matrix(1 0 0 1 1746.56 322)">Medium</text>
  <text style="stroke:none;fill:black;font-family:-apple-system,&quot;SF Pro Display&quot;,&quot;SF Pro Text&quot;,Helvetica,sans-serif;text-anchor:middle;" transform="matrix(1 0 0 1 2043.27 322)">Semibold</text>
  <text style="stroke:none;fill:black;font-family:-apple-system,&quot;SF Pro Display&quot;,&quot;SF Pro Text&quot;,Helvetica,sans-serif;text-anchor:middle;" transform="matrix(1 0 0 1 2339.98 322)">Bold</text>
  <text style="stroke:none;fill:black;font-family:-apple-system,&quot;SF Pro Display&quot;,&quot;SF Pro Text&quot;,Helvetica,sans-serif;text-anchor:middle;" transform="matrix(1 0 0 1 2636.69 322)">Heavy</text>
  <text style="stroke:none;fill:black;font-family:-apple-system,&quot;SF Pro Display&quot;,&quot;SF Pro Text&quot;,Helvetica,sans-serif;text-anchor:middle;" transform="matrix(1 0 0 1 2933.4 322)">Black</text>
  <line id="" style="fill:none;stroke:black;opacity:1;stroke-width:0.5;" x1="263" x2="3036" y1="1903" y2="1903"/>
  <g id="" transform="matrix(1 0 0 1 263 1933)">
   <path d="M9.24805 0.830078C13.5547 0.830078 17.1387-2.74414 17.1387-7.05078C17.1387-11.3574 13.5449-14.9316 9.23828-14.9316C4.94141-14.9316 1.36719-11.3574 1.36719-7.05078C1.36719-2.74414 4.95117 0.830078 9.24805 0.830078ZM9.24805-0.654297C5.70312-0.654297 2.87109-3.49609 2.87109-7.05078C2.87109-10.6055 5.69336-13.4473 9.23828-13.4473C12.793-13.4473 15.6348-10.6055 15.6445-7.05078C15.6543-3.49609 12.8027-0.654297 9.24805-0.654297ZM6.39648-6.31836L8.50586-6.31836L8.50586-4.19922C8.50586-3.75977 8.79883-3.45703 9.22852-3.45703C9.67773-3.45703 9.9707-3.75977 9.9707-4.19922L9.9707-6.31836L12.0996-6.31836C12.5391-6.31836 12.8418-6.61133 12.8418-7.04102C12.8418-7.48047 12.5391-7.7832 12.0996-7.7832L9.9707-7.7832L9.9707-9.89258C9.9707-10.3418 9.67773-10.6445 9.22852-10.6445C8.79883-10.6445 8.50586-10.3418 8.50586-9.89258L8.50586-7.7832L6.39648-7.7832C5.94727-7.7832 5.64453-7.48047 5.64453-7.04102C5.64453-6.61133 5.94727-6.31836 6.39648-6.31836Z"/>
  </g>
  <g id="" transform="matrix(1 0 0 1 281.506 1933)">
   <path d="M11.709 2.91016C17.1582 2.91016 21.6699-1.61133 21.6699-7.05078C21.6699-12.5 17.1484-17.0117 11.6992-17.0117C6.25977-17.0117 1.74805-12.5 1.74805-7.05078C1.74805-1.61133 6.26953 2.91016 11.709 2.91016ZM11.709 1.25C7.09961 1.25 3.41797-2.44141 3.41797-7.05078C3.41797-11.6602 7.08984-15.3516 11.6992-15.3516C16.3086-15.3516 20-11.6602 20.0098-7.05078C20.0195-2.44141 16.3184 1.25 11.709 1.25ZM7.98828-6.23047L10.8789-6.23047L10.8789-3.32031C10.8789-2.83203 11.2109-2.5 11.6895-2.5C12.1777-2.5 12.5195-2.83203 12.5195-3.32031L12.5195-6.23047L15.4297-6.23047C15.918-6.23047 16.25-6.5625 16.25-7.04102C16.25-7.5293 15.918-7.87109 15.4297-7.87109L12.5195-7.87109L12.5195-10.7617C12.5195-11.2695 12.1777-11.6016 11.6895-11.6016C11.2109-11.6016 10.8789-11.2598 10.8789-10.7617L10.8789-7.87109L7.98828-7.87109C7.48047-7.87109 7.14844-7.5293 7.14844-7.04102C7.14844-6.5625 7.49023-6.23047 7.98828-6.23047Z"/>
  </g>
  <g id="" transform="matrix(1 0 0 1 304.924 1933)">
   <path d="M14.9707 5.66406C21.9336 5.66406 27.6953-0.0976562 27.6953-7.05078C27.6953-14.0137 21.9238-19.7754 14.9609-19.7754C8.00781-19.7754 2.25586-14.0137 2.25586-7.05078C2.25586-0.0976562 8.01758 5.66406 14.9707 5.66406ZM14.9707 3.84766C8.93555 3.84766 4.08203-1.01562 4.08203-7.05078C4.08203-13.0957 8.92578-17.9492 14.9609-17.9492C21.0059-17.9492 25.8594-13.0957 25.8691-7.05078C25.8789-1.01562 21.0156 3.84766 14.9707 3.84766ZM10.0586-6.14258L14.0625-6.14258L14.0625-2.12891C14.0625-1.5918 14.4336-1.2207 14.9512-1.2207C15.4883-1.2207 15.8594-1.5918 15.8594-2.12891L15.8594-6.14258L19.8828-6.14258C20.4102-6.14258 20.791-6.51367 20.791-7.03125C20.791-7.56836 20.4199-7.94922 19.8828-7.94922L15.8594-7.94922L15.8594-11.9531C15.8594-12.5098 15.4883-12.8809 14.9512-12.8809C14.4336-12.8809 14.0625-12.5 14.0625-11.9531L14.0625-7.94922L10.0586-7.94922C9.50195-7.94922 9.13086-7.56836 9.13086-7.03125C9.13086-6.51367 9.51172-6.14258 10.0586-6.14258Z"/>
  </g>
  <text style="stroke:none;fill:black;font-family:-apple-system,&quot;SF Pro Display&quot;,&quot;SF Pro Text&quot;,Helvetica,sans-serif;font-weight:bold;" transform="matrix(1 0 0 1 263 1953)">Design Variations</text>
  <text style="stroke:none;fill:black;font-family:-apple-system,&quot;SF Pro Display&quot;,&quot;SF Pro Text&quot;,Helvetica,sans-serif;" transform="matrix(1 0 0 1 263 1971)">Symbols are supported in up to nine weights and three scales.</text>
  <text style="stroke:none;fill:black;font-family:-apple-system,&quot;SF Pro Display&quot;,&quot;SF Pro Text&quot;,Helvetica,sans-serif;" transform="matrix(1 0 0 1 263 1989)">For optimal layout with text and other symbols, vertically align</text>
  <text style="stroke:none;fill:black;font-family:-apple-system,&quot;SF Pro Display&quot;,&quot;SF Pro Text&quot;,Helvetica,sans-serif;" transform="matrix(1 0 0 1 263 2007)">symbols with the adjacent text.</text>
  <line id="" style="fill:none;stroke:#00AEEF;stroke-width:0.5;opacity:1.0;" x1="776" x2="776" y1="1919" y2="1933"/>
  <g id="" transform="matrix(1 0 0 1 776 1933)">
   <path d="M3.31055 0.126953C3.82812 0.126953 4.08203-0.0683594 4.26758-0.605469L5.52734-4.0625L11.2891-4.0625L12.5488-0.605469C12.7344-0.0683594 12.9883 0.126953 13.4961 0.126953C14.0137 0.126953 14.3457-0.185547 14.3457-0.673828C14.3457-0.839844 14.3164-0.986328 14.2383-1.20117L9.6582-13.3887C9.43359-13.9941 9.0332-14.2871 8.4082-14.2871C7.80273-14.2871 7.39258-13.9941 7.17773-13.3984L2.59766-1.19141C2.51953-0.976562 2.49023-0.830078 2.49023-0.664062C2.49023-0.175781 2.80273 0.126953 3.31055 0.126953ZM6.00586-5.53711L8.37891-12.1094L8.42773-12.1094L10.8008-5.53711Z"/>
  </g>
  <line id="" style="fill:none;stroke:#00AEEF;stroke-width:0.5;opacity:1.0;" x1="792.836" x2="792.836" y1="1919" y2="1933"/>
  <text style="stroke:none;fill:black;font-family:-apple-system,&quot;SF Pro Display&quot;,&quot;SF Pro Text&quot;,Helvetica,sans-serif;font-weight:bold;" transform="matrix(1 0 0 1 776 1953)">Margins</text>
  <text style="stroke:none;fill:black;font-family:-apple-system,&quot;SF Pro Display&quot;,&quot;SF Pro Text&quot;,Helvetica,sans-serif;" transform="matrix(1 0 0 1 776 1971)">Leading and trailing margins on the left and right side of each symbol</text>
  <text style="stroke:none;fill:black;font-family:-apple-system,&quot;SF Pro Display&quot;,&quot;SF Pro Text&quot;,Helvetica,sans-serif;" transform="matrix(1 0 0 1 776 1989)">can be adjusted by modifying the x-location of the margin guidelines.</text>
  <text style="stroke:none;fill:black;font-family:-apple-system,&quot;SF Pro Display&quot;,&quot;SF Pro Text&quot;,Helvetica,sans-serif;" transform="matrix(1 0 0 1 776 2007)">Modifications are automatically applied proportionally to all</text>
  <text style="stroke:none;fill:black;font-family:-apple-system,&quot;SF Pro Display&quot;,&quot;SF Pro Text&quot;,Helvetica,sans-serif;" transform="matrix(1 0 0 1 776 2025)">scales and weights.</text>
  <g id="" transform="matrix(1 0 0 1 1289 1933)">
   <path d="M2.8418 1.86523L4.54102 3.57422C5.40039 4.44336 6.38672 4.38477 7.31445 3.35938L17.4902-7.85156C17.7539-7.76367 18.0273-7.7832 18.3398-7.8418L19.4043-8.03711L20.0684-7.36328L20.0293-6.80664C19.9902-6.30859 20.1172-5.92773 20.6055-5.44922L21.3672-4.70703C21.8457-4.22852 22.4609-4.19922 22.9297-4.66797L25.8398-7.58789C26.3086-8.05664 26.2891-8.65234 25.8105-9.13086L25.0391-9.89258C24.5605-10.3711 24.1895-10.5273 23.7109-10.4883L23.1348-10.4395L22.4902-11.0742L22.7344-12.1973C22.8613-12.7637 22.7051-13.2031 22.1191-13.7891L19.9219-15.9766C16.582-19.2969 12.1484-19.2188 9.25781-16.3281C8.83789-15.918 8.80859-15.3418 9.04297-14.9512C9.27734-14.5898 9.73633-14.3555 10.3809-14.5215C11.8457-14.8633 13.3691-14.9219 14.7949-13.9844L14.209-12.5293C14.0137-12.0508 13.9844-11.6504 14.1113-11.2891L3.04688-0.898438C2.06055 0.0195312 1.98242 0.996094 2.8418 1.86523ZM10.752-15.957C13.1836-17.7344 16.4746-17.4316 18.7012-15.2051L21.1328-12.793C21.3672-12.5586 21.4062-12.373 21.3379-12.0312L21.0156-10.5469L22.5195-9.0625L23.5059-9.12109C23.7598-9.13086 23.8379-9.11133 24.0332-8.91602L24.6094-8.33984L22.168-5.89844L21.5918-6.47461C21.3965-6.66992 21.3672-6.74805 21.377-7.01172L21.4453-7.98828L19.9512-9.47266L18.4277-9.21875C18.1055-9.15039 17.959-9.17969 17.7148-9.41406L15.7129-11.416C15.459-11.6504 15.4297-11.8164 15.5859-12.1875L16.4648-14.2773C14.9023-15.7324 12.8711-16.3574 10.8398-15.7617C10.6836-15.7227 10.625-15.8496 10.752-15.957ZM5.27344 2.30469L4.10156 1.14258C3.63281 0.683594 3.74023 0.341797 4.14062-0.0195312L14.9512-10.1953L16.416-8.71094L6.42578 2.27539C6.07422 2.67578 5.74219 2.77344 5.27344 2.30469Z"/>
  </g>
  <text style="stroke:none;fill:black;font-family:-apple-system,&quot;SF Pro Display&quot;,&quot;SF Pro Text&quot;,Helvetica,sans-serif;font-weight:bold;" transform="matrix(1 0 0 1 1289 1953)">Exporting</text>
  <text style="stroke:none;fill:black;font-family:-apple-system,&quot;SF Pro Display&quot;,&quot;SF Pro Text&quot;,Helvetica,sans-serif;" transform="matrix(1 0 0 1 1289 1971)">Symbols should be outlined when exporting to ensure the</text>
  <text style="stroke:none;fill:black;font-family:-apple-system,&quot;SF Pro Display&quot;,&quot;SF Pro Text&quot;,Helvetica,sans-serif;" transform="matrix(1 0 0 1 1289 1989)">design is preserved when submitting to Xcode.</text>
  <text id="template-version" style="stroke:none;fill:black;font-family:-apple-system,&quot;SF Pro Display&quot;,&quot;SF Pro Text&quot;,Helvetica,sans-serif;text-anchor:end;" transform="matrix(1 0 0 1 3036 1933)">Template v.2.0</text>
  <text style="stroke:none;fill:black;font-family:-apple-system,&quot;SF Pro Display&quot;,&quot;SF Pro Text&quot;,Helvetica,sans-serif;text-anchor:end;" transform="matrix(1 0 0 1 3036 1951)">Requires Xcode 12 or greater</text>
  <text style="stroke:none;fill:black;font-family:-apple-system,&quot;SF Pro Display&quot;,&quot;SF Pro Text&quot;,Helvetica,sans-serif;" transform="matrix(1 0 0 1 263 726)">Small</text>
  <text style="stroke:none;fill:black;font-family:-apple-system,&quot;SF Pro Display&quot;,&quot;SF Pro Text&quot;,Helvetica,sans-serif;" transform="matrix(1 0 0 1 263 1156)">Medium</text>
  <text style="stroke:none;fill:black;font-family:-apple-system,&quot;SF Pro Display&quot;,&quot;SF Pro Text&quot;,Helvetica,sans-serif;" transform="matrix(1 0 0 1 263 1586)">Large</text>
 </g>
 <g id="Guides">
  <g id="H-reference" style="fill:#27AAE1;stroke:none;" transform="matrix(1 0 0 1 339 696)">
   <path d="M0.976562 0L3.66211 0L12.9883-24.4629L45.752-24.4629L55.127 0L57.7637 0L30.6152-70.459L28.125-70.459ZM29.3457-67.1387L29.4434-67.1387L44.873-26.709L13.8672-26.709Z"/>
  </g>
  <line id="Baseline-S" style="fill:none;stroke:#27AAE1;opacity:1;stroke-width:0.5;" x1="263" x2="3036" y1="696" y2="696"/>
  <line id="Capline-S" style="fill:none;stroke:#27AAE1;opacity:1;stroke-width:0.5;" x1="263" x2="3036" y1="625.541" y2="625.541"/>
  <g id="H-reference" style="fill:#27AAE1;stroke:none;" transform="matrix(1 0 0 1 339 1126)">
   <path d="M0.976562 0L3.66211 0L12.9883-24.4629L45.752-24.4629L55.127 0L57.7637 0L30.6152-70.459L28.125-70.459ZM29.3457-67.1387L29.4434-67.1387L44.873-26.709L13.8672-26.709Z"/>
  </g>
  <line id="Baseline-M" style="fill:none;stroke:#27AAE1;opacity:1;stroke-width:0.5;" x1="263" x2="3036" y1="1126" y2="1126"/>
  <line id="Capline-M" style="fill:none;stroke:#27AAE1;opacity:1;stroke-width:0.5;" x1="263" x2="3036" y1="1055.54" y2="1055.54"/>
  <g id="H-reference" style="fill:#27AAE1;stroke:none;" transform="matrix(1 0 0 1 339 1556)">
   <path d="M0.976562 0L3.66211 0L12.9883-24.4629L45.752-24.4629L55.127 0L57.7637 0L30.6152-70.459L28.125-70.459ZM29.3457-67.1387L29.4434-67.1387L44.873-26.709L13.8672-26.709Z"/>
  </g>
  <line id="Baseline-L" style="fill:none;stroke:#27AAE1;opacity:1;stroke-width:0.5;" x1="263" x2="3036" y1="1556" y2="1556"/>
  <line id="Capline-L" style="fill:none;stroke:#27AAE1;opacity:1;stroke-width:0.5;" x1="263" x2="3036" y1="1485.54" y2="1485.54"/>
  <line id="left-margin" x1="1396.327808159722" x2="1396.327808159722" y1="1030.79" y2="1150.12" style="fill:none;stroke:#00AEEF;stroke-width:0.5;opacity:1.0;"/>
  <line id="right-margin" x1="1505.6712290219907" x2="1505.6712290219907" y1="1030.79" y2="1150.12" style="fill:none;stroke:#00AEEF;stroke-width:0.5;opacity:1.0;"/>
 </g>
 <g id="Symbols">
  <g id="Black-L" transform="matrix(1.0,0.0,0.0,1.0,2850.5194911024305,1435.9362265625)">  <path stroke-opacity="1" fill="#000000" stroke-width="1px" stroke-linejoin="miter" stroke-linecap="butt" clip-rule="evenodd" fill-opacity="1" fill-rule="evenodd" stroke="none" stroke-miterlimit="4" stroke-dasharray="none" d="M122.063,84.236C122.063,85.757,121.488,87.069,120.331,88.177L70.697,135.861C69.54,136.976,68.165,137.53,66.587,137.53C65.002,137.53,63.635,136.976,62.484,135.861C61.327,134.753,60.745,133.441,60.745,131.919L60.745,105.276L19.871,105.276C18.286,105.276,16.918,104.722,15.761,103.614C14.604,102.498,14.029,101.187,14.029,99.665L14.029,68.806C14.029,67.284,14.604,65.973,15.761,64.857C16.918,63.749,18.286,63.195,19.871,63.195L60.745,63.195L60.745,36.551C60.745,35.03,61.327,33.718,62.484,32.61C63.635,31.495,65.002,30.941,66.587,30.941C68.165,30.941,69.54,31.495,70.697,32.61L120.331,80.294C121.488,81.402,122.063,82.714,122.063,84.236ZM122.063,84.236"/>
  <path stroke-linejoin="miter" fill-rule="evenodd" stroke="none" clip-rule="evenodd" fill-opacity="1" stroke-linecap="butt" fill="#000000" stroke-dasharray="none" stroke-opacity="1" stroke-miterlimit="4" stroke-width="1px" d="M133.247,140.268L102.711,140.268C98.832,140.268,95.698,137.133,95.698,133.254C95.698,129.376,98.832,126.241,102.711,126.241L133.247,126.241C137.119,126.241,140.268,123.092,140.268,119.227L140.268,49.094C140.268,45.229,137.119,42.08,133.247,42.08L102.711,42.08C98.832,42.08,95.698,38.945,95.698,35.067C95.698,31.188,98.832,28.054,102.711,28.054L133.247,28.054C144.847,28.054,154.294,37.494,154.294,49.094L154.294,119.227C154.294,130.828,144.847,140.268,133.247,140.268ZM133.247,140.268"/>
</g>
  <g id="Heavy-L" transform="matrix(1.0,0.0,0.0,1.0,2553.8094911024305,1435.9362265625)">  <path stroke-linejoin="miter" stroke="none" stroke-opacity="1" fill="#000000" stroke-miterlimit="4" stroke-linecap="butt" stroke-width="1px" fill-rule="evenodd" clip-rule="evenodd" stroke-dasharray="none" fill-opacity="1" d="M122.063,84.236C122.063,85.757,121.488,87.069,120.331,88.177L70.697,135.861C69.54,136.976,68.165,137.53,66.587,137.53C65.002,137.53,63.635,136.976,62.484,135.861C61.327,134.753,60.745,133.441,60.745,131.919L60.745,105.276L19.871,105.276C18.286,105.276,16.918,104.722,15.761,103.614C14.604,102.498,14.029,101.187,14.029,99.665L14.029,68.806C14.029,67.284,14.604,65.973,15.761,64.857C16.918,63.749,18.286,63.195,19.871,63.195L60.745,63.195L60.745,36.551C60.745,35.03,61.327,33.718,62.484,32.61C63.635,31.495,65.002,30.941,66.587,30.941C68.165,30.941,69.54,31.495,70.697,32.61L120.331,80.294C121.488,81.402,122.063,82.714,122.063,84.236ZM122.063,84.236"/>
  <path stroke-linecap="butt" fill-rule="evenodd" stroke-linejoin="miter" fill="#000000" stroke-miterlimit="4" stroke-width="1px" clip-rule="evenodd" stroke="none" stroke-dasharray="none" fill-opacity="1" stroke-opacity="1" d="M133.247,140.268L102.711,140.268C98.832,140.268,95.698,137.133,95.698,133.254C95.698,129.376,98.832,126.241,102.711,126.241L133.247,126.241C137.119,126.241,140.268,123.092,140.268,119.227L140.268,49.094C140.268,45.229,137.119,42.08,133.247,42.08L102.711,42.08C98.832,42.08,95.698,38.945,95.698,35.067C95.698,31.188,98.832,28.054,102.711,28.054L133.247,28.054C144.847,28.054,154.294,37.494,154.294,49.094L154.294,119.227C154.294,130.828,144.847,140.268,133.247,140.268ZM133.247,140.268"/>
</g>
  <g id="Bold-L" transform="matrix(1.0,0.0,0.0,1.0,2257.0994911024304,1435.9362265625)">  <path stroke-dasharray="none" stroke-opacity="1" stroke="none" clip-rule="evenodd" stroke-miterlimit="4" fill="#000000" stroke-linecap="butt" fill-rule="evenodd" stroke-linejoin="miter" fill-opacity="1" stroke-width="1px" d="M122.063,84.236C122.063,85.757,121.488,87.069,120.331,88.177L70.697,135.861C69.54,136.976,68.165,137.53,66.587,137.53C65.002,137.53,63.635,136.976,62.484,135.861C61.327,134.753,60.745,133.441,60.745,131.919L60.745,105.276L19.871,105.276C18.286,105.276,16.918,104.722,15.761,103.614C14.604,102.498,14.029,101.187,14.029,99.665L14.029,68.806C14.029,67.284,14.604,65.973,15.761,64.857C16.918,63.749,18.286,63.195,19.871,63.195L60.745,63.195L60.745,36.551C60.745,35.03,61.327,33.718,62.484,32.61C63.635,31.495,65.002,30.941,66.587,30.941C68.165,30.941,69.54,31.495,70.697,32.61L120.331,80.294C121.488,81.402,122.063,82.714,122.063,84.236ZM122.063,84.236"/>
  <path fill-rule="evenodd" stroke-width="1px" stroke="none" stroke-linecap="butt" fill="#000000" stroke-linejoin="miter" stroke-dasharray="none" clip-rule="evenodd" stroke-opacity="1" fill-opacity="1" stroke-miterlimit="4" d="M133.247,140.268L102.711,140.268C98.832,140.268,95.698,137.133,95.698,133.254C95.698,129.376,98.832,126.241,102.711,126.241L133.247,126.241C137.119,126.241,140.268,123.092,140.268,119.227L140.268,49.094C140.268,45.229,137.119,42.08,133.247,42.08L102.711,42.08C98.832,42.08,95.698,38.945,95.698,35.067C95.698,31.188,98.832,28.054,102.711,28.054L133.247,28.054C144.847,28.054,154.294,37.494,154.294,49.094L154.294,119.227C154.294,130.828,144.847,140.268,133.247,140.268ZM133.247,140.268"/>
</g>
  <g id="Semibold-L" transform="matrix(1.0,0.0,0.0,1.0,1960.3894911024306,1435.9362265625)">  <path stroke-opacity="1" fill-opacity="1" stroke-linecap="butt" stroke-width="1px" stroke-dasharray="none" clip-rule="evenodd" stroke="none" fill-rule="evenodd" stroke-linejoin="miter" stroke-miterlimit="4" fill="#000000" d="M122.063,84.236C122.063,85.757,121.488,87.069,120.331,88.177L70.697,135.861C69.54,136.976,68.165,137.53,66.587,137.53C65.002,137.53,63.635,136.976,62.484,135.861C61.327,134.753,60.745,133.441,60.745,131.919L60.745,105.276L19.871,105.276C18.286,105.276,16.918,104.722,15.761,103.614C14.604,102.498,14.029,101.187,14.029,99.665L14.029,68.806C14.029,67.284,14.604,65.973,15.761,64.857C16.918,63.749,18.286,63.195,19.871,63.195L60.745,63.195L60.745,36.551C60.745,35.03,61.327,33.718,62.484,32.61C63.635,31.495,65.002,30.941,66.587,30.941C68.165,30.941,69.54,31.495,70.697,32.61L120.331,80.294C121.488,81.402,122.063,82.714,122.063,84.236ZM122.063,84.236"/>
  <path stroke-linecap="butt" stroke-miterlimit="4" stroke-linejoin="miter" stroke-dasharray="none" stroke="none" stroke-opacity="1" fill-opacity="1" fill-rule="evenodd" clip-rule="evenodd" fill="#000000" stroke-width="1px" d="M133.247,140.268L102.711,140.268C98.832,140.268,95.698,137.133,95.698,133.254C95.698,129.376,98.832,126.241,102.711,126.241L133.247,126.241C137.119,126.241,140.268,123.092,140.268,119.227L140.268,49.094C140.268,45.229,137.119,42.08,133.247,42.08L102.711,42.08C98.832,42.08,95.698,38.945,95.698,35.067C95.698,31.188,98.832,28.054,102.711,28.054L133.247,28.054C144.847,28.054,154.294,37.494,154.294,49.094L154.294,119.227C154.294,130.828,144.847,140.268,133.247,140.268ZM133.247,140.268"/>
</g>
  <g id="Medium-L" transform="matrix(1.0,0.0,0.0,1.0,1663.6794911024306,1435.9362265625)">  <path fill-rule="evenodd" stroke-opacity="1" stroke-linejoin="miter" stroke="none" stroke-width="1px" stroke-dasharray="none" stroke-linecap="butt" fill="#000000" stroke-miterlimit="4" fill-opacity="1" clip-rule="evenodd" d="M122.063,84.236C122.063,85.757,121.488,87.069,120.331,88.177L70.697,135.861C69.54,136.976,68.165,137.53,66.587,137.53C65.002,137.53,63.635,136.976,62.484,135.861C61.327,134.753,60.745,133.441,60.745,131.919L60.745,105.276L19.871,105.276C18.286,105.276,16.918,104.722,15.761,103.614C14.604,102.498,14.029,101.187,14.029,99.665L14.029,68.806C14.029,67.284,14.604,65.973,15.761,64.857C16.918,63.749,18.286,63.195,19.871,63.195L60.745,63.195L60.745,36.551C60.745,35.03,61.327,33.718,62.484,32.61C63.635,31.495,65.002,30.941,66.587,30.941C68.165,30.941,69.54,31.495,70.697,32.61L120.331,80.294C121.488,81.402,122.063,82.714,122.063,84.236ZM122.063,84.236"/>
  <path fill-opacity="1" clip-rule="evenodd" stroke="none" stroke-opacity="1" stroke-linecap="butt" stroke-dasharray="none" stroke-width="1px" stroke-linejoin="miter" stroke-miterlimit="4" fill-rule="evenodd" fill="#000000" d="M133.247,140.268L102.711,140.268C98.832,140.268,95.698,137.133,95.698,133.254C95.698,129.376,98.832,126.241,102.711,126.241L133.247,126.241C137.119,126.241,140.268,123.092,140.268,119.227L140.268,49.094C140.268,45.229,137.119,42.08,133.247,42.08L102.711,42.08C98.832,42.08,95.698,38.945,95.698,35.067C95.698,31.188,98.832,28.054,102.711,28.054L133.247,28.054C144.847,28.054,154.294,37.494,154.294,49.094L154.294,119.227C154.294,130.828,144.847,140.268,133.247,140.268ZM133.247,140.268"/>
</g>
  <g id="Regular-L" transform="matrix(1.0,0.0,0.0,1.0,1366.9694911024305,1435.9362265625)">  <path fill-opacity="1" stroke-opacity="1" stroke-miterlimit="4" stroke-width="1px" stroke-linecap="butt" clip-rule="evenodd" fill-rule="evenodd" stroke="none" fill="#000000" stroke-dasharray="none" stroke-linejoin="miter" d="M122.063,84.236C122.063,85.757,121.488,87.069,120.331,88.177L70.697,135.861C69.54,136.976,68.165,137.53,66.587,137.53C65.002,137.53,63.635,136.976,62.484,135.861C61.327,134.753,60.745,133.441,60.745,131.919L60.745,105.276L19.871,105.276C18.286,105.276,16.918,104.722,15.761,103.614C14.604,102.498,14.029,101.187,14.029,99.665L14.029,68.806C14.029,67.284,14.604,65.973,15.761,64.857C16.918,63.749,18.286,63.195,19.871,63.195L60.745,63.195L60.745,36.551C60.745,35.03,61.327,33.718,62.484,32.61C63.635,31.495,65.002,30.941,66.587,30.941C68.165,30.941,69.54,31.495,70.697,32.61L120.331,80.294C121.488,81.402,122.063,82.714,122.063,84.236ZM122.063,84.236"/>
  <path stroke-opacity="1" stroke="none" fill="#000000" stroke-width="1px" stroke-miterlimit="4" fill-rule="evenodd" stroke-linecap="butt" stroke-dasharray="none" fill-opacity="1" clip-rule="evenodd" stroke-linejoin="miter" d="M133.247,140.268L102.711,140.268C98.832,140.268,95.698,137.133,95.698,133.254C95.698,129.376,98.832,126.241,102.711,126.241L133.247,126.241C137.119,126.241,140.268,123.092,140.268,119.227L140.268,49.094C140.268,45.229,137.119,42.08,133.247,42.08L102.711,42.08C98.832,42.08,95.698,38.945,95.698,35.067C95.698,31.188,98.832,28.054,102.711,28.054L133.247,28.054C144.847,28.054,154.294,37.494,154.294,49.094L154.294,119.227C154.294,130.828,144.847,140.268,133.247,140.268ZM133.247,140.268"/>
</g>
  <g id="Light-L" transform="matrix(1.0,0.0,0.0,1.0,1070.2594911024307,1435.9362265625)">  <path fill-rule="evenodd" stroke="none" stroke-miterlimit="4" stroke-width="1px" stroke-opacity="1" clip-rule="evenodd" stroke-linejoin="miter" fill-opacity="1" fill="#000000" stroke-linecap="butt" stroke-dasharray="none" d="M122.063,84.236C122.063,85.757,121.488,87.069,120.331,88.177L70.697,135.861C69.54,136.976,68.165,137.53,66.587,137.53C65.002,137.53,63.635,136.976,62.484,135.861C61.327,134.753,60.745,133.441,60.745,131.919L60.745,105.276L19.871,105.276C18.286,105.276,16.918,104.722,15.761,103.614C14.604,102.498,14.029,101.187,14.029,99.665L14.029,68.806C14.029,67.284,14.604,65.973,15.761,64.857C16.918,63.749,18.286,63.195,19.871,63.195L60.745,63.195L60.745,36.551C60.745,35.03,61.327,33.718,62.484,32.61C63.635,31.495,65.002,30.941,66.587,30.941C68.165,30.941,69.54,31.495,70.697,32.61L120.331,80.294C121.488,81.402,122.063,82.714,122.063,84.236ZM122.063,84.236"/>
  <path stroke="none" stroke-linejoin="miter" fill-opacity="1" stroke-opacity="1" stroke-linecap="butt" fill-rule="evenodd" stroke-miterlimit="4" fill="#000000" stroke-width="1px" clip-rule="evenodd" stroke-dasharray="none" d="M133.247,140.268L102.711,140.268C98.832,140.268,95.698,137.133,95.698,133.254C95.698,129.376,98.832,126.241,102.711,126.241L133.247,126.241C137.119,126.241,140.268,123.092,140.268,119.227L140.268,49.094C140.268,45.229,137.119,42.08,133.247,42.08L102.711,42.08C98.832,42.08,95.698,38.945,95.698,35.067C95.698,31.188,98.832,28.054,102.711,28.054L133.247,28.054C144.847,28.054,154.294,37.494,154.294,49.094L154.294,119.227C154.294,130.828,144.847,140.268,133.247,140.268ZM133.247,140.268"/>
</g>
  <g id="Thin-L" transform="matrix(1.0,0.0,0.0,1.0,773.5494911024306,1435.9362265625)">  <path fill-rule="evenodd" fill-opacity="1" stroke-width="1px" clip-rule="evenodd" stroke="none" stroke-dasharray="none" stroke-miterlimit="4" stroke-linecap="butt" fill="#000000" stroke-linejoin="miter" stroke-opacity="1" d="M122.063,84.236C122.063,85.757,121.488,87.069,120.331,88.177L70.697,135.861C69.54,136.976,68.165,137.53,66.587,137.53C65.002,137.53,63.635,136.976,62.484,135.861C61.327,134.753,60.745,133.441,60.745,131.919L60.745,105.276L19.871,105.276C18.286,105.276,16.918,104.722,15.761,103.614C14.604,102.498,14.029,101.187,14.029,99.665L14.029,68.806C14.029,67.284,14.604,65.973,15.761,64.857C16.918,63.749,18.286,63.195,19.871,63.195L60.745,63.195L60.745,36.551C60.745,35.03,61.327,33.718,62.484,32.61C63.635,31.495,65.002,30.941,66.587,30.941C68.165,30.941,69.54,31.495,70.697,32.61L120.331,80.294C121.488,81.402,122.063,82.714,122.063,84.236ZM122.063,84.236"/>
  <path stroke-width="1px" stroke-miterlimit="4" fill="#000000" fill-rule="evenodd" fill-opacity="1" stroke-linecap="butt" stroke-opacity="1" stroke="none" stroke-dasharray="none" clip-rule="evenodd" stroke-linejoin="miter" d="M133.247,140.268L102.711,140.268C98.832,140.268,95.698,137.133,95.698,133.254C95.698,129.376,98.832,126.241,102.711,126.241L133.247,126.241C137.119,126.241,140.268,123.092,140.268,119.227L140.268,49.094C140.268,45.229,137.119,42.08,133.247,42.08L102.711,42.08C98.832,42.08,95.698,38.945,95.698,35.067C95.698,31.188,98.832,28.054,102.711,28.054L133.247,28.054C144.847,28.054,154.294,37.494,154.294,49.094L154.294,119.227C154.294,130.828,144.847,140.268,133.247,140.268ZM133.247,140.268"/>
</g>
  <g id="Ultralight-L" transform="matrix(1.0,0.0,0.0,1.0,476.83949110243054,1435.9362265625)">  <path stroke-miterlimit="4" fill-opacity="1" fill-rule="evenodd" stroke-linecap="butt" clip-rule="evenodd" stroke-opacity="1" stroke-width="1px" stroke="none" stroke-dasharray="none" stroke-linejoin="miter" fill="#000000" d="M122.063,84.236C122.063,85.757,121.488,87.069,120.331,88.177L70.697,135.861C69.54,136.976,68.165,137.53,66.587,137.53C65.002,137.53,63.635,136.976,62.484,135.861C61.327,134.753,60.745,133.441,60.745,131.919L60.745,105.276L19.871,105.276C18.286,105.276,16.918,104.722,15.761,103.614C14.604,102.498,14.029,101.187,14.029,99.665L14.029,68.806C14.029,67.284,14.604,65.973,15.761,64.857C16.918,63.749,18.286,63.195,19.871,63.195L60.745,63.195L60.745,36.551C60.745,35.03,61.327,33.718,62.484,32.61C63.635,31.495,65.002,30.941,66.587,30.941C68.165,30.941,69.54,31.495,70.697,32.61L120.331,80.294C121.488,81.402,122.063,82.714,122.063,84.236ZM122.063,84.236"/>
  <path fill="#000000" fill-opacity="1" stroke-dasharray="none" stroke-width="1px" stroke-linecap="butt" stroke="none" stroke-opacity="1" stroke-linejoin="miter" stroke-miterlimit="4" fill-rule="evenodd" clip-rule="evenodd" d="M133.247,140.268L102.711,140.268C98.832,140.268,95.698,137.133,95.698,133.254C95.698,129.376,98.832,126.241,102.711,126.241L133.247,126.241C137.119,126.241,140.268,123.092,140.268,119.227L140.268,49.094C140.268,45.229,137.119,42.08,133.247,42.08L102.711,42.08C98.832,42.08,95.698,38.945,95.698,35.067C95.698,31.188,98.832,28.054,102.711,28.054L133.247,28.054C144.847,28.054,154.294,37.494,154.294,49.094L154.294,119.227C154.294,130.828,144.847,140.268,133.247,140.268ZM133.247,140.268"/>
</g>
  <g id="Black-M" transform="matrix(1.0,0.0,0.0,1.0,2869.4392954282407,1025.0073893229167)">  <path stroke-opacity="1" fill="#000000" stroke-width="1px" stroke-linejoin="miter" stroke-linecap="butt" clip-rule="evenodd" fill-opacity="1" fill-rule="evenodd" stroke="none" stroke-miterlimit="4" stroke-dasharray="none" d="M94.622,65.299C94.622,66.479,94.177,67.495,93.28,68.354L54.804,105.319C53.907,106.183,52.841,106.613,51.618,106.613C50.389,106.613,49.329,106.183,48.437,105.319C47.54,104.46,47.089,103.443,47.089,102.263L47.089,81.609L15.404,81.609C14.175,81.609,13.115,81.18,12.218,80.321C11.321,79.456,10.875,78.439,10.875,77.26L10.875,53.338C10.875,52.158,11.321,51.142,12.218,50.277C13.115,49.418,14.175,48.989,15.404,48.989L47.089,48.989L47.089,28.334C47.089,27.155,47.54,26.138,48.437,25.279C49.329,24.415,50.389,23.985,51.618,23.985C52.841,23.985,53.907,24.415,54.804,25.279L93.28,62.243C94.177,63.102,94.622,64.119,94.622,65.299ZM94.622,65.299"/>
  <path stroke-linejoin="miter" fill-rule="evenodd" stroke="none" clip-rule="evenodd" fill-opacity="1" stroke-linecap="butt" fill="#000000" stroke-dasharray="none" stroke-opacity="1" stroke-miterlimit="4" stroke-width="1px" d="M103.292,108.735L79.621,108.735C76.614,108.735,74.184,106.304,74.184,103.298C74.184,100.291,76.614,97.861,79.621,97.861L103.292,97.861C106.293,97.861,108.735,95.42,108.735,92.424L108.735,38.057C108.735,35.061,106.293,32.62,103.292,32.62L79.621,32.62C76.614,32.62,74.184,30.19,74.184,27.184C74.184,24.177,76.614,21.747,79.621,21.747L103.292,21.747C112.285,21.747,119.608,29.065,119.608,38.057L119.608,92.424C119.608,101.417,112.285,108.735,103.292,108.735ZM103.292,108.735"/>
</g>
  <g id="Heavy-M" transform="matrix(1.0,0.0,0.0,1.0,2572.7292954282407,1025.0073893229167)">  <path stroke-linejoin="miter" stroke="none" stroke-opacity="1" fill="#000000" stroke-miterlimit="4" stroke-linecap="butt" stroke-width="1px" fill-rule="evenodd" clip-rule="evenodd" stroke-dasharray="none" fill-opacity="1" d="M94.622,65.299C94.622,66.479,94.177,67.495,93.28,68.354L54.804,105.319C53.907,106.183,52.841,106.613,51.618,106.613C50.389,106.613,49.329,106.183,48.437,105.319C47.54,104.46,47.089,103.443,47.089,102.263L47.089,81.609L15.404,81.609C14.175,81.609,13.115,81.18,12.218,80.321C11.321,79.456,10.875,78.439,10.875,77.26L10.875,53.338C10.875,52.158,11.321,51.142,12.218,50.277C13.115,49.418,14.175,48.989,15.404,48.989L47.089,48.989L47.089,28.334C47.089,27.155,47.54,26.138,48.437,25.279C49.329,24.415,50.389,23.985,51.618,23.985C52.841,23.985,53.907,24.415,54.804,25.279L93.28,62.243C94.177,63.102,94.622,64.119,94.622,65.299ZM94.622,65.299"/>
  <path stroke-linecap="butt" fill-rule="evenodd" stroke-linejoin="miter" fill="#000000" stroke-miterlimit="4" stroke-width="1px" clip-rule="evenodd" stroke="none" stroke-dasharray="none" fill-opacity="1" stroke-opacity="1" d="M103.292,108.735L79.621,108.735C76.614,108.735,74.184,106.304,74.184,103.298C74.184,100.291,76.614,97.861,79.621,97.861L103.292,97.861C106.293,97.861,108.735,95.42,108.735,92.424L108.735,38.057C108.735,35.061,106.293,32.62,103.292,32.62L79.621,32.62C76.614,32.62,74.184,30.19,74.184,27.184C74.184,24.177,76.614,21.747,79.621,21.747L103.292,21.747C112.285,21.747,119.608,29.065,119.608,38.057L119.608,92.424C119.608,101.417,112.285,108.735,103.292,108.735ZM103.292,108.735"/>
</g>
  <g id="Bold-M" transform="matrix(1.0,0.0,0.0,1.0,2276.0192954282406,1025.0073893229167)">  <path stroke-dasharray="none" stroke-opacity="1" stroke="none" clip-rule="evenodd" stroke-miterlimit="4" fill="#000000" stroke-linecap="butt" fill-rule="evenodd" stroke-linejoin="miter" fill-opacity="1" stroke-width="1px" d="M94.622,65.299C94.622,66.479,94.177,67.495,93.28,68.354L54.804,105.319C53.907,106.183,52.841,106.613,51.618,106.613C50.389,106.613,49.329,106.183,48.437,105.319C47.54,104.46,47.089,103.443,47.089,102.263L47.089,81.609L15.404,81.609C14.175,81.609,13.115,81.18,12.218,80.321C11.321,79.456,10.875,78.439,10.875,77.26L10.875,53.338C10.875,52.158,11.321,51.142,12.218,50.277C13.115,49.418,14.175,48.989,15.404,48.989L47.089,48.989L47.089,28.334C47.089,27.155,47.54,26.138,48.437,25.279C49.329,24.415,50.389,23.985,51.618,23.985C52.841,23.985,53.907,24.415,54.804,25.279L93.28,62.243C94.177,63.102,94.622,64.119,94.622,65.299ZM94.622,65.299"/>
  <path fill-rule="evenodd" stroke-width="1px" stroke="none" stroke-linecap="butt" fill="#000000" stroke-linejoin="miter" stroke-dasharray="none" clip-rule="evenodd" stroke-opacity="1" fill-opacity="1" stroke-miterlimit="4" d="M103.292,108.735L79.621,108.735C76.614,108.735,74.184,106.304,74.184,103.298C74.184,100.291,76.614,97.861,79.621,97.861L103.292,97.861C106.293,97.861,108.735,95.42,108.735,92.424L108.735,38.057C108.735,35.061,106.293,32.62,103.292,32.62L79.621,32.62C76.614,32.62,74.184,30.19,74.184,27.184C74.184,24.177,76.614,21.747,79.621,21.747L103.292,21.747C112.285,21.747,119.608,29.065,119.608,38.057L119.608,92.424C119.608,101.417,112.285,108.735,103.292,108.735ZM103.292,108.735"/>
</g>
  <g id="Semibold-M" transform="matrix(1.0,0.0,0.0,1.0,1979.3092954282406,1025.0073893229167)">  <path stroke-opacity="1" fill-opacity="1" stroke-linecap="butt" stroke-width="1px" stroke-dasharray="none" clip-rule="evenodd" stroke="none" fill-rule="evenodd" stroke-linejoin="miter" stroke-miterlimit="4" fill="#000000" d="M94.622,65.299C94.622,66.479,94.177,67.495,93.28,68.354L54.804,105.319C53.907,106.183,52.841,106.613,51.618,106.613C50.389,106.613,49.329,106.183,48.437,105.319C47.54,104.46,47.089,103.443,47.089,102.263L47.089,81.609L15.404,81.609C14.175,81.609,13.115,81.18,12.218,80.321C11.321,79.456,10.875,78.439,10.875,77.26L10.875,53.338C10.875,52.158,11.321,51.142,12.218,50.277C13.115,49.418,14.175,48.989,15.404,48.989L47.089,48.989L47.089,28.334C47.089,27.155,47.54,26.138,48.437,25.279C49.329,24.415,50.389,23.985,51.618,23.985C52.841,23.985,53.907,24.415,54.804,25.279L93.28,62.243C94.177,63.102,94.622,64.119,94.622,65.299ZM94.622,65.299"/>
  <path stroke-linecap="butt" stroke-miterlimit="4" stroke-linejoin="miter" stroke-dasharray="none" stroke="none" stroke-opacity="1" fill-opacity="1" fill-rule="evenodd" clip-rule="evenodd" fill="#000000" stroke-width="1px" d="M103.292,108.735L79.621,108.735C76.614,108.735,74.184,106.304,74.184,103.298C74.184,100.291,76.614,97.861,79.621,97.861L103.292,97.861C106.293,97.861,108.735,95.42,108.735,92.424L108.735,38.057C108.735,35.061,106.293,32.62,103.292,32.62L79.621,32.62C76.614,32.62,74.184,30.19,74.184,27.184C74.184,24.177,76.614,21.747,79.621,21.747L103.292,21.747C112.285,21.747,119.608,29.065,119.608,38.057L119.608,92.424C119.608,101.417,112.285,108.735,103.292,108.735ZM103.292,108.735"/>
</g>
  <g id="Medium-M" transform="matrix(1.0,0.0,0.0,1.0,1682.5992954282406,1025.0073893229167)">  <path fill-rule="evenodd" stroke-opacity="1" stroke-linejoin="miter" stroke="none" stroke-width="1px" stroke-dasharray="none" stroke-linecap="butt" fill="#000000" stroke-miterlimit="4" fill-opacity="1" clip-rule="evenodd" d="M94.622,65.299C94.622,66.479,94.177,67.495,93.28,68.354L54.804,105.319C53.907,106.183,52.841,106.613,51.618,106.613C50.389,106.613,49.329,106.183,48.437,105.319C47.54,104.46,47.089,103.443,47.089,102.263L47.089,81.609L15.404,81.609C14.175,81.609,13.115,81.18,12.218,80.321C11.321,79.456,10.875,78.439,10.875,77.26L10.875,53.338C10.875,52.158,11.321,51.142,12.218,50.277C13.115,49.418,14.175,48.989,15.404,48.989L47.089,48.989L47.089,28.334C47.089,27.155,47.54,26.138,48.437,25.279C49.329,24.415,50.389,23.985,51.618,23.985C52.841,23.985,53.907,24.415,54.804,25.279L93.28,62.243C94.177,63.102,94.622,64.119,94.622,65.299ZM94.622,65.299"/>
  <path fill-opacity="1" clip-rule="evenodd" stroke="none" stroke-opacity="1" stroke-linecap="butt" stroke-dasharray="none" stroke-width="1px" stroke-linejoin="miter" stroke-miterlimit="4" fill-rule="evenodd" fill="#000000" d="M103.292,108.735L79.621,108.735C76.614,108.735,74.184,106.304,74.184,103.298C74.184,100.291,76.614,97.861,79.621,97.861L103.292,97.861C106.293,97.861,108.735,95.42,108.735,92.424L108.735,38.057C108.735,35.061,106.293,32.62,103.292,32.62L79.621,32.62C76.614,32.62,74.184,30.19,74.184,27.184C74.184,24.177,76.614,21.747,79.621,21.747L103.292,21.747C112.285,21.747,119.608,29.065,119.608,38.057L119.608,92.424C119.608,101.417,112.285,108.735,103.292,108.735ZM103.292,108.735"/>
</g>
  <g id="Regular-M" transform="matrix(1.0,0.0,0.0,1.0,1385.8892954282405,1025.0073893229167)">  <path fill-opacity="1" stroke-opacity="1" stroke-miterlimit="4" stroke-width="1px" stroke-linecap="butt" clip-rule="evenodd" fill-rule="evenodd" stroke="none" fill="#000000" stroke-dasharray="none" stroke-linejoin="miter" d="M94.622,65.299C94.622,66.479,94.177,67.495,93.28,68.354L54.804,105.319C53.907,106.183,52.841,106.613,51.618,106.613C50.389,106.613,49.329,106.183,48.437,105.319C47.54,104.46,47.089,103.443,47.089,102.263L47.089,81.609L15.404,81.609C14.175,81.609,13.115,81.18,12.218,80.321C11.321,79.456,10.875,78.439,10.875,77.26L10.875,53.338C10.875,52.158,11.321,51.142,12.218,50.277C13.115,49.418,14.175,48.989,15.404,48.989L47.089,48.989L47.089,28.334C47.089,27.155,47.54,26.138,48.437,25.279C49.329,24.415,50.389,23.985,51.618,23.985C52.841,23.985,53.907,24.415,54.804,25.279L93.28,62.243C94.177,63.102,94.622,64.119,94.622,65.299ZM94.622,65.299"/>
  <path stroke-opacity="1" stroke="none" fill="#000000" stroke-width="1px" stroke-miterlimit="4" fill-rule="evenodd" stroke-linecap="butt" stroke-dasharray="none" fill-opacity="1" clip-rule="evenodd" stroke-linejoin="miter" d="M103.292,108.735L79.621,108.735C76.614,108.735,74.184,106.304,74.184,103.298C74.184,100.291,76.614,97.861,79.621,97.861L103.292,97.861C106.293,97.861,108.735,95.42,108.735,92.424L108.735,38.057C108.735,35.061,106.293,32.62,103.292,32.62L79.621,32.62C76.614,32.62,74.184,30.19,74.184,27.184C74.184,24.177,76.614,21.747,79.621,21.747L103.292,21.747C112.285,21.747,119.608,29.065,119.608,38.057L119.608,92.424C119.608,101.417,112.285,108.735,103.292,108.735ZM103.292,108.735"/>
</g>
  <g id="Light-M" transform="matrix(1.0,0.0,0.0,1.0,1089.1792954282407,1025.0073893229167)">  <path fill-rule="evenodd" stroke="none" stroke-miterlimit="4" stroke-width="1px" stroke-opacity="1" clip-rule="evenodd" stroke-linejoin="miter" fill-opacity="1" fill="#000000" stroke-linecap="butt" stroke-dasharray="none" d="M94.622,65.299C94.622,66.479,94.177,67.495,93.28,68.354L54.804,105.319C53.907,106.183,52.841,106.613,51.618,106.613C50.389,106.613,49.329,106.183,48.437,105.319C47.54,104.46,47.089,103.443,47.089,102.263L47.089,81.609L15.404,81.609C14.175,81.609,13.115,81.18,12.218,80.321C11.321,79.456,10.875,78.439,10.875,77.26L10.875,53.338C10.875,52.158,11.321,51.142,12.218,50.277C13.115,49.418,14.175,48.989,15.404,48.989L47.089,48.989L47.089,28.334C47.089,27.155,47.54,26.138,48.437,25.279C49.329,24.415,50.389,23.985,51.618,23.985C52.841,23.985,53.907,24.415,54.804,25.279L93.28,62.243C94.177,63.102,94.622,64.119,94.622,65.299ZM94.622,65.299"/>
  <path stroke="none" stroke-linejoin="miter" fill-opacity="1" stroke-opacity="1" stroke-linecap="butt" fill-rule="evenodd" stroke-miterlimit="4" fill="#000000" stroke-width="1px" clip-rule="evenodd" stroke-dasharray="none" d="M103.292,108.735L79.621,108.735C76.614,108.735,74.184,106.304,74.184,103.298C74.184,100.291,76.614,97.861,79.621,97.861L103.292,97.861C106.293,97.861,108.735,95.42,108.735,92.424L108.735,38.057C108.735,35.061,106.293,32.62,103.292,32.62L79.621,32.62C76.614,32.62,74.184,30.19,74.184,27.184C74.184,24.177,76.614,21.747,79.621,21.747L103.292,21.747C112.285,21.747,119.608,29.065,119.608,38.057L119.608,92.424C119.608,101.417,112.285,108.735,103.292,108.735ZM103.292,108.735"/>
</g>
  <g id="Thin-M" transform="matrix(1.0,0.0,0.0,1.0,792.4692954282408,1025.0073893229167)">  <path fill-rule="evenodd" fill-opacity="1" stroke-width="1px" clip-rule="evenodd" stroke="none" stroke-dasharray="none" stroke-miterlimit="4" stroke-linecap="butt" fill="#000000" stroke-linejoin="miter" stroke-opacity="1" d="M94.622,65.299C94.622,66.479,94.177,67.495,93.28,68.354L54.804,105.319C53.907,106.183,52.841,106.613,51.618,106.613C50.389,106.613,49.329,106.183,48.437,105.319C47.54,104.46,47.089,103.443,47.089,102.263L47.089,81.609L15.404,81.609C14.175,81.609,13.115,81.18,12.218,80.321C11.321,79.456,10.875,78.439,10.875,77.26L10.875,53.338C10.875,52.158,11.321,51.142,12.218,50.277C13.115,49.418,14.175,48.989,15.404,48.989L47.089,48.989L47.089,28.334C47.089,27.155,47.54,26.138,48.437,25.279C49.329,24.415,50.389,23.985,51.618,23.985C52.841,23.985,53.907,24.415,54.804,25.279L93.28,62.243C94.177,63.102,94.622,64.119,94.622,65.299ZM94.622,65.299"/>
  <path stroke-width="1px" stroke-miterlimit="4" fill="#000000" fill-rule="evenodd" fill-opacity="1" stroke-linecap="butt" stroke-opacity="1" stroke="none" stroke-dasharray="none" clip-rule="evenodd" stroke-linejoin="miter" d="M103.292,108.735L79.621,108.735C76.614,108.735,74.184,106.304,74.184,103.298C74.184,100.291,76.614,97.861,79.621,97.861L103.292,97.861C106.293,97.861,108.735,95.42,108.735,92.424L108.735,38.057C108.735,35.061,106.293,32.62,103.292,32.62L79.621,32.62C76.614,32.62,74.184,30.19,74.184,27.184C74.184,24.177,76.614,21.747,79.621,21.747L103.292,21.747C112.285,21.747,119.608,29.065,119.608,38.057L119.608,92.424C119.608,101.417,112.285,108.735,103.292,108.735ZM103.292,108.735"/>
</g>
  <g id="Ultralight-M" transform="matrix(1.0,0.0,0.0,1.0,495.75929542824076,1025.0073893229167)">  <path stroke-miterlimit="4" fill-opacity="1" fill-rule="evenodd" stroke-linecap="butt" clip-rule="evenodd" stroke-opacity="1" stroke-width="1px" stroke="none" stroke-dasharray="none" stroke-linejoin="miter" fill="#000000" d="M94.622,65.299C94.622,66.479,94.177,67.495,93.28,68.354L54.804,105.319C53.907,106.183,52.841,106.613,51.618,106.613C50.389,106.613,49.329,106.183,48.437,105.319C47.54,104.46,47.089,103.443,47.089,102.263L47.089,81.609L15.404,81.609C14.175,81.609,13.115,81.18,12.218,80.321C11.321,79.456,10.875,78.439,10.875,77.26L10.875,53.338C10.875,52.158,11.321,51.142,12.218,50.277C13.115,49.418,14.175,48.989,15.404,48.989L47.089,48.989L47.089,28.334C47.089,27.155,47.54,26.138,48.437,25.279C49.329,24.415,50.389,23.985,51.618,23.985C52.841,23.985,53.907,24.415,54.804,25.279L93.28,62.243C94.177,63.102,94.622,64.119,94.622,65.299ZM94.622,65.299"/>
  <path fill="#000000" fill-opacity="1" stroke-dasharray="none" stroke-width="1px" stroke-linecap="butt" stroke="none" stroke-opacity="1" stroke-linejoin="miter" stroke-miterlimit="4" fill-rule="evenodd" clip-rule="evenodd" d="M103.292,108.735L79.621,108.735C76.614,108.735,74.184,106.304,74.184,103.298C74.184,100.291,76.614,97.861,79.621,97.861L103.292,97.861C106.293,97.861,108.735,95.42,108.735,92.424L108.735,38.057C108.735,35.061,106.293,32.62,103.292,32.62L79.621,32.62C76.614,32.62,74.184,30.19,74.184,27.184C74.184,24.177,76.614,21.747,79.621,21.747L103.292,21.747C112.285,21.747,119.608,29.065,119.608,38.057L119.608,92.424C119.608,101.417,112.285,108.735,103.292,108.735ZM103.292,108.735"/>
</g>
  <g id="Black-S" transform="matrix(1.0,0.0,0.0,1.0,2883.5965283203122,609.277880078125)">  <path stroke-opacity="1" fill="#000000" stroke-width="1px" stroke-linejoin="miter" stroke-linecap="butt" clip-rule="evenodd" fill-opacity="1" fill-rule="evenodd" stroke="none" stroke-miterlimit="4" stroke-dasharray="none" d="M74.089,51.129C74.089,52.053,73.74,52.849,73.038,53.521L42.911,82.464C42.209,83.141,41.375,83.478,40.417,83.478C39.455,83.478,38.625,83.141,37.927,82.464C37.224,81.792,36.871,80.996,36.871,80.072L36.871,63.9L12.061,63.9C11.099,63.9,10.269,63.564,9.567,62.891C8.864,62.214,8.515,61.418,8.515,60.494L8.515,41.764C8.515,40.84,8.864,40.044,9.567,39.367C10.269,38.694,11.099,38.358,12.061,38.358L36.871,38.358L36.871,22.186C36.871,21.262,37.224,20.466,37.927,19.793C38.625,19.117,39.455,18.78,40.417,18.78C41.375,18.78,42.209,19.117,42.911,19.793L73.038,48.737C73.74,49.409,74.089,50.205,74.089,51.129ZM74.089,51.129"/>
  <path stroke-linejoin="miter" fill-rule="evenodd" stroke="none" clip-rule="evenodd" fill-opacity="1" stroke-linecap="butt" fill="#000000" stroke-dasharray="none" stroke-opacity="1" stroke-miterlimit="4" stroke-width="1px" d="M80.878,85.139L62.343,85.139C59.989,85.139,58.086,83.236,58.086,80.882C58.086,78.528,59.989,76.625,62.343,76.625L80.878,76.625C83.228,76.625,85.139,74.714,85.139,72.368L85.139,29.799C85.139,27.453,83.228,25.542,80.878,25.542L62.343,25.542C59.989,25.542,58.086,23.639,58.086,21.285C58.086,18.931,59.989,17.028,62.343,17.028L80.878,17.028C87.919,17.028,93.653,22.758,93.653,29.799L93.653,72.368C93.653,79.409,87.919,85.139,80.878,85.139ZM80.878,85.139"/>
</g>
  <g id="Heavy-S" transform="matrix(1.0,0.0,0.0,1.0,2586.886528320312,609.277880078125)">  <path stroke-linejoin="miter" stroke="none" stroke-opacity="1" fill="#000000" stroke-miterlimit="4" stroke-linecap="butt" stroke-width="1px" fill-rule="evenodd" clip-rule="evenodd" stroke-dasharray="none" fill-opacity="1" d="M74.089,51.129C74.089,52.053,73.74,52.849,73.038,53.521L42.911,82.464C42.209,83.141,41.375,83.478,40.417,83.478C39.455,83.478,38.625,83.141,37.927,82.464C37.224,81.792,36.871,80.996,36.871,80.072L36.871,63.9L12.061,63.9C11.099,63.9,10.269,63.564,9.567,62.891C8.864,62.214,8.515,61.418,8.515,60.494L8.515,41.764C8.515,40.84,8.864,40.044,9.567,39.367C10.269,38.694,11.099,38.358,12.061,38.358L36.871,38.358L36.871,22.186C36.871,21.262,37.224,20.466,37.927,19.793C38.625,19.117,39.455,18.78,40.417,18.78C41.375,18.78,42.209,19.117,42.911,19.793L73.038,48.737C73.74,49.409,74.089,50.205,74.089,51.129ZM74.089,51.129"/>
  <path stroke-linecap="butt" fill-rule="evenodd" stroke-linejoin="miter" fill="#000000" stroke-miterlimit="4" stroke-width="1px" clip-rule="evenodd" stroke="none" stroke-dasharray="none" fill-opacity="1" stroke-opacity="1" d="M80.878,85.139L62.343,85.139C59.989,85.139,58.086,83.236,58.086,80.882C58.086,78.528,59.989,76.625,62.343,76.625L80.878,76.625C83.228,76.625,85.139,74.714,85.139,72.368L85.139,29.799C85.139,27.453,83.228,25.542,80.878,25.542L62.343,25.542C59.989,25.542,58.086,23.639,58.086,21.285C58.086,18.931,59.989,17.028,62.343,17.028L80.878,17.028C87.919,17.028,93.653,22.758,93.653,29.799L93.653,72.368C93.653,79.409,87.919,85.139,80.878,85.139ZM80.878,85.139"/>
</g>
  <g id="Bold-S" transform="matrix(1.0,0.0,0.0,1.0,2290.176528320312,609.277880078125)">  <path stroke-dasharray="none" stroke-opacity="1" stroke="none" clip-rule="evenodd" stroke-miterlimit="4" fill="#000000" stroke-linecap="butt" fill-rule="evenodd" stroke-linejoin="miter" fill-opacity="1" stroke-width="1px" d="M74.089,51.129C74.089,52.053,73.74,52.849,73.038,53.521L42.911,82.464C42.209,83.141,41.375,83.478,40.417,83.478C39.455,83.478,38.625,83.141,37.927,82.464C37.224,81.792,36.871,80.996,36.871,80.072L36.871,63.9L12.061,63.9C11.099,63.9,10.269,63.564,9.567,62.891C8.864,62.214,8.515,61.418,8.515,60.494L8.515,41.764C8.515,40.84,8.864,40.044,9.567,39.367C10.269,38.694,11.099,38.358,12.061,38.358L36.871,38.358L36.871,22.186C36.871,21.262,37.224,20.466,37.927,19.793C38.625,19.117,39.455,18.78,40.417,18.78C41.375,18.78,42.209,19.117,42.911,19.793L73.038,48.737C73.74,49.409,74.089,50.205,74.089,51.129ZM74.089,51.129"/>
  <path fill-rule="evenodd" stroke-width="1px" stroke="none" stroke-linecap="butt" fill="#000000" stroke-linejoin="miter" stroke-dasharray="none" clip-rule="evenodd" stroke-opacity="1" fill-opacity="1" stroke-miterlimit="4" d="M80.878,85.139L62.343,85.139C59.989,85.139,58.086,83.236,58.086,80.882C58.086,78.528,59.989,76.625,62.343,76.625L80.878,76.625C83.228,76.625,85.139,74.714,85.139,72.368L85.139,29.799C85.139,27.453,83.228,25.542,80.878,25.542L62.343,25.542C59.989,25.542,58.086,23.639,58.086,21.285C58.086,18.931,59.989,17.028,62.343,17.028L80.878,17.028C87.919,17.028,93.653,22.758,93.653,29.799L93.653,72.368C93.653,79.409,87.919,85.139,80.878,85.139ZM80.878,85.139"/>
</g>
  <g id="Semibold-S" transform="matrix(1.0,0.0,0.0,1.0,1993.4665283203124,609.277880078125)">  <path stroke-opacity="1" fill-opacity="1" stroke-linecap="butt" stroke-width="1px" stroke-dasharray="none" clip-rule="evenodd" stroke="none" fill-rule="evenodd" stroke-linejoin="miter" stroke-miterlimit="4" fill="#000000" d="M74.089,51.129C74.089,52.053,73.74,52.849,73.038,53.521L42.911,82.464C42.209,83.141,41.375,83.478,40.417,83.478C39.455,83.478,38.625,83.141,37.927,82.464C37.224,81.792,36.871,80.996,36.871,80.072L36.871,63.9L12.061,63.9C11.099,63.9,10.269,63.564,9.567,62.891C8.864,62.214,8.515,61.418,8.515,60.494L8.515,41.764C8.515,40.84,8.864,40.044,9.567,39.367C10.269,38.694,11.099,38.358,12.061,38.358L36.871,38.358L36.871,22.186C36.871,21.262,37.224,20.466,37.927,19.793C38.625,19.117,39.455,18.78,40.417,18.78C41.375,18.78,42.209,19.117,42.911,19.793L73.038,48.737C73.74,49.409,74.089,50.205,74.089,51.129ZM74.089,51.129"/>
  <path stroke-linecap="butt" stroke-miterlimit="4" stroke-linejoin="miter" stroke-dasharray="none" stroke="none" stroke-opacity="1" fill-opacity="1" fill-rule="evenodd" clip-rule="evenodd" fill="#000000" stroke-width="1px" d="M80.878,85.139L62.343,85.139C59.989,85.139,58.086,83.236,58.086,80.882C58.086,78.528,59.989,76.625,62.343,76.625L80.878,76.625C83.228,76.625,85.139,74.714,85.139,72.368L85.139,29.799C85.139,27.453,83.228,25.542,80.878,25.542L62.343,25.542C59.989,25.542,58.086,23.639,58.086,21.285C58.086,18.931,59.989,17.028,62.343,17.028L80.878,17.028C87.919,17.028,93.653,22.758,93.653,29.799L93.653,72.368C93.653,79.409,87.919,85.139,80.878,85.139ZM80.878,85.139"/>
</g>
  <g id="Medium-S" transform="matrix(1.0,0.0,0.0,1.0,1696.7565283203123,609.277880078125)">  <path fill-rule="evenodd" stroke-opacity="1" stroke-linejoin="miter" stroke="none" stroke-width="1px" stroke-dasharray="none" stroke-linecap="butt" fill="#000000" stroke-miterlimit="4" fill-opacity="1" clip-rule="evenodd" d="M74.089,51.129C74.089,52.053,73.74,52.849,73.038,53.521L42.911,82.464C42.209,83.141,41.375,83.478,40.417,83.478C39.455,83.478,38.625,83.141,37.927,82.464C37.224,81.792,36.871,80.996,36.871,80.072L36.871,63.9L12.061,63.9C11.099,63.9,10.269,63.564,9.567,62.891C8.864,62.214,8.515,61.418,8.515,60.494L8.515,41.764C8.515,40.84,8.864,40.044,9.567,39.367C10.269,38.694,11.099,38.358,12.061,38.358L36.871,38.358L36.871,22.186C36.871,21.262,37.224,20.466,37.927,19.793C38.625,19.117,39.455,18.78,40.417,18.78C41.375,18.78,42.209,19.117,42.911,19.793L73.038,48.737C73.74,49.409,74.089,50.205,74.089,51.129ZM74.089,51.129"/>
  <path fill-opacity="1" clip-rule="evenodd" stroke="none" stroke-opacity="1" stroke-linecap="butt" stroke-dasharray="none" stroke-width="1px" stroke-linejoin="miter" stroke-miterlimit="4" fill-rule="evenodd" fill="#000000" d="M80.878,85.139L62.343,85.139C59.989,85.139,58.086,83.236,58.086,80.882C58.086,78.528,59.989,76.625,62.343,76.625L80.878,76.625C83.228,76.625,85.139,74.714,85.139,72.368L85.139,29.799C85.139,27.453,83.228,25.542,80.878,25.542L62.343,25.542C59.989,25.542,58.086,23.639,58.086,21.285C58.086,18.931,59.989,17.028,62.343,17.028L80.878,17.028C87.919,17.028,93.653,22.758,93.653,29.799L93.653,72.368C93.653,79.409,87.919,85.139,80.878,85.139ZM80.878,85.139"/>
</g>
  <g id="Regular-S" transform="matrix(1.0,0.0,0.0,1.0,1400.0465283203123,609.277880078125)">  <path fill-opacity="1" stroke-opacity="1" stroke-miterlimit="4" stroke-width="1px" stroke-linecap="butt" clip-rule="evenodd" fill-rule="evenodd" stroke="none" fill="#000000" stroke-dasharray="none" stroke-linejoin="miter" d="M74.089,51.129C74.089,52.053,73.74,52.849,73.038,53.521L42.911,82.464C42.209,83.141,41.375,83.478,40.417,83.478C39.455,83.478,38.625,83.141,37.927,82.464C37.224,81.792,36.871,80.996,36.871,80.072L36.871,63.9L12.061,63.9C11.099,63.9,10.269,63.564,9.567,62.891C8.864,62.214,8.515,61.418,8.515,60.494L8.515,41.764C8.515,40.84,8.864,40.044,9.567,39.367C10.269,38.694,11.099,38.358,12.061,38.358L36.871,38.358L36.871,22.186C36.871,21.262,37.224,20.466,37.927,19.793C38.625,19.117,39.455,18.78,40.417,18.78C41.375,18.78,42.209,19.117,42.911,19.793L73.038,48.737C73.74,49.409,74.089,50.205,74.089,51.129ZM74.089,51.129"/>
  <path stroke-opacity="1" stroke="none" fill="#000000" stroke-width="1px" stroke-miterlimit="4" fill-rule="evenodd" stroke-linecap="butt" stroke-dasharray="none" fill-opacity="1" clip-rule="evenodd" stroke-linejoin="miter" d="M80.878,85.139L62.343,85.139C59.989,85.139,58.086,83.236,58.086,80.882C58.086,78.528,59.989,76.625,62.343,76.625L80.878,76.625C83.228,76.625,85.139,74.714,85.139,72.368L85.139,29.799C85.139,27.453,83.228,25.542,80.878,25.542L62.343,25.542C59.989,25.542,58.086,23.639,58.086,21.285C58.086,18.931,59.989,17.028,62.343,17.028L80.878,17.028C87.919,17.028,93.653,22.758,93.653,29.799L93.653,72.368C93.653,79.409,87.919,85.139,80.878,85.139ZM80.878,85.139"/>
</g>
  <g id="Light-S" transform="matrix(1.0,0.0,0.0,1.0,1103.3365283203125,609.277880078125)">  <path fill-rule="evenodd" stroke="none" stroke-miterlimit="4" stroke-width="1px" stroke-opacity="1" clip-rule="evenodd" stroke-linejoin="miter" fill-opacity="1" fill="#000000" stroke-linecap="butt" stroke-dasharray="none" d="M74.089,51.129C74.089,52.053,73.74,52.849,73.038,53.521L42.911,82.464C42.209,83.141,41.375,83.478,40.417,83.478C39.455,83.478,38.625,83.141,37.927,82.464C37.224,81.792,36.871,80.996,36.871,80.072L36.871,63.9L12.061,63.9C11.099,63.9,10.269,63.564,9.567,62.891C8.864,62.214,8.515,61.418,8.515,60.494L8.515,41.764C8.515,40.84,8.864,40.044,9.567,39.367C10.269,38.694,11.099,38.358,12.061,38.358L36.871,38.358L36.871,22.186C36.871,21.262,37.224,20.466,37.927,19.793C38.625,19.117,39.455,18.78,40.417,18.78C41.375,18.78,42.209,19.117,42.911,19.793L73.038,48.737C73.74,49.409,74.089,50.205,74.089,51.129ZM74.089,51.129"/>
  <path stroke="none" stroke-linejoin="miter" fill-opacity="1" stroke-opacity="1" stroke-linecap="butt" fill-rule="evenodd" stroke-miterlimit="4" fill="#000000" stroke-width="1px" clip-rule="evenodd" stroke-dasharray="none" d="M80.878,85.139L62.343,85.139C59.989,85.139,58.086,83.236,58.086,80.882C58.086,78.528,59.989,76.625,62.343,76.625L80.878,76.625C83.228,76.625,85.139,74.714,85.139,72.368L85.139,29.799C85.139,27.453,83.228,25.542,80.878,25.542L62.343,25.542C59.989,25.542,58.086,23.639,58.086,21.285C58.086,18.931,59.989,17.028,62.343,17.028L80.878,17.028C87.919,17.028,93.653,22.758,93.653,29.799L93.653,72.368C93.653,79.409,87.919,85.139,80.878,85.139ZM80.878,85.139"/>
</g>
  <g id="Thin-S" transform="matrix(1.0,0.0,0.0,1.0,806.6265283203126,609.277880078125)">  <path fill-rule="evenodd" fill-opacity="1" stroke-width="1px" clip-rule="evenodd" stroke="none" stroke-dasharray="none" stroke-miterlimit="4" stroke-linecap="butt" fill="#000000" stroke-linejoin="miter" stroke-opacity="1" d="M74.089,51.129C74.089,52.053,73.74,52.849,73.038,53.521L42.911,82.464C42.209,83.141,41.375,83.478,40.417,83.478C39.455,83.478,38.625,83.141,37.927,82.464C37.224,81.792,36.871,80.996,36.871,80.072L36.871,63.9L12.061,63.9C11.099,63.9,10.269,63.564,9.567,62.891C8.864,62.214,8.515,61.418,8.515,60.494L8.515,41.764C8.515,40.84,8.864,40.044,9.567,39.367C10.269,38.694,11.099,38.358,12.061,38.358L36.871,38.358L36.871,22.186C36.871,21.262,37.224,20.466,37.927,19.793C38.625,19.117,39.455,18.78,40.417,18.78C41.375,18.78,42.209,19.117,42.911,19.793L73.038,48.737C73.74,49.409,74.089,50.205,74.089,51.129ZM74.089,51.129"/>
  <path stroke-width="1px" stroke-miterlimit="4" fill="#000000" fill-rule="evenodd" fill-opacity="1" stroke-linecap="butt" stroke-opacity="1" stroke="none" stroke-dasharray="none" clip-rule="evenodd" stroke-linejoin="miter" d="M80.878,85.139L62.343,85.139C59.989,85.139,58.086,83.236,58.086,80.882C58.086,78.528,59.989,76.625,62.343,76.625L80.878,76.625C83.228,76.625,85.139,74.714,85.139,72.368L85.139,29.799C85.139,27.453,83.228,25.542,80.878,25.542L62.343,25.542C59.989,25.542,58.086,23.639,58.086,21.285C58.086,18.931,59.989,17.028,62.343,17.028L80.878,17.028C87.919,17.028,93.653,22.758,93.653,29.799L93.653,72.368C93.653,79.409,87.919,85.139,80.878,85.139ZM80.878,85.139"/>
</g>
  <g id="Ultralight-S" transform="matrix(1.0,0.0,0.0,1.0,509.9165283203125,609.277880078125)">  <path stroke-miterlimit="4" fill-opacity="1" fill-rule="evenodd" stroke-linecap="butt" clip-rule="evenodd" stroke-opacity="1" stroke-width="1px" stroke="none" stroke-dasharray="none" stroke-linejoin="miter" fill="#000000" d="M74.089,51.129C74.089,52.053,73.74,52.849,73.038,53.521L42.911,82.464C42.209,83.141,41.375,83.478,40.417,83.478C39.455,83.478,38.625,83.141,37.927,82.464C37.224,81.792,36.871,80.996,36.871,80.072L36.871,63.9L12.061,63.9C11.099,63.9,10.269,63.564,9.567,62.891C8.864,62.214,8.515,61.418,8.515,60.494L8.515,41.764C8.515,40.84,8.864,40.044,9.567,39.367C10.269,38.694,11.099,38.358,12.061,38.358L36.871,38.358L36.871,22.186C36.871,21.262,37.224,20.466,37.927,19.793C38.625,19.117,39.455,18.78,40.417,18.78C41.375,18.78,42.209,19.117,42.911,19.793L73.038,48.737C73.74,49.409,74.089,50.205,74.089,51.129ZM74.089,51.129"/>
  <path fill="#000000" fill-opacity="1" stroke-dasharray="none" stroke-width="1px" stroke-linecap="butt" stroke="none" stroke-opacity="1" stroke-linejoin="miter" stroke-miterlimit="4" fill-rule="evenodd" clip-rule="evenodd" d="M80.878,85.139L62.343,85.139C59.989,85.139,58.086,83.236,58.086,80.882C58.086,78.528,59.989,76.625,62.343,76.625L80.878,76.625C83.228,76.625,85.139,74.714,85.139,72.368L85.139,29.799C85.139,27.453,83.228,25.542,80.878,25.542L62.343,25.542C59.989,25.542,58.086,23.639,58.086,21.285C58.086,18.931,59.989,17.028,62.343,17.028L80.878,17.028C87.919,17.028,93.653,22.758,93.653,29.799L93.653,72.368C93.653,79.409,87.919,85.139,80.878,85.139ZM80.878,85.139"/>
</g>
 </g>
</svg>
