<?xml version="1.0" encoding="UTF-8"?>
<!-- Generator: CustomSymbols v2.6.1.40 by @serious_bret https://bretlester.com/app_content/CustomSymbols/ -->
<!-- Guides: Left/Right 0.079/0.081 Cap/Base 0.149/0.157 -->
<!-- Settings: RefScale 1.0 Min/Max Stroke Scales 0.5/2.21 -->
<!DOCTYPE svg
PUBLIC "-//W3C//DTD SVG 1.1//EN"
       "http://www.w3.org/Graphics/SVG/1.1/DTD/svg11.dtd">
<svg version="1.1" xmlns="http://www.w3.org/2000/svg" xmlns:xlink="http://www.w3.org/1999/xlink" width="3300" height="2200">
<![CDATA[<svg width="24" height="24" viewBox="0 0 24 24" fill="none" xmlns="http://www.w3.org/2000/svg">
<path d="M6.85316 6.15104C6.85973 6.15145 6.85645 6.15145 6.85316 6.15104V6.15104ZM21.2796 8.04269C20.8441 6.97902 19.9627 5.83194 19.2706 5.46779C19.8338 6.58943 20.1602 7.71524 20.2845 8.55449C20.2845 8.55449 20.2845 8.56033 20.2866 8.5716C19.1544 5.70388 17.2344 4.54762 15.6662 2.02987C15.587 1.90265 15.5077 1.77501 15.4306 1.6407C15.3895 1.57187 15.3542 1.50138 15.3201 1.43005C15.2553 1.30241 15.2052 1.1681 15.1707 1.02878C15.1715 1.01502 15.1617 1.00292 15.1481 1.00125C15.142 0.999583 15.1354 0.999583 15.1292 1.00125L15.1243 1.00417L15.1169 1.00834L15.121 1.0025C12.8948 2.3277 11.9715 4.64731 11.7342 6.12392C11.0466 6.16355 10.3725 6.33833 9.7502 6.63824C9.63279 6.69747 9.57819 6.83679 9.62335 6.96151C9.66892 7.09498 9.81178 7.16548 9.94314 7.11959L9.96449 7.11084C10.5076 6.85013 11.0938 6.69455 11.6932 6.652L11.7515 6.64783C11.8336 6.64282 11.9157 6.63949 11.9978 6.63865C12.4843 6.63448 12.9691 6.70247 13.4367 6.83971C13.4642 6.84805 13.4909 6.85722 13.5188 6.86598C13.5964 6.88976 13.6731 6.91604 13.7495 6.94399C13.8053 6.96484 13.8607 6.9857 13.9157 7.00989C13.9605 7.02824 14.0052 7.0466 14.0492 7.0662C14.1181 7.09749 14.1867 7.13044 14.2544 7.16423C14.2852 7.17966 14.316 7.19509 14.3468 7.21136C14.4125 7.2464 14.4773 7.28311 14.5414 7.32106C14.5828 7.34526 14.6239 7.37028 14.6645 7.39615C15.3899 7.85206 15.9917 8.48483 16.4158 9.23691C15.8821 8.85524 14.9236 8.47816 14.0011 8.64125C17.603 10.4708 16.6358 16.771 11.6452 16.5332C11.2006 16.5148 10.7613 16.4285 10.3422 16.2779C10.2428 16.24 10.1451 16.1991 10.0482 16.1557C9.99158 16.1294 9.93493 16.1027 9.8791 16.0723C8.65411 15.4324 7.64423 14.2194 7.5182 12.7457C7.5182 12.7457 7.98004 10.9959 10.8278 10.9959C11.1357 10.9959 12.0154 10.1233 12.0319 9.86968C12.0282 9.78625 10.2855 9.08257 9.60611 8.40224C9.2428 8.03893 9.07038 7.86374 8.91767 7.73235C8.83515 7.66102 8.74853 7.5947 8.65863 7.53338C8.43038 6.72166 8.42053 5.86281 8.6303 5.04608C7.60154 5.52202 6.80144 6.27451 6.22014 6.93856H6.21522C5.81824 6.42759 5.84575 4.74242 5.86915 4.39078C5.86422 4.36868 5.57275 4.54428 5.53457 4.57056C5.1844 4.82501 4.85681 5.1099 4.55589 5.42274C4.21352 5.77563 3.90112 6.15688 3.62114 6.56274C2.97704 7.49 2.52054 8.53781 2.27751 9.64527C2.27505 9.65653 2.18186 10.0711 2.1133 10.583C2.10181 10.6626 2.09114 10.7427 2.08128 10.8224C2.05788 10.9763 2.04023 11.144 2.02217 11.4064C2.02217 11.4164 2.02217 11.4264 2.02012 11.4364C2.01273 11.5494 2.00616 11.6621 2 11.7751C2 11.7922 2 11.8093 2 11.8268C2 17.4454 6.48328 22 12.0134 22C16.9659 22 21.0785 18.3468 21.8835 13.5483C21.9003 13.4181 21.9139 13.2872 21.9291 13.1558C22.1282 11.4109 21.9069 9.57728 21.2796 8.04394V8.04269Z" fill="black"/>
</svg>
]]>
 <g id="Notes">
  <rect height="2200" id="artboard" style="fill:white;opacity:1" width="3300" x="0" y="0"/>
  <line id="" style="fill:none;stroke:black;opacity:1;stroke-width:0.5;" x1="263" x2="3036" y1="292" y2="292"/>
  <text id="reftext1" style="stroke:none;fill:black;font-family:-apple-system,&quot;SF Pro Display&quot;,&quot;SF Pro Text&quot;,Helvetica,sans-serif;font-weight:bold;" transform="matrix(1 0 0 1 263 322)">Weight/Scale Variations</text>
  <text id="reftext2" style="stroke:none;fill:black;font-family:-apple-system,&quot;SF Pro Display&quot;,&quot;SF Pro Text&quot;,Helvetica,sans-serif;text-anchor:middle;" transform="matrix(1 0 0 1 559.711 322)">Ultralight</text>
  <text style="stroke:none;fill:black;font-family:-apple-system,&quot;SF Pro Display&quot;,&quot;SF Pro Text&quot;,Helvetica,sans-serif;text-anchor:middle;" transform="matrix(1 0 0 1 856.422 322)">Thin</text>
  <text style="stroke:none;fill:black;font-family:-apple-system,&quot;SF Pro Display&quot;,&quot;SF Pro Text&quot;,Helvetica,sans-serif;text-anchor:middle;" transform="matrix(1 0 0 1 1153.13 322)">Light</text>
  <text style="stroke:none;fill:black;font-family:-apple-system,&quot;SF Pro Display&quot;,&quot;SF Pro Text&quot;,Helvetica,sans-serif;text-anchor:middle;" transform="matrix(1 0 0 1 1449.84 322)">Regular</text>
  <text style="stroke:none;fill:black;font-family:-apple-system,&quot;SF Pro Display&quot;,&quot;SF Pro Text&quot;,Helvetica,sans-serif;text-anchor:middle;" transform="matrix(1 0 0 1 1746.56 322)">Medium</text>
  <text style="stroke:none;fill:black;font-family:-apple-system,&quot;SF Pro Display&quot;,&quot;SF Pro Text&quot;,Helvetica,sans-serif;text-anchor:middle;" transform="matrix(1 0 0 1 2043.27 322)">Semibold</text>
  <text style="stroke:none;fill:black;font-family:-apple-system,&quot;SF Pro Display&quot;,&quot;SF Pro Text&quot;,Helvetica,sans-serif;text-anchor:middle;" transform="matrix(1 0 0 1 2339.98 322)">Bold</text>
  <text style="stroke:none;fill:black;font-family:-apple-system,&quot;SF Pro Display&quot;,&quot;SF Pro Text&quot;,Helvetica,sans-serif;text-anchor:middle;" transform="matrix(1 0 0 1 2636.69 322)">Heavy</text>
  <text style="stroke:none;fill:black;font-family:-apple-system,&quot;SF Pro Display&quot;,&quot;SF Pro Text&quot;,Helvetica,sans-serif;text-anchor:middle;" transform="matrix(1 0 0 1 2933.4 322)">Black</text>
  <line id="" style="fill:none;stroke:black;opacity:1;stroke-width:0.5;" x1="263" x2="3036" y1="1903" y2="1903"/>
  <g id="" transform="matrix(1 0 0 1 263 1933)">
   <path d="M9.24805 0.830078C13.5547 0.830078 17.1387-2.74414 17.1387-7.05078C17.1387-11.3574 13.5449-14.9316 9.23828-14.9316C4.94141-14.9316 1.36719-11.3574 1.36719-7.05078C1.36719-2.74414 4.95117 0.830078 9.24805 0.830078ZM9.24805-0.654297C5.70312-0.654297 2.87109-3.49609 2.87109-7.05078C2.87109-10.6055 5.69336-13.4473 9.23828-13.4473C12.793-13.4473 15.6348-10.6055 15.6445-7.05078C15.6543-3.49609 12.8027-0.654297 9.24805-0.654297ZM6.39648-6.31836L8.50586-6.31836L8.50586-4.19922C8.50586-3.75977 8.79883-3.45703 9.22852-3.45703C9.67773-3.45703 9.9707-3.75977 9.9707-4.19922L9.9707-6.31836L12.0996-6.31836C12.5391-6.31836 12.8418-6.61133 12.8418-7.04102C12.8418-7.48047 12.5391-7.7832 12.0996-7.7832L9.9707-7.7832L9.9707-9.89258C9.9707-10.3418 9.67773-10.6445 9.22852-10.6445C8.79883-10.6445 8.50586-10.3418 8.50586-9.89258L8.50586-7.7832L6.39648-7.7832C5.94727-7.7832 5.64453-7.48047 5.64453-7.04102C5.64453-6.61133 5.94727-6.31836 6.39648-6.31836Z"/>
  </g>
  <g id="" transform="matrix(1 0 0 1 281.506 1933)">
   <path d="M11.709 2.91016C17.1582 2.91016 21.6699-1.61133 21.6699-7.05078C21.6699-12.5 17.1484-17.0117 11.6992-17.0117C6.25977-17.0117 1.74805-12.5 1.74805-7.05078C1.74805-1.61133 6.26953 2.91016 11.709 2.91016ZM11.709 1.25C7.09961 1.25 3.41797-2.44141 3.41797-7.05078C3.41797-11.6602 7.08984-15.3516 11.6992-15.3516C16.3086-15.3516 20-11.6602 20.0098-7.05078C20.0195-2.44141 16.3184 1.25 11.709 1.25ZM7.98828-6.23047L10.8789-6.23047L10.8789-3.32031C10.8789-2.83203 11.2109-2.5 11.6895-2.5C12.1777-2.5 12.5195-2.83203 12.5195-3.32031L12.5195-6.23047L15.4297-6.23047C15.918-6.23047 16.25-6.5625 16.25-7.04102C16.25-7.5293 15.918-7.87109 15.4297-7.87109L12.5195-7.87109L12.5195-10.7617C12.5195-11.2695 12.1777-11.6016 11.6895-11.6016C11.2109-11.6016 10.8789-11.2598 10.8789-10.7617L10.8789-7.87109L7.98828-7.87109C7.48047-7.87109 7.14844-7.5293 7.14844-7.04102C7.14844-6.5625 7.49023-6.23047 7.98828-6.23047Z"/>
  </g>
  <g id="" transform="matrix(1 0 0 1 304.924 1933)">
   <path d="M14.9707 5.66406C21.9336 5.66406 27.6953-0.0976562 27.6953-7.05078C27.6953-14.0137 21.9238-19.7754 14.9609-19.7754C8.00781-19.7754 2.25586-14.0137 2.25586-7.05078C2.25586-0.0976562 8.01758 5.66406 14.9707 5.66406ZM14.9707 3.84766C8.93555 3.84766 4.08203-1.01562 4.08203-7.05078C4.08203-13.0957 8.92578-17.9492 14.9609-17.9492C21.0059-17.9492 25.8594-13.0957 25.8691-7.05078C25.8789-1.01562 21.0156 3.84766 14.9707 3.84766ZM10.0586-6.14258L14.0625-6.14258L14.0625-2.12891C14.0625-1.5918 14.4336-1.2207 14.9512-1.2207C15.4883-1.2207 15.8594-1.5918 15.8594-2.12891L15.8594-6.14258L19.8828-6.14258C20.4102-6.14258 20.791-6.51367 20.791-7.03125C20.791-7.56836 20.4199-7.94922 19.8828-7.94922L15.8594-7.94922L15.8594-11.9531C15.8594-12.5098 15.4883-12.8809 14.9512-12.8809C14.4336-12.8809 14.0625-12.5 14.0625-11.9531L14.0625-7.94922L10.0586-7.94922C9.50195-7.94922 9.13086-7.56836 9.13086-7.03125C9.13086-6.51367 9.51172-6.14258 10.0586-6.14258Z"/>
  </g>
  <text style="stroke:none;fill:black;font-family:-apple-system,&quot;SF Pro Display&quot;,&quot;SF Pro Text&quot;,Helvetica,sans-serif;font-weight:bold;" transform="matrix(1 0 0 1 263 1953)">Design Variations</text>
  <text style="stroke:none;fill:black;font-family:-apple-system,&quot;SF Pro Display&quot;,&quot;SF Pro Text&quot;,Helvetica,sans-serif;" transform="matrix(1 0 0 1 263 1971)">Symbols are supported in up to nine weights and three scales.</text>
  <text style="stroke:none;fill:black;font-family:-apple-system,&quot;SF Pro Display&quot;,&quot;SF Pro Text&quot;,Helvetica,sans-serif;" transform="matrix(1 0 0 1 263 1989)">For optimal layout with text and other symbols, vertically align</text>
  <text style="stroke:none;fill:black;font-family:-apple-system,&quot;SF Pro Display&quot;,&quot;SF Pro Text&quot;,Helvetica,sans-serif;" transform="matrix(1 0 0 1 263 2007)">symbols with the adjacent text.</text>
  <line id="" style="fill:none;stroke:#00AEEF;stroke-width:0.5;opacity:1.0;" x1="776" x2="776" y1="1919" y2="1933"/>
  <g id="" transform="matrix(1 0 0 1 776 1933)">
   <path d="M3.31055 0.126953C3.82812 0.126953 4.08203-0.0683594 4.26758-0.605469L5.52734-4.0625L11.2891-4.0625L12.5488-0.605469C12.7344-0.0683594 12.9883 0.126953 13.4961 0.126953C14.0137 0.126953 14.3457-0.185547 14.3457-0.673828C14.3457-0.839844 14.3164-0.986328 14.2383-1.20117L9.6582-13.3887C9.43359-13.9941 9.0332-14.2871 8.4082-14.2871C7.80273-14.2871 7.39258-13.9941 7.17773-13.3984L2.59766-1.19141C2.51953-0.976562 2.49023-0.830078 2.49023-0.664062C2.49023-0.175781 2.80273 0.126953 3.31055 0.126953ZM6.00586-5.53711L8.37891-12.1094L8.42773-12.1094L10.8008-5.53711Z"/>
  </g>
  <line id="" style="fill:none;stroke:#00AEEF;stroke-width:0.5;opacity:1.0;" x1="792.836" x2="792.836" y1="1919" y2="1933"/>
  <text style="stroke:none;fill:black;font-family:-apple-system,&quot;SF Pro Display&quot;,&quot;SF Pro Text&quot;,Helvetica,sans-serif;font-weight:bold;" transform="matrix(1 0 0 1 776 1953)">Margins</text>
  <text style="stroke:none;fill:black;font-family:-apple-system,&quot;SF Pro Display&quot;,&quot;SF Pro Text&quot;,Helvetica,sans-serif;" transform="matrix(1 0 0 1 776 1971)">Leading and trailing margins on the left and right side of each symbol</text>
  <text style="stroke:none;fill:black;font-family:-apple-system,&quot;SF Pro Display&quot;,&quot;SF Pro Text&quot;,Helvetica,sans-serif;" transform="matrix(1 0 0 1 776 1989)">can be adjusted by modifying the x-location of the margin guidelines.</text>
  <text style="stroke:none;fill:black;font-family:-apple-system,&quot;SF Pro Display&quot;,&quot;SF Pro Text&quot;,Helvetica,sans-serif;" transform="matrix(1 0 0 1 776 2007)">Modifications are automatically applied proportionally to all</text>
  <text style="stroke:none;fill:black;font-family:-apple-system,&quot;SF Pro Display&quot;,&quot;SF Pro Text&quot;,Helvetica,sans-serif;" transform="matrix(1 0 0 1 776 2025)">scales and weights.</text>
  <g id="" transform="matrix(1 0 0 1 1289 1933)">
   <path d="M2.8418 1.86523L4.54102 3.57422C5.40039 4.44336 6.38672 4.38477 7.31445 3.35938L17.4902-7.85156C17.7539-7.76367 18.0273-7.7832 18.3398-7.8418L19.4043-8.03711L20.0684-7.36328L20.0293-6.80664C19.9902-6.30859 20.1172-5.92773 20.6055-5.44922L21.3672-4.70703C21.8457-4.22852 22.4609-4.19922 22.9297-4.66797L25.8398-7.58789C26.3086-8.05664 26.2891-8.65234 25.8105-9.13086L25.0391-9.89258C24.5605-10.3711 24.1895-10.5273 23.7109-10.4883L23.1348-10.4395L22.4902-11.0742L22.7344-12.1973C22.8613-12.7637 22.7051-13.2031 22.1191-13.7891L19.9219-15.9766C16.582-19.2969 12.1484-19.2188 9.25781-16.3281C8.83789-15.918 8.80859-15.3418 9.04297-14.9512C9.27734-14.5898 9.73633-14.3555 10.3809-14.5215C11.8457-14.8633 13.3691-14.9219 14.7949-13.9844L14.209-12.5293C14.0137-12.0508 13.9844-11.6504 14.1113-11.2891L3.04688-0.898438C2.06055 0.0195312 1.98242 0.996094 2.8418 1.86523ZM10.752-15.957C13.1836-17.7344 16.4746-17.4316 18.7012-15.2051L21.1328-12.793C21.3672-12.5586 21.4062-12.373 21.3379-12.0312L21.0156-10.5469L22.5195-9.0625L23.5059-9.12109C23.7598-9.13086 23.8379-9.11133 24.0332-8.91602L24.6094-8.33984L22.168-5.89844L21.5918-6.47461C21.3965-6.66992 21.3672-6.74805 21.377-7.01172L21.4453-7.98828L19.9512-9.47266L18.4277-9.21875C18.1055-9.15039 17.959-9.17969 17.7148-9.41406L15.7129-11.416C15.459-11.6504 15.4297-11.8164 15.5859-12.1875L16.4648-14.2773C14.9023-15.7324 12.8711-16.3574 10.8398-15.7617C10.6836-15.7227 10.625-15.8496 10.752-15.957ZM5.27344 2.30469L4.10156 1.14258C3.63281 0.683594 3.74023 0.341797 4.14062-0.0195312L14.9512-10.1953L16.416-8.71094L6.42578 2.27539C6.07422 2.67578 5.74219 2.77344 5.27344 2.30469Z"/>
  </g>
  <text style="stroke:none;fill:black;font-family:-apple-system,&quot;SF Pro Display&quot;,&quot;SF Pro Text&quot;,Helvetica,sans-serif;font-weight:bold;" transform="matrix(1 0 0 1 1289 1953)">Exporting</text>
  <text style="stroke:none;fill:black;font-family:-apple-system,&quot;SF Pro Display&quot;,&quot;SF Pro Text&quot;,Helvetica,sans-serif;" transform="matrix(1 0 0 1 1289 1971)">Symbols should be outlined when exporting to ensure the</text>
  <text style="stroke:none;fill:black;font-family:-apple-system,&quot;SF Pro Display&quot;,&quot;SF Pro Text&quot;,Helvetica,sans-serif;" transform="matrix(1 0 0 1 1289 1989)">design is preserved when submitting to Xcode.</text>
  <text id="template-version" style="stroke:none;fill:black;font-family:-apple-system,&quot;SF Pro Display&quot;,&quot;SF Pro Text&quot;,Helvetica,sans-serif;text-anchor:end;" transform="matrix(1 0 0 1 3036 1933)">Template v.2.0</text>
  <text style="stroke:none;fill:black;font-family:-apple-system,&quot;SF Pro Display&quot;,&quot;SF Pro Text&quot;,Helvetica,sans-serif;text-anchor:end;" transform="matrix(1 0 0 1 3036 1951)">Requires Xcode 12 or greater</text>
  <text style="stroke:none;fill:black;font-family:-apple-system,&quot;SF Pro Display&quot;,&quot;SF Pro Text&quot;,Helvetica,sans-serif;" transform="matrix(1 0 0 1 263 726)">Small</text>
  <text style="stroke:none;fill:black;font-family:-apple-system,&quot;SF Pro Display&quot;,&quot;SF Pro Text&quot;,Helvetica,sans-serif;" transform="matrix(1 0 0 1 263 1156)">Medium</text>
  <text style="stroke:none;fill:black;font-family:-apple-system,&quot;SF Pro Display&quot;,&quot;SF Pro Text&quot;,Helvetica,sans-serif;" transform="matrix(1 0 0 1 263 1586)">Large</text>
 </g>
 <g id="Guides">
  <g id="H-reference" style="fill:#27AAE1;stroke:none;" transform="matrix(1 0 0 1 339 696)">
   <path d="M0.976562 0L3.66211 0L12.9883-24.4629L45.752-24.4629L55.127 0L57.7637 0L30.6152-70.459L28.125-70.459ZM29.3457-67.1387L29.4434-67.1387L44.873-26.709L13.8672-26.709Z"/>
  </g>
  <line id="Baseline-S" style="fill:none;stroke:#27AAE1;opacity:1;stroke-width:0.5;" x1="263" x2="3036" y1="696" y2="696"/>
  <line id="Capline-S" style="fill:none;stroke:#27AAE1;opacity:1;stroke-width:0.5;" x1="263" x2="3036" y1="625.541" y2="625.541"/>
  <g id="H-reference" style="fill:#27AAE1;stroke:none;" transform="matrix(1 0 0 1 339 1126)">
   <path d="M0.976562 0L3.66211 0L12.9883-24.4629L45.752-24.4629L55.127 0L57.7637 0L30.6152-70.459L28.125-70.459ZM29.3457-67.1387L29.4434-67.1387L44.873-26.709L13.8672-26.709Z"/>
  </g>
  <line id="Baseline-M" style="fill:none;stroke:#27AAE1;opacity:1;stroke-width:0.5;" x1="263" x2="3036" y1="1126" y2="1126"/>
  <line id="Capline-M" style="fill:none;stroke:#27AAE1;opacity:1;stroke-width:0.5;" x1="263" x2="3036" y1="1055.54" y2="1055.54"/>
  <g id="H-reference" style="fill:#27AAE1;stroke:none;" transform="matrix(1 0 0 1 339 1556)">
   <path d="M0.976562 0L3.66211 0L12.9883-24.4629L45.752-24.4629L55.127 0L57.7637 0L30.6152-70.459L28.125-70.459ZM29.3457-67.1387L29.4434-67.1387L44.873-26.709L13.8672-26.709Z"/>
  </g>
  <line id="Baseline-L" style="fill:none;stroke:#27AAE1;opacity:1;stroke-width:0.5;" x1="263" x2="3036" y1="1556" y2="1556"/>
  <line id="Capline-L" style="fill:none;stroke:#27AAE1;opacity:1;stroke-width:0.5;" x1="263" x2="3036" y1="1485.54" y2="1485.54"/>
  <line id="left-margin" x1="1408.386997759816" x2="1408.386997759816" y1="1030.79" y2="1150.12" style="fill:none;stroke:#00AEEF;stroke-width:0.5;opacity:1.0;"/>
  <line id="right-margin" x1="1493.6699475977125" x2="1493.6699475977125" y1="1030.79" y2="1150.12" style="fill:none;stroke:#00AEEF;stroke-width:0.5;opacity:1.0;"/>
 </g>
 <g id="Symbols">
  <g id="Black-L" transform="matrix(1.0,0.0,0.0,1.0,2869.1948778030437,1455.8087783118697)">  <path fill="#000000" fill-opacity="1" stroke-linecap="butt" stroke-linejoin="miter" stroke-width="1px" stroke-opacity="1" stroke="none" stroke-miterlimit="4" fill-rule="nonzero" stroke-dasharray="none" d="M37.398,33.567C37.434,33.569,37.416,33.569,37.398,33.567L37.398,33.567ZM116.125,43.89C113.748,38.085,108.938,31.825,105.161,29.838C108.235,35.959,110.016,42.103,110.694,46.683C110.694,46.683,110.694,46.715,110.706,46.776C104.527,31.127,94.05,24.817,85.492,11.077C85.06,10.383,84.627,9.686,84.206,8.953C83.982,8.578,83.789,8.193,83.603,7.804C83.25,7.107,82.976,6.374,82.788,5.614C82.792,5.539,82.739,5.473,82.665,5.464C82.631,5.455,82.595,5.455,82.561,5.464L82.535,5.48L82.494,5.503L82.517,5.471C70.368,12.702,65.33,25.361,64.035,33.419C60.282,33.635,56.604,34.589,53.208,36.225C52.567,36.549,52.269,37.309,52.516,37.99C52.764,38.718,53.544,39.103,54.261,38.852L54.377,38.805C57.341,37.382,60.54,36.533,63.811,36.301L64.129,36.278C64.577,36.25,65.025,36.232,65.473,36.228C68.128,36.205,70.774,36.576,73.325,37.325C73.475,37.37,73.621,37.42,73.773,37.468C74.197,37.598,74.615,37.741,75.032,37.894C75.337,38.008,75.639,38.122,75.939,38.254C76.184,38.354,76.428,38.454,76.668,38.561C77.044,38.732,77.418,38.911,77.788,39.096C77.956,39.18,78.124,39.264,78.292,39.353C78.65,39.544,79.004,39.745,79.354,39.952C79.58,40.084,79.804,40.22,80.026,40.361C83.984,42.849,87.268,46.303,89.583,50.407C86.67,48.324,81.439,46.266,76.405,47.156C96.061,57.14,90.783,91.521,63.549,90.223C61.123,90.123,58.725,89.652,56.438,88.83C55.896,88.623,55.363,88.4,54.834,88.163C54.525,88.02,54.216,87.874,53.911,87.708C47.226,84.216,41.715,77.597,41.028,69.554C41.028,69.554,43.548,60.006,59.088,60.006C60.769,60.006,65.569,55.244,65.659,53.86C65.639,53.404,56.129,49.564,52.421,45.852C50.439,43.869,49.498,42.913,48.665,42.196C48.214,41.807,47.742,41.445,47.251,41.11C46.005,36.681,45.952,31.994,47.096,27.537C41.482,30.134,37.116,34.241,33.944,37.864L33.917,37.864C31.751,35.076,31.901,25.88,32.029,23.961C32.002,23.84,30.411,24.799,30.203,24.942C28.292,26.331,26.504,27.885,24.862,29.592C22.994,31.518,21.289,33.599,19.761,35.813C16.246,40.874,13.755,46.592,12.429,52.635C12.415,52.697,11.907,54.959,11.532,57.752C11.47,58.187,11.412,58.624,11.358,59.059C11.23,59.899,11.134,60.814,11.035,62.246C11.035,62.3,11.035,62.355,11.024,62.41C10.984,63.026,10.948,63.641,10.914,64.258C10.914,64.351,10.914,64.444,10.914,64.54C10.914,95.201,35.38,120.056,65.558,120.056C92.585,120.056,115.027,100.12,119.42,73.934C119.512,73.224,119.586,72.509,119.669,71.792C120.756,62.27,119.548,52.264,116.125,43.897L116.125,43.89ZM116.125,43.89"/>
</g>
  <g id="Heavy-L" transform="matrix(1.0,0.0,0.0,1.0,2572.4848778030437,1455.8087783118697)">  <path stroke-opacity="1" fill-rule="nonzero" stroke-miterlimit="4" stroke-dasharray="none" stroke-linecap="butt" stroke-width="1px" stroke="none" stroke-linejoin="miter" fill-opacity="1" fill="#000000" d="M37.398,33.567C37.434,33.569,37.416,33.569,37.398,33.567L37.398,33.567ZM116.125,43.89C113.748,38.085,108.938,31.825,105.161,29.838C108.235,35.959,110.016,42.103,110.694,46.683C110.694,46.683,110.694,46.715,110.706,46.776C104.527,31.127,94.05,24.817,85.492,11.077C85.06,10.383,84.627,9.686,84.206,8.953C83.982,8.578,83.789,8.193,83.603,7.804C83.25,7.107,82.976,6.374,82.788,5.614C82.792,5.539,82.739,5.473,82.665,5.464C82.631,5.455,82.595,5.455,82.561,5.464L82.535,5.48L82.494,5.503L82.517,5.471C70.368,12.702,65.33,25.361,64.035,33.419C60.282,33.635,56.604,34.589,53.208,36.225C52.567,36.549,52.269,37.309,52.516,37.99C52.764,38.718,53.544,39.103,54.261,38.852L54.377,38.805C57.341,37.382,60.54,36.533,63.811,36.301L64.129,36.278C64.577,36.25,65.025,36.232,65.473,36.228C68.128,36.205,70.774,36.576,73.325,37.325C73.475,37.37,73.621,37.42,73.773,37.468C74.197,37.598,74.615,37.741,75.032,37.894C75.337,38.008,75.639,38.122,75.939,38.254C76.184,38.354,76.428,38.454,76.668,38.561C77.044,38.732,77.418,38.911,77.788,39.096C77.956,39.18,78.124,39.264,78.292,39.353C78.65,39.544,79.004,39.745,79.354,39.952C79.58,40.084,79.804,40.22,80.026,40.361C83.984,42.849,87.268,46.303,89.583,50.407C86.67,48.324,81.439,46.266,76.405,47.156C96.061,57.14,90.783,91.521,63.549,90.223C61.123,90.123,58.725,89.652,56.438,88.83C55.896,88.623,55.363,88.4,54.834,88.163C54.525,88.02,54.216,87.874,53.911,87.708C47.226,84.216,41.715,77.597,41.028,69.554C41.028,69.554,43.548,60.006,59.088,60.006C60.769,60.006,65.569,55.244,65.659,53.86C65.639,53.404,56.129,49.564,52.421,45.852C50.439,43.869,49.498,42.913,48.665,42.196C48.214,41.807,47.742,41.445,47.251,41.11C46.005,36.681,45.952,31.994,47.096,27.537C41.482,30.134,37.116,34.241,33.944,37.864L33.917,37.864C31.751,35.076,31.901,25.88,32.029,23.961C32.002,23.84,30.411,24.799,30.203,24.942C28.292,26.331,26.504,27.885,24.862,29.592C22.994,31.518,21.289,33.599,19.761,35.813C16.246,40.874,13.755,46.592,12.429,52.635C12.415,52.697,11.907,54.959,11.532,57.752C11.47,58.187,11.412,58.624,11.358,59.059C11.23,59.899,11.134,60.814,11.035,62.246C11.035,62.3,11.035,62.355,11.024,62.41C10.984,63.026,10.948,63.641,10.914,64.258C10.914,64.351,10.914,64.444,10.914,64.54C10.914,95.201,35.38,120.056,65.558,120.056C92.585,120.056,115.027,100.12,119.42,73.934C119.512,73.224,119.586,72.509,119.669,71.792C120.756,62.27,119.548,52.264,116.125,43.897L116.125,43.89ZM116.125,43.89"/>
</g>
  <g id="Bold-L" transform="matrix(1.0,0.0,0.0,1.0,2275.7748778030436,1455.8087783118697)">  <path stroke-miterlimit="4" stroke="none" stroke-linecap="butt" stroke-opacity="1" fill-rule="nonzero" fill="#000000" stroke-dasharray="none" stroke-width="1px" fill-opacity="1" stroke-linejoin="miter" d="M37.398,33.567C37.434,33.569,37.416,33.569,37.398,33.567L37.398,33.567ZM116.125,43.89C113.748,38.085,108.938,31.825,105.161,29.838C108.235,35.959,110.016,42.103,110.694,46.683C110.694,46.683,110.694,46.715,110.706,46.776C104.527,31.127,94.05,24.817,85.492,11.077C85.06,10.383,84.627,9.686,84.206,8.953C83.982,8.578,83.789,8.193,83.603,7.804C83.25,7.107,82.976,6.374,82.788,5.614C82.792,5.539,82.739,5.473,82.665,5.464C82.631,5.455,82.595,5.455,82.561,5.464L82.535,5.48L82.494,5.503L82.517,5.471C70.368,12.702,65.33,25.361,64.035,33.419C60.282,33.635,56.604,34.589,53.208,36.225C52.567,36.549,52.269,37.309,52.516,37.99C52.764,38.718,53.544,39.103,54.261,38.852L54.377,38.805C57.341,37.382,60.54,36.533,63.811,36.301L64.129,36.278C64.577,36.25,65.025,36.232,65.473,36.228C68.128,36.205,70.774,36.576,73.325,37.325C73.475,37.37,73.621,37.42,73.773,37.468C74.197,37.598,74.615,37.741,75.032,37.894C75.337,38.008,75.639,38.122,75.939,38.254C76.184,38.354,76.428,38.454,76.668,38.561C77.044,38.732,77.418,38.911,77.788,39.096C77.956,39.18,78.124,39.264,78.292,39.353C78.65,39.544,79.004,39.745,79.354,39.952C79.58,40.084,79.804,40.22,80.026,40.361C83.984,42.849,87.268,46.303,89.583,50.407C86.67,48.324,81.439,46.266,76.405,47.156C96.061,57.14,90.783,91.521,63.549,90.223C61.123,90.123,58.725,89.652,56.438,88.83C55.896,88.623,55.363,88.4,54.834,88.163C54.525,88.02,54.216,87.874,53.911,87.708C47.226,84.216,41.715,77.597,41.028,69.554C41.028,69.554,43.548,60.006,59.088,60.006C60.769,60.006,65.569,55.244,65.659,53.86C65.639,53.404,56.129,49.564,52.421,45.852C50.439,43.869,49.498,42.913,48.665,42.196C48.214,41.807,47.742,41.445,47.251,41.11C46.005,36.681,45.952,31.994,47.096,27.537C41.482,30.134,37.116,34.241,33.944,37.864L33.917,37.864C31.751,35.076,31.901,25.88,32.029,23.961C32.002,23.84,30.411,24.799,30.203,24.942C28.292,26.331,26.504,27.885,24.862,29.592C22.994,31.518,21.289,33.599,19.761,35.813C16.246,40.874,13.755,46.592,12.429,52.635C12.415,52.697,11.907,54.959,11.532,57.752C11.47,58.187,11.412,58.624,11.358,59.059C11.23,59.899,11.134,60.814,11.035,62.246C11.035,62.3,11.035,62.355,11.024,62.41C10.984,63.026,10.948,63.641,10.914,64.258C10.914,64.351,10.914,64.444,10.914,64.54C10.914,95.201,35.38,120.056,65.558,120.056C92.585,120.056,115.027,100.12,119.42,73.934C119.512,73.224,119.586,72.509,119.669,71.792C120.756,62.27,119.548,52.264,116.125,43.897L116.125,43.89ZM116.125,43.89"/>
</g>
  <g id="Semibold-L" transform="matrix(1.0,0.0,0.0,1.0,1979.0648778030438,1455.8087783118697)">  <path fill="#000000" stroke-dasharray="none" stroke-width="1px" fill-rule="nonzero" stroke-linecap="butt" stroke-opacity="1" stroke-miterlimit="4" stroke-linejoin="miter" fill-opacity="1" stroke="none" d="M37.398,33.567C37.434,33.569,37.416,33.569,37.398,33.567L37.398,33.567ZM116.125,43.89C113.748,38.085,108.938,31.825,105.161,29.838C108.235,35.959,110.016,42.103,110.694,46.683C110.694,46.683,110.694,46.715,110.706,46.776C104.527,31.127,94.05,24.817,85.492,11.077C85.06,10.383,84.627,9.686,84.206,8.953C83.982,8.578,83.789,8.193,83.603,7.804C83.25,7.107,82.976,6.374,82.788,5.614C82.792,5.539,82.739,5.473,82.665,5.464C82.631,5.455,82.595,5.455,82.561,5.464L82.535,5.48L82.494,5.503L82.517,5.471C70.368,12.702,65.33,25.361,64.035,33.419C60.282,33.635,56.604,34.589,53.208,36.225C52.567,36.549,52.269,37.309,52.516,37.99C52.764,38.718,53.544,39.103,54.261,38.852L54.377,38.805C57.341,37.382,60.54,36.533,63.811,36.301L64.129,36.278C64.577,36.25,65.025,36.232,65.473,36.228C68.128,36.205,70.774,36.576,73.325,37.325C73.475,37.37,73.621,37.42,73.773,37.468C74.197,37.598,74.615,37.741,75.032,37.894C75.337,38.008,75.639,38.122,75.939,38.254C76.184,38.354,76.428,38.454,76.668,38.561C77.044,38.732,77.418,38.911,77.788,39.096C77.956,39.18,78.124,39.264,78.292,39.353C78.65,39.544,79.004,39.745,79.354,39.952C79.58,40.084,79.804,40.22,80.026,40.361C83.984,42.849,87.268,46.303,89.583,50.407C86.67,48.324,81.439,46.266,76.405,47.156C96.061,57.14,90.783,91.521,63.549,90.223C61.123,90.123,58.725,89.652,56.438,88.83C55.896,88.623,55.363,88.4,54.834,88.163C54.525,88.02,54.216,87.874,53.911,87.708C47.226,84.216,41.715,77.597,41.028,69.554C41.028,69.554,43.548,60.006,59.088,60.006C60.769,60.006,65.569,55.244,65.659,53.86C65.639,53.404,56.129,49.564,52.421,45.852C50.439,43.869,49.498,42.913,48.665,42.196C48.214,41.807,47.742,41.445,47.251,41.11C46.005,36.681,45.952,31.994,47.096,27.537C41.482,30.134,37.116,34.241,33.944,37.864L33.917,37.864C31.751,35.076,31.901,25.88,32.029,23.961C32.002,23.84,30.411,24.799,30.203,24.942C28.292,26.331,26.504,27.885,24.862,29.592C22.994,31.518,21.289,33.599,19.761,35.813C16.246,40.874,13.755,46.592,12.429,52.635C12.415,52.697,11.907,54.959,11.532,57.752C11.47,58.187,11.412,58.624,11.358,59.059C11.23,59.899,11.134,60.814,11.035,62.246C11.035,62.3,11.035,62.355,11.024,62.41C10.984,63.026,10.948,63.641,10.914,64.258C10.914,64.351,10.914,64.444,10.914,64.54C10.914,95.201,35.38,120.056,65.558,120.056C92.585,120.056,115.027,100.12,119.42,73.934C119.512,73.224,119.586,72.509,119.669,71.792C120.756,62.27,119.548,52.264,116.125,43.897L116.125,43.89ZM116.125,43.89"/>
</g>
  <g id="Medium-L" transform="matrix(1.0,0.0,0.0,1.0,1682.3548778030438,1455.8087783118697)">  <path fill-opacity="1" stroke-miterlimit="4" stroke-width="1px" stroke-linejoin="miter" stroke-linecap="butt" fill-rule="nonzero" stroke-dasharray="none" fill="#000000" stroke="none" stroke-opacity="1" d="M37.398,33.567C37.434,33.569,37.416,33.569,37.398,33.567L37.398,33.567ZM116.125,43.89C113.748,38.085,108.938,31.825,105.161,29.838C108.235,35.959,110.016,42.103,110.694,46.683C110.694,46.683,110.694,46.715,110.706,46.776C104.527,31.127,94.05,24.817,85.492,11.077C85.06,10.383,84.627,9.686,84.206,8.953C83.982,8.578,83.789,8.193,83.603,7.804C83.25,7.107,82.976,6.374,82.788,5.614C82.792,5.539,82.739,5.473,82.665,5.464C82.631,5.455,82.595,5.455,82.561,5.464L82.535,5.48L82.494,5.503L82.517,5.471C70.368,12.702,65.33,25.361,64.035,33.419C60.282,33.635,56.604,34.589,53.208,36.225C52.567,36.549,52.269,37.309,52.516,37.99C52.764,38.718,53.544,39.103,54.261,38.852L54.377,38.805C57.341,37.382,60.54,36.533,63.811,36.301L64.129,36.278C64.577,36.25,65.025,36.232,65.473,36.228C68.128,36.205,70.774,36.576,73.325,37.325C73.475,37.37,73.621,37.42,73.773,37.468C74.197,37.598,74.615,37.741,75.032,37.894C75.337,38.008,75.639,38.122,75.939,38.254C76.184,38.354,76.428,38.454,76.668,38.561C77.044,38.732,77.418,38.911,77.788,39.096C77.956,39.18,78.124,39.264,78.292,39.353C78.65,39.544,79.004,39.745,79.354,39.952C79.58,40.084,79.804,40.22,80.026,40.361C83.984,42.849,87.268,46.303,89.583,50.407C86.67,48.324,81.439,46.266,76.405,47.156C96.061,57.14,90.783,91.521,63.549,90.223C61.123,90.123,58.725,89.652,56.438,88.83C55.896,88.623,55.363,88.4,54.834,88.163C54.525,88.02,54.216,87.874,53.911,87.708C47.226,84.216,41.715,77.597,41.028,69.554C41.028,69.554,43.548,60.006,59.088,60.006C60.769,60.006,65.569,55.244,65.659,53.86C65.639,53.404,56.129,49.564,52.421,45.852C50.439,43.869,49.498,42.913,48.665,42.196C48.214,41.807,47.742,41.445,47.251,41.11C46.005,36.681,45.952,31.994,47.096,27.537C41.482,30.134,37.116,34.241,33.944,37.864L33.917,37.864C31.751,35.076,31.901,25.88,32.029,23.961C32.002,23.84,30.411,24.799,30.203,24.942C28.292,26.331,26.504,27.885,24.862,29.592C22.994,31.518,21.289,33.599,19.761,35.813C16.246,40.874,13.755,46.592,12.429,52.635C12.415,52.697,11.907,54.959,11.532,57.752C11.47,58.187,11.412,58.624,11.358,59.059C11.23,59.899,11.134,60.814,11.035,62.246C11.035,62.3,11.035,62.355,11.024,62.41C10.984,63.026,10.948,63.641,10.914,64.258C10.914,64.351,10.914,64.444,10.914,64.54C10.914,95.201,35.38,120.056,65.558,120.056C92.585,120.056,115.027,100.12,119.42,73.934C119.512,73.224,119.586,72.509,119.669,71.792C120.756,62.27,119.548,52.264,116.125,43.897L116.125,43.89ZM116.125,43.89"/>
</g>
  <g id="Regular-L" transform="matrix(1.0,0.0,0.0,1.0,1385.6448778030438,1455.8087783118697)">  <path fill-opacity="1" fill="#000000" stroke-opacity="1" stroke-dasharray="none" stroke-linejoin="miter" stroke-width="1px" stroke-linecap="butt" stroke-miterlimit="4" fill-rule="nonzero" stroke="none" d="M37.398,33.567C37.434,33.569,37.416,33.569,37.398,33.567L37.398,33.567ZM116.125,43.89C113.748,38.085,108.938,31.825,105.161,29.838C108.235,35.959,110.016,42.103,110.694,46.683C110.694,46.683,110.694,46.715,110.706,46.776C104.527,31.127,94.05,24.817,85.492,11.077C85.06,10.383,84.627,9.686,84.206,8.953C83.982,8.578,83.789,8.193,83.603,7.804C83.25,7.107,82.976,6.374,82.788,5.614C82.792,5.539,82.739,5.473,82.665,5.464C82.631,5.455,82.595,5.455,82.561,5.464L82.535,5.48L82.494,5.503L82.517,5.471C70.368,12.702,65.33,25.361,64.035,33.419C60.282,33.635,56.604,34.589,53.208,36.225C52.567,36.549,52.269,37.309,52.516,37.99C52.764,38.718,53.544,39.103,54.261,38.852L54.377,38.805C57.341,37.382,60.54,36.533,63.811,36.301L64.129,36.278C64.577,36.25,65.025,36.232,65.473,36.228C68.128,36.205,70.774,36.576,73.325,37.325C73.475,37.37,73.621,37.42,73.773,37.468C74.197,37.598,74.615,37.741,75.032,37.894C75.337,38.008,75.639,38.122,75.939,38.254C76.184,38.354,76.428,38.454,76.668,38.561C77.044,38.732,77.418,38.911,77.788,39.096C77.956,39.18,78.124,39.264,78.292,39.353C78.65,39.544,79.004,39.745,79.354,39.952C79.58,40.084,79.804,40.22,80.026,40.361C83.984,42.849,87.268,46.303,89.583,50.407C86.67,48.324,81.439,46.266,76.405,47.156C96.061,57.14,90.783,91.521,63.549,90.223C61.123,90.123,58.725,89.652,56.438,88.83C55.896,88.623,55.363,88.4,54.834,88.163C54.525,88.02,54.216,87.874,53.911,87.708C47.226,84.216,41.715,77.597,41.028,69.554C41.028,69.554,43.548,60.006,59.088,60.006C60.769,60.006,65.569,55.244,65.659,53.86C65.639,53.404,56.129,49.564,52.421,45.852C50.439,43.869,49.498,42.913,48.665,42.196C48.214,41.807,47.742,41.445,47.251,41.11C46.005,36.681,45.952,31.994,47.096,27.537C41.482,30.134,37.116,34.241,33.944,37.864L33.917,37.864C31.751,35.076,31.901,25.88,32.029,23.961C32.002,23.84,30.411,24.799,30.203,24.942C28.292,26.331,26.504,27.885,24.862,29.592C22.994,31.518,21.289,33.599,19.761,35.813C16.246,40.874,13.755,46.592,12.429,52.635C12.415,52.697,11.907,54.959,11.532,57.752C11.47,58.187,11.412,58.624,11.358,59.059C11.23,59.899,11.134,60.814,11.035,62.246C11.035,62.3,11.035,62.355,11.024,62.41C10.984,63.026,10.948,63.641,10.914,64.258C10.914,64.351,10.914,64.444,10.914,64.54C10.914,95.201,35.38,120.056,65.558,120.056C92.585,120.056,115.027,100.12,119.42,73.934C119.512,73.224,119.586,72.509,119.669,71.792C120.756,62.27,119.548,52.264,116.125,43.897L116.125,43.89ZM116.125,43.89"/>
</g>
  <g id="Light-L" transform="matrix(1.0,0.0,0.0,1.0,1088.934877803044,1455.8087783118697)">  <path stroke-linejoin="miter" stroke-width="1px" stroke-linecap="butt" stroke-opacity="1" stroke-miterlimit="4" stroke="none" fill-opacity="1" fill="#000000" fill-rule="nonzero" stroke-dasharray="none" d="M37.398,33.567C37.434,33.569,37.416,33.569,37.398,33.567L37.398,33.567ZM116.125,43.89C113.748,38.085,108.938,31.825,105.161,29.838C108.235,35.959,110.016,42.103,110.694,46.683C110.694,46.683,110.694,46.715,110.706,46.776C104.527,31.127,94.05,24.817,85.492,11.077C85.06,10.383,84.627,9.686,84.206,8.953C83.982,8.578,83.789,8.193,83.603,7.804C83.25,7.107,82.976,6.374,82.788,5.614C82.792,5.539,82.739,5.473,82.665,5.464C82.631,5.455,82.595,5.455,82.561,5.464L82.535,5.48L82.494,5.503L82.517,5.471C70.368,12.702,65.33,25.361,64.035,33.419C60.282,33.635,56.604,34.589,53.208,36.225C52.567,36.549,52.269,37.309,52.516,37.99C52.764,38.718,53.544,39.103,54.261,38.852L54.377,38.805C57.341,37.382,60.54,36.533,63.811,36.301L64.129,36.278C64.577,36.25,65.025,36.232,65.473,36.228C68.128,36.205,70.774,36.576,73.325,37.325C73.475,37.37,73.621,37.42,73.773,37.468C74.197,37.598,74.615,37.741,75.032,37.894C75.337,38.008,75.639,38.122,75.939,38.254C76.184,38.354,76.428,38.454,76.668,38.561C77.044,38.732,77.418,38.911,77.788,39.096C77.956,39.18,78.124,39.264,78.292,39.353C78.65,39.544,79.004,39.745,79.354,39.952C79.58,40.084,79.804,40.22,80.026,40.361C83.984,42.849,87.268,46.303,89.583,50.407C86.67,48.324,81.439,46.266,76.405,47.156C96.061,57.14,90.783,91.521,63.549,90.223C61.123,90.123,58.725,89.652,56.438,88.83C55.896,88.623,55.363,88.4,54.834,88.163C54.525,88.02,54.216,87.874,53.911,87.708C47.226,84.216,41.715,77.597,41.028,69.554C41.028,69.554,43.548,60.006,59.088,60.006C60.769,60.006,65.569,55.244,65.659,53.86C65.639,53.404,56.129,49.564,52.421,45.852C50.439,43.869,49.498,42.913,48.665,42.196C48.214,41.807,47.742,41.445,47.251,41.11C46.005,36.681,45.952,31.994,47.096,27.537C41.482,30.134,37.116,34.241,33.944,37.864L33.917,37.864C31.751,35.076,31.901,25.88,32.029,23.961C32.002,23.84,30.411,24.799,30.203,24.942C28.292,26.331,26.504,27.885,24.862,29.592C22.994,31.518,21.289,33.599,19.761,35.813C16.246,40.874,13.755,46.592,12.429,52.635C12.415,52.697,11.907,54.959,11.532,57.752C11.47,58.187,11.412,58.624,11.358,59.059C11.23,59.899,11.134,60.814,11.035,62.246C11.035,62.3,11.035,62.355,11.024,62.41C10.984,63.026,10.948,63.641,10.914,64.258C10.914,64.351,10.914,64.444,10.914,64.54C10.914,95.201,35.38,120.056,65.558,120.056C92.585,120.056,115.027,100.12,119.42,73.934C119.512,73.224,119.586,72.509,119.669,71.792C120.756,62.27,119.548,52.264,116.125,43.897L116.125,43.89ZM116.125,43.89"/>
</g>
  <g id="Thin-L" transform="matrix(1.0,0.0,0.0,1.0,792.224877803044,1455.8087783118697)">  <path stroke-linecap="butt" fill-opacity="1" stroke-linejoin="miter" stroke-miterlimit="4" fill="#000000" stroke="none" stroke-width="1px" stroke-dasharray="none" stroke-opacity="1" fill-rule="nonzero" d="M37.398,33.567C37.434,33.569,37.416,33.569,37.398,33.567L37.398,33.567ZM116.125,43.89C113.748,38.085,108.938,31.825,105.161,29.838C108.235,35.959,110.016,42.103,110.694,46.683C110.694,46.683,110.694,46.715,110.706,46.776C104.527,31.127,94.05,24.817,85.492,11.077C85.06,10.383,84.627,9.686,84.206,8.953C83.982,8.578,83.789,8.193,83.603,7.804C83.25,7.107,82.976,6.374,82.788,5.614C82.792,5.539,82.739,5.473,82.665,5.464C82.631,5.455,82.595,5.455,82.561,5.464L82.535,5.48L82.494,5.503L82.517,5.471C70.368,12.702,65.33,25.361,64.035,33.419C60.282,33.635,56.604,34.589,53.208,36.225C52.567,36.549,52.269,37.309,52.516,37.99C52.764,38.718,53.544,39.103,54.261,38.852L54.377,38.805C57.341,37.382,60.54,36.533,63.811,36.301L64.129,36.278C64.577,36.25,65.025,36.232,65.473,36.228C68.128,36.205,70.774,36.576,73.325,37.325C73.475,37.37,73.621,37.42,73.773,37.468C74.197,37.598,74.615,37.741,75.032,37.894C75.337,38.008,75.639,38.122,75.939,38.254C76.184,38.354,76.428,38.454,76.668,38.561C77.044,38.732,77.418,38.911,77.788,39.096C77.956,39.18,78.124,39.264,78.292,39.353C78.65,39.544,79.004,39.745,79.354,39.952C79.58,40.084,79.804,40.22,80.026,40.361C83.984,42.849,87.268,46.303,89.583,50.407C86.67,48.324,81.439,46.266,76.405,47.156C96.061,57.14,90.783,91.521,63.549,90.223C61.123,90.123,58.725,89.652,56.438,88.83C55.896,88.623,55.363,88.4,54.834,88.163C54.525,88.02,54.216,87.874,53.911,87.708C47.226,84.216,41.715,77.597,41.028,69.554C41.028,69.554,43.548,60.006,59.088,60.006C60.769,60.006,65.569,55.244,65.659,53.86C65.639,53.404,56.129,49.564,52.421,45.852C50.439,43.869,49.498,42.913,48.665,42.196C48.214,41.807,47.742,41.445,47.251,41.11C46.005,36.681,45.952,31.994,47.096,27.537C41.482,30.134,37.116,34.241,33.944,37.864L33.917,37.864C31.751,35.076,31.901,25.88,32.029,23.961C32.002,23.84,30.411,24.799,30.203,24.942C28.292,26.331,26.504,27.885,24.862,29.592C22.994,31.518,21.289,33.599,19.761,35.813C16.246,40.874,13.755,46.592,12.429,52.635C12.415,52.697,11.907,54.959,11.532,57.752C11.47,58.187,11.412,58.624,11.358,59.059C11.23,59.899,11.134,60.814,11.035,62.246C11.035,62.3,11.035,62.355,11.024,62.41C10.984,63.026,10.948,63.641,10.914,64.258C10.914,64.351,10.914,64.444,10.914,64.54C10.914,95.201,35.38,120.056,65.558,120.056C92.585,120.056,115.027,100.12,119.42,73.934C119.512,73.224,119.586,72.509,119.669,71.792C120.756,62.27,119.548,52.264,116.125,43.897L116.125,43.89ZM116.125,43.89"/>
</g>
  <g id="Ultralight-L" transform="matrix(1.0,0.0,0.0,1.0,495.51487780304393,1455.8087783118697)">  <path stroke-dasharray="none" stroke-miterlimit="4" fill-opacity="1" stroke-linecap="butt" stroke-opacity="1" stroke-width="1px" fill-rule="nonzero" stroke="none" stroke-linejoin="miter" fill="#000000" d="M37.398,33.567C37.434,33.569,37.416,33.569,37.398,33.567L37.398,33.567ZM116.125,43.89C113.748,38.085,108.938,31.825,105.161,29.838C108.235,35.959,110.016,42.103,110.694,46.683C110.694,46.683,110.694,46.715,110.706,46.776C104.527,31.127,94.05,24.817,85.492,11.077C85.06,10.383,84.627,9.686,84.206,8.953C83.982,8.578,83.789,8.193,83.603,7.804C83.25,7.107,82.976,6.374,82.788,5.614C82.792,5.539,82.739,5.473,82.665,5.464C82.631,5.455,82.595,5.455,82.561,5.464L82.535,5.48L82.494,5.503L82.517,5.471C70.368,12.702,65.33,25.361,64.035,33.419C60.282,33.635,56.604,34.589,53.208,36.225C52.567,36.549,52.269,37.309,52.516,37.99C52.764,38.718,53.544,39.103,54.261,38.852L54.377,38.805C57.341,37.382,60.54,36.533,63.811,36.301L64.129,36.278C64.577,36.25,65.025,36.232,65.473,36.228C68.128,36.205,70.774,36.576,73.325,37.325C73.475,37.37,73.621,37.42,73.773,37.468C74.197,37.598,74.615,37.741,75.032,37.894C75.337,38.008,75.639,38.122,75.939,38.254C76.184,38.354,76.428,38.454,76.668,38.561C77.044,38.732,77.418,38.911,77.788,39.096C77.956,39.18,78.124,39.264,78.292,39.353C78.65,39.544,79.004,39.745,79.354,39.952C79.58,40.084,79.804,40.22,80.026,40.361C83.984,42.849,87.268,46.303,89.583,50.407C86.67,48.324,81.439,46.266,76.405,47.156C96.061,57.14,90.783,91.521,63.549,90.223C61.123,90.123,58.725,89.652,56.438,88.83C55.896,88.623,55.363,88.4,54.834,88.163C54.525,88.02,54.216,87.874,53.911,87.708C47.226,84.216,41.715,77.597,41.028,69.554C41.028,69.554,43.548,60.006,59.088,60.006C60.769,60.006,65.569,55.244,65.659,53.86C65.639,53.404,56.129,49.564,52.421,45.852C50.439,43.869,49.498,42.913,48.665,42.196C48.214,41.807,47.742,41.445,47.251,41.11C46.005,36.681,45.952,31.994,47.096,27.537C41.482,30.134,37.116,34.241,33.944,37.864L33.917,37.864C31.751,35.076,31.901,25.88,32.029,23.961C32.002,23.84,30.411,24.799,30.203,24.942C28.292,26.331,26.504,27.885,24.862,29.592C22.994,31.518,21.289,33.599,19.761,35.813C16.246,40.874,13.755,46.592,12.429,52.635C12.415,52.697,11.907,54.959,11.532,57.752C11.47,58.187,11.412,58.624,11.358,59.059C11.23,59.899,11.134,60.814,11.035,62.246C11.035,62.3,11.035,62.355,11.024,62.41C10.984,63.026,10.948,63.641,10.914,64.258C10.914,64.351,10.914,64.444,10.914,64.54C10.914,95.201,35.38,120.056,65.558,120.056C92.585,120.056,115.027,100.12,119.42,73.934C119.512,73.224,119.586,72.509,119.669,71.792C120.756,62.27,119.548,52.264,116.125,43.897L116.125,43.89ZM116.125,43.89"/>
</g>
  <g id="Black-M" transform="matrix(1.0,0.0,0.0,1.0,2883.9163393822046,1040.412468198397)">  <path fill="#000000" fill-opacity="1" stroke-linecap="butt" stroke-linejoin="miter" stroke-width="1px" stroke-opacity="1" stroke="none" stroke-miterlimit="4" fill-rule="nonzero" stroke-dasharray="none" d="M28.991,26.021C29.019,26.023,29.005,26.023,28.991,26.021L28.991,26.021ZM90.019,34.023C88.177,29.523,84.448,24.671,81.521,23.13C83.903,27.875,85.284,32.638,85.81,36.188C85.81,36.188,85.81,36.213,85.819,36.26C81.029,24.129,72.907,19.238,66.273,8.587C65.938,8.049,65.602,7.509,65.276,6.941C65.102,6.649,64.953,6.351,64.809,6.05C64.535,5.51,64.323,4.941,64.177,4.352C64.18,4.294,64.139,4.243,64.081,4.236C64.055,4.229,64.027,4.229,64.001,4.236L63.98,4.248L63.949,4.266L63.966,4.241C54.549,9.847,50.643,19.66,49.639,25.906C46.73,26.074,43.879,26.813,41.246,28.082C40.75,28.332,40.519,28.922,40.71,29.449C40.902,30.014,41.507,30.312,42.063,30.118L42.153,30.081C44.45,28.978,46.93,28.32,49.466,28.14L49.712,28.122C50.06,28.101,50.407,28.087,50.754,28.084C52.812,28.066,54.863,28.353,56.841,28.934C56.958,28.969,57.071,29.008,57.189,29.045C57.517,29.146,57.841,29.257,58.165,29.375C58.401,29.463,58.635,29.552,58.868,29.654C59.057,29.732,59.246,29.809,59.432,29.892C59.724,30.025,60.014,30.164,60.3,30.307C60.431,30.372,60.561,30.437,60.691,30.506C60.969,30.654,61.243,30.81,61.515,30.97C61.69,31.073,61.864,31.179,62.035,31.288C65.104,33.217,67.65,35.893,69.444,39.075C67.186,37.46,63.131,35.865,59.229,36.555C74.466,44.295,70.375,70.946,49.263,69.94C47.382,69.863,45.524,69.498,43.751,68.86C43.33,68.7,42.917,68.527,42.507,68.344C42.267,68.232,42.028,68.119,41.792,67.991C36.61,65.284,32.337,60.152,31.804,53.918C31.804,53.918,33.758,46.516,45.805,46.516C47.107,46.516,50.829,42.825,50.899,41.752C50.883,41.399,43.511,38.422,40.637,35.544C39.1,34.007,38.37,33.266,37.724,32.71C37.375,32.408,37.009,32.128,36.629,31.868C35.663,28.435,35.621,24.801,36.509,21.346C32.157,23.36,28.772,26.543,26.313,29.352L26.292,29.352C24.613,27.191,24.729,20.062,24.828,18.574C24.807,18.481,23.574,19.224,23.413,19.335C21.932,20.411,20.546,21.616,19.273,22.94C17.824,24.433,16.503,26.045,15.319,27.762C12.594,31.685,10.663,36.118,9.635,40.802C9.624,40.85,9.23,42.604,8.94,44.769C8.891,45.106,8.846,45.445,8.804,45.782C8.705,46.433,8.631,47.143,8.554,48.253C8.554,48.295,8.554,48.337,8.546,48.379C8.514,48.857,8.487,49.334,8.461,49.812C8.461,49.885,8.461,49.957,8.461,50.031C8.461,73.799,27.426,93.067,50.82,93.067C71.771,93.067,89.168,77.613,92.574,57.313C92.645,56.763,92.702,56.209,92.767,55.653C93.609,48.272,92.673,40.515,90.019,34.028L90.019,34.023ZM90.019,34.023"/>
</g>
  <g id="Heavy-M" transform="matrix(1.0,0.0,0.0,1.0,2587.2063393822045,1040.412468198397)">  <path stroke-opacity="1" fill-rule="nonzero" stroke-miterlimit="4" stroke-dasharray="none" stroke-linecap="butt" stroke-width="1px" stroke="none" stroke-linejoin="miter" fill-opacity="1" fill="#000000" d="M28.991,26.021C29.019,26.023,29.005,26.023,28.991,26.021L28.991,26.021ZM90.019,34.023C88.177,29.523,84.448,24.671,81.521,23.13C83.903,27.875,85.284,32.638,85.81,36.188C85.81,36.188,85.81,36.213,85.819,36.26C81.029,24.129,72.907,19.238,66.273,8.587C65.938,8.049,65.602,7.509,65.276,6.941C65.102,6.649,64.953,6.351,64.809,6.05C64.535,5.51,64.323,4.941,64.177,4.352C64.18,4.294,64.139,4.243,64.081,4.236C64.055,4.229,64.027,4.229,64.001,4.236L63.98,4.248L63.949,4.266L63.966,4.241C54.549,9.847,50.643,19.66,49.639,25.906C46.73,26.074,43.879,26.813,41.246,28.082C40.75,28.332,40.519,28.922,40.71,29.449C40.902,30.014,41.507,30.312,42.063,30.118L42.153,30.081C44.45,28.978,46.93,28.32,49.466,28.14L49.712,28.122C50.06,28.101,50.407,28.087,50.754,28.084C52.812,28.066,54.863,28.353,56.841,28.934C56.958,28.969,57.071,29.008,57.189,29.045C57.517,29.146,57.841,29.257,58.165,29.375C58.401,29.463,58.635,29.552,58.868,29.654C59.057,29.732,59.246,29.809,59.432,29.892C59.724,30.025,60.014,30.164,60.3,30.307C60.431,30.372,60.561,30.437,60.691,30.506C60.969,30.654,61.243,30.81,61.515,30.97C61.69,31.073,61.864,31.179,62.035,31.288C65.104,33.217,67.65,35.893,69.444,39.075C67.186,37.46,63.131,35.865,59.229,36.555C74.466,44.295,70.375,70.946,49.263,69.94C47.382,69.863,45.524,69.498,43.751,68.86C43.33,68.7,42.917,68.527,42.507,68.344C42.267,68.232,42.028,68.119,41.792,67.991C36.61,65.284,32.337,60.152,31.804,53.918C31.804,53.918,33.758,46.516,45.805,46.516C47.107,46.516,50.829,42.825,50.899,41.752C50.883,41.399,43.511,38.422,40.637,35.544C39.1,34.007,38.37,33.266,37.724,32.71C37.375,32.408,37.009,32.128,36.629,31.868C35.663,28.435,35.621,24.801,36.509,21.346C32.157,23.36,28.772,26.543,26.313,29.352L26.292,29.352C24.613,27.191,24.729,20.062,24.828,18.574C24.807,18.481,23.574,19.224,23.413,19.335C21.932,20.411,20.546,21.616,19.273,22.94C17.824,24.433,16.503,26.045,15.319,27.762C12.594,31.685,10.663,36.118,9.635,40.802C9.624,40.85,9.23,42.604,8.94,44.769C8.891,45.106,8.846,45.445,8.804,45.782C8.705,46.433,8.631,47.143,8.554,48.253C8.554,48.295,8.554,48.337,8.546,48.379C8.514,48.857,8.487,49.334,8.461,49.812C8.461,49.885,8.461,49.957,8.461,50.031C8.461,73.799,27.426,93.067,50.82,93.067C71.771,93.067,89.168,77.613,92.574,57.313C92.645,56.763,92.702,56.209,92.767,55.653C93.609,48.272,92.673,40.515,90.019,34.028L90.019,34.023ZM90.019,34.023"/>
</g>
  <g id="Bold-M" transform="matrix(1.0,0.0,0.0,1.0,2290.4963393822045,1040.412468198397)">  <path stroke-miterlimit="4" stroke="none" stroke-linecap="butt" stroke-opacity="1" fill-rule="nonzero" fill="#000000" stroke-dasharray="none" stroke-width="1px" fill-opacity="1" stroke-linejoin="miter" d="M28.991,26.021C29.019,26.023,29.005,26.023,28.991,26.021L28.991,26.021ZM90.019,34.023C88.177,29.523,84.448,24.671,81.521,23.13C83.903,27.875,85.284,32.638,85.81,36.188C85.81,36.188,85.81,36.213,85.819,36.26C81.029,24.129,72.907,19.238,66.273,8.587C65.938,8.049,65.602,7.509,65.276,6.941C65.102,6.649,64.953,6.351,64.809,6.05C64.535,5.51,64.323,4.941,64.177,4.352C64.18,4.294,64.139,4.243,64.081,4.236C64.055,4.229,64.027,4.229,64.001,4.236L63.98,4.248L63.949,4.266L63.966,4.241C54.549,9.847,50.643,19.66,49.639,25.906C46.73,26.074,43.879,26.813,41.246,28.082C40.75,28.332,40.519,28.922,40.71,29.449C40.902,30.014,41.507,30.312,42.063,30.118L42.153,30.081C44.45,28.978,46.93,28.32,49.466,28.14L49.712,28.122C50.06,28.101,50.407,28.087,50.754,28.084C52.812,28.066,54.863,28.353,56.841,28.934C56.958,28.969,57.071,29.008,57.189,29.045C57.517,29.146,57.841,29.257,58.165,29.375C58.401,29.463,58.635,29.552,58.868,29.654C59.057,29.732,59.246,29.809,59.432,29.892C59.724,30.025,60.014,30.164,60.3,30.307C60.431,30.372,60.561,30.437,60.691,30.506C60.969,30.654,61.243,30.81,61.515,30.97C61.69,31.073,61.864,31.179,62.035,31.288C65.104,33.217,67.65,35.893,69.444,39.075C67.186,37.46,63.131,35.865,59.229,36.555C74.466,44.295,70.375,70.946,49.263,69.94C47.382,69.863,45.524,69.498,43.751,68.86C43.33,68.7,42.917,68.527,42.507,68.344C42.267,68.232,42.028,68.119,41.792,67.991C36.61,65.284,32.337,60.152,31.804,53.918C31.804,53.918,33.758,46.516,45.805,46.516C47.107,46.516,50.829,42.825,50.899,41.752C50.883,41.399,43.511,38.422,40.637,35.544C39.1,34.007,38.37,33.266,37.724,32.71C37.375,32.408,37.009,32.128,36.629,31.868C35.663,28.435,35.621,24.801,36.509,21.346C32.157,23.36,28.772,26.543,26.313,29.352L26.292,29.352C24.613,27.191,24.729,20.062,24.828,18.574C24.807,18.481,23.574,19.224,23.413,19.335C21.932,20.411,20.546,21.616,19.273,22.94C17.824,24.433,16.503,26.045,15.319,27.762C12.594,31.685,10.663,36.118,9.635,40.802C9.624,40.85,9.23,42.604,8.94,44.769C8.891,45.106,8.846,45.445,8.804,45.782C8.705,46.433,8.631,47.143,8.554,48.253C8.554,48.295,8.554,48.337,8.546,48.379C8.514,48.857,8.487,49.334,8.461,49.812C8.461,49.885,8.461,49.957,8.461,50.031C8.461,73.799,27.426,93.067,50.82,93.067C71.771,93.067,89.168,77.613,92.574,57.313C92.645,56.763,92.702,56.209,92.767,55.653C93.609,48.272,92.673,40.515,90.019,34.028L90.019,34.023ZM90.019,34.023"/>
</g>
  <g id="Semibold-M" transform="matrix(1.0,0.0,0.0,1.0,1993.7863393822045,1040.412468198397)">  <path fill="#000000" stroke-dasharray="none" stroke-width="1px" fill-rule="nonzero" stroke-linecap="butt" stroke-opacity="1" stroke-miterlimit="4" stroke-linejoin="miter" fill-opacity="1" stroke="none" d="M28.991,26.021C29.019,26.023,29.005,26.023,28.991,26.021L28.991,26.021ZM90.019,34.023C88.177,29.523,84.448,24.671,81.521,23.13C83.903,27.875,85.284,32.638,85.81,36.188C85.81,36.188,85.81,36.213,85.819,36.26C81.029,24.129,72.907,19.238,66.273,8.587C65.938,8.049,65.602,7.509,65.276,6.941C65.102,6.649,64.953,6.351,64.809,6.05C64.535,5.51,64.323,4.941,64.177,4.352C64.18,4.294,64.139,4.243,64.081,4.236C64.055,4.229,64.027,4.229,64.001,4.236L63.98,4.248L63.949,4.266L63.966,4.241C54.549,9.847,50.643,19.66,49.639,25.906C46.73,26.074,43.879,26.813,41.246,28.082C40.75,28.332,40.519,28.922,40.71,29.449C40.902,30.014,41.507,30.312,42.063,30.118L42.153,30.081C44.45,28.978,46.93,28.32,49.466,28.14L49.712,28.122C50.06,28.101,50.407,28.087,50.754,28.084C52.812,28.066,54.863,28.353,56.841,28.934C56.958,28.969,57.071,29.008,57.189,29.045C57.517,29.146,57.841,29.257,58.165,29.375C58.401,29.463,58.635,29.552,58.868,29.654C59.057,29.732,59.246,29.809,59.432,29.892C59.724,30.025,60.014,30.164,60.3,30.307C60.431,30.372,60.561,30.437,60.691,30.506C60.969,30.654,61.243,30.81,61.515,30.97C61.69,31.073,61.864,31.179,62.035,31.288C65.104,33.217,67.65,35.893,69.444,39.075C67.186,37.46,63.131,35.865,59.229,36.555C74.466,44.295,70.375,70.946,49.263,69.94C47.382,69.863,45.524,69.498,43.751,68.86C43.33,68.7,42.917,68.527,42.507,68.344C42.267,68.232,42.028,68.119,41.792,67.991C36.61,65.284,32.337,60.152,31.804,53.918C31.804,53.918,33.758,46.516,45.805,46.516C47.107,46.516,50.829,42.825,50.899,41.752C50.883,41.399,43.511,38.422,40.637,35.544C39.1,34.007,38.37,33.266,37.724,32.71C37.375,32.408,37.009,32.128,36.629,31.868C35.663,28.435,35.621,24.801,36.509,21.346C32.157,23.36,28.772,26.543,26.313,29.352L26.292,29.352C24.613,27.191,24.729,20.062,24.828,18.574C24.807,18.481,23.574,19.224,23.413,19.335C21.932,20.411,20.546,21.616,19.273,22.94C17.824,24.433,16.503,26.045,15.319,27.762C12.594,31.685,10.663,36.118,9.635,40.802C9.624,40.85,9.23,42.604,8.94,44.769C8.891,45.106,8.846,45.445,8.804,45.782C8.705,46.433,8.631,47.143,8.554,48.253C8.554,48.295,8.554,48.337,8.546,48.379C8.514,48.857,8.487,49.334,8.461,49.812C8.461,49.885,8.461,49.957,8.461,50.031C8.461,73.799,27.426,93.067,50.82,93.067C71.771,93.067,89.168,77.613,92.574,57.313C92.645,56.763,92.702,56.209,92.767,55.653C93.609,48.272,92.673,40.515,90.019,34.028L90.019,34.023ZM90.019,34.023"/>
</g>
  <g id="Medium-M" transform="matrix(1.0,0.0,0.0,1.0,1697.0763393822044,1040.412468198397)">  <path fill-opacity="1" stroke-miterlimit="4" stroke-width="1px" stroke-linejoin="miter" stroke-linecap="butt" fill-rule="nonzero" stroke-dasharray="none" fill="#000000" stroke="none" stroke-opacity="1" d="M28.991,26.021C29.019,26.023,29.005,26.023,28.991,26.021L28.991,26.021ZM90.019,34.023C88.177,29.523,84.448,24.671,81.521,23.13C83.903,27.875,85.284,32.638,85.81,36.188C85.81,36.188,85.81,36.213,85.819,36.26C81.029,24.129,72.907,19.238,66.273,8.587C65.938,8.049,65.602,7.509,65.276,6.941C65.102,6.649,64.953,6.351,64.809,6.05C64.535,5.51,64.323,4.941,64.177,4.352C64.18,4.294,64.139,4.243,64.081,4.236C64.055,4.229,64.027,4.229,64.001,4.236L63.98,4.248L63.949,4.266L63.966,4.241C54.549,9.847,50.643,19.66,49.639,25.906C46.73,26.074,43.879,26.813,41.246,28.082C40.75,28.332,40.519,28.922,40.71,29.449C40.902,30.014,41.507,30.312,42.063,30.118L42.153,30.081C44.45,28.978,46.93,28.32,49.466,28.14L49.712,28.122C50.06,28.101,50.407,28.087,50.754,28.084C52.812,28.066,54.863,28.353,56.841,28.934C56.958,28.969,57.071,29.008,57.189,29.045C57.517,29.146,57.841,29.257,58.165,29.375C58.401,29.463,58.635,29.552,58.868,29.654C59.057,29.732,59.246,29.809,59.432,29.892C59.724,30.025,60.014,30.164,60.3,30.307C60.431,30.372,60.561,30.437,60.691,30.506C60.969,30.654,61.243,30.81,61.515,30.97C61.69,31.073,61.864,31.179,62.035,31.288C65.104,33.217,67.65,35.893,69.444,39.075C67.186,37.46,63.131,35.865,59.229,36.555C74.466,44.295,70.375,70.946,49.263,69.94C47.382,69.863,45.524,69.498,43.751,68.86C43.33,68.7,42.917,68.527,42.507,68.344C42.267,68.232,42.028,68.119,41.792,67.991C36.61,65.284,32.337,60.152,31.804,53.918C31.804,53.918,33.758,46.516,45.805,46.516C47.107,46.516,50.829,42.825,50.899,41.752C50.883,41.399,43.511,38.422,40.637,35.544C39.1,34.007,38.37,33.266,37.724,32.71C37.375,32.408,37.009,32.128,36.629,31.868C35.663,28.435,35.621,24.801,36.509,21.346C32.157,23.36,28.772,26.543,26.313,29.352L26.292,29.352C24.613,27.191,24.729,20.062,24.828,18.574C24.807,18.481,23.574,19.224,23.413,19.335C21.932,20.411,20.546,21.616,19.273,22.94C17.824,24.433,16.503,26.045,15.319,27.762C12.594,31.685,10.663,36.118,9.635,40.802C9.624,40.85,9.23,42.604,8.94,44.769C8.891,45.106,8.846,45.445,8.804,45.782C8.705,46.433,8.631,47.143,8.554,48.253C8.554,48.295,8.554,48.337,8.546,48.379C8.514,48.857,8.487,49.334,8.461,49.812C8.461,49.885,8.461,49.957,8.461,50.031C8.461,73.799,27.426,93.067,50.82,93.067C71.771,93.067,89.168,77.613,92.574,57.313C92.645,56.763,92.702,56.209,92.767,55.653C93.609,48.272,92.673,40.515,90.019,34.028L90.019,34.023ZM90.019,34.023"/>
</g>
  <g id="Regular-M" transform="matrix(1.0,0.0,0.0,1.0,1400.3663393822044,1040.412468198397)">  <path fill-opacity="1" fill="#000000" stroke-opacity="1" stroke-dasharray="none" stroke-linejoin="miter" stroke-width="1px" stroke-linecap="butt" stroke-miterlimit="4" fill-rule="nonzero" stroke="none" d="M28.991,26.021C29.019,26.023,29.005,26.023,28.991,26.021L28.991,26.021ZM90.019,34.023C88.177,29.523,84.448,24.671,81.521,23.13C83.903,27.875,85.284,32.638,85.81,36.188C85.81,36.188,85.81,36.213,85.819,36.26C81.029,24.129,72.907,19.238,66.273,8.587C65.938,8.049,65.602,7.509,65.276,6.941C65.102,6.649,64.953,6.351,64.809,6.05C64.535,5.51,64.323,4.941,64.177,4.352C64.18,4.294,64.139,4.243,64.081,4.236C64.055,4.229,64.027,4.229,64.001,4.236L63.98,4.248L63.949,4.266L63.966,4.241C54.549,9.847,50.643,19.66,49.639,25.906C46.73,26.074,43.879,26.813,41.246,28.082C40.75,28.332,40.519,28.922,40.71,29.449C40.902,30.014,41.507,30.312,42.063,30.118L42.153,30.081C44.45,28.978,46.93,28.32,49.466,28.14L49.712,28.122C50.06,28.101,50.407,28.087,50.754,28.084C52.812,28.066,54.863,28.353,56.841,28.934C56.958,28.969,57.071,29.008,57.189,29.045C57.517,29.146,57.841,29.257,58.165,29.375C58.401,29.463,58.635,29.552,58.868,29.654C59.057,29.732,59.246,29.809,59.432,29.892C59.724,30.025,60.014,30.164,60.3,30.307C60.431,30.372,60.561,30.437,60.691,30.506C60.969,30.654,61.243,30.81,61.515,30.97C61.69,31.073,61.864,31.179,62.035,31.288C65.104,33.217,67.65,35.893,69.444,39.075C67.186,37.46,63.131,35.865,59.229,36.555C74.466,44.295,70.375,70.946,49.263,69.94C47.382,69.863,45.524,69.498,43.751,68.86C43.33,68.7,42.917,68.527,42.507,68.344C42.267,68.232,42.028,68.119,41.792,67.991C36.61,65.284,32.337,60.152,31.804,53.918C31.804,53.918,33.758,46.516,45.805,46.516C47.107,46.516,50.829,42.825,50.899,41.752C50.883,41.399,43.511,38.422,40.637,35.544C39.1,34.007,38.37,33.266,37.724,32.71C37.375,32.408,37.009,32.128,36.629,31.868C35.663,28.435,35.621,24.801,36.509,21.346C32.157,23.36,28.772,26.543,26.313,29.352L26.292,29.352C24.613,27.191,24.729,20.062,24.828,18.574C24.807,18.481,23.574,19.224,23.413,19.335C21.932,20.411,20.546,21.616,19.273,22.94C17.824,24.433,16.503,26.045,15.319,27.762C12.594,31.685,10.663,36.118,9.635,40.802C9.624,40.85,9.23,42.604,8.94,44.769C8.891,45.106,8.846,45.445,8.804,45.782C8.705,46.433,8.631,47.143,8.554,48.253C8.554,48.295,8.554,48.337,8.546,48.379C8.514,48.857,8.487,49.334,8.461,49.812C8.461,49.885,8.461,49.957,8.461,50.031C8.461,73.799,27.426,93.067,50.82,93.067C71.771,93.067,89.168,77.613,92.574,57.313C92.645,56.763,92.702,56.209,92.767,55.653C93.609,48.272,92.673,40.515,90.019,34.028L90.019,34.023ZM90.019,34.023"/>
</g>
  <g id="Light-M" transform="matrix(1.0,0.0,0.0,1.0,1103.6563393822046,1040.412468198397)">  <path stroke-linejoin="miter" stroke-width="1px" stroke-linecap="butt" stroke-opacity="1" stroke-miterlimit="4" stroke="none" fill-opacity="1" fill="#000000" fill-rule="nonzero" stroke-dasharray="none" d="M28.991,26.021C29.019,26.023,29.005,26.023,28.991,26.021L28.991,26.021ZM90.019,34.023C88.177,29.523,84.448,24.671,81.521,23.13C83.903,27.875,85.284,32.638,85.81,36.188C85.81,36.188,85.81,36.213,85.819,36.26C81.029,24.129,72.907,19.238,66.273,8.587C65.938,8.049,65.602,7.509,65.276,6.941C65.102,6.649,64.953,6.351,64.809,6.05C64.535,5.51,64.323,4.941,64.177,4.352C64.18,4.294,64.139,4.243,64.081,4.236C64.055,4.229,64.027,4.229,64.001,4.236L63.98,4.248L63.949,4.266L63.966,4.241C54.549,9.847,50.643,19.66,49.639,25.906C46.73,26.074,43.879,26.813,41.246,28.082C40.75,28.332,40.519,28.922,40.71,29.449C40.902,30.014,41.507,30.312,42.063,30.118L42.153,30.081C44.45,28.978,46.93,28.32,49.466,28.14L49.712,28.122C50.06,28.101,50.407,28.087,50.754,28.084C52.812,28.066,54.863,28.353,56.841,28.934C56.958,28.969,57.071,29.008,57.189,29.045C57.517,29.146,57.841,29.257,58.165,29.375C58.401,29.463,58.635,29.552,58.868,29.654C59.057,29.732,59.246,29.809,59.432,29.892C59.724,30.025,60.014,30.164,60.3,30.307C60.431,30.372,60.561,30.437,60.691,30.506C60.969,30.654,61.243,30.81,61.515,30.97C61.69,31.073,61.864,31.179,62.035,31.288C65.104,33.217,67.65,35.893,69.444,39.075C67.186,37.46,63.131,35.865,59.229,36.555C74.466,44.295,70.375,70.946,49.263,69.94C47.382,69.863,45.524,69.498,43.751,68.86C43.33,68.7,42.917,68.527,42.507,68.344C42.267,68.232,42.028,68.119,41.792,67.991C36.61,65.284,32.337,60.152,31.804,53.918C31.804,53.918,33.758,46.516,45.805,46.516C47.107,46.516,50.829,42.825,50.899,41.752C50.883,41.399,43.511,38.422,40.637,35.544C39.1,34.007,38.37,33.266,37.724,32.71C37.375,32.408,37.009,32.128,36.629,31.868C35.663,28.435,35.621,24.801,36.509,21.346C32.157,23.36,28.772,26.543,26.313,29.352L26.292,29.352C24.613,27.191,24.729,20.062,24.828,18.574C24.807,18.481,23.574,19.224,23.413,19.335C21.932,20.411,20.546,21.616,19.273,22.94C17.824,24.433,16.503,26.045,15.319,27.762C12.594,31.685,10.663,36.118,9.635,40.802C9.624,40.85,9.23,42.604,8.94,44.769C8.891,45.106,8.846,45.445,8.804,45.782C8.705,46.433,8.631,47.143,8.554,48.253C8.554,48.295,8.554,48.337,8.546,48.379C8.514,48.857,8.487,49.334,8.461,49.812C8.461,49.885,8.461,49.957,8.461,50.031C8.461,73.799,27.426,93.067,50.82,93.067C71.771,93.067,89.168,77.613,92.574,57.313C92.645,56.763,92.702,56.209,92.767,55.653C93.609,48.272,92.673,40.515,90.019,34.028L90.019,34.023ZM90.019,34.023"/>
</g>
  <g id="Thin-M" transform="matrix(1.0,0.0,0.0,1.0,806.9463393822047,1040.412468198397)">  <path stroke-linecap="butt" fill-opacity="1" stroke-linejoin="miter" stroke-miterlimit="4" fill="#000000" stroke="none" stroke-width="1px" stroke-dasharray="none" stroke-opacity="1" fill-rule="nonzero" d="M28.991,26.021C29.019,26.023,29.005,26.023,28.991,26.021L28.991,26.021ZM90.019,34.023C88.177,29.523,84.448,24.671,81.521,23.13C83.903,27.875,85.284,32.638,85.81,36.188C85.81,36.188,85.81,36.213,85.819,36.26C81.029,24.129,72.907,19.238,66.273,8.587C65.938,8.049,65.602,7.509,65.276,6.941C65.102,6.649,64.953,6.351,64.809,6.05C64.535,5.51,64.323,4.941,64.177,4.352C64.18,4.294,64.139,4.243,64.081,4.236C64.055,4.229,64.027,4.229,64.001,4.236L63.98,4.248L63.949,4.266L63.966,4.241C54.549,9.847,50.643,19.66,49.639,25.906C46.73,26.074,43.879,26.813,41.246,28.082C40.75,28.332,40.519,28.922,40.71,29.449C40.902,30.014,41.507,30.312,42.063,30.118L42.153,30.081C44.45,28.978,46.93,28.32,49.466,28.14L49.712,28.122C50.06,28.101,50.407,28.087,50.754,28.084C52.812,28.066,54.863,28.353,56.841,28.934C56.958,28.969,57.071,29.008,57.189,29.045C57.517,29.146,57.841,29.257,58.165,29.375C58.401,29.463,58.635,29.552,58.868,29.654C59.057,29.732,59.246,29.809,59.432,29.892C59.724,30.025,60.014,30.164,60.3,30.307C60.431,30.372,60.561,30.437,60.691,30.506C60.969,30.654,61.243,30.81,61.515,30.97C61.69,31.073,61.864,31.179,62.035,31.288C65.104,33.217,67.65,35.893,69.444,39.075C67.186,37.46,63.131,35.865,59.229,36.555C74.466,44.295,70.375,70.946,49.263,69.94C47.382,69.863,45.524,69.498,43.751,68.86C43.33,68.7,42.917,68.527,42.507,68.344C42.267,68.232,42.028,68.119,41.792,67.991C36.61,65.284,32.337,60.152,31.804,53.918C31.804,53.918,33.758,46.516,45.805,46.516C47.107,46.516,50.829,42.825,50.899,41.752C50.883,41.399,43.511,38.422,40.637,35.544C39.1,34.007,38.37,33.266,37.724,32.71C37.375,32.408,37.009,32.128,36.629,31.868C35.663,28.435,35.621,24.801,36.509,21.346C32.157,23.36,28.772,26.543,26.313,29.352L26.292,29.352C24.613,27.191,24.729,20.062,24.828,18.574C24.807,18.481,23.574,19.224,23.413,19.335C21.932,20.411,20.546,21.616,19.273,22.94C17.824,24.433,16.503,26.045,15.319,27.762C12.594,31.685,10.663,36.118,9.635,40.802C9.624,40.85,9.23,42.604,8.94,44.769C8.891,45.106,8.846,45.445,8.804,45.782C8.705,46.433,8.631,47.143,8.554,48.253C8.554,48.295,8.554,48.337,8.546,48.379C8.514,48.857,8.487,49.334,8.461,49.812C8.461,49.885,8.461,49.957,8.461,50.031C8.461,73.799,27.426,93.067,50.82,93.067C71.771,93.067,89.168,77.613,92.574,57.313C92.645,56.763,92.702,56.209,92.767,55.653C93.609,48.272,92.673,40.515,90.019,34.028L90.019,34.023ZM90.019,34.023"/>
</g>
  <g id="Ultralight-M" transform="matrix(1.0,0.0,0.0,1.0,510.2363393822046,1040.412468198397)">  <path stroke-dasharray="none" stroke-miterlimit="4" fill-opacity="1" stroke-linecap="butt" stroke-opacity="1" stroke-width="1px" fill-rule="nonzero" stroke="none" stroke-linejoin="miter" fill="#000000" d="M28.991,26.021C29.019,26.023,29.005,26.023,28.991,26.021L28.991,26.021ZM90.019,34.023C88.177,29.523,84.448,24.671,81.521,23.13C83.903,27.875,85.284,32.638,85.81,36.188C85.81,36.188,85.81,36.213,85.819,36.26C81.029,24.129,72.907,19.238,66.273,8.587C65.938,8.049,65.602,7.509,65.276,6.941C65.102,6.649,64.953,6.351,64.809,6.05C64.535,5.51,64.323,4.941,64.177,4.352C64.18,4.294,64.139,4.243,64.081,4.236C64.055,4.229,64.027,4.229,64.001,4.236L63.98,4.248L63.949,4.266L63.966,4.241C54.549,9.847,50.643,19.66,49.639,25.906C46.73,26.074,43.879,26.813,41.246,28.082C40.75,28.332,40.519,28.922,40.71,29.449C40.902,30.014,41.507,30.312,42.063,30.118L42.153,30.081C44.45,28.978,46.93,28.32,49.466,28.14L49.712,28.122C50.06,28.101,50.407,28.087,50.754,28.084C52.812,28.066,54.863,28.353,56.841,28.934C56.958,28.969,57.071,29.008,57.189,29.045C57.517,29.146,57.841,29.257,58.165,29.375C58.401,29.463,58.635,29.552,58.868,29.654C59.057,29.732,59.246,29.809,59.432,29.892C59.724,30.025,60.014,30.164,60.3,30.307C60.431,30.372,60.561,30.437,60.691,30.506C60.969,30.654,61.243,30.81,61.515,30.97C61.69,31.073,61.864,31.179,62.035,31.288C65.104,33.217,67.65,35.893,69.444,39.075C67.186,37.46,63.131,35.865,59.229,36.555C74.466,44.295,70.375,70.946,49.263,69.94C47.382,69.863,45.524,69.498,43.751,68.86C43.33,68.7,42.917,68.527,42.507,68.344C42.267,68.232,42.028,68.119,41.792,67.991C36.61,65.284,32.337,60.152,31.804,53.918C31.804,53.918,33.758,46.516,45.805,46.516C47.107,46.516,50.829,42.825,50.899,41.752C50.883,41.399,43.511,38.422,40.637,35.544C39.1,34.007,38.37,33.266,37.724,32.71C37.375,32.408,37.009,32.128,36.629,31.868C35.663,28.435,35.621,24.801,36.509,21.346C32.157,23.36,28.772,26.543,26.313,29.352L26.292,29.352C24.613,27.191,24.729,20.062,24.828,18.574C24.807,18.481,23.574,19.224,23.413,19.335C21.932,20.411,20.546,21.616,19.273,22.94C17.824,24.433,16.503,26.045,15.319,27.762C12.594,31.685,10.663,36.118,9.635,40.802C9.624,40.85,9.23,42.604,8.94,44.769C8.891,45.106,8.846,45.445,8.804,45.782C8.705,46.433,8.631,47.143,8.554,48.253C8.554,48.295,8.554,48.337,8.546,48.379C8.514,48.857,8.487,49.334,8.461,49.812C8.461,49.885,8.461,49.957,8.461,50.031C8.461,73.799,27.426,93.067,50.82,93.067C71.771,93.067,89.168,77.613,92.574,57.313C92.645,56.763,92.702,56.209,92.767,55.653C93.609,48.272,92.673,40.515,90.019,34.028L90.019,34.023ZM90.019,34.023"/>
</g>
  <g id="Black-S" transform="matrix(1.0,0.0,0.0,1.0,2894.932053736266,621.3400568376261)">  <path fill="#000000" fill-opacity="1" stroke-linecap="butt" stroke-linejoin="miter" stroke-width="1px" stroke-opacity="1" stroke="none" stroke-miterlimit="4" fill-rule="nonzero" stroke-dasharray="none" d="M22.7,20.374C22.722,20.376,22.711,20.376,22.7,20.374L22.7,20.374ZM70.485,26.64C69.043,23.117,66.123,19.317,63.831,18.111C65.696,21.826,66.777,25.555,67.189,28.335C67.189,28.335,67.189,28.355,67.196,28.392C63.446,18.893,57.086,15.063,51.892,6.724C51.629,6.302,51.367,5.879,51.111,5.435C50.975,5.207,50.858,4.973,50.745,4.737C50.531,4.314,50.365,3.869,50.25,3.408C50.253,3.362,50.221,3.322,50.175,3.316C50.155,3.311,50.133,3.311,50.113,3.316L50.097,3.326L50.072,3.34L50.086,3.321C42.712,7.71,39.654,15.393,38.868,20.284C36.59,20.416,34.357,20.995,32.296,21.988C31.907,22.184,31.726,22.646,31.876,23.059C32.027,23.501,32.5,23.734,32.935,23.582L33.006,23.553C34.805,22.69,36.746,22.175,38.732,22.034L38.925,22.02C39.197,22.003,39.469,21.992,39.741,21.989C41.352,21.976,42.958,22.201,44.507,22.655C44.598,22.683,44.686,22.713,44.779,22.742C45.036,22.821,45.29,22.908,45.543,23.001C45.728,23.07,45.911,23.139,46.093,23.219C46.242,23.28,46.39,23.341,46.536,23.406C46.764,23.509,46.991,23.618,47.215,23.73C47.317,23.781,47.419,23.833,47.521,23.886C47.739,24.002,47.954,24.124,48.166,24.25C48.303,24.33,48.439,24.413,48.574,24.498C50.976,26.009,52.97,28.105,54.375,30.596C52.607,29.331,49.432,28.082,46.376,28.623C58.307,34.683,55.103,55.551,38.573,54.763C37.1,54.702,35.645,54.417,34.257,53.918C33.928,53.792,33.604,53.657,33.283,53.513C33.095,53.426,32.908,53.337,32.723,53.237C28.665,51.117,25.32,47.099,24.903,42.218C24.903,42.218,26.433,36.422,35.865,36.422C36.885,36.422,39.799,33.532,39.854,32.692C39.841,32.415,34.069,30.084,31.819,27.831C30.615,26.628,30.044,26.047,29.538,25.612C29.265,25.376,28.978,25.156,28.68,24.953C27.924,22.264,27.892,19.42,28.586,16.714C25.179,18.291,22.529,20.783,20.603,22.983L20.587,22.983C19.272,21.29,19.363,15.708,19.441,14.544C19.424,14.471,18.459,15.052,18.332,15.139C17.172,15.982,16.087,16.926,15.091,17.962C13.957,19.131,12.922,20.394,11.994,21.738C9.861,24.809,8.349,28.28,7.544,31.948C7.536,31.986,7.227,33.359,7,35.054C6.962,35.318,6.927,35.583,6.894,35.847C6.816,36.357,6.758,36.913,6.698,37.782C6.698,37.815,6.698,37.848,6.691,37.881C6.667,38.255,6.645,38.629,6.625,39.003C6.625,39.06,6.625,39.116,6.625,39.174C6.625,57.785,21.475,72.871,39.792,72.871C56.197,72.871,69.819,60.771,72.485,44.876C72.541,44.445,72.586,44.012,72.636,43.576C73.296,37.797,72.563,31.723,70.485,26.644L70.485,26.64ZM70.485,26.64"/>
</g>
  <g id="Heavy-S" transform="matrix(1.0,0.0,0.0,1.0,2598.222053736266,621.3400568376261)">  <path stroke-opacity="1" fill-rule="nonzero" stroke-miterlimit="4" stroke-dasharray="none" stroke-linecap="butt" stroke-width="1px" stroke="none" stroke-linejoin="miter" fill-opacity="1" fill="#000000" d="M22.7,20.374C22.722,20.376,22.711,20.376,22.7,20.374L22.7,20.374ZM70.485,26.64C69.043,23.117,66.123,19.317,63.831,18.111C65.696,21.826,66.777,25.555,67.189,28.335C67.189,28.335,67.189,28.355,67.196,28.392C63.446,18.893,57.086,15.063,51.892,6.724C51.629,6.302,51.367,5.879,51.111,5.435C50.975,5.207,50.858,4.973,50.745,4.737C50.531,4.314,50.365,3.869,50.25,3.408C50.253,3.362,50.221,3.322,50.175,3.316C50.155,3.311,50.133,3.311,50.113,3.316L50.097,3.326L50.072,3.34L50.086,3.321C42.712,7.71,39.654,15.393,38.868,20.284C36.59,20.416,34.357,20.995,32.296,21.988C31.907,22.184,31.726,22.646,31.876,23.059C32.027,23.501,32.5,23.734,32.935,23.582L33.006,23.553C34.805,22.69,36.746,22.175,38.732,22.034L38.925,22.02C39.197,22.003,39.469,21.992,39.741,21.989C41.352,21.976,42.958,22.201,44.507,22.655C44.598,22.683,44.686,22.713,44.779,22.742C45.036,22.821,45.29,22.908,45.543,23.001C45.728,23.07,45.911,23.139,46.093,23.219C46.242,23.28,46.39,23.341,46.536,23.406C46.764,23.509,46.991,23.618,47.215,23.73C47.317,23.781,47.419,23.833,47.521,23.886C47.739,24.002,47.954,24.124,48.166,24.25C48.303,24.33,48.439,24.413,48.574,24.498C50.976,26.009,52.97,28.105,54.375,30.596C52.607,29.331,49.432,28.082,46.376,28.623C58.307,34.683,55.103,55.551,38.573,54.763C37.1,54.702,35.645,54.417,34.257,53.918C33.928,53.792,33.604,53.657,33.283,53.513C33.095,53.426,32.908,53.337,32.723,53.237C28.665,51.117,25.32,47.099,24.903,42.218C24.903,42.218,26.433,36.422,35.865,36.422C36.885,36.422,39.799,33.532,39.854,32.692C39.841,32.415,34.069,30.084,31.819,27.831C30.615,26.628,30.044,26.047,29.538,25.612C29.265,25.376,28.978,25.156,28.68,24.953C27.924,22.264,27.892,19.42,28.586,16.714C25.179,18.291,22.529,20.783,20.603,22.983L20.587,22.983C19.272,21.29,19.363,15.708,19.441,14.544C19.424,14.471,18.459,15.052,18.332,15.139C17.172,15.982,16.087,16.926,15.091,17.962C13.957,19.131,12.922,20.394,11.994,21.738C9.861,24.809,8.349,28.28,7.544,31.948C7.536,31.986,7.227,33.359,7,35.054C6.962,35.318,6.927,35.583,6.894,35.847C6.816,36.357,6.758,36.913,6.698,37.782C6.698,37.815,6.698,37.848,6.691,37.881C6.667,38.255,6.645,38.629,6.625,39.003C6.625,39.06,6.625,39.116,6.625,39.174C6.625,57.785,21.475,72.871,39.792,72.871C56.197,72.871,69.819,60.771,72.485,44.876C72.541,44.445,72.586,44.012,72.636,43.576C73.296,37.797,72.563,31.723,70.485,26.644L70.485,26.64ZM70.485,26.64"/>
</g>
  <g id="Bold-S" transform="matrix(1.0,0.0,0.0,1.0,2301.512053736266,621.3400568376261)">  <path stroke-miterlimit="4" stroke="none" stroke-linecap="butt" stroke-opacity="1" fill-rule="nonzero" fill="#000000" stroke-dasharray="none" stroke-width="1px" fill-opacity="1" stroke-linejoin="miter" d="M22.7,20.374C22.722,20.376,22.711,20.376,22.7,20.374L22.7,20.374ZM70.485,26.64C69.043,23.117,66.123,19.317,63.831,18.111C65.696,21.826,66.777,25.555,67.189,28.335C67.189,28.335,67.189,28.355,67.196,28.392C63.446,18.893,57.086,15.063,51.892,6.724C51.629,6.302,51.367,5.879,51.111,5.435C50.975,5.207,50.858,4.973,50.745,4.737C50.531,4.314,50.365,3.869,50.25,3.408C50.253,3.362,50.221,3.322,50.175,3.316C50.155,3.311,50.133,3.311,50.113,3.316L50.097,3.326L50.072,3.34L50.086,3.321C42.712,7.71,39.654,15.393,38.868,20.284C36.59,20.416,34.357,20.995,32.296,21.988C31.907,22.184,31.726,22.646,31.876,23.059C32.027,23.501,32.5,23.734,32.935,23.582L33.006,23.553C34.805,22.69,36.746,22.175,38.732,22.034L38.925,22.02C39.197,22.003,39.469,21.992,39.741,21.989C41.352,21.976,42.958,22.201,44.507,22.655C44.598,22.683,44.686,22.713,44.779,22.742C45.036,22.821,45.29,22.908,45.543,23.001C45.728,23.07,45.911,23.139,46.093,23.219C46.242,23.28,46.39,23.341,46.536,23.406C46.764,23.509,46.991,23.618,47.215,23.73C47.317,23.781,47.419,23.833,47.521,23.886C47.739,24.002,47.954,24.124,48.166,24.25C48.303,24.33,48.439,24.413,48.574,24.498C50.976,26.009,52.97,28.105,54.375,30.596C52.607,29.331,49.432,28.082,46.376,28.623C58.307,34.683,55.103,55.551,38.573,54.763C37.1,54.702,35.645,54.417,34.257,53.918C33.928,53.792,33.604,53.657,33.283,53.513C33.095,53.426,32.908,53.337,32.723,53.237C28.665,51.117,25.32,47.099,24.903,42.218C24.903,42.218,26.433,36.422,35.865,36.422C36.885,36.422,39.799,33.532,39.854,32.692C39.841,32.415,34.069,30.084,31.819,27.831C30.615,26.628,30.044,26.047,29.538,25.612C29.265,25.376,28.978,25.156,28.68,24.953C27.924,22.264,27.892,19.42,28.586,16.714C25.179,18.291,22.529,20.783,20.603,22.983L20.587,22.983C19.272,21.29,19.363,15.708,19.441,14.544C19.424,14.471,18.459,15.052,18.332,15.139C17.172,15.982,16.087,16.926,15.091,17.962C13.957,19.131,12.922,20.394,11.994,21.738C9.861,24.809,8.349,28.28,7.544,31.948C7.536,31.986,7.227,33.359,7,35.054C6.962,35.318,6.927,35.583,6.894,35.847C6.816,36.357,6.758,36.913,6.698,37.782C6.698,37.815,6.698,37.848,6.691,37.881C6.667,38.255,6.645,38.629,6.625,39.003C6.625,39.06,6.625,39.116,6.625,39.174C6.625,57.785,21.475,72.871,39.792,72.871C56.197,72.871,69.819,60.771,72.485,44.876C72.541,44.445,72.586,44.012,72.636,43.576C73.296,37.797,72.563,31.723,70.485,26.644L70.485,26.64ZM70.485,26.64"/>
</g>
  <g id="Semibold-S" transform="matrix(1.0,0.0,0.0,1.0,2004.802053736266,621.3400568376261)">  <path fill="#000000" stroke-dasharray="none" stroke-width="1px" fill-rule="nonzero" stroke-linecap="butt" stroke-opacity="1" stroke-miterlimit="4" stroke-linejoin="miter" fill-opacity="1" stroke="none" d="M22.7,20.374C22.722,20.376,22.711,20.376,22.7,20.374L22.7,20.374ZM70.485,26.64C69.043,23.117,66.123,19.317,63.831,18.111C65.696,21.826,66.777,25.555,67.189,28.335C67.189,28.335,67.189,28.355,67.196,28.392C63.446,18.893,57.086,15.063,51.892,6.724C51.629,6.302,51.367,5.879,51.111,5.435C50.975,5.207,50.858,4.973,50.745,4.737C50.531,4.314,50.365,3.869,50.25,3.408C50.253,3.362,50.221,3.322,50.175,3.316C50.155,3.311,50.133,3.311,50.113,3.316L50.097,3.326L50.072,3.34L50.086,3.321C42.712,7.71,39.654,15.393,38.868,20.284C36.59,20.416,34.357,20.995,32.296,21.988C31.907,22.184,31.726,22.646,31.876,23.059C32.027,23.501,32.5,23.734,32.935,23.582L33.006,23.553C34.805,22.69,36.746,22.175,38.732,22.034L38.925,22.02C39.197,22.003,39.469,21.992,39.741,21.989C41.352,21.976,42.958,22.201,44.507,22.655C44.598,22.683,44.686,22.713,44.779,22.742C45.036,22.821,45.29,22.908,45.543,23.001C45.728,23.07,45.911,23.139,46.093,23.219C46.242,23.28,46.39,23.341,46.536,23.406C46.764,23.509,46.991,23.618,47.215,23.73C47.317,23.781,47.419,23.833,47.521,23.886C47.739,24.002,47.954,24.124,48.166,24.25C48.303,24.33,48.439,24.413,48.574,24.498C50.976,26.009,52.97,28.105,54.375,30.596C52.607,29.331,49.432,28.082,46.376,28.623C58.307,34.683,55.103,55.551,38.573,54.763C37.1,54.702,35.645,54.417,34.257,53.918C33.928,53.792,33.604,53.657,33.283,53.513C33.095,53.426,32.908,53.337,32.723,53.237C28.665,51.117,25.32,47.099,24.903,42.218C24.903,42.218,26.433,36.422,35.865,36.422C36.885,36.422,39.799,33.532,39.854,32.692C39.841,32.415,34.069,30.084,31.819,27.831C30.615,26.628,30.044,26.047,29.538,25.612C29.265,25.376,28.978,25.156,28.68,24.953C27.924,22.264,27.892,19.42,28.586,16.714C25.179,18.291,22.529,20.783,20.603,22.983L20.587,22.983C19.272,21.29,19.363,15.708,19.441,14.544C19.424,14.471,18.459,15.052,18.332,15.139C17.172,15.982,16.087,16.926,15.091,17.962C13.957,19.131,12.922,20.394,11.994,21.738C9.861,24.809,8.349,28.28,7.544,31.948C7.536,31.986,7.227,33.359,7,35.054C6.962,35.318,6.927,35.583,6.894,35.847C6.816,36.357,6.758,36.913,6.698,37.782C6.698,37.815,6.698,37.848,6.691,37.881C6.667,38.255,6.645,38.629,6.625,39.003C6.625,39.06,6.625,39.116,6.625,39.174C6.625,57.785,21.475,72.871,39.792,72.871C56.197,72.871,69.819,60.771,72.485,44.876C72.541,44.445,72.586,44.012,72.636,43.576C73.296,37.797,72.563,31.723,70.485,26.644L70.485,26.64ZM70.485,26.64"/>
</g>
  <g id="Medium-S" transform="matrix(1.0,0.0,0.0,1.0,1708.092053736266,621.3400568376261)">  <path fill-opacity="1" stroke-miterlimit="4" stroke-width="1px" stroke-linejoin="miter" stroke-linecap="butt" fill-rule="nonzero" stroke-dasharray="none" fill="#000000" stroke="none" stroke-opacity="1" d="M22.7,20.374C22.722,20.376,22.711,20.376,22.7,20.374L22.7,20.374ZM70.485,26.64C69.043,23.117,66.123,19.317,63.831,18.111C65.696,21.826,66.777,25.555,67.189,28.335C67.189,28.335,67.189,28.355,67.196,28.392C63.446,18.893,57.086,15.063,51.892,6.724C51.629,6.302,51.367,5.879,51.111,5.435C50.975,5.207,50.858,4.973,50.745,4.737C50.531,4.314,50.365,3.869,50.25,3.408C50.253,3.362,50.221,3.322,50.175,3.316C50.155,3.311,50.133,3.311,50.113,3.316L50.097,3.326L50.072,3.34L50.086,3.321C42.712,7.71,39.654,15.393,38.868,20.284C36.59,20.416,34.357,20.995,32.296,21.988C31.907,22.184,31.726,22.646,31.876,23.059C32.027,23.501,32.5,23.734,32.935,23.582L33.006,23.553C34.805,22.69,36.746,22.175,38.732,22.034L38.925,22.02C39.197,22.003,39.469,21.992,39.741,21.989C41.352,21.976,42.958,22.201,44.507,22.655C44.598,22.683,44.686,22.713,44.779,22.742C45.036,22.821,45.29,22.908,45.543,23.001C45.728,23.07,45.911,23.139,46.093,23.219C46.242,23.28,46.39,23.341,46.536,23.406C46.764,23.509,46.991,23.618,47.215,23.73C47.317,23.781,47.419,23.833,47.521,23.886C47.739,24.002,47.954,24.124,48.166,24.25C48.303,24.33,48.439,24.413,48.574,24.498C50.976,26.009,52.97,28.105,54.375,30.596C52.607,29.331,49.432,28.082,46.376,28.623C58.307,34.683,55.103,55.551,38.573,54.763C37.1,54.702,35.645,54.417,34.257,53.918C33.928,53.792,33.604,53.657,33.283,53.513C33.095,53.426,32.908,53.337,32.723,53.237C28.665,51.117,25.32,47.099,24.903,42.218C24.903,42.218,26.433,36.422,35.865,36.422C36.885,36.422,39.799,33.532,39.854,32.692C39.841,32.415,34.069,30.084,31.819,27.831C30.615,26.628,30.044,26.047,29.538,25.612C29.265,25.376,28.978,25.156,28.68,24.953C27.924,22.264,27.892,19.42,28.586,16.714C25.179,18.291,22.529,20.783,20.603,22.983L20.587,22.983C19.272,21.29,19.363,15.708,19.441,14.544C19.424,14.471,18.459,15.052,18.332,15.139C17.172,15.982,16.087,16.926,15.091,17.962C13.957,19.131,12.922,20.394,11.994,21.738C9.861,24.809,8.349,28.28,7.544,31.948C7.536,31.986,7.227,33.359,7,35.054C6.962,35.318,6.927,35.583,6.894,35.847C6.816,36.357,6.758,36.913,6.698,37.782C6.698,37.815,6.698,37.848,6.691,37.881C6.667,38.255,6.645,38.629,6.625,39.003C6.625,39.06,6.625,39.116,6.625,39.174C6.625,57.785,21.475,72.871,39.792,72.871C56.197,72.871,69.819,60.771,72.485,44.876C72.541,44.445,72.586,44.012,72.636,43.576C73.296,37.797,72.563,31.723,70.485,26.644L70.485,26.64ZM70.485,26.64"/>
</g>
  <g id="Regular-S" transform="matrix(1.0,0.0,0.0,1.0,1411.382053736266,621.3400568376261)">  <path fill-opacity="1" fill="#000000" stroke-opacity="1" stroke-dasharray="none" stroke-linejoin="miter" stroke-width="1px" stroke-linecap="butt" stroke-miterlimit="4" fill-rule="nonzero" stroke="none" d="M22.7,20.374C22.722,20.376,22.711,20.376,22.7,20.374L22.7,20.374ZM70.485,26.64C69.043,23.117,66.123,19.317,63.831,18.111C65.696,21.826,66.777,25.555,67.189,28.335C67.189,28.335,67.189,28.355,67.196,28.392C63.446,18.893,57.086,15.063,51.892,6.724C51.629,6.302,51.367,5.879,51.111,5.435C50.975,5.207,50.858,4.973,50.745,4.737C50.531,4.314,50.365,3.869,50.25,3.408C50.253,3.362,50.221,3.322,50.175,3.316C50.155,3.311,50.133,3.311,50.113,3.316L50.097,3.326L50.072,3.34L50.086,3.321C42.712,7.71,39.654,15.393,38.868,20.284C36.59,20.416,34.357,20.995,32.296,21.988C31.907,22.184,31.726,22.646,31.876,23.059C32.027,23.501,32.5,23.734,32.935,23.582L33.006,23.553C34.805,22.69,36.746,22.175,38.732,22.034L38.925,22.02C39.197,22.003,39.469,21.992,39.741,21.989C41.352,21.976,42.958,22.201,44.507,22.655C44.598,22.683,44.686,22.713,44.779,22.742C45.036,22.821,45.29,22.908,45.543,23.001C45.728,23.07,45.911,23.139,46.093,23.219C46.242,23.28,46.39,23.341,46.536,23.406C46.764,23.509,46.991,23.618,47.215,23.73C47.317,23.781,47.419,23.833,47.521,23.886C47.739,24.002,47.954,24.124,48.166,24.25C48.303,24.33,48.439,24.413,48.574,24.498C50.976,26.009,52.97,28.105,54.375,30.596C52.607,29.331,49.432,28.082,46.376,28.623C58.307,34.683,55.103,55.551,38.573,54.763C37.1,54.702,35.645,54.417,34.257,53.918C33.928,53.792,33.604,53.657,33.283,53.513C33.095,53.426,32.908,53.337,32.723,53.237C28.665,51.117,25.32,47.099,24.903,42.218C24.903,42.218,26.433,36.422,35.865,36.422C36.885,36.422,39.799,33.532,39.854,32.692C39.841,32.415,34.069,30.084,31.819,27.831C30.615,26.628,30.044,26.047,29.538,25.612C29.265,25.376,28.978,25.156,28.68,24.953C27.924,22.264,27.892,19.42,28.586,16.714C25.179,18.291,22.529,20.783,20.603,22.983L20.587,22.983C19.272,21.29,19.363,15.708,19.441,14.544C19.424,14.471,18.459,15.052,18.332,15.139C17.172,15.982,16.087,16.926,15.091,17.962C13.957,19.131,12.922,20.394,11.994,21.738C9.861,24.809,8.349,28.28,7.544,31.948C7.536,31.986,7.227,33.359,7,35.054C6.962,35.318,6.927,35.583,6.894,35.847C6.816,36.357,6.758,36.913,6.698,37.782C6.698,37.815,6.698,37.848,6.691,37.881C6.667,38.255,6.645,38.629,6.625,39.003C6.625,39.06,6.625,39.116,6.625,39.174C6.625,57.785,21.475,72.871,39.792,72.871C56.197,72.871,69.819,60.771,72.485,44.876C72.541,44.445,72.586,44.012,72.636,43.576C73.296,37.797,72.563,31.723,70.485,26.644L70.485,26.64ZM70.485,26.64"/>
</g>
  <g id="Light-S" transform="matrix(1.0,0.0,0.0,1.0,1114.6720537362662,621.3400568376261)">  <path stroke-linejoin="miter" stroke-width="1px" stroke-linecap="butt" stroke-opacity="1" stroke-miterlimit="4" stroke="none" fill-opacity="1" fill="#000000" fill-rule="nonzero" stroke-dasharray="none" d="M22.7,20.374C22.722,20.376,22.711,20.376,22.7,20.374L22.7,20.374ZM70.485,26.64C69.043,23.117,66.123,19.317,63.831,18.111C65.696,21.826,66.777,25.555,67.189,28.335C67.189,28.335,67.189,28.355,67.196,28.392C63.446,18.893,57.086,15.063,51.892,6.724C51.629,6.302,51.367,5.879,51.111,5.435C50.975,5.207,50.858,4.973,50.745,4.737C50.531,4.314,50.365,3.869,50.25,3.408C50.253,3.362,50.221,3.322,50.175,3.316C50.155,3.311,50.133,3.311,50.113,3.316L50.097,3.326L50.072,3.34L50.086,3.321C42.712,7.71,39.654,15.393,38.868,20.284C36.59,20.416,34.357,20.995,32.296,21.988C31.907,22.184,31.726,22.646,31.876,23.059C32.027,23.501,32.5,23.734,32.935,23.582L33.006,23.553C34.805,22.69,36.746,22.175,38.732,22.034L38.925,22.02C39.197,22.003,39.469,21.992,39.741,21.989C41.352,21.976,42.958,22.201,44.507,22.655C44.598,22.683,44.686,22.713,44.779,22.742C45.036,22.821,45.29,22.908,45.543,23.001C45.728,23.07,45.911,23.139,46.093,23.219C46.242,23.28,46.39,23.341,46.536,23.406C46.764,23.509,46.991,23.618,47.215,23.73C47.317,23.781,47.419,23.833,47.521,23.886C47.739,24.002,47.954,24.124,48.166,24.25C48.303,24.33,48.439,24.413,48.574,24.498C50.976,26.009,52.97,28.105,54.375,30.596C52.607,29.331,49.432,28.082,46.376,28.623C58.307,34.683,55.103,55.551,38.573,54.763C37.1,54.702,35.645,54.417,34.257,53.918C33.928,53.792,33.604,53.657,33.283,53.513C33.095,53.426,32.908,53.337,32.723,53.237C28.665,51.117,25.32,47.099,24.903,42.218C24.903,42.218,26.433,36.422,35.865,36.422C36.885,36.422,39.799,33.532,39.854,32.692C39.841,32.415,34.069,30.084,31.819,27.831C30.615,26.628,30.044,26.047,29.538,25.612C29.265,25.376,28.978,25.156,28.68,24.953C27.924,22.264,27.892,19.42,28.586,16.714C25.179,18.291,22.529,20.783,20.603,22.983L20.587,22.983C19.272,21.29,19.363,15.708,19.441,14.544C19.424,14.471,18.459,15.052,18.332,15.139C17.172,15.982,16.087,16.926,15.091,17.962C13.957,19.131,12.922,20.394,11.994,21.738C9.861,24.809,8.349,28.28,7.544,31.948C7.536,31.986,7.227,33.359,7,35.054C6.962,35.318,6.927,35.583,6.894,35.847C6.816,36.357,6.758,36.913,6.698,37.782C6.698,37.815,6.698,37.848,6.691,37.881C6.667,38.255,6.645,38.629,6.625,39.003C6.625,39.06,6.625,39.116,6.625,39.174C6.625,57.785,21.475,72.871,39.792,72.871C56.197,72.871,69.819,60.771,72.485,44.876C72.541,44.445,72.586,44.012,72.636,43.576C73.296,37.797,72.563,31.723,70.485,26.644L70.485,26.64ZM70.485,26.64"/>
</g>
  <g id="Thin-S" transform="matrix(1.0,0.0,0.0,1.0,817.9620537362663,621.3400568376261)">  <path stroke-linecap="butt" fill-opacity="1" stroke-linejoin="miter" stroke-miterlimit="4" fill="#000000" stroke="none" stroke-width="1px" stroke-dasharray="none" stroke-opacity="1" fill-rule="nonzero" d="M22.7,20.374C22.722,20.376,22.711,20.376,22.7,20.374L22.7,20.374ZM70.485,26.64C69.043,23.117,66.123,19.317,63.831,18.111C65.696,21.826,66.777,25.555,67.189,28.335C67.189,28.335,67.189,28.355,67.196,28.392C63.446,18.893,57.086,15.063,51.892,6.724C51.629,6.302,51.367,5.879,51.111,5.435C50.975,5.207,50.858,4.973,50.745,4.737C50.531,4.314,50.365,3.869,50.25,3.408C50.253,3.362,50.221,3.322,50.175,3.316C50.155,3.311,50.133,3.311,50.113,3.316L50.097,3.326L50.072,3.34L50.086,3.321C42.712,7.71,39.654,15.393,38.868,20.284C36.59,20.416,34.357,20.995,32.296,21.988C31.907,22.184,31.726,22.646,31.876,23.059C32.027,23.501,32.5,23.734,32.935,23.582L33.006,23.553C34.805,22.69,36.746,22.175,38.732,22.034L38.925,22.02C39.197,22.003,39.469,21.992,39.741,21.989C41.352,21.976,42.958,22.201,44.507,22.655C44.598,22.683,44.686,22.713,44.779,22.742C45.036,22.821,45.29,22.908,45.543,23.001C45.728,23.07,45.911,23.139,46.093,23.219C46.242,23.28,46.39,23.341,46.536,23.406C46.764,23.509,46.991,23.618,47.215,23.73C47.317,23.781,47.419,23.833,47.521,23.886C47.739,24.002,47.954,24.124,48.166,24.25C48.303,24.33,48.439,24.413,48.574,24.498C50.976,26.009,52.97,28.105,54.375,30.596C52.607,29.331,49.432,28.082,46.376,28.623C58.307,34.683,55.103,55.551,38.573,54.763C37.1,54.702,35.645,54.417,34.257,53.918C33.928,53.792,33.604,53.657,33.283,53.513C33.095,53.426,32.908,53.337,32.723,53.237C28.665,51.117,25.32,47.099,24.903,42.218C24.903,42.218,26.433,36.422,35.865,36.422C36.885,36.422,39.799,33.532,39.854,32.692C39.841,32.415,34.069,30.084,31.819,27.831C30.615,26.628,30.044,26.047,29.538,25.612C29.265,25.376,28.978,25.156,28.68,24.953C27.924,22.264,27.892,19.42,28.586,16.714C25.179,18.291,22.529,20.783,20.603,22.983L20.587,22.983C19.272,21.29,19.363,15.708,19.441,14.544C19.424,14.471,18.459,15.052,18.332,15.139C17.172,15.982,16.087,16.926,15.091,17.962C13.957,19.131,12.922,20.394,11.994,21.738C9.861,24.809,8.349,28.28,7.544,31.948C7.536,31.986,7.227,33.359,7,35.054C6.962,35.318,6.927,35.583,6.894,35.847C6.816,36.357,6.758,36.913,6.698,37.782C6.698,37.815,6.698,37.848,6.691,37.881C6.667,38.255,6.645,38.629,6.625,39.003C6.625,39.06,6.625,39.116,6.625,39.174C6.625,57.785,21.475,72.871,39.792,72.871C56.197,72.871,69.819,60.771,72.485,44.876C72.541,44.445,72.586,44.012,72.636,43.576C73.296,37.797,72.563,31.723,70.485,26.644L70.485,26.64ZM70.485,26.64"/>
</g>
  <g id="Ultralight-S" transform="matrix(1.0,0.0,0.0,1.0,521.2520537362662,621.3400568376261)">  <path stroke-dasharray="none" stroke-miterlimit="4" fill-opacity="1" stroke-linecap="butt" stroke-opacity="1" stroke-width="1px" fill-rule="nonzero" stroke="none" stroke-linejoin="miter" fill="#000000" d="M22.7,20.374C22.722,20.376,22.711,20.376,22.7,20.374L22.7,20.374ZM70.485,26.64C69.043,23.117,66.123,19.317,63.831,18.111C65.696,21.826,66.777,25.555,67.189,28.335C67.189,28.335,67.189,28.355,67.196,28.392C63.446,18.893,57.086,15.063,51.892,6.724C51.629,6.302,51.367,5.879,51.111,5.435C50.975,5.207,50.858,4.973,50.745,4.737C50.531,4.314,50.365,3.869,50.25,3.408C50.253,3.362,50.221,3.322,50.175,3.316C50.155,3.311,50.133,3.311,50.113,3.316L50.097,3.326L50.072,3.34L50.086,3.321C42.712,7.71,39.654,15.393,38.868,20.284C36.59,20.416,34.357,20.995,32.296,21.988C31.907,22.184,31.726,22.646,31.876,23.059C32.027,23.501,32.5,23.734,32.935,23.582L33.006,23.553C34.805,22.69,36.746,22.175,38.732,22.034L38.925,22.02C39.197,22.003,39.469,21.992,39.741,21.989C41.352,21.976,42.958,22.201,44.507,22.655C44.598,22.683,44.686,22.713,44.779,22.742C45.036,22.821,45.29,22.908,45.543,23.001C45.728,23.07,45.911,23.139,46.093,23.219C46.242,23.28,46.39,23.341,46.536,23.406C46.764,23.509,46.991,23.618,47.215,23.73C47.317,23.781,47.419,23.833,47.521,23.886C47.739,24.002,47.954,24.124,48.166,24.25C48.303,24.33,48.439,24.413,48.574,24.498C50.976,26.009,52.97,28.105,54.375,30.596C52.607,29.331,49.432,28.082,46.376,28.623C58.307,34.683,55.103,55.551,38.573,54.763C37.1,54.702,35.645,54.417,34.257,53.918C33.928,53.792,33.604,53.657,33.283,53.513C33.095,53.426,32.908,53.337,32.723,53.237C28.665,51.117,25.32,47.099,24.903,42.218C24.903,42.218,26.433,36.422,35.865,36.422C36.885,36.422,39.799,33.532,39.854,32.692C39.841,32.415,34.069,30.084,31.819,27.831C30.615,26.628,30.044,26.047,29.538,25.612C29.265,25.376,28.978,25.156,28.68,24.953C27.924,22.264,27.892,19.42,28.586,16.714C25.179,18.291,22.529,20.783,20.603,22.983L20.587,22.983C19.272,21.29,19.363,15.708,19.441,14.544C19.424,14.471,18.459,15.052,18.332,15.139C17.172,15.982,16.087,16.926,15.091,17.962C13.957,19.131,12.922,20.394,11.994,21.738C9.861,24.809,8.349,28.28,7.544,31.948C7.536,31.986,7.227,33.359,7,35.054C6.962,35.318,6.927,35.583,6.894,35.847C6.816,36.357,6.758,36.913,6.698,37.782C6.698,37.815,6.698,37.848,6.691,37.881C6.667,38.255,6.645,38.629,6.625,39.003C6.625,39.06,6.625,39.116,6.625,39.174C6.625,57.785,21.475,72.871,39.792,72.871C56.197,72.871,69.819,60.771,72.485,44.876C72.541,44.445,72.586,44.012,72.636,43.576C73.296,37.797,72.563,31.723,70.485,26.644L70.485,26.64ZM70.485,26.64"/>
</g>
 </g>
</svg>
