<?xml version="1.0" encoding="UTF-8"?>
<!-- Generator: CustomSymbols v2.6.1.40 by @serious_bret https://bretlester.com/app_content/CustomSymbols/ -->
<!-- Guides: Left/Right 0.082/0.084 Cap/Base 0.155/0.155 -->
<!-- Settings: RefScale 1.0 Min/Max Stroke Scales 0.5/2.21 -->
<!DOCTYPE svg
PUBLIC "-//W3C//DTD SVG 1.1//EN"
       "http://www.w3.org/Graphics/SVG/1.1/DTD/svg11.dtd">
<svg version="1.1" xmlns="http://www.w3.org/2000/svg" xmlns:xlink="http://www.w3.org/1999/xlink" width="3300" height="2200">
<![CDATA[<svg width="24" height="24" viewBox="0 0 24 24" fill="none" xmlns="http://www.w3.org/2000/svg">
<path fill-rule="evenodd" clip-rule="evenodd" d="M21.6225 10.112L19.2398 9.74742C19.1095 9.33077 18.9315 8.90549 18.7058 8.47142C18.8619 8.25438 19.0962 7.94849 19.4087 7.55342C19.7211 7.15834 19.9425 6.86987 20.0727 6.68751C20.1423 6.59194 20.1768 6.49221 20.1768 6.38801C20.1768 6.26655 20.1466 6.17113 20.0857 6.10161C19.7732 5.65875 19.0571 4.92103 17.9372 3.88795C17.8333 3.80117 17.7247 3.75786 17.612 3.75786C17.4817 3.75786 17.3775 3.79685 17.2994 3.87485L15.4506 5.26815C15.0945 5.0858 14.7039 4.92518 14.2786 4.7863L13.9141 2.3906C13.9055 2.27777 13.8554 2.18443 13.7643 2.1106C13.6731 2.03676 13.567 2 13.4452 2H10.5547C10.303 2 10.1467 2.12146 10.0859 2.36455C9.97309 2.79846 9.84715 3.60571 9.70826 4.7863C9.30025 4.91671 8.90533 5.08164 8.52336 5.28126L6.72651 3.88795C6.61368 3.80117 6.50084 3.75786 6.38801 3.75786C6.19703 3.75786 5.78693 4.06807 5.15756 4.68881C4.52819 5.30955 4.10083 5.77606 3.875 6.08851C3.79685 6.20134 3.75786 6.30123 3.75786 6.38801C3.75786 6.49221 3.80117 6.59642 3.88795 6.70046C4.46953 7.40366 4.93397 8.00251 5.28126 8.49747C5.06422 8.8967 4.89497 9.29609 4.77351 9.69532L2.3516 10.0599C2.25619 10.0773 2.17372 10.1337 2.1042 10.2293C2.03468 10.3247 2 10.4246 2 10.5286V13.4193C2 13.5323 2.03468 13.6341 2.1042 13.7252C2.17372 13.8164 2.26482 13.8709 2.37765 13.8882L4.76057 14.2398C4.88203 14.6651 5.05991 15.0947 5.29436 15.5286C5.13822 15.7456 4.90376 16.0515 4.59132 16.4466C4.27887 16.8417 4.05736 17.1301 3.92727 17.3125C3.85774 17.4082 3.82306 17.5078 3.82306 17.612C3.82306 17.7248 3.85343 17.8245 3.91416 17.9113C4.25266 18.3802 4.96881 19.1095 6.06262 20.0989C6.15819 20.1945 6.26671 20.2421 6.38817 20.2421C6.51842 20.2421 6.62694 20.2031 6.71372 20.1252L8.54973 18.7317C8.90581 18.914 9.29641 19.0747 9.72169 19.2137L10.0862 21.6094C10.095 21.7222 10.1449 21.8156 10.236 21.8894C10.3271 21.9634 10.4335 22 10.555 22H13.4456C13.6977 22 13.8538 21.8785 13.9147 21.6355C14.0274 21.2014 14.1532 20.3943 14.2921 19.2137C14.7001 19.0835 15.0951 18.9184 15.477 18.7187L17.274 20.1252C17.3954 20.2031 17.5084 20.2421 17.6125 20.2421C17.8033 20.2421 18.2113 19.9342 18.8362 19.3177C19.4614 18.7015 19.891 18.2326 20.1252 17.9113C20.2033 17.8245 20.2425 17.7248 20.2425 17.612C20.2425 17.4992 20.1992 17.3903 20.1122 17.2864C19.4873 16.5225 19.0229 15.9237 18.7189 15.4896C18.8925 15.1683 19.0619 14.7734 19.2268 14.3047L21.6356 13.9403C21.7397 13.9229 21.8268 13.8663 21.8961 13.7707C21.9655 13.6751 22 13.5753 22 13.4712V10.5807C22.0002 10.4679 21.9656 10.3661 21.896 10.2748C21.8263 10.1836 21.7353 10.1292 21.6225 10.112ZM15.5353 15.535C14.5589 16.5117 13.3804 17 12 17C10.6196 17 9.44139 16.5117 8.46474 15.535C7.48833 14.5586 7 13.3804 7 12C7 10.6196 7.48809 9.44139 8.46474 8.46474C9.44139 7.48833 10.6199 7 12 7C13.3804 7 14.5589 7.48833 15.5353 8.46474C16.5117 9.44139 17 10.6196 17 12C17 13.3804 16.5117 14.5586 15.5353 15.535Z" fill="black"/>
</svg>
]]>
 <g id="Notes">
  <rect height="2200" id="artboard" style="fill:white;opacity:1" width="3300" x="0" y="0"/>
  <line id="" style="fill:none;stroke:black;opacity:1;stroke-width:0.5;" x1="263" x2="3036" y1="292" y2="292"/>
  <text id="reftext1" style="stroke:none;fill:black;font-family:-apple-system,&quot;SF Pro Display&quot;,&quot;SF Pro Text&quot;,Helvetica,sans-serif;font-weight:bold;" transform="matrix(1 0 0 1 263 322)">Weight/Scale Variations</text>
  <text id="reftext2" style="stroke:none;fill:black;font-family:-apple-system,&quot;SF Pro Display&quot;,&quot;SF Pro Text&quot;,Helvetica,sans-serif;text-anchor:middle;" transform="matrix(1 0 0 1 559.711 322)">Ultralight</text>
  <text style="stroke:none;fill:black;font-family:-apple-system,&quot;SF Pro Display&quot;,&quot;SF Pro Text&quot;,Helvetica,sans-serif;text-anchor:middle;" transform="matrix(1 0 0 1 856.422 322)">Thin</text>
  <text style="stroke:none;fill:black;font-family:-apple-system,&quot;SF Pro Display&quot;,&quot;SF Pro Text&quot;,Helvetica,sans-serif;text-anchor:middle;" transform="matrix(1 0 0 1 1153.13 322)">Light</text>
  <text style="stroke:none;fill:black;font-family:-apple-system,&quot;SF Pro Display&quot;,&quot;SF Pro Text&quot;,Helvetica,sans-serif;text-anchor:middle;" transform="matrix(1 0 0 1 1449.84 322)">Regular</text>
  <text style="stroke:none;fill:black;font-family:-apple-system,&quot;SF Pro Display&quot;,&quot;SF Pro Text&quot;,Helvetica,sans-serif;text-anchor:middle;" transform="matrix(1 0 0 1 1746.56 322)">Medium</text>
  <text style="stroke:none;fill:black;font-family:-apple-system,&quot;SF Pro Display&quot;,&quot;SF Pro Text&quot;,Helvetica,sans-serif;text-anchor:middle;" transform="matrix(1 0 0 1 2043.27 322)">Semibold</text>
  <text style="stroke:none;fill:black;font-family:-apple-system,&quot;SF Pro Display&quot;,&quot;SF Pro Text&quot;,Helvetica,sans-serif;text-anchor:middle;" transform="matrix(1 0 0 1 2339.98 322)">Bold</text>
  <text style="stroke:none;fill:black;font-family:-apple-system,&quot;SF Pro Display&quot;,&quot;SF Pro Text&quot;,Helvetica,sans-serif;text-anchor:middle;" transform="matrix(1 0 0 1 2636.69 322)">Heavy</text>
  <text style="stroke:none;fill:black;font-family:-apple-system,&quot;SF Pro Display&quot;,&quot;SF Pro Text&quot;,Helvetica,sans-serif;text-anchor:middle;" transform="matrix(1 0 0 1 2933.4 322)">Black</text>
  <line id="" style="fill:none;stroke:black;opacity:1;stroke-width:0.5;" x1="263" x2="3036" y1="1903" y2="1903"/>
  <g id="" transform="matrix(1 0 0 1 263 1933)">
   <path d="M9.24805 0.830078C13.5547 0.830078 17.1387-2.74414 17.1387-7.05078C17.1387-11.3574 13.5449-14.9316 9.23828-14.9316C4.94141-14.9316 1.36719-11.3574 1.36719-7.05078C1.36719-2.74414 4.95117 0.830078 9.24805 0.830078ZM9.24805-0.654297C5.70312-0.654297 2.87109-3.49609 2.87109-7.05078C2.87109-10.6055 5.69336-13.4473 9.23828-13.4473C12.793-13.4473 15.6348-10.6055 15.6445-7.05078C15.6543-3.49609 12.8027-0.654297 9.24805-0.654297ZM6.39648-6.31836L8.50586-6.31836L8.50586-4.19922C8.50586-3.75977 8.79883-3.45703 9.22852-3.45703C9.67773-3.45703 9.9707-3.75977 9.9707-4.19922L9.9707-6.31836L12.0996-6.31836C12.5391-6.31836 12.8418-6.61133 12.8418-7.04102C12.8418-7.48047 12.5391-7.7832 12.0996-7.7832L9.9707-7.7832L9.9707-9.89258C9.9707-10.3418 9.67773-10.6445 9.22852-10.6445C8.79883-10.6445 8.50586-10.3418 8.50586-9.89258L8.50586-7.7832L6.39648-7.7832C5.94727-7.7832 5.64453-7.48047 5.64453-7.04102C5.64453-6.61133 5.94727-6.31836 6.39648-6.31836Z"/>
  </g>
  <g id="" transform="matrix(1 0 0 1 281.506 1933)">
   <path d="M11.709 2.91016C17.1582 2.91016 21.6699-1.61133 21.6699-7.05078C21.6699-12.5 17.1484-17.0117 11.6992-17.0117C6.25977-17.0117 1.74805-12.5 1.74805-7.05078C1.74805-1.61133 6.26953 2.91016 11.709 2.91016ZM11.709 1.25C7.09961 1.25 3.41797-2.44141 3.41797-7.05078C3.41797-11.6602 7.08984-15.3516 11.6992-15.3516C16.3086-15.3516 20-11.6602 20.0098-7.05078C20.0195-2.44141 16.3184 1.25 11.709 1.25ZM7.98828-6.23047L10.8789-6.23047L10.8789-3.32031C10.8789-2.83203 11.2109-2.5 11.6895-2.5C12.1777-2.5 12.5195-2.83203 12.5195-3.32031L12.5195-6.23047L15.4297-6.23047C15.918-6.23047 16.25-6.5625 16.25-7.04102C16.25-7.5293 15.918-7.87109 15.4297-7.87109L12.5195-7.87109L12.5195-10.7617C12.5195-11.2695 12.1777-11.6016 11.6895-11.6016C11.2109-11.6016 10.8789-11.2598 10.8789-10.7617L10.8789-7.87109L7.98828-7.87109C7.48047-7.87109 7.14844-7.5293 7.14844-7.04102C7.14844-6.5625 7.49023-6.23047 7.98828-6.23047Z"/>
  </g>
  <g id="" transform="matrix(1 0 0 1 304.924 1933)">
   <path d="M14.9707 5.66406C21.9336 5.66406 27.6953-0.0976562 27.6953-7.05078C27.6953-14.0137 21.9238-19.7754 14.9609-19.7754C8.00781-19.7754 2.25586-14.0137 2.25586-7.05078C2.25586-0.0976562 8.01758 5.66406 14.9707 5.66406ZM14.9707 3.84766C8.93555 3.84766 4.08203-1.01562 4.08203-7.05078C4.08203-13.0957 8.92578-17.9492 14.9609-17.9492C21.0059-17.9492 25.8594-13.0957 25.8691-7.05078C25.8789-1.01562 21.0156 3.84766 14.9707 3.84766ZM10.0586-6.14258L14.0625-6.14258L14.0625-2.12891C14.0625-1.5918 14.4336-1.2207 14.9512-1.2207C15.4883-1.2207 15.8594-1.5918 15.8594-2.12891L15.8594-6.14258L19.8828-6.14258C20.4102-6.14258 20.791-6.51367 20.791-7.03125C20.791-7.56836 20.4199-7.94922 19.8828-7.94922L15.8594-7.94922L15.8594-11.9531C15.8594-12.5098 15.4883-12.8809 14.9512-12.8809C14.4336-12.8809 14.0625-12.5 14.0625-11.9531L14.0625-7.94922L10.0586-7.94922C9.50195-7.94922 9.13086-7.56836 9.13086-7.03125C9.13086-6.51367 9.51172-6.14258 10.0586-6.14258Z"/>
  </g>
  <text style="stroke:none;fill:black;font-family:-apple-system,&quot;SF Pro Display&quot;,&quot;SF Pro Text&quot;,Helvetica,sans-serif;font-weight:bold;" transform="matrix(1 0 0 1 263 1953)">Design Variations</text>
  <text style="stroke:none;fill:black;font-family:-apple-system,&quot;SF Pro Display&quot;,&quot;SF Pro Text&quot;,Helvetica,sans-serif;" transform="matrix(1 0 0 1 263 1971)">Symbols are supported in up to nine weights and three scales.</text>
  <text style="stroke:none;fill:black;font-family:-apple-system,&quot;SF Pro Display&quot;,&quot;SF Pro Text&quot;,Helvetica,sans-serif;" transform="matrix(1 0 0 1 263 1989)">For optimal layout with text and other symbols, vertically align</text>
  <text style="stroke:none;fill:black;font-family:-apple-system,&quot;SF Pro Display&quot;,&quot;SF Pro Text&quot;,Helvetica,sans-serif;" transform="matrix(1 0 0 1 263 2007)">symbols with the adjacent text.</text>
  <line id="" style="fill:none;stroke:#00AEEF;stroke-width:0.5;opacity:1.0;" x1="776" x2="776" y1="1919" y2="1933"/>
  <g id="" transform="matrix(1 0 0 1 776 1933)">
   <path d="M3.31055 0.126953C3.82812 0.126953 4.08203-0.0683594 4.26758-0.605469L5.52734-4.0625L11.2891-4.0625L12.5488-0.605469C12.7344-0.0683594 12.9883 0.126953 13.4961 0.126953C14.0137 0.126953 14.3457-0.185547 14.3457-0.673828C14.3457-0.839844 14.3164-0.986328 14.2383-1.20117L9.6582-13.3887C9.43359-13.9941 9.0332-14.2871 8.4082-14.2871C7.80273-14.2871 7.39258-13.9941 7.17773-13.3984L2.59766-1.19141C2.51953-0.976562 2.49023-0.830078 2.49023-0.664062C2.49023-0.175781 2.80273 0.126953 3.31055 0.126953ZM6.00586-5.53711L8.37891-12.1094L8.42773-12.1094L10.8008-5.53711Z"/>
  </g>
  <line id="" style="fill:none;stroke:#00AEEF;stroke-width:0.5;opacity:1.0;" x1="792.836" x2="792.836" y1="1919" y2="1933"/>
  <text style="stroke:none;fill:black;font-family:-apple-system,&quot;SF Pro Display&quot;,&quot;SF Pro Text&quot;,Helvetica,sans-serif;font-weight:bold;" transform="matrix(1 0 0 1 776 1953)">Margins</text>
  <text style="stroke:none;fill:black;font-family:-apple-system,&quot;SF Pro Display&quot;,&quot;SF Pro Text&quot;,Helvetica,sans-serif;" transform="matrix(1 0 0 1 776 1971)">Leading and trailing margins on the left and right side of each symbol</text>
  <text style="stroke:none;fill:black;font-family:-apple-system,&quot;SF Pro Display&quot;,&quot;SF Pro Text&quot;,Helvetica,sans-serif;" transform="matrix(1 0 0 1 776 1989)">can be adjusted by modifying the x-location of the margin guidelines.</text>
  <text style="stroke:none;fill:black;font-family:-apple-system,&quot;SF Pro Display&quot;,&quot;SF Pro Text&quot;,Helvetica,sans-serif;" transform="matrix(1 0 0 1 776 2007)">Modifications are automatically applied proportionally to all</text>
  <text style="stroke:none;fill:black;font-family:-apple-system,&quot;SF Pro Display&quot;,&quot;SF Pro Text&quot;,Helvetica,sans-serif;" transform="matrix(1 0 0 1 776 2025)">scales and weights.</text>
  <g id="" transform="matrix(1 0 0 1 1289 1933)">
   <path d="M2.8418 1.86523L4.54102 3.57422C5.40039 4.44336 6.38672 4.38477 7.31445 3.35938L17.4902-7.85156C17.7539-7.76367 18.0273-7.7832 18.3398-7.8418L19.4043-8.03711L20.0684-7.36328L20.0293-6.80664C19.9902-6.30859 20.1172-5.92773 20.6055-5.44922L21.3672-4.70703C21.8457-4.22852 22.4609-4.19922 22.9297-4.66797L25.8398-7.58789C26.3086-8.05664 26.2891-8.65234 25.8105-9.13086L25.0391-9.89258C24.5605-10.3711 24.1895-10.5273 23.7109-10.4883L23.1348-10.4395L22.4902-11.0742L22.7344-12.1973C22.8613-12.7637 22.7051-13.2031 22.1191-13.7891L19.9219-15.9766C16.582-19.2969 12.1484-19.2188 9.25781-16.3281C8.83789-15.918 8.80859-15.3418 9.04297-14.9512C9.27734-14.5898 9.73633-14.3555 10.3809-14.5215C11.8457-14.8633 13.3691-14.9219 14.7949-13.9844L14.209-12.5293C14.0137-12.0508 13.9844-11.6504 14.1113-11.2891L3.04688-0.898438C2.06055 0.0195312 1.98242 0.996094 2.8418 1.86523ZM10.752-15.957C13.1836-17.7344 16.4746-17.4316 18.7012-15.2051L21.1328-12.793C21.3672-12.5586 21.4062-12.373 21.3379-12.0312L21.0156-10.5469L22.5195-9.0625L23.5059-9.12109C23.7598-9.13086 23.8379-9.11133 24.0332-8.91602L24.6094-8.33984L22.168-5.89844L21.5918-6.47461C21.3965-6.66992 21.3672-6.74805 21.377-7.01172L21.4453-7.98828L19.9512-9.47266L18.4277-9.21875C18.1055-9.15039 17.959-9.17969 17.7148-9.41406L15.7129-11.416C15.459-11.6504 15.4297-11.8164 15.5859-12.1875L16.4648-14.2773C14.9023-15.7324 12.8711-16.3574 10.8398-15.7617C10.6836-15.7227 10.625-15.8496 10.752-15.957ZM5.27344 2.30469L4.10156 1.14258C3.63281 0.683594 3.74023 0.341797 4.14062-0.0195312L14.9512-10.1953L16.416-8.71094L6.42578 2.27539C6.07422 2.67578 5.74219 2.77344 5.27344 2.30469Z"/>
  </g>
  <text style="stroke:none;fill:black;font-family:-apple-system,&quot;SF Pro Display&quot;,&quot;SF Pro Text&quot;,Helvetica,sans-serif;font-weight:bold;" transform="matrix(1 0 0 1 1289 1953)">Exporting</text>
  <text style="stroke:none;fill:black;font-family:-apple-system,&quot;SF Pro Display&quot;,&quot;SF Pro Text&quot;,Helvetica,sans-serif;" transform="matrix(1 0 0 1 1289 1971)">Symbols should be outlined when exporting to ensure the</text>
  <text style="stroke:none;fill:black;font-family:-apple-system,&quot;SF Pro Display&quot;,&quot;SF Pro Text&quot;,Helvetica,sans-serif;" transform="matrix(1 0 0 1 1289 1989)">design is preserved when submitting to Xcode.</text>
  <text id="template-version" style="stroke:none;fill:black;font-family:-apple-system,&quot;SF Pro Display&quot;,&quot;SF Pro Text&quot;,Helvetica,sans-serif;text-anchor:end;" transform="matrix(1 0 0 1 3036 1933)">Template v.2.0</text>
  <text style="stroke:none;fill:black;font-family:-apple-system,&quot;SF Pro Display&quot;,&quot;SF Pro Text&quot;,Helvetica,sans-serif;text-anchor:end;" transform="matrix(1 0 0 1 3036 1951)">Requires Xcode 12 or greater</text>
  <text style="stroke:none;fill:black;font-family:-apple-system,&quot;SF Pro Display&quot;,&quot;SF Pro Text&quot;,Helvetica,sans-serif;" transform="matrix(1 0 0 1 263 726)">Small</text>
  <text style="stroke:none;fill:black;font-family:-apple-system,&quot;SF Pro Display&quot;,&quot;SF Pro Text&quot;,Helvetica,sans-serif;" transform="matrix(1 0 0 1 263 1156)">Medium</text>
  <text style="stroke:none;fill:black;font-family:-apple-system,&quot;SF Pro Display&quot;,&quot;SF Pro Text&quot;,Helvetica,sans-serif;" transform="matrix(1 0 0 1 263 1586)">Large</text>
 </g>
 <g id="Guides">
  <g id="H-reference" style="fill:#27AAE1;stroke:none;" transform="matrix(1 0 0 1 339 696)">
   <path d="M0.976562 0L3.66211 0L12.9883-24.4629L45.752-24.4629L55.127 0L57.7637 0L30.6152-70.459L28.125-70.459ZM29.3457-67.1387L29.4434-67.1387L44.873-26.709L13.8672-26.709Z"/>
  </g>
  <line id="Baseline-S" style="fill:none;stroke:#27AAE1;opacity:1;stroke-width:0.5;" x1="263" x2="3036" y1="696" y2="696"/>
  <line id="Capline-S" style="fill:none;stroke:#27AAE1;opacity:1;stroke-width:0.5;" x1="263" x2="3036" y1="625.541" y2="625.541"/>
  <g id="H-reference" style="fill:#27AAE1;stroke:none;" transform="matrix(1 0 0 1 339 1126)">
   <path d="M0.976562 0L3.66211 0L12.9883-24.4629L45.752-24.4629L55.127 0L57.7637 0L30.6152-70.459L28.125-70.459ZM29.3457-67.1387L29.4434-67.1387L44.873-26.709L13.8672-26.709Z"/>
  </g>
  <line id="Baseline-M" style="fill:none;stroke:#27AAE1;opacity:1;stroke-width:0.5;" x1="263" x2="3036" y1="1126" y2="1126"/>
  <line id="Capline-M" style="fill:none;stroke:#27AAE1;opacity:1;stroke-width:0.5;" x1="263" x2="3036" y1="1055.54" y2="1055.54"/>
  <g id="H-reference" style="fill:#27AAE1;stroke:none;" transform="matrix(1 0 0 1 339 1556)">
   <path d="M0.976562 0L3.66211 0L12.9883-24.4629L45.752-24.4629L55.127 0L57.7637 0L30.6152-70.459L28.125-70.459ZM29.3457-67.1387L29.4434-67.1387L44.873-26.709L13.8672-26.709Z"/>
  </g>
  <line id="Baseline-L" style="fill:none;stroke:#27AAE1;opacity:1;stroke-width:0.5;" x1="263" x2="3036" y1="1556" y2="1556"/>
  <line id="Capline-L" style="fill:none;stroke:#27AAE1;opacity:1;stroke-width:0.5;" x1="263" x2="3036" y1="1485.54" y2="1485.54"/>
  <line id="left-margin" x1="1408.4455598958332" x2="1408.4455598958332" y1="1030.79" y2="1150.12" style="fill:none;stroke:#00AEEF;stroke-width:0.5;opacity:1.0;"/>
  <line id="right-margin" x1="1493.610208333333" x2="1493.610208333333" y1="1030.79" y2="1150.12" style="fill:none;stroke:#00AEEF;stroke-width:0.5;opacity:1.0;"/>
 </g>
 <g id="Symbols">
  <g id="Black-L" transform="matrix(1.0,0.0,0.0,1.0,2868.81525390625,1454.9052734375)">  <path fill-opacity="1" stroke-miterlimit="4" stroke-opacity="1" stroke-dasharray="none" clip-rule="evenodd" stroke="none" stroke-linejoin="miter" stroke-width="1px" stroke-linecap="butt" fill="#000000" fill-rule="evenodd" d="M118.68,55.502L105.602,53.501C104.887,51.214,103.91,48.88,102.671,46.497C103.528,45.306,104.814,43.627,106.529,41.459C108.244,39.29,109.459,37.707,110.174,36.706C110.556,36.181,110.745,35.634,110.745,35.062C110.745,34.395,110.579,33.872,110.245,33.49C108.53,31.059,104.599,27.01,98.452,21.34C97.882,20.864,97.286,20.626,96.667,20.626C95.952,20.626,95.38,20.84,94.952,21.268L84.804,28.915C82.85,27.915,80.706,27.033,78.371,26.271L76.371,13.121C76.324,12.502,76.049,11.99,75.549,11.585C75.048,11.179,74.466,10.977,73.797,10.977L57.932,10.977C56.55,10.977,55.692,11.644,55.359,12.978C54.74,15.36,54.048,19.791,53.286,26.271C51.047,26.986,48.879,27.892,46.782,28.987L36.92,21.34C36.301,20.864,35.681,20.626,35.062,20.626C34.014,20.626,31.763,22.329,28.308,25.736C24.854,29.143,22.508,31.703,21.269,33.418C20.84,34.037,20.626,34.586,20.626,35.062C20.626,35.634,20.864,36.206,21.34,36.777C24.532,40.637,27.081,43.924,28.987,46.64C27.796,48.832,26.867,51.024,26.201,53.215L12.907,55.216C12.384,55.312,11.931,55.621,11.549,56.146C11.168,56.669,10.977,57.218,10.977,57.789L10.977,73.655C10.977,74.275,11.168,74.834,11.549,75.334C11.931,75.834,12.431,76.134,13.05,76.229L26.129,78.158C26.796,80.493,27.772,82.851,29.059,85.232C28.202,86.423,26.915,88.102,25.201,90.271C23.486,92.44,22.27,94.022,21.556,95.024C21.174,95.549,20.984,96.096,20.984,96.667C20.984,97.287,21.15,97.834,21.484,98.31C23.342,100.884,27.272,104.887,33.276,110.317C33.801,110.842,34.396,111.103,35.063,111.103C35.778,111.103,36.373,110.889,36.85,110.462L46.927,102.813C48.882,103.814,51.025,104.696,53.36,105.459L55.36,118.608C55.409,119.227,55.683,119.74,56.183,120.145C56.683,120.551,57.267,120.752,57.934,120.752L73.799,120.752C75.183,120.752,76.04,120.085,76.374,118.751C76.993,116.369,77.683,111.939,78.445,105.459C80.685,104.744,82.853,103.838,84.949,102.742L94.812,110.462C95.479,110.889,96.099,111.103,96.67,111.103C97.717,111.103,99.957,109.413,103.387,106.03C106.818,102.647,109.176,100.074,110.462,98.31C110.89,97.834,111.106,97.287,111.106,96.667C111.106,96.048,110.868,95.451,110.39,94.88C106.961,90.688,104.412,87.401,102.743,85.018C103.696,83.255,104.626,81.087,105.531,78.515L118.752,76.515C119.323,76.419,119.801,76.108,120.182,75.584C120.563,75.059,120.752,74.511,120.752,73.94L120.752,58.075C120.753,57.455,120.563,56.897,120.181,56.396C119.799,55.895,119.299,55.596,118.68,55.502ZM85.269,85.267C79.91,90.628,73.441,93.308,65.865,93.308C58.288,93.308,51.821,90.628,46.461,85.267C41.101,79.908,38.421,73.441,38.421,65.865C38.421,58.288,41.1,51.821,46.461,46.461C51.821,41.101,58.29,38.421,65.865,38.421C73.441,38.421,79.91,41.101,85.269,46.461C90.628,51.821,93.308,58.288,93.308,65.865C93.308,73.441,90.628,79.908,85.269,85.267ZM85.269,85.267"/>
</g>
  <g id="Heavy-L" transform="matrix(1.0,0.0,0.0,1.0,2572.10525390625,1454.9052734375)">  <path fill-opacity="1" clip-rule="evenodd" fill="#000000" stroke-opacity="1" stroke-width="1px" stroke="none" fill-rule="evenodd" stroke-linecap="butt" stroke-miterlimit="4" stroke-dasharray="none" stroke-linejoin="miter" d="M118.68,55.502L105.602,53.501C104.887,51.214,103.91,48.88,102.671,46.497C103.528,45.306,104.814,43.627,106.529,41.459C108.244,39.29,109.459,37.707,110.174,36.706C110.556,36.181,110.745,35.634,110.745,35.062C110.745,34.395,110.579,33.872,110.245,33.49C108.53,31.059,104.599,27.01,98.452,21.34C97.882,20.864,97.286,20.626,96.667,20.626C95.952,20.626,95.38,20.84,94.952,21.268L84.804,28.915C82.85,27.915,80.706,27.033,78.371,26.271L76.371,13.121C76.324,12.502,76.049,11.99,75.549,11.585C75.048,11.179,74.466,10.977,73.797,10.977L57.932,10.977C56.55,10.977,55.692,11.644,55.359,12.978C54.74,15.36,54.048,19.791,53.286,26.271C51.047,26.986,48.879,27.892,46.782,28.987L36.92,21.34C36.301,20.864,35.681,20.626,35.062,20.626C34.014,20.626,31.763,22.329,28.308,25.736C24.854,29.143,22.508,31.703,21.269,33.418C20.84,34.037,20.626,34.586,20.626,35.062C20.626,35.634,20.864,36.206,21.34,36.777C24.532,40.637,27.081,43.924,28.987,46.64C27.796,48.832,26.867,51.024,26.201,53.215L12.907,55.216C12.384,55.312,11.931,55.621,11.549,56.146C11.168,56.669,10.977,57.218,10.977,57.789L10.977,73.655C10.977,74.275,11.168,74.834,11.549,75.334C11.931,75.834,12.431,76.134,13.05,76.229L26.129,78.158C26.796,80.493,27.772,82.851,29.059,85.232C28.202,86.423,26.915,88.102,25.201,90.271C23.486,92.44,22.27,94.022,21.556,95.024C21.174,95.549,20.984,96.096,20.984,96.667C20.984,97.287,21.15,97.834,21.484,98.31C23.342,100.884,27.272,104.887,33.276,110.317C33.801,110.842,34.396,111.103,35.063,111.103C35.778,111.103,36.373,110.889,36.85,110.462L46.927,102.813C48.882,103.814,51.025,104.696,53.36,105.459L55.36,118.608C55.409,119.227,55.683,119.74,56.183,120.145C56.683,120.551,57.267,120.752,57.934,120.752L73.799,120.752C75.183,120.752,76.04,120.085,76.374,118.751C76.993,116.369,77.683,111.939,78.445,105.459C80.685,104.744,82.853,103.838,84.949,102.742L94.812,110.462C95.479,110.889,96.099,111.103,96.67,111.103C97.717,111.103,99.957,109.413,103.387,106.03C106.818,102.647,109.176,100.074,110.462,98.31C110.89,97.834,111.106,97.287,111.106,96.667C111.106,96.048,110.868,95.451,110.39,94.88C106.961,90.688,104.412,87.401,102.743,85.018C103.696,83.255,104.626,81.087,105.531,78.515L118.752,76.515C119.323,76.419,119.801,76.108,120.182,75.584C120.563,75.059,120.752,74.511,120.752,73.94L120.752,58.075C120.753,57.455,120.563,56.897,120.181,56.396C119.799,55.895,119.299,55.596,118.68,55.502ZM85.269,85.267C79.91,90.628,73.441,93.308,65.865,93.308C58.288,93.308,51.821,90.628,46.461,85.267C41.101,79.908,38.421,73.441,38.421,65.865C38.421,58.288,41.1,51.821,46.461,46.461C51.821,41.101,58.29,38.421,65.865,38.421C73.441,38.421,79.91,41.101,85.269,46.461C90.628,51.821,93.308,58.288,93.308,65.865C93.308,73.441,90.628,79.908,85.269,85.267ZM85.269,85.267"/>
</g>
  <g id="Bold-L" transform="matrix(1.0,0.0,0.0,1.0,2275.3952539062498,1454.9052734375)">  <path stroke-width="1px" fill-opacity="1" clip-rule="evenodd" stroke="none" stroke-linecap="butt" stroke-dasharray="none" stroke-miterlimit="4" stroke-linejoin="miter" fill="#000000" stroke-opacity="1" fill-rule="evenodd" d="M118.68,55.502L105.602,53.501C104.887,51.214,103.91,48.88,102.671,46.497C103.528,45.306,104.814,43.627,106.529,41.459C108.244,39.29,109.459,37.707,110.174,36.706C110.556,36.181,110.745,35.634,110.745,35.062C110.745,34.395,110.579,33.872,110.245,33.49C108.53,31.059,104.599,27.01,98.452,21.34C97.882,20.864,97.286,20.626,96.667,20.626C95.952,20.626,95.38,20.84,94.952,21.268L84.804,28.915C82.85,27.915,80.706,27.033,78.371,26.271L76.371,13.121C76.324,12.502,76.049,11.99,75.549,11.585C75.048,11.179,74.466,10.977,73.797,10.977L57.932,10.977C56.55,10.977,55.692,11.644,55.359,12.978C54.74,15.36,54.048,19.791,53.286,26.271C51.047,26.986,48.879,27.892,46.782,28.987L36.92,21.34C36.301,20.864,35.681,20.626,35.062,20.626C34.014,20.626,31.763,22.329,28.308,25.736C24.854,29.143,22.508,31.703,21.269,33.418C20.84,34.037,20.626,34.586,20.626,35.062C20.626,35.634,20.864,36.206,21.34,36.777C24.532,40.637,27.081,43.924,28.987,46.64C27.796,48.832,26.867,51.024,26.201,53.215L12.907,55.216C12.384,55.312,11.931,55.621,11.549,56.146C11.168,56.669,10.977,57.218,10.977,57.789L10.977,73.655C10.977,74.275,11.168,74.834,11.549,75.334C11.931,75.834,12.431,76.134,13.05,76.229L26.129,78.158C26.796,80.493,27.772,82.851,29.059,85.232C28.202,86.423,26.915,88.102,25.201,90.271C23.486,92.44,22.27,94.022,21.556,95.024C21.174,95.549,20.984,96.096,20.984,96.667C20.984,97.287,21.15,97.834,21.484,98.31C23.342,100.884,27.272,104.887,33.276,110.317C33.801,110.842,34.396,111.103,35.063,111.103C35.778,111.103,36.373,110.889,36.85,110.462L46.927,102.813C48.882,103.814,51.025,104.696,53.36,105.459L55.36,118.608C55.409,119.227,55.683,119.74,56.183,120.145C56.683,120.551,57.267,120.752,57.934,120.752L73.799,120.752C75.183,120.752,76.04,120.085,76.374,118.751C76.993,116.369,77.683,111.939,78.445,105.459C80.685,104.744,82.853,103.838,84.949,102.742L94.812,110.462C95.479,110.889,96.099,111.103,96.67,111.103C97.717,111.103,99.957,109.413,103.387,106.03C106.818,102.647,109.176,100.074,110.462,98.31C110.89,97.834,111.106,97.287,111.106,96.667C111.106,96.048,110.868,95.451,110.39,94.88C106.961,90.688,104.412,87.401,102.743,85.018C103.696,83.255,104.626,81.087,105.531,78.515L118.752,76.515C119.323,76.419,119.801,76.108,120.182,75.584C120.563,75.059,120.752,74.511,120.752,73.94L120.752,58.075C120.753,57.455,120.563,56.897,120.181,56.396C119.799,55.895,119.299,55.596,118.68,55.502ZM85.269,85.267C79.91,90.628,73.441,93.308,65.865,93.308C58.288,93.308,51.821,90.628,46.461,85.267C41.101,79.908,38.421,73.441,38.421,65.865C38.421,58.288,41.1,51.821,46.461,46.461C51.821,41.101,58.29,38.421,65.865,38.421C73.441,38.421,79.91,41.101,85.269,46.461C90.628,51.821,93.308,58.288,93.308,65.865C93.308,73.441,90.628,79.908,85.269,85.267ZM85.269,85.267"/>
</g>
  <g id="Semibold-L" transform="matrix(1.0,0.0,0.0,1.0,1978.68525390625,1454.9052734375)">  <path stroke-miterlimit="4" stroke-linecap="butt" fill-rule="evenodd" stroke-dasharray="none" stroke-opacity="1" stroke-linejoin="miter" fill="#000000" fill-opacity="1" stroke="none" stroke-width="1px" clip-rule="evenodd" d="M118.68,55.502L105.602,53.501C104.887,51.214,103.91,48.88,102.671,46.497C103.528,45.306,104.814,43.627,106.529,41.459C108.244,39.29,109.459,37.707,110.174,36.706C110.556,36.181,110.745,35.634,110.745,35.062C110.745,34.395,110.579,33.872,110.245,33.49C108.53,31.059,104.599,27.01,98.452,21.34C97.882,20.864,97.286,20.626,96.667,20.626C95.952,20.626,95.38,20.84,94.952,21.268L84.804,28.915C82.85,27.915,80.706,27.033,78.371,26.271L76.371,13.121C76.324,12.502,76.049,11.99,75.549,11.585C75.048,11.179,74.466,10.977,73.797,10.977L57.932,10.977C56.55,10.977,55.692,11.644,55.359,12.978C54.74,15.36,54.048,19.791,53.286,26.271C51.047,26.986,48.879,27.892,46.782,28.987L36.92,21.34C36.301,20.864,35.681,20.626,35.062,20.626C34.014,20.626,31.763,22.329,28.308,25.736C24.854,29.143,22.508,31.703,21.269,33.418C20.84,34.037,20.626,34.586,20.626,35.062C20.626,35.634,20.864,36.206,21.34,36.777C24.532,40.637,27.081,43.924,28.987,46.64C27.796,48.832,26.867,51.024,26.201,53.215L12.907,55.216C12.384,55.312,11.931,55.621,11.549,56.146C11.168,56.669,10.977,57.218,10.977,57.789L10.977,73.655C10.977,74.275,11.168,74.834,11.549,75.334C11.931,75.834,12.431,76.134,13.05,76.229L26.129,78.158C26.796,80.493,27.772,82.851,29.059,85.232C28.202,86.423,26.915,88.102,25.201,90.271C23.486,92.44,22.27,94.022,21.556,95.024C21.174,95.549,20.984,96.096,20.984,96.667C20.984,97.287,21.15,97.834,21.484,98.31C23.342,100.884,27.272,104.887,33.276,110.317C33.801,110.842,34.396,111.103,35.063,111.103C35.778,111.103,36.373,110.889,36.85,110.462L46.927,102.813C48.882,103.814,51.025,104.696,53.36,105.459L55.36,118.608C55.409,119.227,55.683,119.74,56.183,120.145C56.683,120.551,57.267,120.752,57.934,120.752L73.799,120.752C75.183,120.752,76.04,120.085,76.374,118.751C76.993,116.369,77.683,111.939,78.445,105.459C80.685,104.744,82.853,103.838,84.949,102.742L94.812,110.462C95.479,110.889,96.099,111.103,96.67,111.103C97.717,111.103,99.957,109.413,103.387,106.03C106.818,102.647,109.176,100.074,110.462,98.31C110.89,97.834,111.106,97.287,111.106,96.667C111.106,96.048,110.868,95.451,110.39,94.88C106.961,90.688,104.412,87.401,102.743,85.018C103.696,83.255,104.626,81.087,105.531,78.515L118.752,76.515C119.323,76.419,119.801,76.108,120.182,75.584C120.563,75.059,120.752,74.511,120.752,73.94L120.752,58.075C120.753,57.455,120.563,56.897,120.181,56.396C119.799,55.895,119.299,55.596,118.68,55.502ZM85.269,85.267C79.91,90.628,73.441,93.308,65.865,93.308C58.288,93.308,51.821,90.628,46.461,85.267C41.101,79.908,38.421,73.441,38.421,65.865C38.421,58.288,41.1,51.821,46.461,46.461C51.821,41.101,58.29,38.421,65.865,38.421C73.441,38.421,79.91,41.101,85.269,46.461C90.628,51.821,93.308,58.288,93.308,65.865C93.308,73.441,90.628,79.908,85.269,85.267ZM85.269,85.267"/>
</g>
  <g id="Medium-L" transform="matrix(1.0,0.0,0.0,1.0,1681.97525390625,1454.9052734375)">  <path stroke-dasharray="none" stroke="none" stroke-linecap="butt" stroke-opacity="1" fill-opacity="1" stroke-miterlimit="4" clip-rule="evenodd" fill="#000000" stroke-width="1px" fill-rule="evenodd" stroke-linejoin="miter" d="M118.68,55.502L105.602,53.501C104.887,51.214,103.91,48.88,102.671,46.497C103.528,45.306,104.814,43.627,106.529,41.459C108.244,39.29,109.459,37.707,110.174,36.706C110.556,36.181,110.745,35.634,110.745,35.062C110.745,34.395,110.579,33.872,110.245,33.49C108.53,31.059,104.599,27.01,98.452,21.34C97.882,20.864,97.286,20.626,96.667,20.626C95.952,20.626,95.38,20.84,94.952,21.268L84.804,28.915C82.85,27.915,80.706,27.033,78.371,26.271L76.371,13.121C76.324,12.502,76.049,11.99,75.549,11.585C75.048,11.179,74.466,10.977,73.797,10.977L57.932,10.977C56.55,10.977,55.692,11.644,55.359,12.978C54.74,15.36,54.048,19.791,53.286,26.271C51.047,26.986,48.879,27.892,46.782,28.987L36.92,21.34C36.301,20.864,35.681,20.626,35.062,20.626C34.014,20.626,31.763,22.329,28.308,25.736C24.854,29.143,22.508,31.703,21.269,33.418C20.84,34.037,20.626,34.586,20.626,35.062C20.626,35.634,20.864,36.206,21.34,36.777C24.532,40.637,27.081,43.924,28.987,46.64C27.796,48.832,26.867,51.024,26.201,53.215L12.907,55.216C12.384,55.312,11.931,55.621,11.549,56.146C11.168,56.669,10.977,57.218,10.977,57.789L10.977,73.655C10.977,74.275,11.168,74.834,11.549,75.334C11.931,75.834,12.431,76.134,13.05,76.229L26.129,78.158C26.796,80.493,27.772,82.851,29.059,85.232C28.202,86.423,26.915,88.102,25.201,90.271C23.486,92.44,22.27,94.022,21.556,95.024C21.174,95.549,20.984,96.096,20.984,96.667C20.984,97.287,21.15,97.834,21.484,98.31C23.342,100.884,27.272,104.887,33.276,110.317C33.801,110.842,34.396,111.103,35.063,111.103C35.778,111.103,36.373,110.889,36.85,110.462L46.927,102.813C48.882,103.814,51.025,104.696,53.36,105.459L55.36,118.608C55.409,119.227,55.683,119.74,56.183,120.145C56.683,120.551,57.267,120.752,57.934,120.752L73.799,120.752C75.183,120.752,76.04,120.085,76.374,118.751C76.993,116.369,77.683,111.939,78.445,105.459C80.685,104.744,82.853,103.838,84.949,102.742L94.812,110.462C95.479,110.889,96.099,111.103,96.67,111.103C97.717,111.103,99.957,109.413,103.387,106.03C106.818,102.647,109.176,100.074,110.462,98.31C110.89,97.834,111.106,97.287,111.106,96.667C111.106,96.048,110.868,95.451,110.39,94.88C106.961,90.688,104.412,87.401,102.743,85.018C103.696,83.255,104.626,81.087,105.531,78.515L118.752,76.515C119.323,76.419,119.801,76.108,120.182,75.584C120.563,75.059,120.752,74.511,120.752,73.94L120.752,58.075C120.753,57.455,120.563,56.897,120.181,56.396C119.799,55.895,119.299,55.596,118.68,55.502ZM85.269,85.267C79.91,90.628,73.441,93.308,65.865,93.308C58.288,93.308,51.821,90.628,46.461,85.267C41.101,79.908,38.421,73.441,38.421,65.865C38.421,58.288,41.1,51.821,46.461,46.461C51.821,41.101,58.29,38.421,65.865,38.421C73.441,38.421,79.91,41.101,85.269,46.461C90.628,51.821,93.308,58.288,93.308,65.865C93.308,73.441,90.628,79.908,85.269,85.267ZM85.269,85.267"/>
</g>
  <g id="Regular-L" transform="matrix(1.0,0.0,0.0,1.0,1385.2652539062499,1454.9052734375)">  <path fill="#000000" stroke-linejoin="miter" stroke="none" clip-rule="evenodd" stroke-linecap="butt" stroke-miterlimit="4" fill-opacity="1" fill-rule="evenodd" stroke-dasharray="none" stroke-width="1px" stroke-opacity="1" d="M118.68,55.502L105.602,53.501C104.887,51.214,103.91,48.88,102.671,46.497C103.528,45.306,104.814,43.627,106.529,41.459C108.244,39.29,109.459,37.707,110.174,36.706C110.556,36.181,110.745,35.634,110.745,35.062C110.745,34.395,110.579,33.872,110.245,33.49C108.53,31.059,104.599,27.01,98.452,21.34C97.882,20.864,97.286,20.626,96.667,20.626C95.952,20.626,95.38,20.84,94.952,21.268L84.804,28.915C82.85,27.915,80.706,27.033,78.371,26.271L76.371,13.121C76.324,12.502,76.049,11.99,75.549,11.585C75.048,11.179,74.466,10.977,73.797,10.977L57.932,10.977C56.55,10.977,55.692,11.644,55.359,12.978C54.74,15.36,54.048,19.791,53.286,26.271C51.047,26.986,48.879,27.892,46.782,28.987L36.92,21.34C36.301,20.864,35.681,20.626,35.062,20.626C34.014,20.626,31.763,22.329,28.308,25.736C24.854,29.143,22.508,31.703,21.269,33.418C20.84,34.037,20.626,34.586,20.626,35.062C20.626,35.634,20.864,36.206,21.34,36.777C24.532,40.637,27.081,43.924,28.987,46.64C27.796,48.832,26.867,51.024,26.201,53.215L12.907,55.216C12.384,55.312,11.931,55.621,11.549,56.146C11.168,56.669,10.977,57.218,10.977,57.789L10.977,73.655C10.977,74.275,11.168,74.834,11.549,75.334C11.931,75.834,12.431,76.134,13.05,76.229L26.129,78.158C26.796,80.493,27.772,82.851,29.059,85.232C28.202,86.423,26.915,88.102,25.201,90.271C23.486,92.44,22.27,94.022,21.556,95.024C21.174,95.549,20.984,96.096,20.984,96.667C20.984,97.287,21.15,97.834,21.484,98.31C23.342,100.884,27.272,104.887,33.276,110.317C33.801,110.842,34.396,111.103,35.063,111.103C35.778,111.103,36.373,110.889,36.85,110.462L46.927,102.813C48.882,103.814,51.025,104.696,53.36,105.459L55.36,118.608C55.409,119.227,55.683,119.74,56.183,120.145C56.683,120.551,57.267,120.752,57.934,120.752L73.799,120.752C75.183,120.752,76.04,120.085,76.374,118.751C76.993,116.369,77.683,111.939,78.445,105.459C80.685,104.744,82.853,103.838,84.949,102.742L94.812,110.462C95.479,110.889,96.099,111.103,96.67,111.103C97.717,111.103,99.957,109.413,103.387,106.03C106.818,102.647,109.176,100.074,110.462,98.31C110.89,97.834,111.106,97.287,111.106,96.667C111.106,96.048,110.868,95.451,110.39,94.88C106.961,90.688,104.412,87.401,102.743,85.018C103.696,83.255,104.626,81.087,105.531,78.515L118.752,76.515C119.323,76.419,119.801,76.108,120.182,75.584C120.563,75.059,120.752,74.511,120.752,73.94L120.752,58.075C120.753,57.455,120.563,56.897,120.181,56.396C119.799,55.895,119.299,55.596,118.68,55.502ZM85.269,85.267C79.91,90.628,73.441,93.308,65.865,93.308C58.288,93.308,51.821,90.628,46.461,85.267C41.101,79.908,38.421,73.441,38.421,65.865C38.421,58.288,41.1,51.821,46.461,46.461C51.821,41.101,58.29,38.421,65.865,38.421C73.441,38.421,79.91,41.101,85.269,46.461C90.628,51.821,93.308,58.288,93.308,65.865C93.308,73.441,90.628,79.908,85.269,85.267ZM85.269,85.267"/>
</g>
  <g id="Light-L" transform="matrix(1.0,0.0,0.0,1.0,1088.55525390625,1454.9052734375)">  <path stroke-linecap="butt" stroke="none" fill-rule="evenodd" stroke-linejoin="miter" fill-opacity="1" stroke-width="1px" fill="#000000" stroke-opacity="1" stroke-miterlimit="4" stroke-dasharray="none" clip-rule="evenodd" d="M118.68,55.502L105.602,53.501C104.887,51.214,103.91,48.88,102.671,46.497C103.528,45.306,104.814,43.627,106.529,41.459C108.244,39.29,109.459,37.707,110.174,36.706C110.556,36.181,110.745,35.634,110.745,35.062C110.745,34.395,110.579,33.872,110.245,33.49C108.53,31.059,104.599,27.01,98.452,21.34C97.882,20.864,97.286,20.626,96.667,20.626C95.952,20.626,95.38,20.84,94.952,21.268L84.804,28.915C82.85,27.915,80.706,27.033,78.371,26.271L76.371,13.121C76.324,12.502,76.049,11.99,75.549,11.585C75.048,11.179,74.466,10.977,73.797,10.977L57.932,10.977C56.55,10.977,55.692,11.644,55.359,12.978C54.74,15.36,54.048,19.791,53.286,26.271C51.047,26.986,48.879,27.892,46.782,28.987L36.92,21.34C36.301,20.864,35.681,20.626,35.062,20.626C34.014,20.626,31.763,22.329,28.308,25.736C24.854,29.143,22.508,31.703,21.269,33.418C20.84,34.037,20.626,34.586,20.626,35.062C20.626,35.634,20.864,36.206,21.34,36.777C24.532,40.637,27.081,43.924,28.987,46.64C27.796,48.832,26.867,51.024,26.201,53.215L12.907,55.216C12.384,55.312,11.931,55.621,11.549,56.146C11.168,56.669,10.977,57.218,10.977,57.789L10.977,73.655C10.977,74.275,11.168,74.834,11.549,75.334C11.931,75.834,12.431,76.134,13.05,76.229L26.129,78.158C26.796,80.493,27.772,82.851,29.059,85.232C28.202,86.423,26.915,88.102,25.201,90.271C23.486,92.44,22.27,94.022,21.556,95.024C21.174,95.549,20.984,96.096,20.984,96.667C20.984,97.287,21.15,97.834,21.484,98.31C23.342,100.884,27.272,104.887,33.276,110.317C33.801,110.842,34.396,111.103,35.063,111.103C35.778,111.103,36.373,110.889,36.85,110.462L46.927,102.813C48.882,103.814,51.025,104.696,53.36,105.459L55.36,118.608C55.409,119.227,55.683,119.74,56.183,120.145C56.683,120.551,57.267,120.752,57.934,120.752L73.799,120.752C75.183,120.752,76.04,120.085,76.374,118.751C76.993,116.369,77.683,111.939,78.445,105.459C80.685,104.744,82.853,103.838,84.949,102.742L94.812,110.462C95.479,110.889,96.099,111.103,96.67,111.103C97.717,111.103,99.957,109.413,103.387,106.03C106.818,102.647,109.176,100.074,110.462,98.31C110.89,97.834,111.106,97.287,111.106,96.667C111.106,96.048,110.868,95.451,110.39,94.88C106.961,90.688,104.412,87.401,102.743,85.018C103.696,83.255,104.626,81.087,105.531,78.515L118.752,76.515C119.323,76.419,119.801,76.108,120.182,75.584C120.563,75.059,120.752,74.511,120.752,73.94L120.752,58.075C120.753,57.455,120.563,56.897,120.181,56.396C119.799,55.895,119.299,55.596,118.68,55.502ZM85.269,85.267C79.91,90.628,73.441,93.308,65.865,93.308C58.288,93.308,51.821,90.628,46.461,85.267C41.101,79.908,38.421,73.441,38.421,65.865C38.421,58.288,41.1,51.821,46.461,46.461C51.821,41.101,58.29,38.421,65.865,38.421C73.441,38.421,79.91,41.101,85.269,46.461C90.628,51.821,93.308,58.288,93.308,65.865C93.308,73.441,90.628,79.908,85.269,85.267ZM85.269,85.267"/>
</g>
  <g id="Thin-L" transform="matrix(1.0,0.0,0.0,1.0,791.84525390625,1454.9052734375)">  <path stroke-opacity="1" fill-opacity="1" clip-rule="evenodd" stroke-width="1px" stroke-dasharray="none" stroke="none" fill="#000000" stroke-linecap="butt" stroke-miterlimit="4" fill-rule="evenodd" stroke-linejoin="miter" d="M118.68,55.502L105.602,53.501C104.887,51.214,103.91,48.88,102.671,46.497C103.528,45.306,104.814,43.627,106.529,41.459C108.244,39.29,109.459,37.707,110.174,36.706C110.556,36.181,110.745,35.634,110.745,35.062C110.745,34.395,110.579,33.872,110.245,33.49C108.53,31.059,104.599,27.01,98.452,21.34C97.882,20.864,97.286,20.626,96.667,20.626C95.952,20.626,95.38,20.84,94.952,21.268L84.804,28.915C82.85,27.915,80.706,27.033,78.371,26.271L76.371,13.121C76.324,12.502,76.049,11.99,75.549,11.585C75.048,11.179,74.466,10.977,73.797,10.977L57.932,10.977C56.55,10.977,55.692,11.644,55.359,12.978C54.74,15.36,54.048,19.791,53.286,26.271C51.047,26.986,48.879,27.892,46.782,28.987L36.92,21.34C36.301,20.864,35.681,20.626,35.062,20.626C34.014,20.626,31.763,22.329,28.308,25.736C24.854,29.143,22.508,31.703,21.269,33.418C20.84,34.037,20.626,34.586,20.626,35.062C20.626,35.634,20.864,36.206,21.34,36.777C24.532,40.637,27.081,43.924,28.987,46.64C27.796,48.832,26.867,51.024,26.201,53.215L12.907,55.216C12.384,55.312,11.931,55.621,11.549,56.146C11.168,56.669,10.977,57.218,10.977,57.789L10.977,73.655C10.977,74.275,11.168,74.834,11.549,75.334C11.931,75.834,12.431,76.134,13.05,76.229L26.129,78.158C26.796,80.493,27.772,82.851,29.059,85.232C28.202,86.423,26.915,88.102,25.201,90.271C23.486,92.44,22.27,94.022,21.556,95.024C21.174,95.549,20.984,96.096,20.984,96.667C20.984,97.287,21.15,97.834,21.484,98.31C23.342,100.884,27.272,104.887,33.276,110.317C33.801,110.842,34.396,111.103,35.063,111.103C35.778,111.103,36.373,110.889,36.85,110.462L46.927,102.813C48.882,103.814,51.025,104.696,53.36,105.459L55.36,118.608C55.409,119.227,55.683,119.74,56.183,120.145C56.683,120.551,57.267,120.752,57.934,120.752L73.799,120.752C75.183,120.752,76.04,120.085,76.374,118.751C76.993,116.369,77.683,111.939,78.445,105.459C80.685,104.744,82.853,103.838,84.949,102.742L94.812,110.462C95.479,110.889,96.099,111.103,96.67,111.103C97.717,111.103,99.957,109.413,103.387,106.03C106.818,102.647,109.176,100.074,110.462,98.31C110.89,97.834,111.106,97.287,111.106,96.667C111.106,96.048,110.868,95.451,110.39,94.88C106.961,90.688,104.412,87.401,102.743,85.018C103.696,83.255,104.626,81.087,105.531,78.515L118.752,76.515C119.323,76.419,119.801,76.108,120.182,75.584C120.563,75.059,120.752,74.511,120.752,73.94L120.752,58.075C120.753,57.455,120.563,56.897,120.181,56.396C119.799,55.895,119.299,55.596,118.68,55.502ZM85.269,85.267C79.91,90.628,73.441,93.308,65.865,93.308C58.288,93.308,51.821,90.628,46.461,85.267C41.101,79.908,38.421,73.441,38.421,65.865C38.421,58.288,41.1,51.821,46.461,46.461C51.821,41.101,58.29,38.421,65.865,38.421C73.441,38.421,79.91,41.101,85.269,46.461C90.628,51.821,93.308,58.288,93.308,65.865C93.308,73.441,90.628,79.908,85.269,85.267ZM85.269,85.267"/>
</g>
  <g id="Ultralight-L" transform="matrix(1.0,0.0,0.0,1.0,495.13525390625,1454.9052734375)">  <path stroke-linecap="butt" stroke-dasharray="none" fill-rule="evenodd" stroke-linejoin="miter" stroke-miterlimit="4" stroke-width="1px" stroke-opacity="1" stroke="none" fill="#000000" fill-opacity="1" clip-rule="evenodd" d="M118.68,55.502L105.602,53.501C104.887,51.214,103.91,48.88,102.671,46.497C103.528,45.306,104.814,43.627,106.529,41.459C108.244,39.29,109.459,37.707,110.174,36.706C110.556,36.181,110.745,35.634,110.745,35.062C110.745,34.395,110.579,33.872,110.245,33.49C108.53,31.059,104.599,27.01,98.452,21.34C97.882,20.864,97.286,20.626,96.667,20.626C95.952,20.626,95.38,20.84,94.952,21.268L84.804,28.915C82.85,27.915,80.706,27.033,78.371,26.271L76.371,13.121C76.324,12.502,76.049,11.99,75.549,11.585C75.048,11.179,74.466,10.977,73.797,10.977L57.932,10.977C56.55,10.977,55.692,11.644,55.359,12.978C54.74,15.36,54.048,19.791,53.286,26.271C51.047,26.986,48.879,27.892,46.782,28.987L36.92,21.34C36.301,20.864,35.681,20.626,35.062,20.626C34.014,20.626,31.763,22.329,28.308,25.736C24.854,29.143,22.508,31.703,21.269,33.418C20.84,34.037,20.626,34.586,20.626,35.062C20.626,35.634,20.864,36.206,21.34,36.777C24.532,40.637,27.081,43.924,28.987,46.64C27.796,48.832,26.867,51.024,26.201,53.215L12.907,55.216C12.384,55.312,11.931,55.621,11.549,56.146C11.168,56.669,10.977,57.218,10.977,57.789L10.977,73.655C10.977,74.275,11.168,74.834,11.549,75.334C11.931,75.834,12.431,76.134,13.05,76.229L26.129,78.158C26.796,80.493,27.772,82.851,29.059,85.232C28.202,86.423,26.915,88.102,25.201,90.271C23.486,92.44,22.27,94.022,21.556,95.024C21.174,95.549,20.984,96.096,20.984,96.667C20.984,97.287,21.15,97.834,21.484,98.31C23.342,100.884,27.272,104.887,33.276,110.317C33.801,110.842,34.396,111.103,35.063,111.103C35.778,111.103,36.373,110.889,36.85,110.462L46.927,102.813C48.882,103.814,51.025,104.696,53.36,105.459L55.36,118.608C55.409,119.227,55.683,119.74,56.183,120.145C56.683,120.551,57.267,120.752,57.934,120.752L73.799,120.752C75.183,120.752,76.04,120.085,76.374,118.751C76.993,116.369,77.683,111.939,78.445,105.459C80.685,104.744,82.853,103.838,84.949,102.742L94.812,110.462C95.479,110.889,96.099,111.103,96.67,111.103C97.717,111.103,99.957,109.413,103.387,106.03C106.818,102.647,109.176,100.074,110.462,98.31C110.89,97.834,111.106,97.287,111.106,96.667C111.106,96.048,110.868,95.451,110.39,94.88C106.961,90.688,104.412,87.401,102.743,85.018C103.696,83.255,104.626,81.087,105.531,78.515L118.752,76.515C119.323,76.419,119.801,76.108,120.182,75.584C120.563,75.059,120.752,74.511,120.752,73.94L120.752,58.075C120.753,57.455,120.563,56.897,120.181,56.396C119.799,55.895,119.299,55.596,118.68,55.502ZM85.269,85.267C79.91,90.628,73.441,93.308,65.865,93.308C58.288,93.308,51.821,90.628,46.461,85.267C41.101,79.908,38.421,73.441,38.421,65.865C38.421,58.288,41.1,51.821,46.461,46.461C51.821,41.101,58.29,38.421,65.865,38.421C73.441,38.421,79.91,41.101,85.269,46.461C90.628,51.821,93.308,58.288,93.308,65.865C93.308,73.441,90.628,79.908,85.269,85.267ZM85.269,85.267"/>
</g>
  <g id="Black-M" transform="matrix(1.0,0.0,0.0,1.0,2883.6220572916664,1039.7120768229167)">  <path fill-opacity="1" stroke-miterlimit="4" stroke-opacity="1" stroke-dasharray="none" clip-rule="evenodd" stroke="none" stroke-linejoin="miter" stroke-width="1px" stroke-linecap="butt" fill="#000000" fill-rule="evenodd" d="M92,43.025L81.862,41.474C81.308,39.701,80.55,37.891,79.59,36.044C80.254,35.121,81.251,33.819,82.581,32.139C83.91,30.458,84.852,29.23,85.406,28.454C85.702,28.048,85.849,27.623,85.849,27.18C85.849,26.663,85.72,26.257,85.461,25.961C84.132,24.077,81.085,20.938,76.32,16.543C75.878,16.173,75.416,15.989,74.936,15.989C74.382,15.989,73.938,16.155,73.606,16.487L65.74,22.415C64.225,21.639,62.563,20.956,60.753,20.365L59.202,10.172C59.166,9.692,58.952,9.294,58.565,8.98C58.177,8.666,57.725,8.51,57.207,8.51L44.908,8.51C43.838,8.51,43.172,9.026,42.914,10.061C42.434,11.907,41.898,15.342,41.307,20.365C39.571,20.92,37.891,21.622,36.265,22.471L28.62,16.543C28.14,16.173,27.66,15.989,27.18,15.989C26.367,15.989,24.622,17.309,21.945,19.95C19.267,22.591,17.448,24.576,16.487,25.906C16.155,26.386,15.989,26.811,15.989,27.18C15.989,27.623,16.173,28.067,16.543,28.509C19.017,31.501,20.993,34.049,22.471,36.155C21.547,37.854,20.827,39.553,20.31,41.252L10.006,42.803C9.6,42.877,9.249,43.117,8.953,43.524C8.657,43.93,8.51,44.355,8.51,44.797L8.51,57.097C8.51,57.578,8.657,58.011,8.953,58.398C9.249,58.786,9.636,59.018,10.116,59.092L20.255,60.588C20.772,62.397,21.529,64.225,22.527,66.072C21.862,66.995,20.865,68.296,19.535,69.977C18.206,71.659,17.263,72.886,16.71,73.662C16.414,74.069,16.266,74.493,16.266,74.936C16.266,75.416,16.396,75.84,16.654,76.21C18.094,78.205,21.141,81.308,25.795,85.517C26.202,85.924,26.664,86.127,27.181,86.127C27.735,86.127,28.196,85.961,28.566,85.629L36.378,79.7C37.893,80.476,39.555,81.16,41.364,81.751L42.915,91.944C42.952,92.424,43.165,92.822,43.552,93.136C43.94,93.451,44.393,93.606,44.91,93.606L57.209,93.606C58.281,93.606,58.946,93.089,59.205,92.055C59.684,90.208,60.219,86.774,60.81,81.751C62.546,81.197,64.227,80.495,65.852,79.645L73.498,85.629C74.014,85.961,74.495,86.127,74.938,86.127C75.75,86.127,77.486,84.817,80.145,82.193C82.805,79.572,84.633,77.577,85.629,76.21C85.962,75.84,86.128,75.416,86.128,74.936C86.128,74.456,85.944,73.993,85.574,73.551C82.915,70.3,80.939,67.753,79.646,65.906C80.384,64.539,81.105,62.858,81.807,60.864L92.056,59.314C92.499,59.24,92.869,58.999,93.164,58.592C93.459,58.185,93.606,57.761,93.606,57.318L93.606,45.019C93.607,44.539,93.46,44.106,93.164,43.718C92.867,43.329,92.48,43.098,92,43.025ZM66.1,66.099C61.946,70.254,56.931,72.332,51.058,72.332C45.185,72.332,40.171,70.254,36.016,66.099C31.862,61.944,29.784,56.931,29.784,51.058C29.784,45.185,31.861,40.171,36.016,36.016C40.171,31.862,45.186,29.784,51.058,29.784C56.931,29.784,61.946,31.862,66.1,36.016C70.254,40.171,72.332,45.185,72.332,51.058C72.332,56.931,70.254,61.944,66.1,66.099ZM66.1,66.099"/>
</g>
  <g id="Heavy-M" transform="matrix(1.0,0.0,0.0,1.0,2586.9120572916663,1039.7120768229167)">  <path fill-opacity="1" clip-rule="evenodd" fill="#000000" stroke-opacity="1" stroke-width="1px" stroke="none" fill-rule="evenodd" stroke-linecap="butt" stroke-miterlimit="4" stroke-dasharray="none" stroke-linejoin="miter" d="M92,43.025L81.862,41.474C81.308,39.701,80.55,37.891,79.59,36.044C80.254,35.121,81.251,33.819,82.581,32.139C83.91,30.458,84.852,29.23,85.406,28.454C85.702,28.048,85.849,27.623,85.849,27.18C85.849,26.663,85.72,26.257,85.461,25.961C84.132,24.077,81.085,20.938,76.32,16.543C75.878,16.173,75.416,15.989,74.936,15.989C74.382,15.989,73.938,16.155,73.606,16.487L65.74,22.415C64.225,21.639,62.563,20.956,60.753,20.365L59.202,10.172C59.166,9.692,58.952,9.294,58.565,8.98C58.177,8.666,57.725,8.51,57.207,8.51L44.908,8.51C43.838,8.51,43.172,9.026,42.914,10.061C42.434,11.907,41.898,15.342,41.307,20.365C39.571,20.92,37.891,21.622,36.265,22.471L28.62,16.543C28.14,16.173,27.66,15.989,27.18,15.989C26.367,15.989,24.622,17.309,21.945,19.95C19.267,22.591,17.448,24.576,16.487,25.906C16.155,26.386,15.989,26.811,15.989,27.18C15.989,27.623,16.173,28.067,16.543,28.509C19.017,31.501,20.993,34.049,22.471,36.155C21.547,37.854,20.827,39.553,20.31,41.252L10.006,42.803C9.6,42.877,9.249,43.117,8.953,43.524C8.657,43.93,8.51,44.355,8.51,44.797L8.51,57.097C8.51,57.578,8.657,58.011,8.953,58.398C9.249,58.786,9.636,59.018,10.116,59.092L20.255,60.588C20.772,62.397,21.529,64.225,22.527,66.072C21.862,66.995,20.865,68.296,19.535,69.977C18.206,71.659,17.263,72.886,16.71,73.662C16.414,74.069,16.266,74.493,16.266,74.936C16.266,75.416,16.396,75.84,16.654,76.21C18.094,78.205,21.141,81.308,25.795,85.517C26.202,85.924,26.664,86.127,27.181,86.127C27.735,86.127,28.196,85.961,28.566,85.629L36.378,79.7C37.893,80.476,39.555,81.16,41.364,81.751L42.915,91.944C42.952,92.424,43.165,92.822,43.552,93.136C43.94,93.451,44.393,93.606,44.91,93.606L57.209,93.606C58.281,93.606,58.946,93.089,59.205,92.055C59.684,90.208,60.219,86.774,60.81,81.751C62.546,81.197,64.227,80.495,65.852,79.645L73.498,85.629C74.014,85.961,74.495,86.127,74.938,86.127C75.75,86.127,77.486,84.817,80.145,82.193C82.805,79.572,84.633,77.577,85.629,76.21C85.962,75.84,86.128,75.416,86.128,74.936C86.128,74.456,85.944,73.993,85.574,73.551C82.915,70.3,80.939,67.753,79.646,65.906C80.384,64.539,81.105,62.858,81.807,60.864L92.056,59.314C92.499,59.24,92.869,58.999,93.164,58.592C93.459,58.185,93.606,57.761,93.606,57.318L93.606,45.019C93.607,44.539,93.46,44.106,93.164,43.718C92.867,43.329,92.48,43.098,92,43.025ZM66.1,66.099C61.946,70.254,56.931,72.332,51.058,72.332C45.185,72.332,40.171,70.254,36.016,66.099C31.862,61.944,29.784,56.931,29.784,51.058C29.784,45.185,31.861,40.171,36.016,36.016C40.171,31.862,45.186,29.784,51.058,29.784C56.931,29.784,61.946,31.862,66.1,36.016C70.254,40.171,72.332,45.185,72.332,51.058C72.332,56.931,70.254,61.944,66.1,66.099ZM66.1,66.099"/>
</g>
  <g id="Bold-M" transform="matrix(1.0,0.0,0.0,1.0,2290.2020572916663,1039.7120768229167)">  <path stroke-width="1px" fill-opacity="1" clip-rule="evenodd" stroke="none" stroke-linecap="butt" stroke-dasharray="none" stroke-miterlimit="4" stroke-linejoin="miter" fill="#000000" stroke-opacity="1" fill-rule="evenodd" d="M92,43.025L81.862,41.474C81.308,39.701,80.55,37.891,79.59,36.044C80.254,35.121,81.251,33.819,82.581,32.139C83.91,30.458,84.852,29.23,85.406,28.454C85.702,28.048,85.849,27.623,85.849,27.18C85.849,26.663,85.72,26.257,85.461,25.961C84.132,24.077,81.085,20.938,76.32,16.543C75.878,16.173,75.416,15.989,74.936,15.989C74.382,15.989,73.938,16.155,73.606,16.487L65.74,22.415C64.225,21.639,62.563,20.956,60.753,20.365L59.202,10.172C59.166,9.692,58.952,9.294,58.565,8.98C58.177,8.666,57.725,8.51,57.207,8.51L44.908,8.51C43.838,8.51,43.172,9.026,42.914,10.061C42.434,11.907,41.898,15.342,41.307,20.365C39.571,20.92,37.891,21.622,36.265,22.471L28.62,16.543C28.14,16.173,27.66,15.989,27.18,15.989C26.367,15.989,24.622,17.309,21.945,19.95C19.267,22.591,17.448,24.576,16.487,25.906C16.155,26.386,15.989,26.811,15.989,27.18C15.989,27.623,16.173,28.067,16.543,28.509C19.017,31.501,20.993,34.049,22.471,36.155C21.547,37.854,20.827,39.553,20.31,41.252L10.006,42.803C9.6,42.877,9.249,43.117,8.953,43.524C8.657,43.93,8.51,44.355,8.51,44.797L8.51,57.097C8.51,57.578,8.657,58.011,8.953,58.398C9.249,58.786,9.636,59.018,10.116,59.092L20.255,60.588C20.772,62.397,21.529,64.225,22.527,66.072C21.862,66.995,20.865,68.296,19.535,69.977C18.206,71.659,17.263,72.886,16.71,73.662C16.414,74.069,16.266,74.493,16.266,74.936C16.266,75.416,16.396,75.84,16.654,76.21C18.094,78.205,21.141,81.308,25.795,85.517C26.202,85.924,26.664,86.127,27.181,86.127C27.735,86.127,28.196,85.961,28.566,85.629L36.378,79.7C37.893,80.476,39.555,81.16,41.364,81.751L42.915,91.944C42.952,92.424,43.165,92.822,43.552,93.136C43.94,93.451,44.393,93.606,44.91,93.606L57.209,93.606C58.281,93.606,58.946,93.089,59.205,92.055C59.684,90.208,60.219,86.774,60.81,81.751C62.546,81.197,64.227,80.495,65.852,79.645L73.498,85.629C74.014,85.961,74.495,86.127,74.938,86.127C75.75,86.127,77.486,84.817,80.145,82.193C82.805,79.572,84.633,77.577,85.629,76.21C85.962,75.84,86.128,75.416,86.128,74.936C86.128,74.456,85.944,73.993,85.574,73.551C82.915,70.3,80.939,67.753,79.646,65.906C80.384,64.539,81.105,62.858,81.807,60.864L92.056,59.314C92.499,59.24,92.869,58.999,93.164,58.592C93.459,58.185,93.606,57.761,93.606,57.318L93.606,45.019C93.607,44.539,93.46,44.106,93.164,43.718C92.867,43.329,92.48,43.098,92,43.025ZM66.1,66.099C61.946,70.254,56.931,72.332,51.058,72.332C45.185,72.332,40.171,70.254,36.016,66.099C31.862,61.944,29.784,56.931,29.784,51.058C29.784,45.185,31.861,40.171,36.016,36.016C40.171,31.862,45.186,29.784,51.058,29.784C56.931,29.784,61.946,31.862,66.1,36.016C70.254,40.171,72.332,45.185,72.332,51.058C72.332,56.931,70.254,61.944,66.1,66.099ZM66.1,66.099"/>
</g>
  <g id="Semibold-M" transform="matrix(1.0,0.0,0.0,1.0,1993.4920572916667,1039.7120768229167)">  <path stroke-miterlimit="4" stroke-linecap="butt" fill-rule="evenodd" stroke-dasharray="none" stroke-opacity="1" stroke-linejoin="miter" fill="#000000" fill-opacity="1" stroke="none" stroke-width="1px" clip-rule="evenodd" d="M92,43.025L81.862,41.474C81.308,39.701,80.55,37.891,79.59,36.044C80.254,35.121,81.251,33.819,82.581,32.139C83.91,30.458,84.852,29.23,85.406,28.454C85.702,28.048,85.849,27.623,85.849,27.18C85.849,26.663,85.72,26.257,85.461,25.961C84.132,24.077,81.085,20.938,76.32,16.543C75.878,16.173,75.416,15.989,74.936,15.989C74.382,15.989,73.938,16.155,73.606,16.487L65.74,22.415C64.225,21.639,62.563,20.956,60.753,20.365L59.202,10.172C59.166,9.692,58.952,9.294,58.565,8.98C58.177,8.666,57.725,8.51,57.207,8.51L44.908,8.51C43.838,8.51,43.172,9.026,42.914,10.061C42.434,11.907,41.898,15.342,41.307,20.365C39.571,20.92,37.891,21.622,36.265,22.471L28.62,16.543C28.14,16.173,27.66,15.989,27.18,15.989C26.367,15.989,24.622,17.309,21.945,19.95C19.267,22.591,17.448,24.576,16.487,25.906C16.155,26.386,15.989,26.811,15.989,27.18C15.989,27.623,16.173,28.067,16.543,28.509C19.017,31.501,20.993,34.049,22.471,36.155C21.547,37.854,20.827,39.553,20.31,41.252L10.006,42.803C9.6,42.877,9.249,43.117,8.953,43.524C8.657,43.93,8.51,44.355,8.51,44.797L8.51,57.097C8.51,57.578,8.657,58.011,8.953,58.398C9.249,58.786,9.636,59.018,10.116,59.092L20.255,60.588C20.772,62.397,21.529,64.225,22.527,66.072C21.862,66.995,20.865,68.296,19.535,69.977C18.206,71.659,17.263,72.886,16.71,73.662C16.414,74.069,16.266,74.493,16.266,74.936C16.266,75.416,16.396,75.84,16.654,76.21C18.094,78.205,21.141,81.308,25.795,85.517C26.202,85.924,26.664,86.127,27.181,86.127C27.735,86.127,28.196,85.961,28.566,85.629L36.378,79.7C37.893,80.476,39.555,81.16,41.364,81.751L42.915,91.944C42.952,92.424,43.165,92.822,43.552,93.136C43.94,93.451,44.393,93.606,44.91,93.606L57.209,93.606C58.281,93.606,58.946,93.089,59.205,92.055C59.684,90.208,60.219,86.774,60.81,81.751C62.546,81.197,64.227,80.495,65.852,79.645L73.498,85.629C74.014,85.961,74.495,86.127,74.938,86.127C75.75,86.127,77.486,84.817,80.145,82.193C82.805,79.572,84.633,77.577,85.629,76.21C85.962,75.84,86.128,75.416,86.128,74.936C86.128,74.456,85.944,73.993,85.574,73.551C82.915,70.3,80.939,67.753,79.646,65.906C80.384,64.539,81.105,62.858,81.807,60.864L92.056,59.314C92.499,59.24,92.869,58.999,93.164,58.592C93.459,58.185,93.606,57.761,93.606,57.318L93.606,45.019C93.607,44.539,93.46,44.106,93.164,43.718C92.867,43.329,92.48,43.098,92,43.025ZM66.1,66.099C61.946,70.254,56.931,72.332,51.058,72.332C45.185,72.332,40.171,70.254,36.016,66.099C31.862,61.944,29.784,56.931,29.784,51.058C29.784,45.185,31.861,40.171,36.016,36.016C40.171,31.862,45.186,29.784,51.058,29.784C56.931,29.784,61.946,31.862,66.1,36.016C70.254,40.171,72.332,45.185,72.332,51.058C72.332,56.931,70.254,61.944,66.1,66.099ZM66.1,66.099"/>
</g>
  <g id="Medium-M" transform="matrix(1.0,0.0,0.0,1.0,1696.7820572916667,1039.7120768229167)">  <path stroke-dasharray="none" stroke="none" stroke-linecap="butt" stroke-opacity="1" fill-opacity="1" stroke-miterlimit="4" clip-rule="evenodd" fill="#000000" stroke-width="1px" fill-rule="evenodd" stroke-linejoin="miter" d="M92,43.025L81.862,41.474C81.308,39.701,80.55,37.891,79.59,36.044C80.254,35.121,81.251,33.819,82.581,32.139C83.91,30.458,84.852,29.23,85.406,28.454C85.702,28.048,85.849,27.623,85.849,27.18C85.849,26.663,85.72,26.257,85.461,25.961C84.132,24.077,81.085,20.938,76.32,16.543C75.878,16.173,75.416,15.989,74.936,15.989C74.382,15.989,73.938,16.155,73.606,16.487L65.74,22.415C64.225,21.639,62.563,20.956,60.753,20.365L59.202,10.172C59.166,9.692,58.952,9.294,58.565,8.98C58.177,8.666,57.725,8.51,57.207,8.51L44.908,8.51C43.838,8.51,43.172,9.026,42.914,10.061C42.434,11.907,41.898,15.342,41.307,20.365C39.571,20.92,37.891,21.622,36.265,22.471L28.62,16.543C28.14,16.173,27.66,15.989,27.18,15.989C26.367,15.989,24.622,17.309,21.945,19.95C19.267,22.591,17.448,24.576,16.487,25.906C16.155,26.386,15.989,26.811,15.989,27.18C15.989,27.623,16.173,28.067,16.543,28.509C19.017,31.501,20.993,34.049,22.471,36.155C21.547,37.854,20.827,39.553,20.31,41.252L10.006,42.803C9.6,42.877,9.249,43.117,8.953,43.524C8.657,43.93,8.51,44.355,8.51,44.797L8.51,57.097C8.51,57.578,8.657,58.011,8.953,58.398C9.249,58.786,9.636,59.018,10.116,59.092L20.255,60.588C20.772,62.397,21.529,64.225,22.527,66.072C21.862,66.995,20.865,68.296,19.535,69.977C18.206,71.659,17.263,72.886,16.71,73.662C16.414,74.069,16.266,74.493,16.266,74.936C16.266,75.416,16.396,75.84,16.654,76.21C18.094,78.205,21.141,81.308,25.795,85.517C26.202,85.924,26.664,86.127,27.181,86.127C27.735,86.127,28.196,85.961,28.566,85.629L36.378,79.7C37.893,80.476,39.555,81.16,41.364,81.751L42.915,91.944C42.952,92.424,43.165,92.822,43.552,93.136C43.94,93.451,44.393,93.606,44.91,93.606L57.209,93.606C58.281,93.606,58.946,93.089,59.205,92.055C59.684,90.208,60.219,86.774,60.81,81.751C62.546,81.197,64.227,80.495,65.852,79.645L73.498,85.629C74.014,85.961,74.495,86.127,74.938,86.127C75.75,86.127,77.486,84.817,80.145,82.193C82.805,79.572,84.633,77.577,85.629,76.21C85.962,75.84,86.128,75.416,86.128,74.936C86.128,74.456,85.944,73.993,85.574,73.551C82.915,70.3,80.939,67.753,79.646,65.906C80.384,64.539,81.105,62.858,81.807,60.864L92.056,59.314C92.499,59.24,92.869,58.999,93.164,58.592C93.459,58.185,93.606,57.761,93.606,57.318L93.606,45.019C93.607,44.539,93.46,44.106,93.164,43.718C92.867,43.329,92.48,43.098,92,43.025ZM66.1,66.099C61.946,70.254,56.931,72.332,51.058,72.332C45.185,72.332,40.171,70.254,36.016,66.099C31.862,61.944,29.784,56.931,29.784,51.058C29.784,45.185,31.861,40.171,36.016,36.016C40.171,31.862,45.186,29.784,51.058,29.784C56.931,29.784,61.946,31.862,66.1,36.016C70.254,40.171,72.332,45.185,72.332,51.058C72.332,56.931,70.254,61.944,66.1,66.099ZM66.1,66.099"/>
</g>
  <g id="Regular-M" transform="matrix(1.0,0.0,0.0,1.0,1400.0720572916666,1039.7120768229167)">  <path fill="#000000" stroke-linejoin="miter" stroke="none" clip-rule="evenodd" stroke-linecap="butt" stroke-miterlimit="4" fill-opacity="1" fill-rule="evenodd" stroke-dasharray="none" stroke-width="1px" stroke-opacity="1" d="M92,43.025L81.862,41.474C81.308,39.701,80.55,37.891,79.59,36.044C80.254,35.121,81.251,33.819,82.581,32.139C83.91,30.458,84.852,29.23,85.406,28.454C85.702,28.048,85.849,27.623,85.849,27.18C85.849,26.663,85.72,26.257,85.461,25.961C84.132,24.077,81.085,20.938,76.32,16.543C75.878,16.173,75.416,15.989,74.936,15.989C74.382,15.989,73.938,16.155,73.606,16.487L65.74,22.415C64.225,21.639,62.563,20.956,60.753,20.365L59.202,10.172C59.166,9.692,58.952,9.294,58.565,8.98C58.177,8.666,57.725,8.51,57.207,8.51L44.908,8.51C43.838,8.51,43.172,9.026,42.914,10.061C42.434,11.907,41.898,15.342,41.307,20.365C39.571,20.92,37.891,21.622,36.265,22.471L28.62,16.543C28.14,16.173,27.66,15.989,27.18,15.989C26.367,15.989,24.622,17.309,21.945,19.95C19.267,22.591,17.448,24.576,16.487,25.906C16.155,26.386,15.989,26.811,15.989,27.18C15.989,27.623,16.173,28.067,16.543,28.509C19.017,31.501,20.993,34.049,22.471,36.155C21.547,37.854,20.827,39.553,20.31,41.252L10.006,42.803C9.6,42.877,9.249,43.117,8.953,43.524C8.657,43.93,8.51,44.355,8.51,44.797L8.51,57.097C8.51,57.578,8.657,58.011,8.953,58.398C9.249,58.786,9.636,59.018,10.116,59.092L20.255,60.588C20.772,62.397,21.529,64.225,22.527,66.072C21.862,66.995,20.865,68.296,19.535,69.977C18.206,71.659,17.263,72.886,16.71,73.662C16.414,74.069,16.266,74.493,16.266,74.936C16.266,75.416,16.396,75.84,16.654,76.21C18.094,78.205,21.141,81.308,25.795,85.517C26.202,85.924,26.664,86.127,27.181,86.127C27.735,86.127,28.196,85.961,28.566,85.629L36.378,79.7C37.893,80.476,39.555,81.16,41.364,81.751L42.915,91.944C42.952,92.424,43.165,92.822,43.552,93.136C43.94,93.451,44.393,93.606,44.91,93.606L57.209,93.606C58.281,93.606,58.946,93.089,59.205,92.055C59.684,90.208,60.219,86.774,60.81,81.751C62.546,81.197,64.227,80.495,65.852,79.645L73.498,85.629C74.014,85.961,74.495,86.127,74.938,86.127C75.75,86.127,77.486,84.817,80.145,82.193C82.805,79.572,84.633,77.577,85.629,76.21C85.962,75.84,86.128,75.416,86.128,74.936C86.128,74.456,85.944,73.993,85.574,73.551C82.915,70.3,80.939,67.753,79.646,65.906C80.384,64.539,81.105,62.858,81.807,60.864L92.056,59.314C92.499,59.24,92.869,58.999,93.164,58.592C93.459,58.185,93.606,57.761,93.606,57.318L93.606,45.019C93.607,44.539,93.46,44.106,93.164,43.718C92.867,43.329,92.48,43.098,92,43.025ZM66.1,66.099C61.946,70.254,56.931,72.332,51.058,72.332C45.185,72.332,40.171,70.254,36.016,66.099C31.862,61.944,29.784,56.931,29.784,51.058C29.784,45.185,31.861,40.171,36.016,36.016C40.171,31.862,45.186,29.784,51.058,29.784C56.931,29.784,61.946,31.862,66.1,36.016C70.254,40.171,72.332,45.185,72.332,51.058C72.332,56.931,70.254,61.944,66.1,66.099ZM66.1,66.099"/>
</g>
  <g id="Light-M" transform="matrix(1.0,0.0,0.0,1.0,1103.3620572916668,1039.7120768229167)">  <path stroke-linecap="butt" stroke="none" fill-rule="evenodd" stroke-linejoin="miter" fill-opacity="1" stroke-width="1px" fill="#000000" stroke-opacity="1" stroke-miterlimit="4" stroke-dasharray="none" clip-rule="evenodd" d="M92,43.025L81.862,41.474C81.308,39.701,80.55,37.891,79.59,36.044C80.254,35.121,81.251,33.819,82.581,32.139C83.91,30.458,84.852,29.23,85.406,28.454C85.702,28.048,85.849,27.623,85.849,27.18C85.849,26.663,85.72,26.257,85.461,25.961C84.132,24.077,81.085,20.938,76.32,16.543C75.878,16.173,75.416,15.989,74.936,15.989C74.382,15.989,73.938,16.155,73.606,16.487L65.74,22.415C64.225,21.639,62.563,20.956,60.753,20.365L59.202,10.172C59.166,9.692,58.952,9.294,58.565,8.98C58.177,8.666,57.725,8.51,57.207,8.51L44.908,8.51C43.838,8.51,43.172,9.026,42.914,10.061C42.434,11.907,41.898,15.342,41.307,20.365C39.571,20.92,37.891,21.622,36.265,22.471L28.62,16.543C28.14,16.173,27.66,15.989,27.18,15.989C26.367,15.989,24.622,17.309,21.945,19.95C19.267,22.591,17.448,24.576,16.487,25.906C16.155,26.386,15.989,26.811,15.989,27.18C15.989,27.623,16.173,28.067,16.543,28.509C19.017,31.501,20.993,34.049,22.471,36.155C21.547,37.854,20.827,39.553,20.31,41.252L10.006,42.803C9.6,42.877,9.249,43.117,8.953,43.524C8.657,43.93,8.51,44.355,8.51,44.797L8.51,57.097C8.51,57.578,8.657,58.011,8.953,58.398C9.249,58.786,9.636,59.018,10.116,59.092L20.255,60.588C20.772,62.397,21.529,64.225,22.527,66.072C21.862,66.995,20.865,68.296,19.535,69.977C18.206,71.659,17.263,72.886,16.71,73.662C16.414,74.069,16.266,74.493,16.266,74.936C16.266,75.416,16.396,75.84,16.654,76.21C18.094,78.205,21.141,81.308,25.795,85.517C26.202,85.924,26.664,86.127,27.181,86.127C27.735,86.127,28.196,85.961,28.566,85.629L36.378,79.7C37.893,80.476,39.555,81.16,41.364,81.751L42.915,91.944C42.952,92.424,43.165,92.822,43.552,93.136C43.94,93.451,44.393,93.606,44.91,93.606L57.209,93.606C58.281,93.606,58.946,93.089,59.205,92.055C59.684,90.208,60.219,86.774,60.81,81.751C62.546,81.197,64.227,80.495,65.852,79.645L73.498,85.629C74.014,85.961,74.495,86.127,74.938,86.127C75.75,86.127,77.486,84.817,80.145,82.193C82.805,79.572,84.633,77.577,85.629,76.21C85.962,75.84,86.128,75.416,86.128,74.936C86.128,74.456,85.944,73.993,85.574,73.551C82.915,70.3,80.939,67.753,79.646,65.906C80.384,64.539,81.105,62.858,81.807,60.864L92.056,59.314C92.499,59.24,92.869,58.999,93.164,58.592C93.459,58.185,93.606,57.761,93.606,57.318L93.606,45.019C93.607,44.539,93.46,44.106,93.164,43.718C92.867,43.329,92.48,43.098,92,43.025ZM66.1,66.099C61.946,70.254,56.931,72.332,51.058,72.332C45.185,72.332,40.171,70.254,36.016,66.099C31.862,61.944,29.784,56.931,29.784,51.058C29.784,45.185,31.861,40.171,36.016,36.016C40.171,31.862,45.186,29.784,51.058,29.784C56.931,29.784,61.946,31.862,66.1,36.016C70.254,40.171,72.332,45.185,72.332,51.058C72.332,56.931,70.254,61.944,66.1,66.099ZM66.1,66.099"/>
</g>
  <g id="Thin-M" transform="matrix(1.0,0.0,0.0,1.0,806.6520572916667,1039.7120768229167)">  <path stroke-opacity="1" fill-opacity="1" clip-rule="evenodd" stroke-width="1px" stroke-dasharray="none" stroke="none" fill="#000000" stroke-linecap="butt" stroke-miterlimit="4" fill-rule="evenodd" stroke-linejoin="miter" d="M92,43.025L81.862,41.474C81.308,39.701,80.55,37.891,79.59,36.044C80.254,35.121,81.251,33.819,82.581,32.139C83.91,30.458,84.852,29.23,85.406,28.454C85.702,28.048,85.849,27.623,85.849,27.18C85.849,26.663,85.72,26.257,85.461,25.961C84.132,24.077,81.085,20.938,76.32,16.543C75.878,16.173,75.416,15.989,74.936,15.989C74.382,15.989,73.938,16.155,73.606,16.487L65.74,22.415C64.225,21.639,62.563,20.956,60.753,20.365L59.202,10.172C59.166,9.692,58.952,9.294,58.565,8.98C58.177,8.666,57.725,8.51,57.207,8.51L44.908,8.51C43.838,8.51,43.172,9.026,42.914,10.061C42.434,11.907,41.898,15.342,41.307,20.365C39.571,20.92,37.891,21.622,36.265,22.471L28.62,16.543C28.14,16.173,27.66,15.989,27.18,15.989C26.367,15.989,24.622,17.309,21.945,19.95C19.267,22.591,17.448,24.576,16.487,25.906C16.155,26.386,15.989,26.811,15.989,27.18C15.989,27.623,16.173,28.067,16.543,28.509C19.017,31.501,20.993,34.049,22.471,36.155C21.547,37.854,20.827,39.553,20.31,41.252L10.006,42.803C9.6,42.877,9.249,43.117,8.953,43.524C8.657,43.93,8.51,44.355,8.51,44.797L8.51,57.097C8.51,57.578,8.657,58.011,8.953,58.398C9.249,58.786,9.636,59.018,10.116,59.092L20.255,60.588C20.772,62.397,21.529,64.225,22.527,66.072C21.862,66.995,20.865,68.296,19.535,69.977C18.206,71.659,17.263,72.886,16.71,73.662C16.414,74.069,16.266,74.493,16.266,74.936C16.266,75.416,16.396,75.84,16.654,76.21C18.094,78.205,21.141,81.308,25.795,85.517C26.202,85.924,26.664,86.127,27.181,86.127C27.735,86.127,28.196,85.961,28.566,85.629L36.378,79.7C37.893,80.476,39.555,81.16,41.364,81.751L42.915,91.944C42.952,92.424,43.165,92.822,43.552,93.136C43.94,93.451,44.393,93.606,44.91,93.606L57.209,93.606C58.281,93.606,58.946,93.089,59.205,92.055C59.684,90.208,60.219,86.774,60.81,81.751C62.546,81.197,64.227,80.495,65.852,79.645L73.498,85.629C74.014,85.961,74.495,86.127,74.938,86.127C75.75,86.127,77.486,84.817,80.145,82.193C82.805,79.572,84.633,77.577,85.629,76.21C85.962,75.84,86.128,75.416,86.128,74.936C86.128,74.456,85.944,73.993,85.574,73.551C82.915,70.3,80.939,67.753,79.646,65.906C80.384,64.539,81.105,62.858,81.807,60.864L92.056,59.314C92.499,59.24,92.869,58.999,93.164,58.592C93.459,58.185,93.606,57.761,93.606,57.318L93.606,45.019C93.607,44.539,93.46,44.106,93.164,43.718C92.867,43.329,92.48,43.098,92,43.025ZM66.1,66.099C61.946,70.254,56.931,72.332,51.058,72.332C45.185,72.332,40.171,70.254,36.016,66.099C31.862,61.944,29.784,56.931,29.784,51.058C29.784,45.185,31.861,40.171,36.016,36.016C40.171,31.862,45.186,29.784,51.058,29.784C56.931,29.784,61.946,31.862,66.1,36.016C70.254,40.171,72.332,45.185,72.332,51.058C72.332,56.931,70.254,61.944,66.1,66.099ZM66.1,66.099"/>
</g>
  <g id="Ultralight-M" transform="matrix(1.0,0.0,0.0,1.0,509.94205729166663,1039.7120768229167)">  <path stroke-linecap="butt" stroke-dasharray="none" fill-rule="evenodd" stroke-linejoin="miter" stroke-miterlimit="4" stroke-width="1px" stroke-opacity="1" stroke="none" fill="#000000" fill-opacity="1" clip-rule="evenodd" d="M92,43.025L81.862,41.474C81.308,39.701,80.55,37.891,79.59,36.044C80.254,35.121,81.251,33.819,82.581,32.139C83.91,30.458,84.852,29.23,85.406,28.454C85.702,28.048,85.849,27.623,85.849,27.18C85.849,26.663,85.72,26.257,85.461,25.961C84.132,24.077,81.085,20.938,76.32,16.543C75.878,16.173,75.416,15.989,74.936,15.989C74.382,15.989,73.938,16.155,73.606,16.487L65.74,22.415C64.225,21.639,62.563,20.956,60.753,20.365L59.202,10.172C59.166,9.692,58.952,9.294,58.565,8.98C58.177,8.666,57.725,8.51,57.207,8.51L44.908,8.51C43.838,8.51,43.172,9.026,42.914,10.061C42.434,11.907,41.898,15.342,41.307,20.365C39.571,20.92,37.891,21.622,36.265,22.471L28.62,16.543C28.14,16.173,27.66,15.989,27.18,15.989C26.367,15.989,24.622,17.309,21.945,19.95C19.267,22.591,17.448,24.576,16.487,25.906C16.155,26.386,15.989,26.811,15.989,27.18C15.989,27.623,16.173,28.067,16.543,28.509C19.017,31.501,20.993,34.049,22.471,36.155C21.547,37.854,20.827,39.553,20.31,41.252L10.006,42.803C9.6,42.877,9.249,43.117,8.953,43.524C8.657,43.93,8.51,44.355,8.51,44.797L8.51,57.097C8.51,57.578,8.657,58.011,8.953,58.398C9.249,58.786,9.636,59.018,10.116,59.092L20.255,60.588C20.772,62.397,21.529,64.225,22.527,66.072C21.862,66.995,20.865,68.296,19.535,69.977C18.206,71.659,17.263,72.886,16.71,73.662C16.414,74.069,16.266,74.493,16.266,74.936C16.266,75.416,16.396,75.84,16.654,76.21C18.094,78.205,21.141,81.308,25.795,85.517C26.202,85.924,26.664,86.127,27.181,86.127C27.735,86.127,28.196,85.961,28.566,85.629L36.378,79.7C37.893,80.476,39.555,81.16,41.364,81.751L42.915,91.944C42.952,92.424,43.165,92.822,43.552,93.136C43.94,93.451,44.393,93.606,44.91,93.606L57.209,93.606C58.281,93.606,58.946,93.089,59.205,92.055C59.684,90.208,60.219,86.774,60.81,81.751C62.546,81.197,64.227,80.495,65.852,79.645L73.498,85.629C74.014,85.961,74.495,86.127,74.938,86.127C75.75,86.127,77.486,84.817,80.145,82.193C82.805,79.572,84.633,77.577,85.629,76.21C85.962,75.84,86.128,75.416,86.128,74.936C86.128,74.456,85.944,73.993,85.574,73.551C82.915,70.3,80.939,67.753,79.646,65.906C80.384,64.539,81.105,62.858,81.807,60.864L92.056,59.314C92.499,59.24,92.869,58.999,93.164,58.592C93.459,58.185,93.606,57.761,93.606,57.318L93.606,45.019C93.607,44.539,93.46,44.106,93.164,43.718C92.867,43.329,92.48,43.098,92,43.025ZM66.1,66.099C61.946,70.254,56.931,72.332,51.058,72.332C45.185,72.332,40.171,70.254,36.016,66.099C31.862,61.944,29.784,56.931,29.784,51.058C29.784,45.185,31.861,40.171,36.016,36.016C40.171,31.862,45.186,29.784,51.058,29.784C56.931,29.784,61.946,31.862,66.1,36.016C70.254,40.171,72.332,45.185,72.332,51.058C72.332,56.931,70.254,61.944,66.1,66.099ZM66.1,66.099"/>
</g>
  <g id="Black-S" transform="matrix(1.0,0.0,0.0,1.0,2894.7016308593747,620.791650390625)">  <path fill-opacity="1" stroke-miterlimit="4" stroke-opacity="1" stroke-dasharray="none" clip-rule="evenodd" stroke="none" stroke-linejoin="miter" stroke-width="1px" stroke-linecap="butt" fill="#000000" fill-rule="evenodd" d="M72.036,33.688L64.098,32.474C63.664,31.086,63.071,29.669,62.319,28.223C62.839,27.5,63.62,26.481,64.661,25.164C65.701,23.848,66.439,22.887,66.873,22.28C67.105,21.961,67.22,21.629,67.22,21.282C67.22,20.877,67.119,20.559,66.916,20.328C65.875,18.852,63.489,16.395,59.758,12.953C59.412,12.664,59.05,12.519,58.675,12.519C58.241,12.519,57.894,12.649,57.633,12.909L51.474,17.551C50.288,16.943,48.986,16.408,47.57,15.946L46.355,7.964C46.327,7.588,46.16,7.277,45.856,7.032C45.552,6.786,45.199,6.663,44.793,6.663L35.163,6.663C34.325,6.663,33.804,7.068,33.601,7.878C33.226,9.323,32.806,12.013,32.343,15.946C30.984,16.38,29.668,16.93,28.396,17.595L22.41,12.953C22.034,12.664,21.658,12.519,21.282,12.519C20.646,12.519,19.279,13.553,17.183,15.621C15.086,17.689,13.662,19.243,12.91,20.284C12.649,20.66,12.519,20.993,12.519,21.282C12.519,21.629,12.664,21.976,12.953,22.323C14.89,24.666,16.438,26.661,17.595,28.31C16.872,29.64,16.308,30.97,15.903,32.3L7.834,33.515C7.517,33.573,7.242,33.761,7.01,34.079C6.779,34.397,6.663,34.73,6.663,35.076L6.663,44.707C6.663,45.083,6.779,45.422,7.01,45.726C7.242,46.03,7.545,46.211,7.921,46.269L15.86,47.44C16.265,48.857,16.857,50.288,17.638,51.734C17.118,52.457,16.337,53.476,15.296,54.792C14.255,56.109,13.517,57.069,13.084,57.677C12.852,57.996,12.737,58.328,12.737,58.675C12.737,59.051,12.838,59.383,13.04,59.672C14.168,61.234,16.554,63.664,20.198,66.96C20.516,67.279,20.878,67.437,21.282,67.437C21.716,67.437,22.078,67.307,22.367,67.048L28.484,62.405C29.67,63.013,30.971,63.548,32.388,64.011L33.602,71.992C33.632,72.368,33.798,72.679,34.102,72.925C34.405,73.172,34.76,73.294,35.164,73.294L44.794,73.294C45.634,73.294,46.154,72.889,46.357,72.079C46.733,70.633,47.152,67.944,47.615,64.011C48.974,63.577,50.29,63.027,51.562,62.362L57.549,67.048C57.953,67.307,58.33,67.437,58.677,67.437C59.312,67.437,60.672,66.411,62.753,64.358C64.836,62.305,66.267,60.742,67.048,59.672C67.308,59.383,67.439,59.051,67.439,58.675C67.439,58.299,67.294,57.936,67.004,57.59C64.923,55.045,63.375,53.05,62.363,51.604C62.941,50.534,63.505,49.218,64.055,47.657L72.08,46.443C72.426,46.385,72.717,46.196,72.948,45.878C73.179,45.559,73.294,45.227,73.294,44.88L73.294,35.25C73.294,34.874,73.179,34.535,72.947,34.231C72.715,33.927,72.412,33.746,72.036,33.688ZM51.756,51.755C48.503,55.009,44.577,56.636,39.978,56.636C35.38,56.636,31.454,55.009,28.201,51.755C24.948,48.502,23.321,44.577,23.321,39.978C23.321,35.38,24.947,31.454,28.201,28.201C31.454,24.948,35.381,23.321,39.978,23.321C44.577,23.321,48.503,24.948,51.756,28.201C55.009,31.454,56.636,35.38,56.636,39.978C56.636,44.577,55.009,48.502,51.756,51.755ZM51.756,51.755"/>
</g>
  <g id="Heavy-S" transform="matrix(1.0,0.0,0.0,1.0,2597.9916308593747,620.791650390625)">  <path fill-opacity="1" clip-rule="evenodd" fill="#000000" stroke-opacity="1" stroke-width="1px" stroke="none" fill-rule="evenodd" stroke-linecap="butt" stroke-miterlimit="4" stroke-dasharray="none" stroke-linejoin="miter" d="M72.036,33.688L64.098,32.474C63.664,31.086,63.071,29.669,62.319,28.223C62.839,27.5,63.62,26.481,64.661,25.164C65.701,23.848,66.439,22.887,66.873,22.28C67.105,21.961,67.22,21.629,67.22,21.282C67.22,20.877,67.119,20.559,66.916,20.328C65.875,18.852,63.489,16.395,59.758,12.953C59.412,12.664,59.05,12.519,58.675,12.519C58.241,12.519,57.894,12.649,57.633,12.909L51.474,17.551C50.288,16.943,48.986,16.408,47.57,15.946L46.355,7.964C46.327,7.588,46.16,7.277,45.856,7.032C45.552,6.786,45.199,6.663,44.793,6.663L35.163,6.663C34.325,6.663,33.804,7.068,33.601,7.878C33.226,9.323,32.806,12.013,32.343,15.946C30.984,16.38,29.668,16.93,28.396,17.595L22.41,12.953C22.034,12.664,21.658,12.519,21.282,12.519C20.646,12.519,19.279,13.553,17.183,15.621C15.086,17.689,13.662,19.243,12.91,20.284C12.649,20.66,12.519,20.993,12.519,21.282C12.519,21.629,12.664,21.976,12.953,22.323C14.89,24.666,16.438,26.661,17.595,28.31C16.872,29.64,16.308,30.97,15.903,32.3L7.834,33.515C7.517,33.573,7.242,33.761,7.01,34.079C6.779,34.397,6.663,34.73,6.663,35.076L6.663,44.707C6.663,45.083,6.779,45.422,7.01,45.726C7.242,46.03,7.545,46.211,7.921,46.269L15.86,47.44C16.265,48.857,16.857,50.288,17.638,51.734C17.118,52.457,16.337,53.476,15.296,54.792C14.255,56.109,13.517,57.069,13.084,57.677C12.852,57.996,12.737,58.328,12.737,58.675C12.737,59.051,12.838,59.383,13.04,59.672C14.168,61.234,16.554,63.664,20.198,66.96C20.516,67.279,20.878,67.437,21.282,67.437C21.716,67.437,22.078,67.307,22.367,67.048L28.484,62.405C29.67,63.013,30.971,63.548,32.388,64.011L33.602,71.992C33.632,72.368,33.798,72.679,34.102,72.925C34.405,73.172,34.76,73.294,35.164,73.294L44.794,73.294C45.634,73.294,46.154,72.889,46.357,72.079C46.733,70.633,47.152,67.944,47.615,64.011C48.974,63.577,50.29,63.027,51.562,62.362L57.549,67.048C57.953,67.307,58.33,67.437,58.677,67.437C59.312,67.437,60.672,66.411,62.753,64.358C64.836,62.305,66.267,60.742,67.048,59.672C67.308,59.383,67.439,59.051,67.439,58.675C67.439,58.299,67.294,57.936,67.004,57.59C64.923,55.045,63.375,53.05,62.363,51.604C62.941,50.534,63.505,49.218,64.055,47.657L72.08,46.443C72.426,46.385,72.717,46.196,72.948,45.878C73.179,45.559,73.294,45.227,73.294,44.88L73.294,35.25C73.294,34.874,73.179,34.535,72.947,34.231C72.715,33.927,72.412,33.746,72.036,33.688ZM51.756,51.755C48.503,55.009,44.577,56.636,39.978,56.636C35.38,56.636,31.454,55.009,28.201,51.755C24.948,48.502,23.321,44.577,23.321,39.978C23.321,35.38,24.947,31.454,28.201,28.201C31.454,24.948,35.381,23.321,39.978,23.321C44.577,23.321,48.503,24.948,51.756,28.201C55.009,31.454,56.636,35.38,56.636,39.978C56.636,44.577,55.009,48.502,51.756,51.755ZM51.756,51.755"/>
</g>
  <g id="Bold-S" transform="matrix(1.0,0.0,0.0,1.0,2301.2816308593747,620.791650390625)">  <path stroke-width="1px" fill-opacity="1" clip-rule="evenodd" stroke="none" stroke-linecap="butt" stroke-dasharray="none" stroke-miterlimit="4" stroke-linejoin="miter" fill="#000000" stroke-opacity="1" fill-rule="evenodd" d="M72.036,33.688L64.098,32.474C63.664,31.086,63.071,29.669,62.319,28.223C62.839,27.5,63.62,26.481,64.661,25.164C65.701,23.848,66.439,22.887,66.873,22.28C67.105,21.961,67.22,21.629,67.22,21.282C67.22,20.877,67.119,20.559,66.916,20.328C65.875,18.852,63.489,16.395,59.758,12.953C59.412,12.664,59.05,12.519,58.675,12.519C58.241,12.519,57.894,12.649,57.633,12.909L51.474,17.551C50.288,16.943,48.986,16.408,47.57,15.946L46.355,7.964C46.327,7.588,46.16,7.277,45.856,7.032C45.552,6.786,45.199,6.663,44.793,6.663L35.163,6.663C34.325,6.663,33.804,7.068,33.601,7.878C33.226,9.323,32.806,12.013,32.343,15.946C30.984,16.38,29.668,16.93,28.396,17.595L22.41,12.953C22.034,12.664,21.658,12.519,21.282,12.519C20.646,12.519,19.279,13.553,17.183,15.621C15.086,17.689,13.662,19.243,12.91,20.284C12.649,20.66,12.519,20.993,12.519,21.282C12.519,21.629,12.664,21.976,12.953,22.323C14.89,24.666,16.438,26.661,17.595,28.31C16.872,29.64,16.308,30.97,15.903,32.3L7.834,33.515C7.517,33.573,7.242,33.761,7.01,34.079C6.779,34.397,6.663,34.73,6.663,35.076L6.663,44.707C6.663,45.083,6.779,45.422,7.01,45.726C7.242,46.03,7.545,46.211,7.921,46.269L15.86,47.44C16.265,48.857,16.857,50.288,17.638,51.734C17.118,52.457,16.337,53.476,15.296,54.792C14.255,56.109,13.517,57.069,13.084,57.677C12.852,57.996,12.737,58.328,12.737,58.675C12.737,59.051,12.838,59.383,13.04,59.672C14.168,61.234,16.554,63.664,20.198,66.96C20.516,67.279,20.878,67.437,21.282,67.437C21.716,67.437,22.078,67.307,22.367,67.048L28.484,62.405C29.67,63.013,30.971,63.548,32.388,64.011L33.602,71.992C33.632,72.368,33.798,72.679,34.102,72.925C34.405,73.172,34.76,73.294,35.164,73.294L44.794,73.294C45.634,73.294,46.154,72.889,46.357,72.079C46.733,70.633,47.152,67.944,47.615,64.011C48.974,63.577,50.29,63.027,51.562,62.362L57.549,67.048C57.953,67.307,58.33,67.437,58.677,67.437C59.312,67.437,60.672,66.411,62.753,64.358C64.836,62.305,66.267,60.742,67.048,59.672C67.308,59.383,67.439,59.051,67.439,58.675C67.439,58.299,67.294,57.936,67.004,57.59C64.923,55.045,63.375,53.05,62.363,51.604C62.941,50.534,63.505,49.218,64.055,47.657L72.08,46.443C72.426,46.385,72.717,46.196,72.948,45.878C73.179,45.559,73.294,45.227,73.294,44.88L73.294,35.25C73.294,34.874,73.179,34.535,72.947,34.231C72.715,33.927,72.412,33.746,72.036,33.688ZM51.756,51.755C48.503,55.009,44.577,56.636,39.978,56.636C35.38,56.636,31.454,55.009,28.201,51.755C24.948,48.502,23.321,44.577,23.321,39.978C23.321,35.38,24.947,31.454,28.201,28.201C31.454,24.948,35.381,23.321,39.978,23.321C44.577,23.321,48.503,24.948,51.756,28.201C55.009,31.454,56.636,35.38,56.636,39.978C56.636,44.577,55.009,48.502,51.756,51.755ZM51.756,51.755"/>
</g>
  <g id="Semibold-S" transform="matrix(1.0,0.0,0.0,1.0,2004.5716308593749,620.791650390625)">  <path stroke-miterlimit="4" stroke-linecap="butt" fill-rule="evenodd" stroke-dasharray="none" stroke-opacity="1" stroke-linejoin="miter" fill="#000000" fill-opacity="1" stroke="none" stroke-width="1px" clip-rule="evenodd" d="M72.036,33.688L64.098,32.474C63.664,31.086,63.071,29.669,62.319,28.223C62.839,27.5,63.62,26.481,64.661,25.164C65.701,23.848,66.439,22.887,66.873,22.28C67.105,21.961,67.22,21.629,67.22,21.282C67.22,20.877,67.119,20.559,66.916,20.328C65.875,18.852,63.489,16.395,59.758,12.953C59.412,12.664,59.05,12.519,58.675,12.519C58.241,12.519,57.894,12.649,57.633,12.909L51.474,17.551C50.288,16.943,48.986,16.408,47.57,15.946L46.355,7.964C46.327,7.588,46.16,7.277,45.856,7.032C45.552,6.786,45.199,6.663,44.793,6.663L35.163,6.663C34.325,6.663,33.804,7.068,33.601,7.878C33.226,9.323,32.806,12.013,32.343,15.946C30.984,16.38,29.668,16.93,28.396,17.595L22.41,12.953C22.034,12.664,21.658,12.519,21.282,12.519C20.646,12.519,19.279,13.553,17.183,15.621C15.086,17.689,13.662,19.243,12.91,20.284C12.649,20.66,12.519,20.993,12.519,21.282C12.519,21.629,12.664,21.976,12.953,22.323C14.89,24.666,16.438,26.661,17.595,28.31C16.872,29.64,16.308,30.97,15.903,32.3L7.834,33.515C7.517,33.573,7.242,33.761,7.01,34.079C6.779,34.397,6.663,34.73,6.663,35.076L6.663,44.707C6.663,45.083,6.779,45.422,7.01,45.726C7.242,46.03,7.545,46.211,7.921,46.269L15.86,47.44C16.265,48.857,16.857,50.288,17.638,51.734C17.118,52.457,16.337,53.476,15.296,54.792C14.255,56.109,13.517,57.069,13.084,57.677C12.852,57.996,12.737,58.328,12.737,58.675C12.737,59.051,12.838,59.383,13.04,59.672C14.168,61.234,16.554,63.664,20.198,66.96C20.516,67.279,20.878,67.437,21.282,67.437C21.716,67.437,22.078,67.307,22.367,67.048L28.484,62.405C29.67,63.013,30.971,63.548,32.388,64.011L33.602,71.992C33.632,72.368,33.798,72.679,34.102,72.925C34.405,73.172,34.76,73.294,35.164,73.294L44.794,73.294C45.634,73.294,46.154,72.889,46.357,72.079C46.733,70.633,47.152,67.944,47.615,64.011C48.974,63.577,50.29,63.027,51.562,62.362L57.549,67.048C57.953,67.307,58.33,67.437,58.677,67.437C59.312,67.437,60.672,66.411,62.753,64.358C64.836,62.305,66.267,60.742,67.048,59.672C67.308,59.383,67.439,59.051,67.439,58.675C67.439,58.299,67.294,57.936,67.004,57.59C64.923,55.045,63.375,53.05,62.363,51.604C62.941,50.534,63.505,49.218,64.055,47.657L72.08,46.443C72.426,46.385,72.717,46.196,72.948,45.878C73.179,45.559,73.294,45.227,73.294,44.88L73.294,35.25C73.294,34.874,73.179,34.535,72.947,34.231C72.715,33.927,72.412,33.746,72.036,33.688ZM51.756,51.755C48.503,55.009,44.577,56.636,39.978,56.636C35.38,56.636,31.454,55.009,28.201,51.755C24.948,48.502,23.321,44.577,23.321,39.978C23.321,35.38,24.947,31.454,28.201,28.201C31.454,24.948,35.381,23.321,39.978,23.321C44.577,23.321,48.503,24.948,51.756,28.201C55.009,31.454,56.636,35.38,56.636,39.978C56.636,44.577,55.009,48.502,51.756,51.755ZM51.756,51.755"/>
</g>
  <g id="Medium-S" transform="matrix(1.0,0.0,0.0,1.0,1707.8616308593748,620.791650390625)">  <path stroke-dasharray="none" stroke="none" stroke-linecap="butt" stroke-opacity="1" fill-opacity="1" stroke-miterlimit="4" clip-rule="evenodd" fill="#000000" stroke-width="1px" fill-rule="evenodd" stroke-linejoin="miter" d="M72.036,33.688L64.098,32.474C63.664,31.086,63.071,29.669,62.319,28.223C62.839,27.5,63.62,26.481,64.661,25.164C65.701,23.848,66.439,22.887,66.873,22.28C67.105,21.961,67.22,21.629,67.22,21.282C67.22,20.877,67.119,20.559,66.916,20.328C65.875,18.852,63.489,16.395,59.758,12.953C59.412,12.664,59.05,12.519,58.675,12.519C58.241,12.519,57.894,12.649,57.633,12.909L51.474,17.551C50.288,16.943,48.986,16.408,47.57,15.946L46.355,7.964C46.327,7.588,46.16,7.277,45.856,7.032C45.552,6.786,45.199,6.663,44.793,6.663L35.163,6.663C34.325,6.663,33.804,7.068,33.601,7.878C33.226,9.323,32.806,12.013,32.343,15.946C30.984,16.38,29.668,16.93,28.396,17.595L22.41,12.953C22.034,12.664,21.658,12.519,21.282,12.519C20.646,12.519,19.279,13.553,17.183,15.621C15.086,17.689,13.662,19.243,12.91,20.284C12.649,20.66,12.519,20.993,12.519,21.282C12.519,21.629,12.664,21.976,12.953,22.323C14.89,24.666,16.438,26.661,17.595,28.31C16.872,29.64,16.308,30.97,15.903,32.3L7.834,33.515C7.517,33.573,7.242,33.761,7.01,34.079C6.779,34.397,6.663,34.73,6.663,35.076L6.663,44.707C6.663,45.083,6.779,45.422,7.01,45.726C7.242,46.03,7.545,46.211,7.921,46.269L15.86,47.44C16.265,48.857,16.857,50.288,17.638,51.734C17.118,52.457,16.337,53.476,15.296,54.792C14.255,56.109,13.517,57.069,13.084,57.677C12.852,57.996,12.737,58.328,12.737,58.675C12.737,59.051,12.838,59.383,13.04,59.672C14.168,61.234,16.554,63.664,20.198,66.96C20.516,67.279,20.878,67.437,21.282,67.437C21.716,67.437,22.078,67.307,22.367,67.048L28.484,62.405C29.67,63.013,30.971,63.548,32.388,64.011L33.602,71.992C33.632,72.368,33.798,72.679,34.102,72.925C34.405,73.172,34.76,73.294,35.164,73.294L44.794,73.294C45.634,73.294,46.154,72.889,46.357,72.079C46.733,70.633,47.152,67.944,47.615,64.011C48.974,63.577,50.29,63.027,51.562,62.362L57.549,67.048C57.953,67.307,58.33,67.437,58.677,67.437C59.312,67.437,60.672,66.411,62.753,64.358C64.836,62.305,66.267,60.742,67.048,59.672C67.308,59.383,67.439,59.051,67.439,58.675C67.439,58.299,67.294,57.936,67.004,57.59C64.923,55.045,63.375,53.05,62.363,51.604C62.941,50.534,63.505,49.218,64.055,47.657L72.08,46.443C72.426,46.385,72.717,46.196,72.948,45.878C73.179,45.559,73.294,45.227,73.294,44.88L73.294,35.25C73.294,34.874,73.179,34.535,72.947,34.231C72.715,33.927,72.412,33.746,72.036,33.688ZM51.756,51.755C48.503,55.009,44.577,56.636,39.978,56.636C35.38,56.636,31.454,55.009,28.201,51.755C24.948,48.502,23.321,44.577,23.321,39.978C23.321,35.38,24.947,31.454,28.201,28.201C31.454,24.948,35.381,23.321,39.978,23.321C44.577,23.321,48.503,24.948,51.756,28.201C55.009,31.454,56.636,35.38,56.636,39.978C56.636,44.577,55.009,48.502,51.756,51.755ZM51.756,51.755"/>
</g>
  <g id="Regular-S" transform="matrix(1.0,0.0,0.0,1.0,1411.1516308593748,620.791650390625)">  <path fill="#000000" stroke-linejoin="miter" stroke="none" clip-rule="evenodd" stroke-linecap="butt" stroke-miterlimit="4" fill-opacity="1" fill-rule="evenodd" stroke-dasharray="none" stroke-width="1px" stroke-opacity="1" d="M72.036,33.688L64.098,32.474C63.664,31.086,63.071,29.669,62.319,28.223C62.839,27.5,63.62,26.481,64.661,25.164C65.701,23.848,66.439,22.887,66.873,22.28C67.105,21.961,67.22,21.629,67.22,21.282C67.22,20.877,67.119,20.559,66.916,20.328C65.875,18.852,63.489,16.395,59.758,12.953C59.412,12.664,59.05,12.519,58.675,12.519C58.241,12.519,57.894,12.649,57.633,12.909L51.474,17.551C50.288,16.943,48.986,16.408,47.57,15.946L46.355,7.964C46.327,7.588,46.16,7.277,45.856,7.032C45.552,6.786,45.199,6.663,44.793,6.663L35.163,6.663C34.325,6.663,33.804,7.068,33.601,7.878C33.226,9.323,32.806,12.013,32.343,15.946C30.984,16.38,29.668,16.93,28.396,17.595L22.41,12.953C22.034,12.664,21.658,12.519,21.282,12.519C20.646,12.519,19.279,13.553,17.183,15.621C15.086,17.689,13.662,19.243,12.91,20.284C12.649,20.66,12.519,20.993,12.519,21.282C12.519,21.629,12.664,21.976,12.953,22.323C14.89,24.666,16.438,26.661,17.595,28.31C16.872,29.64,16.308,30.97,15.903,32.3L7.834,33.515C7.517,33.573,7.242,33.761,7.01,34.079C6.779,34.397,6.663,34.73,6.663,35.076L6.663,44.707C6.663,45.083,6.779,45.422,7.01,45.726C7.242,46.03,7.545,46.211,7.921,46.269L15.86,47.44C16.265,48.857,16.857,50.288,17.638,51.734C17.118,52.457,16.337,53.476,15.296,54.792C14.255,56.109,13.517,57.069,13.084,57.677C12.852,57.996,12.737,58.328,12.737,58.675C12.737,59.051,12.838,59.383,13.04,59.672C14.168,61.234,16.554,63.664,20.198,66.96C20.516,67.279,20.878,67.437,21.282,67.437C21.716,67.437,22.078,67.307,22.367,67.048L28.484,62.405C29.67,63.013,30.971,63.548,32.388,64.011L33.602,71.992C33.632,72.368,33.798,72.679,34.102,72.925C34.405,73.172,34.76,73.294,35.164,73.294L44.794,73.294C45.634,73.294,46.154,72.889,46.357,72.079C46.733,70.633,47.152,67.944,47.615,64.011C48.974,63.577,50.29,63.027,51.562,62.362L57.549,67.048C57.953,67.307,58.33,67.437,58.677,67.437C59.312,67.437,60.672,66.411,62.753,64.358C64.836,62.305,66.267,60.742,67.048,59.672C67.308,59.383,67.439,59.051,67.439,58.675C67.439,58.299,67.294,57.936,67.004,57.59C64.923,55.045,63.375,53.05,62.363,51.604C62.941,50.534,63.505,49.218,64.055,47.657L72.08,46.443C72.426,46.385,72.717,46.196,72.948,45.878C73.179,45.559,73.294,45.227,73.294,44.88L73.294,35.25C73.294,34.874,73.179,34.535,72.947,34.231C72.715,33.927,72.412,33.746,72.036,33.688ZM51.756,51.755C48.503,55.009,44.577,56.636,39.978,56.636C35.38,56.636,31.454,55.009,28.201,51.755C24.948,48.502,23.321,44.577,23.321,39.978C23.321,35.38,24.947,31.454,28.201,28.201C31.454,24.948,35.381,23.321,39.978,23.321C44.577,23.321,48.503,24.948,51.756,28.201C55.009,31.454,56.636,35.38,56.636,39.978C56.636,44.577,55.009,48.502,51.756,51.755ZM51.756,51.755"/>
</g>
  <g id="Light-S" transform="matrix(1.0,0.0,0.0,1.0,1114.441630859375,620.791650390625)">  <path stroke-linecap="butt" stroke="none" fill-rule="evenodd" stroke-linejoin="miter" fill-opacity="1" stroke-width="1px" fill="#000000" stroke-opacity="1" stroke-miterlimit="4" stroke-dasharray="none" clip-rule="evenodd" d="M72.036,33.688L64.098,32.474C63.664,31.086,63.071,29.669,62.319,28.223C62.839,27.5,63.62,26.481,64.661,25.164C65.701,23.848,66.439,22.887,66.873,22.28C67.105,21.961,67.22,21.629,67.22,21.282C67.22,20.877,67.119,20.559,66.916,20.328C65.875,18.852,63.489,16.395,59.758,12.953C59.412,12.664,59.05,12.519,58.675,12.519C58.241,12.519,57.894,12.649,57.633,12.909L51.474,17.551C50.288,16.943,48.986,16.408,47.57,15.946L46.355,7.964C46.327,7.588,46.16,7.277,45.856,7.032C45.552,6.786,45.199,6.663,44.793,6.663L35.163,6.663C34.325,6.663,33.804,7.068,33.601,7.878C33.226,9.323,32.806,12.013,32.343,15.946C30.984,16.38,29.668,16.93,28.396,17.595L22.41,12.953C22.034,12.664,21.658,12.519,21.282,12.519C20.646,12.519,19.279,13.553,17.183,15.621C15.086,17.689,13.662,19.243,12.91,20.284C12.649,20.66,12.519,20.993,12.519,21.282C12.519,21.629,12.664,21.976,12.953,22.323C14.89,24.666,16.438,26.661,17.595,28.31C16.872,29.64,16.308,30.97,15.903,32.3L7.834,33.515C7.517,33.573,7.242,33.761,7.01,34.079C6.779,34.397,6.663,34.73,6.663,35.076L6.663,44.707C6.663,45.083,6.779,45.422,7.01,45.726C7.242,46.03,7.545,46.211,7.921,46.269L15.86,47.44C16.265,48.857,16.857,50.288,17.638,51.734C17.118,52.457,16.337,53.476,15.296,54.792C14.255,56.109,13.517,57.069,13.084,57.677C12.852,57.996,12.737,58.328,12.737,58.675C12.737,59.051,12.838,59.383,13.04,59.672C14.168,61.234,16.554,63.664,20.198,66.96C20.516,67.279,20.878,67.437,21.282,67.437C21.716,67.437,22.078,67.307,22.367,67.048L28.484,62.405C29.67,63.013,30.971,63.548,32.388,64.011L33.602,71.992C33.632,72.368,33.798,72.679,34.102,72.925C34.405,73.172,34.76,73.294,35.164,73.294L44.794,73.294C45.634,73.294,46.154,72.889,46.357,72.079C46.733,70.633,47.152,67.944,47.615,64.011C48.974,63.577,50.29,63.027,51.562,62.362L57.549,67.048C57.953,67.307,58.33,67.437,58.677,67.437C59.312,67.437,60.672,66.411,62.753,64.358C64.836,62.305,66.267,60.742,67.048,59.672C67.308,59.383,67.439,59.051,67.439,58.675C67.439,58.299,67.294,57.936,67.004,57.59C64.923,55.045,63.375,53.05,62.363,51.604C62.941,50.534,63.505,49.218,64.055,47.657L72.08,46.443C72.426,46.385,72.717,46.196,72.948,45.878C73.179,45.559,73.294,45.227,73.294,44.88L73.294,35.25C73.294,34.874,73.179,34.535,72.947,34.231C72.715,33.927,72.412,33.746,72.036,33.688ZM51.756,51.755C48.503,55.009,44.577,56.636,39.978,56.636C35.38,56.636,31.454,55.009,28.201,51.755C24.948,48.502,23.321,44.577,23.321,39.978C23.321,35.38,24.947,31.454,28.201,28.201C31.454,24.948,35.381,23.321,39.978,23.321C44.577,23.321,48.503,24.948,51.756,28.201C55.009,31.454,56.636,35.38,56.636,39.978C56.636,44.577,55.009,48.502,51.756,51.755ZM51.756,51.755"/>
</g>
  <g id="Thin-S" transform="matrix(1.0,0.0,0.0,1.0,817.7316308593751,620.791650390625)">  <path stroke-opacity="1" fill-opacity="1" clip-rule="evenodd" stroke-width="1px" stroke-dasharray="none" stroke="none" fill="#000000" stroke-linecap="butt" stroke-miterlimit="4" fill-rule="evenodd" stroke-linejoin="miter" d="M72.036,33.688L64.098,32.474C63.664,31.086,63.071,29.669,62.319,28.223C62.839,27.5,63.62,26.481,64.661,25.164C65.701,23.848,66.439,22.887,66.873,22.28C67.105,21.961,67.22,21.629,67.22,21.282C67.22,20.877,67.119,20.559,66.916,20.328C65.875,18.852,63.489,16.395,59.758,12.953C59.412,12.664,59.05,12.519,58.675,12.519C58.241,12.519,57.894,12.649,57.633,12.909L51.474,17.551C50.288,16.943,48.986,16.408,47.57,15.946L46.355,7.964C46.327,7.588,46.16,7.277,45.856,7.032C45.552,6.786,45.199,6.663,44.793,6.663L35.163,6.663C34.325,6.663,33.804,7.068,33.601,7.878C33.226,9.323,32.806,12.013,32.343,15.946C30.984,16.38,29.668,16.93,28.396,17.595L22.41,12.953C22.034,12.664,21.658,12.519,21.282,12.519C20.646,12.519,19.279,13.553,17.183,15.621C15.086,17.689,13.662,19.243,12.91,20.284C12.649,20.66,12.519,20.993,12.519,21.282C12.519,21.629,12.664,21.976,12.953,22.323C14.89,24.666,16.438,26.661,17.595,28.31C16.872,29.64,16.308,30.97,15.903,32.3L7.834,33.515C7.517,33.573,7.242,33.761,7.01,34.079C6.779,34.397,6.663,34.73,6.663,35.076L6.663,44.707C6.663,45.083,6.779,45.422,7.01,45.726C7.242,46.03,7.545,46.211,7.921,46.269L15.86,47.44C16.265,48.857,16.857,50.288,17.638,51.734C17.118,52.457,16.337,53.476,15.296,54.792C14.255,56.109,13.517,57.069,13.084,57.677C12.852,57.996,12.737,58.328,12.737,58.675C12.737,59.051,12.838,59.383,13.04,59.672C14.168,61.234,16.554,63.664,20.198,66.96C20.516,67.279,20.878,67.437,21.282,67.437C21.716,67.437,22.078,67.307,22.367,67.048L28.484,62.405C29.67,63.013,30.971,63.548,32.388,64.011L33.602,71.992C33.632,72.368,33.798,72.679,34.102,72.925C34.405,73.172,34.76,73.294,35.164,73.294L44.794,73.294C45.634,73.294,46.154,72.889,46.357,72.079C46.733,70.633,47.152,67.944,47.615,64.011C48.974,63.577,50.29,63.027,51.562,62.362L57.549,67.048C57.953,67.307,58.33,67.437,58.677,67.437C59.312,67.437,60.672,66.411,62.753,64.358C64.836,62.305,66.267,60.742,67.048,59.672C67.308,59.383,67.439,59.051,67.439,58.675C67.439,58.299,67.294,57.936,67.004,57.59C64.923,55.045,63.375,53.05,62.363,51.604C62.941,50.534,63.505,49.218,64.055,47.657L72.08,46.443C72.426,46.385,72.717,46.196,72.948,45.878C73.179,45.559,73.294,45.227,73.294,44.88L73.294,35.25C73.294,34.874,73.179,34.535,72.947,34.231C72.715,33.927,72.412,33.746,72.036,33.688ZM51.756,51.755C48.503,55.009,44.577,56.636,39.978,56.636C35.38,56.636,31.454,55.009,28.201,51.755C24.948,48.502,23.321,44.577,23.321,39.978C23.321,35.38,24.947,31.454,28.201,28.201C31.454,24.948,35.381,23.321,39.978,23.321C44.577,23.321,48.503,24.948,51.756,28.201C55.009,31.454,56.636,35.38,56.636,39.978C56.636,44.577,55.009,48.502,51.756,51.755ZM51.756,51.755"/>
</g>
  <g id="Ultralight-S" transform="matrix(1.0,0.0,0.0,1.0,521.021630859375,620.791650390625)">  <path stroke-linecap="butt" stroke-dasharray="none" fill-rule="evenodd" stroke-linejoin="miter" stroke-miterlimit="4" stroke-width="1px" stroke-opacity="1" stroke="none" fill="#000000" fill-opacity="1" clip-rule="evenodd" d="M72.036,33.688L64.098,32.474C63.664,31.086,63.071,29.669,62.319,28.223C62.839,27.5,63.62,26.481,64.661,25.164C65.701,23.848,66.439,22.887,66.873,22.28C67.105,21.961,67.22,21.629,67.22,21.282C67.22,20.877,67.119,20.559,66.916,20.328C65.875,18.852,63.489,16.395,59.758,12.953C59.412,12.664,59.05,12.519,58.675,12.519C58.241,12.519,57.894,12.649,57.633,12.909L51.474,17.551C50.288,16.943,48.986,16.408,47.57,15.946L46.355,7.964C46.327,7.588,46.16,7.277,45.856,7.032C45.552,6.786,45.199,6.663,44.793,6.663L35.163,6.663C34.325,6.663,33.804,7.068,33.601,7.878C33.226,9.323,32.806,12.013,32.343,15.946C30.984,16.38,29.668,16.93,28.396,17.595L22.41,12.953C22.034,12.664,21.658,12.519,21.282,12.519C20.646,12.519,19.279,13.553,17.183,15.621C15.086,17.689,13.662,19.243,12.91,20.284C12.649,20.66,12.519,20.993,12.519,21.282C12.519,21.629,12.664,21.976,12.953,22.323C14.89,24.666,16.438,26.661,17.595,28.31C16.872,29.64,16.308,30.97,15.903,32.3L7.834,33.515C7.517,33.573,7.242,33.761,7.01,34.079C6.779,34.397,6.663,34.73,6.663,35.076L6.663,44.707C6.663,45.083,6.779,45.422,7.01,45.726C7.242,46.03,7.545,46.211,7.921,46.269L15.86,47.44C16.265,48.857,16.857,50.288,17.638,51.734C17.118,52.457,16.337,53.476,15.296,54.792C14.255,56.109,13.517,57.069,13.084,57.677C12.852,57.996,12.737,58.328,12.737,58.675C12.737,59.051,12.838,59.383,13.04,59.672C14.168,61.234,16.554,63.664,20.198,66.96C20.516,67.279,20.878,67.437,21.282,67.437C21.716,67.437,22.078,67.307,22.367,67.048L28.484,62.405C29.67,63.013,30.971,63.548,32.388,64.011L33.602,71.992C33.632,72.368,33.798,72.679,34.102,72.925C34.405,73.172,34.76,73.294,35.164,73.294L44.794,73.294C45.634,73.294,46.154,72.889,46.357,72.079C46.733,70.633,47.152,67.944,47.615,64.011C48.974,63.577,50.29,63.027,51.562,62.362L57.549,67.048C57.953,67.307,58.33,67.437,58.677,67.437C59.312,67.437,60.672,66.411,62.753,64.358C64.836,62.305,66.267,60.742,67.048,59.672C67.308,59.383,67.439,59.051,67.439,58.675C67.439,58.299,67.294,57.936,67.004,57.59C64.923,55.045,63.375,53.05,62.363,51.604C62.941,50.534,63.505,49.218,64.055,47.657L72.08,46.443C72.426,46.385,72.717,46.196,72.948,45.878C73.179,45.559,73.294,45.227,73.294,44.88L73.294,35.25C73.294,34.874,73.179,34.535,72.947,34.231C72.715,33.927,72.412,33.746,72.036,33.688ZM51.756,51.755C48.503,55.009,44.577,56.636,39.978,56.636C35.38,56.636,31.454,55.009,28.201,51.755C24.948,48.502,23.321,44.577,23.321,39.978C23.321,35.38,24.947,31.454,28.201,28.201C31.454,24.948,35.381,23.321,39.978,23.321C44.577,23.321,48.503,24.948,51.756,28.201C55.009,31.454,56.636,35.38,56.636,39.978C56.636,44.577,55.009,48.502,51.756,51.755ZM51.756,51.755"/>
</g>
 </g>
</svg>
