<?xml version="1.0" encoding="UTF-8"?>
<!-- Generator: CustomSymbols v2.6.1.40 by @serious_bret https://bretlester.com/app_content/CustomSymbols/ -->
<!-- Guides: Left/Right 0.078/0.082 Cap/Base 0.266/0.268 -->
<!-- Settings: RefScale 1.0 Min/Max Stroke Scales 0.5/2.21 -->
<!DOCTYPE svg
PUBLIC "-//W3C//DTD SVG 1.1//EN"
       "http://www.w3.org/Graphics/SVG/1.1/DTD/svg11.dtd">
<svg version="1.1" xmlns="http://www.w3.org/2000/svg" xmlns:xlink="http://www.w3.org/1999/xlink" width="3300" height="2200">
<![CDATA[<svg width="24" height="24" viewBox="0 0 24 24" fill="none" xmlns="http://www.w3.org/2000/svg">
<path fill-rule="evenodd" clip-rule="evenodd" d="M17.3993 11.3461L17.5556 14.1785C17.625 15.4424 15.0642 16.4732 12 16.4732C8.93576 16.4732 6.375 15.4424 6.44444 14.1785L6.60069 11.3461L11.5833 12.9685C11.7222 13.0133 11.8611 13.0312 12 13.0312C12.1389 13.0312 12.2778 13.0133 12.4167 12.9685L17.3993 11.3461ZM22 8.44195C22 8.56744 21.9219 8.675 21.809 8.71982L12.0868 11.8749C12.0521 11.8839 12.026 11.8839 12 11.8839C11.974 11.8839 11.9479 11.8839 11.9132 11.8749L6.25347 10.0285C5.75868 10.4318 5.41146 11.4178 5.34201 12.6279C5.67188 12.8251 5.88889 13.1836 5.88889 13.6049C5.88889 14.0082 5.68924 14.3578 5.38542 14.564L5.88889 18.4451C5.89757 18.5258 5.87153 18.6065 5.81944 18.6692C5.76736 18.732 5.68924 18.7678 5.61111 18.7678H3.94444C3.86632 18.7678 3.78819 18.732 3.73611 18.6692C3.68403 18.6065 3.65799 18.5258 3.66667 18.4451L4.17014 14.564C3.86632 14.3578 3.66667 14.0082 3.66667 13.6049C3.66667 13.1746 3.90104 12.8071 4.2309 12.6099C4.28299 11.5612 4.5434 10.4318 5.0816 9.65201L2.19097 8.71982C2.07812 8.675 2 8.56744 2 8.44195C2 8.31646 2.07812 8.2089 2.19097 8.16409L11.9132 5.00896C11.9479 5 11.974 5 12 5C12.026 5 12.0521 5 12.0868 5.00896L21.809 8.16409C21.9219 8.2089 22 8.31646 22 8.44195Z" fill="black"/>
</svg>
]]>
 <g id="Notes">
  <rect height="2200" id="artboard" style="fill:white;opacity:1" width="3300" x="0" y="0"/>
  <line id="" style="fill:none;stroke:black;opacity:1;stroke-width:0.5;" x1="263" x2="3036" y1="292" y2="292"/>
  <text id="reftext1" style="stroke:none;fill:black;font-family:-apple-system,&quot;SF Pro Display&quot;,&quot;SF Pro Text&quot;,Helvetica,sans-serif;font-weight:bold;" transform="matrix(1 0 0 1 263 322)">Weight/Scale Variations</text>
  <text id="reftext2" style="stroke:none;fill:black;font-family:-apple-system,&quot;SF Pro Display&quot;,&quot;SF Pro Text&quot;,Helvetica,sans-serif;text-anchor:middle;" transform="matrix(1 0 0 1 559.711 322)">Ultralight</text>
  <text style="stroke:none;fill:black;font-family:-apple-system,&quot;SF Pro Display&quot;,&quot;SF Pro Text&quot;,Helvetica,sans-serif;text-anchor:middle;" transform="matrix(1 0 0 1 856.422 322)">Thin</text>
  <text style="stroke:none;fill:black;font-family:-apple-system,&quot;SF Pro Display&quot;,&quot;SF Pro Text&quot;,Helvetica,sans-serif;text-anchor:middle;" transform="matrix(1 0 0 1 1153.13 322)">Light</text>
  <text style="stroke:none;fill:black;font-family:-apple-system,&quot;SF Pro Display&quot;,&quot;SF Pro Text&quot;,Helvetica,sans-serif;text-anchor:middle;" transform="matrix(1 0 0 1 1449.84 322)">Regular</text>
  <text style="stroke:none;fill:black;font-family:-apple-system,&quot;SF Pro Display&quot;,&quot;SF Pro Text&quot;,Helvetica,sans-serif;text-anchor:middle;" transform="matrix(1 0 0 1 1746.56 322)">Medium</text>
  <text style="stroke:none;fill:black;font-family:-apple-system,&quot;SF Pro Display&quot;,&quot;SF Pro Text&quot;,Helvetica,sans-serif;text-anchor:middle;" transform="matrix(1 0 0 1 2043.27 322)">Semibold</text>
  <text style="stroke:none;fill:black;font-family:-apple-system,&quot;SF Pro Display&quot;,&quot;SF Pro Text&quot;,Helvetica,sans-serif;text-anchor:middle;" transform="matrix(1 0 0 1 2339.98 322)">Bold</text>
  <text style="stroke:none;fill:black;font-family:-apple-system,&quot;SF Pro Display&quot;,&quot;SF Pro Text&quot;,Helvetica,sans-serif;text-anchor:middle;" transform="matrix(1 0 0 1 2636.69 322)">Heavy</text>
  <text style="stroke:none;fill:black;font-family:-apple-system,&quot;SF Pro Display&quot;,&quot;SF Pro Text&quot;,Helvetica,sans-serif;text-anchor:middle;" transform="matrix(1 0 0 1 2933.4 322)">Black</text>
  <line id="" style="fill:none;stroke:black;opacity:1;stroke-width:0.5;" x1="263" x2="3036" y1="1903" y2="1903"/>
  <g id="" transform="matrix(1 0 0 1 263 1933)">
   <path d="M9.24805 0.830078C13.5547 0.830078 17.1387-2.74414 17.1387-7.05078C17.1387-11.3574 13.5449-14.9316 9.23828-14.9316C4.94141-14.9316 1.36719-11.3574 1.36719-7.05078C1.36719-2.74414 4.95117 0.830078 9.24805 0.830078ZM9.24805-0.654297C5.70312-0.654297 2.87109-3.49609 2.87109-7.05078C2.87109-10.6055 5.69336-13.4473 9.23828-13.4473C12.793-13.4473 15.6348-10.6055 15.6445-7.05078C15.6543-3.49609 12.8027-0.654297 9.24805-0.654297ZM6.39648-6.31836L8.50586-6.31836L8.50586-4.19922C8.50586-3.75977 8.79883-3.45703 9.22852-3.45703C9.67773-3.45703 9.9707-3.75977 9.9707-4.19922L9.9707-6.31836L12.0996-6.31836C12.5391-6.31836 12.8418-6.61133 12.8418-7.04102C12.8418-7.48047 12.5391-7.7832 12.0996-7.7832L9.9707-7.7832L9.9707-9.89258C9.9707-10.3418 9.67773-10.6445 9.22852-10.6445C8.79883-10.6445 8.50586-10.3418 8.50586-9.89258L8.50586-7.7832L6.39648-7.7832C5.94727-7.7832 5.64453-7.48047 5.64453-7.04102C5.64453-6.61133 5.94727-6.31836 6.39648-6.31836Z"/>
  </g>
  <g id="" transform="matrix(1 0 0 1 281.506 1933)">
   <path d="M11.709 2.91016C17.1582 2.91016 21.6699-1.61133 21.6699-7.05078C21.6699-12.5 17.1484-17.0117 11.6992-17.0117C6.25977-17.0117 1.74805-12.5 1.74805-7.05078C1.74805-1.61133 6.26953 2.91016 11.709 2.91016ZM11.709 1.25C7.09961 1.25 3.41797-2.44141 3.41797-7.05078C3.41797-11.6602 7.08984-15.3516 11.6992-15.3516C16.3086-15.3516 20-11.6602 20.0098-7.05078C20.0195-2.44141 16.3184 1.25 11.709 1.25ZM7.98828-6.23047L10.8789-6.23047L10.8789-3.32031C10.8789-2.83203 11.2109-2.5 11.6895-2.5C12.1777-2.5 12.5195-2.83203 12.5195-3.32031L12.5195-6.23047L15.4297-6.23047C15.918-6.23047 16.25-6.5625 16.25-7.04102C16.25-7.5293 15.918-7.87109 15.4297-7.87109L12.5195-7.87109L12.5195-10.7617C12.5195-11.2695 12.1777-11.6016 11.6895-11.6016C11.2109-11.6016 10.8789-11.2598 10.8789-10.7617L10.8789-7.87109L7.98828-7.87109C7.48047-7.87109 7.14844-7.5293 7.14844-7.04102C7.14844-6.5625 7.49023-6.23047 7.98828-6.23047Z"/>
  </g>
  <g id="" transform="matrix(1 0 0 1 304.924 1933)">
   <path d="M14.9707 5.66406C21.9336 5.66406 27.6953-0.0976562 27.6953-7.05078C27.6953-14.0137 21.9238-19.7754 14.9609-19.7754C8.00781-19.7754 2.25586-14.0137 2.25586-7.05078C2.25586-0.0976562 8.01758 5.66406 14.9707 5.66406ZM14.9707 3.84766C8.93555 3.84766 4.08203-1.01562 4.08203-7.05078C4.08203-13.0957 8.92578-17.9492 14.9609-17.9492C21.0059-17.9492 25.8594-13.0957 25.8691-7.05078C25.8789-1.01562 21.0156 3.84766 14.9707 3.84766ZM10.0586-6.14258L14.0625-6.14258L14.0625-2.12891C14.0625-1.5918 14.4336-1.2207 14.9512-1.2207C15.4883-1.2207 15.8594-1.5918 15.8594-2.12891L15.8594-6.14258L19.8828-6.14258C20.4102-6.14258 20.791-6.51367 20.791-7.03125C20.791-7.56836 20.4199-7.94922 19.8828-7.94922L15.8594-7.94922L15.8594-11.9531C15.8594-12.5098 15.4883-12.8809 14.9512-12.8809C14.4336-12.8809 14.0625-12.5 14.0625-11.9531L14.0625-7.94922L10.0586-7.94922C9.50195-7.94922 9.13086-7.56836 9.13086-7.03125C9.13086-6.51367 9.51172-6.14258 10.0586-6.14258Z"/>
  </g>
  <text style="stroke:none;fill:black;font-family:-apple-system,&quot;SF Pro Display&quot;,&quot;SF Pro Text&quot;,Helvetica,sans-serif;font-weight:bold;" transform="matrix(1 0 0 1 263 1953)">Design Variations</text>
  <text style="stroke:none;fill:black;font-family:-apple-system,&quot;SF Pro Display&quot;,&quot;SF Pro Text&quot;,Helvetica,sans-serif;" transform="matrix(1 0 0 1 263 1971)">Symbols are supported in up to nine weights and three scales.</text>
  <text style="stroke:none;fill:black;font-family:-apple-system,&quot;SF Pro Display&quot;,&quot;SF Pro Text&quot;,Helvetica,sans-serif;" transform="matrix(1 0 0 1 263 1989)">For optimal layout with text and other symbols, vertically align</text>
  <text style="stroke:none;fill:black;font-family:-apple-system,&quot;SF Pro Display&quot;,&quot;SF Pro Text&quot;,Helvetica,sans-serif;" transform="matrix(1 0 0 1 263 2007)">symbols with the adjacent text.</text>
  <line id="" style="fill:none;stroke:#00AEEF;stroke-width:0.5;opacity:1.0;" x1="776" x2="776" y1="1919" y2="1933"/>
  <g id="" transform="matrix(1 0 0 1 776 1933)">
   <path d="M3.31055 0.126953C3.82812 0.126953 4.08203-0.0683594 4.26758-0.605469L5.52734-4.0625L11.2891-4.0625L12.5488-0.605469C12.7344-0.0683594 12.9883 0.126953 13.4961 0.126953C14.0137 0.126953 14.3457-0.185547 14.3457-0.673828C14.3457-0.839844 14.3164-0.986328 14.2383-1.20117L9.6582-13.3887C9.43359-13.9941 9.0332-14.2871 8.4082-14.2871C7.80273-14.2871 7.39258-13.9941 7.17773-13.3984L2.59766-1.19141C2.51953-0.976562 2.49023-0.830078 2.49023-0.664062C2.49023-0.175781 2.80273 0.126953 3.31055 0.126953ZM6.00586-5.53711L8.37891-12.1094L8.42773-12.1094L10.8008-5.53711Z"/>
  </g>
  <line id="" style="fill:none;stroke:#00AEEF;stroke-width:0.5;opacity:1.0;" x1="792.836" x2="792.836" y1="1919" y2="1933"/>
  <text style="stroke:none;fill:black;font-family:-apple-system,&quot;SF Pro Display&quot;,&quot;SF Pro Text&quot;,Helvetica,sans-serif;font-weight:bold;" transform="matrix(1 0 0 1 776 1953)">Margins</text>
  <text style="stroke:none;fill:black;font-family:-apple-system,&quot;SF Pro Display&quot;,&quot;SF Pro Text&quot;,Helvetica,sans-serif;" transform="matrix(1 0 0 1 776 1971)">Leading and trailing margins on the left and right side of each symbol</text>
  <text style="stroke:none;fill:black;font-family:-apple-system,&quot;SF Pro Display&quot;,&quot;SF Pro Text&quot;,Helvetica,sans-serif;" transform="matrix(1 0 0 1 776 1989)">can be adjusted by modifying the x-location of the margin guidelines.</text>
  <text style="stroke:none;fill:black;font-family:-apple-system,&quot;SF Pro Display&quot;,&quot;SF Pro Text&quot;,Helvetica,sans-serif;" transform="matrix(1 0 0 1 776 2007)">Modifications are automatically applied proportionally to all</text>
  <text style="stroke:none;fill:black;font-family:-apple-system,&quot;SF Pro Display&quot;,&quot;SF Pro Text&quot;,Helvetica,sans-serif;" transform="matrix(1 0 0 1 776 2025)">scales and weights.</text>
  <g id="" transform="matrix(1 0 0 1 1289 1933)">
   <path d="M2.8418 1.86523L4.54102 3.57422C5.40039 4.44336 6.38672 4.38477 7.31445 3.35938L17.4902-7.85156C17.7539-7.76367 18.0273-7.7832 18.3398-7.8418L19.4043-8.03711L20.0684-7.36328L20.0293-6.80664C19.9902-6.30859 20.1172-5.92773 20.6055-5.44922L21.3672-4.70703C21.8457-4.22852 22.4609-4.19922 22.9297-4.66797L25.8398-7.58789C26.3086-8.05664 26.2891-8.65234 25.8105-9.13086L25.0391-9.89258C24.5605-10.3711 24.1895-10.5273 23.7109-10.4883L23.1348-10.4395L22.4902-11.0742L22.7344-12.1973C22.8613-12.7637 22.7051-13.2031 22.1191-13.7891L19.9219-15.9766C16.582-19.2969 12.1484-19.2188 9.25781-16.3281C8.83789-15.918 8.80859-15.3418 9.04297-14.9512C9.27734-14.5898 9.73633-14.3555 10.3809-14.5215C11.8457-14.8633 13.3691-14.9219 14.7949-13.9844L14.209-12.5293C14.0137-12.0508 13.9844-11.6504 14.1113-11.2891L3.04688-0.898438C2.06055 0.0195312 1.98242 0.996094 2.8418 1.86523ZM10.752-15.957C13.1836-17.7344 16.4746-17.4316 18.7012-15.2051L21.1328-12.793C21.3672-12.5586 21.4062-12.373 21.3379-12.0312L21.0156-10.5469L22.5195-9.0625L23.5059-9.12109C23.7598-9.13086 23.8379-9.11133 24.0332-8.91602L24.6094-8.33984L22.168-5.89844L21.5918-6.47461C21.3965-6.66992 21.3672-6.74805 21.377-7.01172L21.4453-7.98828L19.9512-9.47266L18.4277-9.21875C18.1055-9.15039 17.959-9.17969 17.7148-9.41406L15.7129-11.416C15.459-11.6504 15.4297-11.8164 15.5859-12.1875L16.4648-14.2773C14.9023-15.7324 12.8711-16.3574 10.8398-15.7617C10.6836-15.7227 10.625-15.8496 10.752-15.957ZM5.27344 2.30469L4.10156 1.14258C3.63281 0.683594 3.74023 0.341797 4.14062-0.0195312L14.9512-10.1953L16.416-8.71094L6.42578 2.27539C6.07422 2.67578 5.74219 2.77344 5.27344 2.30469Z"/>
  </g>
  <text style="stroke:none;fill:black;font-family:-apple-system,&quot;SF Pro Display&quot;,&quot;SF Pro Text&quot;,Helvetica,sans-serif;font-weight:bold;" transform="matrix(1 0 0 1 1289 1953)">Exporting</text>
  <text style="stroke:none;fill:black;font-family:-apple-system,&quot;SF Pro Display&quot;,&quot;SF Pro Text&quot;,Helvetica,sans-serif;" transform="matrix(1 0 0 1 1289 1971)">Symbols should be outlined when exporting to ensure the</text>
  <text style="stroke:none;fill:black;font-family:-apple-system,&quot;SF Pro Display&quot;,&quot;SF Pro Text&quot;,Helvetica,sans-serif;" transform="matrix(1 0 0 1 1289 1989)">design is preserved when submitting to Xcode.</text>
  <text id="template-version" style="stroke:none;fill:black;font-family:-apple-system,&quot;SF Pro Display&quot;,&quot;SF Pro Text&quot;,Helvetica,sans-serif;text-anchor:end;" transform="matrix(1 0 0 1 3036 1933)">Template v.2.0</text>
  <text style="stroke:none;fill:black;font-family:-apple-system,&quot;SF Pro Display&quot;,&quot;SF Pro Text&quot;,Helvetica,sans-serif;text-anchor:end;" transform="matrix(1 0 0 1 3036 1951)">Requires Xcode 12 or greater</text>
  <text style="stroke:none;fill:black;font-family:-apple-system,&quot;SF Pro Display&quot;,&quot;SF Pro Text&quot;,Helvetica,sans-serif;" transform="matrix(1 0 0 1 263 726)">Small</text>
  <text style="stroke:none;fill:black;font-family:-apple-system,&quot;SF Pro Display&quot;,&quot;SF Pro Text&quot;,Helvetica,sans-serif;" transform="matrix(1 0 0 1 263 1156)">Medium</text>
  <text style="stroke:none;fill:black;font-family:-apple-system,&quot;SF Pro Display&quot;,&quot;SF Pro Text&quot;,Helvetica,sans-serif;" transform="matrix(1 0 0 1 263 1586)">Large</text>
 </g>
 <g id="Guides">
  <g id="H-reference" style="fill:#27AAE1;stroke:none;" transform="matrix(1 0 0 1 339 696)">
   <path d="M0.976562 0L3.66211 0L12.9883-24.4629L45.752-24.4629L55.127 0L57.7637 0L30.6152-70.459L28.125-70.459ZM29.3457-67.1387L29.4434-67.1387L44.873-26.709L13.8672-26.709Z"/>
  </g>
  <line id="Baseline-S" style="fill:none;stroke:#27AAE1;opacity:1;stroke-width:0.5;" x1="263" x2="3036" y1="696" y2="696"/>
  <line id="Capline-S" style="fill:none;stroke:#27AAE1;opacity:1;stroke-width:0.5;" x1="263" x2="3036" y1="625.541" y2="625.541"/>
  <g id="H-reference" style="fill:#27AAE1;stroke:none;" transform="matrix(1 0 0 1 339 1126)">
   <path d="M0.976562 0L3.66211 0L12.9883-24.4629L45.752-24.4629L55.127 0L57.7637 0L30.6152-70.459L28.125-70.459ZM29.3457-67.1387L29.4434-67.1387L44.873-26.709L13.8672-26.709Z"/>
  </g>
  <line id="Baseline-M" style="fill:none;stroke:#27AAE1;opacity:1;stroke-width:0.5;" x1="263" x2="3036" y1="1126" y2="1126"/>
  <line id="Capline-M" style="fill:none;stroke:#27AAE1;opacity:1;stroke-width:0.5;" x1="263" x2="3036" y1="1055.54" y2="1055.54"/>
  <g id="H-reference" style="fill:#27AAE1;stroke:none;" transform="matrix(1 0 0 1 339 1556)">
   <path d="M0.976562 0L3.66211 0L12.9883-24.4629L45.752-24.4629L55.127 0L57.7637 0L30.6152-70.459L28.125-70.459ZM29.3457-67.1387L29.4434-67.1387L44.873-26.709L13.8672-26.709Z"/>
  </g>
  <line id="Baseline-L" style="fill:none;stroke:#27AAE1;opacity:1;stroke-width:0.5;" x1="263" x2="3036" y1="1556" y2="1556"/>
  <line id="Capline-L" style="fill:none;stroke:#27AAE1;opacity:1;stroke-width:0.5;" x1="263" x2="3036" y1="1485.54" y2="1485.54"/>
  <line id="left-margin" x1="1387.3229109106758" x2="1387.3229109106758" y1="1030.79" y2="1150.12" style="fill:none;stroke:#00AEEF;stroke-width:0.5;opacity:1.0;"/>
  <line id="right-margin" x1="1514.3322825576715" x2="1514.3322825576715" y1="1030.79" y2="1150.12" style="fill:none;stroke:#00AEEF;stroke-width:0.5;opacity:1.0;"/>
 </g>
 <g id="Symbols">
  <g id="Black-L" transform="matrix(1.0,0.0,0.0,1.0,2837.1549467710565,1423.4400164087647)">  <path stroke-linejoin="miter" stroke="none" stroke-dasharray="none" fill="#000000" fill-opacity="1" stroke-linecap="butt" stroke-opacity="1" stroke-miterlimit="4" fill-rule="evenodd" stroke-width="1px" clip-rule="evenodd" d="M141.406,92.211L142.676,115.23C143.24,125.502,122.428,133.879,97.525,133.879C72.622,133.879,51.81,125.502,52.375,115.23L53.644,92.211L94.138,105.396C95.267,105.76,96.396,105.906,97.525,105.906C98.654,105.906,99.783,105.76,100.912,105.396L141.406,92.211ZM178.796,68.608C178.796,69.628,178.161,70.502,177.244,70.867L98.23,96.508C97.948,96.581,97.736,96.581,97.525,96.581C97.314,96.581,97.102,96.581,96.82,96.508L50.822,81.502C46.801,84.78,43.979,92.793,43.415,102.628C46.096,104.231,47.86,107.144,47.86,110.568C47.86,113.846,46.237,116.687,43.768,118.363L47.86,149.905C47.93,150.561,47.718,151.217,47.295,151.726C46.872,152.237,46.237,152.528,45.602,152.528L32.057,152.528C31.422,152.528,30.787,152.237,30.364,151.726C29.94,151.217,29.729,150.561,29.799,149.905L33.891,118.363C31.422,116.687,29.799,113.846,29.799,110.568C29.799,107.071,31.704,104.084,34.385,102.482C34.808,93.959,36.925,84.78,41.299,78.443L17.806,70.867C16.889,70.502,16.254,69.628,16.254,68.608C16.254,67.589,16.889,66.714,17.806,66.35L96.82,40.708C97.102,40.635,97.314,40.635,97.525,40.635C97.736,40.635,97.948,40.635,98.23,40.708L177.244,66.35C178.161,66.714,178.796,67.589,178.796,68.608ZM178.796,68.608"/>
</g>
  <g id="Heavy-L" transform="matrix(1.0,0.0,0.0,1.0,2540.4449467710565,1423.4400164087647)">  <path fill="#000000" fill-opacity="1" stroke-linecap="butt" stroke-dasharray="none" stroke-width="1px" stroke="none" stroke-linejoin="miter" stroke-opacity="1" clip-rule="evenodd" fill-rule="evenodd" stroke-miterlimit="4" d="M141.406,92.211L142.676,115.23C143.24,125.502,122.428,133.879,97.525,133.879C72.622,133.879,51.81,125.502,52.375,115.23L53.644,92.211L94.138,105.396C95.267,105.76,96.396,105.906,97.525,105.906C98.654,105.906,99.783,105.76,100.912,105.396L141.406,92.211ZM178.796,68.608C178.796,69.628,178.161,70.502,177.244,70.867L98.23,96.508C97.948,96.581,97.736,96.581,97.525,96.581C97.314,96.581,97.102,96.581,96.82,96.508L50.822,81.502C46.801,84.78,43.979,92.793,43.415,102.628C46.096,104.231,47.86,107.144,47.86,110.568C47.86,113.846,46.237,116.687,43.768,118.363L47.86,149.905C47.93,150.561,47.718,151.217,47.295,151.726C46.872,152.237,46.237,152.528,45.602,152.528L32.057,152.528C31.422,152.528,30.787,152.237,30.364,151.726C29.94,151.217,29.729,150.561,29.799,149.905L33.891,118.363C31.422,116.687,29.799,113.846,29.799,110.568C29.799,107.071,31.704,104.084,34.385,102.482C34.808,93.959,36.925,84.78,41.299,78.443L17.806,70.867C16.889,70.502,16.254,69.628,16.254,68.608C16.254,67.589,16.889,66.714,17.806,66.35L96.82,40.708C97.102,40.635,97.314,40.635,97.525,40.635C97.736,40.635,97.948,40.635,98.23,40.708L177.244,66.35C178.161,66.714,178.796,67.589,178.796,68.608ZM178.796,68.608"/>
</g>
  <g id="Bold-L" transform="matrix(1.0,0.0,0.0,1.0,2243.7349467710565,1423.4400164087647)">  <path fill-opacity="1" clip-rule="evenodd" stroke-opacity="1" fill-rule="evenodd" stroke-linejoin="miter" stroke="none" stroke-width="1px" fill="#000000" stroke-linecap="butt" stroke-miterlimit="4" stroke-dasharray="none" d="M141.406,92.211L142.676,115.23C143.24,125.502,122.428,133.879,97.525,133.879C72.622,133.879,51.81,125.502,52.375,115.23L53.644,92.211L94.138,105.396C95.267,105.76,96.396,105.906,97.525,105.906C98.654,105.906,99.783,105.76,100.912,105.396L141.406,92.211ZM178.796,68.608C178.796,69.628,178.161,70.502,177.244,70.867L98.23,96.508C97.948,96.581,97.736,96.581,97.525,96.581C97.314,96.581,97.102,96.581,96.82,96.508L50.822,81.502C46.801,84.78,43.979,92.793,43.415,102.628C46.096,104.231,47.86,107.144,47.86,110.568C47.86,113.846,46.237,116.687,43.768,118.363L47.86,149.905C47.93,150.561,47.718,151.217,47.295,151.726C46.872,152.237,46.237,152.528,45.602,152.528L32.057,152.528C31.422,152.528,30.787,152.237,30.364,151.726C29.94,151.217,29.729,150.561,29.799,149.905L33.891,118.363C31.422,116.687,29.799,113.846,29.799,110.568C29.799,107.071,31.704,104.084,34.385,102.482C34.808,93.959,36.925,84.78,41.299,78.443L17.806,70.867C16.889,70.502,16.254,69.628,16.254,68.608C16.254,67.589,16.889,66.714,17.806,66.35L96.82,40.708C97.102,40.635,97.314,40.635,97.525,40.635C97.736,40.635,97.948,40.635,98.23,40.708L177.244,66.35C178.161,66.714,178.796,67.589,178.796,68.608ZM178.796,68.608"/>
</g>
  <g id="Semibold-L" transform="matrix(1.0,0.0,0.0,1.0,1947.0249467710569,1423.4400164087647)">  <path fill="#000000" clip-rule="evenodd" fill-rule="evenodd" stroke-linecap="butt" stroke-linejoin="miter" fill-opacity="1" stroke-opacity="1" stroke="none" stroke-width="1px" stroke-dasharray="none" stroke-miterlimit="4" d="M141.406,92.211L142.676,115.23C143.24,125.502,122.428,133.879,97.525,133.879C72.622,133.879,51.81,125.502,52.375,115.23L53.644,92.211L94.138,105.396C95.267,105.76,96.396,105.906,97.525,105.906C98.654,105.906,99.783,105.76,100.912,105.396L141.406,92.211ZM178.796,68.608C178.796,69.628,178.161,70.502,177.244,70.867L98.23,96.508C97.948,96.581,97.736,96.581,97.525,96.581C97.314,96.581,97.102,96.581,96.82,96.508L50.822,81.502C46.801,84.78,43.979,92.793,43.415,102.628C46.096,104.231,47.86,107.144,47.86,110.568C47.86,113.846,46.237,116.687,43.768,118.363L47.86,149.905C47.93,150.561,47.718,151.217,47.295,151.726C46.872,152.237,46.237,152.528,45.602,152.528L32.057,152.528C31.422,152.528,30.787,152.237,30.364,151.726C29.94,151.217,29.729,150.561,29.799,149.905L33.891,118.363C31.422,116.687,29.799,113.846,29.799,110.568C29.799,107.071,31.704,104.084,34.385,102.482C34.808,93.959,36.925,84.78,41.299,78.443L17.806,70.867C16.889,70.502,16.254,69.628,16.254,68.608C16.254,67.589,16.889,66.714,17.806,66.35L96.82,40.708C97.102,40.635,97.314,40.635,97.525,40.635C97.736,40.635,97.948,40.635,98.23,40.708L177.244,66.35C178.161,66.714,178.796,67.589,178.796,68.608ZM178.796,68.608"/>
</g>
  <g id="Medium-L" transform="matrix(1.0,0.0,0.0,1.0,1650.3149467710568,1423.4400164087647)">  <path stroke-dasharray="none" stroke-linejoin="miter" clip-rule="evenodd" fill-rule="evenodd" stroke-opacity="1" stroke-width="1px" stroke="none" stroke-miterlimit="4" fill="#000000" fill-opacity="1" stroke-linecap="butt" d="M141.406,92.211L142.676,115.23C143.24,125.502,122.428,133.879,97.525,133.879C72.622,133.879,51.81,125.502,52.375,115.23L53.644,92.211L94.138,105.396C95.267,105.76,96.396,105.906,97.525,105.906C98.654,105.906,99.783,105.76,100.912,105.396L141.406,92.211ZM178.796,68.608C178.796,69.628,178.161,70.502,177.244,70.867L98.23,96.508C97.948,96.581,97.736,96.581,97.525,96.581C97.314,96.581,97.102,96.581,96.82,96.508L50.822,81.502C46.801,84.78,43.979,92.793,43.415,102.628C46.096,104.231,47.86,107.144,47.86,110.568C47.86,113.846,46.237,116.687,43.768,118.363L47.86,149.905C47.93,150.561,47.718,151.217,47.295,151.726C46.872,152.237,46.237,152.528,45.602,152.528L32.057,152.528C31.422,152.528,30.787,152.237,30.364,151.726C29.94,151.217,29.729,150.561,29.799,149.905L33.891,118.363C31.422,116.687,29.799,113.846,29.799,110.568C29.799,107.071,31.704,104.084,34.385,102.482C34.808,93.959,36.925,84.78,41.299,78.443L17.806,70.867C16.889,70.502,16.254,69.628,16.254,68.608C16.254,67.589,16.889,66.714,17.806,66.35L96.82,40.708C97.102,40.635,97.314,40.635,97.525,40.635C97.736,40.635,97.948,40.635,98.23,40.708L177.244,66.35C178.161,66.714,178.796,67.589,178.796,68.608ZM178.796,68.608"/>
</g>
  <g id="Regular-L" transform="matrix(1.0,0.0,0.0,1.0,1353.6049467710568,1423.4400164087647)">  <path fill-rule="evenodd" stroke-miterlimit="4" stroke-dasharray="none" stroke-linecap="butt" stroke-linejoin="miter" fill-opacity="1" stroke-width="1px" fill="#000000" stroke-opacity="1" clip-rule="evenodd" stroke="none" d="M141.406,92.211L142.676,115.23C143.24,125.502,122.428,133.879,97.525,133.879C72.622,133.879,51.81,125.502,52.375,115.23L53.644,92.211L94.138,105.396C95.267,105.76,96.396,105.906,97.525,105.906C98.654,105.906,99.783,105.76,100.912,105.396L141.406,92.211ZM178.796,68.608C178.796,69.628,178.161,70.502,177.244,70.867L98.23,96.508C97.948,96.581,97.736,96.581,97.525,96.581C97.314,96.581,97.102,96.581,96.82,96.508L50.822,81.502C46.801,84.78,43.979,92.793,43.415,102.628C46.096,104.231,47.86,107.144,47.86,110.568C47.86,113.846,46.237,116.687,43.768,118.363L47.86,149.905C47.93,150.561,47.718,151.217,47.295,151.726C46.872,152.237,46.237,152.528,45.602,152.528L32.057,152.528C31.422,152.528,30.787,152.237,30.364,151.726C29.94,151.217,29.729,150.561,29.799,149.905L33.891,118.363C31.422,116.687,29.799,113.846,29.799,110.568C29.799,107.071,31.704,104.084,34.385,102.482C34.808,93.959,36.925,84.78,41.299,78.443L17.806,70.867C16.889,70.502,16.254,69.628,16.254,68.608C16.254,67.589,16.889,66.714,17.806,66.35L96.82,40.708C97.102,40.635,97.314,40.635,97.525,40.635C97.736,40.635,97.948,40.635,98.23,40.708L177.244,66.35C178.161,66.714,178.796,67.589,178.796,68.608ZM178.796,68.608"/>
</g>
  <g id="Light-L" transform="matrix(1.0,0.0,0.0,1.0,1056.894946771057,1423.4400164087647)">  <path fill="#000000" clip-rule="evenodd" fill-rule="evenodd" stroke-dasharray="none" stroke-width="1px" stroke-linejoin="miter" stroke-opacity="1" stroke-miterlimit="4" stroke-linecap="butt" fill-opacity="1" stroke="none" d="M141.406,92.211L142.676,115.23C143.24,125.502,122.428,133.879,97.525,133.879C72.622,133.879,51.81,125.502,52.375,115.23L53.644,92.211L94.138,105.396C95.267,105.76,96.396,105.906,97.525,105.906C98.654,105.906,99.783,105.76,100.912,105.396L141.406,92.211ZM178.796,68.608C178.796,69.628,178.161,70.502,177.244,70.867L98.23,96.508C97.948,96.581,97.736,96.581,97.525,96.581C97.314,96.581,97.102,96.581,96.82,96.508L50.822,81.502C46.801,84.78,43.979,92.793,43.415,102.628C46.096,104.231,47.86,107.144,47.86,110.568C47.86,113.846,46.237,116.687,43.768,118.363L47.86,149.905C47.93,150.561,47.718,151.217,47.295,151.726C46.872,152.237,46.237,152.528,45.602,152.528L32.057,152.528C31.422,152.528,30.787,152.237,30.364,151.726C29.94,151.217,29.729,150.561,29.799,149.905L33.891,118.363C31.422,116.687,29.799,113.846,29.799,110.568C29.799,107.071,31.704,104.084,34.385,102.482C34.808,93.959,36.925,84.78,41.299,78.443L17.806,70.867C16.889,70.502,16.254,69.628,16.254,68.608C16.254,67.589,16.889,66.714,17.806,66.35L96.82,40.708C97.102,40.635,97.314,40.635,97.525,40.635C97.736,40.635,97.948,40.635,98.23,40.708L177.244,66.35C178.161,66.714,178.796,67.589,178.796,68.608ZM178.796,68.608"/>
</g>
  <g id="Thin-L" transform="matrix(1.0,0.0,0.0,1.0,760.184946771057,1423.4400164087647)">  <path stroke-linecap="butt" fill-rule="evenodd" fill-opacity="1" clip-rule="evenodd" stroke-opacity="1" stroke-linejoin="miter" fill="#000000" stroke-miterlimit="4" stroke="none" stroke-width="1px" stroke-dasharray="none" d="M141.406,92.211L142.676,115.23C143.24,125.502,122.428,133.879,97.525,133.879C72.622,133.879,51.81,125.502,52.375,115.23L53.644,92.211L94.138,105.396C95.267,105.76,96.396,105.906,97.525,105.906C98.654,105.906,99.783,105.76,100.912,105.396L141.406,92.211ZM178.796,68.608C178.796,69.628,178.161,70.502,177.244,70.867L98.23,96.508C97.948,96.581,97.736,96.581,97.525,96.581C97.314,96.581,97.102,96.581,96.82,96.508L50.822,81.502C46.801,84.78,43.979,92.793,43.415,102.628C46.096,104.231,47.86,107.144,47.86,110.568C47.86,113.846,46.237,116.687,43.768,118.363L47.86,149.905C47.93,150.561,47.718,151.217,47.295,151.726C46.872,152.237,46.237,152.528,45.602,152.528L32.057,152.528C31.422,152.528,30.787,152.237,30.364,151.726C29.94,151.217,29.729,150.561,29.799,149.905L33.891,118.363C31.422,116.687,29.799,113.846,29.799,110.568C29.799,107.071,31.704,104.084,34.385,102.482C34.808,93.959,36.925,84.78,41.299,78.443L17.806,70.867C16.889,70.502,16.254,69.628,16.254,68.608C16.254,67.589,16.889,66.714,17.806,66.35L96.82,40.708C97.102,40.635,97.314,40.635,97.525,40.635C97.736,40.635,97.948,40.635,98.23,40.708L177.244,66.35C178.161,66.714,178.796,67.589,178.796,68.608ZM178.796,68.608"/>
</g>
  <g id="Ultralight-L" transform="matrix(1.0,0.0,0.0,1.0,463.47494677105686,1423.4400164087647)">  <path fill-opacity="1" clip-rule="evenodd" stroke-linejoin="miter" stroke-linecap="butt" fill-rule="evenodd" stroke-opacity="1" fill="#000000" stroke="none" stroke-dasharray="none" stroke-miterlimit="4" stroke-width="1px" d="M141.406,92.211L142.676,115.23C143.24,125.502,122.428,133.879,97.525,133.879C72.622,133.879,51.81,125.502,52.375,115.23L53.644,92.211L94.138,105.396C95.267,105.76,96.396,105.906,97.525,105.906C98.654,105.906,99.783,105.76,100.912,105.396L141.406,92.211ZM178.796,68.608C178.796,69.628,178.161,70.502,177.244,70.867L98.23,96.508C97.948,96.581,97.736,96.581,97.525,96.581C97.314,96.581,97.102,96.581,96.82,96.508L50.822,81.502C46.801,84.78,43.979,92.793,43.415,102.628C46.096,104.231,47.86,107.144,47.86,110.568C47.86,113.846,46.237,116.687,43.768,118.363L47.86,149.905C47.93,150.561,47.718,151.217,47.295,151.726C46.872,152.237,46.237,152.528,45.602,152.528L32.057,152.528C31.422,152.528,30.787,152.237,30.364,151.726C29.94,151.217,29.729,150.561,29.799,149.905L33.891,118.363C31.422,116.687,29.799,113.846,29.799,110.568C29.799,107.071,31.704,104.084,34.385,102.482C34.808,93.959,36.925,84.78,41.299,78.443L17.806,70.867C16.889,70.502,16.254,69.628,16.254,68.608C16.254,67.589,16.889,66.714,17.806,66.35L96.82,40.708C97.102,40.635,97.314,40.635,97.525,40.635C97.736,40.635,97.948,40.635,98.23,40.708L177.244,66.35C178.161,66.714,178.796,67.589,178.796,68.608ZM178.796,68.608"/>
</g>
  <g id="Black-M" transform="matrix(1.0,0.0,0.0,1.0,2859.0791835434547,1015.320404707618)">  <path stroke-linejoin="miter" stroke="none" stroke-dasharray="none" fill="#000000" fill-opacity="1" stroke-linecap="butt" stroke-opacity="1" stroke-miterlimit="4" fill-rule="evenodd" stroke-width="1px" clip-rule="evenodd" d="M109.617,71.481L110.601,89.326C111.039,97.288,94.905,103.782,75.601,103.782C56.296,103.782,40.163,97.288,40.6,89.326L41.585,71.481L72.976,81.702C73.851,81.985,74.726,82.097,75.601,82.097C76.476,82.097,77.351,81.985,78.226,81.702L109.617,71.481ZM138.601,53.185C138.601,53.975,138.109,54.653,137.398,54.935L76.148,74.813C75.929,74.869,75.765,74.869,75.601,74.869C75.437,74.869,75.273,74.869,75.054,74.813L39.397,63.18C36.28,65.721,34.093,71.933,33.655,79.557C35.733,80.799,37.1,83.058,37.1,85.712C37.1,88.253,35.843,90.455,33.929,91.754L37.1,116.205C37.155,116.714,36.991,117.222,36.663,117.617C36.335,118.013,35.843,118.238,35.35,118.238L24.85,118.238C24.358,118.238,23.866,118.013,23.538,117.617C23.21,117.222,23.046,116.714,23.1,116.205L26.272,91.754C24.358,90.455,23.1,88.253,23.1,85.712C23.1,83.001,24.577,80.686,26.655,79.443C26.983,72.836,28.624,65.721,32.014,60.808L13.803,54.935C13.092,54.653,12.6,53.975,12.6,53.185C12.6,52.394,13.092,51.717,13.803,51.434L75.054,31.557C75.273,31.5,75.437,31.5,75.601,31.5C75.765,31.5,75.929,31.5,76.148,31.557L137.398,51.434C138.109,51.717,138.601,52.394,138.601,53.185ZM138.601,53.185"/>
</g>
  <g id="Heavy-M" transform="matrix(1.0,0.0,0.0,1.0,2562.3691835434547,1015.320404707618)">  <path fill="#000000" fill-opacity="1" stroke-linecap="butt" stroke-dasharray="none" stroke-width="1px" stroke="none" stroke-linejoin="miter" stroke-opacity="1" clip-rule="evenodd" fill-rule="evenodd" stroke-miterlimit="4" d="M109.617,71.481L110.601,89.326C111.039,97.288,94.905,103.782,75.601,103.782C56.296,103.782,40.163,97.288,40.6,89.326L41.585,71.481L72.976,81.702C73.851,81.985,74.726,82.097,75.601,82.097C76.476,82.097,77.351,81.985,78.226,81.702L109.617,71.481ZM138.601,53.185C138.601,53.975,138.109,54.653,137.398,54.935L76.148,74.813C75.929,74.869,75.765,74.869,75.601,74.869C75.437,74.869,75.273,74.869,75.054,74.813L39.397,63.18C36.28,65.721,34.093,71.933,33.655,79.557C35.733,80.799,37.1,83.058,37.1,85.712C37.1,88.253,35.843,90.455,33.929,91.754L37.1,116.205C37.155,116.714,36.991,117.222,36.663,117.617C36.335,118.013,35.843,118.238,35.35,118.238L24.85,118.238C24.358,118.238,23.866,118.013,23.538,117.617C23.21,117.222,23.046,116.714,23.1,116.205L26.272,91.754C24.358,90.455,23.1,88.253,23.1,85.712C23.1,83.001,24.577,80.686,26.655,79.443C26.983,72.836,28.624,65.721,32.014,60.808L13.803,54.935C13.092,54.653,12.6,53.975,12.6,53.185C12.6,52.394,13.092,51.717,13.803,51.434L75.054,31.557C75.273,31.5,75.437,31.5,75.601,31.5C75.765,31.5,75.929,31.5,76.148,31.557L137.398,51.434C138.109,51.717,138.601,52.394,138.601,53.185ZM138.601,53.185"/>
</g>
  <g id="Bold-M" transform="matrix(1.0,0.0,0.0,1.0,2265.6591835434547,1015.320404707618)">  <path fill-opacity="1" clip-rule="evenodd" stroke-opacity="1" fill-rule="evenodd" stroke-linejoin="miter" stroke="none" stroke-width="1px" fill="#000000" stroke-linecap="butt" stroke-miterlimit="4" stroke-dasharray="none" d="M109.617,71.481L110.601,89.326C111.039,97.288,94.905,103.782,75.601,103.782C56.296,103.782,40.163,97.288,40.6,89.326L41.585,71.481L72.976,81.702C73.851,81.985,74.726,82.097,75.601,82.097C76.476,82.097,77.351,81.985,78.226,81.702L109.617,71.481ZM138.601,53.185C138.601,53.975,138.109,54.653,137.398,54.935L76.148,74.813C75.929,74.869,75.765,74.869,75.601,74.869C75.437,74.869,75.273,74.869,75.054,74.813L39.397,63.18C36.28,65.721,34.093,71.933,33.655,79.557C35.733,80.799,37.1,83.058,37.1,85.712C37.1,88.253,35.843,90.455,33.929,91.754L37.1,116.205C37.155,116.714,36.991,117.222,36.663,117.617C36.335,118.013,35.843,118.238,35.35,118.238L24.85,118.238C24.358,118.238,23.866,118.013,23.538,117.617C23.21,117.222,23.046,116.714,23.1,116.205L26.272,91.754C24.358,90.455,23.1,88.253,23.1,85.712C23.1,83.001,24.577,80.686,26.655,79.443C26.983,72.836,28.624,65.721,32.014,60.808L13.803,54.935C13.092,54.653,12.6,53.975,12.6,53.185C12.6,52.394,13.092,51.717,13.803,51.434L75.054,31.557C75.273,31.5,75.437,31.5,75.601,31.5C75.765,31.5,75.929,31.5,76.148,31.557L137.398,51.434C138.109,51.717,138.601,52.394,138.601,53.185ZM138.601,53.185"/>
</g>
  <g id="Semibold-M" transform="matrix(1.0,0.0,0.0,1.0,1968.9491835434549,1015.320404707618)">  <path fill="#000000" clip-rule="evenodd" fill-rule="evenodd" stroke-linecap="butt" stroke-linejoin="miter" fill-opacity="1" stroke-opacity="1" stroke="none" stroke-width="1px" stroke-dasharray="none" stroke-miterlimit="4" d="M109.617,71.481L110.601,89.326C111.039,97.288,94.905,103.782,75.601,103.782C56.296,103.782,40.163,97.288,40.6,89.326L41.585,71.481L72.976,81.702C73.851,81.985,74.726,82.097,75.601,82.097C76.476,82.097,77.351,81.985,78.226,81.702L109.617,71.481ZM138.601,53.185C138.601,53.975,138.109,54.653,137.398,54.935L76.148,74.813C75.929,74.869,75.765,74.869,75.601,74.869C75.437,74.869,75.273,74.869,75.054,74.813L39.397,63.18C36.28,65.721,34.093,71.933,33.655,79.557C35.733,80.799,37.1,83.058,37.1,85.712C37.1,88.253,35.843,90.455,33.929,91.754L37.1,116.205C37.155,116.714,36.991,117.222,36.663,117.617C36.335,118.013,35.843,118.238,35.35,118.238L24.85,118.238C24.358,118.238,23.866,118.013,23.538,117.617C23.21,117.222,23.046,116.714,23.1,116.205L26.272,91.754C24.358,90.455,23.1,88.253,23.1,85.712C23.1,83.001,24.577,80.686,26.655,79.443C26.983,72.836,28.624,65.721,32.014,60.808L13.803,54.935C13.092,54.653,12.6,53.975,12.6,53.185C12.6,52.394,13.092,51.717,13.803,51.434L75.054,31.557C75.273,31.5,75.437,31.5,75.601,31.5C75.765,31.5,75.929,31.5,76.148,31.557L137.398,51.434C138.109,51.717,138.601,52.394,138.601,53.185ZM138.601,53.185"/>
</g>
  <g id="Medium-M" transform="matrix(1.0,0.0,0.0,1.0,1672.2391835434548,1015.320404707618)">  <path stroke-dasharray="none" stroke-linejoin="miter" clip-rule="evenodd" fill-rule="evenodd" stroke-opacity="1" stroke-width="1px" stroke="none" stroke-miterlimit="4" fill="#000000" fill-opacity="1" stroke-linecap="butt" d="M109.617,71.481L110.601,89.326C111.039,97.288,94.905,103.782,75.601,103.782C56.296,103.782,40.163,97.288,40.6,89.326L41.585,71.481L72.976,81.702C73.851,81.985,74.726,82.097,75.601,82.097C76.476,82.097,77.351,81.985,78.226,81.702L109.617,71.481ZM138.601,53.185C138.601,53.975,138.109,54.653,137.398,54.935L76.148,74.813C75.929,74.869,75.765,74.869,75.601,74.869C75.437,74.869,75.273,74.869,75.054,74.813L39.397,63.18C36.28,65.721,34.093,71.933,33.655,79.557C35.733,80.799,37.1,83.058,37.1,85.712C37.1,88.253,35.843,90.455,33.929,91.754L37.1,116.205C37.155,116.714,36.991,117.222,36.663,117.617C36.335,118.013,35.843,118.238,35.35,118.238L24.85,118.238C24.358,118.238,23.866,118.013,23.538,117.617C23.21,117.222,23.046,116.714,23.1,116.205L26.272,91.754C24.358,90.455,23.1,88.253,23.1,85.712C23.1,83.001,24.577,80.686,26.655,79.443C26.983,72.836,28.624,65.721,32.014,60.808L13.803,54.935C13.092,54.653,12.6,53.975,12.6,53.185C12.6,52.394,13.092,51.717,13.803,51.434L75.054,31.557C75.273,31.5,75.437,31.5,75.601,31.5C75.765,31.5,75.929,31.5,76.148,31.557L137.398,51.434C138.109,51.717,138.601,52.394,138.601,53.185ZM138.601,53.185"/>
</g>
  <g id="Regular-M" transform="matrix(1.0,0.0,0.0,1.0,1375.5291835434548,1015.320404707618)">  <path fill-rule="evenodd" stroke-miterlimit="4" stroke-dasharray="none" stroke-linecap="butt" stroke-linejoin="miter" fill-opacity="1" stroke-width="1px" fill="#000000" stroke-opacity="1" clip-rule="evenodd" stroke="none" d="M109.617,71.481L110.601,89.326C111.039,97.288,94.905,103.782,75.601,103.782C56.296,103.782,40.163,97.288,40.6,89.326L41.585,71.481L72.976,81.702C73.851,81.985,74.726,82.097,75.601,82.097C76.476,82.097,77.351,81.985,78.226,81.702L109.617,71.481ZM138.601,53.185C138.601,53.975,138.109,54.653,137.398,54.935L76.148,74.813C75.929,74.869,75.765,74.869,75.601,74.869C75.437,74.869,75.273,74.869,75.054,74.813L39.397,63.18C36.28,65.721,34.093,71.933,33.655,79.557C35.733,80.799,37.1,83.058,37.1,85.712C37.1,88.253,35.843,90.455,33.929,91.754L37.1,116.205C37.155,116.714,36.991,117.222,36.663,117.617C36.335,118.013,35.843,118.238,35.35,118.238L24.85,118.238C24.358,118.238,23.866,118.013,23.538,117.617C23.21,117.222,23.046,116.714,23.1,116.205L26.272,91.754C24.358,90.455,23.1,88.253,23.1,85.712C23.1,83.001,24.577,80.686,26.655,79.443C26.983,72.836,28.624,65.721,32.014,60.808L13.803,54.935C13.092,54.653,12.6,53.975,12.6,53.185C12.6,52.394,13.092,51.717,13.803,51.434L75.054,31.557C75.273,31.5,75.437,31.5,75.601,31.5C75.765,31.5,75.929,31.5,76.148,31.557L137.398,51.434C138.109,51.717,138.601,52.394,138.601,53.185ZM138.601,53.185"/>
</g>
  <g id="Light-M" transform="matrix(1.0,0.0,0.0,1.0,1078.819183543455,1015.320404707618)">  <path fill="#000000" clip-rule="evenodd" fill-rule="evenodd" stroke-dasharray="none" stroke-width="1px" stroke-linejoin="miter" stroke-opacity="1" stroke-miterlimit="4" stroke-linecap="butt" fill-opacity="1" stroke="none" d="M109.617,71.481L110.601,89.326C111.039,97.288,94.905,103.782,75.601,103.782C56.296,103.782,40.163,97.288,40.6,89.326L41.585,71.481L72.976,81.702C73.851,81.985,74.726,82.097,75.601,82.097C76.476,82.097,77.351,81.985,78.226,81.702L109.617,71.481ZM138.601,53.185C138.601,53.975,138.109,54.653,137.398,54.935L76.148,74.813C75.929,74.869,75.765,74.869,75.601,74.869C75.437,74.869,75.273,74.869,75.054,74.813L39.397,63.18C36.28,65.721,34.093,71.933,33.655,79.557C35.733,80.799,37.1,83.058,37.1,85.712C37.1,88.253,35.843,90.455,33.929,91.754L37.1,116.205C37.155,116.714,36.991,117.222,36.663,117.617C36.335,118.013,35.843,118.238,35.35,118.238L24.85,118.238C24.358,118.238,23.866,118.013,23.538,117.617C23.21,117.222,23.046,116.714,23.1,116.205L26.272,91.754C24.358,90.455,23.1,88.253,23.1,85.712C23.1,83.001,24.577,80.686,26.655,79.443C26.983,72.836,28.624,65.721,32.014,60.808L13.803,54.935C13.092,54.653,12.6,53.975,12.6,53.185C12.6,52.394,13.092,51.717,13.803,51.434L75.054,31.557C75.273,31.5,75.437,31.5,75.601,31.5C75.765,31.5,75.929,31.5,76.148,31.557L137.398,51.434C138.109,51.717,138.601,52.394,138.601,53.185ZM138.601,53.185"/>
</g>
  <g id="Thin-M" transform="matrix(1.0,0.0,0.0,1.0,782.109183543455,1015.320404707618)">  <path stroke-linecap="butt" fill-rule="evenodd" fill-opacity="1" clip-rule="evenodd" stroke-opacity="1" stroke-linejoin="miter" fill="#000000" stroke-miterlimit="4" stroke="none" stroke-width="1px" stroke-dasharray="none" d="M109.617,71.481L110.601,89.326C111.039,97.288,94.905,103.782,75.601,103.782C56.296,103.782,40.163,97.288,40.6,89.326L41.585,71.481L72.976,81.702C73.851,81.985,74.726,82.097,75.601,82.097C76.476,82.097,77.351,81.985,78.226,81.702L109.617,71.481ZM138.601,53.185C138.601,53.975,138.109,54.653,137.398,54.935L76.148,74.813C75.929,74.869,75.765,74.869,75.601,74.869C75.437,74.869,75.273,74.869,75.054,74.813L39.397,63.18C36.28,65.721,34.093,71.933,33.655,79.557C35.733,80.799,37.1,83.058,37.1,85.712C37.1,88.253,35.843,90.455,33.929,91.754L37.1,116.205C37.155,116.714,36.991,117.222,36.663,117.617C36.335,118.013,35.843,118.238,35.35,118.238L24.85,118.238C24.358,118.238,23.866,118.013,23.538,117.617C23.21,117.222,23.046,116.714,23.1,116.205L26.272,91.754C24.358,90.455,23.1,88.253,23.1,85.712C23.1,83.001,24.577,80.686,26.655,79.443C26.983,72.836,28.624,65.721,32.014,60.808L13.803,54.935C13.092,54.653,12.6,53.975,12.6,53.185C12.6,52.394,13.092,51.717,13.803,51.434L75.054,31.557C75.273,31.5,75.437,31.5,75.601,31.5C75.765,31.5,75.929,31.5,76.148,31.557L137.398,51.434C138.109,51.717,138.601,52.394,138.601,53.185ZM138.601,53.185"/>
</g>
  <g id="Ultralight-M" transform="matrix(1.0,0.0,0.0,1.0,485.3991835434549,1015.320404707618)">  <path fill-opacity="1" clip-rule="evenodd" stroke-linejoin="miter" stroke-linecap="butt" fill-rule="evenodd" stroke-opacity="1" fill="#000000" stroke="none" stroke-dasharray="none" stroke-miterlimit="4" stroke-width="1px" d="M109.617,71.481L110.601,89.326C111.039,97.288,94.905,103.782,75.601,103.782C56.296,103.782,40.163,97.288,40.6,89.326L41.585,71.481L72.976,81.702C73.851,81.985,74.726,82.097,75.601,82.097C76.476,82.097,77.351,81.985,78.226,81.702L109.617,71.481ZM138.601,53.185C138.601,53.975,138.109,54.653,137.398,54.935L76.148,74.813C75.929,74.869,75.765,74.869,75.601,74.869C75.437,74.869,75.273,74.869,75.054,74.813L39.397,63.18C36.28,65.721,34.093,71.933,33.655,79.557C35.733,80.799,37.1,83.058,37.1,85.712C37.1,88.253,35.843,90.455,33.929,91.754L37.1,116.205C37.155,116.714,36.991,117.222,36.663,117.617C36.335,118.013,35.843,118.238,35.35,118.238L24.85,118.238C24.358,118.238,23.866,118.013,23.538,117.617C23.21,117.222,23.046,116.714,23.1,116.205L26.272,91.754C24.358,90.455,23.1,88.253,23.1,85.712C23.1,83.001,24.577,80.686,26.655,79.443C26.983,72.836,28.624,65.721,32.014,60.808L13.803,54.935C13.092,54.653,12.6,53.975,12.6,53.185C12.6,52.394,13.092,51.717,13.803,51.434L75.054,31.557C75.273,31.5,75.437,31.5,75.601,31.5C75.765,31.5,75.929,31.5,76.148,31.557L137.398,51.434C138.109,51.717,138.601,52.394,138.601,53.185ZM138.601,53.185"/>
</g>
  <g id="Black-S" transform="matrix(1.0,0.0,0.0,1.0,2875.484560714525,601.6929711243462)">  <path stroke-linejoin="miter" stroke="none" stroke-dasharray="none" fill="#000000" fill-opacity="1" stroke-linecap="butt" stroke-opacity="1" stroke-miterlimit="4" fill-rule="evenodd" stroke-width="1px" clip-rule="evenodd" d="M85.83,55.97L86.601,69.942C86.943,76.177,74.311,81.262,59.195,81.262C44.08,81.262,31.448,76.177,31.79,69.942L32.561,55.97L57.14,63.973C57.825,64.194,58.51,64.282,59.195,64.282C59.881,64.282,60.566,64.194,61.251,63.973L85.83,55.97ZM108.525,41.644C108.525,42.263,108.14,42.793,107.583,43.014L59.624,58.578C59.452,58.623,59.324,58.623,59.195,58.623C59.067,58.623,58.938,58.623,58.767,58.578L30.848,49.47C28.407,51.46,26.694,56.323,26.352,62.293C27.979,63.266,29.05,65.034,29.05,67.112C29.05,69.102,28.065,70.826,26.566,71.844L29.05,90.989C29.092,91.387,28.964,91.785,28.707,92.094C28.45,92.404,28.065,92.581,27.679,92.581L19.458,92.581C19.072,92.581,18.687,92.404,18.43,92.094C18.173,91.785,18.045,91.387,18.088,90.989L20.571,71.844C19.072,70.826,18.088,69.102,18.088,67.112C18.088,64.99,19.244,63.177,20.871,62.204C21.128,57.031,22.412,51.46,25.067,47.613L10.808,43.014C10.251,42.793,9.866,42.263,9.866,41.644C9.866,41.025,10.251,40.494,10.808,40.273L58.767,24.709C58.938,24.665,59.067,24.665,59.195,24.665C59.324,24.665,59.452,24.665,59.624,24.709L107.583,40.273C108.14,40.494,108.525,41.025,108.525,41.644ZM108.525,41.644"/>
</g>
  <g id="Heavy-S" transform="matrix(1.0,0.0,0.0,1.0,2578.774560714525,601.6929711243462)">  <path fill="#000000" fill-opacity="1" stroke-linecap="butt" stroke-dasharray="none" stroke-width="1px" stroke="none" stroke-linejoin="miter" stroke-opacity="1" clip-rule="evenodd" fill-rule="evenodd" stroke-miterlimit="4" d="M85.83,55.97L86.601,69.942C86.943,76.177,74.311,81.262,59.195,81.262C44.08,81.262,31.448,76.177,31.79,69.942L32.561,55.97L57.14,63.973C57.825,64.194,58.51,64.282,59.195,64.282C59.881,64.282,60.566,64.194,61.251,63.973L85.83,55.97ZM108.525,41.644C108.525,42.263,108.14,42.793,107.583,43.014L59.624,58.578C59.452,58.623,59.324,58.623,59.195,58.623C59.067,58.623,58.938,58.623,58.767,58.578L30.848,49.47C28.407,51.46,26.694,56.323,26.352,62.293C27.979,63.266,29.05,65.034,29.05,67.112C29.05,69.102,28.065,70.826,26.566,71.844L29.05,90.989C29.092,91.387,28.964,91.785,28.707,92.094C28.45,92.404,28.065,92.581,27.679,92.581L19.458,92.581C19.072,92.581,18.687,92.404,18.43,92.094C18.173,91.785,18.045,91.387,18.088,90.989L20.571,71.844C19.072,70.826,18.088,69.102,18.088,67.112C18.088,64.99,19.244,63.177,20.871,62.204C21.128,57.031,22.412,51.46,25.067,47.613L10.808,43.014C10.251,42.793,9.866,42.263,9.866,41.644C9.866,41.025,10.251,40.494,10.808,40.273L58.767,24.709C58.938,24.665,59.067,24.665,59.195,24.665C59.324,24.665,59.452,24.665,59.624,24.709L107.583,40.273C108.14,40.494,108.525,41.025,108.525,41.644ZM108.525,41.644"/>
</g>
  <g id="Bold-S" transform="matrix(1.0,0.0,0.0,1.0,2282.0645607145248,601.6929711243462)">  <path fill-opacity="1" clip-rule="evenodd" stroke-opacity="1" fill-rule="evenodd" stroke-linejoin="miter" stroke="none" stroke-width="1px" fill="#000000" stroke-linecap="butt" stroke-miterlimit="4" stroke-dasharray="none" d="M85.83,55.97L86.601,69.942C86.943,76.177,74.311,81.262,59.195,81.262C44.08,81.262,31.448,76.177,31.79,69.942L32.561,55.97L57.14,63.973C57.825,64.194,58.51,64.282,59.195,64.282C59.881,64.282,60.566,64.194,61.251,63.973L85.83,55.97ZM108.525,41.644C108.525,42.263,108.14,42.793,107.583,43.014L59.624,58.578C59.452,58.623,59.324,58.623,59.195,58.623C59.067,58.623,58.938,58.623,58.767,58.578L30.848,49.47C28.407,51.46,26.694,56.323,26.352,62.293C27.979,63.266,29.05,65.034,29.05,67.112C29.05,69.102,28.065,70.826,26.566,71.844L29.05,90.989C29.092,91.387,28.964,91.785,28.707,92.094C28.45,92.404,28.065,92.581,27.679,92.581L19.458,92.581C19.072,92.581,18.687,92.404,18.43,92.094C18.173,91.785,18.045,91.387,18.088,90.989L20.571,71.844C19.072,70.826,18.088,69.102,18.088,67.112C18.088,64.99,19.244,63.177,20.871,62.204C21.128,57.031,22.412,51.46,25.067,47.613L10.808,43.014C10.251,42.793,9.866,42.263,9.866,41.644C9.866,41.025,10.251,40.494,10.808,40.273L58.767,24.709C58.938,24.665,59.067,24.665,59.195,24.665C59.324,24.665,59.452,24.665,59.624,24.709L107.583,40.273C108.14,40.494,108.525,41.025,108.525,41.644ZM108.525,41.644"/>
</g>
  <g id="Semibold-S" transform="matrix(1.0,0.0,0.0,1.0,1985.3545607145252,601.6929711243462)">  <path fill="#000000" clip-rule="evenodd" fill-rule="evenodd" stroke-linecap="butt" stroke-linejoin="miter" fill-opacity="1" stroke-opacity="1" stroke="none" stroke-width="1px" stroke-dasharray="none" stroke-miterlimit="4" d="M85.83,55.97L86.601,69.942C86.943,76.177,74.311,81.262,59.195,81.262C44.08,81.262,31.448,76.177,31.79,69.942L32.561,55.97L57.14,63.973C57.825,64.194,58.51,64.282,59.195,64.282C59.881,64.282,60.566,64.194,61.251,63.973L85.83,55.97ZM108.525,41.644C108.525,42.263,108.14,42.793,107.583,43.014L59.624,58.578C59.452,58.623,59.324,58.623,59.195,58.623C59.067,58.623,58.938,58.623,58.767,58.578L30.848,49.47C28.407,51.46,26.694,56.323,26.352,62.293C27.979,63.266,29.05,65.034,29.05,67.112C29.05,69.102,28.065,70.826,26.566,71.844L29.05,90.989C29.092,91.387,28.964,91.785,28.707,92.094C28.45,92.404,28.065,92.581,27.679,92.581L19.458,92.581C19.072,92.581,18.687,92.404,18.43,92.094C18.173,91.785,18.045,91.387,18.088,90.989L20.571,71.844C19.072,70.826,18.088,69.102,18.088,67.112C18.088,64.99,19.244,63.177,20.871,62.204C21.128,57.031,22.412,51.46,25.067,47.613L10.808,43.014C10.251,42.793,9.866,42.263,9.866,41.644C9.866,41.025,10.251,40.494,10.808,40.273L58.767,24.709C58.938,24.665,59.067,24.665,59.195,24.665C59.324,24.665,59.452,24.665,59.624,24.709L107.583,40.273C108.14,40.494,108.525,41.025,108.525,41.644ZM108.525,41.644"/>
</g>
  <g id="Medium-S" transform="matrix(1.0,0.0,0.0,1.0,1688.6445607145251,601.6929711243462)">  <path stroke-dasharray="none" stroke-linejoin="miter" clip-rule="evenodd" fill-rule="evenodd" stroke-opacity="1" stroke-width="1px" stroke="none" stroke-miterlimit="4" fill="#000000" fill-opacity="1" stroke-linecap="butt" d="M85.83,55.97L86.601,69.942C86.943,76.177,74.311,81.262,59.195,81.262C44.08,81.262,31.448,76.177,31.79,69.942L32.561,55.97L57.14,63.973C57.825,64.194,58.51,64.282,59.195,64.282C59.881,64.282,60.566,64.194,61.251,63.973L85.83,55.97ZM108.525,41.644C108.525,42.263,108.14,42.793,107.583,43.014L59.624,58.578C59.452,58.623,59.324,58.623,59.195,58.623C59.067,58.623,58.938,58.623,58.767,58.578L30.848,49.47C28.407,51.46,26.694,56.323,26.352,62.293C27.979,63.266,29.05,65.034,29.05,67.112C29.05,69.102,28.065,70.826,26.566,71.844L29.05,90.989C29.092,91.387,28.964,91.785,28.707,92.094C28.45,92.404,28.065,92.581,27.679,92.581L19.458,92.581C19.072,92.581,18.687,92.404,18.43,92.094C18.173,91.785,18.045,91.387,18.088,90.989L20.571,71.844C19.072,70.826,18.088,69.102,18.088,67.112C18.088,64.99,19.244,63.177,20.871,62.204C21.128,57.031,22.412,51.46,25.067,47.613L10.808,43.014C10.251,42.793,9.866,42.263,9.866,41.644C9.866,41.025,10.251,40.494,10.808,40.273L58.767,24.709C58.938,24.665,59.067,24.665,59.195,24.665C59.324,24.665,59.452,24.665,59.624,24.709L107.583,40.273C108.14,40.494,108.525,41.025,108.525,41.644ZM108.525,41.644"/>
</g>
  <g id="Regular-S" transform="matrix(1.0,0.0,0.0,1.0,1391.934560714525,601.6929711243462)">  <path fill-rule="evenodd" stroke-miterlimit="4" stroke-dasharray="none" stroke-linecap="butt" stroke-linejoin="miter" fill-opacity="1" stroke-width="1px" fill="#000000" stroke-opacity="1" clip-rule="evenodd" stroke="none" d="M85.83,55.97L86.601,69.942C86.943,76.177,74.311,81.262,59.195,81.262C44.08,81.262,31.448,76.177,31.79,69.942L32.561,55.97L57.14,63.973C57.825,64.194,58.51,64.282,59.195,64.282C59.881,64.282,60.566,64.194,61.251,63.973L85.83,55.97ZM108.525,41.644C108.525,42.263,108.14,42.793,107.583,43.014L59.624,58.578C59.452,58.623,59.324,58.623,59.195,58.623C59.067,58.623,58.938,58.623,58.767,58.578L30.848,49.47C28.407,51.46,26.694,56.323,26.352,62.293C27.979,63.266,29.05,65.034,29.05,67.112C29.05,69.102,28.065,70.826,26.566,71.844L29.05,90.989C29.092,91.387,28.964,91.785,28.707,92.094C28.45,92.404,28.065,92.581,27.679,92.581L19.458,92.581C19.072,92.581,18.687,92.404,18.43,92.094C18.173,91.785,18.045,91.387,18.088,90.989L20.571,71.844C19.072,70.826,18.088,69.102,18.088,67.112C18.088,64.99,19.244,63.177,20.871,62.204C21.128,57.031,22.412,51.46,25.067,47.613L10.808,43.014C10.251,42.793,9.866,42.263,9.866,41.644C9.866,41.025,10.251,40.494,10.808,40.273L58.767,24.709C58.938,24.665,59.067,24.665,59.195,24.665C59.324,24.665,59.452,24.665,59.624,24.709L107.583,40.273C108.14,40.494,108.525,41.025,108.525,41.644ZM108.525,41.644"/>
</g>
  <g id="Light-S" transform="matrix(1.0,0.0,0.0,1.0,1095.2245607145253,601.6929711243462)">  <path fill="#000000" clip-rule="evenodd" fill-rule="evenodd" stroke-dasharray="none" stroke-width="1px" stroke-linejoin="miter" stroke-opacity="1" stroke-miterlimit="4" stroke-linecap="butt" fill-opacity="1" stroke="none" d="M85.83,55.97L86.601,69.942C86.943,76.177,74.311,81.262,59.195,81.262C44.08,81.262,31.448,76.177,31.79,69.942L32.561,55.97L57.14,63.973C57.825,64.194,58.51,64.282,59.195,64.282C59.881,64.282,60.566,64.194,61.251,63.973L85.83,55.97ZM108.525,41.644C108.525,42.263,108.14,42.793,107.583,43.014L59.624,58.578C59.452,58.623,59.324,58.623,59.195,58.623C59.067,58.623,58.938,58.623,58.767,58.578L30.848,49.47C28.407,51.46,26.694,56.323,26.352,62.293C27.979,63.266,29.05,65.034,29.05,67.112C29.05,69.102,28.065,70.826,26.566,71.844L29.05,90.989C29.092,91.387,28.964,91.785,28.707,92.094C28.45,92.404,28.065,92.581,27.679,92.581L19.458,92.581C19.072,92.581,18.687,92.404,18.43,92.094C18.173,91.785,18.045,91.387,18.088,90.989L20.571,71.844C19.072,70.826,18.088,69.102,18.088,67.112C18.088,64.99,19.244,63.177,20.871,62.204C21.128,57.031,22.412,51.46,25.067,47.613L10.808,43.014C10.251,42.793,9.866,42.263,9.866,41.644C9.866,41.025,10.251,40.494,10.808,40.273L58.767,24.709C58.938,24.665,59.067,24.665,59.195,24.665C59.324,24.665,59.452,24.665,59.624,24.709L107.583,40.273C108.14,40.494,108.525,41.025,108.525,41.644ZM108.525,41.644"/>
</g>
  <g id="Thin-S" transform="matrix(1.0,0.0,0.0,1.0,798.5145607145253,601.6929711243462)">  <path stroke-linecap="butt" fill-rule="evenodd" fill-opacity="1" clip-rule="evenodd" stroke-opacity="1" stroke-linejoin="miter" fill="#000000" stroke-miterlimit="4" stroke="none" stroke-width="1px" stroke-dasharray="none" d="M85.83,55.97L86.601,69.942C86.943,76.177,74.311,81.262,59.195,81.262C44.08,81.262,31.448,76.177,31.79,69.942L32.561,55.97L57.14,63.973C57.825,64.194,58.51,64.282,59.195,64.282C59.881,64.282,60.566,64.194,61.251,63.973L85.83,55.97ZM108.525,41.644C108.525,42.263,108.14,42.793,107.583,43.014L59.624,58.578C59.452,58.623,59.324,58.623,59.195,58.623C59.067,58.623,58.938,58.623,58.767,58.578L30.848,49.47C28.407,51.46,26.694,56.323,26.352,62.293C27.979,63.266,29.05,65.034,29.05,67.112C29.05,69.102,28.065,70.826,26.566,71.844L29.05,90.989C29.092,91.387,28.964,91.785,28.707,92.094C28.45,92.404,28.065,92.581,27.679,92.581L19.458,92.581C19.072,92.581,18.687,92.404,18.43,92.094C18.173,91.785,18.045,91.387,18.088,90.989L20.571,71.844C19.072,70.826,18.088,69.102,18.088,67.112C18.088,64.99,19.244,63.177,20.871,62.204C21.128,57.031,22.412,51.46,25.067,47.613L10.808,43.014C10.251,42.793,9.866,42.263,9.866,41.644C9.866,41.025,10.251,40.494,10.808,40.273L58.767,24.709C58.938,24.665,59.067,24.665,59.195,24.665C59.324,24.665,59.452,24.665,59.624,24.709L107.583,40.273C108.14,40.494,108.525,41.025,108.525,41.644ZM108.525,41.644"/>
</g>
  <g id="Ultralight-S" transform="matrix(1.0,0.0,0.0,1.0,501.8045607145252,601.6929711243462)">  <path fill-opacity="1" clip-rule="evenodd" stroke-linejoin="miter" stroke-linecap="butt" fill-rule="evenodd" stroke-opacity="1" fill="#000000" stroke="none" stroke-dasharray="none" stroke-miterlimit="4" stroke-width="1px" d="M85.83,55.97L86.601,69.942C86.943,76.177,74.311,81.262,59.195,81.262C44.08,81.262,31.448,76.177,31.79,69.942L32.561,55.97L57.14,63.973C57.825,64.194,58.51,64.282,59.195,64.282C59.881,64.282,60.566,64.194,61.251,63.973L85.83,55.97ZM108.525,41.644C108.525,42.263,108.14,42.793,107.583,43.014L59.624,58.578C59.452,58.623,59.324,58.623,59.195,58.623C59.067,58.623,58.938,58.623,58.767,58.578L30.848,49.47C28.407,51.46,26.694,56.323,26.352,62.293C27.979,63.266,29.05,65.034,29.05,67.112C29.05,69.102,28.065,70.826,26.566,71.844L29.05,90.989C29.092,91.387,28.964,91.785,28.707,92.094C28.45,92.404,28.065,92.581,27.679,92.581L19.458,92.581C19.072,92.581,18.687,92.404,18.43,92.094C18.173,91.785,18.045,91.387,18.088,90.989L20.571,71.844C19.072,70.826,18.088,69.102,18.088,67.112C18.088,64.99,19.244,63.177,20.871,62.204C21.128,57.031,22.412,51.46,25.067,47.613L10.808,43.014C10.251,42.793,9.866,42.263,9.866,41.644C9.866,41.025,10.251,40.494,10.808,40.273L58.767,24.709C58.938,24.665,59.067,24.665,59.195,24.665C59.324,24.665,59.452,24.665,59.624,24.709L107.583,40.273C108.14,40.494,108.525,41.025,108.525,41.644ZM108.525,41.644"/>
</g>
 </g>
</svg>
