<?xml version="1.0" encoding="UTF-8"?>
<!-- Generator: CustomSymbols v2.6.1.40 by @serious_bret https://bretlester.com/app_content/CustomSymbols/ -->
<!-- Guides: Left/Right 0.324/0.326 Cap/Base 0.246/0.222 -->
<!-- Settings: RefScale 1.0 Min/Max Stroke Scales 0.5/2.21 -->
<!DOCTYPE svg
PUBLIC "-//W3C//DTD SVG 1.1//EN"
       "http://www.w3.org/Graphics/SVG/1.1/DTD/svg11.dtd">
<svg version="1.1" xmlns="http://www.w3.org/2000/svg" xmlns:xlink="http://www.w3.org/1999/xlink" width="3300" height="2200">
<![CDATA[<svg width="24" height="24" viewBox="0 0 24 24" fill="none" xmlns="http://www.w3.org/2000/svg">
<path fill-rule="evenodd" clip-rule="evenodd" d="M13.905 8H10.0952C9.83728 8 9.61409 7.92083 9.42559 7.7625C9.2371 7.60433 9.14286 7.41669 9.14286 7.20006V4.80009C9.14286 4.58346 9.2371 4.39583 9.42559 4.2375C9.61409 4.07932 9.83728 4 10.0952 4H13.9046C14.1625 4 14.3859 4.07932 14.5742 4.2375C14.7629 4.39598 14.8571 4.58346 14.8571 4.80009V7.20006C14.8571 7.41669 14.7629 7.60433 14.5746 7.7625C14.3859 7.92083 14.1627 8 13.905 8ZM14.8556 10.7142V17.0184C14.8556 17.0184 16 17.1113 16 18.0555V19.0682C16 19.2616 15.7897 20 14.8556 20H8.79998C8.58334 20 8.39585 19.9292 8.23751 19.7881C8.07917 19.6466 8 19.479 8 19.2856V17.7327C8 17.3548 8.23751 17.0184 8.79998 17.0184H10.2725V12.9967H9.12745C8.47781 12.9967 8 12.1934 8 12V10.7142C8 10.5208 8.07917 10.3534 8.23751 10.2121C8.39585 10.0707 8.58334 10 8.79998 10H14.0557C14.2722 10 14.4597 10.0707 14.6182 10.2121C14.7764 10.3534 14.8556 10.5208 14.8556 10.7142Z" fill="black"/>
</svg>
]]>
 <g id="Notes">
  <rect height="2200" id="artboard" style="fill:white;opacity:1" width="3300" x="0" y="0"/>
  <line id="" style="fill:none;stroke:black;opacity:1;stroke-width:0.5;" x1="263" x2="3036" y1="292" y2="292"/>
  <text id="reftext1" style="stroke:none;fill:black;font-family:-apple-system,&quot;SF Pro Display&quot;,&quot;SF Pro Text&quot;,Helvetica,sans-serif;font-weight:bold;" transform="matrix(1 0 0 1 263 322)">Weight/Scale Variations</text>
  <text id="reftext2" style="stroke:none;fill:black;font-family:-apple-system,&quot;SF Pro Display&quot;,&quot;SF Pro Text&quot;,Helvetica,sans-serif;text-anchor:middle;" transform="matrix(1 0 0 1 559.711 322)">Ultralight</text>
  <text style="stroke:none;fill:black;font-family:-apple-system,&quot;SF Pro Display&quot;,&quot;SF Pro Text&quot;,Helvetica,sans-serif;text-anchor:middle;" transform="matrix(1 0 0 1 856.422 322)">Thin</text>
  <text style="stroke:none;fill:black;font-family:-apple-system,&quot;SF Pro Display&quot;,&quot;SF Pro Text&quot;,Helvetica,sans-serif;text-anchor:middle;" transform="matrix(1 0 0 1 1153.13 322)">Light</text>
  <text style="stroke:none;fill:black;font-family:-apple-system,&quot;SF Pro Display&quot;,&quot;SF Pro Text&quot;,Helvetica,sans-serif;text-anchor:middle;" transform="matrix(1 0 0 1 1449.84 322)">Regular</text>
  <text style="stroke:none;fill:black;font-family:-apple-system,&quot;SF Pro Display&quot;,&quot;SF Pro Text&quot;,Helvetica,sans-serif;text-anchor:middle;" transform="matrix(1 0 0 1 1746.56 322)">Medium</text>
  <text style="stroke:none;fill:black;font-family:-apple-system,&quot;SF Pro Display&quot;,&quot;SF Pro Text&quot;,Helvetica,sans-serif;text-anchor:middle;" transform="matrix(1 0 0 1 2043.27 322)">Semibold</text>
  <text style="stroke:none;fill:black;font-family:-apple-system,&quot;SF Pro Display&quot;,&quot;SF Pro Text&quot;,Helvetica,sans-serif;text-anchor:middle;" transform="matrix(1 0 0 1 2339.98 322)">Bold</text>
  <text style="stroke:none;fill:black;font-family:-apple-system,&quot;SF Pro Display&quot;,&quot;SF Pro Text&quot;,Helvetica,sans-serif;text-anchor:middle;" transform="matrix(1 0 0 1 2636.69 322)">Heavy</text>
  <text style="stroke:none;fill:black;font-family:-apple-system,&quot;SF Pro Display&quot;,&quot;SF Pro Text&quot;,Helvetica,sans-serif;text-anchor:middle;" transform="matrix(1 0 0 1 2933.4 322)">Black</text>
  <line id="" style="fill:none;stroke:black;opacity:1;stroke-width:0.5;" x1="263" x2="3036" y1="1903" y2="1903"/>
  <g id="" transform="matrix(1 0 0 1 263 1933)">
   <path d="M9.24805 0.830078C13.5547 0.830078 17.1387-2.74414 17.1387-7.05078C17.1387-11.3574 13.5449-14.9316 9.23828-14.9316C4.94141-14.9316 1.36719-11.3574 1.36719-7.05078C1.36719-2.74414 4.95117 0.830078 9.24805 0.830078ZM9.24805-0.654297C5.70312-0.654297 2.87109-3.49609 2.87109-7.05078C2.87109-10.6055 5.69336-13.4473 9.23828-13.4473C12.793-13.4473 15.6348-10.6055 15.6445-7.05078C15.6543-3.49609 12.8027-0.654297 9.24805-0.654297ZM6.39648-6.31836L8.50586-6.31836L8.50586-4.19922C8.50586-3.75977 8.79883-3.45703 9.22852-3.45703C9.67773-3.45703 9.9707-3.75977 9.9707-4.19922L9.9707-6.31836L12.0996-6.31836C12.5391-6.31836 12.8418-6.61133 12.8418-7.04102C12.8418-7.48047 12.5391-7.7832 12.0996-7.7832L9.9707-7.7832L9.9707-9.89258C9.9707-10.3418 9.67773-10.6445 9.22852-10.6445C8.79883-10.6445 8.50586-10.3418 8.50586-9.89258L8.50586-7.7832L6.39648-7.7832C5.94727-7.7832 5.64453-7.48047 5.64453-7.04102C5.64453-6.61133 5.94727-6.31836 6.39648-6.31836Z"/>
  </g>
  <g id="" transform="matrix(1 0 0 1 281.506 1933)">
   <path d="M11.709 2.91016C17.1582 2.91016 21.6699-1.61133 21.6699-7.05078C21.6699-12.5 17.1484-17.0117 11.6992-17.0117C6.25977-17.0117 1.74805-12.5 1.74805-7.05078C1.74805-1.61133 6.26953 2.91016 11.709 2.91016ZM11.709 1.25C7.09961 1.25 3.41797-2.44141 3.41797-7.05078C3.41797-11.6602 7.08984-15.3516 11.6992-15.3516C16.3086-15.3516 20-11.6602 20.0098-7.05078C20.0195-2.44141 16.3184 1.25 11.709 1.25ZM7.98828-6.23047L10.8789-6.23047L10.8789-3.32031C10.8789-2.83203 11.2109-2.5 11.6895-2.5C12.1777-2.5 12.5195-2.83203 12.5195-3.32031L12.5195-6.23047L15.4297-6.23047C15.918-6.23047 16.25-6.5625 16.25-7.04102C16.25-7.5293 15.918-7.87109 15.4297-7.87109L12.5195-7.87109L12.5195-10.7617C12.5195-11.2695 12.1777-11.6016 11.6895-11.6016C11.2109-11.6016 10.8789-11.2598 10.8789-10.7617L10.8789-7.87109L7.98828-7.87109C7.48047-7.87109 7.14844-7.5293 7.14844-7.04102C7.14844-6.5625 7.49023-6.23047 7.98828-6.23047Z"/>
  </g>
  <g id="" transform="matrix(1 0 0 1 304.924 1933)">
   <path d="M14.9707 5.66406C21.9336 5.66406 27.6953-0.0976562 27.6953-7.05078C27.6953-14.0137 21.9238-19.7754 14.9609-19.7754C8.00781-19.7754 2.25586-14.0137 2.25586-7.05078C2.25586-0.0976562 8.01758 5.66406 14.9707 5.66406ZM14.9707 3.84766C8.93555 3.84766 4.08203-1.01562 4.08203-7.05078C4.08203-13.0957 8.92578-17.9492 14.9609-17.9492C21.0059-17.9492 25.8594-13.0957 25.8691-7.05078C25.8789-1.01562 21.0156 3.84766 14.9707 3.84766ZM10.0586-6.14258L14.0625-6.14258L14.0625-2.12891C14.0625-1.5918 14.4336-1.2207 14.9512-1.2207C15.4883-1.2207 15.8594-1.5918 15.8594-2.12891L15.8594-6.14258L19.8828-6.14258C20.4102-6.14258 20.791-6.51367 20.791-7.03125C20.791-7.56836 20.4199-7.94922 19.8828-7.94922L15.8594-7.94922L15.8594-11.9531C15.8594-12.5098 15.4883-12.8809 14.9512-12.8809C14.4336-12.8809 14.0625-12.5 14.0625-11.9531L14.0625-7.94922L10.0586-7.94922C9.50195-7.94922 9.13086-7.56836 9.13086-7.03125C9.13086-6.51367 9.51172-6.14258 10.0586-6.14258Z"/>
  </g>
  <text style="stroke:none;fill:black;font-family:-apple-system,&quot;SF Pro Display&quot;,&quot;SF Pro Text&quot;,Helvetica,sans-serif;font-weight:bold;" transform="matrix(1 0 0 1 263 1953)">Design Variations</text>
  <text style="stroke:none;fill:black;font-family:-apple-system,&quot;SF Pro Display&quot;,&quot;SF Pro Text&quot;,Helvetica,sans-serif;" transform="matrix(1 0 0 1 263 1971)">Symbols are supported in up to nine weights and three scales.</text>
  <text style="stroke:none;fill:black;font-family:-apple-system,&quot;SF Pro Display&quot;,&quot;SF Pro Text&quot;,Helvetica,sans-serif;" transform="matrix(1 0 0 1 263 1989)">For optimal layout with text and other symbols, vertically align</text>
  <text style="stroke:none;fill:black;font-family:-apple-system,&quot;SF Pro Display&quot;,&quot;SF Pro Text&quot;,Helvetica,sans-serif;" transform="matrix(1 0 0 1 263 2007)">symbols with the adjacent text.</text>
  <line id="" style="fill:none;stroke:#00AEEF;stroke-width:0.5;opacity:1.0;" x1="776" x2="776" y1="1919" y2="1933"/>
  <g id="" transform="matrix(1 0 0 1 776 1933)">
   <path d="M3.31055 0.126953C3.82812 0.126953 4.08203-0.0683594 4.26758-0.605469L5.52734-4.0625L11.2891-4.0625L12.5488-0.605469C12.7344-0.0683594 12.9883 0.126953 13.4961 0.126953C14.0137 0.126953 14.3457-0.185547 14.3457-0.673828C14.3457-0.839844 14.3164-0.986328 14.2383-1.20117L9.6582-13.3887C9.43359-13.9941 9.0332-14.2871 8.4082-14.2871C7.80273-14.2871 7.39258-13.9941 7.17773-13.3984L2.59766-1.19141C2.51953-0.976562 2.49023-0.830078 2.49023-0.664062C2.49023-0.175781 2.80273 0.126953 3.31055 0.126953ZM6.00586-5.53711L8.37891-12.1094L8.42773-12.1094L10.8008-5.53711Z"/>
  </g>
  <line id="" style="fill:none;stroke:#00AEEF;stroke-width:0.5;opacity:1.0;" x1="792.836" x2="792.836" y1="1919" y2="1933"/>
  <text style="stroke:none;fill:black;font-family:-apple-system,&quot;SF Pro Display&quot;,&quot;SF Pro Text&quot;,Helvetica,sans-serif;font-weight:bold;" transform="matrix(1 0 0 1 776 1953)">Margins</text>
  <text style="stroke:none;fill:black;font-family:-apple-system,&quot;SF Pro Display&quot;,&quot;SF Pro Text&quot;,Helvetica,sans-serif;" transform="matrix(1 0 0 1 776 1971)">Leading and trailing margins on the left and right side of each symbol</text>
  <text style="stroke:none;fill:black;font-family:-apple-system,&quot;SF Pro Display&quot;,&quot;SF Pro Text&quot;,Helvetica,sans-serif;" transform="matrix(1 0 0 1 776 1989)">can be adjusted by modifying the x-location of the margin guidelines.</text>
  <text style="stroke:none;fill:black;font-family:-apple-system,&quot;SF Pro Display&quot;,&quot;SF Pro Text&quot;,Helvetica,sans-serif;" transform="matrix(1 0 0 1 776 2007)">Modifications are automatically applied proportionally to all</text>
  <text style="stroke:none;fill:black;font-family:-apple-system,&quot;SF Pro Display&quot;,&quot;SF Pro Text&quot;,Helvetica,sans-serif;" transform="matrix(1 0 0 1 776 2025)">scales and weights.</text>
  <g id="" transform="matrix(1 0 0 1 1289 1933)">
   <path d="M2.8418 1.86523L4.54102 3.57422C5.40039 4.44336 6.38672 4.38477 7.31445 3.35938L17.4902-7.85156C17.7539-7.76367 18.0273-7.7832 18.3398-7.8418L19.4043-8.03711L20.0684-7.36328L20.0293-6.80664C19.9902-6.30859 20.1172-5.92773 20.6055-5.44922L21.3672-4.70703C21.8457-4.22852 22.4609-4.19922 22.9297-4.66797L25.8398-7.58789C26.3086-8.05664 26.2891-8.65234 25.8105-9.13086L25.0391-9.89258C24.5605-10.3711 24.1895-10.5273 23.7109-10.4883L23.1348-10.4395L22.4902-11.0742L22.7344-12.1973C22.8613-12.7637 22.7051-13.2031 22.1191-13.7891L19.9219-15.9766C16.582-19.2969 12.1484-19.2188 9.25781-16.3281C8.83789-15.918 8.80859-15.3418 9.04297-14.9512C9.27734-14.5898 9.73633-14.3555 10.3809-14.5215C11.8457-14.8633 13.3691-14.9219 14.7949-13.9844L14.209-12.5293C14.0137-12.0508 13.9844-11.6504 14.1113-11.2891L3.04688-0.898438C2.06055 0.0195312 1.98242 0.996094 2.8418 1.86523ZM10.752-15.957C13.1836-17.7344 16.4746-17.4316 18.7012-15.2051L21.1328-12.793C21.3672-12.5586 21.4062-12.373 21.3379-12.0312L21.0156-10.5469L22.5195-9.0625L23.5059-9.12109C23.7598-9.13086 23.8379-9.11133 24.0332-8.91602L24.6094-8.33984L22.168-5.89844L21.5918-6.47461C21.3965-6.66992 21.3672-6.74805 21.377-7.01172L21.4453-7.98828L19.9512-9.47266L18.4277-9.21875C18.1055-9.15039 17.959-9.17969 17.7148-9.41406L15.7129-11.416C15.459-11.6504 15.4297-11.8164 15.5859-12.1875L16.4648-14.2773C14.9023-15.7324 12.8711-16.3574 10.8398-15.7617C10.6836-15.7227 10.625-15.8496 10.752-15.957ZM5.27344 2.30469L4.10156 1.14258C3.63281 0.683594 3.74023 0.341797 4.14062-0.0195312L14.9512-10.1953L16.416-8.71094L6.42578 2.27539C6.07422 2.67578 5.74219 2.77344 5.27344 2.30469Z"/>
  </g>
  <text style="stroke:none;fill:black;font-family:-apple-system,&quot;SF Pro Display&quot;,&quot;SF Pro Text&quot;,Helvetica,sans-serif;font-weight:bold;" transform="matrix(1 0 0 1 1289 1953)">Exporting</text>
  <text style="stroke:none;fill:black;font-family:-apple-system,&quot;SF Pro Display&quot;,&quot;SF Pro Text&quot;,Helvetica,sans-serif;" transform="matrix(1 0 0 1 1289 1971)">Symbols should be outlined when exporting to ensure the</text>
  <text style="stroke:none;fill:black;font-family:-apple-system,&quot;SF Pro Display&quot;,&quot;SF Pro Text&quot;,Helvetica,sans-serif;" transform="matrix(1 0 0 1 1289 1989)">design is preserved when submitting to Xcode.</text>
  <text id="template-version" style="stroke:none;fill:black;font-family:-apple-system,&quot;SF Pro Display&quot;,&quot;SF Pro Text&quot;,Helvetica,sans-serif;text-anchor:end;" transform="matrix(1 0 0 1 3036 1933)">Template v.2.0</text>
  <text style="stroke:none;fill:black;font-family:-apple-system,&quot;SF Pro Display&quot;,&quot;SF Pro Text&quot;,Helvetica,sans-serif;text-anchor:end;" transform="matrix(1 0 0 1 3036 1951)">Requires Xcode 12 or greater</text>
  <text style="stroke:none;fill:black;font-family:-apple-system,&quot;SF Pro Display&quot;,&quot;SF Pro Text&quot;,Helvetica,sans-serif;" transform="matrix(1 0 0 1 263 726)">Small</text>
  <text style="stroke:none;fill:black;font-family:-apple-system,&quot;SF Pro Display&quot;,&quot;SF Pro Text&quot;,Helvetica,sans-serif;" transform="matrix(1 0 0 1 263 1156)">Medium</text>
  <text style="stroke:none;fill:black;font-family:-apple-system,&quot;SF Pro Display&quot;,&quot;SF Pro Text&quot;,Helvetica,sans-serif;" transform="matrix(1 0 0 1 263 1586)">Large</text>
 </g>
 <g id="Guides">
  <g id="H-reference" style="fill:#27AAE1;stroke:none;" transform="matrix(1 0 0 1 339 696)">
   <path d="M0.976562 0L3.66211 0L12.9883-24.4629L45.752-24.4629L55.127 0L57.7637 0L30.6152-70.459L28.125-70.459ZM29.3457-67.1387L29.4434-67.1387L44.873-26.709L13.8672-26.709Z"/>
  </g>
  <line id="Baseline-S" style="fill:none;stroke:#27AAE1;opacity:1;stroke-width:0.5;" x1="263" x2="3036" y1="696" y2="696"/>
  <line id="Capline-S" style="fill:none;stroke:#27AAE1;opacity:1;stroke-width:0.5;" x1="263" x2="3036" y1="625.541" y2="625.541"/>
  <g id="H-reference" style="fill:#27AAE1;stroke:none;" transform="matrix(1 0 0 1 339 1126)">
   <path d="M0.976562 0L3.66211 0L12.9883-24.4629L45.752-24.4629L55.127 0L57.7637 0L30.6152-70.459L28.125-70.459ZM29.3457-67.1387L29.4434-67.1387L44.873-26.709L13.8672-26.709Z"/>
  </g>
  <line id="Baseline-M" style="fill:none;stroke:#27AAE1;opacity:1;stroke-width:0.5;" x1="263" x2="3036" y1="1126" y2="1126"/>
  <line id="Capline-M" style="fill:none;stroke:#27AAE1;opacity:1;stroke-width:0.5;" x1="263" x2="3036" y1="1055.54" y2="1055.54"/>
  <g id="H-reference" style="fill:#27AAE1;stroke:none;" transform="matrix(1 0 0 1 339 1556)">
   <path d="M0.976562 0L3.66211 0L12.9883-24.4629L45.752-24.4629L55.127 0L57.7637 0L30.6152-70.459L28.125-70.459ZM29.3457-67.1387L29.4434-67.1387L44.873-26.709L13.8672-26.709Z"/>
  </g>
  <line id="Baseline-L" style="fill:none;stroke:#27AAE1;opacity:1;stroke-width:0.5;" x1="263" x2="3036" y1="1556" y2="1556"/>
  <line id="Capline-L" style="fill:none;stroke:#27AAE1;opacity:1;stroke-width:0.5;" x1="263" x2="3036" y1="1485.54" y2="1485.54"/>
  <line id="left-margin" x1="1427.8199377349624" x2="1427.8199377349624" y1="1030.79" y2="1150.12" style="fill:none;stroke:#00AEEF;stroke-width:0.5;opacity:1.0;"/>
  <line id="right-margin" x1="1474.1751751938439" x2="1474.1751751938439" y1="1030.79" y2="1150.12" style="fill:none;stroke:#00AEEF;stroke-width:0.5;opacity:1.0;"/>
 </g>
 <g id="Symbols">
  <g id="Black-L" transform="matrix(1.0,0.0,0.0,1.0,2849.253919540061,1433.2937131402725)">  <path stroke-miterlimit="4" stroke-linejoin="miter" fill="#000000" stroke="none" fill-rule="evenodd" stroke-width="1px" stroke-opacity="1" clip-rule="evenodd" stroke-dasharray="none" stroke-linecap="butt" fill-opacity="1" d="M98.987,56.951L71.866,56.951C70.03,56.951,68.441,56.387,67.099,55.26C65.757,54.134,65.087,52.798,65.087,51.256L65.087,34.171C65.087,32.629,65.757,31.293,67.099,30.166C68.441,29.04,70.03,28.475,71.866,28.475L98.985,28.475C100.821,28.475,102.411,29.04,103.751,30.166C105.095,31.294,105.765,32.629,105.765,34.171L105.765,51.256C105.765,52.798,105.095,54.134,103.754,55.26C102.411,56.387,100.822,56.951,98.987,56.951ZM105.755,76.273L105.755,121.151C105.755,121.151,113.901,121.813,113.901,128.534L113.901,135.743C113.901,137.12,112.404,142.377,105.755,142.377L62.646,142.377C61.103,142.377,59.769,141.873,58.642,140.868C57.514,139.861,56.951,138.668,56.951,137.291L56.951,126.236C56.951,123.546,58.642,121.151,62.646,121.151L73.128,121.151L73.128,92.521L64.977,92.521C60.352,92.521,56.951,86.803,56.951,85.426L56.951,76.273C56.951,74.896,57.514,73.704,58.642,72.698C59.769,71.692,61.103,71.188,62.646,71.188L100.06,71.188C101.602,71.188,102.936,71.692,104.065,72.698C105.191,73.704,105.755,74.896,105.755,76.273ZM105.755,76.273"/>
</g>
  <g id="Heavy-L" transform="matrix(1.0,0.0,0.0,1.0,2552.543919540061,1433.2937131402725)">  <path clip-rule="evenodd" stroke-linejoin="miter" fill="#000000" stroke-linecap="butt" fill-opacity="1" stroke-opacity="1" stroke-miterlimit="4" fill-rule="evenodd" stroke-width="1px" stroke="none" stroke-dasharray="none" d="M98.987,56.951L71.866,56.951C70.03,56.951,68.441,56.387,67.099,55.26C65.757,54.134,65.087,52.798,65.087,51.256L65.087,34.171C65.087,32.629,65.757,31.293,67.099,30.166C68.441,29.04,70.03,28.475,71.866,28.475L98.985,28.475C100.821,28.475,102.411,29.04,103.751,30.166C105.095,31.294,105.765,32.629,105.765,34.171L105.765,51.256C105.765,52.798,105.095,54.134,103.754,55.26C102.411,56.387,100.822,56.951,98.987,56.951ZM105.755,76.273L105.755,121.151C105.755,121.151,113.901,121.813,113.901,128.534L113.901,135.743C113.901,137.12,112.404,142.377,105.755,142.377L62.646,142.377C61.103,142.377,59.769,141.873,58.642,140.868C57.514,139.861,56.951,138.668,56.951,137.291L56.951,126.236C56.951,123.546,58.642,121.151,62.646,121.151L73.128,121.151L73.128,92.521L64.977,92.521C60.352,92.521,56.951,86.803,56.951,85.426L56.951,76.273C56.951,74.896,57.514,73.704,58.642,72.698C59.769,71.692,61.103,71.188,62.646,71.188L100.06,71.188C101.602,71.188,102.936,71.692,104.065,72.698C105.191,73.704,105.755,74.896,105.755,76.273ZM105.755,76.273"/>
</g>
  <g id="Bold-L" transform="matrix(1.0,0.0,0.0,1.0,2255.833919540061,1433.2937131402725)">  <path stroke-linecap="butt" stroke="none" stroke-miterlimit="4" stroke-opacity="1" stroke-linejoin="miter" stroke-dasharray="none" fill="#000000" fill-rule="evenodd" clip-rule="evenodd" stroke-width="1px" fill-opacity="1" d="M98.987,56.951L71.866,56.951C70.03,56.951,68.441,56.387,67.099,55.26C65.757,54.134,65.087,52.798,65.087,51.256L65.087,34.171C65.087,32.629,65.757,31.293,67.099,30.166C68.441,29.04,70.03,28.475,71.866,28.475L98.985,28.475C100.821,28.475,102.411,29.04,103.751,30.166C105.095,31.294,105.765,32.629,105.765,34.171L105.765,51.256C105.765,52.798,105.095,54.134,103.754,55.26C102.411,56.387,100.822,56.951,98.987,56.951ZM105.755,76.273L105.755,121.151C105.755,121.151,113.901,121.813,113.901,128.534L113.901,135.743C113.901,137.12,112.404,142.377,105.755,142.377L62.646,142.377C61.103,142.377,59.769,141.873,58.642,140.868C57.514,139.861,56.951,138.668,56.951,137.291L56.951,126.236C56.951,123.546,58.642,121.151,62.646,121.151L73.128,121.151L73.128,92.521L64.977,92.521C60.352,92.521,56.951,86.803,56.951,85.426L56.951,76.273C56.951,74.896,57.514,73.704,58.642,72.698C59.769,71.692,61.103,71.188,62.646,71.188L100.06,71.188C101.602,71.188,102.936,71.692,104.065,72.698C105.191,73.704,105.755,74.896,105.755,76.273ZM105.755,76.273"/>
</g>
  <g id="Semibold-L" transform="matrix(1.0,0.0,0.0,1.0,1959.123919540061,1433.2937131402725)">  <path stroke-linejoin="miter" fill-rule="evenodd" stroke-dasharray="none" fill="#000000" fill-opacity="1" stroke="none" clip-rule="evenodd" stroke-width="1px" stroke-miterlimit="4" stroke-opacity="1" stroke-linecap="butt" d="M98.987,56.951L71.866,56.951C70.03,56.951,68.441,56.387,67.099,55.26C65.757,54.134,65.087,52.798,65.087,51.256L65.087,34.171C65.087,32.629,65.757,31.293,67.099,30.166C68.441,29.04,70.03,28.475,71.866,28.475L98.985,28.475C100.821,28.475,102.411,29.04,103.751,30.166C105.095,31.294,105.765,32.629,105.765,34.171L105.765,51.256C105.765,52.798,105.095,54.134,103.754,55.26C102.411,56.387,100.822,56.951,98.987,56.951ZM105.755,76.273L105.755,121.151C105.755,121.151,113.901,121.813,113.901,128.534L113.901,135.743C113.901,137.12,112.404,142.377,105.755,142.377L62.646,142.377C61.103,142.377,59.769,141.873,58.642,140.868C57.514,139.861,56.951,138.668,56.951,137.291L56.951,126.236C56.951,123.546,58.642,121.151,62.646,121.151L73.128,121.151L73.128,92.521L64.977,92.521C60.352,92.521,56.951,86.803,56.951,85.426L56.951,76.273C56.951,74.896,57.514,73.704,58.642,72.698C59.769,71.692,61.103,71.188,62.646,71.188L100.06,71.188C101.602,71.188,102.936,71.692,104.065,72.698C105.191,73.704,105.755,74.896,105.755,76.273ZM105.755,76.273"/>
</g>
  <g id="Medium-L" transform="matrix(1.0,0.0,0.0,1.0,1662.413919540061,1433.2937131402725)">  <path fill="#000000" stroke="none" stroke-linejoin="miter" clip-rule="evenodd" stroke-width="1px" fill-opacity="1" stroke-linecap="butt" fill-rule="evenodd" stroke-opacity="1" stroke-miterlimit="4" stroke-dasharray="none" d="M98.987,56.951L71.866,56.951C70.03,56.951,68.441,56.387,67.099,55.26C65.757,54.134,65.087,52.798,65.087,51.256L65.087,34.171C65.087,32.629,65.757,31.293,67.099,30.166C68.441,29.04,70.03,28.475,71.866,28.475L98.985,28.475C100.821,28.475,102.411,29.04,103.751,30.166C105.095,31.294,105.765,32.629,105.765,34.171L105.765,51.256C105.765,52.798,105.095,54.134,103.754,55.26C102.411,56.387,100.822,56.951,98.987,56.951ZM105.755,76.273L105.755,121.151C105.755,121.151,113.901,121.813,113.901,128.534L113.901,135.743C113.901,137.12,112.404,142.377,105.755,142.377L62.646,142.377C61.103,142.377,59.769,141.873,58.642,140.868C57.514,139.861,56.951,138.668,56.951,137.291L56.951,126.236C56.951,123.546,58.642,121.151,62.646,121.151L73.128,121.151L73.128,92.521L64.977,92.521C60.352,92.521,56.951,86.803,56.951,85.426L56.951,76.273C56.951,74.896,57.514,73.704,58.642,72.698C59.769,71.692,61.103,71.188,62.646,71.188L100.06,71.188C101.602,71.188,102.936,71.692,104.065,72.698C105.191,73.704,105.755,74.896,105.755,76.273ZM105.755,76.273"/>
</g>
  <g id="Regular-L" transform="matrix(1.0,0.0,0.0,1.0,1365.703919540061,1433.2937131402725)">  <path stroke-linecap="butt" stroke-opacity="1" stroke-miterlimit="4" stroke-linejoin="miter" stroke-width="1px" fill="#000000" stroke="none" clip-rule="evenodd" fill-opacity="1" fill-rule="evenodd" stroke-dasharray="none" d="M98.987,56.951L71.866,56.951C70.03,56.951,68.441,56.387,67.099,55.26C65.757,54.134,65.087,52.798,65.087,51.256L65.087,34.171C65.087,32.629,65.757,31.293,67.099,30.166C68.441,29.04,70.03,28.475,71.866,28.475L98.985,28.475C100.821,28.475,102.411,29.04,103.751,30.166C105.095,31.294,105.765,32.629,105.765,34.171L105.765,51.256C105.765,52.798,105.095,54.134,103.754,55.26C102.411,56.387,100.822,56.951,98.987,56.951ZM105.755,76.273L105.755,121.151C105.755,121.151,113.901,121.813,113.901,128.534L113.901,135.743C113.901,137.12,112.404,142.377,105.755,142.377L62.646,142.377C61.103,142.377,59.769,141.873,58.642,140.868C57.514,139.861,56.951,138.668,56.951,137.291L56.951,126.236C56.951,123.546,58.642,121.151,62.646,121.151L73.128,121.151L73.128,92.521L64.977,92.521C60.352,92.521,56.951,86.803,56.951,85.426L56.951,76.273C56.951,74.896,57.514,73.704,58.642,72.698C59.769,71.692,61.103,71.188,62.646,71.188L100.06,71.188C101.602,71.188,102.936,71.692,104.065,72.698C105.191,73.704,105.755,74.896,105.755,76.273ZM105.755,76.273"/>
</g>
  <g id="Light-L" transform="matrix(1.0,0.0,0.0,1.0,1068.9939195400611,1433.2937131402725)">  <path stroke-dasharray="none" fill-rule="evenodd" stroke-linejoin="miter" stroke-opacity="1" stroke-width="1px" stroke="none" stroke-linecap="butt" fill-opacity="1" stroke-miterlimit="4" fill="#000000" clip-rule="evenodd" d="M98.987,56.951L71.866,56.951C70.03,56.951,68.441,56.387,67.099,55.26C65.757,54.134,65.087,52.798,65.087,51.256L65.087,34.171C65.087,32.629,65.757,31.293,67.099,30.166C68.441,29.04,70.03,28.475,71.866,28.475L98.985,28.475C100.821,28.475,102.411,29.04,103.751,30.166C105.095,31.294,105.765,32.629,105.765,34.171L105.765,51.256C105.765,52.798,105.095,54.134,103.754,55.26C102.411,56.387,100.822,56.951,98.987,56.951ZM105.755,76.273L105.755,121.151C105.755,121.151,113.901,121.813,113.901,128.534L113.901,135.743C113.901,137.12,112.404,142.377,105.755,142.377L62.646,142.377C61.103,142.377,59.769,141.873,58.642,140.868C57.514,139.861,56.951,138.668,56.951,137.291L56.951,126.236C56.951,123.546,58.642,121.151,62.646,121.151L73.128,121.151L73.128,92.521L64.977,92.521C60.352,92.521,56.951,86.803,56.951,85.426L56.951,76.273C56.951,74.896,57.514,73.704,58.642,72.698C59.769,71.692,61.103,71.188,62.646,71.188L100.06,71.188C101.602,71.188,102.936,71.692,104.065,72.698C105.191,73.704,105.755,74.896,105.755,76.273ZM105.755,76.273"/>
</g>
  <g id="Thin-L" transform="matrix(1.0,0.0,0.0,1.0,772.2839195400611,1433.2937131402725)">  <path fill-rule="evenodd" fill-opacity="1" stroke-linecap="butt" stroke-width="1px" clip-rule="evenodd" stroke="none" stroke-linejoin="miter" fill="#000000" stroke-opacity="1" stroke-dasharray="none" stroke-miterlimit="4" d="M98.987,56.951L71.866,56.951C70.03,56.951,68.441,56.387,67.099,55.26C65.757,54.134,65.087,52.798,65.087,51.256L65.087,34.171C65.087,32.629,65.757,31.293,67.099,30.166C68.441,29.04,70.03,28.475,71.866,28.475L98.985,28.475C100.821,28.475,102.411,29.04,103.751,30.166C105.095,31.294,105.765,32.629,105.765,34.171L105.765,51.256C105.765,52.798,105.095,54.134,103.754,55.26C102.411,56.387,100.822,56.951,98.987,56.951ZM105.755,76.273L105.755,121.151C105.755,121.151,113.901,121.813,113.901,128.534L113.901,135.743C113.901,137.12,112.404,142.377,105.755,142.377L62.646,142.377C61.103,142.377,59.769,141.873,58.642,140.868C57.514,139.861,56.951,138.668,56.951,137.291L56.951,126.236C56.951,123.546,58.642,121.151,62.646,121.151L73.128,121.151L73.128,92.521L64.977,92.521C60.352,92.521,56.951,86.803,56.951,85.426L56.951,76.273C56.951,74.896,57.514,73.704,58.642,72.698C59.769,71.692,61.103,71.188,62.646,71.188L100.06,71.188C101.602,71.188,102.936,71.692,104.065,72.698C105.191,73.704,105.755,74.896,105.755,76.273ZM105.755,76.273"/>
</g>
  <g id="Ultralight-L" transform="matrix(1.0,0.0,0.0,1.0,475.57391954006107,1433.2937131402725)">  <path clip-rule="evenodd" stroke-dasharray="none" fill="#000000" stroke-miterlimit="4" fill-rule="evenodd" fill-opacity="1" stroke-linejoin="miter" stroke-opacity="1" stroke-width="1px" stroke="none" stroke-linecap="butt" d="M98.987,56.951L71.866,56.951C70.03,56.951,68.441,56.387,67.099,55.26C65.757,54.134,65.087,52.798,65.087,51.256L65.087,34.171C65.087,32.629,65.757,31.293,67.099,30.166C68.441,29.04,70.03,28.475,71.866,28.475L98.985,28.475C100.821,28.475,102.411,29.04,103.751,30.166C105.095,31.294,105.765,32.629,105.765,34.171L105.765,51.256C105.765,52.798,105.095,54.134,103.754,55.26C102.411,56.387,100.822,56.951,98.987,56.951ZM105.755,76.273L105.755,121.151C105.755,121.151,113.901,121.813,113.901,128.534L113.901,135.743C113.901,137.12,112.404,142.377,105.755,142.377L62.646,142.377C61.103,142.377,59.769,141.873,58.642,140.868C57.514,139.861,56.951,138.668,56.951,137.291L56.951,126.236C56.951,123.546,58.642,121.151,62.646,121.151L73.128,121.151L73.128,92.521L64.977,92.521C60.352,92.521,56.951,86.803,56.951,85.426L56.951,76.273C56.951,74.896,57.514,73.704,58.642,72.698C59.769,71.692,61.103,71.188,62.646,71.188L100.06,71.188C101.602,71.188,102.936,71.692,104.065,72.698C105.191,73.704,105.755,74.896,105.755,76.273ZM105.755,76.273"/>
</g>
  <g id="Black-M" transform="matrix(1.0,0.0,0.0,1.0,2868.4582322015976,1022.9589293056861)">  <path stroke-miterlimit="4" stroke-linejoin="miter" fill="#000000" stroke="none" fill-rule="evenodd" stroke-width="1px" stroke-opacity="1" clip-rule="evenodd" stroke-dasharray="none" stroke-linecap="butt" fill-opacity="1" d="M76.734,44.148L55.71,44.148C54.287,44.148,53.055,43.711,52.015,42.837C50.975,41.964,50.455,40.929,50.455,39.733L50.455,26.489C50.455,25.294,50.975,24.258,52.015,23.385C53.055,22.512,54.287,22.074,55.71,22.074L76.732,22.074C78.155,22.074,79.388,22.512,80.427,23.385C81.469,24.259,81.989,25.294,81.989,26.489L81.989,39.733C81.989,40.929,81.469,41.964,80.43,42.837C79.388,43.711,78.157,44.148,76.734,44.148ZM81.98,59.126L81.98,93.916C81.98,93.916,88.296,94.428,88.296,99.639L88.296,105.227C88.296,106.295,87.135,110.37,81.98,110.37L48.563,110.37C47.367,110.37,46.332,109.979,45.459,109.2C44.585,108.419,44.148,107.494,44.148,106.427L44.148,97.858C44.148,95.772,45.459,93.916,48.563,93.916L56.689,93.916L56.689,71.722L50.37,71.722C46.785,71.722,44.148,67.289,44.148,66.222L44.148,59.126C44.148,58.059,44.585,57.135,45.459,56.355C46.332,55.575,47.367,55.185,48.563,55.185L77.566,55.185C78.761,55.185,79.796,55.575,80.67,56.355C81.543,57.135,81.98,58.059,81.98,59.126ZM81.98,59.126"/>
</g>
  <g id="Heavy-M" transform="matrix(1.0,0.0,0.0,1.0,2571.7482322015976,1022.9589293056861)">  <path clip-rule="evenodd" stroke-linejoin="miter" fill="#000000" stroke-linecap="butt" fill-opacity="1" stroke-opacity="1" stroke-miterlimit="4" fill-rule="evenodd" stroke-width="1px" stroke="none" stroke-dasharray="none" d="M76.734,44.148L55.71,44.148C54.287,44.148,53.055,43.711,52.015,42.837C50.975,41.964,50.455,40.929,50.455,39.733L50.455,26.489C50.455,25.294,50.975,24.258,52.015,23.385C53.055,22.512,54.287,22.074,55.71,22.074L76.732,22.074C78.155,22.074,79.388,22.512,80.427,23.385C81.469,24.259,81.989,25.294,81.989,26.489L81.989,39.733C81.989,40.929,81.469,41.964,80.43,42.837C79.388,43.711,78.157,44.148,76.734,44.148ZM81.98,59.126L81.98,93.916C81.98,93.916,88.296,94.428,88.296,99.639L88.296,105.227C88.296,106.295,87.135,110.37,81.98,110.37L48.563,110.37C47.367,110.37,46.332,109.979,45.459,109.2C44.585,108.419,44.148,107.494,44.148,106.427L44.148,97.858C44.148,95.772,45.459,93.916,48.563,93.916L56.689,93.916L56.689,71.722L50.37,71.722C46.785,71.722,44.148,67.289,44.148,66.222L44.148,59.126C44.148,58.059,44.585,57.135,45.459,56.355C46.332,55.575,47.367,55.185,48.563,55.185L77.566,55.185C78.761,55.185,79.796,55.575,80.67,56.355C81.543,57.135,81.98,58.059,81.98,59.126ZM81.98,59.126"/>
</g>
  <g id="Bold-M" transform="matrix(1.0,0.0,0.0,1.0,2275.0382322015976,1022.9589293056861)">  <path stroke-linecap="butt" stroke="none" stroke-miterlimit="4" stroke-opacity="1" stroke-linejoin="miter" stroke-dasharray="none" fill="#000000" fill-rule="evenodd" clip-rule="evenodd" stroke-width="1px" fill-opacity="1" d="M76.734,44.148L55.71,44.148C54.287,44.148,53.055,43.711,52.015,42.837C50.975,41.964,50.455,40.929,50.455,39.733L50.455,26.489C50.455,25.294,50.975,24.258,52.015,23.385C53.055,22.512,54.287,22.074,55.71,22.074L76.732,22.074C78.155,22.074,79.388,22.512,80.427,23.385C81.469,24.259,81.989,25.294,81.989,26.489L81.989,39.733C81.989,40.929,81.469,41.964,80.43,42.837C79.388,43.711,78.157,44.148,76.734,44.148ZM81.98,59.126L81.98,93.916C81.98,93.916,88.296,94.428,88.296,99.639L88.296,105.227C88.296,106.295,87.135,110.37,81.98,110.37L48.563,110.37C47.367,110.37,46.332,109.979,45.459,109.2C44.585,108.419,44.148,107.494,44.148,106.427L44.148,97.858C44.148,95.772,45.459,93.916,48.563,93.916L56.689,93.916L56.689,71.722L50.37,71.722C46.785,71.722,44.148,67.289,44.148,66.222L44.148,59.126C44.148,58.059,44.585,57.135,45.459,56.355C46.332,55.575,47.367,55.185,48.563,55.185L77.566,55.185C78.761,55.185,79.796,55.575,80.67,56.355C81.543,57.135,81.98,58.059,81.98,59.126ZM81.98,59.126"/>
</g>
  <g id="Semibold-M" transform="matrix(1.0,0.0,0.0,1.0,1978.3282322015978,1022.9589293056861)">  <path stroke-linejoin="miter" fill-rule="evenodd" stroke-dasharray="none" fill="#000000" fill-opacity="1" stroke="none" clip-rule="evenodd" stroke-width="1px" stroke-miterlimit="4" stroke-opacity="1" stroke-linecap="butt" d="M76.734,44.148L55.71,44.148C54.287,44.148,53.055,43.711,52.015,42.837C50.975,41.964,50.455,40.929,50.455,39.733L50.455,26.489C50.455,25.294,50.975,24.258,52.015,23.385C53.055,22.512,54.287,22.074,55.71,22.074L76.732,22.074C78.155,22.074,79.388,22.512,80.427,23.385C81.469,24.259,81.989,25.294,81.989,26.489L81.989,39.733C81.989,40.929,81.469,41.964,80.43,42.837C79.388,43.711,78.157,44.148,76.734,44.148ZM81.98,59.126L81.98,93.916C81.98,93.916,88.296,94.428,88.296,99.639L88.296,105.227C88.296,106.295,87.135,110.37,81.98,110.37L48.563,110.37C47.367,110.37,46.332,109.979,45.459,109.2C44.585,108.419,44.148,107.494,44.148,106.427L44.148,97.858C44.148,95.772,45.459,93.916,48.563,93.916L56.689,93.916L56.689,71.722L50.37,71.722C46.785,71.722,44.148,67.289,44.148,66.222L44.148,59.126C44.148,58.059,44.585,57.135,45.459,56.355C46.332,55.575,47.367,55.185,48.563,55.185L77.566,55.185C78.761,55.185,79.796,55.575,80.67,56.355C81.543,57.135,81.98,58.059,81.98,59.126ZM81.98,59.126"/>
</g>
  <g id="Medium-M" transform="matrix(1.0,0.0,0.0,1.0,1681.6182322015977,1022.9589293056861)">  <path fill="#000000" stroke="none" stroke-linejoin="miter" clip-rule="evenodd" stroke-width="1px" fill-opacity="1" stroke-linecap="butt" fill-rule="evenodd" stroke-opacity="1" stroke-miterlimit="4" stroke-dasharray="none" d="M76.734,44.148L55.71,44.148C54.287,44.148,53.055,43.711,52.015,42.837C50.975,41.964,50.455,40.929,50.455,39.733L50.455,26.489C50.455,25.294,50.975,24.258,52.015,23.385C53.055,22.512,54.287,22.074,55.71,22.074L76.732,22.074C78.155,22.074,79.388,22.512,80.427,23.385C81.469,24.259,81.989,25.294,81.989,26.489L81.989,39.733C81.989,40.929,81.469,41.964,80.43,42.837C79.388,43.711,78.157,44.148,76.734,44.148ZM81.98,59.126L81.98,93.916C81.98,93.916,88.296,94.428,88.296,99.639L88.296,105.227C88.296,106.295,87.135,110.37,81.98,110.37L48.563,110.37C47.367,110.37,46.332,109.979,45.459,109.2C44.585,108.419,44.148,107.494,44.148,106.427L44.148,97.858C44.148,95.772,45.459,93.916,48.563,93.916L56.689,93.916L56.689,71.722L50.37,71.722C46.785,71.722,44.148,67.289,44.148,66.222L44.148,59.126C44.148,58.059,44.585,57.135,45.459,56.355C46.332,55.575,47.367,55.185,48.563,55.185L77.566,55.185C78.761,55.185,79.796,55.575,80.67,56.355C81.543,57.135,81.98,58.059,81.98,59.126ZM81.98,59.126"/>
</g>
  <g id="Regular-M" transform="matrix(1.0,0.0,0.0,1.0,1384.9082322015977,1022.9589293056861)">  <path stroke-linecap="butt" stroke-opacity="1" stroke-miterlimit="4" stroke-linejoin="miter" stroke-width="1px" fill="#000000" stroke="none" clip-rule="evenodd" fill-opacity="1" fill-rule="evenodd" stroke-dasharray="none" d="M76.734,44.148L55.71,44.148C54.287,44.148,53.055,43.711,52.015,42.837C50.975,41.964,50.455,40.929,50.455,39.733L50.455,26.489C50.455,25.294,50.975,24.258,52.015,23.385C53.055,22.512,54.287,22.074,55.71,22.074L76.732,22.074C78.155,22.074,79.388,22.512,80.427,23.385C81.469,24.259,81.989,25.294,81.989,26.489L81.989,39.733C81.989,40.929,81.469,41.964,80.43,42.837C79.388,43.711,78.157,44.148,76.734,44.148ZM81.98,59.126L81.98,93.916C81.98,93.916,88.296,94.428,88.296,99.639L88.296,105.227C88.296,106.295,87.135,110.37,81.98,110.37L48.563,110.37C47.367,110.37,46.332,109.979,45.459,109.2C44.585,108.419,44.148,107.494,44.148,106.427L44.148,97.858C44.148,95.772,45.459,93.916,48.563,93.916L56.689,93.916L56.689,71.722L50.37,71.722C46.785,71.722,44.148,67.289,44.148,66.222L44.148,59.126C44.148,58.059,44.585,57.135,45.459,56.355C46.332,55.575,47.367,55.185,48.563,55.185L77.566,55.185C78.761,55.185,79.796,55.575,80.67,56.355C81.543,57.135,81.98,58.059,81.98,59.126ZM81.98,59.126"/>
</g>
  <g id="Light-M" transform="matrix(1.0,0.0,0.0,1.0,1088.1982322015979,1022.9589293056861)">  <path stroke-dasharray="none" fill-rule="evenodd" stroke-linejoin="miter" stroke-opacity="1" stroke-width="1px" stroke="none" stroke-linecap="butt" fill-opacity="1" stroke-miterlimit="4" fill="#000000" clip-rule="evenodd" d="M76.734,44.148L55.71,44.148C54.287,44.148,53.055,43.711,52.015,42.837C50.975,41.964,50.455,40.929,50.455,39.733L50.455,26.489C50.455,25.294,50.975,24.258,52.015,23.385C53.055,22.512,54.287,22.074,55.71,22.074L76.732,22.074C78.155,22.074,79.388,22.512,80.427,23.385C81.469,24.259,81.989,25.294,81.989,26.489L81.989,39.733C81.989,40.929,81.469,41.964,80.43,42.837C79.388,43.711,78.157,44.148,76.734,44.148ZM81.98,59.126L81.98,93.916C81.98,93.916,88.296,94.428,88.296,99.639L88.296,105.227C88.296,106.295,87.135,110.37,81.98,110.37L48.563,110.37C47.367,110.37,46.332,109.979,45.459,109.2C44.585,108.419,44.148,107.494,44.148,106.427L44.148,97.858C44.148,95.772,45.459,93.916,48.563,93.916L56.689,93.916L56.689,71.722L50.37,71.722C46.785,71.722,44.148,67.289,44.148,66.222L44.148,59.126C44.148,58.059,44.585,57.135,45.459,56.355C46.332,55.575,47.367,55.185,48.563,55.185L77.566,55.185C78.761,55.185,79.796,55.575,80.67,56.355C81.543,57.135,81.98,58.059,81.98,59.126ZM81.98,59.126"/>
</g>
  <g id="Thin-M" transform="matrix(1.0,0.0,0.0,1.0,791.4882322015978,1022.9589293056861)">  <path fill-rule="evenodd" fill-opacity="1" stroke-linecap="butt" stroke-width="1px" clip-rule="evenodd" stroke="none" stroke-linejoin="miter" fill="#000000" stroke-opacity="1" stroke-dasharray="none" stroke-miterlimit="4" d="M76.734,44.148L55.71,44.148C54.287,44.148,53.055,43.711,52.015,42.837C50.975,41.964,50.455,40.929,50.455,39.733L50.455,26.489C50.455,25.294,50.975,24.258,52.015,23.385C53.055,22.512,54.287,22.074,55.71,22.074L76.732,22.074C78.155,22.074,79.388,22.512,80.427,23.385C81.469,24.259,81.989,25.294,81.989,26.489L81.989,39.733C81.989,40.929,81.469,41.964,80.43,42.837C79.388,43.711,78.157,44.148,76.734,44.148ZM81.98,59.126L81.98,93.916C81.98,93.916,88.296,94.428,88.296,99.639L88.296,105.227C88.296,106.295,87.135,110.37,81.98,110.37L48.563,110.37C47.367,110.37,46.332,109.979,45.459,109.2C44.585,108.419,44.148,107.494,44.148,106.427L44.148,97.858C44.148,95.772,45.459,93.916,48.563,93.916L56.689,93.916L56.689,71.722L50.37,71.722C46.785,71.722,44.148,67.289,44.148,66.222L44.148,59.126C44.148,58.059,44.585,57.135,45.459,56.355C46.332,55.575,47.367,55.185,48.563,55.185L77.566,55.185C78.761,55.185,79.796,55.575,80.67,56.355C81.543,57.135,81.98,58.059,81.98,59.126ZM81.98,59.126"/>
</g>
  <g id="Ultralight-M" transform="matrix(1.0,0.0,0.0,1.0,494.77823220159775,1022.9589293056861)">  <path clip-rule="evenodd" stroke-dasharray="none" fill="#000000" stroke-miterlimit="4" fill-rule="evenodd" fill-opacity="1" stroke-linejoin="miter" stroke-opacity="1" stroke-width="1px" stroke="none" stroke-linecap="butt" d="M76.734,44.148L55.71,44.148C54.287,44.148,53.055,43.711,52.015,42.837C50.975,41.964,50.455,40.929,50.455,39.733L50.455,26.489C50.455,25.294,50.975,24.258,52.015,23.385C53.055,22.512,54.287,22.074,55.71,22.074L76.732,22.074C78.155,22.074,79.388,22.512,80.427,23.385C81.469,24.259,81.989,25.294,81.989,26.489L81.989,39.733C81.989,40.929,81.469,41.964,80.43,42.837C79.388,43.711,78.157,44.148,76.734,44.148ZM81.98,59.126L81.98,93.916C81.98,93.916,88.296,94.428,88.296,99.639L88.296,105.227C88.296,106.295,87.135,110.37,81.98,110.37L48.563,110.37C47.367,110.37,46.332,109.979,45.459,109.2C44.585,108.419,44.148,107.494,44.148,106.427L44.148,97.858C44.148,95.772,45.459,93.916,48.563,93.916L56.689,93.916L56.689,71.722L50.37,71.722C46.785,71.722,44.148,67.289,44.148,66.222L44.148,59.126C44.148,58.059,44.585,57.135,45.459,56.355C46.332,55.575,47.367,55.185,48.563,55.185L77.566,55.185C78.761,55.185,79.796,55.575,80.67,56.355C81.543,57.135,81.98,58.059,81.98,59.126ZM81.98,59.126"/>
</g>
  <g id="Black-S" transform="matrix(1.0,0.0,0.0,1.0,2882.828355813851,607.6739358846335)">  <path stroke-miterlimit="4" stroke-linejoin="miter" fill="#000000" stroke="none" fill-rule="evenodd" stroke-width="1px" stroke-opacity="1" clip-rule="evenodd" stroke-dasharray="none" stroke-linecap="butt" fill-opacity="1" d="M60.083,34.568L43.621,34.568C42.507,34.568,41.542,34.226,40.728,33.542C39.913,32.858,39.506,32.047,39.506,31.111L39.506,20.741C39.506,19.805,39.913,18.994,40.728,18.31C41.542,17.627,42.507,17.284,43.621,17.284L60.081,17.284C61.196,17.284,62.161,17.627,62.975,18.31C63.79,18.995,64.197,19.805,64.197,20.741L64.197,31.111C64.197,32.047,63.79,32.858,62.976,33.542C62.161,34.226,61.197,34.568,60.083,34.568ZM64.191,46.296L64.191,73.536C64.191,73.536,69.136,73.937,69.136,78.017L69.136,82.393C69.136,83.229,68.227,86.419,64.191,86.419L38.024,86.419C37.088,86.419,36.278,86.113,35.594,85.504C34.91,84.892,34.568,84.168,34.568,83.333L34.568,76.622C34.568,74.99,35.594,73.536,38.024,73.536L44.387,73.536L44.387,56.158L39.439,56.158C36.632,56.158,34.568,52.687,34.568,51.852L34.568,46.296C34.568,45.46,34.91,44.737,35.594,44.126C36.278,43.515,37.088,43.21,38.024,43.21L60.734,43.21C61.67,43.21,62.48,43.515,63.165,44.126C63.848,44.737,64.191,45.46,64.191,46.296ZM64.191,46.296"/>
</g>
  <g id="Heavy-S" transform="matrix(1.0,0.0,0.0,1.0,2586.118355813851,607.6739358846335)">  <path clip-rule="evenodd" stroke-linejoin="miter" fill="#000000" stroke-linecap="butt" fill-opacity="1" stroke-opacity="1" stroke-miterlimit="4" fill-rule="evenodd" stroke-width="1px" stroke="none" stroke-dasharray="none" d="M60.083,34.568L43.621,34.568C42.507,34.568,41.542,34.226,40.728,33.542C39.913,32.858,39.506,32.047,39.506,31.111L39.506,20.741C39.506,19.805,39.913,18.994,40.728,18.31C41.542,17.627,42.507,17.284,43.621,17.284L60.081,17.284C61.196,17.284,62.161,17.627,62.975,18.31C63.79,18.995,64.197,19.805,64.197,20.741L64.197,31.111C64.197,32.047,63.79,32.858,62.976,33.542C62.161,34.226,61.197,34.568,60.083,34.568ZM64.191,46.296L64.191,73.536C64.191,73.536,69.136,73.937,69.136,78.017L69.136,82.393C69.136,83.229,68.227,86.419,64.191,86.419L38.024,86.419C37.088,86.419,36.278,86.113,35.594,85.504C34.91,84.892,34.568,84.168,34.568,83.333L34.568,76.622C34.568,74.99,35.594,73.536,38.024,73.536L44.387,73.536L44.387,56.158L39.439,56.158C36.632,56.158,34.568,52.687,34.568,51.852L34.568,46.296C34.568,45.46,34.91,44.737,35.594,44.126C36.278,43.515,37.088,43.21,38.024,43.21L60.734,43.21C61.67,43.21,62.48,43.515,63.165,44.126C63.848,44.737,64.191,45.46,64.191,46.296ZM64.191,46.296"/>
</g>
  <g id="Bold-S" transform="matrix(1.0,0.0,0.0,1.0,2289.408355813851,607.6739358846335)">  <path stroke-linecap="butt" stroke="none" stroke-miterlimit="4" stroke-opacity="1" stroke-linejoin="miter" stroke-dasharray="none" fill="#000000" fill-rule="evenodd" clip-rule="evenodd" stroke-width="1px" fill-opacity="1" d="M60.083,34.568L43.621,34.568C42.507,34.568,41.542,34.226,40.728,33.542C39.913,32.858,39.506,32.047,39.506,31.111L39.506,20.741C39.506,19.805,39.913,18.994,40.728,18.31C41.542,17.627,42.507,17.284,43.621,17.284L60.081,17.284C61.196,17.284,62.161,17.627,62.975,18.31C63.79,18.995,64.197,19.805,64.197,20.741L64.197,31.111C64.197,32.047,63.79,32.858,62.976,33.542C62.161,34.226,61.197,34.568,60.083,34.568ZM64.191,46.296L64.191,73.536C64.191,73.536,69.136,73.937,69.136,78.017L69.136,82.393C69.136,83.229,68.227,86.419,64.191,86.419L38.024,86.419C37.088,86.419,36.278,86.113,35.594,85.504C34.91,84.892,34.568,84.168,34.568,83.333L34.568,76.622C34.568,74.99,35.594,73.536,38.024,73.536L44.387,73.536L44.387,56.158L39.439,56.158C36.632,56.158,34.568,52.687,34.568,51.852L34.568,46.296C34.568,45.46,34.91,44.737,35.594,44.126C36.278,43.515,37.088,43.21,38.024,43.21L60.734,43.21C61.67,43.21,62.48,43.515,63.165,44.126C63.848,44.737,64.191,45.46,64.191,46.296ZM64.191,46.296"/>
</g>
  <g id="Semibold-S" transform="matrix(1.0,0.0,0.0,1.0,1992.698355813851,607.6739358846335)">  <path stroke-linejoin="miter" fill-rule="evenodd" stroke-dasharray="none" fill="#000000" fill-opacity="1" stroke="none" clip-rule="evenodd" stroke-width="1px" stroke-miterlimit="4" stroke-opacity="1" stroke-linecap="butt" d="M60.083,34.568L43.621,34.568C42.507,34.568,41.542,34.226,40.728,33.542C39.913,32.858,39.506,32.047,39.506,31.111L39.506,20.741C39.506,19.805,39.913,18.994,40.728,18.31C41.542,17.627,42.507,17.284,43.621,17.284L60.081,17.284C61.196,17.284,62.161,17.627,62.975,18.31C63.79,18.995,64.197,19.805,64.197,20.741L64.197,31.111C64.197,32.047,63.79,32.858,62.976,33.542C62.161,34.226,61.197,34.568,60.083,34.568ZM64.191,46.296L64.191,73.536C64.191,73.536,69.136,73.937,69.136,78.017L69.136,82.393C69.136,83.229,68.227,86.419,64.191,86.419L38.024,86.419C37.088,86.419,36.278,86.113,35.594,85.504C34.91,84.892,34.568,84.168,34.568,83.333L34.568,76.622C34.568,74.99,35.594,73.536,38.024,73.536L44.387,73.536L44.387,56.158L39.439,56.158C36.632,56.158,34.568,52.687,34.568,51.852L34.568,46.296C34.568,45.46,34.91,44.737,35.594,44.126C36.278,43.515,37.088,43.21,38.024,43.21L60.734,43.21C61.67,43.21,62.48,43.515,63.165,44.126C63.848,44.737,64.191,45.46,64.191,46.296ZM64.191,46.296"/>
</g>
  <g id="Medium-S" transform="matrix(1.0,0.0,0.0,1.0,1695.988355813851,607.6739358846335)">  <path fill="#000000" stroke="none" stroke-linejoin="miter" clip-rule="evenodd" stroke-width="1px" fill-opacity="1" stroke-linecap="butt" fill-rule="evenodd" stroke-opacity="1" stroke-miterlimit="4" stroke-dasharray="none" d="M60.083,34.568L43.621,34.568C42.507,34.568,41.542,34.226,40.728,33.542C39.913,32.858,39.506,32.047,39.506,31.111L39.506,20.741C39.506,19.805,39.913,18.994,40.728,18.31C41.542,17.627,42.507,17.284,43.621,17.284L60.081,17.284C61.196,17.284,62.161,17.627,62.975,18.31C63.79,18.995,64.197,19.805,64.197,20.741L64.197,31.111C64.197,32.047,63.79,32.858,62.976,33.542C62.161,34.226,61.197,34.568,60.083,34.568ZM64.191,46.296L64.191,73.536C64.191,73.536,69.136,73.937,69.136,78.017L69.136,82.393C69.136,83.229,68.227,86.419,64.191,86.419L38.024,86.419C37.088,86.419,36.278,86.113,35.594,85.504C34.91,84.892,34.568,84.168,34.568,83.333L34.568,76.622C34.568,74.99,35.594,73.536,38.024,73.536L44.387,73.536L44.387,56.158L39.439,56.158C36.632,56.158,34.568,52.687,34.568,51.852L34.568,46.296C34.568,45.46,34.91,44.737,35.594,44.126C36.278,43.515,37.088,43.21,38.024,43.21L60.734,43.21C61.67,43.21,62.48,43.515,63.165,44.126C63.848,44.737,64.191,45.46,64.191,46.296ZM64.191,46.296"/>
</g>
  <g id="Regular-S" transform="matrix(1.0,0.0,0.0,1.0,1399.278355813851,607.6739358846335)">  <path stroke-linecap="butt" stroke-opacity="1" stroke-miterlimit="4" stroke-linejoin="miter" stroke-width="1px" fill="#000000" stroke="none" clip-rule="evenodd" fill-opacity="1" fill-rule="evenodd" stroke-dasharray="none" d="M60.083,34.568L43.621,34.568C42.507,34.568,41.542,34.226,40.728,33.542C39.913,32.858,39.506,32.047,39.506,31.111L39.506,20.741C39.506,19.805,39.913,18.994,40.728,18.31C41.542,17.627,42.507,17.284,43.621,17.284L60.081,17.284C61.196,17.284,62.161,17.627,62.975,18.31C63.79,18.995,64.197,19.805,64.197,20.741L64.197,31.111C64.197,32.047,63.79,32.858,62.976,33.542C62.161,34.226,61.197,34.568,60.083,34.568ZM64.191,46.296L64.191,73.536C64.191,73.536,69.136,73.937,69.136,78.017L69.136,82.393C69.136,83.229,68.227,86.419,64.191,86.419L38.024,86.419C37.088,86.419,36.278,86.113,35.594,85.504C34.91,84.892,34.568,84.168,34.568,83.333L34.568,76.622C34.568,74.99,35.594,73.536,38.024,73.536L44.387,73.536L44.387,56.158L39.439,56.158C36.632,56.158,34.568,52.687,34.568,51.852L34.568,46.296C34.568,45.46,34.91,44.737,35.594,44.126C36.278,43.515,37.088,43.21,38.024,43.21L60.734,43.21C61.67,43.21,62.48,43.515,63.165,44.126C63.848,44.737,64.191,45.46,64.191,46.296ZM64.191,46.296"/>
</g>
  <g id="Light-S" transform="matrix(1.0,0.0,0.0,1.0,1102.5683558138512,607.6739358846335)">  <path stroke-dasharray="none" fill-rule="evenodd" stroke-linejoin="miter" stroke-opacity="1" stroke-width="1px" stroke="none" stroke-linecap="butt" fill-opacity="1" stroke-miterlimit="4" fill="#000000" clip-rule="evenodd" d="M60.083,34.568L43.621,34.568C42.507,34.568,41.542,34.226,40.728,33.542C39.913,32.858,39.506,32.047,39.506,31.111L39.506,20.741C39.506,19.805,39.913,18.994,40.728,18.31C41.542,17.627,42.507,17.284,43.621,17.284L60.081,17.284C61.196,17.284,62.161,17.627,62.975,18.31C63.79,18.995,64.197,19.805,64.197,20.741L64.197,31.111C64.197,32.047,63.79,32.858,62.976,33.542C62.161,34.226,61.197,34.568,60.083,34.568ZM64.191,46.296L64.191,73.536C64.191,73.536,69.136,73.937,69.136,78.017L69.136,82.393C69.136,83.229,68.227,86.419,64.191,86.419L38.024,86.419C37.088,86.419,36.278,86.113,35.594,85.504C34.91,84.892,34.568,84.168,34.568,83.333L34.568,76.622C34.568,74.99,35.594,73.536,38.024,73.536L44.387,73.536L44.387,56.158L39.439,56.158C36.632,56.158,34.568,52.687,34.568,51.852L34.568,46.296C34.568,45.46,34.91,44.737,35.594,44.126C36.278,43.515,37.088,43.21,38.024,43.21L60.734,43.21C61.67,43.21,62.48,43.515,63.165,44.126C63.848,44.737,64.191,45.46,64.191,46.296ZM64.191,46.296"/>
</g>
  <g id="Thin-S" transform="matrix(1.0,0.0,0.0,1.0,805.8583558138511,607.6739358846335)">  <path fill-rule="evenodd" fill-opacity="1" stroke-linecap="butt" stroke-width="1px" clip-rule="evenodd" stroke="none" stroke-linejoin="miter" fill="#000000" stroke-opacity="1" stroke-dasharray="none" stroke-miterlimit="4" d="M60.083,34.568L43.621,34.568C42.507,34.568,41.542,34.226,40.728,33.542C39.913,32.858,39.506,32.047,39.506,31.111L39.506,20.741C39.506,19.805,39.913,18.994,40.728,18.31C41.542,17.627,42.507,17.284,43.621,17.284L60.081,17.284C61.196,17.284,62.161,17.627,62.975,18.31C63.79,18.995,64.197,19.805,64.197,20.741L64.197,31.111C64.197,32.047,63.79,32.858,62.976,33.542C62.161,34.226,61.197,34.568,60.083,34.568ZM64.191,46.296L64.191,73.536C64.191,73.536,69.136,73.937,69.136,78.017L69.136,82.393C69.136,83.229,68.227,86.419,64.191,86.419L38.024,86.419C37.088,86.419,36.278,86.113,35.594,85.504C34.91,84.892,34.568,84.168,34.568,83.333L34.568,76.622C34.568,74.99,35.594,73.536,38.024,73.536L44.387,73.536L44.387,56.158L39.439,56.158C36.632,56.158,34.568,52.687,34.568,51.852L34.568,46.296C34.568,45.46,34.91,44.737,35.594,44.126C36.278,43.515,37.088,43.21,38.024,43.21L60.734,43.21C61.67,43.21,62.48,43.515,63.165,44.126C63.848,44.737,64.191,45.46,64.191,46.296ZM64.191,46.296"/>
</g>
  <g id="Ultralight-S" transform="matrix(1.0,0.0,0.0,1.0,509.148355813851,607.6739358846335)">  <path clip-rule="evenodd" stroke-dasharray="none" fill="#000000" stroke-miterlimit="4" fill-rule="evenodd" fill-opacity="1" stroke-linejoin="miter" stroke-opacity="1" stroke-width="1px" stroke="none" stroke-linecap="butt" d="M60.083,34.568L43.621,34.568C42.507,34.568,41.542,34.226,40.728,33.542C39.913,32.858,39.506,32.047,39.506,31.111L39.506,20.741C39.506,19.805,39.913,18.994,40.728,18.31C41.542,17.627,42.507,17.284,43.621,17.284L60.081,17.284C61.196,17.284,62.161,17.627,62.975,18.31C63.79,18.995,64.197,19.805,64.197,20.741L64.197,31.111C64.197,32.047,63.79,32.858,62.976,33.542C62.161,34.226,61.197,34.568,60.083,34.568ZM64.191,46.296L64.191,73.536C64.191,73.536,69.136,73.937,69.136,78.017L69.136,82.393C69.136,83.229,68.227,86.419,64.191,86.419L38.024,86.419C37.088,86.419,36.278,86.113,35.594,85.504C34.91,84.892,34.568,84.168,34.568,83.333L34.568,76.622C34.568,74.99,35.594,73.536,38.024,73.536L44.387,73.536L44.387,56.158L39.439,56.158C36.632,56.158,34.568,52.687,34.568,51.852L34.568,46.296C34.568,45.46,34.91,44.737,35.594,44.126C36.278,43.515,37.088,43.21,38.024,43.21L60.734,43.21C61.67,43.21,62.48,43.515,63.165,44.126C63.848,44.737,64.191,45.46,64.191,46.296ZM64.191,46.296"/>
</g>
 </g>
</svg>
