<?xml version="1.0" encoding="UTF-8"?>
<!-- Generator: CustomSymbols v2.6.1.40 by @serious_bret https://bretlester.com/app_content/CustomSymbols/ -->
<!-- Guides: Left/Right 0.079/0.081 Cap/Base 0.193/0.169 -->
<!-- Settings: RefScale 1.0 Min/Max Stroke Scales 0.5/2.21 -->
<!DOCTYPE svg
PUBLIC "-//W3C//DTD SVG 1.1//EN"
       "http://www.w3.org/Graphics/SVG/1.1/DTD/svg11.dtd">
<svg version="1.1" xmlns="http://www.w3.org/2000/svg" xmlns:xlink="http://www.w3.org/1999/xlink" width="3300" height="2200">
<![CDATA[<svg width="24" height="24" viewBox="0 0 24 24" fill="none" xmlns="http://www.w3.org/2000/svg">
<path fill-rule="evenodd" clip-rule="evenodd" d="M14.2237 17.0075H10.175C9.90873 17.0075 9.69373 16.7562 9.69373 16.4475C9.69373 16.1387 9.90873 15.8875 10.175 15.8875L10.95 15.75V12L10.175 11.855C9.90873 11.855 9.69373 11.6037 9.69373 11.295C9.69373 10.9862 9.90873 10.735 10.175 10.735H13.3175C13.4137 10.735 13.445 10.695 13.4587 10.6625C13.455 10.6812 13.45 10.6987 13.45 10.75V15.75L14.2237 15.8875C14.49 15.8875 14.7062 16.1387 14.7062 16.4475C14.7062 16.7562 14.49 17.0075 14.2237 17.0075Z" fill="black"/>
<path fill-rule="evenodd" clip-rule="evenodd" d="M10.95 7H12.175C12.1837 7 12.1912 6.995 12.2 6.995C12.2087 6.995 12.2162 7 12.225 7H13.45V8.175C13.4512 8.2025 13.465 8.225 13.465 8.25125C13.465 8.27875 13.4512 8.30125 13.45 8.3275V9.5H12.2412C12.2262 9.50125 12.2137 9.50875 12.2 9.50875C12.185 9.50875 12.1725 9.50125 12.1587 9.5H10.95V8.32625C10.9475 8.3 10.9337 8.27875 10.9337 8.25125C10.9337 8.225 10.9475 8.2025 10.95 8.17625V7Z" fill="black"/>
<path fill-rule="evenodd" clip-rule="evenodd" d="M22 12C22 6.4775 17.5225 2 12 2C6.47625 2 2 6.4775 2 12C2 17.5225 6.47625 22 12 22C17.5225 22 22 17.5225 22 12ZM4 12C4 7.58161 7.5813 4 12 4C16.4179 4 20 7.58206 20 12C20 16.4179 16.4179 20 12 20C7.5813 20 4 16.4184 4 12Z" fill="black"/>
</svg>
]]>
 <g id="Notes">
  <rect height="2200" id="artboard" style="fill:white;opacity:1" width="3300" x="0" y="0"/>
  <line id="" style="fill:none;stroke:black;opacity:1;stroke-width:0.5;" x1="263" x2="3036" y1="292" y2="292"/>
  <text id="reftext1" style="stroke:none;fill:black;font-family:-apple-system,&quot;SF Pro Display&quot;,&quot;SF Pro Text&quot;,Helvetica,sans-serif;font-weight:bold;" transform="matrix(1 0 0 1 263 322)">Weight/Scale Variations</text>
  <text id="reftext2" style="stroke:none;fill:black;font-family:-apple-system,&quot;SF Pro Display&quot;,&quot;SF Pro Text&quot;,Helvetica,sans-serif;text-anchor:middle;" transform="matrix(1 0 0 1 559.711 322)">Ultralight</text>
  <text style="stroke:none;fill:black;font-family:-apple-system,&quot;SF Pro Display&quot;,&quot;SF Pro Text&quot;,Helvetica,sans-serif;text-anchor:middle;" transform="matrix(1 0 0 1 856.422 322)">Thin</text>
  <text style="stroke:none;fill:black;font-family:-apple-system,&quot;SF Pro Display&quot;,&quot;SF Pro Text&quot;,Helvetica,sans-serif;text-anchor:middle;" transform="matrix(1 0 0 1 1153.13 322)">Light</text>
  <text style="stroke:none;fill:black;font-family:-apple-system,&quot;SF Pro Display&quot;,&quot;SF Pro Text&quot;,Helvetica,sans-serif;text-anchor:middle;" transform="matrix(1 0 0 1 1449.84 322)">Regular</text>
  <text style="stroke:none;fill:black;font-family:-apple-system,&quot;SF Pro Display&quot;,&quot;SF Pro Text&quot;,Helvetica,sans-serif;text-anchor:middle;" transform="matrix(1 0 0 1 1746.56 322)">Medium</text>
  <text style="stroke:none;fill:black;font-family:-apple-system,&quot;SF Pro Display&quot;,&quot;SF Pro Text&quot;,Helvetica,sans-serif;text-anchor:middle;" transform="matrix(1 0 0 1 2043.27 322)">Semibold</text>
  <text style="stroke:none;fill:black;font-family:-apple-system,&quot;SF Pro Display&quot;,&quot;SF Pro Text&quot;,Helvetica,sans-serif;text-anchor:middle;" transform="matrix(1 0 0 1 2339.98 322)">Bold</text>
  <text style="stroke:none;fill:black;font-family:-apple-system,&quot;SF Pro Display&quot;,&quot;SF Pro Text&quot;,Helvetica,sans-serif;text-anchor:middle;" transform="matrix(1 0 0 1 2636.69 322)">Heavy</text>
  <text style="stroke:none;fill:black;font-family:-apple-system,&quot;SF Pro Display&quot;,&quot;SF Pro Text&quot;,Helvetica,sans-serif;text-anchor:middle;" transform="matrix(1 0 0 1 2933.4 322)">Black</text>
  <line id="" style="fill:none;stroke:black;opacity:1;stroke-width:0.5;" x1="263" x2="3036" y1="1903" y2="1903"/>
  <g id="" transform="matrix(1 0 0 1 263 1933)">
   <path d="M9.24805 0.830078C13.5547 0.830078 17.1387-2.74414 17.1387-7.05078C17.1387-11.3574 13.5449-14.9316 9.23828-14.9316C4.94141-14.9316 1.36719-11.3574 1.36719-7.05078C1.36719-2.74414 4.95117 0.830078 9.24805 0.830078ZM9.24805-0.654297C5.70312-0.654297 2.87109-3.49609 2.87109-7.05078C2.87109-10.6055 5.69336-13.4473 9.23828-13.4473C12.793-13.4473 15.6348-10.6055 15.6445-7.05078C15.6543-3.49609 12.8027-0.654297 9.24805-0.654297ZM6.39648-6.31836L8.50586-6.31836L8.50586-4.19922C8.50586-3.75977 8.79883-3.45703 9.22852-3.45703C9.67773-3.45703 9.9707-3.75977 9.9707-4.19922L9.9707-6.31836L12.0996-6.31836C12.5391-6.31836 12.8418-6.61133 12.8418-7.04102C12.8418-7.48047 12.5391-7.7832 12.0996-7.7832L9.9707-7.7832L9.9707-9.89258C9.9707-10.3418 9.67773-10.6445 9.22852-10.6445C8.79883-10.6445 8.50586-10.3418 8.50586-9.89258L8.50586-7.7832L6.39648-7.7832C5.94727-7.7832 5.64453-7.48047 5.64453-7.04102C5.64453-6.61133 5.94727-6.31836 6.39648-6.31836Z"/>
  </g>
  <g id="" transform="matrix(1 0 0 1 281.506 1933)">
   <path d="M11.709 2.91016C17.1582 2.91016 21.6699-1.61133 21.6699-7.05078C21.6699-12.5 17.1484-17.0117 11.6992-17.0117C6.25977-17.0117 1.74805-12.5 1.74805-7.05078C1.74805-1.61133 6.26953 2.91016 11.709 2.91016ZM11.709 1.25C7.09961 1.25 3.41797-2.44141 3.41797-7.05078C3.41797-11.6602 7.08984-15.3516 11.6992-15.3516C16.3086-15.3516 20-11.6602 20.0098-7.05078C20.0195-2.44141 16.3184 1.25 11.709 1.25ZM7.98828-6.23047L10.8789-6.23047L10.8789-3.32031C10.8789-2.83203 11.2109-2.5 11.6895-2.5C12.1777-2.5 12.5195-2.83203 12.5195-3.32031L12.5195-6.23047L15.4297-6.23047C15.918-6.23047 16.25-6.5625 16.25-7.04102C16.25-7.5293 15.918-7.87109 15.4297-7.87109L12.5195-7.87109L12.5195-10.7617C12.5195-11.2695 12.1777-11.6016 11.6895-11.6016C11.2109-11.6016 10.8789-11.2598 10.8789-10.7617L10.8789-7.87109L7.98828-7.87109C7.48047-7.87109 7.14844-7.5293 7.14844-7.04102C7.14844-6.5625 7.49023-6.23047 7.98828-6.23047Z"/>
  </g>
  <g id="" transform="matrix(1 0 0 1 304.924 1933)">
   <path d="M14.9707 5.66406C21.9336 5.66406 27.6953-0.0976562 27.6953-7.05078C27.6953-14.0137 21.9238-19.7754 14.9609-19.7754C8.00781-19.7754 2.25586-14.0137 2.25586-7.05078C2.25586-0.0976562 8.01758 5.66406 14.9707 5.66406ZM14.9707 3.84766C8.93555 3.84766 4.08203-1.01562 4.08203-7.05078C4.08203-13.0957 8.92578-17.9492 14.9609-17.9492C21.0059-17.9492 25.8594-13.0957 25.8691-7.05078C25.8789-1.01562 21.0156 3.84766 14.9707 3.84766ZM10.0586-6.14258L14.0625-6.14258L14.0625-2.12891C14.0625-1.5918 14.4336-1.2207 14.9512-1.2207C15.4883-1.2207 15.8594-1.5918 15.8594-2.12891L15.8594-6.14258L19.8828-6.14258C20.4102-6.14258 20.791-6.51367 20.791-7.03125C20.791-7.56836 20.4199-7.94922 19.8828-7.94922L15.8594-7.94922L15.8594-11.9531C15.8594-12.5098 15.4883-12.8809 14.9512-12.8809C14.4336-12.8809 14.0625-12.5 14.0625-11.9531L14.0625-7.94922L10.0586-7.94922C9.50195-7.94922 9.13086-7.56836 9.13086-7.03125C9.13086-6.51367 9.51172-6.14258 10.0586-6.14258Z"/>
  </g>
  <text style="stroke:none;fill:black;font-family:-apple-system,&quot;SF Pro Display&quot;,&quot;SF Pro Text&quot;,Helvetica,sans-serif;font-weight:bold;" transform="matrix(1 0 0 1 263 1953)">Design Variations</text>
  <text style="stroke:none;fill:black;font-family:-apple-system,&quot;SF Pro Display&quot;,&quot;SF Pro Text&quot;,Helvetica,sans-serif;" transform="matrix(1 0 0 1 263 1971)">Symbols are supported in up to nine weights and three scales.</text>
  <text style="stroke:none;fill:black;font-family:-apple-system,&quot;SF Pro Display&quot;,&quot;SF Pro Text&quot;,Helvetica,sans-serif;" transform="matrix(1 0 0 1 263 1989)">For optimal layout with text and other symbols, vertically align</text>
  <text style="stroke:none;fill:black;font-family:-apple-system,&quot;SF Pro Display&quot;,&quot;SF Pro Text&quot;,Helvetica,sans-serif;" transform="matrix(1 0 0 1 263 2007)">symbols with the adjacent text.</text>
  <line id="" style="fill:none;stroke:#00AEEF;stroke-width:0.5;opacity:1.0;" x1="776" x2="776" y1="1919" y2="1933"/>
  <g id="" transform="matrix(1 0 0 1 776 1933)">
   <path d="M3.31055 0.126953C3.82812 0.126953 4.08203-0.0683594 4.26758-0.605469L5.52734-4.0625L11.2891-4.0625L12.5488-0.605469C12.7344-0.0683594 12.9883 0.126953 13.4961 0.126953C14.0137 0.126953 14.3457-0.185547 14.3457-0.673828C14.3457-0.839844 14.3164-0.986328 14.2383-1.20117L9.6582-13.3887C9.43359-13.9941 9.0332-14.2871 8.4082-14.2871C7.80273-14.2871 7.39258-13.9941 7.17773-13.3984L2.59766-1.19141C2.51953-0.976562 2.49023-0.830078 2.49023-0.664062C2.49023-0.175781 2.80273 0.126953 3.31055 0.126953ZM6.00586-5.53711L8.37891-12.1094L8.42773-12.1094L10.8008-5.53711Z"/>
  </g>
  <line id="" style="fill:none;stroke:#00AEEF;stroke-width:0.5;opacity:1.0;" x1="792.836" x2="792.836" y1="1919" y2="1933"/>
  <text style="stroke:none;fill:black;font-family:-apple-system,&quot;SF Pro Display&quot;,&quot;SF Pro Text&quot;,Helvetica,sans-serif;font-weight:bold;" transform="matrix(1 0 0 1 776 1953)">Margins</text>
  <text style="stroke:none;fill:black;font-family:-apple-system,&quot;SF Pro Display&quot;,&quot;SF Pro Text&quot;,Helvetica,sans-serif;" transform="matrix(1 0 0 1 776 1971)">Leading and trailing margins on the left and right side of each symbol</text>
  <text style="stroke:none;fill:black;font-family:-apple-system,&quot;SF Pro Display&quot;,&quot;SF Pro Text&quot;,Helvetica,sans-serif;" transform="matrix(1 0 0 1 776 1989)">can be adjusted by modifying the x-location of the margin guidelines.</text>
  <text style="stroke:none;fill:black;font-family:-apple-system,&quot;SF Pro Display&quot;,&quot;SF Pro Text&quot;,Helvetica,sans-serif;" transform="matrix(1 0 0 1 776 2007)">Modifications are automatically applied proportionally to all</text>
  <text style="stroke:none;fill:black;font-family:-apple-system,&quot;SF Pro Display&quot;,&quot;SF Pro Text&quot;,Helvetica,sans-serif;" transform="matrix(1 0 0 1 776 2025)">scales and weights.</text>
  <g id="" transform="matrix(1 0 0 1 1289 1933)">
   <path d="M2.8418 1.86523L4.54102 3.57422C5.40039 4.44336 6.38672 4.38477 7.31445 3.35938L17.4902-7.85156C17.7539-7.76367 18.0273-7.7832 18.3398-7.8418L19.4043-8.03711L20.0684-7.36328L20.0293-6.80664C19.9902-6.30859 20.1172-5.92773 20.6055-5.44922L21.3672-4.70703C21.8457-4.22852 22.4609-4.19922 22.9297-4.66797L25.8398-7.58789C26.3086-8.05664 26.2891-8.65234 25.8105-9.13086L25.0391-9.89258C24.5605-10.3711 24.1895-10.5273 23.7109-10.4883L23.1348-10.4395L22.4902-11.0742L22.7344-12.1973C22.8613-12.7637 22.7051-13.2031 22.1191-13.7891L19.9219-15.9766C16.582-19.2969 12.1484-19.2188 9.25781-16.3281C8.83789-15.918 8.80859-15.3418 9.04297-14.9512C9.27734-14.5898 9.73633-14.3555 10.3809-14.5215C11.8457-14.8633 13.3691-14.9219 14.7949-13.9844L14.209-12.5293C14.0137-12.0508 13.9844-11.6504 14.1113-11.2891L3.04688-0.898438C2.06055 0.0195312 1.98242 0.996094 2.8418 1.86523ZM10.752-15.957C13.1836-17.7344 16.4746-17.4316 18.7012-15.2051L21.1328-12.793C21.3672-12.5586 21.4062-12.373 21.3379-12.0312L21.0156-10.5469L22.5195-9.0625L23.5059-9.12109C23.7598-9.13086 23.8379-9.11133 24.0332-8.91602L24.6094-8.33984L22.168-5.89844L21.5918-6.47461C21.3965-6.66992 21.3672-6.74805 21.377-7.01172L21.4453-7.98828L19.9512-9.47266L18.4277-9.21875C18.1055-9.15039 17.959-9.17969 17.7148-9.41406L15.7129-11.416C15.459-11.6504 15.4297-11.8164 15.5859-12.1875L16.4648-14.2773C14.9023-15.7324 12.8711-16.3574 10.8398-15.7617C10.6836-15.7227 10.625-15.8496 10.752-15.957ZM5.27344 2.30469L4.10156 1.14258C3.63281 0.683594 3.74023 0.341797 4.14062-0.0195312L14.9512-10.1953L16.416-8.71094L6.42578 2.27539C6.07422 2.67578 5.74219 2.77344 5.27344 2.30469Z"/>
  </g>
  <text style="stroke:none;fill:black;font-family:-apple-system,&quot;SF Pro Display&quot;,&quot;SF Pro Text&quot;,Helvetica,sans-serif;font-weight:bold;" transform="matrix(1 0 0 1 1289 1953)">Exporting</text>
  <text style="stroke:none;fill:black;font-family:-apple-system,&quot;SF Pro Display&quot;,&quot;SF Pro Text&quot;,Helvetica,sans-serif;" transform="matrix(1 0 0 1 1289 1971)">Symbols should be outlined when exporting to ensure the</text>
  <text style="stroke:none;fill:black;font-family:-apple-system,&quot;SF Pro Display&quot;,&quot;SF Pro Text&quot;,Helvetica,sans-serif;" transform="matrix(1 0 0 1 1289 1989)">design is preserved when submitting to Xcode.</text>
  <text id="template-version" style="stroke:none;fill:black;font-family:-apple-system,&quot;SF Pro Display&quot;,&quot;SF Pro Text&quot;,Helvetica,sans-serif;text-anchor:end;" transform="matrix(1 0 0 1 3036 1933)">Template v.2.0</text>
  <text style="stroke:none;fill:black;font-family:-apple-system,&quot;SF Pro Display&quot;,&quot;SF Pro Text&quot;,Helvetica,sans-serif;text-anchor:end;" transform="matrix(1 0 0 1 3036 1951)">Requires Xcode 12 or greater</text>
  <text style="stroke:none;fill:black;font-family:-apple-system,&quot;SF Pro Display&quot;,&quot;SF Pro Text&quot;,Helvetica,sans-serif;" transform="matrix(1 0 0 1 263 726)">Small</text>
  <text style="stroke:none;fill:black;font-family:-apple-system,&quot;SF Pro Display&quot;,&quot;SF Pro Text&quot;,Helvetica,sans-serif;" transform="matrix(1 0 0 1 263 1156)">Medium</text>
  <text style="stroke:none;fill:black;font-family:-apple-system,&quot;SF Pro Display&quot;,&quot;SF Pro Text&quot;,Helvetica,sans-serif;" transform="matrix(1 0 0 1 263 1586)">Large</text>
 </g>
 <g id="Guides">
  <g id="H-reference" style="fill:#27AAE1;stroke:none;" transform="matrix(1 0 0 1 339 696)">
   <path d="M0.976562 0L3.66211 0L12.9883-24.4629L45.752-24.4629L55.127 0L57.7637 0L30.6152-70.459L28.125-70.459ZM29.3457-67.1387L29.4434-67.1387L44.873-26.709L13.8672-26.709Z"/>
  </g>
  <line id="Baseline-S" style="fill:none;stroke:#27AAE1;opacity:1;stroke-width:0.5;" x1="263" x2="3036" y1="696" y2="696"/>
  <line id="Capline-S" style="fill:none;stroke:#27AAE1;opacity:1;stroke-width:0.5;" x1="263" x2="3036" y1="625.541" y2="625.541"/>
  <g id="H-reference" style="fill:#27AAE1;stroke:none;" transform="matrix(1 0 0 1 339 1126)">
   <path d="M0.976562 0L3.66211 0L12.9883-24.4629L45.752-24.4629L55.127 0L57.7637 0L30.6152-70.459L28.125-70.459ZM29.3457-67.1387L29.4434-67.1387L44.873-26.709L13.8672-26.709Z"/>
  </g>
  <line id="Baseline-M" style="fill:none;stroke:#27AAE1;opacity:1;stroke-width:0.5;" x1="263" x2="3036" y1="1126" y2="1126"/>
  <line id="Capline-M" style="fill:none;stroke:#27AAE1;opacity:1;stroke-width:0.5;" x1="263" x2="3036" y1="1055.54" y2="1055.54"/>
  <g id="H-reference" style="fill:#27AAE1;stroke:none;" transform="matrix(1 0 0 1 339 1556)">
   <path d="M0.976562 0L3.66211 0L12.9883-24.4629L45.752-24.4629L55.127 0L57.7637 0L30.6152-70.459L28.125-70.459ZM29.3457-67.1387L29.4434-67.1387L44.873-26.709L13.8672-26.709Z"/>
  </g>
  <line id="Baseline-L" style="fill:none;stroke:#27AAE1;opacity:1;stroke-width:0.5;" x1="263" x2="3036" y1="1556" y2="1556"/>
  <line id="Capline-L" style="fill:none;stroke:#27AAE1;opacity:1;stroke-width:0.5;" x1="263" x2="3036" y1="1485.54" y2="1485.54"/>
  <line id="left-margin" x1="1404.6352608860695" x2="1404.6352608860695" y1="1030.79" y2="1150.12" style="fill:none;stroke:#00AEEF;stroke-width:0.5;opacity:1.0;"/>
  <line id="right-margin" x1="1497.4038614934364" x2="1497.4038614934364" y1="1030.79" y2="1150.12" style="fill:none;stroke:#00AEEF;stroke-width:0.5;opacity:1.0;"/>
 </g>
 <g id="Symbols">
  <g id="Black-L" transform="matrix(1.0,0.0,0.0,1.0,2863.446967390772,1447.8273941394004)">  <path stroke-width="1px" fill="#000000" fill-rule="evenodd" stroke="none" clip-rule="evenodd" stroke-dasharray="none" stroke-miterlimit="4" stroke-linejoin="miter" stroke-opacity="1" fill-opacity="1" stroke-linecap="butt" d="M84.433,100.958L60.4,100.958C58.819,100.958,57.543,99.466,57.543,97.634C57.543,95.801,58.819,94.31,60.4,94.31L65,93.493L65,71.233L60.4,70.372C58.819,70.372,57.543,68.881,57.543,67.048C57.543,65.215,58.819,63.724,60.4,63.724L79.054,63.724C79.625,63.724,79.811,63.486,79.892,63.294C79.87,63.405,79.84,63.508,79.84,63.813L79.84,93.493L84.433,94.31C86.014,94.31,87.297,95.801,87.297,97.634C87.297,99.466,86.014,100.958,84.433,100.958ZM84.433,100.958"/>
  <path stroke-linecap="butt" fill-opacity="1" stroke-miterlimit="4" stroke-opacity="1" stroke="none" fill-rule="evenodd" clip-rule="evenodd" stroke-linejoin="miter" stroke-dasharray="none" fill="#000000" stroke-width="1px" d="M65,41.553L72.272,41.553C72.323,41.553,72.368,41.523,72.42,41.523C72.472,41.523,72.516,41.553,72.569,41.553L79.84,41.553L79.84,48.528C79.847,48.691,79.929,48.824,79.929,48.98C79.929,49.143,79.847,49.277,79.84,49.433L79.84,56.393L72.665,56.393C72.576,56.4,72.502,56.445,72.42,56.445C72.331,56.445,72.257,56.4,72.175,56.393L65,56.393L65,49.425C64.985,49.27,64.903,49.143,64.903,48.98C64.903,48.824,64.985,48.691,65,48.535L65,41.553ZM65,41.553"/>
  <path stroke="none" stroke-dasharray="none" fill-opacity="1" stroke-opacity="1" stroke-linecap="butt" fill-rule="evenodd" fill="#000000" stroke-linejoin="miter" stroke-miterlimit="4" clip-rule="evenodd" stroke-width="1px" d="M130.594,71.233C130.594,38.451,104.015,11.872,71.233,11.872C38.444,11.872,11.872,38.451,11.872,71.233C11.872,104.015,38.444,130.594,71.233,130.594C104.015,130.594,130.594,104.015,130.594,71.233ZM23.744,71.233C23.744,45.005,45.003,23.744,71.233,23.744C97.458,23.744,118.722,45.008,118.722,71.233C118.722,97.458,97.458,118.722,71.233,118.722C45.003,118.722,23.744,97.461,23.744,71.233ZM23.744,71.233"/>
</g>
  <g id="Heavy-L" transform="matrix(1.0,0.0,0.0,1.0,2566.736967390772,1447.8273941394004)">  <path fill="#000000" stroke="none" stroke-opacity="1" clip-rule="evenodd" stroke-dasharray="none" fill-opacity="1" stroke-linecap="butt" fill-rule="evenodd" stroke-linejoin="miter" stroke-width="1px" stroke-miterlimit="4" d="M84.433,100.958L60.4,100.958C58.819,100.958,57.543,99.466,57.543,97.634C57.543,95.801,58.819,94.31,60.4,94.31L65,93.493L65,71.233L60.4,70.372C58.819,70.372,57.543,68.881,57.543,67.048C57.543,65.215,58.819,63.724,60.4,63.724L79.054,63.724C79.625,63.724,79.811,63.486,79.892,63.294C79.87,63.405,79.84,63.508,79.84,63.813L79.84,93.493L84.433,94.31C86.014,94.31,87.297,95.801,87.297,97.634C87.297,99.466,86.014,100.958,84.433,100.958ZM84.433,100.958"/>
  <path stroke-linejoin="miter" fill-rule="evenodd" stroke-miterlimit="4" stroke-dasharray="none" stroke="none" stroke-opacity="1" fill-opacity="1" clip-rule="evenodd" fill="#000000" stroke-linecap="butt" stroke-width="1px" d="M65,41.553L72.272,41.553C72.323,41.553,72.368,41.523,72.42,41.523C72.472,41.523,72.516,41.553,72.569,41.553L79.84,41.553L79.84,48.528C79.847,48.691,79.929,48.824,79.929,48.98C79.929,49.143,79.847,49.277,79.84,49.433L79.84,56.393L72.665,56.393C72.576,56.4,72.502,56.445,72.42,56.445C72.331,56.445,72.257,56.4,72.175,56.393L65,56.393L65,49.425C64.985,49.27,64.903,49.143,64.903,48.98C64.903,48.824,64.985,48.691,65,48.535L65,41.553ZM65,41.553"/>
  <path fill-opacity="1" fill="#000000" stroke-width="1px" stroke-opacity="1" stroke-miterlimit="4" clip-rule="evenodd" stroke="none" stroke-linecap="butt" fill-rule="evenodd" stroke-linejoin="miter" stroke-dasharray="none" d="M130.594,71.233C130.594,38.451,104.015,11.872,71.233,11.872C38.444,11.872,11.872,38.451,11.872,71.233C11.872,104.015,38.444,130.594,71.233,130.594C104.015,130.594,130.594,104.015,130.594,71.233ZM23.744,71.233C23.744,45.005,45.003,23.744,71.233,23.744C97.458,23.744,118.722,45.008,118.722,71.233C118.722,97.458,97.458,118.722,71.233,118.722C45.003,118.722,23.744,97.461,23.744,71.233ZM23.744,71.233"/>
</g>
  <g id="Bold-L" transform="matrix(1.0,0.0,0.0,1.0,2270.026967390772,1447.8273941394004)">  <path fill="#000000" stroke-miterlimit="4" stroke-linejoin="miter" fill-rule="evenodd" stroke="none" stroke-opacity="1" clip-rule="evenodd" stroke-width="1px" stroke-dasharray="none" stroke-linecap="butt" fill-opacity="1" d="M84.433,100.958L60.4,100.958C58.819,100.958,57.543,99.466,57.543,97.634C57.543,95.801,58.819,94.31,60.4,94.31L65,93.493L65,71.233L60.4,70.372C58.819,70.372,57.543,68.881,57.543,67.048C57.543,65.215,58.819,63.724,60.4,63.724L79.054,63.724C79.625,63.724,79.811,63.486,79.892,63.294C79.87,63.405,79.84,63.508,79.84,63.813L79.84,93.493L84.433,94.31C86.014,94.31,87.297,95.801,87.297,97.634C87.297,99.466,86.014,100.958,84.433,100.958ZM84.433,100.958"/>
  <path stroke-dasharray="none" fill="#000000" stroke="none" stroke-width="1px" stroke-opacity="1" stroke-linejoin="miter" stroke-linecap="butt" clip-rule="evenodd" fill-rule="evenodd" fill-opacity="1" stroke-miterlimit="4" d="M65,41.553L72.272,41.553C72.323,41.553,72.368,41.523,72.42,41.523C72.472,41.523,72.516,41.553,72.569,41.553L79.84,41.553L79.84,48.528C79.847,48.691,79.929,48.824,79.929,48.98C79.929,49.143,79.847,49.277,79.84,49.433L79.84,56.393L72.665,56.393C72.576,56.4,72.502,56.445,72.42,56.445C72.331,56.445,72.257,56.4,72.175,56.393L65,56.393L65,49.425C64.985,49.27,64.903,49.143,64.903,48.98C64.903,48.824,64.985,48.691,65,48.535L65,41.553ZM65,41.553"/>
  <path clip-rule="evenodd" stroke="none" fill-opacity="1" stroke-width="1px" stroke-linejoin="miter" stroke-opacity="1" stroke-miterlimit="4" fill-rule="evenodd" stroke-dasharray="none" fill="#000000" stroke-linecap="butt" d="M130.594,71.233C130.594,38.451,104.015,11.872,71.233,11.872C38.444,11.872,11.872,38.451,11.872,71.233C11.872,104.015,38.444,130.594,71.233,130.594C104.015,130.594,130.594,104.015,130.594,71.233ZM23.744,71.233C23.744,45.005,45.003,23.744,71.233,23.744C97.458,23.744,118.722,45.008,118.722,71.233C118.722,97.458,97.458,118.722,71.233,118.722C45.003,118.722,23.744,97.461,23.744,71.233ZM23.744,71.233"/>
</g>
  <g id="Semibold-L" transform="matrix(1.0,0.0,0.0,1.0,1973.3169673907719,1447.8273941394004)">  <path stroke-linecap="butt" stroke="none" clip-rule="evenodd" stroke-dasharray="none" stroke-width="1px" fill="#000000" fill-opacity="1" stroke-linejoin="miter" stroke-opacity="1" stroke-miterlimit="4" fill-rule="evenodd" d="M84.433,100.958L60.4,100.958C58.819,100.958,57.543,99.466,57.543,97.634C57.543,95.801,58.819,94.31,60.4,94.31L65,93.493L65,71.233L60.4,70.372C58.819,70.372,57.543,68.881,57.543,67.048C57.543,65.215,58.819,63.724,60.4,63.724L79.054,63.724C79.625,63.724,79.811,63.486,79.892,63.294C79.87,63.405,79.84,63.508,79.84,63.813L79.84,93.493L84.433,94.31C86.014,94.31,87.297,95.801,87.297,97.634C87.297,99.466,86.014,100.958,84.433,100.958ZM84.433,100.958"/>
  <path fill-rule="evenodd" fill="#000000" fill-opacity="1" stroke-miterlimit="4" stroke-linecap="butt" stroke-linejoin="miter" stroke-opacity="1" stroke-dasharray="none" stroke-width="1px" stroke="none" clip-rule="evenodd" d="M65,41.553L72.272,41.553C72.323,41.553,72.368,41.523,72.42,41.523C72.472,41.523,72.516,41.553,72.569,41.553L79.84,41.553L79.84,48.528C79.847,48.691,79.929,48.824,79.929,48.98C79.929,49.143,79.847,49.277,79.84,49.433L79.84,56.393L72.665,56.393C72.576,56.4,72.502,56.445,72.42,56.445C72.331,56.445,72.257,56.4,72.175,56.393L65,56.393L65,49.425C64.985,49.27,64.903,49.143,64.903,48.98C64.903,48.824,64.985,48.691,65,48.535L65,41.553ZM65,41.553"/>
  <path fill-rule="evenodd" fill-opacity="1" stroke-dasharray="none" stroke-linejoin="miter" stroke-linecap="butt" stroke="none" fill="#000000" clip-rule="evenodd" stroke-width="1px" stroke-opacity="1" stroke-miterlimit="4" d="M130.594,71.233C130.594,38.451,104.015,11.872,71.233,11.872C38.444,11.872,11.872,38.451,11.872,71.233C11.872,104.015,38.444,130.594,71.233,130.594C104.015,130.594,130.594,104.015,130.594,71.233ZM23.744,71.233C23.744,45.005,45.003,23.744,71.233,23.744C97.458,23.744,118.722,45.008,118.722,71.233C118.722,97.458,97.458,118.722,71.233,118.722C45.003,118.722,23.744,97.461,23.744,71.233ZM23.744,71.233"/>
</g>
  <g id="Medium-L" transform="matrix(1.0,0.0,0.0,1.0,1676.6069673907718,1447.8273941394004)">  <path stroke-width="1px" fill="#000000" stroke-opacity="1" stroke="none" fill-opacity="1" stroke-miterlimit="4" stroke-dasharray="none" fill-rule="evenodd" stroke-linecap="butt" clip-rule="evenodd" stroke-linejoin="miter" d="M84.433,100.958L60.4,100.958C58.819,100.958,57.543,99.466,57.543,97.634C57.543,95.801,58.819,94.31,60.4,94.31L65,93.493L65,71.233L60.4,70.372C58.819,70.372,57.543,68.881,57.543,67.048C57.543,65.215,58.819,63.724,60.4,63.724L79.054,63.724C79.625,63.724,79.811,63.486,79.892,63.294C79.87,63.405,79.84,63.508,79.84,63.813L79.84,93.493L84.433,94.31C86.014,94.31,87.297,95.801,87.297,97.634C87.297,99.466,86.014,100.958,84.433,100.958ZM84.433,100.958"/>
  <path stroke-linecap="butt" stroke-opacity="1" stroke-miterlimit="4" stroke-linejoin="miter" stroke-width="1px" fill="#000000" stroke="none" clip-rule="evenodd" fill-opacity="1" fill-rule="evenodd" stroke-dasharray="none" d="M65,41.553L72.272,41.553C72.323,41.553,72.368,41.523,72.42,41.523C72.472,41.523,72.516,41.553,72.569,41.553L79.84,41.553L79.84,48.528C79.847,48.691,79.929,48.824,79.929,48.98C79.929,49.143,79.847,49.277,79.84,49.433L79.84,56.393L72.665,56.393C72.576,56.4,72.502,56.445,72.42,56.445C72.331,56.445,72.257,56.4,72.175,56.393L65,56.393L65,49.425C64.985,49.27,64.903,49.143,64.903,48.98C64.903,48.824,64.985,48.691,65,48.535L65,41.553ZM65,41.553"/>
  <path stroke-opacity="1" stroke-linejoin="miter" fill="#000000" stroke-linecap="butt" fill-rule="evenodd" stroke-miterlimit="4" fill-opacity="1" stroke="none" clip-rule="evenodd" stroke-width="1px" stroke-dasharray="none" d="M130.594,71.233C130.594,38.451,104.015,11.872,71.233,11.872C38.444,11.872,11.872,38.451,11.872,71.233C11.872,104.015,38.444,130.594,71.233,130.594C104.015,130.594,130.594,104.015,130.594,71.233ZM23.744,71.233C23.744,45.005,45.003,23.744,71.233,23.744C97.458,23.744,118.722,45.008,118.722,71.233C118.722,97.458,97.458,118.722,71.233,118.722C45.003,118.722,23.744,97.461,23.744,71.233ZM23.744,71.233"/>
</g>
  <g id="Regular-L" transform="matrix(1.0,0.0,0.0,1.0,1379.8969673907718,1447.8273941394004)">  <path stroke-dasharray="none" fill-rule="evenodd" stroke-linejoin="miter" stroke-opacity="1" stroke-width="1px" stroke="none" stroke-linecap="butt" fill-opacity="1" stroke-miterlimit="4" fill="#000000" clip-rule="evenodd" d="M84.433,100.958L60.4,100.958C58.819,100.958,57.543,99.466,57.543,97.634C57.543,95.801,58.819,94.31,60.4,94.31L65,93.493L65,71.233L60.4,70.372C58.819,70.372,57.543,68.881,57.543,67.048C57.543,65.215,58.819,63.724,60.4,63.724L79.054,63.724C79.625,63.724,79.811,63.486,79.892,63.294C79.87,63.405,79.84,63.508,79.84,63.813L79.84,93.493L84.433,94.31C86.014,94.31,87.297,95.801,87.297,97.634C87.297,99.466,86.014,100.958,84.433,100.958ZM84.433,100.958"/>
  <path stroke-linecap="butt" stroke-dasharray="none" stroke-width="1px" stroke-opacity="1" stroke-linejoin="miter" stroke-miterlimit="4" fill-opacity="1" clip-rule="evenodd" fill="#000000" stroke="none" fill-rule="evenodd" d="M65,41.553L72.272,41.553C72.323,41.553,72.368,41.523,72.42,41.523C72.472,41.523,72.516,41.553,72.569,41.553L79.84,41.553L79.84,48.528C79.847,48.691,79.929,48.824,79.929,48.98C79.929,49.143,79.847,49.277,79.84,49.433L79.84,56.393L72.665,56.393C72.576,56.4,72.502,56.445,72.42,56.445C72.331,56.445,72.257,56.4,72.175,56.393L65,56.393L65,49.425C64.985,49.27,64.903,49.143,64.903,48.98C64.903,48.824,64.985,48.691,65,48.535L65,41.553ZM65,41.553"/>
  <path fill-opacity="1" stroke-linejoin="miter" stroke="none" stroke-dasharray="none" stroke-width="1px" stroke-opacity="1" stroke-miterlimit="4" fill="#000000" clip-rule="evenodd" fill-rule="evenodd" stroke-linecap="butt" d="M130.594,71.233C130.594,38.451,104.015,11.872,71.233,11.872C38.444,11.872,11.872,38.451,11.872,71.233C11.872,104.015,38.444,130.594,71.233,130.594C104.015,130.594,130.594,104.015,130.594,71.233ZM23.744,71.233C23.744,45.005,45.003,23.744,71.233,23.744C97.458,23.744,118.722,45.008,118.722,71.233C118.722,97.458,97.458,118.722,71.233,118.722C45.003,118.722,23.744,97.461,23.744,71.233ZM23.744,71.233"/>
</g>
  <g id="Light-L" transform="matrix(1.0,0.0,0.0,1.0,1083.186967390772,1447.8273941394004)">  <path fill-rule="evenodd" fill="#000000" stroke-width="1px" fill-opacity="1" stroke-linejoin="miter" stroke="none" stroke-miterlimit="4" stroke-opacity="1" stroke-linecap="butt" stroke-dasharray="none" clip-rule="evenodd" d="M84.433,100.958L60.4,100.958C58.819,100.958,57.543,99.466,57.543,97.634C57.543,95.801,58.819,94.31,60.4,94.31L65,93.493L65,71.233L60.4,70.372C58.819,70.372,57.543,68.881,57.543,67.048C57.543,65.215,58.819,63.724,60.4,63.724L79.054,63.724C79.625,63.724,79.811,63.486,79.892,63.294C79.87,63.405,79.84,63.508,79.84,63.813L79.84,93.493L84.433,94.31C86.014,94.31,87.297,95.801,87.297,97.634C87.297,99.466,86.014,100.958,84.433,100.958ZM84.433,100.958"/>
  <path clip-rule="evenodd" stroke-dasharray="none" stroke-width="1px" stroke-opacity="1" fill-opacity="1" stroke="none" stroke-linejoin="miter" stroke-miterlimit="4" stroke-linecap="butt" fill-rule="evenodd" fill="#000000" d="M65,41.553L72.272,41.553C72.323,41.553,72.368,41.523,72.42,41.523C72.472,41.523,72.516,41.553,72.569,41.553L79.84,41.553L79.84,48.528C79.847,48.691,79.929,48.824,79.929,48.98C79.929,49.143,79.847,49.277,79.84,49.433L79.84,56.393L72.665,56.393C72.576,56.4,72.502,56.445,72.42,56.445C72.331,56.445,72.257,56.4,72.175,56.393L65,56.393L65,49.425C64.985,49.27,64.903,49.143,64.903,48.98C64.903,48.824,64.985,48.691,65,48.535L65,41.553ZM65,41.553"/>
  <path stroke-dasharray="none" stroke="none" stroke-width="1px" stroke-linecap="butt" fill="#000000" fill-rule="evenodd" stroke-miterlimit="4" fill-opacity="1" stroke-opacity="1" clip-rule="evenodd" stroke-linejoin="miter" d="M130.594,71.233C130.594,38.451,104.015,11.872,71.233,11.872C38.444,11.872,11.872,38.451,11.872,71.233C11.872,104.015,38.444,130.594,71.233,130.594C104.015,130.594,130.594,104.015,130.594,71.233ZM23.744,71.233C23.744,45.005,45.003,23.744,71.233,23.744C97.458,23.744,118.722,45.008,118.722,71.233C118.722,97.458,97.458,118.722,71.233,118.722C45.003,118.722,23.744,97.461,23.744,71.233ZM23.744,71.233"/>
</g>
  <g id="Thin-L" transform="matrix(1.0,0.0,0.0,1.0,786.476967390772,1447.8273941394004)">  <path stroke-linejoin="miter" stroke="none" stroke-miterlimit="4" stroke-linecap="butt" clip-rule="evenodd" fill-opacity="1" stroke-opacity="1" stroke-width="1px" fill="#000000" fill-rule="evenodd" stroke-dasharray="none" d="M84.433,100.958L60.4,100.958C58.819,100.958,57.543,99.466,57.543,97.634C57.543,95.801,58.819,94.31,60.4,94.31L65,93.493L65,71.233L60.4,70.372C58.819,70.372,57.543,68.881,57.543,67.048C57.543,65.215,58.819,63.724,60.4,63.724L79.054,63.724C79.625,63.724,79.811,63.486,79.892,63.294C79.87,63.405,79.84,63.508,79.84,63.813L79.84,93.493L84.433,94.31C86.014,94.31,87.297,95.801,87.297,97.634C87.297,99.466,86.014,100.958,84.433,100.958ZM84.433,100.958"/>
  <path stroke-linecap="butt" stroke-width="1px" clip-rule="evenodd" stroke-linejoin="miter" stroke-dasharray="none" stroke="none" stroke-miterlimit="4" fill-opacity="1" fill="#000000" fill-rule="evenodd" stroke-opacity="1" d="M65,41.553L72.272,41.553C72.323,41.553,72.368,41.523,72.42,41.523C72.472,41.523,72.516,41.553,72.569,41.553L79.84,41.553L79.84,48.528C79.847,48.691,79.929,48.824,79.929,48.98C79.929,49.143,79.847,49.277,79.84,49.433L79.84,56.393L72.665,56.393C72.576,56.4,72.502,56.445,72.42,56.445C72.331,56.445,72.257,56.4,72.175,56.393L65,56.393L65,49.425C64.985,49.27,64.903,49.143,64.903,48.98C64.903,48.824,64.985,48.691,65,48.535L65,41.553ZM65,41.553"/>
  <path fill-opacity="1" fill="#000000" fill-rule="evenodd" stroke-opacity="1" stroke-linecap="butt" clip-rule="evenodd" stroke="none" stroke-linejoin="miter" stroke-dasharray="none" stroke-miterlimit="4" stroke-width="1px" d="M130.594,71.233C130.594,38.451,104.015,11.872,71.233,11.872C38.444,11.872,11.872,38.451,11.872,71.233C11.872,104.015,38.444,130.594,71.233,130.594C104.015,130.594,130.594,104.015,130.594,71.233ZM23.744,71.233C23.744,45.005,45.003,23.744,71.233,23.744C97.458,23.744,118.722,45.008,118.722,71.233C118.722,97.458,97.458,118.722,71.233,118.722C45.003,118.722,23.744,97.461,23.744,71.233ZM23.744,71.233"/>
</g>
  <g id="Ultralight-L" transform="matrix(1.0,0.0,0.0,1.0,489.7669673907719,1447.8273941394004)">  <path clip-rule="evenodd" stroke-dasharray="none" fill-rule="evenodd" stroke="none" stroke-miterlimit="4" stroke-opacity="1" fill-opacity="1" stroke-linecap="butt" stroke-width="1px" stroke-linejoin="miter" fill="#000000" d="M84.433,100.958L60.4,100.958C58.819,100.958,57.543,99.466,57.543,97.634C57.543,95.801,58.819,94.31,60.4,94.31L65,93.493L65,71.233L60.4,70.372C58.819,70.372,57.543,68.881,57.543,67.048C57.543,65.215,58.819,63.724,60.4,63.724L79.054,63.724C79.625,63.724,79.811,63.486,79.892,63.294C79.87,63.405,79.84,63.508,79.84,63.813L79.84,93.493L84.433,94.31C86.014,94.31,87.297,95.801,87.297,97.634C87.297,99.466,86.014,100.958,84.433,100.958ZM84.433,100.958"/>
  <path stroke-dasharray="none" fill-opacity="1" stroke-linejoin="miter" fill-rule="evenodd" stroke-opacity="1" stroke-miterlimit="4" stroke="none" stroke-linecap="butt" stroke-width="1px" clip-rule="evenodd" fill="#000000" d="M65,41.553L72.272,41.553C72.323,41.553,72.368,41.523,72.42,41.523C72.472,41.523,72.516,41.553,72.569,41.553L79.84,41.553L79.84,48.528C79.847,48.691,79.929,48.824,79.929,48.98C79.929,49.143,79.847,49.277,79.84,49.433L79.84,56.393L72.665,56.393C72.576,56.4,72.502,56.445,72.42,56.445C72.331,56.445,72.257,56.4,72.175,56.393L65,56.393L65,49.425C64.985,49.27,64.903,49.143,64.903,48.98C64.903,48.824,64.985,48.691,65,48.535L65,41.553ZM65,41.553"/>
  <path stroke-width="1px" stroke-dasharray="none" stroke="none" stroke-linecap="butt" fill-opacity="1" stroke-linejoin="miter" fill-rule="evenodd" clip-rule="evenodd" stroke-opacity="1" stroke-miterlimit="4" fill="#000000" d="M130.594,71.233C130.594,38.451,104.015,11.872,71.233,11.872C38.444,11.872,11.872,38.451,11.872,71.233C11.872,104.015,38.444,130.594,71.233,130.594C104.015,130.594,130.594,104.015,130.594,71.233ZM23.744,71.233C23.744,45.005,45.003,23.744,71.233,23.744C97.458,23.744,118.722,45.008,118.722,71.233C118.722,97.458,97.458,118.722,71.233,118.722C45.003,118.722,23.744,97.461,23.744,71.233ZM23.744,71.233"/>
</g>
  <g id="Black-M" transform="matrix(1.0,0.0,0.0,1.0,2879.460594876567,1034.225348684855)">  <path stroke-width="1px" fill="#000000" fill-rule="evenodd" stroke="none" clip-rule="evenodd" stroke-dasharray="none" stroke-miterlimit="4" stroke-linejoin="miter" stroke-opacity="1" fill-opacity="1" stroke-linecap="butt" d="M65.452,78.262L46.821,78.262C45.596,78.262,44.607,77.106,44.607,75.685C44.607,74.264,45.596,73.108,46.821,73.108L50.388,72.475L50.388,55.219L46.821,54.552C45.596,54.552,44.607,53.396,44.607,51.975C44.607,50.554,45.596,49.398,46.821,49.398L61.282,49.398C61.725,49.398,61.869,49.214,61.932,49.065C61.915,49.151,61.892,49.231,61.892,49.467L61.892,72.475L65.452,73.108C66.677,73.108,67.672,74.264,67.672,75.685C67.672,77.106,66.677,78.262,65.452,78.262ZM65.452,78.262"/>
  <path stroke-linecap="butt" fill-opacity="1" stroke-miterlimit="4" stroke-opacity="1" stroke="none" fill-rule="evenodd" clip-rule="evenodd" stroke-linejoin="miter" stroke-dasharray="none" fill="#000000" stroke-width="1px" d="M50.388,32.211L56.025,32.211C56.065,32.211,56.099,32.188,56.14,32.188C56.18,32.188,56.214,32.211,56.255,32.211L61.892,32.211L61.892,37.618C61.897,37.745,61.961,37.848,61.961,37.969C61.961,38.096,61.897,38.199,61.892,38.32L61.892,43.715L56.329,43.715C56.26,43.721,56.203,43.756,56.14,43.756C56.071,43.756,56.013,43.721,55.95,43.715L50.388,43.715L50.388,38.314C50.376,38.193,50.313,38.096,50.313,37.969C50.313,37.848,50.376,37.745,50.388,37.624L50.388,32.211ZM50.388,32.211"/>
  <path stroke="none" stroke-dasharray="none" fill-opacity="1" stroke-opacity="1" stroke-linecap="butt" fill-rule="evenodd" fill="#000000" stroke-linejoin="miter" stroke-miterlimit="4" clip-rule="evenodd" stroke-width="1px" d="M101.236,55.219C101.236,29.807,80.632,9.203,55.219,9.203C29.801,9.203,9.203,29.807,9.203,55.219C9.203,80.632,29.801,101.236,55.219,101.236C80.632,101.236,101.236,80.632,101.236,55.219ZM18.406,55.219C18.406,34.888,34.886,18.406,55.219,18.406C75.549,18.406,92.032,34.89,92.032,55.219C92.032,75.549,75.549,92.032,55.219,92.032C34.886,92.032,18.406,75.551,18.406,55.219ZM18.406,55.219"/>
</g>
  <g id="Heavy-M" transform="matrix(1.0,0.0,0.0,1.0,2582.750594876567,1034.225348684855)">  <path fill="#000000" stroke="none" stroke-opacity="1" clip-rule="evenodd" stroke-dasharray="none" fill-opacity="1" stroke-linecap="butt" fill-rule="evenodd" stroke-linejoin="miter" stroke-width="1px" stroke-miterlimit="4" d="M65.452,78.262L46.821,78.262C45.596,78.262,44.607,77.106,44.607,75.685C44.607,74.264,45.596,73.108,46.821,73.108L50.388,72.475L50.388,55.219L46.821,54.552C45.596,54.552,44.607,53.396,44.607,51.975C44.607,50.554,45.596,49.398,46.821,49.398L61.282,49.398C61.725,49.398,61.869,49.214,61.932,49.065C61.915,49.151,61.892,49.231,61.892,49.467L61.892,72.475L65.452,73.108C66.677,73.108,67.672,74.264,67.672,75.685C67.672,77.106,66.677,78.262,65.452,78.262ZM65.452,78.262"/>
  <path stroke-linejoin="miter" fill-rule="evenodd" stroke-miterlimit="4" stroke-dasharray="none" stroke="none" stroke-opacity="1" fill-opacity="1" clip-rule="evenodd" fill="#000000" stroke-linecap="butt" stroke-width="1px" d="M50.388,32.211L56.025,32.211C56.065,32.211,56.099,32.188,56.14,32.188C56.18,32.188,56.214,32.211,56.255,32.211L61.892,32.211L61.892,37.618C61.897,37.745,61.961,37.848,61.961,37.969C61.961,38.096,61.897,38.199,61.892,38.32L61.892,43.715L56.329,43.715C56.26,43.721,56.203,43.756,56.14,43.756C56.071,43.756,56.013,43.721,55.95,43.715L50.388,43.715L50.388,38.314C50.376,38.193,50.313,38.096,50.313,37.969C50.313,37.848,50.376,37.745,50.388,37.624L50.388,32.211ZM50.388,32.211"/>
  <path fill-opacity="1" fill="#000000" stroke-width="1px" stroke-opacity="1" stroke-miterlimit="4" clip-rule="evenodd" stroke="none" stroke-linecap="butt" fill-rule="evenodd" stroke-linejoin="miter" stroke-dasharray="none" d="M101.236,55.219C101.236,29.807,80.632,9.203,55.219,9.203C29.801,9.203,9.203,29.807,9.203,55.219C9.203,80.632,29.801,101.236,55.219,101.236C80.632,101.236,101.236,80.632,101.236,55.219ZM18.406,55.219C18.406,34.888,34.886,18.406,55.219,18.406C75.549,18.406,92.032,34.89,92.032,55.219C92.032,75.549,75.549,92.032,55.219,92.032C34.886,92.032,18.406,75.551,18.406,55.219ZM18.406,55.219"/>
</g>
  <g id="Bold-M" transform="matrix(1.0,0.0,0.0,1.0,2286.040594876567,1034.225348684855)">  <path fill="#000000" stroke-miterlimit="4" stroke-linejoin="miter" fill-rule="evenodd" stroke="none" stroke-opacity="1" clip-rule="evenodd" stroke-width="1px" stroke-dasharray="none" stroke-linecap="butt" fill-opacity="1" d="M65.452,78.262L46.821,78.262C45.596,78.262,44.607,77.106,44.607,75.685C44.607,74.264,45.596,73.108,46.821,73.108L50.388,72.475L50.388,55.219L46.821,54.552C45.596,54.552,44.607,53.396,44.607,51.975C44.607,50.554,45.596,49.398,46.821,49.398L61.282,49.398C61.725,49.398,61.869,49.214,61.932,49.065C61.915,49.151,61.892,49.231,61.892,49.467L61.892,72.475L65.452,73.108C66.677,73.108,67.672,74.264,67.672,75.685C67.672,77.106,66.677,78.262,65.452,78.262ZM65.452,78.262"/>
  <path stroke-dasharray="none" fill="#000000" stroke="none" stroke-width="1px" stroke-opacity="1" stroke-linejoin="miter" stroke-linecap="butt" clip-rule="evenodd" fill-rule="evenodd" fill-opacity="1" stroke-miterlimit="4" d="M50.388,32.211L56.025,32.211C56.065,32.211,56.099,32.188,56.14,32.188C56.18,32.188,56.214,32.211,56.255,32.211L61.892,32.211L61.892,37.618C61.897,37.745,61.961,37.848,61.961,37.969C61.961,38.096,61.897,38.199,61.892,38.32L61.892,43.715L56.329,43.715C56.26,43.721,56.203,43.756,56.14,43.756C56.071,43.756,56.013,43.721,55.95,43.715L50.388,43.715L50.388,38.314C50.376,38.193,50.313,38.096,50.313,37.969C50.313,37.848,50.376,37.745,50.388,37.624L50.388,32.211ZM50.388,32.211"/>
  <path clip-rule="evenodd" stroke="none" fill-opacity="1" stroke-width="1px" stroke-linejoin="miter" stroke-opacity="1" stroke-miterlimit="4" fill-rule="evenodd" stroke-dasharray="none" fill="#000000" stroke-linecap="butt" d="M101.236,55.219C101.236,29.807,80.632,9.203,55.219,9.203C29.801,9.203,9.203,29.807,9.203,55.219C9.203,80.632,29.801,101.236,55.219,101.236C80.632,101.236,101.236,80.632,101.236,55.219ZM18.406,55.219C18.406,34.888,34.886,18.406,55.219,18.406C75.549,18.406,92.032,34.89,92.032,55.219C92.032,75.549,75.549,92.032,55.219,92.032C34.886,92.032,18.406,75.551,18.406,55.219ZM18.406,55.219"/>
</g>
  <g id="Semibold-M" transform="matrix(1.0,0.0,0.0,1.0,1989.3305948765674,1034.225348684855)">  <path stroke-linecap="butt" stroke="none" clip-rule="evenodd" stroke-dasharray="none" stroke-width="1px" fill="#000000" fill-opacity="1" stroke-linejoin="miter" stroke-opacity="1" stroke-miterlimit="4" fill-rule="evenodd" d="M65.452,78.262L46.821,78.262C45.596,78.262,44.607,77.106,44.607,75.685C44.607,74.264,45.596,73.108,46.821,73.108L50.388,72.475L50.388,55.219L46.821,54.552C45.596,54.552,44.607,53.396,44.607,51.975C44.607,50.554,45.596,49.398,46.821,49.398L61.282,49.398C61.725,49.398,61.869,49.214,61.932,49.065C61.915,49.151,61.892,49.231,61.892,49.467L61.892,72.475L65.452,73.108C66.677,73.108,67.672,74.264,67.672,75.685C67.672,77.106,66.677,78.262,65.452,78.262ZM65.452,78.262"/>
  <path fill-rule="evenodd" fill="#000000" fill-opacity="1" stroke-miterlimit="4" stroke-linecap="butt" stroke-linejoin="miter" stroke-opacity="1" stroke-dasharray="none" stroke-width="1px" stroke="none" clip-rule="evenodd" d="M50.388,32.211L56.025,32.211C56.065,32.211,56.099,32.188,56.14,32.188C56.18,32.188,56.214,32.211,56.255,32.211L61.892,32.211L61.892,37.618C61.897,37.745,61.961,37.848,61.961,37.969C61.961,38.096,61.897,38.199,61.892,38.32L61.892,43.715L56.329,43.715C56.26,43.721,56.203,43.756,56.14,43.756C56.071,43.756,56.013,43.721,55.95,43.715L50.388,43.715L50.388,38.314C50.376,38.193,50.313,38.096,50.313,37.969C50.313,37.848,50.376,37.745,50.388,37.624L50.388,32.211ZM50.388,32.211"/>
  <path fill-rule="evenodd" fill-opacity="1" stroke-dasharray="none" stroke-linejoin="miter" stroke-linecap="butt" stroke="none" fill="#000000" clip-rule="evenodd" stroke-width="1px" stroke-opacity="1" stroke-miterlimit="4" d="M101.236,55.219C101.236,29.807,80.632,9.203,55.219,9.203C29.801,9.203,9.203,29.807,9.203,55.219C9.203,80.632,29.801,101.236,55.219,101.236C80.632,101.236,101.236,80.632,101.236,55.219ZM18.406,55.219C18.406,34.888,34.886,18.406,55.219,18.406C75.549,18.406,92.032,34.89,92.032,55.219C92.032,75.549,75.549,92.032,55.219,92.032C34.886,92.032,18.406,75.551,18.406,55.219ZM18.406,55.219"/>
</g>
  <g id="Medium-M" transform="matrix(1.0,0.0,0.0,1.0,1692.6205948765673,1034.225348684855)">  <path stroke-width="1px" fill="#000000" stroke-opacity="1" stroke="none" fill-opacity="1" stroke-miterlimit="4" stroke-dasharray="none" fill-rule="evenodd" stroke-linecap="butt" clip-rule="evenodd" stroke-linejoin="miter" d="M65.452,78.262L46.821,78.262C45.596,78.262,44.607,77.106,44.607,75.685C44.607,74.264,45.596,73.108,46.821,73.108L50.388,72.475L50.388,55.219L46.821,54.552C45.596,54.552,44.607,53.396,44.607,51.975C44.607,50.554,45.596,49.398,46.821,49.398L61.282,49.398C61.725,49.398,61.869,49.214,61.932,49.065C61.915,49.151,61.892,49.231,61.892,49.467L61.892,72.475L65.452,73.108C66.677,73.108,67.672,74.264,67.672,75.685C67.672,77.106,66.677,78.262,65.452,78.262ZM65.452,78.262"/>
  <path stroke-linecap="butt" stroke-opacity="1" stroke-miterlimit="4" stroke-linejoin="miter" stroke-width="1px" fill="#000000" stroke="none" clip-rule="evenodd" fill-opacity="1" fill-rule="evenodd" stroke-dasharray="none" d="M50.388,32.211L56.025,32.211C56.065,32.211,56.099,32.188,56.14,32.188C56.18,32.188,56.214,32.211,56.255,32.211L61.892,32.211L61.892,37.618C61.897,37.745,61.961,37.848,61.961,37.969C61.961,38.096,61.897,38.199,61.892,38.32L61.892,43.715L56.329,43.715C56.26,43.721,56.203,43.756,56.14,43.756C56.071,43.756,56.013,43.721,55.95,43.715L50.388,43.715L50.388,38.314C50.376,38.193,50.313,38.096,50.313,37.969C50.313,37.848,50.376,37.745,50.388,37.624L50.388,32.211ZM50.388,32.211"/>
  <path stroke-opacity="1" stroke-linejoin="miter" fill="#000000" stroke-linecap="butt" fill-rule="evenodd" stroke-miterlimit="4" fill-opacity="1" stroke="none" clip-rule="evenodd" stroke-width="1px" stroke-dasharray="none" d="M101.236,55.219C101.236,29.807,80.632,9.203,55.219,9.203C29.801,9.203,9.203,29.807,9.203,55.219C9.203,80.632,29.801,101.236,55.219,101.236C80.632,101.236,101.236,80.632,101.236,55.219ZM18.406,55.219C18.406,34.888,34.886,18.406,55.219,18.406C75.549,18.406,92.032,34.89,92.032,55.219C92.032,75.549,75.549,92.032,55.219,92.032C34.886,92.032,18.406,75.551,18.406,55.219ZM18.406,55.219"/>
</g>
  <g id="Regular-M" transform="matrix(1.0,0.0,0.0,1.0,1395.9105948765673,1034.225348684855)">  <path stroke-dasharray="none" fill-rule="evenodd" stroke-linejoin="miter" stroke-opacity="1" stroke-width="1px" stroke="none" stroke-linecap="butt" fill-opacity="1" stroke-miterlimit="4" fill="#000000" clip-rule="evenodd" d="M65.452,78.262L46.821,78.262C45.596,78.262,44.607,77.106,44.607,75.685C44.607,74.264,45.596,73.108,46.821,73.108L50.388,72.475L50.388,55.219L46.821,54.552C45.596,54.552,44.607,53.396,44.607,51.975C44.607,50.554,45.596,49.398,46.821,49.398L61.282,49.398C61.725,49.398,61.869,49.214,61.932,49.065C61.915,49.151,61.892,49.231,61.892,49.467L61.892,72.475L65.452,73.108C66.677,73.108,67.672,74.264,67.672,75.685C67.672,77.106,66.677,78.262,65.452,78.262ZM65.452,78.262"/>
  <path stroke-linecap="butt" stroke-dasharray="none" stroke-width="1px" stroke-opacity="1" stroke-linejoin="miter" stroke-miterlimit="4" fill-opacity="1" clip-rule="evenodd" fill="#000000" stroke="none" fill-rule="evenodd" d="M50.388,32.211L56.025,32.211C56.065,32.211,56.099,32.188,56.14,32.188C56.18,32.188,56.214,32.211,56.255,32.211L61.892,32.211L61.892,37.618C61.897,37.745,61.961,37.848,61.961,37.969C61.961,38.096,61.897,38.199,61.892,38.32L61.892,43.715L56.329,43.715C56.26,43.721,56.203,43.756,56.14,43.756C56.071,43.756,56.013,43.721,55.95,43.715L50.388,43.715L50.388,38.314C50.376,38.193,50.313,38.096,50.313,37.969C50.313,37.848,50.376,37.745,50.388,37.624L50.388,32.211ZM50.388,32.211"/>
  <path fill-opacity="1" stroke-linejoin="miter" stroke="none" stroke-dasharray="none" stroke-width="1px" stroke-opacity="1" stroke-miterlimit="4" fill="#000000" clip-rule="evenodd" fill-rule="evenodd" stroke-linecap="butt" d="M101.236,55.219C101.236,29.807,80.632,9.203,55.219,9.203C29.801,9.203,9.203,29.807,9.203,55.219C9.203,80.632,29.801,101.236,55.219,101.236C80.632,101.236,101.236,80.632,101.236,55.219ZM18.406,55.219C18.406,34.888,34.886,18.406,55.219,18.406C75.549,18.406,92.032,34.89,92.032,55.219C92.032,75.549,75.549,92.032,55.219,92.032C34.886,92.032,18.406,75.551,18.406,55.219ZM18.406,55.219"/>
</g>
  <g id="Light-M" transform="matrix(1.0,0.0,0.0,1.0,1099.2005948765675,1034.225348684855)">  <path fill-rule="evenodd" fill="#000000" stroke-width="1px" fill-opacity="1" stroke-linejoin="miter" stroke="none" stroke-miterlimit="4" stroke-opacity="1" stroke-linecap="butt" stroke-dasharray="none" clip-rule="evenodd" d="M65.452,78.262L46.821,78.262C45.596,78.262,44.607,77.106,44.607,75.685C44.607,74.264,45.596,73.108,46.821,73.108L50.388,72.475L50.388,55.219L46.821,54.552C45.596,54.552,44.607,53.396,44.607,51.975C44.607,50.554,45.596,49.398,46.821,49.398L61.282,49.398C61.725,49.398,61.869,49.214,61.932,49.065C61.915,49.151,61.892,49.231,61.892,49.467L61.892,72.475L65.452,73.108C66.677,73.108,67.672,74.264,67.672,75.685C67.672,77.106,66.677,78.262,65.452,78.262ZM65.452,78.262"/>
  <path clip-rule="evenodd" stroke-dasharray="none" stroke-width="1px" stroke-opacity="1" fill-opacity="1" stroke="none" stroke-linejoin="miter" stroke-miterlimit="4" stroke-linecap="butt" fill-rule="evenodd" fill="#000000" d="M50.388,32.211L56.025,32.211C56.065,32.211,56.099,32.188,56.14,32.188C56.18,32.188,56.214,32.211,56.255,32.211L61.892,32.211L61.892,37.618C61.897,37.745,61.961,37.848,61.961,37.969C61.961,38.096,61.897,38.199,61.892,38.32L61.892,43.715L56.329,43.715C56.26,43.721,56.203,43.756,56.14,43.756C56.071,43.756,56.013,43.721,55.95,43.715L50.388,43.715L50.388,38.314C50.376,38.193,50.313,38.096,50.313,37.969C50.313,37.848,50.376,37.745,50.388,37.624L50.388,32.211ZM50.388,32.211"/>
  <path stroke-dasharray="none" stroke="none" stroke-width="1px" stroke-linecap="butt" fill="#000000" fill-rule="evenodd" stroke-miterlimit="4" fill-opacity="1" stroke-opacity="1" clip-rule="evenodd" stroke-linejoin="miter" d="M101.236,55.219C101.236,29.807,80.632,9.203,55.219,9.203C29.801,9.203,9.203,29.807,9.203,55.219C9.203,80.632,29.801,101.236,55.219,101.236C80.632,101.236,101.236,80.632,101.236,55.219ZM18.406,55.219C18.406,34.888,34.886,18.406,55.219,18.406C75.549,18.406,92.032,34.89,92.032,55.219C92.032,75.549,75.549,92.032,55.219,92.032C34.886,92.032,18.406,75.551,18.406,55.219ZM18.406,55.219"/>
</g>
  <g id="Thin-M" transform="matrix(1.0,0.0,0.0,1.0,802.4905948765675,1034.225348684855)">  <path stroke-linejoin="miter" stroke="none" stroke-miterlimit="4" stroke-linecap="butt" clip-rule="evenodd" fill-opacity="1" stroke-opacity="1" stroke-width="1px" fill="#000000" fill-rule="evenodd" stroke-dasharray="none" d="M65.452,78.262L46.821,78.262C45.596,78.262,44.607,77.106,44.607,75.685C44.607,74.264,45.596,73.108,46.821,73.108L50.388,72.475L50.388,55.219L46.821,54.552C45.596,54.552,44.607,53.396,44.607,51.975C44.607,50.554,45.596,49.398,46.821,49.398L61.282,49.398C61.725,49.398,61.869,49.214,61.932,49.065C61.915,49.151,61.892,49.231,61.892,49.467L61.892,72.475L65.452,73.108C66.677,73.108,67.672,74.264,67.672,75.685C67.672,77.106,66.677,78.262,65.452,78.262ZM65.452,78.262"/>
  <path stroke-linecap="butt" stroke-width="1px" clip-rule="evenodd" stroke-linejoin="miter" stroke-dasharray="none" stroke="none" stroke-miterlimit="4" fill-opacity="1" fill="#000000" fill-rule="evenodd" stroke-opacity="1" d="M50.388,32.211L56.025,32.211C56.065,32.211,56.099,32.188,56.14,32.188C56.18,32.188,56.214,32.211,56.255,32.211L61.892,32.211L61.892,37.618C61.897,37.745,61.961,37.848,61.961,37.969C61.961,38.096,61.897,38.199,61.892,38.32L61.892,43.715L56.329,43.715C56.26,43.721,56.203,43.756,56.14,43.756C56.071,43.756,56.013,43.721,55.95,43.715L50.388,43.715L50.388,38.314C50.376,38.193,50.313,38.096,50.313,37.969C50.313,37.848,50.376,37.745,50.388,37.624L50.388,32.211ZM50.388,32.211"/>
  <path fill-opacity="1" fill="#000000" fill-rule="evenodd" stroke-opacity="1" stroke-linecap="butt" clip-rule="evenodd" stroke="none" stroke-linejoin="miter" stroke-dasharray="none" stroke-miterlimit="4" stroke-width="1px" d="M101.236,55.219C101.236,29.807,80.632,9.203,55.219,9.203C29.801,9.203,9.203,29.807,9.203,55.219C9.203,80.632,29.801,101.236,55.219,101.236C80.632,101.236,101.236,80.632,101.236,55.219ZM18.406,55.219C18.406,34.888,34.886,18.406,55.219,18.406C75.549,18.406,92.032,34.89,92.032,55.219C92.032,75.549,75.549,92.032,55.219,92.032C34.886,92.032,18.406,75.551,18.406,55.219ZM18.406,55.219"/>
</g>
  <g id="Ultralight-M" transform="matrix(1.0,0.0,0.0,1.0,505.7805948765674,1034.225348684855)">  <path clip-rule="evenodd" stroke-dasharray="none" fill-rule="evenodd" stroke="none" stroke-miterlimit="4" stroke-opacity="1" fill-opacity="1" stroke-linecap="butt" stroke-width="1px" stroke-linejoin="miter" fill="#000000" d="M65.452,78.262L46.821,78.262C45.596,78.262,44.607,77.106,44.607,75.685C44.607,74.264,45.596,73.108,46.821,73.108L50.388,72.475L50.388,55.219L46.821,54.552C45.596,54.552,44.607,53.396,44.607,51.975C44.607,50.554,45.596,49.398,46.821,49.398L61.282,49.398C61.725,49.398,61.869,49.214,61.932,49.065C61.915,49.151,61.892,49.231,61.892,49.467L61.892,72.475L65.452,73.108C66.677,73.108,67.672,74.264,67.672,75.685C67.672,77.106,66.677,78.262,65.452,78.262ZM65.452,78.262"/>
  <path stroke-dasharray="none" fill-opacity="1" stroke-linejoin="miter" fill-rule="evenodd" stroke-opacity="1" stroke-miterlimit="4" stroke="none" stroke-linecap="butt" stroke-width="1px" clip-rule="evenodd" fill="#000000" d="M50.388,32.211L56.025,32.211C56.065,32.211,56.099,32.188,56.14,32.188C56.18,32.188,56.214,32.211,56.255,32.211L61.892,32.211L61.892,37.618C61.897,37.745,61.961,37.848,61.961,37.969C61.961,38.096,61.897,38.199,61.892,38.32L61.892,43.715L56.329,43.715C56.26,43.721,56.203,43.756,56.14,43.756C56.071,43.756,56.013,43.721,55.95,43.715L50.388,43.715L50.388,38.314C50.376,38.193,50.313,38.096,50.313,37.969C50.313,37.848,50.376,37.745,50.388,37.624L50.388,32.211ZM50.388,32.211"/>
  <path stroke-width="1px" stroke-dasharray="none" stroke="none" stroke-linecap="butt" fill-opacity="1" stroke-linejoin="miter" fill-rule="evenodd" clip-rule="evenodd" stroke-opacity="1" stroke-miterlimit="4" fill="#000000" d="M101.236,55.219C101.236,29.807,80.632,9.203,55.219,9.203C29.801,9.203,9.203,29.807,9.203,55.219C9.203,80.632,29.801,101.236,55.219,101.236C80.632,101.236,101.236,80.632,101.236,55.219ZM18.406,55.219C18.406,34.888,34.886,18.406,55.219,18.406C75.549,18.406,92.032,34.89,92.032,55.219C92.032,75.549,75.549,92.032,55.219,92.032C34.886,92.032,18.406,75.551,18.406,55.219ZM18.406,55.219"/>
</g>
  <g id="Black-S" transform="matrix(1.0,0.0,0.0,1.0,2891.4432057883523,616.4955422585227)">  <path stroke-width="1px" fill="#000000" fill-rule="evenodd" stroke="none" clip-rule="evenodd" stroke-dasharray="none" stroke-miterlimit="4" stroke-linejoin="miter" stroke-opacity="1" fill-opacity="1" stroke-linecap="butt" d="M51.249,61.279L36.661,61.279C35.702,61.279,34.927,60.374,34.927,59.261C34.927,58.149,35.702,57.244,36.661,57.244L39.454,56.748L39.454,43.237L36.661,42.714C35.702,42.714,34.927,41.809,34.927,40.697C34.927,39.584,35.702,38.679,36.661,38.679L47.984,38.679C48.33,38.679,48.443,38.535,48.493,38.418C48.479,38.485,48.461,38.548,48.461,38.733L48.461,56.748L51.249,57.244C52.208,57.244,52.987,58.149,52.987,59.261C52.987,60.374,52.208,61.279,51.249,61.279ZM51.249,61.279"/>
  <path stroke-linecap="butt" fill-opacity="1" stroke-miterlimit="4" stroke-opacity="1" stroke="none" fill-rule="evenodd" clip-rule="evenodd" stroke-linejoin="miter" stroke-dasharray="none" fill="#000000" stroke-width="1px" d="M39.454,25.221L43.867,25.221C43.899,25.221,43.926,25.203,43.957,25.203C43.989,25.203,44.016,25.221,44.047,25.221L48.461,25.221L48.461,29.455C48.466,29.554,48.515,29.635,48.515,29.73C48.515,29.829,48.466,29.91,48.461,30.005L48.461,34.229L44.106,34.229C44.052,34.234,44.007,34.261,43.957,34.261C43.903,34.261,43.858,34.234,43.809,34.229L39.454,34.229L39.454,30C39.445,29.905,39.395,29.829,39.395,29.73C39.395,29.635,39.445,29.554,39.454,29.46L39.454,25.221ZM39.454,25.221"/>
  <path stroke="none" stroke-dasharray="none" fill-opacity="1" stroke-opacity="1" stroke-linecap="butt" fill-rule="evenodd" fill="#000000" stroke-linejoin="miter" stroke-miterlimit="4" clip-rule="evenodd" stroke-width="1px" d="M79.267,43.237C79.267,23.339,63.135,7.206,43.237,7.206C23.334,7.206,7.206,23.339,7.206,43.237C7.206,63.135,23.334,79.267,43.237,79.267C63.135,79.267,79.267,63.135,79.267,43.237ZM14.412,43.237C14.412,27.317,27.316,14.412,43.237,14.412C59.155,14.412,72.061,27.319,72.061,43.237C72.061,59.155,59.155,72.061,43.237,72.061C27.316,72.061,14.412,59.157,14.412,43.237ZM14.412,43.237"/>
</g>
  <g id="Heavy-S" transform="matrix(1.0,0.0,0.0,1.0,2594.7332057883523,616.4955422585227)">  <path fill="#000000" stroke="none" stroke-opacity="1" clip-rule="evenodd" stroke-dasharray="none" fill-opacity="1" stroke-linecap="butt" fill-rule="evenodd" stroke-linejoin="miter" stroke-width="1px" stroke-miterlimit="4" d="M51.249,61.279L36.661,61.279C35.702,61.279,34.927,60.374,34.927,59.261C34.927,58.149,35.702,57.244,36.661,57.244L39.454,56.748L39.454,43.237L36.661,42.714C35.702,42.714,34.927,41.809,34.927,40.697C34.927,39.584,35.702,38.679,36.661,38.679L47.984,38.679C48.33,38.679,48.443,38.535,48.493,38.418C48.479,38.485,48.461,38.548,48.461,38.733L48.461,56.748L51.249,57.244C52.208,57.244,52.987,58.149,52.987,59.261C52.987,60.374,52.208,61.279,51.249,61.279ZM51.249,61.279"/>
  <path stroke-linejoin="miter" fill-rule="evenodd" stroke-miterlimit="4" stroke-dasharray="none" stroke="none" stroke-opacity="1" fill-opacity="1" clip-rule="evenodd" fill="#000000" stroke-linecap="butt" stroke-width="1px" d="M39.454,25.221L43.867,25.221C43.899,25.221,43.926,25.203,43.957,25.203C43.989,25.203,44.016,25.221,44.047,25.221L48.461,25.221L48.461,29.455C48.466,29.554,48.515,29.635,48.515,29.73C48.515,29.829,48.466,29.91,48.461,30.005L48.461,34.229L44.106,34.229C44.052,34.234,44.007,34.261,43.957,34.261C43.903,34.261,43.858,34.234,43.809,34.229L39.454,34.229L39.454,30C39.445,29.905,39.395,29.829,39.395,29.73C39.395,29.635,39.445,29.554,39.454,29.46L39.454,25.221ZM39.454,25.221"/>
  <path fill-opacity="1" fill="#000000" stroke-width="1px" stroke-opacity="1" stroke-miterlimit="4" clip-rule="evenodd" stroke="none" stroke-linecap="butt" fill-rule="evenodd" stroke-linejoin="miter" stroke-dasharray="none" d="M79.267,43.237C79.267,23.339,63.135,7.206,43.237,7.206C23.334,7.206,7.206,23.339,7.206,43.237C7.206,63.135,23.334,79.267,43.237,79.267C63.135,79.267,79.267,63.135,79.267,43.237ZM14.412,43.237C14.412,27.317,27.316,14.412,43.237,14.412C59.155,14.412,72.061,27.319,72.061,43.237C72.061,59.155,59.155,72.061,43.237,72.061C27.316,72.061,14.412,59.157,14.412,43.237ZM14.412,43.237"/>
</g>
  <g id="Bold-S" transform="matrix(1.0,0.0,0.0,1.0,2298.0232057883522,616.4955422585227)">  <path fill="#000000" stroke-miterlimit="4" stroke-linejoin="miter" fill-rule="evenodd" stroke="none" stroke-opacity="1" clip-rule="evenodd" stroke-width="1px" stroke-dasharray="none" stroke-linecap="butt" fill-opacity="1" d="M51.249,61.279L36.661,61.279C35.702,61.279,34.927,60.374,34.927,59.261C34.927,58.149,35.702,57.244,36.661,57.244L39.454,56.748L39.454,43.237L36.661,42.714C35.702,42.714,34.927,41.809,34.927,40.697C34.927,39.584,35.702,38.679,36.661,38.679L47.984,38.679C48.33,38.679,48.443,38.535,48.493,38.418C48.479,38.485,48.461,38.548,48.461,38.733L48.461,56.748L51.249,57.244C52.208,57.244,52.987,58.149,52.987,59.261C52.987,60.374,52.208,61.279,51.249,61.279ZM51.249,61.279"/>
  <path stroke-dasharray="none" fill="#000000" stroke="none" stroke-width="1px" stroke-opacity="1" stroke-linejoin="miter" stroke-linecap="butt" clip-rule="evenodd" fill-rule="evenodd" fill-opacity="1" stroke-miterlimit="4" d="M39.454,25.221L43.867,25.221C43.899,25.221,43.926,25.203,43.957,25.203C43.989,25.203,44.016,25.221,44.047,25.221L48.461,25.221L48.461,29.455C48.466,29.554,48.515,29.635,48.515,29.73C48.515,29.829,48.466,29.91,48.461,30.005L48.461,34.229L44.106,34.229C44.052,34.234,44.007,34.261,43.957,34.261C43.903,34.261,43.858,34.234,43.809,34.229L39.454,34.229L39.454,30C39.445,29.905,39.395,29.829,39.395,29.73C39.395,29.635,39.445,29.554,39.454,29.46L39.454,25.221ZM39.454,25.221"/>
  <path clip-rule="evenodd" stroke="none" fill-opacity="1" stroke-width="1px" stroke-linejoin="miter" stroke-opacity="1" stroke-miterlimit="4" fill-rule="evenodd" stroke-dasharray="none" fill="#000000" stroke-linecap="butt" d="M79.267,43.237C79.267,23.339,63.135,7.206,43.237,7.206C23.334,7.206,7.206,23.339,7.206,43.237C7.206,63.135,23.334,79.267,43.237,79.267C63.135,79.267,79.267,63.135,79.267,43.237ZM14.412,43.237C14.412,27.317,27.316,14.412,43.237,14.412C59.155,14.412,72.061,27.319,72.061,43.237C72.061,59.155,59.155,72.061,43.237,72.061C27.316,72.061,14.412,59.157,14.412,43.237ZM14.412,43.237"/>
</g>
  <g id="Semibold-S" transform="matrix(1.0,0.0,0.0,1.0,2001.3132057883522,616.4955422585227)">  <path stroke-linecap="butt" stroke="none" clip-rule="evenodd" stroke-dasharray="none" stroke-width="1px" fill="#000000" fill-opacity="1" stroke-linejoin="miter" stroke-opacity="1" stroke-miterlimit="4" fill-rule="evenodd" d="M51.249,61.279L36.661,61.279C35.702,61.279,34.927,60.374,34.927,59.261C34.927,58.149,35.702,57.244,36.661,57.244L39.454,56.748L39.454,43.237L36.661,42.714C35.702,42.714,34.927,41.809,34.927,40.697C34.927,39.584,35.702,38.679,36.661,38.679L47.984,38.679C48.33,38.679,48.443,38.535,48.493,38.418C48.479,38.485,48.461,38.548,48.461,38.733L48.461,56.748L51.249,57.244C52.208,57.244,52.987,58.149,52.987,59.261C52.987,60.374,52.208,61.279,51.249,61.279ZM51.249,61.279"/>
  <path fill-rule="evenodd" fill="#000000" fill-opacity="1" stroke-miterlimit="4" stroke-linecap="butt" stroke-linejoin="miter" stroke-opacity="1" stroke-dasharray="none" stroke-width="1px" stroke="none" clip-rule="evenodd" d="M39.454,25.221L43.867,25.221C43.899,25.221,43.926,25.203,43.957,25.203C43.989,25.203,44.016,25.221,44.047,25.221L48.461,25.221L48.461,29.455C48.466,29.554,48.515,29.635,48.515,29.73C48.515,29.829,48.466,29.91,48.461,30.005L48.461,34.229L44.106,34.229C44.052,34.234,44.007,34.261,43.957,34.261C43.903,34.261,43.858,34.234,43.809,34.229L39.454,34.229L39.454,30C39.445,29.905,39.395,29.829,39.395,29.73C39.395,29.635,39.445,29.554,39.454,29.46L39.454,25.221ZM39.454,25.221"/>
  <path fill-rule="evenodd" fill-opacity="1" stroke-dasharray="none" stroke-linejoin="miter" stroke-linecap="butt" stroke="none" fill="#000000" clip-rule="evenodd" stroke-width="1px" stroke-opacity="1" stroke-miterlimit="4" d="M79.267,43.237C79.267,23.339,63.135,7.206,43.237,7.206C23.334,7.206,7.206,23.339,7.206,43.237C7.206,63.135,23.334,79.267,43.237,79.267C63.135,79.267,79.267,63.135,79.267,43.237ZM14.412,43.237C14.412,27.317,27.316,14.412,43.237,14.412C59.155,14.412,72.061,27.319,72.061,43.237C72.061,59.155,59.155,72.061,43.237,72.061C27.316,72.061,14.412,59.157,14.412,43.237ZM14.412,43.237"/>
</g>
  <g id="Medium-S" transform="matrix(1.0,0.0,0.0,1.0,1704.6032057883522,616.4955422585227)">  <path stroke-width="1px" fill="#000000" stroke-opacity="1" stroke="none" fill-opacity="1" stroke-miterlimit="4" stroke-dasharray="none" fill-rule="evenodd" stroke-linecap="butt" clip-rule="evenodd" stroke-linejoin="miter" d="M51.249,61.279L36.661,61.279C35.702,61.279,34.927,60.374,34.927,59.261C34.927,58.149,35.702,57.244,36.661,57.244L39.454,56.748L39.454,43.237L36.661,42.714C35.702,42.714,34.927,41.809,34.927,40.697C34.927,39.584,35.702,38.679,36.661,38.679L47.984,38.679C48.33,38.679,48.443,38.535,48.493,38.418C48.479,38.485,48.461,38.548,48.461,38.733L48.461,56.748L51.249,57.244C52.208,57.244,52.987,58.149,52.987,59.261C52.987,60.374,52.208,61.279,51.249,61.279ZM51.249,61.279"/>
  <path stroke-linecap="butt" stroke-opacity="1" stroke-miterlimit="4" stroke-linejoin="miter" stroke-width="1px" fill="#000000" stroke="none" clip-rule="evenodd" fill-opacity="1" fill-rule="evenodd" stroke-dasharray="none" d="M39.454,25.221L43.867,25.221C43.899,25.221,43.926,25.203,43.957,25.203C43.989,25.203,44.016,25.221,44.047,25.221L48.461,25.221L48.461,29.455C48.466,29.554,48.515,29.635,48.515,29.73C48.515,29.829,48.466,29.91,48.461,30.005L48.461,34.229L44.106,34.229C44.052,34.234,44.007,34.261,43.957,34.261C43.903,34.261,43.858,34.234,43.809,34.229L39.454,34.229L39.454,30C39.445,29.905,39.395,29.829,39.395,29.73C39.395,29.635,39.445,29.554,39.454,29.46L39.454,25.221ZM39.454,25.221"/>
  <path stroke-opacity="1" stroke-linejoin="miter" fill="#000000" stroke-linecap="butt" fill-rule="evenodd" stroke-miterlimit="4" fill-opacity="1" stroke="none" clip-rule="evenodd" stroke-width="1px" stroke-dasharray="none" d="M79.267,43.237C79.267,23.339,63.135,7.206,43.237,7.206C23.334,7.206,7.206,23.339,7.206,43.237C7.206,63.135,23.334,79.267,43.237,79.267C63.135,79.267,79.267,63.135,79.267,43.237ZM14.412,43.237C14.412,27.317,27.316,14.412,43.237,14.412C59.155,14.412,72.061,27.319,72.061,43.237C72.061,59.155,59.155,72.061,43.237,72.061C27.316,72.061,14.412,59.157,14.412,43.237ZM14.412,43.237"/>
</g>
  <g id="Regular-S" transform="matrix(1.0,0.0,0.0,1.0,1407.8932057883521,616.4955422585227)">  <path stroke-dasharray="none" fill-rule="evenodd" stroke-linejoin="miter" stroke-opacity="1" stroke-width="1px" stroke="none" stroke-linecap="butt" fill-opacity="1" stroke-miterlimit="4" fill="#000000" clip-rule="evenodd" d="M51.249,61.279L36.661,61.279C35.702,61.279,34.927,60.374,34.927,59.261C34.927,58.149,35.702,57.244,36.661,57.244L39.454,56.748L39.454,43.237L36.661,42.714C35.702,42.714,34.927,41.809,34.927,40.697C34.927,39.584,35.702,38.679,36.661,38.679L47.984,38.679C48.33,38.679,48.443,38.535,48.493,38.418C48.479,38.485,48.461,38.548,48.461,38.733L48.461,56.748L51.249,57.244C52.208,57.244,52.987,58.149,52.987,59.261C52.987,60.374,52.208,61.279,51.249,61.279ZM51.249,61.279"/>
  <path stroke-linecap="butt" stroke-dasharray="none" stroke-width="1px" stroke-opacity="1" stroke-linejoin="miter" stroke-miterlimit="4" fill-opacity="1" clip-rule="evenodd" fill="#000000" stroke="none" fill-rule="evenodd" d="M39.454,25.221L43.867,25.221C43.899,25.221,43.926,25.203,43.957,25.203C43.989,25.203,44.016,25.221,44.047,25.221L48.461,25.221L48.461,29.455C48.466,29.554,48.515,29.635,48.515,29.73C48.515,29.829,48.466,29.91,48.461,30.005L48.461,34.229L44.106,34.229C44.052,34.234,44.007,34.261,43.957,34.261C43.903,34.261,43.858,34.234,43.809,34.229L39.454,34.229L39.454,30C39.445,29.905,39.395,29.829,39.395,29.73C39.395,29.635,39.445,29.554,39.454,29.46L39.454,25.221ZM39.454,25.221"/>
  <path fill-opacity="1" stroke-linejoin="miter" stroke="none" stroke-dasharray="none" stroke-width="1px" stroke-opacity="1" stroke-miterlimit="4" fill="#000000" clip-rule="evenodd" fill-rule="evenodd" stroke-linecap="butt" d="M79.267,43.237C79.267,23.339,63.135,7.206,43.237,7.206C23.334,7.206,7.206,23.339,7.206,43.237C7.206,63.135,23.334,79.267,43.237,79.267C63.135,79.267,79.267,63.135,79.267,43.237ZM14.412,43.237C14.412,27.317,27.316,14.412,43.237,14.412C59.155,14.412,72.061,27.319,72.061,43.237C72.061,59.155,59.155,72.061,43.237,72.061C27.316,72.061,14.412,59.157,14.412,43.237ZM14.412,43.237"/>
</g>
  <g id="Light-S" transform="matrix(1.0,0.0,0.0,1.0,1111.1832057883523,616.4955422585227)">  <path fill-rule="evenodd" fill="#000000" stroke-width="1px" fill-opacity="1" stroke-linejoin="miter" stroke="none" stroke-miterlimit="4" stroke-opacity="1" stroke-linecap="butt" stroke-dasharray="none" clip-rule="evenodd" d="M51.249,61.279L36.661,61.279C35.702,61.279,34.927,60.374,34.927,59.261C34.927,58.149,35.702,57.244,36.661,57.244L39.454,56.748L39.454,43.237L36.661,42.714C35.702,42.714,34.927,41.809,34.927,40.697C34.927,39.584,35.702,38.679,36.661,38.679L47.984,38.679C48.33,38.679,48.443,38.535,48.493,38.418C48.479,38.485,48.461,38.548,48.461,38.733L48.461,56.748L51.249,57.244C52.208,57.244,52.987,58.149,52.987,59.261C52.987,60.374,52.208,61.279,51.249,61.279ZM51.249,61.279"/>
  <path clip-rule="evenodd" stroke-dasharray="none" stroke-width="1px" stroke-opacity="1" fill-opacity="1" stroke="none" stroke-linejoin="miter" stroke-miterlimit="4" stroke-linecap="butt" fill-rule="evenodd" fill="#000000" d="M39.454,25.221L43.867,25.221C43.899,25.221,43.926,25.203,43.957,25.203C43.989,25.203,44.016,25.221,44.047,25.221L48.461,25.221L48.461,29.455C48.466,29.554,48.515,29.635,48.515,29.73C48.515,29.829,48.466,29.91,48.461,30.005L48.461,34.229L44.106,34.229C44.052,34.234,44.007,34.261,43.957,34.261C43.903,34.261,43.858,34.234,43.809,34.229L39.454,34.229L39.454,30C39.445,29.905,39.395,29.829,39.395,29.73C39.395,29.635,39.445,29.554,39.454,29.46L39.454,25.221ZM39.454,25.221"/>
  <path stroke-dasharray="none" stroke="none" stroke-width="1px" stroke-linecap="butt" fill="#000000" fill-rule="evenodd" stroke-miterlimit="4" fill-opacity="1" stroke-opacity="1" clip-rule="evenodd" stroke-linejoin="miter" d="M79.267,43.237C79.267,23.339,63.135,7.206,43.237,7.206C23.334,7.206,7.206,23.339,7.206,43.237C7.206,63.135,23.334,79.267,43.237,79.267C63.135,79.267,79.267,63.135,79.267,43.237ZM14.412,43.237C14.412,27.317,27.316,14.412,43.237,14.412C59.155,14.412,72.061,27.319,72.061,43.237C72.061,59.155,59.155,72.061,43.237,72.061C27.316,72.061,14.412,59.157,14.412,43.237ZM14.412,43.237"/>
</g>
  <g id="Thin-S" transform="matrix(1.0,0.0,0.0,1.0,814.4732057883523,616.4955422585227)">  <path stroke-linejoin="miter" stroke="none" stroke-miterlimit="4" stroke-linecap="butt" clip-rule="evenodd" fill-opacity="1" stroke-opacity="1" stroke-width="1px" fill="#000000" fill-rule="evenodd" stroke-dasharray="none" d="M51.249,61.279L36.661,61.279C35.702,61.279,34.927,60.374,34.927,59.261C34.927,58.149,35.702,57.244,36.661,57.244L39.454,56.748L39.454,43.237L36.661,42.714C35.702,42.714,34.927,41.809,34.927,40.697C34.927,39.584,35.702,38.679,36.661,38.679L47.984,38.679C48.33,38.679,48.443,38.535,48.493,38.418C48.479,38.485,48.461,38.548,48.461,38.733L48.461,56.748L51.249,57.244C52.208,57.244,52.987,58.149,52.987,59.261C52.987,60.374,52.208,61.279,51.249,61.279ZM51.249,61.279"/>
  <path stroke-linecap="butt" stroke-width="1px" clip-rule="evenodd" stroke-linejoin="miter" stroke-dasharray="none" stroke="none" stroke-miterlimit="4" fill-opacity="1" fill="#000000" fill-rule="evenodd" stroke-opacity="1" d="M39.454,25.221L43.867,25.221C43.899,25.221,43.926,25.203,43.957,25.203C43.989,25.203,44.016,25.221,44.047,25.221L48.461,25.221L48.461,29.455C48.466,29.554,48.515,29.635,48.515,29.73C48.515,29.829,48.466,29.91,48.461,30.005L48.461,34.229L44.106,34.229C44.052,34.234,44.007,34.261,43.957,34.261C43.903,34.261,43.858,34.234,43.809,34.229L39.454,34.229L39.454,30C39.445,29.905,39.395,29.829,39.395,29.73C39.395,29.635,39.445,29.554,39.454,29.46L39.454,25.221ZM39.454,25.221"/>
  <path fill-opacity="1" fill="#000000" fill-rule="evenodd" stroke-opacity="1" stroke-linecap="butt" clip-rule="evenodd" stroke="none" stroke-linejoin="miter" stroke-dasharray="none" stroke-miterlimit="4" stroke-width="1px" d="M79.267,43.237C79.267,23.339,63.135,7.206,43.237,7.206C23.334,7.206,7.206,23.339,7.206,43.237C7.206,63.135,23.334,79.267,43.237,79.267C63.135,79.267,79.267,63.135,79.267,43.237ZM14.412,43.237C14.412,27.317,27.316,14.412,43.237,14.412C59.155,14.412,72.061,27.319,72.061,43.237C72.061,59.155,59.155,72.061,43.237,72.061C27.316,72.061,14.412,59.157,14.412,43.237ZM14.412,43.237"/>
</g>
  <g id="Ultralight-S" transform="matrix(1.0,0.0,0.0,1.0,517.7632057883523,616.4955422585227)">  <path clip-rule="evenodd" stroke-dasharray="none" fill-rule="evenodd" stroke="none" stroke-miterlimit="4" stroke-opacity="1" fill-opacity="1" stroke-linecap="butt" stroke-width="1px" stroke-linejoin="miter" fill="#000000" d="M51.249,61.279L36.661,61.279C35.702,61.279,34.927,60.374,34.927,59.261C34.927,58.149,35.702,57.244,36.661,57.244L39.454,56.748L39.454,43.237L36.661,42.714C35.702,42.714,34.927,41.809,34.927,40.697C34.927,39.584,35.702,38.679,36.661,38.679L47.984,38.679C48.33,38.679,48.443,38.535,48.493,38.418C48.479,38.485,48.461,38.548,48.461,38.733L48.461,56.748L51.249,57.244C52.208,57.244,52.987,58.149,52.987,59.261C52.987,60.374,52.208,61.279,51.249,61.279ZM51.249,61.279"/>
  <path stroke-dasharray="none" fill-opacity="1" stroke-linejoin="miter" fill-rule="evenodd" stroke-opacity="1" stroke-miterlimit="4" stroke="none" stroke-linecap="butt" stroke-width="1px" clip-rule="evenodd" fill="#000000" d="M39.454,25.221L43.867,25.221C43.899,25.221,43.926,25.203,43.957,25.203C43.989,25.203,44.016,25.221,44.047,25.221L48.461,25.221L48.461,29.455C48.466,29.554,48.515,29.635,48.515,29.73C48.515,29.829,48.466,29.91,48.461,30.005L48.461,34.229L44.106,34.229C44.052,34.234,44.007,34.261,43.957,34.261C43.903,34.261,43.858,34.234,43.809,34.229L39.454,34.229L39.454,30C39.445,29.905,39.395,29.829,39.395,29.73C39.395,29.635,39.445,29.554,39.454,29.46L39.454,25.221ZM39.454,25.221"/>
  <path stroke-width="1px" stroke-dasharray="none" stroke="none" stroke-linecap="butt" fill-opacity="1" stroke-linejoin="miter" fill-rule="evenodd" clip-rule="evenodd" stroke-opacity="1" stroke-miterlimit="4" fill="#000000" d="M79.267,43.237C79.267,23.339,63.135,7.206,43.237,7.206C23.334,7.206,7.206,23.339,7.206,43.237C7.206,63.135,23.334,79.267,43.237,79.267C63.135,79.267,79.267,63.135,79.267,43.237ZM14.412,43.237C14.412,27.317,27.316,14.412,43.237,14.412C59.155,14.412,72.061,27.319,72.061,43.237C72.061,59.155,59.155,72.061,43.237,72.061C27.316,72.061,14.412,59.157,14.412,43.237ZM14.412,43.237"/>
</g>
 </g>
</svg>
