<?xml version="1.0" encoding="UTF-8"?>
<!-- Generator: CustomSymbols v2.6.1.40 by @serious_bret https://bretlester.com/app_content/CustomSymbols/ -->
<!-- Guides: Left/Right 0.086/0.082 Cap/Base 0.18/0.182 -->
<!-- Settings: RefScale 1.0 Min/Max Stroke Scales 0.5/2.21 -->
<!DOCTYPE svg
PUBLIC "-//W3C//DTD SVG 1.1//EN"
       "http://www.w3.org/Graphics/SVG/1.1/DTD/svg11.dtd">
<svg version="1.1" xmlns="http://www.w3.org/2000/svg" xmlns:xlink="http://www.w3.org/1999/xlink" width="3300" height="2200">
<![CDATA[<svg xmlns="http://www.w3.org/2000/svg" width="24" height="24" viewBox="0 0 24 24">
  <defs/>
  <path d="M12,2 C17.522,2 22,6.477 22,12 C22,17.522 17.522,22 12,22 C6.476,22 2,17.522 2,12 C2,6.477 6.476,2 12,2 Z M10.181,17.007 L14.23,17.007 C14.496,17.007 14.712,16.756 14.712,16.448 C14.712,16.139 14.496,15.887 14.23,15.887 L13.456,15.75 L13.456,10.75 C13.456,10.705 13.46,10.686 13.464,10.669 C13.464,10.667 13.465,10.665 13.465,10.663 C13.451,10.695 13.42,10.735 13.324,10.735 L10.181,10.735 C9.915,10.735 9.7,10.986 9.7,11.295 C9.7,11.604 9.915,11.855 10.181,11.855 L10.956,12 L10.956,15.75 L10.181,15.887 C9.915,15.887 9.7,16.139 9.7,16.448 C9.7,16.756 9.915,17.007 10.181,17.007 Z M12.181,7 L10.956,7 L10.956,8.176 C10.955,8.188 10.952,8.199 10.948,8.21 C10.944,8.224 10.94,8.237 10.94,8.251 C10.94,8.266 10.944,8.28 10.948,8.293 C10.952,8.304 10.955,8.314 10.956,8.326 L10.956,9.5 L12.165,9.5 C12.171,9.501 12.177,9.502 12.183,9.504 C12.19,9.506 12.198,9.509 12.206,9.509 C12.214,9.509 12.22,9.507 12.228,9.504 C12.234,9.503 12.24,9.501 12.248,9.5 L13.456,9.5 L13.456,8.328 C13.457,8.315 13.46,8.304 13.464,8.292 C13.467,8.279 13.471,8.266 13.471,8.251 C13.471,8.238 13.468,8.225 13.464,8.212 C13.46,8.2 13.457,8.188 13.456,8.175 L13.456,7 L12.231,7 C12.227,7 12.223,6.999 12.219,6.997 C12.215,6.996 12.211,6.995 12.206,6.995 C12.202,6.995 12.198,6.996 12.194,6.997 C12.19,6.999 12.186,7 12.181,7 Z"/>
</svg>

]]>
 <g id="Notes">
  <rect height="2200" id="artboard" style="fill:white;opacity:1" width="3300" x="0" y="0"/>
  <line id="" style="fill:none;stroke:black;opacity:1;stroke-width:0.5;" x1="263" x2="3036" y1="292" y2="292"/>
  <text id="reftext1" style="stroke:none;fill:black;font-family:-apple-system,&quot;SF Pro Display&quot;,&quot;SF Pro Text&quot;,Helvetica,sans-serif;font-weight:bold;" transform="matrix(1 0 0 1 263 322)">Weight/Scale Variations</text>
  <text id="reftext2" style="stroke:none;fill:black;font-family:-apple-system,&quot;SF Pro Display&quot;,&quot;SF Pro Text&quot;,Helvetica,sans-serif;text-anchor:middle;" transform="matrix(1 0 0 1 559.711 322)">Ultralight</text>
  <text style="stroke:none;fill:black;font-family:-apple-system,&quot;SF Pro Display&quot;,&quot;SF Pro Text&quot;,Helvetica,sans-serif;text-anchor:middle;" transform="matrix(1 0 0 1 856.422 322)">Thin</text>
  <text style="stroke:none;fill:black;font-family:-apple-system,&quot;SF Pro Display&quot;,&quot;SF Pro Text&quot;,Helvetica,sans-serif;text-anchor:middle;" transform="matrix(1 0 0 1 1153.13 322)">Light</text>
  <text style="stroke:none;fill:black;font-family:-apple-system,&quot;SF Pro Display&quot;,&quot;SF Pro Text&quot;,Helvetica,sans-serif;text-anchor:middle;" transform="matrix(1 0 0 1 1449.84 322)">Regular</text>
  <text style="stroke:none;fill:black;font-family:-apple-system,&quot;SF Pro Display&quot;,&quot;SF Pro Text&quot;,Helvetica,sans-serif;text-anchor:middle;" transform="matrix(1 0 0 1 1746.56 322)">Medium</text>
  <text style="stroke:none;fill:black;font-family:-apple-system,&quot;SF Pro Display&quot;,&quot;SF Pro Text&quot;,Helvetica,sans-serif;text-anchor:middle;" transform="matrix(1 0 0 1 2043.27 322)">Semibold</text>
  <text style="stroke:none;fill:black;font-family:-apple-system,&quot;SF Pro Display&quot;,&quot;SF Pro Text&quot;,Helvetica,sans-serif;text-anchor:middle;" transform="matrix(1 0 0 1 2339.98 322)">Bold</text>
  <text style="stroke:none;fill:black;font-family:-apple-system,&quot;SF Pro Display&quot;,&quot;SF Pro Text&quot;,Helvetica,sans-serif;text-anchor:middle;" transform="matrix(1 0 0 1 2636.69 322)">Heavy</text>
  <text style="stroke:none;fill:black;font-family:-apple-system,&quot;SF Pro Display&quot;,&quot;SF Pro Text&quot;,Helvetica,sans-serif;text-anchor:middle;" transform="matrix(1 0 0 1 2933.4 322)">Black</text>
  <line id="" style="fill:none;stroke:black;opacity:1;stroke-width:0.5;" x1="263" x2="3036" y1="1903" y2="1903"/>
  <g id="" transform="matrix(1 0 0 1 263 1933)">
   <path d="M9.24805 0.830078C13.5547 0.830078 17.1387-2.74414 17.1387-7.05078C17.1387-11.3574 13.5449-14.9316 9.23828-14.9316C4.94141-14.9316 1.36719-11.3574 1.36719-7.05078C1.36719-2.74414 4.95117 0.830078 9.24805 0.830078ZM9.24805-0.654297C5.70312-0.654297 2.87109-3.49609 2.87109-7.05078C2.87109-10.6055 5.69336-13.4473 9.23828-13.4473C12.793-13.4473 15.6348-10.6055 15.6445-7.05078C15.6543-3.49609 12.8027-0.654297 9.24805-0.654297ZM6.39648-6.31836L8.50586-6.31836L8.50586-4.19922C8.50586-3.75977 8.79883-3.45703 9.22852-3.45703C9.67773-3.45703 9.9707-3.75977 9.9707-4.19922L9.9707-6.31836L12.0996-6.31836C12.5391-6.31836 12.8418-6.61133 12.8418-7.04102C12.8418-7.48047 12.5391-7.7832 12.0996-7.7832L9.9707-7.7832L9.9707-9.89258C9.9707-10.3418 9.67773-10.6445 9.22852-10.6445C8.79883-10.6445 8.50586-10.3418 8.50586-9.89258L8.50586-7.7832L6.39648-7.7832C5.94727-7.7832 5.64453-7.48047 5.64453-7.04102C5.64453-6.61133 5.94727-6.31836 6.39648-6.31836Z"/>
  </g>
  <g id="" transform="matrix(1 0 0 1 281.506 1933)">
   <path d="M11.709 2.91016C17.1582 2.91016 21.6699-1.61133 21.6699-7.05078C21.6699-12.5 17.1484-17.0117 11.6992-17.0117C6.25977-17.0117 1.74805-12.5 1.74805-7.05078C1.74805-1.61133 6.26953 2.91016 11.709 2.91016ZM11.709 1.25C7.09961 1.25 3.41797-2.44141 3.41797-7.05078C3.41797-11.6602 7.08984-15.3516 11.6992-15.3516C16.3086-15.3516 20-11.6602 20.0098-7.05078C20.0195-2.44141 16.3184 1.25 11.709 1.25ZM7.98828-6.23047L10.8789-6.23047L10.8789-3.32031C10.8789-2.83203 11.2109-2.5 11.6895-2.5C12.1777-2.5 12.5195-2.83203 12.5195-3.32031L12.5195-6.23047L15.4297-6.23047C15.918-6.23047 16.25-6.5625 16.25-7.04102C16.25-7.5293 15.918-7.87109 15.4297-7.87109L12.5195-7.87109L12.5195-10.7617C12.5195-11.2695 12.1777-11.6016 11.6895-11.6016C11.2109-11.6016 10.8789-11.2598 10.8789-10.7617L10.8789-7.87109L7.98828-7.87109C7.48047-7.87109 7.14844-7.5293 7.14844-7.04102C7.14844-6.5625 7.49023-6.23047 7.98828-6.23047Z"/>
  </g>
  <g id="" transform="matrix(1 0 0 1 304.924 1933)">
   <path d="M14.9707 5.66406C21.9336 5.66406 27.6953-0.0976562 27.6953-7.05078C27.6953-14.0137 21.9238-19.7754 14.9609-19.7754C8.00781-19.7754 2.25586-14.0137 2.25586-7.05078C2.25586-0.0976562 8.01758 5.66406 14.9707 5.66406ZM14.9707 3.84766C8.93555 3.84766 4.08203-1.01562 4.08203-7.05078C4.08203-13.0957 8.92578-17.9492 14.9609-17.9492C21.0059-17.9492 25.8594-13.0957 25.8691-7.05078C25.8789-1.01562 21.0156 3.84766 14.9707 3.84766ZM10.0586-6.14258L14.0625-6.14258L14.0625-2.12891C14.0625-1.5918 14.4336-1.2207 14.9512-1.2207C15.4883-1.2207 15.8594-1.5918 15.8594-2.12891L15.8594-6.14258L19.8828-6.14258C20.4102-6.14258 20.791-6.51367 20.791-7.03125C20.791-7.56836 20.4199-7.94922 19.8828-7.94922L15.8594-7.94922L15.8594-11.9531C15.8594-12.5098 15.4883-12.8809 14.9512-12.8809C14.4336-12.8809 14.0625-12.5 14.0625-11.9531L14.0625-7.94922L10.0586-7.94922C9.50195-7.94922 9.13086-7.56836 9.13086-7.03125C9.13086-6.51367 9.51172-6.14258 10.0586-6.14258Z"/>
  </g>
  <text style="stroke:none;fill:black;font-family:-apple-system,&quot;SF Pro Display&quot;,&quot;SF Pro Text&quot;,Helvetica,sans-serif;font-weight:bold;" transform="matrix(1 0 0 1 263 1953)">Design Variations</text>
  <text style="stroke:none;fill:black;font-family:-apple-system,&quot;SF Pro Display&quot;,&quot;SF Pro Text&quot;,Helvetica,sans-serif;" transform="matrix(1 0 0 1 263 1971)">Symbols are supported in up to nine weights and three scales.</text>
  <text style="stroke:none;fill:black;font-family:-apple-system,&quot;SF Pro Display&quot;,&quot;SF Pro Text&quot;,Helvetica,sans-serif;" transform="matrix(1 0 0 1 263 1989)">For optimal layout with text and other symbols, vertically align</text>
  <text style="stroke:none;fill:black;font-family:-apple-system,&quot;SF Pro Display&quot;,&quot;SF Pro Text&quot;,Helvetica,sans-serif;" transform="matrix(1 0 0 1 263 2007)">symbols with the adjacent text.</text>
  <line id="" style="fill:none;stroke:#00AEEF;stroke-width:0.5;opacity:1.0;" x1="776" x2="776" y1="1919" y2="1933"/>
  <g id="" transform="matrix(1 0 0 1 776 1933)">
   <path d="M3.31055 0.126953C3.82812 0.126953 4.08203-0.0683594 4.26758-0.605469L5.52734-4.0625L11.2891-4.0625L12.5488-0.605469C12.7344-0.0683594 12.9883 0.126953 13.4961 0.126953C14.0137 0.126953 14.3457-0.185547 14.3457-0.673828C14.3457-0.839844 14.3164-0.986328 14.2383-1.20117L9.6582-13.3887C9.43359-13.9941 9.0332-14.2871 8.4082-14.2871C7.80273-14.2871 7.39258-13.9941 7.17773-13.3984L2.59766-1.19141C2.51953-0.976562 2.49023-0.830078 2.49023-0.664062C2.49023-0.175781 2.80273 0.126953 3.31055 0.126953ZM6.00586-5.53711L8.37891-12.1094L8.42773-12.1094L10.8008-5.53711Z"/>
  </g>
  <line id="" style="fill:none;stroke:#00AEEF;stroke-width:0.5;opacity:1.0;" x1="792.836" x2="792.836" y1="1919" y2="1933"/>
  <text style="stroke:none;fill:black;font-family:-apple-system,&quot;SF Pro Display&quot;,&quot;SF Pro Text&quot;,Helvetica,sans-serif;font-weight:bold;" transform="matrix(1 0 0 1 776 1953)">Margins</text>
  <text style="stroke:none;fill:black;font-family:-apple-system,&quot;SF Pro Display&quot;,&quot;SF Pro Text&quot;,Helvetica,sans-serif;" transform="matrix(1 0 0 1 776 1971)">Leading and trailing margins on the left and right side of each symbol</text>
  <text style="stroke:none;fill:black;font-family:-apple-system,&quot;SF Pro Display&quot;,&quot;SF Pro Text&quot;,Helvetica,sans-serif;" transform="matrix(1 0 0 1 776 1989)">can be adjusted by modifying the x-location of the margin guidelines.</text>
  <text style="stroke:none;fill:black;font-family:-apple-system,&quot;SF Pro Display&quot;,&quot;SF Pro Text&quot;,Helvetica,sans-serif;" transform="matrix(1 0 0 1 776 2007)">Modifications are automatically applied proportionally to all</text>
  <text style="stroke:none;fill:black;font-family:-apple-system,&quot;SF Pro Display&quot;,&quot;SF Pro Text&quot;,Helvetica,sans-serif;" transform="matrix(1 0 0 1 776 2025)">scales and weights.</text>
  <g id="" transform="matrix(1 0 0 1 1289 1933)">
   <path d="M2.8418 1.86523L4.54102 3.57422C5.40039 4.44336 6.38672 4.38477 7.31445 3.35938L17.4902-7.85156C17.7539-7.76367 18.0273-7.7832 18.3398-7.8418L19.4043-8.03711L20.0684-7.36328L20.0293-6.80664C19.9902-6.30859 20.1172-5.92773 20.6055-5.44922L21.3672-4.70703C21.8457-4.22852 22.4609-4.19922 22.9297-4.66797L25.8398-7.58789C26.3086-8.05664 26.2891-8.65234 25.8105-9.13086L25.0391-9.89258C24.5605-10.3711 24.1895-10.5273 23.7109-10.4883L23.1348-10.4395L22.4902-11.0742L22.7344-12.1973C22.8613-12.7637 22.7051-13.2031 22.1191-13.7891L19.9219-15.9766C16.582-19.2969 12.1484-19.2188 9.25781-16.3281C8.83789-15.918 8.80859-15.3418 9.04297-14.9512C9.27734-14.5898 9.73633-14.3555 10.3809-14.5215C11.8457-14.8633 13.3691-14.9219 14.7949-13.9844L14.209-12.5293C14.0137-12.0508 13.9844-11.6504 14.1113-11.2891L3.04688-0.898438C2.06055 0.0195312 1.98242 0.996094 2.8418 1.86523ZM10.752-15.957C13.1836-17.7344 16.4746-17.4316 18.7012-15.2051L21.1328-12.793C21.3672-12.5586 21.4062-12.373 21.3379-12.0312L21.0156-10.5469L22.5195-9.0625L23.5059-9.12109C23.7598-9.13086 23.8379-9.11133 24.0332-8.91602L24.6094-8.33984L22.168-5.89844L21.5918-6.47461C21.3965-6.66992 21.3672-6.74805 21.377-7.01172L21.4453-7.98828L19.9512-9.47266L18.4277-9.21875C18.1055-9.15039 17.959-9.17969 17.7148-9.41406L15.7129-11.416C15.459-11.6504 15.4297-11.8164 15.5859-12.1875L16.4648-14.2773C14.9023-15.7324 12.8711-16.3574 10.8398-15.7617C10.6836-15.7227 10.625-15.8496 10.752-15.957ZM5.27344 2.30469L4.10156 1.14258C3.63281 0.683594 3.74023 0.341797 4.14062-0.0195312L14.9512-10.1953L16.416-8.71094L6.42578 2.27539C6.07422 2.67578 5.74219 2.77344 5.27344 2.30469Z"/>
  </g>
  <text style="stroke:none;fill:black;font-family:-apple-system,&quot;SF Pro Display&quot;,&quot;SF Pro Text&quot;,Helvetica,sans-serif;font-weight:bold;" transform="matrix(1 0 0 1 1289 1953)">Exporting</text>
  <text style="stroke:none;fill:black;font-family:-apple-system,&quot;SF Pro Display&quot;,&quot;SF Pro Text&quot;,Helvetica,sans-serif;" transform="matrix(1 0 0 1 1289 1971)">Symbols should be outlined when exporting to ensure the</text>
  <text style="stroke:none;fill:black;font-family:-apple-system,&quot;SF Pro Display&quot;,&quot;SF Pro Text&quot;,Helvetica,sans-serif;" transform="matrix(1 0 0 1 1289 1989)">design is preserved when submitting to Xcode.</text>
  <text id="template-version" style="stroke:none;fill:black;font-family:-apple-system,&quot;SF Pro Display&quot;,&quot;SF Pro Text&quot;,Helvetica,sans-serif;text-anchor:end;" transform="matrix(1 0 0 1 3036 1933)">Template v.2.0</text>
  <text style="stroke:none;fill:black;font-family:-apple-system,&quot;SF Pro Display&quot;,&quot;SF Pro Text&quot;,Helvetica,sans-serif;text-anchor:end;" transform="matrix(1 0 0 1 3036 1951)">Requires Xcode 12 or greater</text>
  <text style="stroke:none;fill:black;font-family:-apple-system,&quot;SF Pro Display&quot;,&quot;SF Pro Text&quot;,Helvetica,sans-serif;" transform="matrix(1 0 0 1 263 726)">Small</text>
  <text style="stroke:none;fill:black;font-family:-apple-system,&quot;SF Pro Display&quot;,&quot;SF Pro Text&quot;,Helvetica,sans-serif;" transform="matrix(1 0 0 1 263 1156)">Medium</text>
  <text style="stroke:none;fill:black;font-family:-apple-system,&quot;SF Pro Display&quot;,&quot;SF Pro Text&quot;,Helvetica,sans-serif;" transform="matrix(1 0 0 1 263 1586)">Large</text>
 </g>
 <g id="Guides">
  <g id="H-reference" style="fill:#27AAE1;stroke:none;" transform="matrix(1 0 0 1 339 696)">
   <path d="M0.976562 0L3.66211 0L12.9883-24.4629L45.752-24.4629L55.127 0L57.7637 0L30.6152-70.459L28.125-70.459ZM29.3457-67.1387L29.4434-67.1387L44.873-26.709L13.8672-26.709Z"/>
  </g>
  <line id="Baseline-S" style="fill:none;stroke:#27AAE1;opacity:1;stroke-width:0.5;" x1="263" x2="3036" y1="696" y2="696"/>
  <line id="Capline-S" style="fill:none;stroke:#27AAE1;opacity:1;stroke-width:0.5;" x1="263" x2="3036" y1="625.541" y2="625.541"/>
  <g id="H-reference" style="fill:#27AAE1;stroke:none;" transform="matrix(1 0 0 1 339 1126)">
   <path d="M0.976562 0L3.66211 0L12.9883-24.4629L45.752-24.4629L55.127 0L57.7637 0L30.6152-70.459L28.125-70.459ZM29.3457-67.1387L29.4434-67.1387L44.873-26.709L13.8672-26.709Z"/>
  </g>
  <line id="Baseline-M" style="fill:none;stroke:#27AAE1;opacity:1;stroke-width:0.5;" x1="263" x2="3036" y1="1126" y2="1126"/>
  <line id="Capline-M" style="fill:none;stroke:#27AAE1;opacity:1;stroke-width:0.5;" x1="263" x2="3036" y1="1055.54" y2="1055.54"/>
  <g id="H-reference" style="fill:#27AAE1;stroke:none;" transform="matrix(1 0 0 1 339 1556)">
   <path d="M0.976562 0L3.66211 0L12.9883-24.4629L45.752-24.4629L55.127 0L57.7637 0L30.6152-70.459L28.125-70.459ZM29.3457-67.1387L29.4434-67.1387L44.873-26.709L13.8672-26.709Z"/>
  </g>
  <line id="Baseline-L" style="fill:none;stroke:#27AAE1;opacity:1;stroke-width:0.5;" x1="263" x2="3036" y1="1556" y2="1556"/>
  <line id="Capline-L" style="fill:none;stroke:#27AAE1;opacity:1;stroke-width:0.5;" x1="263" x2="3036" y1="1485.54" y2="1485.54"/>
  <line id="left-margin" x1="1405.4083325577976" x2="1405.4083325577976" y1="1030.79" y2="1150.12" style="fill:none;stroke:#00AEEF;stroke-width:0.5;opacity:1.0;"/>
  <line id="right-margin" x1="1497.2934226831894" x2="1497.2934226831894" y1="1030.79" y2="1150.12" style="fill:none;stroke:#00AEEF;stroke-width:0.5;opacity:1.0;"/>
 </g>
 <g id="Symbols">
  <g id="Black-L" transform="matrix(1.0,0.0,0.0,1.0,2863.446967390772,1449.6794529872404)">  <path stroke-linecap="butt" fill="#000000" fill-opacity="1" stroke="none" stroke-dasharray="none" stroke-width="1px" stroke-miterlimit="4" stroke-linejoin="miter" fill-rule="nonzero" stroke-opacity="1" d="M71.233,11.872C104.012,11.872,130.594,38.448,130.594,71.233C130.594,104.012,104.012,130.594,71.233,130.594C38.442,130.594,11.872,104.012,11.872,71.233C11.872,38.448,38.442,11.872,71.233,11.872ZM60.435,100.955L84.471,100.955C86.05,100.955,87.332,99.465,87.332,97.637C87.332,95.802,86.05,94.307,84.471,94.307L79.876,93.493L79.876,63.813C79.876,63.546,79.9,63.433,79.923,63.332C79.923,63.32,79.929,63.308,79.929,63.296C79.846,63.486,79.662,63.724,79.092,63.724L60.435,63.724C58.856,63.724,57.58,65.214,57.58,67.048C57.58,68.882,58.856,70.372,60.435,70.372L65.036,71.233L65.036,93.493L60.435,94.307C58.856,94.307,57.58,95.802,57.58,97.637C57.58,99.465,58.856,100.955,60.435,100.955ZM72.307,41.553L65.036,41.553L65.036,48.533C65.03,48.605,65.012,48.67,64.988,48.735C64.965,48.818,64.941,48.896,64.941,48.979C64.941,49.068,64.965,49.151,64.988,49.228C65.012,49.293,65.03,49.353,65.036,49.424L65.036,56.393L72.212,56.393C72.248,56.399,72.284,56.405,72.319,56.417C72.361,56.428,72.408,56.446,72.456,56.446C72.503,56.446,72.539,56.434,72.586,56.417C72.622,56.411,72.658,56.399,72.705,56.393L79.876,56.393L79.876,49.436C79.882,49.359,79.9,49.293,79.923,49.222C79.941,49.145,79.965,49.068,79.965,48.979C79.965,48.901,79.947,48.824,79.923,48.747C79.9,48.676,79.882,48.605,79.876,48.528L79.876,41.553L72.604,41.553C72.581,41.553,72.557,41.547,72.533,41.535C72.509,41.529,72.486,41.523,72.456,41.523C72.432,41.523,72.408,41.529,72.385,41.535C72.361,41.547,72.337,41.553,72.307,41.553ZM72.307,41.553"/>
</g>
  <g id="Heavy-L" transform="matrix(1.0,0.0,0.0,1.0,2566.736967390772,1449.6794529872404)">  <path stroke-width="1px" stroke-dasharray="none" fill-rule="nonzero" fill-opacity="1" fill="#000000" stroke-linejoin="miter" stroke-linecap="butt" stroke-miterlimit="4" stroke-opacity="1" stroke="none" d="M71.233,11.872C104.012,11.872,130.594,38.448,130.594,71.233C130.594,104.012,104.012,130.594,71.233,130.594C38.442,130.594,11.872,104.012,11.872,71.233C11.872,38.448,38.442,11.872,71.233,11.872ZM60.435,100.955L84.471,100.955C86.05,100.955,87.332,99.465,87.332,97.637C87.332,95.802,86.05,94.307,84.471,94.307L79.876,93.493L79.876,63.813C79.876,63.546,79.9,63.433,79.923,63.332C79.923,63.32,79.929,63.308,79.929,63.296C79.846,63.486,79.662,63.724,79.092,63.724L60.435,63.724C58.856,63.724,57.58,65.214,57.58,67.048C57.58,68.882,58.856,70.372,60.435,70.372L65.036,71.233L65.036,93.493L60.435,94.307C58.856,94.307,57.58,95.802,57.58,97.637C57.58,99.465,58.856,100.955,60.435,100.955ZM72.307,41.553L65.036,41.553L65.036,48.533C65.03,48.605,65.012,48.67,64.988,48.735C64.965,48.818,64.941,48.896,64.941,48.979C64.941,49.068,64.965,49.151,64.988,49.228C65.012,49.293,65.03,49.353,65.036,49.424L65.036,56.393L72.212,56.393C72.248,56.399,72.284,56.405,72.319,56.417C72.361,56.428,72.408,56.446,72.456,56.446C72.503,56.446,72.539,56.434,72.586,56.417C72.622,56.411,72.658,56.399,72.705,56.393L79.876,56.393L79.876,49.436C79.882,49.359,79.9,49.293,79.923,49.222C79.941,49.145,79.965,49.068,79.965,48.979C79.965,48.901,79.947,48.824,79.923,48.747C79.9,48.676,79.882,48.605,79.876,48.528L79.876,41.553L72.604,41.553C72.581,41.553,72.557,41.547,72.533,41.535C72.509,41.529,72.486,41.523,72.456,41.523C72.432,41.523,72.408,41.529,72.385,41.535C72.361,41.547,72.337,41.553,72.307,41.553ZM72.307,41.553"/>
</g>
  <g id="Bold-L" transform="matrix(1.0,0.0,0.0,1.0,2270.026967390772,1449.6794529872404)">  <path stroke-miterlimit="4" fill="#000000" fill-opacity="1" fill-rule="nonzero" stroke-opacity="1" stroke-linejoin="miter" stroke="none" stroke-width="1px" stroke-dasharray="none" stroke-linecap="butt" d="M71.233,11.872C104.012,11.872,130.594,38.448,130.594,71.233C130.594,104.012,104.012,130.594,71.233,130.594C38.442,130.594,11.872,104.012,11.872,71.233C11.872,38.448,38.442,11.872,71.233,11.872ZM60.435,100.955L84.471,100.955C86.05,100.955,87.332,99.465,87.332,97.637C87.332,95.802,86.05,94.307,84.471,94.307L79.876,93.493L79.876,63.813C79.876,63.546,79.9,63.433,79.923,63.332C79.923,63.32,79.929,63.308,79.929,63.296C79.846,63.486,79.662,63.724,79.092,63.724L60.435,63.724C58.856,63.724,57.58,65.214,57.58,67.048C57.58,68.882,58.856,70.372,60.435,70.372L65.036,71.233L65.036,93.493L60.435,94.307C58.856,94.307,57.58,95.802,57.58,97.637C57.58,99.465,58.856,100.955,60.435,100.955ZM72.307,41.553L65.036,41.553L65.036,48.533C65.03,48.605,65.012,48.67,64.988,48.735C64.965,48.818,64.941,48.896,64.941,48.979C64.941,49.068,64.965,49.151,64.988,49.228C65.012,49.293,65.03,49.353,65.036,49.424L65.036,56.393L72.212,56.393C72.248,56.399,72.284,56.405,72.319,56.417C72.361,56.428,72.408,56.446,72.456,56.446C72.503,56.446,72.539,56.434,72.586,56.417C72.622,56.411,72.658,56.399,72.705,56.393L79.876,56.393L79.876,49.436C79.882,49.359,79.9,49.293,79.923,49.222C79.941,49.145,79.965,49.068,79.965,48.979C79.965,48.901,79.947,48.824,79.923,48.747C79.9,48.676,79.882,48.605,79.876,48.528L79.876,41.553L72.604,41.553C72.581,41.553,72.557,41.547,72.533,41.535C72.509,41.529,72.486,41.523,72.456,41.523C72.432,41.523,72.408,41.529,72.385,41.535C72.361,41.547,72.337,41.553,72.307,41.553ZM72.307,41.553"/>
</g>
  <g id="Semibold-L" transform="matrix(1.0,0.0,0.0,1.0,1973.3169673907719,1449.6794529872404)">  <path stroke="none" stroke-opacity="1" fill-opacity="1" stroke-width="1px" fill-rule="nonzero" stroke-linecap="butt" stroke-dasharray="none" fill="#000000" stroke-miterlimit="4" stroke-linejoin="miter" d="M71.233,11.872C104.012,11.872,130.594,38.448,130.594,71.233C130.594,104.012,104.012,130.594,71.233,130.594C38.442,130.594,11.872,104.012,11.872,71.233C11.872,38.448,38.442,11.872,71.233,11.872ZM60.435,100.955L84.471,100.955C86.05,100.955,87.332,99.465,87.332,97.637C87.332,95.802,86.05,94.307,84.471,94.307L79.876,93.493L79.876,63.813C79.876,63.546,79.9,63.433,79.923,63.332C79.923,63.32,79.929,63.308,79.929,63.296C79.846,63.486,79.662,63.724,79.092,63.724L60.435,63.724C58.856,63.724,57.58,65.214,57.58,67.048C57.58,68.882,58.856,70.372,60.435,70.372L65.036,71.233L65.036,93.493L60.435,94.307C58.856,94.307,57.58,95.802,57.58,97.637C57.58,99.465,58.856,100.955,60.435,100.955ZM72.307,41.553L65.036,41.553L65.036,48.533C65.03,48.605,65.012,48.67,64.988,48.735C64.965,48.818,64.941,48.896,64.941,48.979C64.941,49.068,64.965,49.151,64.988,49.228C65.012,49.293,65.03,49.353,65.036,49.424L65.036,56.393L72.212,56.393C72.248,56.399,72.284,56.405,72.319,56.417C72.361,56.428,72.408,56.446,72.456,56.446C72.503,56.446,72.539,56.434,72.586,56.417C72.622,56.411,72.658,56.399,72.705,56.393L79.876,56.393L79.876,49.436C79.882,49.359,79.9,49.293,79.923,49.222C79.941,49.145,79.965,49.068,79.965,48.979C79.965,48.901,79.947,48.824,79.923,48.747C79.9,48.676,79.882,48.605,79.876,48.528L79.876,41.553L72.604,41.553C72.581,41.553,72.557,41.547,72.533,41.535C72.509,41.529,72.486,41.523,72.456,41.523C72.432,41.523,72.408,41.529,72.385,41.535C72.361,41.547,72.337,41.553,72.307,41.553ZM72.307,41.553"/>
</g>
  <g id="Medium-L" transform="matrix(1.0,0.0,0.0,1.0,1676.6069673907718,1449.6794529872404)">  <path stroke-opacity="1" fill="#000000" stroke-miterlimit="4" stroke="none" stroke-dasharray="none" fill-rule="nonzero" stroke-linecap="butt" stroke-width="1px" stroke-linejoin="miter" fill-opacity="1" d="M71.233,11.872C104.012,11.872,130.594,38.448,130.594,71.233C130.594,104.012,104.012,130.594,71.233,130.594C38.442,130.594,11.872,104.012,11.872,71.233C11.872,38.448,38.442,11.872,71.233,11.872ZM60.435,100.955L84.471,100.955C86.05,100.955,87.332,99.465,87.332,97.637C87.332,95.802,86.05,94.307,84.471,94.307L79.876,93.493L79.876,63.813C79.876,63.546,79.9,63.433,79.923,63.332C79.923,63.32,79.929,63.308,79.929,63.296C79.846,63.486,79.662,63.724,79.092,63.724L60.435,63.724C58.856,63.724,57.58,65.214,57.58,67.048C57.58,68.882,58.856,70.372,60.435,70.372L65.036,71.233L65.036,93.493L60.435,94.307C58.856,94.307,57.58,95.802,57.58,97.637C57.58,99.465,58.856,100.955,60.435,100.955ZM72.307,41.553L65.036,41.553L65.036,48.533C65.03,48.605,65.012,48.67,64.988,48.735C64.965,48.818,64.941,48.896,64.941,48.979C64.941,49.068,64.965,49.151,64.988,49.228C65.012,49.293,65.03,49.353,65.036,49.424L65.036,56.393L72.212,56.393C72.248,56.399,72.284,56.405,72.319,56.417C72.361,56.428,72.408,56.446,72.456,56.446C72.503,56.446,72.539,56.434,72.586,56.417C72.622,56.411,72.658,56.399,72.705,56.393L79.876,56.393L79.876,49.436C79.882,49.359,79.9,49.293,79.923,49.222C79.941,49.145,79.965,49.068,79.965,48.979C79.965,48.901,79.947,48.824,79.923,48.747C79.9,48.676,79.882,48.605,79.876,48.528L79.876,41.553L72.604,41.553C72.581,41.553,72.557,41.547,72.533,41.535C72.509,41.529,72.486,41.523,72.456,41.523C72.432,41.523,72.408,41.529,72.385,41.535C72.361,41.547,72.337,41.553,72.307,41.553ZM72.307,41.553"/>
</g>
  <g id="Regular-L" transform="matrix(1.0,0.0,0.0,1.0,1379.8969673907718,1449.6794529872404)">  <path fill="#000000" fill-opacity="1" stroke-opacity="1" stroke-dasharray="none" fill-rule="nonzero" stroke="none" stroke-linecap="butt" stroke-linejoin="miter" stroke-width="1px" stroke-miterlimit="4" d="M71.233,11.872C104.012,11.872,130.594,38.448,130.594,71.233C130.594,104.012,104.012,130.594,71.233,130.594C38.442,130.594,11.872,104.012,11.872,71.233C11.872,38.448,38.442,11.872,71.233,11.872ZM60.435,100.955L84.471,100.955C86.05,100.955,87.332,99.465,87.332,97.637C87.332,95.802,86.05,94.307,84.471,94.307L79.876,93.493L79.876,63.813C79.876,63.546,79.9,63.433,79.923,63.332C79.923,63.32,79.929,63.308,79.929,63.296C79.846,63.486,79.662,63.724,79.092,63.724L60.435,63.724C58.856,63.724,57.58,65.214,57.58,67.048C57.58,68.882,58.856,70.372,60.435,70.372L65.036,71.233L65.036,93.493L60.435,94.307C58.856,94.307,57.58,95.802,57.58,97.637C57.58,99.465,58.856,100.955,60.435,100.955ZM72.307,41.553L65.036,41.553L65.036,48.533C65.03,48.605,65.012,48.67,64.988,48.735C64.965,48.818,64.941,48.896,64.941,48.979C64.941,49.068,64.965,49.151,64.988,49.228C65.012,49.293,65.03,49.353,65.036,49.424L65.036,56.393L72.212,56.393C72.248,56.399,72.284,56.405,72.319,56.417C72.361,56.428,72.408,56.446,72.456,56.446C72.503,56.446,72.539,56.434,72.586,56.417C72.622,56.411,72.658,56.399,72.705,56.393L79.876,56.393L79.876,49.436C79.882,49.359,79.9,49.293,79.923,49.222C79.941,49.145,79.965,49.068,79.965,48.979C79.965,48.901,79.947,48.824,79.923,48.747C79.9,48.676,79.882,48.605,79.876,48.528L79.876,41.553L72.604,41.553C72.581,41.553,72.557,41.547,72.533,41.535C72.509,41.529,72.486,41.523,72.456,41.523C72.432,41.523,72.408,41.529,72.385,41.535C72.361,41.547,72.337,41.553,72.307,41.553ZM72.307,41.553"/>
</g>
  <g id="Light-L" transform="matrix(1.0,0.0,0.0,1.0,1083.186967390772,1449.6794529872404)">  <path fill-rule="nonzero" stroke-dasharray="none" stroke-linejoin="miter" stroke-width="1px" stroke-miterlimit="4" stroke="none" stroke-opacity="1" fill-opacity="1" fill="#000000" stroke-linecap="butt" d="M71.233,11.872C104.012,11.872,130.594,38.448,130.594,71.233C130.594,104.012,104.012,130.594,71.233,130.594C38.442,130.594,11.872,104.012,11.872,71.233C11.872,38.448,38.442,11.872,71.233,11.872ZM60.435,100.955L84.471,100.955C86.05,100.955,87.332,99.465,87.332,97.637C87.332,95.802,86.05,94.307,84.471,94.307L79.876,93.493L79.876,63.813C79.876,63.546,79.9,63.433,79.923,63.332C79.923,63.32,79.929,63.308,79.929,63.296C79.846,63.486,79.662,63.724,79.092,63.724L60.435,63.724C58.856,63.724,57.58,65.214,57.58,67.048C57.58,68.882,58.856,70.372,60.435,70.372L65.036,71.233L65.036,93.493L60.435,94.307C58.856,94.307,57.58,95.802,57.58,97.637C57.58,99.465,58.856,100.955,60.435,100.955ZM72.307,41.553L65.036,41.553L65.036,48.533C65.03,48.605,65.012,48.67,64.988,48.735C64.965,48.818,64.941,48.896,64.941,48.979C64.941,49.068,64.965,49.151,64.988,49.228C65.012,49.293,65.03,49.353,65.036,49.424L65.036,56.393L72.212,56.393C72.248,56.399,72.284,56.405,72.319,56.417C72.361,56.428,72.408,56.446,72.456,56.446C72.503,56.446,72.539,56.434,72.586,56.417C72.622,56.411,72.658,56.399,72.705,56.393L79.876,56.393L79.876,49.436C79.882,49.359,79.9,49.293,79.923,49.222C79.941,49.145,79.965,49.068,79.965,48.979C79.965,48.901,79.947,48.824,79.923,48.747C79.9,48.676,79.882,48.605,79.876,48.528L79.876,41.553L72.604,41.553C72.581,41.553,72.557,41.547,72.533,41.535C72.509,41.529,72.486,41.523,72.456,41.523C72.432,41.523,72.408,41.529,72.385,41.535C72.361,41.547,72.337,41.553,72.307,41.553ZM72.307,41.553"/>
</g>
  <g id="Thin-L" transform="matrix(1.0,0.0,0.0,1.0,786.476967390772,1449.6794529872404)">  <path stroke-miterlimit="4" fill="#000000" stroke="none" stroke-linecap="butt" fill-rule="nonzero" stroke-dasharray="none" fill-opacity="1" stroke-linejoin="miter" stroke-opacity="1" stroke-width="1px" d="M71.233,11.872C104.012,11.872,130.594,38.448,130.594,71.233C130.594,104.012,104.012,130.594,71.233,130.594C38.442,130.594,11.872,104.012,11.872,71.233C11.872,38.448,38.442,11.872,71.233,11.872ZM60.435,100.955L84.471,100.955C86.05,100.955,87.332,99.465,87.332,97.637C87.332,95.802,86.05,94.307,84.471,94.307L79.876,93.493L79.876,63.813C79.876,63.546,79.9,63.433,79.923,63.332C79.923,63.32,79.929,63.308,79.929,63.296C79.846,63.486,79.662,63.724,79.092,63.724L60.435,63.724C58.856,63.724,57.58,65.214,57.58,67.048C57.58,68.882,58.856,70.372,60.435,70.372L65.036,71.233L65.036,93.493L60.435,94.307C58.856,94.307,57.58,95.802,57.58,97.637C57.58,99.465,58.856,100.955,60.435,100.955ZM72.307,41.553L65.036,41.553L65.036,48.533C65.03,48.605,65.012,48.67,64.988,48.735C64.965,48.818,64.941,48.896,64.941,48.979C64.941,49.068,64.965,49.151,64.988,49.228C65.012,49.293,65.03,49.353,65.036,49.424L65.036,56.393L72.212,56.393C72.248,56.399,72.284,56.405,72.319,56.417C72.361,56.428,72.408,56.446,72.456,56.446C72.503,56.446,72.539,56.434,72.586,56.417C72.622,56.411,72.658,56.399,72.705,56.393L79.876,56.393L79.876,49.436C79.882,49.359,79.9,49.293,79.923,49.222C79.941,49.145,79.965,49.068,79.965,48.979C79.965,48.901,79.947,48.824,79.923,48.747C79.9,48.676,79.882,48.605,79.876,48.528L79.876,41.553L72.604,41.553C72.581,41.553,72.557,41.547,72.533,41.535C72.509,41.529,72.486,41.523,72.456,41.523C72.432,41.523,72.408,41.529,72.385,41.535C72.361,41.547,72.337,41.553,72.307,41.553ZM72.307,41.553"/>
</g>
  <g id="Ultralight-L" transform="matrix(1.0,0.0,0.0,1.0,489.7669673907719,1449.6794529872404)">  <path stroke-linecap="butt" fill-opacity="1" stroke-linejoin="miter" stroke="none" stroke-opacity="1" stroke-miterlimit="4" fill="#000000" stroke-dasharray="none" fill-rule="nonzero" stroke-width="1px" d="M71.233,11.872C104.012,11.872,130.594,38.448,130.594,71.233C130.594,104.012,104.012,130.594,71.233,130.594C38.442,130.594,11.872,104.012,11.872,71.233C11.872,38.448,38.442,11.872,71.233,11.872ZM60.435,100.955L84.471,100.955C86.05,100.955,87.332,99.465,87.332,97.637C87.332,95.802,86.05,94.307,84.471,94.307L79.876,93.493L79.876,63.813C79.876,63.546,79.9,63.433,79.923,63.332C79.923,63.32,79.929,63.308,79.929,63.296C79.846,63.486,79.662,63.724,79.092,63.724L60.435,63.724C58.856,63.724,57.58,65.214,57.58,67.048C57.58,68.882,58.856,70.372,60.435,70.372L65.036,71.233L65.036,93.493L60.435,94.307C58.856,94.307,57.58,95.802,57.58,97.637C57.58,99.465,58.856,100.955,60.435,100.955ZM72.307,41.553L65.036,41.553L65.036,48.533C65.03,48.605,65.012,48.67,64.988,48.735C64.965,48.818,64.941,48.896,64.941,48.979C64.941,49.068,64.965,49.151,64.988,49.228C65.012,49.293,65.03,49.353,65.036,49.424L65.036,56.393L72.212,56.393C72.248,56.399,72.284,56.405,72.319,56.417C72.361,56.428,72.408,56.446,72.456,56.446C72.503,56.446,72.539,56.434,72.586,56.417C72.622,56.411,72.658,56.399,72.705,56.393L79.876,56.393L79.876,49.436C79.882,49.359,79.9,49.293,79.923,49.222C79.941,49.145,79.965,49.068,79.965,48.979C79.965,48.901,79.947,48.824,79.923,48.747C79.9,48.676,79.882,48.605,79.876,48.528L79.876,41.553L72.604,41.553C72.581,41.553,72.557,41.547,72.533,41.535C72.509,41.529,72.486,41.523,72.456,41.523C72.432,41.523,72.408,41.529,72.385,41.535C72.361,41.547,72.337,41.553,72.307,41.553ZM72.307,41.553"/>
</g>
  <g id="Black-M" transform="matrix(1.0,0.0,0.0,1.0,2879.460594876567,1035.6610532180644)">  <path stroke-linecap="butt" fill="#000000" fill-opacity="1" stroke="none" stroke-dasharray="none" stroke-width="1px" stroke-miterlimit="4" stroke-linejoin="miter" fill-rule="nonzero" stroke-opacity="1" d="M55.219,9.203C80.63,9.203,101.236,29.805,101.236,55.219C101.236,80.63,80.63,101.236,55.219,101.236C29.8,101.236,9.203,80.63,9.203,55.219C9.203,29.805,29.8,9.203,55.219,9.203ZM46.849,78.26L65.481,78.26C66.705,78.26,67.699,77.105,67.699,75.687C67.699,74.265,66.705,73.106,65.481,73.106L61.919,72.475L61.919,49.467C61.919,49.26,61.938,49.173,61.956,49.095C61.956,49.085,61.961,49.076,61.961,49.067C61.896,49.214,61.754,49.398,61.312,49.398L46.849,49.398C45.625,49.398,44.636,50.553,44.636,51.975C44.636,53.397,45.625,54.552,46.849,54.552L50.415,55.219L50.415,72.475L46.849,73.106C45.625,73.106,44.636,74.265,44.636,75.687C44.636,77.105,45.625,78.26,46.849,78.26ZM56.052,32.211L50.415,32.211L50.415,37.623C50.411,37.678,50.397,37.729,50.379,37.779C50.36,37.844,50.342,37.904,50.342,37.968C50.342,38.037,50.36,38.101,50.379,38.161C50.397,38.212,50.411,38.258,50.415,38.313L50.415,43.715L55.979,43.715C56.006,43.72,56.034,43.725,56.061,43.734C56.094,43.743,56.131,43.757,56.167,43.757C56.204,43.757,56.232,43.748,56.269,43.734C56.296,43.729,56.324,43.72,56.361,43.715L61.919,43.715L61.919,38.322C61.924,38.262,61.938,38.212,61.956,38.157C61.97,38.097,61.988,38.037,61.988,37.968C61.988,37.908,61.975,37.848,61.956,37.788C61.938,37.733,61.924,37.678,61.919,37.618L61.919,32.211L56.282,32.211C56.264,32.211,56.246,32.207,56.227,32.198C56.209,32.193,56.19,32.188,56.167,32.188C56.149,32.188,56.131,32.193,56.112,32.198C56.094,32.207,56.075,32.211,56.052,32.211ZM56.052,32.211"/>
</g>
  <g id="Heavy-M" transform="matrix(1.0,0.0,0.0,1.0,2582.750594876567,1035.6610532180644)">  <path stroke-width="1px" stroke-dasharray="none" fill-rule="nonzero" fill-opacity="1" fill="#000000" stroke-linejoin="miter" stroke-linecap="butt" stroke-miterlimit="4" stroke-opacity="1" stroke="none" d="M55.219,9.203C80.63,9.203,101.236,29.805,101.236,55.219C101.236,80.63,80.63,101.236,55.219,101.236C29.8,101.236,9.203,80.63,9.203,55.219C9.203,29.805,29.8,9.203,55.219,9.203ZM46.849,78.26L65.481,78.26C66.705,78.26,67.699,77.105,67.699,75.687C67.699,74.265,66.705,73.106,65.481,73.106L61.919,72.475L61.919,49.467C61.919,49.26,61.938,49.173,61.956,49.095C61.956,49.085,61.961,49.076,61.961,49.067C61.896,49.214,61.754,49.398,61.312,49.398L46.849,49.398C45.625,49.398,44.636,50.553,44.636,51.975C44.636,53.397,45.625,54.552,46.849,54.552L50.415,55.219L50.415,72.475L46.849,73.106C45.625,73.106,44.636,74.265,44.636,75.687C44.636,77.105,45.625,78.26,46.849,78.26ZM56.052,32.211L50.415,32.211L50.415,37.623C50.411,37.678,50.397,37.729,50.379,37.779C50.36,37.844,50.342,37.904,50.342,37.968C50.342,38.037,50.36,38.101,50.379,38.161C50.397,38.212,50.411,38.258,50.415,38.313L50.415,43.715L55.979,43.715C56.006,43.72,56.034,43.725,56.061,43.734C56.094,43.743,56.131,43.757,56.167,43.757C56.204,43.757,56.232,43.748,56.269,43.734C56.296,43.729,56.324,43.72,56.361,43.715L61.919,43.715L61.919,38.322C61.924,38.262,61.938,38.212,61.956,38.157C61.97,38.097,61.988,38.037,61.988,37.968C61.988,37.908,61.975,37.848,61.956,37.788C61.938,37.733,61.924,37.678,61.919,37.618L61.919,32.211L56.282,32.211C56.264,32.211,56.246,32.207,56.227,32.198C56.209,32.193,56.19,32.188,56.167,32.188C56.149,32.188,56.131,32.193,56.112,32.198C56.094,32.207,56.075,32.211,56.052,32.211ZM56.052,32.211"/>
</g>
  <g id="Bold-M" transform="matrix(1.0,0.0,0.0,1.0,2286.040594876567,1035.6610532180644)">  <path stroke-miterlimit="4" fill="#000000" fill-opacity="1" fill-rule="nonzero" stroke-opacity="1" stroke-linejoin="miter" stroke="none" stroke-width="1px" stroke-dasharray="none" stroke-linecap="butt" d="M55.219,9.203C80.63,9.203,101.236,29.805,101.236,55.219C101.236,80.63,80.63,101.236,55.219,101.236C29.8,101.236,9.203,80.63,9.203,55.219C9.203,29.805,29.8,9.203,55.219,9.203ZM46.849,78.26L65.481,78.26C66.705,78.26,67.699,77.105,67.699,75.687C67.699,74.265,66.705,73.106,65.481,73.106L61.919,72.475L61.919,49.467C61.919,49.26,61.938,49.173,61.956,49.095C61.956,49.085,61.961,49.076,61.961,49.067C61.896,49.214,61.754,49.398,61.312,49.398L46.849,49.398C45.625,49.398,44.636,50.553,44.636,51.975C44.636,53.397,45.625,54.552,46.849,54.552L50.415,55.219L50.415,72.475L46.849,73.106C45.625,73.106,44.636,74.265,44.636,75.687C44.636,77.105,45.625,78.26,46.849,78.26ZM56.052,32.211L50.415,32.211L50.415,37.623C50.411,37.678,50.397,37.729,50.379,37.779C50.36,37.844,50.342,37.904,50.342,37.968C50.342,38.037,50.36,38.101,50.379,38.161C50.397,38.212,50.411,38.258,50.415,38.313L50.415,43.715L55.979,43.715C56.006,43.72,56.034,43.725,56.061,43.734C56.094,43.743,56.131,43.757,56.167,43.757C56.204,43.757,56.232,43.748,56.269,43.734C56.296,43.729,56.324,43.72,56.361,43.715L61.919,43.715L61.919,38.322C61.924,38.262,61.938,38.212,61.956,38.157C61.97,38.097,61.988,38.037,61.988,37.968C61.988,37.908,61.975,37.848,61.956,37.788C61.938,37.733,61.924,37.678,61.919,37.618L61.919,32.211L56.282,32.211C56.264,32.211,56.246,32.207,56.227,32.198C56.209,32.193,56.19,32.188,56.167,32.188C56.149,32.188,56.131,32.193,56.112,32.198C56.094,32.207,56.075,32.211,56.052,32.211ZM56.052,32.211"/>
</g>
  <g id="Semibold-M" transform="matrix(1.0,0.0,0.0,1.0,1989.3305948765674,1035.6610532180644)">  <path stroke="none" stroke-opacity="1" fill-opacity="1" stroke-width="1px" fill-rule="nonzero" stroke-linecap="butt" stroke-dasharray="none" fill="#000000" stroke-miterlimit="4" stroke-linejoin="miter" d="M55.219,9.203C80.63,9.203,101.236,29.805,101.236,55.219C101.236,80.63,80.63,101.236,55.219,101.236C29.8,101.236,9.203,80.63,9.203,55.219C9.203,29.805,29.8,9.203,55.219,9.203ZM46.849,78.26L65.481,78.26C66.705,78.26,67.699,77.105,67.699,75.687C67.699,74.265,66.705,73.106,65.481,73.106L61.919,72.475L61.919,49.467C61.919,49.26,61.938,49.173,61.956,49.095C61.956,49.085,61.961,49.076,61.961,49.067C61.896,49.214,61.754,49.398,61.312,49.398L46.849,49.398C45.625,49.398,44.636,50.553,44.636,51.975C44.636,53.397,45.625,54.552,46.849,54.552L50.415,55.219L50.415,72.475L46.849,73.106C45.625,73.106,44.636,74.265,44.636,75.687C44.636,77.105,45.625,78.26,46.849,78.26ZM56.052,32.211L50.415,32.211L50.415,37.623C50.411,37.678,50.397,37.729,50.379,37.779C50.36,37.844,50.342,37.904,50.342,37.968C50.342,38.037,50.36,38.101,50.379,38.161C50.397,38.212,50.411,38.258,50.415,38.313L50.415,43.715L55.979,43.715C56.006,43.72,56.034,43.725,56.061,43.734C56.094,43.743,56.131,43.757,56.167,43.757C56.204,43.757,56.232,43.748,56.269,43.734C56.296,43.729,56.324,43.72,56.361,43.715L61.919,43.715L61.919,38.322C61.924,38.262,61.938,38.212,61.956,38.157C61.97,38.097,61.988,38.037,61.988,37.968C61.988,37.908,61.975,37.848,61.956,37.788C61.938,37.733,61.924,37.678,61.919,37.618L61.919,32.211L56.282,32.211C56.264,32.211,56.246,32.207,56.227,32.198C56.209,32.193,56.19,32.188,56.167,32.188C56.149,32.188,56.131,32.193,56.112,32.198C56.094,32.207,56.075,32.211,56.052,32.211ZM56.052,32.211"/>
</g>
  <g id="Medium-M" transform="matrix(1.0,0.0,0.0,1.0,1692.6205948765673,1035.6610532180644)">  <path stroke-opacity="1" fill="#000000" stroke-miterlimit="4" stroke="none" stroke-dasharray="none" fill-rule="nonzero" stroke-linecap="butt" stroke-width="1px" stroke-linejoin="miter" fill-opacity="1" d="M55.219,9.203C80.63,9.203,101.236,29.805,101.236,55.219C101.236,80.63,80.63,101.236,55.219,101.236C29.8,101.236,9.203,80.63,9.203,55.219C9.203,29.805,29.8,9.203,55.219,9.203ZM46.849,78.26L65.481,78.26C66.705,78.26,67.699,77.105,67.699,75.687C67.699,74.265,66.705,73.106,65.481,73.106L61.919,72.475L61.919,49.467C61.919,49.26,61.938,49.173,61.956,49.095C61.956,49.085,61.961,49.076,61.961,49.067C61.896,49.214,61.754,49.398,61.312,49.398L46.849,49.398C45.625,49.398,44.636,50.553,44.636,51.975C44.636,53.397,45.625,54.552,46.849,54.552L50.415,55.219L50.415,72.475L46.849,73.106C45.625,73.106,44.636,74.265,44.636,75.687C44.636,77.105,45.625,78.26,46.849,78.26ZM56.052,32.211L50.415,32.211L50.415,37.623C50.411,37.678,50.397,37.729,50.379,37.779C50.36,37.844,50.342,37.904,50.342,37.968C50.342,38.037,50.36,38.101,50.379,38.161C50.397,38.212,50.411,38.258,50.415,38.313L50.415,43.715L55.979,43.715C56.006,43.72,56.034,43.725,56.061,43.734C56.094,43.743,56.131,43.757,56.167,43.757C56.204,43.757,56.232,43.748,56.269,43.734C56.296,43.729,56.324,43.72,56.361,43.715L61.919,43.715L61.919,38.322C61.924,38.262,61.938,38.212,61.956,38.157C61.97,38.097,61.988,38.037,61.988,37.968C61.988,37.908,61.975,37.848,61.956,37.788C61.938,37.733,61.924,37.678,61.919,37.618L61.919,32.211L56.282,32.211C56.264,32.211,56.246,32.207,56.227,32.198C56.209,32.193,56.19,32.188,56.167,32.188C56.149,32.188,56.131,32.193,56.112,32.198C56.094,32.207,56.075,32.211,56.052,32.211ZM56.052,32.211"/>
</g>
  <g id="Regular-M" transform="matrix(1.0,0.0,0.0,1.0,1395.9105948765673,1035.6610532180644)">  <path fill="#000000" fill-opacity="1" stroke-opacity="1" stroke-dasharray="none" fill-rule="nonzero" stroke="none" stroke-linecap="butt" stroke-linejoin="miter" stroke-width="1px" stroke-miterlimit="4" d="M55.219,9.203C80.63,9.203,101.236,29.805,101.236,55.219C101.236,80.63,80.63,101.236,55.219,101.236C29.8,101.236,9.203,80.63,9.203,55.219C9.203,29.805,29.8,9.203,55.219,9.203ZM46.849,78.26L65.481,78.26C66.705,78.26,67.699,77.105,67.699,75.687C67.699,74.265,66.705,73.106,65.481,73.106L61.919,72.475L61.919,49.467C61.919,49.26,61.938,49.173,61.956,49.095C61.956,49.085,61.961,49.076,61.961,49.067C61.896,49.214,61.754,49.398,61.312,49.398L46.849,49.398C45.625,49.398,44.636,50.553,44.636,51.975C44.636,53.397,45.625,54.552,46.849,54.552L50.415,55.219L50.415,72.475L46.849,73.106C45.625,73.106,44.636,74.265,44.636,75.687C44.636,77.105,45.625,78.26,46.849,78.26ZM56.052,32.211L50.415,32.211L50.415,37.623C50.411,37.678,50.397,37.729,50.379,37.779C50.36,37.844,50.342,37.904,50.342,37.968C50.342,38.037,50.36,38.101,50.379,38.161C50.397,38.212,50.411,38.258,50.415,38.313L50.415,43.715L55.979,43.715C56.006,43.72,56.034,43.725,56.061,43.734C56.094,43.743,56.131,43.757,56.167,43.757C56.204,43.757,56.232,43.748,56.269,43.734C56.296,43.729,56.324,43.72,56.361,43.715L61.919,43.715L61.919,38.322C61.924,38.262,61.938,38.212,61.956,38.157C61.97,38.097,61.988,38.037,61.988,37.968C61.988,37.908,61.975,37.848,61.956,37.788C61.938,37.733,61.924,37.678,61.919,37.618L61.919,32.211L56.282,32.211C56.264,32.211,56.246,32.207,56.227,32.198C56.209,32.193,56.19,32.188,56.167,32.188C56.149,32.188,56.131,32.193,56.112,32.198C56.094,32.207,56.075,32.211,56.052,32.211ZM56.052,32.211"/>
</g>
  <g id="Light-M" transform="matrix(1.0,0.0,0.0,1.0,1099.2005948765675,1035.6610532180644)">  <path fill-rule="nonzero" stroke-dasharray="none" stroke-linejoin="miter" stroke-width="1px" stroke-miterlimit="4" stroke="none" stroke-opacity="1" fill-opacity="1" fill="#000000" stroke-linecap="butt" d="M55.219,9.203C80.63,9.203,101.236,29.805,101.236,55.219C101.236,80.63,80.63,101.236,55.219,101.236C29.8,101.236,9.203,80.63,9.203,55.219C9.203,29.805,29.8,9.203,55.219,9.203ZM46.849,78.26L65.481,78.26C66.705,78.26,67.699,77.105,67.699,75.687C67.699,74.265,66.705,73.106,65.481,73.106L61.919,72.475L61.919,49.467C61.919,49.26,61.938,49.173,61.956,49.095C61.956,49.085,61.961,49.076,61.961,49.067C61.896,49.214,61.754,49.398,61.312,49.398L46.849,49.398C45.625,49.398,44.636,50.553,44.636,51.975C44.636,53.397,45.625,54.552,46.849,54.552L50.415,55.219L50.415,72.475L46.849,73.106C45.625,73.106,44.636,74.265,44.636,75.687C44.636,77.105,45.625,78.26,46.849,78.26ZM56.052,32.211L50.415,32.211L50.415,37.623C50.411,37.678,50.397,37.729,50.379,37.779C50.36,37.844,50.342,37.904,50.342,37.968C50.342,38.037,50.36,38.101,50.379,38.161C50.397,38.212,50.411,38.258,50.415,38.313L50.415,43.715L55.979,43.715C56.006,43.72,56.034,43.725,56.061,43.734C56.094,43.743,56.131,43.757,56.167,43.757C56.204,43.757,56.232,43.748,56.269,43.734C56.296,43.729,56.324,43.72,56.361,43.715L61.919,43.715L61.919,38.322C61.924,38.262,61.938,38.212,61.956,38.157C61.97,38.097,61.988,38.037,61.988,37.968C61.988,37.908,61.975,37.848,61.956,37.788C61.938,37.733,61.924,37.678,61.919,37.618L61.919,32.211L56.282,32.211C56.264,32.211,56.246,32.207,56.227,32.198C56.209,32.193,56.19,32.188,56.167,32.188C56.149,32.188,56.131,32.193,56.112,32.198C56.094,32.207,56.075,32.211,56.052,32.211ZM56.052,32.211"/>
</g>
  <g id="Thin-M" transform="matrix(1.0,0.0,0.0,1.0,802.4905948765675,1035.6610532180644)">  <path stroke-miterlimit="4" fill="#000000" stroke="none" stroke-linecap="butt" fill-rule="nonzero" stroke-dasharray="none" fill-opacity="1" stroke-linejoin="miter" stroke-opacity="1" stroke-width="1px" d="M55.219,9.203C80.63,9.203,101.236,29.805,101.236,55.219C101.236,80.63,80.63,101.236,55.219,101.236C29.8,101.236,9.203,80.63,9.203,55.219C9.203,29.805,29.8,9.203,55.219,9.203ZM46.849,78.26L65.481,78.26C66.705,78.26,67.699,77.105,67.699,75.687C67.699,74.265,66.705,73.106,65.481,73.106L61.919,72.475L61.919,49.467C61.919,49.26,61.938,49.173,61.956,49.095C61.956,49.085,61.961,49.076,61.961,49.067C61.896,49.214,61.754,49.398,61.312,49.398L46.849,49.398C45.625,49.398,44.636,50.553,44.636,51.975C44.636,53.397,45.625,54.552,46.849,54.552L50.415,55.219L50.415,72.475L46.849,73.106C45.625,73.106,44.636,74.265,44.636,75.687C44.636,77.105,45.625,78.26,46.849,78.26ZM56.052,32.211L50.415,32.211L50.415,37.623C50.411,37.678,50.397,37.729,50.379,37.779C50.36,37.844,50.342,37.904,50.342,37.968C50.342,38.037,50.36,38.101,50.379,38.161C50.397,38.212,50.411,38.258,50.415,38.313L50.415,43.715L55.979,43.715C56.006,43.72,56.034,43.725,56.061,43.734C56.094,43.743,56.131,43.757,56.167,43.757C56.204,43.757,56.232,43.748,56.269,43.734C56.296,43.729,56.324,43.72,56.361,43.715L61.919,43.715L61.919,38.322C61.924,38.262,61.938,38.212,61.956,38.157C61.97,38.097,61.988,38.037,61.988,37.968C61.988,37.908,61.975,37.848,61.956,37.788C61.938,37.733,61.924,37.678,61.919,37.618L61.919,32.211L56.282,32.211C56.264,32.211,56.246,32.207,56.227,32.198C56.209,32.193,56.19,32.188,56.167,32.188C56.149,32.188,56.131,32.193,56.112,32.198C56.094,32.207,56.075,32.211,56.052,32.211ZM56.052,32.211"/>
</g>
  <g id="Ultralight-M" transform="matrix(1.0,0.0,0.0,1.0,505.7805948765674,1035.6610532180644)">  <path stroke-linecap="butt" fill-opacity="1" stroke-linejoin="miter" stroke="none" stroke-opacity="1" stroke-miterlimit="4" fill="#000000" stroke-dasharray="none" fill-rule="nonzero" stroke-width="1px" d="M55.219,9.203C80.63,9.203,101.236,29.805,101.236,55.219C101.236,80.63,80.63,101.236,55.219,101.236C29.8,101.236,9.203,80.63,9.203,55.219C9.203,29.805,29.8,9.203,55.219,9.203ZM46.849,78.26L65.481,78.26C66.705,78.26,67.699,77.105,67.699,75.687C67.699,74.265,66.705,73.106,65.481,73.106L61.919,72.475L61.919,49.467C61.919,49.26,61.938,49.173,61.956,49.095C61.956,49.085,61.961,49.076,61.961,49.067C61.896,49.214,61.754,49.398,61.312,49.398L46.849,49.398C45.625,49.398,44.636,50.553,44.636,51.975C44.636,53.397,45.625,54.552,46.849,54.552L50.415,55.219L50.415,72.475L46.849,73.106C45.625,73.106,44.636,74.265,44.636,75.687C44.636,77.105,45.625,78.26,46.849,78.26ZM56.052,32.211L50.415,32.211L50.415,37.623C50.411,37.678,50.397,37.729,50.379,37.779C50.36,37.844,50.342,37.904,50.342,37.968C50.342,38.037,50.36,38.101,50.379,38.161C50.397,38.212,50.411,38.258,50.415,38.313L50.415,43.715L55.979,43.715C56.006,43.72,56.034,43.725,56.061,43.734C56.094,43.743,56.131,43.757,56.167,43.757C56.204,43.757,56.232,43.748,56.269,43.734C56.296,43.729,56.324,43.72,56.361,43.715L61.919,43.715L61.919,38.322C61.924,38.262,61.938,38.212,61.956,38.157C61.97,38.097,61.988,38.037,61.988,37.968C61.988,37.908,61.975,37.848,61.956,37.788C61.938,37.733,61.924,37.678,61.919,37.618L61.919,32.211L56.282,32.211C56.264,32.211,56.246,32.207,56.227,32.198C56.209,32.193,56.19,32.188,56.167,32.188C56.149,32.188,56.131,32.193,56.112,32.198C56.094,32.207,56.075,32.211,56.052,32.211ZM56.052,32.211"/>
</g>
  <g id="Black-S" transform="matrix(1.0,0.0,0.0,1.0,2891.4432057883523,617.6196989080256)">  <path stroke-linecap="butt" fill="#000000" fill-opacity="1" stroke="none" stroke-dasharray="none" stroke-width="1px" stroke-miterlimit="4" stroke-linejoin="miter" fill-rule="nonzero" stroke-opacity="1" d="M43.237,7.206C63.133,7.206,79.267,23.337,79.267,43.237C79.267,63.133,63.133,79.267,43.237,79.267C23.333,79.267,7.206,63.133,7.206,43.237C7.206,23.337,23.333,7.206,43.237,7.206ZM36.683,61.277L51.272,61.277C52.23,61.277,53.008,60.373,53.008,59.263C53.008,58.15,52.23,57.242,51.272,57.242L48.483,56.748L48.483,38.733C48.483,38.571,48.497,38.502,48.512,38.441C48.512,38.434,48.515,38.427,48.515,38.419C48.465,38.535,48.353,38.679,48.007,38.679L36.683,38.679C35.724,38.679,34.95,39.583,34.95,40.697C34.95,41.81,35.724,42.714,36.683,42.714L39.475,43.237L39.475,56.748L36.683,57.242C35.724,57.242,34.95,58.15,34.95,59.263C34.95,60.373,35.724,61.277,36.683,61.277ZM43.889,25.221L39.475,25.221L39.475,29.459C39.472,29.502,39.461,29.542,39.446,29.581C39.432,29.632,39.418,29.678,39.418,29.729C39.418,29.783,39.432,29.833,39.446,29.88C39.461,29.92,39.472,29.956,39.475,29.999L39.475,34.229L43.831,34.229C43.853,34.233,43.875,34.236,43.896,34.244C43.921,34.251,43.95,34.262,43.979,34.262C44.008,34.262,44.029,34.254,44.058,34.244C44.08,34.24,44.102,34.233,44.13,34.229L48.483,34.229L48.483,30.006C48.486,29.959,48.497,29.92,48.512,29.877C48.522,29.83,48.537,29.783,48.537,29.729C48.537,29.682,48.526,29.635,48.512,29.588C48.497,29.545,48.486,29.502,48.483,29.455L48.483,25.221L44.069,25.221C44.055,25.221,44.04,25.218,44.026,25.211C44.011,25.207,43.997,25.203,43.979,25.203C43.965,25.203,43.95,25.207,43.936,25.211C43.921,25.218,43.907,25.221,43.889,25.221ZM43.889,25.221"/>
</g>
  <g id="Heavy-S" transform="matrix(1.0,0.0,0.0,1.0,2594.7332057883523,617.6196989080256)">  <path stroke-width="1px" stroke-dasharray="none" fill-rule="nonzero" fill-opacity="1" fill="#000000" stroke-linejoin="miter" stroke-linecap="butt" stroke-miterlimit="4" stroke-opacity="1" stroke="none" d="M43.237,7.206C63.133,7.206,79.267,23.337,79.267,43.237C79.267,63.133,63.133,79.267,43.237,79.267C23.333,79.267,7.206,63.133,7.206,43.237C7.206,23.337,23.333,7.206,43.237,7.206ZM36.683,61.277L51.272,61.277C52.23,61.277,53.008,60.373,53.008,59.263C53.008,58.15,52.23,57.242,51.272,57.242L48.483,56.748L48.483,38.733C48.483,38.571,48.497,38.502,48.512,38.441C48.512,38.434,48.515,38.427,48.515,38.419C48.465,38.535,48.353,38.679,48.007,38.679L36.683,38.679C35.724,38.679,34.95,39.583,34.95,40.697C34.95,41.81,35.724,42.714,36.683,42.714L39.475,43.237L39.475,56.748L36.683,57.242C35.724,57.242,34.95,58.15,34.95,59.263C34.95,60.373,35.724,61.277,36.683,61.277ZM43.889,25.221L39.475,25.221L39.475,29.459C39.472,29.502,39.461,29.542,39.446,29.581C39.432,29.632,39.418,29.678,39.418,29.729C39.418,29.783,39.432,29.833,39.446,29.88C39.461,29.92,39.472,29.956,39.475,29.999L39.475,34.229L43.831,34.229C43.853,34.233,43.875,34.236,43.896,34.244C43.921,34.251,43.95,34.262,43.979,34.262C44.008,34.262,44.029,34.254,44.058,34.244C44.08,34.24,44.102,34.233,44.13,34.229L48.483,34.229L48.483,30.006C48.486,29.959,48.497,29.92,48.512,29.877C48.522,29.83,48.537,29.783,48.537,29.729C48.537,29.682,48.526,29.635,48.512,29.588C48.497,29.545,48.486,29.502,48.483,29.455L48.483,25.221L44.069,25.221C44.055,25.221,44.04,25.218,44.026,25.211C44.011,25.207,43.997,25.203,43.979,25.203C43.965,25.203,43.95,25.207,43.936,25.211C43.921,25.218,43.907,25.221,43.889,25.221ZM43.889,25.221"/>
</g>
  <g id="Bold-S" transform="matrix(1.0,0.0,0.0,1.0,2298.0232057883522,617.6196989080256)">  <path stroke-miterlimit="4" fill="#000000" fill-opacity="1" fill-rule="nonzero" stroke-opacity="1" stroke-linejoin="miter" stroke="none" stroke-width="1px" stroke-dasharray="none" stroke-linecap="butt" d="M43.237,7.206C63.133,7.206,79.267,23.337,79.267,43.237C79.267,63.133,63.133,79.267,43.237,79.267C23.333,79.267,7.206,63.133,7.206,43.237C7.206,23.337,23.333,7.206,43.237,7.206ZM36.683,61.277L51.272,61.277C52.23,61.277,53.008,60.373,53.008,59.263C53.008,58.15,52.23,57.242,51.272,57.242L48.483,56.748L48.483,38.733C48.483,38.571,48.497,38.502,48.512,38.441C48.512,38.434,48.515,38.427,48.515,38.419C48.465,38.535,48.353,38.679,48.007,38.679L36.683,38.679C35.724,38.679,34.95,39.583,34.95,40.697C34.95,41.81,35.724,42.714,36.683,42.714L39.475,43.237L39.475,56.748L36.683,57.242C35.724,57.242,34.95,58.15,34.95,59.263C34.95,60.373,35.724,61.277,36.683,61.277ZM43.889,25.221L39.475,25.221L39.475,29.459C39.472,29.502,39.461,29.542,39.446,29.581C39.432,29.632,39.418,29.678,39.418,29.729C39.418,29.783,39.432,29.833,39.446,29.88C39.461,29.92,39.472,29.956,39.475,29.999L39.475,34.229L43.831,34.229C43.853,34.233,43.875,34.236,43.896,34.244C43.921,34.251,43.95,34.262,43.979,34.262C44.008,34.262,44.029,34.254,44.058,34.244C44.08,34.24,44.102,34.233,44.13,34.229L48.483,34.229L48.483,30.006C48.486,29.959,48.497,29.92,48.512,29.877C48.522,29.83,48.537,29.783,48.537,29.729C48.537,29.682,48.526,29.635,48.512,29.588C48.497,29.545,48.486,29.502,48.483,29.455L48.483,25.221L44.069,25.221C44.055,25.221,44.04,25.218,44.026,25.211C44.011,25.207,43.997,25.203,43.979,25.203C43.965,25.203,43.95,25.207,43.936,25.211C43.921,25.218,43.907,25.221,43.889,25.221ZM43.889,25.221"/>
</g>
  <g id="Semibold-S" transform="matrix(1.0,0.0,0.0,1.0,2001.3132057883522,617.6196989080256)">  <path stroke="none" stroke-opacity="1" fill-opacity="1" stroke-width="1px" fill-rule="nonzero" stroke-linecap="butt" stroke-dasharray="none" fill="#000000" stroke-miterlimit="4" stroke-linejoin="miter" d="M43.237,7.206C63.133,7.206,79.267,23.337,79.267,43.237C79.267,63.133,63.133,79.267,43.237,79.267C23.333,79.267,7.206,63.133,7.206,43.237C7.206,23.337,23.333,7.206,43.237,7.206ZM36.683,61.277L51.272,61.277C52.23,61.277,53.008,60.373,53.008,59.263C53.008,58.15,52.23,57.242,51.272,57.242L48.483,56.748L48.483,38.733C48.483,38.571,48.497,38.502,48.512,38.441C48.512,38.434,48.515,38.427,48.515,38.419C48.465,38.535,48.353,38.679,48.007,38.679L36.683,38.679C35.724,38.679,34.95,39.583,34.95,40.697C34.95,41.81,35.724,42.714,36.683,42.714L39.475,43.237L39.475,56.748L36.683,57.242C35.724,57.242,34.95,58.15,34.95,59.263C34.95,60.373,35.724,61.277,36.683,61.277ZM43.889,25.221L39.475,25.221L39.475,29.459C39.472,29.502,39.461,29.542,39.446,29.581C39.432,29.632,39.418,29.678,39.418,29.729C39.418,29.783,39.432,29.833,39.446,29.88C39.461,29.92,39.472,29.956,39.475,29.999L39.475,34.229L43.831,34.229C43.853,34.233,43.875,34.236,43.896,34.244C43.921,34.251,43.95,34.262,43.979,34.262C44.008,34.262,44.029,34.254,44.058,34.244C44.08,34.24,44.102,34.233,44.13,34.229L48.483,34.229L48.483,30.006C48.486,29.959,48.497,29.92,48.512,29.877C48.522,29.83,48.537,29.783,48.537,29.729C48.537,29.682,48.526,29.635,48.512,29.588C48.497,29.545,48.486,29.502,48.483,29.455L48.483,25.221L44.069,25.221C44.055,25.221,44.04,25.218,44.026,25.211C44.011,25.207,43.997,25.203,43.979,25.203C43.965,25.203,43.95,25.207,43.936,25.211C43.921,25.218,43.907,25.221,43.889,25.221ZM43.889,25.221"/>
</g>
  <g id="Medium-S" transform="matrix(1.0,0.0,0.0,1.0,1704.6032057883522,617.6196989080256)">  <path stroke-opacity="1" fill="#000000" stroke-miterlimit="4" stroke="none" stroke-dasharray="none" fill-rule="nonzero" stroke-linecap="butt" stroke-width="1px" stroke-linejoin="miter" fill-opacity="1" d="M43.237,7.206C63.133,7.206,79.267,23.337,79.267,43.237C79.267,63.133,63.133,79.267,43.237,79.267C23.333,79.267,7.206,63.133,7.206,43.237C7.206,23.337,23.333,7.206,43.237,7.206ZM36.683,61.277L51.272,61.277C52.23,61.277,53.008,60.373,53.008,59.263C53.008,58.15,52.23,57.242,51.272,57.242L48.483,56.748L48.483,38.733C48.483,38.571,48.497,38.502,48.512,38.441C48.512,38.434,48.515,38.427,48.515,38.419C48.465,38.535,48.353,38.679,48.007,38.679L36.683,38.679C35.724,38.679,34.95,39.583,34.95,40.697C34.95,41.81,35.724,42.714,36.683,42.714L39.475,43.237L39.475,56.748L36.683,57.242C35.724,57.242,34.95,58.15,34.95,59.263C34.95,60.373,35.724,61.277,36.683,61.277ZM43.889,25.221L39.475,25.221L39.475,29.459C39.472,29.502,39.461,29.542,39.446,29.581C39.432,29.632,39.418,29.678,39.418,29.729C39.418,29.783,39.432,29.833,39.446,29.88C39.461,29.92,39.472,29.956,39.475,29.999L39.475,34.229L43.831,34.229C43.853,34.233,43.875,34.236,43.896,34.244C43.921,34.251,43.95,34.262,43.979,34.262C44.008,34.262,44.029,34.254,44.058,34.244C44.08,34.24,44.102,34.233,44.13,34.229L48.483,34.229L48.483,30.006C48.486,29.959,48.497,29.92,48.512,29.877C48.522,29.83,48.537,29.783,48.537,29.729C48.537,29.682,48.526,29.635,48.512,29.588C48.497,29.545,48.486,29.502,48.483,29.455L48.483,25.221L44.069,25.221C44.055,25.221,44.04,25.218,44.026,25.211C44.011,25.207,43.997,25.203,43.979,25.203C43.965,25.203,43.95,25.207,43.936,25.211C43.921,25.218,43.907,25.221,43.889,25.221ZM43.889,25.221"/>
</g>
  <g id="Regular-S" transform="matrix(1.0,0.0,0.0,1.0,1407.8932057883521,617.6196989080256)">  <path fill="#000000" fill-opacity="1" stroke-opacity="1" stroke-dasharray="none" fill-rule="nonzero" stroke="none" stroke-linecap="butt" stroke-linejoin="miter" stroke-width="1px" stroke-miterlimit="4" d="M43.237,7.206C63.133,7.206,79.267,23.337,79.267,43.237C79.267,63.133,63.133,79.267,43.237,79.267C23.333,79.267,7.206,63.133,7.206,43.237C7.206,23.337,23.333,7.206,43.237,7.206ZM36.683,61.277L51.272,61.277C52.23,61.277,53.008,60.373,53.008,59.263C53.008,58.15,52.23,57.242,51.272,57.242L48.483,56.748L48.483,38.733C48.483,38.571,48.497,38.502,48.512,38.441C48.512,38.434,48.515,38.427,48.515,38.419C48.465,38.535,48.353,38.679,48.007,38.679L36.683,38.679C35.724,38.679,34.95,39.583,34.95,40.697C34.95,41.81,35.724,42.714,36.683,42.714L39.475,43.237L39.475,56.748L36.683,57.242C35.724,57.242,34.95,58.15,34.95,59.263C34.95,60.373,35.724,61.277,36.683,61.277ZM43.889,25.221L39.475,25.221L39.475,29.459C39.472,29.502,39.461,29.542,39.446,29.581C39.432,29.632,39.418,29.678,39.418,29.729C39.418,29.783,39.432,29.833,39.446,29.88C39.461,29.92,39.472,29.956,39.475,29.999L39.475,34.229L43.831,34.229C43.853,34.233,43.875,34.236,43.896,34.244C43.921,34.251,43.95,34.262,43.979,34.262C44.008,34.262,44.029,34.254,44.058,34.244C44.08,34.24,44.102,34.233,44.13,34.229L48.483,34.229L48.483,30.006C48.486,29.959,48.497,29.92,48.512,29.877C48.522,29.83,48.537,29.783,48.537,29.729C48.537,29.682,48.526,29.635,48.512,29.588C48.497,29.545,48.486,29.502,48.483,29.455L48.483,25.221L44.069,25.221C44.055,25.221,44.04,25.218,44.026,25.211C44.011,25.207,43.997,25.203,43.979,25.203C43.965,25.203,43.95,25.207,43.936,25.211C43.921,25.218,43.907,25.221,43.889,25.221ZM43.889,25.221"/>
</g>
  <g id="Light-S" transform="matrix(1.0,0.0,0.0,1.0,1111.1832057883523,617.6196989080256)">  <path fill-rule="nonzero" stroke-dasharray="none" stroke-linejoin="miter" stroke-width="1px" stroke-miterlimit="4" stroke="none" stroke-opacity="1" fill-opacity="1" fill="#000000" stroke-linecap="butt" d="M43.237,7.206C63.133,7.206,79.267,23.337,79.267,43.237C79.267,63.133,63.133,79.267,43.237,79.267C23.333,79.267,7.206,63.133,7.206,43.237C7.206,23.337,23.333,7.206,43.237,7.206ZM36.683,61.277L51.272,61.277C52.23,61.277,53.008,60.373,53.008,59.263C53.008,58.15,52.23,57.242,51.272,57.242L48.483,56.748L48.483,38.733C48.483,38.571,48.497,38.502,48.512,38.441C48.512,38.434,48.515,38.427,48.515,38.419C48.465,38.535,48.353,38.679,48.007,38.679L36.683,38.679C35.724,38.679,34.95,39.583,34.95,40.697C34.95,41.81,35.724,42.714,36.683,42.714L39.475,43.237L39.475,56.748L36.683,57.242C35.724,57.242,34.95,58.15,34.95,59.263C34.95,60.373,35.724,61.277,36.683,61.277ZM43.889,25.221L39.475,25.221L39.475,29.459C39.472,29.502,39.461,29.542,39.446,29.581C39.432,29.632,39.418,29.678,39.418,29.729C39.418,29.783,39.432,29.833,39.446,29.88C39.461,29.92,39.472,29.956,39.475,29.999L39.475,34.229L43.831,34.229C43.853,34.233,43.875,34.236,43.896,34.244C43.921,34.251,43.95,34.262,43.979,34.262C44.008,34.262,44.029,34.254,44.058,34.244C44.08,34.24,44.102,34.233,44.13,34.229L48.483,34.229L48.483,30.006C48.486,29.959,48.497,29.92,48.512,29.877C48.522,29.83,48.537,29.783,48.537,29.729C48.537,29.682,48.526,29.635,48.512,29.588C48.497,29.545,48.486,29.502,48.483,29.455L48.483,25.221L44.069,25.221C44.055,25.221,44.04,25.218,44.026,25.211C44.011,25.207,43.997,25.203,43.979,25.203C43.965,25.203,43.95,25.207,43.936,25.211C43.921,25.218,43.907,25.221,43.889,25.221ZM43.889,25.221"/>
</g>
  <g id="Thin-S" transform="matrix(1.0,0.0,0.0,1.0,814.4732057883523,617.6196989080256)">  <path stroke-miterlimit="4" fill="#000000" stroke="none" stroke-linecap="butt" fill-rule="nonzero" stroke-dasharray="none" fill-opacity="1" stroke-linejoin="miter" stroke-opacity="1" stroke-width="1px" d="M43.237,7.206C63.133,7.206,79.267,23.337,79.267,43.237C79.267,63.133,63.133,79.267,43.237,79.267C23.333,79.267,7.206,63.133,7.206,43.237C7.206,23.337,23.333,7.206,43.237,7.206ZM36.683,61.277L51.272,61.277C52.23,61.277,53.008,60.373,53.008,59.263C53.008,58.15,52.23,57.242,51.272,57.242L48.483,56.748L48.483,38.733C48.483,38.571,48.497,38.502,48.512,38.441C48.512,38.434,48.515,38.427,48.515,38.419C48.465,38.535,48.353,38.679,48.007,38.679L36.683,38.679C35.724,38.679,34.95,39.583,34.95,40.697C34.95,41.81,35.724,42.714,36.683,42.714L39.475,43.237L39.475,56.748L36.683,57.242C35.724,57.242,34.95,58.15,34.95,59.263C34.95,60.373,35.724,61.277,36.683,61.277ZM43.889,25.221L39.475,25.221L39.475,29.459C39.472,29.502,39.461,29.542,39.446,29.581C39.432,29.632,39.418,29.678,39.418,29.729C39.418,29.783,39.432,29.833,39.446,29.88C39.461,29.92,39.472,29.956,39.475,29.999L39.475,34.229L43.831,34.229C43.853,34.233,43.875,34.236,43.896,34.244C43.921,34.251,43.95,34.262,43.979,34.262C44.008,34.262,44.029,34.254,44.058,34.244C44.08,34.24,44.102,34.233,44.13,34.229L48.483,34.229L48.483,30.006C48.486,29.959,48.497,29.92,48.512,29.877C48.522,29.83,48.537,29.783,48.537,29.729C48.537,29.682,48.526,29.635,48.512,29.588C48.497,29.545,48.486,29.502,48.483,29.455L48.483,25.221L44.069,25.221C44.055,25.221,44.04,25.218,44.026,25.211C44.011,25.207,43.997,25.203,43.979,25.203C43.965,25.203,43.95,25.207,43.936,25.211C43.921,25.218,43.907,25.221,43.889,25.221ZM43.889,25.221"/>
</g>
  <g id="Ultralight-S" transform="matrix(1.0,0.0,0.0,1.0,517.7632057883523,617.6196989080256)">  <path stroke-linecap="butt" fill-opacity="1" stroke-linejoin="miter" stroke="none" stroke-opacity="1" stroke-miterlimit="4" fill="#000000" stroke-dasharray="none" fill-rule="nonzero" stroke-width="1px" d="M43.237,7.206C63.133,7.206,79.267,23.337,79.267,43.237C79.267,63.133,63.133,79.267,43.237,79.267C23.333,79.267,7.206,63.133,7.206,43.237C7.206,23.337,23.333,7.206,43.237,7.206ZM36.683,61.277L51.272,61.277C52.23,61.277,53.008,60.373,53.008,59.263C53.008,58.15,52.23,57.242,51.272,57.242L48.483,56.748L48.483,38.733C48.483,38.571,48.497,38.502,48.512,38.441C48.512,38.434,48.515,38.427,48.515,38.419C48.465,38.535,48.353,38.679,48.007,38.679L36.683,38.679C35.724,38.679,34.95,39.583,34.95,40.697C34.95,41.81,35.724,42.714,36.683,42.714L39.475,43.237L39.475,56.748L36.683,57.242C35.724,57.242,34.95,58.15,34.95,59.263C34.95,60.373,35.724,61.277,36.683,61.277ZM43.889,25.221L39.475,25.221L39.475,29.459C39.472,29.502,39.461,29.542,39.446,29.581C39.432,29.632,39.418,29.678,39.418,29.729C39.418,29.783,39.432,29.833,39.446,29.88C39.461,29.92,39.472,29.956,39.475,29.999L39.475,34.229L43.831,34.229C43.853,34.233,43.875,34.236,43.896,34.244C43.921,34.251,43.95,34.262,43.979,34.262C44.008,34.262,44.029,34.254,44.058,34.244C44.08,34.24,44.102,34.233,44.13,34.229L48.483,34.229L48.483,30.006C48.486,29.959,48.497,29.92,48.512,29.877C48.522,29.83,48.537,29.783,48.537,29.729C48.537,29.682,48.526,29.635,48.512,29.588C48.497,29.545,48.486,29.502,48.483,29.455L48.483,25.221L44.069,25.221C44.055,25.221,44.04,25.218,44.026,25.211C44.011,25.207,43.997,25.203,43.979,25.203C43.965,25.203,43.95,25.207,43.936,25.211C43.921,25.218,43.907,25.221,43.889,25.221ZM43.889,25.221"/>
</g>
 </g>
</svg>
