<?xml version="1.0" encoding="UTF-8"?>
<!-- Generator: CustomSymbols v2.6.1.40 by @serious_bret https://bretlester.com/app_content/CustomSymbols/ -->
<!-- Guides: Left/Right 0.125/0.129 Cap/Base 0.227/0.191 -->
<!-- Settings: RefScale 1.0 Min/Max Stroke Scales 0.5/2.21 -->
<!DOCTYPE svg
PUBLIC "-//W3C//DTD SVG 1.1//EN"
       "http://www.w3.org/Graphics/SVG/1.1/DTD/svg11.dtd">
<svg version="1.1" xmlns="http://www.w3.org/2000/svg" xmlns:xlink="http://www.w3.org/1999/xlink" width="3300" height="2200">
<![CDATA[<svg width="24" height="24" viewBox="0 0 24 24" fill="none" xmlns="http://www.w3.org/2000/svg">
<path fill-rule="evenodd" clip-rule="evenodd" d="M19.693 4.31919C17.951 2.56019 15.117 2.56019 13.374 4.31919L11.802 5.90619C11.415 6.29819 11.414 6.93219 11.802 7.32419C12.19 7.71619 12.819 7.71519 13.207 7.32419L14.778 5.73719C15.746 4.76019 17.321 4.75919 18.289 5.73719C19.257 6.71519 19.256 8.30419 18.289 9.28119L14.778 12.8262C13.81 13.8032 12.236 13.8032 11.267 12.8262C11.184 12.7412 11.107 12.6522 11.039 12.5602C10.71 12.1142 10.089 12.0252 9.64996 12.3562C9.20996 12.6872 9.11996 13.3162 9.44796 13.7592C9.57196 13.9282 9.71196 14.0902 9.86296 14.2442C11.606 16.0032 14.44 16.0032 16.182 14.2442L19.693 10.6992C21.435 8.94019 21.435 6.07819 19.693 4.31919Z" fill="black"/>
<path fill-rule="evenodd" clip-rule="evenodd" d="M10.7936 16.6761L9.22162 18.2631C8.25362 19.2401 6.67962 19.2401 5.71062 18.2631C4.74262 17.2851 4.74262 15.6961 5.71062 14.7181L9.22162 11.1741C10.1896 10.1971 11.7646 10.1961 12.7316 11.1741C12.8156 11.2581 12.8936 11.3491 12.9626 11.4421C13.2936 11.8851 13.9136 11.9741 14.3536 11.6421C14.7916 11.3101 14.8796 10.6811 14.5506 10.2381C14.4266 10.0701 14.2876 9.90808 14.1366 9.75608C12.3946 7.99708 9.56062 7.99708 7.81662 9.75608L4.30662 13.3011C2.56462 15.0591 2.56462 17.9221 4.30662 19.6801C6.04962 21.4401 8.88362 21.4401 10.6256 19.6801L12.1976 18.0941C12.5856 17.7021 12.5856 17.0681 12.1976 16.6761C11.8096 16.2841 11.1816 16.2841 10.7936 16.6761Z" fill="black"/>
</svg>
]]>
 <g id="Notes">
  <rect height="2200" id="artboard" style="fill:white;opacity:1" width="3300" x="0" y="0"/>
  <line id="" style="fill:none;stroke:black;opacity:1;stroke-width:0.5;" x1="263" x2="3036" y1="292" y2="292"/>
  <text id="reftext1" style="stroke:none;fill:black;font-family:-apple-system,&quot;SF Pro Display&quot;,&quot;SF Pro Text&quot;,Helvetica,sans-serif;font-weight:bold;" transform="matrix(1 0 0 1 263 322)">Weight/Scale Variations</text>
  <text id="reftext2" style="stroke:none;fill:black;font-family:-apple-system,&quot;SF Pro Display&quot;,&quot;SF Pro Text&quot;,Helvetica,sans-serif;text-anchor:middle;" transform="matrix(1 0 0 1 559.711 322)">Ultralight</text>
  <text style="stroke:none;fill:black;font-family:-apple-system,&quot;SF Pro Display&quot;,&quot;SF Pro Text&quot;,Helvetica,sans-serif;text-anchor:middle;" transform="matrix(1 0 0 1 856.422 322)">Thin</text>
  <text style="stroke:none;fill:black;font-family:-apple-system,&quot;SF Pro Display&quot;,&quot;SF Pro Text&quot;,Helvetica,sans-serif;text-anchor:middle;" transform="matrix(1 0 0 1 1153.13 322)">Light</text>
  <text style="stroke:none;fill:black;font-family:-apple-system,&quot;SF Pro Display&quot;,&quot;SF Pro Text&quot;,Helvetica,sans-serif;text-anchor:middle;" transform="matrix(1 0 0 1 1449.84 322)">Regular</text>
  <text style="stroke:none;fill:black;font-family:-apple-system,&quot;SF Pro Display&quot;,&quot;SF Pro Text&quot;,Helvetica,sans-serif;text-anchor:middle;" transform="matrix(1 0 0 1 1746.56 322)">Medium</text>
  <text style="stroke:none;fill:black;font-family:-apple-system,&quot;SF Pro Display&quot;,&quot;SF Pro Text&quot;,Helvetica,sans-serif;text-anchor:middle;" transform="matrix(1 0 0 1 2043.27 322)">Semibold</text>
  <text style="stroke:none;fill:black;font-family:-apple-system,&quot;SF Pro Display&quot;,&quot;SF Pro Text&quot;,Helvetica,sans-serif;text-anchor:middle;" transform="matrix(1 0 0 1 2339.98 322)">Bold</text>
  <text style="stroke:none;fill:black;font-family:-apple-system,&quot;SF Pro Display&quot;,&quot;SF Pro Text&quot;,Helvetica,sans-serif;text-anchor:middle;" transform="matrix(1 0 0 1 2636.69 322)">Heavy</text>
  <text style="stroke:none;fill:black;font-family:-apple-system,&quot;SF Pro Display&quot;,&quot;SF Pro Text&quot;,Helvetica,sans-serif;text-anchor:middle;" transform="matrix(1 0 0 1 2933.4 322)">Black</text>
  <line id="" style="fill:none;stroke:black;opacity:1;stroke-width:0.5;" x1="263" x2="3036" y1="1903" y2="1903"/>
  <g id="" transform="matrix(1 0 0 1 263 1933)">
   <path d="M9.24805 0.830078C13.5547 0.830078 17.1387-2.74414 17.1387-7.05078C17.1387-11.3574 13.5449-14.9316 9.23828-14.9316C4.94141-14.9316 1.36719-11.3574 1.36719-7.05078C1.36719-2.74414 4.95117 0.830078 9.24805 0.830078ZM9.24805-0.654297C5.70312-0.654297 2.87109-3.49609 2.87109-7.05078C2.87109-10.6055 5.69336-13.4473 9.23828-13.4473C12.793-13.4473 15.6348-10.6055 15.6445-7.05078C15.6543-3.49609 12.8027-0.654297 9.24805-0.654297ZM6.39648-6.31836L8.50586-6.31836L8.50586-4.19922C8.50586-3.75977 8.79883-3.45703 9.22852-3.45703C9.67773-3.45703 9.9707-3.75977 9.9707-4.19922L9.9707-6.31836L12.0996-6.31836C12.5391-6.31836 12.8418-6.61133 12.8418-7.04102C12.8418-7.48047 12.5391-7.7832 12.0996-7.7832L9.9707-7.7832L9.9707-9.89258C9.9707-10.3418 9.67773-10.6445 9.22852-10.6445C8.79883-10.6445 8.50586-10.3418 8.50586-9.89258L8.50586-7.7832L6.39648-7.7832C5.94727-7.7832 5.64453-7.48047 5.64453-7.04102C5.64453-6.61133 5.94727-6.31836 6.39648-6.31836Z"/>
  </g>
  <g id="" transform="matrix(1 0 0 1 281.506 1933)">
   <path d="M11.709 2.91016C17.1582 2.91016 21.6699-1.61133 21.6699-7.05078C21.6699-12.5 17.1484-17.0117 11.6992-17.0117C6.25977-17.0117 1.74805-12.5 1.74805-7.05078C1.74805-1.61133 6.26953 2.91016 11.709 2.91016ZM11.709 1.25C7.09961 1.25 3.41797-2.44141 3.41797-7.05078C3.41797-11.6602 7.08984-15.3516 11.6992-15.3516C16.3086-15.3516 20-11.6602 20.0098-7.05078C20.0195-2.44141 16.3184 1.25 11.709 1.25ZM7.98828-6.23047L10.8789-6.23047L10.8789-3.32031C10.8789-2.83203 11.2109-2.5 11.6895-2.5C12.1777-2.5 12.5195-2.83203 12.5195-3.32031L12.5195-6.23047L15.4297-6.23047C15.918-6.23047 16.25-6.5625 16.25-7.04102C16.25-7.5293 15.918-7.87109 15.4297-7.87109L12.5195-7.87109L12.5195-10.7617C12.5195-11.2695 12.1777-11.6016 11.6895-11.6016C11.2109-11.6016 10.8789-11.2598 10.8789-10.7617L10.8789-7.87109L7.98828-7.87109C7.48047-7.87109 7.14844-7.5293 7.14844-7.04102C7.14844-6.5625 7.49023-6.23047 7.98828-6.23047Z"/>
  </g>
  <g id="" transform="matrix(1 0 0 1 304.924 1933)">
   <path d="M14.9707 5.66406C21.9336 5.66406 27.6953-0.0976562 27.6953-7.05078C27.6953-14.0137 21.9238-19.7754 14.9609-19.7754C8.00781-19.7754 2.25586-14.0137 2.25586-7.05078C2.25586-0.0976562 8.01758 5.66406 14.9707 5.66406ZM14.9707 3.84766C8.93555 3.84766 4.08203-1.01562 4.08203-7.05078C4.08203-13.0957 8.92578-17.9492 14.9609-17.9492C21.0059-17.9492 25.8594-13.0957 25.8691-7.05078C25.8789-1.01562 21.0156 3.84766 14.9707 3.84766ZM10.0586-6.14258L14.0625-6.14258L14.0625-2.12891C14.0625-1.5918 14.4336-1.2207 14.9512-1.2207C15.4883-1.2207 15.8594-1.5918 15.8594-2.12891L15.8594-6.14258L19.8828-6.14258C20.4102-6.14258 20.791-6.51367 20.791-7.03125C20.791-7.56836 20.4199-7.94922 19.8828-7.94922L15.8594-7.94922L15.8594-11.9531C15.8594-12.5098 15.4883-12.8809 14.9512-12.8809C14.4336-12.8809 14.0625-12.5 14.0625-11.9531L14.0625-7.94922L10.0586-7.94922C9.50195-7.94922 9.13086-7.56836 9.13086-7.03125C9.13086-6.51367 9.51172-6.14258 10.0586-6.14258Z"/>
  </g>
  <text style="stroke:none;fill:black;font-family:-apple-system,&quot;SF Pro Display&quot;,&quot;SF Pro Text&quot;,Helvetica,sans-serif;font-weight:bold;" transform="matrix(1 0 0 1 263 1953)">Design Variations</text>
  <text style="stroke:none;fill:black;font-family:-apple-system,&quot;SF Pro Display&quot;,&quot;SF Pro Text&quot;,Helvetica,sans-serif;" transform="matrix(1 0 0 1 263 1971)">Symbols are supported in up to nine weights and three scales.</text>
  <text style="stroke:none;fill:black;font-family:-apple-system,&quot;SF Pro Display&quot;,&quot;SF Pro Text&quot;,Helvetica,sans-serif;" transform="matrix(1 0 0 1 263 1989)">For optimal layout with text and other symbols, vertically align</text>
  <text style="stroke:none;fill:black;font-family:-apple-system,&quot;SF Pro Display&quot;,&quot;SF Pro Text&quot;,Helvetica,sans-serif;" transform="matrix(1 0 0 1 263 2007)">symbols with the adjacent text.</text>
  <line id="" style="fill:none;stroke:#00AEEF;stroke-width:0.5;opacity:1.0;" x1="776" x2="776" y1="1919" y2="1933"/>
  <g id="" transform="matrix(1 0 0 1 776 1933)">
   <path d="M3.31055 0.126953C3.82812 0.126953 4.08203-0.0683594 4.26758-0.605469L5.52734-4.0625L11.2891-4.0625L12.5488-0.605469C12.7344-0.0683594 12.9883 0.126953 13.4961 0.126953C14.0137 0.126953 14.3457-0.185547 14.3457-0.673828C14.3457-0.839844 14.3164-0.986328 14.2383-1.20117L9.6582-13.3887C9.43359-13.9941 9.0332-14.2871 8.4082-14.2871C7.80273-14.2871 7.39258-13.9941 7.17773-13.3984L2.59766-1.19141C2.51953-0.976562 2.49023-0.830078 2.49023-0.664062C2.49023-0.175781 2.80273 0.126953 3.31055 0.126953ZM6.00586-5.53711L8.37891-12.1094L8.42773-12.1094L10.8008-5.53711Z"/>
  </g>
  <line id="" style="fill:none;stroke:#00AEEF;stroke-width:0.5;opacity:1.0;" x1="792.836" x2="792.836" y1="1919" y2="1933"/>
  <text style="stroke:none;fill:black;font-family:-apple-system,&quot;SF Pro Display&quot;,&quot;SF Pro Text&quot;,Helvetica,sans-serif;font-weight:bold;" transform="matrix(1 0 0 1 776 1953)">Margins</text>
  <text style="stroke:none;fill:black;font-family:-apple-system,&quot;SF Pro Display&quot;,&quot;SF Pro Text&quot;,Helvetica,sans-serif;" transform="matrix(1 0 0 1 776 1971)">Leading and trailing margins on the left and right side of each symbol</text>
  <text style="stroke:none;fill:black;font-family:-apple-system,&quot;SF Pro Display&quot;,&quot;SF Pro Text&quot;,Helvetica,sans-serif;" transform="matrix(1 0 0 1 776 1989)">can be adjusted by modifying the x-location of the margin guidelines.</text>
  <text style="stroke:none;fill:black;font-family:-apple-system,&quot;SF Pro Display&quot;,&quot;SF Pro Text&quot;,Helvetica,sans-serif;" transform="matrix(1 0 0 1 776 2007)">Modifications are automatically applied proportionally to all</text>
  <text style="stroke:none;fill:black;font-family:-apple-system,&quot;SF Pro Display&quot;,&quot;SF Pro Text&quot;,Helvetica,sans-serif;" transform="matrix(1 0 0 1 776 2025)">scales and weights.</text>
  <g id="" transform="matrix(1 0 0 1 1289 1933)">
   <path d="M2.8418 1.86523L4.54102 3.57422C5.40039 4.44336 6.38672 4.38477 7.31445 3.35938L17.4902-7.85156C17.7539-7.76367 18.0273-7.7832 18.3398-7.8418L19.4043-8.03711L20.0684-7.36328L20.0293-6.80664C19.9902-6.30859 20.1172-5.92773 20.6055-5.44922L21.3672-4.70703C21.8457-4.22852 22.4609-4.19922 22.9297-4.66797L25.8398-7.58789C26.3086-8.05664 26.2891-8.65234 25.8105-9.13086L25.0391-9.89258C24.5605-10.3711 24.1895-10.5273 23.7109-10.4883L23.1348-10.4395L22.4902-11.0742L22.7344-12.1973C22.8613-12.7637 22.7051-13.2031 22.1191-13.7891L19.9219-15.9766C16.582-19.2969 12.1484-19.2188 9.25781-16.3281C8.83789-15.918 8.80859-15.3418 9.04297-14.9512C9.27734-14.5898 9.73633-14.3555 10.3809-14.5215C11.8457-14.8633 13.3691-14.9219 14.7949-13.9844L14.209-12.5293C14.0137-12.0508 13.9844-11.6504 14.1113-11.2891L3.04688-0.898438C2.06055 0.0195312 1.98242 0.996094 2.8418 1.86523ZM10.752-15.957C13.1836-17.7344 16.4746-17.4316 18.7012-15.2051L21.1328-12.793C21.3672-12.5586 21.4062-12.373 21.3379-12.0312L21.0156-10.5469L22.5195-9.0625L23.5059-9.12109C23.7598-9.13086 23.8379-9.11133 24.0332-8.91602L24.6094-8.33984L22.168-5.89844L21.5918-6.47461C21.3965-6.66992 21.3672-6.74805 21.377-7.01172L21.4453-7.98828L19.9512-9.47266L18.4277-9.21875C18.1055-9.15039 17.959-9.17969 17.7148-9.41406L15.7129-11.416C15.459-11.6504 15.4297-11.8164 15.5859-12.1875L16.4648-14.2773C14.9023-15.7324 12.8711-16.3574 10.8398-15.7617C10.6836-15.7227 10.625-15.8496 10.752-15.957ZM5.27344 2.30469L4.10156 1.14258C3.63281 0.683594 3.74023 0.341797 4.14062-0.0195312L14.9512-10.1953L16.416-8.71094L6.42578 2.27539C6.07422 2.67578 5.74219 2.77344 5.27344 2.30469Z"/>
  </g>
  <text style="stroke:none;fill:black;font-family:-apple-system,&quot;SF Pro Display&quot;,&quot;SF Pro Text&quot;,Helvetica,sans-serif;font-weight:bold;" transform="matrix(1 0 0 1 1289 1953)">Exporting</text>
  <text style="stroke:none;fill:black;font-family:-apple-system,&quot;SF Pro Display&quot;,&quot;SF Pro Text&quot;,Helvetica,sans-serif;" transform="matrix(1 0 0 1 1289 1971)">Symbols should be outlined when exporting to ensure the</text>
  <text style="stroke:none;fill:black;font-family:-apple-system,&quot;SF Pro Display&quot;,&quot;SF Pro Text&quot;,Helvetica,sans-serif;" transform="matrix(1 0 0 1 1289 1989)">design is preserved when submitting to Xcode.</text>
  <text id="template-version" style="stroke:none;fill:black;font-family:-apple-system,&quot;SF Pro Display&quot;,&quot;SF Pro Text&quot;,Helvetica,sans-serif;text-anchor:end;" transform="matrix(1 0 0 1 3036 1933)">Template v.2.0</text>
  <text style="stroke:none;fill:black;font-family:-apple-system,&quot;SF Pro Display&quot;,&quot;SF Pro Text&quot;,Helvetica,sans-serif;text-anchor:end;" transform="matrix(1 0 0 1 3036 1951)">Requires Xcode 12 or greater</text>
  <text style="stroke:none;fill:black;font-family:-apple-system,&quot;SF Pro Display&quot;,&quot;SF Pro Text&quot;,Helvetica,sans-serif;" transform="matrix(1 0 0 1 263 726)">Small</text>
  <text style="stroke:none;fill:black;font-family:-apple-system,&quot;SF Pro Display&quot;,&quot;SF Pro Text&quot;,Helvetica,sans-serif;" transform="matrix(1 0 0 1 263 1156)">Medium</text>
  <text style="stroke:none;fill:black;font-family:-apple-system,&quot;SF Pro Display&quot;,&quot;SF Pro Text&quot;,Helvetica,sans-serif;" transform="matrix(1 0 0 1 263 1586)">Large</text>
 </g>
 <g id="Guides">
  <g id="H-reference" style="fill:#27AAE1;stroke:none;" transform="matrix(1 0 0 1 339 696)">
   <path d="M0.976562 0L3.66211 0L12.9883-24.4629L45.752-24.4629L55.127 0L57.7637 0L30.6152-70.459L28.125-70.459ZM29.3457-67.1387L29.4434-67.1387L44.873-26.709L13.8672-26.709Z"/>
  </g>
  <line id="Baseline-S" style="fill:none;stroke:#27AAE1;opacity:1;stroke-width:0.5;" x1="263" x2="3036" y1="696" y2="696"/>
  <line id="Capline-S" style="fill:none;stroke:#27AAE1;opacity:1;stroke-width:0.5;" x1="263" x2="3036" y1="625.541" y2="625.541"/>
  <g id="H-reference" style="fill:#27AAE1;stroke:none;" transform="matrix(1 0 0 1 339 1126)">
   <path d="M0.976562 0L3.66211 0L12.9883-24.4629L45.752-24.4629L55.127 0L57.7637 0L30.6152-70.459L28.125-70.459ZM29.3457-67.1387L29.4434-67.1387L44.873-26.709L13.8672-26.709Z"/>
  </g>
  <line id="Baseline-M" style="fill:none;stroke:#27AAE1;opacity:1;stroke-width:0.5;" x1="263" x2="3036" y1="1126" y2="1126"/>
  <line id="Capline-M" style="fill:none;stroke:#27AAE1;opacity:1;stroke-width:0.5;" x1="263" x2="3036" y1="1055.54" y2="1055.54"/>
  <g id="H-reference" style="fill:#27AAE1;stroke:none;" transform="matrix(1 0 0 1 339 1556)">
   <path d="M0.976562 0L3.66211 0L12.9883-24.4629L45.752-24.4629L55.127 0L57.7637 0L30.6152-70.459L28.125-70.459ZM29.3457-67.1387L29.4434-67.1387L44.873-26.709L13.8672-26.709Z"/>
  </g>
  <line id="Baseline-L" style="fill:none;stroke:#27AAE1;opacity:1;stroke-width:0.5;" x1="263" x2="3036" y1="1556" y2="1556"/>
  <line id="Capline-L" style="fill:none;stroke:#27AAE1;opacity:1;stroke-width:0.5;" x1="263" x2="3036" y1="1485.54" y2="1485.54"/>
  <line id="left-margin" x1="1405.7305406330538" x2="1405.7305406330538" y1="1030.79" y2="1150.12" style="fill:none;stroke:#00AEEF;stroke-width:0.5;opacity:1.0;"/>
  <line id="right-margin" x1="1496.0451984670317" x2="1496.0451984670317" y1="1030.79" y2="1150.12" style="fill:none;stroke:#00AEEF;stroke-width:0.5;opacity:1.0;"/>
 </g>
 <g id="Symbols">
  <g id="Black-L" transform="matrix(1.0,0.0,0.0,1.0,2856.5929298888527,1439.8718148961018)">  <path stroke-dasharray="none" stroke-linejoin="miter" clip-rule="evenodd" fill-rule="evenodd" stroke-opacity="1" stroke-width="1px" stroke="none" stroke-miterlimit="4" fill="#000000" fill-opacity="1" stroke-linecap="butt" d="M128.147,28.106C116.812,16.66,98.37,16.66,87.028,28.106L76.799,38.433C74.28,40.984,74.274,45.11,76.799,47.66C79.323,50.211,83.417,50.205,85.941,47.66L96.164,37.333C102.463,30.976,112.712,30.969,119.011,37.333C125.31,43.697,125.304,54.037,119.011,60.395L96.164,83.463C89.865,89.821,79.623,89.821,73.317,83.463C72.777,82.91,72.276,82.331,71.834,81.732C69.693,78.83,65.652,78.251,62.795,80.405C59.932,82.559,59.346,86.652,61.48,89.535C62.287,90.634,63.198,91.689,64.181,92.691C75.523,104.137,93.965,104.137,105.3,92.691L128.147,69.622C139.483,58.176,139.483,39.552,128.147,28.106ZM128.147,28.106"/>
  <path fill="#000000" clip-rule="evenodd" stroke-opacity="1" stroke-dasharray="none" stroke-width="1px" fill-opacity="1" stroke-miterlimit="4" stroke="none" fill-rule="evenodd" stroke-linejoin="miter" stroke-linecap="butt" d="M70.237,108.516L60.007,118.843C53.708,125.2,43.466,125.2,37.16,118.843C30.861,112.479,30.861,102.139,37.16,95.774L60.007,72.713C66.306,66.355,76.555,66.349,82.848,72.713C83.394,73.259,83.902,73.851,84.351,74.457C86.505,77.339,90.539,77.919,93.403,75.758C96.253,73.598,96.825,69.505,94.684,66.622C93.878,65.529,92.973,64.474,91.99,63.485C80.655,52.039,62.213,52.039,50.865,63.485L28.024,86.554C16.689,97.993,16.689,116.624,28.024,128.063C39.366,139.516,57.808,139.516,69.143,128.063L79.373,117.743C81.898,115.192,81.898,111.066,79.373,108.516C76.848,105.965,72.762,105.965,70.237,108.516ZM70.237,108.516"/>
</g>
  <g id="Heavy-L" transform="matrix(1.0,0.0,0.0,1.0,2559.8829298888527,1439.8718148961018)">  <path stroke-miterlimit="4" stroke-dasharray="none" stroke-opacity="1" fill="#000000" fill-opacity="1" fill-rule="evenodd" clip-rule="evenodd" stroke-linecap="butt" stroke-linejoin="miter" stroke="none" stroke-width="1px" d="M128.147,28.106C116.812,16.66,98.37,16.66,87.028,28.106L76.799,38.433C74.28,40.984,74.274,45.11,76.799,47.66C79.323,50.211,83.417,50.205,85.941,47.66L96.164,37.333C102.463,30.976,112.712,30.969,119.011,37.333C125.31,43.697,125.304,54.037,119.011,60.395L96.164,83.463C89.865,89.821,79.623,89.821,73.317,83.463C72.777,82.91,72.276,82.331,71.834,81.732C69.693,78.83,65.652,78.251,62.795,80.405C59.932,82.559,59.346,86.652,61.48,89.535C62.287,90.634,63.198,91.689,64.181,92.691C75.523,104.137,93.965,104.137,105.3,92.691L128.147,69.622C139.483,58.176,139.483,39.552,128.147,28.106ZM128.147,28.106"/>
  <path fill-opacity="1" stroke-linecap="butt" stroke="none" stroke-linejoin="miter" fill-rule="evenodd" stroke-miterlimit="4" stroke-opacity="1" stroke-dasharray="none" clip-rule="evenodd" fill="#000000" stroke-width="1px" d="M70.237,108.516L60.007,118.843C53.708,125.2,43.466,125.2,37.16,118.843C30.861,112.479,30.861,102.139,37.16,95.774L60.007,72.713C66.306,66.355,76.555,66.349,82.848,72.713C83.394,73.259,83.902,73.851,84.351,74.457C86.505,77.339,90.539,77.919,93.403,75.758C96.253,73.598,96.825,69.505,94.684,66.622C93.878,65.529,92.973,64.474,91.99,63.485C80.655,52.039,62.213,52.039,50.865,63.485L28.024,86.554C16.689,97.993,16.689,116.624,28.024,128.063C39.366,139.516,57.808,139.516,69.143,128.063L79.373,117.743C81.898,115.192,81.898,111.066,79.373,108.516C76.848,105.965,72.762,105.965,70.237,108.516ZM70.237,108.516"/>
</g>
  <g id="Bold-L" transform="matrix(1.0,0.0,0.0,1.0,2263.1729298888527,1439.8718148961018)">  <path stroke-opacity="1" stroke-linejoin="miter" clip-rule="evenodd" stroke="none" fill="#000000" stroke-width="1px" stroke-dasharray="none" stroke-miterlimit="4" fill-opacity="1" stroke-linecap="butt" fill-rule="evenodd" d="M128.147,28.106C116.812,16.66,98.37,16.66,87.028,28.106L76.799,38.433C74.28,40.984,74.274,45.11,76.799,47.66C79.323,50.211,83.417,50.205,85.941,47.66L96.164,37.333C102.463,30.976,112.712,30.969,119.011,37.333C125.31,43.697,125.304,54.037,119.011,60.395L96.164,83.463C89.865,89.821,79.623,89.821,73.317,83.463C72.777,82.91,72.276,82.331,71.834,81.732C69.693,78.83,65.652,78.251,62.795,80.405C59.932,82.559,59.346,86.652,61.48,89.535C62.287,90.634,63.198,91.689,64.181,92.691C75.523,104.137,93.965,104.137,105.3,92.691L128.147,69.622C139.483,58.176,139.483,39.552,128.147,28.106ZM128.147,28.106"/>
  <path stroke-width="1px" stroke-opacity="1" fill-rule="evenodd" stroke-linecap="butt" fill="#000000" stroke="none" clip-rule="evenodd" fill-opacity="1" stroke-dasharray="none" stroke-linejoin="miter" stroke-miterlimit="4" d="M70.237,108.516L60.007,118.843C53.708,125.2,43.466,125.2,37.16,118.843C30.861,112.479,30.861,102.139,37.16,95.774L60.007,72.713C66.306,66.355,76.555,66.349,82.848,72.713C83.394,73.259,83.902,73.851,84.351,74.457C86.505,77.339,90.539,77.919,93.403,75.758C96.253,73.598,96.825,69.505,94.684,66.622C93.878,65.529,92.973,64.474,91.99,63.485C80.655,52.039,62.213,52.039,50.865,63.485L28.024,86.554C16.689,97.993,16.689,116.624,28.024,128.063C39.366,139.516,57.808,139.516,69.143,128.063L79.373,117.743C81.898,115.192,81.898,111.066,79.373,108.516C76.848,105.965,72.762,105.965,70.237,108.516ZM70.237,108.516"/>
</g>
  <g id="Semibold-L" transform="matrix(1.0,0.0,0.0,1.0,1966.462929888853,1439.8718148961018)">  <path fill="#000000" stroke-opacity="1" stroke="none" clip-rule="evenodd" stroke-dasharray="none" stroke-width="1px" fill-rule="evenodd" stroke-linejoin="miter" stroke-linecap="butt" stroke-miterlimit="4" fill-opacity="1" d="M128.147,28.106C116.812,16.66,98.37,16.66,87.028,28.106L76.799,38.433C74.28,40.984,74.274,45.11,76.799,47.66C79.323,50.211,83.417,50.205,85.941,47.66L96.164,37.333C102.463,30.976,112.712,30.969,119.011,37.333C125.31,43.697,125.304,54.037,119.011,60.395L96.164,83.463C89.865,89.821,79.623,89.821,73.317,83.463C72.777,82.91,72.276,82.331,71.834,81.732C69.693,78.83,65.652,78.251,62.795,80.405C59.932,82.559,59.346,86.652,61.48,89.535C62.287,90.634,63.198,91.689,64.181,92.691C75.523,104.137,93.965,104.137,105.3,92.691L128.147,69.622C139.483,58.176,139.483,39.552,128.147,28.106ZM128.147,28.106"/>
  <path stroke-linecap="butt" stroke-miterlimit="4" stroke-opacity="1" fill-opacity="1" stroke-linejoin="miter" fill-rule="evenodd" stroke-width="1px" stroke-dasharray="none" fill="#000000" clip-rule="evenodd" stroke="none" d="M70.237,108.516L60.007,118.843C53.708,125.2,43.466,125.2,37.16,118.843C30.861,112.479,30.861,102.139,37.16,95.774L60.007,72.713C66.306,66.355,76.555,66.349,82.848,72.713C83.394,73.259,83.902,73.851,84.351,74.457C86.505,77.339,90.539,77.919,93.403,75.758C96.253,73.598,96.825,69.505,94.684,66.622C93.878,65.529,92.973,64.474,91.99,63.485C80.655,52.039,62.213,52.039,50.865,63.485L28.024,86.554C16.689,97.993,16.689,116.624,28.024,128.063C39.366,139.516,57.808,139.516,69.143,128.063L79.373,117.743C81.898,115.192,81.898,111.066,79.373,108.516C76.848,105.965,72.762,105.965,70.237,108.516ZM70.237,108.516"/>
</g>
  <g id="Medium-L" transform="matrix(1.0,0.0,0.0,1.0,1669.752929888853,1439.8718148961018)">  <path stroke-dasharray="none" fill-opacity="1" stroke="none" stroke-miterlimit="4" stroke-opacity="1" stroke-width="1px" fill="#000000" stroke-linejoin="miter" stroke-linecap="butt" clip-rule="evenodd" fill-rule="evenodd" d="M128.147,28.106C116.812,16.66,98.37,16.66,87.028,28.106L76.799,38.433C74.28,40.984,74.274,45.11,76.799,47.66C79.323,50.211,83.417,50.205,85.941,47.66L96.164,37.333C102.463,30.976,112.712,30.969,119.011,37.333C125.31,43.697,125.304,54.037,119.011,60.395L96.164,83.463C89.865,89.821,79.623,89.821,73.317,83.463C72.777,82.91,72.276,82.331,71.834,81.732C69.693,78.83,65.652,78.251,62.795,80.405C59.932,82.559,59.346,86.652,61.48,89.535C62.287,90.634,63.198,91.689,64.181,92.691C75.523,104.137,93.965,104.137,105.3,92.691L128.147,69.622C139.483,58.176,139.483,39.552,128.147,28.106ZM128.147,28.106"/>
  <path fill-opacity="1" stroke-linecap="butt" stroke-miterlimit="4" stroke-opacity="1" stroke-width="1px" fill="#000000" clip-rule="evenodd" stroke="none" fill-rule="evenodd" stroke-linejoin="miter" stroke-dasharray="none" d="M70.237,108.516L60.007,118.843C53.708,125.2,43.466,125.2,37.16,118.843C30.861,112.479,30.861,102.139,37.16,95.774L60.007,72.713C66.306,66.355,76.555,66.349,82.848,72.713C83.394,73.259,83.902,73.851,84.351,74.457C86.505,77.339,90.539,77.919,93.403,75.758C96.253,73.598,96.825,69.505,94.684,66.622C93.878,65.529,92.973,64.474,91.99,63.485C80.655,52.039,62.213,52.039,50.865,63.485L28.024,86.554C16.689,97.993,16.689,116.624,28.024,128.063C39.366,139.516,57.808,139.516,69.143,128.063L79.373,117.743C81.898,115.192,81.898,111.066,79.373,108.516C76.848,105.965,72.762,105.965,70.237,108.516ZM70.237,108.516"/>
</g>
  <g id="Regular-L" transform="matrix(1.0,0.0,0.0,1.0,1373.042929888853,1439.8718148961018)">  <path stroke-linecap="butt" fill-rule="evenodd" fill-opacity="1" clip-rule="evenodd" stroke-linejoin="miter" fill="#000000" stroke-width="1px" stroke-miterlimit="4" stroke-opacity="1" stroke-dasharray="none" stroke="none" d="M128.147,28.106C116.812,16.66,98.37,16.66,87.028,28.106L76.799,38.433C74.28,40.984,74.274,45.11,76.799,47.66C79.323,50.211,83.417,50.205,85.941,47.66L96.164,37.333C102.463,30.976,112.712,30.969,119.011,37.333C125.31,43.697,125.304,54.037,119.011,60.395L96.164,83.463C89.865,89.821,79.623,89.821,73.317,83.463C72.777,82.91,72.276,82.331,71.834,81.732C69.693,78.83,65.652,78.251,62.795,80.405C59.932,82.559,59.346,86.652,61.48,89.535C62.287,90.634,63.198,91.689,64.181,92.691C75.523,104.137,93.965,104.137,105.3,92.691L128.147,69.622C139.483,58.176,139.483,39.552,128.147,28.106ZM128.147,28.106"/>
  <path stroke="none" stroke-linejoin="miter" stroke-linecap="butt" clip-rule="evenodd" stroke-width="1px" fill-rule="evenodd" fill="#000000" stroke-miterlimit="4" fill-opacity="1" stroke-opacity="1" stroke-dasharray="none" d="M70.237,108.516L60.007,118.843C53.708,125.2,43.466,125.2,37.16,118.843C30.861,112.479,30.861,102.139,37.16,95.774L60.007,72.713C66.306,66.355,76.555,66.349,82.848,72.713C83.394,73.259,83.902,73.851,84.351,74.457C86.505,77.339,90.539,77.919,93.403,75.758C96.253,73.598,96.825,69.505,94.684,66.622C93.878,65.529,92.973,64.474,91.99,63.485C80.655,52.039,62.213,52.039,50.865,63.485L28.024,86.554C16.689,97.993,16.689,116.624,28.024,128.063C39.366,139.516,57.808,139.516,69.143,128.063L79.373,117.743C81.898,115.192,81.898,111.066,79.373,108.516C76.848,105.965,72.762,105.965,70.237,108.516ZM70.237,108.516"/>
</g>
  <g id="Light-L" transform="matrix(1.0,0.0,0.0,1.0,1076.3329298888532,1439.8718148961018)">  <path stroke-width="1px" clip-rule="evenodd" stroke-dasharray="none" stroke="none" fill="#000000" stroke-linejoin="miter" stroke-miterlimit="4" stroke-linecap="butt" fill-rule="evenodd" stroke-opacity="1" fill-opacity="1" d="M128.147,28.106C116.812,16.66,98.37,16.66,87.028,28.106L76.799,38.433C74.28,40.984,74.274,45.11,76.799,47.66C79.323,50.211,83.417,50.205,85.941,47.66L96.164,37.333C102.463,30.976,112.712,30.969,119.011,37.333C125.31,43.697,125.304,54.037,119.011,60.395L96.164,83.463C89.865,89.821,79.623,89.821,73.317,83.463C72.777,82.91,72.276,82.331,71.834,81.732C69.693,78.83,65.652,78.251,62.795,80.405C59.932,82.559,59.346,86.652,61.48,89.535C62.287,90.634,63.198,91.689,64.181,92.691C75.523,104.137,93.965,104.137,105.3,92.691L128.147,69.622C139.483,58.176,139.483,39.552,128.147,28.106ZM128.147,28.106"/>
  <path stroke-width="1px" clip-rule="evenodd" stroke="none" stroke-linecap="butt" stroke-dasharray="none" stroke-linejoin="miter" stroke-opacity="1" fill="#000000" fill-opacity="1" fill-rule="evenodd" stroke-miterlimit="4" d="M70.237,108.516L60.007,118.843C53.708,125.2,43.466,125.2,37.16,118.843C30.861,112.479,30.861,102.139,37.16,95.774L60.007,72.713C66.306,66.355,76.555,66.349,82.848,72.713C83.394,73.259,83.902,73.851,84.351,74.457C86.505,77.339,90.539,77.919,93.403,75.758C96.253,73.598,96.825,69.505,94.684,66.622C93.878,65.529,92.973,64.474,91.99,63.485C80.655,52.039,62.213,52.039,50.865,63.485L28.024,86.554C16.689,97.993,16.689,116.624,28.024,128.063C39.366,139.516,57.808,139.516,69.143,128.063L79.373,117.743C81.898,115.192,81.898,111.066,79.373,108.516C76.848,105.965,72.762,105.965,70.237,108.516ZM70.237,108.516"/>
</g>
  <g id="Thin-L" transform="matrix(1.0,0.0,0.0,1.0,779.6229298888532,1439.8718148961018)">  <path stroke-linecap="butt" stroke="none" clip-rule="evenodd" stroke-dasharray="none" stroke-width="1px" fill="#000000" fill-opacity="1" stroke-linejoin="miter" stroke-opacity="1" stroke-miterlimit="4" fill-rule="evenodd" d="M128.147,28.106C116.812,16.66,98.37,16.66,87.028,28.106L76.799,38.433C74.28,40.984,74.274,45.11,76.799,47.66C79.323,50.211,83.417,50.205,85.941,47.66L96.164,37.333C102.463,30.976,112.712,30.969,119.011,37.333C125.31,43.697,125.304,54.037,119.011,60.395L96.164,83.463C89.865,89.821,79.623,89.821,73.317,83.463C72.777,82.91,72.276,82.331,71.834,81.732C69.693,78.83,65.652,78.251,62.795,80.405C59.932,82.559,59.346,86.652,61.48,89.535C62.287,90.634,63.198,91.689,64.181,92.691C75.523,104.137,93.965,104.137,105.3,92.691L128.147,69.622C139.483,58.176,139.483,39.552,128.147,28.106ZM128.147,28.106"/>
  <path stroke-opacity="1" clip-rule="evenodd" stroke="none" fill-rule="evenodd" fill-opacity="1" stroke-width="1px" stroke-linecap="butt" stroke-miterlimit="4" stroke-dasharray="none" stroke-linejoin="miter" fill="#000000" d="M70.237,108.516L60.007,118.843C53.708,125.2,43.466,125.2,37.16,118.843C30.861,112.479,30.861,102.139,37.16,95.774L60.007,72.713C66.306,66.355,76.555,66.349,82.848,72.713C83.394,73.259,83.902,73.851,84.351,74.457C86.505,77.339,90.539,77.919,93.403,75.758C96.253,73.598,96.825,69.505,94.684,66.622C93.878,65.529,92.973,64.474,91.99,63.485C80.655,52.039,62.213,52.039,50.865,63.485L28.024,86.554C16.689,97.993,16.689,116.624,28.024,128.063C39.366,139.516,57.808,139.516,69.143,128.063L79.373,117.743C81.898,115.192,81.898,111.066,79.373,108.516C76.848,105.965,72.762,105.965,70.237,108.516ZM70.237,108.516"/>
</g>
  <g id="Ultralight-L" transform="matrix(1.0,0.0,0.0,1.0,482.9129298888531,1439.8718148961018)">  <path stroke-opacity="1" stroke-dasharray="none" fill="#000000" stroke-linejoin="miter" fill-opacity="1" stroke-miterlimit="4" clip-rule="evenodd" fill-rule="evenodd" stroke-linecap="butt" stroke-width="1px" stroke="none" d="M128.147,28.106C116.812,16.66,98.37,16.66,87.028,28.106L76.799,38.433C74.28,40.984,74.274,45.11,76.799,47.66C79.323,50.211,83.417,50.205,85.941,47.66L96.164,37.333C102.463,30.976,112.712,30.969,119.011,37.333C125.31,43.697,125.304,54.037,119.011,60.395L96.164,83.463C89.865,89.821,79.623,89.821,73.317,83.463C72.777,82.91,72.276,82.331,71.834,81.732C69.693,78.83,65.652,78.251,62.795,80.405C59.932,82.559,59.346,86.652,61.48,89.535C62.287,90.634,63.198,91.689,64.181,92.691C75.523,104.137,93.965,104.137,105.3,92.691L128.147,69.622C139.483,58.176,139.483,39.552,128.147,28.106ZM128.147,28.106"/>
  <path stroke-opacity="1" stroke-linejoin="miter" fill="#000000" stroke-linecap="butt" fill-rule="evenodd" stroke-miterlimit="4" fill-opacity="1" stroke="none" clip-rule="evenodd" stroke-width="1px" stroke-dasharray="none" d="M70.237,108.516L60.007,118.843C53.708,125.2,43.466,125.2,37.16,118.843C30.861,112.479,30.861,102.139,37.16,95.774L60.007,72.713C66.306,66.355,76.555,66.349,82.848,72.713C83.394,73.259,83.902,73.851,84.351,74.457C86.505,77.339,90.539,77.919,93.403,75.758C96.253,73.598,96.825,69.505,94.684,66.622C93.878,65.529,92.973,64.474,91.99,63.485C80.655,52.039,62.213,52.039,50.865,63.485L28.024,86.554C16.689,97.993,16.689,116.624,28.024,128.063C39.366,139.516,57.808,139.516,69.143,128.063L79.373,117.743C81.898,115.192,81.898,111.066,79.373,108.516C76.848,105.965,72.762,105.965,70.237,108.516ZM70.237,108.516"/>
</g>
  <g id="Black-M" transform="matrix(1.0,0.0,0.0,1.0,2874.1473875107386,1028.0582329923755)">  <path stroke-dasharray="none" stroke-linejoin="miter" clip-rule="evenodd" fill-rule="evenodd" stroke-opacity="1" stroke-width="1px" stroke="none" stroke-miterlimit="4" fill="#000000" fill-opacity="1" stroke-linecap="butt" d="M99.339,21.788C90.552,12.915,76.256,12.915,67.464,21.788L59.534,29.793C57.582,31.77,57.577,34.969,59.534,36.946C61.491,38.923,64.664,38.918,66.621,36.946L74.546,28.941C79.429,24.012,87.374,24.007,92.257,28.941C97.14,33.874,97.135,41.89,92.257,46.818L74.546,64.7C69.663,69.629,61.723,69.629,56.835,64.7C56.416,64.272,56.028,63.823,55.685,63.358C54.025,61.109,50.893,60.66,48.678,62.329C46.459,63.999,46.005,67.172,47.659,69.407C48.285,70.259,48.991,71.076,49.753,71.853C58.545,80.726,72.841,80.726,81.628,71.853L99.339,53.971C108.126,45.098,108.126,30.661,99.339,21.788ZM99.339,21.788"/>
  <path fill="#000000" clip-rule="evenodd" stroke-opacity="1" stroke-dasharray="none" stroke-width="1px" fill-opacity="1" stroke-miterlimit="4" stroke="none" fill-rule="evenodd" stroke-linejoin="miter" stroke-linecap="butt" d="M54.447,84.121L46.517,92.126C41.634,97.054,33.695,97.054,28.807,92.126C23.924,87.193,23.924,79.177,28.807,74.244L46.517,56.366C51.4,51.438,59.345,51.433,64.223,56.366C64.647,56.79,65.04,57.249,65.388,57.718C67.058,59.953,70.186,60.402,72.405,58.727C74.615,57.052,75.058,53.88,73.399,51.645C72.773,50.797,72.072,49.98,71.31,49.213C62.523,40.34,48.227,40.34,39.43,49.213L21.724,67.096C12.937,75.964,12.937,90.406,21.724,99.274C30.517,108.152,44.812,108.152,53.6,99.274L61.529,91.274C63.487,89.296,63.487,86.098,61.529,84.121C59.572,82.143,56.404,82.143,54.447,84.121ZM54.447,84.121"/>
</g>
  <g id="Heavy-M" transform="matrix(1.0,0.0,0.0,1.0,2577.4373875107385,1028.0582329923755)">  <path stroke-miterlimit="4" stroke-dasharray="none" stroke-opacity="1" fill="#000000" fill-opacity="1" fill-rule="evenodd" clip-rule="evenodd" stroke-linecap="butt" stroke-linejoin="miter" stroke="none" stroke-width="1px" d="M99.339,21.788C90.552,12.915,76.256,12.915,67.464,21.788L59.534,29.793C57.582,31.77,57.577,34.969,59.534,36.946C61.491,38.923,64.664,38.918,66.621,36.946L74.546,28.941C79.429,24.012,87.374,24.007,92.257,28.941C97.14,33.874,97.135,41.89,92.257,46.818L74.546,64.7C69.663,69.629,61.723,69.629,56.835,64.7C56.416,64.272,56.028,63.823,55.685,63.358C54.025,61.109,50.893,60.66,48.678,62.329C46.459,63.999,46.005,67.172,47.659,69.407C48.285,70.259,48.991,71.076,49.753,71.853C58.545,80.726,72.841,80.726,81.628,71.853L99.339,53.971C108.126,45.098,108.126,30.661,99.339,21.788ZM99.339,21.788"/>
  <path fill-opacity="1" stroke-linecap="butt" stroke="none" stroke-linejoin="miter" fill-rule="evenodd" stroke-miterlimit="4" stroke-opacity="1" stroke-dasharray="none" clip-rule="evenodd" fill="#000000" stroke-width="1px" d="M54.447,84.121L46.517,92.126C41.634,97.054,33.695,97.054,28.807,92.126C23.924,87.193,23.924,79.177,28.807,74.244L46.517,56.366C51.4,51.438,59.345,51.433,64.223,56.366C64.647,56.79,65.04,57.249,65.388,57.718C67.058,59.953,70.186,60.402,72.405,58.727C74.615,57.052,75.058,53.88,73.399,51.645C72.773,50.797,72.072,49.98,71.31,49.213C62.523,40.34,48.227,40.34,39.43,49.213L21.724,67.096C12.937,75.964,12.937,90.406,21.724,99.274C30.517,108.152,44.812,108.152,53.6,99.274L61.529,91.274C63.487,89.296,63.487,86.098,61.529,84.121C59.572,82.143,56.404,82.143,54.447,84.121ZM54.447,84.121"/>
</g>
  <g id="Bold-M" transform="matrix(1.0,0.0,0.0,1.0,2280.7273875107385,1028.0582329923755)">  <path stroke-opacity="1" stroke-linejoin="miter" clip-rule="evenodd" stroke="none" fill="#000000" stroke-width="1px" stroke-dasharray="none" stroke-miterlimit="4" fill-opacity="1" stroke-linecap="butt" fill-rule="evenodd" d="M99.339,21.788C90.552,12.915,76.256,12.915,67.464,21.788L59.534,29.793C57.582,31.77,57.577,34.969,59.534,36.946C61.491,38.923,64.664,38.918,66.621,36.946L74.546,28.941C79.429,24.012,87.374,24.007,92.257,28.941C97.14,33.874,97.135,41.89,92.257,46.818L74.546,64.7C69.663,69.629,61.723,69.629,56.835,64.7C56.416,64.272,56.028,63.823,55.685,63.358C54.025,61.109,50.893,60.66,48.678,62.329C46.459,63.999,46.005,67.172,47.659,69.407C48.285,70.259,48.991,71.076,49.753,71.853C58.545,80.726,72.841,80.726,81.628,71.853L99.339,53.971C108.126,45.098,108.126,30.661,99.339,21.788ZM99.339,21.788"/>
  <path stroke-width="1px" stroke-opacity="1" fill-rule="evenodd" stroke-linecap="butt" fill="#000000" stroke="none" clip-rule="evenodd" fill-opacity="1" stroke-dasharray="none" stroke-linejoin="miter" stroke-miterlimit="4" d="M54.447,84.121L46.517,92.126C41.634,97.054,33.695,97.054,28.807,92.126C23.924,87.193,23.924,79.177,28.807,74.244L46.517,56.366C51.4,51.438,59.345,51.433,64.223,56.366C64.647,56.79,65.04,57.249,65.388,57.718C67.058,59.953,70.186,60.402,72.405,58.727C74.615,57.052,75.058,53.88,73.399,51.645C72.773,50.797,72.072,49.98,71.31,49.213C62.523,40.34,48.227,40.34,39.43,49.213L21.724,67.096C12.937,75.964,12.937,90.406,21.724,99.274C30.517,108.152,44.812,108.152,53.6,99.274L61.529,91.274C63.487,89.296,63.487,86.098,61.529,84.121C59.572,82.143,56.404,82.143,54.447,84.121ZM54.447,84.121"/>
</g>
  <g id="Semibold-M" transform="matrix(1.0,0.0,0.0,1.0,1984.0173875107387,1028.0582329923755)">  <path fill="#000000" stroke-opacity="1" stroke="none" clip-rule="evenodd" stroke-dasharray="none" stroke-width="1px" fill-rule="evenodd" stroke-linejoin="miter" stroke-linecap="butt" stroke-miterlimit="4" fill-opacity="1" d="M99.339,21.788C90.552,12.915,76.256,12.915,67.464,21.788L59.534,29.793C57.582,31.77,57.577,34.969,59.534,36.946C61.491,38.923,64.664,38.918,66.621,36.946L74.546,28.941C79.429,24.012,87.374,24.007,92.257,28.941C97.14,33.874,97.135,41.89,92.257,46.818L74.546,64.7C69.663,69.629,61.723,69.629,56.835,64.7C56.416,64.272,56.028,63.823,55.685,63.358C54.025,61.109,50.893,60.66,48.678,62.329C46.459,63.999,46.005,67.172,47.659,69.407C48.285,70.259,48.991,71.076,49.753,71.853C58.545,80.726,72.841,80.726,81.628,71.853L99.339,53.971C108.126,45.098,108.126,30.661,99.339,21.788ZM99.339,21.788"/>
  <path stroke-linecap="butt" stroke-miterlimit="4" stroke-opacity="1" fill-opacity="1" stroke-linejoin="miter" fill-rule="evenodd" stroke-width="1px" stroke-dasharray="none" fill="#000000" clip-rule="evenodd" stroke="none" d="M54.447,84.121L46.517,92.126C41.634,97.054,33.695,97.054,28.807,92.126C23.924,87.193,23.924,79.177,28.807,74.244L46.517,56.366C51.4,51.438,59.345,51.433,64.223,56.366C64.647,56.79,65.04,57.249,65.388,57.718C67.058,59.953,70.186,60.402,72.405,58.727C74.615,57.052,75.058,53.88,73.399,51.645C72.773,50.797,72.072,49.98,71.31,49.213C62.523,40.34,48.227,40.34,39.43,49.213L21.724,67.096C12.937,75.964,12.937,90.406,21.724,99.274C30.517,108.152,44.812,108.152,53.6,99.274L61.529,91.274C63.487,89.296,63.487,86.098,61.529,84.121C59.572,82.143,56.404,82.143,54.447,84.121ZM54.447,84.121"/>
</g>
  <g id="Medium-M" transform="matrix(1.0,0.0,0.0,1.0,1687.3073875107386,1028.0582329923755)">  <path stroke-dasharray="none" fill-opacity="1" stroke="none" stroke-miterlimit="4" stroke-opacity="1" stroke-width="1px" fill="#000000" stroke-linejoin="miter" stroke-linecap="butt" clip-rule="evenodd" fill-rule="evenodd" d="M99.339,21.788C90.552,12.915,76.256,12.915,67.464,21.788L59.534,29.793C57.582,31.77,57.577,34.969,59.534,36.946C61.491,38.923,64.664,38.918,66.621,36.946L74.546,28.941C79.429,24.012,87.374,24.007,92.257,28.941C97.14,33.874,97.135,41.89,92.257,46.818L74.546,64.7C69.663,69.629,61.723,69.629,56.835,64.7C56.416,64.272,56.028,63.823,55.685,63.358C54.025,61.109,50.893,60.66,48.678,62.329C46.459,63.999,46.005,67.172,47.659,69.407C48.285,70.259,48.991,71.076,49.753,71.853C58.545,80.726,72.841,80.726,81.628,71.853L99.339,53.971C108.126,45.098,108.126,30.661,99.339,21.788ZM99.339,21.788"/>
  <path fill-opacity="1" stroke-linecap="butt" stroke-miterlimit="4" stroke-opacity="1" stroke-width="1px" fill="#000000" clip-rule="evenodd" stroke="none" fill-rule="evenodd" stroke-linejoin="miter" stroke-dasharray="none" d="M54.447,84.121L46.517,92.126C41.634,97.054,33.695,97.054,28.807,92.126C23.924,87.193,23.924,79.177,28.807,74.244L46.517,56.366C51.4,51.438,59.345,51.433,64.223,56.366C64.647,56.79,65.04,57.249,65.388,57.718C67.058,59.953,70.186,60.402,72.405,58.727C74.615,57.052,75.058,53.88,73.399,51.645C72.773,50.797,72.072,49.98,71.31,49.213C62.523,40.34,48.227,40.34,39.43,49.213L21.724,67.096C12.937,75.964,12.937,90.406,21.724,99.274C30.517,108.152,44.812,108.152,53.6,99.274L61.529,91.274C63.487,89.296,63.487,86.098,61.529,84.121C59.572,82.143,56.404,82.143,54.447,84.121ZM54.447,84.121"/>
</g>
  <g id="Regular-M" transform="matrix(1.0,0.0,0.0,1.0,1390.5973875107386,1028.0582329923755)">  <path stroke-linecap="butt" fill-rule="evenodd" fill-opacity="1" clip-rule="evenodd" stroke-linejoin="miter" fill="#000000" stroke-width="1px" stroke-miterlimit="4" stroke-opacity="1" stroke-dasharray="none" stroke="none" d="M99.339,21.788C90.552,12.915,76.256,12.915,67.464,21.788L59.534,29.793C57.582,31.77,57.577,34.969,59.534,36.946C61.491,38.923,64.664,38.918,66.621,36.946L74.546,28.941C79.429,24.012,87.374,24.007,92.257,28.941C97.14,33.874,97.135,41.89,92.257,46.818L74.546,64.7C69.663,69.629,61.723,69.629,56.835,64.7C56.416,64.272,56.028,63.823,55.685,63.358C54.025,61.109,50.893,60.66,48.678,62.329C46.459,63.999,46.005,67.172,47.659,69.407C48.285,70.259,48.991,71.076,49.753,71.853C58.545,80.726,72.841,80.726,81.628,71.853L99.339,53.971C108.126,45.098,108.126,30.661,99.339,21.788ZM99.339,21.788"/>
  <path stroke="none" stroke-linejoin="miter" stroke-linecap="butt" clip-rule="evenodd" stroke-width="1px" fill-rule="evenodd" fill="#000000" stroke-miterlimit="4" fill-opacity="1" stroke-opacity="1" stroke-dasharray="none" d="M54.447,84.121L46.517,92.126C41.634,97.054,33.695,97.054,28.807,92.126C23.924,87.193,23.924,79.177,28.807,74.244L46.517,56.366C51.4,51.438,59.345,51.433,64.223,56.366C64.647,56.79,65.04,57.249,65.388,57.718C67.058,59.953,70.186,60.402,72.405,58.727C74.615,57.052,75.058,53.88,73.399,51.645C72.773,50.797,72.072,49.98,71.31,49.213C62.523,40.34,48.227,40.34,39.43,49.213L21.724,67.096C12.937,75.964,12.937,90.406,21.724,99.274C30.517,108.152,44.812,108.152,53.6,99.274L61.529,91.274C63.487,89.296,63.487,86.098,61.529,84.121C59.572,82.143,56.404,82.143,54.447,84.121ZM54.447,84.121"/>
</g>
  <g id="Light-M" transform="matrix(1.0,0.0,0.0,1.0,1093.8873875107388,1028.0582329923755)">  <path stroke-width="1px" clip-rule="evenodd" stroke-dasharray="none" stroke="none" fill="#000000" stroke-linejoin="miter" stroke-miterlimit="4" stroke-linecap="butt" fill-rule="evenodd" stroke-opacity="1" fill-opacity="1" d="M99.339,21.788C90.552,12.915,76.256,12.915,67.464,21.788L59.534,29.793C57.582,31.77,57.577,34.969,59.534,36.946C61.491,38.923,64.664,38.918,66.621,36.946L74.546,28.941C79.429,24.012,87.374,24.007,92.257,28.941C97.14,33.874,97.135,41.89,92.257,46.818L74.546,64.7C69.663,69.629,61.723,69.629,56.835,64.7C56.416,64.272,56.028,63.823,55.685,63.358C54.025,61.109,50.893,60.66,48.678,62.329C46.459,63.999,46.005,67.172,47.659,69.407C48.285,70.259,48.991,71.076,49.753,71.853C58.545,80.726,72.841,80.726,81.628,71.853L99.339,53.971C108.126,45.098,108.126,30.661,99.339,21.788ZM99.339,21.788"/>
  <path stroke-width="1px" clip-rule="evenodd" stroke="none" stroke-linecap="butt" stroke-dasharray="none" stroke-linejoin="miter" stroke-opacity="1" fill="#000000" fill-opacity="1" fill-rule="evenodd" stroke-miterlimit="4" d="M54.447,84.121L46.517,92.126C41.634,97.054,33.695,97.054,28.807,92.126C23.924,87.193,23.924,79.177,28.807,74.244L46.517,56.366C51.4,51.438,59.345,51.433,64.223,56.366C64.647,56.79,65.04,57.249,65.388,57.718C67.058,59.953,70.186,60.402,72.405,58.727C74.615,57.052,75.058,53.88,73.399,51.645C72.773,50.797,72.072,49.98,71.31,49.213C62.523,40.34,48.227,40.34,39.43,49.213L21.724,67.096C12.937,75.964,12.937,90.406,21.724,99.274C30.517,108.152,44.812,108.152,53.6,99.274L61.529,91.274C63.487,89.296,63.487,86.098,61.529,84.121C59.572,82.143,56.404,82.143,54.447,84.121ZM54.447,84.121"/>
</g>
  <g id="Thin-M" transform="matrix(1.0,0.0,0.0,1.0,797.1773875107389,1028.0582329923755)">  <path stroke-linecap="butt" stroke="none" clip-rule="evenodd" stroke-dasharray="none" stroke-width="1px" fill="#000000" fill-opacity="1" stroke-linejoin="miter" stroke-opacity="1" stroke-miterlimit="4" fill-rule="evenodd" d="M99.339,21.788C90.552,12.915,76.256,12.915,67.464,21.788L59.534,29.793C57.582,31.77,57.577,34.969,59.534,36.946C61.491,38.923,64.664,38.918,66.621,36.946L74.546,28.941C79.429,24.012,87.374,24.007,92.257,28.941C97.14,33.874,97.135,41.89,92.257,46.818L74.546,64.7C69.663,69.629,61.723,69.629,56.835,64.7C56.416,64.272,56.028,63.823,55.685,63.358C54.025,61.109,50.893,60.66,48.678,62.329C46.459,63.999,46.005,67.172,47.659,69.407C48.285,70.259,48.991,71.076,49.753,71.853C58.545,80.726,72.841,80.726,81.628,71.853L99.339,53.971C108.126,45.098,108.126,30.661,99.339,21.788ZM99.339,21.788"/>
  <path stroke-opacity="1" clip-rule="evenodd" stroke="none" fill-rule="evenodd" fill-opacity="1" stroke-width="1px" stroke-linecap="butt" stroke-miterlimit="4" stroke-dasharray="none" stroke-linejoin="miter" fill="#000000" d="M54.447,84.121L46.517,92.126C41.634,97.054,33.695,97.054,28.807,92.126C23.924,87.193,23.924,79.177,28.807,74.244L46.517,56.366C51.4,51.438,59.345,51.433,64.223,56.366C64.647,56.79,65.04,57.249,65.388,57.718C67.058,59.953,70.186,60.402,72.405,58.727C74.615,57.052,75.058,53.88,73.399,51.645C72.773,50.797,72.072,49.98,71.31,49.213C62.523,40.34,48.227,40.34,39.43,49.213L21.724,67.096C12.937,75.964,12.937,90.406,21.724,99.274C30.517,108.152,44.812,108.152,53.6,99.274L61.529,91.274C63.487,89.296,63.487,86.098,61.529,84.121C59.572,82.143,56.404,82.143,54.447,84.121ZM54.447,84.121"/>
</g>
  <g id="Ultralight-M" transform="matrix(1.0,0.0,0.0,1.0,500.46738751073883,1028.0582329923755)">  <path stroke-opacity="1" stroke-dasharray="none" fill="#000000" stroke-linejoin="miter" fill-opacity="1" stroke-miterlimit="4" clip-rule="evenodd" fill-rule="evenodd" stroke-linecap="butt" stroke-width="1px" stroke="none" d="M99.339,21.788C90.552,12.915,76.256,12.915,67.464,21.788L59.534,29.793C57.582,31.77,57.577,34.969,59.534,36.946C61.491,38.923,64.664,38.918,66.621,36.946L74.546,28.941C79.429,24.012,87.374,24.007,92.257,28.941C97.14,33.874,97.135,41.89,92.257,46.818L74.546,64.7C69.663,69.629,61.723,69.629,56.835,64.7C56.416,64.272,56.028,63.823,55.685,63.358C54.025,61.109,50.893,60.66,48.678,62.329C46.459,63.999,46.005,67.172,47.659,69.407C48.285,70.259,48.991,71.076,49.753,71.853C58.545,80.726,72.841,80.726,81.628,71.853L99.339,53.971C108.126,45.098,108.126,30.661,99.339,21.788ZM99.339,21.788"/>
  <path stroke-opacity="1" stroke-linejoin="miter" fill="#000000" stroke-linecap="butt" fill-rule="evenodd" stroke-miterlimit="4" fill-opacity="1" stroke="none" clip-rule="evenodd" stroke-width="1px" stroke-dasharray="none" d="M54.447,84.121L46.517,92.126C41.634,97.054,33.695,97.054,28.807,92.126C23.924,87.193,23.924,79.177,28.807,74.244L46.517,56.366C51.4,51.438,59.345,51.433,64.223,56.366C64.647,56.79,65.04,57.249,65.388,57.718C67.058,59.953,70.186,60.402,72.405,58.727C74.615,57.052,75.058,53.88,73.399,51.645C72.773,50.797,72.072,49.98,71.31,49.213C62.523,40.34,48.227,40.34,39.43,49.213L21.724,67.096C12.937,75.964,12.937,90.406,21.724,99.274C30.517,108.152,44.812,108.152,53.6,99.274L61.529,91.274C63.487,89.296,63.487,86.098,61.529,84.121C59.572,82.143,56.404,82.143,54.447,84.121ZM54.447,84.121"/>
</g>
  <g id="Black-S" transform="matrix(1.0,0.0,0.0,1.0,2887.2829644209082,611.6666906713112)">  <path stroke-dasharray="none" stroke-linejoin="miter" clip-rule="evenodd" fill-rule="evenodd" stroke-opacity="1" stroke-width="1px" stroke="none" stroke-miterlimit="4" fill="#000000" fill-opacity="1" stroke-linecap="butt" d="M77.782,17.06C70.902,10.112,59.708,10.112,52.824,17.06L46.615,23.328C45.086,24.876,45.082,27.38,46.615,28.929C48.147,30.477,50.632,30.473,52.164,28.929L58.369,22.66C62.193,18.802,68.414,18.798,72.237,22.66C76.06,26.523,76.056,32.799,72.237,36.658L58.369,50.66C54.546,54.519,48.329,54.519,44.502,50.66C44.174,50.325,43.87,49.973,43.601,49.61C42.302,47.848,39.849,47.497,38.115,48.804C36.377,50.111,36.022,52.596,37.317,54.345C37.807,55.013,38.36,55.653,38.956,56.261C45.841,63.209,57.034,63.209,63.915,56.261L77.782,42.259C84.663,35.312,84.663,24.007,77.782,17.06ZM77.782,17.06"/>
  <path fill="#000000" clip-rule="evenodd" stroke-opacity="1" stroke-dasharray="none" stroke-width="1px" fill-opacity="1" stroke-miterlimit="4" stroke="none" fill-rule="evenodd" stroke-linejoin="miter" stroke-linecap="butt" d="M42.632,65.866L36.423,72.135C32.6,75.994,26.383,75.994,22.556,72.135C18.732,68.272,18.732,61.996,22.556,58.133L36.423,44.135C40.246,40.276,46.467,40.272,50.287,44.135C50.618,44.467,50.927,44.826,51.199,45.193C52.506,46.943,54.955,47.295,56.693,45.983C58.423,44.672,58.771,42.188,57.471,40.438C56.982,39.774,56.432,39.134,55.836,38.534C48.956,31.586,37.762,31.586,30.874,38.534L17.01,52.536C10.13,59.48,10.13,70.788,17.01,77.732C23.895,84.683,35.088,84.683,41.968,77.732L48.178,71.467C49.71,69.919,49.71,67.415,48.178,65.866C46.645,64.318,44.165,64.318,42.632,65.866ZM42.632,65.866"/>
</g>
  <g id="Heavy-S" transform="matrix(1.0,0.0,0.0,1.0,2590.572964420908,611.6666906713112)">  <path stroke-miterlimit="4" stroke-dasharray="none" stroke-opacity="1" fill="#000000" fill-opacity="1" fill-rule="evenodd" clip-rule="evenodd" stroke-linecap="butt" stroke-linejoin="miter" stroke="none" stroke-width="1px" d="M77.782,17.06C70.902,10.112,59.708,10.112,52.824,17.06L46.615,23.328C45.086,24.876,45.082,27.38,46.615,28.929C48.147,30.477,50.632,30.473,52.164,28.929L58.369,22.66C62.193,18.802,68.414,18.798,72.237,22.66C76.06,26.523,76.056,32.799,72.237,36.658L58.369,50.66C54.546,54.519,48.329,54.519,44.502,50.66C44.174,50.325,43.87,49.973,43.601,49.61C42.302,47.848,39.849,47.497,38.115,48.804C36.377,50.111,36.022,52.596,37.317,54.345C37.807,55.013,38.36,55.653,38.956,56.261C45.841,63.209,57.034,63.209,63.915,56.261L77.782,42.259C84.663,35.312,84.663,24.007,77.782,17.06ZM77.782,17.06"/>
  <path fill-opacity="1" stroke-linecap="butt" stroke="none" stroke-linejoin="miter" fill-rule="evenodd" stroke-miterlimit="4" stroke-opacity="1" stroke-dasharray="none" clip-rule="evenodd" fill="#000000" stroke-width="1px" d="M42.632,65.866L36.423,72.135C32.6,75.994,26.383,75.994,22.556,72.135C18.732,68.272,18.732,61.996,22.556,58.133L36.423,44.135C40.246,40.276,46.467,40.272,50.287,44.135C50.618,44.467,50.927,44.826,51.199,45.193C52.506,46.943,54.955,47.295,56.693,45.983C58.423,44.672,58.771,42.188,57.471,40.438C56.982,39.774,56.432,39.134,55.836,38.534C48.956,31.586,37.762,31.586,30.874,38.534L17.01,52.536C10.13,59.48,10.13,70.788,17.01,77.732C23.895,84.683,35.088,84.683,41.968,77.732L48.178,71.467C49.71,69.919,49.71,67.415,48.178,65.866C46.645,64.318,44.165,64.318,42.632,65.866ZM42.632,65.866"/>
</g>
  <g id="Bold-S" transform="matrix(1.0,0.0,0.0,1.0,2293.862964420908,611.6666906713112)">  <path stroke-opacity="1" stroke-linejoin="miter" clip-rule="evenodd" stroke="none" fill="#000000" stroke-width="1px" stroke-dasharray="none" stroke-miterlimit="4" fill-opacity="1" stroke-linecap="butt" fill-rule="evenodd" d="M77.782,17.06C70.902,10.112,59.708,10.112,52.824,17.06L46.615,23.328C45.086,24.876,45.082,27.38,46.615,28.929C48.147,30.477,50.632,30.473,52.164,28.929L58.369,22.66C62.193,18.802,68.414,18.798,72.237,22.66C76.06,26.523,76.056,32.799,72.237,36.658L58.369,50.66C54.546,54.519,48.329,54.519,44.502,50.66C44.174,50.325,43.87,49.973,43.601,49.61C42.302,47.848,39.849,47.497,38.115,48.804C36.377,50.111,36.022,52.596,37.317,54.345C37.807,55.013,38.36,55.653,38.956,56.261C45.841,63.209,57.034,63.209,63.915,56.261L77.782,42.259C84.663,35.312,84.663,24.007,77.782,17.06ZM77.782,17.06"/>
  <path stroke-width="1px" stroke-opacity="1" fill-rule="evenodd" stroke-linecap="butt" fill="#000000" stroke="none" clip-rule="evenodd" fill-opacity="1" stroke-dasharray="none" stroke-linejoin="miter" stroke-miterlimit="4" d="M42.632,65.866L36.423,72.135C32.6,75.994,26.383,75.994,22.556,72.135C18.732,68.272,18.732,61.996,22.556,58.133L36.423,44.135C40.246,40.276,46.467,40.272,50.287,44.135C50.618,44.467,50.927,44.826,51.199,45.193C52.506,46.943,54.955,47.295,56.693,45.983C58.423,44.672,58.771,42.188,57.471,40.438C56.982,39.774,56.432,39.134,55.836,38.534C48.956,31.586,37.762,31.586,30.874,38.534L17.01,52.536C10.13,59.48,10.13,70.788,17.01,77.732C23.895,84.683,35.088,84.683,41.968,77.732L48.178,71.467C49.71,69.919,49.71,67.415,48.178,65.866C46.645,64.318,44.165,64.318,42.632,65.866ZM42.632,65.866"/>
</g>
  <g id="Semibold-S" transform="matrix(1.0,0.0,0.0,1.0,1997.1529644209083,611.6666906713112)">  <path fill="#000000" stroke-opacity="1" stroke="none" clip-rule="evenodd" stroke-dasharray="none" stroke-width="1px" fill-rule="evenodd" stroke-linejoin="miter" stroke-linecap="butt" stroke-miterlimit="4" fill-opacity="1" d="M77.782,17.06C70.902,10.112,59.708,10.112,52.824,17.06L46.615,23.328C45.086,24.876,45.082,27.38,46.615,28.929C48.147,30.477,50.632,30.473,52.164,28.929L58.369,22.66C62.193,18.802,68.414,18.798,72.237,22.66C76.06,26.523,76.056,32.799,72.237,36.658L58.369,50.66C54.546,54.519,48.329,54.519,44.502,50.66C44.174,50.325,43.87,49.973,43.601,49.61C42.302,47.848,39.849,47.497,38.115,48.804C36.377,50.111,36.022,52.596,37.317,54.345C37.807,55.013,38.36,55.653,38.956,56.261C45.841,63.209,57.034,63.209,63.915,56.261L77.782,42.259C84.663,35.312,84.663,24.007,77.782,17.06ZM77.782,17.06"/>
  <path stroke-linecap="butt" stroke-miterlimit="4" stroke-opacity="1" fill-opacity="1" stroke-linejoin="miter" fill-rule="evenodd" stroke-width="1px" stroke-dasharray="none" fill="#000000" clip-rule="evenodd" stroke="none" d="M42.632,65.866L36.423,72.135C32.6,75.994,26.383,75.994,22.556,72.135C18.732,68.272,18.732,61.996,22.556,58.133L36.423,44.135C40.246,40.276,46.467,40.272,50.287,44.135C50.618,44.467,50.927,44.826,51.199,45.193C52.506,46.943,54.955,47.295,56.693,45.983C58.423,44.672,58.771,42.188,57.471,40.438C56.982,39.774,56.432,39.134,55.836,38.534C48.956,31.586,37.762,31.586,30.874,38.534L17.01,52.536C10.13,59.48,10.13,70.788,17.01,77.732C23.895,84.683,35.088,84.683,41.968,77.732L48.178,71.467C49.71,69.919,49.71,67.415,48.178,65.866C46.645,64.318,44.165,64.318,42.632,65.866ZM42.632,65.866"/>
</g>
  <g id="Medium-S" transform="matrix(1.0,0.0,0.0,1.0,1700.4429644209083,611.6666906713112)">  <path stroke-dasharray="none" fill-opacity="1" stroke="none" stroke-miterlimit="4" stroke-opacity="1" stroke-width="1px" fill="#000000" stroke-linejoin="miter" stroke-linecap="butt" clip-rule="evenodd" fill-rule="evenodd" d="M77.782,17.06C70.902,10.112,59.708,10.112,52.824,17.06L46.615,23.328C45.086,24.876,45.082,27.38,46.615,28.929C48.147,30.477,50.632,30.473,52.164,28.929L58.369,22.66C62.193,18.802,68.414,18.798,72.237,22.66C76.06,26.523,76.056,32.799,72.237,36.658L58.369,50.66C54.546,54.519,48.329,54.519,44.502,50.66C44.174,50.325,43.87,49.973,43.601,49.61C42.302,47.848,39.849,47.497,38.115,48.804C36.377,50.111,36.022,52.596,37.317,54.345C37.807,55.013,38.36,55.653,38.956,56.261C45.841,63.209,57.034,63.209,63.915,56.261L77.782,42.259C84.663,35.312,84.663,24.007,77.782,17.06ZM77.782,17.06"/>
  <path fill-opacity="1" stroke-linecap="butt" stroke-miterlimit="4" stroke-opacity="1" stroke-width="1px" fill="#000000" clip-rule="evenodd" stroke="none" fill-rule="evenodd" stroke-linejoin="miter" stroke-dasharray="none" d="M42.632,65.866L36.423,72.135C32.6,75.994,26.383,75.994,22.556,72.135C18.732,68.272,18.732,61.996,22.556,58.133L36.423,44.135C40.246,40.276,46.467,40.272,50.287,44.135C50.618,44.467,50.927,44.826,51.199,45.193C52.506,46.943,54.955,47.295,56.693,45.983C58.423,44.672,58.771,42.188,57.471,40.438C56.982,39.774,56.432,39.134,55.836,38.534C48.956,31.586,37.762,31.586,30.874,38.534L17.01,52.536C10.13,59.48,10.13,70.788,17.01,77.732C23.895,84.683,35.088,84.683,41.968,77.732L48.178,71.467C49.71,69.919,49.71,67.415,48.178,65.866C46.645,64.318,44.165,64.318,42.632,65.866ZM42.632,65.866"/>
</g>
  <g id="Regular-S" transform="matrix(1.0,0.0,0.0,1.0,1403.7329644209083,611.6666906713112)">  <path stroke-linecap="butt" fill-rule="evenodd" fill-opacity="1" clip-rule="evenodd" stroke-linejoin="miter" fill="#000000" stroke-width="1px" stroke-miterlimit="4" stroke-opacity="1" stroke-dasharray="none" stroke="none" d="M77.782,17.06C70.902,10.112,59.708,10.112,52.824,17.06L46.615,23.328C45.086,24.876,45.082,27.38,46.615,28.929C48.147,30.477,50.632,30.473,52.164,28.929L58.369,22.66C62.193,18.802,68.414,18.798,72.237,22.66C76.06,26.523,76.056,32.799,72.237,36.658L58.369,50.66C54.546,54.519,48.329,54.519,44.502,50.66C44.174,50.325,43.87,49.973,43.601,49.61C42.302,47.848,39.849,47.497,38.115,48.804C36.377,50.111,36.022,52.596,37.317,54.345C37.807,55.013,38.36,55.653,38.956,56.261C45.841,63.209,57.034,63.209,63.915,56.261L77.782,42.259C84.663,35.312,84.663,24.007,77.782,17.06ZM77.782,17.06"/>
  <path stroke="none" stroke-linejoin="miter" stroke-linecap="butt" clip-rule="evenodd" stroke-width="1px" fill-rule="evenodd" fill="#000000" stroke-miterlimit="4" fill-opacity="1" stroke-opacity="1" stroke-dasharray="none" d="M42.632,65.866L36.423,72.135C32.6,75.994,26.383,75.994,22.556,72.135C18.732,68.272,18.732,61.996,22.556,58.133L36.423,44.135C40.246,40.276,46.467,40.272,50.287,44.135C50.618,44.467,50.927,44.826,51.199,45.193C52.506,46.943,54.955,47.295,56.693,45.983C58.423,44.672,58.771,42.188,57.471,40.438C56.982,39.774,56.432,39.134,55.836,38.534C48.956,31.586,37.762,31.586,30.874,38.534L17.01,52.536C10.13,59.48,10.13,70.788,17.01,77.732C23.895,84.683,35.088,84.683,41.968,77.732L48.178,71.467C49.71,69.919,49.71,67.415,48.178,65.866C46.645,64.318,44.165,64.318,42.632,65.866ZM42.632,65.866"/>
</g>
  <g id="Light-S" transform="matrix(1.0,0.0,0.0,1.0,1107.0229644209085,611.6666906713112)">  <path stroke-width="1px" clip-rule="evenodd" stroke-dasharray="none" stroke="none" fill="#000000" stroke-linejoin="miter" stroke-miterlimit="4" stroke-linecap="butt" fill-rule="evenodd" stroke-opacity="1" fill-opacity="1" d="M77.782,17.06C70.902,10.112,59.708,10.112,52.824,17.06L46.615,23.328C45.086,24.876,45.082,27.38,46.615,28.929C48.147,30.477,50.632,30.473,52.164,28.929L58.369,22.66C62.193,18.802,68.414,18.798,72.237,22.66C76.06,26.523,76.056,32.799,72.237,36.658L58.369,50.66C54.546,54.519,48.329,54.519,44.502,50.66C44.174,50.325,43.87,49.973,43.601,49.61C42.302,47.848,39.849,47.497,38.115,48.804C36.377,50.111,36.022,52.596,37.317,54.345C37.807,55.013,38.36,55.653,38.956,56.261C45.841,63.209,57.034,63.209,63.915,56.261L77.782,42.259C84.663,35.312,84.663,24.007,77.782,17.06ZM77.782,17.06"/>
  <path stroke-width="1px" clip-rule="evenodd" stroke="none" stroke-linecap="butt" stroke-dasharray="none" stroke-linejoin="miter" stroke-opacity="1" fill="#000000" fill-opacity="1" fill-rule="evenodd" stroke-miterlimit="4" d="M42.632,65.866L36.423,72.135C32.6,75.994,26.383,75.994,22.556,72.135C18.732,68.272,18.732,61.996,22.556,58.133L36.423,44.135C40.246,40.276,46.467,40.272,50.287,44.135C50.618,44.467,50.927,44.826,51.199,45.193C52.506,46.943,54.955,47.295,56.693,45.983C58.423,44.672,58.771,42.188,57.471,40.438C56.982,39.774,56.432,39.134,55.836,38.534C48.956,31.586,37.762,31.586,30.874,38.534L17.01,52.536C10.13,59.48,10.13,70.788,17.01,77.732C23.895,84.683,35.088,84.683,41.968,77.732L48.178,71.467C49.71,69.919,49.71,67.415,48.178,65.866C46.645,64.318,44.165,64.318,42.632,65.866ZM42.632,65.866"/>
</g>
  <g id="Thin-S" transform="matrix(1.0,0.0,0.0,1.0,810.3129644209085,611.6666906713112)">  <path stroke-linecap="butt" stroke="none" clip-rule="evenodd" stroke-dasharray="none" stroke-width="1px" fill="#000000" fill-opacity="1" stroke-linejoin="miter" stroke-opacity="1" stroke-miterlimit="4" fill-rule="evenodd" d="M77.782,17.06C70.902,10.112,59.708,10.112,52.824,17.06L46.615,23.328C45.086,24.876,45.082,27.38,46.615,28.929C48.147,30.477,50.632,30.473,52.164,28.929L58.369,22.66C62.193,18.802,68.414,18.798,72.237,22.66C76.06,26.523,76.056,32.799,72.237,36.658L58.369,50.66C54.546,54.519,48.329,54.519,44.502,50.66C44.174,50.325,43.87,49.973,43.601,49.61C42.302,47.848,39.849,47.497,38.115,48.804C36.377,50.111,36.022,52.596,37.317,54.345C37.807,55.013,38.36,55.653,38.956,56.261C45.841,63.209,57.034,63.209,63.915,56.261L77.782,42.259C84.663,35.312,84.663,24.007,77.782,17.06ZM77.782,17.06"/>
  <path stroke-opacity="1" clip-rule="evenodd" stroke="none" fill-rule="evenodd" fill-opacity="1" stroke-width="1px" stroke-linecap="butt" stroke-miterlimit="4" stroke-dasharray="none" stroke-linejoin="miter" fill="#000000" d="M42.632,65.866L36.423,72.135C32.6,75.994,26.383,75.994,22.556,72.135C18.732,68.272,18.732,61.996,22.556,58.133L36.423,44.135C40.246,40.276,46.467,40.272,50.287,44.135C50.618,44.467,50.927,44.826,51.199,45.193C52.506,46.943,54.955,47.295,56.693,45.983C58.423,44.672,58.771,42.188,57.471,40.438C56.982,39.774,56.432,39.134,55.836,38.534C48.956,31.586,37.762,31.586,30.874,38.534L17.01,52.536C10.13,59.48,10.13,70.788,17.01,77.732C23.895,84.683,35.088,84.683,41.968,77.732L48.178,71.467C49.71,69.919,49.71,67.415,48.178,65.866C46.645,64.318,44.165,64.318,42.632,65.866ZM42.632,65.866"/>
</g>
  <g id="Ultralight-S" transform="matrix(1.0,0.0,0.0,1.0,513.6029644209085,611.6666906713112)">  <path stroke-opacity="1" stroke-dasharray="none" fill="#000000" stroke-linejoin="miter" fill-opacity="1" stroke-miterlimit="4" clip-rule="evenodd" fill-rule="evenodd" stroke-linecap="butt" stroke-width="1px" stroke="none" d="M77.782,17.06C70.902,10.112,59.708,10.112,52.824,17.06L46.615,23.328C45.086,24.876,45.082,27.38,46.615,28.929C48.147,30.477,50.632,30.473,52.164,28.929L58.369,22.66C62.193,18.802,68.414,18.798,72.237,22.66C76.06,26.523,76.056,32.799,72.237,36.658L58.369,50.66C54.546,54.519,48.329,54.519,44.502,50.66C44.174,50.325,43.87,49.973,43.601,49.61C42.302,47.848,39.849,47.497,38.115,48.804C36.377,50.111,36.022,52.596,37.317,54.345C37.807,55.013,38.36,55.653,38.956,56.261C45.841,63.209,57.034,63.209,63.915,56.261L77.782,42.259C84.663,35.312,84.663,24.007,77.782,17.06ZM77.782,17.06"/>
  <path stroke-opacity="1" stroke-linejoin="miter" fill="#000000" stroke-linecap="butt" fill-rule="evenodd" stroke-miterlimit="4" fill-opacity="1" stroke="none" clip-rule="evenodd" stroke-width="1px" stroke-dasharray="none" d="M42.632,65.866L36.423,72.135C32.6,75.994,26.383,75.994,22.556,72.135C18.732,68.272,18.732,61.996,22.556,58.133L36.423,44.135C40.246,40.276,46.467,40.272,50.287,44.135C50.618,44.467,50.927,44.826,51.199,45.193C52.506,46.943,54.955,47.295,56.693,45.983C58.423,44.672,58.771,42.188,57.471,40.438C56.982,39.774,56.432,39.134,55.836,38.534C48.956,31.586,37.762,31.586,30.874,38.534L17.01,52.536C10.13,59.48,10.13,70.788,17.01,77.732C23.895,84.683,35.088,84.683,41.968,77.732L48.178,71.467C49.71,69.919,49.71,67.415,48.178,65.866C46.645,64.318,44.165,64.318,42.632,65.866ZM42.632,65.866"/>
</g>
 </g>
</svg>
