<?xml version="1.0" encoding="UTF-8"?>
<!-- Generator: CustomSymbols v2.6.1.40 by @serious_bret https://bretlester.com/app_content/CustomSymbols/ -->
<!-- Guides: Left/Right 0.164/0.17 Cap/Base 0.187/0.187 -->
<!-- Settings: RefScale 1.0 Min/Max Stroke Scales 0.5/2.21 -->
<!DOCTYPE svg
PUBLIC "-//W3C//DTD SVG 1.1//EN"
       "http://www.w3.org/Graphics/SVG/1.1/DTD/svg11.dtd">
<svg version="1.1" xmlns="http://www.w3.org/2000/svg" xmlns:xlink="http://www.w3.org/1999/xlink" width="3300" height="2200">
<![CDATA[<svg width="24" height="24" viewBox="0 0 24 24" fill="none" xmlns="http://www.w3.org/2000/svg">
<path fill-rule="evenodd" clip-rule="evenodd" d="M18 19.7149C18 19.8661 17.8663 19.9888 17.7013 19.9888H6.29871C6.13375 19.9888 6 19.8661 6 19.7149V13.2626C6 13.1114 6.13375 12.9888 6.29871 12.9888H17.7013C17.8663 12.9888 18 13.1114 18 13.2626V19.7149ZM18 11V7.41549C18 4.42448 15.2228 2 11.9916 2C8.76062 2 6 4.42467 6 7.41554V8.02845C6 8.41544 6.31008 8.96926 7 8.96926C7.68992 8.96926 8 8.41544 8 8.02845V7.41554C8 5.19865 9.59677 4 11.9916 4C14.3866 4 16 5.19846 16 7.41549V11H5.53885C4.52021 11 4 11.5297 4 12.4381L4 20.9361C4 21.7072 4.56746 22 5.0876 22H18.9699C19.8471 22 20 21.2018 20 20.9361V12.4381C20 11.5316 19.5104 11 18.4935 11H18Z" fill="black"/>
</svg>
]]>
 <g id="Notes">
  <rect height="2200" id="artboard" style="fill:white;opacity:1" width="3300" x="0" y="0"/>
  <line id="" style="fill:none;stroke:black;opacity:1;stroke-width:0.5;" x1="263" x2="3036" y1="292" y2="292"/>
  <text id="reftext1" style="stroke:none;fill:black;font-family:-apple-system,&quot;SF Pro Display&quot;,&quot;SF Pro Text&quot;,Helvetica,sans-serif;font-weight:bold;" transform="matrix(1 0 0 1 263 322)">Weight/Scale Variations</text>
  <text id="reftext2" style="stroke:none;fill:black;font-family:-apple-system,&quot;SF Pro Display&quot;,&quot;SF Pro Text&quot;,Helvetica,sans-serif;text-anchor:middle;" transform="matrix(1 0 0 1 559.711 322)">Ultralight</text>
  <text style="stroke:none;fill:black;font-family:-apple-system,&quot;SF Pro Display&quot;,&quot;SF Pro Text&quot;,Helvetica,sans-serif;text-anchor:middle;" transform="matrix(1 0 0 1 856.422 322)">Thin</text>
  <text style="stroke:none;fill:black;font-family:-apple-system,&quot;SF Pro Display&quot;,&quot;SF Pro Text&quot;,Helvetica,sans-serif;text-anchor:middle;" transform="matrix(1 0 0 1 1153.13 322)">Light</text>
  <text style="stroke:none;fill:black;font-family:-apple-system,&quot;SF Pro Display&quot;,&quot;SF Pro Text&quot;,Helvetica,sans-serif;text-anchor:middle;" transform="matrix(1 0 0 1 1449.84 322)">Regular</text>
  <text style="stroke:none;fill:black;font-family:-apple-system,&quot;SF Pro Display&quot;,&quot;SF Pro Text&quot;,Helvetica,sans-serif;text-anchor:middle;" transform="matrix(1 0 0 1 1746.56 322)">Medium</text>
  <text style="stroke:none;fill:black;font-family:-apple-system,&quot;SF Pro Display&quot;,&quot;SF Pro Text&quot;,Helvetica,sans-serif;text-anchor:middle;" transform="matrix(1 0 0 1 2043.27 322)">Semibold</text>
  <text style="stroke:none;fill:black;font-family:-apple-system,&quot;SF Pro Display&quot;,&quot;SF Pro Text&quot;,Helvetica,sans-serif;text-anchor:middle;" transform="matrix(1 0 0 1 2339.98 322)">Bold</text>
  <text style="stroke:none;fill:black;font-family:-apple-system,&quot;SF Pro Display&quot;,&quot;SF Pro Text&quot;,Helvetica,sans-serif;text-anchor:middle;" transform="matrix(1 0 0 1 2636.69 322)">Heavy</text>
  <text style="stroke:none;fill:black;font-family:-apple-system,&quot;SF Pro Display&quot;,&quot;SF Pro Text&quot;,Helvetica,sans-serif;text-anchor:middle;" transform="matrix(1 0 0 1 2933.4 322)">Black</text>
  <line id="" style="fill:none;stroke:black;opacity:1;stroke-width:0.5;" x1="263" x2="3036" y1="1903" y2="1903"/>
  <g id="" transform="matrix(1 0 0 1 263 1933)">
   <path d="M9.24805 0.830078C13.5547 0.830078 17.1387-2.74414 17.1387-7.05078C17.1387-11.3574 13.5449-14.9316 9.23828-14.9316C4.94141-14.9316 1.36719-11.3574 1.36719-7.05078C1.36719-2.74414 4.95117 0.830078 9.24805 0.830078ZM9.24805-0.654297C5.70312-0.654297 2.87109-3.49609 2.87109-7.05078C2.87109-10.6055 5.69336-13.4473 9.23828-13.4473C12.793-13.4473 15.6348-10.6055 15.6445-7.05078C15.6543-3.49609 12.8027-0.654297 9.24805-0.654297ZM6.39648-6.31836L8.50586-6.31836L8.50586-4.19922C8.50586-3.75977 8.79883-3.45703 9.22852-3.45703C9.67773-3.45703 9.9707-3.75977 9.9707-4.19922L9.9707-6.31836L12.0996-6.31836C12.5391-6.31836 12.8418-6.61133 12.8418-7.04102C12.8418-7.48047 12.5391-7.7832 12.0996-7.7832L9.9707-7.7832L9.9707-9.89258C9.9707-10.3418 9.67773-10.6445 9.22852-10.6445C8.79883-10.6445 8.50586-10.3418 8.50586-9.89258L8.50586-7.7832L6.39648-7.7832C5.94727-7.7832 5.64453-7.48047 5.64453-7.04102C5.64453-6.61133 5.94727-6.31836 6.39648-6.31836Z"/>
  </g>
  <g id="" transform="matrix(1 0 0 1 281.506 1933)">
   <path d="M11.709 2.91016C17.1582 2.91016 21.6699-1.61133 21.6699-7.05078C21.6699-12.5 17.1484-17.0117 11.6992-17.0117C6.25977-17.0117 1.74805-12.5 1.74805-7.05078C1.74805-1.61133 6.26953 2.91016 11.709 2.91016ZM11.709 1.25C7.09961 1.25 3.41797-2.44141 3.41797-7.05078C3.41797-11.6602 7.08984-15.3516 11.6992-15.3516C16.3086-15.3516 20-11.6602 20.0098-7.05078C20.0195-2.44141 16.3184 1.25 11.709 1.25ZM7.98828-6.23047L10.8789-6.23047L10.8789-3.32031C10.8789-2.83203 11.2109-2.5 11.6895-2.5C12.1777-2.5 12.5195-2.83203 12.5195-3.32031L12.5195-6.23047L15.4297-6.23047C15.918-6.23047 16.25-6.5625 16.25-7.04102C16.25-7.5293 15.918-7.87109 15.4297-7.87109L12.5195-7.87109L12.5195-10.7617C12.5195-11.2695 12.1777-11.6016 11.6895-11.6016C11.2109-11.6016 10.8789-11.2598 10.8789-10.7617L10.8789-7.87109L7.98828-7.87109C7.48047-7.87109 7.14844-7.5293 7.14844-7.04102C7.14844-6.5625 7.49023-6.23047 7.98828-6.23047Z"/>
  </g>
  <g id="" transform="matrix(1 0 0 1 304.924 1933)">
   <path d="M14.9707 5.66406C21.9336 5.66406 27.6953-0.0976562 27.6953-7.05078C27.6953-14.0137 21.9238-19.7754 14.9609-19.7754C8.00781-19.7754 2.25586-14.0137 2.25586-7.05078C2.25586-0.0976562 8.01758 5.66406 14.9707 5.66406ZM14.9707 3.84766C8.93555 3.84766 4.08203-1.01562 4.08203-7.05078C4.08203-13.0957 8.92578-17.9492 14.9609-17.9492C21.0059-17.9492 25.8594-13.0957 25.8691-7.05078C25.8789-1.01562 21.0156 3.84766 14.9707 3.84766ZM10.0586-6.14258L14.0625-6.14258L14.0625-2.12891C14.0625-1.5918 14.4336-1.2207 14.9512-1.2207C15.4883-1.2207 15.8594-1.5918 15.8594-2.12891L15.8594-6.14258L19.8828-6.14258C20.4102-6.14258 20.791-6.51367 20.791-7.03125C20.791-7.56836 20.4199-7.94922 19.8828-7.94922L15.8594-7.94922L15.8594-11.9531C15.8594-12.5098 15.4883-12.8809 14.9512-12.8809C14.4336-12.8809 14.0625-12.5 14.0625-11.9531L14.0625-7.94922L10.0586-7.94922C9.50195-7.94922 9.13086-7.56836 9.13086-7.03125C9.13086-6.51367 9.51172-6.14258 10.0586-6.14258Z"/>
  </g>
  <text style="stroke:none;fill:black;font-family:-apple-system,&quot;SF Pro Display&quot;,&quot;SF Pro Text&quot;,Helvetica,sans-serif;font-weight:bold;" transform="matrix(1 0 0 1 263 1953)">Design Variations</text>
  <text style="stroke:none;fill:black;font-family:-apple-system,&quot;SF Pro Display&quot;,&quot;SF Pro Text&quot;,Helvetica,sans-serif;" transform="matrix(1 0 0 1 263 1971)">Symbols are supported in up to nine weights and three scales.</text>
  <text style="stroke:none;fill:black;font-family:-apple-system,&quot;SF Pro Display&quot;,&quot;SF Pro Text&quot;,Helvetica,sans-serif;" transform="matrix(1 0 0 1 263 1989)">For optimal layout with text and other symbols, vertically align</text>
  <text style="stroke:none;fill:black;font-family:-apple-system,&quot;SF Pro Display&quot;,&quot;SF Pro Text&quot;,Helvetica,sans-serif;" transform="matrix(1 0 0 1 263 2007)">symbols with the adjacent text.</text>
  <line id="" style="fill:none;stroke:#00AEEF;stroke-width:0.5;opacity:1.0;" x1="776" x2="776" y1="1919" y2="1933"/>
  <g id="" transform="matrix(1 0 0 1 776 1933)">
   <path d="M3.31055 0.126953C3.82812 0.126953 4.08203-0.0683594 4.26758-0.605469L5.52734-4.0625L11.2891-4.0625L12.5488-0.605469C12.7344-0.0683594 12.9883 0.126953 13.4961 0.126953C14.0137 0.126953 14.3457-0.185547 14.3457-0.673828C14.3457-0.839844 14.3164-0.986328 14.2383-1.20117L9.6582-13.3887C9.43359-13.9941 9.0332-14.2871 8.4082-14.2871C7.80273-14.2871 7.39258-13.9941 7.17773-13.3984L2.59766-1.19141C2.51953-0.976562 2.49023-0.830078 2.49023-0.664062C2.49023-0.175781 2.80273 0.126953 3.31055 0.126953ZM6.00586-5.53711L8.37891-12.1094L8.42773-12.1094L10.8008-5.53711Z"/>
  </g>
  <line id="" style="fill:none;stroke:#00AEEF;stroke-width:0.5;opacity:1.0;" x1="792.836" x2="792.836" y1="1919" y2="1933"/>
  <text style="stroke:none;fill:black;font-family:-apple-system,&quot;SF Pro Display&quot;,&quot;SF Pro Text&quot;,Helvetica,sans-serif;font-weight:bold;" transform="matrix(1 0 0 1 776 1953)">Margins</text>
  <text style="stroke:none;fill:black;font-family:-apple-system,&quot;SF Pro Display&quot;,&quot;SF Pro Text&quot;,Helvetica,sans-serif;" transform="matrix(1 0 0 1 776 1971)">Leading and trailing margins on the left and right side of each symbol</text>
  <text style="stroke:none;fill:black;font-family:-apple-system,&quot;SF Pro Display&quot;,&quot;SF Pro Text&quot;,Helvetica,sans-serif;" transform="matrix(1 0 0 1 776 1989)">can be adjusted by modifying the x-location of the margin guidelines.</text>
  <text style="stroke:none;fill:black;font-family:-apple-system,&quot;SF Pro Display&quot;,&quot;SF Pro Text&quot;,Helvetica,sans-serif;" transform="matrix(1 0 0 1 776 2007)">Modifications are automatically applied proportionally to all</text>
  <text style="stroke:none;fill:black;font-family:-apple-system,&quot;SF Pro Display&quot;,&quot;SF Pro Text&quot;,Helvetica,sans-serif;" transform="matrix(1 0 0 1 776 2025)">scales and weights.</text>
  <g id="" transform="matrix(1 0 0 1 1289 1933)">
   <path d="M2.8418 1.86523L4.54102 3.57422C5.40039 4.44336 6.38672 4.38477 7.31445 3.35938L17.4902-7.85156C17.7539-7.76367 18.0273-7.7832 18.3398-7.8418L19.4043-8.03711L20.0684-7.36328L20.0293-6.80664C19.9902-6.30859 20.1172-5.92773 20.6055-5.44922L21.3672-4.70703C21.8457-4.22852 22.4609-4.19922 22.9297-4.66797L25.8398-7.58789C26.3086-8.05664 26.2891-8.65234 25.8105-9.13086L25.0391-9.89258C24.5605-10.3711 24.1895-10.5273 23.7109-10.4883L23.1348-10.4395L22.4902-11.0742L22.7344-12.1973C22.8613-12.7637 22.7051-13.2031 22.1191-13.7891L19.9219-15.9766C16.582-19.2969 12.1484-19.2188 9.25781-16.3281C8.83789-15.918 8.80859-15.3418 9.04297-14.9512C9.27734-14.5898 9.73633-14.3555 10.3809-14.5215C11.8457-14.8633 13.3691-14.9219 14.7949-13.9844L14.209-12.5293C14.0137-12.0508 13.9844-11.6504 14.1113-11.2891L3.04688-0.898438C2.06055 0.0195312 1.98242 0.996094 2.8418 1.86523ZM10.752-15.957C13.1836-17.7344 16.4746-17.4316 18.7012-15.2051L21.1328-12.793C21.3672-12.5586 21.4062-12.373 21.3379-12.0312L21.0156-10.5469L22.5195-9.0625L23.5059-9.12109C23.7598-9.13086 23.8379-9.11133 24.0332-8.91602L24.6094-8.33984L22.168-5.89844L21.5918-6.47461C21.3965-6.66992 21.3672-6.74805 21.377-7.01172L21.4453-7.98828L19.9512-9.47266L18.4277-9.21875C18.1055-9.15039 17.959-9.17969 17.7148-9.41406L15.7129-11.416C15.459-11.6504 15.4297-11.8164 15.5859-12.1875L16.4648-14.2773C14.9023-15.7324 12.8711-16.3574 10.8398-15.7617C10.6836-15.7227 10.625-15.8496 10.752-15.957ZM5.27344 2.30469L4.10156 1.14258C3.63281 0.683594 3.74023 0.341797 4.14062-0.0195312L14.9512-10.1953L16.416-8.71094L6.42578 2.27539C6.07422 2.67578 5.74219 2.77344 5.27344 2.30469Z"/>
  </g>
  <text style="stroke:none;fill:black;font-family:-apple-system,&quot;SF Pro Display&quot;,&quot;SF Pro Text&quot;,Helvetica,sans-serif;font-weight:bold;" transform="matrix(1 0 0 1 1289 1953)">Exporting</text>
  <text style="stroke:none;fill:black;font-family:-apple-system,&quot;SF Pro Display&quot;,&quot;SF Pro Text&quot;,Helvetica,sans-serif;" transform="matrix(1 0 0 1 1289 1971)">Symbols should be outlined when exporting to ensure the</text>
  <text style="stroke:none;fill:black;font-family:-apple-system,&quot;SF Pro Display&quot;,&quot;SF Pro Text&quot;,Helvetica,sans-serif;" transform="matrix(1 0 0 1 1289 1989)">design is preserved when submitting to Xcode.</text>
  <text id="template-version" style="stroke:none;fill:black;font-family:-apple-system,&quot;SF Pro Display&quot;,&quot;SF Pro Text&quot;,Helvetica,sans-serif;text-anchor:end;" transform="matrix(1 0 0 1 3036 1933)">Template v.2.0</text>
  <text style="stroke:none;fill:black;font-family:-apple-system,&quot;SF Pro Display&quot;,&quot;SF Pro Text&quot;,Helvetica,sans-serif;text-anchor:end;" transform="matrix(1 0 0 1 3036 1951)">Requires Xcode 12 or greater</text>
  <text style="stroke:none;fill:black;font-family:-apple-system,&quot;SF Pro Display&quot;,&quot;SF Pro Text&quot;,Helvetica,sans-serif;" transform="matrix(1 0 0 1 263 726)">Small</text>
  <text style="stroke:none;fill:black;font-family:-apple-system,&quot;SF Pro Display&quot;,&quot;SF Pro Text&quot;,Helvetica,sans-serif;" transform="matrix(1 0 0 1 263 1156)">Medium</text>
  <text style="stroke:none;fill:black;font-family:-apple-system,&quot;SF Pro Display&quot;,&quot;SF Pro Text&quot;,Helvetica,sans-serif;" transform="matrix(1 0 0 1 263 1586)">Large</text>
 </g>
 <g id="Guides">
  <g id="H-reference" style="fill:#27AAE1;stroke:none;" transform="matrix(1 0 0 1 339 696)">
   <path d="M0.976562 0L3.66211 0L12.9883-24.4629L45.752-24.4629L55.127 0L57.7637 0L30.6152-70.459L28.125-70.459ZM29.3457-67.1387L29.4434-67.1387L44.873-26.709L13.8672-26.709Z"/>
  </g>
  <line id="Baseline-S" style="fill:none;stroke:#27AAE1;opacity:1;stroke-width:0.5;" x1="263" x2="3036" y1="696" y2="696"/>
  <line id="Capline-S" style="fill:none;stroke:#27AAE1;opacity:1;stroke-width:0.5;" x1="263" x2="3036" y1="625.541" y2="625.541"/>
  <g id="H-reference" style="fill:#27AAE1;stroke:none;" transform="matrix(1 0 0 1 339 1126)">
   <path d="M0.976562 0L3.66211 0L12.9883-24.4629L45.752-24.4629L55.127 0L57.7637 0L30.6152-70.459L28.125-70.459ZM29.3457-67.1387L29.4434-67.1387L44.873-26.709L13.8672-26.709Z"/>
  </g>
  <line id="Baseline-M" style="fill:none;stroke:#27AAE1;opacity:1;stroke-width:0.5;" x1="263" x2="3036" y1="1126" y2="1126"/>
  <line id="Capline-M" style="fill:none;stroke:#27AAE1;opacity:1;stroke-width:0.5;" x1="263" x2="3036" y1="1055.54" y2="1055.54"/>
  <g id="H-reference" style="fill:#27AAE1;stroke:none;" transform="matrix(1 0 0 1 339 1556)">
   <path d="M0.976562 0L3.66211 0L12.9883-24.4629L45.752-24.4629L55.127 0L57.7637 0L30.6152-70.459L28.125-70.459ZM29.3457-67.1387L29.4434-67.1387L44.873-26.709L13.8672-26.709Z"/>
  </g>
  <line id="Baseline-L" style="fill:none;stroke:#27AAE1;opacity:1;stroke-width:0.5;" x1="263" x2="3036" y1="1556" y2="1556"/>
  <line id="Capline-L" style="fill:none;stroke:#27AAE1;opacity:1;stroke-width:0.5;" x1="263" x2="3036" y1="1485.54" y2="1485.54"/>
  <line id="left-margin" x1="1413.3112350239617" x2="1413.3112350239617" y1="1030.79" y2="1150.12" style="fill:none;stroke:#00AEEF;stroke-width:0.5;opacity:1.0;"/>
  <line id="right-margin" x1="1488.2734298871803" x2="1488.2734298871803" y1="1030.79" y2="1150.12" style="fill:none;stroke:#00AEEF;stroke-width:0.5;opacity:1.0;"/>
 </g>
 <g id="Symbols">
  <g id="Black-L" transform="matrix(1.0,0.0,0.0,1.0,2862.0814779477832,1448.1714974790336)">  <path stroke-dasharray="none" stroke-linecap="butt" fill-opacity="1" stroke-width="1px" fill-rule="evenodd" clip-rule="evenodd" fill="#000000" stroke-miterlimit="4" stroke-opacity="1" stroke="none" stroke-linejoin="miter" d="M108.898,119.273C108.898,120.187,108.089,120.93,107.091,120.93L38.106,120.93C37.108,120.93,36.299,120.187,36.299,119.273L36.299,80.237C36.299,79.322,37.108,78.581,38.106,78.581L107.091,78.581C108.089,78.581,108.898,79.322,108.898,80.237L108.898,119.273ZM108.898,66.549L108.898,44.863C108.898,26.768,92.096,12.1,72.548,12.1C53.001,12.1,36.299,26.769,36.299,44.863L36.299,48.571C36.299,50.912,38.175,54.263,42.349,54.263C46.523,54.263,48.399,50.912,48.399,48.571L48.399,44.863C48.399,31.451,58.059,24.2,72.548,24.2C87.037,24.2,96.798,31.45,96.798,44.863L96.798,66.549L33.509,66.549C27.347,66.549,24.2,69.753,24.2,75.249L24.2,126.661C24.2,131.326,27.633,133.097,30.779,133.097L114.766,133.097C120.073,133.097,120.998,128.268,120.998,126.661L120.998,75.249C120.998,69.765,118.036,66.549,111.883,66.549L108.898,66.549ZM108.898,66.549"/>
</g>
  <g id="Heavy-L" transform="matrix(1.0,0.0,0.0,1.0,2565.371477947783,1448.1714974790336)">  <path stroke-miterlimit="4" fill="#000000" stroke-opacity="1" stroke-linejoin="miter" clip-rule="evenodd" stroke="none" fill-opacity="1" stroke-dasharray="none" fill-rule="evenodd" stroke-linecap="butt" stroke-width="1px" d="M108.898,119.273C108.898,120.187,108.089,120.93,107.091,120.93L38.106,120.93C37.108,120.93,36.299,120.187,36.299,119.273L36.299,80.237C36.299,79.322,37.108,78.581,38.106,78.581L107.091,78.581C108.089,78.581,108.898,79.322,108.898,80.237L108.898,119.273ZM108.898,66.549L108.898,44.863C108.898,26.768,92.096,12.1,72.548,12.1C53.001,12.1,36.299,26.769,36.299,44.863L36.299,48.571C36.299,50.912,38.175,54.263,42.349,54.263C46.523,54.263,48.399,50.912,48.399,48.571L48.399,44.863C48.399,31.451,58.059,24.2,72.548,24.2C87.037,24.2,96.798,31.45,96.798,44.863L96.798,66.549L33.509,66.549C27.347,66.549,24.2,69.753,24.2,75.249L24.2,126.661C24.2,131.326,27.633,133.097,30.779,133.097L114.766,133.097C120.073,133.097,120.998,128.268,120.998,126.661L120.998,75.249C120.998,69.765,118.036,66.549,111.883,66.549L108.898,66.549ZM108.898,66.549"/>
</g>
  <g id="Bold-L" transform="matrix(1.0,0.0,0.0,1.0,2268.661477947783,1448.1714974790336)">  <path stroke-width="1px" clip-rule="evenodd" stroke-dasharray="none" stroke="none" fill="#000000" stroke-linejoin="miter" stroke-miterlimit="4" stroke-linecap="butt" fill-rule="evenodd" stroke-opacity="1" fill-opacity="1" d="M108.898,119.273C108.898,120.187,108.089,120.93,107.091,120.93L38.106,120.93C37.108,120.93,36.299,120.187,36.299,119.273L36.299,80.237C36.299,79.322,37.108,78.581,38.106,78.581L107.091,78.581C108.089,78.581,108.898,79.322,108.898,80.237L108.898,119.273ZM108.898,66.549L108.898,44.863C108.898,26.768,92.096,12.1,72.548,12.1C53.001,12.1,36.299,26.769,36.299,44.863L36.299,48.571C36.299,50.912,38.175,54.263,42.349,54.263C46.523,54.263,48.399,50.912,48.399,48.571L48.399,44.863C48.399,31.451,58.059,24.2,72.548,24.2C87.037,24.2,96.798,31.45,96.798,44.863L96.798,66.549L33.509,66.549C27.347,66.549,24.2,69.753,24.2,75.249L24.2,126.661C24.2,131.326,27.633,133.097,30.779,133.097L114.766,133.097C120.073,133.097,120.998,128.268,120.998,126.661L120.998,75.249C120.998,69.765,118.036,66.549,111.883,66.549L108.898,66.549ZM108.898,66.549"/>
</g>
  <g id="Semibold-L" transform="matrix(1.0,0.0,0.0,1.0,1971.9514779477836,1448.1714974790336)">  <path fill="#000000" stroke-opacity="1" stroke-miterlimit="4" stroke-dasharray="none" stroke="none" stroke-width="1px" fill-opacity="1" stroke-linecap="butt" stroke-linejoin="miter" clip-rule="evenodd" fill-rule="evenodd" d="M108.898,119.273C108.898,120.187,108.089,120.93,107.091,120.93L38.106,120.93C37.108,120.93,36.299,120.187,36.299,119.273L36.299,80.237C36.299,79.322,37.108,78.581,38.106,78.581L107.091,78.581C108.089,78.581,108.898,79.322,108.898,80.237L108.898,119.273ZM108.898,66.549L108.898,44.863C108.898,26.768,92.096,12.1,72.548,12.1C53.001,12.1,36.299,26.769,36.299,44.863L36.299,48.571C36.299,50.912,38.175,54.263,42.349,54.263C46.523,54.263,48.399,50.912,48.399,48.571L48.399,44.863C48.399,31.451,58.059,24.2,72.548,24.2C87.037,24.2,96.798,31.45,96.798,44.863L96.798,66.549L33.509,66.549C27.347,66.549,24.2,69.753,24.2,75.249L24.2,126.661C24.2,131.326,27.633,133.097,30.779,133.097L114.766,133.097C120.073,133.097,120.998,128.268,120.998,126.661L120.998,75.249C120.998,69.765,118.036,66.549,111.883,66.549L108.898,66.549ZM108.898,66.549"/>
</g>
  <g id="Medium-L" transform="matrix(1.0,0.0,0.0,1.0,1675.2414779477836,1448.1714974790336)">  <path fill-opacity="1" stroke-linejoin="miter" stroke="none" stroke-width="1px" stroke-miterlimit="4" fill="#000000" stroke-linecap="butt" fill-rule="evenodd" clip-rule="evenodd" stroke-opacity="1" stroke-dasharray="none" d="M108.898,119.273C108.898,120.187,108.089,120.93,107.091,120.93L38.106,120.93C37.108,120.93,36.299,120.187,36.299,119.273L36.299,80.237C36.299,79.322,37.108,78.581,38.106,78.581L107.091,78.581C108.089,78.581,108.898,79.322,108.898,80.237L108.898,119.273ZM108.898,66.549L108.898,44.863C108.898,26.768,92.096,12.1,72.548,12.1C53.001,12.1,36.299,26.769,36.299,44.863L36.299,48.571C36.299,50.912,38.175,54.263,42.349,54.263C46.523,54.263,48.399,50.912,48.399,48.571L48.399,44.863C48.399,31.451,58.059,24.2,72.548,24.2C87.037,24.2,96.798,31.45,96.798,44.863L96.798,66.549L33.509,66.549C27.347,66.549,24.2,69.753,24.2,75.249L24.2,126.661C24.2,131.326,27.633,133.097,30.779,133.097L114.766,133.097C120.073,133.097,120.998,128.268,120.998,126.661L120.998,75.249C120.998,69.765,118.036,66.549,111.883,66.549L108.898,66.549ZM108.898,66.549"/>
</g>
  <g id="Regular-L" transform="matrix(1.0,0.0,0.0,1.0,1378.5314779477835,1448.1714974790336)">  <path stroke-opacity="1" stroke-dasharray="none" stroke="none" stroke-linejoin="miter" stroke-miterlimit="4" clip-rule="evenodd" stroke-width="1px" fill-opacity="1" fill-rule="evenodd" fill="#000000" stroke-linecap="butt" d="M108.898,119.273C108.898,120.187,108.089,120.93,107.091,120.93L38.106,120.93C37.108,120.93,36.299,120.187,36.299,119.273L36.299,80.237C36.299,79.322,37.108,78.581,38.106,78.581L107.091,78.581C108.089,78.581,108.898,79.322,108.898,80.237L108.898,119.273ZM108.898,66.549L108.898,44.863C108.898,26.768,92.096,12.1,72.548,12.1C53.001,12.1,36.299,26.769,36.299,44.863L36.299,48.571C36.299,50.912,38.175,54.263,42.349,54.263C46.523,54.263,48.399,50.912,48.399,48.571L48.399,44.863C48.399,31.451,58.059,24.2,72.548,24.2C87.037,24.2,96.798,31.45,96.798,44.863L96.798,66.549L33.509,66.549C27.347,66.549,24.2,69.753,24.2,75.249L24.2,126.661C24.2,131.326,27.633,133.097,30.779,133.097L114.766,133.097C120.073,133.097,120.998,128.268,120.998,126.661L120.998,75.249C120.998,69.765,118.036,66.549,111.883,66.549L108.898,66.549ZM108.898,66.549"/>
</g>
  <g id="Light-L" transform="matrix(1.0,0.0,0.0,1.0,1081.8214779477837,1448.1714974790336)">  <path stroke-opacity="1" stroke="none" stroke-dasharray="none" stroke-miterlimit="4" stroke-linejoin="miter" stroke-linecap="butt" clip-rule="evenodd" fill="#000000" stroke-width="1px" fill-opacity="1" fill-rule="evenodd" d="M108.898,119.273C108.898,120.187,108.089,120.93,107.091,120.93L38.106,120.93C37.108,120.93,36.299,120.187,36.299,119.273L36.299,80.237C36.299,79.322,37.108,78.581,38.106,78.581L107.091,78.581C108.089,78.581,108.898,79.322,108.898,80.237L108.898,119.273ZM108.898,66.549L108.898,44.863C108.898,26.768,92.096,12.1,72.548,12.1C53.001,12.1,36.299,26.769,36.299,44.863L36.299,48.571C36.299,50.912,38.175,54.263,42.349,54.263C46.523,54.263,48.399,50.912,48.399,48.571L48.399,44.863C48.399,31.451,58.059,24.2,72.548,24.2C87.037,24.2,96.798,31.45,96.798,44.863L96.798,66.549L33.509,66.549C27.347,66.549,24.2,69.753,24.2,75.249L24.2,126.661C24.2,131.326,27.633,133.097,30.779,133.097L114.766,133.097C120.073,133.097,120.998,128.268,120.998,126.661L120.998,75.249C120.998,69.765,118.036,66.549,111.883,66.549L108.898,66.549ZM108.898,66.549"/>
</g>
  <g id="Thin-L" transform="matrix(1.0,0.0,0.0,1.0,785.1114779477836,1448.1714974790336)">  <path stroke-miterlimit="4" fill="#000000" clip-rule="evenodd" stroke-linecap="butt" stroke-linejoin="miter" stroke-dasharray="none" stroke-opacity="1" fill-rule="evenodd" stroke-width="1px" fill-opacity="1" stroke="none" d="M108.898,119.273C108.898,120.187,108.089,120.93,107.091,120.93L38.106,120.93C37.108,120.93,36.299,120.187,36.299,119.273L36.299,80.237C36.299,79.322,37.108,78.581,38.106,78.581L107.091,78.581C108.089,78.581,108.898,79.322,108.898,80.237L108.898,119.273ZM108.898,66.549L108.898,44.863C108.898,26.768,92.096,12.1,72.548,12.1C53.001,12.1,36.299,26.769,36.299,44.863L36.299,48.571C36.299,50.912,38.175,54.263,42.349,54.263C46.523,54.263,48.399,50.912,48.399,48.571L48.399,44.863C48.399,31.451,58.059,24.2,72.548,24.2C87.037,24.2,96.798,31.45,96.798,44.863L96.798,66.549L33.509,66.549C27.347,66.549,24.2,69.753,24.2,75.249L24.2,126.661C24.2,131.326,27.633,133.097,30.779,133.097L114.766,133.097C120.073,133.097,120.998,128.268,120.998,126.661L120.998,75.249C120.998,69.765,118.036,66.549,111.883,66.549L108.898,66.549ZM108.898,66.549"/>
</g>
  <g id="Ultralight-L" transform="matrix(1.0,0.0,0.0,1.0,488.4014779477835,1448.1714974790336)">  <path stroke-linejoin="miter" clip-rule="evenodd" stroke-miterlimit="4" stroke-width="1px" stroke-linecap="butt" stroke-opacity="1" stroke="none" fill-opacity="1" stroke-dasharray="none" fill-rule="evenodd" fill="#000000" d="M108.898,119.273C108.898,120.187,108.089,120.93,107.091,120.93L38.106,120.93C37.108,120.93,36.299,120.187,36.299,119.273L36.299,80.237C36.299,79.322,37.108,78.581,38.106,78.581L107.091,78.581C108.089,78.581,108.898,79.322,108.898,80.237L108.898,119.273ZM108.898,66.549L108.898,44.863C108.898,26.768,92.096,12.1,72.548,12.1C53.001,12.1,36.299,26.769,36.299,44.863L36.299,48.571C36.299,50.912,38.175,54.263,42.349,54.263C46.523,54.263,48.399,50.912,48.399,48.571L48.399,44.863C48.399,31.451,58.059,24.2,72.548,24.2C87.037,24.2,96.798,31.45,96.798,44.863L96.798,66.549L33.509,66.549C27.347,66.549,24.2,69.753,24.2,75.249L24.2,126.661C24.2,131.326,27.633,133.097,30.779,133.097L114.766,133.097C120.073,133.097,120.998,128.268,120.998,126.661L120.998,75.249C120.998,69.765,118.036,66.549,111.883,66.549L108.898,66.549ZM108.898,66.549"/>
</g>
  <g id="Black-M" transform="matrix(1.0,0.0,0.0,1.0,2878.402075928514,1034.4920954597644)">  <path stroke-dasharray="none" stroke-linecap="butt" fill-opacity="1" stroke-width="1px" fill-rule="evenodd" clip-rule="evenodd" fill="#000000" stroke-miterlimit="4" stroke-opacity="1" stroke="none" stroke-linejoin="miter" d="M84.417,92.459C84.417,93.169,83.79,93.744,83.016,93.744L29.54,93.744C28.766,93.744,28.139,93.169,28.139,92.459L28.139,62.199C28.139,61.49,28.766,60.915,29.54,60.915L83.016,60.915C83.79,60.915,84.417,61.49,84.417,62.199L84.417,92.459ZM84.417,51.588L84.417,34.777C84.417,20.75,71.392,9.38,56.239,9.38C41.086,9.38,28.139,20.751,28.139,34.778L28.139,37.652C28.139,39.467,29.593,42.064,32.829,42.064C36.064,42.064,37.519,39.467,37.519,37.652L37.519,34.778C37.519,24.381,45.007,18.759,56.239,18.759C67.471,18.759,75.037,24.38,75.037,34.777L75.037,51.588L25.976,51.588C21.199,51.588,18.759,54.072,18.759,58.333L18.759,98.187C18.759,101.803,21.421,103.176,23.86,103.176L88.966,103.176C93.079,103.176,93.797,99.433,93.797,98.187L93.797,58.333C93.797,54.081,91.5,51.588,86.731,51.588L84.417,51.588ZM84.417,51.588"/>
</g>
  <g id="Heavy-M" transform="matrix(1.0,0.0,0.0,1.0,2581.692075928514,1034.4920954597644)">  <path stroke-miterlimit="4" fill="#000000" stroke-opacity="1" stroke-linejoin="miter" clip-rule="evenodd" stroke="none" fill-opacity="1" stroke-dasharray="none" fill-rule="evenodd" stroke-linecap="butt" stroke-width="1px" d="M84.417,92.459C84.417,93.169,83.79,93.744,83.016,93.744L29.54,93.744C28.766,93.744,28.139,93.169,28.139,92.459L28.139,62.199C28.139,61.49,28.766,60.915,29.54,60.915L83.016,60.915C83.79,60.915,84.417,61.49,84.417,62.199L84.417,92.459ZM84.417,51.588L84.417,34.777C84.417,20.75,71.392,9.38,56.239,9.38C41.086,9.38,28.139,20.751,28.139,34.778L28.139,37.652C28.139,39.467,29.593,42.064,32.829,42.064C36.064,42.064,37.519,39.467,37.519,37.652L37.519,34.778C37.519,24.381,45.007,18.759,56.239,18.759C67.471,18.759,75.037,24.38,75.037,34.777L75.037,51.588L25.976,51.588C21.199,51.588,18.759,54.072,18.759,58.333L18.759,98.187C18.759,101.803,21.421,103.176,23.86,103.176L88.966,103.176C93.079,103.176,93.797,99.433,93.797,98.187L93.797,58.333C93.797,54.081,91.5,51.588,86.731,51.588L84.417,51.588ZM84.417,51.588"/>
</g>
  <g id="Bold-M" transform="matrix(1.0,0.0,0.0,1.0,2284.982075928514,1034.4920954597644)">  <path stroke-width="1px" clip-rule="evenodd" stroke-dasharray="none" stroke="none" fill="#000000" stroke-linejoin="miter" stroke-miterlimit="4" stroke-linecap="butt" fill-rule="evenodd" stroke-opacity="1" fill-opacity="1" d="M84.417,92.459C84.417,93.169,83.79,93.744,83.016,93.744L29.54,93.744C28.766,93.744,28.139,93.169,28.139,92.459L28.139,62.199C28.139,61.49,28.766,60.915,29.54,60.915L83.016,60.915C83.79,60.915,84.417,61.49,84.417,62.199L84.417,92.459ZM84.417,51.588L84.417,34.777C84.417,20.75,71.392,9.38,56.239,9.38C41.086,9.38,28.139,20.751,28.139,34.778L28.139,37.652C28.139,39.467,29.593,42.064,32.829,42.064C36.064,42.064,37.519,39.467,37.519,37.652L37.519,34.778C37.519,24.381,45.007,18.759,56.239,18.759C67.471,18.759,75.037,24.38,75.037,34.777L75.037,51.588L25.976,51.588C21.199,51.588,18.759,54.072,18.759,58.333L18.759,98.187C18.759,101.803,21.421,103.176,23.86,103.176L88.966,103.176C93.079,103.176,93.797,99.433,93.797,98.187L93.797,58.333C93.797,54.081,91.5,51.588,86.731,51.588L84.417,51.588ZM84.417,51.588"/>
</g>
  <g id="Semibold-M" transform="matrix(1.0,0.0,0.0,1.0,1988.2720759285144,1034.4920954597644)">  <path fill="#000000" stroke-opacity="1" stroke-miterlimit="4" stroke-dasharray="none" stroke="none" stroke-width="1px" fill-opacity="1" stroke-linecap="butt" stroke-linejoin="miter" clip-rule="evenodd" fill-rule="evenodd" d="M84.417,92.459C84.417,93.169,83.79,93.744,83.016,93.744L29.54,93.744C28.766,93.744,28.139,93.169,28.139,92.459L28.139,62.199C28.139,61.49,28.766,60.915,29.54,60.915L83.016,60.915C83.79,60.915,84.417,61.49,84.417,62.199L84.417,92.459ZM84.417,51.588L84.417,34.777C84.417,20.75,71.392,9.38,56.239,9.38C41.086,9.38,28.139,20.751,28.139,34.778L28.139,37.652C28.139,39.467,29.593,42.064,32.829,42.064C36.064,42.064,37.519,39.467,37.519,37.652L37.519,34.778C37.519,24.381,45.007,18.759,56.239,18.759C67.471,18.759,75.037,24.38,75.037,34.777L75.037,51.588L25.976,51.588C21.199,51.588,18.759,54.072,18.759,58.333L18.759,98.187C18.759,101.803,21.421,103.176,23.86,103.176L88.966,103.176C93.079,103.176,93.797,99.433,93.797,98.187L93.797,58.333C93.797,54.081,91.5,51.588,86.731,51.588L84.417,51.588ZM84.417,51.588"/>
</g>
  <g id="Medium-M" transform="matrix(1.0,0.0,0.0,1.0,1691.5620759285143,1034.4920954597644)">  <path fill-opacity="1" stroke-linejoin="miter" stroke="none" stroke-width="1px" stroke-miterlimit="4" fill="#000000" stroke-linecap="butt" fill-rule="evenodd" clip-rule="evenodd" stroke-opacity="1" stroke-dasharray="none" d="M84.417,92.459C84.417,93.169,83.79,93.744,83.016,93.744L29.54,93.744C28.766,93.744,28.139,93.169,28.139,92.459L28.139,62.199C28.139,61.49,28.766,60.915,29.54,60.915L83.016,60.915C83.79,60.915,84.417,61.49,84.417,62.199L84.417,92.459ZM84.417,51.588L84.417,34.777C84.417,20.75,71.392,9.38,56.239,9.38C41.086,9.38,28.139,20.751,28.139,34.778L28.139,37.652C28.139,39.467,29.593,42.064,32.829,42.064C36.064,42.064,37.519,39.467,37.519,37.652L37.519,34.778C37.519,24.381,45.007,18.759,56.239,18.759C67.471,18.759,75.037,24.38,75.037,34.777L75.037,51.588L25.976,51.588C21.199,51.588,18.759,54.072,18.759,58.333L18.759,98.187C18.759,101.803,21.421,103.176,23.86,103.176L88.966,103.176C93.079,103.176,93.797,99.433,93.797,98.187L93.797,58.333C93.797,54.081,91.5,51.588,86.731,51.588L84.417,51.588ZM84.417,51.588"/>
</g>
  <g id="Regular-M" transform="matrix(1.0,0.0,0.0,1.0,1394.8520759285143,1034.4920954597644)">  <path stroke-opacity="1" stroke-dasharray="none" stroke="none" stroke-linejoin="miter" stroke-miterlimit="4" clip-rule="evenodd" stroke-width="1px" fill-opacity="1" fill-rule="evenodd" fill="#000000" stroke-linecap="butt" d="M84.417,92.459C84.417,93.169,83.79,93.744,83.016,93.744L29.54,93.744C28.766,93.744,28.139,93.169,28.139,92.459L28.139,62.199C28.139,61.49,28.766,60.915,29.54,60.915L83.016,60.915C83.79,60.915,84.417,61.49,84.417,62.199L84.417,92.459ZM84.417,51.588L84.417,34.777C84.417,20.75,71.392,9.38,56.239,9.38C41.086,9.38,28.139,20.751,28.139,34.778L28.139,37.652C28.139,39.467,29.593,42.064,32.829,42.064C36.064,42.064,37.519,39.467,37.519,37.652L37.519,34.778C37.519,24.381,45.007,18.759,56.239,18.759C67.471,18.759,75.037,24.38,75.037,34.777L75.037,51.588L25.976,51.588C21.199,51.588,18.759,54.072,18.759,58.333L18.759,98.187C18.759,101.803,21.421,103.176,23.86,103.176L88.966,103.176C93.079,103.176,93.797,99.433,93.797,98.187L93.797,58.333C93.797,54.081,91.5,51.588,86.731,51.588L84.417,51.588ZM84.417,51.588"/>
</g>
  <g id="Light-M" transform="matrix(1.0,0.0,0.0,1.0,1098.1420759285145,1034.4920954597644)">  <path stroke-opacity="1" stroke="none" stroke-dasharray="none" stroke-miterlimit="4" stroke-linejoin="miter" stroke-linecap="butt" clip-rule="evenodd" fill="#000000" stroke-width="1px" fill-opacity="1" fill-rule="evenodd" d="M84.417,92.459C84.417,93.169,83.79,93.744,83.016,93.744L29.54,93.744C28.766,93.744,28.139,93.169,28.139,92.459L28.139,62.199C28.139,61.49,28.766,60.915,29.54,60.915L83.016,60.915C83.79,60.915,84.417,61.49,84.417,62.199L84.417,92.459ZM84.417,51.588L84.417,34.777C84.417,20.75,71.392,9.38,56.239,9.38C41.086,9.38,28.139,20.751,28.139,34.778L28.139,37.652C28.139,39.467,29.593,42.064,32.829,42.064C36.064,42.064,37.519,39.467,37.519,37.652L37.519,34.778C37.519,24.381,45.007,18.759,56.239,18.759C67.471,18.759,75.037,24.38,75.037,34.777L75.037,51.588L25.976,51.588C21.199,51.588,18.759,54.072,18.759,58.333L18.759,98.187C18.759,101.803,21.421,103.176,23.86,103.176L88.966,103.176C93.079,103.176,93.797,99.433,93.797,98.187L93.797,58.333C93.797,54.081,91.5,51.588,86.731,51.588L84.417,51.588ZM84.417,51.588"/>
</g>
  <g id="Thin-M" transform="matrix(1.0,0.0,0.0,1.0,801.4320759285145,1034.4920954597644)">  <path stroke-miterlimit="4" fill="#000000" clip-rule="evenodd" stroke-linecap="butt" stroke-linejoin="miter" stroke-dasharray="none" stroke-opacity="1" fill-rule="evenodd" stroke-width="1px" fill-opacity="1" stroke="none" d="M84.417,92.459C84.417,93.169,83.79,93.744,83.016,93.744L29.54,93.744C28.766,93.744,28.139,93.169,28.139,92.459L28.139,62.199C28.139,61.49,28.766,60.915,29.54,60.915L83.016,60.915C83.79,60.915,84.417,61.49,84.417,62.199L84.417,92.459ZM84.417,51.588L84.417,34.777C84.417,20.75,71.392,9.38,56.239,9.38C41.086,9.38,28.139,20.751,28.139,34.778L28.139,37.652C28.139,39.467,29.593,42.064,32.829,42.064C36.064,42.064,37.519,39.467,37.519,37.652L37.519,34.778C37.519,24.381,45.007,18.759,56.239,18.759C67.471,18.759,75.037,24.38,75.037,34.777L75.037,51.588L25.976,51.588C21.199,51.588,18.759,54.072,18.759,58.333L18.759,98.187C18.759,101.803,21.421,103.176,23.86,103.176L88.966,103.176C93.079,103.176,93.797,99.433,93.797,98.187L93.797,58.333C93.797,54.081,91.5,51.588,86.731,51.588L84.417,51.588ZM84.417,51.588"/>
</g>
  <g id="Ultralight-M" transform="matrix(1.0,0.0,0.0,1.0,504.72207592851436,1034.4920954597644)">  <path stroke-linejoin="miter" clip-rule="evenodd" stroke-miterlimit="4" stroke-width="1px" stroke-linecap="butt" stroke-opacity="1" stroke="none" fill-opacity="1" stroke-dasharray="none" fill-rule="evenodd" fill="#000000" d="M84.417,92.459C84.417,93.169,83.79,93.744,83.016,93.744L29.54,93.744C28.766,93.744,28.139,93.169,28.139,92.459L28.139,62.199C28.139,61.49,28.766,60.915,29.54,60.915L83.016,60.915C83.79,60.915,84.417,61.49,84.417,62.199L84.417,92.459ZM84.417,51.588L84.417,34.777C84.417,20.75,71.392,9.38,56.239,9.38C41.086,9.38,28.139,20.751,28.139,34.778L28.139,37.652C28.139,39.467,29.593,42.064,32.829,42.064C36.064,42.064,37.519,39.467,37.519,37.652L37.519,34.778C37.519,24.381,45.007,18.759,56.239,18.759C67.471,18.759,75.037,24.38,75.037,34.777L75.037,51.588L25.976,51.588C21.199,51.588,18.759,54.072,18.759,58.333L18.759,98.187C18.759,101.803,21.421,103.176,23.86,103.176L88.966,103.176C93.079,103.176,93.797,99.433,93.797,98.187L93.797,58.333C93.797,54.081,91.5,51.588,86.731,51.588L84.417,51.588ZM84.417,51.588"/>
</g>
  <g id="Black-S" transform="matrix(1.0,0.0,0.0,1.0,2890.6143854520265,616.7044049832767)">  <path stroke-dasharray="none" stroke-linecap="butt" fill-opacity="1" stroke-width="1px" fill-rule="evenodd" clip-rule="evenodd" fill="#000000" stroke-miterlimit="4" stroke-opacity="1" stroke="none" stroke-linejoin="miter" d="M66.098,72.396C66.098,72.951,65.607,73.402,65.002,73.402L23.13,73.402C22.524,73.402,22.033,72.951,22.033,72.396L22.033,48.702C22.033,48.147,22.524,47.697,23.13,47.697L65.002,47.697C65.607,47.697,66.098,48.147,66.098,48.702L66.098,72.396ZM66.098,40.393L66.098,27.231C66.098,16.247,55.9,7.344,44.035,7.344C32.17,7.344,22.033,16.248,22.033,27.231L22.033,29.482C22.033,30.903,23.171,32.936,25.705,32.936C28.238,32.936,29.377,30.903,29.377,29.482L29.377,27.231C29.377,19.09,35.241,14.689,44.035,14.689C52.83,14.689,58.754,19.089,58.754,27.231L58.754,40.393L20.339,40.393C16.599,40.393,14.689,42.339,14.689,45.674L14.689,76.88C14.689,79.712,16.772,80.787,18.682,80.787L69.66,80.787C72.881,80.787,73.443,77.856,73.443,76.88L73.443,45.674C73.443,42.346,71.645,40.393,67.911,40.393L66.098,40.393ZM66.098,40.393"/>
</g>
  <g id="Heavy-S" transform="matrix(1.0,0.0,0.0,1.0,2593.9043854520264,616.7044049832767)">  <path stroke-miterlimit="4" fill="#000000" stroke-opacity="1" stroke-linejoin="miter" clip-rule="evenodd" stroke="none" fill-opacity="1" stroke-dasharray="none" fill-rule="evenodd" stroke-linecap="butt" stroke-width="1px" d="M66.098,72.396C66.098,72.951,65.607,73.402,65.002,73.402L23.13,73.402C22.524,73.402,22.033,72.951,22.033,72.396L22.033,48.702C22.033,48.147,22.524,47.697,23.13,47.697L65.002,47.697C65.607,47.697,66.098,48.147,66.098,48.702L66.098,72.396ZM66.098,40.393L66.098,27.231C66.098,16.247,55.9,7.344,44.035,7.344C32.17,7.344,22.033,16.248,22.033,27.231L22.033,29.482C22.033,30.903,23.171,32.936,25.705,32.936C28.238,32.936,29.377,30.903,29.377,29.482L29.377,27.231C29.377,19.09,35.241,14.689,44.035,14.689C52.83,14.689,58.754,19.089,58.754,27.231L58.754,40.393L20.339,40.393C16.599,40.393,14.689,42.339,14.689,45.674L14.689,76.88C14.689,79.712,16.772,80.787,18.682,80.787L69.66,80.787C72.881,80.787,73.443,77.856,73.443,76.88L73.443,45.674C73.443,42.346,71.645,40.393,67.911,40.393L66.098,40.393ZM66.098,40.393"/>
</g>
  <g id="Bold-S" transform="matrix(1.0,0.0,0.0,1.0,2297.1943854520264,616.7044049832767)">  <path stroke-width="1px" clip-rule="evenodd" stroke-dasharray="none" stroke="none" fill="#000000" stroke-linejoin="miter" stroke-miterlimit="4" stroke-linecap="butt" fill-rule="evenodd" stroke-opacity="1" fill-opacity="1" d="M66.098,72.396C66.098,72.951,65.607,73.402,65.002,73.402L23.13,73.402C22.524,73.402,22.033,72.951,22.033,72.396L22.033,48.702C22.033,48.147,22.524,47.697,23.13,47.697L65.002,47.697C65.607,47.697,66.098,48.147,66.098,48.702L66.098,72.396ZM66.098,40.393L66.098,27.231C66.098,16.247,55.9,7.344,44.035,7.344C32.17,7.344,22.033,16.248,22.033,27.231L22.033,29.482C22.033,30.903,23.171,32.936,25.705,32.936C28.238,32.936,29.377,30.903,29.377,29.482L29.377,27.231C29.377,19.09,35.241,14.689,44.035,14.689C52.83,14.689,58.754,19.089,58.754,27.231L58.754,40.393L20.339,40.393C16.599,40.393,14.689,42.339,14.689,45.674L14.689,76.88C14.689,79.712,16.772,80.787,18.682,80.787L69.66,80.787C72.881,80.787,73.443,77.856,73.443,76.88L73.443,45.674C73.443,42.346,71.645,40.393,67.911,40.393L66.098,40.393ZM66.098,40.393"/>
</g>
  <g id="Semibold-S" transform="matrix(1.0,0.0,0.0,1.0,2000.4843854520268,616.7044049832767)">  <path fill="#000000" stroke-opacity="1" stroke-miterlimit="4" stroke-dasharray="none" stroke="none" stroke-width="1px" fill-opacity="1" stroke-linecap="butt" stroke-linejoin="miter" clip-rule="evenodd" fill-rule="evenodd" d="M66.098,72.396C66.098,72.951,65.607,73.402,65.002,73.402L23.13,73.402C22.524,73.402,22.033,72.951,22.033,72.396L22.033,48.702C22.033,48.147,22.524,47.697,23.13,47.697L65.002,47.697C65.607,47.697,66.098,48.147,66.098,48.702L66.098,72.396ZM66.098,40.393L66.098,27.231C66.098,16.247,55.9,7.344,44.035,7.344C32.17,7.344,22.033,16.248,22.033,27.231L22.033,29.482C22.033,30.903,23.171,32.936,25.705,32.936C28.238,32.936,29.377,30.903,29.377,29.482L29.377,27.231C29.377,19.09,35.241,14.689,44.035,14.689C52.83,14.689,58.754,19.089,58.754,27.231L58.754,40.393L20.339,40.393C16.599,40.393,14.689,42.339,14.689,45.674L14.689,76.88C14.689,79.712,16.772,80.787,18.682,80.787L69.66,80.787C72.881,80.787,73.443,77.856,73.443,76.88L73.443,45.674C73.443,42.346,71.645,40.393,67.911,40.393L66.098,40.393ZM66.098,40.393"/>
</g>
  <g id="Medium-S" transform="matrix(1.0,0.0,0.0,1.0,1703.7743854520268,616.7044049832767)">  <path fill-opacity="1" stroke-linejoin="miter" stroke="none" stroke-width="1px" stroke-miterlimit="4" fill="#000000" stroke-linecap="butt" fill-rule="evenodd" clip-rule="evenodd" stroke-opacity="1" stroke-dasharray="none" d="M66.098,72.396C66.098,72.951,65.607,73.402,65.002,73.402L23.13,73.402C22.524,73.402,22.033,72.951,22.033,72.396L22.033,48.702C22.033,48.147,22.524,47.697,23.13,47.697L65.002,47.697C65.607,47.697,66.098,48.147,66.098,48.702L66.098,72.396ZM66.098,40.393L66.098,27.231C66.098,16.247,55.9,7.344,44.035,7.344C32.17,7.344,22.033,16.248,22.033,27.231L22.033,29.482C22.033,30.903,23.171,32.936,25.705,32.936C28.238,32.936,29.377,30.903,29.377,29.482L29.377,27.231C29.377,19.09,35.241,14.689,44.035,14.689C52.83,14.689,58.754,19.089,58.754,27.231L58.754,40.393L20.339,40.393C16.599,40.393,14.689,42.339,14.689,45.674L14.689,76.88C14.689,79.712,16.772,80.787,18.682,80.787L69.66,80.787C72.881,80.787,73.443,77.856,73.443,76.88L73.443,45.674C73.443,42.346,71.645,40.393,67.911,40.393L66.098,40.393ZM66.098,40.393"/>
</g>
  <g id="Regular-S" transform="matrix(1.0,0.0,0.0,1.0,1407.0643854520267,616.7044049832767)">  <path stroke-opacity="1" stroke-dasharray="none" stroke="none" stroke-linejoin="miter" stroke-miterlimit="4" clip-rule="evenodd" stroke-width="1px" fill-opacity="1" fill-rule="evenodd" fill="#000000" stroke-linecap="butt" d="M66.098,72.396C66.098,72.951,65.607,73.402,65.002,73.402L23.13,73.402C22.524,73.402,22.033,72.951,22.033,72.396L22.033,48.702C22.033,48.147,22.524,47.697,23.13,47.697L65.002,47.697C65.607,47.697,66.098,48.147,66.098,48.702L66.098,72.396ZM66.098,40.393L66.098,27.231C66.098,16.247,55.9,7.344,44.035,7.344C32.17,7.344,22.033,16.248,22.033,27.231L22.033,29.482C22.033,30.903,23.171,32.936,25.705,32.936C28.238,32.936,29.377,30.903,29.377,29.482L29.377,27.231C29.377,19.09,35.241,14.689,44.035,14.689C52.83,14.689,58.754,19.089,58.754,27.231L58.754,40.393L20.339,40.393C16.599,40.393,14.689,42.339,14.689,45.674L14.689,76.88C14.689,79.712,16.772,80.787,18.682,80.787L69.66,80.787C72.881,80.787,73.443,77.856,73.443,76.88L73.443,45.674C73.443,42.346,71.645,40.393,67.911,40.393L66.098,40.393ZM66.098,40.393"/>
</g>
  <g id="Light-S" transform="matrix(1.0,0.0,0.0,1.0,1110.354385452027,616.7044049832767)">  <path stroke-opacity="1" stroke="none" stroke-dasharray="none" stroke-miterlimit="4" stroke-linejoin="miter" stroke-linecap="butt" clip-rule="evenodd" fill="#000000" stroke-width="1px" fill-opacity="1" fill-rule="evenodd" d="M66.098,72.396C66.098,72.951,65.607,73.402,65.002,73.402L23.13,73.402C22.524,73.402,22.033,72.951,22.033,72.396L22.033,48.702C22.033,48.147,22.524,47.697,23.13,47.697L65.002,47.697C65.607,47.697,66.098,48.147,66.098,48.702L66.098,72.396ZM66.098,40.393L66.098,27.231C66.098,16.247,55.9,7.344,44.035,7.344C32.17,7.344,22.033,16.248,22.033,27.231L22.033,29.482C22.033,30.903,23.171,32.936,25.705,32.936C28.238,32.936,29.377,30.903,29.377,29.482L29.377,27.231C29.377,19.09,35.241,14.689,44.035,14.689C52.83,14.689,58.754,19.089,58.754,27.231L58.754,40.393L20.339,40.393C16.599,40.393,14.689,42.339,14.689,45.674L14.689,76.88C14.689,79.712,16.772,80.787,18.682,80.787L69.66,80.787C72.881,80.787,73.443,77.856,73.443,76.88L73.443,45.674C73.443,42.346,71.645,40.393,67.911,40.393L66.098,40.393ZM66.098,40.393"/>
</g>
  <g id="Thin-S" transform="matrix(1.0,0.0,0.0,1.0,813.6443854520268,616.7044049832767)">  <path stroke-miterlimit="4" fill="#000000" clip-rule="evenodd" stroke-linecap="butt" stroke-linejoin="miter" stroke-dasharray="none" stroke-opacity="1" fill-rule="evenodd" stroke-width="1px" fill-opacity="1" stroke="none" d="M66.098,72.396C66.098,72.951,65.607,73.402,65.002,73.402L23.13,73.402C22.524,73.402,22.033,72.951,22.033,72.396L22.033,48.702C22.033,48.147,22.524,47.697,23.13,47.697L65.002,47.697C65.607,47.697,66.098,48.147,66.098,48.702L66.098,72.396ZM66.098,40.393L66.098,27.231C66.098,16.247,55.9,7.344,44.035,7.344C32.17,7.344,22.033,16.248,22.033,27.231L22.033,29.482C22.033,30.903,23.171,32.936,25.705,32.936C28.238,32.936,29.377,30.903,29.377,29.482L29.377,27.231C29.377,19.09,35.241,14.689,44.035,14.689C52.83,14.689,58.754,19.089,58.754,27.231L58.754,40.393L20.339,40.393C16.599,40.393,14.689,42.339,14.689,45.674L14.689,76.88C14.689,79.712,16.772,80.787,18.682,80.787L69.66,80.787C72.881,80.787,73.443,77.856,73.443,76.88L73.443,45.674C73.443,42.346,71.645,40.393,67.911,40.393L66.098,40.393ZM66.098,40.393"/>
</g>
  <g id="Ultralight-S" transform="matrix(1.0,0.0,0.0,1.0,516.9343854520267,616.7044049832767)">  <path stroke-linejoin="miter" clip-rule="evenodd" stroke-miterlimit="4" stroke-width="1px" stroke-linecap="butt" stroke-opacity="1" stroke="none" fill-opacity="1" stroke-dasharray="none" fill-rule="evenodd" fill="#000000" d="M66.098,72.396C66.098,72.951,65.607,73.402,65.002,73.402L23.13,73.402C22.524,73.402,22.033,72.951,22.033,72.396L22.033,48.702C22.033,48.147,22.524,47.697,23.13,47.697L65.002,47.697C65.607,47.697,66.098,48.147,66.098,48.702L66.098,72.396ZM66.098,40.393L66.098,27.231C66.098,16.247,55.9,7.344,44.035,7.344C32.17,7.344,22.033,16.248,22.033,27.231L22.033,29.482C22.033,30.903,23.171,32.936,25.705,32.936C28.238,32.936,29.377,30.903,29.377,29.482L29.377,27.231C29.377,19.09,35.241,14.689,44.035,14.689C52.83,14.689,58.754,19.089,58.754,27.231L58.754,40.393L20.339,40.393C16.599,40.393,14.689,42.339,14.689,45.674L14.689,76.88C14.689,79.712,16.772,80.787,18.682,80.787L69.66,80.787C72.881,80.787,73.443,77.856,73.443,76.88L73.443,45.674C73.443,42.346,71.645,40.393,67.911,40.393L66.098,40.393ZM66.098,40.393"/>
</g>
 </g>
</svg>
