<?xml version="1.0" encoding="UTF-8"?>
<!-- Generator: CustomSymbols v2.6.1.40 by @serious_bret https://bretlester.com/app_content/CustomSymbols/ -->
<!-- Guides: Left/Right 0.082/0.086 Cap/Base 0.184/0.176 -->
<!-- Settings: RefScale 1.0 Min/Max Stroke Scales 0.5/2.21 -->
<!DOCTYPE svg
PUBLIC "-//W3C//DTD SVG 1.1//EN"
       "http://www.w3.org/Graphics/SVG/1.1/DTD/svg11.dtd">
<svg version="1.1" xmlns="http://www.w3.org/2000/svg" xmlns:xlink="http://www.w3.org/1999/xlink" width="3300" height="2200">
<![CDATA[<svg width="24" height="24" viewBox="0 0 24 24" fill="none" xmlns="http://www.w3.org/2000/svg">
<path fill-rule="evenodd" clip-rule="evenodd" d="M2.70509 21.9998C2.31609 21.9998 2.00009 21.6388 2.00009 21.1948V5.64782C2.00009 5.31682 2.17409 5.02382 2.44309 4.90082L8.66109 2.06582C8.74509 2.02782 8.83309 2.00782 8.92309 2.00782C9.01409 2.00782 9.10209 2.02782 9.18609 2.06582L14.8941 4.68282C14.9581 4.71082 15.0241 4.72582 15.0931 4.72582C15.1601 4.72582 15.2261 4.71182 15.2901 4.68282L21.0321 2.05882C21.1161 2.01982 21.2051 1.99982 21.2951 1.99982C21.6841 1.99982 22.0001 2.36082 22.0001 2.80482V18.2888C22.0001 18.6168 21.8271 18.9098 21.5601 19.0338L15.3881 21.9008C15.3031 21.9398 15.2131 21.9598 15.1211 21.9598C15.0311 21.9598 14.9431 21.9408 14.8601 21.9038L9.09009 19.2858C9.02809 19.2578 8.96209 19.2428 8.89409 19.2428C8.82609 19.2428 8.75809 19.2578 8.69509 19.2878L2.97109 21.9398C2.88609 21.9798 2.79609 21.9998 2.70509 21.9998ZM15.626 6.72692L15.638 19.5399L20.012 17.5929L20 4.72092L15.626 6.72692ZM14.626 6.73672L9.38699 4.37872V17.2037L14.626 19.6207V6.73672ZM8.38669 4.43882L3.99969 6.41882V19.2438L8.38669 17.2638V4.43882Z" fill="black"/>
</svg>
]]>
 <g id="Notes">
  <rect height="2200" id="artboard" style="fill:white;opacity:1" width="3300" x="0" y="0"/>
  <line id="" style="fill:none;stroke:black;opacity:1;stroke-width:0.5;" x1="263" x2="3036" y1="292" y2="292"/>
  <text id="reftext1" style="stroke:none;fill:black;font-family:-apple-system,&quot;SF Pro Display&quot;,&quot;SF Pro Text&quot;,Helvetica,sans-serif;font-weight:bold;" transform="matrix(1 0 0 1 263 322)">Weight/Scale Variations</text>
  <text id="reftext2" style="stroke:none;fill:black;font-family:-apple-system,&quot;SF Pro Display&quot;,&quot;SF Pro Text&quot;,Helvetica,sans-serif;text-anchor:middle;" transform="matrix(1 0 0 1 559.711 322)">Ultralight</text>
  <text style="stroke:none;fill:black;font-family:-apple-system,&quot;SF Pro Display&quot;,&quot;SF Pro Text&quot;,Helvetica,sans-serif;text-anchor:middle;" transform="matrix(1 0 0 1 856.422 322)">Thin</text>
  <text style="stroke:none;fill:black;font-family:-apple-system,&quot;SF Pro Display&quot;,&quot;SF Pro Text&quot;,Helvetica,sans-serif;text-anchor:middle;" transform="matrix(1 0 0 1 1153.13 322)">Light</text>
  <text style="stroke:none;fill:black;font-family:-apple-system,&quot;SF Pro Display&quot;,&quot;SF Pro Text&quot;,Helvetica,sans-serif;text-anchor:middle;" transform="matrix(1 0 0 1 1449.84 322)">Regular</text>
  <text style="stroke:none;fill:black;font-family:-apple-system,&quot;SF Pro Display&quot;,&quot;SF Pro Text&quot;,Helvetica,sans-serif;text-anchor:middle;" transform="matrix(1 0 0 1 1746.56 322)">Medium</text>
  <text style="stroke:none;fill:black;font-family:-apple-system,&quot;SF Pro Display&quot;,&quot;SF Pro Text&quot;,Helvetica,sans-serif;text-anchor:middle;" transform="matrix(1 0 0 1 2043.27 322)">Semibold</text>
  <text style="stroke:none;fill:black;font-family:-apple-system,&quot;SF Pro Display&quot;,&quot;SF Pro Text&quot;,Helvetica,sans-serif;text-anchor:middle;" transform="matrix(1 0 0 1 2339.98 322)">Bold</text>
  <text style="stroke:none;fill:black;font-family:-apple-system,&quot;SF Pro Display&quot;,&quot;SF Pro Text&quot;,Helvetica,sans-serif;text-anchor:middle;" transform="matrix(1 0 0 1 2636.69 322)">Heavy</text>
  <text style="stroke:none;fill:black;font-family:-apple-system,&quot;SF Pro Display&quot;,&quot;SF Pro Text&quot;,Helvetica,sans-serif;text-anchor:middle;" transform="matrix(1 0 0 1 2933.4 322)">Black</text>
  <line id="" style="fill:none;stroke:black;opacity:1;stroke-width:0.5;" x1="263" x2="3036" y1="1903" y2="1903"/>
  <g id="" transform="matrix(1 0 0 1 263 1933)">
   <path d="M9.24805 0.830078C13.5547 0.830078 17.1387-2.74414 17.1387-7.05078C17.1387-11.3574 13.5449-14.9316 9.23828-14.9316C4.94141-14.9316 1.36719-11.3574 1.36719-7.05078C1.36719-2.74414 4.95117 0.830078 9.24805 0.830078ZM9.24805-0.654297C5.70312-0.654297 2.87109-3.49609 2.87109-7.05078C2.87109-10.6055 5.69336-13.4473 9.23828-13.4473C12.793-13.4473 15.6348-10.6055 15.6445-7.05078C15.6543-3.49609 12.8027-0.654297 9.24805-0.654297ZM6.39648-6.31836L8.50586-6.31836L8.50586-4.19922C8.50586-3.75977 8.79883-3.45703 9.22852-3.45703C9.67773-3.45703 9.9707-3.75977 9.9707-4.19922L9.9707-6.31836L12.0996-6.31836C12.5391-6.31836 12.8418-6.61133 12.8418-7.04102C12.8418-7.48047 12.5391-7.7832 12.0996-7.7832L9.9707-7.7832L9.9707-9.89258C9.9707-10.3418 9.67773-10.6445 9.22852-10.6445C8.79883-10.6445 8.50586-10.3418 8.50586-9.89258L8.50586-7.7832L6.39648-7.7832C5.94727-7.7832 5.64453-7.48047 5.64453-7.04102C5.64453-6.61133 5.94727-6.31836 6.39648-6.31836Z"/>
  </g>
  <g id="" transform="matrix(1 0 0 1 281.506 1933)">
   <path d="M11.709 2.91016C17.1582 2.91016 21.6699-1.61133 21.6699-7.05078C21.6699-12.5 17.1484-17.0117 11.6992-17.0117C6.25977-17.0117 1.74805-12.5 1.74805-7.05078C1.74805-1.61133 6.26953 2.91016 11.709 2.91016ZM11.709 1.25C7.09961 1.25 3.41797-2.44141 3.41797-7.05078C3.41797-11.6602 7.08984-15.3516 11.6992-15.3516C16.3086-15.3516 20-11.6602 20.0098-7.05078C20.0195-2.44141 16.3184 1.25 11.709 1.25ZM7.98828-6.23047L10.8789-6.23047L10.8789-3.32031C10.8789-2.83203 11.2109-2.5 11.6895-2.5C12.1777-2.5 12.5195-2.83203 12.5195-3.32031L12.5195-6.23047L15.4297-6.23047C15.918-6.23047 16.25-6.5625 16.25-7.04102C16.25-7.5293 15.918-7.87109 15.4297-7.87109L12.5195-7.87109L12.5195-10.7617C12.5195-11.2695 12.1777-11.6016 11.6895-11.6016C11.2109-11.6016 10.8789-11.2598 10.8789-10.7617L10.8789-7.87109L7.98828-7.87109C7.48047-7.87109 7.14844-7.5293 7.14844-7.04102C7.14844-6.5625 7.49023-6.23047 7.98828-6.23047Z"/>
  </g>
  <g id="" transform="matrix(1 0 0 1 304.924 1933)">
   <path d="M14.9707 5.66406C21.9336 5.66406 27.6953-0.0976562 27.6953-7.05078C27.6953-14.0137 21.9238-19.7754 14.9609-19.7754C8.00781-19.7754 2.25586-14.0137 2.25586-7.05078C2.25586-0.0976562 8.01758 5.66406 14.9707 5.66406ZM14.9707 3.84766C8.93555 3.84766 4.08203-1.01562 4.08203-7.05078C4.08203-13.0957 8.92578-17.9492 14.9609-17.9492C21.0059-17.9492 25.8594-13.0957 25.8691-7.05078C25.8789-1.01562 21.0156 3.84766 14.9707 3.84766ZM10.0586-6.14258L14.0625-6.14258L14.0625-2.12891C14.0625-1.5918 14.4336-1.2207 14.9512-1.2207C15.4883-1.2207 15.8594-1.5918 15.8594-2.12891L15.8594-6.14258L19.8828-6.14258C20.4102-6.14258 20.791-6.51367 20.791-7.03125C20.791-7.56836 20.4199-7.94922 19.8828-7.94922L15.8594-7.94922L15.8594-11.9531C15.8594-12.5098 15.4883-12.8809 14.9512-12.8809C14.4336-12.8809 14.0625-12.5 14.0625-11.9531L14.0625-7.94922L10.0586-7.94922C9.50195-7.94922 9.13086-7.56836 9.13086-7.03125C9.13086-6.51367 9.51172-6.14258 10.0586-6.14258Z"/>
  </g>
  <text style="stroke:none;fill:black;font-family:-apple-system,&quot;SF Pro Display&quot;,&quot;SF Pro Text&quot;,Helvetica,sans-serif;font-weight:bold;" transform="matrix(1 0 0 1 263 1953)">Design Variations</text>
  <text style="stroke:none;fill:black;font-family:-apple-system,&quot;SF Pro Display&quot;,&quot;SF Pro Text&quot;,Helvetica,sans-serif;" transform="matrix(1 0 0 1 263 1971)">Symbols are supported in up to nine weights and three scales.</text>
  <text style="stroke:none;fill:black;font-family:-apple-system,&quot;SF Pro Display&quot;,&quot;SF Pro Text&quot;,Helvetica,sans-serif;" transform="matrix(1 0 0 1 263 1989)">For optimal layout with text and other symbols, vertically align</text>
  <text style="stroke:none;fill:black;font-family:-apple-system,&quot;SF Pro Display&quot;,&quot;SF Pro Text&quot;,Helvetica,sans-serif;" transform="matrix(1 0 0 1 263 2007)">symbols with the adjacent text.</text>
  <line id="" style="fill:none;stroke:#00AEEF;stroke-width:0.5;opacity:1.0;" x1="776" x2="776" y1="1919" y2="1933"/>
  <g id="" transform="matrix(1 0 0 1 776 1933)">
   <path d="M3.31055 0.126953C3.82812 0.126953 4.08203-0.0683594 4.26758-0.605469L5.52734-4.0625L11.2891-4.0625L12.5488-0.605469C12.7344-0.0683594 12.9883 0.126953 13.4961 0.126953C14.0137 0.126953 14.3457-0.185547 14.3457-0.673828C14.3457-0.839844 14.3164-0.986328 14.2383-1.20117L9.6582-13.3887C9.43359-13.9941 9.0332-14.2871 8.4082-14.2871C7.80273-14.2871 7.39258-13.9941 7.17773-13.3984L2.59766-1.19141C2.51953-0.976562 2.49023-0.830078 2.49023-0.664062C2.49023-0.175781 2.80273 0.126953 3.31055 0.126953ZM6.00586-5.53711L8.37891-12.1094L8.42773-12.1094L10.8008-5.53711Z"/>
  </g>
  <line id="" style="fill:none;stroke:#00AEEF;stroke-width:0.5;opacity:1.0;" x1="792.836" x2="792.836" y1="1919" y2="1933"/>
  <text style="stroke:none;fill:black;font-family:-apple-system,&quot;SF Pro Display&quot;,&quot;SF Pro Text&quot;,Helvetica,sans-serif;font-weight:bold;" transform="matrix(1 0 0 1 776 1953)">Margins</text>
  <text style="stroke:none;fill:black;font-family:-apple-system,&quot;SF Pro Display&quot;,&quot;SF Pro Text&quot;,Helvetica,sans-serif;" transform="matrix(1 0 0 1 776 1971)">Leading and trailing margins on the left and right side of each symbol</text>
  <text style="stroke:none;fill:black;font-family:-apple-system,&quot;SF Pro Display&quot;,&quot;SF Pro Text&quot;,Helvetica,sans-serif;" transform="matrix(1 0 0 1 776 1989)">can be adjusted by modifying the x-location of the margin guidelines.</text>
  <text style="stroke:none;fill:black;font-family:-apple-system,&quot;SF Pro Display&quot;,&quot;SF Pro Text&quot;,Helvetica,sans-serif;" transform="matrix(1 0 0 1 776 2007)">Modifications are automatically applied proportionally to all</text>
  <text style="stroke:none;fill:black;font-family:-apple-system,&quot;SF Pro Display&quot;,&quot;SF Pro Text&quot;,Helvetica,sans-serif;" transform="matrix(1 0 0 1 776 2025)">scales and weights.</text>
  <g id="" transform="matrix(1 0 0 1 1289 1933)">
   <path d="M2.8418 1.86523L4.54102 3.57422C5.40039 4.44336 6.38672 4.38477 7.31445 3.35938L17.4902-7.85156C17.7539-7.76367 18.0273-7.7832 18.3398-7.8418L19.4043-8.03711L20.0684-7.36328L20.0293-6.80664C19.9902-6.30859 20.1172-5.92773 20.6055-5.44922L21.3672-4.70703C21.8457-4.22852 22.4609-4.19922 22.9297-4.66797L25.8398-7.58789C26.3086-8.05664 26.2891-8.65234 25.8105-9.13086L25.0391-9.89258C24.5605-10.3711 24.1895-10.5273 23.7109-10.4883L23.1348-10.4395L22.4902-11.0742L22.7344-12.1973C22.8613-12.7637 22.7051-13.2031 22.1191-13.7891L19.9219-15.9766C16.582-19.2969 12.1484-19.2188 9.25781-16.3281C8.83789-15.918 8.80859-15.3418 9.04297-14.9512C9.27734-14.5898 9.73633-14.3555 10.3809-14.5215C11.8457-14.8633 13.3691-14.9219 14.7949-13.9844L14.209-12.5293C14.0137-12.0508 13.9844-11.6504 14.1113-11.2891L3.04688-0.898438C2.06055 0.0195312 1.98242 0.996094 2.8418 1.86523ZM10.752-15.957C13.1836-17.7344 16.4746-17.4316 18.7012-15.2051L21.1328-12.793C21.3672-12.5586 21.4062-12.373 21.3379-12.0312L21.0156-10.5469L22.5195-9.0625L23.5059-9.12109C23.7598-9.13086 23.8379-9.11133 24.0332-8.91602L24.6094-8.33984L22.168-5.89844L21.5918-6.47461C21.3965-6.66992 21.3672-6.74805 21.377-7.01172L21.4453-7.98828L19.9512-9.47266L18.4277-9.21875C18.1055-9.15039 17.959-9.17969 17.7148-9.41406L15.7129-11.416C15.459-11.6504 15.4297-11.8164 15.5859-12.1875L16.4648-14.2773C14.9023-15.7324 12.8711-16.3574 10.8398-15.7617C10.6836-15.7227 10.625-15.8496 10.752-15.957ZM5.27344 2.30469L4.10156 1.14258C3.63281 0.683594 3.74023 0.341797 4.14062-0.0195312L14.9512-10.1953L16.416-8.71094L6.42578 2.27539C6.07422 2.67578 5.74219 2.77344 5.27344 2.30469Z"/>
  </g>
  <text style="stroke:none;fill:black;font-family:-apple-system,&quot;SF Pro Display&quot;,&quot;SF Pro Text&quot;,Helvetica,sans-serif;font-weight:bold;" transform="matrix(1 0 0 1 1289 1953)">Exporting</text>
  <text style="stroke:none;fill:black;font-family:-apple-system,&quot;SF Pro Display&quot;,&quot;SF Pro Text&quot;,Helvetica,sans-serif;" transform="matrix(1 0 0 1 1289 1971)">Symbols should be outlined when exporting to ensure the</text>
  <text style="stroke:none;fill:black;font-family:-apple-system,&quot;SF Pro Display&quot;,&quot;SF Pro Text&quot;,Helvetica,sans-serif;" transform="matrix(1 0 0 1 1289 1989)">design is preserved when submitting to Xcode.</text>
  <text id="template-version" style="stroke:none;fill:black;font-family:-apple-system,&quot;SF Pro Display&quot;,&quot;SF Pro Text&quot;,Helvetica,sans-serif;text-anchor:end;" transform="matrix(1 0 0 1 3036 1933)">Template v.2.0</text>
  <text style="stroke:none;fill:black;font-family:-apple-system,&quot;SF Pro Display&quot;,&quot;SF Pro Text&quot;,Helvetica,sans-serif;text-anchor:end;" transform="matrix(1 0 0 1 3036 1951)">Requires Xcode 12 or greater</text>
  <text style="stroke:none;fill:black;font-family:-apple-system,&quot;SF Pro Display&quot;,&quot;SF Pro Text&quot;,Helvetica,sans-serif;" transform="matrix(1 0 0 1 263 726)">Small</text>
  <text style="stroke:none;fill:black;font-family:-apple-system,&quot;SF Pro Display&quot;,&quot;SF Pro Text&quot;,Helvetica,sans-serif;" transform="matrix(1 0 0 1 263 1156)">Medium</text>
  <text style="stroke:none;fill:black;font-family:-apple-system,&quot;SF Pro Display&quot;,&quot;SF Pro Text&quot;,Helvetica,sans-serif;" transform="matrix(1 0 0 1 263 1586)">Large</text>
 </g>
 <g id="Guides">
  <g id="H-reference" style="fill:#27AAE1;stroke:none;" transform="matrix(1 0 0 1 339 696)">
   <path d="M0.976562 0L3.66211 0L12.9883-24.4629L45.752-24.4629L55.127 0L57.7637 0L30.6152-70.459L28.125-70.459ZM29.3457-67.1387L29.4434-67.1387L44.873-26.709L13.8672-26.709Z"/>
  </g>
  <line id="Baseline-S" style="fill:none;stroke:#27AAE1;opacity:1;stroke-width:0.5;" x1="263" x2="3036" y1="696" y2="696"/>
  <line id="Capline-S" style="fill:none;stroke:#27AAE1;opacity:1;stroke-width:0.5;" x1="263" x2="3036" y1="625.541" y2="625.541"/>
  <g id="H-reference" style="fill:#27AAE1;stroke:none;" transform="matrix(1 0 0 1 339 1126)">
   <path d="M0.976562 0L3.66211 0L12.9883-24.4629L45.752-24.4629L55.127 0L57.7637 0L30.6152-70.459L28.125-70.459ZM29.3457-67.1387L29.4434-67.1387L44.873-26.709L13.8672-26.709Z"/>
  </g>
  <line id="Baseline-M" style="fill:none;stroke:#27AAE1;opacity:1;stroke-width:0.5;" x1="263" x2="3036" y1="1126" y2="1126"/>
  <line id="Capline-M" style="fill:none;stroke:#27AAE1;opacity:1;stroke-width:0.5;" x1="263" x2="3036" y1="1055.54" y2="1055.54"/>
  <g id="H-reference" style="fill:#27AAE1;stroke:none;" transform="matrix(1 0 0 1 339 1556)">
   <path d="M0.976562 0L3.66211 0L12.9883-24.4629L45.752-24.4629L55.127 0L57.7637 0L30.6152-70.459L28.125-70.459ZM29.3457-67.1387L29.4434-67.1387L44.873-26.709L13.8672-26.709Z"/>
  </g>
  <line id="Baseline-L" style="fill:none;stroke:#27AAE1;opacity:1;stroke-width:0.5;" x1="263" x2="3036" y1="1556" y2="1556"/>
  <line id="Capline-L" style="fill:none;stroke:#27AAE1;opacity:1;stroke-width:0.5;" x1="263" x2="3036" y1="1485.54" y2="1485.54"/>
  <line id="left-margin" x1="1405.1108380126952" x2="1405.1108380126952" y1="1030.79" y2="1150.12" style="fill:none;stroke:#00AEEF;stroke-width:0.5;opacity:1.0;"/>
  <line id="right-margin" x1="1496.7087872314453" x2="1496.7087872314453" y1="1030.79" y2="1150.12" style="fill:none;stroke:#00AEEF;stroke-width:0.5;opacity:1.0;"/>
 </g>
 <g id="Symbols">
  <g id="Black-L" transform="matrix(1.0,0.0,0.0,1.0,2863.6695706176756,1449.1915067138673)">  <path stroke="none" fill-rule="evenodd" stroke-miterlimit="4" clip-rule="evenodd" fill-opacity="1" stroke-width="1px" stroke-opacity="1" stroke-dasharray="none" stroke-linecap="butt" stroke-linejoin="miter" fill="#000000" d="M16.007,130.185C13.706,130.185,11.836,128.048,11.836,125.421L11.836,33.421C11.836,31.462,12.865,29.729,14.457,29.001L51.252,12.225C51.749,12,52.27,11.881,52.803,11.881C53.341,11.881,53.862,12,54.359,12.225L88.136,27.711C88.515,27.876,88.906,27.965,89.314,27.965C89.71,27.965,90.101,27.882,90.48,27.711L124.458,12.183C124.955,11.952,125.482,11.834,126.015,11.834C128.316,11.834,130.186,13.97,130.186,16.598L130.186,108.225C130.186,110.166,129.163,111.899,127.583,112.633L91.06,129.599C90.557,129.83,90.024,129.948,89.48,129.948C88.947,129.948,88.426,129.835,87.935,129.617L53.791,114.124C53.424,113.959,53.033,113.87,52.631,113.87C52.229,113.87,51.826,113.959,51.454,114.136L17.582,129.83C17.079,130.066,16.546,130.185,16.007,130.185ZM92.467,39.807L92.538,115.628L118.422,104.107L118.351,27.936L92.467,39.807ZM86.55,39.865L55.548,25.911L55.548,101.804L86.55,116.106L86.55,39.865ZM49.629,26.267L23.668,37.984L23.668,113.876L49.629,102.159L49.629,26.267ZM49.629,26.267"/>
</g>
  <g id="Heavy-L" transform="matrix(1.0,0.0,0.0,1.0,2566.9595706176756,1449.1915067138673)">  <path stroke-opacity="1" fill-opacity="1" fill-rule="evenodd" stroke-miterlimit="4" stroke-dasharray="none" clip-rule="evenodd" fill="#000000" stroke-linecap="butt" stroke-width="1px" stroke="none" stroke-linejoin="miter" d="M16.007,130.185C13.706,130.185,11.836,128.048,11.836,125.421L11.836,33.421C11.836,31.462,12.865,29.729,14.457,29.001L51.252,12.225C51.749,12,52.27,11.881,52.803,11.881C53.341,11.881,53.862,12,54.359,12.225L88.136,27.711C88.515,27.876,88.906,27.965,89.314,27.965C89.71,27.965,90.101,27.882,90.48,27.711L124.458,12.183C124.955,11.952,125.482,11.834,126.015,11.834C128.316,11.834,130.186,13.97,130.186,16.598L130.186,108.225C130.186,110.166,129.163,111.899,127.583,112.633L91.06,129.599C90.557,129.83,90.024,129.948,89.48,129.948C88.947,129.948,88.426,129.835,87.935,129.617L53.791,114.124C53.424,113.959,53.033,113.87,52.631,113.87C52.229,113.87,51.826,113.959,51.454,114.136L17.582,129.83C17.079,130.066,16.546,130.185,16.007,130.185ZM92.467,39.807L92.538,115.628L118.422,104.107L118.351,27.936L92.467,39.807ZM86.55,39.865L55.548,25.911L55.548,101.804L86.55,116.106L86.55,39.865ZM49.629,26.267L23.668,37.984L23.668,113.876L49.629,102.159L49.629,26.267ZM49.629,26.267"/>
</g>
  <g id="Bold-L" transform="matrix(1.0,0.0,0.0,1.0,2270.2495706176755,1449.1915067138673)">  <path fill-rule="evenodd" stroke-miterlimit="4" fill-opacity="1" stroke-dasharray="none" stroke-linejoin="miter" clip-rule="evenodd" stroke-linecap="butt" stroke-width="1px" stroke="none" stroke-opacity="1" fill="#000000" d="M16.007,130.185C13.706,130.185,11.836,128.048,11.836,125.421L11.836,33.421C11.836,31.462,12.865,29.729,14.457,29.001L51.252,12.225C51.749,12,52.27,11.881,52.803,11.881C53.341,11.881,53.862,12,54.359,12.225L88.136,27.711C88.515,27.876,88.906,27.965,89.314,27.965C89.71,27.965,90.101,27.882,90.48,27.711L124.458,12.183C124.955,11.952,125.482,11.834,126.015,11.834C128.316,11.834,130.186,13.97,130.186,16.598L130.186,108.225C130.186,110.166,129.163,111.899,127.583,112.633L91.06,129.599C90.557,129.83,90.024,129.948,89.48,129.948C88.947,129.948,88.426,129.835,87.935,129.617L53.791,114.124C53.424,113.959,53.033,113.87,52.631,113.87C52.229,113.87,51.826,113.959,51.454,114.136L17.582,129.83C17.079,130.066,16.546,130.185,16.007,130.185ZM92.467,39.807L92.538,115.628L118.422,104.107L118.351,27.936L92.467,39.807ZM86.55,39.865L55.548,25.911L55.548,101.804L86.55,116.106L86.55,39.865ZM49.629,26.267L23.668,37.984L23.668,113.876L49.629,102.159L49.629,26.267ZM49.629,26.267"/>
</g>
  <g id="Semibold-L" transform="matrix(1.0,0.0,0.0,1.0,1973.5395706176757,1449.1915067138673)">  <path fill-opacity="1" stroke-linecap="butt" stroke-linejoin="miter" fill-rule="evenodd" stroke-opacity="1" stroke="none" stroke-miterlimit="4" stroke-width="1px" clip-rule="evenodd" fill="#000000" stroke-dasharray="none" d="M16.007,130.185C13.706,130.185,11.836,128.048,11.836,125.421L11.836,33.421C11.836,31.462,12.865,29.729,14.457,29.001L51.252,12.225C51.749,12,52.27,11.881,52.803,11.881C53.341,11.881,53.862,12,54.359,12.225L88.136,27.711C88.515,27.876,88.906,27.965,89.314,27.965C89.71,27.965,90.101,27.882,90.48,27.711L124.458,12.183C124.955,11.952,125.482,11.834,126.015,11.834C128.316,11.834,130.186,13.97,130.186,16.598L130.186,108.225C130.186,110.166,129.163,111.899,127.583,112.633L91.06,129.599C90.557,129.83,90.024,129.948,89.48,129.948C88.947,129.948,88.426,129.835,87.935,129.617L53.791,114.124C53.424,113.959,53.033,113.87,52.631,113.87C52.229,113.87,51.826,113.959,51.454,114.136L17.582,129.83C17.079,130.066,16.546,130.185,16.007,130.185ZM92.467,39.807L92.538,115.628L118.422,104.107L118.351,27.936L92.467,39.807ZM86.55,39.865L55.548,25.911L55.548,101.804L86.55,116.106L86.55,39.865ZM49.629,26.267L23.668,37.984L23.668,113.876L49.629,102.159L49.629,26.267ZM49.629,26.267"/>
</g>
  <g id="Medium-L" transform="matrix(1.0,0.0,0.0,1.0,1676.8295706176757,1449.1915067138673)">  <path fill="#000000" stroke-linecap="butt" stroke-linejoin="miter" stroke-width="1px" fill-rule="evenodd" stroke-opacity="1" stroke-dasharray="none" stroke="none" clip-rule="evenodd" fill-opacity="1" stroke-miterlimit="4" d="M16.007,130.185C13.706,130.185,11.836,128.048,11.836,125.421L11.836,33.421C11.836,31.462,12.865,29.729,14.457,29.001L51.252,12.225C51.749,12,52.27,11.881,52.803,11.881C53.341,11.881,53.862,12,54.359,12.225L88.136,27.711C88.515,27.876,88.906,27.965,89.314,27.965C89.71,27.965,90.101,27.882,90.48,27.711L124.458,12.183C124.955,11.952,125.482,11.834,126.015,11.834C128.316,11.834,130.186,13.97,130.186,16.598L130.186,108.225C130.186,110.166,129.163,111.899,127.583,112.633L91.06,129.599C90.557,129.83,90.024,129.948,89.48,129.948C88.947,129.948,88.426,129.835,87.935,129.617L53.791,114.124C53.424,113.959,53.033,113.87,52.631,113.87C52.229,113.87,51.826,113.959,51.454,114.136L17.582,129.83C17.079,130.066,16.546,130.185,16.007,130.185ZM92.467,39.807L92.538,115.628L118.422,104.107L118.351,27.936L92.467,39.807ZM86.55,39.865L55.548,25.911L55.548,101.804L86.55,116.106L86.55,39.865ZM49.629,26.267L23.668,37.984L23.668,113.876L49.629,102.159L49.629,26.267ZM49.629,26.267"/>
</g>
  <g id="Regular-L" transform="matrix(1.0,0.0,0.0,1.0,1380.1195706176757,1449.1915067138673)">  <path fill="#000000" fill-rule="evenodd" stroke-miterlimit="4" stroke-opacity="1" clip-rule="evenodd" stroke="none" stroke-linejoin="miter" fill-opacity="1" stroke-linecap="butt" stroke-width="1px" stroke-dasharray="none" d="M16.007,130.185C13.706,130.185,11.836,128.048,11.836,125.421L11.836,33.421C11.836,31.462,12.865,29.729,14.457,29.001L51.252,12.225C51.749,12,52.27,11.881,52.803,11.881C53.341,11.881,53.862,12,54.359,12.225L88.136,27.711C88.515,27.876,88.906,27.965,89.314,27.965C89.71,27.965,90.101,27.882,90.48,27.711L124.458,12.183C124.955,11.952,125.482,11.834,126.015,11.834C128.316,11.834,130.186,13.97,130.186,16.598L130.186,108.225C130.186,110.166,129.163,111.899,127.583,112.633L91.06,129.599C90.557,129.83,90.024,129.948,89.48,129.948C88.947,129.948,88.426,129.835,87.935,129.617L53.791,114.124C53.424,113.959,53.033,113.87,52.631,113.87C52.229,113.87,51.826,113.959,51.454,114.136L17.582,129.83C17.079,130.066,16.546,130.185,16.007,130.185ZM92.467,39.807L92.538,115.628L118.422,104.107L118.351,27.936L92.467,39.807ZM86.55,39.865L55.548,25.911L55.548,101.804L86.55,116.106L86.55,39.865ZM49.629,26.267L23.668,37.984L23.668,113.876L49.629,102.159L49.629,26.267ZM49.629,26.267"/>
</g>
  <g id="Light-L" transform="matrix(1.0,0.0,0.0,1.0,1083.4095706176759,1449.1915067138673)">  <path stroke-width="1px" stroke-linejoin="miter" fill="#000000" fill-opacity="1" clip-rule="evenodd" stroke="none" stroke-opacity="1" stroke-linecap="butt" stroke-dasharray="none" fill-rule="evenodd" stroke-miterlimit="4" d="M16.007,130.185C13.706,130.185,11.836,128.048,11.836,125.421L11.836,33.421C11.836,31.462,12.865,29.729,14.457,29.001L51.252,12.225C51.749,12,52.27,11.881,52.803,11.881C53.341,11.881,53.862,12,54.359,12.225L88.136,27.711C88.515,27.876,88.906,27.965,89.314,27.965C89.71,27.965,90.101,27.882,90.48,27.711L124.458,12.183C124.955,11.952,125.482,11.834,126.015,11.834C128.316,11.834,130.186,13.97,130.186,16.598L130.186,108.225C130.186,110.166,129.163,111.899,127.583,112.633L91.06,129.599C90.557,129.83,90.024,129.948,89.48,129.948C88.947,129.948,88.426,129.835,87.935,129.617L53.791,114.124C53.424,113.959,53.033,113.87,52.631,113.87C52.229,113.87,51.826,113.959,51.454,114.136L17.582,129.83C17.079,130.066,16.546,130.185,16.007,130.185ZM92.467,39.807L92.538,115.628L118.422,104.107L118.351,27.936L92.467,39.807ZM86.55,39.865L55.548,25.911L55.548,101.804L86.55,116.106L86.55,39.865ZM49.629,26.267L23.668,37.984L23.668,113.876L49.629,102.159L49.629,26.267ZM49.629,26.267"/>
</g>
  <g id="Thin-L" transform="matrix(1.0,0.0,0.0,1.0,786.6995706176758,1449.1915067138673)">  <path stroke-opacity="1" clip-rule="evenodd" stroke-linejoin="miter" fill="#000000" stroke-dasharray="none" stroke="none" stroke-width="1px" stroke-miterlimit="4" fill-opacity="1" fill-rule="evenodd" stroke-linecap="butt" d="M16.007,130.185C13.706,130.185,11.836,128.048,11.836,125.421L11.836,33.421C11.836,31.462,12.865,29.729,14.457,29.001L51.252,12.225C51.749,12,52.27,11.881,52.803,11.881C53.341,11.881,53.862,12,54.359,12.225L88.136,27.711C88.515,27.876,88.906,27.965,89.314,27.965C89.71,27.965,90.101,27.882,90.48,27.711L124.458,12.183C124.955,11.952,125.482,11.834,126.015,11.834C128.316,11.834,130.186,13.97,130.186,16.598L130.186,108.225C130.186,110.166,129.163,111.899,127.583,112.633L91.06,129.599C90.557,129.83,90.024,129.948,89.48,129.948C88.947,129.948,88.426,129.835,87.935,129.617L53.791,114.124C53.424,113.959,53.033,113.87,52.631,113.87C52.229,113.87,51.826,113.959,51.454,114.136L17.582,129.83C17.079,130.066,16.546,130.185,16.007,130.185ZM92.467,39.807L92.538,115.628L118.422,104.107L118.351,27.936L92.467,39.807ZM86.55,39.865L55.548,25.911L55.548,101.804L86.55,116.106L86.55,39.865ZM49.629,26.267L23.668,37.984L23.668,113.876L49.629,102.159L49.629,26.267ZM49.629,26.267"/>
</g>
  <g id="Ultralight-L" transform="matrix(1.0,0.0,0.0,1.0,489.9895706176758,1449.1915067138673)">  <path fill-opacity="1" stroke-miterlimit="4" stroke-linecap="butt" fill="#000000" stroke-opacity="1" stroke="none" fill-rule="evenodd" stroke-linejoin="miter" clip-rule="evenodd" stroke-width="1px" stroke-dasharray="none" d="M16.007,130.185C13.706,130.185,11.836,128.048,11.836,125.421L11.836,33.421C11.836,31.462,12.865,29.729,14.457,29.001L51.252,12.225C51.749,12,52.27,11.881,52.803,11.881C53.341,11.881,53.862,12,54.359,12.225L88.136,27.711C88.515,27.876,88.906,27.965,89.314,27.965C89.71,27.965,90.101,27.882,90.48,27.711L124.458,12.183C124.955,11.952,125.482,11.834,126.015,11.834C128.316,11.834,130.186,13.97,130.186,16.598L130.186,108.225C130.186,110.166,129.163,111.899,127.583,112.633L91.06,129.599C90.557,129.83,90.024,129.948,89.48,129.948C88.947,129.948,88.426,129.835,87.935,129.617L53.791,114.124C53.424,113.959,53.033,113.87,52.631,113.87C52.229,113.87,51.826,113.959,51.454,114.136L17.582,129.83C17.079,130.066,16.546,130.185,16.007,130.185ZM92.467,39.807L92.538,115.628L118.422,104.107L118.351,27.936L92.467,39.807ZM86.55,39.865L55.548,25.911L55.548,101.804L86.55,116.106L86.55,39.865ZM49.629,26.267L23.668,37.984L23.668,113.876L49.629,102.159L49.629,26.267ZM49.629,26.267"/>
</g>
  <g id="Black-M" transform="matrix(1.0,0.0,0.0,1.0,2879.633155517578,1035.2828002929687)">  <path stroke="none" fill-rule="evenodd" stroke-miterlimit="4" clip-rule="evenodd" fill-opacity="1" stroke-width="1px" stroke-opacity="1" stroke-dasharray="none" stroke-linecap="butt" stroke-linejoin="miter" fill="#000000" d="M12.409,100.918C10.624,100.918,9.175,99.262,9.175,97.226L9.175,25.908C9.175,24.39,9.973,23.045,11.207,22.481L39.73,9.476C40.116,9.302,40.519,9.21,40.932,9.21C41.35,9.21,41.753,9.302,42.139,9.476L68.323,21.481C68.616,21.61,68.919,21.678,69.236,21.678C69.543,21.678,69.846,21.614,70.139,21.481L96.479,9.444C96.865,9.265,97.273,9.174,97.686,9.174C99.47,9.174,100.92,10.83,100.92,12.866L100.92,83.895C100.92,85.4,100.126,86.744,98.901,87.313L70.589,100.464C70.199,100.643,69.786,100.735,69.364,100.735C68.951,100.735,68.548,100.648,68.167,100.478L41.698,88.469C41.414,88.34,41.111,88.271,40.799,88.271C40.487,88.271,40.175,88.34,39.886,88.478L13.629,100.643C13.239,100.827,12.826,100.918,12.409,100.918ZM71.68,30.858L71.735,89.634L91.8,80.703L91.745,21.656L71.68,30.858ZM67.093,30.903L43.06,20.086L43.06,78.917L67.093,90.005L67.093,30.903ZM38.472,20.362L18.348,29.445L18.348,88.276L38.472,79.193L38.472,20.362ZM38.472,20.362"/>
</g>
  <g id="Heavy-M" transform="matrix(1.0,0.0,0.0,1.0,2582.923155517578,1035.2828002929687)">  <path stroke-opacity="1" fill-opacity="1" fill-rule="evenodd" stroke-miterlimit="4" stroke-dasharray="none" clip-rule="evenodd" fill="#000000" stroke-linecap="butt" stroke-width="1px" stroke="none" stroke-linejoin="miter" d="M12.409,100.918C10.624,100.918,9.175,99.262,9.175,97.226L9.175,25.908C9.175,24.39,9.973,23.045,11.207,22.481L39.73,9.476C40.116,9.302,40.519,9.21,40.932,9.21C41.35,9.21,41.753,9.302,42.139,9.476L68.323,21.481C68.616,21.61,68.919,21.678,69.236,21.678C69.543,21.678,69.846,21.614,70.139,21.481L96.479,9.444C96.865,9.265,97.273,9.174,97.686,9.174C99.47,9.174,100.92,10.83,100.92,12.866L100.92,83.895C100.92,85.4,100.126,86.744,98.901,87.313L70.589,100.464C70.199,100.643,69.786,100.735,69.364,100.735C68.951,100.735,68.548,100.648,68.167,100.478L41.698,88.469C41.414,88.34,41.111,88.271,40.799,88.271C40.487,88.271,40.175,88.34,39.886,88.478L13.629,100.643C13.239,100.827,12.826,100.918,12.409,100.918ZM71.68,30.858L71.735,89.634L91.8,80.703L91.745,21.656L71.68,30.858ZM67.093,30.903L43.06,20.086L43.06,78.917L67.093,90.005L67.093,30.903ZM38.472,20.362L18.348,29.445L18.348,88.276L38.472,79.193L38.472,20.362ZM38.472,20.362"/>
</g>
  <g id="Bold-M" transform="matrix(1.0,0.0,0.0,1.0,2286.213155517578,1035.2828002929687)">  <path fill-rule="evenodd" stroke-miterlimit="4" fill-opacity="1" stroke-dasharray="none" stroke-linejoin="miter" clip-rule="evenodd" stroke-linecap="butt" stroke-width="1px" stroke="none" stroke-opacity="1" fill="#000000" d="M12.409,100.918C10.624,100.918,9.175,99.262,9.175,97.226L9.175,25.908C9.175,24.39,9.973,23.045,11.207,22.481L39.73,9.476C40.116,9.302,40.519,9.21,40.932,9.21C41.35,9.21,41.753,9.302,42.139,9.476L68.323,21.481C68.616,21.61,68.919,21.678,69.236,21.678C69.543,21.678,69.846,21.614,70.139,21.481L96.479,9.444C96.865,9.265,97.273,9.174,97.686,9.174C99.47,9.174,100.92,10.83,100.92,12.866L100.92,83.895C100.92,85.4,100.126,86.744,98.901,87.313L70.589,100.464C70.199,100.643,69.786,100.735,69.364,100.735C68.951,100.735,68.548,100.648,68.167,100.478L41.698,88.469C41.414,88.34,41.111,88.271,40.799,88.271C40.487,88.271,40.175,88.34,39.886,88.478L13.629,100.643C13.239,100.827,12.826,100.918,12.409,100.918ZM71.68,30.858L71.735,89.634L91.8,80.703L91.745,21.656L71.68,30.858ZM67.093,30.903L43.06,20.086L43.06,78.917L67.093,90.005L67.093,30.903ZM38.472,20.362L18.348,29.445L18.348,88.276L38.472,79.193L38.472,20.362ZM38.472,20.362"/>
</g>
  <g id="Semibold-M" transform="matrix(1.0,0.0,0.0,1.0,1989.503155517578,1035.2828002929687)">  <path fill-opacity="1" stroke-linecap="butt" stroke-linejoin="miter" fill-rule="evenodd" stroke-opacity="1" stroke="none" stroke-miterlimit="4" stroke-width="1px" clip-rule="evenodd" fill="#000000" stroke-dasharray="none" d="M12.409,100.918C10.624,100.918,9.175,99.262,9.175,97.226L9.175,25.908C9.175,24.39,9.973,23.045,11.207,22.481L39.73,9.476C40.116,9.302,40.519,9.21,40.932,9.21C41.35,9.21,41.753,9.302,42.139,9.476L68.323,21.481C68.616,21.61,68.919,21.678,69.236,21.678C69.543,21.678,69.846,21.614,70.139,21.481L96.479,9.444C96.865,9.265,97.273,9.174,97.686,9.174C99.47,9.174,100.92,10.83,100.92,12.866L100.92,83.895C100.92,85.4,100.126,86.744,98.901,87.313L70.589,100.464C70.199,100.643,69.786,100.735,69.364,100.735C68.951,100.735,68.548,100.648,68.167,100.478L41.698,88.469C41.414,88.34,41.111,88.271,40.799,88.271C40.487,88.271,40.175,88.34,39.886,88.478L13.629,100.643C13.239,100.827,12.826,100.918,12.409,100.918ZM71.68,30.858L71.735,89.634L91.8,80.703L91.745,21.656L71.68,30.858ZM67.093,30.903L43.06,20.086L43.06,78.917L67.093,90.005L67.093,30.903ZM38.472,20.362L18.348,29.445L18.348,88.276L38.472,79.193L38.472,20.362ZM38.472,20.362"/>
</g>
  <g id="Medium-M" transform="matrix(1.0,0.0,0.0,1.0,1692.793155517578,1035.2828002929687)">  <path fill="#000000" stroke-linecap="butt" stroke-linejoin="miter" stroke-width="1px" fill-rule="evenodd" stroke-opacity="1" stroke-dasharray="none" stroke="none" clip-rule="evenodd" fill-opacity="1" stroke-miterlimit="4" d="M12.409,100.918C10.624,100.918,9.175,99.262,9.175,97.226L9.175,25.908C9.175,24.39,9.973,23.045,11.207,22.481L39.73,9.476C40.116,9.302,40.519,9.21,40.932,9.21C41.35,9.21,41.753,9.302,42.139,9.476L68.323,21.481C68.616,21.61,68.919,21.678,69.236,21.678C69.543,21.678,69.846,21.614,70.139,21.481L96.479,9.444C96.865,9.265,97.273,9.174,97.686,9.174C99.47,9.174,100.92,10.83,100.92,12.866L100.92,83.895C100.92,85.4,100.126,86.744,98.901,87.313L70.589,100.464C70.199,100.643,69.786,100.735,69.364,100.735C68.951,100.735,68.548,100.648,68.167,100.478L41.698,88.469C41.414,88.34,41.111,88.271,40.799,88.271C40.487,88.271,40.175,88.34,39.886,88.478L13.629,100.643C13.239,100.827,12.826,100.918,12.409,100.918ZM71.68,30.858L71.735,89.634L91.8,80.703L91.745,21.656L71.68,30.858ZM67.093,30.903L43.06,20.086L43.06,78.917L67.093,90.005L67.093,30.903ZM38.472,20.362L18.348,29.445L18.348,88.276L38.472,79.193L38.472,20.362ZM38.472,20.362"/>
</g>
  <g id="Regular-M" transform="matrix(1.0,0.0,0.0,1.0,1396.083155517578,1035.2828002929687)">  <path fill="#000000" fill-rule="evenodd" stroke-miterlimit="4" stroke-opacity="1" clip-rule="evenodd" stroke="none" stroke-linejoin="miter" fill-opacity="1" stroke-linecap="butt" stroke-width="1px" stroke-dasharray="none" d="M12.409,100.918C10.624,100.918,9.175,99.262,9.175,97.226L9.175,25.908C9.175,24.39,9.973,23.045,11.207,22.481L39.73,9.476C40.116,9.302,40.519,9.21,40.932,9.21C41.35,9.21,41.753,9.302,42.139,9.476L68.323,21.481C68.616,21.61,68.919,21.678,69.236,21.678C69.543,21.678,69.846,21.614,70.139,21.481L96.479,9.444C96.865,9.265,97.273,9.174,97.686,9.174C99.47,9.174,100.92,10.83,100.92,12.866L100.92,83.895C100.92,85.4,100.126,86.744,98.901,87.313L70.589,100.464C70.199,100.643,69.786,100.735,69.364,100.735C68.951,100.735,68.548,100.648,68.167,100.478L41.698,88.469C41.414,88.34,41.111,88.271,40.799,88.271C40.487,88.271,40.175,88.34,39.886,88.478L13.629,100.643C13.239,100.827,12.826,100.918,12.409,100.918ZM71.68,30.858L71.735,89.634L91.8,80.703L91.745,21.656L71.68,30.858ZM67.093,30.903L43.06,20.086L43.06,78.917L67.093,90.005L67.093,30.903ZM38.472,20.362L18.348,29.445L18.348,88.276L38.472,79.193L38.472,20.362ZM38.472,20.362"/>
</g>
  <g id="Light-M" transform="matrix(1.0,0.0,0.0,1.0,1099.3731555175782,1035.2828002929687)">  <path stroke-width="1px" stroke-linejoin="miter" fill="#000000" fill-opacity="1" clip-rule="evenodd" stroke="none" stroke-opacity="1" stroke-linecap="butt" stroke-dasharray="none" fill-rule="evenodd" stroke-miterlimit="4" d="M12.409,100.918C10.624,100.918,9.175,99.262,9.175,97.226L9.175,25.908C9.175,24.39,9.973,23.045,11.207,22.481L39.73,9.476C40.116,9.302,40.519,9.21,40.932,9.21C41.35,9.21,41.753,9.302,42.139,9.476L68.323,21.481C68.616,21.61,68.919,21.678,69.236,21.678C69.543,21.678,69.846,21.614,70.139,21.481L96.479,9.444C96.865,9.265,97.273,9.174,97.686,9.174C99.47,9.174,100.92,10.83,100.92,12.866L100.92,83.895C100.92,85.4,100.126,86.744,98.901,87.313L70.589,100.464C70.199,100.643,69.786,100.735,69.364,100.735C68.951,100.735,68.548,100.648,68.167,100.478L41.698,88.469C41.414,88.34,41.111,88.271,40.799,88.271C40.487,88.271,40.175,88.34,39.886,88.478L13.629,100.643C13.239,100.827,12.826,100.918,12.409,100.918ZM71.68,30.858L71.735,89.634L91.8,80.703L91.745,21.656L71.68,30.858ZM67.093,30.903L43.06,20.086L43.06,78.917L67.093,90.005L67.093,30.903ZM38.472,20.362L18.348,29.445L18.348,88.276L38.472,79.193L38.472,20.362ZM38.472,20.362"/>
</g>
  <g id="Thin-M" transform="matrix(1.0,0.0,0.0,1.0,802.6631555175782,1035.2828002929687)">  <path stroke-opacity="1" clip-rule="evenodd" stroke-linejoin="miter" fill="#000000" stroke-dasharray="none" stroke="none" stroke-width="1px" stroke-miterlimit="4" fill-opacity="1" fill-rule="evenodd" stroke-linecap="butt" d="M12.409,100.918C10.624,100.918,9.175,99.262,9.175,97.226L9.175,25.908C9.175,24.39,9.973,23.045,11.207,22.481L39.73,9.476C40.116,9.302,40.519,9.21,40.932,9.21C41.35,9.21,41.753,9.302,42.139,9.476L68.323,21.481C68.616,21.61,68.919,21.678,69.236,21.678C69.543,21.678,69.846,21.614,70.139,21.481L96.479,9.444C96.865,9.265,97.273,9.174,97.686,9.174C99.47,9.174,100.92,10.83,100.92,12.866L100.92,83.895C100.92,85.4,100.126,86.744,98.901,87.313L70.589,100.464C70.199,100.643,69.786,100.735,69.364,100.735C68.951,100.735,68.548,100.648,68.167,100.478L41.698,88.469C41.414,88.34,41.111,88.271,40.799,88.271C40.487,88.271,40.175,88.34,39.886,88.478L13.629,100.643C13.239,100.827,12.826,100.918,12.409,100.918ZM71.68,30.858L71.735,89.634L91.8,80.703L91.745,21.656L71.68,30.858ZM67.093,30.903L43.06,20.086L43.06,78.917L67.093,90.005L67.093,30.903ZM38.472,20.362L18.348,29.445L18.348,88.276L38.472,79.193L38.472,20.362ZM38.472,20.362"/>
</g>
  <g id="Ultralight-M" transform="matrix(1.0,0.0,0.0,1.0,505.9531555175781,1035.2828002929687)">  <path fill-opacity="1" stroke-miterlimit="4" stroke-linecap="butt" fill="#000000" stroke-opacity="1" stroke="none" fill-rule="evenodd" stroke-linejoin="miter" clip-rule="evenodd" stroke-width="1px" stroke-dasharray="none" d="M12.409,100.918C10.624,100.918,9.175,99.262,9.175,97.226L9.175,25.908C9.175,24.39,9.973,23.045,11.207,22.481L39.73,9.476C40.116,9.302,40.519,9.21,40.932,9.21C41.35,9.21,41.753,9.302,42.139,9.476L68.323,21.481C68.616,21.61,68.919,21.678,69.236,21.678C69.543,21.678,69.846,21.614,70.139,21.481L96.479,9.444C96.865,9.265,97.273,9.174,97.686,9.174C99.47,9.174,100.92,10.83,100.92,12.866L100.92,83.895C100.92,85.4,100.126,86.744,98.901,87.313L70.589,100.464C70.199,100.643,69.786,100.735,69.364,100.735C68.951,100.735,68.548,100.648,68.167,100.478L41.698,88.469C41.414,88.34,41.111,88.271,40.799,88.271C40.487,88.271,40.175,88.34,39.886,88.478L13.629,100.643C13.239,100.827,12.826,100.918,12.409,100.918ZM71.68,30.858L71.735,89.634L91.8,80.703L91.745,21.656L71.68,30.858ZM67.093,30.903L43.06,20.086L43.06,78.917L67.093,90.005L67.093,30.903ZM38.472,20.362L18.348,29.445L18.348,88.276L38.472,79.193L38.472,20.362ZM38.472,20.362"/>
</g>
  <g id="Black-S" transform="matrix(1.0,0.0,0.0,1.0,2891.5783207702634,617.3235268676758)">  <path stroke="none" fill-rule="evenodd" stroke-miterlimit="4" clip-rule="evenodd" fill-opacity="1" stroke-width="1px" stroke-opacity="1" stroke-dasharray="none" stroke-linecap="butt" stroke-linejoin="miter" fill="#000000" d="M9.716,79.019C8.319,79.019,7.184,77.722,7.184,76.128L7.184,20.286C7.184,19.097,7.809,18.045,8.775,17.603L31.109,7.42C31.411,7.284,31.727,7.212,32.05,7.212C32.377,7.212,32.693,7.284,32.995,7.42L53.497,16.82C53.727,16.92,53.964,16.974,54.211,16.974C54.452,16.974,54.689,16.924,54.919,16.82L75.543,7.395C75.845,7.255,76.165,7.183,76.488,7.183C77.885,7.183,79.02,8.48,79.02,10.074L79.02,65.69C79.02,66.868,78.399,67.92,77.44,68.366L55.271,78.663C54.966,78.804,54.643,78.875,54.312,78.875C53.989,78.875,53.673,78.807,53.375,78.674L32.65,69.271C32.427,69.17,32.19,69.116,31.946,69.116C31.702,69.116,31.457,69.17,31.231,69.278L10.672,78.804C10.366,78.947,10.043,79.019,9.716,79.019ZM56.126,24.162L56.169,70.184L71.879,63.19L71.836,16.957L56.126,24.162ZM52.534,24.197L33.716,15.728L33.716,61.792L52.534,70.474L52.534,24.197ZM30.123,15.943L14.366,23.055L14.366,69.12L30.123,62.008L30.123,15.943ZM30.123,15.943"/>
</g>
  <g id="Heavy-S" transform="matrix(1.0,0.0,0.0,1.0,2594.8683207702634,617.3235268676758)">  <path stroke-opacity="1" fill-opacity="1" fill-rule="evenodd" stroke-miterlimit="4" stroke-dasharray="none" clip-rule="evenodd" fill="#000000" stroke-linecap="butt" stroke-width="1px" stroke="none" stroke-linejoin="miter" d="M9.716,79.019C8.319,79.019,7.184,77.722,7.184,76.128L7.184,20.286C7.184,19.097,7.809,18.045,8.775,17.603L31.109,7.42C31.411,7.284,31.727,7.212,32.05,7.212C32.377,7.212,32.693,7.284,32.995,7.42L53.497,16.82C53.727,16.92,53.964,16.974,54.211,16.974C54.452,16.974,54.689,16.924,54.919,16.82L75.543,7.395C75.845,7.255,76.165,7.183,76.488,7.183C77.885,7.183,79.02,8.48,79.02,10.074L79.02,65.69C79.02,66.868,78.399,67.92,77.44,68.366L55.271,78.663C54.966,78.804,54.643,78.875,54.312,78.875C53.989,78.875,53.673,78.807,53.375,78.674L32.65,69.271C32.427,69.17,32.19,69.116,31.946,69.116C31.702,69.116,31.457,69.17,31.231,69.278L10.672,78.804C10.366,78.947,10.043,79.019,9.716,79.019ZM56.126,24.162L56.169,70.184L71.879,63.19L71.836,16.957L56.126,24.162ZM52.534,24.197L33.716,15.728L33.716,61.792L52.534,70.474L52.534,24.197ZM30.123,15.943L14.366,23.055L14.366,69.12L30.123,62.008L30.123,15.943ZM30.123,15.943"/>
</g>
  <g id="Bold-S" transform="matrix(1.0,0.0,0.0,1.0,2298.1583207702633,617.3235268676758)">  <path fill-rule="evenodd" stroke-miterlimit="4" fill-opacity="1" stroke-dasharray="none" stroke-linejoin="miter" clip-rule="evenodd" stroke-linecap="butt" stroke-width="1px" stroke="none" stroke-opacity="1" fill="#000000" d="M9.716,79.019C8.319,79.019,7.184,77.722,7.184,76.128L7.184,20.286C7.184,19.097,7.809,18.045,8.775,17.603L31.109,7.42C31.411,7.284,31.727,7.212,32.05,7.212C32.377,7.212,32.693,7.284,32.995,7.42L53.497,16.82C53.727,16.92,53.964,16.974,54.211,16.974C54.452,16.974,54.689,16.924,54.919,16.82L75.543,7.395C75.845,7.255,76.165,7.183,76.488,7.183C77.885,7.183,79.02,8.48,79.02,10.074L79.02,65.69C79.02,66.868,78.399,67.92,77.44,68.366L55.271,78.663C54.966,78.804,54.643,78.875,54.312,78.875C53.989,78.875,53.673,78.807,53.375,78.674L32.65,69.271C32.427,69.17,32.19,69.116,31.946,69.116C31.702,69.116,31.457,69.17,31.231,69.278L10.672,78.804C10.366,78.947,10.043,79.019,9.716,79.019ZM56.126,24.162L56.169,70.184L71.879,63.19L71.836,16.957L56.126,24.162ZM52.534,24.197L33.716,15.728L33.716,61.792L52.534,70.474L52.534,24.197ZM30.123,15.943L14.366,23.055L14.366,69.12L30.123,62.008L30.123,15.943ZM30.123,15.943"/>
</g>
  <g id="Semibold-S" transform="matrix(1.0,0.0,0.0,1.0,2001.4483207702635,617.3235268676758)">  <path fill-opacity="1" stroke-linecap="butt" stroke-linejoin="miter" fill-rule="evenodd" stroke-opacity="1" stroke="none" stroke-miterlimit="4" stroke-width="1px" clip-rule="evenodd" fill="#000000" stroke-dasharray="none" d="M9.716,79.019C8.319,79.019,7.184,77.722,7.184,76.128L7.184,20.286C7.184,19.097,7.809,18.045,8.775,17.603L31.109,7.42C31.411,7.284,31.727,7.212,32.05,7.212C32.377,7.212,32.693,7.284,32.995,7.42L53.497,16.82C53.727,16.92,53.964,16.974,54.211,16.974C54.452,16.974,54.689,16.924,54.919,16.82L75.543,7.395C75.845,7.255,76.165,7.183,76.488,7.183C77.885,7.183,79.02,8.48,79.02,10.074L79.02,65.69C79.02,66.868,78.399,67.92,77.44,68.366L55.271,78.663C54.966,78.804,54.643,78.875,54.312,78.875C53.989,78.875,53.673,78.807,53.375,78.674L32.65,69.271C32.427,69.17,32.19,69.116,31.946,69.116C31.702,69.116,31.457,69.17,31.231,69.278L10.672,78.804C10.366,78.947,10.043,79.019,9.716,79.019ZM56.126,24.162L56.169,70.184L71.879,63.19L71.836,16.957L56.126,24.162ZM52.534,24.197L33.716,15.728L33.716,61.792L52.534,70.474L52.534,24.197ZM30.123,15.943L14.366,23.055L14.366,69.12L30.123,62.008L30.123,15.943ZM30.123,15.943"/>
</g>
  <g id="Medium-S" transform="matrix(1.0,0.0,0.0,1.0,1704.7383207702635,617.3235268676758)">  <path fill="#000000" stroke-linecap="butt" stroke-linejoin="miter" stroke-width="1px" fill-rule="evenodd" stroke-opacity="1" stroke-dasharray="none" stroke="none" clip-rule="evenodd" fill-opacity="1" stroke-miterlimit="4" d="M9.716,79.019C8.319,79.019,7.184,77.722,7.184,76.128L7.184,20.286C7.184,19.097,7.809,18.045,8.775,17.603L31.109,7.42C31.411,7.284,31.727,7.212,32.05,7.212C32.377,7.212,32.693,7.284,32.995,7.42L53.497,16.82C53.727,16.92,53.964,16.974,54.211,16.974C54.452,16.974,54.689,16.924,54.919,16.82L75.543,7.395C75.845,7.255,76.165,7.183,76.488,7.183C77.885,7.183,79.02,8.48,79.02,10.074L79.02,65.69C79.02,66.868,78.399,67.92,77.44,68.366L55.271,78.663C54.966,78.804,54.643,78.875,54.312,78.875C53.989,78.875,53.673,78.807,53.375,78.674L32.65,69.271C32.427,69.17,32.19,69.116,31.946,69.116C31.702,69.116,31.457,69.17,31.231,69.278L10.672,78.804C10.366,78.947,10.043,79.019,9.716,79.019ZM56.126,24.162L56.169,70.184L71.879,63.19L71.836,16.957L56.126,24.162ZM52.534,24.197L33.716,15.728L33.716,61.792L52.534,70.474L52.534,24.197ZM30.123,15.943L14.366,23.055L14.366,69.12L30.123,62.008L30.123,15.943ZM30.123,15.943"/>
</g>
  <g id="Regular-S" transform="matrix(1.0,0.0,0.0,1.0,1408.0283207702635,617.3235268676758)">  <path fill="#000000" fill-rule="evenodd" stroke-miterlimit="4" stroke-opacity="1" clip-rule="evenodd" stroke="none" stroke-linejoin="miter" fill-opacity="1" stroke-linecap="butt" stroke-width="1px" stroke-dasharray="none" d="M9.716,79.019C8.319,79.019,7.184,77.722,7.184,76.128L7.184,20.286C7.184,19.097,7.809,18.045,8.775,17.603L31.109,7.42C31.411,7.284,31.727,7.212,32.05,7.212C32.377,7.212,32.693,7.284,32.995,7.42L53.497,16.82C53.727,16.92,53.964,16.974,54.211,16.974C54.452,16.974,54.689,16.924,54.919,16.82L75.543,7.395C75.845,7.255,76.165,7.183,76.488,7.183C77.885,7.183,79.02,8.48,79.02,10.074L79.02,65.69C79.02,66.868,78.399,67.92,77.44,68.366L55.271,78.663C54.966,78.804,54.643,78.875,54.312,78.875C53.989,78.875,53.673,78.807,53.375,78.674L32.65,69.271C32.427,69.17,32.19,69.116,31.946,69.116C31.702,69.116,31.457,69.17,31.231,69.278L10.672,78.804C10.366,78.947,10.043,79.019,9.716,79.019ZM56.126,24.162L56.169,70.184L71.879,63.19L71.836,16.957L56.126,24.162ZM52.534,24.197L33.716,15.728L33.716,61.792L52.534,70.474L52.534,24.197ZM30.123,15.943L14.366,23.055L14.366,69.12L30.123,62.008L30.123,15.943ZM30.123,15.943"/>
</g>
  <g id="Light-S" transform="matrix(1.0,0.0,0.0,1.0,1111.3183207702637,617.3235268676758)">  <path stroke-width="1px" stroke-linejoin="miter" fill="#000000" fill-opacity="1" clip-rule="evenodd" stroke="none" stroke-opacity="1" stroke-linecap="butt" stroke-dasharray="none" fill-rule="evenodd" stroke-miterlimit="4" d="M9.716,79.019C8.319,79.019,7.184,77.722,7.184,76.128L7.184,20.286C7.184,19.097,7.809,18.045,8.775,17.603L31.109,7.42C31.411,7.284,31.727,7.212,32.05,7.212C32.377,7.212,32.693,7.284,32.995,7.42L53.497,16.82C53.727,16.92,53.964,16.974,54.211,16.974C54.452,16.974,54.689,16.924,54.919,16.82L75.543,7.395C75.845,7.255,76.165,7.183,76.488,7.183C77.885,7.183,79.02,8.48,79.02,10.074L79.02,65.69C79.02,66.868,78.399,67.92,77.44,68.366L55.271,78.663C54.966,78.804,54.643,78.875,54.312,78.875C53.989,78.875,53.673,78.807,53.375,78.674L32.65,69.271C32.427,69.17,32.19,69.116,31.946,69.116C31.702,69.116,31.457,69.17,31.231,69.278L10.672,78.804C10.366,78.947,10.043,79.019,9.716,79.019ZM56.126,24.162L56.169,70.184L71.879,63.19L71.836,16.957L56.126,24.162ZM52.534,24.197L33.716,15.728L33.716,61.792L52.534,70.474L52.534,24.197ZM30.123,15.943L14.366,23.055L14.366,69.12L30.123,62.008L30.123,15.943ZM30.123,15.943"/>
</g>
  <g id="Thin-S" transform="matrix(1.0,0.0,0.0,1.0,814.6083207702637,617.3235268676758)">  <path stroke-opacity="1" clip-rule="evenodd" stroke-linejoin="miter" fill="#000000" stroke-dasharray="none" stroke="none" stroke-width="1px" stroke-miterlimit="4" fill-opacity="1" fill-rule="evenodd" stroke-linecap="butt" d="M9.716,79.019C8.319,79.019,7.184,77.722,7.184,76.128L7.184,20.286C7.184,19.097,7.809,18.045,8.775,17.603L31.109,7.42C31.411,7.284,31.727,7.212,32.05,7.212C32.377,7.212,32.693,7.284,32.995,7.42L53.497,16.82C53.727,16.92,53.964,16.974,54.211,16.974C54.452,16.974,54.689,16.924,54.919,16.82L75.543,7.395C75.845,7.255,76.165,7.183,76.488,7.183C77.885,7.183,79.02,8.48,79.02,10.074L79.02,65.69C79.02,66.868,78.399,67.92,77.44,68.366L55.271,78.663C54.966,78.804,54.643,78.875,54.312,78.875C53.989,78.875,53.673,78.807,53.375,78.674L32.65,69.271C32.427,69.17,32.19,69.116,31.946,69.116C31.702,69.116,31.457,69.17,31.231,69.278L10.672,78.804C10.366,78.947,10.043,79.019,9.716,79.019ZM56.126,24.162L56.169,70.184L71.879,63.19L71.836,16.957L56.126,24.162ZM52.534,24.197L33.716,15.728L33.716,61.792L52.534,70.474L52.534,24.197ZM30.123,15.943L14.366,23.055L14.366,69.12L30.123,62.008L30.123,15.943ZM30.123,15.943"/>
</g>
  <g id="Ultralight-S" transform="matrix(1.0,0.0,0.0,1.0,517.8983207702637,617.3235268676758)">  <path fill-opacity="1" stroke-miterlimit="4" stroke-linecap="butt" fill="#000000" stroke-opacity="1" stroke="none" fill-rule="evenodd" stroke-linejoin="miter" clip-rule="evenodd" stroke-width="1px" stroke-dasharray="none" d="M9.716,79.019C8.319,79.019,7.184,77.722,7.184,76.128L7.184,20.286C7.184,19.097,7.809,18.045,8.775,17.603L31.109,7.42C31.411,7.284,31.727,7.212,32.05,7.212C32.377,7.212,32.693,7.284,32.995,7.42L53.497,16.82C53.727,16.92,53.964,16.974,54.211,16.974C54.452,16.974,54.689,16.924,54.919,16.82L75.543,7.395C75.845,7.255,76.165,7.183,76.488,7.183C77.885,7.183,79.02,8.48,79.02,10.074L79.02,65.69C79.02,66.868,78.399,67.92,77.44,68.366L55.271,78.663C54.966,78.804,54.643,78.875,54.312,78.875C53.989,78.875,53.673,78.807,53.375,78.674L32.65,69.271C32.427,69.17,32.19,69.116,31.946,69.116C31.702,69.116,31.457,69.17,31.231,69.278L10.672,78.804C10.366,78.947,10.043,79.019,9.716,79.019ZM56.126,24.162L56.169,70.184L71.879,63.19L71.836,16.957L56.126,24.162ZM52.534,24.197L33.716,15.728L33.716,61.792L52.534,70.474L52.534,24.197ZM30.123,15.943L14.366,23.055L14.366,69.12L30.123,62.008L30.123,15.943ZM30.123,15.943"/>
</g>
 </g>
</svg>
