<?xml version="1.0" encoding="UTF-8"?>
<!-- Generator: CustomSymbols v2.6.1.40 by @serious_bret https://bretlester.com/app_content/CustomSymbols/ -->
<!-- Guides: Left/Right 0.082/0.084 Cap/Base 0.178/0.166 -->
<!-- Settings: RefScale 1.0 Min/Max Stroke Scales 0.5/2.21 -->
<!DOCTYPE svg
PUBLIC "-//W3C//DTD SVG 1.1//EN"
       "http://www.w3.org/Graphics/SVG/1.1/DTD/svg11.dtd">
<svg version="1.1" xmlns="http://www.w3.org/2000/svg" xmlns:xlink="http://www.w3.org/1999/xlink" width="3300" height="2200">
<![CDATA[<svg width="24" height="24" viewBox="0 0 24 24" fill="none" xmlns="http://www.w3.org/2000/svg">
<path fill-rule="evenodd" clip-rule="evenodd" d="M20.6591 6.98042C19.7649 5.4484 18.5519 4.23538 17.0199 3.3412C15.4876 2.44701 13.8147 2 12.0003 2C10.1861 2 8.51276 2.44701 6.98074 3.3412C5.44856 4.23522 4.23554 5.44824 3.34136 6.98042C2.44701 8.5126 2 10.1859 2 12C2 13.8143 2.44717 15.4872 3.3412 17.0196C4.23538 18.5514 5.4484 19.7646 6.98058 20.6588C8.51276 21.553 10.1859 22 12.0002 22C13.8144 22 15.4877 21.553 17.0197 20.6588C18.5518 19.7648 19.7648 18.5516 20.659 17.0196C21.553 15.4874 22 13.8141 22 12C22 10.1857 21.553 8.51244 20.6591 6.98042ZM17.8335 12.8333C17.8335 13.059 17.7511 13.2546 17.5861 13.4193C17.4212 13.5841 17.2259 13.6667 17.0002 13.6667H7.00008C6.77442 13.6667 6.57912 13.5841 6.41419 13.4193C6.24925 13.2546 6.16679 13.059 6.16679 12.8333V11.1665C6.16679 10.9409 6.24925 10.7456 6.41419 10.5807C6.57912 10.4157 6.77442 10.3333 7.00008 10.3333H17.0002C17.2259 10.3333 17.4212 10.4157 17.5861 10.5807C17.7511 10.7456 17.8335 10.9409 17.8335 11.1665V12.8333Z" fill="black"/>
</svg>
]]>
 <g id="Notes">
  <rect height="2200" id="artboard" style="fill:white;opacity:1" width="3300" x="0" y="0"/>
  <line id="" style="fill:none;stroke:black;opacity:1;stroke-width:0.5;" x1="263" x2="3036" y1="292" y2="292"/>
  <text id="reftext1" style="stroke:none;fill:black;font-family:-apple-system,&quot;SF Pro Display&quot;,&quot;SF Pro Text&quot;,Helvetica,sans-serif;font-weight:bold;" transform="matrix(1 0 0 1 263 322)">Weight/Scale Variations</text>
  <text id="reftext2" style="stroke:none;fill:black;font-family:-apple-system,&quot;SF Pro Display&quot;,&quot;SF Pro Text&quot;,Helvetica,sans-serif;text-anchor:middle;" transform="matrix(1 0 0 1 559.711 322)">Ultralight</text>
  <text style="stroke:none;fill:black;font-family:-apple-system,&quot;SF Pro Display&quot;,&quot;SF Pro Text&quot;,Helvetica,sans-serif;text-anchor:middle;" transform="matrix(1 0 0 1 856.422 322)">Thin</text>
  <text style="stroke:none;fill:black;font-family:-apple-system,&quot;SF Pro Display&quot;,&quot;SF Pro Text&quot;,Helvetica,sans-serif;text-anchor:middle;" transform="matrix(1 0 0 1 1153.13 322)">Light</text>
  <text style="stroke:none;fill:black;font-family:-apple-system,&quot;SF Pro Display&quot;,&quot;SF Pro Text&quot;,Helvetica,sans-serif;text-anchor:middle;" transform="matrix(1 0 0 1 1449.84 322)">Regular</text>
  <text style="stroke:none;fill:black;font-family:-apple-system,&quot;SF Pro Display&quot;,&quot;SF Pro Text&quot;,Helvetica,sans-serif;text-anchor:middle;" transform="matrix(1 0 0 1 1746.56 322)">Medium</text>
  <text style="stroke:none;fill:black;font-family:-apple-system,&quot;SF Pro Display&quot;,&quot;SF Pro Text&quot;,Helvetica,sans-serif;text-anchor:middle;" transform="matrix(1 0 0 1 2043.27 322)">Semibold</text>
  <text style="stroke:none;fill:black;font-family:-apple-system,&quot;SF Pro Display&quot;,&quot;SF Pro Text&quot;,Helvetica,sans-serif;text-anchor:middle;" transform="matrix(1 0 0 1 2339.98 322)">Bold</text>
  <text style="stroke:none;fill:black;font-family:-apple-system,&quot;SF Pro Display&quot;,&quot;SF Pro Text&quot;,Helvetica,sans-serif;text-anchor:middle;" transform="matrix(1 0 0 1 2636.69 322)">Heavy</text>
  <text style="stroke:none;fill:black;font-family:-apple-system,&quot;SF Pro Display&quot;,&quot;SF Pro Text&quot;,Helvetica,sans-serif;text-anchor:middle;" transform="matrix(1 0 0 1 2933.4 322)">Black</text>
  <line id="" style="fill:none;stroke:black;opacity:1;stroke-width:0.5;" x1="263" x2="3036" y1="1903" y2="1903"/>
  <g id="" transform="matrix(1 0 0 1 263 1933)">
   <path d="M9.24805 0.830078C13.5547 0.830078 17.1387-2.74414 17.1387-7.05078C17.1387-11.3574 13.5449-14.9316 9.23828-14.9316C4.94141-14.9316 1.36719-11.3574 1.36719-7.05078C1.36719-2.74414 4.95117 0.830078 9.24805 0.830078ZM9.24805-0.654297C5.70312-0.654297 2.87109-3.49609 2.87109-7.05078C2.87109-10.6055 5.69336-13.4473 9.23828-13.4473C12.793-13.4473 15.6348-10.6055 15.6445-7.05078C15.6543-3.49609 12.8027-0.654297 9.24805-0.654297ZM6.39648-6.31836L8.50586-6.31836L8.50586-4.19922C8.50586-3.75977 8.79883-3.45703 9.22852-3.45703C9.67773-3.45703 9.9707-3.75977 9.9707-4.19922L9.9707-6.31836L12.0996-6.31836C12.5391-6.31836 12.8418-6.61133 12.8418-7.04102C12.8418-7.48047 12.5391-7.7832 12.0996-7.7832L9.9707-7.7832L9.9707-9.89258C9.9707-10.3418 9.67773-10.6445 9.22852-10.6445C8.79883-10.6445 8.50586-10.3418 8.50586-9.89258L8.50586-7.7832L6.39648-7.7832C5.94727-7.7832 5.64453-7.48047 5.64453-7.04102C5.64453-6.61133 5.94727-6.31836 6.39648-6.31836Z"/>
  </g>
  <g id="" transform="matrix(1 0 0 1 281.506 1933)">
   <path d="M11.709 2.91016C17.1582 2.91016 21.6699-1.61133 21.6699-7.05078C21.6699-12.5 17.1484-17.0117 11.6992-17.0117C6.25977-17.0117 1.74805-12.5 1.74805-7.05078C1.74805-1.61133 6.26953 2.91016 11.709 2.91016ZM11.709 1.25C7.09961 1.25 3.41797-2.44141 3.41797-7.05078C3.41797-11.6602 7.08984-15.3516 11.6992-15.3516C16.3086-15.3516 20-11.6602 20.0098-7.05078C20.0195-2.44141 16.3184 1.25 11.709 1.25ZM7.98828-6.23047L10.8789-6.23047L10.8789-3.32031C10.8789-2.83203 11.2109-2.5 11.6895-2.5C12.1777-2.5 12.5195-2.83203 12.5195-3.32031L12.5195-6.23047L15.4297-6.23047C15.918-6.23047 16.25-6.5625 16.25-7.04102C16.25-7.5293 15.918-7.87109 15.4297-7.87109L12.5195-7.87109L12.5195-10.7617C12.5195-11.2695 12.1777-11.6016 11.6895-11.6016C11.2109-11.6016 10.8789-11.2598 10.8789-10.7617L10.8789-7.87109L7.98828-7.87109C7.48047-7.87109 7.14844-7.5293 7.14844-7.04102C7.14844-6.5625 7.49023-6.23047 7.98828-6.23047Z"/>
  </g>
  <g id="" transform="matrix(1 0 0 1 304.924 1933)">
   <path d="M14.9707 5.66406C21.9336 5.66406 27.6953-0.0976562 27.6953-7.05078C27.6953-14.0137 21.9238-19.7754 14.9609-19.7754C8.00781-19.7754 2.25586-14.0137 2.25586-7.05078C2.25586-0.0976562 8.01758 5.66406 14.9707 5.66406ZM14.9707 3.84766C8.93555 3.84766 4.08203-1.01562 4.08203-7.05078C4.08203-13.0957 8.92578-17.9492 14.9609-17.9492C21.0059-17.9492 25.8594-13.0957 25.8691-7.05078C25.8789-1.01562 21.0156 3.84766 14.9707 3.84766ZM10.0586-6.14258L14.0625-6.14258L14.0625-2.12891C14.0625-1.5918 14.4336-1.2207 14.9512-1.2207C15.4883-1.2207 15.8594-1.5918 15.8594-2.12891L15.8594-6.14258L19.8828-6.14258C20.4102-6.14258 20.791-6.51367 20.791-7.03125C20.791-7.56836 20.4199-7.94922 19.8828-7.94922L15.8594-7.94922L15.8594-11.9531C15.8594-12.5098 15.4883-12.8809 14.9512-12.8809C14.4336-12.8809 14.0625-12.5 14.0625-11.9531L14.0625-7.94922L10.0586-7.94922C9.50195-7.94922 9.13086-7.56836 9.13086-7.03125C9.13086-6.51367 9.51172-6.14258 10.0586-6.14258Z"/>
  </g>
  <text style="stroke:none;fill:black;font-family:-apple-system,&quot;SF Pro Display&quot;,&quot;SF Pro Text&quot;,Helvetica,sans-serif;font-weight:bold;" transform="matrix(1 0 0 1 263 1953)">Design Variations</text>
  <text style="stroke:none;fill:black;font-family:-apple-system,&quot;SF Pro Display&quot;,&quot;SF Pro Text&quot;,Helvetica,sans-serif;" transform="matrix(1 0 0 1 263 1971)">Symbols are supported in up to nine weights and three scales.</text>
  <text style="stroke:none;fill:black;font-family:-apple-system,&quot;SF Pro Display&quot;,&quot;SF Pro Text&quot;,Helvetica,sans-serif;" transform="matrix(1 0 0 1 263 1989)">For optimal layout with text and other symbols, vertically align</text>
  <text style="stroke:none;fill:black;font-family:-apple-system,&quot;SF Pro Display&quot;,&quot;SF Pro Text&quot;,Helvetica,sans-serif;" transform="matrix(1 0 0 1 263 2007)">symbols with the adjacent text.</text>
  <line id="" style="fill:none;stroke:#00AEEF;stroke-width:0.5;opacity:1.0;" x1="776" x2="776" y1="1919" y2="1933"/>
  <g id="" transform="matrix(1 0 0 1 776 1933)">
   <path d="M3.31055 0.126953C3.82812 0.126953 4.08203-0.0683594 4.26758-0.605469L5.52734-4.0625L11.2891-4.0625L12.5488-0.605469C12.7344-0.0683594 12.9883 0.126953 13.4961 0.126953C14.0137 0.126953 14.3457-0.185547 14.3457-0.673828C14.3457-0.839844 14.3164-0.986328 14.2383-1.20117L9.6582-13.3887C9.43359-13.9941 9.0332-14.2871 8.4082-14.2871C7.80273-14.2871 7.39258-13.9941 7.17773-13.3984L2.59766-1.19141C2.51953-0.976562 2.49023-0.830078 2.49023-0.664062C2.49023-0.175781 2.80273 0.126953 3.31055 0.126953ZM6.00586-5.53711L8.37891-12.1094L8.42773-12.1094L10.8008-5.53711Z"/>
  </g>
  <line id="" style="fill:none;stroke:#00AEEF;stroke-width:0.5;opacity:1.0;" x1="792.836" x2="792.836" y1="1919" y2="1933"/>
  <text style="stroke:none;fill:black;font-family:-apple-system,&quot;SF Pro Display&quot;,&quot;SF Pro Text&quot;,Helvetica,sans-serif;font-weight:bold;" transform="matrix(1 0 0 1 776 1953)">Margins</text>
  <text style="stroke:none;fill:black;font-family:-apple-system,&quot;SF Pro Display&quot;,&quot;SF Pro Text&quot;,Helvetica,sans-serif;" transform="matrix(1 0 0 1 776 1971)">Leading and trailing margins on the left and right side of each symbol</text>
  <text style="stroke:none;fill:black;font-family:-apple-system,&quot;SF Pro Display&quot;,&quot;SF Pro Text&quot;,Helvetica,sans-serif;" transform="matrix(1 0 0 1 776 1989)">can be adjusted by modifying the x-location of the margin guidelines.</text>
  <text style="stroke:none;fill:black;font-family:-apple-system,&quot;SF Pro Display&quot;,&quot;SF Pro Text&quot;,Helvetica,sans-serif;" transform="matrix(1 0 0 1 776 2007)">Modifications are automatically applied proportionally to all</text>
  <text style="stroke:none;fill:black;font-family:-apple-system,&quot;SF Pro Display&quot;,&quot;SF Pro Text&quot;,Helvetica,sans-serif;" transform="matrix(1 0 0 1 776 2025)">scales and weights.</text>
  <g id="" transform="matrix(1 0 0 1 1289 1933)">
   <path d="M2.8418 1.86523L4.54102 3.57422C5.40039 4.44336 6.38672 4.38477 7.31445 3.35938L17.4902-7.85156C17.7539-7.76367 18.0273-7.7832 18.3398-7.8418L19.4043-8.03711L20.0684-7.36328L20.0293-6.80664C19.9902-6.30859 20.1172-5.92773 20.6055-5.44922L21.3672-4.70703C21.8457-4.22852 22.4609-4.19922 22.9297-4.66797L25.8398-7.58789C26.3086-8.05664 26.2891-8.65234 25.8105-9.13086L25.0391-9.89258C24.5605-10.3711 24.1895-10.5273 23.7109-10.4883L23.1348-10.4395L22.4902-11.0742L22.7344-12.1973C22.8613-12.7637 22.7051-13.2031 22.1191-13.7891L19.9219-15.9766C16.582-19.2969 12.1484-19.2188 9.25781-16.3281C8.83789-15.918 8.80859-15.3418 9.04297-14.9512C9.27734-14.5898 9.73633-14.3555 10.3809-14.5215C11.8457-14.8633 13.3691-14.9219 14.7949-13.9844L14.209-12.5293C14.0137-12.0508 13.9844-11.6504 14.1113-11.2891L3.04688-0.898438C2.06055 0.0195312 1.98242 0.996094 2.8418 1.86523ZM10.752-15.957C13.1836-17.7344 16.4746-17.4316 18.7012-15.2051L21.1328-12.793C21.3672-12.5586 21.4062-12.373 21.3379-12.0312L21.0156-10.5469L22.5195-9.0625L23.5059-9.12109C23.7598-9.13086 23.8379-9.11133 24.0332-8.91602L24.6094-8.33984L22.168-5.89844L21.5918-6.47461C21.3965-6.66992 21.3672-6.74805 21.377-7.01172L21.4453-7.98828L19.9512-9.47266L18.4277-9.21875C18.1055-9.15039 17.959-9.17969 17.7148-9.41406L15.7129-11.416C15.459-11.6504 15.4297-11.8164 15.5859-12.1875L16.4648-14.2773C14.9023-15.7324 12.8711-16.3574 10.8398-15.7617C10.6836-15.7227 10.625-15.8496 10.752-15.957ZM5.27344 2.30469L4.10156 1.14258C3.63281 0.683594 3.74023 0.341797 4.14062-0.0195312L14.9512-10.1953L16.416-8.71094L6.42578 2.27539C6.07422 2.67578 5.74219 2.77344 5.27344 2.30469Z"/>
  </g>
  <text style="stroke:none;fill:black;font-family:-apple-system,&quot;SF Pro Display&quot;,&quot;SF Pro Text&quot;,Helvetica,sans-serif;font-weight:bold;" transform="matrix(1 0 0 1 1289 1953)">Exporting</text>
  <text style="stroke:none;fill:black;font-family:-apple-system,&quot;SF Pro Display&quot;,&quot;SF Pro Text&quot;,Helvetica,sans-serif;" transform="matrix(1 0 0 1 1289 1971)">Symbols should be outlined when exporting to ensure the</text>
  <text style="stroke:none;fill:black;font-family:-apple-system,&quot;SF Pro Display&quot;,&quot;SF Pro Text&quot;,Helvetica,sans-serif;" transform="matrix(1 0 0 1 1289 1989)">design is preserved when submitting to Xcode.</text>
  <text id="template-version" style="stroke:none;fill:black;font-family:-apple-system,&quot;SF Pro Display&quot;,&quot;SF Pro Text&quot;,Helvetica,sans-serif;text-anchor:end;" transform="matrix(1 0 0 1 3036 1933)">Template v.2.0</text>
  <text style="stroke:none;fill:black;font-family:-apple-system,&quot;SF Pro Display&quot;,&quot;SF Pro Text&quot;,Helvetica,sans-serif;text-anchor:end;" transform="matrix(1 0 0 1 3036 1951)">Requires Xcode 12 or greater</text>
  <text style="stroke:none;fill:black;font-family:-apple-system,&quot;SF Pro Display&quot;,&quot;SF Pro Text&quot;,Helvetica,sans-serif;" transform="matrix(1 0 0 1 263 726)">Small</text>
  <text style="stroke:none;fill:black;font-family:-apple-system,&quot;SF Pro Display&quot;,&quot;SF Pro Text&quot;,Helvetica,sans-serif;" transform="matrix(1 0 0 1 263 1156)">Medium</text>
  <text style="stroke:none;fill:black;font-family:-apple-system,&quot;SF Pro Display&quot;,&quot;SF Pro Text&quot;,Helvetica,sans-serif;" transform="matrix(1 0 0 1 263 1586)">Large</text>
 </g>
 <g id="Guides">
  <g id="H-reference" style="fill:#27AAE1;stroke:none;" transform="matrix(1 0 0 1 339 696)">
   <path d="M0.976562 0L3.66211 0L12.9883-24.4629L45.752-24.4629L55.127 0L57.7637 0L30.6152-70.459L28.125-70.459ZM29.3457-67.1387L29.4434-67.1387L44.873-26.709L13.8672-26.709Z"/>
  </g>
  <line id="Baseline-S" style="fill:none;stroke:#27AAE1;opacity:1;stroke-width:0.5;" x1="263" x2="3036" y1="696" y2="696"/>
  <line id="Capline-S" style="fill:none;stroke:#27AAE1;opacity:1;stroke-width:0.5;" x1="263" x2="3036" y1="625.541" y2="625.541"/>
  <g id="H-reference" style="fill:#27AAE1;stroke:none;" transform="matrix(1 0 0 1 339 1126)">
   <path d="M0.976562 0L3.66211 0L12.9883-24.4629L45.752-24.4629L55.127 0L57.7637 0L30.6152-70.459L28.125-70.459ZM29.3457-67.1387L29.4434-67.1387L44.873-26.709L13.8672-26.709Z"/>
  </g>
  <line id="Baseline-M" style="fill:none;stroke:#27AAE1;opacity:1;stroke-width:0.5;" x1="263" x2="3036" y1="1126" y2="1126"/>
  <line id="Capline-M" style="fill:none;stroke:#27AAE1;opacity:1;stroke-width:0.5;" x1="263" x2="3036" y1="1055.54" y2="1055.54"/>
  <g id="H-reference" style="fill:#27AAE1;stroke:none;" transform="matrix(1 0 0 1 339 1556)">
   <path d="M0.976562 0L3.66211 0L12.9883-24.4629L45.752-24.4629L55.127 0L57.7637 0L30.6152-70.459L28.125-70.459ZM29.3457-67.1387L29.4434-67.1387L44.873-26.709L13.8672-26.709Z"/>
  </g>
  <line id="Baseline-L" style="fill:none;stroke:#27AAE1;opacity:1;stroke-width:0.5;" x1="263" x2="3036" y1="1556" y2="1556"/>
  <line id="Capline-L" style="fill:none;stroke:#27AAE1;opacity:1;stroke-width:0.5;" x1="263" x2="3036" y1="1485.54" y2="1485.54"/>
  <line id="left-margin" x1="1406.2332565977515" x2="1406.2332565977515" y1="1030.79" y2="1150.12" style="fill:none;stroke:#00AEEF;stroke-width:0.5;opacity:1.0;"/>
  <line id="right-margin" x1="1495.8119264481704" x2="1495.8119264481704" y1="1030.79" y2="1150.12" style="fill:none;stroke:#00AEEF;stroke-width:0.5;opacity:1.0;"/>
 </g>
 <g id="Symbols">
  <g id="Black-L" transform="matrix(1.0,0.0,0.0,1.0,2865.4015323099275,1450.6602102288966)">  <path fill="#000000" stroke-miterlimit="4" clip-rule="evenodd" stroke-opacity="1" stroke-linecap="butt" stroke-linejoin="miter" fill-opacity="1" stroke-dasharray="none" stroke-width="1px" fill-rule="evenodd" stroke="none" d="M119.269,40.299C114.107,31.455,107.104,24.452,98.259,19.289C89.413,14.127,79.755,11.546,69.28,11.546C58.806,11.546,49.146,14.127,40.301,19.289C31.456,24.451,24.453,31.454,19.29,40.299C14.127,49.145,11.546,58.805,11.546,69.278C11.546,79.753,14.128,89.411,19.289,98.258C24.452,107.101,31.455,114.105,40.3,119.268C49.146,124.43,58.805,127.011,69.28,127.011C79.753,127.011,89.414,124.43,98.258,119.268C107.103,114.106,114.106,107.102,119.269,98.258C124.43,89.412,127.011,79.752,127.011,69.278C127.011,58.804,124.43,49.144,119.269,40.299ZM102.956,74.089C102.956,75.392,102.481,76.522,101.528,77.472C100.576,78.424,99.449,78.901,98.146,78.901L40.413,78.901C39.11,78.901,37.983,78.424,37.03,77.472C36.078,76.522,35.602,75.392,35.602,74.089L35.602,64.467C35.602,63.164,36.078,62.037,37.03,61.085C37.983,60.132,39.11,59.656,40.413,59.656L98.146,59.656C99.449,59.656,100.576,60.132,101.528,61.085C102.481,62.037,102.956,63.164,102.956,64.467L102.956,74.089ZM102.956,74.089"/>
</g>
  <g id="Heavy-L" transform="matrix(1.0,0.0,0.0,1.0,2568.6915323099274,1450.6602102288966)">  <path stroke-miterlimit="4" stroke-width="1px" stroke="none" fill-rule="evenodd" stroke-opacity="1" stroke-dasharray="none" fill-opacity="1" fill="#000000" stroke-linecap="butt" clip-rule="evenodd" stroke-linejoin="miter" d="M119.269,40.299C114.107,31.455,107.104,24.452,98.259,19.289C89.413,14.127,79.755,11.546,69.28,11.546C58.806,11.546,49.146,14.127,40.301,19.289C31.456,24.451,24.453,31.454,19.29,40.299C14.127,49.145,11.546,58.805,11.546,69.278C11.546,79.753,14.128,89.411,19.289,98.258C24.452,107.101,31.455,114.105,40.3,119.268C49.146,124.43,58.805,127.011,69.28,127.011C79.753,127.011,89.414,124.43,98.258,119.268C107.103,114.106,114.106,107.102,119.269,98.258C124.43,89.412,127.011,79.752,127.011,69.278C127.011,58.804,124.43,49.144,119.269,40.299ZM102.956,74.089C102.956,75.392,102.481,76.522,101.528,77.472C100.576,78.424,99.449,78.901,98.146,78.901L40.413,78.901C39.11,78.901,37.983,78.424,37.03,77.472C36.078,76.522,35.602,75.392,35.602,74.089L35.602,64.467C35.602,63.164,36.078,62.037,37.03,61.085C37.983,60.132,39.11,59.656,40.413,59.656L98.146,59.656C99.449,59.656,100.576,60.132,101.528,61.085C102.481,62.037,102.956,63.164,102.956,64.467L102.956,74.089ZM102.956,74.089"/>
</g>
  <g id="Bold-L" transform="matrix(1.0,0.0,0.0,1.0,2271.9815323099274,1450.6602102288966)">  <path stroke-opacity="1" fill="#000000" fill-rule="evenodd" stroke-linejoin="miter" stroke="none" fill-opacity="1" stroke-dasharray="none" stroke-width="1px" stroke-linecap="butt" clip-rule="evenodd" stroke-miterlimit="4" d="M119.269,40.299C114.107,31.455,107.104,24.452,98.259,19.289C89.413,14.127,79.755,11.546,69.28,11.546C58.806,11.546,49.146,14.127,40.301,19.289C31.456,24.451,24.453,31.454,19.29,40.299C14.127,49.145,11.546,58.805,11.546,69.278C11.546,79.753,14.128,89.411,19.289,98.258C24.452,107.101,31.455,114.105,40.3,119.268C49.146,124.43,58.805,127.011,69.28,127.011C79.753,127.011,89.414,124.43,98.258,119.268C107.103,114.106,114.106,107.102,119.269,98.258C124.43,89.412,127.011,79.752,127.011,69.278C127.011,58.804,124.43,49.144,119.269,40.299ZM102.956,74.089C102.956,75.392,102.481,76.522,101.528,77.472C100.576,78.424,99.449,78.901,98.146,78.901L40.413,78.901C39.11,78.901,37.983,78.424,37.03,77.472C36.078,76.522,35.602,75.392,35.602,74.089L35.602,64.467C35.602,63.164,36.078,62.037,37.03,61.085C37.983,60.132,39.11,59.656,40.413,59.656L98.146,59.656C99.449,59.656,100.576,60.132,101.528,61.085C102.481,62.037,102.956,63.164,102.956,64.467L102.956,74.089ZM102.956,74.089"/>
</g>
  <g id="Semibold-L" transform="matrix(1.0,0.0,0.0,1.0,1975.2715323099276,1450.6602102288966)">  <path stroke-linecap="butt" stroke-miterlimit="4" fill="#000000" stroke="none" fill-opacity="1" stroke-opacity="1" clip-rule="evenodd" stroke-dasharray="none" fill-rule="evenodd" stroke-width="1px" stroke-linejoin="miter" d="M119.269,40.299C114.107,31.455,107.104,24.452,98.259,19.289C89.413,14.127,79.755,11.546,69.28,11.546C58.806,11.546,49.146,14.127,40.301,19.289C31.456,24.451,24.453,31.454,19.29,40.299C14.127,49.145,11.546,58.805,11.546,69.278C11.546,79.753,14.128,89.411,19.289,98.258C24.452,107.101,31.455,114.105,40.3,119.268C49.146,124.43,58.805,127.011,69.28,127.011C79.753,127.011,89.414,124.43,98.258,119.268C107.103,114.106,114.106,107.102,119.269,98.258C124.43,89.412,127.011,79.752,127.011,69.278C127.011,58.804,124.43,49.144,119.269,40.299ZM102.956,74.089C102.956,75.392,102.481,76.522,101.528,77.472C100.576,78.424,99.449,78.901,98.146,78.901L40.413,78.901C39.11,78.901,37.983,78.424,37.03,77.472C36.078,76.522,35.602,75.392,35.602,74.089L35.602,64.467C35.602,63.164,36.078,62.037,37.03,61.085C37.983,60.132,39.11,59.656,40.413,59.656L98.146,59.656C99.449,59.656,100.576,60.132,101.528,61.085C102.481,62.037,102.956,63.164,102.956,64.467L102.956,74.089ZM102.956,74.089"/>
</g>
  <g id="Medium-L" transform="matrix(1.0,0.0,0.0,1.0,1678.5615323099275,1450.6602102288966)">  <path stroke-miterlimit="4" fill-rule="evenodd" fill="#000000" fill-opacity="1" stroke-dasharray="none" clip-rule="evenodd" stroke-linejoin="miter" stroke-linecap="butt" stroke-opacity="1" stroke="none" stroke-width="1px" d="M119.269,40.299C114.107,31.455,107.104,24.452,98.259,19.289C89.413,14.127,79.755,11.546,69.28,11.546C58.806,11.546,49.146,14.127,40.301,19.289C31.456,24.451,24.453,31.454,19.29,40.299C14.127,49.145,11.546,58.805,11.546,69.278C11.546,79.753,14.128,89.411,19.289,98.258C24.452,107.101,31.455,114.105,40.3,119.268C49.146,124.43,58.805,127.011,69.28,127.011C79.753,127.011,89.414,124.43,98.258,119.268C107.103,114.106,114.106,107.102,119.269,98.258C124.43,89.412,127.011,79.752,127.011,69.278C127.011,58.804,124.43,49.144,119.269,40.299ZM102.956,74.089C102.956,75.392,102.481,76.522,101.528,77.472C100.576,78.424,99.449,78.901,98.146,78.901L40.413,78.901C39.11,78.901,37.983,78.424,37.03,77.472C36.078,76.522,35.602,75.392,35.602,74.089L35.602,64.467C35.602,63.164,36.078,62.037,37.03,61.085C37.983,60.132,39.11,59.656,40.413,59.656L98.146,59.656C99.449,59.656,100.576,60.132,101.528,61.085C102.481,62.037,102.956,63.164,102.956,64.467L102.956,74.089ZM102.956,74.089"/>
</g>
  <g id="Regular-L" transform="matrix(1.0,0.0,0.0,1.0,1381.8515323099275,1450.6602102288966)">  <path stroke-width="1px" stroke-opacity="1" stroke-linejoin="miter" stroke-dasharray="none" stroke-miterlimit="4" clip-rule="evenodd" fill="#000000" fill-opacity="1" stroke="none" stroke-linecap="butt" fill-rule="evenodd" d="M119.269,40.299C114.107,31.455,107.104,24.452,98.259,19.289C89.413,14.127,79.755,11.546,69.28,11.546C58.806,11.546,49.146,14.127,40.301,19.289C31.456,24.451,24.453,31.454,19.29,40.299C14.127,49.145,11.546,58.805,11.546,69.278C11.546,79.753,14.128,89.411,19.289,98.258C24.452,107.101,31.455,114.105,40.3,119.268C49.146,124.43,58.805,127.011,69.28,127.011C79.753,127.011,89.414,124.43,98.258,119.268C107.103,114.106,114.106,107.102,119.269,98.258C124.43,89.412,127.011,79.752,127.011,69.278C127.011,58.804,124.43,49.144,119.269,40.299ZM102.956,74.089C102.956,75.392,102.481,76.522,101.528,77.472C100.576,78.424,99.449,78.901,98.146,78.901L40.413,78.901C39.11,78.901,37.983,78.424,37.03,77.472C36.078,76.522,35.602,75.392,35.602,74.089L35.602,64.467C35.602,63.164,36.078,62.037,37.03,61.085C37.983,60.132,39.11,59.656,40.413,59.656L98.146,59.656C99.449,59.656,100.576,60.132,101.528,61.085C102.481,62.037,102.956,63.164,102.956,64.467L102.956,74.089ZM102.956,74.089"/>
</g>
  <g id="Light-L" transform="matrix(1.0,0.0,0.0,1.0,1085.1415323099277,1450.6602102288966)">  <path stroke-dasharray="none" stroke-width="1px" stroke-linejoin="miter" fill-rule="evenodd" stroke-opacity="1" stroke-linecap="butt" clip-rule="evenodd" stroke="none" fill="#000000" stroke-miterlimit="4" fill-opacity="1" d="M119.269,40.299C114.107,31.455,107.104,24.452,98.259,19.289C89.413,14.127,79.755,11.546,69.28,11.546C58.806,11.546,49.146,14.127,40.301,19.289C31.456,24.451,24.453,31.454,19.29,40.299C14.127,49.145,11.546,58.805,11.546,69.278C11.546,79.753,14.128,89.411,19.289,98.258C24.452,107.101,31.455,114.105,40.3,119.268C49.146,124.43,58.805,127.011,69.28,127.011C79.753,127.011,89.414,124.43,98.258,119.268C107.103,114.106,114.106,107.102,119.269,98.258C124.43,89.412,127.011,79.752,127.011,69.278C127.011,58.804,124.43,49.144,119.269,40.299ZM102.956,74.089C102.956,75.392,102.481,76.522,101.528,77.472C100.576,78.424,99.449,78.901,98.146,78.901L40.413,78.901C39.11,78.901,37.983,78.424,37.03,77.472C36.078,76.522,35.602,75.392,35.602,74.089L35.602,64.467C35.602,63.164,36.078,62.037,37.03,61.085C37.983,60.132,39.11,59.656,40.413,59.656L98.146,59.656C99.449,59.656,100.576,60.132,101.528,61.085C102.481,62.037,102.956,63.164,102.956,64.467L102.956,74.089ZM102.956,74.089"/>
</g>
  <g id="Thin-L" transform="matrix(1.0,0.0,0.0,1.0,788.4315323099277,1450.6602102288966)">  <path stroke-linejoin="miter" stroke-opacity="1" fill-rule="evenodd" clip-rule="evenodd" fill="#000000" stroke-width="1px" stroke-dasharray="none" stroke="none" fill-opacity="1" stroke-linecap="butt" stroke-miterlimit="4" d="M119.269,40.299C114.107,31.455,107.104,24.452,98.259,19.289C89.413,14.127,79.755,11.546,69.28,11.546C58.806,11.546,49.146,14.127,40.301,19.289C31.456,24.451,24.453,31.454,19.29,40.299C14.127,49.145,11.546,58.805,11.546,69.278C11.546,79.753,14.128,89.411,19.289,98.258C24.452,107.101,31.455,114.105,40.3,119.268C49.146,124.43,58.805,127.011,69.28,127.011C79.753,127.011,89.414,124.43,98.258,119.268C107.103,114.106,114.106,107.102,119.269,98.258C124.43,89.412,127.011,79.752,127.011,69.278C127.011,58.804,124.43,49.144,119.269,40.299ZM102.956,74.089C102.956,75.392,102.481,76.522,101.528,77.472C100.576,78.424,99.449,78.901,98.146,78.901L40.413,78.901C39.11,78.901,37.983,78.424,37.03,77.472C36.078,76.522,35.602,75.392,35.602,74.089L35.602,64.467C35.602,63.164,36.078,62.037,37.03,61.085C37.983,60.132,39.11,59.656,40.413,59.656L98.146,59.656C99.449,59.656,100.576,60.132,101.528,61.085C102.481,62.037,102.956,63.164,102.956,64.467L102.956,74.089ZM102.956,74.089"/>
</g>
  <g id="Ultralight-L" transform="matrix(1.0,0.0,0.0,1.0,491.7215323099276,1450.6602102288966)">  <path stroke-opacity="1" stroke-dasharray="none" stroke-linejoin="miter" fill-rule="evenodd" clip-rule="evenodd" stroke-linecap="butt" fill-opacity="1" stroke-width="1px" stroke="none" stroke-miterlimit="4" fill="#000000" d="M119.269,40.299C114.107,31.455,107.104,24.452,98.259,19.289C89.413,14.127,79.755,11.546,69.28,11.546C58.806,11.546,49.146,14.127,40.301,19.289C31.456,24.451,24.453,31.454,19.29,40.299C14.127,49.145,11.546,58.805,11.546,69.278C11.546,79.753,14.128,89.411,19.289,98.258C24.452,107.101,31.455,114.105,40.3,119.268C49.146,124.43,58.805,127.011,69.28,127.011C79.753,127.011,89.414,124.43,98.258,119.268C107.103,114.106,114.106,107.102,119.269,98.258C124.43,89.412,127.011,79.752,127.011,69.278C127.011,58.804,124.43,49.144,119.269,40.299ZM102.956,74.089C102.956,75.392,102.481,76.522,101.528,77.472C100.576,78.424,99.449,78.901,98.146,78.901L40.413,78.901C39.11,78.901,37.983,78.424,37.03,77.472C36.078,76.522,35.602,75.392,35.602,74.089L35.602,64.467C35.602,63.164,36.078,62.037,37.03,61.085C37.983,60.132,39.11,59.656,40.413,59.656L98.146,59.656C99.449,59.656,100.576,60.132,101.528,61.085C102.481,62.037,102.956,63.164,102.956,64.467L102.956,74.089ZM102.956,74.089"/>
</g>
  <g id="Black-M" transform="matrix(1.0,0.0,0.0,1.0,2880.975761480564,1036.4213301495809)">  <path fill="#000000" stroke-miterlimit="4" clip-rule="evenodd" stroke-opacity="1" stroke-linecap="butt" stroke-linejoin="miter" fill-opacity="1" stroke-dasharray="none" stroke-width="1px" fill-rule="evenodd" stroke="none" d="M92.457,31.24C88.455,24.384,83.026,18.955,76.17,14.953C69.312,10.951,61.826,8.951,53.706,8.951C45.586,8.951,38.098,10.951,31.241,14.953C24.384,18.954,18.956,24.383,14.954,31.24C10.951,38.097,8.951,45.585,8.951,53.704C8.951,61.824,10.952,69.311,14.953,76.169C18.955,83.024,24.384,88.454,31.241,92.455C38.098,96.457,45.585,98.458,53.705,98.458C61.824,98.458,69.313,96.457,76.169,92.455C83.026,88.454,88.454,83.025,92.456,76.169C96.457,69.312,98.458,61.823,98.458,53.704C98.458,45.585,96.457,38.096,92.457,31.24ZM79.811,57.434C79.811,58.444,79.442,59.319,78.704,60.056C77.966,60.794,77.092,61.163,76.082,61.163L31.328,61.163C30.318,61.163,29.444,60.794,28.706,60.056C27.968,59.319,27.599,58.444,27.599,57.434L27.599,49.974C27.599,48.964,27.968,48.09,28.706,47.352C29.444,46.614,30.318,46.245,31.328,46.245L76.082,46.245C77.092,46.245,77.966,46.614,78.704,47.352C79.442,48.09,79.811,48.964,79.811,49.974L79.811,57.434ZM79.811,57.434"/>
</g>
  <g id="Heavy-M" transform="matrix(1.0,0.0,0.0,1.0,2584.265761480564,1036.4213301495809)">  <path stroke-miterlimit="4" stroke-width="1px" stroke="none" fill-rule="evenodd" stroke-opacity="1" stroke-dasharray="none" fill-opacity="1" fill="#000000" stroke-linecap="butt" clip-rule="evenodd" stroke-linejoin="miter" d="M92.457,31.24C88.455,24.384,83.026,18.955,76.17,14.953C69.312,10.951,61.826,8.951,53.706,8.951C45.586,8.951,38.098,10.951,31.241,14.953C24.384,18.954,18.956,24.383,14.954,31.24C10.951,38.097,8.951,45.585,8.951,53.704C8.951,61.824,10.952,69.311,14.953,76.169C18.955,83.024,24.384,88.454,31.241,92.455C38.098,96.457,45.585,98.458,53.705,98.458C61.824,98.458,69.313,96.457,76.169,92.455C83.026,88.454,88.454,83.025,92.456,76.169C96.457,69.312,98.458,61.823,98.458,53.704C98.458,45.585,96.457,38.096,92.457,31.24ZM79.811,57.434C79.811,58.444,79.442,59.319,78.704,60.056C77.966,60.794,77.092,61.163,76.082,61.163L31.328,61.163C30.318,61.163,29.444,60.794,28.706,60.056C27.968,59.319,27.599,58.444,27.599,57.434L27.599,49.974C27.599,48.964,27.968,48.09,28.706,47.352C29.444,46.614,30.318,46.245,31.328,46.245L76.082,46.245C77.092,46.245,77.966,46.614,78.704,47.352C79.442,48.09,79.811,48.964,79.811,49.974L79.811,57.434ZM79.811,57.434"/>
</g>
  <g id="Bold-M" transform="matrix(1.0,0.0,0.0,1.0,2287.555761480564,1036.4213301495809)">  <path stroke-opacity="1" fill="#000000" fill-rule="evenodd" stroke-linejoin="miter" stroke="none" fill-opacity="1" stroke-dasharray="none" stroke-width="1px" stroke-linecap="butt" clip-rule="evenodd" stroke-miterlimit="4" d="M92.457,31.24C88.455,24.384,83.026,18.955,76.17,14.953C69.312,10.951,61.826,8.951,53.706,8.951C45.586,8.951,38.098,10.951,31.241,14.953C24.384,18.954,18.956,24.383,14.954,31.24C10.951,38.097,8.951,45.585,8.951,53.704C8.951,61.824,10.952,69.311,14.953,76.169C18.955,83.024,24.384,88.454,31.241,92.455C38.098,96.457,45.585,98.458,53.705,98.458C61.824,98.458,69.313,96.457,76.169,92.455C83.026,88.454,88.454,83.025,92.456,76.169C96.457,69.312,98.458,61.823,98.458,53.704C98.458,45.585,96.457,38.096,92.457,31.24ZM79.811,57.434C79.811,58.444,79.442,59.319,78.704,60.056C77.966,60.794,77.092,61.163,76.082,61.163L31.328,61.163C30.318,61.163,29.444,60.794,28.706,60.056C27.968,59.319,27.599,58.444,27.599,57.434L27.599,49.974C27.599,48.964,27.968,48.09,28.706,47.352C29.444,46.614,30.318,46.245,31.328,46.245L76.082,46.245C77.092,46.245,77.966,46.614,78.704,47.352C79.442,48.09,79.811,48.964,79.811,49.974L79.811,57.434ZM79.811,57.434"/>
</g>
  <g id="Semibold-M" transform="matrix(1.0,0.0,0.0,1.0,1990.845761480564,1036.4213301495809)">  <path stroke-linecap="butt" stroke-miterlimit="4" fill="#000000" stroke="none" fill-opacity="1" stroke-opacity="1" clip-rule="evenodd" stroke-dasharray="none" fill-rule="evenodd" stroke-width="1px" stroke-linejoin="miter" d="M92.457,31.24C88.455,24.384,83.026,18.955,76.17,14.953C69.312,10.951,61.826,8.951,53.706,8.951C45.586,8.951,38.098,10.951,31.241,14.953C24.384,18.954,18.956,24.383,14.954,31.24C10.951,38.097,8.951,45.585,8.951,53.704C8.951,61.824,10.952,69.311,14.953,76.169C18.955,83.024,24.384,88.454,31.241,92.455C38.098,96.457,45.585,98.458,53.705,98.458C61.824,98.458,69.313,96.457,76.169,92.455C83.026,88.454,88.454,83.025,92.456,76.169C96.457,69.312,98.458,61.823,98.458,53.704C98.458,45.585,96.457,38.096,92.457,31.24ZM79.811,57.434C79.811,58.444,79.442,59.319,78.704,60.056C77.966,60.794,77.092,61.163,76.082,61.163L31.328,61.163C30.318,61.163,29.444,60.794,28.706,60.056C27.968,59.319,27.599,58.444,27.599,57.434L27.599,49.974C27.599,48.964,27.968,48.09,28.706,47.352C29.444,46.614,30.318,46.245,31.328,46.245L76.082,46.245C77.092,46.245,77.966,46.614,78.704,47.352C79.442,48.09,79.811,48.964,79.811,49.974L79.811,57.434ZM79.811,57.434"/>
</g>
  <g id="Medium-M" transform="matrix(1.0,0.0,0.0,1.0,1694.135761480564,1036.4213301495809)">  <path stroke-miterlimit="4" fill-rule="evenodd" fill="#000000" fill-opacity="1" stroke-dasharray="none" clip-rule="evenodd" stroke-linejoin="miter" stroke-linecap="butt" stroke-opacity="1" stroke="none" stroke-width="1px" d="M92.457,31.24C88.455,24.384,83.026,18.955,76.17,14.953C69.312,10.951,61.826,8.951,53.706,8.951C45.586,8.951,38.098,10.951,31.241,14.953C24.384,18.954,18.956,24.383,14.954,31.24C10.951,38.097,8.951,45.585,8.951,53.704C8.951,61.824,10.952,69.311,14.953,76.169C18.955,83.024,24.384,88.454,31.241,92.455C38.098,96.457,45.585,98.458,53.705,98.458C61.824,98.458,69.313,96.457,76.169,92.455C83.026,88.454,88.454,83.025,92.456,76.169C96.457,69.312,98.458,61.823,98.458,53.704C98.458,45.585,96.457,38.096,92.457,31.24ZM79.811,57.434C79.811,58.444,79.442,59.319,78.704,60.056C77.966,60.794,77.092,61.163,76.082,61.163L31.328,61.163C30.318,61.163,29.444,60.794,28.706,60.056C27.968,59.319,27.599,58.444,27.599,57.434L27.599,49.974C27.599,48.964,27.968,48.09,28.706,47.352C29.444,46.614,30.318,46.245,31.328,46.245L76.082,46.245C77.092,46.245,77.966,46.614,78.704,47.352C79.442,48.09,79.811,48.964,79.811,49.974L79.811,57.434ZM79.811,57.434"/>
</g>
  <g id="Regular-M" transform="matrix(1.0,0.0,0.0,1.0,1397.425761480564,1036.4213301495809)">  <path stroke-width="1px" stroke-opacity="1" stroke-linejoin="miter" stroke-dasharray="none" stroke-miterlimit="4" clip-rule="evenodd" fill="#000000" fill-opacity="1" stroke="none" stroke-linecap="butt" fill-rule="evenodd" d="M92.457,31.24C88.455,24.384,83.026,18.955,76.17,14.953C69.312,10.951,61.826,8.951,53.706,8.951C45.586,8.951,38.098,10.951,31.241,14.953C24.384,18.954,18.956,24.383,14.954,31.24C10.951,38.097,8.951,45.585,8.951,53.704C8.951,61.824,10.952,69.311,14.953,76.169C18.955,83.024,24.384,88.454,31.241,92.455C38.098,96.457,45.585,98.458,53.705,98.458C61.824,98.458,69.313,96.457,76.169,92.455C83.026,88.454,88.454,83.025,92.456,76.169C96.457,69.312,98.458,61.823,98.458,53.704C98.458,45.585,96.457,38.096,92.457,31.24ZM79.811,57.434C79.811,58.444,79.442,59.319,78.704,60.056C77.966,60.794,77.092,61.163,76.082,61.163L31.328,61.163C30.318,61.163,29.444,60.794,28.706,60.056C27.968,59.319,27.599,58.444,27.599,57.434L27.599,49.974C27.599,48.964,27.968,48.09,28.706,47.352C29.444,46.614,30.318,46.245,31.328,46.245L76.082,46.245C77.092,46.245,77.966,46.614,78.704,47.352C79.442,48.09,79.811,48.964,79.811,49.974L79.811,57.434ZM79.811,57.434"/>
</g>
  <g id="Light-M" transform="matrix(1.0,0.0,0.0,1.0,1100.7157614805642,1036.4213301495809)">  <path stroke-dasharray="none" stroke-width="1px" stroke-linejoin="miter" fill-rule="evenodd" stroke-opacity="1" stroke-linecap="butt" clip-rule="evenodd" stroke="none" fill="#000000" stroke-miterlimit="4" fill-opacity="1" d="M92.457,31.24C88.455,24.384,83.026,18.955,76.17,14.953C69.312,10.951,61.826,8.951,53.706,8.951C45.586,8.951,38.098,10.951,31.241,14.953C24.384,18.954,18.956,24.383,14.954,31.24C10.951,38.097,8.951,45.585,8.951,53.704C8.951,61.824,10.952,69.311,14.953,76.169C18.955,83.024,24.384,88.454,31.241,92.455C38.098,96.457,45.585,98.458,53.705,98.458C61.824,98.458,69.313,96.457,76.169,92.455C83.026,88.454,88.454,83.025,92.456,76.169C96.457,69.312,98.458,61.823,98.458,53.704C98.458,45.585,96.457,38.096,92.457,31.24ZM79.811,57.434C79.811,58.444,79.442,59.319,78.704,60.056C77.966,60.794,77.092,61.163,76.082,61.163L31.328,61.163C30.318,61.163,29.444,60.794,28.706,60.056C27.968,59.319,27.599,58.444,27.599,57.434L27.599,49.974C27.599,48.964,27.968,48.09,28.706,47.352C29.444,46.614,30.318,46.245,31.328,46.245L76.082,46.245C77.092,46.245,77.966,46.614,78.704,47.352C79.442,48.09,79.811,48.964,79.811,49.974L79.811,57.434ZM79.811,57.434"/>
</g>
  <g id="Thin-M" transform="matrix(1.0,0.0,0.0,1.0,804.005761480564,1036.4213301495809)">  <path stroke-linejoin="miter" stroke-opacity="1" fill-rule="evenodd" clip-rule="evenodd" fill="#000000" stroke-width="1px" stroke-dasharray="none" stroke="none" fill-opacity="1" stroke-linecap="butt" stroke-miterlimit="4" d="M92.457,31.24C88.455,24.384,83.026,18.955,76.17,14.953C69.312,10.951,61.826,8.951,53.706,8.951C45.586,8.951,38.098,10.951,31.241,14.953C24.384,18.954,18.956,24.383,14.954,31.24C10.951,38.097,8.951,45.585,8.951,53.704C8.951,61.824,10.952,69.311,14.953,76.169C18.955,83.024,24.384,88.454,31.241,92.455C38.098,96.457,45.585,98.458,53.705,98.458C61.824,98.458,69.313,96.457,76.169,92.455C83.026,88.454,88.454,83.025,92.456,76.169C96.457,69.312,98.458,61.823,98.458,53.704C98.458,45.585,96.457,38.096,92.457,31.24ZM79.811,57.434C79.811,58.444,79.442,59.319,78.704,60.056C77.966,60.794,77.092,61.163,76.082,61.163L31.328,61.163C30.318,61.163,29.444,60.794,28.706,60.056C27.968,59.319,27.599,58.444,27.599,57.434L27.599,49.974C27.599,48.964,27.968,48.09,28.706,47.352C29.444,46.614,30.318,46.245,31.328,46.245L76.082,46.245C77.092,46.245,77.966,46.614,78.704,47.352C79.442,48.09,79.811,48.964,79.811,49.974L79.811,57.434ZM79.811,57.434"/>
</g>
  <g id="Ultralight-M" transform="matrix(1.0,0.0,0.0,1.0,507.295761480564,1036.4213301495809)">  <path stroke-opacity="1" stroke-dasharray="none" stroke-linejoin="miter" fill-rule="evenodd" clip-rule="evenodd" stroke-linecap="butt" fill-opacity="1" stroke-width="1px" stroke="none" stroke-miterlimit="4" fill="#000000" d="M92.457,31.24C88.455,24.384,83.026,18.955,76.17,14.953C69.312,10.951,61.826,8.951,53.706,8.951C45.586,8.951,38.098,10.951,31.241,14.953C24.384,18.954,18.956,24.383,14.954,31.24C10.951,38.097,8.951,45.585,8.951,53.704C8.951,61.824,10.952,69.311,14.953,76.169C18.955,83.024,24.384,88.454,31.241,92.455C38.098,96.457,45.585,98.458,53.705,98.458C61.824,98.458,69.313,96.457,76.169,92.455C83.026,88.454,88.454,83.025,92.456,76.169C96.457,69.312,98.458,61.823,98.458,53.704C98.458,45.585,96.457,38.096,92.457,31.24ZM79.811,57.434C79.811,58.444,79.442,59.319,78.704,60.056C77.966,60.794,77.092,61.163,76.082,61.163L31.328,61.163C30.318,61.163,29.444,60.794,28.706,60.056C27.968,59.319,27.599,58.444,27.599,57.434L27.599,49.974C27.599,48.964,27.968,48.09,28.706,47.352C29.444,46.614,30.318,46.245,31.328,46.245L76.082,46.245C77.092,46.245,77.966,46.614,78.704,47.352C79.442,48.09,79.811,48.964,79.811,49.974L79.811,57.434ZM79.811,57.434"/>
</g>
  <g id="Black-S" transform="matrix(1.0,0.0,0.0,1.0,2892.6295812392814,618.214995745403)">  <path fill="#000000" stroke-miterlimit="4" clip-rule="evenodd" stroke-opacity="1" stroke-linecap="butt" stroke-linejoin="miter" fill-opacity="1" stroke-dasharray="none" stroke-width="1px" fill-rule="evenodd" stroke="none" d="M72.394,24.461C69.26,19.092,65.01,14.842,59.641,11.708C54.272,8.575,48.409,7.008,42.051,7.008C35.694,7.008,29.83,8.575,24.462,11.708C19.093,14.841,14.842,19.092,11.709,24.461C8.575,29.83,7.008,35.693,7.008,42.05C7.008,48.408,8.575,54.27,11.708,59.64C14.842,65.008,19.092,69.259,24.461,72.393C29.83,75.526,35.693,77.092,42.051,77.092C48.408,77.092,54.272,75.526,59.64,72.393C65.009,69.26,69.26,65.009,72.393,59.64C75.526,54.271,77.092,48.407,77.092,42.05C77.092,35.693,75.526,29.829,72.394,24.461ZM62.492,44.97C62.492,45.761,62.203,46.447,61.625,47.024C61.047,47.601,60.363,47.891,59.572,47.891L24.53,47.891C23.739,47.891,23.055,47.601,22.477,47.024C21.899,46.447,21.61,45.761,21.61,44.97L21.61,39.13C21.61,38.339,21.899,37.655,22.477,37.077C23.055,36.499,23.739,36.21,24.53,36.21L59.572,36.21C60.363,36.21,61.047,36.499,61.625,37.077C62.203,37.655,62.492,38.339,62.492,39.13L62.492,44.97ZM62.492,44.97"/>
</g>
  <g id="Heavy-S" transform="matrix(1.0,0.0,0.0,1.0,2595.9195812392813,618.214995745403)">  <path stroke-miterlimit="4" stroke-width="1px" stroke="none" fill-rule="evenodd" stroke-opacity="1" stroke-dasharray="none" fill-opacity="1" fill="#000000" stroke-linecap="butt" clip-rule="evenodd" stroke-linejoin="miter" d="M72.394,24.461C69.26,19.092,65.01,14.842,59.641,11.708C54.272,8.575,48.409,7.008,42.051,7.008C35.694,7.008,29.83,8.575,24.462,11.708C19.093,14.841,14.842,19.092,11.709,24.461C8.575,29.83,7.008,35.693,7.008,42.05C7.008,48.408,8.575,54.27,11.708,59.64C14.842,65.008,19.092,69.259,24.461,72.393C29.83,75.526,35.693,77.092,42.051,77.092C48.408,77.092,54.272,75.526,59.64,72.393C65.009,69.26,69.26,65.009,72.393,59.64C75.526,54.271,77.092,48.407,77.092,42.05C77.092,35.693,75.526,29.829,72.394,24.461ZM62.492,44.97C62.492,45.761,62.203,46.447,61.625,47.024C61.047,47.601,60.363,47.891,59.572,47.891L24.53,47.891C23.739,47.891,23.055,47.601,22.477,47.024C21.899,46.447,21.61,45.761,21.61,44.97L21.61,39.13C21.61,38.339,21.899,37.655,22.477,37.077C23.055,36.499,23.739,36.21,24.53,36.21L59.572,36.21C60.363,36.21,61.047,36.499,61.625,37.077C62.203,37.655,62.492,38.339,62.492,39.13L62.492,44.97ZM62.492,44.97"/>
</g>
  <g id="Bold-S" transform="matrix(1.0,0.0,0.0,1.0,2299.2095812392813,618.214995745403)">  <path stroke-opacity="1" fill="#000000" fill-rule="evenodd" stroke-linejoin="miter" stroke="none" fill-opacity="1" stroke-dasharray="none" stroke-width="1px" stroke-linecap="butt" clip-rule="evenodd" stroke-miterlimit="4" d="M72.394,24.461C69.26,19.092,65.01,14.842,59.641,11.708C54.272,8.575,48.409,7.008,42.051,7.008C35.694,7.008,29.83,8.575,24.462,11.708C19.093,14.841,14.842,19.092,11.709,24.461C8.575,29.83,7.008,35.693,7.008,42.05C7.008,48.408,8.575,54.27,11.708,59.64C14.842,65.008,19.092,69.259,24.461,72.393C29.83,75.526,35.693,77.092,42.051,77.092C48.408,77.092,54.272,75.526,59.64,72.393C65.009,69.26,69.26,65.009,72.393,59.64C75.526,54.271,77.092,48.407,77.092,42.05C77.092,35.693,75.526,29.829,72.394,24.461ZM62.492,44.97C62.492,45.761,62.203,46.447,61.625,47.024C61.047,47.601,60.363,47.891,59.572,47.891L24.53,47.891C23.739,47.891,23.055,47.601,22.477,47.024C21.899,46.447,21.61,45.761,21.61,44.97L21.61,39.13C21.61,38.339,21.899,37.655,22.477,37.077C23.055,36.499,23.739,36.21,24.53,36.21L59.572,36.21C60.363,36.21,61.047,36.499,61.625,37.077C62.203,37.655,62.492,38.339,62.492,39.13L62.492,44.97ZM62.492,44.97"/>
</g>
  <g id="Semibold-S" transform="matrix(1.0,0.0,0.0,1.0,2002.4995812392815,618.214995745403)">  <path stroke-linecap="butt" stroke-miterlimit="4" fill="#000000" stroke="none" fill-opacity="1" stroke-opacity="1" clip-rule="evenodd" stroke-dasharray="none" fill-rule="evenodd" stroke-width="1px" stroke-linejoin="miter" d="M72.394,24.461C69.26,19.092,65.01,14.842,59.641,11.708C54.272,8.575,48.409,7.008,42.051,7.008C35.694,7.008,29.83,8.575,24.462,11.708C19.093,14.841,14.842,19.092,11.709,24.461C8.575,29.83,7.008,35.693,7.008,42.05C7.008,48.408,8.575,54.27,11.708,59.64C14.842,65.008,19.092,69.259,24.461,72.393C29.83,75.526,35.693,77.092,42.051,77.092C48.408,77.092,54.272,75.526,59.64,72.393C65.009,69.26,69.26,65.009,72.393,59.64C75.526,54.271,77.092,48.407,77.092,42.05C77.092,35.693,75.526,29.829,72.394,24.461ZM62.492,44.97C62.492,45.761,62.203,46.447,61.625,47.024C61.047,47.601,60.363,47.891,59.572,47.891L24.53,47.891C23.739,47.891,23.055,47.601,22.477,47.024C21.899,46.447,21.61,45.761,21.61,44.97L21.61,39.13C21.61,38.339,21.899,37.655,22.477,37.077C23.055,36.499,23.739,36.21,24.53,36.21L59.572,36.21C60.363,36.21,61.047,36.499,61.625,37.077C62.203,37.655,62.492,38.339,62.492,39.13L62.492,44.97ZM62.492,44.97"/>
</g>
  <g id="Medium-S" transform="matrix(1.0,0.0,0.0,1.0,1705.7895812392815,618.214995745403)">  <path stroke-miterlimit="4" fill-rule="evenodd" fill="#000000" fill-opacity="1" stroke-dasharray="none" clip-rule="evenodd" stroke-linejoin="miter" stroke-linecap="butt" stroke-opacity="1" stroke="none" stroke-width="1px" d="M72.394,24.461C69.26,19.092,65.01,14.842,59.641,11.708C54.272,8.575,48.409,7.008,42.051,7.008C35.694,7.008,29.83,8.575,24.462,11.708C19.093,14.841,14.842,19.092,11.709,24.461C8.575,29.83,7.008,35.693,7.008,42.05C7.008,48.408,8.575,54.27,11.708,59.64C14.842,65.008,19.092,69.259,24.461,72.393C29.83,75.526,35.693,77.092,42.051,77.092C48.408,77.092,54.272,75.526,59.64,72.393C65.009,69.26,69.26,65.009,72.393,59.64C75.526,54.271,77.092,48.407,77.092,42.05C77.092,35.693,75.526,29.829,72.394,24.461ZM62.492,44.97C62.492,45.761,62.203,46.447,61.625,47.024C61.047,47.601,60.363,47.891,59.572,47.891L24.53,47.891C23.739,47.891,23.055,47.601,22.477,47.024C21.899,46.447,21.61,45.761,21.61,44.97L21.61,39.13C21.61,38.339,21.899,37.655,22.477,37.077C23.055,36.499,23.739,36.21,24.53,36.21L59.572,36.21C60.363,36.21,61.047,36.499,61.625,37.077C62.203,37.655,62.492,38.339,62.492,39.13L62.492,44.97ZM62.492,44.97"/>
</g>
  <g id="Regular-S" transform="matrix(1.0,0.0,0.0,1.0,1409.0795812392814,618.214995745403)">  <path stroke-width="1px" stroke-opacity="1" stroke-linejoin="miter" stroke-dasharray="none" stroke-miterlimit="4" clip-rule="evenodd" fill="#000000" fill-opacity="1" stroke="none" stroke-linecap="butt" fill-rule="evenodd" d="M72.394,24.461C69.26,19.092,65.01,14.842,59.641,11.708C54.272,8.575,48.409,7.008,42.051,7.008C35.694,7.008,29.83,8.575,24.462,11.708C19.093,14.841,14.842,19.092,11.709,24.461C8.575,29.83,7.008,35.693,7.008,42.05C7.008,48.408,8.575,54.27,11.708,59.64C14.842,65.008,19.092,69.259,24.461,72.393C29.83,75.526,35.693,77.092,42.051,77.092C48.408,77.092,54.272,75.526,59.64,72.393C65.009,69.26,69.26,65.009,72.393,59.64C75.526,54.271,77.092,48.407,77.092,42.05C77.092,35.693,75.526,29.829,72.394,24.461ZM62.492,44.97C62.492,45.761,62.203,46.447,61.625,47.024C61.047,47.601,60.363,47.891,59.572,47.891L24.53,47.891C23.739,47.891,23.055,47.601,22.477,47.024C21.899,46.447,21.61,45.761,21.61,44.97L21.61,39.13C21.61,38.339,21.899,37.655,22.477,37.077C23.055,36.499,23.739,36.21,24.53,36.21L59.572,36.21C60.363,36.21,61.047,36.499,61.625,37.077C62.203,37.655,62.492,38.339,62.492,39.13L62.492,44.97ZM62.492,44.97"/>
</g>
  <g id="Light-S" transform="matrix(1.0,0.0,0.0,1.0,1112.3695812392816,618.214995745403)">  <path stroke-dasharray="none" stroke-width="1px" stroke-linejoin="miter" fill-rule="evenodd" stroke-opacity="1" stroke-linecap="butt" clip-rule="evenodd" stroke="none" fill="#000000" stroke-miterlimit="4" fill-opacity="1" d="M72.394,24.461C69.26,19.092,65.01,14.842,59.641,11.708C54.272,8.575,48.409,7.008,42.051,7.008C35.694,7.008,29.83,8.575,24.462,11.708C19.093,14.841,14.842,19.092,11.709,24.461C8.575,29.83,7.008,35.693,7.008,42.05C7.008,48.408,8.575,54.27,11.708,59.64C14.842,65.008,19.092,69.259,24.461,72.393C29.83,75.526,35.693,77.092,42.051,77.092C48.408,77.092,54.272,75.526,59.64,72.393C65.009,69.26,69.26,65.009,72.393,59.64C75.526,54.271,77.092,48.407,77.092,42.05C77.092,35.693,75.526,29.829,72.394,24.461ZM62.492,44.97C62.492,45.761,62.203,46.447,61.625,47.024C61.047,47.601,60.363,47.891,59.572,47.891L24.53,47.891C23.739,47.891,23.055,47.601,22.477,47.024C21.899,46.447,21.61,45.761,21.61,44.97L21.61,39.13C21.61,38.339,21.899,37.655,22.477,37.077C23.055,36.499,23.739,36.21,24.53,36.21L59.572,36.21C60.363,36.21,61.047,36.499,61.625,37.077C62.203,37.655,62.492,38.339,62.492,39.13L62.492,44.97ZM62.492,44.97"/>
</g>
  <g id="Thin-S" transform="matrix(1.0,0.0,0.0,1.0,815.6595812392817,618.214995745403)">  <path stroke-linejoin="miter" stroke-opacity="1" fill-rule="evenodd" clip-rule="evenodd" fill="#000000" stroke-width="1px" stroke-dasharray="none" stroke="none" fill-opacity="1" stroke-linecap="butt" stroke-miterlimit="4" d="M72.394,24.461C69.26,19.092,65.01,14.842,59.641,11.708C54.272,8.575,48.409,7.008,42.051,7.008C35.694,7.008,29.83,8.575,24.462,11.708C19.093,14.841,14.842,19.092,11.709,24.461C8.575,29.83,7.008,35.693,7.008,42.05C7.008,48.408,8.575,54.27,11.708,59.64C14.842,65.008,19.092,69.259,24.461,72.393C29.83,75.526,35.693,77.092,42.051,77.092C48.408,77.092,54.272,75.526,59.64,72.393C65.009,69.26,69.26,65.009,72.393,59.64C75.526,54.271,77.092,48.407,77.092,42.05C77.092,35.693,75.526,29.829,72.394,24.461ZM62.492,44.97C62.492,45.761,62.203,46.447,61.625,47.024C61.047,47.601,60.363,47.891,59.572,47.891L24.53,47.891C23.739,47.891,23.055,47.601,22.477,47.024C21.899,46.447,21.61,45.761,21.61,44.97L21.61,39.13C21.61,38.339,21.899,37.655,22.477,37.077C23.055,36.499,23.739,36.21,24.53,36.21L59.572,36.21C60.363,36.21,61.047,36.499,61.625,37.077C62.203,37.655,62.492,38.339,62.492,39.13L62.492,44.97ZM62.492,44.97"/>
</g>
  <g id="Ultralight-S" transform="matrix(1.0,0.0,0.0,1.0,518.9495812392817,618.214995745403)">  <path stroke-opacity="1" stroke-dasharray="none" stroke-linejoin="miter" fill-rule="evenodd" clip-rule="evenodd" stroke-linecap="butt" fill-opacity="1" stroke-width="1px" stroke="none" stroke-miterlimit="4" fill="#000000" d="M72.394,24.461C69.26,19.092,65.01,14.842,59.641,11.708C54.272,8.575,48.409,7.008,42.051,7.008C35.694,7.008,29.83,8.575,24.462,11.708C19.093,14.841,14.842,19.092,11.709,24.461C8.575,29.83,7.008,35.693,7.008,42.05C7.008,48.408,8.575,54.27,11.708,59.64C14.842,65.008,19.092,69.259,24.461,72.393C29.83,75.526,35.693,77.092,42.051,77.092C48.408,77.092,54.272,75.526,59.64,72.393C65.009,69.26,69.26,65.009,72.393,59.64C75.526,54.271,77.092,48.407,77.092,42.05C77.092,35.693,75.526,29.829,72.394,24.461ZM62.492,44.97C62.492,45.761,62.203,46.447,61.625,47.024C61.047,47.601,60.363,47.891,59.572,47.891L24.53,47.891C23.739,47.891,23.055,47.601,22.477,47.024C21.899,46.447,21.61,45.761,21.61,44.97L21.61,39.13C21.61,38.339,21.899,37.655,22.477,37.077C23.055,36.499,23.739,36.21,24.53,36.21L59.572,36.21C60.363,36.21,61.047,36.499,61.625,37.077C62.203,37.655,62.492,38.339,62.492,39.13L62.492,44.97ZM62.492,44.97"/>
</g>
 </g>
</svg>
