<?xml version="1.0" encoding="UTF-8"?>
<!-- Generator: CustomSymbols v2.6.1.40 by @serious_bret https://bretlester.com/app_content/CustomSymbols/ -->
<!-- Guides: Left/Right 0.085/0.083 Cap/Base 0.238/0.218 -->
<!-- Settings: RefScale 1.0 Min/Max Stroke Scales 0.5/2.21 -->
<!DOCTYPE svg
PUBLIC "-//W3C//DTD SVG 1.1//EN"
       "http://www.w3.org/Graphics/SVG/1.1/DTD/svg11.dtd">
<svg version="1.1" xmlns="http://www.w3.org/2000/svg" xmlns:xlink="http://www.w3.org/1999/xlink" width="3300" height="2200">
<![CDATA[<svg width="24" height="24" viewBox="0 0 24 24" fill="none" xmlns="http://www.w3.org/2000/svg">
<path fill-rule="evenodd" clip-rule="evenodd" d="M13 8L8.049 8.016L8 16H13V8ZM12 9.003V15H9.006L9.043 9.012L12 9.003Z" fill="black"/>
<path fill-rule="evenodd" clip-rule="evenodd" d="M14 9H19V8H14V9Z" fill="black"/>
<path fill-rule="evenodd" clip-rule="evenodd" d="M14 11H19V10H14V11Z" fill="black"/>
<path fill-rule="evenodd" clip-rule="evenodd" d="M14 13H19V12H14V13Z" fill="black"/>
<path fill-rule="evenodd" clip-rule="evenodd" d="M14 15H19V14H14V15Z" fill="black"/>
<path fill-rule="evenodd" clip-rule="evenodd" d="M20 17C20 17.552 19.553 18 19 18H7V16.958V8V6H20V17ZM5 17.5C5 17.775 4.775 18 4.5 18C4.225 18 4 17.775 4 17.5V8H5V17.5ZM5 4V6H2V17C2 18.657 3.343 20 5 20H19C20.657 20 22 18.657 22 17V4H5Z" fill="black"/>
</svg>
]]>
 <g id="Notes">
  <rect height="2200" id="artboard" style="fill:white;opacity:1" width="3300" x="0" y="0"/>
  <line id="" style="fill:none;stroke:black;opacity:1;stroke-width:0.5;" x1="263" x2="3036" y1="292" y2="292"/>
  <text id="reftext1" style="stroke:none;fill:black;font-family:-apple-system,&quot;SF Pro Display&quot;,&quot;SF Pro Text&quot;,Helvetica,sans-serif;font-weight:bold;" transform="matrix(1 0 0 1 263 322)">Weight/Scale Variations</text>
  <text id="reftext2" style="stroke:none;fill:black;font-family:-apple-system,&quot;SF Pro Display&quot;,&quot;SF Pro Text&quot;,Helvetica,sans-serif;text-anchor:middle;" transform="matrix(1 0 0 1 559.711 322)">Ultralight</text>
  <text style="stroke:none;fill:black;font-family:-apple-system,&quot;SF Pro Display&quot;,&quot;SF Pro Text&quot;,Helvetica,sans-serif;text-anchor:middle;" transform="matrix(1 0 0 1 856.422 322)">Thin</text>
  <text style="stroke:none;fill:black;font-family:-apple-system,&quot;SF Pro Display&quot;,&quot;SF Pro Text&quot;,Helvetica,sans-serif;text-anchor:middle;" transform="matrix(1 0 0 1 1153.13 322)">Light</text>
  <text style="stroke:none;fill:black;font-family:-apple-system,&quot;SF Pro Display&quot;,&quot;SF Pro Text&quot;,Helvetica,sans-serif;text-anchor:middle;" transform="matrix(1 0 0 1 1449.84 322)">Regular</text>
  <text style="stroke:none;fill:black;font-family:-apple-system,&quot;SF Pro Display&quot;,&quot;SF Pro Text&quot;,Helvetica,sans-serif;text-anchor:middle;" transform="matrix(1 0 0 1 1746.56 322)">Medium</text>
  <text style="stroke:none;fill:black;font-family:-apple-system,&quot;SF Pro Display&quot;,&quot;SF Pro Text&quot;,Helvetica,sans-serif;text-anchor:middle;" transform="matrix(1 0 0 1 2043.27 322)">Semibold</text>
  <text style="stroke:none;fill:black;font-family:-apple-system,&quot;SF Pro Display&quot;,&quot;SF Pro Text&quot;,Helvetica,sans-serif;text-anchor:middle;" transform="matrix(1 0 0 1 2339.98 322)">Bold</text>
  <text style="stroke:none;fill:black;font-family:-apple-system,&quot;SF Pro Display&quot;,&quot;SF Pro Text&quot;,Helvetica,sans-serif;text-anchor:middle;" transform="matrix(1 0 0 1 2636.69 322)">Heavy</text>
  <text style="stroke:none;fill:black;font-family:-apple-system,&quot;SF Pro Display&quot;,&quot;SF Pro Text&quot;,Helvetica,sans-serif;text-anchor:middle;" transform="matrix(1 0 0 1 2933.4 322)">Black</text>
  <line id="" style="fill:none;stroke:black;opacity:1;stroke-width:0.5;" x1="263" x2="3036" y1="1903" y2="1903"/>
  <g id="" transform="matrix(1 0 0 1 263 1933)">
   <path d="M9.24805 0.830078C13.5547 0.830078 17.1387-2.74414 17.1387-7.05078C17.1387-11.3574 13.5449-14.9316 9.23828-14.9316C4.94141-14.9316 1.36719-11.3574 1.36719-7.05078C1.36719-2.74414 4.95117 0.830078 9.24805 0.830078ZM9.24805-0.654297C5.70312-0.654297 2.87109-3.49609 2.87109-7.05078C2.87109-10.6055 5.69336-13.4473 9.23828-13.4473C12.793-13.4473 15.6348-10.6055 15.6445-7.05078C15.6543-3.49609 12.8027-0.654297 9.24805-0.654297ZM6.39648-6.31836L8.50586-6.31836L8.50586-4.19922C8.50586-3.75977 8.79883-3.45703 9.22852-3.45703C9.67773-3.45703 9.9707-3.75977 9.9707-4.19922L9.9707-6.31836L12.0996-6.31836C12.5391-6.31836 12.8418-6.61133 12.8418-7.04102C12.8418-7.48047 12.5391-7.7832 12.0996-7.7832L9.9707-7.7832L9.9707-9.89258C9.9707-10.3418 9.67773-10.6445 9.22852-10.6445C8.79883-10.6445 8.50586-10.3418 8.50586-9.89258L8.50586-7.7832L6.39648-7.7832C5.94727-7.7832 5.64453-7.48047 5.64453-7.04102C5.64453-6.61133 5.94727-6.31836 6.39648-6.31836Z"/>
  </g>
  <g id="" transform="matrix(1 0 0 1 281.506 1933)">
   <path d="M11.709 2.91016C17.1582 2.91016 21.6699-1.61133 21.6699-7.05078C21.6699-12.5 17.1484-17.0117 11.6992-17.0117C6.25977-17.0117 1.74805-12.5 1.74805-7.05078C1.74805-1.61133 6.26953 2.91016 11.709 2.91016ZM11.709 1.25C7.09961 1.25 3.41797-2.44141 3.41797-7.05078C3.41797-11.6602 7.08984-15.3516 11.6992-15.3516C16.3086-15.3516 20-11.6602 20.0098-7.05078C20.0195-2.44141 16.3184 1.25 11.709 1.25ZM7.98828-6.23047L10.8789-6.23047L10.8789-3.32031C10.8789-2.83203 11.2109-2.5 11.6895-2.5C12.1777-2.5 12.5195-2.83203 12.5195-3.32031L12.5195-6.23047L15.4297-6.23047C15.918-6.23047 16.25-6.5625 16.25-7.04102C16.25-7.5293 15.918-7.87109 15.4297-7.87109L12.5195-7.87109L12.5195-10.7617C12.5195-11.2695 12.1777-11.6016 11.6895-11.6016C11.2109-11.6016 10.8789-11.2598 10.8789-10.7617L10.8789-7.87109L7.98828-7.87109C7.48047-7.87109 7.14844-7.5293 7.14844-7.04102C7.14844-6.5625 7.49023-6.23047 7.98828-6.23047Z"/>
  </g>
  <g id="" transform="matrix(1 0 0 1 304.924 1933)">
   <path d="M14.9707 5.66406C21.9336 5.66406 27.6953-0.0976562 27.6953-7.05078C27.6953-14.0137 21.9238-19.7754 14.9609-19.7754C8.00781-19.7754 2.25586-14.0137 2.25586-7.05078C2.25586-0.0976562 8.01758 5.66406 14.9707 5.66406ZM14.9707 3.84766C8.93555 3.84766 4.08203-1.01562 4.08203-7.05078C4.08203-13.0957 8.92578-17.9492 14.9609-17.9492C21.0059-17.9492 25.8594-13.0957 25.8691-7.05078C25.8789-1.01562 21.0156 3.84766 14.9707 3.84766ZM10.0586-6.14258L14.0625-6.14258L14.0625-2.12891C14.0625-1.5918 14.4336-1.2207 14.9512-1.2207C15.4883-1.2207 15.8594-1.5918 15.8594-2.12891L15.8594-6.14258L19.8828-6.14258C20.4102-6.14258 20.791-6.51367 20.791-7.03125C20.791-7.56836 20.4199-7.94922 19.8828-7.94922L15.8594-7.94922L15.8594-11.9531C15.8594-12.5098 15.4883-12.8809 14.9512-12.8809C14.4336-12.8809 14.0625-12.5 14.0625-11.9531L14.0625-7.94922L10.0586-7.94922C9.50195-7.94922 9.13086-7.56836 9.13086-7.03125C9.13086-6.51367 9.51172-6.14258 10.0586-6.14258Z"/>
  </g>
  <text style="stroke:none;fill:black;font-family:-apple-system,&quot;SF Pro Display&quot;,&quot;SF Pro Text&quot;,Helvetica,sans-serif;font-weight:bold;" transform="matrix(1 0 0 1 263 1953)">Design Variations</text>
  <text style="stroke:none;fill:black;font-family:-apple-system,&quot;SF Pro Display&quot;,&quot;SF Pro Text&quot;,Helvetica,sans-serif;" transform="matrix(1 0 0 1 263 1971)">Symbols are supported in up to nine weights and three scales.</text>
  <text style="stroke:none;fill:black;font-family:-apple-system,&quot;SF Pro Display&quot;,&quot;SF Pro Text&quot;,Helvetica,sans-serif;" transform="matrix(1 0 0 1 263 1989)">For optimal layout with text and other symbols, vertically align</text>
  <text style="stroke:none;fill:black;font-family:-apple-system,&quot;SF Pro Display&quot;,&quot;SF Pro Text&quot;,Helvetica,sans-serif;" transform="matrix(1 0 0 1 263 2007)">symbols with the adjacent text.</text>
  <line id="" style="fill:none;stroke:#00AEEF;stroke-width:0.5;opacity:1.0;" x1="776" x2="776" y1="1919" y2="1933"/>
  <g id="" transform="matrix(1 0 0 1 776 1933)">
   <path d="M3.31055 0.126953C3.82812 0.126953 4.08203-0.0683594 4.26758-0.605469L5.52734-4.0625L11.2891-4.0625L12.5488-0.605469C12.7344-0.0683594 12.9883 0.126953 13.4961 0.126953C14.0137 0.126953 14.3457-0.185547 14.3457-0.673828C14.3457-0.839844 14.3164-0.986328 14.2383-1.20117L9.6582-13.3887C9.43359-13.9941 9.0332-14.2871 8.4082-14.2871C7.80273-14.2871 7.39258-13.9941 7.17773-13.3984L2.59766-1.19141C2.51953-0.976562 2.49023-0.830078 2.49023-0.664062C2.49023-0.175781 2.80273 0.126953 3.31055 0.126953ZM6.00586-5.53711L8.37891-12.1094L8.42773-12.1094L10.8008-5.53711Z"/>
  </g>
  <line id="" style="fill:none;stroke:#00AEEF;stroke-width:0.5;opacity:1.0;" x1="792.836" x2="792.836" y1="1919" y2="1933"/>
  <text style="stroke:none;fill:black;font-family:-apple-system,&quot;SF Pro Display&quot;,&quot;SF Pro Text&quot;,Helvetica,sans-serif;font-weight:bold;" transform="matrix(1 0 0 1 776 1953)">Margins</text>
  <text style="stroke:none;fill:black;font-family:-apple-system,&quot;SF Pro Display&quot;,&quot;SF Pro Text&quot;,Helvetica,sans-serif;" transform="matrix(1 0 0 1 776 1971)">Leading and trailing margins on the left and right side of each symbol</text>
  <text style="stroke:none;fill:black;font-family:-apple-system,&quot;SF Pro Display&quot;,&quot;SF Pro Text&quot;,Helvetica,sans-serif;" transform="matrix(1 0 0 1 776 1989)">can be adjusted by modifying the x-location of the margin guidelines.</text>
  <text style="stroke:none;fill:black;font-family:-apple-system,&quot;SF Pro Display&quot;,&quot;SF Pro Text&quot;,Helvetica,sans-serif;" transform="matrix(1 0 0 1 776 2007)">Modifications are automatically applied proportionally to all</text>
  <text style="stroke:none;fill:black;font-family:-apple-system,&quot;SF Pro Display&quot;,&quot;SF Pro Text&quot;,Helvetica,sans-serif;" transform="matrix(1 0 0 1 776 2025)">scales and weights.</text>
  <g id="" transform="matrix(1 0 0 1 1289 1933)">
   <path d="M2.8418 1.86523L4.54102 3.57422C5.40039 4.44336 6.38672 4.38477 7.31445 3.35938L17.4902-7.85156C17.7539-7.76367 18.0273-7.7832 18.3398-7.8418L19.4043-8.03711L20.0684-7.36328L20.0293-6.80664C19.9902-6.30859 20.1172-5.92773 20.6055-5.44922L21.3672-4.70703C21.8457-4.22852 22.4609-4.19922 22.9297-4.66797L25.8398-7.58789C26.3086-8.05664 26.2891-8.65234 25.8105-9.13086L25.0391-9.89258C24.5605-10.3711 24.1895-10.5273 23.7109-10.4883L23.1348-10.4395L22.4902-11.0742L22.7344-12.1973C22.8613-12.7637 22.7051-13.2031 22.1191-13.7891L19.9219-15.9766C16.582-19.2969 12.1484-19.2188 9.25781-16.3281C8.83789-15.918 8.80859-15.3418 9.04297-14.9512C9.27734-14.5898 9.73633-14.3555 10.3809-14.5215C11.8457-14.8633 13.3691-14.9219 14.7949-13.9844L14.209-12.5293C14.0137-12.0508 13.9844-11.6504 14.1113-11.2891L3.04688-0.898438C2.06055 0.0195312 1.98242 0.996094 2.8418 1.86523ZM10.752-15.957C13.1836-17.7344 16.4746-17.4316 18.7012-15.2051L21.1328-12.793C21.3672-12.5586 21.4062-12.373 21.3379-12.0312L21.0156-10.5469L22.5195-9.0625L23.5059-9.12109C23.7598-9.13086 23.8379-9.11133 24.0332-8.91602L24.6094-8.33984L22.168-5.89844L21.5918-6.47461C21.3965-6.66992 21.3672-6.74805 21.377-7.01172L21.4453-7.98828L19.9512-9.47266L18.4277-9.21875C18.1055-9.15039 17.959-9.17969 17.7148-9.41406L15.7129-11.416C15.459-11.6504 15.4297-11.8164 15.5859-12.1875L16.4648-14.2773C14.9023-15.7324 12.8711-16.3574 10.8398-15.7617C10.6836-15.7227 10.625-15.8496 10.752-15.957ZM5.27344 2.30469L4.10156 1.14258C3.63281 0.683594 3.74023 0.341797 4.14062-0.0195312L14.9512-10.1953L16.416-8.71094L6.42578 2.27539C6.07422 2.67578 5.74219 2.77344 5.27344 2.30469Z"/>
  </g>
  <text style="stroke:none;fill:black;font-family:-apple-system,&quot;SF Pro Display&quot;,&quot;SF Pro Text&quot;,Helvetica,sans-serif;font-weight:bold;" transform="matrix(1 0 0 1 1289 1953)">Exporting</text>
  <text style="stroke:none;fill:black;font-family:-apple-system,&quot;SF Pro Display&quot;,&quot;SF Pro Text&quot;,Helvetica,sans-serif;" transform="matrix(1 0 0 1 1289 1971)">Symbols should be outlined when exporting to ensure the</text>
  <text style="stroke:none;fill:black;font-family:-apple-system,&quot;SF Pro Display&quot;,&quot;SF Pro Text&quot;,Helvetica,sans-serif;" transform="matrix(1 0 0 1 1289 1989)">design is preserved when submitting to Xcode.</text>
  <text id="template-version" style="stroke:none;fill:black;font-family:-apple-system,&quot;SF Pro Display&quot;,&quot;SF Pro Text&quot;,Helvetica,sans-serif;text-anchor:end;" transform="matrix(1 0 0 1 3036 1933)">Template v.2.0</text>
  <text style="stroke:none;fill:black;font-family:-apple-system,&quot;SF Pro Display&quot;,&quot;SF Pro Text&quot;,Helvetica,sans-serif;text-anchor:end;" transform="matrix(1 0 0 1 3036 1951)">Requires Xcode 12 or greater</text>
  <text style="stroke:none;fill:black;font-family:-apple-system,&quot;SF Pro Display&quot;,&quot;SF Pro Text&quot;,Helvetica,sans-serif;" transform="matrix(1 0 0 1 263 726)">Small</text>
  <text style="stroke:none;fill:black;font-family:-apple-system,&quot;SF Pro Display&quot;,&quot;SF Pro Text&quot;,Helvetica,sans-serif;" transform="matrix(1 0 0 1 263 1156)">Medium</text>
  <text style="stroke:none;fill:black;font-family:-apple-system,&quot;SF Pro Display&quot;,&quot;SF Pro Text&quot;,Helvetica,sans-serif;" transform="matrix(1 0 0 1 263 1586)">Large</text>
 </g>
 <g id="Guides">
  <g id="H-reference" style="fill:#27AAE1;stroke:none;" transform="matrix(1 0 0 1 339 696)">
   <path d="M0.976562 0L3.66211 0L12.9883-24.4629L45.752-24.4629L55.127 0L57.7637 0L30.6152-70.459L28.125-70.459ZM29.3457-67.1387L29.4434-67.1387L44.873-26.709L13.8672-26.709Z"/>
  </g>
  <line id="Baseline-S" style="fill:none;stroke:#27AAE1;opacity:1;stroke-width:0.5;" x1="263" x2="3036" y1="696" y2="696"/>
  <line id="Capline-S" style="fill:none;stroke:#27AAE1;opacity:1;stroke-width:0.5;" x1="263" x2="3036" y1="625.541" y2="625.541"/>
  <g id="H-reference" style="fill:#27AAE1;stroke:none;" transform="matrix(1 0 0 1 339 1126)">
   <path d="M0.976562 0L3.66211 0L12.9883-24.4629L45.752-24.4629L55.127 0L57.7637 0L30.6152-70.459L28.125-70.459ZM29.3457-67.1387L29.4434-67.1387L44.873-26.709L13.8672-26.709Z"/>
  </g>
  <line id="Baseline-M" style="fill:none;stroke:#27AAE1;opacity:1;stroke-width:0.5;" x1="263" x2="3036" y1="1126" y2="1126"/>
  <line id="Capline-M" style="fill:none;stroke:#27AAE1;opacity:1;stroke-width:0.5;" x1="263" x2="3036" y1="1055.54" y2="1055.54"/>
  <g id="H-reference" style="fill:#27AAE1;stroke:none;" transform="matrix(1 0 0 1 339 1556)">
   <path d="M0.976562 0L3.66211 0L12.9883-24.4629L45.752-24.4629L55.127 0L57.7637 0L30.6152-70.459L28.125-70.459ZM29.3457-67.1387L29.4434-67.1387L44.873-26.709L13.8672-26.709Z"/>
  </g>
  <line id="Baseline-L" style="fill:none;stroke:#27AAE1;opacity:1;stroke-width:0.5;" x1="263" x2="3036" y1="1556" y2="1556"/>
  <line id="Capline-L" style="fill:none;stroke:#27AAE1;opacity:1;stroke-width:0.5;" x1="263" x2="3036" y1="1485.54" y2="1485.54"/>
  <line id="left-margin" x1="1397.3783753877526" x2="1397.3783753877526" y1="1030.79" y2="1150.12" style="fill:none;stroke:#00AEEF;stroke-width:0.5;opacity:1.0;"/>
  <line id="right-margin" x1="1505.1406685862821" x2="1505.1406685862821" y1="1030.79" y2="1150.12" style="fill:none;stroke:#00AEEF;stroke-width:0.5;opacity:1.0;"/>
 </g>
 <g id="Symbols">
  <g id="Black-L" transform="matrix(1.0,0.0,0.0,1.0,2851.138318373736,1435.5575042724608)">  <path stroke-miterlimit="4" stroke="none" fill-opacity="1" stroke-dasharray="none" fill="#000000" clip-rule="evenodd" stroke-width="1px" stroke-linecap="butt" fill-rule="evenodd" stroke-linejoin="miter" stroke-opacity="1" d="M90.503,55.694L56.036,55.806L55.694,111.389L90.503,111.389L90.503,55.694ZM83.542,62.677L83.542,104.427L62.698,104.427L62.956,62.74L83.542,62.677ZM83.542,62.677"/>
  <path stroke-opacity="1" stroke-dasharray="none" fill-opacity="1" stroke="none" stroke-linecap="butt" stroke-width="1px" clip-rule="evenodd" fill-rule="evenodd" stroke-linejoin="miter" stroke-miterlimit="4" fill="#000000" d="M97.465,62.656L132.274,62.656L132.274,55.694L97.465,55.694L97.465,62.656ZM97.465,62.656"/>
  <path stroke-linecap="butt" fill-rule="evenodd" stroke-dasharray="none" stroke-linejoin="miter" stroke="none" stroke-width="1px" stroke-opacity="1" clip-rule="evenodd" fill-opacity="1" fill="#000000" stroke-miterlimit="4" d="M97.465,76.58L132.274,76.58L132.274,69.618L97.465,69.618L97.465,76.58ZM97.465,76.58"/>
  <path fill-opacity="1" stroke-miterlimit="4" stroke-linecap="butt" stroke-dasharray="none" fill-rule="evenodd" clip-rule="evenodd" stroke-width="1px" stroke-opacity="1" stroke="none" fill="#000000" stroke-linejoin="miter" d="M97.465,90.503L132.274,90.503L132.274,83.542L97.465,83.542L97.465,90.503ZM97.465,90.503"/>
  <path fill-rule="evenodd" clip-rule="evenodd" stroke="none" fill="#000000" stroke-miterlimit="4" stroke-dasharray="none" stroke-linecap="butt" fill-opacity="1" stroke-width="1px" stroke-linejoin="miter" stroke-opacity="1" d="M97.465,104.427L132.274,104.427L132.274,97.465L97.465,97.465L97.465,104.427ZM97.465,104.427"/>
  <path stroke-dasharray="none" stroke-opacity="1" stroke-linecap="butt" stroke-miterlimit="4" stroke-width="1px" stroke="none" stroke-linejoin="miter" clip-rule="evenodd" fill-opacity="1" fill-rule="evenodd" fill="#000000" d="M139.236,118.351C139.236,122.194,136.124,125.313,132.274,125.313L48.733,125.313L48.733,118.058L48.733,55.694L48.733,41.771L139.236,41.771L139.236,118.351ZM34.809,121.832C34.809,123.746,33.243,125.313,31.328,125.313C29.414,125.313,27.847,123.746,27.847,121.832L27.847,55.694L34.809,55.694L34.809,121.832ZM34.809,27.847L34.809,41.771L13.924,41.771L13.924,118.351C13.924,129.886,23.273,139.236,34.809,139.236L132.274,139.236C143.81,139.236,153.16,129.886,153.16,118.351L153.16,27.847L34.809,27.847ZM34.809,27.847"/>
</g>
  <g id="Heavy-L" transform="matrix(1.0,0.0,0.0,1.0,2554.428318373736,1435.5575042724608)">  <path stroke-width="1px" stroke-dasharray="none" stroke="none" stroke-linecap="butt" fill-opacity="1" stroke-linejoin="miter" fill-rule="evenodd" clip-rule="evenodd" stroke-opacity="1" stroke-miterlimit="4" fill="#000000" d="M90.503,55.694L56.036,55.806L55.694,111.389L90.503,111.389L90.503,55.694ZM83.542,62.677L83.542,104.427L62.698,104.427L62.956,62.74L83.542,62.677ZM83.542,62.677"/>
  <path stroke-opacity="1" fill="#000000" stroke-miterlimit="4" stroke="none" stroke-dasharray="none" fill-rule="evenodd" stroke-linecap="butt" stroke-width="1px" stroke-linejoin="miter" fill-opacity="1" clip-rule="evenodd" d="M97.465,62.656L132.274,62.656L132.274,55.694L97.465,55.694L97.465,62.656ZM97.465,62.656"/>
  <path fill-rule="evenodd" fill="#000000" stroke-width="1px" fill-opacity="1" stroke-linejoin="miter" stroke="none" stroke-miterlimit="4" stroke-opacity="1" stroke-linecap="butt" stroke-dasharray="none" clip-rule="evenodd" d="M97.465,76.58L132.274,76.58L132.274,69.618L97.465,69.618L97.465,76.58ZM97.465,76.58"/>
  <path stroke-width="1px" stroke-linecap="butt" stroke-dasharray="none" clip-rule="evenodd" fill-rule="evenodd" stroke-miterlimit="4" fill-opacity="1" stroke-opacity="1" stroke-linejoin="miter" stroke="none" fill="#000000" d="M97.465,90.503L132.274,90.503L132.274,83.542L97.465,83.542L97.465,90.503ZM97.465,90.503"/>
  <path fill-rule="evenodd" stroke-dasharray="none" stroke-linejoin="miter" stroke-width="1px" stroke-miterlimit="4" clip-rule="evenodd" stroke="none" stroke-opacity="1" fill-opacity="1" fill="#000000" stroke-linecap="butt" d="M97.465,104.427L132.274,104.427L132.274,97.465L97.465,97.465L97.465,104.427ZM97.465,104.427"/>
  <path fill-rule="evenodd" fill-opacity="1" stroke-dasharray="none" stroke-linejoin="miter" stroke-linecap="butt" stroke="none" fill="#000000" clip-rule="evenodd" stroke-width="1px" stroke-opacity="1" stroke-miterlimit="4" d="M139.236,118.351C139.236,122.194,136.124,125.313,132.274,125.313L48.733,125.313L48.733,118.058L48.733,55.694L48.733,41.771L139.236,41.771L139.236,118.351ZM34.809,121.832C34.809,123.746,33.243,125.313,31.328,125.313C29.414,125.313,27.847,123.746,27.847,121.832L27.847,55.694L34.809,55.694L34.809,121.832ZM34.809,27.847L34.809,41.771L13.924,41.771L13.924,118.351C13.924,129.886,23.273,139.236,34.809,139.236L132.274,139.236C143.81,139.236,153.16,129.886,153.16,118.351L153.16,27.847L34.809,27.847ZM34.809,27.847"/>
</g>
  <g id="Bold-L" transform="matrix(1.0,0.0,0.0,1.0,2257.718318373736,1435.5575042724608)">  <path stroke-width="1px" fill="#000000" fill-rule="evenodd" stroke="none" clip-rule="evenodd" stroke-dasharray="none" stroke-miterlimit="4" stroke-linejoin="miter" stroke-opacity="1" fill-opacity="1" stroke-linecap="butt" d="M90.503,55.694L56.036,55.806L55.694,111.389L90.503,111.389L90.503,55.694ZM83.542,62.677L83.542,104.427L62.698,104.427L62.956,62.74L83.542,62.677ZM83.542,62.677"/>
  <path stroke-linejoin="miter" fill="#000000" fill-opacity="1" stroke="none" stroke-linecap="butt" fill-rule="evenodd" stroke-miterlimit="4" clip-rule="evenodd" stroke-dasharray="none" stroke-opacity="1" stroke-width="1px" d="M97.465,62.656L132.274,62.656L132.274,55.694L97.465,55.694L97.465,62.656ZM97.465,62.656"/>
  <path stroke-dasharray="none" fill-opacity="1" stroke-linejoin="miter" fill-rule="evenodd" stroke-opacity="1" stroke-miterlimit="4" stroke="none" stroke-linecap="butt" stroke-width="1px" clip-rule="evenodd" fill="#000000" d="M97.465,76.58L132.274,76.58L132.274,69.618L97.465,69.618L97.465,76.58ZM97.465,76.58"/>
  <path clip-rule="evenodd" stroke-dasharray="none" fill="#000000" stroke-miterlimit="4" fill-rule="evenodd" fill-opacity="1" stroke-linejoin="miter" stroke-opacity="1" stroke-width="1px" stroke="none" stroke-linecap="butt" d="M97.465,90.503L132.274,90.503L132.274,83.542L97.465,83.542L97.465,90.503ZM97.465,90.503"/>
  <path fill-rule="evenodd" fill-opacity="1" stroke-linecap="butt" stroke-width="1px" clip-rule="evenodd" stroke="none" stroke-linejoin="miter" fill="#000000" stroke-opacity="1" stroke-dasharray="none" stroke-miterlimit="4" d="M97.465,104.427L132.274,104.427L132.274,97.465L97.465,97.465L97.465,104.427ZM97.465,104.427"/>
  <path stroke-width="1px" fill="#000000" stroke-opacity="1" stroke="none" fill-opacity="1" stroke-miterlimit="4" stroke-dasharray="none" fill-rule="evenodd" stroke-linecap="butt" clip-rule="evenodd" stroke-linejoin="miter" d="M139.236,118.351C139.236,122.194,136.124,125.313,132.274,125.313L48.733,125.313L48.733,118.058L48.733,55.694L48.733,41.771L139.236,41.771L139.236,118.351ZM34.809,121.832C34.809,123.746,33.243,125.313,31.328,125.313C29.414,125.313,27.847,123.746,27.847,121.832L27.847,55.694L34.809,55.694L34.809,121.832ZM34.809,27.847L34.809,41.771L13.924,41.771L13.924,118.351C13.924,129.886,23.273,139.236,34.809,139.236L132.274,139.236C143.81,139.236,153.16,129.886,153.16,118.351L153.16,27.847L34.809,27.847ZM34.809,27.847"/>
</g>
  <g id="Semibold-L" transform="matrix(1.0,0.0,0.0,1.0,1961.008318373736,1435.5575042724608)">  <path stroke-dasharray="none" fill-opacity="1" stroke-opacity="1" clip-rule="evenodd" stroke-width="1px" fill="#000000" fill-rule="evenodd" stroke="none" stroke-linejoin="miter" stroke-miterlimit="4" stroke-linecap="butt" d="M90.503,55.694L56.036,55.806L55.694,111.389L90.503,111.389L90.503,55.694ZM83.542,62.677L83.542,104.427L62.698,104.427L62.956,62.74L83.542,62.677ZM83.542,62.677"/>
  <path fill-opacity="1" stroke-linecap="butt" stroke-linejoin="miter" fill-rule="evenodd" stroke-opacity="1" stroke="none" stroke-miterlimit="4" stroke-width="1px" clip-rule="evenodd" fill="#000000" stroke-dasharray="none" d="M97.465,62.656L132.274,62.656L132.274,55.694L97.465,55.694L97.465,62.656ZM97.465,62.656"/>
  <path stroke-linejoin="miter" clip-rule="evenodd" stroke="none" stroke-opacity="1" fill-rule="evenodd" stroke-miterlimit="4" stroke-linecap="butt" fill-opacity="1" stroke-dasharray="none" fill="#000000" stroke-width="1px" d="M97.465,76.58L132.274,76.58L132.274,69.618L97.465,69.618L97.465,76.58ZM97.465,76.58"/>
  <path stroke="none" stroke-linejoin="miter" stroke-linecap="butt" fill-opacity="1" fill="#000000" stroke-width="1px" stroke-opacity="1" clip-rule="evenodd" stroke-dasharray="none" stroke-miterlimit="4" fill-rule="evenodd" d="M97.465,90.503L132.274,90.503L132.274,83.542L97.465,83.542L97.465,90.503ZM97.465,90.503"/>
  <path clip-rule="evenodd" stroke-linejoin="miter" stroke-opacity="1" fill-rule="evenodd" stroke-dasharray="none" fill="#000000" stroke-miterlimit="4" stroke-width="1px" stroke="none" stroke-linecap="butt" fill-opacity="1" d="M97.465,104.427L132.274,104.427L132.274,97.465L97.465,97.465L97.465,104.427ZM97.465,104.427"/>
  <path fill-opacity="1" clip-rule="evenodd" stroke-miterlimit="4" stroke-linecap="butt" stroke-linejoin="miter" fill="#000000" stroke-dasharray="none" stroke-width="1px" stroke-opacity="1" fill-rule="evenodd" stroke="none" d="M139.236,118.351C139.236,122.194,136.124,125.313,132.274,125.313L48.733,125.313L48.733,118.058L48.733,55.694L48.733,41.771L139.236,41.771L139.236,118.351ZM34.809,121.832C34.809,123.746,33.243,125.313,31.328,125.313C29.414,125.313,27.847,123.746,27.847,121.832L27.847,55.694L34.809,55.694L34.809,121.832ZM34.809,27.847L34.809,41.771L13.924,41.771L13.924,118.351C13.924,129.886,23.273,139.236,34.809,139.236L132.274,139.236C143.81,139.236,153.16,129.886,153.16,118.351L153.16,27.847L34.809,27.847ZM34.809,27.847"/>
</g>
  <g id="Medium-L" transform="matrix(1.0,0.0,0.0,1.0,1664.298318373736,1435.5575042724608)">  <path stroke="none" fill-rule="evenodd" stroke-opacity="1" stroke-miterlimit="4" fill="#000000" stroke-linejoin="miter" stroke-dasharray="none" clip-rule="evenodd" stroke-width="1px" fill-opacity="1" stroke-linecap="butt" d="M90.503,55.694L56.036,55.806L55.694,111.389L90.503,111.389L90.503,55.694ZM83.542,62.677L83.542,104.427L62.698,104.427L62.956,62.74L83.542,62.677ZM83.542,62.677"/>
  <path stroke-width="1px" stroke-linejoin="miter" fill="#000000" clip-rule="evenodd" stroke-opacity="1" stroke-dasharray="none" stroke-miterlimit="4" fill-opacity="1" fill-rule="evenodd" stroke="none" stroke-linecap="butt" d="M97.465,62.656L132.274,62.656L132.274,55.694L97.465,55.694L97.465,62.656ZM97.465,62.656"/>
  <path stroke-linecap="butt" stroke-dasharray="none" fill-rule="evenodd" fill="#000000" stroke-linejoin="miter" stroke-width="1px" stroke-opacity="1" clip-rule="evenodd" stroke="none" fill-opacity="1" stroke-miterlimit="4" d="M97.465,76.58L132.274,76.58L132.274,69.618L97.465,69.618L97.465,76.58ZM97.465,76.58"/>
  <path stroke-width="1px" stroke-linecap="butt" stroke-miterlimit="4" clip-rule="evenodd" fill-opacity="1" stroke-linejoin="miter" stroke-dasharray="none" fill-rule="evenodd" stroke-opacity="1" stroke="none" fill="#000000" d="M97.465,90.503L132.274,90.503L132.274,83.542L97.465,83.542L97.465,90.503ZM97.465,90.503"/>
  <path stroke-miterlimit="4" stroke-width="1px" fill-rule="evenodd" fill-opacity="1" clip-rule="evenodd" stroke-linecap="butt" stroke="none" fill="#000000" stroke-opacity="1" stroke-dasharray="none" stroke-linejoin="miter" d="M97.465,104.427L132.274,104.427L132.274,97.465L97.465,97.465L97.465,104.427ZM97.465,104.427"/>
  <path fill-rule="evenodd" stroke-opacity="1" fill="#000000" stroke="none" stroke-dasharray="none" clip-rule="evenodd" stroke-linecap="butt" stroke-width="1px" stroke-linejoin="miter" stroke-miterlimit="4" fill-opacity="1" d="M139.236,118.351C139.236,122.194,136.124,125.313,132.274,125.313L48.733,125.313L48.733,118.058L48.733,55.694L48.733,41.771L139.236,41.771L139.236,118.351ZM34.809,121.832C34.809,123.746,33.243,125.313,31.328,125.313C29.414,125.313,27.847,123.746,27.847,121.832L27.847,55.694L34.809,55.694L34.809,121.832ZM34.809,27.847L34.809,41.771L13.924,41.771L13.924,118.351C13.924,129.886,23.273,139.236,34.809,139.236L132.274,139.236C143.81,139.236,153.16,129.886,153.16,118.351L153.16,27.847L34.809,27.847ZM34.809,27.847"/>
</g>
  <g id="Regular-L" transform="matrix(1.0,0.0,0.0,1.0,1367.588318373736,1435.5575042724608)">  <path fill-opacity="1" stroke-opacity="1" stroke-linecap="butt" stroke-miterlimit="4" stroke-dasharray="none" stroke-width="1px" stroke="none" fill-rule="evenodd" stroke-linejoin="miter" clip-rule="evenodd" fill="#000000" d="M90.503,55.694L56.036,55.806L55.694,111.389L90.503,111.389L90.503,55.694ZM83.542,62.677L83.542,104.427L62.698,104.427L62.956,62.74L83.542,62.677ZM83.542,62.677"/>
  <path stroke-linecap="butt" stroke-width="1px" stroke-linejoin="miter" stroke-opacity="1" stroke-dasharray="none" fill-rule="evenodd" fill="#000000" clip-rule="evenodd" stroke="none" fill-opacity="1" stroke-miterlimit="4" d="M97.465,62.656L132.274,62.656L132.274,55.694L97.465,55.694L97.465,62.656ZM97.465,62.656"/>
  <path stroke-opacity="1" stroke-width="1px" stroke-linecap="butt" stroke-linejoin="miter" clip-rule="evenodd" stroke-dasharray="none" stroke="none" fill-rule="evenodd" fill-opacity="1" fill="#000000" stroke-miterlimit="4" d="M97.465,76.58L132.274,76.58L132.274,69.618L97.465,69.618L97.465,76.58ZM97.465,76.58"/>
  <path stroke-width="1px" stroke-miterlimit="4" stroke-dasharray="none" stroke-opacity="1" stroke-linecap="butt" fill-rule="evenodd" clip-rule="evenodd" fill="#000000" fill-opacity="1" stroke-linejoin="miter" stroke="none" d="M97.465,90.503L132.274,90.503L132.274,83.542L97.465,83.542L97.465,90.503ZM97.465,90.503"/>
  <path stroke-dasharray="none" stroke-linecap="butt" fill="#000000" fill-rule="evenodd" stroke-width="1px" stroke="none" stroke-opacity="1" clip-rule="evenodd" stroke-linejoin="miter" stroke-miterlimit="4" fill-opacity="1" d="M97.465,104.427L132.274,104.427L132.274,97.465L97.465,97.465L97.465,104.427ZM97.465,104.427"/>
  <path stroke-opacity="1" fill-opacity="1" stroke-linecap="butt" stroke-miterlimit="4" clip-rule="evenodd" stroke-linejoin="miter" fill="#000000" stroke-width="1px" stroke-dasharray="none" fill-rule="evenodd" stroke="none" d="M139.236,118.351C139.236,122.194,136.124,125.313,132.274,125.313L48.733,125.313L48.733,118.058L48.733,55.694L48.733,41.771L139.236,41.771L139.236,118.351ZM34.809,121.832C34.809,123.746,33.243,125.313,31.328,125.313C29.414,125.313,27.847,123.746,27.847,121.832L27.847,55.694L34.809,55.694L34.809,121.832ZM34.809,27.847L34.809,41.771L13.924,41.771L13.924,118.351C13.924,129.886,23.273,139.236,34.809,139.236L132.274,139.236C143.81,139.236,153.16,129.886,153.16,118.351L153.16,27.847L34.809,27.847ZM34.809,27.847"/>
</g>
  <g id="Light-L" transform="matrix(1.0,0.0,0.0,1.0,1070.8783183737362,1435.5575042724608)">  <path stroke-width="1px" stroke-dasharray="none" fill-rule="evenodd" stroke="none" fill-opacity="1" stroke-opacity="1" stroke-linejoin="miter" fill="#000000" clip-rule="evenodd" stroke-miterlimit="4" stroke-linecap="butt" d="M90.503,55.694L56.036,55.806L55.694,111.389L90.503,111.389L90.503,55.694ZM83.542,62.677L83.542,104.427L62.698,104.427L62.956,62.74L83.542,62.677ZM83.542,62.677"/>
  <path fill-opacity="1" stroke-miterlimit="4" stroke-opacity="1" stroke="none" stroke-dasharray="none" clip-rule="evenodd" fill-rule="evenodd" stroke-linejoin="miter" stroke-linecap="butt" fill="#000000" stroke-width="1px" d="M97.465,62.656L132.274,62.656L132.274,55.694L97.465,55.694L97.465,62.656ZM97.465,62.656"/>
  <path stroke-opacity="1" clip-rule="evenodd" stroke-linejoin="miter" fill="#000000" stroke-dasharray="none" stroke="none" stroke-width="1px" stroke-miterlimit="4" fill-opacity="1" fill-rule="evenodd" stroke-linecap="butt" d="M97.465,76.58L132.274,76.58L132.274,69.618L97.465,69.618L97.465,76.58ZM97.465,76.58"/>
  <path clip-rule="evenodd" stroke-width="1px" fill-opacity="1" stroke-linecap="butt" stroke-linejoin="miter" fill-rule="evenodd" fill="#000000" stroke-opacity="1" stroke-miterlimit="4" stroke-dasharray="none" stroke="none" d="M97.465,90.503L132.274,90.503L132.274,83.542L97.465,83.542L97.465,90.503ZM97.465,90.503"/>
  <path clip-rule="evenodd" stroke-width="1px" stroke="none" fill-rule="evenodd" stroke-opacity="1" fill="#000000" fill-opacity="1" stroke-dasharray="none" stroke-linecap="butt" stroke-miterlimit="4" stroke-linejoin="miter" d="M97.465,104.427L132.274,104.427L132.274,97.465L97.465,97.465L97.465,104.427ZM97.465,104.427"/>
  <path stroke-linejoin="miter" clip-rule="evenodd" stroke-width="1px" fill="#000000" stroke-linecap="butt" stroke="none" stroke-miterlimit="4" stroke-dasharray="none" fill-opacity="1" fill-rule="evenodd" stroke-opacity="1" d="M139.236,118.351C139.236,122.194,136.124,125.313,132.274,125.313L48.733,125.313L48.733,118.058L48.733,55.694L48.733,41.771L139.236,41.771L139.236,118.351ZM34.809,121.832C34.809,123.746,33.243,125.313,31.328,125.313C29.414,125.313,27.847,123.746,27.847,121.832L27.847,55.694L34.809,55.694L34.809,121.832ZM34.809,27.847L34.809,41.771L13.924,41.771L13.924,118.351C13.924,129.886,23.273,139.236,34.809,139.236L132.274,139.236C143.81,139.236,153.16,129.886,153.16,118.351L153.16,27.847L34.809,27.847ZM34.809,27.847"/>
</g>
  <g id="Thin-L" transform="matrix(1.0,0.0,0.0,1.0,774.1683183737363,1435.5575042724608)">  <path stroke="none" stroke-linejoin="miter" fill-opacity="1" stroke-opacity="1" stroke-linecap="butt" fill-rule="evenodd" stroke-miterlimit="4" fill="#000000" stroke-width="1px" clip-rule="evenodd" stroke-dasharray="none" d="M90.503,55.694L56.036,55.806L55.694,111.389L90.503,111.389L90.503,55.694ZM83.542,62.677L83.542,104.427L62.698,104.427L62.956,62.74L83.542,62.677ZM83.542,62.677"/>
  <path fill-opacity="1" stroke-dasharray="none" clip-rule="evenodd" fill="#000000" stroke-width="1px" fill-rule="evenodd" stroke="none" stroke-opacity="1" stroke-linecap="butt" stroke-linejoin="miter" stroke-miterlimit="4" d="M97.465,62.656L132.274,62.656L132.274,55.694L97.465,55.694L97.465,62.656ZM97.465,62.656"/>
  <path fill-rule="evenodd" fill="#000000" stroke-opacity="1" stroke-dasharray="none" fill-opacity="1" stroke-width="1px" stroke-linecap="butt" clip-rule="evenodd" stroke="none" stroke-miterlimit="4" stroke-linejoin="miter" d="M97.465,76.58L132.274,76.58L132.274,69.618L97.465,69.618L97.465,76.58ZM97.465,76.58"/>
  <path stroke-width="1px" fill-opacity="1" stroke="none" stroke-opacity="1" stroke-miterlimit="4" clip-rule="evenodd" fill="#000000" stroke-dasharray="none" fill-rule="evenodd" stroke-linejoin="miter" stroke-linecap="butt" d="M97.465,90.503L132.274,90.503L132.274,83.542L97.465,83.542L97.465,90.503ZM97.465,90.503"/>
  <path fill-rule="evenodd" fill="#000000" stroke-width="1px" stroke-linejoin="miter" stroke-dasharray="none" clip-rule="evenodd" stroke-miterlimit="4" stroke-opacity="1" fill-opacity="1" stroke-linecap="butt" stroke="none" d="M97.465,104.427L132.274,104.427L132.274,97.465L97.465,97.465L97.465,104.427ZM97.465,104.427"/>
  <path fill-opacity="1" stroke-dasharray="none" stroke-linejoin="miter" stroke-opacity="1" stroke-width="1px" clip-rule="evenodd" fill-rule="evenodd" stroke-miterlimit="4" fill="#000000" stroke-linecap="butt" stroke="none" d="M139.236,118.351C139.236,122.194,136.124,125.313,132.274,125.313L48.733,125.313L48.733,118.058L48.733,55.694L48.733,41.771L139.236,41.771L139.236,118.351ZM34.809,121.832C34.809,123.746,33.243,125.313,31.328,125.313C29.414,125.313,27.847,123.746,27.847,121.832L27.847,55.694L34.809,55.694L34.809,121.832ZM34.809,27.847L34.809,41.771L13.924,41.771L13.924,118.351C13.924,129.886,23.273,139.236,34.809,139.236L132.274,139.236C143.81,139.236,153.16,129.886,153.16,118.351L153.16,27.847L34.809,27.847ZM34.809,27.847"/>
</g>
  <g id="Ultralight-L" transform="matrix(1.0,0.0,0.0,1.0,477.45831837373623,1435.5575042724608)">  <path stroke-linecap="butt" clip-rule="evenodd" fill-rule="evenodd" stroke="none" stroke-miterlimit="4" fill-opacity="1" stroke-linejoin="miter" stroke-width="1px" fill="#000000" stroke-dasharray="none" stroke-opacity="1" d="M90.503,55.694L56.036,55.806L55.694,111.389L90.503,111.389L90.503,55.694ZM83.542,62.677L83.542,104.427L62.698,104.427L62.956,62.74L83.542,62.677ZM83.542,62.677"/>
  <path stroke="none" fill-opacity="1" stroke-dasharray="none" stroke-linejoin="miter" stroke-width="1px" fill-rule="evenodd" fill="#000000" stroke-opacity="1" stroke-miterlimit="4" stroke-linecap="butt" clip-rule="evenodd" d="M97.465,62.656L132.274,62.656L132.274,55.694L97.465,55.694L97.465,62.656ZM97.465,62.656"/>
  <path stroke-opacity="1" stroke="none" fill-rule="evenodd" stroke-linejoin="miter" clip-rule="evenodd" stroke-width="1px" stroke-dasharray="none" stroke-miterlimit="4" stroke-linecap="butt" fill-opacity="1" fill="#000000" d="M97.465,76.58L132.274,76.58L132.274,69.618L97.465,69.618L97.465,76.58ZM97.465,76.58"/>
  <path stroke-opacity="1" fill="#000000" fill-rule="evenodd" stroke-linejoin="miter" stroke="none" fill-opacity="1" stroke-dasharray="none" stroke-width="1px" stroke-linecap="butt" clip-rule="evenodd" stroke-miterlimit="4" d="M97.465,90.503L132.274,90.503L132.274,83.542L97.465,83.542L97.465,90.503ZM97.465,90.503"/>
  <path stroke="none" fill-opacity="1" stroke-dasharray="none" fill-rule="evenodd" stroke-linejoin="miter" fill="#000000" stroke-width="1px" stroke-opacity="1" stroke-miterlimit="4" stroke-linecap="butt" clip-rule="evenodd" d="M97.465,104.427L132.274,104.427L132.274,97.465L97.465,97.465L97.465,104.427ZM97.465,104.427"/>
  <path fill-rule="evenodd" stroke="none" stroke-miterlimit="4" stroke-width="1px" stroke-opacity="1" clip-rule="evenodd" stroke-linejoin="miter" fill-opacity="1" fill="#000000" stroke-linecap="butt" stroke-dasharray="none" d="M139.236,118.351C139.236,122.194,136.124,125.313,132.274,125.313L48.733,125.313L48.733,118.058L48.733,55.694L48.733,41.771L139.236,41.771L139.236,118.351ZM34.809,121.832C34.809,123.746,33.243,125.313,31.328,125.313C29.414,125.313,27.847,123.746,27.847,121.832L27.847,55.694L34.809,55.694L34.809,121.832ZM34.809,27.847L34.809,41.771L13.924,41.771L13.924,118.351C13.924,129.886,23.273,139.236,34.809,139.236L132.274,139.236C143.81,139.236,153.16,129.886,153.16,118.351L153.16,27.847L34.809,27.847ZM34.809,27.847"/>
</g>
  <g id="Black-M" transform="matrix(1.0,0.0,0.0,1.0,2869.919006491268,1024.7138061523438)">  <path stroke-miterlimit="4" stroke="none" fill-opacity="1" stroke-dasharray="none" fill="#000000" clip-rule="evenodd" stroke-width="1px" stroke-linecap="butt" fill-rule="evenodd" stroke-linejoin="miter" stroke-opacity="1" d="M70.158,43.174L43.438,43.26L43.174,86.348L70.158,86.348L70.158,43.174ZM64.761,48.587L64.761,80.951L48.603,80.951L48.803,48.636L64.761,48.587ZM64.761,48.587"/>
  <path stroke-opacity="1" stroke-dasharray="none" fill-opacity="1" stroke="none" stroke-linecap="butt" stroke-width="1px" clip-rule="evenodd" fill-rule="evenodd" stroke-linejoin="miter" stroke-miterlimit="4" fill="#000000" d="M75.554,48.571L102.538,48.571L102.538,43.174L75.554,43.174L75.554,48.571ZM75.554,48.571"/>
  <path stroke-linecap="butt" fill-rule="evenodd" stroke-dasharray="none" stroke-linejoin="miter" stroke="none" stroke-width="1px" stroke-opacity="1" clip-rule="evenodd" fill-opacity="1" fill="#000000" stroke-miterlimit="4" d="M75.554,59.364L102.538,59.364L102.538,53.967L75.554,53.967L75.554,59.364ZM75.554,59.364"/>
  <path fill-opacity="1" stroke-miterlimit="4" stroke-linecap="butt" stroke-dasharray="none" fill-rule="evenodd" clip-rule="evenodd" stroke-width="1px" stroke-opacity="1" stroke="none" fill="#000000" stroke-linejoin="miter" d="M75.554,70.158L102.538,70.158L102.538,64.761L75.554,64.761L75.554,70.158ZM75.554,70.158"/>
  <path fill-rule="evenodd" clip-rule="evenodd" stroke="none" fill="#000000" stroke-miterlimit="4" stroke-dasharray="none" stroke-linecap="butt" fill-opacity="1" stroke-width="1px" stroke-linejoin="miter" stroke-opacity="1" d="M75.554,80.951L102.538,80.951L102.538,75.554L75.554,75.554L75.554,80.951ZM75.554,80.951"/>
  <path stroke-dasharray="none" stroke-opacity="1" stroke-linecap="butt" stroke-miterlimit="4" stroke-width="1px" stroke="none" stroke-linejoin="miter" clip-rule="evenodd" fill-opacity="1" fill-rule="evenodd" fill="#000000" d="M107.935,91.745C107.935,94.724,105.523,97.141,102.538,97.141L37.777,97.141L37.777,91.518L37.777,43.174L37.777,32.38L107.935,32.38L107.935,91.745ZM26.984,94.443C26.984,95.927,25.769,97.141,24.285,97.141C22.801,97.141,21.587,95.927,21.587,94.443L21.587,43.174L26.984,43.174L26.984,94.443ZM26.984,21.587L26.984,32.38L10.793,32.38L10.793,91.745C10.793,100.687,18.041,107.935,26.984,107.935L102.538,107.935C111.481,107.935,118.728,100.687,118.728,91.745L118.728,21.587L26.984,21.587ZM26.984,21.587"/>
</g>
  <g id="Heavy-M" transform="matrix(1.0,0.0,0.0,1.0,2573.209006491268,1024.7138061523438)">  <path stroke-width="1px" stroke-dasharray="none" stroke="none" stroke-linecap="butt" fill-opacity="1" stroke-linejoin="miter" fill-rule="evenodd" clip-rule="evenodd" stroke-opacity="1" stroke-miterlimit="4" fill="#000000" d="M70.158,43.174L43.438,43.26L43.174,86.348L70.158,86.348L70.158,43.174ZM64.761,48.587L64.761,80.951L48.603,80.951L48.803,48.636L64.761,48.587ZM64.761,48.587"/>
  <path stroke-opacity="1" fill="#000000" stroke-miterlimit="4" stroke="none" stroke-dasharray="none" fill-rule="evenodd" stroke-linecap="butt" stroke-width="1px" stroke-linejoin="miter" fill-opacity="1" clip-rule="evenodd" d="M75.554,48.571L102.538,48.571L102.538,43.174L75.554,43.174L75.554,48.571ZM75.554,48.571"/>
  <path fill-rule="evenodd" fill="#000000" stroke-width="1px" fill-opacity="1" stroke-linejoin="miter" stroke="none" stroke-miterlimit="4" stroke-opacity="1" stroke-linecap="butt" stroke-dasharray="none" clip-rule="evenodd" d="M75.554,59.364L102.538,59.364L102.538,53.967L75.554,53.967L75.554,59.364ZM75.554,59.364"/>
  <path stroke-width="1px" stroke-linecap="butt" stroke-dasharray="none" clip-rule="evenodd" fill-rule="evenodd" stroke-miterlimit="4" fill-opacity="1" stroke-opacity="1" stroke-linejoin="miter" stroke="none" fill="#000000" d="M75.554,70.158L102.538,70.158L102.538,64.761L75.554,64.761L75.554,70.158ZM75.554,70.158"/>
  <path fill-rule="evenodd" stroke-dasharray="none" stroke-linejoin="miter" stroke-width="1px" stroke-miterlimit="4" clip-rule="evenodd" stroke="none" stroke-opacity="1" fill-opacity="1" fill="#000000" stroke-linecap="butt" d="M75.554,80.951L102.538,80.951L102.538,75.554L75.554,75.554L75.554,80.951ZM75.554,80.951"/>
  <path fill-rule="evenodd" fill-opacity="1" stroke-dasharray="none" stroke-linejoin="miter" stroke-linecap="butt" stroke="none" fill="#000000" clip-rule="evenodd" stroke-width="1px" stroke-opacity="1" stroke-miterlimit="4" d="M107.935,91.745C107.935,94.724,105.523,97.141,102.538,97.141L37.777,97.141L37.777,91.518L37.777,43.174L37.777,32.38L107.935,32.38L107.935,91.745ZM26.984,94.443C26.984,95.927,25.769,97.141,24.285,97.141C22.801,97.141,21.587,95.927,21.587,94.443L21.587,43.174L26.984,43.174L26.984,94.443ZM26.984,21.587L26.984,32.38L10.793,32.38L10.793,91.745C10.793,100.687,18.041,107.935,26.984,107.935L102.538,107.935C111.481,107.935,118.728,100.687,118.728,91.745L118.728,21.587L26.984,21.587ZM26.984,21.587"/>
</g>
  <g id="Bold-M" transform="matrix(1.0,0.0,0.0,1.0,2276.499006491268,1024.7138061523438)">  <path stroke-width="1px" fill="#000000" fill-rule="evenodd" stroke="none" clip-rule="evenodd" stroke-dasharray="none" stroke-miterlimit="4" stroke-linejoin="miter" stroke-opacity="1" fill-opacity="1" stroke-linecap="butt" d="M70.158,43.174L43.438,43.26L43.174,86.348L70.158,86.348L70.158,43.174ZM64.761,48.587L64.761,80.951L48.603,80.951L48.803,48.636L64.761,48.587ZM64.761,48.587"/>
  <path stroke-linejoin="miter" fill="#000000" fill-opacity="1" stroke="none" stroke-linecap="butt" fill-rule="evenodd" stroke-miterlimit="4" clip-rule="evenodd" stroke-dasharray="none" stroke-opacity="1" stroke-width="1px" d="M75.554,48.571L102.538,48.571L102.538,43.174L75.554,43.174L75.554,48.571ZM75.554,48.571"/>
  <path stroke-dasharray="none" fill-opacity="1" stroke-linejoin="miter" fill-rule="evenodd" stroke-opacity="1" stroke-miterlimit="4" stroke="none" stroke-linecap="butt" stroke-width="1px" clip-rule="evenodd" fill="#000000" d="M75.554,59.364L102.538,59.364L102.538,53.967L75.554,53.967L75.554,59.364ZM75.554,59.364"/>
  <path clip-rule="evenodd" stroke-dasharray="none" fill="#000000" stroke-miterlimit="4" fill-rule="evenodd" fill-opacity="1" stroke-linejoin="miter" stroke-opacity="1" stroke-width="1px" stroke="none" stroke-linecap="butt" d="M75.554,70.158L102.538,70.158L102.538,64.761L75.554,64.761L75.554,70.158ZM75.554,70.158"/>
  <path fill-rule="evenodd" fill-opacity="1" stroke-linecap="butt" stroke-width="1px" clip-rule="evenodd" stroke="none" stroke-linejoin="miter" fill="#000000" stroke-opacity="1" stroke-dasharray="none" stroke-miterlimit="4" d="M75.554,80.951L102.538,80.951L102.538,75.554L75.554,75.554L75.554,80.951ZM75.554,80.951"/>
  <path stroke-width="1px" fill="#000000" stroke-opacity="1" stroke="none" fill-opacity="1" stroke-miterlimit="4" stroke-dasharray="none" fill-rule="evenodd" stroke-linecap="butt" clip-rule="evenodd" stroke-linejoin="miter" d="M107.935,91.745C107.935,94.724,105.523,97.141,102.538,97.141L37.777,97.141L37.777,91.518L37.777,43.174L37.777,32.38L107.935,32.38L107.935,91.745ZM26.984,94.443C26.984,95.927,25.769,97.141,24.285,97.141C22.801,97.141,21.587,95.927,21.587,94.443L21.587,43.174L26.984,43.174L26.984,94.443ZM26.984,21.587L26.984,32.38L10.793,32.38L10.793,91.745C10.793,100.687,18.041,107.935,26.984,107.935L102.538,107.935C111.481,107.935,118.728,100.687,118.728,91.745L118.728,21.587L26.984,21.587ZM26.984,21.587"/>
</g>
  <g id="Semibold-M" transform="matrix(1.0,0.0,0.0,1.0,1979.7890064912683,1024.7138061523438)">  <path stroke-dasharray="none" fill-opacity="1" stroke-opacity="1" clip-rule="evenodd" stroke-width="1px" fill="#000000" fill-rule="evenodd" stroke="none" stroke-linejoin="miter" stroke-miterlimit="4" stroke-linecap="butt" d="M70.158,43.174L43.438,43.26L43.174,86.348L70.158,86.348L70.158,43.174ZM64.761,48.587L64.761,80.951L48.603,80.951L48.803,48.636L64.761,48.587ZM64.761,48.587"/>
  <path fill-opacity="1" stroke-linecap="butt" stroke-linejoin="miter" fill-rule="evenodd" stroke-opacity="1" stroke="none" stroke-miterlimit="4" stroke-width="1px" clip-rule="evenodd" fill="#000000" stroke-dasharray="none" d="M75.554,48.571L102.538,48.571L102.538,43.174L75.554,43.174L75.554,48.571ZM75.554,48.571"/>
  <path stroke-linejoin="miter" clip-rule="evenodd" stroke="none" stroke-opacity="1" fill-rule="evenodd" stroke-miterlimit="4" stroke-linecap="butt" fill-opacity="1" stroke-dasharray="none" fill="#000000" stroke-width="1px" d="M75.554,59.364L102.538,59.364L102.538,53.967L75.554,53.967L75.554,59.364ZM75.554,59.364"/>
  <path stroke="none" stroke-linejoin="miter" stroke-linecap="butt" fill-opacity="1" fill="#000000" stroke-width="1px" stroke-opacity="1" clip-rule="evenodd" stroke-dasharray="none" stroke-miterlimit="4" fill-rule="evenodd" d="M75.554,70.158L102.538,70.158L102.538,64.761L75.554,64.761L75.554,70.158ZM75.554,70.158"/>
  <path clip-rule="evenodd" stroke-linejoin="miter" stroke-opacity="1" fill-rule="evenodd" stroke-dasharray="none" fill="#000000" stroke-miterlimit="4" stroke-width="1px" stroke="none" stroke-linecap="butt" fill-opacity="1" d="M75.554,80.951L102.538,80.951L102.538,75.554L75.554,75.554L75.554,80.951ZM75.554,80.951"/>
  <path fill-opacity="1" clip-rule="evenodd" stroke-miterlimit="4" stroke-linecap="butt" stroke-linejoin="miter" fill="#000000" stroke-dasharray="none" stroke-width="1px" stroke-opacity="1" fill-rule="evenodd" stroke="none" d="M107.935,91.745C107.935,94.724,105.523,97.141,102.538,97.141L37.777,97.141L37.777,91.518L37.777,43.174L37.777,32.38L107.935,32.38L107.935,91.745ZM26.984,94.443C26.984,95.927,25.769,97.141,24.285,97.141C22.801,97.141,21.587,95.927,21.587,94.443L21.587,43.174L26.984,43.174L26.984,94.443ZM26.984,21.587L26.984,32.38L10.793,32.38L10.793,91.745C10.793,100.687,18.041,107.935,26.984,107.935L102.538,107.935C111.481,107.935,118.728,100.687,118.728,91.745L118.728,21.587L26.984,21.587ZM26.984,21.587"/>
</g>
  <g id="Medium-M" transform="matrix(1.0,0.0,0.0,1.0,1683.0790064912683,1024.7138061523438)">  <path stroke="none" fill-rule="evenodd" stroke-opacity="1" stroke-miterlimit="4" fill="#000000" stroke-linejoin="miter" stroke-dasharray="none" clip-rule="evenodd" stroke-width="1px" fill-opacity="1" stroke-linecap="butt" d="M70.158,43.174L43.438,43.26L43.174,86.348L70.158,86.348L70.158,43.174ZM64.761,48.587L64.761,80.951L48.603,80.951L48.803,48.636L64.761,48.587ZM64.761,48.587"/>
  <path stroke-width="1px" stroke-linejoin="miter" fill="#000000" clip-rule="evenodd" stroke-opacity="1" stroke-dasharray="none" stroke-miterlimit="4" fill-opacity="1" fill-rule="evenodd" stroke="none" stroke-linecap="butt" d="M75.554,48.571L102.538,48.571L102.538,43.174L75.554,43.174L75.554,48.571ZM75.554,48.571"/>
  <path stroke-linecap="butt" stroke-dasharray="none" fill-rule="evenodd" fill="#000000" stroke-linejoin="miter" stroke-width="1px" stroke-opacity="1" clip-rule="evenodd" stroke="none" fill-opacity="1" stroke-miterlimit="4" d="M75.554,59.364L102.538,59.364L102.538,53.967L75.554,53.967L75.554,59.364ZM75.554,59.364"/>
  <path stroke-width="1px" stroke-linecap="butt" stroke-miterlimit="4" clip-rule="evenodd" fill-opacity="1" stroke-linejoin="miter" stroke-dasharray="none" fill-rule="evenodd" stroke-opacity="1" stroke="none" fill="#000000" d="M75.554,70.158L102.538,70.158L102.538,64.761L75.554,64.761L75.554,70.158ZM75.554,70.158"/>
  <path stroke-miterlimit="4" stroke-width="1px" fill-rule="evenodd" fill-opacity="1" clip-rule="evenodd" stroke-linecap="butt" stroke="none" fill="#000000" stroke-opacity="1" stroke-dasharray="none" stroke-linejoin="miter" d="M75.554,80.951L102.538,80.951L102.538,75.554L75.554,75.554L75.554,80.951ZM75.554,80.951"/>
  <path fill-rule="evenodd" stroke-opacity="1" fill="#000000" stroke="none" stroke-dasharray="none" clip-rule="evenodd" stroke-linecap="butt" stroke-width="1px" stroke-linejoin="miter" stroke-miterlimit="4" fill-opacity="1" d="M107.935,91.745C107.935,94.724,105.523,97.141,102.538,97.141L37.777,97.141L37.777,91.518L37.777,43.174L37.777,32.38L107.935,32.38L107.935,91.745ZM26.984,94.443C26.984,95.927,25.769,97.141,24.285,97.141C22.801,97.141,21.587,95.927,21.587,94.443L21.587,43.174L26.984,43.174L26.984,94.443ZM26.984,21.587L26.984,32.38L10.793,32.38L10.793,91.745C10.793,100.687,18.041,107.935,26.984,107.935L102.538,107.935C111.481,107.935,118.728,100.687,118.728,91.745L118.728,21.587L26.984,21.587ZM26.984,21.587"/>
</g>
  <g id="Regular-M" transform="matrix(1.0,0.0,0.0,1.0,1386.3690064912682,1024.7138061523438)">  <path fill-opacity="1" stroke-opacity="1" stroke-linecap="butt" stroke-miterlimit="4" stroke-dasharray="none" stroke-width="1px" stroke="none" fill-rule="evenodd" stroke-linejoin="miter" clip-rule="evenodd" fill="#000000" d="M70.158,43.174L43.438,43.26L43.174,86.348L70.158,86.348L70.158,43.174ZM64.761,48.587L64.761,80.951L48.603,80.951L48.803,48.636L64.761,48.587ZM64.761,48.587"/>
  <path stroke-linecap="butt" stroke-width="1px" stroke-linejoin="miter" stroke-opacity="1" stroke-dasharray="none" fill-rule="evenodd" fill="#000000" clip-rule="evenodd" stroke="none" fill-opacity="1" stroke-miterlimit="4" d="M75.554,48.571L102.538,48.571L102.538,43.174L75.554,43.174L75.554,48.571ZM75.554,48.571"/>
  <path stroke-opacity="1" stroke-width="1px" stroke-linecap="butt" stroke-linejoin="miter" clip-rule="evenodd" stroke-dasharray="none" stroke="none" fill-rule="evenodd" fill-opacity="1" fill="#000000" stroke-miterlimit="4" d="M75.554,59.364L102.538,59.364L102.538,53.967L75.554,53.967L75.554,59.364ZM75.554,59.364"/>
  <path stroke-width="1px" stroke-miterlimit="4" stroke-dasharray="none" stroke-opacity="1" stroke-linecap="butt" fill-rule="evenodd" clip-rule="evenodd" fill="#000000" fill-opacity="1" stroke-linejoin="miter" stroke="none" d="M75.554,70.158L102.538,70.158L102.538,64.761L75.554,64.761L75.554,70.158ZM75.554,70.158"/>
  <path stroke-dasharray="none" stroke-linecap="butt" fill="#000000" fill-rule="evenodd" stroke-width="1px" stroke="none" stroke-opacity="1" clip-rule="evenodd" stroke-linejoin="miter" stroke-miterlimit="4" fill-opacity="1" d="M75.554,80.951L102.538,80.951L102.538,75.554L75.554,75.554L75.554,80.951ZM75.554,80.951"/>
  <path stroke-opacity="1" fill-opacity="1" stroke-linecap="butt" stroke-miterlimit="4" clip-rule="evenodd" stroke-linejoin="miter" fill="#000000" stroke-width="1px" stroke-dasharray="none" fill-rule="evenodd" stroke="none" d="M107.935,91.745C107.935,94.724,105.523,97.141,102.538,97.141L37.777,97.141L37.777,91.518L37.777,43.174L37.777,32.38L107.935,32.38L107.935,91.745ZM26.984,94.443C26.984,95.927,25.769,97.141,24.285,97.141C22.801,97.141,21.587,95.927,21.587,94.443L21.587,43.174L26.984,43.174L26.984,94.443ZM26.984,21.587L26.984,32.38L10.793,32.38L10.793,91.745C10.793,100.687,18.041,107.935,26.984,107.935L102.538,107.935C111.481,107.935,118.728,100.687,118.728,91.745L118.728,21.587L26.984,21.587ZM26.984,21.587"/>
</g>
  <g id="Light-M" transform="matrix(1.0,0.0,0.0,1.0,1089.6590064912684,1024.7138061523438)">  <path stroke-width="1px" stroke-dasharray="none" fill-rule="evenodd" stroke="none" fill-opacity="1" stroke-opacity="1" stroke-linejoin="miter" fill="#000000" clip-rule="evenodd" stroke-miterlimit="4" stroke-linecap="butt" d="M70.158,43.174L43.438,43.26L43.174,86.348L70.158,86.348L70.158,43.174ZM64.761,48.587L64.761,80.951L48.603,80.951L48.803,48.636L64.761,48.587ZM64.761,48.587"/>
  <path fill-opacity="1" stroke-miterlimit="4" stroke-opacity="1" stroke="none" stroke-dasharray="none" clip-rule="evenodd" fill-rule="evenodd" stroke-linejoin="miter" stroke-linecap="butt" fill="#000000" stroke-width="1px" d="M75.554,48.571L102.538,48.571L102.538,43.174L75.554,43.174L75.554,48.571ZM75.554,48.571"/>
  <path stroke-opacity="1" clip-rule="evenodd" stroke-linejoin="miter" fill="#000000" stroke-dasharray="none" stroke="none" stroke-width="1px" stroke-miterlimit="4" fill-opacity="1" fill-rule="evenodd" stroke-linecap="butt" d="M75.554,59.364L102.538,59.364L102.538,53.967L75.554,53.967L75.554,59.364ZM75.554,59.364"/>
  <path clip-rule="evenodd" stroke-width="1px" fill-opacity="1" stroke-linecap="butt" stroke-linejoin="miter" fill-rule="evenodd" fill="#000000" stroke-opacity="1" stroke-miterlimit="4" stroke-dasharray="none" stroke="none" d="M75.554,70.158L102.538,70.158L102.538,64.761L75.554,64.761L75.554,70.158ZM75.554,70.158"/>
  <path clip-rule="evenodd" stroke-width="1px" stroke="none" fill-rule="evenodd" stroke-opacity="1" fill="#000000" fill-opacity="1" stroke-dasharray="none" stroke-linecap="butt" stroke-miterlimit="4" stroke-linejoin="miter" d="M75.554,80.951L102.538,80.951L102.538,75.554L75.554,75.554L75.554,80.951ZM75.554,80.951"/>
  <path stroke-linejoin="miter" clip-rule="evenodd" stroke-width="1px" fill="#000000" stroke-linecap="butt" stroke="none" stroke-miterlimit="4" stroke-dasharray="none" fill-opacity="1" fill-rule="evenodd" stroke-opacity="1" d="M107.935,91.745C107.935,94.724,105.523,97.141,102.538,97.141L37.777,97.141L37.777,91.518L37.777,43.174L37.777,32.38L107.935,32.38L107.935,91.745ZM26.984,94.443C26.984,95.927,25.769,97.141,24.285,97.141C22.801,97.141,21.587,95.927,21.587,94.443L21.587,43.174L26.984,43.174L26.984,94.443ZM26.984,21.587L26.984,32.38L10.793,32.38L10.793,91.745C10.793,100.687,18.041,107.935,26.984,107.935L102.538,107.935C111.481,107.935,118.728,100.687,118.728,91.745L118.728,21.587L26.984,21.587ZM26.984,21.587"/>
</g>
  <g id="Thin-M" transform="matrix(1.0,0.0,0.0,1.0,792.9490064912684,1024.7138061523438)">  <path stroke="none" stroke-linejoin="miter" fill-opacity="1" stroke-opacity="1" stroke-linecap="butt" fill-rule="evenodd" stroke-miterlimit="4" fill="#000000" stroke-width="1px" clip-rule="evenodd" stroke-dasharray="none" d="M70.158,43.174L43.438,43.26L43.174,86.348L70.158,86.348L70.158,43.174ZM64.761,48.587L64.761,80.951L48.603,80.951L48.803,48.636L64.761,48.587ZM64.761,48.587"/>
  <path fill-opacity="1" stroke-dasharray="none" clip-rule="evenodd" fill="#000000" stroke-width="1px" fill-rule="evenodd" stroke="none" stroke-opacity="1" stroke-linecap="butt" stroke-linejoin="miter" stroke-miterlimit="4" d="M75.554,48.571L102.538,48.571L102.538,43.174L75.554,43.174L75.554,48.571ZM75.554,48.571"/>
  <path fill-rule="evenodd" fill="#000000" stroke-opacity="1" stroke-dasharray="none" fill-opacity="1" stroke-width="1px" stroke-linecap="butt" clip-rule="evenodd" stroke="none" stroke-miterlimit="4" stroke-linejoin="miter" d="M75.554,59.364L102.538,59.364L102.538,53.967L75.554,53.967L75.554,59.364ZM75.554,59.364"/>
  <path stroke-width="1px" fill-opacity="1" stroke="none" stroke-opacity="1" stroke-miterlimit="4" clip-rule="evenodd" fill="#000000" stroke-dasharray="none" fill-rule="evenodd" stroke-linejoin="miter" stroke-linecap="butt" d="M75.554,70.158L102.538,70.158L102.538,64.761L75.554,64.761L75.554,70.158ZM75.554,70.158"/>
  <path fill-rule="evenodd" fill="#000000" stroke-width="1px" stroke-linejoin="miter" stroke-dasharray="none" clip-rule="evenodd" stroke-miterlimit="4" stroke-opacity="1" fill-opacity="1" stroke-linecap="butt" stroke="none" d="M75.554,80.951L102.538,80.951L102.538,75.554L75.554,75.554L75.554,80.951ZM75.554,80.951"/>
  <path fill-opacity="1" stroke-dasharray="none" stroke-linejoin="miter" stroke-opacity="1" stroke-width="1px" clip-rule="evenodd" fill-rule="evenodd" stroke-miterlimit="4" fill="#000000" stroke-linecap="butt" stroke="none" d="M107.935,91.745C107.935,94.724,105.523,97.141,102.538,97.141L37.777,97.141L37.777,91.518L37.777,43.174L37.777,32.38L107.935,32.38L107.935,91.745ZM26.984,94.443C26.984,95.927,25.769,97.141,24.285,97.141C22.801,97.141,21.587,95.927,21.587,94.443L21.587,43.174L26.984,43.174L26.984,94.443ZM26.984,21.587L26.984,32.38L10.793,32.38L10.793,91.745C10.793,100.687,18.041,107.935,26.984,107.935L102.538,107.935C111.481,107.935,118.728,100.687,118.728,91.745L118.728,21.587L26.984,21.587ZM26.984,21.587"/>
</g>
  <g id="Ultralight-M" transform="matrix(1.0,0.0,0.0,1.0,496.23900649126836,1024.7138061523438)">  <path stroke-linecap="butt" clip-rule="evenodd" fill-rule="evenodd" stroke="none" stroke-miterlimit="4" fill-opacity="1" stroke-linejoin="miter" stroke-width="1px" fill="#000000" stroke-dasharray="none" stroke-opacity="1" d="M70.158,43.174L43.438,43.26L43.174,86.348L70.158,86.348L70.158,43.174ZM64.761,48.587L64.761,80.951L48.603,80.951L48.803,48.636L64.761,48.587ZM64.761,48.587"/>
  <path stroke="none" fill-opacity="1" stroke-dasharray="none" stroke-linejoin="miter" stroke-width="1px" fill-rule="evenodd" fill="#000000" stroke-opacity="1" stroke-miterlimit="4" stroke-linecap="butt" clip-rule="evenodd" d="M75.554,48.571L102.538,48.571L102.538,43.174L75.554,43.174L75.554,48.571ZM75.554,48.571"/>
  <path stroke-opacity="1" stroke="none" fill-rule="evenodd" stroke-linejoin="miter" clip-rule="evenodd" stroke-width="1px" stroke-dasharray="none" stroke-miterlimit="4" stroke-linecap="butt" fill-opacity="1" fill="#000000" d="M75.554,59.364L102.538,59.364L102.538,53.967L75.554,53.967L75.554,59.364ZM75.554,59.364"/>
  <path stroke-opacity="1" fill="#000000" fill-rule="evenodd" stroke-linejoin="miter" stroke="none" fill-opacity="1" stroke-dasharray="none" stroke-width="1px" stroke-linecap="butt" clip-rule="evenodd" stroke-miterlimit="4" d="M75.554,70.158L102.538,70.158L102.538,64.761L75.554,64.761L75.554,70.158ZM75.554,70.158"/>
  <path stroke="none" fill-opacity="1" stroke-dasharray="none" fill-rule="evenodd" stroke-linejoin="miter" fill="#000000" stroke-width="1px" stroke-opacity="1" stroke-miterlimit="4" stroke-linecap="butt" clip-rule="evenodd" d="M75.554,80.951L102.538,80.951L102.538,75.554L75.554,75.554L75.554,80.951ZM75.554,80.951"/>
  <path fill-rule="evenodd" stroke="none" stroke-miterlimit="4" stroke-width="1px" stroke-opacity="1" clip-rule="evenodd" stroke-linejoin="miter" fill-opacity="1" fill="#000000" stroke-linecap="butt" stroke-dasharray="none" d="M107.935,91.745C107.935,94.724,105.523,97.141,102.538,97.141L37.777,97.141L37.777,91.518L37.777,43.174L37.777,32.38L107.935,32.38L107.935,91.745ZM26.984,94.443C26.984,95.927,25.769,97.141,24.285,97.141C22.801,97.141,21.587,95.927,21.587,94.443L21.587,43.174L26.984,43.174L26.984,94.443ZM26.984,21.587L26.984,32.38L10.793,32.38L10.793,91.745C10.793,100.687,18.041,107.935,26.984,107.935L102.538,107.935C111.481,107.935,118.728,100.687,118.728,91.745L118.728,21.587L26.984,21.587ZM26.984,21.587"/>
</g>
  <g id="Black-S" transform="matrix(1.0,0.0,0.0,1.0,2883.972142082663,609.0480044555663)">  <path stroke-miterlimit="4" stroke="none" fill-opacity="1" stroke-dasharray="none" fill="#000000" clip-rule="evenodd" stroke-width="1px" stroke-linecap="butt" fill-rule="evenodd" stroke-linejoin="miter" stroke-opacity="1" d="M54.934,33.805L34.012,33.873L33.805,67.61L54.934,67.61L54.934,33.805ZM50.708,38.044L50.708,63.385L38.056,63.385L38.213,38.082L50.708,38.044ZM50.708,38.044"/>
  <path stroke-opacity="1" stroke-dasharray="none" fill-opacity="1" stroke="none" stroke-linecap="butt" stroke-width="1px" clip-rule="evenodd" fill-rule="evenodd" stroke-linejoin="miter" stroke-miterlimit="4" fill="#000000" d="M59.159,38.031L80.287,38.031L80.287,33.805L59.159,33.805L59.159,38.031ZM59.159,38.031"/>
  <path stroke-linecap="butt" fill-rule="evenodd" stroke-dasharray="none" stroke-linejoin="miter" stroke="none" stroke-width="1px" stroke-opacity="1" clip-rule="evenodd" fill-opacity="1" fill="#000000" stroke-miterlimit="4" d="M59.159,46.482L80.287,46.482L80.287,42.257L59.159,42.257L59.159,46.482ZM59.159,46.482"/>
  <path fill-opacity="1" stroke-miterlimit="4" stroke-linecap="butt" stroke-dasharray="none" fill-rule="evenodd" clip-rule="evenodd" stroke-width="1px" stroke-opacity="1" stroke="none" fill="#000000" stroke-linejoin="miter" d="M59.159,54.934L80.287,54.934L80.287,50.708L59.159,50.708L59.159,54.934ZM59.159,54.934"/>
  <path fill-rule="evenodd" clip-rule="evenodd" stroke="none" fill="#000000" stroke-miterlimit="4" stroke-dasharray="none" stroke-linecap="butt" fill-opacity="1" stroke-width="1px" stroke-linejoin="miter" stroke-opacity="1" d="M59.159,63.385L80.287,63.385L80.287,59.159L59.159,59.159L59.159,63.385ZM59.159,63.385"/>
  <path stroke-dasharray="none" stroke-opacity="1" stroke-linecap="butt" stroke-miterlimit="4" stroke-width="1px" stroke="none" stroke-linejoin="miter" clip-rule="evenodd" fill-opacity="1" fill-rule="evenodd" fill="#000000" d="M84.513,71.836C84.513,74.169,82.624,76.062,80.287,76.062L29.58,76.062L29.58,71.659L29.58,33.805L29.58,25.354L84.513,25.354L84.513,71.836ZM21.128,73.949C21.128,75.111,20.178,76.062,19.015,76.062C17.853,76.062,16.903,75.111,16.903,73.949L16.903,33.805L21.128,33.805L21.128,73.949ZM21.128,16.903L21.128,25.354L8.451,25.354L8.451,71.836C8.451,78.838,14.126,84.513,21.128,84.513L80.287,84.513C87.289,84.513,92.964,78.838,92.964,71.836L92.964,16.903L21.128,16.903ZM21.128,16.903"/>
</g>
  <g id="Heavy-S" transform="matrix(1.0,0.0,0.0,1.0,2587.262142082663,609.0480044555663)">  <path stroke-width="1px" stroke-dasharray="none" stroke="none" stroke-linecap="butt" fill-opacity="1" stroke-linejoin="miter" fill-rule="evenodd" clip-rule="evenodd" stroke-opacity="1" stroke-miterlimit="4" fill="#000000" d="M54.934,33.805L34.012,33.873L33.805,67.61L54.934,67.61L54.934,33.805ZM50.708,38.044L50.708,63.385L38.056,63.385L38.213,38.082L50.708,38.044ZM50.708,38.044"/>
  <path stroke-opacity="1" fill="#000000" stroke-miterlimit="4" stroke="none" stroke-dasharray="none" fill-rule="evenodd" stroke-linecap="butt" stroke-width="1px" stroke-linejoin="miter" fill-opacity="1" clip-rule="evenodd" d="M59.159,38.031L80.287,38.031L80.287,33.805L59.159,33.805L59.159,38.031ZM59.159,38.031"/>
  <path fill-rule="evenodd" fill="#000000" stroke-width="1px" fill-opacity="1" stroke-linejoin="miter" stroke="none" stroke-miterlimit="4" stroke-opacity="1" stroke-linecap="butt" stroke-dasharray="none" clip-rule="evenodd" d="M59.159,46.482L80.287,46.482L80.287,42.257L59.159,42.257L59.159,46.482ZM59.159,46.482"/>
  <path stroke-width="1px" stroke-linecap="butt" stroke-dasharray="none" clip-rule="evenodd" fill-rule="evenodd" stroke-miterlimit="4" fill-opacity="1" stroke-opacity="1" stroke-linejoin="miter" stroke="none" fill="#000000" d="M59.159,54.934L80.287,54.934L80.287,50.708L59.159,50.708L59.159,54.934ZM59.159,54.934"/>
  <path fill-rule="evenodd" stroke-dasharray="none" stroke-linejoin="miter" stroke-width="1px" stroke-miterlimit="4" clip-rule="evenodd" stroke="none" stroke-opacity="1" fill-opacity="1" fill="#000000" stroke-linecap="butt" d="M59.159,63.385L80.287,63.385L80.287,59.159L59.159,59.159L59.159,63.385ZM59.159,63.385"/>
  <path fill-rule="evenodd" fill-opacity="1" stroke-dasharray="none" stroke-linejoin="miter" stroke-linecap="butt" stroke="none" fill="#000000" clip-rule="evenodd" stroke-width="1px" stroke-opacity="1" stroke-miterlimit="4" d="M84.513,71.836C84.513,74.169,82.624,76.062,80.287,76.062L29.58,76.062L29.58,71.659L29.58,33.805L29.58,25.354L84.513,25.354L84.513,71.836ZM21.128,73.949C21.128,75.111,20.178,76.062,19.015,76.062C17.853,76.062,16.903,75.111,16.903,73.949L16.903,33.805L21.128,33.805L21.128,73.949ZM21.128,16.903L21.128,25.354L8.451,25.354L8.451,71.836C8.451,78.838,14.126,84.513,21.128,84.513L80.287,84.513C87.289,84.513,92.964,78.838,92.964,71.836L92.964,16.903L21.128,16.903ZM21.128,16.903"/>
</g>
  <g id="Bold-S" transform="matrix(1.0,0.0,0.0,1.0,2290.552142082663,609.0480044555663)">  <path stroke-width="1px" fill="#000000" fill-rule="evenodd" stroke="none" clip-rule="evenodd" stroke-dasharray="none" stroke-miterlimit="4" stroke-linejoin="miter" stroke-opacity="1" fill-opacity="1" stroke-linecap="butt" d="M54.934,33.805L34.012,33.873L33.805,67.61L54.934,67.61L54.934,33.805ZM50.708,38.044L50.708,63.385L38.056,63.385L38.213,38.082L50.708,38.044ZM50.708,38.044"/>
  <path stroke-linejoin="miter" fill="#000000" fill-opacity="1" stroke="none" stroke-linecap="butt" fill-rule="evenodd" stroke-miterlimit="4" clip-rule="evenodd" stroke-dasharray="none" stroke-opacity="1" stroke-width="1px" d="M59.159,38.031L80.287,38.031L80.287,33.805L59.159,33.805L59.159,38.031ZM59.159,38.031"/>
  <path stroke-dasharray="none" fill-opacity="1" stroke-linejoin="miter" fill-rule="evenodd" stroke-opacity="1" stroke-miterlimit="4" stroke="none" stroke-linecap="butt" stroke-width="1px" clip-rule="evenodd" fill="#000000" d="M59.159,46.482L80.287,46.482L80.287,42.257L59.159,42.257L59.159,46.482ZM59.159,46.482"/>
  <path clip-rule="evenodd" stroke-dasharray="none" fill="#000000" stroke-miterlimit="4" fill-rule="evenodd" fill-opacity="1" stroke-linejoin="miter" stroke-opacity="1" stroke-width="1px" stroke="none" stroke-linecap="butt" d="M59.159,54.934L80.287,54.934L80.287,50.708L59.159,50.708L59.159,54.934ZM59.159,54.934"/>
  <path fill-rule="evenodd" fill-opacity="1" stroke-linecap="butt" stroke-width="1px" clip-rule="evenodd" stroke="none" stroke-linejoin="miter" fill="#000000" stroke-opacity="1" stroke-dasharray="none" stroke-miterlimit="4" d="M59.159,63.385L80.287,63.385L80.287,59.159L59.159,59.159L59.159,63.385ZM59.159,63.385"/>
  <path stroke-width="1px" fill="#000000" stroke-opacity="1" stroke="none" fill-opacity="1" stroke-miterlimit="4" stroke-dasharray="none" fill-rule="evenodd" stroke-linecap="butt" clip-rule="evenodd" stroke-linejoin="miter" d="M84.513,71.836C84.513,74.169,82.624,76.062,80.287,76.062L29.58,76.062L29.58,71.659L29.58,33.805L29.58,25.354L84.513,25.354L84.513,71.836ZM21.128,73.949C21.128,75.111,20.178,76.062,19.015,76.062C17.853,76.062,16.903,75.111,16.903,73.949L16.903,33.805L21.128,33.805L21.128,73.949ZM21.128,16.903L21.128,25.354L8.451,25.354L8.451,71.836C8.451,78.838,14.126,84.513,21.128,84.513L80.287,84.513C87.289,84.513,92.964,78.838,92.964,71.836L92.964,16.903L21.128,16.903ZM21.128,16.903"/>
</g>
  <g id="Semibold-S" transform="matrix(1.0,0.0,0.0,1.0,1993.842142082663,609.0480044555663)">  <path stroke-dasharray="none" fill-opacity="1" stroke-opacity="1" clip-rule="evenodd" stroke-width="1px" fill="#000000" fill-rule="evenodd" stroke="none" stroke-linejoin="miter" stroke-miterlimit="4" stroke-linecap="butt" d="M54.934,33.805L34.012,33.873L33.805,67.61L54.934,67.61L54.934,33.805ZM50.708,38.044L50.708,63.385L38.056,63.385L38.213,38.082L50.708,38.044ZM50.708,38.044"/>
  <path fill-opacity="1" stroke-linecap="butt" stroke-linejoin="miter" fill-rule="evenodd" stroke-opacity="1" stroke="none" stroke-miterlimit="4" stroke-width="1px" clip-rule="evenodd" fill="#000000" stroke-dasharray="none" d="M59.159,38.031L80.287,38.031L80.287,33.805L59.159,33.805L59.159,38.031ZM59.159,38.031"/>
  <path stroke-linejoin="miter" clip-rule="evenodd" stroke="none" stroke-opacity="1" fill-rule="evenodd" stroke-miterlimit="4" stroke-linecap="butt" fill-opacity="1" stroke-dasharray="none" fill="#000000" stroke-width="1px" d="M59.159,46.482L80.287,46.482L80.287,42.257L59.159,42.257L59.159,46.482ZM59.159,46.482"/>
  <path stroke="none" stroke-linejoin="miter" stroke-linecap="butt" fill-opacity="1" fill="#000000" stroke-width="1px" stroke-opacity="1" clip-rule="evenodd" stroke-dasharray="none" stroke-miterlimit="4" fill-rule="evenodd" d="M59.159,54.934L80.287,54.934L80.287,50.708L59.159,50.708L59.159,54.934ZM59.159,54.934"/>
  <path clip-rule="evenodd" stroke-linejoin="miter" stroke-opacity="1" fill-rule="evenodd" stroke-dasharray="none" fill="#000000" stroke-miterlimit="4" stroke-width="1px" stroke="none" stroke-linecap="butt" fill-opacity="1" d="M59.159,63.385L80.287,63.385L80.287,59.159L59.159,59.159L59.159,63.385ZM59.159,63.385"/>
  <path fill-opacity="1" clip-rule="evenodd" stroke-miterlimit="4" stroke-linecap="butt" stroke-linejoin="miter" fill="#000000" stroke-dasharray="none" stroke-width="1px" stroke-opacity="1" fill-rule="evenodd" stroke="none" d="M84.513,71.836C84.513,74.169,82.624,76.062,80.287,76.062L29.58,76.062L29.58,71.659L29.58,33.805L29.58,25.354L84.513,25.354L84.513,71.836ZM21.128,73.949C21.128,75.111,20.178,76.062,19.015,76.062C17.853,76.062,16.903,75.111,16.903,73.949L16.903,33.805L21.128,33.805L21.128,73.949ZM21.128,16.903L21.128,25.354L8.451,25.354L8.451,71.836C8.451,78.838,14.126,84.513,21.128,84.513L80.287,84.513C87.289,84.513,92.964,78.838,92.964,71.836L92.964,16.903L21.128,16.903ZM21.128,16.903"/>
</g>
  <g id="Medium-S" transform="matrix(1.0,0.0,0.0,1.0,1697.132142082663,609.0480044555663)">  <path stroke="none" fill-rule="evenodd" stroke-opacity="1" stroke-miterlimit="4" fill="#000000" stroke-linejoin="miter" stroke-dasharray="none" clip-rule="evenodd" stroke-width="1px" fill-opacity="1" stroke-linecap="butt" d="M54.934,33.805L34.012,33.873L33.805,67.61L54.934,67.61L54.934,33.805ZM50.708,38.044L50.708,63.385L38.056,63.385L38.213,38.082L50.708,38.044ZM50.708,38.044"/>
  <path stroke-width="1px" stroke-linejoin="miter" fill="#000000" clip-rule="evenodd" stroke-opacity="1" stroke-dasharray="none" stroke-miterlimit="4" fill-opacity="1" fill-rule="evenodd" stroke="none" stroke-linecap="butt" d="M59.159,38.031L80.287,38.031L80.287,33.805L59.159,33.805L59.159,38.031ZM59.159,38.031"/>
  <path stroke-linecap="butt" stroke-dasharray="none" fill-rule="evenodd" fill="#000000" stroke-linejoin="miter" stroke-width="1px" stroke-opacity="1" clip-rule="evenodd" stroke="none" fill-opacity="1" stroke-miterlimit="4" d="M59.159,46.482L80.287,46.482L80.287,42.257L59.159,42.257L59.159,46.482ZM59.159,46.482"/>
  <path stroke-width="1px" stroke-linecap="butt" stroke-miterlimit="4" clip-rule="evenodd" fill-opacity="1" stroke-linejoin="miter" stroke-dasharray="none" fill-rule="evenodd" stroke-opacity="1" stroke="none" fill="#000000" d="M59.159,54.934L80.287,54.934L80.287,50.708L59.159,50.708L59.159,54.934ZM59.159,54.934"/>
  <path stroke-miterlimit="4" stroke-width="1px" fill-rule="evenodd" fill-opacity="1" clip-rule="evenodd" stroke-linecap="butt" stroke="none" fill="#000000" stroke-opacity="1" stroke-dasharray="none" stroke-linejoin="miter" d="M59.159,63.385L80.287,63.385L80.287,59.159L59.159,59.159L59.159,63.385ZM59.159,63.385"/>
  <path fill-rule="evenodd" stroke-opacity="1" fill="#000000" stroke="none" stroke-dasharray="none" clip-rule="evenodd" stroke-linecap="butt" stroke-width="1px" stroke-linejoin="miter" stroke-miterlimit="4" fill-opacity="1" d="M84.513,71.836C84.513,74.169,82.624,76.062,80.287,76.062L29.58,76.062L29.58,71.659L29.58,33.805L29.58,25.354L84.513,25.354L84.513,71.836ZM21.128,73.949C21.128,75.111,20.178,76.062,19.015,76.062C17.853,76.062,16.903,75.111,16.903,73.949L16.903,33.805L21.128,33.805L21.128,73.949ZM21.128,16.903L21.128,25.354L8.451,25.354L8.451,71.836C8.451,78.838,14.126,84.513,21.128,84.513L80.287,84.513C87.289,84.513,92.964,78.838,92.964,71.836L92.964,16.903L21.128,16.903ZM21.128,16.903"/>
</g>
  <g id="Regular-S" transform="matrix(1.0,0.0,0.0,1.0,1400.422142082663,609.0480044555663)">  <path fill-opacity="1" stroke-opacity="1" stroke-linecap="butt" stroke-miterlimit="4" stroke-dasharray="none" stroke-width="1px" stroke="none" fill-rule="evenodd" stroke-linejoin="miter" clip-rule="evenodd" fill="#000000" d="M54.934,33.805L34.012,33.873L33.805,67.61L54.934,67.61L54.934,33.805ZM50.708,38.044L50.708,63.385L38.056,63.385L38.213,38.082L50.708,38.044ZM50.708,38.044"/>
  <path stroke-linecap="butt" stroke-width="1px" stroke-linejoin="miter" stroke-opacity="1" stroke-dasharray="none" fill-rule="evenodd" fill="#000000" clip-rule="evenodd" stroke="none" fill-opacity="1" stroke-miterlimit="4" d="M59.159,38.031L80.287,38.031L80.287,33.805L59.159,33.805L59.159,38.031ZM59.159,38.031"/>
  <path stroke-opacity="1" stroke-width="1px" stroke-linecap="butt" stroke-linejoin="miter" clip-rule="evenodd" stroke-dasharray="none" stroke="none" fill-rule="evenodd" fill-opacity="1" fill="#000000" stroke-miterlimit="4" d="M59.159,46.482L80.287,46.482L80.287,42.257L59.159,42.257L59.159,46.482ZM59.159,46.482"/>
  <path stroke-width="1px" stroke-miterlimit="4" stroke-dasharray="none" stroke-opacity="1" stroke-linecap="butt" fill-rule="evenodd" clip-rule="evenodd" fill="#000000" fill-opacity="1" stroke-linejoin="miter" stroke="none" d="M59.159,54.934L80.287,54.934L80.287,50.708L59.159,50.708L59.159,54.934ZM59.159,54.934"/>
  <path stroke-dasharray="none" stroke-linecap="butt" fill="#000000" fill-rule="evenodd" stroke-width="1px" stroke="none" stroke-opacity="1" clip-rule="evenodd" stroke-linejoin="miter" stroke-miterlimit="4" fill-opacity="1" d="M59.159,63.385L80.287,63.385L80.287,59.159L59.159,59.159L59.159,63.385ZM59.159,63.385"/>
  <path stroke-opacity="1" fill-opacity="1" stroke-linecap="butt" stroke-miterlimit="4" clip-rule="evenodd" stroke-linejoin="miter" fill="#000000" stroke-width="1px" stroke-dasharray="none" fill-rule="evenodd" stroke="none" d="M84.513,71.836C84.513,74.169,82.624,76.062,80.287,76.062L29.58,76.062L29.58,71.659L29.58,33.805L29.58,25.354L84.513,25.354L84.513,71.836ZM21.128,73.949C21.128,75.111,20.178,76.062,19.015,76.062C17.853,76.062,16.903,75.111,16.903,73.949L16.903,33.805L21.128,33.805L21.128,73.949ZM21.128,16.903L21.128,25.354L8.451,25.354L8.451,71.836C8.451,78.838,14.126,84.513,21.128,84.513L80.287,84.513C87.289,84.513,92.964,78.838,92.964,71.836L92.964,16.903L21.128,16.903ZM21.128,16.903"/>
</g>
  <g id="Light-S" transform="matrix(1.0,0.0,0.0,1.0,1103.7121420826631,609.0480044555663)">  <path stroke-width="1px" stroke-dasharray="none" fill-rule="evenodd" stroke="none" fill-opacity="1" stroke-opacity="1" stroke-linejoin="miter" fill="#000000" clip-rule="evenodd" stroke-miterlimit="4" stroke-linecap="butt" d="M54.934,33.805L34.012,33.873L33.805,67.61L54.934,67.61L54.934,33.805ZM50.708,38.044L50.708,63.385L38.056,63.385L38.213,38.082L50.708,38.044ZM50.708,38.044"/>
  <path fill-opacity="1" stroke-miterlimit="4" stroke-opacity="1" stroke="none" stroke-dasharray="none" clip-rule="evenodd" fill-rule="evenodd" stroke-linejoin="miter" stroke-linecap="butt" fill="#000000" stroke-width="1px" d="M59.159,38.031L80.287,38.031L80.287,33.805L59.159,33.805L59.159,38.031ZM59.159,38.031"/>
  <path stroke-opacity="1" clip-rule="evenodd" stroke-linejoin="miter" fill="#000000" stroke-dasharray="none" stroke="none" stroke-width="1px" stroke-miterlimit="4" fill-opacity="1" fill-rule="evenodd" stroke-linecap="butt" d="M59.159,46.482L80.287,46.482L80.287,42.257L59.159,42.257L59.159,46.482ZM59.159,46.482"/>
  <path clip-rule="evenodd" stroke-width="1px" fill-opacity="1" stroke-linecap="butt" stroke-linejoin="miter" fill-rule="evenodd" fill="#000000" stroke-opacity="1" stroke-miterlimit="4" stroke-dasharray="none" stroke="none" d="M59.159,54.934L80.287,54.934L80.287,50.708L59.159,50.708L59.159,54.934ZM59.159,54.934"/>
  <path clip-rule="evenodd" stroke-width="1px" stroke="none" fill-rule="evenodd" stroke-opacity="1" fill="#000000" fill-opacity="1" stroke-dasharray="none" stroke-linecap="butt" stroke-miterlimit="4" stroke-linejoin="miter" d="M59.159,63.385L80.287,63.385L80.287,59.159L59.159,59.159L59.159,63.385ZM59.159,63.385"/>
  <path stroke-linejoin="miter" clip-rule="evenodd" stroke-width="1px" fill="#000000" stroke-linecap="butt" stroke="none" stroke-miterlimit="4" stroke-dasharray="none" fill-opacity="1" fill-rule="evenodd" stroke-opacity="1" d="M84.513,71.836C84.513,74.169,82.624,76.062,80.287,76.062L29.58,76.062L29.58,71.659L29.58,33.805L29.58,25.354L84.513,25.354L84.513,71.836ZM21.128,73.949C21.128,75.111,20.178,76.062,19.015,76.062C17.853,76.062,16.903,75.111,16.903,73.949L16.903,33.805L21.128,33.805L21.128,73.949ZM21.128,16.903L21.128,25.354L8.451,25.354L8.451,71.836C8.451,78.838,14.126,84.513,21.128,84.513L80.287,84.513C87.289,84.513,92.964,78.838,92.964,71.836L92.964,16.903L21.128,16.903ZM21.128,16.903"/>
</g>
  <g id="Thin-S" transform="matrix(1.0,0.0,0.0,1.0,807.0021420826632,609.0480044555663)">  <path stroke="none" stroke-linejoin="miter" fill-opacity="1" stroke-opacity="1" stroke-linecap="butt" fill-rule="evenodd" stroke-miterlimit="4" fill="#000000" stroke-width="1px" clip-rule="evenodd" stroke-dasharray="none" d="M54.934,33.805L34.012,33.873L33.805,67.61L54.934,67.61L54.934,33.805ZM50.708,38.044L50.708,63.385L38.056,63.385L38.213,38.082L50.708,38.044ZM50.708,38.044"/>
  <path fill-opacity="1" stroke-dasharray="none" clip-rule="evenodd" fill="#000000" stroke-width="1px" fill-rule="evenodd" stroke="none" stroke-opacity="1" stroke-linecap="butt" stroke-linejoin="miter" stroke-miterlimit="4" d="M59.159,38.031L80.287,38.031L80.287,33.805L59.159,33.805L59.159,38.031ZM59.159,38.031"/>
  <path fill-rule="evenodd" fill="#000000" stroke-opacity="1" stroke-dasharray="none" fill-opacity="1" stroke-width="1px" stroke-linecap="butt" clip-rule="evenodd" stroke="none" stroke-miterlimit="4" stroke-linejoin="miter" d="M59.159,46.482L80.287,46.482L80.287,42.257L59.159,42.257L59.159,46.482ZM59.159,46.482"/>
  <path stroke-width="1px" fill-opacity="1" stroke="none" stroke-opacity="1" stroke-miterlimit="4" clip-rule="evenodd" fill="#000000" stroke-dasharray="none" fill-rule="evenodd" stroke-linejoin="miter" stroke-linecap="butt" d="M59.159,54.934L80.287,54.934L80.287,50.708L59.159,50.708L59.159,54.934ZM59.159,54.934"/>
  <path fill-rule="evenodd" fill="#000000" stroke-width="1px" stroke-linejoin="miter" stroke-dasharray="none" clip-rule="evenodd" stroke-miterlimit="4" stroke-opacity="1" fill-opacity="1" stroke-linecap="butt" stroke="none" d="M59.159,63.385L80.287,63.385L80.287,59.159L59.159,59.159L59.159,63.385ZM59.159,63.385"/>
  <path fill-opacity="1" stroke-dasharray="none" stroke-linejoin="miter" stroke-opacity="1" stroke-width="1px" clip-rule="evenodd" fill-rule="evenodd" stroke-miterlimit="4" fill="#000000" stroke-linecap="butt" stroke="none" d="M84.513,71.836C84.513,74.169,82.624,76.062,80.287,76.062L29.58,76.062L29.58,71.659L29.58,33.805L29.58,25.354L84.513,25.354L84.513,71.836ZM21.128,73.949C21.128,75.111,20.178,76.062,19.015,76.062C17.853,76.062,16.903,75.111,16.903,73.949L16.903,33.805L21.128,33.805L21.128,73.949ZM21.128,16.903L21.128,25.354L8.451,25.354L8.451,71.836C8.451,78.838,14.126,84.513,21.128,84.513L80.287,84.513C87.289,84.513,92.964,78.838,92.964,71.836L92.964,16.903L21.128,16.903ZM21.128,16.903"/>
</g>
  <g id="Ultralight-S" transform="matrix(1.0,0.0,0.0,1.0,510.29214208266313,609.0480044555663)">  <path stroke-linecap="butt" clip-rule="evenodd" fill-rule="evenodd" stroke="none" stroke-miterlimit="4" fill-opacity="1" stroke-linejoin="miter" stroke-width="1px" fill="#000000" stroke-dasharray="none" stroke-opacity="1" d="M54.934,33.805L34.012,33.873L33.805,67.61L54.934,67.61L54.934,33.805ZM50.708,38.044L50.708,63.385L38.056,63.385L38.213,38.082L50.708,38.044ZM50.708,38.044"/>
  <path stroke="none" fill-opacity="1" stroke-dasharray="none" stroke-linejoin="miter" stroke-width="1px" fill-rule="evenodd" fill="#000000" stroke-opacity="1" stroke-miterlimit="4" stroke-linecap="butt" clip-rule="evenodd" d="M59.159,38.031L80.287,38.031L80.287,33.805L59.159,33.805L59.159,38.031ZM59.159,38.031"/>
  <path stroke-opacity="1" stroke="none" fill-rule="evenodd" stroke-linejoin="miter" clip-rule="evenodd" stroke-width="1px" stroke-dasharray="none" stroke-miterlimit="4" stroke-linecap="butt" fill-opacity="1" fill="#000000" d="M59.159,46.482L80.287,46.482L80.287,42.257L59.159,42.257L59.159,46.482ZM59.159,46.482"/>
  <path stroke-opacity="1" fill="#000000" fill-rule="evenodd" stroke-linejoin="miter" stroke="none" fill-opacity="1" stroke-dasharray="none" stroke-width="1px" stroke-linecap="butt" clip-rule="evenodd" stroke-miterlimit="4" d="M59.159,54.934L80.287,54.934L80.287,50.708L59.159,50.708L59.159,54.934ZM59.159,54.934"/>
  <path stroke="none" fill-opacity="1" stroke-dasharray="none" fill-rule="evenodd" stroke-linejoin="miter" fill="#000000" stroke-width="1px" stroke-opacity="1" stroke-miterlimit="4" stroke-linecap="butt" clip-rule="evenodd" d="M59.159,63.385L80.287,63.385L80.287,59.159L59.159,59.159L59.159,63.385ZM59.159,63.385"/>
  <path fill-rule="evenodd" stroke="none" stroke-miterlimit="4" stroke-width="1px" stroke-opacity="1" clip-rule="evenodd" stroke-linejoin="miter" fill-opacity="1" fill="#000000" stroke-linecap="butt" stroke-dasharray="none" d="M84.513,71.836C84.513,74.169,82.624,76.062,80.287,76.062L29.58,76.062L29.58,71.659L29.58,33.805L29.58,25.354L84.513,25.354L84.513,71.836ZM21.128,73.949C21.128,75.111,20.178,76.062,19.015,76.062C17.853,76.062,16.903,75.111,16.903,73.949L16.903,33.805L21.128,33.805L21.128,73.949ZM21.128,16.903L21.128,25.354L8.451,25.354L8.451,71.836C8.451,78.838,14.126,84.513,21.128,84.513L80.287,84.513C87.289,84.513,92.964,78.838,92.964,71.836L92.964,16.903L21.128,16.903ZM21.128,16.903"/>
</g>
 </g>
</svg>
