<?xml version="1.0" encoding="UTF-8"?>
<!-- Generator: CustomSymbols v2.6.1.40 by @serious_bret https://bretlester.com/app_content/CustomSymbols/ -->
<!-- Guides: Left/Right 0.081/0.085 Cap/Base 0.201/0.209 -->
<!-- Settings: RefScale 1.0 Min/Max Stroke Scales 0.5/2.21 -->
<!DOCTYPE svg
PUBLIC "-//W3C//DTD SVG 1.1//EN"
       "http://www.w3.org/Graphics/SVG/1.1/DTD/svg11.dtd">
<svg version="1.1" xmlns="http://www.w3.org/2000/svg" xmlns:xlink="http://www.w3.org/1999/xlink" width="3300" height="2200">
<![CDATA[<svg width="24" height="24" viewBox="0 0 24 24" fill="none" xmlns="http://www.w3.org/2000/svg">
<mask id="mask0" mask-type="alpha" maskUnits="userSpaceOnUse" x="2" y="3" width="20" height="18">
<path d="M11.4023 20.9999C5.29135 20.9823 10.5337 16.6813 8.5811 14.6274C6.92285 12.8832 2.01967 17.0553 2.00009 12C1.97892 6.53568 5.82867 3 11.714 3C17.5994 3 22 6.53564 22 12C22 17.4643 17.2876 21.017 11.4023 20.9999ZM7.50888 9.48706C8.4006 9.48706 9.12348 8.77341 9.12348 7.89308C9.12348 7.01275 8.4006 6.29911 7.50888 6.29911C6.61716 6.29911 5.89427 7.01275 5.89427 7.89308C5.89427 8.77341 6.61716 9.48706 7.50888 9.48706ZM11.7602 8.3485C12.6519 8.3485 13.3748 7.63486 13.3748 6.75453C13.3748 5.8742 12.6519 5.16055 11.7602 5.16055C10.8684 5.16055 10.1456 5.8742 10.1456 6.75453C10.1456 7.63486 10.8684 8.3485 11.7602 8.3485ZM16.2269 9.48706C17.1186 9.48706 17.8415 8.77341 17.8415 7.89308C17.8415 7.01275 17.1186 6.29911 16.2269 6.29911C15.3352 6.29911 14.6123 7.01275 14.6123 7.89308C14.6123 8.77341 15.3352 9.48706 16.2269 9.48706ZM16.2269 17.4085C17.1186 17.4085 17.8415 16.6948 17.8415 15.8145C17.8415 14.9341 17.1186 14.2205 16.2269 14.2205C15.3352 14.2205 14.6123 14.9341 14.6123 15.8145C14.6123 16.6948 15.3352 17.4085 16.2269 17.4085ZM18.7118 13.4478C19.6035 13.4478 20.3264 12.7341 20.3264 11.8538C20.3264 10.9735 19.6035 10.2598 18.7118 10.2598C17.8201 10.2598 17.0972 10.9735 17.0972 11.8538C17.0972 12.7341 17.8201 13.4478 18.7118 13.4478ZM5.39401 13.2671C6.28573 13.2671 7.00862 12.5534 7.00862 11.6731C7.00862 10.7928 6.28573 10.0791 5.39401 10.0791C4.50229 10.0791 3.77941 10.7928 3.77941 11.6731C3.77941 12.5534 4.50229 13.2671 5.39401 13.2671ZM11.7602 18.7321C12.6519 18.7321 13.3748 18.0185 13.3748 17.1381C13.3748 16.2578 12.6519 15.5442 11.7602 15.5442C10.8684 15.5442 10.1456 16.2578 10.1456 17.1381C10.1456 18.0185 10.8684 18.7321 11.7602 18.7321Z" fill="black"/>
</mask>
<g mask="url(#mask0)">
<path d="M11.4023 20.9999C5.29135 20.9823 10.5337 16.6813 8.5811 14.6274C6.92285 12.8832 2.01967 17.0553 2.00009 12C1.97892 6.53568 5.82867 3 11.714 3C17.5994 3 22 6.53564 22 12C22 17.4643 17.2876 21.017 11.4023 20.9999ZM7.50888 9.48706C8.4006 9.48706 9.12348 8.77341 9.12348 7.89308C9.12348 7.01275 8.4006 6.29911 7.50888 6.29911C6.61716 6.29911 5.89427 7.01275 5.89427 7.89308C5.89427 8.77341 6.61716 9.48706 7.50888 9.48706ZM11.7602 8.3485C12.6519 8.3485 13.3748 7.63486 13.3748 6.75453C13.3748 5.8742 12.6519 5.16055 11.7602 5.16055C10.8684 5.16055 10.1456 5.8742 10.1456 6.75453C10.1456 7.63486 10.8684 8.3485 11.7602 8.3485ZM16.2269 9.48706C17.1186 9.48706 17.8415 8.77341 17.8415 7.89308C17.8415 7.01275 17.1186 6.29911 16.2269 6.29911C15.3352 6.29911 14.6123 7.01275 14.6123 7.89308C14.6123 8.77341 15.3352 9.48706 16.2269 9.48706ZM16.2269 17.4085C17.1186 17.4085 17.8415 16.6948 17.8415 15.8145C17.8415 14.9341 17.1186 14.2205 16.2269 14.2205C15.3352 14.2205 14.6123 14.9341 14.6123 15.8145C14.6123 16.6948 15.3352 17.4085 16.2269 17.4085ZM18.7118 13.4478C19.6035 13.4478 20.3264 12.7341 20.3264 11.8538C20.3264 10.9735 19.6035 10.2598 18.7118 10.2598C17.8201 10.2598 17.0972 10.9735 17.0972 11.8538C17.0972 12.7341 17.8201 13.4478 18.7118 13.4478ZM5.39401 13.2671C6.28573 13.2671 7.00862 12.5534 7.00862 11.6731C7.00862 10.7928 6.28573 10.0791 5.39401 10.0791C4.50229 10.0791 3.77941 10.7928 3.77941 11.6731C3.77941 12.5534 4.50229 13.2671 5.39401 13.2671ZM11.7602 18.7321C12.6519 18.7321 13.3748 18.0185 13.3748 17.1381C13.3748 16.2578 12.6519 15.5442 11.7602 15.5442C10.8684 15.5442 10.1456 16.2578 10.1456 17.1381C10.1456 18.0185 10.8684 18.7321 11.7602 18.7321Z" fill="black"/>
</g>
</svg>
]]>
 <g id="Notes">
  <rect height="2200" id="artboard" style="fill:white;opacity:1" width="3300" x="0" y="0"/>
  <line id="" style="fill:none;stroke:black;opacity:1;stroke-width:0.5;" x1="263" x2="3036" y1="292" y2="292"/>
  <text id="reftext1" style="stroke:none;fill:black;font-family:-apple-system,&quot;SF Pro Display&quot;,&quot;SF Pro Text&quot;,Helvetica,sans-serif;font-weight:bold;" transform="matrix(1 0 0 1 263 322)">Weight/Scale Variations</text>
  <text id="reftext2" style="stroke:none;fill:black;font-family:-apple-system,&quot;SF Pro Display&quot;,&quot;SF Pro Text&quot;,Helvetica,sans-serif;text-anchor:middle;" transform="matrix(1 0 0 1 559.711 322)">Ultralight</text>
  <text style="stroke:none;fill:black;font-family:-apple-system,&quot;SF Pro Display&quot;,&quot;SF Pro Text&quot;,Helvetica,sans-serif;text-anchor:middle;" transform="matrix(1 0 0 1 856.422 322)">Thin</text>
  <text style="stroke:none;fill:black;font-family:-apple-system,&quot;SF Pro Display&quot;,&quot;SF Pro Text&quot;,Helvetica,sans-serif;text-anchor:middle;" transform="matrix(1 0 0 1 1153.13 322)">Light</text>
  <text style="stroke:none;fill:black;font-family:-apple-system,&quot;SF Pro Display&quot;,&quot;SF Pro Text&quot;,Helvetica,sans-serif;text-anchor:middle;" transform="matrix(1 0 0 1 1449.84 322)">Regular</text>
  <text style="stroke:none;fill:black;font-family:-apple-system,&quot;SF Pro Display&quot;,&quot;SF Pro Text&quot;,Helvetica,sans-serif;text-anchor:middle;" transform="matrix(1 0 0 1 1746.56 322)">Medium</text>
  <text style="stroke:none;fill:black;font-family:-apple-system,&quot;SF Pro Display&quot;,&quot;SF Pro Text&quot;,Helvetica,sans-serif;text-anchor:middle;" transform="matrix(1 0 0 1 2043.27 322)">Semibold</text>
  <text style="stroke:none;fill:black;font-family:-apple-system,&quot;SF Pro Display&quot;,&quot;SF Pro Text&quot;,Helvetica,sans-serif;text-anchor:middle;" transform="matrix(1 0 0 1 2339.98 322)">Bold</text>
  <text style="stroke:none;fill:black;font-family:-apple-system,&quot;SF Pro Display&quot;,&quot;SF Pro Text&quot;,Helvetica,sans-serif;text-anchor:middle;" transform="matrix(1 0 0 1 2636.69 322)">Heavy</text>
  <text style="stroke:none;fill:black;font-family:-apple-system,&quot;SF Pro Display&quot;,&quot;SF Pro Text&quot;,Helvetica,sans-serif;text-anchor:middle;" transform="matrix(1 0 0 1 2933.4 322)">Black</text>
  <line id="" style="fill:none;stroke:black;opacity:1;stroke-width:0.5;" x1="263" x2="3036" y1="1903" y2="1903"/>
  <g id="" transform="matrix(1 0 0 1 263 1933)">
   <path d="M9.24805 0.830078C13.5547 0.830078 17.1387-2.74414 17.1387-7.05078C17.1387-11.3574 13.5449-14.9316 9.23828-14.9316C4.94141-14.9316 1.36719-11.3574 1.36719-7.05078C1.36719-2.74414 4.95117 0.830078 9.24805 0.830078ZM9.24805-0.654297C5.70312-0.654297 2.87109-3.49609 2.87109-7.05078C2.87109-10.6055 5.69336-13.4473 9.23828-13.4473C12.793-13.4473 15.6348-10.6055 15.6445-7.05078C15.6543-3.49609 12.8027-0.654297 9.24805-0.654297ZM6.39648-6.31836L8.50586-6.31836L8.50586-4.19922C8.50586-3.75977 8.79883-3.45703 9.22852-3.45703C9.67773-3.45703 9.9707-3.75977 9.9707-4.19922L9.9707-6.31836L12.0996-6.31836C12.5391-6.31836 12.8418-6.61133 12.8418-7.04102C12.8418-7.48047 12.5391-7.7832 12.0996-7.7832L9.9707-7.7832L9.9707-9.89258C9.9707-10.3418 9.67773-10.6445 9.22852-10.6445C8.79883-10.6445 8.50586-10.3418 8.50586-9.89258L8.50586-7.7832L6.39648-7.7832C5.94727-7.7832 5.64453-7.48047 5.64453-7.04102C5.64453-6.61133 5.94727-6.31836 6.39648-6.31836Z"/>
  </g>
  <g id="" transform="matrix(1 0 0 1 281.506 1933)">
   <path d="M11.709 2.91016C17.1582 2.91016 21.6699-1.61133 21.6699-7.05078C21.6699-12.5 17.1484-17.0117 11.6992-17.0117C6.25977-17.0117 1.74805-12.5 1.74805-7.05078C1.74805-1.61133 6.26953 2.91016 11.709 2.91016ZM11.709 1.25C7.09961 1.25 3.41797-2.44141 3.41797-7.05078C3.41797-11.6602 7.08984-15.3516 11.6992-15.3516C16.3086-15.3516 20-11.6602 20.0098-7.05078C20.0195-2.44141 16.3184 1.25 11.709 1.25ZM7.98828-6.23047L10.8789-6.23047L10.8789-3.32031C10.8789-2.83203 11.2109-2.5 11.6895-2.5C12.1777-2.5 12.5195-2.83203 12.5195-3.32031L12.5195-6.23047L15.4297-6.23047C15.918-6.23047 16.25-6.5625 16.25-7.04102C16.25-7.5293 15.918-7.87109 15.4297-7.87109L12.5195-7.87109L12.5195-10.7617C12.5195-11.2695 12.1777-11.6016 11.6895-11.6016C11.2109-11.6016 10.8789-11.2598 10.8789-10.7617L10.8789-7.87109L7.98828-7.87109C7.48047-7.87109 7.14844-7.5293 7.14844-7.04102C7.14844-6.5625 7.49023-6.23047 7.98828-6.23047Z"/>
  </g>
  <g id="" transform="matrix(1 0 0 1 304.924 1933)">
   <path d="M14.9707 5.66406C21.9336 5.66406 27.6953-0.0976562 27.6953-7.05078C27.6953-14.0137 21.9238-19.7754 14.9609-19.7754C8.00781-19.7754 2.25586-14.0137 2.25586-7.05078C2.25586-0.0976562 8.01758 5.66406 14.9707 5.66406ZM14.9707 3.84766C8.93555 3.84766 4.08203-1.01562 4.08203-7.05078C4.08203-13.0957 8.92578-17.9492 14.9609-17.9492C21.0059-17.9492 25.8594-13.0957 25.8691-7.05078C25.8789-1.01562 21.0156 3.84766 14.9707 3.84766ZM10.0586-6.14258L14.0625-6.14258L14.0625-2.12891C14.0625-1.5918 14.4336-1.2207 14.9512-1.2207C15.4883-1.2207 15.8594-1.5918 15.8594-2.12891L15.8594-6.14258L19.8828-6.14258C20.4102-6.14258 20.791-6.51367 20.791-7.03125C20.791-7.56836 20.4199-7.94922 19.8828-7.94922L15.8594-7.94922L15.8594-11.9531C15.8594-12.5098 15.4883-12.8809 14.9512-12.8809C14.4336-12.8809 14.0625-12.5 14.0625-11.9531L14.0625-7.94922L10.0586-7.94922C9.50195-7.94922 9.13086-7.56836 9.13086-7.03125C9.13086-6.51367 9.51172-6.14258 10.0586-6.14258Z"/>
  </g>
  <text style="stroke:none;fill:black;font-family:-apple-system,&quot;SF Pro Display&quot;,&quot;SF Pro Text&quot;,Helvetica,sans-serif;font-weight:bold;" transform="matrix(1 0 0 1 263 1953)">Design Variations</text>
  <text style="stroke:none;fill:black;font-family:-apple-system,&quot;SF Pro Display&quot;,&quot;SF Pro Text&quot;,Helvetica,sans-serif;" transform="matrix(1 0 0 1 263 1971)">Symbols are supported in up to nine weights and three scales.</text>
  <text style="stroke:none;fill:black;font-family:-apple-system,&quot;SF Pro Display&quot;,&quot;SF Pro Text&quot;,Helvetica,sans-serif;" transform="matrix(1 0 0 1 263 1989)">For optimal layout with text and other symbols, vertically align</text>
  <text style="stroke:none;fill:black;font-family:-apple-system,&quot;SF Pro Display&quot;,&quot;SF Pro Text&quot;,Helvetica,sans-serif;" transform="matrix(1 0 0 1 263 2007)">symbols with the adjacent text.</text>
  <line id="" style="fill:none;stroke:#00AEEF;stroke-width:0.5;opacity:1.0;" x1="776" x2="776" y1="1919" y2="1933"/>
  <g id="" transform="matrix(1 0 0 1 776 1933)">
   <path d="M3.31055 0.126953C3.82812 0.126953 4.08203-0.0683594 4.26758-0.605469L5.52734-4.0625L11.2891-4.0625L12.5488-0.605469C12.7344-0.0683594 12.9883 0.126953 13.4961 0.126953C14.0137 0.126953 14.3457-0.185547 14.3457-0.673828C14.3457-0.839844 14.3164-0.986328 14.2383-1.20117L9.6582-13.3887C9.43359-13.9941 9.0332-14.2871 8.4082-14.2871C7.80273-14.2871 7.39258-13.9941 7.17773-13.3984L2.59766-1.19141C2.51953-0.976562 2.49023-0.830078 2.49023-0.664062C2.49023-0.175781 2.80273 0.126953 3.31055 0.126953ZM6.00586-5.53711L8.37891-12.1094L8.42773-12.1094L10.8008-5.53711Z"/>
  </g>
  <line id="" style="fill:none;stroke:#00AEEF;stroke-width:0.5;opacity:1.0;" x1="792.836" x2="792.836" y1="1919" y2="1933"/>
  <text style="stroke:none;fill:black;font-family:-apple-system,&quot;SF Pro Display&quot;,&quot;SF Pro Text&quot;,Helvetica,sans-serif;font-weight:bold;" transform="matrix(1 0 0 1 776 1953)">Margins</text>
  <text style="stroke:none;fill:black;font-family:-apple-system,&quot;SF Pro Display&quot;,&quot;SF Pro Text&quot;,Helvetica,sans-serif;" transform="matrix(1 0 0 1 776 1971)">Leading and trailing margins on the left and right side of each symbol</text>
  <text style="stroke:none;fill:black;font-family:-apple-system,&quot;SF Pro Display&quot;,&quot;SF Pro Text&quot;,Helvetica,sans-serif;" transform="matrix(1 0 0 1 776 1989)">can be adjusted by modifying the x-location of the margin guidelines.</text>
  <text style="stroke:none;fill:black;font-family:-apple-system,&quot;SF Pro Display&quot;,&quot;SF Pro Text&quot;,Helvetica,sans-serif;" transform="matrix(1 0 0 1 776 2007)">Modifications are automatically applied proportionally to all</text>
  <text style="stroke:none;fill:black;font-family:-apple-system,&quot;SF Pro Display&quot;,&quot;SF Pro Text&quot;,Helvetica,sans-serif;" transform="matrix(1 0 0 1 776 2025)">scales and weights.</text>
  <g id="" transform="matrix(1 0 0 1 1289 1933)">
   <path d="M2.8418 1.86523L4.54102 3.57422C5.40039 4.44336 6.38672 4.38477 7.31445 3.35938L17.4902-7.85156C17.7539-7.76367 18.0273-7.7832 18.3398-7.8418L19.4043-8.03711L20.0684-7.36328L20.0293-6.80664C19.9902-6.30859 20.1172-5.92773 20.6055-5.44922L21.3672-4.70703C21.8457-4.22852 22.4609-4.19922 22.9297-4.66797L25.8398-7.58789C26.3086-8.05664 26.2891-8.65234 25.8105-9.13086L25.0391-9.89258C24.5605-10.3711 24.1895-10.5273 23.7109-10.4883L23.1348-10.4395L22.4902-11.0742L22.7344-12.1973C22.8613-12.7637 22.7051-13.2031 22.1191-13.7891L19.9219-15.9766C16.582-19.2969 12.1484-19.2188 9.25781-16.3281C8.83789-15.918 8.80859-15.3418 9.04297-14.9512C9.27734-14.5898 9.73633-14.3555 10.3809-14.5215C11.8457-14.8633 13.3691-14.9219 14.7949-13.9844L14.209-12.5293C14.0137-12.0508 13.9844-11.6504 14.1113-11.2891L3.04688-0.898438C2.06055 0.0195312 1.98242 0.996094 2.8418 1.86523ZM10.752-15.957C13.1836-17.7344 16.4746-17.4316 18.7012-15.2051L21.1328-12.793C21.3672-12.5586 21.4062-12.373 21.3379-12.0312L21.0156-10.5469L22.5195-9.0625L23.5059-9.12109C23.7598-9.13086 23.8379-9.11133 24.0332-8.91602L24.6094-8.33984L22.168-5.89844L21.5918-6.47461C21.3965-6.66992 21.3672-6.74805 21.377-7.01172L21.4453-7.98828L19.9512-9.47266L18.4277-9.21875C18.1055-9.15039 17.959-9.17969 17.7148-9.41406L15.7129-11.416C15.459-11.6504 15.4297-11.8164 15.5859-12.1875L16.4648-14.2773C14.9023-15.7324 12.8711-16.3574 10.8398-15.7617C10.6836-15.7227 10.625-15.8496 10.752-15.957ZM5.27344 2.30469L4.10156 1.14258C3.63281 0.683594 3.74023 0.341797 4.14062-0.0195312L14.9512-10.1953L16.416-8.71094L6.42578 2.27539C6.07422 2.67578 5.74219 2.77344 5.27344 2.30469Z"/>
  </g>
  <text style="stroke:none;fill:black;font-family:-apple-system,&quot;SF Pro Display&quot;,&quot;SF Pro Text&quot;,Helvetica,sans-serif;font-weight:bold;" transform="matrix(1 0 0 1 1289 1953)">Exporting</text>
  <text style="stroke:none;fill:black;font-family:-apple-system,&quot;SF Pro Display&quot;,&quot;SF Pro Text&quot;,Helvetica,sans-serif;" transform="matrix(1 0 0 1 1289 1971)">Symbols should be outlined when exporting to ensure the</text>
  <text style="stroke:none;fill:black;font-family:-apple-system,&quot;SF Pro Display&quot;,&quot;SF Pro Text&quot;,Helvetica,sans-serif;" transform="matrix(1 0 0 1 1289 1989)">design is preserved when submitting to Xcode.</text>
  <text id="template-version" style="stroke:none;fill:black;font-family:-apple-system,&quot;SF Pro Display&quot;,&quot;SF Pro Text&quot;,Helvetica,sans-serif;text-anchor:end;" transform="matrix(1 0 0 1 3036 1933)">Template v.2.0</text>
  <text style="stroke:none;fill:black;font-family:-apple-system,&quot;SF Pro Display&quot;,&quot;SF Pro Text&quot;,Helvetica,sans-serif;text-anchor:end;" transform="matrix(1 0 0 1 3036 1951)">Requires Xcode 12 or greater</text>
  <text style="stroke:none;fill:black;font-family:-apple-system,&quot;SF Pro Display&quot;,&quot;SF Pro Text&quot;,Helvetica,sans-serif;" transform="matrix(1 0 0 1 263 726)">Small</text>
  <text style="stroke:none;fill:black;font-family:-apple-system,&quot;SF Pro Display&quot;,&quot;SF Pro Text&quot;,Helvetica,sans-serif;" transform="matrix(1 0 0 1 263 1156)">Medium</text>
  <text style="stroke:none;fill:black;font-family:-apple-system,&quot;SF Pro Display&quot;,&quot;SF Pro Text&quot;,Helvetica,sans-serif;" transform="matrix(1 0 0 1 263 1586)">Large</text>
 </g>
 <g id="Guides">
  <g id="H-reference" style="fill:#27AAE1;stroke:none;" transform="matrix(1 0 0 1 339 696)">
   <path d="M0.976562 0L3.66211 0L12.9883-24.4629L45.752-24.4629L55.127 0L57.7637 0L30.6152-70.459L28.125-70.459ZM29.3457-67.1387L29.4434-67.1387L44.873-26.709L13.8672-26.709Z"/>
  </g>
  <line id="Baseline-S" style="fill:none;stroke:#27AAE1;opacity:1;stroke-width:0.5;" x1="263" x2="3036" y1="696" y2="696"/>
  <line id="Capline-S" style="fill:none;stroke:#27AAE1;opacity:1;stroke-width:0.5;" x1="263" x2="3036" y1="625.541" y2="625.541"/>
  <g id="H-reference" style="fill:#27AAE1;stroke:none;" transform="matrix(1 0 0 1 339 1126)">
   <path d="M0.976562 0L3.66211 0L12.9883-24.4629L45.752-24.4629L55.127 0L57.7637 0L30.6152-70.459L28.125-70.459ZM29.3457-67.1387L29.4434-67.1387L44.873-26.709L13.8672-26.709Z"/>
  </g>
  <line id="Baseline-M" style="fill:none;stroke:#27AAE1;opacity:1;stroke-width:0.5;" x1="263" x2="3036" y1="1126" y2="1126"/>
  <line id="Capline-M" style="fill:none;stroke:#27AAE1;opacity:1;stroke-width:0.5;" x1="263" x2="3036" y1="1055.54" y2="1055.54"/>
  <g id="H-reference" style="fill:#27AAE1;stroke:none;" transform="matrix(1 0 0 1 339 1556)">
   <path d="M0.976562 0L3.66211 0L12.9883-24.4629L45.752-24.4629L55.127 0L57.7637 0L30.6152-70.459L28.125-70.459ZM29.3457-67.1387L29.4434-67.1387L44.873-26.709L13.8672-26.709Z"/>
  </g>
  <line id="Baseline-L" style="fill:none;stroke:#27AAE1;opacity:1;stroke-width:0.5;" x1="263" x2="3036" y1="1556" y2="1556"/>
  <line id="Capline-L" style="fill:none;stroke:#27AAE1;opacity:1;stroke-width:0.5;" x1="263" x2="3036" y1="1485.54" y2="1485.54"/>
  <line id="left-margin" x1="1401.0914853681143" x2="1401.0914853681143" y1="1030.79" y2="1150.12" style="fill:none;stroke:#00AEEF;stroke-width:0.5;opacity:1.0;"/>
  <line id="right-margin" x1="1500.6908199814618" x2="1500.6908199814618" y1="1030.79" y2="1150.12" style="fill:none;stroke:#00AEEF;stroke-width:0.5;opacity:1.0;"/>
 </g>
 <g id="Symbols">
  <g id="Black-L" transform="matrix(1.0,0.0,0.0,1.0,2857.6517376191737,1444.3579832494704)">  <path mask="url(#mask0)" stroke-miterlimit="4" stroke-linecap="butt" fill-rule="nonzero" stroke-width="1px" stroke-opacity="1" stroke-dasharray="none" stroke="none" fill-opacity="1" fill="#000000" stroke-linejoin="miter" d="M73.192,134.799C33.965,134.686,67.616,107.078,55.082,93.894C44.438,82.698,12.964,109.478,12.839,77.028C12.703,41.953,37.414,19.257,75.192,19.257C112.971,19.257,141.218,41.952,141.218,77.028C141.218,112.104,110.969,134.909,73.192,134.799ZM48.2,60.898C53.924,60.898,58.564,56.317,58.564,50.666C58.564,45.015,53.924,40.434,48.2,40.434C42.476,40.434,37.835,45.015,37.835,50.666C37.835,56.317,42.476,60.898,48.2,60.898ZM75.489,53.589C81.213,53.589,85.853,49.008,85.853,43.357C85.853,37.707,81.213,33.126,75.489,33.126C69.764,33.126,65.125,37.707,65.125,43.357C65.125,49.008,69.764,53.589,75.489,53.589ZM104.161,60.898C109.885,60.898,114.525,56.317,114.525,50.666C114.525,45.015,109.885,40.434,104.161,40.434C98.437,40.434,93.797,45.015,93.797,50.666C93.797,56.317,98.437,60.898,104.161,60.898ZM104.161,111.746C109.885,111.746,114.525,107.164,114.525,101.514C114.525,95.862,109.885,91.282,104.161,91.282C98.437,91.282,93.797,95.862,93.797,101.514C93.797,107.164,98.437,111.746,104.161,111.746ZM120.111,86.322C125.835,86.322,130.476,81.74,130.476,76.09C130.476,70.439,125.835,65.858,120.111,65.858C114.388,65.858,109.747,70.439,109.747,76.09C109.747,81.74,114.388,86.322,120.111,86.322ZM34.624,85.162C40.348,85.162,44.988,80.581,44.988,74.93C44.988,69.279,40.348,64.698,34.624,64.698C28.9,64.698,24.26,69.279,24.26,74.93C24.26,80.581,28.9,85.162,34.624,85.162ZM75.489,120.242C81.213,120.242,85.853,115.661,85.853,110.01C85.853,104.359,81.213,99.779,75.489,99.779C69.764,99.779,65.125,104.359,65.125,110.01C65.125,115.661,69.764,120.242,75.489,120.242ZM75.489,120.242"/>
</g>
  <g id="Heavy-L" transform="matrix(1.0,0.0,0.0,1.0,2560.9417376191736,1444.3579832494704)">  <path stroke-linecap="butt" stroke-linejoin="miter" stroke-miterlimit="4" fill="#000000" fill-rule="nonzero" mask="url(#mask0)" stroke-width="1px" stroke-opacity="1" fill-opacity="1" stroke-dasharray="none" stroke="none" d="M73.192,134.799C33.965,134.686,67.616,107.078,55.082,93.894C44.438,82.698,12.964,109.478,12.839,77.028C12.703,41.953,37.414,19.257,75.192,19.257C112.971,19.257,141.218,41.952,141.218,77.028C141.218,112.104,110.969,134.909,73.192,134.799ZM48.2,60.898C53.924,60.898,58.564,56.317,58.564,50.666C58.564,45.015,53.924,40.434,48.2,40.434C42.476,40.434,37.835,45.015,37.835,50.666C37.835,56.317,42.476,60.898,48.2,60.898ZM75.489,53.589C81.213,53.589,85.853,49.008,85.853,43.357C85.853,37.707,81.213,33.126,75.489,33.126C69.764,33.126,65.125,37.707,65.125,43.357C65.125,49.008,69.764,53.589,75.489,53.589ZM104.161,60.898C109.885,60.898,114.525,56.317,114.525,50.666C114.525,45.015,109.885,40.434,104.161,40.434C98.437,40.434,93.797,45.015,93.797,50.666C93.797,56.317,98.437,60.898,104.161,60.898ZM104.161,111.746C109.885,111.746,114.525,107.164,114.525,101.514C114.525,95.862,109.885,91.282,104.161,91.282C98.437,91.282,93.797,95.862,93.797,101.514C93.797,107.164,98.437,111.746,104.161,111.746ZM120.111,86.322C125.835,86.322,130.476,81.74,130.476,76.09C130.476,70.439,125.835,65.858,120.111,65.858C114.388,65.858,109.747,70.439,109.747,76.09C109.747,81.74,114.388,86.322,120.111,86.322ZM34.624,85.162C40.348,85.162,44.988,80.581,44.988,74.93C44.988,69.279,40.348,64.698,34.624,64.698C28.9,64.698,24.26,69.279,24.26,74.93C24.26,80.581,28.9,85.162,34.624,85.162ZM75.489,120.242C81.213,120.242,85.853,115.661,85.853,110.01C85.853,104.359,81.213,99.779,75.489,99.779C69.764,99.779,65.125,104.359,65.125,110.01C65.125,115.661,69.764,120.242,75.489,120.242ZM75.489,120.242"/>
</g>
  <g id="Bold-L" transform="matrix(1.0,0.0,0.0,1.0,2264.2317376191736,1444.3579832494704)">  <path fill-opacity="1" stroke-dasharray="none" stroke-linejoin="miter" stroke-linecap="butt" stroke-width="1px" stroke-opacity="1" stroke-miterlimit="4" mask="url(#mask0)" fill-rule="nonzero" fill="#000000" stroke="none" d="M73.192,134.799C33.965,134.686,67.616,107.078,55.082,93.894C44.438,82.698,12.964,109.478,12.839,77.028C12.703,41.953,37.414,19.257,75.192,19.257C112.971,19.257,141.218,41.952,141.218,77.028C141.218,112.104,110.969,134.909,73.192,134.799ZM48.2,60.898C53.924,60.898,58.564,56.317,58.564,50.666C58.564,45.015,53.924,40.434,48.2,40.434C42.476,40.434,37.835,45.015,37.835,50.666C37.835,56.317,42.476,60.898,48.2,60.898ZM75.489,53.589C81.213,53.589,85.853,49.008,85.853,43.357C85.853,37.707,81.213,33.126,75.489,33.126C69.764,33.126,65.125,37.707,65.125,43.357C65.125,49.008,69.764,53.589,75.489,53.589ZM104.161,60.898C109.885,60.898,114.525,56.317,114.525,50.666C114.525,45.015,109.885,40.434,104.161,40.434C98.437,40.434,93.797,45.015,93.797,50.666C93.797,56.317,98.437,60.898,104.161,60.898ZM104.161,111.746C109.885,111.746,114.525,107.164,114.525,101.514C114.525,95.862,109.885,91.282,104.161,91.282C98.437,91.282,93.797,95.862,93.797,101.514C93.797,107.164,98.437,111.746,104.161,111.746ZM120.111,86.322C125.835,86.322,130.476,81.74,130.476,76.09C130.476,70.439,125.835,65.858,120.111,65.858C114.388,65.858,109.747,70.439,109.747,76.09C109.747,81.74,114.388,86.322,120.111,86.322ZM34.624,85.162C40.348,85.162,44.988,80.581,44.988,74.93C44.988,69.279,40.348,64.698,34.624,64.698C28.9,64.698,24.26,69.279,24.26,74.93C24.26,80.581,28.9,85.162,34.624,85.162ZM75.489,120.242C81.213,120.242,85.853,115.661,85.853,110.01C85.853,104.359,81.213,99.779,75.489,99.779C69.764,99.779,65.125,104.359,65.125,110.01C65.125,115.661,69.764,120.242,75.489,120.242ZM75.489,120.242"/>
</g>
  <g id="Semibold-L" transform="matrix(1.0,0.0,0.0,1.0,1967.5217376191736,1444.3579832494704)">  <path stroke-miterlimit="4" fill="#000000" fill-rule="nonzero" stroke-opacity="1" stroke-width="1px" stroke="none" stroke-linejoin="miter" mask="url(#mask0)" stroke-linecap="butt" stroke-dasharray="none" fill-opacity="1" d="M73.192,134.799C33.965,134.686,67.616,107.078,55.082,93.894C44.438,82.698,12.964,109.478,12.839,77.028C12.703,41.953,37.414,19.257,75.192,19.257C112.971,19.257,141.218,41.952,141.218,77.028C141.218,112.104,110.969,134.909,73.192,134.799ZM48.2,60.898C53.924,60.898,58.564,56.317,58.564,50.666C58.564,45.015,53.924,40.434,48.2,40.434C42.476,40.434,37.835,45.015,37.835,50.666C37.835,56.317,42.476,60.898,48.2,60.898ZM75.489,53.589C81.213,53.589,85.853,49.008,85.853,43.357C85.853,37.707,81.213,33.126,75.489,33.126C69.764,33.126,65.125,37.707,65.125,43.357C65.125,49.008,69.764,53.589,75.489,53.589ZM104.161,60.898C109.885,60.898,114.525,56.317,114.525,50.666C114.525,45.015,109.885,40.434,104.161,40.434C98.437,40.434,93.797,45.015,93.797,50.666C93.797,56.317,98.437,60.898,104.161,60.898ZM104.161,111.746C109.885,111.746,114.525,107.164,114.525,101.514C114.525,95.862,109.885,91.282,104.161,91.282C98.437,91.282,93.797,95.862,93.797,101.514C93.797,107.164,98.437,111.746,104.161,111.746ZM120.111,86.322C125.835,86.322,130.476,81.74,130.476,76.09C130.476,70.439,125.835,65.858,120.111,65.858C114.388,65.858,109.747,70.439,109.747,76.09C109.747,81.74,114.388,86.322,120.111,86.322ZM34.624,85.162C40.348,85.162,44.988,80.581,44.988,74.93C44.988,69.279,40.348,64.698,34.624,64.698C28.9,64.698,24.26,69.279,24.26,74.93C24.26,80.581,28.9,85.162,34.624,85.162ZM75.489,120.242C81.213,120.242,85.853,115.661,85.853,110.01C85.853,104.359,81.213,99.779,75.489,99.779C69.764,99.779,65.125,104.359,65.125,110.01C65.125,115.661,69.764,120.242,75.489,120.242ZM75.489,120.242"/>
</g>
  <g id="Medium-L" transform="matrix(1.0,0.0,0.0,1.0,1670.8117376191735,1444.3579832494704)">  <path stroke-linecap="butt" stroke-width="1px" fill-rule="nonzero" fill="#000000" stroke-opacity="1" stroke-linejoin="miter" stroke-miterlimit="4" stroke-dasharray="none" mask="url(#mask0)" stroke="none" fill-opacity="1" d="M73.192,134.799C33.965,134.686,67.616,107.078,55.082,93.894C44.438,82.698,12.964,109.478,12.839,77.028C12.703,41.953,37.414,19.257,75.192,19.257C112.971,19.257,141.218,41.952,141.218,77.028C141.218,112.104,110.969,134.909,73.192,134.799ZM48.2,60.898C53.924,60.898,58.564,56.317,58.564,50.666C58.564,45.015,53.924,40.434,48.2,40.434C42.476,40.434,37.835,45.015,37.835,50.666C37.835,56.317,42.476,60.898,48.2,60.898ZM75.489,53.589C81.213,53.589,85.853,49.008,85.853,43.357C85.853,37.707,81.213,33.126,75.489,33.126C69.764,33.126,65.125,37.707,65.125,43.357C65.125,49.008,69.764,53.589,75.489,53.589ZM104.161,60.898C109.885,60.898,114.525,56.317,114.525,50.666C114.525,45.015,109.885,40.434,104.161,40.434C98.437,40.434,93.797,45.015,93.797,50.666C93.797,56.317,98.437,60.898,104.161,60.898ZM104.161,111.746C109.885,111.746,114.525,107.164,114.525,101.514C114.525,95.862,109.885,91.282,104.161,91.282C98.437,91.282,93.797,95.862,93.797,101.514C93.797,107.164,98.437,111.746,104.161,111.746ZM120.111,86.322C125.835,86.322,130.476,81.74,130.476,76.09C130.476,70.439,125.835,65.858,120.111,65.858C114.388,65.858,109.747,70.439,109.747,76.09C109.747,81.74,114.388,86.322,120.111,86.322ZM34.624,85.162C40.348,85.162,44.988,80.581,44.988,74.93C44.988,69.279,40.348,64.698,34.624,64.698C28.9,64.698,24.26,69.279,24.26,74.93C24.26,80.581,28.9,85.162,34.624,85.162ZM75.489,120.242C81.213,120.242,85.853,115.661,85.853,110.01C85.853,104.359,81.213,99.779,75.489,99.779C69.764,99.779,65.125,104.359,65.125,110.01C65.125,115.661,69.764,120.242,75.489,120.242ZM75.489,120.242"/>
</g>
  <g id="Regular-L" transform="matrix(1.0,0.0,0.0,1.0,1374.1017376191735,1444.3579832494704)">  <path stroke="none" fill-rule="nonzero" stroke-dasharray="none" stroke-linecap="butt" fill="#000000" fill-opacity="1" stroke-width="1px" stroke-opacity="1" stroke-linejoin="miter" mask="url(#mask0)" stroke-miterlimit="4" d="M73.192,134.799C33.965,134.686,67.616,107.078,55.082,93.894C44.438,82.698,12.964,109.478,12.839,77.028C12.703,41.953,37.414,19.257,75.192,19.257C112.971,19.257,141.218,41.952,141.218,77.028C141.218,112.104,110.969,134.909,73.192,134.799ZM48.2,60.898C53.924,60.898,58.564,56.317,58.564,50.666C58.564,45.015,53.924,40.434,48.2,40.434C42.476,40.434,37.835,45.015,37.835,50.666C37.835,56.317,42.476,60.898,48.2,60.898ZM75.489,53.589C81.213,53.589,85.853,49.008,85.853,43.357C85.853,37.707,81.213,33.126,75.489,33.126C69.764,33.126,65.125,37.707,65.125,43.357C65.125,49.008,69.764,53.589,75.489,53.589ZM104.161,60.898C109.885,60.898,114.525,56.317,114.525,50.666C114.525,45.015,109.885,40.434,104.161,40.434C98.437,40.434,93.797,45.015,93.797,50.666C93.797,56.317,98.437,60.898,104.161,60.898ZM104.161,111.746C109.885,111.746,114.525,107.164,114.525,101.514C114.525,95.862,109.885,91.282,104.161,91.282C98.437,91.282,93.797,95.862,93.797,101.514C93.797,107.164,98.437,111.746,104.161,111.746ZM120.111,86.322C125.835,86.322,130.476,81.74,130.476,76.09C130.476,70.439,125.835,65.858,120.111,65.858C114.388,65.858,109.747,70.439,109.747,76.09C109.747,81.74,114.388,86.322,120.111,86.322ZM34.624,85.162C40.348,85.162,44.988,80.581,44.988,74.93C44.988,69.279,40.348,64.698,34.624,64.698C28.9,64.698,24.26,69.279,24.26,74.93C24.26,80.581,28.9,85.162,34.624,85.162ZM75.489,120.242C81.213,120.242,85.853,115.661,85.853,110.01C85.853,104.359,81.213,99.779,75.489,99.779C69.764,99.779,65.125,104.359,65.125,110.01C65.125,115.661,69.764,120.242,75.489,120.242ZM75.489,120.242"/>
</g>
  <g id="Light-L" transform="matrix(1.0,0.0,0.0,1.0,1077.391737619174,1444.3579832494704)">  <path stroke-width="1px" stroke-opacity="1" stroke-linejoin="miter" stroke-linecap="butt" mask="url(#mask0)" fill-rule="nonzero" stroke-dasharray="none" stroke="none" stroke-miterlimit="4" fill-opacity="1" fill="#000000" d="M73.192,134.799C33.965,134.686,67.616,107.078,55.082,93.894C44.438,82.698,12.964,109.478,12.839,77.028C12.703,41.953,37.414,19.257,75.192,19.257C112.971,19.257,141.218,41.952,141.218,77.028C141.218,112.104,110.969,134.909,73.192,134.799ZM48.2,60.898C53.924,60.898,58.564,56.317,58.564,50.666C58.564,45.015,53.924,40.434,48.2,40.434C42.476,40.434,37.835,45.015,37.835,50.666C37.835,56.317,42.476,60.898,48.2,60.898ZM75.489,53.589C81.213,53.589,85.853,49.008,85.853,43.357C85.853,37.707,81.213,33.126,75.489,33.126C69.764,33.126,65.125,37.707,65.125,43.357C65.125,49.008,69.764,53.589,75.489,53.589ZM104.161,60.898C109.885,60.898,114.525,56.317,114.525,50.666C114.525,45.015,109.885,40.434,104.161,40.434C98.437,40.434,93.797,45.015,93.797,50.666C93.797,56.317,98.437,60.898,104.161,60.898ZM104.161,111.746C109.885,111.746,114.525,107.164,114.525,101.514C114.525,95.862,109.885,91.282,104.161,91.282C98.437,91.282,93.797,95.862,93.797,101.514C93.797,107.164,98.437,111.746,104.161,111.746ZM120.111,86.322C125.835,86.322,130.476,81.74,130.476,76.09C130.476,70.439,125.835,65.858,120.111,65.858C114.388,65.858,109.747,70.439,109.747,76.09C109.747,81.74,114.388,86.322,120.111,86.322ZM34.624,85.162C40.348,85.162,44.988,80.581,44.988,74.93C44.988,69.279,40.348,64.698,34.624,64.698C28.9,64.698,24.26,69.279,24.26,74.93C24.26,80.581,28.9,85.162,34.624,85.162ZM75.489,120.242C81.213,120.242,85.853,115.661,85.853,110.01C85.853,104.359,81.213,99.779,75.489,99.779C69.764,99.779,65.125,104.359,65.125,110.01C65.125,115.661,69.764,120.242,75.489,120.242ZM75.489,120.242"/>
</g>
  <g id="Thin-L" transform="matrix(1.0,0.0,0.0,1.0,780.6817376191738,1444.3579832494704)">  <path fill="#000000" mask="url(#mask0)" stroke-dasharray="none" stroke="none" stroke-miterlimit="4" fill-rule="nonzero" stroke-linejoin="miter" fill-opacity="1" stroke-opacity="1" stroke-width="1px" stroke-linecap="butt" d="M73.192,134.799C33.965,134.686,67.616,107.078,55.082,93.894C44.438,82.698,12.964,109.478,12.839,77.028C12.703,41.953,37.414,19.257,75.192,19.257C112.971,19.257,141.218,41.952,141.218,77.028C141.218,112.104,110.969,134.909,73.192,134.799ZM48.2,60.898C53.924,60.898,58.564,56.317,58.564,50.666C58.564,45.015,53.924,40.434,48.2,40.434C42.476,40.434,37.835,45.015,37.835,50.666C37.835,56.317,42.476,60.898,48.2,60.898ZM75.489,53.589C81.213,53.589,85.853,49.008,85.853,43.357C85.853,37.707,81.213,33.126,75.489,33.126C69.764,33.126,65.125,37.707,65.125,43.357C65.125,49.008,69.764,53.589,75.489,53.589ZM104.161,60.898C109.885,60.898,114.525,56.317,114.525,50.666C114.525,45.015,109.885,40.434,104.161,40.434C98.437,40.434,93.797,45.015,93.797,50.666C93.797,56.317,98.437,60.898,104.161,60.898ZM104.161,111.746C109.885,111.746,114.525,107.164,114.525,101.514C114.525,95.862,109.885,91.282,104.161,91.282C98.437,91.282,93.797,95.862,93.797,101.514C93.797,107.164,98.437,111.746,104.161,111.746ZM120.111,86.322C125.835,86.322,130.476,81.74,130.476,76.09C130.476,70.439,125.835,65.858,120.111,65.858C114.388,65.858,109.747,70.439,109.747,76.09C109.747,81.74,114.388,86.322,120.111,86.322ZM34.624,85.162C40.348,85.162,44.988,80.581,44.988,74.93C44.988,69.279,40.348,64.698,34.624,64.698C28.9,64.698,24.26,69.279,24.26,74.93C24.26,80.581,28.9,85.162,34.624,85.162ZM75.489,120.242C81.213,120.242,85.853,115.661,85.853,110.01C85.853,104.359,81.213,99.779,75.489,99.779C69.764,99.779,65.125,104.359,65.125,110.01C65.125,115.661,69.764,120.242,75.489,120.242ZM75.489,120.242"/>
</g>
  <g id="Ultralight-L" transform="matrix(1.0,0.0,0.0,1.0,483.9717376191737,1444.3579832494704)">  <path stroke-miterlimit="4" stroke-linejoin="miter" stroke-width="1px" stroke-linecap="butt" fill-opacity="1" mask="url(#mask0)" fill="#000000" stroke="none" fill-rule="nonzero" stroke-dasharray="none" stroke-opacity="1" d="M73.192,134.799C33.965,134.686,67.616,107.078,55.082,93.894C44.438,82.698,12.964,109.478,12.839,77.028C12.703,41.953,37.414,19.257,75.192,19.257C112.971,19.257,141.218,41.952,141.218,77.028C141.218,112.104,110.969,134.909,73.192,134.799ZM48.2,60.898C53.924,60.898,58.564,56.317,58.564,50.666C58.564,45.015,53.924,40.434,48.2,40.434C42.476,40.434,37.835,45.015,37.835,50.666C37.835,56.317,42.476,60.898,48.2,60.898ZM75.489,53.589C81.213,53.589,85.853,49.008,85.853,43.357C85.853,37.707,81.213,33.126,75.489,33.126C69.764,33.126,65.125,37.707,65.125,43.357C65.125,49.008,69.764,53.589,75.489,53.589ZM104.161,60.898C109.885,60.898,114.525,56.317,114.525,50.666C114.525,45.015,109.885,40.434,104.161,40.434C98.437,40.434,93.797,45.015,93.797,50.666C93.797,56.317,98.437,60.898,104.161,60.898ZM104.161,111.746C109.885,111.746,114.525,107.164,114.525,101.514C114.525,95.862,109.885,91.282,104.161,91.282C98.437,91.282,93.797,95.862,93.797,101.514C93.797,107.164,98.437,111.746,104.161,111.746ZM120.111,86.322C125.835,86.322,130.476,81.74,130.476,76.09C130.476,70.439,125.835,65.858,120.111,65.858C114.388,65.858,109.747,70.439,109.747,76.09C109.747,81.74,114.388,86.322,120.111,86.322ZM34.624,85.162C40.348,85.162,44.988,80.581,44.988,74.93C44.988,69.279,40.348,64.698,34.624,64.698C28.9,64.698,24.26,69.279,24.26,74.93C24.26,80.581,28.9,85.162,34.624,85.162ZM75.489,120.242C81.213,120.242,85.853,115.661,85.853,110.01C85.853,104.359,81.213,99.779,75.489,99.779C69.764,99.779,65.125,104.359,65.125,110.01C65.125,115.661,69.764,120.242,75.489,120.242ZM75.489,120.242"/>
</g>
  <g id="Black-M" transform="matrix(1.0,0.0,0.0,1.0,2874.968168697034,1031.5358828787075)">  <path mask="url(#mask0)" stroke-miterlimit="4" stroke-linecap="butt" fill-rule="nonzero" stroke-width="1px" stroke-opacity="1" stroke-dasharray="none" stroke="none" fill-opacity="1" fill="#000000" stroke-linejoin="miter" d="M56.738,104.495C26.33,104.408,52.416,83.006,42.699,72.786C34.448,64.107,10.05,84.867,9.952,59.712C9.847,32.521,29.003,14.928,58.289,14.928C87.574,14.928,109.472,32.521,109.472,59.712C109.472,86.902,86.023,104.58,56.738,104.495ZM37.364,47.207C41.801,47.207,45.398,43.656,45.398,39.276C45.398,34.895,41.801,31.344,37.364,31.344C32.927,31.344,29.33,34.895,29.33,39.276C29.33,43.656,32.927,47.207,37.364,47.207ZM58.519,41.542C62.956,41.542,66.553,37.991,66.553,33.61C66.553,29.23,62.956,25.679,58.519,25.679C54.081,25.679,50.484,29.23,50.484,33.61C50.484,37.991,54.081,41.542,58.519,41.542ZM80.745,47.207C85.182,47.207,88.779,43.656,88.779,39.276C88.779,34.895,85.182,31.344,80.745,31.344C76.308,31.344,72.711,34.895,72.711,39.276C72.711,43.656,76.308,47.207,80.745,47.207ZM80.745,86.624C85.182,86.624,88.779,83.073,88.779,78.693C88.779,74.312,85.182,70.761,80.745,70.761C76.308,70.761,72.711,74.312,72.711,78.693C72.711,83.073,76.308,86.624,80.745,86.624ZM93.11,66.916C97.547,66.916,101.144,63.365,101.144,58.984C101.144,54.604,97.547,51.053,93.11,51.053C88.673,51.053,85.075,54.604,85.075,58.984C85.075,63.365,88.673,66.916,93.11,66.916ZM26.841,66.017C31.278,66.017,34.875,62.466,34.875,58.085C34.875,53.705,31.278,50.153,26.841,50.153C22.403,50.153,18.806,53.705,18.806,58.085C18.806,62.466,22.403,66.017,26.841,66.017ZM58.519,93.211C62.956,93.211,66.553,89.66,66.553,85.279C66.553,80.899,62.956,77.348,58.519,77.348C54.081,77.348,50.484,80.899,50.484,85.279C50.484,89.66,54.081,93.211,58.519,93.211ZM58.519,93.211"/>
</g>
  <g id="Heavy-M" transform="matrix(1.0,0.0,0.0,1.0,2578.258168697034,1031.5358828787075)">  <path stroke-linecap="butt" stroke-linejoin="miter" stroke-miterlimit="4" fill="#000000" fill-rule="nonzero" mask="url(#mask0)" stroke-width="1px" stroke-opacity="1" fill-opacity="1" stroke-dasharray="none" stroke="none" d="M56.738,104.495C26.33,104.408,52.416,83.006,42.699,72.786C34.448,64.107,10.05,84.867,9.952,59.712C9.847,32.521,29.003,14.928,58.289,14.928C87.574,14.928,109.472,32.521,109.472,59.712C109.472,86.902,86.023,104.58,56.738,104.495ZM37.364,47.207C41.801,47.207,45.398,43.656,45.398,39.276C45.398,34.895,41.801,31.344,37.364,31.344C32.927,31.344,29.33,34.895,29.33,39.276C29.33,43.656,32.927,47.207,37.364,47.207ZM58.519,41.542C62.956,41.542,66.553,37.991,66.553,33.61C66.553,29.23,62.956,25.679,58.519,25.679C54.081,25.679,50.484,29.23,50.484,33.61C50.484,37.991,54.081,41.542,58.519,41.542ZM80.745,47.207C85.182,47.207,88.779,43.656,88.779,39.276C88.779,34.895,85.182,31.344,80.745,31.344C76.308,31.344,72.711,34.895,72.711,39.276C72.711,43.656,76.308,47.207,80.745,47.207ZM80.745,86.624C85.182,86.624,88.779,83.073,88.779,78.693C88.779,74.312,85.182,70.761,80.745,70.761C76.308,70.761,72.711,74.312,72.711,78.693C72.711,83.073,76.308,86.624,80.745,86.624ZM93.11,66.916C97.547,66.916,101.144,63.365,101.144,58.984C101.144,54.604,97.547,51.053,93.11,51.053C88.673,51.053,85.075,54.604,85.075,58.984C85.075,63.365,88.673,66.916,93.11,66.916ZM26.841,66.017C31.278,66.017,34.875,62.466,34.875,58.085C34.875,53.705,31.278,50.153,26.841,50.153C22.403,50.153,18.806,53.705,18.806,58.085C18.806,62.466,22.403,66.017,26.841,66.017ZM58.519,93.211C62.956,93.211,66.553,89.66,66.553,85.279C66.553,80.899,62.956,77.348,58.519,77.348C54.081,77.348,50.484,80.899,50.484,85.279C50.484,89.66,54.081,93.211,58.519,93.211ZM58.519,93.211"/>
</g>
  <g id="Bold-M" transform="matrix(1.0,0.0,0.0,1.0,2281.548168697034,1031.5358828787075)">  <path fill-opacity="1" stroke-dasharray="none" stroke-linejoin="miter" stroke-linecap="butt" stroke-width="1px" stroke-opacity="1" stroke-miterlimit="4" mask="url(#mask0)" fill-rule="nonzero" fill="#000000" stroke="none" d="M56.738,104.495C26.33,104.408,52.416,83.006,42.699,72.786C34.448,64.107,10.05,84.867,9.952,59.712C9.847,32.521,29.003,14.928,58.289,14.928C87.574,14.928,109.472,32.521,109.472,59.712C109.472,86.902,86.023,104.58,56.738,104.495ZM37.364,47.207C41.801,47.207,45.398,43.656,45.398,39.276C45.398,34.895,41.801,31.344,37.364,31.344C32.927,31.344,29.33,34.895,29.33,39.276C29.33,43.656,32.927,47.207,37.364,47.207ZM58.519,41.542C62.956,41.542,66.553,37.991,66.553,33.61C66.553,29.23,62.956,25.679,58.519,25.679C54.081,25.679,50.484,29.23,50.484,33.61C50.484,37.991,54.081,41.542,58.519,41.542ZM80.745,47.207C85.182,47.207,88.779,43.656,88.779,39.276C88.779,34.895,85.182,31.344,80.745,31.344C76.308,31.344,72.711,34.895,72.711,39.276C72.711,43.656,76.308,47.207,80.745,47.207ZM80.745,86.624C85.182,86.624,88.779,83.073,88.779,78.693C88.779,74.312,85.182,70.761,80.745,70.761C76.308,70.761,72.711,74.312,72.711,78.693C72.711,83.073,76.308,86.624,80.745,86.624ZM93.11,66.916C97.547,66.916,101.144,63.365,101.144,58.984C101.144,54.604,97.547,51.053,93.11,51.053C88.673,51.053,85.075,54.604,85.075,58.984C85.075,63.365,88.673,66.916,93.11,66.916ZM26.841,66.017C31.278,66.017,34.875,62.466,34.875,58.085C34.875,53.705,31.278,50.153,26.841,50.153C22.403,50.153,18.806,53.705,18.806,58.085C18.806,62.466,22.403,66.017,26.841,66.017ZM58.519,93.211C62.956,93.211,66.553,89.66,66.553,85.279C66.553,80.899,62.956,77.348,58.519,77.348C54.081,77.348,50.484,80.899,50.484,85.279C50.484,89.66,54.081,93.211,58.519,93.211ZM58.519,93.211"/>
</g>
  <g id="Semibold-M" transform="matrix(1.0,0.0,0.0,1.0,1984.8381686970338,1031.5358828787075)">  <path stroke-miterlimit="4" fill="#000000" fill-rule="nonzero" stroke-opacity="1" stroke-width="1px" stroke="none" stroke-linejoin="miter" mask="url(#mask0)" stroke-linecap="butt" stroke-dasharray="none" fill-opacity="1" d="M56.738,104.495C26.33,104.408,52.416,83.006,42.699,72.786C34.448,64.107,10.05,84.867,9.952,59.712C9.847,32.521,29.003,14.928,58.289,14.928C87.574,14.928,109.472,32.521,109.472,59.712C109.472,86.902,86.023,104.58,56.738,104.495ZM37.364,47.207C41.801,47.207,45.398,43.656,45.398,39.276C45.398,34.895,41.801,31.344,37.364,31.344C32.927,31.344,29.33,34.895,29.33,39.276C29.33,43.656,32.927,47.207,37.364,47.207ZM58.519,41.542C62.956,41.542,66.553,37.991,66.553,33.61C66.553,29.23,62.956,25.679,58.519,25.679C54.081,25.679,50.484,29.23,50.484,33.61C50.484,37.991,54.081,41.542,58.519,41.542ZM80.745,47.207C85.182,47.207,88.779,43.656,88.779,39.276C88.779,34.895,85.182,31.344,80.745,31.344C76.308,31.344,72.711,34.895,72.711,39.276C72.711,43.656,76.308,47.207,80.745,47.207ZM80.745,86.624C85.182,86.624,88.779,83.073,88.779,78.693C88.779,74.312,85.182,70.761,80.745,70.761C76.308,70.761,72.711,74.312,72.711,78.693C72.711,83.073,76.308,86.624,80.745,86.624ZM93.11,66.916C97.547,66.916,101.144,63.365,101.144,58.984C101.144,54.604,97.547,51.053,93.11,51.053C88.673,51.053,85.075,54.604,85.075,58.984C85.075,63.365,88.673,66.916,93.11,66.916ZM26.841,66.017C31.278,66.017,34.875,62.466,34.875,58.085C34.875,53.705,31.278,50.153,26.841,50.153C22.403,50.153,18.806,53.705,18.806,58.085C18.806,62.466,22.403,66.017,26.841,66.017ZM58.519,93.211C62.956,93.211,66.553,89.66,66.553,85.279C66.553,80.899,62.956,77.348,58.519,77.348C54.081,77.348,50.484,80.899,50.484,85.279C50.484,89.66,54.081,93.211,58.519,93.211ZM58.519,93.211"/>
</g>
  <g id="Medium-M" transform="matrix(1.0,0.0,0.0,1.0,1688.1281686970337,1031.5358828787075)">  <path stroke-linecap="butt" stroke-width="1px" fill-rule="nonzero" fill="#000000" stroke-opacity="1" stroke-linejoin="miter" stroke-miterlimit="4" stroke-dasharray="none" mask="url(#mask0)" stroke="none" fill-opacity="1" d="M56.738,104.495C26.33,104.408,52.416,83.006,42.699,72.786C34.448,64.107,10.05,84.867,9.952,59.712C9.847,32.521,29.003,14.928,58.289,14.928C87.574,14.928,109.472,32.521,109.472,59.712C109.472,86.902,86.023,104.58,56.738,104.495ZM37.364,47.207C41.801,47.207,45.398,43.656,45.398,39.276C45.398,34.895,41.801,31.344,37.364,31.344C32.927,31.344,29.33,34.895,29.33,39.276C29.33,43.656,32.927,47.207,37.364,47.207ZM58.519,41.542C62.956,41.542,66.553,37.991,66.553,33.61C66.553,29.23,62.956,25.679,58.519,25.679C54.081,25.679,50.484,29.23,50.484,33.61C50.484,37.991,54.081,41.542,58.519,41.542ZM80.745,47.207C85.182,47.207,88.779,43.656,88.779,39.276C88.779,34.895,85.182,31.344,80.745,31.344C76.308,31.344,72.711,34.895,72.711,39.276C72.711,43.656,76.308,47.207,80.745,47.207ZM80.745,86.624C85.182,86.624,88.779,83.073,88.779,78.693C88.779,74.312,85.182,70.761,80.745,70.761C76.308,70.761,72.711,74.312,72.711,78.693C72.711,83.073,76.308,86.624,80.745,86.624ZM93.11,66.916C97.547,66.916,101.144,63.365,101.144,58.984C101.144,54.604,97.547,51.053,93.11,51.053C88.673,51.053,85.075,54.604,85.075,58.984C85.075,63.365,88.673,66.916,93.11,66.916ZM26.841,66.017C31.278,66.017,34.875,62.466,34.875,58.085C34.875,53.705,31.278,50.153,26.841,50.153C22.403,50.153,18.806,53.705,18.806,58.085C18.806,62.466,22.403,66.017,26.841,66.017ZM58.519,93.211C62.956,93.211,66.553,89.66,66.553,85.279C66.553,80.899,62.956,77.348,58.519,77.348C54.081,77.348,50.484,80.899,50.484,85.279C50.484,89.66,54.081,93.211,58.519,93.211ZM58.519,93.211"/>
</g>
  <g id="Regular-M" transform="matrix(1.0,0.0,0.0,1.0,1391.4181686970337,1031.5358828787075)">  <path stroke="none" fill-rule="nonzero" stroke-dasharray="none" stroke-linecap="butt" fill="#000000" fill-opacity="1" stroke-width="1px" stroke-opacity="1" stroke-linejoin="miter" mask="url(#mask0)" stroke-miterlimit="4" d="M56.738,104.495C26.33,104.408,52.416,83.006,42.699,72.786C34.448,64.107,10.05,84.867,9.952,59.712C9.847,32.521,29.003,14.928,58.289,14.928C87.574,14.928,109.472,32.521,109.472,59.712C109.472,86.902,86.023,104.58,56.738,104.495ZM37.364,47.207C41.801,47.207,45.398,43.656,45.398,39.276C45.398,34.895,41.801,31.344,37.364,31.344C32.927,31.344,29.33,34.895,29.33,39.276C29.33,43.656,32.927,47.207,37.364,47.207ZM58.519,41.542C62.956,41.542,66.553,37.991,66.553,33.61C66.553,29.23,62.956,25.679,58.519,25.679C54.081,25.679,50.484,29.23,50.484,33.61C50.484,37.991,54.081,41.542,58.519,41.542ZM80.745,47.207C85.182,47.207,88.779,43.656,88.779,39.276C88.779,34.895,85.182,31.344,80.745,31.344C76.308,31.344,72.711,34.895,72.711,39.276C72.711,43.656,76.308,47.207,80.745,47.207ZM80.745,86.624C85.182,86.624,88.779,83.073,88.779,78.693C88.779,74.312,85.182,70.761,80.745,70.761C76.308,70.761,72.711,74.312,72.711,78.693C72.711,83.073,76.308,86.624,80.745,86.624ZM93.11,66.916C97.547,66.916,101.144,63.365,101.144,58.984C101.144,54.604,97.547,51.053,93.11,51.053C88.673,51.053,85.075,54.604,85.075,58.984C85.075,63.365,88.673,66.916,93.11,66.916ZM26.841,66.017C31.278,66.017,34.875,62.466,34.875,58.085C34.875,53.705,31.278,50.153,26.841,50.153C22.403,50.153,18.806,53.705,18.806,58.085C18.806,62.466,22.403,66.017,26.841,66.017ZM58.519,93.211C62.956,93.211,66.553,89.66,66.553,85.279C66.553,80.899,62.956,77.348,58.519,77.348C54.081,77.348,50.484,80.899,50.484,85.279C50.484,89.66,54.081,93.211,58.519,93.211ZM58.519,93.211"/>
</g>
  <g id="Light-M" transform="matrix(1.0,0.0,0.0,1.0,1094.708168697034,1031.5358828787075)">  <path stroke-width="1px" stroke-opacity="1" stroke-linejoin="miter" stroke-linecap="butt" mask="url(#mask0)" fill-rule="nonzero" stroke-dasharray="none" stroke="none" stroke-miterlimit="4" fill-opacity="1" fill="#000000" d="M56.738,104.495C26.33,104.408,52.416,83.006,42.699,72.786C34.448,64.107,10.05,84.867,9.952,59.712C9.847,32.521,29.003,14.928,58.289,14.928C87.574,14.928,109.472,32.521,109.472,59.712C109.472,86.902,86.023,104.58,56.738,104.495ZM37.364,47.207C41.801,47.207,45.398,43.656,45.398,39.276C45.398,34.895,41.801,31.344,37.364,31.344C32.927,31.344,29.33,34.895,29.33,39.276C29.33,43.656,32.927,47.207,37.364,47.207ZM58.519,41.542C62.956,41.542,66.553,37.991,66.553,33.61C66.553,29.23,62.956,25.679,58.519,25.679C54.081,25.679,50.484,29.23,50.484,33.61C50.484,37.991,54.081,41.542,58.519,41.542ZM80.745,47.207C85.182,47.207,88.779,43.656,88.779,39.276C88.779,34.895,85.182,31.344,80.745,31.344C76.308,31.344,72.711,34.895,72.711,39.276C72.711,43.656,76.308,47.207,80.745,47.207ZM80.745,86.624C85.182,86.624,88.779,83.073,88.779,78.693C88.779,74.312,85.182,70.761,80.745,70.761C76.308,70.761,72.711,74.312,72.711,78.693C72.711,83.073,76.308,86.624,80.745,86.624ZM93.11,66.916C97.547,66.916,101.144,63.365,101.144,58.984C101.144,54.604,97.547,51.053,93.11,51.053C88.673,51.053,85.075,54.604,85.075,58.984C85.075,63.365,88.673,66.916,93.11,66.916ZM26.841,66.017C31.278,66.017,34.875,62.466,34.875,58.085C34.875,53.705,31.278,50.153,26.841,50.153C22.403,50.153,18.806,53.705,18.806,58.085C18.806,62.466,22.403,66.017,26.841,66.017ZM58.519,93.211C62.956,93.211,66.553,89.66,66.553,85.279C66.553,80.899,62.956,77.348,58.519,77.348C54.081,77.348,50.484,80.899,50.484,85.279C50.484,89.66,54.081,93.211,58.519,93.211ZM58.519,93.211"/>
</g>
  <g id="Thin-M" transform="matrix(1.0,0.0,0.0,1.0,797.998168697034,1031.5358828787075)">  <path fill="#000000" mask="url(#mask0)" stroke-dasharray="none" stroke="none" stroke-miterlimit="4" fill-rule="nonzero" stroke-linejoin="miter" fill-opacity="1" stroke-opacity="1" stroke-width="1px" stroke-linecap="butt" d="M56.738,104.495C26.33,104.408,52.416,83.006,42.699,72.786C34.448,64.107,10.05,84.867,9.952,59.712C9.847,32.521,29.003,14.928,58.289,14.928C87.574,14.928,109.472,32.521,109.472,59.712C109.472,86.902,86.023,104.58,56.738,104.495ZM37.364,47.207C41.801,47.207,45.398,43.656,45.398,39.276C45.398,34.895,41.801,31.344,37.364,31.344C32.927,31.344,29.33,34.895,29.33,39.276C29.33,43.656,32.927,47.207,37.364,47.207ZM58.519,41.542C62.956,41.542,66.553,37.991,66.553,33.61C66.553,29.23,62.956,25.679,58.519,25.679C54.081,25.679,50.484,29.23,50.484,33.61C50.484,37.991,54.081,41.542,58.519,41.542ZM80.745,47.207C85.182,47.207,88.779,43.656,88.779,39.276C88.779,34.895,85.182,31.344,80.745,31.344C76.308,31.344,72.711,34.895,72.711,39.276C72.711,43.656,76.308,47.207,80.745,47.207ZM80.745,86.624C85.182,86.624,88.779,83.073,88.779,78.693C88.779,74.312,85.182,70.761,80.745,70.761C76.308,70.761,72.711,74.312,72.711,78.693C72.711,83.073,76.308,86.624,80.745,86.624ZM93.11,66.916C97.547,66.916,101.144,63.365,101.144,58.984C101.144,54.604,97.547,51.053,93.11,51.053C88.673,51.053,85.075,54.604,85.075,58.984C85.075,63.365,88.673,66.916,93.11,66.916ZM26.841,66.017C31.278,66.017,34.875,62.466,34.875,58.085C34.875,53.705,31.278,50.153,26.841,50.153C22.403,50.153,18.806,53.705,18.806,58.085C18.806,62.466,22.403,66.017,26.841,66.017ZM58.519,93.211C62.956,93.211,66.553,89.66,66.553,85.279C66.553,80.899,62.956,77.348,58.519,77.348C54.081,77.348,50.484,80.899,50.484,85.279C50.484,89.66,54.081,93.211,58.519,93.211ZM58.519,93.211"/>
</g>
  <g id="Ultralight-M" transform="matrix(1.0,0.0,0.0,1.0,501.2881686970339,1031.5358828787075)">  <path stroke-miterlimit="4" stroke-linejoin="miter" stroke-width="1px" stroke-linecap="butt" fill-opacity="1" mask="url(#mask0)" fill="#000000" stroke="none" fill-rule="nonzero" stroke-dasharray="none" stroke-opacity="1" d="M56.738,104.495C26.33,104.408,52.416,83.006,42.699,72.786C34.448,64.107,10.05,84.867,9.952,59.712C9.847,32.521,29.003,14.928,58.289,14.928C87.574,14.928,109.472,32.521,109.472,59.712C109.472,86.902,86.023,104.58,56.738,104.495ZM37.364,47.207C41.801,47.207,45.398,43.656,45.398,39.276C45.398,34.895,41.801,31.344,37.364,31.344C32.927,31.344,29.33,34.895,29.33,39.276C29.33,43.656,32.927,47.207,37.364,47.207ZM58.519,41.542C62.956,41.542,66.553,37.991,66.553,33.61C66.553,29.23,62.956,25.679,58.519,25.679C54.081,25.679,50.484,29.23,50.484,33.61C50.484,37.991,54.081,41.542,58.519,41.542ZM80.745,47.207C85.182,47.207,88.779,43.656,88.779,39.276C88.779,34.895,85.182,31.344,80.745,31.344C76.308,31.344,72.711,34.895,72.711,39.276C72.711,43.656,76.308,47.207,80.745,47.207ZM80.745,86.624C85.182,86.624,88.779,83.073,88.779,78.693C88.779,74.312,85.182,70.761,80.745,70.761C76.308,70.761,72.711,74.312,72.711,78.693C72.711,83.073,76.308,86.624,80.745,86.624ZM93.11,66.916C97.547,66.916,101.144,63.365,101.144,58.984C101.144,54.604,97.547,51.053,93.11,51.053C88.673,51.053,85.075,54.604,85.075,58.984C85.075,63.365,88.673,66.916,93.11,66.916ZM26.841,66.017C31.278,66.017,34.875,62.466,34.875,58.085C34.875,53.705,31.278,50.153,26.841,50.153C22.403,50.153,18.806,53.705,18.806,58.085C18.806,62.466,22.403,66.017,26.841,66.017ZM58.519,93.211C62.956,93.211,66.553,89.66,66.553,85.279C66.553,80.899,62.956,77.348,58.519,77.348C54.081,77.348,50.484,80.899,50.484,85.279C50.484,89.66,54.081,93.211,58.519,93.211ZM58.519,93.211"/>
</g>
  <g id="Black-S" transform="matrix(1.0,0.0,0.0,1.0,2887.9256360897775,614.3896905323093)">  <path mask="url(#mask0)" stroke-miterlimit="4" stroke-linecap="butt" fill-rule="nonzero" stroke-width="1px" stroke-opacity="1" stroke-dasharray="none" stroke="none" fill-opacity="1" fill="#000000" stroke-linejoin="miter" d="M44.426,81.82C20.616,81.751,41.041,64.994,33.434,56.991C26.973,50.195,7.869,66.451,7.793,46.754C7.71,25.464,22.71,11.689,45.64,11.689C68.571,11.689,85.716,25.464,85.716,46.754C85.716,68.044,67.356,81.886,44.426,81.82ZM29.256,36.963C32.73,36.963,35.547,34.183,35.547,30.753C35.547,27.323,32.73,24.543,29.256,24.543C25.782,24.543,22.965,27.323,22.965,30.753C22.965,34.183,25.782,36.963,29.256,36.963ZM45.82,32.527C49.294,32.527,52.111,29.747,52.111,26.317C52.111,22.887,49.294,20.107,45.82,20.107C42.345,20.107,39.529,22.887,39.529,26.317C39.529,29.747,42.345,32.527,45.82,32.527ZM63.223,36.963C66.697,36.963,69.514,34.183,69.514,30.753C69.514,27.323,66.697,24.543,63.223,24.543C59.749,24.543,56.932,27.323,56.932,30.753C56.932,34.183,59.749,36.963,63.223,36.963ZM63.223,67.827C66.697,67.827,69.514,65.046,69.514,61.616C69.514,58.186,66.697,55.406,63.223,55.406C59.749,55.406,56.932,58.186,56.932,61.616C56.932,65.046,59.749,67.827,63.223,67.827ZM72.905,52.395C76.379,52.395,79.196,49.615,79.196,46.185C79.196,42.755,76.379,39.974,72.905,39.974C69.431,39.974,66.614,42.755,66.614,46.185C66.614,49.615,69.431,52.395,72.905,52.395ZM21.016,51.691C24.49,51.691,27.307,48.911,27.307,45.481C27.307,42.051,24.49,39.27,21.016,39.27C17.542,39.27,14.725,42.051,14.725,45.481C14.725,48.911,17.542,51.691,21.016,51.691ZM45.82,72.984C49.294,72.984,52.111,70.204,52.111,66.773C52.111,63.344,49.294,60.563,45.82,60.563C42.345,60.563,39.529,63.344,39.529,66.773C39.529,70.204,42.345,72.984,45.82,72.984ZM45.82,72.984"/>
</g>
  <g id="Heavy-S" transform="matrix(1.0,0.0,0.0,1.0,2591.2156360897775,614.3896905323093)">  <path stroke-linecap="butt" stroke-linejoin="miter" stroke-miterlimit="4" fill="#000000" fill-rule="nonzero" mask="url(#mask0)" stroke-width="1px" stroke-opacity="1" fill-opacity="1" stroke-dasharray="none" stroke="none" d="M44.426,81.82C20.616,81.751,41.041,64.994,33.434,56.991C26.973,50.195,7.869,66.451,7.793,46.754C7.71,25.464,22.71,11.689,45.64,11.689C68.571,11.689,85.716,25.464,85.716,46.754C85.716,68.044,67.356,81.886,44.426,81.82ZM29.256,36.963C32.73,36.963,35.547,34.183,35.547,30.753C35.547,27.323,32.73,24.543,29.256,24.543C25.782,24.543,22.965,27.323,22.965,30.753C22.965,34.183,25.782,36.963,29.256,36.963ZM45.82,32.527C49.294,32.527,52.111,29.747,52.111,26.317C52.111,22.887,49.294,20.107,45.82,20.107C42.345,20.107,39.529,22.887,39.529,26.317C39.529,29.747,42.345,32.527,45.82,32.527ZM63.223,36.963C66.697,36.963,69.514,34.183,69.514,30.753C69.514,27.323,66.697,24.543,63.223,24.543C59.749,24.543,56.932,27.323,56.932,30.753C56.932,34.183,59.749,36.963,63.223,36.963ZM63.223,67.827C66.697,67.827,69.514,65.046,69.514,61.616C69.514,58.186,66.697,55.406,63.223,55.406C59.749,55.406,56.932,58.186,56.932,61.616C56.932,65.046,59.749,67.827,63.223,67.827ZM72.905,52.395C76.379,52.395,79.196,49.615,79.196,46.185C79.196,42.755,76.379,39.974,72.905,39.974C69.431,39.974,66.614,42.755,66.614,46.185C66.614,49.615,69.431,52.395,72.905,52.395ZM21.016,51.691C24.49,51.691,27.307,48.911,27.307,45.481C27.307,42.051,24.49,39.27,21.016,39.27C17.542,39.27,14.725,42.051,14.725,45.481C14.725,48.911,17.542,51.691,21.016,51.691ZM45.82,72.984C49.294,72.984,52.111,70.204,52.111,66.773C52.111,63.344,49.294,60.563,45.82,60.563C42.345,60.563,39.529,63.344,39.529,66.773C39.529,70.204,42.345,72.984,45.82,72.984ZM45.82,72.984"/>
</g>
  <g id="Bold-S" transform="matrix(1.0,0.0,0.0,1.0,2294.5056360897775,614.3896905323093)">  <path fill-opacity="1" stroke-dasharray="none" stroke-linejoin="miter" stroke-linecap="butt" stroke-width="1px" stroke-opacity="1" stroke-miterlimit="4" mask="url(#mask0)" fill-rule="nonzero" fill="#000000" stroke="none" d="M44.426,81.82C20.616,81.751,41.041,64.994,33.434,56.991C26.973,50.195,7.869,66.451,7.793,46.754C7.71,25.464,22.71,11.689,45.64,11.689C68.571,11.689,85.716,25.464,85.716,46.754C85.716,68.044,67.356,81.886,44.426,81.82ZM29.256,36.963C32.73,36.963,35.547,34.183,35.547,30.753C35.547,27.323,32.73,24.543,29.256,24.543C25.782,24.543,22.965,27.323,22.965,30.753C22.965,34.183,25.782,36.963,29.256,36.963ZM45.82,32.527C49.294,32.527,52.111,29.747,52.111,26.317C52.111,22.887,49.294,20.107,45.82,20.107C42.345,20.107,39.529,22.887,39.529,26.317C39.529,29.747,42.345,32.527,45.82,32.527ZM63.223,36.963C66.697,36.963,69.514,34.183,69.514,30.753C69.514,27.323,66.697,24.543,63.223,24.543C59.749,24.543,56.932,27.323,56.932,30.753C56.932,34.183,59.749,36.963,63.223,36.963ZM63.223,67.827C66.697,67.827,69.514,65.046,69.514,61.616C69.514,58.186,66.697,55.406,63.223,55.406C59.749,55.406,56.932,58.186,56.932,61.616C56.932,65.046,59.749,67.827,63.223,67.827ZM72.905,52.395C76.379,52.395,79.196,49.615,79.196,46.185C79.196,42.755,76.379,39.974,72.905,39.974C69.431,39.974,66.614,42.755,66.614,46.185C66.614,49.615,69.431,52.395,72.905,52.395ZM21.016,51.691C24.49,51.691,27.307,48.911,27.307,45.481C27.307,42.051,24.49,39.27,21.016,39.27C17.542,39.27,14.725,42.051,14.725,45.481C14.725,48.911,17.542,51.691,21.016,51.691ZM45.82,72.984C49.294,72.984,52.111,70.204,52.111,66.773C52.111,63.344,49.294,60.563,45.82,60.563C42.345,60.563,39.529,63.344,39.529,66.773C39.529,70.204,42.345,72.984,45.82,72.984ZM45.82,72.984"/>
</g>
  <g id="Semibold-S" transform="matrix(1.0,0.0,0.0,1.0,1997.7956360897774,614.3896905323093)">  <path stroke-miterlimit="4" fill="#000000" fill-rule="nonzero" stroke-opacity="1" stroke-width="1px" stroke="none" stroke-linejoin="miter" mask="url(#mask0)" stroke-linecap="butt" stroke-dasharray="none" fill-opacity="1" d="M44.426,81.82C20.616,81.751,41.041,64.994,33.434,56.991C26.973,50.195,7.869,66.451,7.793,46.754C7.71,25.464,22.71,11.689,45.64,11.689C68.571,11.689,85.716,25.464,85.716,46.754C85.716,68.044,67.356,81.886,44.426,81.82ZM29.256,36.963C32.73,36.963,35.547,34.183,35.547,30.753C35.547,27.323,32.73,24.543,29.256,24.543C25.782,24.543,22.965,27.323,22.965,30.753C22.965,34.183,25.782,36.963,29.256,36.963ZM45.82,32.527C49.294,32.527,52.111,29.747,52.111,26.317C52.111,22.887,49.294,20.107,45.82,20.107C42.345,20.107,39.529,22.887,39.529,26.317C39.529,29.747,42.345,32.527,45.82,32.527ZM63.223,36.963C66.697,36.963,69.514,34.183,69.514,30.753C69.514,27.323,66.697,24.543,63.223,24.543C59.749,24.543,56.932,27.323,56.932,30.753C56.932,34.183,59.749,36.963,63.223,36.963ZM63.223,67.827C66.697,67.827,69.514,65.046,69.514,61.616C69.514,58.186,66.697,55.406,63.223,55.406C59.749,55.406,56.932,58.186,56.932,61.616C56.932,65.046,59.749,67.827,63.223,67.827ZM72.905,52.395C76.379,52.395,79.196,49.615,79.196,46.185C79.196,42.755,76.379,39.974,72.905,39.974C69.431,39.974,66.614,42.755,66.614,46.185C66.614,49.615,69.431,52.395,72.905,52.395ZM21.016,51.691C24.49,51.691,27.307,48.911,27.307,45.481C27.307,42.051,24.49,39.27,21.016,39.27C17.542,39.27,14.725,42.051,14.725,45.481C14.725,48.911,17.542,51.691,21.016,51.691ZM45.82,72.984C49.294,72.984,52.111,70.204,52.111,66.773C52.111,63.344,49.294,60.563,45.82,60.563C42.345,60.563,39.529,63.344,39.529,66.773C39.529,70.204,42.345,72.984,45.82,72.984ZM45.82,72.984"/>
</g>
  <g id="Medium-S" transform="matrix(1.0,0.0,0.0,1.0,1701.0856360897774,614.3896905323093)">  <path stroke-linecap="butt" stroke-width="1px" fill-rule="nonzero" fill="#000000" stroke-opacity="1" stroke-linejoin="miter" stroke-miterlimit="4" stroke-dasharray="none" mask="url(#mask0)" stroke="none" fill-opacity="1" d="M44.426,81.82C20.616,81.751,41.041,64.994,33.434,56.991C26.973,50.195,7.869,66.451,7.793,46.754C7.71,25.464,22.71,11.689,45.64,11.689C68.571,11.689,85.716,25.464,85.716,46.754C85.716,68.044,67.356,81.886,44.426,81.82ZM29.256,36.963C32.73,36.963,35.547,34.183,35.547,30.753C35.547,27.323,32.73,24.543,29.256,24.543C25.782,24.543,22.965,27.323,22.965,30.753C22.965,34.183,25.782,36.963,29.256,36.963ZM45.82,32.527C49.294,32.527,52.111,29.747,52.111,26.317C52.111,22.887,49.294,20.107,45.82,20.107C42.345,20.107,39.529,22.887,39.529,26.317C39.529,29.747,42.345,32.527,45.82,32.527ZM63.223,36.963C66.697,36.963,69.514,34.183,69.514,30.753C69.514,27.323,66.697,24.543,63.223,24.543C59.749,24.543,56.932,27.323,56.932,30.753C56.932,34.183,59.749,36.963,63.223,36.963ZM63.223,67.827C66.697,67.827,69.514,65.046,69.514,61.616C69.514,58.186,66.697,55.406,63.223,55.406C59.749,55.406,56.932,58.186,56.932,61.616C56.932,65.046,59.749,67.827,63.223,67.827ZM72.905,52.395C76.379,52.395,79.196,49.615,79.196,46.185C79.196,42.755,76.379,39.974,72.905,39.974C69.431,39.974,66.614,42.755,66.614,46.185C66.614,49.615,69.431,52.395,72.905,52.395ZM21.016,51.691C24.49,51.691,27.307,48.911,27.307,45.481C27.307,42.051,24.49,39.27,21.016,39.27C17.542,39.27,14.725,42.051,14.725,45.481C14.725,48.911,17.542,51.691,21.016,51.691ZM45.82,72.984C49.294,72.984,52.111,70.204,52.111,66.773C52.111,63.344,49.294,60.563,45.82,60.563C42.345,60.563,39.529,63.344,39.529,66.773C39.529,70.204,42.345,72.984,45.82,72.984ZM45.82,72.984"/>
</g>
  <g id="Regular-S" transform="matrix(1.0,0.0,0.0,1.0,1404.3756360897773,614.3896905323093)">  <path stroke="none" fill-rule="nonzero" stroke-dasharray="none" stroke-linecap="butt" fill="#000000" fill-opacity="1" stroke-width="1px" stroke-opacity="1" stroke-linejoin="miter" mask="url(#mask0)" stroke-miterlimit="4" d="M44.426,81.82C20.616,81.751,41.041,64.994,33.434,56.991C26.973,50.195,7.869,66.451,7.793,46.754C7.71,25.464,22.71,11.689,45.64,11.689C68.571,11.689,85.716,25.464,85.716,46.754C85.716,68.044,67.356,81.886,44.426,81.82ZM29.256,36.963C32.73,36.963,35.547,34.183,35.547,30.753C35.547,27.323,32.73,24.543,29.256,24.543C25.782,24.543,22.965,27.323,22.965,30.753C22.965,34.183,25.782,36.963,29.256,36.963ZM45.82,32.527C49.294,32.527,52.111,29.747,52.111,26.317C52.111,22.887,49.294,20.107,45.82,20.107C42.345,20.107,39.529,22.887,39.529,26.317C39.529,29.747,42.345,32.527,45.82,32.527ZM63.223,36.963C66.697,36.963,69.514,34.183,69.514,30.753C69.514,27.323,66.697,24.543,63.223,24.543C59.749,24.543,56.932,27.323,56.932,30.753C56.932,34.183,59.749,36.963,63.223,36.963ZM63.223,67.827C66.697,67.827,69.514,65.046,69.514,61.616C69.514,58.186,66.697,55.406,63.223,55.406C59.749,55.406,56.932,58.186,56.932,61.616C56.932,65.046,59.749,67.827,63.223,67.827ZM72.905,52.395C76.379,52.395,79.196,49.615,79.196,46.185C79.196,42.755,76.379,39.974,72.905,39.974C69.431,39.974,66.614,42.755,66.614,46.185C66.614,49.615,69.431,52.395,72.905,52.395ZM21.016,51.691C24.49,51.691,27.307,48.911,27.307,45.481C27.307,42.051,24.49,39.27,21.016,39.27C17.542,39.27,14.725,42.051,14.725,45.481C14.725,48.911,17.542,51.691,21.016,51.691ZM45.82,72.984C49.294,72.984,52.111,70.204,52.111,66.773C52.111,63.344,49.294,60.563,45.82,60.563C42.345,60.563,39.529,63.344,39.529,66.773C39.529,70.204,42.345,72.984,45.82,72.984ZM45.82,72.984"/>
</g>
  <g id="Light-S" transform="matrix(1.0,0.0,0.0,1.0,1107.6656360897775,614.3896905323093)">  <path stroke-width="1px" stroke-opacity="1" stroke-linejoin="miter" stroke-linecap="butt" mask="url(#mask0)" fill-rule="nonzero" stroke-dasharray="none" stroke="none" stroke-miterlimit="4" fill-opacity="1" fill="#000000" d="M44.426,81.82C20.616,81.751,41.041,64.994,33.434,56.991C26.973,50.195,7.869,66.451,7.793,46.754C7.71,25.464,22.71,11.689,45.64,11.689C68.571,11.689,85.716,25.464,85.716,46.754C85.716,68.044,67.356,81.886,44.426,81.82ZM29.256,36.963C32.73,36.963,35.547,34.183,35.547,30.753C35.547,27.323,32.73,24.543,29.256,24.543C25.782,24.543,22.965,27.323,22.965,30.753C22.965,34.183,25.782,36.963,29.256,36.963ZM45.82,32.527C49.294,32.527,52.111,29.747,52.111,26.317C52.111,22.887,49.294,20.107,45.82,20.107C42.345,20.107,39.529,22.887,39.529,26.317C39.529,29.747,42.345,32.527,45.82,32.527ZM63.223,36.963C66.697,36.963,69.514,34.183,69.514,30.753C69.514,27.323,66.697,24.543,63.223,24.543C59.749,24.543,56.932,27.323,56.932,30.753C56.932,34.183,59.749,36.963,63.223,36.963ZM63.223,67.827C66.697,67.827,69.514,65.046,69.514,61.616C69.514,58.186,66.697,55.406,63.223,55.406C59.749,55.406,56.932,58.186,56.932,61.616C56.932,65.046,59.749,67.827,63.223,67.827ZM72.905,52.395C76.379,52.395,79.196,49.615,79.196,46.185C79.196,42.755,76.379,39.974,72.905,39.974C69.431,39.974,66.614,42.755,66.614,46.185C66.614,49.615,69.431,52.395,72.905,52.395ZM21.016,51.691C24.49,51.691,27.307,48.911,27.307,45.481C27.307,42.051,24.49,39.27,21.016,39.27C17.542,39.27,14.725,42.051,14.725,45.481C14.725,48.911,17.542,51.691,21.016,51.691ZM45.82,72.984C49.294,72.984,52.111,70.204,52.111,66.773C52.111,63.344,49.294,60.563,45.82,60.563C42.345,60.563,39.529,63.344,39.529,66.773C39.529,70.204,42.345,72.984,45.82,72.984ZM45.82,72.984"/>
</g>
  <g id="Thin-S" transform="matrix(1.0,0.0,0.0,1.0,810.9556360897776,614.3896905323093)">  <path fill="#000000" mask="url(#mask0)" stroke-dasharray="none" stroke="none" stroke-miterlimit="4" fill-rule="nonzero" stroke-linejoin="miter" fill-opacity="1" stroke-opacity="1" stroke-width="1px" stroke-linecap="butt" d="M44.426,81.82C20.616,81.751,41.041,64.994,33.434,56.991C26.973,50.195,7.869,66.451,7.793,46.754C7.71,25.464,22.71,11.689,45.64,11.689C68.571,11.689,85.716,25.464,85.716,46.754C85.716,68.044,67.356,81.886,44.426,81.82ZM29.256,36.963C32.73,36.963,35.547,34.183,35.547,30.753C35.547,27.323,32.73,24.543,29.256,24.543C25.782,24.543,22.965,27.323,22.965,30.753C22.965,34.183,25.782,36.963,29.256,36.963ZM45.82,32.527C49.294,32.527,52.111,29.747,52.111,26.317C52.111,22.887,49.294,20.107,45.82,20.107C42.345,20.107,39.529,22.887,39.529,26.317C39.529,29.747,42.345,32.527,45.82,32.527ZM63.223,36.963C66.697,36.963,69.514,34.183,69.514,30.753C69.514,27.323,66.697,24.543,63.223,24.543C59.749,24.543,56.932,27.323,56.932,30.753C56.932,34.183,59.749,36.963,63.223,36.963ZM63.223,67.827C66.697,67.827,69.514,65.046,69.514,61.616C69.514,58.186,66.697,55.406,63.223,55.406C59.749,55.406,56.932,58.186,56.932,61.616C56.932,65.046,59.749,67.827,63.223,67.827ZM72.905,52.395C76.379,52.395,79.196,49.615,79.196,46.185C79.196,42.755,76.379,39.974,72.905,39.974C69.431,39.974,66.614,42.755,66.614,46.185C66.614,49.615,69.431,52.395,72.905,52.395ZM21.016,51.691C24.49,51.691,27.307,48.911,27.307,45.481C27.307,42.051,24.49,39.27,21.016,39.27C17.542,39.27,14.725,42.051,14.725,45.481C14.725,48.911,17.542,51.691,21.016,51.691ZM45.82,72.984C49.294,72.984,52.111,70.204,52.111,66.773C52.111,63.344,49.294,60.563,45.82,60.563C42.345,60.563,39.529,63.344,39.529,66.773C39.529,70.204,42.345,72.984,45.82,72.984ZM45.82,72.984"/>
</g>
  <g id="Ultralight-S" transform="matrix(1.0,0.0,0.0,1.0,514.2456360897776,614.3896905323093)">  <path stroke-miterlimit="4" stroke-linejoin="miter" stroke-width="1px" stroke-linecap="butt" fill-opacity="1" mask="url(#mask0)" fill="#000000" stroke="none" fill-rule="nonzero" stroke-dasharray="none" stroke-opacity="1" d="M44.426,81.82C20.616,81.751,41.041,64.994,33.434,56.991C26.973,50.195,7.869,66.451,7.793,46.754C7.71,25.464,22.71,11.689,45.64,11.689C68.571,11.689,85.716,25.464,85.716,46.754C85.716,68.044,67.356,81.886,44.426,81.82ZM29.256,36.963C32.73,36.963,35.547,34.183,35.547,30.753C35.547,27.323,32.73,24.543,29.256,24.543C25.782,24.543,22.965,27.323,22.965,30.753C22.965,34.183,25.782,36.963,29.256,36.963ZM45.82,32.527C49.294,32.527,52.111,29.747,52.111,26.317C52.111,22.887,49.294,20.107,45.82,20.107C42.345,20.107,39.529,22.887,39.529,26.317C39.529,29.747,42.345,32.527,45.82,32.527ZM63.223,36.963C66.697,36.963,69.514,34.183,69.514,30.753C69.514,27.323,66.697,24.543,63.223,24.543C59.749,24.543,56.932,27.323,56.932,30.753C56.932,34.183,59.749,36.963,63.223,36.963ZM63.223,67.827C66.697,67.827,69.514,65.046,69.514,61.616C69.514,58.186,66.697,55.406,63.223,55.406C59.749,55.406,56.932,58.186,56.932,61.616C56.932,65.046,59.749,67.827,63.223,67.827ZM72.905,52.395C76.379,52.395,79.196,49.615,79.196,46.185C79.196,42.755,76.379,39.974,72.905,39.974C69.431,39.974,66.614,42.755,66.614,46.185C66.614,49.615,69.431,52.395,72.905,52.395ZM21.016,51.691C24.49,51.691,27.307,48.911,27.307,45.481C27.307,42.051,24.49,39.27,21.016,39.27C17.542,39.27,14.725,42.051,14.725,45.481C14.725,48.911,17.542,51.691,21.016,51.691ZM45.82,72.984C49.294,72.984,52.111,70.204,52.111,66.773C52.111,63.344,49.294,60.563,45.82,60.563C42.345,60.563,39.529,63.344,39.529,66.773C39.529,70.204,42.345,72.984,45.82,72.984ZM45.82,72.984"/>
</g>
 </g>
</svg>
