<?xml version="1.0" encoding="UTF-8"?>
<!-- Generator: CustomSymbols v2.6.1.40 by @serious_bret https://bretlester.com/app_content/CustomSymbols/ -->
<!-- Guides: Left/Right 0.082/0.084 Cap/Base 0.186/0.186 -->
<!-- Settings: RefScale 1.0 Min/Max Stroke Scales 0.5/2.21 -->
<!DOCTYPE svg
PUBLIC "-//W3C//DTD SVG 1.1//EN"
       "http://www.w3.org/Graphics/SVG/1.1/DTD/svg11.dtd">
<svg version="1.1" xmlns="http://www.w3.org/2000/svg" xmlns:xlink="http://www.w3.org/1999/xlink" width="3300" height="2200">
<![CDATA[<svg width="24" height="24" viewBox="0 0 24 24" fill="none" xmlns="http://www.w3.org/2000/svg">
<path fill-rule="evenodd" clip-rule="evenodd" d="M12.3194 2C14.7957 2.34544 17.039 3.46499 18.812 5.23797C20.4934 6.92354 21.5963 9.04612 22 11.3851L20.4643 11.6473C20.1188 9.62879 19.1657 7.79338 17.7132 6.34088C16.1816 4.81345 14.2422 3.84373 12.103 3.54407L12.3194 2ZM17.2055 15.2307C16.5521 14.5856 15.7363 14.5856 15.0871 15.2307C14.5918 15.7218 14.0965 16.2129 13.6096 16.7124C13.4764 16.8497 13.364 16.8788 13.2017 16.7873C13.0747 16.718 12.9445 16.654 12.8143 16.59C12.616 16.4925 12.4179 16.3951 12.232 16.2795C10.7961 15.3764 9.59334 14.2152 8.52789 12.9084C7.99932 12.2591 7.52903 11.5641 7.20024 10.7816C7.13365 10.6235 7.14613 10.5194 7.27515 10.3904C7.69936 9.98047 8.1144 9.56137 8.53074 9.14095L8.5308 9.1409L8.74015 8.92958C9.41854 8.24703 9.41854 7.44794 8.73598 6.76123C8.54249 6.56566 8.349 6.37217 8.15551 6.17868L8.15538 6.17854C7.96186 5.98502 7.76833 5.7915 7.57481 5.59589C7.44166 5.46274 7.30898 5.32913 7.17629 5.19552L7.17619 5.19542C6.91075 4.92813 6.64532 4.66085 6.37618 4.39726C5.72276 3.76049 4.90702 3.76049 4.25777 4.40142C4.05794 4.59792 3.86145 4.79641 3.66509 4.99476L3.66508 4.99478C3.37067 5.29218 3.07656 5.58929 2.77196 5.8789C2.30167 6.32423 2.06444 6.86944 2.01449 7.50621C1.93542 8.54253 2.18929 9.52058 2.54722 10.4737C3.27972 12.4464 4.39511 14.1986 5.74773 15.8051C7.57481 17.9776 9.75565 19.6965 12.3069 20.9367C13.4556 21.4944 14.6459 21.9231 15.9403 21.9938C16.8309 22.0438 17.605 21.819 18.2251 21.124C18.5041 20.8122 18.8065 20.5183 19.1086 20.2247L19.1087 20.2247C19.2662 20.0716 19.4237 19.9185 19.5778 19.763C20.2437 19.0888 20.2478 18.2731 19.5861 17.6072C18.7953 16.8122 18.0004 16.0215 17.2055 15.2307ZM16.4106 11.9137L17.9463 11.6515C17.7049 10.2406 17.039 8.96288 16.0277 7.94737C14.958 6.87776 13.6054 6.20353 12.1155 5.99544L11.899 7.53951C13.0519 7.70182 14.1007 8.22206 14.9289 9.05028C15.7113 9.83272 16.2233 10.8233 16.4106 11.9137Z" fill="black"/>
</svg>
]]>
 <g id="Notes">
  <rect height="2200" id="artboard" style="fill:white;opacity:1" width="3300" x="0" y="0"/>
  <line id="" style="fill:none;stroke:black;opacity:1;stroke-width:0.5;" x1="263" x2="3036" y1="292" y2="292"/>
  <text id="reftext1" style="stroke:none;fill:black;font-family:-apple-system,&quot;SF Pro Display&quot;,&quot;SF Pro Text&quot;,Helvetica,sans-serif;font-weight:bold;" transform="matrix(1 0 0 1 263 322)">Weight/Scale Variations</text>
  <text id="reftext2" style="stroke:none;fill:black;font-family:-apple-system,&quot;SF Pro Display&quot;,&quot;SF Pro Text&quot;,Helvetica,sans-serif;text-anchor:middle;" transform="matrix(1 0 0 1 559.711 322)">Ultralight</text>
  <text style="stroke:none;fill:black;font-family:-apple-system,&quot;SF Pro Display&quot;,&quot;SF Pro Text&quot;,Helvetica,sans-serif;text-anchor:middle;" transform="matrix(1 0 0 1 856.422 322)">Thin</text>
  <text style="stroke:none;fill:black;font-family:-apple-system,&quot;SF Pro Display&quot;,&quot;SF Pro Text&quot;,Helvetica,sans-serif;text-anchor:middle;" transform="matrix(1 0 0 1 1153.13 322)">Light</text>
  <text style="stroke:none;fill:black;font-family:-apple-system,&quot;SF Pro Display&quot;,&quot;SF Pro Text&quot;,Helvetica,sans-serif;text-anchor:middle;" transform="matrix(1 0 0 1 1449.84 322)">Regular</text>
  <text style="stroke:none;fill:black;font-family:-apple-system,&quot;SF Pro Display&quot;,&quot;SF Pro Text&quot;,Helvetica,sans-serif;text-anchor:middle;" transform="matrix(1 0 0 1 1746.56 322)">Medium</text>
  <text style="stroke:none;fill:black;font-family:-apple-system,&quot;SF Pro Display&quot;,&quot;SF Pro Text&quot;,Helvetica,sans-serif;text-anchor:middle;" transform="matrix(1 0 0 1 2043.27 322)">Semibold</text>
  <text style="stroke:none;fill:black;font-family:-apple-system,&quot;SF Pro Display&quot;,&quot;SF Pro Text&quot;,Helvetica,sans-serif;text-anchor:middle;" transform="matrix(1 0 0 1 2339.98 322)">Bold</text>
  <text style="stroke:none;fill:black;font-family:-apple-system,&quot;SF Pro Display&quot;,&quot;SF Pro Text&quot;,Helvetica,sans-serif;text-anchor:middle;" transform="matrix(1 0 0 1 2636.69 322)">Heavy</text>
  <text style="stroke:none;fill:black;font-family:-apple-system,&quot;SF Pro Display&quot;,&quot;SF Pro Text&quot;,Helvetica,sans-serif;text-anchor:middle;" transform="matrix(1 0 0 1 2933.4 322)">Black</text>
  <line id="" style="fill:none;stroke:black;opacity:1;stroke-width:0.5;" x1="263" x2="3036" y1="1903" y2="1903"/>
  <g id="" transform="matrix(1 0 0 1 263 1933)">
   <path d="M9.24805 0.830078C13.5547 0.830078 17.1387-2.74414 17.1387-7.05078C17.1387-11.3574 13.5449-14.9316 9.23828-14.9316C4.94141-14.9316 1.36719-11.3574 1.36719-7.05078C1.36719-2.74414 4.95117 0.830078 9.24805 0.830078ZM9.24805-0.654297C5.70312-0.654297 2.87109-3.49609 2.87109-7.05078C2.87109-10.6055 5.69336-13.4473 9.23828-13.4473C12.793-13.4473 15.6348-10.6055 15.6445-7.05078C15.6543-3.49609 12.8027-0.654297 9.24805-0.654297ZM6.39648-6.31836L8.50586-6.31836L8.50586-4.19922C8.50586-3.75977 8.79883-3.45703 9.22852-3.45703C9.67773-3.45703 9.9707-3.75977 9.9707-4.19922L9.9707-6.31836L12.0996-6.31836C12.5391-6.31836 12.8418-6.61133 12.8418-7.04102C12.8418-7.48047 12.5391-7.7832 12.0996-7.7832L9.9707-7.7832L9.9707-9.89258C9.9707-10.3418 9.67773-10.6445 9.22852-10.6445C8.79883-10.6445 8.50586-10.3418 8.50586-9.89258L8.50586-7.7832L6.39648-7.7832C5.94727-7.7832 5.64453-7.48047 5.64453-7.04102C5.64453-6.61133 5.94727-6.31836 6.39648-6.31836Z"/>
  </g>
  <g id="" transform="matrix(1 0 0 1 281.506 1933)">
   <path d="M11.709 2.91016C17.1582 2.91016 21.6699-1.61133 21.6699-7.05078C21.6699-12.5 17.1484-17.0117 11.6992-17.0117C6.25977-17.0117 1.74805-12.5 1.74805-7.05078C1.74805-1.61133 6.26953 2.91016 11.709 2.91016ZM11.709 1.25C7.09961 1.25 3.41797-2.44141 3.41797-7.05078C3.41797-11.6602 7.08984-15.3516 11.6992-15.3516C16.3086-15.3516 20-11.6602 20.0098-7.05078C20.0195-2.44141 16.3184 1.25 11.709 1.25ZM7.98828-6.23047L10.8789-6.23047L10.8789-3.32031C10.8789-2.83203 11.2109-2.5 11.6895-2.5C12.1777-2.5 12.5195-2.83203 12.5195-3.32031L12.5195-6.23047L15.4297-6.23047C15.918-6.23047 16.25-6.5625 16.25-7.04102C16.25-7.5293 15.918-7.87109 15.4297-7.87109L12.5195-7.87109L12.5195-10.7617C12.5195-11.2695 12.1777-11.6016 11.6895-11.6016C11.2109-11.6016 10.8789-11.2598 10.8789-10.7617L10.8789-7.87109L7.98828-7.87109C7.48047-7.87109 7.14844-7.5293 7.14844-7.04102C7.14844-6.5625 7.49023-6.23047 7.98828-6.23047Z"/>
  </g>
  <g id="" transform="matrix(1 0 0 1 304.924 1933)">
   <path d="M14.9707 5.66406C21.9336 5.66406 27.6953-0.0976562 27.6953-7.05078C27.6953-14.0137 21.9238-19.7754 14.9609-19.7754C8.00781-19.7754 2.25586-14.0137 2.25586-7.05078C2.25586-0.0976562 8.01758 5.66406 14.9707 5.66406ZM14.9707 3.84766C8.93555 3.84766 4.08203-1.01562 4.08203-7.05078C4.08203-13.0957 8.92578-17.9492 14.9609-17.9492C21.0059-17.9492 25.8594-13.0957 25.8691-7.05078C25.8789-1.01562 21.0156 3.84766 14.9707 3.84766ZM10.0586-6.14258L14.0625-6.14258L14.0625-2.12891C14.0625-1.5918 14.4336-1.2207 14.9512-1.2207C15.4883-1.2207 15.8594-1.5918 15.8594-2.12891L15.8594-6.14258L19.8828-6.14258C20.4102-6.14258 20.791-6.51367 20.791-7.03125C20.791-7.56836 20.4199-7.94922 19.8828-7.94922L15.8594-7.94922L15.8594-11.9531C15.8594-12.5098 15.4883-12.8809 14.9512-12.8809C14.4336-12.8809 14.0625-12.5 14.0625-11.9531L14.0625-7.94922L10.0586-7.94922C9.50195-7.94922 9.13086-7.56836 9.13086-7.03125C9.13086-6.51367 9.51172-6.14258 10.0586-6.14258Z"/>
  </g>
  <text style="stroke:none;fill:black;font-family:-apple-system,&quot;SF Pro Display&quot;,&quot;SF Pro Text&quot;,Helvetica,sans-serif;font-weight:bold;" transform="matrix(1 0 0 1 263 1953)">Design Variations</text>
  <text style="stroke:none;fill:black;font-family:-apple-system,&quot;SF Pro Display&quot;,&quot;SF Pro Text&quot;,Helvetica,sans-serif;" transform="matrix(1 0 0 1 263 1971)">Symbols are supported in up to nine weights and three scales.</text>
  <text style="stroke:none;fill:black;font-family:-apple-system,&quot;SF Pro Display&quot;,&quot;SF Pro Text&quot;,Helvetica,sans-serif;" transform="matrix(1 0 0 1 263 1989)">For optimal layout with text and other symbols, vertically align</text>
  <text style="stroke:none;fill:black;font-family:-apple-system,&quot;SF Pro Display&quot;,&quot;SF Pro Text&quot;,Helvetica,sans-serif;" transform="matrix(1 0 0 1 263 2007)">symbols with the adjacent text.</text>
  <line id="" style="fill:none;stroke:#00AEEF;stroke-width:0.5;opacity:1.0;" x1="776" x2="776" y1="1919" y2="1933"/>
  <g id="" transform="matrix(1 0 0 1 776 1933)">
   <path d="M3.31055 0.126953C3.82812 0.126953 4.08203-0.0683594 4.26758-0.605469L5.52734-4.0625L11.2891-4.0625L12.5488-0.605469C12.7344-0.0683594 12.9883 0.126953 13.4961 0.126953C14.0137 0.126953 14.3457-0.185547 14.3457-0.673828C14.3457-0.839844 14.3164-0.986328 14.2383-1.20117L9.6582-13.3887C9.43359-13.9941 9.0332-14.2871 8.4082-14.2871C7.80273-14.2871 7.39258-13.9941 7.17773-13.3984L2.59766-1.19141C2.51953-0.976562 2.49023-0.830078 2.49023-0.664062C2.49023-0.175781 2.80273 0.126953 3.31055 0.126953ZM6.00586-5.53711L8.37891-12.1094L8.42773-12.1094L10.8008-5.53711Z"/>
  </g>
  <line id="" style="fill:none;stroke:#00AEEF;stroke-width:0.5;opacity:1.0;" x1="792.836" x2="792.836" y1="1919" y2="1933"/>
  <text style="stroke:none;fill:black;font-family:-apple-system,&quot;SF Pro Display&quot;,&quot;SF Pro Text&quot;,Helvetica,sans-serif;font-weight:bold;" transform="matrix(1 0 0 1 776 1953)">Margins</text>
  <text style="stroke:none;fill:black;font-family:-apple-system,&quot;SF Pro Display&quot;,&quot;SF Pro Text&quot;,Helvetica,sans-serif;" transform="matrix(1 0 0 1 776 1971)">Leading and trailing margins on the left and right side of each symbol</text>
  <text style="stroke:none;fill:black;font-family:-apple-system,&quot;SF Pro Display&quot;,&quot;SF Pro Text&quot;,Helvetica,sans-serif;" transform="matrix(1 0 0 1 776 1989)">can be adjusted by modifying the x-location of the margin guidelines.</text>
  <text style="stroke:none;fill:black;font-family:-apple-system,&quot;SF Pro Display&quot;,&quot;SF Pro Text&quot;,Helvetica,sans-serif;" transform="matrix(1 0 0 1 776 2007)">Modifications are automatically applied proportionally to all</text>
  <text style="stroke:none;fill:black;font-family:-apple-system,&quot;SF Pro Display&quot;,&quot;SF Pro Text&quot;,Helvetica,sans-serif;" transform="matrix(1 0 0 1 776 2025)">scales and weights.</text>
  <g id="" transform="matrix(1 0 0 1 1289 1933)">
   <path d="M2.8418 1.86523L4.54102 3.57422C5.40039 4.44336 6.38672 4.38477 7.31445 3.35938L17.4902-7.85156C17.7539-7.76367 18.0273-7.7832 18.3398-7.8418L19.4043-8.03711L20.0684-7.36328L20.0293-6.80664C19.9902-6.30859 20.1172-5.92773 20.6055-5.44922L21.3672-4.70703C21.8457-4.22852 22.4609-4.19922 22.9297-4.66797L25.8398-7.58789C26.3086-8.05664 26.2891-8.65234 25.8105-9.13086L25.0391-9.89258C24.5605-10.3711 24.1895-10.5273 23.7109-10.4883L23.1348-10.4395L22.4902-11.0742L22.7344-12.1973C22.8613-12.7637 22.7051-13.2031 22.1191-13.7891L19.9219-15.9766C16.582-19.2969 12.1484-19.2188 9.25781-16.3281C8.83789-15.918 8.80859-15.3418 9.04297-14.9512C9.27734-14.5898 9.73633-14.3555 10.3809-14.5215C11.8457-14.8633 13.3691-14.9219 14.7949-13.9844L14.209-12.5293C14.0137-12.0508 13.9844-11.6504 14.1113-11.2891L3.04688-0.898438C2.06055 0.0195312 1.98242 0.996094 2.8418 1.86523ZM10.752-15.957C13.1836-17.7344 16.4746-17.4316 18.7012-15.2051L21.1328-12.793C21.3672-12.5586 21.4062-12.373 21.3379-12.0312L21.0156-10.5469L22.5195-9.0625L23.5059-9.12109C23.7598-9.13086 23.8379-9.11133 24.0332-8.91602L24.6094-8.33984L22.168-5.89844L21.5918-6.47461C21.3965-6.66992 21.3672-6.74805 21.377-7.01172L21.4453-7.98828L19.9512-9.47266L18.4277-9.21875C18.1055-9.15039 17.959-9.17969 17.7148-9.41406L15.7129-11.416C15.459-11.6504 15.4297-11.8164 15.5859-12.1875L16.4648-14.2773C14.9023-15.7324 12.8711-16.3574 10.8398-15.7617C10.6836-15.7227 10.625-15.8496 10.752-15.957ZM5.27344 2.30469L4.10156 1.14258C3.63281 0.683594 3.74023 0.341797 4.14062-0.0195312L14.9512-10.1953L16.416-8.71094L6.42578 2.27539C6.07422 2.67578 5.74219 2.77344 5.27344 2.30469Z"/>
  </g>
  <text style="stroke:none;fill:black;font-family:-apple-system,&quot;SF Pro Display&quot;,&quot;SF Pro Text&quot;,Helvetica,sans-serif;font-weight:bold;" transform="matrix(1 0 0 1 1289 1953)">Exporting</text>
  <text style="stroke:none;fill:black;font-family:-apple-system,&quot;SF Pro Display&quot;,&quot;SF Pro Text&quot;,Helvetica,sans-serif;" transform="matrix(1 0 0 1 1289 1971)">Symbols should be outlined when exporting to ensure the</text>
  <text style="stroke:none;fill:black;font-family:-apple-system,&quot;SF Pro Display&quot;,&quot;SF Pro Text&quot;,Helvetica,sans-serif;" transform="matrix(1 0 0 1 1289 1989)">design is preserved when submitting to Xcode.</text>
  <text id="template-version" style="stroke:none;fill:black;font-family:-apple-system,&quot;SF Pro Display&quot;,&quot;SF Pro Text&quot;,Helvetica,sans-serif;text-anchor:end;" transform="matrix(1 0 0 1 3036 1933)">Template v.2.0</text>
  <text style="stroke:none;fill:black;font-family:-apple-system,&quot;SF Pro Display&quot;,&quot;SF Pro Text&quot;,Helvetica,sans-serif;text-anchor:end;" transform="matrix(1 0 0 1 3036 1951)">Requires Xcode 12 or greater</text>
  <text style="stroke:none;fill:black;font-family:-apple-system,&quot;SF Pro Display&quot;,&quot;SF Pro Text&quot;,Helvetica,sans-serif;" transform="matrix(1 0 0 1 263 726)">Small</text>
  <text style="stroke:none;fill:black;font-family:-apple-system,&quot;SF Pro Display&quot;,&quot;SF Pro Text&quot;,Helvetica,sans-serif;" transform="matrix(1 0 0 1 263 1156)">Medium</text>
  <text style="stroke:none;fill:black;font-family:-apple-system,&quot;SF Pro Display&quot;,&quot;SF Pro Text&quot;,Helvetica,sans-serif;" transform="matrix(1 0 0 1 263 1586)">Large</text>
 </g>
 <g id="Guides">
  <g id="H-reference" style="fill:#27AAE1;stroke:none;" transform="matrix(1 0 0 1 339 696)">
   <path d="M0.976562 0L3.66211 0L12.9883-24.4629L45.752-24.4629L55.127 0L57.7637 0L30.6152-70.459L28.125-70.459ZM29.3457-67.1387L29.4434-67.1387L44.873-26.709L13.8672-26.709Z"/>
  </g>
  <line id="Baseline-S" style="fill:none;stroke:#27AAE1;opacity:1;stroke-width:0.5;" x1="263" x2="3036" y1="696" y2="696"/>
  <line id="Capline-S" style="fill:none;stroke:#27AAE1;opacity:1;stroke-width:0.5;" x1="263" x2="3036" y1="625.541" y2="625.541"/>
  <g id="H-reference" style="fill:#27AAE1;stroke:none;" transform="matrix(1 0 0 1 339 1126)">
   <path d="M0.976562 0L3.66211 0L12.9883-24.4629L45.752-24.4629L55.127 0L57.7637 0L30.6152-70.459L28.125-70.459ZM29.3457-67.1387L29.4434-67.1387L44.873-26.709L13.8672-26.709Z"/>
  </g>
  <line id="Baseline-M" style="fill:none;stroke:#27AAE1;opacity:1;stroke-width:0.5;" x1="263" x2="3036" y1="1126" y2="1126"/>
  <line id="Capline-M" style="fill:none;stroke:#27AAE1;opacity:1;stroke-width:0.5;" x1="263" x2="3036" y1="1055.54" y2="1055.54"/>
  <g id="H-reference" style="fill:#27AAE1;stroke:none;" transform="matrix(1 0 0 1 339 1556)">
   <path d="M0.976562 0L3.66211 0L12.9883-24.4629L45.752-24.4629L55.127 0L57.7637 0L30.6152-70.459L28.125-70.459ZM29.3457-67.1387L29.4434-67.1387L44.873-26.709L13.8672-26.709Z"/>
  </g>
  <line id="Baseline-L" style="fill:none;stroke:#27AAE1;opacity:1;stroke-width:0.5;" x1="263" x2="3036" y1="1556" y2="1556"/>
  <line id="Capline-L" style="fill:none;stroke:#27AAE1;opacity:1;stroke-width:0.5;" x1="263" x2="3036" y1="1485.54" y2="1485.54"/>
  <line id="left-margin" x1="1404.2314909683519" x2="1404.2314909683519" y1="1030.79" y2="1150.12" style="fill:none;stroke:#00AEEF;stroke-width:0.5;opacity:1.0;"/>
  <line id="right-margin" x1="1497.8041142515922" x2="1497.8041142515922" y1="1030.79" y2="1150.12" style="fill:none;stroke:#00AEEF;stroke-width:0.5;opacity:1.0;"/>
 </g>
 <g id="Symbols">
  <g id="Black-L" transform="matrix(1.0,0.0,0.0,1.0,2862.312683432026,1448.4027029632762)">  <path stroke-opacity="1" stroke-dasharray="none" fill-rule="evenodd" stroke-width="1px" stroke-linejoin="miter" clip-rule="evenodd" stroke-miterlimit="4" fill="#000000" stroke-linecap="butt" fill-opacity="1" stroke="none" d="M74.293,12.061C89.227,14.144,102.756,20.896,113.448,31.588C123.588,41.753,130.239,54.554,132.673,68.659L123.412,70.24C121.329,58.067,115.581,46.999,106.821,38.239C97.585,29.028,85.889,23.18,72.988,21.373L74.293,12.061ZM103.76,91.85C99.819,87.96,94.899,87.96,90.984,91.85C87.997,94.812,85.01,97.774,82.074,100.786C81.271,101.614,80.593,101.789,79.614,101.238C78.848,100.82,78.063,100.434,77.278,100.048C76.082,99.46,74.888,98.872,73.766,98.175C65.107,92.729,57.854,85.726,51.428,77.846C48.241,73.93,45.405,69.739,43.422,65.02C43.02,64.066,43.096,63.438,43.874,62.66C46.432,60.188,48.935,57.661,51.446,55.126L51.446,55.125L52.708,53.851C56.8,49.735,56.8,44.916,52.683,40.774C51.516,39.595,50.35,38.428,49.183,37.261L49.182,37.26C48.015,36.093,46.848,34.926,45.681,33.747C44.878,32.944,44.078,32.138,43.277,31.332L43.277,31.332C41.676,29.72,40.075,28.108,38.452,26.518C34.512,22.678,29.592,22.678,25.677,26.543C24.472,27.728,23.287,28.925,22.103,30.121L22.103,30.122C20.327,31.915,18.554,33.707,16.717,35.453C13.88,38.139,12.45,41.427,12.149,45.267C11.672,51.517,13.203,57.415,15.361,63.163C19.779,75.059,26.505,85.626,34.662,95.314C45.681,108.416,58.833,118.782,74.218,126.261C81.145,129.624,88.324,132.21,96.13,132.636C101.501,132.938,106.169,131.582,109.908,127.391C111.591,125.51,113.415,123.738,115.237,121.967L115.237,121.967C116.187,121.044,117.137,120.121,118.066,119.183C122.082,115.117,122.107,110.198,118.116,106.182C113.347,101.388,108.553,96.619,103.76,91.85ZM98.966,71.847L108.227,70.266C106.771,61.757,102.756,54.052,96.657,47.927C90.206,41.477,82.049,37.411,73.064,36.156L71.758,45.468C78.711,46.447,85.036,49.584,90.03,54.579C94.749,59.297,97.836,65.271,98.966,71.847ZM98.966,71.847"/>
</g>
  <g id="Heavy-L" transform="matrix(1.0,0.0,0.0,1.0,2565.602683432026,1448.4027029632762)">  <path stroke-dasharray="none" fill="#000000" fill-opacity="1" stroke-width="1px" stroke-miterlimit="4" stroke-opacity="1" fill-rule="evenodd" stroke="none" clip-rule="evenodd" stroke-linejoin="miter" stroke-linecap="butt" d="M74.293,12.061C89.227,14.144,102.756,20.896,113.448,31.588C123.588,41.753,130.239,54.554,132.673,68.659L123.412,70.24C121.329,58.067,115.581,46.999,106.821,38.239C97.585,29.028,85.889,23.18,72.988,21.373L74.293,12.061ZM103.76,91.85C99.819,87.96,94.899,87.96,90.984,91.85C87.997,94.812,85.01,97.774,82.074,100.786C81.271,101.614,80.593,101.789,79.614,101.238C78.848,100.82,78.063,100.434,77.278,100.048C76.082,99.46,74.888,98.872,73.766,98.175C65.107,92.729,57.854,85.726,51.428,77.846C48.241,73.93,45.405,69.739,43.422,65.02C43.02,64.066,43.096,63.438,43.874,62.66C46.432,60.188,48.935,57.661,51.446,55.126L51.446,55.125L52.708,53.851C56.8,49.735,56.8,44.916,52.683,40.774C51.516,39.595,50.35,38.428,49.183,37.261L49.182,37.26C48.015,36.093,46.848,34.926,45.681,33.747C44.878,32.944,44.078,32.138,43.277,31.332L43.277,31.332C41.676,29.72,40.075,28.108,38.452,26.518C34.512,22.678,29.592,22.678,25.677,26.543C24.472,27.728,23.287,28.925,22.103,30.121L22.103,30.122C20.327,31.915,18.554,33.707,16.717,35.453C13.88,38.139,12.45,41.427,12.149,45.267C11.672,51.517,13.203,57.415,15.361,63.163C19.779,75.059,26.505,85.626,34.662,95.314C45.681,108.416,58.833,118.782,74.218,126.261C81.145,129.624,88.324,132.21,96.13,132.636C101.501,132.938,106.169,131.582,109.908,127.391C111.591,125.51,113.415,123.738,115.237,121.967L115.237,121.967C116.187,121.044,117.137,120.121,118.066,119.183C122.082,115.117,122.107,110.198,118.116,106.182C113.347,101.388,108.553,96.619,103.76,91.85ZM98.966,71.847L108.227,70.266C106.771,61.757,102.756,54.052,96.657,47.927C90.206,41.477,82.049,37.411,73.064,36.156L71.758,45.468C78.711,46.447,85.036,49.584,90.03,54.579C94.749,59.297,97.836,65.271,98.966,71.847ZM98.966,71.847"/>
</g>
  <g id="Bold-L" transform="matrix(1.0,0.0,0.0,1.0,2268.892683432026,1448.4027029632762)">  <path clip-rule="evenodd" stroke-linejoin="miter" stroke="none" stroke-dasharray="none" stroke-linecap="butt" fill="#000000" fill-opacity="1" stroke-miterlimit="4" stroke-opacity="1" stroke-width="1px" fill-rule="evenodd" d="M74.293,12.061C89.227,14.144,102.756,20.896,113.448,31.588C123.588,41.753,130.239,54.554,132.673,68.659L123.412,70.24C121.329,58.067,115.581,46.999,106.821,38.239C97.585,29.028,85.889,23.18,72.988,21.373L74.293,12.061ZM103.76,91.85C99.819,87.96,94.899,87.96,90.984,91.85C87.997,94.812,85.01,97.774,82.074,100.786C81.271,101.614,80.593,101.789,79.614,101.238C78.848,100.82,78.063,100.434,77.278,100.048C76.082,99.46,74.888,98.872,73.766,98.175C65.107,92.729,57.854,85.726,51.428,77.846C48.241,73.93,45.405,69.739,43.422,65.02C43.02,64.066,43.096,63.438,43.874,62.66C46.432,60.188,48.935,57.661,51.446,55.126L51.446,55.125L52.708,53.851C56.8,49.735,56.8,44.916,52.683,40.774C51.516,39.595,50.35,38.428,49.183,37.261L49.182,37.26C48.015,36.093,46.848,34.926,45.681,33.747C44.878,32.944,44.078,32.138,43.277,31.332L43.277,31.332C41.676,29.72,40.075,28.108,38.452,26.518C34.512,22.678,29.592,22.678,25.677,26.543C24.472,27.728,23.287,28.925,22.103,30.121L22.103,30.122C20.327,31.915,18.554,33.707,16.717,35.453C13.88,38.139,12.45,41.427,12.149,45.267C11.672,51.517,13.203,57.415,15.361,63.163C19.779,75.059,26.505,85.626,34.662,95.314C45.681,108.416,58.833,118.782,74.218,126.261C81.145,129.624,88.324,132.21,96.13,132.636C101.501,132.938,106.169,131.582,109.908,127.391C111.591,125.51,113.415,123.738,115.237,121.967L115.237,121.967C116.187,121.044,117.137,120.121,118.066,119.183C122.082,115.117,122.107,110.198,118.116,106.182C113.347,101.388,108.553,96.619,103.76,91.85ZM98.966,71.847L108.227,70.266C106.771,61.757,102.756,54.052,96.657,47.927C90.206,41.477,82.049,37.411,73.064,36.156L71.758,45.468C78.711,46.447,85.036,49.584,90.03,54.579C94.749,59.297,97.836,65.271,98.966,71.847ZM98.966,71.847"/>
</g>
  <g id="Semibold-L" transform="matrix(1.0,0.0,0.0,1.0,1972.1826834320261,1448.4027029632762)">  <path fill="#000000" stroke="none" stroke-linecap="butt" fill-rule="evenodd" stroke-linejoin="miter" clip-rule="evenodd" fill-opacity="1" stroke-dasharray="none" stroke-miterlimit="4" stroke-width="1px" stroke-opacity="1" d="M74.293,12.061C89.227,14.144,102.756,20.896,113.448,31.588C123.588,41.753,130.239,54.554,132.673,68.659L123.412,70.24C121.329,58.067,115.581,46.999,106.821,38.239C97.585,29.028,85.889,23.18,72.988,21.373L74.293,12.061ZM103.76,91.85C99.819,87.96,94.899,87.96,90.984,91.85C87.997,94.812,85.01,97.774,82.074,100.786C81.271,101.614,80.593,101.789,79.614,101.238C78.848,100.82,78.063,100.434,77.278,100.048C76.082,99.46,74.888,98.872,73.766,98.175C65.107,92.729,57.854,85.726,51.428,77.846C48.241,73.93,45.405,69.739,43.422,65.02C43.02,64.066,43.096,63.438,43.874,62.66C46.432,60.188,48.935,57.661,51.446,55.126L51.446,55.125L52.708,53.851C56.8,49.735,56.8,44.916,52.683,40.774C51.516,39.595,50.35,38.428,49.183,37.261L49.182,37.26C48.015,36.093,46.848,34.926,45.681,33.747C44.878,32.944,44.078,32.138,43.277,31.332L43.277,31.332C41.676,29.72,40.075,28.108,38.452,26.518C34.512,22.678,29.592,22.678,25.677,26.543C24.472,27.728,23.287,28.925,22.103,30.121L22.103,30.122C20.327,31.915,18.554,33.707,16.717,35.453C13.88,38.139,12.45,41.427,12.149,45.267C11.672,51.517,13.203,57.415,15.361,63.163C19.779,75.059,26.505,85.626,34.662,95.314C45.681,108.416,58.833,118.782,74.218,126.261C81.145,129.624,88.324,132.21,96.13,132.636C101.501,132.938,106.169,131.582,109.908,127.391C111.591,125.51,113.415,123.738,115.237,121.967L115.237,121.967C116.187,121.044,117.137,120.121,118.066,119.183C122.082,115.117,122.107,110.198,118.116,106.182C113.347,101.388,108.553,96.619,103.76,91.85ZM98.966,71.847L108.227,70.266C106.771,61.757,102.756,54.052,96.657,47.927C90.206,41.477,82.049,37.411,73.064,36.156L71.758,45.468C78.711,46.447,85.036,49.584,90.03,54.579C94.749,59.297,97.836,65.271,98.966,71.847ZM98.966,71.847"/>
</g>
  <g id="Medium-L" transform="matrix(1.0,0.0,0.0,1.0,1675.472683432026,1448.4027029632762)">  <path clip-rule="evenodd" stroke-dasharray="none" fill-rule="evenodd" stroke-linecap="butt" stroke-width="1px" fill="#000000" stroke-miterlimit="4" fill-opacity="1" stroke="none" stroke-linejoin="miter" stroke-opacity="1" d="M74.293,12.061C89.227,14.144,102.756,20.896,113.448,31.588C123.588,41.753,130.239,54.554,132.673,68.659L123.412,70.24C121.329,58.067,115.581,46.999,106.821,38.239C97.585,29.028,85.889,23.18,72.988,21.373L74.293,12.061ZM103.76,91.85C99.819,87.96,94.899,87.96,90.984,91.85C87.997,94.812,85.01,97.774,82.074,100.786C81.271,101.614,80.593,101.789,79.614,101.238C78.848,100.82,78.063,100.434,77.278,100.048C76.082,99.46,74.888,98.872,73.766,98.175C65.107,92.729,57.854,85.726,51.428,77.846C48.241,73.93,45.405,69.739,43.422,65.02C43.02,64.066,43.096,63.438,43.874,62.66C46.432,60.188,48.935,57.661,51.446,55.126L51.446,55.125L52.708,53.851C56.8,49.735,56.8,44.916,52.683,40.774C51.516,39.595,50.35,38.428,49.183,37.261L49.182,37.26C48.015,36.093,46.848,34.926,45.681,33.747C44.878,32.944,44.078,32.138,43.277,31.332L43.277,31.332C41.676,29.72,40.075,28.108,38.452,26.518C34.512,22.678,29.592,22.678,25.677,26.543C24.472,27.728,23.287,28.925,22.103,30.121L22.103,30.122C20.327,31.915,18.554,33.707,16.717,35.453C13.88,38.139,12.45,41.427,12.149,45.267C11.672,51.517,13.203,57.415,15.361,63.163C19.779,75.059,26.505,85.626,34.662,95.314C45.681,108.416,58.833,118.782,74.218,126.261C81.145,129.624,88.324,132.21,96.13,132.636C101.501,132.938,106.169,131.582,109.908,127.391C111.591,125.51,113.415,123.738,115.237,121.967L115.237,121.967C116.187,121.044,117.137,120.121,118.066,119.183C122.082,115.117,122.107,110.198,118.116,106.182C113.347,101.388,108.553,96.619,103.76,91.85ZM98.966,71.847L108.227,70.266C106.771,61.757,102.756,54.052,96.657,47.927C90.206,41.477,82.049,37.411,73.064,36.156L71.758,45.468C78.711,46.447,85.036,49.584,90.03,54.579C94.749,59.297,97.836,65.271,98.966,71.847ZM98.966,71.847"/>
</g>
  <g id="Regular-L" transform="matrix(1.0,0.0,0.0,1.0,1378.762683432026,1448.4027029632762)">  <path fill="#000000" clip-rule="evenodd" stroke-linejoin="miter" stroke-dasharray="none" stroke-linecap="butt" stroke="none" fill-opacity="1" fill-rule="evenodd" stroke-width="1px" stroke-miterlimit="4" stroke-opacity="1" d="M74.293,12.061C89.227,14.144,102.756,20.896,113.448,31.588C123.588,41.753,130.239,54.554,132.673,68.659L123.412,70.24C121.329,58.067,115.581,46.999,106.821,38.239C97.585,29.028,85.889,23.18,72.988,21.373L74.293,12.061ZM103.76,91.85C99.819,87.96,94.899,87.96,90.984,91.85C87.997,94.812,85.01,97.774,82.074,100.786C81.271,101.614,80.593,101.789,79.614,101.238C78.848,100.82,78.063,100.434,77.278,100.048C76.082,99.46,74.888,98.872,73.766,98.175C65.107,92.729,57.854,85.726,51.428,77.846C48.241,73.93,45.405,69.739,43.422,65.02C43.02,64.066,43.096,63.438,43.874,62.66C46.432,60.188,48.935,57.661,51.446,55.126L51.446,55.125L52.708,53.851C56.8,49.735,56.8,44.916,52.683,40.774C51.516,39.595,50.35,38.428,49.183,37.261L49.182,37.26C48.015,36.093,46.848,34.926,45.681,33.747C44.878,32.944,44.078,32.138,43.277,31.332L43.277,31.332C41.676,29.72,40.075,28.108,38.452,26.518C34.512,22.678,29.592,22.678,25.677,26.543C24.472,27.728,23.287,28.925,22.103,30.121L22.103,30.122C20.327,31.915,18.554,33.707,16.717,35.453C13.88,38.139,12.45,41.427,12.149,45.267C11.672,51.517,13.203,57.415,15.361,63.163C19.779,75.059,26.505,85.626,34.662,95.314C45.681,108.416,58.833,118.782,74.218,126.261C81.145,129.624,88.324,132.21,96.13,132.636C101.501,132.938,106.169,131.582,109.908,127.391C111.591,125.51,113.415,123.738,115.237,121.967L115.237,121.967C116.187,121.044,117.137,120.121,118.066,119.183C122.082,115.117,122.107,110.198,118.116,106.182C113.347,101.388,108.553,96.619,103.76,91.85ZM98.966,71.847L108.227,70.266C106.771,61.757,102.756,54.052,96.657,47.927C90.206,41.477,82.049,37.411,73.064,36.156L71.758,45.468C78.711,46.447,85.036,49.584,90.03,54.579C94.749,59.297,97.836,65.271,98.966,71.847ZM98.966,71.847"/>
</g>
  <g id="Light-L" transform="matrix(1.0,0.0,0.0,1.0,1082.0526834320262,1448.4027029632762)">  <path stroke="none" fill-opacity="1" stroke-linecap="butt" stroke-width="1px" stroke-miterlimit="4" stroke-linejoin="miter" stroke-opacity="1" clip-rule="evenodd" stroke-dasharray="none" fill-rule="evenodd" fill="#000000" d="M74.293,12.061C89.227,14.144,102.756,20.896,113.448,31.588C123.588,41.753,130.239,54.554,132.673,68.659L123.412,70.24C121.329,58.067,115.581,46.999,106.821,38.239C97.585,29.028,85.889,23.18,72.988,21.373L74.293,12.061ZM103.76,91.85C99.819,87.96,94.899,87.96,90.984,91.85C87.997,94.812,85.01,97.774,82.074,100.786C81.271,101.614,80.593,101.789,79.614,101.238C78.848,100.82,78.063,100.434,77.278,100.048C76.082,99.46,74.888,98.872,73.766,98.175C65.107,92.729,57.854,85.726,51.428,77.846C48.241,73.93,45.405,69.739,43.422,65.02C43.02,64.066,43.096,63.438,43.874,62.66C46.432,60.188,48.935,57.661,51.446,55.126L51.446,55.125L52.708,53.851C56.8,49.735,56.8,44.916,52.683,40.774C51.516,39.595,50.35,38.428,49.183,37.261L49.182,37.26C48.015,36.093,46.848,34.926,45.681,33.747C44.878,32.944,44.078,32.138,43.277,31.332L43.277,31.332C41.676,29.72,40.075,28.108,38.452,26.518C34.512,22.678,29.592,22.678,25.677,26.543C24.472,27.728,23.287,28.925,22.103,30.121L22.103,30.122C20.327,31.915,18.554,33.707,16.717,35.453C13.88,38.139,12.45,41.427,12.149,45.267C11.672,51.517,13.203,57.415,15.361,63.163C19.779,75.059,26.505,85.626,34.662,95.314C45.681,108.416,58.833,118.782,74.218,126.261C81.145,129.624,88.324,132.21,96.13,132.636C101.501,132.938,106.169,131.582,109.908,127.391C111.591,125.51,113.415,123.738,115.237,121.967L115.237,121.967C116.187,121.044,117.137,120.121,118.066,119.183C122.082,115.117,122.107,110.198,118.116,106.182C113.347,101.388,108.553,96.619,103.76,91.85ZM98.966,71.847L108.227,70.266C106.771,61.757,102.756,54.052,96.657,47.927C90.206,41.477,82.049,37.411,73.064,36.156L71.758,45.468C78.711,46.447,85.036,49.584,90.03,54.579C94.749,59.297,97.836,65.271,98.966,71.847ZM98.966,71.847"/>
</g>
  <g id="Thin-L" transform="matrix(1.0,0.0,0.0,1.0,785.3426834320263,1448.4027029632762)">  <path stroke-linecap="butt" stroke="none" fill-opacity="1" stroke-width="1px" stroke-miterlimit="4" clip-rule="evenodd" stroke-opacity="1" stroke-linejoin="miter" fill="#000000" stroke-dasharray="none" fill-rule="evenodd" d="M74.293,12.061C89.227,14.144,102.756,20.896,113.448,31.588C123.588,41.753,130.239,54.554,132.673,68.659L123.412,70.24C121.329,58.067,115.581,46.999,106.821,38.239C97.585,29.028,85.889,23.18,72.988,21.373L74.293,12.061ZM103.76,91.85C99.819,87.96,94.899,87.96,90.984,91.85C87.997,94.812,85.01,97.774,82.074,100.786C81.271,101.614,80.593,101.789,79.614,101.238C78.848,100.82,78.063,100.434,77.278,100.048C76.082,99.46,74.888,98.872,73.766,98.175C65.107,92.729,57.854,85.726,51.428,77.846C48.241,73.93,45.405,69.739,43.422,65.02C43.02,64.066,43.096,63.438,43.874,62.66C46.432,60.188,48.935,57.661,51.446,55.126L51.446,55.125L52.708,53.851C56.8,49.735,56.8,44.916,52.683,40.774C51.516,39.595,50.35,38.428,49.183,37.261L49.182,37.26C48.015,36.093,46.848,34.926,45.681,33.747C44.878,32.944,44.078,32.138,43.277,31.332L43.277,31.332C41.676,29.72,40.075,28.108,38.452,26.518C34.512,22.678,29.592,22.678,25.677,26.543C24.472,27.728,23.287,28.925,22.103,30.121L22.103,30.122C20.327,31.915,18.554,33.707,16.717,35.453C13.88,38.139,12.45,41.427,12.149,45.267C11.672,51.517,13.203,57.415,15.361,63.163C19.779,75.059,26.505,85.626,34.662,95.314C45.681,108.416,58.833,118.782,74.218,126.261C81.145,129.624,88.324,132.21,96.13,132.636C101.501,132.938,106.169,131.582,109.908,127.391C111.591,125.51,113.415,123.738,115.237,121.967L115.237,121.967C116.187,121.044,117.137,120.121,118.066,119.183C122.082,115.117,122.107,110.198,118.116,106.182C113.347,101.388,108.553,96.619,103.76,91.85ZM98.966,71.847L108.227,70.266C106.771,61.757,102.756,54.052,96.657,47.927C90.206,41.477,82.049,37.411,73.064,36.156L71.758,45.468C78.711,46.447,85.036,49.584,90.03,54.579C94.749,59.297,97.836,65.271,98.966,71.847ZM98.966,71.847"/>
</g>
  <g id="Ultralight-L" transform="matrix(1.0,0.0,0.0,1.0,488.6326834320263,1448.4027029632762)">  <path fill-opacity="1" stroke-linejoin="miter" clip-rule="evenodd" stroke-opacity="1" stroke="none" fill="#000000" stroke-dasharray="none" fill-rule="evenodd" stroke-width="1px" stroke-linecap="butt" stroke-miterlimit="4" d="M74.293,12.061C89.227,14.144,102.756,20.896,113.448,31.588C123.588,41.753,130.239,54.554,132.673,68.659L123.412,70.24C121.329,58.067,115.581,46.999,106.821,38.239C97.585,29.028,85.889,23.18,72.988,21.373L74.293,12.061ZM103.76,91.85C99.819,87.96,94.899,87.96,90.984,91.85C87.997,94.812,85.01,97.774,82.074,100.786C81.271,101.614,80.593,101.789,79.614,101.238C78.848,100.82,78.063,100.434,77.278,100.048C76.082,99.46,74.888,98.872,73.766,98.175C65.107,92.729,57.854,85.726,51.428,77.846C48.241,73.93,45.405,69.739,43.422,65.02C43.02,64.066,43.096,63.438,43.874,62.66C46.432,60.188,48.935,57.661,51.446,55.126L51.446,55.125L52.708,53.851C56.8,49.735,56.8,44.916,52.683,40.774C51.516,39.595,50.35,38.428,49.183,37.261L49.182,37.26C48.015,36.093,46.848,34.926,45.681,33.747C44.878,32.944,44.078,32.138,43.277,31.332L43.277,31.332C41.676,29.72,40.075,28.108,38.452,26.518C34.512,22.678,29.592,22.678,25.677,26.543C24.472,27.728,23.287,28.925,22.103,30.121L22.103,30.122C20.327,31.915,18.554,33.707,16.717,35.453C13.88,38.139,12.45,41.427,12.149,45.267C11.672,51.517,13.203,57.415,15.361,63.163C19.779,75.059,26.505,85.626,34.662,95.314C45.681,108.416,58.833,118.782,74.218,126.261C81.145,129.624,88.324,132.21,96.13,132.636C101.501,132.938,106.169,131.582,109.908,127.391C111.591,125.51,113.415,123.738,115.237,121.967L115.237,121.967C116.187,121.044,117.137,120.121,118.066,119.183C122.082,115.117,122.107,110.198,118.116,106.182C113.347,101.388,108.553,96.619,103.76,91.85ZM98.966,71.847L108.227,70.266C106.771,61.757,102.756,54.052,96.657,47.927C90.206,41.477,82.049,37.411,73.064,36.156L71.758,45.468C78.711,46.447,85.036,49.584,90.03,54.579C94.749,59.297,97.836,65.271,98.966,71.847ZM98.966,71.847"/>
</g>
  <g id="Black-M" transform="matrix(1.0,0.0,0.0,1.0,2878.5813049860667,1034.6713245173169)">  <path stroke-opacity="1" stroke-dasharray="none" fill-rule="evenodd" stroke-width="1px" stroke-linejoin="miter" clip-rule="evenodd" stroke-miterlimit="4" fill="#000000" stroke-linecap="butt" fill-opacity="1" stroke="none" d="M57.592,9.35C69.168,10.965,79.655,16.198,87.944,24.487C95.804,32.367,100.96,42.29,102.848,53.224L95.668,54.45C94.053,45.014,89.598,36.433,82.807,29.643C75.647,22.502,66.581,17.969,56.58,16.568L57.592,9.35ZM80.434,71.202C77.379,68.186,73.565,68.186,70.531,71.202C68.215,73.498,65.9,75.794,63.623,78.129C63.001,78.771,62.475,78.907,61.717,78.479C61.123,78.155,60.514,77.856,59.905,77.556C58.978,77.101,58.052,76.645,57.183,76.105C50.471,71.883,44.848,66.455,39.867,60.345C37.396,57.31,35.197,54.061,33.66,50.403C33.349,49.664,33.407,49.177,34.011,48.574C35.994,46.658,37.934,44.698,39.88,42.733L39.881,42.733L40.859,41.745C44.031,38.554,44.031,34.818,40.84,31.608C39.935,30.694,39.031,29.789,38.126,28.885L38.126,28.884C37.221,27.979,36.316,27.075,35.411,26.16C34.789,25.538,34.169,24.913,33.548,24.288L33.548,24.288C32.307,23.038,31.066,21.789,29.808,20.557C26.753,17.58,22.94,17.58,19.905,20.576C18.97,21.495,18.052,22.423,17.134,23.35L17.134,23.35C15.758,24.74,14.383,26.129,12.959,27.483C10.76,29.565,9.651,32.114,9.418,35.091C9.048,39.935,10.235,44.508,11.908,48.963C15.332,58.186,20.547,66.377,26.87,73.887C35.411,84.043,45.607,92.079,57.533,97.877C62.903,100.484,68.468,102.488,74.519,102.819C78.683,103.052,82.301,102.001,85.2,98.752C86.505,97.295,87.918,95.921,89.331,94.548L89.331,94.548C90.067,93.833,90.804,93.117,91.524,92.39C94.637,89.238,94.656,85.425,91.563,82.312C87.866,78.595,84.15,74.899,80.434,71.202ZM76.718,55.695L83.897,54.469C82.768,47.874,79.655,41.9,74.928,37.153C69.927,32.153,63.604,29.001,56.639,28.028L55.627,35.246C61.016,36.005,65.919,38.437,69.791,42.309C73.449,45.967,75.842,50.598,76.718,55.695ZM76.718,55.695"/>
</g>
  <g id="Heavy-M" transform="matrix(1.0,0.0,0.0,1.0,2581.8713049860667,1034.6713245173169)">  <path stroke-dasharray="none" fill="#000000" fill-opacity="1" stroke-width="1px" stroke-miterlimit="4" stroke-opacity="1" fill-rule="evenodd" stroke="none" clip-rule="evenodd" stroke-linejoin="miter" stroke-linecap="butt" d="M57.592,9.35C69.168,10.965,79.655,16.198,87.944,24.487C95.804,32.367,100.96,42.29,102.848,53.224L95.668,54.45C94.053,45.014,89.598,36.433,82.807,29.643C75.647,22.502,66.581,17.969,56.58,16.568L57.592,9.35ZM80.434,71.202C77.379,68.186,73.565,68.186,70.531,71.202C68.215,73.498,65.9,75.794,63.623,78.129C63.001,78.771,62.475,78.907,61.717,78.479C61.123,78.155,60.514,77.856,59.905,77.556C58.978,77.101,58.052,76.645,57.183,76.105C50.471,71.883,44.848,66.455,39.867,60.345C37.396,57.31,35.197,54.061,33.66,50.403C33.349,49.664,33.407,49.177,34.011,48.574C35.994,46.658,37.934,44.698,39.88,42.733L39.881,42.733L40.859,41.745C44.031,38.554,44.031,34.818,40.84,31.608C39.935,30.694,39.031,29.789,38.126,28.885L38.126,28.884C37.221,27.979,36.316,27.075,35.411,26.16C34.789,25.538,34.169,24.913,33.548,24.288L33.548,24.288C32.307,23.038,31.066,21.789,29.808,20.557C26.753,17.58,22.94,17.58,19.905,20.576C18.97,21.495,18.052,22.423,17.134,23.35L17.134,23.35C15.758,24.74,14.383,26.129,12.959,27.483C10.76,29.565,9.651,32.114,9.418,35.091C9.048,39.935,10.235,44.508,11.908,48.963C15.332,58.186,20.547,66.377,26.87,73.887C35.411,84.043,45.607,92.079,57.533,97.877C62.903,100.484,68.468,102.488,74.519,102.819C78.683,103.052,82.301,102.001,85.2,98.752C86.505,97.295,87.918,95.921,89.331,94.548L89.331,94.548C90.067,93.833,90.804,93.117,91.524,92.39C94.637,89.238,94.656,85.425,91.563,82.312C87.866,78.595,84.15,74.899,80.434,71.202ZM76.718,55.695L83.897,54.469C82.768,47.874,79.655,41.9,74.928,37.153C69.927,32.153,63.604,29.001,56.639,28.028L55.627,35.246C61.016,36.005,65.919,38.437,69.791,42.309C73.449,45.967,75.842,50.598,76.718,55.695ZM76.718,55.695"/>
</g>
  <g id="Bold-M" transform="matrix(1.0,0.0,0.0,1.0,2285.1613049860666,1034.6713245173169)">  <path clip-rule="evenodd" stroke-linejoin="miter" stroke="none" stroke-dasharray="none" stroke-linecap="butt" fill="#000000" fill-opacity="1" stroke-miterlimit="4" stroke-opacity="1" stroke-width="1px" fill-rule="evenodd" d="M57.592,9.35C69.168,10.965,79.655,16.198,87.944,24.487C95.804,32.367,100.96,42.29,102.848,53.224L95.668,54.45C94.053,45.014,89.598,36.433,82.807,29.643C75.647,22.502,66.581,17.969,56.58,16.568L57.592,9.35ZM80.434,71.202C77.379,68.186,73.565,68.186,70.531,71.202C68.215,73.498,65.9,75.794,63.623,78.129C63.001,78.771,62.475,78.907,61.717,78.479C61.123,78.155,60.514,77.856,59.905,77.556C58.978,77.101,58.052,76.645,57.183,76.105C50.471,71.883,44.848,66.455,39.867,60.345C37.396,57.31,35.197,54.061,33.66,50.403C33.349,49.664,33.407,49.177,34.011,48.574C35.994,46.658,37.934,44.698,39.88,42.733L39.881,42.733L40.859,41.745C44.031,38.554,44.031,34.818,40.84,31.608C39.935,30.694,39.031,29.789,38.126,28.885L38.126,28.884C37.221,27.979,36.316,27.075,35.411,26.16C34.789,25.538,34.169,24.913,33.548,24.288L33.548,24.288C32.307,23.038,31.066,21.789,29.808,20.557C26.753,17.58,22.94,17.58,19.905,20.576C18.97,21.495,18.052,22.423,17.134,23.35L17.134,23.35C15.758,24.74,14.383,26.129,12.959,27.483C10.76,29.565,9.651,32.114,9.418,35.091C9.048,39.935,10.235,44.508,11.908,48.963C15.332,58.186,20.547,66.377,26.87,73.887C35.411,84.043,45.607,92.079,57.533,97.877C62.903,100.484,68.468,102.488,74.519,102.819C78.683,103.052,82.301,102.001,85.2,98.752C86.505,97.295,87.918,95.921,89.331,94.548L89.331,94.548C90.067,93.833,90.804,93.117,91.524,92.39C94.637,89.238,94.656,85.425,91.563,82.312C87.866,78.595,84.15,74.899,80.434,71.202ZM76.718,55.695L83.897,54.469C82.768,47.874,79.655,41.9,74.928,37.153C69.927,32.153,63.604,29.001,56.639,28.028L55.627,35.246C61.016,36.005,65.919,38.437,69.791,42.309C73.449,45.967,75.842,50.598,76.718,55.695ZM76.718,55.695"/>
</g>
  <g id="Semibold-M" transform="matrix(1.0,0.0,0.0,1.0,1988.4513049860668,1034.6713245173169)">  <path fill="#000000" stroke="none" stroke-linecap="butt" fill-rule="evenodd" stroke-linejoin="miter" clip-rule="evenodd" fill-opacity="1" stroke-dasharray="none" stroke-miterlimit="4" stroke-width="1px" stroke-opacity="1" d="M57.592,9.35C69.168,10.965,79.655,16.198,87.944,24.487C95.804,32.367,100.96,42.29,102.848,53.224L95.668,54.45C94.053,45.014,89.598,36.433,82.807,29.643C75.647,22.502,66.581,17.969,56.58,16.568L57.592,9.35ZM80.434,71.202C77.379,68.186,73.565,68.186,70.531,71.202C68.215,73.498,65.9,75.794,63.623,78.129C63.001,78.771,62.475,78.907,61.717,78.479C61.123,78.155,60.514,77.856,59.905,77.556C58.978,77.101,58.052,76.645,57.183,76.105C50.471,71.883,44.848,66.455,39.867,60.345C37.396,57.31,35.197,54.061,33.66,50.403C33.349,49.664,33.407,49.177,34.011,48.574C35.994,46.658,37.934,44.698,39.88,42.733L39.881,42.733L40.859,41.745C44.031,38.554,44.031,34.818,40.84,31.608C39.935,30.694,39.031,29.789,38.126,28.885L38.126,28.884C37.221,27.979,36.316,27.075,35.411,26.16C34.789,25.538,34.169,24.913,33.548,24.288L33.548,24.288C32.307,23.038,31.066,21.789,29.808,20.557C26.753,17.58,22.94,17.58,19.905,20.576C18.97,21.495,18.052,22.423,17.134,23.35L17.134,23.35C15.758,24.74,14.383,26.129,12.959,27.483C10.76,29.565,9.651,32.114,9.418,35.091C9.048,39.935,10.235,44.508,11.908,48.963C15.332,58.186,20.547,66.377,26.87,73.887C35.411,84.043,45.607,92.079,57.533,97.877C62.903,100.484,68.468,102.488,74.519,102.819C78.683,103.052,82.301,102.001,85.2,98.752C86.505,97.295,87.918,95.921,89.331,94.548L89.331,94.548C90.067,93.833,90.804,93.117,91.524,92.39C94.637,89.238,94.656,85.425,91.563,82.312C87.866,78.595,84.15,74.899,80.434,71.202ZM76.718,55.695L83.897,54.469C82.768,47.874,79.655,41.9,74.928,37.153C69.927,32.153,63.604,29.001,56.639,28.028L55.627,35.246C61.016,36.005,65.919,38.437,69.791,42.309C73.449,45.967,75.842,50.598,76.718,55.695ZM76.718,55.695"/>
</g>
  <g id="Medium-M" transform="matrix(1.0,0.0,0.0,1.0,1691.7413049860668,1034.6713245173169)">  <path clip-rule="evenodd" stroke-dasharray="none" fill-rule="evenodd" stroke-linecap="butt" stroke-width="1px" fill="#000000" stroke-miterlimit="4" fill-opacity="1" stroke="none" stroke-linejoin="miter" stroke-opacity="1" d="M57.592,9.35C69.168,10.965,79.655,16.198,87.944,24.487C95.804,32.367,100.96,42.29,102.848,53.224L95.668,54.45C94.053,45.014,89.598,36.433,82.807,29.643C75.647,22.502,66.581,17.969,56.58,16.568L57.592,9.35ZM80.434,71.202C77.379,68.186,73.565,68.186,70.531,71.202C68.215,73.498,65.9,75.794,63.623,78.129C63.001,78.771,62.475,78.907,61.717,78.479C61.123,78.155,60.514,77.856,59.905,77.556C58.978,77.101,58.052,76.645,57.183,76.105C50.471,71.883,44.848,66.455,39.867,60.345C37.396,57.31,35.197,54.061,33.66,50.403C33.349,49.664,33.407,49.177,34.011,48.574C35.994,46.658,37.934,44.698,39.88,42.733L39.881,42.733L40.859,41.745C44.031,38.554,44.031,34.818,40.84,31.608C39.935,30.694,39.031,29.789,38.126,28.885L38.126,28.884C37.221,27.979,36.316,27.075,35.411,26.16C34.789,25.538,34.169,24.913,33.548,24.288L33.548,24.288C32.307,23.038,31.066,21.789,29.808,20.557C26.753,17.58,22.94,17.58,19.905,20.576C18.97,21.495,18.052,22.423,17.134,23.35L17.134,23.35C15.758,24.74,14.383,26.129,12.959,27.483C10.76,29.565,9.651,32.114,9.418,35.091C9.048,39.935,10.235,44.508,11.908,48.963C15.332,58.186,20.547,66.377,26.87,73.887C35.411,84.043,45.607,92.079,57.533,97.877C62.903,100.484,68.468,102.488,74.519,102.819C78.683,103.052,82.301,102.001,85.2,98.752C86.505,97.295,87.918,95.921,89.331,94.548L89.331,94.548C90.067,93.833,90.804,93.117,91.524,92.39C94.637,89.238,94.656,85.425,91.563,82.312C87.866,78.595,84.15,74.899,80.434,71.202ZM76.718,55.695L83.897,54.469C82.768,47.874,79.655,41.9,74.928,37.153C69.927,32.153,63.604,29.001,56.639,28.028L55.627,35.246C61.016,36.005,65.919,38.437,69.791,42.309C73.449,45.967,75.842,50.598,76.718,55.695ZM76.718,55.695"/>
</g>
  <g id="Regular-M" transform="matrix(1.0,0.0,0.0,1.0,1395.0313049860667,1034.6713245173169)">  <path fill="#000000" clip-rule="evenodd" stroke-linejoin="miter" stroke-dasharray="none" stroke-linecap="butt" stroke="none" fill-opacity="1" fill-rule="evenodd" stroke-width="1px" stroke-miterlimit="4" stroke-opacity="1" d="M57.592,9.35C69.168,10.965,79.655,16.198,87.944,24.487C95.804,32.367,100.96,42.29,102.848,53.224L95.668,54.45C94.053,45.014,89.598,36.433,82.807,29.643C75.647,22.502,66.581,17.969,56.58,16.568L57.592,9.35ZM80.434,71.202C77.379,68.186,73.565,68.186,70.531,71.202C68.215,73.498,65.9,75.794,63.623,78.129C63.001,78.771,62.475,78.907,61.717,78.479C61.123,78.155,60.514,77.856,59.905,77.556C58.978,77.101,58.052,76.645,57.183,76.105C50.471,71.883,44.848,66.455,39.867,60.345C37.396,57.31,35.197,54.061,33.66,50.403C33.349,49.664,33.407,49.177,34.011,48.574C35.994,46.658,37.934,44.698,39.88,42.733L39.881,42.733L40.859,41.745C44.031,38.554,44.031,34.818,40.84,31.608C39.935,30.694,39.031,29.789,38.126,28.885L38.126,28.884C37.221,27.979,36.316,27.075,35.411,26.16C34.789,25.538,34.169,24.913,33.548,24.288L33.548,24.288C32.307,23.038,31.066,21.789,29.808,20.557C26.753,17.58,22.94,17.58,19.905,20.576C18.97,21.495,18.052,22.423,17.134,23.35L17.134,23.35C15.758,24.74,14.383,26.129,12.959,27.483C10.76,29.565,9.651,32.114,9.418,35.091C9.048,39.935,10.235,44.508,11.908,48.963C15.332,58.186,20.547,66.377,26.87,73.887C35.411,84.043,45.607,92.079,57.533,97.877C62.903,100.484,68.468,102.488,74.519,102.819C78.683,103.052,82.301,102.001,85.2,98.752C86.505,97.295,87.918,95.921,89.331,94.548L89.331,94.548C90.067,93.833,90.804,93.117,91.524,92.39C94.637,89.238,94.656,85.425,91.563,82.312C87.866,78.595,84.15,74.899,80.434,71.202ZM76.718,55.695L83.897,54.469C82.768,47.874,79.655,41.9,74.928,37.153C69.927,32.153,63.604,29.001,56.639,28.028L55.627,35.246C61.016,36.005,65.919,38.437,69.791,42.309C73.449,45.967,75.842,50.598,76.718,55.695ZM76.718,55.695"/>
</g>
  <g id="Light-M" transform="matrix(1.0,0.0,0.0,1.0,1098.321304986067,1034.6713245173169)">  <path stroke="none" fill-opacity="1" stroke-linecap="butt" stroke-width="1px" stroke-miterlimit="4" stroke-linejoin="miter" stroke-opacity="1" clip-rule="evenodd" stroke-dasharray="none" fill-rule="evenodd" fill="#000000" d="M57.592,9.35C69.168,10.965,79.655,16.198,87.944,24.487C95.804,32.367,100.96,42.29,102.848,53.224L95.668,54.45C94.053,45.014,89.598,36.433,82.807,29.643C75.647,22.502,66.581,17.969,56.58,16.568L57.592,9.35ZM80.434,71.202C77.379,68.186,73.565,68.186,70.531,71.202C68.215,73.498,65.9,75.794,63.623,78.129C63.001,78.771,62.475,78.907,61.717,78.479C61.123,78.155,60.514,77.856,59.905,77.556C58.978,77.101,58.052,76.645,57.183,76.105C50.471,71.883,44.848,66.455,39.867,60.345C37.396,57.31,35.197,54.061,33.66,50.403C33.349,49.664,33.407,49.177,34.011,48.574C35.994,46.658,37.934,44.698,39.88,42.733L39.881,42.733L40.859,41.745C44.031,38.554,44.031,34.818,40.84,31.608C39.935,30.694,39.031,29.789,38.126,28.885L38.126,28.884C37.221,27.979,36.316,27.075,35.411,26.16C34.789,25.538,34.169,24.913,33.548,24.288L33.548,24.288C32.307,23.038,31.066,21.789,29.808,20.557C26.753,17.58,22.94,17.58,19.905,20.576C18.97,21.495,18.052,22.423,17.134,23.35L17.134,23.35C15.758,24.74,14.383,26.129,12.959,27.483C10.76,29.565,9.651,32.114,9.418,35.091C9.048,39.935,10.235,44.508,11.908,48.963C15.332,58.186,20.547,66.377,26.87,73.887C35.411,84.043,45.607,92.079,57.533,97.877C62.903,100.484,68.468,102.488,74.519,102.819C78.683,103.052,82.301,102.001,85.2,98.752C86.505,97.295,87.918,95.921,89.331,94.548L89.331,94.548C90.067,93.833,90.804,93.117,91.524,92.39C94.637,89.238,94.656,85.425,91.563,82.312C87.866,78.595,84.15,74.899,80.434,71.202ZM76.718,55.695L83.897,54.469C82.768,47.874,79.655,41.9,74.928,37.153C69.927,32.153,63.604,29.001,56.639,28.028L55.627,35.246C61.016,36.005,65.919,38.437,69.791,42.309C73.449,45.967,75.842,50.598,76.718,55.695ZM76.718,55.695"/>
</g>
  <g id="Thin-M" transform="matrix(1.0,0.0,0.0,1.0,801.6113049860669,1034.6713245173169)">  <path stroke-linecap="butt" stroke="none" fill-opacity="1" stroke-width="1px" stroke-miterlimit="4" clip-rule="evenodd" stroke-opacity="1" stroke-linejoin="miter" fill="#000000" stroke-dasharray="none" fill-rule="evenodd" d="M57.592,9.35C69.168,10.965,79.655,16.198,87.944,24.487C95.804,32.367,100.96,42.29,102.848,53.224L95.668,54.45C94.053,45.014,89.598,36.433,82.807,29.643C75.647,22.502,66.581,17.969,56.58,16.568L57.592,9.35ZM80.434,71.202C77.379,68.186,73.565,68.186,70.531,71.202C68.215,73.498,65.9,75.794,63.623,78.129C63.001,78.771,62.475,78.907,61.717,78.479C61.123,78.155,60.514,77.856,59.905,77.556C58.978,77.101,58.052,76.645,57.183,76.105C50.471,71.883,44.848,66.455,39.867,60.345C37.396,57.31,35.197,54.061,33.66,50.403C33.349,49.664,33.407,49.177,34.011,48.574C35.994,46.658,37.934,44.698,39.88,42.733L39.881,42.733L40.859,41.745C44.031,38.554,44.031,34.818,40.84,31.608C39.935,30.694,39.031,29.789,38.126,28.885L38.126,28.884C37.221,27.979,36.316,27.075,35.411,26.16C34.789,25.538,34.169,24.913,33.548,24.288L33.548,24.288C32.307,23.038,31.066,21.789,29.808,20.557C26.753,17.58,22.94,17.58,19.905,20.576C18.97,21.495,18.052,22.423,17.134,23.35L17.134,23.35C15.758,24.74,14.383,26.129,12.959,27.483C10.76,29.565,9.651,32.114,9.418,35.091C9.048,39.935,10.235,44.508,11.908,48.963C15.332,58.186,20.547,66.377,26.87,73.887C35.411,84.043,45.607,92.079,57.533,97.877C62.903,100.484,68.468,102.488,74.519,102.819C78.683,103.052,82.301,102.001,85.2,98.752C86.505,97.295,87.918,95.921,89.331,94.548L89.331,94.548C90.067,93.833,90.804,93.117,91.524,92.39C94.637,89.238,94.656,85.425,91.563,82.312C87.866,78.595,84.15,74.899,80.434,71.202ZM76.718,55.695L83.897,54.469C82.768,47.874,79.655,41.9,74.928,37.153C69.927,32.153,63.604,29.001,56.639,28.028L55.627,35.246C61.016,36.005,65.919,38.437,69.791,42.309C73.449,45.967,75.842,50.598,76.718,55.695ZM76.718,55.695"/>
</g>
  <g id="Ultralight-M" transform="matrix(1.0,0.0,0.0,1.0,504.90130498606686,1034.6713245173169)">  <path fill-opacity="1" stroke-linejoin="miter" clip-rule="evenodd" stroke-opacity="1" stroke="none" fill="#000000" stroke-dasharray="none" fill-rule="evenodd" stroke-width="1px" stroke-linecap="butt" stroke-miterlimit="4" d="M57.592,9.35C69.168,10.965,79.655,16.198,87.944,24.487C95.804,32.367,100.96,42.29,102.848,53.224L95.668,54.45C94.053,45.014,89.598,36.433,82.807,29.643C75.647,22.502,66.581,17.969,56.58,16.568L57.592,9.35ZM80.434,71.202C77.379,68.186,73.565,68.186,70.531,71.202C68.215,73.498,65.9,75.794,63.623,78.129C63.001,78.771,62.475,78.907,61.717,78.479C61.123,78.155,60.514,77.856,59.905,77.556C58.978,77.101,58.052,76.645,57.183,76.105C50.471,71.883,44.848,66.455,39.867,60.345C37.396,57.31,35.197,54.061,33.66,50.403C33.349,49.664,33.407,49.177,34.011,48.574C35.994,46.658,37.934,44.698,39.88,42.733L39.881,42.733L40.859,41.745C44.031,38.554,44.031,34.818,40.84,31.608C39.935,30.694,39.031,29.789,38.126,28.885L38.126,28.884C37.221,27.979,36.316,27.075,35.411,26.16C34.789,25.538,34.169,24.913,33.548,24.288L33.548,24.288C32.307,23.038,31.066,21.789,29.808,20.557C26.753,17.58,22.94,17.58,19.905,20.576C18.97,21.495,18.052,22.423,17.134,23.35L17.134,23.35C15.758,24.74,14.383,26.129,12.959,27.483C10.76,29.565,9.651,32.114,9.418,35.091C9.048,39.935,10.235,44.508,11.908,48.963C15.332,58.186,20.547,66.377,26.87,73.887C35.411,84.043,45.607,92.079,57.533,97.877C62.903,100.484,68.468,102.488,74.519,102.819C78.683,103.052,82.301,102.001,85.2,98.752C86.505,97.295,87.918,95.921,89.331,94.548L89.331,94.548C90.067,93.833,90.804,93.117,91.524,92.39C94.637,89.238,94.656,85.425,91.563,82.312C87.866,78.595,84.15,74.899,80.434,71.202ZM76.718,55.695L83.897,54.469C82.768,47.874,79.655,41.9,74.928,37.153C69.927,32.153,63.604,29.001,56.639,28.028L55.627,35.246C61.016,36.005,65.919,38.437,69.791,42.309C73.449,45.967,75.842,50.598,76.718,55.695ZM76.718,55.695"/>
</g>
  <g id="Black-S" transform="matrix(1.0,0.0,0.0,1.0,2890.75472180409,616.8447413353404)">  <path stroke-opacity="1" stroke-dasharray="none" fill-rule="evenodd" stroke-width="1px" stroke-linejoin="miter" clip-rule="evenodd" stroke-miterlimit="4" fill="#000000" stroke-linecap="butt" fill-opacity="1" stroke="none" d="M45.094,7.321C54.159,8.585,62.37,12.683,68.86,19.173C75.015,25.343,79.052,33.113,80.53,41.674L74.908,42.634C73.644,35.246,70.155,28.527,64.838,23.21C59.232,17.619,52.133,14.07,44.302,12.973L45.094,7.321ZM62.98,55.751C60.588,53.39,57.602,53.39,55.225,55.751C53.412,57.549,51.599,59.346,49.817,61.175C49.33,61.677,48.918,61.784,48.324,61.449C47.859,61.195,47.383,60.961,46.906,60.727C46.18,60.37,45.455,60.013,44.775,59.59C39.518,56.284,35.116,52.034,31.216,47.25C29.281,44.874,27.56,42.33,26.356,39.465C26.112,38.887,26.158,38.506,26.63,38.033C28.183,36.533,29.702,34.999,31.226,33.46L31.226,33.46L31.993,32.686C34.476,30.188,34.476,27.263,31.978,24.749C31.269,24.033,30.561,23.325,29.853,22.617L29.852,22.616C29.144,21.908,28.436,21.199,27.727,20.483C27.24,19.996,26.754,19.507,26.268,19.018L26.268,19.018C25.296,18.039,24.325,17.061,23.34,16.096C20.948,13.765,17.962,13.765,15.585,16.111C14.854,16.83,14.135,17.557,13.416,18.283L13.416,18.283C12.338,19.372,11.262,20.459,10.147,21.519C8.425,23.149,7.557,25.145,7.374,27.476C7.084,31.269,8.014,34.85,9.324,38.338C12.005,45.559,16.088,51.973,21.039,57.854C27.727,65.806,35.71,72.098,45.049,76.638C49.253,78.679,53.61,80.248,58.349,80.507C61.608,80.69,64.442,79.867,66.712,77.323C67.733,76.182,68.84,75.106,69.946,74.031L69.946,74.031C70.523,73.471,71.099,72.91,71.663,72.341C74.101,69.873,74.116,66.888,71.694,64.45C68.799,61.54,65.889,58.646,62.98,55.751ZM60.07,43.609L65.691,42.65C64.808,37.485,62.37,32.808,58.668,29.091C54.753,25.176,49.802,22.708,44.348,21.946L43.556,27.598C47.776,28.192,51.615,30.096,54.646,33.128C57.51,35.992,59.384,39.618,60.07,43.609ZM60.07,43.609"/>
</g>
  <g id="Heavy-S" transform="matrix(1.0,0.0,0.0,1.0,2594.04472180409,616.8447413353404)">  <path stroke-dasharray="none" fill="#000000" fill-opacity="1" stroke-width="1px" stroke-miterlimit="4" stroke-opacity="1" fill-rule="evenodd" stroke="none" clip-rule="evenodd" stroke-linejoin="miter" stroke-linecap="butt" d="M45.094,7.321C54.159,8.585,62.37,12.683,68.86,19.173C75.015,25.343,79.052,33.113,80.53,41.674L74.908,42.634C73.644,35.246,70.155,28.527,64.838,23.21C59.232,17.619,52.133,14.07,44.302,12.973L45.094,7.321ZM62.98,55.751C60.588,53.39,57.602,53.39,55.225,55.751C53.412,57.549,51.599,59.346,49.817,61.175C49.33,61.677,48.918,61.784,48.324,61.449C47.859,61.195,47.383,60.961,46.906,60.727C46.18,60.37,45.455,60.013,44.775,59.59C39.518,56.284,35.116,52.034,31.216,47.25C29.281,44.874,27.56,42.33,26.356,39.465C26.112,38.887,26.158,38.506,26.63,38.033C28.183,36.533,29.702,34.999,31.226,33.46L31.226,33.46L31.993,32.686C34.476,30.188,34.476,27.263,31.978,24.749C31.269,24.033,30.561,23.325,29.853,22.617L29.852,22.616C29.144,21.908,28.436,21.199,27.727,20.483C27.24,19.996,26.754,19.507,26.268,19.018L26.268,19.018C25.296,18.039,24.325,17.061,23.34,16.096C20.948,13.765,17.962,13.765,15.585,16.111C14.854,16.83,14.135,17.557,13.416,18.283L13.416,18.283C12.338,19.372,11.262,20.459,10.147,21.519C8.425,23.149,7.557,25.145,7.374,27.476C7.084,31.269,8.014,34.85,9.324,38.338C12.005,45.559,16.088,51.973,21.039,57.854C27.727,65.806,35.71,72.098,45.049,76.638C49.253,78.679,53.61,80.248,58.349,80.507C61.608,80.69,64.442,79.867,66.712,77.323C67.733,76.182,68.84,75.106,69.946,74.031L69.946,74.031C70.523,73.471,71.099,72.91,71.663,72.341C74.101,69.873,74.116,66.888,71.694,64.45C68.799,61.54,65.889,58.646,62.98,55.751ZM60.07,43.609L65.691,42.65C64.808,37.485,62.37,32.808,58.668,29.091C54.753,25.176,49.802,22.708,44.348,21.946L43.556,27.598C47.776,28.192,51.615,30.096,54.646,33.128C57.51,35.992,59.384,39.618,60.07,43.609ZM60.07,43.609"/>
</g>
  <g id="Bold-S" transform="matrix(1.0,0.0,0.0,1.0,2297.33472180409,616.8447413353404)">  <path clip-rule="evenodd" stroke-linejoin="miter" stroke="none" stroke-dasharray="none" stroke-linecap="butt" fill="#000000" fill-opacity="1" stroke-miterlimit="4" stroke-opacity="1" stroke-width="1px" fill-rule="evenodd" d="M45.094,7.321C54.159,8.585,62.37,12.683,68.86,19.173C75.015,25.343,79.052,33.113,80.53,41.674L74.908,42.634C73.644,35.246,70.155,28.527,64.838,23.21C59.232,17.619,52.133,14.07,44.302,12.973L45.094,7.321ZM62.98,55.751C60.588,53.39,57.602,53.39,55.225,55.751C53.412,57.549,51.599,59.346,49.817,61.175C49.33,61.677,48.918,61.784,48.324,61.449C47.859,61.195,47.383,60.961,46.906,60.727C46.18,60.37,45.455,60.013,44.775,59.59C39.518,56.284,35.116,52.034,31.216,47.25C29.281,44.874,27.56,42.33,26.356,39.465C26.112,38.887,26.158,38.506,26.63,38.033C28.183,36.533,29.702,34.999,31.226,33.46L31.226,33.46L31.993,32.686C34.476,30.188,34.476,27.263,31.978,24.749C31.269,24.033,30.561,23.325,29.853,22.617L29.852,22.616C29.144,21.908,28.436,21.199,27.727,20.483C27.24,19.996,26.754,19.507,26.268,19.018L26.268,19.018C25.296,18.039,24.325,17.061,23.34,16.096C20.948,13.765,17.962,13.765,15.585,16.111C14.854,16.83,14.135,17.557,13.416,18.283L13.416,18.283C12.338,19.372,11.262,20.459,10.147,21.519C8.425,23.149,7.557,25.145,7.374,27.476C7.084,31.269,8.014,34.85,9.324,38.338C12.005,45.559,16.088,51.973,21.039,57.854C27.727,65.806,35.71,72.098,45.049,76.638C49.253,78.679,53.61,80.248,58.349,80.507C61.608,80.69,64.442,79.867,66.712,77.323C67.733,76.182,68.84,75.106,69.946,74.031L69.946,74.031C70.523,73.471,71.099,72.91,71.663,72.341C74.101,69.873,74.116,66.888,71.694,64.45C68.799,61.54,65.889,58.646,62.98,55.751ZM60.07,43.609L65.691,42.65C64.808,37.485,62.37,32.808,58.668,29.091C54.753,25.176,49.802,22.708,44.348,21.946L43.556,27.598C47.776,28.192,51.615,30.096,54.646,33.128C57.51,35.992,59.384,39.618,60.07,43.609ZM60.07,43.609"/>
</g>
  <g id="Semibold-S" transform="matrix(1.0,0.0,0.0,1.0,2000.6247218040903,616.8447413353404)">  <path fill="#000000" stroke="none" stroke-linecap="butt" fill-rule="evenodd" stroke-linejoin="miter" clip-rule="evenodd" fill-opacity="1" stroke-dasharray="none" stroke-miterlimit="4" stroke-width="1px" stroke-opacity="1" d="M45.094,7.321C54.159,8.585,62.37,12.683,68.86,19.173C75.015,25.343,79.052,33.113,80.53,41.674L74.908,42.634C73.644,35.246,70.155,28.527,64.838,23.21C59.232,17.619,52.133,14.07,44.302,12.973L45.094,7.321ZM62.98,55.751C60.588,53.39,57.602,53.39,55.225,55.751C53.412,57.549,51.599,59.346,49.817,61.175C49.33,61.677,48.918,61.784,48.324,61.449C47.859,61.195,47.383,60.961,46.906,60.727C46.18,60.37,45.455,60.013,44.775,59.59C39.518,56.284,35.116,52.034,31.216,47.25C29.281,44.874,27.56,42.33,26.356,39.465C26.112,38.887,26.158,38.506,26.63,38.033C28.183,36.533,29.702,34.999,31.226,33.46L31.226,33.46L31.993,32.686C34.476,30.188,34.476,27.263,31.978,24.749C31.269,24.033,30.561,23.325,29.853,22.617L29.852,22.616C29.144,21.908,28.436,21.199,27.727,20.483C27.24,19.996,26.754,19.507,26.268,19.018L26.268,19.018C25.296,18.039,24.325,17.061,23.34,16.096C20.948,13.765,17.962,13.765,15.585,16.111C14.854,16.83,14.135,17.557,13.416,18.283L13.416,18.283C12.338,19.372,11.262,20.459,10.147,21.519C8.425,23.149,7.557,25.145,7.374,27.476C7.084,31.269,8.014,34.85,9.324,38.338C12.005,45.559,16.088,51.973,21.039,57.854C27.727,65.806,35.71,72.098,45.049,76.638C49.253,78.679,53.61,80.248,58.349,80.507C61.608,80.69,64.442,79.867,66.712,77.323C67.733,76.182,68.84,75.106,69.946,74.031L69.946,74.031C70.523,73.471,71.099,72.91,71.663,72.341C74.101,69.873,74.116,66.888,71.694,64.45C68.799,61.54,65.889,58.646,62.98,55.751ZM60.07,43.609L65.691,42.65C64.808,37.485,62.37,32.808,58.668,29.091C54.753,25.176,49.802,22.708,44.348,21.946L43.556,27.598C47.776,28.192,51.615,30.096,54.646,33.128C57.51,35.992,59.384,39.618,60.07,43.609ZM60.07,43.609"/>
</g>
  <g id="Medium-S" transform="matrix(1.0,0.0,0.0,1.0,1703.9147218040903,616.8447413353404)">  <path clip-rule="evenodd" stroke-dasharray="none" fill-rule="evenodd" stroke-linecap="butt" stroke-width="1px" fill="#000000" stroke-miterlimit="4" fill-opacity="1" stroke="none" stroke-linejoin="miter" stroke-opacity="1" d="M45.094,7.321C54.159,8.585,62.37,12.683,68.86,19.173C75.015,25.343,79.052,33.113,80.53,41.674L74.908,42.634C73.644,35.246,70.155,28.527,64.838,23.21C59.232,17.619,52.133,14.07,44.302,12.973L45.094,7.321ZM62.98,55.751C60.588,53.39,57.602,53.39,55.225,55.751C53.412,57.549,51.599,59.346,49.817,61.175C49.33,61.677,48.918,61.784,48.324,61.449C47.859,61.195,47.383,60.961,46.906,60.727C46.18,60.37,45.455,60.013,44.775,59.59C39.518,56.284,35.116,52.034,31.216,47.25C29.281,44.874,27.56,42.33,26.356,39.465C26.112,38.887,26.158,38.506,26.63,38.033C28.183,36.533,29.702,34.999,31.226,33.46L31.226,33.46L31.993,32.686C34.476,30.188,34.476,27.263,31.978,24.749C31.269,24.033,30.561,23.325,29.853,22.617L29.852,22.616C29.144,21.908,28.436,21.199,27.727,20.483C27.24,19.996,26.754,19.507,26.268,19.018L26.268,19.018C25.296,18.039,24.325,17.061,23.34,16.096C20.948,13.765,17.962,13.765,15.585,16.111C14.854,16.83,14.135,17.557,13.416,18.283L13.416,18.283C12.338,19.372,11.262,20.459,10.147,21.519C8.425,23.149,7.557,25.145,7.374,27.476C7.084,31.269,8.014,34.85,9.324,38.338C12.005,45.559,16.088,51.973,21.039,57.854C27.727,65.806,35.71,72.098,45.049,76.638C49.253,78.679,53.61,80.248,58.349,80.507C61.608,80.69,64.442,79.867,66.712,77.323C67.733,76.182,68.84,75.106,69.946,74.031L69.946,74.031C70.523,73.471,71.099,72.91,71.663,72.341C74.101,69.873,74.116,66.888,71.694,64.45C68.799,61.54,65.889,58.646,62.98,55.751ZM60.07,43.609L65.691,42.65C64.808,37.485,62.37,32.808,58.668,29.091C54.753,25.176,49.802,22.708,44.348,21.946L43.556,27.598C47.776,28.192,51.615,30.096,54.646,33.128C57.51,35.992,59.384,39.618,60.07,43.609ZM60.07,43.609"/>
</g>
  <g id="Regular-S" transform="matrix(1.0,0.0,0.0,1.0,1407.2047218040902,616.8447413353404)">  <path fill="#000000" clip-rule="evenodd" stroke-linejoin="miter" stroke-dasharray="none" stroke-linecap="butt" stroke="none" fill-opacity="1" fill-rule="evenodd" stroke-width="1px" stroke-miterlimit="4" stroke-opacity="1" d="M45.094,7.321C54.159,8.585,62.37,12.683,68.86,19.173C75.015,25.343,79.052,33.113,80.53,41.674L74.908,42.634C73.644,35.246,70.155,28.527,64.838,23.21C59.232,17.619,52.133,14.07,44.302,12.973L45.094,7.321ZM62.98,55.751C60.588,53.39,57.602,53.39,55.225,55.751C53.412,57.549,51.599,59.346,49.817,61.175C49.33,61.677,48.918,61.784,48.324,61.449C47.859,61.195,47.383,60.961,46.906,60.727C46.18,60.37,45.455,60.013,44.775,59.59C39.518,56.284,35.116,52.034,31.216,47.25C29.281,44.874,27.56,42.33,26.356,39.465C26.112,38.887,26.158,38.506,26.63,38.033C28.183,36.533,29.702,34.999,31.226,33.46L31.226,33.46L31.993,32.686C34.476,30.188,34.476,27.263,31.978,24.749C31.269,24.033,30.561,23.325,29.853,22.617L29.852,22.616C29.144,21.908,28.436,21.199,27.727,20.483C27.24,19.996,26.754,19.507,26.268,19.018L26.268,19.018C25.296,18.039,24.325,17.061,23.34,16.096C20.948,13.765,17.962,13.765,15.585,16.111C14.854,16.83,14.135,17.557,13.416,18.283L13.416,18.283C12.338,19.372,11.262,20.459,10.147,21.519C8.425,23.149,7.557,25.145,7.374,27.476C7.084,31.269,8.014,34.85,9.324,38.338C12.005,45.559,16.088,51.973,21.039,57.854C27.727,65.806,35.71,72.098,45.049,76.638C49.253,78.679,53.61,80.248,58.349,80.507C61.608,80.69,64.442,79.867,66.712,77.323C67.733,76.182,68.84,75.106,69.946,74.031L69.946,74.031C70.523,73.471,71.099,72.91,71.663,72.341C74.101,69.873,74.116,66.888,71.694,64.45C68.799,61.54,65.889,58.646,62.98,55.751ZM60.07,43.609L65.691,42.65C64.808,37.485,62.37,32.808,58.668,29.091C54.753,25.176,49.802,22.708,44.348,21.946L43.556,27.598C47.776,28.192,51.615,30.096,54.646,33.128C57.51,35.992,59.384,39.618,60.07,43.609ZM60.07,43.609"/>
</g>
  <g id="Light-S" transform="matrix(1.0,0.0,0.0,1.0,1110.4947218040904,616.8447413353404)">  <path stroke="none" fill-opacity="1" stroke-linecap="butt" stroke-width="1px" stroke-miterlimit="4" stroke-linejoin="miter" stroke-opacity="1" clip-rule="evenodd" stroke-dasharray="none" fill-rule="evenodd" fill="#000000" d="M45.094,7.321C54.159,8.585,62.37,12.683,68.86,19.173C75.015,25.343,79.052,33.113,80.53,41.674L74.908,42.634C73.644,35.246,70.155,28.527,64.838,23.21C59.232,17.619,52.133,14.07,44.302,12.973L45.094,7.321ZM62.98,55.751C60.588,53.39,57.602,53.39,55.225,55.751C53.412,57.549,51.599,59.346,49.817,61.175C49.33,61.677,48.918,61.784,48.324,61.449C47.859,61.195,47.383,60.961,46.906,60.727C46.18,60.37,45.455,60.013,44.775,59.59C39.518,56.284,35.116,52.034,31.216,47.25C29.281,44.874,27.56,42.33,26.356,39.465C26.112,38.887,26.158,38.506,26.63,38.033C28.183,36.533,29.702,34.999,31.226,33.46L31.226,33.46L31.993,32.686C34.476,30.188,34.476,27.263,31.978,24.749C31.269,24.033,30.561,23.325,29.853,22.617L29.852,22.616C29.144,21.908,28.436,21.199,27.727,20.483C27.24,19.996,26.754,19.507,26.268,19.018L26.268,19.018C25.296,18.039,24.325,17.061,23.34,16.096C20.948,13.765,17.962,13.765,15.585,16.111C14.854,16.83,14.135,17.557,13.416,18.283L13.416,18.283C12.338,19.372,11.262,20.459,10.147,21.519C8.425,23.149,7.557,25.145,7.374,27.476C7.084,31.269,8.014,34.85,9.324,38.338C12.005,45.559,16.088,51.973,21.039,57.854C27.727,65.806,35.71,72.098,45.049,76.638C49.253,78.679,53.61,80.248,58.349,80.507C61.608,80.69,64.442,79.867,66.712,77.323C67.733,76.182,68.84,75.106,69.946,74.031L69.946,74.031C70.523,73.471,71.099,72.91,71.663,72.341C74.101,69.873,74.116,66.888,71.694,64.45C68.799,61.54,65.889,58.646,62.98,55.751ZM60.07,43.609L65.691,42.65C64.808,37.485,62.37,32.808,58.668,29.091C54.753,25.176,49.802,22.708,44.348,21.946L43.556,27.598C47.776,28.192,51.615,30.096,54.646,33.128C57.51,35.992,59.384,39.618,60.07,43.609ZM60.07,43.609"/>
</g>
  <g id="Thin-S" transform="matrix(1.0,0.0,0.0,1.0,813.7847218040904,616.8447413353404)">  <path stroke-linecap="butt" stroke="none" fill-opacity="1" stroke-width="1px" stroke-miterlimit="4" clip-rule="evenodd" stroke-opacity="1" stroke-linejoin="miter" fill="#000000" stroke-dasharray="none" fill-rule="evenodd" d="M45.094,7.321C54.159,8.585,62.37,12.683,68.86,19.173C75.015,25.343,79.052,33.113,80.53,41.674L74.908,42.634C73.644,35.246,70.155,28.527,64.838,23.21C59.232,17.619,52.133,14.07,44.302,12.973L45.094,7.321ZM62.98,55.751C60.588,53.39,57.602,53.39,55.225,55.751C53.412,57.549,51.599,59.346,49.817,61.175C49.33,61.677,48.918,61.784,48.324,61.449C47.859,61.195,47.383,60.961,46.906,60.727C46.18,60.37,45.455,60.013,44.775,59.59C39.518,56.284,35.116,52.034,31.216,47.25C29.281,44.874,27.56,42.33,26.356,39.465C26.112,38.887,26.158,38.506,26.63,38.033C28.183,36.533,29.702,34.999,31.226,33.46L31.226,33.46L31.993,32.686C34.476,30.188,34.476,27.263,31.978,24.749C31.269,24.033,30.561,23.325,29.853,22.617L29.852,22.616C29.144,21.908,28.436,21.199,27.727,20.483C27.24,19.996,26.754,19.507,26.268,19.018L26.268,19.018C25.296,18.039,24.325,17.061,23.34,16.096C20.948,13.765,17.962,13.765,15.585,16.111C14.854,16.83,14.135,17.557,13.416,18.283L13.416,18.283C12.338,19.372,11.262,20.459,10.147,21.519C8.425,23.149,7.557,25.145,7.374,27.476C7.084,31.269,8.014,34.85,9.324,38.338C12.005,45.559,16.088,51.973,21.039,57.854C27.727,65.806,35.71,72.098,45.049,76.638C49.253,78.679,53.61,80.248,58.349,80.507C61.608,80.69,64.442,79.867,66.712,77.323C67.733,76.182,68.84,75.106,69.946,74.031L69.946,74.031C70.523,73.471,71.099,72.91,71.663,72.341C74.101,69.873,74.116,66.888,71.694,64.45C68.799,61.54,65.889,58.646,62.98,55.751ZM60.07,43.609L65.691,42.65C64.808,37.485,62.37,32.808,58.668,29.091C54.753,25.176,49.802,22.708,44.348,21.946L43.556,27.598C47.776,28.192,51.615,30.096,54.646,33.128C57.51,35.992,59.384,39.618,60.07,43.609ZM60.07,43.609"/>
</g>
  <g id="Ultralight-S" transform="matrix(1.0,0.0,0.0,1.0,517.0747218040904,616.8447413353404)">  <path fill-opacity="1" stroke-linejoin="miter" clip-rule="evenodd" stroke-opacity="1" stroke="none" fill="#000000" stroke-dasharray="none" fill-rule="evenodd" stroke-width="1px" stroke-linecap="butt" stroke-miterlimit="4" d="M45.094,7.321C54.159,8.585,62.37,12.683,68.86,19.173C75.015,25.343,79.052,33.113,80.53,41.674L74.908,42.634C73.644,35.246,70.155,28.527,64.838,23.21C59.232,17.619,52.133,14.07,44.302,12.973L45.094,7.321ZM62.98,55.751C60.588,53.39,57.602,53.39,55.225,55.751C53.412,57.549,51.599,59.346,49.817,61.175C49.33,61.677,48.918,61.784,48.324,61.449C47.859,61.195,47.383,60.961,46.906,60.727C46.18,60.37,45.455,60.013,44.775,59.59C39.518,56.284,35.116,52.034,31.216,47.25C29.281,44.874,27.56,42.33,26.356,39.465C26.112,38.887,26.158,38.506,26.63,38.033C28.183,36.533,29.702,34.999,31.226,33.46L31.226,33.46L31.993,32.686C34.476,30.188,34.476,27.263,31.978,24.749C31.269,24.033,30.561,23.325,29.853,22.617L29.852,22.616C29.144,21.908,28.436,21.199,27.727,20.483C27.24,19.996,26.754,19.507,26.268,19.018L26.268,19.018C25.296,18.039,24.325,17.061,23.34,16.096C20.948,13.765,17.962,13.765,15.585,16.111C14.854,16.83,14.135,17.557,13.416,18.283L13.416,18.283C12.338,19.372,11.262,20.459,10.147,21.519C8.425,23.149,7.557,25.145,7.374,27.476C7.084,31.269,8.014,34.85,9.324,38.338C12.005,45.559,16.088,51.973,21.039,57.854C27.727,65.806,35.71,72.098,45.049,76.638C49.253,78.679,53.61,80.248,58.349,80.507C61.608,80.69,64.442,79.867,66.712,77.323C67.733,76.182,68.84,75.106,69.946,74.031L69.946,74.031C70.523,73.471,71.099,72.91,71.663,72.341C74.101,69.873,74.116,66.888,71.694,64.45C68.799,61.54,65.889,58.646,62.98,55.751ZM60.07,43.609L65.691,42.65C64.808,37.485,62.37,32.808,58.668,29.091C54.753,25.176,49.802,22.708,44.348,21.946L43.556,27.598C47.776,28.192,51.615,30.096,54.646,33.128C57.51,35.992,59.384,39.618,60.07,43.609ZM60.07,43.609"/>
</g>
 </g>
</svg>
