<?xml version="1.0" encoding="UTF-8"?>
<!-- Generator: CustomSymbols v2.6.1.40 by @serious_bret https://bretlester.com/app_content/CustomSymbols/ -->
<!-- Guides: Left/Right 0.079/0.081 Cap/Base 0.22/0.22 -->
<!-- Settings: RefScale 1.0 Min/Max Stroke Scales 0.5/2.21 -->
<!DOCTYPE svg
PUBLIC "-//W3C//DTD SVG 1.1//EN"
       "http://www.w3.org/Graphics/SVG/1.1/DTD/svg11.dtd">
<svg version="1.1" xmlns="http://www.w3.org/2000/svg" xmlns:xlink="http://www.w3.org/1999/xlink" width="3300" height="2200">
<![CDATA[<svg width="24" height="24" viewBox="0 0 24 24" fill="none" xmlns="http://www.w3.org/2000/svg">
<path d="M8.41661 10.4167C8.02768 10.8056 7.55552 10.9999 6.99987 10.9999C6.44435 10.9999 5.97219 10.8055 5.58326 10.4167C5.19434 10.0279 5 9.55556 5 9.00003C5 8.44438 5.19446 7.97221 5.58326 7.58327C5.97219 7.19447 6.44435 7 6.99987 7C7.55552 7 8.02768 7.19447 8.41661 7.58327C8.80528 7.97221 8.99987 8.44438 8.99987 9.00003C8.99987 9.55556 8.80541 10.0277 8.41661 10.4167ZM10.0225 14.0353L15.0442 9L19 13.0145V17H5V16.0154L8.01746 13.0145L10.0225 14.0353ZM3 4H21C21.5523 4 22 4.44772 22 5V19C22 19.5523 21.5523 20 21 20H3C2.44772 20 2 19.5523 2 19V5C2 4.44772 2.44772 4 3 4ZM4 6V18H20V6H4Z" fill="black"/>
</svg>
]]>
 <g id="Notes">
  <rect height="2200" id="artboard" style="fill:white;opacity:1" width="3300" x="0" y="0"/>
  <line id="" style="fill:none;stroke:black;opacity:1;stroke-width:0.5;" x1="263" x2="3036" y1="292" y2="292"/>
  <text id="reftext1" style="stroke:none;fill:black;font-family:-apple-system,&quot;SF Pro Display&quot;,&quot;SF Pro Text&quot;,Helvetica,sans-serif;font-weight:bold;" transform="matrix(1 0 0 1 263 322)">Weight/Scale Variations</text>
  <text id="reftext2" style="stroke:none;fill:black;font-family:-apple-system,&quot;SF Pro Display&quot;,&quot;SF Pro Text&quot;,Helvetica,sans-serif;text-anchor:middle;" transform="matrix(1 0 0 1 559.711 322)">Ultralight</text>
  <text style="stroke:none;fill:black;font-family:-apple-system,&quot;SF Pro Display&quot;,&quot;SF Pro Text&quot;,Helvetica,sans-serif;text-anchor:middle;" transform="matrix(1 0 0 1 856.422 322)">Thin</text>
  <text style="stroke:none;fill:black;font-family:-apple-system,&quot;SF Pro Display&quot;,&quot;SF Pro Text&quot;,Helvetica,sans-serif;text-anchor:middle;" transform="matrix(1 0 0 1 1153.13 322)">Light</text>
  <text style="stroke:none;fill:black;font-family:-apple-system,&quot;SF Pro Display&quot;,&quot;SF Pro Text&quot;,Helvetica,sans-serif;text-anchor:middle;" transform="matrix(1 0 0 1 1449.84 322)">Regular</text>
  <text style="stroke:none;fill:black;font-family:-apple-system,&quot;SF Pro Display&quot;,&quot;SF Pro Text&quot;,Helvetica,sans-serif;text-anchor:middle;" transform="matrix(1 0 0 1 1746.56 322)">Medium</text>
  <text style="stroke:none;fill:black;font-family:-apple-system,&quot;SF Pro Display&quot;,&quot;SF Pro Text&quot;,Helvetica,sans-serif;text-anchor:middle;" transform="matrix(1 0 0 1 2043.27 322)">Semibold</text>
  <text style="stroke:none;fill:black;font-family:-apple-system,&quot;SF Pro Display&quot;,&quot;SF Pro Text&quot;,Helvetica,sans-serif;text-anchor:middle;" transform="matrix(1 0 0 1 2339.98 322)">Bold</text>
  <text style="stroke:none;fill:black;font-family:-apple-system,&quot;SF Pro Display&quot;,&quot;SF Pro Text&quot;,Helvetica,sans-serif;text-anchor:middle;" transform="matrix(1 0 0 1 2636.69 322)">Heavy</text>
  <text style="stroke:none;fill:black;font-family:-apple-system,&quot;SF Pro Display&quot;,&quot;SF Pro Text&quot;,Helvetica,sans-serif;text-anchor:middle;" transform="matrix(1 0 0 1 2933.4 322)">Black</text>
  <line id="" style="fill:none;stroke:black;opacity:1;stroke-width:0.5;" x1="263" x2="3036" y1="1903" y2="1903"/>
  <g id="" transform="matrix(1 0 0 1 263 1933)">
   <path d="M9.24805 0.830078C13.5547 0.830078 17.1387-2.74414 17.1387-7.05078C17.1387-11.3574 13.5449-14.9316 9.23828-14.9316C4.94141-14.9316 1.36719-11.3574 1.36719-7.05078C1.36719-2.74414 4.95117 0.830078 9.24805 0.830078ZM9.24805-0.654297C5.70312-0.654297 2.87109-3.49609 2.87109-7.05078C2.87109-10.6055 5.69336-13.4473 9.23828-13.4473C12.793-13.4473 15.6348-10.6055 15.6445-7.05078C15.6543-3.49609 12.8027-0.654297 9.24805-0.654297ZM6.39648-6.31836L8.50586-6.31836L8.50586-4.19922C8.50586-3.75977 8.79883-3.45703 9.22852-3.45703C9.67773-3.45703 9.9707-3.75977 9.9707-4.19922L9.9707-6.31836L12.0996-6.31836C12.5391-6.31836 12.8418-6.61133 12.8418-7.04102C12.8418-7.48047 12.5391-7.7832 12.0996-7.7832L9.9707-7.7832L9.9707-9.89258C9.9707-10.3418 9.67773-10.6445 9.22852-10.6445C8.79883-10.6445 8.50586-10.3418 8.50586-9.89258L8.50586-7.7832L6.39648-7.7832C5.94727-7.7832 5.64453-7.48047 5.64453-7.04102C5.64453-6.61133 5.94727-6.31836 6.39648-6.31836Z"/>
  </g>
  <g id="" transform="matrix(1 0 0 1 281.506 1933)">
   <path d="M11.709 2.91016C17.1582 2.91016 21.6699-1.61133 21.6699-7.05078C21.6699-12.5 17.1484-17.0117 11.6992-17.0117C6.25977-17.0117 1.74805-12.5 1.74805-7.05078C1.74805-1.61133 6.26953 2.91016 11.709 2.91016ZM11.709 1.25C7.09961 1.25 3.41797-2.44141 3.41797-7.05078C3.41797-11.6602 7.08984-15.3516 11.6992-15.3516C16.3086-15.3516 20-11.6602 20.0098-7.05078C20.0195-2.44141 16.3184 1.25 11.709 1.25ZM7.98828-6.23047L10.8789-6.23047L10.8789-3.32031C10.8789-2.83203 11.2109-2.5 11.6895-2.5C12.1777-2.5 12.5195-2.83203 12.5195-3.32031L12.5195-6.23047L15.4297-6.23047C15.918-6.23047 16.25-6.5625 16.25-7.04102C16.25-7.5293 15.918-7.87109 15.4297-7.87109L12.5195-7.87109L12.5195-10.7617C12.5195-11.2695 12.1777-11.6016 11.6895-11.6016C11.2109-11.6016 10.8789-11.2598 10.8789-10.7617L10.8789-7.87109L7.98828-7.87109C7.48047-7.87109 7.14844-7.5293 7.14844-7.04102C7.14844-6.5625 7.49023-6.23047 7.98828-6.23047Z"/>
  </g>
  <g id="" transform="matrix(1 0 0 1 304.924 1933)">
   <path d="M14.9707 5.66406C21.9336 5.66406 27.6953-0.0976562 27.6953-7.05078C27.6953-14.0137 21.9238-19.7754 14.9609-19.7754C8.00781-19.7754 2.25586-14.0137 2.25586-7.05078C2.25586-0.0976562 8.01758 5.66406 14.9707 5.66406ZM14.9707 3.84766C8.93555 3.84766 4.08203-1.01562 4.08203-7.05078C4.08203-13.0957 8.92578-17.9492 14.9609-17.9492C21.0059-17.9492 25.8594-13.0957 25.8691-7.05078C25.8789-1.01562 21.0156 3.84766 14.9707 3.84766ZM10.0586-6.14258L14.0625-6.14258L14.0625-2.12891C14.0625-1.5918 14.4336-1.2207 14.9512-1.2207C15.4883-1.2207 15.8594-1.5918 15.8594-2.12891L15.8594-6.14258L19.8828-6.14258C20.4102-6.14258 20.791-6.51367 20.791-7.03125C20.791-7.56836 20.4199-7.94922 19.8828-7.94922L15.8594-7.94922L15.8594-11.9531C15.8594-12.5098 15.4883-12.8809 14.9512-12.8809C14.4336-12.8809 14.0625-12.5 14.0625-11.9531L14.0625-7.94922L10.0586-7.94922C9.50195-7.94922 9.13086-7.56836 9.13086-7.03125C9.13086-6.51367 9.51172-6.14258 10.0586-6.14258Z"/>
  </g>
  <text style="stroke:none;fill:black;font-family:-apple-system,&quot;SF Pro Display&quot;,&quot;SF Pro Text&quot;,Helvetica,sans-serif;font-weight:bold;" transform="matrix(1 0 0 1 263 1953)">Design Variations</text>
  <text style="stroke:none;fill:black;font-family:-apple-system,&quot;SF Pro Display&quot;,&quot;SF Pro Text&quot;,Helvetica,sans-serif;" transform="matrix(1 0 0 1 263 1971)">Symbols are supported in up to nine weights and three scales.</text>
  <text style="stroke:none;fill:black;font-family:-apple-system,&quot;SF Pro Display&quot;,&quot;SF Pro Text&quot;,Helvetica,sans-serif;" transform="matrix(1 0 0 1 263 1989)">For optimal layout with text and other symbols, vertically align</text>
  <text style="stroke:none;fill:black;font-family:-apple-system,&quot;SF Pro Display&quot;,&quot;SF Pro Text&quot;,Helvetica,sans-serif;" transform="matrix(1 0 0 1 263 2007)">symbols with the adjacent text.</text>
  <line id="" style="fill:none;stroke:#00AEEF;stroke-width:0.5;opacity:1.0;" x1="776" x2="776" y1="1919" y2="1933"/>
  <g id="" transform="matrix(1 0 0 1 776 1933)">
   <path d="M3.31055 0.126953C3.82812 0.126953 4.08203-0.0683594 4.26758-0.605469L5.52734-4.0625L11.2891-4.0625L12.5488-0.605469C12.7344-0.0683594 12.9883 0.126953 13.4961 0.126953C14.0137 0.126953 14.3457-0.185547 14.3457-0.673828C14.3457-0.839844 14.3164-0.986328 14.2383-1.20117L9.6582-13.3887C9.43359-13.9941 9.0332-14.2871 8.4082-14.2871C7.80273-14.2871 7.39258-13.9941 7.17773-13.3984L2.59766-1.19141C2.51953-0.976562 2.49023-0.830078 2.49023-0.664062C2.49023-0.175781 2.80273 0.126953 3.31055 0.126953ZM6.00586-5.53711L8.37891-12.1094L8.42773-12.1094L10.8008-5.53711Z"/>
  </g>
  <line id="" style="fill:none;stroke:#00AEEF;stroke-width:0.5;opacity:1.0;" x1="792.836" x2="792.836" y1="1919" y2="1933"/>
  <text style="stroke:none;fill:black;font-family:-apple-system,&quot;SF Pro Display&quot;,&quot;SF Pro Text&quot;,Helvetica,sans-serif;font-weight:bold;" transform="matrix(1 0 0 1 776 1953)">Margins</text>
  <text style="stroke:none;fill:black;font-family:-apple-system,&quot;SF Pro Display&quot;,&quot;SF Pro Text&quot;,Helvetica,sans-serif;" transform="matrix(1 0 0 1 776 1971)">Leading and trailing margins on the left and right side of each symbol</text>
  <text style="stroke:none;fill:black;font-family:-apple-system,&quot;SF Pro Display&quot;,&quot;SF Pro Text&quot;,Helvetica,sans-serif;" transform="matrix(1 0 0 1 776 1989)">can be adjusted by modifying the x-location of the margin guidelines.</text>
  <text style="stroke:none;fill:black;font-family:-apple-system,&quot;SF Pro Display&quot;,&quot;SF Pro Text&quot;,Helvetica,sans-serif;" transform="matrix(1 0 0 1 776 2007)">Modifications are automatically applied proportionally to all</text>
  <text style="stroke:none;fill:black;font-family:-apple-system,&quot;SF Pro Display&quot;,&quot;SF Pro Text&quot;,Helvetica,sans-serif;" transform="matrix(1 0 0 1 776 2025)">scales and weights.</text>
  <g id="" transform="matrix(1 0 0 1 1289 1933)">
   <path d="M2.8418 1.86523L4.54102 3.57422C5.40039 4.44336 6.38672 4.38477 7.31445 3.35938L17.4902-7.85156C17.7539-7.76367 18.0273-7.7832 18.3398-7.8418L19.4043-8.03711L20.0684-7.36328L20.0293-6.80664C19.9902-6.30859 20.1172-5.92773 20.6055-5.44922L21.3672-4.70703C21.8457-4.22852 22.4609-4.19922 22.9297-4.66797L25.8398-7.58789C26.3086-8.05664 26.2891-8.65234 25.8105-9.13086L25.0391-9.89258C24.5605-10.3711 24.1895-10.5273 23.7109-10.4883L23.1348-10.4395L22.4902-11.0742L22.7344-12.1973C22.8613-12.7637 22.7051-13.2031 22.1191-13.7891L19.9219-15.9766C16.582-19.2969 12.1484-19.2188 9.25781-16.3281C8.83789-15.918 8.80859-15.3418 9.04297-14.9512C9.27734-14.5898 9.73633-14.3555 10.3809-14.5215C11.8457-14.8633 13.3691-14.9219 14.7949-13.9844L14.209-12.5293C14.0137-12.0508 13.9844-11.6504 14.1113-11.2891L3.04688-0.898438C2.06055 0.0195312 1.98242 0.996094 2.8418 1.86523ZM10.752-15.957C13.1836-17.7344 16.4746-17.4316 18.7012-15.2051L21.1328-12.793C21.3672-12.5586 21.4062-12.373 21.3379-12.0312L21.0156-10.5469L22.5195-9.0625L23.5059-9.12109C23.7598-9.13086 23.8379-9.11133 24.0332-8.91602L24.6094-8.33984L22.168-5.89844L21.5918-6.47461C21.3965-6.66992 21.3672-6.74805 21.377-7.01172L21.4453-7.98828L19.9512-9.47266L18.4277-9.21875C18.1055-9.15039 17.959-9.17969 17.7148-9.41406L15.7129-11.416C15.459-11.6504 15.4297-11.8164 15.5859-12.1875L16.4648-14.2773C14.9023-15.7324 12.8711-16.3574 10.8398-15.7617C10.6836-15.7227 10.625-15.8496 10.752-15.957ZM5.27344 2.30469L4.10156 1.14258C3.63281 0.683594 3.74023 0.341797 4.14062-0.0195312L14.9512-10.1953L16.416-8.71094L6.42578 2.27539C6.07422 2.67578 5.74219 2.77344 5.27344 2.30469Z"/>
  </g>
  <text style="stroke:none;fill:black;font-family:-apple-system,&quot;SF Pro Display&quot;,&quot;SF Pro Text&quot;,Helvetica,sans-serif;font-weight:bold;" transform="matrix(1 0 0 1 1289 1953)">Exporting</text>
  <text style="stroke:none;fill:black;font-family:-apple-system,&quot;SF Pro Display&quot;,&quot;SF Pro Text&quot;,Helvetica,sans-serif;" transform="matrix(1 0 0 1 1289 1971)">Symbols should be outlined when exporting to ensure the</text>
  <text style="stroke:none;fill:black;font-family:-apple-system,&quot;SF Pro Display&quot;,&quot;SF Pro Text&quot;,Helvetica,sans-serif;" transform="matrix(1 0 0 1 1289 1989)">design is preserved when submitting to Xcode.</text>
  <text id="template-version" style="stroke:none;fill:black;font-family:-apple-system,&quot;SF Pro Display&quot;,&quot;SF Pro Text&quot;,Helvetica,sans-serif;text-anchor:end;" transform="matrix(1 0 0 1 3036 1933)">Template v.2.0</text>
  <text style="stroke:none;fill:black;font-family:-apple-system,&quot;SF Pro Display&quot;,&quot;SF Pro Text&quot;,Helvetica,sans-serif;text-anchor:end;" transform="matrix(1 0 0 1 3036 1951)">Requires Xcode 12 or greater</text>
  <text style="stroke:none;fill:black;font-family:-apple-system,&quot;SF Pro Display&quot;,&quot;SF Pro Text&quot;,Helvetica,sans-serif;" transform="matrix(1 0 0 1 263 726)">Small</text>
  <text style="stroke:none;fill:black;font-family:-apple-system,&quot;SF Pro Display&quot;,&quot;SF Pro Text&quot;,Helvetica,sans-serif;" transform="matrix(1 0 0 1 263 1156)">Medium</text>
  <text style="stroke:none;fill:black;font-family:-apple-system,&quot;SF Pro Display&quot;,&quot;SF Pro Text&quot;,Helvetica,sans-serif;" transform="matrix(1 0 0 1 263 1586)">Large</text>
 </g>
 <g id="Guides">
  <g id="H-reference" style="fill:#27AAE1;stroke:none;" transform="matrix(1 0 0 1 339 696)">
   <path d="M0.976562 0L3.66211 0L12.9883-24.4629L45.752-24.4629L55.127 0L57.7637 0L30.6152-70.459L28.125-70.459ZM29.3457-67.1387L29.4434-67.1387L44.873-26.709L13.8672-26.709Z"/>
  </g>
  <line id="Baseline-S" style="fill:none;stroke:#27AAE1;opacity:1;stroke-width:0.5;" x1="263" x2="3036" y1="696" y2="696"/>
  <line id="Capline-S" style="fill:none;stroke:#27AAE1;opacity:1;stroke-width:0.5;" x1="263" x2="3036" y1="625.541" y2="625.541"/>
  <g id="H-reference" style="fill:#27AAE1;stroke:none;" transform="matrix(1 0 0 1 339 1126)">
   <path d="M0.976562 0L3.66211 0L12.9883-24.4629L45.752-24.4629L55.127 0L57.7637 0L30.6152-70.459L28.125-70.459ZM29.3457-67.1387L29.4434-67.1387L44.873-26.709L13.8672-26.709Z"/>
  </g>
  <line id="Baseline-M" style="fill:none;stroke:#27AAE1;opacity:1;stroke-width:0.5;" x1="263" x2="3036" y1="1126" y2="1126"/>
  <line id="Capline-M" style="fill:none;stroke:#27AAE1;opacity:1;stroke-width:0.5;" x1="263" x2="3036" y1="1055.54" y2="1055.54"/>
  <g id="H-reference" style="fill:#27AAE1;stroke:none;" transform="matrix(1 0 0 1 339 1556)">
   <path d="M0.976562 0L3.66211 0L12.9883-24.4629L45.752-24.4629L55.127 0L57.7637 0L30.6152-70.459L28.125-70.459ZM29.3457-67.1387L29.4434-67.1387L44.873-26.709L13.8672-26.709Z"/>
  </g>
  <line id="Baseline-L" style="fill:none;stroke:#27AAE1;opacity:1;stroke-width:0.5;" x1="263" x2="3036" y1="1556" y2="1556"/>
  <line id="Capline-L" style="fill:none;stroke:#27AAE1;opacity:1;stroke-width:0.5;" x1="263" x2="3036" y1="1485.54" y2="1485.54"/>
  <line id="left-margin" x1="1398.159207938058" x2="1398.159207938058" y1="1030.79" y2="1150.12" style="fill:none;stroke:#00AEEF;stroke-width:0.5;opacity:1.0;"/>
  <line id="right-margin" x1="1503.849149344308" x2="1503.849149344308" y1="1030.79" y2="1150.12" style="fill:none;stroke:#00AEEF;stroke-width:0.5;opacity:1.0;"/>
 </g>
 <g id="Symbols">
  <g id="Black-L" transform="matrix(1.0,0.0,0.0,1.0,2853.525223563058,1439.615243094308)">  <path stroke-linecap="butt" stroke-opacity="1" stroke-miterlimit="4" stroke-linejoin="miter" fill="#000000" fill-opacity="1" stroke="none" stroke-width="1px" fill-rule="nonzero" stroke-dasharray="none" d="M56.921,70.447C54.29,73.077,51.097,74.391,47.339,74.391C43.582,74.391,40.389,73.076,37.759,70.447C35.129,67.818,33.814,64.623,33.814,60.866C33.814,57.108,35.13,53.915,37.759,51.285C40.389,48.655,43.582,47.34,47.339,47.34C51.097,47.34,54.29,48.655,56.921,51.285C59.549,53.915,60.865,57.108,60.865,60.866C60.865,64.623,59.55,67.816,56.921,70.447ZM67.781,94.919L101.742,60.866L128.495,88.016L128.495,114.969L33.814,114.969L33.814,108.311L54.221,88.016L67.781,94.919ZM20.289,27.052L142.021,27.052C145.756,27.052,148.784,30.079,148.784,33.814L148.784,128.495C148.784,132.23,145.756,135.258,142.021,135.258L20.289,135.258C16.554,135.258,13.526,132.23,13.526,128.495L13.526,33.814C13.526,30.079,16.554,27.052,20.289,27.052ZM27.052,40.577L27.052,121.732L135.258,121.732L135.258,40.577L27.052,40.577ZM27.052,40.577"/>
</g>
  <g id="Heavy-L" transform="matrix(1.0,0.0,0.0,1.0,2556.8152235630578,1439.615243094308)">  <path stroke-opacity="1" stroke="none" stroke-miterlimit="4" stroke-linejoin="miter" fill-opacity="1" stroke-width="1px" stroke-dasharray="none" fill-rule="nonzero" fill="#000000" stroke-linecap="butt" d="M56.921,70.447C54.29,73.077,51.097,74.391,47.339,74.391C43.582,74.391,40.389,73.076,37.759,70.447C35.129,67.818,33.814,64.623,33.814,60.866C33.814,57.108,35.13,53.915,37.759,51.285C40.389,48.655,43.582,47.34,47.339,47.34C51.097,47.34,54.29,48.655,56.921,51.285C59.549,53.915,60.865,57.108,60.865,60.866C60.865,64.623,59.55,67.816,56.921,70.447ZM67.781,94.919L101.742,60.866L128.495,88.016L128.495,114.969L33.814,114.969L33.814,108.311L54.221,88.016L67.781,94.919ZM20.289,27.052L142.021,27.052C145.756,27.052,148.784,30.079,148.784,33.814L148.784,128.495C148.784,132.23,145.756,135.258,142.021,135.258L20.289,135.258C16.554,135.258,13.526,132.23,13.526,128.495L13.526,33.814C13.526,30.079,16.554,27.052,20.289,27.052ZM27.052,40.577L27.052,121.732L135.258,121.732L135.258,40.577L27.052,40.577ZM27.052,40.577"/>
</g>
  <g id="Bold-L" transform="matrix(1.0,0.0,0.0,1.0,2260.1052235630577,1439.615243094308)">  <path fill="#000000" fill-rule="nonzero" stroke-opacity="1" stroke-linecap="butt" stroke-linejoin="miter" stroke-width="1px" stroke-miterlimit="4" stroke-dasharray="none" stroke="none" fill-opacity="1" d="M56.921,70.447C54.29,73.077,51.097,74.391,47.339,74.391C43.582,74.391,40.389,73.076,37.759,70.447C35.129,67.818,33.814,64.623,33.814,60.866C33.814,57.108,35.13,53.915,37.759,51.285C40.389,48.655,43.582,47.34,47.339,47.34C51.097,47.34,54.29,48.655,56.921,51.285C59.549,53.915,60.865,57.108,60.865,60.866C60.865,64.623,59.55,67.816,56.921,70.447ZM67.781,94.919L101.742,60.866L128.495,88.016L128.495,114.969L33.814,114.969L33.814,108.311L54.221,88.016L67.781,94.919ZM20.289,27.052L142.021,27.052C145.756,27.052,148.784,30.079,148.784,33.814L148.784,128.495C148.784,132.23,145.756,135.258,142.021,135.258L20.289,135.258C16.554,135.258,13.526,132.23,13.526,128.495L13.526,33.814C13.526,30.079,16.554,27.052,20.289,27.052ZM27.052,40.577L27.052,121.732L135.258,121.732L135.258,40.577L27.052,40.577ZM27.052,40.577"/>
</g>
  <g id="Semibold-L" transform="matrix(1.0,0.0,0.0,1.0,1963.395223563058,1439.615243094308)">  <path fill-opacity="1" stroke-dasharray="none" stroke-width="1px" stroke="none" fill-rule="nonzero" stroke-opacity="1" stroke-linecap="butt" stroke-linejoin="miter" stroke-miterlimit="4" fill="#000000" d="M56.921,70.447C54.29,73.077,51.097,74.391,47.339,74.391C43.582,74.391,40.389,73.076,37.759,70.447C35.129,67.818,33.814,64.623,33.814,60.866C33.814,57.108,35.13,53.915,37.759,51.285C40.389,48.655,43.582,47.34,47.339,47.34C51.097,47.34,54.29,48.655,56.921,51.285C59.549,53.915,60.865,57.108,60.865,60.866C60.865,64.623,59.55,67.816,56.921,70.447ZM67.781,94.919L101.742,60.866L128.495,88.016L128.495,114.969L33.814,114.969L33.814,108.311L54.221,88.016L67.781,94.919ZM20.289,27.052L142.021,27.052C145.756,27.052,148.784,30.079,148.784,33.814L148.784,128.495C148.784,132.23,145.756,135.258,142.021,135.258L20.289,135.258C16.554,135.258,13.526,132.23,13.526,128.495L13.526,33.814C13.526,30.079,16.554,27.052,20.289,27.052ZM27.052,40.577L27.052,121.732L135.258,121.732L135.258,40.577L27.052,40.577ZM27.052,40.577"/>
</g>
  <g id="Medium-L" transform="matrix(1.0,0.0,0.0,1.0,1666.685223563058,1439.615243094308)">  <path stroke-dasharray="none" stroke-miterlimit="4" stroke-opacity="1" stroke-linejoin="miter" stroke="none" fill-opacity="1" stroke-width="1px" fill="#000000" fill-rule="nonzero" stroke-linecap="butt" d="M56.921,70.447C54.29,73.077,51.097,74.391,47.339,74.391C43.582,74.391,40.389,73.076,37.759,70.447C35.129,67.818,33.814,64.623,33.814,60.866C33.814,57.108,35.13,53.915,37.759,51.285C40.389,48.655,43.582,47.34,47.339,47.34C51.097,47.34,54.29,48.655,56.921,51.285C59.549,53.915,60.865,57.108,60.865,60.866C60.865,64.623,59.55,67.816,56.921,70.447ZM67.781,94.919L101.742,60.866L128.495,88.016L128.495,114.969L33.814,114.969L33.814,108.311L54.221,88.016L67.781,94.919ZM20.289,27.052L142.021,27.052C145.756,27.052,148.784,30.079,148.784,33.814L148.784,128.495C148.784,132.23,145.756,135.258,142.021,135.258L20.289,135.258C16.554,135.258,13.526,132.23,13.526,128.495L13.526,33.814C13.526,30.079,16.554,27.052,20.289,27.052ZM27.052,40.577L27.052,121.732L135.258,121.732L135.258,40.577L27.052,40.577ZM27.052,40.577"/>
</g>
  <g id="Regular-L" transform="matrix(1.0,0.0,0.0,1.0,1369.9752235630579,1439.615243094308)">  <path stroke-linejoin="miter" stroke-width="1px" fill-opacity="1" stroke-opacity="1" stroke="none" fill="#000000" fill-rule="nonzero" stroke-miterlimit="4" stroke-dasharray="none" stroke-linecap="butt" d="M56.921,70.447C54.29,73.077,51.097,74.391,47.339,74.391C43.582,74.391,40.389,73.076,37.759,70.447C35.129,67.818,33.814,64.623,33.814,60.866C33.814,57.108,35.13,53.915,37.759,51.285C40.389,48.655,43.582,47.34,47.339,47.34C51.097,47.34,54.29,48.655,56.921,51.285C59.549,53.915,60.865,57.108,60.865,60.866C60.865,64.623,59.55,67.816,56.921,70.447ZM67.781,94.919L101.742,60.866L128.495,88.016L128.495,114.969L33.814,114.969L33.814,108.311L54.221,88.016L67.781,94.919ZM20.289,27.052L142.021,27.052C145.756,27.052,148.784,30.079,148.784,33.814L148.784,128.495C148.784,132.23,145.756,135.258,142.021,135.258L20.289,135.258C16.554,135.258,13.526,132.23,13.526,128.495L13.526,33.814C13.526,30.079,16.554,27.052,20.289,27.052ZM27.052,40.577L27.052,121.732L135.258,121.732L135.258,40.577L27.052,40.577ZM27.052,40.577"/>
</g>
  <g id="Light-L" transform="matrix(1.0,0.0,0.0,1.0,1073.265223563058,1439.615243094308)">  <path fill="#000000" stroke-dasharray="none" fill-opacity="1" stroke-linejoin="miter" stroke="none" fill-rule="nonzero" stroke-width="1px" stroke-miterlimit="4" stroke-opacity="1" stroke-linecap="butt" d="M56.921,70.447C54.29,73.077,51.097,74.391,47.339,74.391C43.582,74.391,40.389,73.076,37.759,70.447C35.129,67.818,33.814,64.623,33.814,60.866C33.814,57.108,35.13,53.915,37.759,51.285C40.389,48.655,43.582,47.34,47.339,47.34C51.097,47.34,54.29,48.655,56.921,51.285C59.549,53.915,60.865,57.108,60.865,60.866C60.865,64.623,59.55,67.816,56.921,70.447ZM67.781,94.919L101.742,60.866L128.495,88.016L128.495,114.969L33.814,114.969L33.814,108.311L54.221,88.016L67.781,94.919ZM20.289,27.052L142.021,27.052C145.756,27.052,148.784,30.079,148.784,33.814L148.784,128.495C148.784,132.23,145.756,135.258,142.021,135.258L20.289,135.258C16.554,135.258,13.526,132.23,13.526,128.495L13.526,33.814C13.526,30.079,16.554,27.052,20.289,27.052ZM27.052,40.577L27.052,121.732L135.258,121.732L135.258,40.577L27.052,40.577ZM27.052,40.577"/>
</g>
  <g id="Thin-L" transform="matrix(1.0,0.0,0.0,1.0,776.5552235630581,1439.615243094308)">  <path stroke="none" stroke-opacity="1" stroke-linejoin="miter" stroke-miterlimit="4" stroke-linecap="butt" fill-rule="nonzero" fill="#000000" fill-opacity="1" stroke-width="1px" stroke-dasharray="none" d="M56.921,70.447C54.29,73.077,51.097,74.391,47.339,74.391C43.582,74.391,40.389,73.076,37.759,70.447C35.129,67.818,33.814,64.623,33.814,60.866C33.814,57.108,35.13,53.915,37.759,51.285C40.389,48.655,43.582,47.34,47.339,47.34C51.097,47.34,54.29,48.655,56.921,51.285C59.549,53.915,60.865,57.108,60.865,60.866C60.865,64.623,59.55,67.816,56.921,70.447ZM67.781,94.919L101.742,60.866L128.495,88.016L128.495,114.969L33.814,114.969L33.814,108.311L54.221,88.016L67.781,94.919ZM20.289,27.052L142.021,27.052C145.756,27.052,148.784,30.079,148.784,33.814L148.784,128.495C148.784,132.23,145.756,135.258,142.021,135.258L20.289,135.258C16.554,135.258,13.526,132.23,13.526,128.495L13.526,33.814C13.526,30.079,16.554,27.052,20.289,27.052ZM27.052,40.577L27.052,121.732L135.258,121.732L135.258,40.577L27.052,40.577ZM27.052,40.577"/>
</g>
  <g id="Ultralight-L" transform="matrix(1.0,0.0,0.0,1.0,479.845223563058,1439.615243094308)">  <path stroke="none" stroke-linecap="butt" stroke-linejoin="miter" stroke-dasharray="none" fill-rule="nonzero" fill="#000000" stroke-width="1px" stroke-miterlimit="4" fill-opacity="1" stroke-opacity="1" d="M56.921,70.447C54.29,73.077,51.097,74.391,47.339,74.391C43.582,74.391,40.389,73.076,37.759,70.447C35.129,67.818,33.814,64.623,33.814,60.866C33.814,57.108,35.13,53.915,37.759,51.285C40.389,48.655,43.582,47.34,47.339,47.34C51.097,47.34,54.29,48.655,56.921,51.285C59.549,53.915,60.865,57.108,60.865,60.866C60.865,64.623,59.55,67.816,56.921,70.447ZM67.781,94.919L101.742,60.866L128.495,88.016L128.495,114.969L33.814,114.969L33.814,108.311L54.221,88.016L67.781,94.919ZM20.289,27.052L142.021,27.052C145.756,27.052,148.784,30.079,148.784,33.814L148.784,128.495C148.784,132.23,145.756,135.258,142.021,135.258L20.289,135.258C16.554,135.258,13.526,132.23,13.526,128.495L13.526,33.814C13.526,30.079,16.554,27.052,20.289,27.052ZM27.052,40.577L27.052,121.732L135.258,121.732L135.258,40.577L27.052,40.577ZM27.052,40.577"/>
</g>
  <g id="Black-M" transform="matrix(1.0,0.0,0.0,1.0,2871.7693205915175,1027.859340122768)">  <path stroke-linecap="butt" stroke-opacity="1" stroke-miterlimit="4" stroke-linejoin="miter" fill="#000000" fill-opacity="1" stroke="none" stroke-width="1px" fill-rule="nonzero" stroke-dasharray="none" d="M44.125,54.61C42.086,56.649,39.61,57.668,36.697,57.668C33.785,57.668,31.31,56.648,29.271,54.61C27.232,52.572,26.213,50.096,26.213,47.183C26.213,44.27,27.232,41.795,29.271,39.756C31.31,37.717,33.785,36.698,36.697,36.698C39.61,36.698,42.086,37.717,44.125,39.756C46.162,41.795,47.182,44.27,47.182,47.183C47.182,50.096,46.163,52.571,44.125,54.61ZM52.544,73.581L78.87,47.183L99.609,68.229L99.609,89.123L26.213,89.123L26.213,83.962L42.032,68.229L52.544,73.581ZM15.728,20.97L110.094,20.97C112.989,20.97,115.336,23.317,115.336,26.213L115.336,99.609C115.336,102.504,112.989,104.851,110.094,104.851L15.728,104.851C12.832,104.851,10.485,102.504,10.485,99.609L10.485,26.213C10.485,23.317,12.832,20.97,15.728,20.97ZM20.97,31.455L20.97,94.366L104.851,94.366L104.851,31.455L20.97,31.455ZM20.97,31.455"/>
</g>
  <g id="Heavy-M" transform="matrix(1.0,0.0,0.0,1.0,2575.0593205915175,1027.859340122768)">  <path stroke-opacity="1" stroke="none" stroke-miterlimit="4" stroke-linejoin="miter" fill-opacity="1" stroke-width="1px" stroke-dasharray="none" fill-rule="nonzero" fill="#000000" stroke-linecap="butt" d="M44.125,54.61C42.086,56.649,39.61,57.668,36.697,57.668C33.785,57.668,31.31,56.648,29.271,54.61C27.232,52.572,26.213,50.096,26.213,47.183C26.213,44.27,27.232,41.795,29.271,39.756C31.31,37.717,33.785,36.698,36.697,36.698C39.61,36.698,42.086,37.717,44.125,39.756C46.162,41.795,47.182,44.27,47.182,47.183C47.182,50.096,46.163,52.571,44.125,54.61ZM52.544,73.581L78.87,47.183L99.609,68.229L99.609,89.123L26.213,89.123L26.213,83.962L42.032,68.229L52.544,73.581ZM15.728,20.97L110.094,20.97C112.989,20.97,115.336,23.317,115.336,26.213L115.336,99.609C115.336,102.504,112.989,104.851,110.094,104.851L15.728,104.851C12.832,104.851,10.485,102.504,10.485,99.609L10.485,26.213C10.485,23.317,12.832,20.97,15.728,20.97ZM20.97,31.455L20.97,94.366L104.851,94.366L104.851,31.455L20.97,31.455ZM20.97,31.455"/>
</g>
  <g id="Bold-M" transform="matrix(1.0,0.0,0.0,1.0,2278.3493205915174,1027.859340122768)">  <path fill="#000000" fill-rule="nonzero" stroke-opacity="1" stroke-linecap="butt" stroke-linejoin="miter" stroke-width="1px" stroke-miterlimit="4" stroke-dasharray="none" stroke="none" fill-opacity="1" d="M44.125,54.61C42.086,56.649,39.61,57.668,36.697,57.668C33.785,57.668,31.31,56.648,29.271,54.61C27.232,52.572,26.213,50.096,26.213,47.183C26.213,44.27,27.232,41.795,29.271,39.756C31.31,37.717,33.785,36.698,36.697,36.698C39.61,36.698,42.086,37.717,44.125,39.756C46.162,41.795,47.182,44.27,47.182,47.183C47.182,50.096,46.163,52.571,44.125,54.61ZM52.544,73.581L78.87,47.183L99.609,68.229L99.609,89.123L26.213,89.123L26.213,83.962L42.032,68.229L52.544,73.581ZM15.728,20.97L110.094,20.97C112.989,20.97,115.336,23.317,115.336,26.213L115.336,99.609C115.336,102.504,112.989,104.851,110.094,104.851L15.728,104.851C12.832,104.851,10.485,102.504,10.485,99.609L10.485,26.213C10.485,23.317,12.832,20.97,15.728,20.97ZM20.97,31.455L20.97,94.366L104.851,94.366L104.851,31.455L20.97,31.455ZM20.97,31.455"/>
</g>
  <g id="Semibold-M" transform="matrix(1.0,0.0,0.0,1.0,1981.6393205915178,1027.859340122768)">  <path fill-opacity="1" stroke-dasharray="none" stroke-width="1px" stroke="none" fill-rule="nonzero" stroke-opacity="1" stroke-linecap="butt" stroke-linejoin="miter" stroke-miterlimit="4" fill="#000000" d="M44.125,54.61C42.086,56.649,39.61,57.668,36.697,57.668C33.785,57.668,31.31,56.648,29.271,54.61C27.232,52.572,26.213,50.096,26.213,47.183C26.213,44.27,27.232,41.795,29.271,39.756C31.31,37.717,33.785,36.698,36.697,36.698C39.61,36.698,42.086,37.717,44.125,39.756C46.162,41.795,47.182,44.27,47.182,47.183C47.182,50.096,46.163,52.571,44.125,54.61ZM52.544,73.581L78.87,47.183L99.609,68.229L99.609,89.123L26.213,89.123L26.213,83.962L42.032,68.229L52.544,73.581ZM15.728,20.97L110.094,20.97C112.989,20.97,115.336,23.317,115.336,26.213L115.336,99.609C115.336,102.504,112.989,104.851,110.094,104.851L15.728,104.851C12.832,104.851,10.485,102.504,10.485,99.609L10.485,26.213C10.485,23.317,12.832,20.97,15.728,20.97ZM20.97,31.455L20.97,94.366L104.851,94.366L104.851,31.455L20.97,31.455ZM20.97,31.455"/>
</g>
  <g id="Medium-M" transform="matrix(1.0,0.0,0.0,1.0,1684.9293205915178,1027.859340122768)">  <path stroke-dasharray="none" stroke-miterlimit="4" stroke-opacity="1" stroke-linejoin="miter" stroke="none" fill-opacity="1" stroke-width="1px" fill="#000000" fill-rule="nonzero" stroke-linecap="butt" d="M44.125,54.61C42.086,56.649,39.61,57.668,36.697,57.668C33.785,57.668,31.31,56.648,29.271,54.61C27.232,52.572,26.213,50.096,26.213,47.183C26.213,44.27,27.232,41.795,29.271,39.756C31.31,37.717,33.785,36.698,36.697,36.698C39.61,36.698,42.086,37.717,44.125,39.756C46.162,41.795,47.182,44.27,47.182,47.183C47.182,50.096,46.163,52.571,44.125,54.61ZM52.544,73.581L78.87,47.183L99.609,68.229L99.609,89.123L26.213,89.123L26.213,83.962L42.032,68.229L52.544,73.581ZM15.728,20.97L110.094,20.97C112.989,20.97,115.336,23.317,115.336,26.213L115.336,99.609C115.336,102.504,112.989,104.851,110.094,104.851L15.728,104.851C12.832,104.851,10.485,102.504,10.485,99.609L10.485,26.213C10.485,23.317,12.832,20.97,15.728,20.97ZM20.97,31.455L20.97,94.366L104.851,94.366L104.851,31.455L20.97,31.455ZM20.97,31.455"/>
</g>
  <g id="Regular-M" transform="matrix(1.0,0.0,0.0,1.0,1388.2193205915178,1027.859340122768)">  <path stroke-linejoin="miter" stroke-width="1px" fill-opacity="1" stroke-opacity="1" stroke="none" fill="#000000" fill-rule="nonzero" stroke-miterlimit="4" stroke-dasharray="none" stroke-linecap="butt" d="M44.125,54.61C42.086,56.649,39.61,57.668,36.697,57.668C33.785,57.668,31.31,56.648,29.271,54.61C27.232,52.572,26.213,50.096,26.213,47.183C26.213,44.27,27.232,41.795,29.271,39.756C31.31,37.717,33.785,36.698,36.697,36.698C39.61,36.698,42.086,37.717,44.125,39.756C46.162,41.795,47.182,44.27,47.182,47.183C47.182,50.096,46.163,52.571,44.125,54.61ZM52.544,73.581L78.87,47.183L99.609,68.229L99.609,89.123L26.213,89.123L26.213,83.962L42.032,68.229L52.544,73.581ZM15.728,20.97L110.094,20.97C112.989,20.97,115.336,23.317,115.336,26.213L115.336,99.609C115.336,102.504,112.989,104.851,110.094,104.851L15.728,104.851C12.832,104.851,10.485,102.504,10.485,99.609L10.485,26.213C10.485,23.317,12.832,20.97,15.728,20.97ZM20.97,31.455L20.97,94.366L104.851,94.366L104.851,31.455L20.97,31.455ZM20.97,31.455"/>
</g>
  <g id="Light-M" transform="matrix(1.0,0.0,0.0,1.0,1091.509320591518,1027.859340122768)">  <path fill="#000000" stroke-dasharray="none" fill-opacity="1" stroke-linejoin="miter" stroke="none" fill-rule="nonzero" stroke-width="1px" stroke-miterlimit="4" stroke-opacity="1" stroke-linecap="butt" d="M44.125,54.61C42.086,56.649,39.61,57.668,36.697,57.668C33.785,57.668,31.31,56.648,29.271,54.61C27.232,52.572,26.213,50.096,26.213,47.183C26.213,44.27,27.232,41.795,29.271,39.756C31.31,37.717,33.785,36.698,36.697,36.698C39.61,36.698,42.086,37.717,44.125,39.756C46.162,41.795,47.182,44.27,47.182,47.183C47.182,50.096,46.163,52.571,44.125,54.61ZM52.544,73.581L78.87,47.183L99.609,68.229L99.609,89.123L26.213,89.123L26.213,83.962L42.032,68.229L52.544,73.581ZM15.728,20.97L110.094,20.97C112.989,20.97,115.336,23.317,115.336,26.213L115.336,99.609C115.336,102.504,112.989,104.851,110.094,104.851L15.728,104.851C12.832,104.851,10.485,102.504,10.485,99.609L10.485,26.213C10.485,23.317,12.832,20.97,15.728,20.97ZM20.97,31.455L20.97,94.366L104.851,94.366L104.851,31.455L20.97,31.455ZM20.97,31.455"/>
</g>
  <g id="Thin-M" transform="matrix(1.0,0.0,0.0,1.0,794.7993205915179,1027.859340122768)">  <path stroke="none" stroke-opacity="1" stroke-linejoin="miter" stroke-miterlimit="4" stroke-linecap="butt" fill-rule="nonzero" fill="#000000" fill-opacity="1" stroke-width="1px" stroke-dasharray="none" d="M44.125,54.61C42.086,56.649,39.61,57.668,36.697,57.668C33.785,57.668,31.31,56.648,29.271,54.61C27.232,52.572,26.213,50.096,26.213,47.183C26.213,44.27,27.232,41.795,29.271,39.756C31.31,37.717,33.785,36.698,36.697,36.698C39.61,36.698,42.086,37.717,44.125,39.756C46.162,41.795,47.182,44.27,47.182,47.183C47.182,50.096,46.163,52.571,44.125,54.61ZM52.544,73.581L78.87,47.183L99.609,68.229L99.609,89.123L26.213,89.123L26.213,83.962L42.032,68.229L52.544,73.581ZM15.728,20.97L110.094,20.97C112.989,20.97,115.336,23.317,115.336,26.213L115.336,99.609C115.336,102.504,112.989,104.851,110.094,104.851L15.728,104.851C12.832,104.851,10.485,102.504,10.485,99.609L10.485,26.213C10.485,23.317,12.832,20.97,15.728,20.97ZM20.97,31.455L20.97,94.366L104.851,94.366L104.851,31.455L20.97,31.455ZM20.97,31.455"/>
</g>
  <g id="Ultralight-M" transform="matrix(1.0,0.0,0.0,1.0,498.0893205915179,1027.859340122768)">  <path stroke="none" stroke-linecap="butt" stroke-linejoin="miter" stroke-dasharray="none" fill-rule="nonzero" fill="#000000" stroke-width="1px" stroke-miterlimit="4" fill-opacity="1" stroke-opacity="1" d="M44.125,54.61C42.086,56.649,39.61,57.668,36.697,57.668C33.785,57.668,31.31,56.648,29.271,54.61C27.232,52.572,26.213,50.096,26.213,47.183C26.213,44.27,27.232,41.795,29.271,39.756C31.31,37.717,33.785,36.698,36.697,36.698C39.61,36.698,42.086,37.717,44.125,39.756C46.162,41.795,47.182,44.27,47.182,47.183C47.182,50.096,46.163,52.571,44.125,54.61ZM52.544,73.581L78.87,47.183L99.609,68.229L99.609,89.123L26.213,89.123L26.213,83.962L42.032,68.229L52.544,73.581ZM15.728,20.97L110.094,20.97C112.989,20.97,115.336,23.317,115.336,26.213L115.336,99.609C115.336,102.504,112.989,104.851,110.094,104.851L15.728,104.851C12.832,104.851,10.485,102.504,10.485,99.609L10.485,26.213C10.485,23.317,12.832,20.97,15.728,20.97ZM20.97,31.455L20.97,94.366L104.851,94.366L104.851,31.455L20.97,31.455ZM20.97,31.455"/>
</g>
  <g id="Black-S" transform="matrix(1.0,0.0,0.0,1.0,2885.420938023158,611.5109575544085)">  <path stroke-linecap="butt" stroke-opacity="1" stroke-miterlimit="4" stroke-linejoin="miter" fill="#000000" fill-opacity="1" stroke="none" stroke-width="1px" fill-rule="nonzero" stroke-dasharray="none" d="M34.55,42.76C32.953,44.356,31.015,45.154,28.734,45.154C26.454,45.154,24.515,44.356,22.919,42.76C21.322,41.164,20.525,39.225,20.525,36.944C20.525,34.664,21.323,32.725,22.919,31.129C24.515,29.533,26.454,28.734,28.734,28.734C31.015,28.734,32.953,29.533,34.55,31.129C36.145,32.725,36.944,34.664,36.944,36.944C36.944,39.225,36.146,41.163,34.55,42.76ZM41.142,57.614L61.755,36.944L77.994,53.424L77.994,69.784L20.525,69.784L20.525,65.742L32.911,53.424L41.142,57.614ZM12.315,16.42L86.203,16.42C88.471,16.42,90.308,18.258,90.308,20.525L90.308,77.994C90.308,80.261,88.471,82.098,86.203,82.098L12.315,82.098C10.048,82.098,8.21,80.261,8.21,77.994L8.21,20.525C8.21,18.258,10.048,16.42,12.315,16.42ZM16.42,24.63L16.42,73.889L82.098,73.889L82.098,24.63L16.42,24.63ZM16.42,24.63"/>
</g>
  <g id="Heavy-S" transform="matrix(1.0,0.0,0.0,1.0,2588.710938023158,611.5109575544085)">  <path stroke-opacity="1" stroke="none" stroke-miterlimit="4" stroke-linejoin="miter" fill-opacity="1" stroke-width="1px" stroke-dasharray="none" fill-rule="nonzero" fill="#000000" stroke-linecap="butt" d="M34.55,42.76C32.953,44.356,31.015,45.154,28.734,45.154C26.454,45.154,24.515,44.356,22.919,42.76C21.322,41.164,20.525,39.225,20.525,36.944C20.525,34.664,21.323,32.725,22.919,31.129C24.515,29.533,26.454,28.734,28.734,28.734C31.015,28.734,32.953,29.533,34.55,31.129C36.145,32.725,36.944,34.664,36.944,36.944C36.944,39.225,36.146,41.163,34.55,42.76ZM41.142,57.614L61.755,36.944L77.994,53.424L77.994,69.784L20.525,69.784L20.525,65.742L32.911,53.424L41.142,57.614ZM12.315,16.42L86.203,16.42C88.471,16.42,90.308,18.258,90.308,20.525L90.308,77.994C90.308,80.261,88.471,82.098,86.203,82.098L12.315,82.098C10.048,82.098,8.21,80.261,8.21,77.994L8.21,20.525C8.21,18.258,10.048,16.42,12.315,16.42ZM16.42,24.63L16.42,73.889L82.098,73.889L82.098,24.63L16.42,24.63ZM16.42,24.63"/>
</g>
  <g id="Bold-S" transform="matrix(1.0,0.0,0.0,1.0,2292.000938023158,611.5109575544085)">  <path fill="#000000" fill-rule="nonzero" stroke-opacity="1" stroke-linecap="butt" stroke-linejoin="miter" stroke-width="1px" stroke-miterlimit="4" stroke-dasharray="none" stroke="none" fill-opacity="1" d="M34.55,42.76C32.953,44.356,31.015,45.154,28.734,45.154C26.454,45.154,24.515,44.356,22.919,42.76C21.322,41.164,20.525,39.225,20.525,36.944C20.525,34.664,21.323,32.725,22.919,31.129C24.515,29.533,26.454,28.734,28.734,28.734C31.015,28.734,32.953,29.533,34.55,31.129C36.145,32.725,36.944,34.664,36.944,36.944C36.944,39.225,36.146,41.163,34.55,42.76ZM41.142,57.614L61.755,36.944L77.994,53.424L77.994,69.784L20.525,69.784L20.525,65.742L32.911,53.424L41.142,57.614ZM12.315,16.42L86.203,16.42C88.471,16.42,90.308,18.258,90.308,20.525L90.308,77.994C90.308,80.261,88.471,82.098,86.203,82.098L12.315,82.098C10.048,82.098,8.21,80.261,8.21,77.994L8.21,20.525C8.21,18.258,10.048,16.42,12.315,16.42ZM16.42,24.63L16.42,73.889L82.098,73.889L82.098,24.63L16.42,24.63ZM16.42,24.63"/>
</g>
  <g id="Semibold-S" transform="matrix(1.0,0.0,0.0,1.0,1995.2909380231583,611.5109575544085)">  <path fill-opacity="1" stroke-dasharray="none" stroke-width="1px" stroke="none" fill-rule="nonzero" stroke-opacity="1" stroke-linecap="butt" stroke-linejoin="miter" stroke-miterlimit="4" fill="#000000" d="M34.55,42.76C32.953,44.356,31.015,45.154,28.734,45.154C26.454,45.154,24.515,44.356,22.919,42.76C21.322,41.164,20.525,39.225,20.525,36.944C20.525,34.664,21.323,32.725,22.919,31.129C24.515,29.533,26.454,28.734,28.734,28.734C31.015,28.734,32.953,29.533,34.55,31.129C36.145,32.725,36.944,34.664,36.944,36.944C36.944,39.225,36.146,41.163,34.55,42.76ZM41.142,57.614L61.755,36.944L77.994,53.424L77.994,69.784L20.525,69.784L20.525,65.742L32.911,53.424L41.142,57.614ZM12.315,16.42L86.203,16.42C88.471,16.42,90.308,18.258,90.308,20.525L90.308,77.994C90.308,80.261,88.471,82.098,86.203,82.098L12.315,82.098C10.048,82.098,8.21,80.261,8.21,77.994L8.21,20.525C8.21,18.258,10.048,16.42,12.315,16.42ZM16.42,24.63L16.42,73.889L82.098,73.889L82.098,24.63L16.42,24.63ZM16.42,24.63"/>
</g>
  <g id="Medium-S" transform="matrix(1.0,0.0,0.0,1.0,1698.5809380231583,611.5109575544085)">  <path stroke-dasharray="none" stroke-miterlimit="4" stroke-opacity="1" stroke-linejoin="miter" stroke="none" fill-opacity="1" stroke-width="1px" fill="#000000" fill-rule="nonzero" stroke-linecap="butt" d="M34.55,42.76C32.953,44.356,31.015,45.154,28.734,45.154C26.454,45.154,24.515,44.356,22.919,42.76C21.322,41.164,20.525,39.225,20.525,36.944C20.525,34.664,21.323,32.725,22.919,31.129C24.515,29.533,26.454,28.734,28.734,28.734C31.015,28.734,32.953,29.533,34.55,31.129C36.145,32.725,36.944,34.664,36.944,36.944C36.944,39.225,36.146,41.163,34.55,42.76ZM41.142,57.614L61.755,36.944L77.994,53.424L77.994,69.784L20.525,69.784L20.525,65.742L32.911,53.424L41.142,57.614ZM12.315,16.42L86.203,16.42C88.471,16.42,90.308,18.258,90.308,20.525L90.308,77.994C90.308,80.261,88.471,82.098,86.203,82.098L12.315,82.098C10.048,82.098,8.21,80.261,8.21,77.994L8.21,20.525C8.21,18.258,10.048,16.42,12.315,16.42ZM16.42,24.63L16.42,73.889L82.098,73.889L82.098,24.63L16.42,24.63ZM16.42,24.63"/>
</g>
  <g id="Regular-S" transform="matrix(1.0,0.0,0.0,1.0,1401.8709380231583,611.5109575544085)">  <path stroke-linejoin="miter" stroke-width="1px" fill-opacity="1" stroke-opacity="1" stroke="none" fill="#000000" fill-rule="nonzero" stroke-miterlimit="4" stroke-dasharray="none" stroke-linecap="butt" d="M34.55,42.76C32.953,44.356,31.015,45.154,28.734,45.154C26.454,45.154,24.515,44.356,22.919,42.76C21.322,41.164,20.525,39.225,20.525,36.944C20.525,34.664,21.323,32.725,22.919,31.129C24.515,29.533,26.454,28.734,28.734,28.734C31.015,28.734,32.953,29.533,34.55,31.129C36.145,32.725,36.944,34.664,36.944,36.944C36.944,39.225,36.146,41.163,34.55,42.76ZM41.142,57.614L61.755,36.944L77.994,53.424L77.994,69.784L20.525,69.784L20.525,65.742L32.911,53.424L41.142,57.614ZM12.315,16.42L86.203,16.42C88.471,16.42,90.308,18.258,90.308,20.525L90.308,77.994C90.308,80.261,88.471,82.098,86.203,82.098L12.315,82.098C10.048,82.098,8.21,80.261,8.21,77.994L8.21,20.525C8.21,18.258,10.048,16.42,12.315,16.42ZM16.42,24.63L16.42,73.889L82.098,73.889L82.098,24.63L16.42,24.63ZM16.42,24.63"/>
</g>
  <g id="Light-S" transform="matrix(1.0,0.0,0.0,1.0,1105.1609380231585,611.5109575544085)">  <path fill="#000000" stroke-dasharray="none" fill-opacity="1" stroke-linejoin="miter" stroke="none" fill-rule="nonzero" stroke-width="1px" stroke-miterlimit="4" stroke-opacity="1" stroke-linecap="butt" d="M34.55,42.76C32.953,44.356,31.015,45.154,28.734,45.154C26.454,45.154,24.515,44.356,22.919,42.76C21.322,41.164,20.525,39.225,20.525,36.944C20.525,34.664,21.323,32.725,22.919,31.129C24.515,29.533,26.454,28.734,28.734,28.734C31.015,28.734,32.953,29.533,34.55,31.129C36.145,32.725,36.944,34.664,36.944,36.944C36.944,39.225,36.146,41.163,34.55,42.76ZM41.142,57.614L61.755,36.944L77.994,53.424L77.994,69.784L20.525,69.784L20.525,65.742L32.911,53.424L41.142,57.614ZM12.315,16.42L86.203,16.42C88.471,16.42,90.308,18.258,90.308,20.525L90.308,77.994C90.308,80.261,88.471,82.098,86.203,82.098L12.315,82.098C10.048,82.098,8.21,80.261,8.21,77.994L8.21,20.525C8.21,18.258,10.048,16.42,12.315,16.42ZM16.42,24.63L16.42,73.889L82.098,73.889L82.098,24.63L16.42,24.63ZM16.42,24.63"/>
</g>
  <g id="Thin-S" transform="matrix(1.0,0.0,0.0,1.0,808.4509380231585,611.5109575544085)">  <path stroke="none" stroke-opacity="1" stroke-linejoin="miter" stroke-miterlimit="4" stroke-linecap="butt" fill-rule="nonzero" fill="#000000" fill-opacity="1" stroke-width="1px" stroke-dasharray="none" d="M34.55,42.76C32.953,44.356,31.015,45.154,28.734,45.154C26.454,45.154,24.515,44.356,22.919,42.76C21.322,41.164,20.525,39.225,20.525,36.944C20.525,34.664,21.323,32.725,22.919,31.129C24.515,29.533,26.454,28.734,28.734,28.734C31.015,28.734,32.953,29.533,34.55,31.129C36.145,32.725,36.944,34.664,36.944,36.944C36.944,39.225,36.146,41.163,34.55,42.76ZM41.142,57.614L61.755,36.944L77.994,53.424L77.994,69.784L20.525,69.784L20.525,65.742L32.911,53.424L41.142,57.614ZM12.315,16.42L86.203,16.42C88.471,16.42,90.308,18.258,90.308,20.525L90.308,77.994C90.308,80.261,88.471,82.098,86.203,82.098L12.315,82.098C10.048,82.098,8.21,80.261,8.21,77.994L8.21,20.525C8.21,18.258,10.048,16.42,12.315,16.42ZM16.42,24.63L16.42,73.889L82.098,73.889L82.098,24.63L16.42,24.63ZM16.42,24.63"/>
</g>
  <g id="Ultralight-S" transform="matrix(1.0,0.0,0.0,1.0,511.7409380231585,611.5109575544085)">  <path stroke="none" stroke-linecap="butt" stroke-linejoin="miter" stroke-dasharray="none" fill-rule="nonzero" fill="#000000" stroke-width="1px" stroke-miterlimit="4" fill-opacity="1" stroke-opacity="1" d="M34.55,42.76C32.953,44.356,31.015,45.154,28.734,45.154C26.454,45.154,24.515,44.356,22.919,42.76C21.322,41.164,20.525,39.225,20.525,36.944C20.525,34.664,21.323,32.725,22.919,31.129C24.515,29.533,26.454,28.734,28.734,28.734C31.015,28.734,32.953,29.533,34.55,31.129C36.145,32.725,36.944,34.664,36.944,36.944C36.944,39.225,36.146,41.163,34.55,42.76ZM41.142,57.614L61.755,36.944L77.994,53.424L77.994,69.784L20.525,69.784L20.525,65.742L32.911,53.424L41.142,57.614ZM12.315,16.42L86.203,16.42C88.471,16.42,90.308,18.258,90.308,20.525L90.308,77.994C90.308,80.261,88.471,82.098,86.203,82.098L12.315,82.098C10.048,82.098,8.21,80.261,8.21,77.994L8.21,20.525C8.21,18.258,10.048,16.42,12.315,16.42ZM16.42,24.63L16.42,73.889L82.098,73.889L82.098,24.63L16.42,24.63ZM16.42,24.63"/>
</g>
 </g>
</svg>
