<?xml version="1.0" encoding="UTF-8"?>
<!-- Generator: CustomSymbols v2.6.1.40 by @serious_bret https://bretlester.com/app_content/CustomSymbols/ -->
<!-- Guides: Left/Right 0.086/0.082 Cap/Base 0.158/0.16 -->
<!-- Settings: RefScale 1.0 Min/Max Stroke Scales 0.5/2.21 -->
<!DOCTYPE svg
PUBLIC "-//W3C//DTD SVG 1.1//EN"
       "http://www.w3.org/Graphics/SVG/1.1/DTD/svg11.dtd">
<svg version="1.1" xmlns="http://www.w3.org/2000/svg" xmlns:xlink="http://www.w3.org/1999/xlink" width="3300" height="2200">
<![CDATA[<svg xmlns="http://www.w3.org/2000/svg" width="24" height="24" viewBox="0 0 24 24">
  <defs/>
  <path d="M15.538,18 L4.462,18 C3.102,18 2,16.898 2,15.538 L2,4.462 C2,3.102 3.102,2 4.462,2 L15.538,2 C16.898,2 18,3.102 18,4.462 L18,15.538 C18,16.898 16.898,18 15.538,18 Z M16,15.037 L16,4.962 C16,4.431 15.569,4 15.038,4 L4.962,4 C4.431,4 4,4.431 4,4.962 L4,15.037 C4,15.569 4.431,16 4.962,16 L15.038,16 C15.569,16 16,15.569 16,15.037 Z M8.462,22 C7.102,22 6,20.898 6,19.538 L6,19 L8,19 L8,19.037 C8,19.569 8.431,20 8.962,20 L19.038,20 C19.569,20 20,19.569 20,19.037 L20,18 L19,18 L19,16 L20,16 L20,8.962 C20,8.431 19.569,8 19.038,8 L19,8 L19,6 L19.538,6 C20.898,6 22,7.102 22,8.462 L22,19.538 C22,20.898 20.898,22 19.538,22 Z M11,8 L11,9 L12,9 C12.552,9 13,9.448 13,10 C13,10.552 12.552,11 12,11 L11,11 L11,12 C11,12.552 10.552,13 10,13 C9.448,13 9,12.552 9,12 L9,11 L8,11 C7.448,11 7,10.552 7,10 C7,9.448 7.448,9 8,9 L9,9 L9,8 C9,7.448 9.448,7 10,7 C10.552,7 11,7.448 11,8 Z"/>
</svg>

]]>
 <g id="Notes">
  <rect height="2200" id="artboard" style="fill:white;opacity:1" width="3300" x="0" y="0"/>
  <line id="" style="fill:none;stroke:black;opacity:1;stroke-width:0.5;" x1="263" x2="3036" y1="292" y2="292"/>
  <text id="reftext1" style="stroke:none;fill:black;font-family:-apple-system,&quot;SF Pro Display&quot;,&quot;SF Pro Text&quot;,Helvetica,sans-serif;font-weight:bold;" transform="matrix(1 0 0 1 263 322)">Weight/Scale Variations</text>
  <text id="reftext2" style="stroke:none;fill:black;font-family:-apple-system,&quot;SF Pro Display&quot;,&quot;SF Pro Text&quot;,Helvetica,sans-serif;text-anchor:middle;" transform="matrix(1 0 0 1 559.711 322)">Ultralight</text>
  <text style="stroke:none;fill:black;font-family:-apple-system,&quot;SF Pro Display&quot;,&quot;SF Pro Text&quot;,Helvetica,sans-serif;text-anchor:middle;" transform="matrix(1 0 0 1 856.422 322)">Thin</text>
  <text style="stroke:none;fill:black;font-family:-apple-system,&quot;SF Pro Display&quot;,&quot;SF Pro Text&quot;,Helvetica,sans-serif;text-anchor:middle;" transform="matrix(1 0 0 1 1153.13 322)">Light</text>
  <text style="stroke:none;fill:black;font-family:-apple-system,&quot;SF Pro Display&quot;,&quot;SF Pro Text&quot;,Helvetica,sans-serif;text-anchor:middle;" transform="matrix(1 0 0 1 1449.84 322)">Regular</text>
  <text style="stroke:none;fill:black;font-family:-apple-system,&quot;SF Pro Display&quot;,&quot;SF Pro Text&quot;,Helvetica,sans-serif;text-anchor:middle;" transform="matrix(1 0 0 1 1746.56 322)">Medium</text>
  <text style="stroke:none;fill:black;font-family:-apple-system,&quot;SF Pro Display&quot;,&quot;SF Pro Text&quot;,Helvetica,sans-serif;text-anchor:middle;" transform="matrix(1 0 0 1 2043.27 322)">Semibold</text>
  <text style="stroke:none;fill:black;font-family:-apple-system,&quot;SF Pro Display&quot;,&quot;SF Pro Text&quot;,Helvetica,sans-serif;text-anchor:middle;" transform="matrix(1 0 0 1 2339.98 322)">Bold</text>
  <text style="stroke:none;fill:black;font-family:-apple-system,&quot;SF Pro Display&quot;,&quot;SF Pro Text&quot;,Helvetica,sans-serif;text-anchor:middle;" transform="matrix(1 0 0 1 2636.69 322)">Heavy</text>
  <text style="stroke:none;fill:black;font-family:-apple-system,&quot;SF Pro Display&quot;,&quot;SF Pro Text&quot;,Helvetica,sans-serif;text-anchor:middle;" transform="matrix(1 0 0 1 2933.4 322)">Black</text>
  <line id="" style="fill:none;stroke:black;opacity:1;stroke-width:0.5;" x1="263" x2="3036" y1="1903" y2="1903"/>
  <g id="" transform="matrix(1 0 0 1 263 1933)">
   <path d="M9.24805 0.830078C13.5547 0.830078 17.1387-2.74414 17.1387-7.05078C17.1387-11.3574 13.5449-14.9316 9.23828-14.9316C4.94141-14.9316 1.36719-11.3574 1.36719-7.05078C1.36719-2.74414 4.95117 0.830078 9.24805 0.830078ZM9.24805-0.654297C5.70312-0.654297 2.87109-3.49609 2.87109-7.05078C2.87109-10.6055 5.69336-13.4473 9.23828-13.4473C12.793-13.4473 15.6348-10.6055 15.6445-7.05078C15.6543-3.49609 12.8027-0.654297 9.24805-0.654297ZM6.39648-6.31836L8.50586-6.31836L8.50586-4.19922C8.50586-3.75977 8.79883-3.45703 9.22852-3.45703C9.67773-3.45703 9.9707-3.75977 9.9707-4.19922L9.9707-6.31836L12.0996-6.31836C12.5391-6.31836 12.8418-6.61133 12.8418-7.04102C12.8418-7.48047 12.5391-7.7832 12.0996-7.7832L9.9707-7.7832L9.9707-9.89258C9.9707-10.3418 9.67773-10.6445 9.22852-10.6445C8.79883-10.6445 8.50586-10.3418 8.50586-9.89258L8.50586-7.7832L6.39648-7.7832C5.94727-7.7832 5.64453-7.48047 5.64453-7.04102C5.64453-6.61133 5.94727-6.31836 6.39648-6.31836Z"/>
  </g>
  <g id="" transform="matrix(1 0 0 1 281.506 1933)">
   <path d="M11.709 2.91016C17.1582 2.91016 21.6699-1.61133 21.6699-7.05078C21.6699-12.5 17.1484-17.0117 11.6992-17.0117C6.25977-17.0117 1.74805-12.5 1.74805-7.05078C1.74805-1.61133 6.26953 2.91016 11.709 2.91016ZM11.709 1.25C7.09961 1.25 3.41797-2.44141 3.41797-7.05078C3.41797-11.6602 7.08984-15.3516 11.6992-15.3516C16.3086-15.3516 20-11.6602 20.0098-7.05078C20.0195-2.44141 16.3184 1.25 11.709 1.25ZM7.98828-6.23047L10.8789-6.23047L10.8789-3.32031C10.8789-2.83203 11.2109-2.5 11.6895-2.5C12.1777-2.5 12.5195-2.83203 12.5195-3.32031L12.5195-6.23047L15.4297-6.23047C15.918-6.23047 16.25-6.5625 16.25-7.04102C16.25-7.5293 15.918-7.87109 15.4297-7.87109L12.5195-7.87109L12.5195-10.7617C12.5195-11.2695 12.1777-11.6016 11.6895-11.6016C11.2109-11.6016 10.8789-11.2598 10.8789-10.7617L10.8789-7.87109L7.98828-7.87109C7.48047-7.87109 7.14844-7.5293 7.14844-7.04102C7.14844-6.5625 7.49023-6.23047 7.98828-6.23047Z"/>
  </g>
  <g id="" transform="matrix(1 0 0 1 304.924 1933)">
   <path d="M14.9707 5.66406C21.9336 5.66406 27.6953-0.0976562 27.6953-7.05078C27.6953-14.0137 21.9238-19.7754 14.9609-19.7754C8.00781-19.7754 2.25586-14.0137 2.25586-7.05078C2.25586-0.0976562 8.01758 5.66406 14.9707 5.66406ZM14.9707 3.84766C8.93555 3.84766 4.08203-1.01562 4.08203-7.05078C4.08203-13.0957 8.92578-17.9492 14.9609-17.9492C21.0059-17.9492 25.8594-13.0957 25.8691-7.05078C25.8789-1.01562 21.0156 3.84766 14.9707 3.84766ZM10.0586-6.14258L14.0625-6.14258L14.0625-2.12891C14.0625-1.5918 14.4336-1.2207 14.9512-1.2207C15.4883-1.2207 15.8594-1.5918 15.8594-2.12891L15.8594-6.14258L19.8828-6.14258C20.4102-6.14258 20.791-6.51367 20.791-7.03125C20.791-7.56836 20.4199-7.94922 19.8828-7.94922L15.8594-7.94922L15.8594-11.9531C15.8594-12.5098 15.4883-12.8809 14.9512-12.8809C14.4336-12.8809 14.0625-12.5 14.0625-11.9531L14.0625-7.94922L10.0586-7.94922C9.50195-7.94922 9.13086-7.56836 9.13086-7.03125C9.13086-6.51367 9.51172-6.14258 10.0586-6.14258Z"/>
  </g>
  <text style="stroke:none;fill:black;font-family:-apple-system,&quot;SF Pro Display&quot;,&quot;SF Pro Text&quot;,Helvetica,sans-serif;font-weight:bold;" transform="matrix(1 0 0 1 263 1953)">Design Variations</text>
  <text style="stroke:none;fill:black;font-family:-apple-system,&quot;SF Pro Display&quot;,&quot;SF Pro Text&quot;,Helvetica,sans-serif;" transform="matrix(1 0 0 1 263 1971)">Symbols are supported in up to nine weights and three scales.</text>
  <text style="stroke:none;fill:black;font-family:-apple-system,&quot;SF Pro Display&quot;,&quot;SF Pro Text&quot;,Helvetica,sans-serif;" transform="matrix(1 0 0 1 263 1989)">For optimal layout with text and other symbols, vertically align</text>
  <text style="stroke:none;fill:black;font-family:-apple-system,&quot;SF Pro Display&quot;,&quot;SF Pro Text&quot;,Helvetica,sans-serif;" transform="matrix(1 0 0 1 263 2007)">symbols with the adjacent text.</text>
  <line id="" style="fill:none;stroke:#00AEEF;stroke-width:0.5;opacity:1.0;" x1="776" x2="776" y1="1919" y2="1933"/>
  <g id="" transform="matrix(1 0 0 1 776 1933)">
   <path d="M3.31055 0.126953C3.82812 0.126953 4.08203-0.0683594 4.26758-0.605469L5.52734-4.0625L11.2891-4.0625L12.5488-0.605469C12.7344-0.0683594 12.9883 0.126953 13.4961 0.126953C14.0137 0.126953 14.3457-0.185547 14.3457-0.673828C14.3457-0.839844 14.3164-0.986328 14.2383-1.20117L9.6582-13.3887C9.43359-13.9941 9.0332-14.2871 8.4082-14.2871C7.80273-14.2871 7.39258-13.9941 7.17773-13.3984L2.59766-1.19141C2.51953-0.976562 2.49023-0.830078 2.49023-0.664062C2.49023-0.175781 2.80273 0.126953 3.31055 0.126953ZM6.00586-5.53711L8.37891-12.1094L8.42773-12.1094L10.8008-5.53711Z"/>
  </g>
  <line id="" style="fill:none;stroke:#00AEEF;stroke-width:0.5;opacity:1.0;" x1="792.836" x2="792.836" y1="1919" y2="1933"/>
  <text style="stroke:none;fill:black;font-family:-apple-system,&quot;SF Pro Display&quot;,&quot;SF Pro Text&quot;,Helvetica,sans-serif;font-weight:bold;" transform="matrix(1 0 0 1 776 1953)">Margins</text>
  <text style="stroke:none;fill:black;font-family:-apple-system,&quot;SF Pro Display&quot;,&quot;SF Pro Text&quot;,Helvetica,sans-serif;" transform="matrix(1 0 0 1 776 1971)">Leading and trailing margins on the left and right side of each symbol</text>
  <text style="stroke:none;fill:black;font-family:-apple-system,&quot;SF Pro Display&quot;,&quot;SF Pro Text&quot;,Helvetica,sans-serif;" transform="matrix(1 0 0 1 776 1989)">can be adjusted by modifying the x-location of the margin guidelines.</text>
  <text style="stroke:none;fill:black;font-family:-apple-system,&quot;SF Pro Display&quot;,&quot;SF Pro Text&quot;,Helvetica,sans-serif;" transform="matrix(1 0 0 1 776 2007)">Modifications are automatically applied proportionally to all</text>
  <text style="stroke:none;fill:black;font-family:-apple-system,&quot;SF Pro Display&quot;,&quot;SF Pro Text&quot;,Helvetica,sans-serif;" transform="matrix(1 0 0 1 776 2025)">scales and weights.</text>
  <g id="" transform="matrix(1 0 0 1 1289 1933)">
   <path d="M2.8418 1.86523L4.54102 3.57422C5.40039 4.44336 6.38672 4.38477 7.31445 3.35938L17.4902-7.85156C17.7539-7.76367 18.0273-7.7832 18.3398-7.8418L19.4043-8.03711L20.0684-7.36328L20.0293-6.80664C19.9902-6.30859 20.1172-5.92773 20.6055-5.44922L21.3672-4.70703C21.8457-4.22852 22.4609-4.19922 22.9297-4.66797L25.8398-7.58789C26.3086-8.05664 26.2891-8.65234 25.8105-9.13086L25.0391-9.89258C24.5605-10.3711 24.1895-10.5273 23.7109-10.4883L23.1348-10.4395L22.4902-11.0742L22.7344-12.1973C22.8613-12.7637 22.7051-13.2031 22.1191-13.7891L19.9219-15.9766C16.582-19.2969 12.1484-19.2188 9.25781-16.3281C8.83789-15.918 8.80859-15.3418 9.04297-14.9512C9.27734-14.5898 9.73633-14.3555 10.3809-14.5215C11.8457-14.8633 13.3691-14.9219 14.7949-13.9844L14.209-12.5293C14.0137-12.0508 13.9844-11.6504 14.1113-11.2891L3.04688-0.898438C2.06055 0.0195312 1.98242 0.996094 2.8418 1.86523ZM10.752-15.957C13.1836-17.7344 16.4746-17.4316 18.7012-15.2051L21.1328-12.793C21.3672-12.5586 21.4062-12.373 21.3379-12.0312L21.0156-10.5469L22.5195-9.0625L23.5059-9.12109C23.7598-9.13086 23.8379-9.11133 24.0332-8.91602L24.6094-8.33984L22.168-5.89844L21.5918-6.47461C21.3965-6.66992 21.3672-6.74805 21.377-7.01172L21.4453-7.98828L19.9512-9.47266L18.4277-9.21875C18.1055-9.15039 17.959-9.17969 17.7148-9.41406L15.7129-11.416C15.459-11.6504 15.4297-11.8164 15.5859-12.1875L16.4648-14.2773C14.9023-15.7324 12.8711-16.3574 10.8398-15.7617C10.6836-15.7227 10.625-15.8496 10.752-15.957ZM5.27344 2.30469L4.10156 1.14258C3.63281 0.683594 3.74023 0.341797 4.14062-0.0195312L14.9512-10.1953L16.416-8.71094L6.42578 2.27539C6.07422 2.67578 5.74219 2.77344 5.27344 2.30469Z"/>
  </g>
  <text style="stroke:none;fill:black;font-family:-apple-system,&quot;SF Pro Display&quot;,&quot;SF Pro Text&quot;,Helvetica,sans-serif;font-weight:bold;" transform="matrix(1 0 0 1 1289 1953)">Exporting</text>
  <text style="stroke:none;fill:black;font-family:-apple-system,&quot;SF Pro Display&quot;,&quot;SF Pro Text&quot;,Helvetica,sans-serif;" transform="matrix(1 0 0 1 1289 1971)">Symbols should be outlined when exporting to ensure the</text>
  <text style="stroke:none;fill:black;font-family:-apple-system,&quot;SF Pro Display&quot;,&quot;SF Pro Text&quot;,Helvetica,sans-serif;" transform="matrix(1 0 0 1 1289 1989)">design is preserved when submitting to Xcode.</text>
  <text id="template-version" style="stroke:none;fill:black;font-family:-apple-system,&quot;SF Pro Display&quot;,&quot;SF Pro Text&quot;,Helvetica,sans-serif;text-anchor:end;" transform="matrix(1 0 0 1 3036 1933)">Template v.2.0</text>
  <text style="stroke:none;fill:black;font-family:-apple-system,&quot;SF Pro Display&quot;,&quot;SF Pro Text&quot;,Helvetica,sans-serif;text-anchor:end;" transform="matrix(1 0 0 1 3036 1951)">Requires Xcode 12 or greater</text>
  <text style="stroke:none;fill:black;font-family:-apple-system,&quot;SF Pro Display&quot;,&quot;SF Pro Text&quot;,Helvetica,sans-serif;" transform="matrix(1 0 0 1 263 726)">Small</text>
  <text style="stroke:none;fill:black;font-family:-apple-system,&quot;SF Pro Display&quot;,&quot;SF Pro Text&quot;,Helvetica,sans-serif;" transform="matrix(1 0 0 1 263 1156)">Medium</text>
  <text style="stroke:none;fill:black;font-family:-apple-system,&quot;SF Pro Display&quot;,&quot;SF Pro Text&quot;,Helvetica,sans-serif;" transform="matrix(1 0 0 1 263 1586)">Large</text>
 </g>
 <g id="Guides">
  <g id="H-reference" style="fill:#27AAE1;stroke:none;" transform="matrix(1 0 0 1 339 696)">
   <path d="M0.976562 0L3.66211 0L12.9883-24.4629L45.752-24.4629L55.127 0L57.7637 0L30.6152-70.459L28.125-70.459ZM29.3457-67.1387L29.4434-67.1387L44.873-26.709L13.8672-26.709Z"/>
  </g>
  <line id="Baseline-S" style="fill:none;stroke:#27AAE1;opacity:1;stroke-width:0.5;" x1="263" x2="3036" y1="696" y2="696"/>
  <line id="Capline-S" style="fill:none;stroke:#27AAE1;opacity:1;stroke-width:0.5;" x1="263" x2="3036" y1="625.541" y2="625.541"/>
  <g id="H-reference" style="fill:#27AAE1;stroke:none;" transform="matrix(1 0 0 1 339 1126)">
   <path d="M0.976562 0L3.66211 0L12.9883-24.4629L45.752-24.4629L55.127 0L57.7637 0L30.6152-70.459L28.125-70.459ZM29.3457-67.1387L29.4434-67.1387L44.873-26.709L13.8672-26.709Z"/>
  </g>
  <line id="Baseline-M" style="fill:none;stroke:#27AAE1;opacity:1;stroke-width:0.5;" x1="263" x2="3036" y1="1126" y2="1126"/>
  <line id="Capline-M" style="fill:none;stroke:#27AAE1;opacity:1;stroke-width:0.5;" x1="263" x2="3036" y1="1055.54" y2="1055.54"/>
  <g id="H-reference" style="fill:#27AAE1;stroke:none;" transform="matrix(1 0 0 1 339 1556)">
   <path d="M0.976562 0L3.66211 0L12.9883-24.4629L45.752-24.4629L55.127 0L57.7637 0L30.6152-70.459L28.125-70.459ZM29.3457-67.1387L29.4434-67.1387L44.873-26.709L13.8672-26.709Z"/>
  </g>
  <line id="Baseline-L" style="fill:none;stroke:#27AAE1;opacity:1;stroke-width:0.5;" x1="263" x2="3036" y1="1556" y2="1556"/>
  <line id="Capline-L" style="fill:none;stroke:#27AAE1;opacity:1;stroke-width:0.5;" x1="263" x2="3036" y1="1485.54" y2="1485.54"/>
  <line id="left-margin" x1="1408.3581175540687" x2="1408.3581175540687" y1="1030.79" y2="1150.12" style="fill:none;stroke:#00AEEF;stroke-width:0.5;opacity:1.0;"/>
  <line id="right-margin" x1="1494.3151373487904" x2="1494.3151373487904" y1="1030.79" y2="1150.12" style="fill:none;stroke:#00AEEF;stroke-width:0.5;opacity:1.0;"/>
 </g>
 <g id="Symbols">
  <g id="Black-L" transform="matrix(1.0,0.0,0.0,1.0,2868.042646913948,1454.26594115137)">  <path fill="#000000" stroke-width="1px" fill-rule="nonzero" stroke-opacity="1" stroke-miterlimit="4" stroke="none" stroke-dasharray="none" stroke-linecap="butt" stroke-linejoin="miter" fill-opacity="1" d="M86.284,99.956L24.778,99.956C17.226,99.956,11.106,93.837,11.106,86.284L11.106,24.778C11.106,17.226,17.226,11.106,24.778,11.106L86.284,11.106C93.837,11.106,99.956,17.226,99.956,24.778L99.956,86.284C99.956,93.837,93.837,99.956,86.284,99.956ZM88.85,83.502L88.85,27.555C88.85,24.606,86.456,22.212,83.508,22.212L27.555,22.212C24.606,22.212,22.212,24.606,22.212,27.555L22.212,83.502C22.212,86.456,24.606,88.85,27.555,88.85L83.508,88.85C86.456,88.85,88.85,86.456,88.85,83.502ZM46.99,122.168C39.438,122.168,33.319,116.049,33.319,108.497L33.319,105.509L44.425,105.509L44.425,105.715C44.425,108.669,46.818,111.062,49.767,111.062L105.72,111.062C108.669,111.062,111.062,108.669,111.062,105.715L111.062,99.956L105.509,99.956L105.509,88.85L111.062,88.85L111.062,49.767C111.062,46.818,108.669,44.425,105.72,44.425L105.509,44.425L105.509,33.319L108.497,33.319C116.049,33.319,122.168,39.438,122.168,46.99L122.168,108.497C122.168,116.049,116.049,122.168,108.497,122.168ZM61.084,44.425L61.084,49.978L66.637,49.978C69.703,49.978,72.19,52.466,72.19,55.531C72.19,58.596,69.703,61.084,66.637,61.084L61.084,61.084L61.084,66.637C61.084,69.703,58.596,72.19,55.531,72.19C52.466,72.19,49.978,69.703,49.978,66.637L49.978,61.084L44.425,61.084C41.36,61.084,38.872,58.596,38.872,55.531C38.872,52.466,41.36,49.978,44.425,49.978L49.978,49.978L49.978,44.425C49.978,41.36,52.466,38.872,55.531,38.872C58.596,38.872,61.084,41.36,61.084,44.425ZM61.084,44.425"/>
</g>
  <g id="Heavy-L" transform="matrix(1.0,0.0,0.0,1.0,2571.332646913948,1454.26594115137)">  <path stroke-dasharray="none" stroke-miterlimit="4" stroke-linejoin="miter" stroke-opacity="1" fill-rule="nonzero" fill-opacity="1" stroke="none" stroke-linecap="butt" stroke-width="1px" fill="#000000" d="M86.284,99.956L24.778,99.956C17.226,99.956,11.106,93.837,11.106,86.284L11.106,24.778C11.106,17.226,17.226,11.106,24.778,11.106L86.284,11.106C93.837,11.106,99.956,17.226,99.956,24.778L99.956,86.284C99.956,93.837,93.837,99.956,86.284,99.956ZM88.85,83.502L88.85,27.555C88.85,24.606,86.456,22.212,83.508,22.212L27.555,22.212C24.606,22.212,22.212,24.606,22.212,27.555L22.212,83.502C22.212,86.456,24.606,88.85,27.555,88.85L83.508,88.85C86.456,88.85,88.85,86.456,88.85,83.502ZM46.99,122.168C39.438,122.168,33.319,116.049,33.319,108.497L33.319,105.509L44.425,105.509L44.425,105.715C44.425,108.669,46.818,111.062,49.767,111.062L105.72,111.062C108.669,111.062,111.062,108.669,111.062,105.715L111.062,99.956L105.509,99.956L105.509,88.85L111.062,88.85L111.062,49.767C111.062,46.818,108.669,44.425,105.72,44.425L105.509,44.425L105.509,33.319L108.497,33.319C116.049,33.319,122.168,39.438,122.168,46.99L122.168,108.497C122.168,116.049,116.049,122.168,108.497,122.168ZM61.084,44.425L61.084,49.978L66.637,49.978C69.703,49.978,72.19,52.466,72.19,55.531C72.19,58.596,69.703,61.084,66.637,61.084L61.084,61.084L61.084,66.637C61.084,69.703,58.596,72.19,55.531,72.19C52.466,72.19,49.978,69.703,49.978,66.637L49.978,61.084L44.425,61.084C41.36,61.084,38.872,58.596,38.872,55.531C38.872,52.466,41.36,49.978,44.425,49.978L49.978,49.978L49.978,44.425C49.978,41.36,52.466,38.872,55.531,38.872C58.596,38.872,61.084,41.36,61.084,44.425ZM61.084,44.425"/>
</g>
  <g id="Bold-L" transform="matrix(1.0,0.0,0.0,1.0,2274.622646913948,1454.26594115137)">  <path stroke-linecap="butt" stroke-opacity="1" fill-opacity="1" stroke="none" stroke-linejoin="miter" fill-rule="nonzero" fill="#000000" stroke-miterlimit="4" stroke-dasharray="none" stroke-width="1px" d="M86.284,99.956L24.778,99.956C17.226,99.956,11.106,93.837,11.106,86.284L11.106,24.778C11.106,17.226,17.226,11.106,24.778,11.106L86.284,11.106C93.837,11.106,99.956,17.226,99.956,24.778L99.956,86.284C99.956,93.837,93.837,99.956,86.284,99.956ZM88.85,83.502L88.85,27.555C88.85,24.606,86.456,22.212,83.508,22.212L27.555,22.212C24.606,22.212,22.212,24.606,22.212,27.555L22.212,83.502C22.212,86.456,24.606,88.85,27.555,88.85L83.508,88.85C86.456,88.85,88.85,86.456,88.85,83.502ZM46.99,122.168C39.438,122.168,33.319,116.049,33.319,108.497L33.319,105.509L44.425,105.509L44.425,105.715C44.425,108.669,46.818,111.062,49.767,111.062L105.72,111.062C108.669,111.062,111.062,108.669,111.062,105.715L111.062,99.956L105.509,99.956L105.509,88.85L111.062,88.85L111.062,49.767C111.062,46.818,108.669,44.425,105.72,44.425L105.509,44.425L105.509,33.319L108.497,33.319C116.049,33.319,122.168,39.438,122.168,46.99L122.168,108.497C122.168,116.049,116.049,122.168,108.497,122.168ZM61.084,44.425L61.084,49.978L66.637,49.978C69.703,49.978,72.19,52.466,72.19,55.531C72.19,58.596,69.703,61.084,66.637,61.084L61.084,61.084L61.084,66.637C61.084,69.703,58.596,72.19,55.531,72.19C52.466,72.19,49.978,69.703,49.978,66.637L49.978,61.084L44.425,61.084C41.36,61.084,38.872,58.596,38.872,55.531C38.872,52.466,41.36,49.978,44.425,49.978L49.978,49.978L49.978,44.425C49.978,41.36,52.466,38.872,55.531,38.872C58.596,38.872,61.084,41.36,61.084,44.425ZM61.084,44.425"/>
</g>
  <g id="Semibold-L" transform="matrix(1.0,0.0,0.0,1.0,1977.9126469139478,1454.26594115137)">  <path stroke-linecap="butt" fill-opacity="1" fill="#000000" stroke-linejoin="miter" stroke-width="1px" stroke="none" stroke-dasharray="none" stroke-miterlimit="4" stroke-opacity="1" fill-rule="nonzero" d="M86.284,99.956L24.778,99.956C17.226,99.956,11.106,93.837,11.106,86.284L11.106,24.778C11.106,17.226,17.226,11.106,24.778,11.106L86.284,11.106C93.837,11.106,99.956,17.226,99.956,24.778L99.956,86.284C99.956,93.837,93.837,99.956,86.284,99.956ZM88.85,83.502L88.85,27.555C88.85,24.606,86.456,22.212,83.508,22.212L27.555,22.212C24.606,22.212,22.212,24.606,22.212,27.555L22.212,83.502C22.212,86.456,24.606,88.85,27.555,88.85L83.508,88.85C86.456,88.85,88.85,86.456,88.85,83.502ZM46.99,122.168C39.438,122.168,33.319,116.049,33.319,108.497L33.319,105.509L44.425,105.509L44.425,105.715C44.425,108.669,46.818,111.062,49.767,111.062L105.72,111.062C108.669,111.062,111.062,108.669,111.062,105.715L111.062,99.956L105.509,99.956L105.509,88.85L111.062,88.85L111.062,49.767C111.062,46.818,108.669,44.425,105.72,44.425L105.509,44.425L105.509,33.319L108.497,33.319C116.049,33.319,122.168,39.438,122.168,46.99L122.168,108.497C122.168,116.049,116.049,122.168,108.497,122.168ZM61.084,44.425L61.084,49.978L66.637,49.978C69.703,49.978,72.19,52.466,72.19,55.531C72.19,58.596,69.703,61.084,66.637,61.084L61.084,61.084L61.084,66.637C61.084,69.703,58.596,72.19,55.531,72.19C52.466,72.19,49.978,69.703,49.978,66.637L49.978,61.084L44.425,61.084C41.36,61.084,38.872,58.596,38.872,55.531C38.872,52.466,41.36,49.978,44.425,49.978L49.978,49.978L49.978,44.425C49.978,41.36,52.466,38.872,55.531,38.872C58.596,38.872,61.084,41.36,61.084,44.425ZM61.084,44.425"/>
</g>
  <g id="Medium-L" transform="matrix(1.0,0.0,0.0,1.0,1681.2026469139478,1454.26594115137)">  <path stroke-width="1px" stroke-miterlimit="4" stroke="none" stroke-linejoin="miter" stroke-dasharray="none" fill-rule="nonzero" stroke-linecap="butt" stroke-opacity="1" fill="#000000" fill-opacity="1" d="M86.284,99.956L24.778,99.956C17.226,99.956,11.106,93.837,11.106,86.284L11.106,24.778C11.106,17.226,17.226,11.106,24.778,11.106L86.284,11.106C93.837,11.106,99.956,17.226,99.956,24.778L99.956,86.284C99.956,93.837,93.837,99.956,86.284,99.956ZM88.85,83.502L88.85,27.555C88.85,24.606,86.456,22.212,83.508,22.212L27.555,22.212C24.606,22.212,22.212,24.606,22.212,27.555L22.212,83.502C22.212,86.456,24.606,88.85,27.555,88.85L83.508,88.85C86.456,88.85,88.85,86.456,88.85,83.502ZM46.99,122.168C39.438,122.168,33.319,116.049,33.319,108.497L33.319,105.509L44.425,105.509L44.425,105.715C44.425,108.669,46.818,111.062,49.767,111.062L105.72,111.062C108.669,111.062,111.062,108.669,111.062,105.715L111.062,99.956L105.509,99.956L105.509,88.85L111.062,88.85L111.062,49.767C111.062,46.818,108.669,44.425,105.72,44.425L105.509,44.425L105.509,33.319L108.497,33.319C116.049,33.319,122.168,39.438,122.168,46.99L122.168,108.497C122.168,116.049,116.049,122.168,108.497,122.168ZM61.084,44.425L61.084,49.978L66.637,49.978C69.703,49.978,72.19,52.466,72.19,55.531C72.19,58.596,69.703,61.084,66.637,61.084L61.084,61.084L61.084,66.637C61.084,69.703,58.596,72.19,55.531,72.19C52.466,72.19,49.978,69.703,49.978,66.637L49.978,61.084L44.425,61.084C41.36,61.084,38.872,58.596,38.872,55.531C38.872,52.466,41.36,49.978,44.425,49.978L49.978,49.978L49.978,44.425C49.978,41.36,52.466,38.872,55.531,38.872C58.596,38.872,61.084,41.36,61.084,44.425ZM61.084,44.425"/>
</g>
  <g id="Regular-L" transform="matrix(1.0,0.0,0.0,1.0,1384.4926469139477,1454.26594115137)">  <path stroke-dasharray="none" stroke-miterlimit="4" stroke-opacity="1" stroke-linejoin="miter" fill-opacity="1" stroke="none" stroke-linecap="butt" fill-rule="nonzero" fill="#000000" stroke-width="1px" d="M86.284,99.956L24.778,99.956C17.226,99.956,11.106,93.837,11.106,86.284L11.106,24.778C11.106,17.226,17.226,11.106,24.778,11.106L86.284,11.106C93.837,11.106,99.956,17.226,99.956,24.778L99.956,86.284C99.956,93.837,93.837,99.956,86.284,99.956ZM88.85,83.502L88.85,27.555C88.85,24.606,86.456,22.212,83.508,22.212L27.555,22.212C24.606,22.212,22.212,24.606,22.212,27.555L22.212,83.502C22.212,86.456,24.606,88.85,27.555,88.85L83.508,88.85C86.456,88.85,88.85,86.456,88.85,83.502ZM46.99,122.168C39.438,122.168,33.319,116.049,33.319,108.497L33.319,105.509L44.425,105.509L44.425,105.715C44.425,108.669,46.818,111.062,49.767,111.062L105.72,111.062C108.669,111.062,111.062,108.669,111.062,105.715L111.062,99.956L105.509,99.956L105.509,88.85L111.062,88.85L111.062,49.767C111.062,46.818,108.669,44.425,105.72,44.425L105.509,44.425L105.509,33.319L108.497,33.319C116.049,33.319,122.168,39.438,122.168,46.99L122.168,108.497C122.168,116.049,116.049,122.168,108.497,122.168ZM61.084,44.425L61.084,49.978L66.637,49.978C69.703,49.978,72.19,52.466,72.19,55.531C72.19,58.596,69.703,61.084,66.637,61.084L61.084,61.084L61.084,66.637C61.084,69.703,58.596,72.19,55.531,72.19C52.466,72.19,49.978,69.703,49.978,66.637L49.978,61.084L44.425,61.084C41.36,61.084,38.872,58.596,38.872,55.531C38.872,52.466,41.36,49.978,44.425,49.978L49.978,49.978L49.978,44.425C49.978,41.36,52.466,38.872,55.531,38.872C58.596,38.872,61.084,41.36,61.084,44.425ZM61.084,44.425"/>
</g>
  <g id="Light-L" transform="matrix(1.0,0.0,0.0,1.0,1087.782646913948,1454.26594115137)">  <path fill-opacity="1" stroke-miterlimit="4" stroke="none" stroke-width="1px" stroke-linecap="butt" stroke-dasharray="none" fill="#000000" stroke-opacity="1" stroke-linejoin="miter" fill-rule="nonzero" d="M86.284,99.956L24.778,99.956C17.226,99.956,11.106,93.837,11.106,86.284L11.106,24.778C11.106,17.226,17.226,11.106,24.778,11.106L86.284,11.106C93.837,11.106,99.956,17.226,99.956,24.778L99.956,86.284C99.956,93.837,93.837,99.956,86.284,99.956ZM88.85,83.502L88.85,27.555C88.85,24.606,86.456,22.212,83.508,22.212L27.555,22.212C24.606,22.212,22.212,24.606,22.212,27.555L22.212,83.502C22.212,86.456,24.606,88.85,27.555,88.85L83.508,88.85C86.456,88.85,88.85,86.456,88.85,83.502ZM46.99,122.168C39.438,122.168,33.319,116.049,33.319,108.497L33.319,105.509L44.425,105.509L44.425,105.715C44.425,108.669,46.818,111.062,49.767,111.062L105.72,111.062C108.669,111.062,111.062,108.669,111.062,105.715L111.062,99.956L105.509,99.956L105.509,88.85L111.062,88.85L111.062,49.767C111.062,46.818,108.669,44.425,105.72,44.425L105.509,44.425L105.509,33.319L108.497,33.319C116.049,33.319,122.168,39.438,122.168,46.99L122.168,108.497C122.168,116.049,116.049,122.168,108.497,122.168ZM61.084,44.425L61.084,49.978L66.637,49.978C69.703,49.978,72.19,52.466,72.19,55.531C72.19,58.596,69.703,61.084,66.637,61.084L61.084,61.084L61.084,66.637C61.084,69.703,58.596,72.19,55.531,72.19C52.466,72.19,49.978,69.703,49.978,66.637L49.978,61.084L44.425,61.084C41.36,61.084,38.872,58.596,38.872,55.531C38.872,52.466,41.36,49.978,44.425,49.978L49.978,49.978L49.978,44.425C49.978,41.36,52.466,38.872,55.531,38.872C58.596,38.872,61.084,41.36,61.084,44.425ZM61.084,44.425"/>
</g>
  <g id="Thin-L" transform="matrix(1.0,0.0,0.0,1.0,791.072646913948,1454.26594115137)">  <path fill="#000000" stroke-opacity="1" stroke-linejoin="miter" fill-opacity="1" stroke-dasharray="none" stroke-miterlimit="4" stroke-width="1px" stroke-linecap="butt" fill-rule="nonzero" stroke="none" d="M86.284,99.956L24.778,99.956C17.226,99.956,11.106,93.837,11.106,86.284L11.106,24.778C11.106,17.226,17.226,11.106,24.778,11.106L86.284,11.106C93.837,11.106,99.956,17.226,99.956,24.778L99.956,86.284C99.956,93.837,93.837,99.956,86.284,99.956ZM88.85,83.502L88.85,27.555C88.85,24.606,86.456,22.212,83.508,22.212L27.555,22.212C24.606,22.212,22.212,24.606,22.212,27.555L22.212,83.502C22.212,86.456,24.606,88.85,27.555,88.85L83.508,88.85C86.456,88.85,88.85,86.456,88.85,83.502ZM46.99,122.168C39.438,122.168,33.319,116.049,33.319,108.497L33.319,105.509L44.425,105.509L44.425,105.715C44.425,108.669,46.818,111.062,49.767,111.062L105.72,111.062C108.669,111.062,111.062,108.669,111.062,105.715L111.062,99.956L105.509,99.956L105.509,88.85L111.062,88.85L111.062,49.767C111.062,46.818,108.669,44.425,105.72,44.425L105.509,44.425L105.509,33.319L108.497,33.319C116.049,33.319,122.168,39.438,122.168,46.99L122.168,108.497C122.168,116.049,116.049,122.168,108.497,122.168ZM61.084,44.425L61.084,49.978L66.637,49.978C69.703,49.978,72.19,52.466,72.19,55.531C72.19,58.596,69.703,61.084,66.637,61.084L61.084,61.084L61.084,66.637C61.084,69.703,58.596,72.19,55.531,72.19C52.466,72.19,49.978,69.703,49.978,66.637L49.978,61.084L44.425,61.084C41.36,61.084,38.872,58.596,38.872,55.531C38.872,52.466,41.36,49.978,44.425,49.978L49.978,49.978L49.978,44.425C49.978,41.36,52.466,38.872,55.531,38.872C58.596,38.872,61.084,41.36,61.084,44.425ZM61.084,44.425"/>
</g>
  <g id="Ultralight-L" transform="matrix(1.0,0.0,0.0,1.0,494.36264691394797,1454.26594115137)">  <path stroke-linejoin="miter" fill-opacity="1" stroke-opacity="1" fill-rule="nonzero" stroke-dasharray="none" stroke-width="1px" stroke="none" stroke-miterlimit="4" fill="#000000" stroke-linecap="butt" d="M86.284,99.956L24.778,99.956C17.226,99.956,11.106,93.837,11.106,86.284L11.106,24.778C11.106,17.226,17.226,11.106,24.778,11.106L86.284,11.106C93.837,11.106,99.956,17.226,99.956,24.778L99.956,86.284C99.956,93.837,93.837,99.956,86.284,99.956ZM88.85,83.502L88.85,27.555C88.85,24.606,86.456,22.212,83.508,22.212L27.555,22.212C24.606,22.212,22.212,24.606,22.212,27.555L22.212,83.502C22.212,86.456,24.606,88.85,27.555,88.85L83.508,88.85C86.456,88.85,88.85,86.456,88.85,83.502ZM46.99,122.168C39.438,122.168,33.319,116.049,33.319,108.497L33.319,105.509L44.425,105.509L44.425,105.715C44.425,108.669,46.818,111.062,49.767,111.062L105.72,111.062C108.669,111.062,111.062,108.669,111.062,105.715L111.062,99.956L105.509,99.956L105.509,88.85L111.062,88.85L111.062,49.767C111.062,46.818,108.669,44.425,105.72,44.425L105.509,44.425L105.509,33.319L108.497,33.319C116.049,33.319,122.168,39.438,122.168,46.99L122.168,108.497C122.168,116.049,116.049,122.168,108.497,122.168ZM61.084,44.425L61.084,49.978L66.637,49.978C69.703,49.978,72.19,52.466,72.19,55.531C72.19,58.596,69.703,61.084,66.637,61.084L61.084,61.084L61.084,66.637C61.084,69.703,58.596,72.19,55.531,72.19C52.466,72.19,49.978,69.703,49.978,66.637L49.978,61.084L44.425,61.084C41.36,61.084,38.872,58.596,38.872,55.531C38.872,52.466,41.36,49.978,44.425,49.978L49.978,49.978L49.978,44.425C49.978,41.36,52.466,38.872,55.531,38.872C58.596,38.872,61.084,41.36,61.084,44.425ZM61.084,44.425"/>
</g>
  <g id="Black-M" transform="matrix(1.0,0.0,0.0,1.0,2883.0231371425953,1039.2164703995602)">  <path fill="#000000" stroke-width="1px" fill-rule="nonzero" stroke-opacity="1" stroke-miterlimit="4" stroke="none" stroke-dasharray="none" stroke-linecap="butt" stroke-linejoin="miter" fill-opacity="1" d="M66.887,77.485L19.208,77.485C13.353,77.485,8.609,72.741,8.609,66.887L8.609,19.208C8.609,13.353,13.353,8.609,19.208,8.609L66.887,8.609C72.741,8.609,77.485,13.353,77.485,19.208L77.485,66.887C77.485,72.741,72.741,77.485,66.887,77.485ZM68.876,64.73L68.876,21.36C68.876,19.074,67.02,17.219,64.735,17.219L21.36,17.219C19.074,17.219,17.219,19.074,17.219,21.36L17.219,64.73C17.219,67.02,19.074,68.876,21.36,68.876L64.735,68.876C67.02,68.876,68.876,67.02,68.876,64.73ZM36.427,94.704C30.572,94.704,25.828,89.96,25.828,84.106L25.828,81.79L34.438,81.79L34.438,81.949C34.438,84.239,36.293,86.095,38.579,86.095L81.954,86.095C84.239,86.095,86.095,84.239,86.095,81.949L86.095,77.485L81.79,77.485L81.79,68.876L86.095,68.876L86.095,38.579C86.095,36.293,84.239,34.438,81.954,34.438L81.79,34.438L81.79,25.828L84.106,25.828C89.96,25.828,94.704,30.572,94.704,36.427L94.704,84.106C94.704,89.96,89.96,94.704,84.106,94.704ZM47.352,34.438L47.352,38.743L51.657,38.743C54.033,38.743,55.962,40.671,55.962,43.047C55.962,45.424,54.033,47.352,51.657,47.352L47.352,47.352L47.352,51.657C47.352,54.033,45.424,55.962,43.047,55.962C40.671,55.962,38.743,54.033,38.743,51.657L38.743,47.352L34.438,47.352C32.062,47.352,30.133,45.424,30.133,43.047C30.133,40.671,32.062,38.743,34.438,38.743L38.743,38.743L38.743,34.438C38.743,32.062,40.671,30.133,43.047,30.133C45.424,30.133,47.352,32.062,47.352,34.438ZM47.352,34.438"/>
</g>
  <g id="Heavy-M" transform="matrix(1.0,0.0,0.0,1.0,2586.313137142595,1039.2164703995602)">  <path stroke-dasharray="none" stroke-miterlimit="4" stroke-linejoin="miter" stroke-opacity="1" fill-rule="nonzero" fill-opacity="1" stroke="none" stroke-linecap="butt" stroke-width="1px" fill="#000000" d="M66.887,77.485L19.208,77.485C13.353,77.485,8.609,72.741,8.609,66.887L8.609,19.208C8.609,13.353,13.353,8.609,19.208,8.609L66.887,8.609C72.741,8.609,77.485,13.353,77.485,19.208L77.485,66.887C77.485,72.741,72.741,77.485,66.887,77.485ZM68.876,64.73L68.876,21.36C68.876,19.074,67.02,17.219,64.735,17.219L21.36,17.219C19.074,17.219,17.219,19.074,17.219,21.36L17.219,64.73C17.219,67.02,19.074,68.876,21.36,68.876L64.735,68.876C67.02,68.876,68.876,67.02,68.876,64.73ZM36.427,94.704C30.572,94.704,25.828,89.96,25.828,84.106L25.828,81.79L34.438,81.79L34.438,81.949C34.438,84.239,36.293,86.095,38.579,86.095L81.954,86.095C84.239,86.095,86.095,84.239,86.095,81.949L86.095,77.485L81.79,77.485L81.79,68.876L86.095,68.876L86.095,38.579C86.095,36.293,84.239,34.438,81.954,34.438L81.79,34.438L81.79,25.828L84.106,25.828C89.96,25.828,94.704,30.572,94.704,36.427L94.704,84.106C94.704,89.96,89.96,94.704,84.106,94.704ZM47.352,34.438L47.352,38.743L51.657,38.743C54.033,38.743,55.962,40.671,55.962,43.047C55.962,45.424,54.033,47.352,51.657,47.352L47.352,47.352L47.352,51.657C47.352,54.033,45.424,55.962,43.047,55.962C40.671,55.962,38.743,54.033,38.743,51.657L38.743,47.352L34.438,47.352C32.062,47.352,30.133,45.424,30.133,43.047C30.133,40.671,32.062,38.743,34.438,38.743L38.743,38.743L38.743,34.438C38.743,32.062,40.671,30.133,43.047,30.133C45.424,30.133,47.352,32.062,47.352,34.438ZM47.352,34.438"/>
</g>
  <g id="Bold-M" transform="matrix(1.0,0.0,0.0,1.0,2289.603137142595,1039.2164703995602)">  <path stroke-linecap="butt" stroke-opacity="1" fill-opacity="1" stroke="none" stroke-linejoin="miter" fill-rule="nonzero" fill="#000000" stroke-miterlimit="4" stroke-dasharray="none" stroke-width="1px" d="M66.887,77.485L19.208,77.485C13.353,77.485,8.609,72.741,8.609,66.887L8.609,19.208C8.609,13.353,13.353,8.609,19.208,8.609L66.887,8.609C72.741,8.609,77.485,13.353,77.485,19.208L77.485,66.887C77.485,72.741,72.741,77.485,66.887,77.485ZM68.876,64.73L68.876,21.36C68.876,19.074,67.02,17.219,64.735,17.219L21.36,17.219C19.074,17.219,17.219,19.074,17.219,21.36L17.219,64.73C17.219,67.02,19.074,68.876,21.36,68.876L64.735,68.876C67.02,68.876,68.876,67.02,68.876,64.73ZM36.427,94.704C30.572,94.704,25.828,89.96,25.828,84.106L25.828,81.79L34.438,81.79L34.438,81.949C34.438,84.239,36.293,86.095,38.579,86.095L81.954,86.095C84.239,86.095,86.095,84.239,86.095,81.949L86.095,77.485L81.79,77.485L81.79,68.876L86.095,68.876L86.095,38.579C86.095,36.293,84.239,34.438,81.954,34.438L81.79,34.438L81.79,25.828L84.106,25.828C89.96,25.828,94.704,30.572,94.704,36.427L94.704,84.106C94.704,89.96,89.96,94.704,84.106,94.704ZM47.352,34.438L47.352,38.743L51.657,38.743C54.033,38.743,55.962,40.671,55.962,43.047C55.962,45.424,54.033,47.352,51.657,47.352L47.352,47.352L47.352,51.657C47.352,54.033,45.424,55.962,43.047,55.962C40.671,55.962,38.743,54.033,38.743,51.657L38.743,47.352L34.438,47.352C32.062,47.352,30.133,45.424,30.133,43.047C30.133,40.671,32.062,38.743,34.438,38.743L38.743,38.743L38.743,34.438C38.743,32.062,40.671,30.133,43.047,30.133C45.424,30.133,47.352,32.062,47.352,34.438ZM47.352,34.438"/>
</g>
  <g id="Semibold-M" transform="matrix(1.0,0.0,0.0,1.0,1992.8931371425952,1039.2164703995602)">  <path stroke-linecap="butt" fill-opacity="1" fill="#000000" stroke-linejoin="miter" stroke-width="1px" stroke="none" stroke-dasharray="none" stroke-miterlimit="4" stroke-opacity="1" fill-rule="nonzero" d="M66.887,77.485L19.208,77.485C13.353,77.485,8.609,72.741,8.609,66.887L8.609,19.208C8.609,13.353,13.353,8.609,19.208,8.609L66.887,8.609C72.741,8.609,77.485,13.353,77.485,19.208L77.485,66.887C77.485,72.741,72.741,77.485,66.887,77.485ZM68.876,64.73L68.876,21.36C68.876,19.074,67.02,17.219,64.735,17.219L21.36,17.219C19.074,17.219,17.219,19.074,17.219,21.36L17.219,64.73C17.219,67.02,19.074,68.876,21.36,68.876L64.735,68.876C67.02,68.876,68.876,67.02,68.876,64.73ZM36.427,94.704C30.572,94.704,25.828,89.96,25.828,84.106L25.828,81.79L34.438,81.79L34.438,81.949C34.438,84.239,36.293,86.095,38.579,86.095L81.954,86.095C84.239,86.095,86.095,84.239,86.095,81.949L86.095,77.485L81.79,77.485L81.79,68.876L86.095,68.876L86.095,38.579C86.095,36.293,84.239,34.438,81.954,34.438L81.79,34.438L81.79,25.828L84.106,25.828C89.96,25.828,94.704,30.572,94.704,36.427L94.704,84.106C94.704,89.96,89.96,94.704,84.106,94.704ZM47.352,34.438L47.352,38.743L51.657,38.743C54.033,38.743,55.962,40.671,55.962,43.047C55.962,45.424,54.033,47.352,51.657,47.352L47.352,47.352L47.352,51.657C47.352,54.033,45.424,55.962,43.047,55.962C40.671,55.962,38.743,54.033,38.743,51.657L38.743,47.352L34.438,47.352C32.062,47.352,30.133,45.424,30.133,43.047C30.133,40.671,32.062,38.743,34.438,38.743L38.743,38.743L38.743,34.438C38.743,32.062,40.671,30.133,43.047,30.133C45.424,30.133,47.352,32.062,47.352,34.438ZM47.352,34.438"/>
</g>
  <g id="Medium-M" transform="matrix(1.0,0.0,0.0,1.0,1696.1831371425951,1039.2164703995602)">  <path stroke-width="1px" stroke-miterlimit="4" stroke="none" stroke-linejoin="miter" stroke-dasharray="none" fill-rule="nonzero" stroke-linecap="butt" stroke-opacity="1" fill="#000000" fill-opacity="1" d="M66.887,77.485L19.208,77.485C13.353,77.485,8.609,72.741,8.609,66.887L8.609,19.208C8.609,13.353,13.353,8.609,19.208,8.609L66.887,8.609C72.741,8.609,77.485,13.353,77.485,19.208L77.485,66.887C77.485,72.741,72.741,77.485,66.887,77.485ZM68.876,64.73L68.876,21.36C68.876,19.074,67.02,17.219,64.735,17.219L21.36,17.219C19.074,17.219,17.219,19.074,17.219,21.36L17.219,64.73C17.219,67.02,19.074,68.876,21.36,68.876L64.735,68.876C67.02,68.876,68.876,67.02,68.876,64.73ZM36.427,94.704C30.572,94.704,25.828,89.96,25.828,84.106L25.828,81.79L34.438,81.79L34.438,81.949C34.438,84.239,36.293,86.095,38.579,86.095L81.954,86.095C84.239,86.095,86.095,84.239,86.095,81.949L86.095,77.485L81.79,77.485L81.79,68.876L86.095,68.876L86.095,38.579C86.095,36.293,84.239,34.438,81.954,34.438L81.79,34.438L81.79,25.828L84.106,25.828C89.96,25.828,94.704,30.572,94.704,36.427L94.704,84.106C94.704,89.96,89.96,94.704,84.106,94.704ZM47.352,34.438L47.352,38.743L51.657,38.743C54.033,38.743,55.962,40.671,55.962,43.047C55.962,45.424,54.033,47.352,51.657,47.352L47.352,47.352L47.352,51.657C47.352,54.033,45.424,55.962,43.047,55.962C40.671,55.962,38.743,54.033,38.743,51.657L38.743,47.352L34.438,47.352C32.062,47.352,30.133,45.424,30.133,43.047C30.133,40.671,32.062,38.743,34.438,38.743L38.743,38.743L38.743,34.438C38.743,32.062,40.671,30.133,43.047,30.133C45.424,30.133,47.352,32.062,47.352,34.438ZM47.352,34.438"/>
</g>
  <g id="Regular-M" transform="matrix(1.0,0.0,0.0,1.0,1399.473137142595,1039.2164703995602)">  <path stroke-dasharray="none" stroke-miterlimit="4" stroke-opacity="1" stroke-linejoin="miter" fill-opacity="1" stroke="none" stroke-linecap="butt" fill-rule="nonzero" fill="#000000" stroke-width="1px" d="M66.887,77.485L19.208,77.485C13.353,77.485,8.609,72.741,8.609,66.887L8.609,19.208C8.609,13.353,13.353,8.609,19.208,8.609L66.887,8.609C72.741,8.609,77.485,13.353,77.485,19.208L77.485,66.887C77.485,72.741,72.741,77.485,66.887,77.485ZM68.876,64.73L68.876,21.36C68.876,19.074,67.02,17.219,64.735,17.219L21.36,17.219C19.074,17.219,17.219,19.074,17.219,21.36L17.219,64.73C17.219,67.02,19.074,68.876,21.36,68.876L64.735,68.876C67.02,68.876,68.876,67.02,68.876,64.73ZM36.427,94.704C30.572,94.704,25.828,89.96,25.828,84.106L25.828,81.79L34.438,81.79L34.438,81.949C34.438,84.239,36.293,86.095,38.579,86.095L81.954,86.095C84.239,86.095,86.095,84.239,86.095,81.949L86.095,77.485L81.79,77.485L81.79,68.876L86.095,68.876L86.095,38.579C86.095,36.293,84.239,34.438,81.954,34.438L81.79,34.438L81.79,25.828L84.106,25.828C89.96,25.828,94.704,30.572,94.704,36.427L94.704,84.106C94.704,89.96,89.96,94.704,84.106,94.704ZM47.352,34.438L47.352,38.743L51.657,38.743C54.033,38.743,55.962,40.671,55.962,43.047C55.962,45.424,54.033,47.352,51.657,47.352L47.352,47.352L47.352,51.657C47.352,54.033,45.424,55.962,43.047,55.962C40.671,55.962,38.743,54.033,38.743,51.657L38.743,47.352L34.438,47.352C32.062,47.352,30.133,45.424,30.133,43.047C30.133,40.671,32.062,38.743,34.438,38.743L38.743,38.743L38.743,34.438C38.743,32.062,40.671,30.133,43.047,30.133C45.424,30.133,47.352,32.062,47.352,34.438ZM47.352,34.438"/>
</g>
  <g id="Light-M" transform="matrix(1.0,0.0,0.0,1.0,1102.7631371425955,1039.2164703995602)">  <path fill-opacity="1" stroke-miterlimit="4" stroke="none" stroke-width="1px" stroke-linecap="butt" stroke-dasharray="none" fill="#000000" stroke-opacity="1" stroke-linejoin="miter" fill-rule="nonzero" d="M66.887,77.485L19.208,77.485C13.353,77.485,8.609,72.741,8.609,66.887L8.609,19.208C8.609,13.353,13.353,8.609,19.208,8.609L66.887,8.609C72.741,8.609,77.485,13.353,77.485,19.208L77.485,66.887C77.485,72.741,72.741,77.485,66.887,77.485ZM68.876,64.73L68.876,21.36C68.876,19.074,67.02,17.219,64.735,17.219L21.36,17.219C19.074,17.219,17.219,19.074,17.219,21.36L17.219,64.73C17.219,67.02,19.074,68.876,21.36,68.876L64.735,68.876C67.02,68.876,68.876,67.02,68.876,64.73ZM36.427,94.704C30.572,94.704,25.828,89.96,25.828,84.106L25.828,81.79L34.438,81.79L34.438,81.949C34.438,84.239,36.293,86.095,38.579,86.095L81.954,86.095C84.239,86.095,86.095,84.239,86.095,81.949L86.095,77.485L81.79,77.485L81.79,68.876L86.095,68.876L86.095,38.579C86.095,36.293,84.239,34.438,81.954,34.438L81.79,34.438L81.79,25.828L84.106,25.828C89.96,25.828,94.704,30.572,94.704,36.427L94.704,84.106C94.704,89.96,89.96,94.704,84.106,94.704ZM47.352,34.438L47.352,38.743L51.657,38.743C54.033,38.743,55.962,40.671,55.962,43.047C55.962,45.424,54.033,47.352,51.657,47.352L47.352,47.352L47.352,51.657C47.352,54.033,45.424,55.962,43.047,55.962C40.671,55.962,38.743,54.033,38.743,51.657L38.743,47.352L34.438,47.352C32.062,47.352,30.133,45.424,30.133,43.047C30.133,40.671,32.062,38.743,34.438,38.743L38.743,38.743L38.743,34.438C38.743,32.062,40.671,30.133,43.047,30.133C45.424,30.133,47.352,32.062,47.352,34.438ZM47.352,34.438"/>
</g>
  <g id="Thin-M" transform="matrix(1.0,0.0,0.0,1.0,806.0531371425953,1039.2164703995602)">  <path fill="#000000" stroke-opacity="1" stroke-linejoin="miter" fill-opacity="1" stroke-dasharray="none" stroke-miterlimit="4" stroke-width="1px" stroke-linecap="butt" fill-rule="nonzero" stroke="none" d="M66.887,77.485L19.208,77.485C13.353,77.485,8.609,72.741,8.609,66.887L8.609,19.208C8.609,13.353,13.353,8.609,19.208,8.609L66.887,8.609C72.741,8.609,77.485,13.353,77.485,19.208L77.485,66.887C77.485,72.741,72.741,77.485,66.887,77.485ZM68.876,64.73L68.876,21.36C68.876,19.074,67.02,17.219,64.735,17.219L21.36,17.219C19.074,17.219,17.219,19.074,17.219,21.36L17.219,64.73C17.219,67.02,19.074,68.876,21.36,68.876L64.735,68.876C67.02,68.876,68.876,67.02,68.876,64.73ZM36.427,94.704C30.572,94.704,25.828,89.96,25.828,84.106L25.828,81.79L34.438,81.79L34.438,81.949C34.438,84.239,36.293,86.095,38.579,86.095L81.954,86.095C84.239,86.095,86.095,84.239,86.095,81.949L86.095,77.485L81.79,77.485L81.79,68.876L86.095,68.876L86.095,38.579C86.095,36.293,84.239,34.438,81.954,34.438L81.79,34.438L81.79,25.828L84.106,25.828C89.96,25.828,94.704,30.572,94.704,36.427L94.704,84.106C94.704,89.96,89.96,94.704,84.106,94.704ZM47.352,34.438L47.352,38.743L51.657,38.743C54.033,38.743,55.962,40.671,55.962,43.047C55.962,45.424,54.033,47.352,51.657,47.352L47.352,47.352L47.352,51.657C47.352,54.033,45.424,55.962,43.047,55.962C40.671,55.962,38.743,54.033,38.743,51.657L38.743,47.352L34.438,47.352C32.062,47.352,30.133,45.424,30.133,43.047C30.133,40.671,32.062,38.743,34.438,38.743L38.743,38.743L38.743,34.438C38.743,32.062,40.671,30.133,43.047,30.133C45.424,30.133,47.352,32.062,47.352,34.438ZM47.352,34.438"/>
</g>
  <g id="Ultralight-M" transform="matrix(1.0,0.0,0.0,1.0,509.3431371425953,1039.2164703995602)">  <path stroke-linejoin="miter" fill-opacity="1" stroke-opacity="1" fill-rule="nonzero" stroke-dasharray="none" stroke-width="1px" stroke="none" stroke-miterlimit="4" fill="#000000" stroke-linecap="butt" d="M66.887,77.485L19.208,77.485C13.353,77.485,8.609,72.741,8.609,66.887L8.609,19.208C8.609,13.353,13.353,8.609,19.208,8.609L66.887,8.609C72.741,8.609,77.485,13.353,77.485,19.208L77.485,66.887C77.485,72.741,72.741,77.485,66.887,77.485ZM68.876,64.73L68.876,21.36C68.876,19.074,67.02,17.219,64.735,17.219L21.36,17.219C19.074,17.219,17.219,19.074,17.219,21.36L17.219,64.73C17.219,67.02,19.074,68.876,21.36,68.876L64.735,68.876C67.02,68.876,68.876,67.02,68.876,64.73ZM36.427,94.704C30.572,94.704,25.828,89.96,25.828,84.106L25.828,81.79L34.438,81.79L34.438,81.949C34.438,84.239,36.293,86.095,38.579,86.095L81.954,86.095C84.239,86.095,86.095,84.239,86.095,81.949L86.095,77.485L81.79,77.485L81.79,68.876L86.095,68.876L86.095,38.579C86.095,36.293,84.239,34.438,81.954,34.438L81.79,34.438L81.79,25.828L84.106,25.828C89.96,25.828,94.704,30.572,94.704,36.427L94.704,84.106C94.704,89.96,89.96,94.704,84.106,94.704ZM47.352,34.438L47.352,38.743L51.657,38.743C54.033,38.743,55.962,40.671,55.962,43.047C55.962,45.424,54.033,47.352,51.657,47.352L47.352,47.352L47.352,51.657C47.352,54.033,45.424,55.962,43.047,55.962C40.671,55.962,38.743,54.033,38.743,51.657L38.743,47.352L34.438,47.352C32.062,47.352,30.133,45.424,30.133,43.047C30.133,40.671,32.062,38.743,34.438,38.743L38.743,38.743L38.743,34.438C38.743,32.062,40.671,30.133,43.047,30.133C45.424,30.133,47.352,32.062,47.352,34.438ZM47.352,34.438"/>
</g>
  <g id="Black-S" transform="matrix(1.0,0.0,0.0,1.0,2894.232676382652,620.4035905611369)">  <path fill="#000000" stroke-width="1px" fill-rule="nonzero" stroke-opacity="1" stroke-miterlimit="4" stroke="none" stroke-dasharray="none" stroke-linecap="butt" stroke-linejoin="miter" fill-opacity="1" d="M52.373,60.671L15.04,60.671C10.456,60.671,6.741,56.957,6.741,52.373L6.741,15.04C6.741,10.456,10.456,6.741,15.04,6.741L52.373,6.741C56.957,6.741,60.671,10.456,60.671,15.04L60.671,52.373C60.671,56.957,56.957,60.671,52.373,60.671ZM53.93,50.684L53.93,16.725C53.93,14.935,52.477,13.482,50.687,13.482L16.725,13.482C14.935,13.482,13.482,14.935,13.482,16.725L13.482,50.684C13.482,52.477,14.935,53.93,16.725,53.93L50.687,53.93C52.477,53.93,53.93,52.477,53.93,50.684ZM28.522,74.153C23.938,74.153,20.224,70.439,20.224,65.855L20.224,64.042L26.965,64.042L26.965,64.166C26.965,65.959,28.418,67.412,30.207,67.412L64.17,67.412C65.959,67.412,67.412,65.959,67.412,64.166L67.412,60.671L64.042,60.671L64.042,53.93L67.412,53.93L67.412,30.207C67.412,28.418,65.959,26.965,64.17,26.965L64.042,26.965L64.042,20.224L65.855,20.224C70.439,20.224,74.153,23.938,74.153,28.522L74.153,65.855C74.153,70.439,70.439,74.153,65.855,74.153ZM37.077,26.965L37.077,30.335L40.447,30.335C42.308,30.335,43.818,31.846,43.818,33.706C43.818,35.567,42.308,37.077,40.447,37.077L37.077,37.077L37.077,40.447C37.077,42.308,35.567,43.818,33.706,43.818C31.846,43.818,30.335,42.308,30.335,40.447L30.335,37.077L26.965,37.077C25.104,37.077,23.594,35.567,23.594,33.706C23.594,31.846,25.104,30.335,26.965,30.335L30.335,30.335L30.335,26.965C30.335,25.104,31.846,23.594,33.706,23.594C35.567,23.594,37.077,25.104,37.077,26.965ZM37.077,26.965"/>
</g>
  <g id="Heavy-S" transform="matrix(1.0,0.0,0.0,1.0,2597.5226763826518,620.4035905611369)">  <path stroke-dasharray="none" stroke-miterlimit="4" stroke-linejoin="miter" stroke-opacity="1" fill-rule="nonzero" fill-opacity="1" stroke="none" stroke-linecap="butt" stroke-width="1px" fill="#000000" d="M52.373,60.671L15.04,60.671C10.456,60.671,6.741,56.957,6.741,52.373L6.741,15.04C6.741,10.456,10.456,6.741,15.04,6.741L52.373,6.741C56.957,6.741,60.671,10.456,60.671,15.04L60.671,52.373C60.671,56.957,56.957,60.671,52.373,60.671ZM53.93,50.684L53.93,16.725C53.93,14.935,52.477,13.482,50.687,13.482L16.725,13.482C14.935,13.482,13.482,14.935,13.482,16.725L13.482,50.684C13.482,52.477,14.935,53.93,16.725,53.93L50.687,53.93C52.477,53.93,53.93,52.477,53.93,50.684ZM28.522,74.153C23.938,74.153,20.224,70.439,20.224,65.855L20.224,64.042L26.965,64.042L26.965,64.166C26.965,65.959,28.418,67.412,30.207,67.412L64.17,67.412C65.959,67.412,67.412,65.959,67.412,64.166L67.412,60.671L64.042,60.671L64.042,53.93L67.412,53.93L67.412,30.207C67.412,28.418,65.959,26.965,64.17,26.965L64.042,26.965L64.042,20.224L65.855,20.224C70.439,20.224,74.153,23.938,74.153,28.522L74.153,65.855C74.153,70.439,70.439,74.153,65.855,74.153ZM37.077,26.965L37.077,30.335L40.447,30.335C42.308,30.335,43.818,31.846,43.818,33.706C43.818,35.567,42.308,37.077,40.447,37.077L37.077,37.077L37.077,40.447C37.077,42.308,35.567,43.818,33.706,43.818C31.846,43.818,30.335,42.308,30.335,40.447L30.335,37.077L26.965,37.077C25.104,37.077,23.594,35.567,23.594,33.706C23.594,31.846,25.104,30.335,26.965,30.335L30.335,30.335L30.335,26.965C30.335,25.104,31.846,23.594,33.706,23.594C35.567,23.594,37.077,25.104,37.077,26.965ZM37.077,26.965"/>
</g>
  <g id="Bold-S" transform="matrix(1.0,0.0,0.0,1.0,2300.8126763826517,620.4035905611369)">  <path stroke-linecap="butt" stroke-opacity="1" fill-opacity="1" stroke="none" stroke-linejoin="miter" fill-rule="nonzero" fill="#000000" stroke-miterlimit="4" stroke-dasharray="none" stroke-width="1px" d="M52.373,60.671L15.04,60.671C10.456,60.671,6.741,56.957,6.741,52.373L6.741,15.04C6.741,10.456,10.456,6.741,15.04,6.741L52.373,6.741C56.957,6.741,60.671,10.456,60.671,15.04L60.671,52.373C60.671,56.957,56.957,60.671,52.373,60.671ZM53.93,50.684L53.93,16.725C53.93,14.935,52.477,13.482,50.687,13.482L16.725,13.482C14.935,13.482,13.482,14.935,13.482,16.725L13.482,50.684C13.482,52.477,14.935,53.93,16.725,53.93L50.687,53.93C52.477,53.93,53.93,52.477,53.93,50.684ZM28.522,74.153C23.938,74.153,20.224,70.439,20.224,65.855L20.224,64.042L26.965,64.042L26.965,64.166C26.965,65.959,28.418,67.412,30.207,67.412L64.17,67.412C65.959,67.412,67.412,65.959,67.412,64.166L67.412,60.671L64.042,60.671L64.042,53.93L67.412,53.93L67.412,30.207C67.412,28.418,65.959,26.965,64.17,26.965L64.042,26.965L64.042,20.224L65.855,20.224C70.439,20.224,74.153,23.938,74.153,28.522L74.153,65.855C74.153,70.439,70.439,74.153,65.855,74.153ZM37.077,26.965L37.077,30.335L40.447,30.335C42.308,30.335,43.818,31.846,43.818,33.706C43.818,35.567,42.308,37.077,40.447,37.077L37.077,37.077L37.077,40.447C37.077,42.308,35.567,43.818,33.706,43.818C31.846,43.818,30.335,42.308,30.335,40.447L30.335,37.077L26.965,37.077C25.104,37.077,23.594,35.567,23.594,33.706C23.594,31.846,25.104,30.335,26.965,30.335L30.335,30.335L30.335,26.965C30.335,25.104,31.846,23.594,33.706,23.594C35.567,23.594,37.077,25.104,37.077,26.965ZM37.077,26.965"/>
</g>
  <g id="Semibold-S" transform="matrix(1.0,0.0,0.0,1.0,2004.1026763826521,620.4035905611369)">  <path stroke-linecap="butt" fill-opacity="1" fill="#000000" stroke-linejoin="miter" stroke-width="1px" stroke="none" stroke-dasharray="none" stroke-miterlimit="4" stroke-opacity="1" fill-rule="nonzero" d="M52.373,60.671L15.04,60.671C10.456,60.671,6.741,56.957,6.741,52.373L6.741,15.04C6.741,10.456,10.456,6.741,15.04,6.741L52.373,6.741C56.957,6.741,60.671,10.456,60.671,15.04L60.671,52.373C60.671,56.957,56.957,60.671,52.373,60.671ZM53.93,50.684L53.93,16.725C53.93,14.935,52.477,13.482,50.687,13.482L16.725,13.482C14.935,13.482,13.482,14.935,13.482,16.725L13.482,50.684C13.482,52.477,14.935,53.93,16.725,53.93L50.687,53.93C52.477,53.93,53.93,52.477,53.93,50.684ZM28.522,74.153C23.938,74.153,20.224,70.439,20.224,65.855L20.224,64.042L26.965,64.042L26.965,64.166C26.965,65.959,28.418,67.412,30.207,67.412L64.17,67.412C65.959,67.412,67.412,65.959,67.412,64.166L67.412,60.671L64.042,60.671L64.042,53.93L67.412,53.93L67.412,30.207C67.412,28.418,65.959,26.965,64.17,26.965L64.042,26.965L64.042,20.224L65.855,20.224C70.439,20.224,74.153,23.938,74.153,28.522L74.153,65.855C74.153,70.439,70.439,74.153,65.855,74.153ZM37.077,26.965L37.077,30.335L40.447,30.335C42.308,30.335,43.818,31.846,43.818,33.706C43.818,35.567,42.308,37.077,40.447,37.077L37.077,37.077L37.077,40.447C37.077,42.308,35.567,43.818,33.706,43.818C31.846,43.818,30.335,42.308,30.335,40.447L30.335,37.077L26.965,37.077C25.104,37.077,23.594,35.567,23.594,33.706C23.594,31.846,25.104,30.335,26.965,30.335L30.335,30.335L30.335,26.965C30.335,25.104,31.846,23.594,33.706,23.594C35.567,23.594,37.077,25.104,37.077,26.965ZM37.077,26.965"/>
</g>
  <g id="Medium-S" transform="matrix(1.0,0.0,0.0,1.0,1707.392676382652,620.4035905611369)">  <path stroke-width="1px" stroke-miterlimit="4" stroke="none" stroke-linejoin="miter" stroke-dasharray="none" fill-rule="nonzero" stroke-linecap="butt" stroke-opacity="1" fill="#000000" fill-opacity="1" d="M52.373,60.671L15.04,60.671C10.456,60.671,6.741,56.957,6.741,52.373L6.741,15.04C6.741,10.456,10.456,6.741,15.04,6.741L52.373,6.741C56.957,6.741,60.671,10.456,60.671,15.04L60.671,52.373C60.671,56.957,56.957,60.671,52.373,60.671ZM53.93,50.684L53.93,16.725C53.93,14.935,52.477,13.482,50.687,13.482L16.725,13.482C14.935,13.482,13.482,14.935,13.482,16.725L13.482,50.684C13.482,52.477,14.935,53.93,16.725,53.93L50.687,53.93C52.477,53.93,53.93,52.477,53.93,50.684ZM28.522,74.153C23.938,74.153,20.224,70.439,20.224,65.855L20.224,64.042L26.965,64.042L26.965,64.166C26.965,65.959,28.418,67.412,30.207,67.412L64.17,67.412C65.959,67.412,67.412,65.959,67.412,64.166L67.412,60.671L64.042,60.671L64.042,53.93L67.412,53.93L67.412,30.207C67.412,28.418,65.959,26.965,64.17,26.965L64.042,26.965L64.042,20.224L65.855,20.224C70.439,20.224,74.153,23.938,74.153,28.522L74.153,65.855C74.153,70.439,70.439,74.153,65.855,74.153ZM37.077,26.965L37.077,30.335L40.447,30.335C42.308,30.335,43.818,31.846,43.818,33.706C43.818,35.567,42.308,37.077,40.447,37.077L37.077,37.077L37.077,40.447C37.077,42.308,35.567,43.818,33.706,43.818C31.846,43.818,30.335,42.308,30.335,40.447L30.335,37.077L26.965,37.077C25.104,37.077,23.594,35.567,23.594,33.706C23.594,31.846,25.104,30.335,26.965,30.335L30.335,30.335L30.335,26.965C30.335,25.104,31.846,23.594,33.706,23.594C35.567,23.594,37.077,25.104,37.077,26.965ZM37.077,26.965"/>
</g>
  <g id="Regular-S" transform="matrix(1.0,0.0,0.0,1.0,1410.682676382652,620.4035905611369)">  <path stroke-dasharray="none" stroke-miterlimit="4" stroke-opacity="1" stroke-linejoin="miter" fill-opacity="1" stroke="none" stroke-linecap="butt" fill-rule="nonzero" fill="#000000" stroke-width="1px" d="M52.373,60.671L15.04,60.671C10.456,60.671,6.741,56.957,6.741,52.373L6.741,15.04C6.741,10.456,10.456,6.741,15.04,6.741L52.373,6.741C56.957,6.741,60.671,10.456,60.671,15.04L60.671,52.373C60.671,56.957,56.957,60.671,52.373,60.671ZM53.93,50.684L53.93,16.725C53.93,14.935,52.477,13.482,50.687,13.482L16.725,13.482C14.935,13.482,13.482,14.935,13.482,16.725L13.482,50.684C13.482,52.477,14.935,53.93,16.725,53.93L50.687,53.93C52.477,53.93,53.93,52.477,53.93,50.684ZM28.522,74.153C23.938,74.153,20.224,70.439,20.224,65.855L20.224,64.042L26.965,64.042L26.965,64.166C26.965,65.959,28.418,67.412,30.207,67.412L64.17,67.412C65.959,67.412,67.412,65.959,67.412,64.166L67.412,60.671L64.042,60.671L64.042,53.93L67.412,53.93L67.412,30.207C67.412,28.418,65.959,26.965,64.17,26.965L64.042,26.965L64.042,20.224L65.855,20.224C70.439,20.224,74.153,23.938,74.153,28.522L74.153,65.855C74.153,70.439,70.439,74.153,65.855,74.153ZM37.077,26.965L37.077,30.335L40.447,30.335C42.308,30.335,43.818,31.846,43.818,33.706C43.818,35.567,42.308,37.077,40.447,37.077L37.077,37.077L37.077,40.447C37.077,42.308,35.567,43.818,33.706,43.818C31.846,43.818,30.335,42.308,30.335,40.447L30.335,37.077L26.965,37.077C25.104,37.077,23.594,35.567,23.594,33.706C23.594,31.846,25.104,30.335,26.965,30.335L30.335,30.335L30.335,26.965C30.335,25.104,31.846,23.594,33.706,23.594C35.567,23.594,37.077,25.104,37.077,26.965ZM37.077,26.965"/>
</g>
  <g id="Light-S" transform="matrix(1.0,0.0,0.0,1.0,1113.9726763826523,620.4035905611369)">  <path fill-opacity="1" stroke-miterlimit="4" stroke="none" stroke-width="1px" stroke-linecap="butt" stroke-dasharray="none" fill="#000000" stroke-opacity="1" stroke-linejoin="miter" fill-rule="nonzero" d="M52.373,60.671L15.04,60.671C10.456,60.671,6.741,56.957,6.741,52.373L6.741,15.04C6.741,10.456,10.456,6.741,15.04,6.741L52.373,6.741C56.957,6.741,60.671,10.456,60.671,15.04L60.671,52.373C60.671,56.957,56.957,60.671,52.373,60.671ZM53.93,50.684L53.93,16.725C53.93,14.935,52.477,13.482,50.687,13.482L16.725,13.482C14.935,13.482,13.482,14.935,13.482,16.725L13.482,50.684C13.482,52.477,14.935,53.93,16.725,53.93L50.687,53.93C52.477,53.93,53.93,52.477,53.93,50.684ZM28.522,74.153C23.938,74.153,20.224,70.439,20.224,65.855L20.224,64.042L26.965,64.042L26.965,64.166C26.965,65.959,28.418,67.412,30.207,67.412L64.17,67.412C65.959,67.412,67.412,65.959,67.412,64.166L67.412,60.671L64.042,60.671L64.042,53.93L67.412,53.93L67.412,30.207C67.412,28.418,65.959,26.965,64.17,26.965L64.042,26.965L64.042,20.224L65.855,20.224C70.439,20.224,74.153,23.938,74.153,28.522L74.153,65.855C74.153,70.439,70.439,74.153,65.855,74.153ZM37.077,26.965L37.077,30.335L40.447,30.335C42.308,30.335,43.818,31.846,43.818,33.706C43.818,35.567,42.308,37.077,40.447,37.077L37.077,37.077L37.077,40.447C37.077,42.308,35.567,43.818,33.706,43.818C31.846,43.818,30.335,42.308,30.335,40.447L30.335,37.077L26.965,37.077C25.104,37.077,23.594,35.567,23.594,33.706C23.594,31.846,25.104,30.335,26.965,30.335L30.335,30.335L30.335,26.965C30.335,25.104,31.846,23.594,33.706,23.594C35.567,23.594,37.077,25.104,37.077,26.965ZM37.077,26.965"/>
</g>
  <g id="Thin-S" transform="matrix(1.0,0.0,0.0,1.0,817.2626763826522,620.4035905611369)">  <path fill="#000000" stroke-opacity="1" stroke-linejoin="miter" fill-opacity="1" stroke-dasharray="none" stroke-miterlimit="4" stroke-width="1px" stroke-linecap="butt" fill-rule="nonzero" stroke="none" d="M52.373,60.671L15.04,60.671C10.456,60.671,6.741,56.957,6.741,52.373L6.741,15.04C6.741,10.456,10.456,6.741,15.04,6.741L52.373,6.741C56.957,6.741,60.671,10.456,60.671,15.04L60.671,52.373C60.671,56.957,56.957,60.671,52.373,60.671ZM53.93,50.684L53.93,16.725C53.93,14.935,52.477,13.482,50.687,13.482L16.725,13.482C14.935,13.482,13.482,14.935,13.482,16.725L13.482,50.684C13.482,52.477,14.935,53.93,16.725,53.93L50.687,53.93C52.477,53.93,53.93,52.477,53.93,50.684ZM28.522,74.153C23.938,74.153,20.224,70.439,20.224,65.855L20.224,64.042L26.965,64.042L26.965,64.166C26.965,65.959,28.418,67.412,30.207,67.412L64.17,67.412C65.959,67.412,67.412,65.959,67.412,64.166L67.412,60.671L64.042,60.671L64.042,53.93L67.412,53.93L67.412,30.207C67.412,28.418,65.959,26.965,64.17,26.965L64.042,26.965L64.042,20.224L65.855,20.224C70.439,20.224,74.153,23.938,74.153,28.522L74.153,65.855C74.153,70.439,70.439,74.153,65.855,74.153ZM37.077,26.965L37.077,30.335L40.447,30.335C42.308,30.335,43.818,31.846,43.818,33.706C43.818,35.567,42.308,37.077,40.447,37.077L37.077,37.077L37.077,40.447C37.077,42.308,35.567,43.818,33.706,43.818C31.846,43.818,30.335,42.308,30.335,40.447L30.335,37.077L26.965,37.077C25.104,37.077,23.594,35.567,23.594,33.706C23.594,31.846,25.104,30.335,26.965,30.335L30.335,30.335L30.335,26.965C30.335,25.104,31.846,23.594,33.706,23.594C35.567,23.594,37.077,25.104,37.077,26.965ZM37.077,26.965"/>
</g>
  <g id="Ultralight-S" transform="matrix(1.0,0.0,0.0,1.0,520.5526763826522,620.4035905611369)">  <path stroke-linejoin="miter" fill-opacity="1" stroke-opacity="1" fill-rule="nonzero" stroke-dasharray="none" stroke-width="1px" stroke="none" stroke-miterlimit="4" fill="#000000" stroke-linecap="butt" d="M52.373,60.671L15.04,60.671C10.456,60.671,6.741,56.957,6.741,52.373L6.741,15.04C6.741,10.456,10.456,6.741,15.04,6.741L52.373,6.741C56.957,6.741,60.671,10.456,60.671,15.04L60.671,52.373C60.671,56.957,56.957,60.671,52.373,60.671ZM53.93,50.684L53.93,16.725C53.93,14.935,52.477,13.482,50.687,13.482L16.725,13.482C14.935,13.482,13.482,14.935,13.482,16.725L13.482,50.684C13.482,52.477,14.935,53.93,16.725,53.93L50.687,53.93C52.477,53.93,53.93,52.477,53.93,50.684ZM28.522,74.153C23.938,74.153,20.224,70.439,20.224,65.855L20.224,64.042L26.965,64.042L26.965,64.166C26.965,65.959,28.418,67.412,30.207,67.412L64.17,67.412C65.959,67.412,67.412,65.959,67.412,64.166L67.412,60.671L64.042,60.671L64.042,53.93L67.412,53.93L67.412,30.207C67.412,28.418,65.959,26.965,64.17,26.965L64.042,26.965L64.042,20.224L65.855,20.224C70.439,20.224,74.153,23.938,74.153,28.522L74.153,65.855C74.153,70.439,70.439,74.153,65.855,74.153ZM37.077,26.965L37.077,30.335L40.447,30.335C42.308,30.335,43.818,31.846,43.818,33.706C43.818,35.567,42.308,37.077,40.447,37.077L37.077,37.077L37.077,40.447C37.077,42.308,35.567,43.818,33.706,43.818C31.846,43.818,30.335,42.308,30.335,40.447L30.335,37.077L26.965,37.077C25.104,37.077,23.594,35.567,23.594,33.706C23.594,31.846,25.104,30.335,26.965,30.335L30.335,30.335L30.335,26.965C30.335,25.104,31.846,23.594,33.706,23.594C35.567,23.594,37.077,25.104,37.077,26.965ZM37.077,26.965"/>
</g>
 </g>
</svg>
