<?xml version="1.0" encoding="UTF-8"?>
<!-- Generator: CustomSymbols v2.6.1.40 by @serious_bret https://bretlester.com/app_content/CustomSymbols/ -->
<!-- Guides: Left/Right 0.124/0.126 Cap/Base 0.205/0.193 -->
<!-- Settings: RefScale 1.0 Min/Max Stroke Scales 0.5/2.21 -->
<!DOCTYPE svg
PUBLIC "-//W3C//DTD SVG 1.1//EN"
       "http://www.w3.org/Graphics/SVG/1.1/DTD/svg11.dtd">
<svg version="1.1" xmlns="http://www.w3.org/2000/svg" xmlns:xlink="http://www.w3.org/1999/xlink" width="3300" height="2200">
<![CDATA[<svg width="24" height="24" viewBox="0 0 24 24" fill="none" xmlns="http://www.w3.org/2000/svg">
<path fill-rule="evenodd" clip-rule="evenodd" d="M5.53482 19.0001H18.4648C18.7608 19.0001 18.9998 18.7601 18.9998 18.4651V5.53512C18.9998 5.23912 18.7608 5.00012 18.4648 5.00012H5.53482C5.23882 5.00012 4.99982 5.23912 4.99982 5.53512V18.4651C4.99982 18.7601 5.23882 19.0001 5.53482 19.0001ZM4.99982 3.00012H18.9998C20.1048 3.00012 20.9998 3.89612 20.9998 5.00012V19.0001C20.9998 20.1041 20.1048 21.0001 18.9998 21.0001H4.99982C3.89582 21.0001 2.99982 20.1041 2.99982 19.0001V5.00012C2.99982 3.89612 3.89582 3.00012 4.99982 3.00012ZM11.3435 14.0287L12.9664 13.5566C12.8041 13.4238 12.6861 13.173 12.6861 12.9369C12.6861 12.4023 13.1445 12.0681 13.6659 11.6881C14.3532 11.187 15.15 10.6061 15.15 9.38117C15.15 8.00904 13.9844 7.05002 12.0812 7.05002C10.8123 7.05002 9.63198 7.55166 8.85002 8.48117L10.0451 9.82379C10.5025 9.26314 11.1221 8.90904 11.8599 8.90904C12.6713 8.90904 13.0254 9.29264 13.0254 9.75002C13.0254 10.1912 12.6182 10.4799 12.1566 10.8072C11.553 11.2352 10.8566 11.729 10.8566 12.7156C10.8566 13.232 11.0336 13.6894 11.3435 14.0287ZM12.0517 17.2008C12.7008 17.2008 13.2467 16.6549 13.2467 16.0058C13.2467 15.3566 12.7008 14.8107 12.0517 14.8107C11.4025 14.8107 10.8566 15.3566 10.8566 16.0058C10.8566 16.6549 11.4025 17.2008 12.0517 17.2008Z" fill="black"/>
</svg>
]]>
 <g id="Notes">
  <rect height="2200" id="artboard" style="fill:white;opacity:1" width="3300" x="0" y="0"/>
  <line id="" style="fill:none;stroke:black;opacity:1;stroke-width:0.5;" x1="263" x2="3036" y1="292" y2="292"/>
  <text id="reftext1" style="stroke:none;fill:black;font-family:-apple-system,&quot;SF Pro Display&quot;,&quot;SF Pro Text&quot;,Helvetica,sans-serif;font-weight:bold;" transform="matrix(1 0 0 1 263 322)">Weight/Scale Variations</text>
  <text id="reftext2" style="stroke:none;fill:black;font-family:-apple-system,&quot;SF Pro Display&quot;,&quot;SF Pro Text&quot;,Helvetica,sans-serif;text-anchor:middle;" transform="matrix(1 0 0 1 559.711 322)">Ultralight</text>
  <text style="stroke:none;fill:black;font-family:-apple-system,&quot;SF Pro Display&quot;,&quot;SF Pro Text&quot;,Helvetica,sans-serif;text-anchor:middle;" transform="matrix(1 0 0 1 856.422 322)">Thin</text>
  <text style="stroke:none;fill:black;font-family:-apple-system,&quot;SF Pro Display&quot;,&quot;SF Pro Text&quot;,Helvetica,sans-serif;text-anchor:middle;" transform="matrix(1 0 0 1 1153.13 322)">Light</text>
  <text style="stroke:none;fill:black;font-family:-apple-system,&quot;SF Pro Display&quot;,&quot;SF Pro Text&quot;,Helvetica,sans-serif;text-anchor:middle;" transform="matrix(1 0 0 1 1449.84 322)">Regular</text>
  <text style="stroke:none;fill:black;font-family:-apple-system,&quot;SF Pro Display&quot;,&quot;SF Pro Text&quot;,Helvetica,sans-serif;text-anchor:middle;" transform="matrix(1 0 0 1 1746.56 322)">Medium</text>
  <text style="stroke:none;fill:black;font-family:-apple-system,&quot;SF Pro Display&quot;,&quot;SF Pro Text&quot;,Helvetica,sans-serif;text-anchor:middle;" transform="matrix(1 0 0 1 2043.27 322)">Semibold</text>
  <text style="stroke:none;fill:black;font-family:-apple-system,&quot;SF Pro Display&quot;,&quot;SF Pro Text&quot;,Helvetica,sans-serif;text-anchor:middle;" transform="matrix(1 0 0 1 2339.98 322)">Bold</text>
  <text style="stroke:none;fill:black;font-family:-apple-system,&quot;SF Pro Display&quot;,&quot;SF Pro Text&quot;,Helvetica,sans-serif;text-anchor:middle;" transform="matrix(1 0 0 1 2636.69 322)">Heavy</text>
  <text style="stroke:none;fill:black;font-family:-apple-system,&quot;SF Pro Display&quot;,&quot;SF Pro Text&quot;,Helvetica,sans-serif;text-anchor:middle;" transform="matrix(1 0 0 1 2933.4 322)">Black</text>
  <line id="" style="fill:none;stroke:black;opacity:1;stroke-width:0.5;" x1="263" x2="3036" y1="1903" y2="1903"/>
  <g id="" transform="matrix(1 0 0 1 263 1933)">
   <path d="M9.24805 0.830078C13.5547 0.830078 17.1387-2.74414 17.1387-7.05078C17.1387-11.3574 13.5449-14.9316 9.23828-14.9316C4.94141-14.9316 1.36719-11.3574 1.36719-7.05078C1.36719-2.74414 4.95117 0.830078 9.24805 0.830078ZM9.24805-0.654297C5.70312-0.654297 2.87109-3.49609 2.87109-7.05078C2.87109-10.6055 5.69336-13.4473 9.23828-13.4473C12.793-13.4473 15.6348-10.6055 15.6445-7.05078C15.6543-3.49609 12.8027-0.654297 9.24805-0.654297ZM6.39648-6.31836L8.50586-6.31836L8.50586-4.19922C8.50586-3.75977 8.79883-3.45703 9.22852-3.45703C9.67773-3.45703 9.9707-3.75977 9.9707-4.19922L9.9707-6.31836L12.0996-6.31836C12.5391-6.31836 12.8418-6.61133 12.8418-7.04102C12.8418-7.48047 12.5391-7.7832 12.0996-7.7832L9.9707-7.7832L9.9707-9.89258C9.9707-10.3418 9.67773-10.6445 9.22852-10.6445C8.79883-10.6445 8.50586-10.3418 8.50586-9.89258L8.50586-7.7832L6.39648-7.7832C5.94727-7.7832 5.64453-7.48047 5.64453-7.04102C5.64453-6.61133 5.94727-6.31836 6.39648-6.31836Z"/>
  </g>
  <g id="" transform="matrix(1 0 0 1 281.506 1933)">
   <path d="M11.709 2.91016C17.1582 2.91016 21.6699-1.61133 21.6699-7.05078C21.6699-12.5 17.1484-17.0117 11.6992-17.0117C6.25977-17.0117 1.74805-12.5 1.74805-7.05078C1.74805-1.61133 6.26953 2.91016 11.709 2.91016ZM11.709 1.25C7.09961 1.25 3.41797-2.44141 3.41797-7.05078C3.41797-11.6602 7.08984-15.3516 11.6992-15.3516C16.3086-15.3516 20-11.6602 20.0098-7.05078C20.0195-2.44141 16.3184 1.25 11.709 1.25ZM7.98828-6.23047L10.8789-6.23047L10.8789-3.32031C10.8789-2.83203 11.2109-2.5 11.6895-2.5C12.1777-2.5 12.5195-2.83203 12.5195-3.32031L12.5195-6.23047L15.4297-6.23047C15.918-6.23047 16.25-6.5625 16.25-7.04102C16.25-7.5293 15.918-7.87109 15.4297-7.87109L12.5195-7.87109L12.5195-10.7617C12.5195-11.2695 12.1777-11.6016 11.6895-11.6016C11.2109-11.6016 10.8789-11.2598 10.8789-10.7617L10.8789-7.87109L7.98828-7.87109C7.48047-7.87109 7.14844-7.5293 7.14844-7.04102C7.14844-6.5625 7.49023-6.23047 7.98828-6.23047Z"/>
  </g>
  <g id="" transform="matrix(1 0 0 1 304.924 1933)">
   <path d="M14.9707 5.66406C21.9336 5.66406 27.6953-0.0976562 27.6953-7.05078C27.6953-14.0137 21.9238-19.7754 14.9609-19.7754C8.00781-19.7754 2.25586-14.0137 2.25586-7.05078C2.25586-0.0976562 8.01758 5.66406 14.9707 5.66406ZM14.9707 3.84766C8.93555 3.84766 4.08203-1.01562 4.08203-7.05078C4.08203-13.0957 8.92578-17.9492 14.9609-17.9492C21.0059-17.9492 25.8594-13.0957 25.8691-7.05078C25.8789-1.01562 21.0156 3.84766 14.9707 3.84766ZM10.0586-6.14258L14.0625-6.14258L14.0625-2.12891C14.0625-1.5918 14.4336-1.2207 14.9512-1.2207C15.4883-1.2207 15.8594-1.5918 15.8594-2.12891L15.8594-6.14258L19.8828-6.14258C20.4102-6.14258 20.791-6.51367 20.791-7.03125C20.791-7.56836 20.4199-7.94922 19.8828-7.94922L15.8594-7.94922L15.8594-11.9531C15.8594-12.5098 15.4883-12.8809 14.9512-12.8809C14.4336-12.8809 14.0625-12.5 14.0625-11.9531L14.0625-7.94922L10.0586-7.94922C9.50195-7.94922 9.13086-7.56836 9.13086-7.03125C9.13086-6.51367 9.51172-6.14258 10.0586-6.14258Z"/>
  </g>
  <text style="stroke:none;fill:black;font-family:-apple-system,&quot;SF Pro Display&quot;,&quot;SF Pro Text&quot;,Helvetica,sans-serif;font-weight:bold;" transform="matrix(1 0 0 1 263 1953)">Design Variations</text>
  <text style="stroke:none;fill:black;font-family:-apple-system,&quot;SF Pro Display&quot;,&quot;SF Pro Text&quot;,Helvetica,sans-serif;" transform="matrix(1 0 0 1 263 1971)">Symbols are supported in up to nine weights and three scales.</text>
  <text style="stroke:none;fill:black;font-family:-apple-system,&quot;SF Pro Display&quot;,&quot;SF Pro Text&quot;,Helvetica,sans-serif;" transform="matrix(1 0 0 1 263 1989)">For optimal layout with text and other symbols, vertically align</text>
  <text style="stroke:none;fill:black;font-family:-apple-system,&quot;SF Pro Display&quot;,&quot;SF Pro Text&quot;,Helvetica,sans-serif;" transform="matrix(1 0 0 1 263 2007)">symbols with the adjacent text.</text>
  <line id="" style="fill:none;stroke:#00AEEF;stroke-width:0.5;opacity:1.0;" x1="776" x2="776" y1="1919" y2="1933"/>
  <g id="" transform="matrix(1 0 0 1 776 1933)">
   <path d="M3.31055 0.126953C3.82812 0.126953 4.08203-0.0683594 4.26758-0.605469L5.52734-4.0625L11.2891-4.0625L12.5488-0.605469C12.7344-0.0683594 12.9883 0.126953 13.4961 0.126953C14.0137 0.126953 14.3457-0.185547 14.3457-0.673828C14.3457-0.839844 14.3164-0.986328 14.2383-1.20117L9.6582-13.3887C9.43359-13.9941 9.0332-14.2871 8.4082-14.2871C7.80273-14.2871 7.39258-13.9941 7.17773-13.3984L2.59766-1.19141C2.51953-0.976562 2.49023-0.830078 2.49023-0.664062C2.49023-0.175781 2.80273 0.126953 3.31055 0.126953ZM6.00586-5.53711L8.37891-12.1094L8.42773-12.1094L10.8008-5.53711Z"/>
  </g>
  <line id="" style="fill:none;stroke:#00AEEF;stroke-width:0.5;opacity:1.0;" x1="792.836" x2="792.836" y1="1919" y2="1933"/>
  <text style="stroke:none;fill:black;font-family:-apple-system,&quot;SF Pro Display&quot;,&quot;SF Pro Text&quot;,Helvetica,sans-serif;font-weight:bold;" transform="matrix(1 0 0 1 776 1953)">Margins</text>
  <text style="stroke:none;fill:black;font-family:-apple-system,&quot;SF Pro Display&quot;,&quot;SF Pro Text&quot;,Helvetica,sans-serif;" transform="matrix(1 0 0 1 776 1971)">Leading and trailing margins on the left and right side of each symbol</text>
  <text style="stroke:none;fill:black;font-family:-apple-system,&quot;SF Pro Display&quot;,&quot;SF Pro Text&quot;,Helvetica,sans-serif;" transform="matrix(1 0 0 1 776 1989)">can be adjusted by modifying the x-location of the margin guidelines.</text>
  <text style="stroke:none;fill:black;font-family:-apple-system,&quot;SF Pro Display&quot;,&quot;SF Pro Text&quot;,Helvetica,sans-serif;" transform="matrix(1 0 0 1 776 2007)">Modifications are automatically applied proportionally to all</text>
  <text style="stroke:none;fill:black;font-family:-apple-system,&quot;SF Pro Display&quot;,&quot;SF Pro Text&quot;,Helvetica,sans-serif;" transform="matrix(1 0 0 1 776 2025)">scales and weights.</text>
  <g id="" transform="matrix(1 0 0 1 1289 1933)">
   <path d="M2.8418 1.86523L4.54102 3.57422C5.40039 4.44336 6.38672 4.38477 7.31445 3.35938L17.4902-7.85156C17.7539-7.76367 18.0273-7.7832 18.3398-7.8418L19.4043-8.03711L20.0684-7.36328L20.0293-6.80664C19.9902-6.30859 20.1172-5.92773 20.6055-5.44922L21.3672-4.70703C21.8457-4.22852 22.4609-4.19922 22.9297-4.66797L25.8398-7.58789C26.3086-8.05664 26.2891-8.65234 25.8105-9.13086L25.0391-9.89258C24.5605-10.3711 24.1895-10.5273 23.7109-10.4883L23.1348-10.4395L22.4902-11.0742L22.7344-12.1973C22.8613-12.7637 22.7051-13.2031 22.1191-13.7891L19.9219-15.9766C16.582-19.2969 12.1484-19.2188 9.25781-16.3281C8.83789-15.918 8.80859-15.3418 9.04297-14.9512C9.27734-14.5898 9.73633-14.3555 10.3809-14.5215C11.8457-14.8633 13.3691-14.9219 14.7949-13.9844L14.209-12.5293C14.0137-12.0508 13.9844-11.6504 14.1113-11.2891L3.04688-0.898438C2.06055 0.0195312 1.98242 0.996094 2.8418 1.86523ZM10.752-15.957C13.1836-17.7344 16.4746-17.4316 18.7012-15.2051L21.1328-12.793C21.3672-12.5586 21.4062-12.373 21.3379-12.0312L21.0156-10.5469L22.5195-9.0625L23.5059-9.12109C23.7598-9.13086 23.8379-9.11133 24.0332-8.91602L24.6094-8.33984L22.168-5.89844L21.5918-6.47461C21.3965-6.66992 21.3672-6.74805 21.377-7.01172L21.4453-7.98828L19.9512-9.47266L18.4277-9.21875C18.1055-9.15039 17.959-9.17969 17.7148-9.41406L15.7129-11.416C15.459-11.6504 15.4297-11.8164 15.5859-12.1875L16.4648-14.2773C14.9023-15.7324 12.8711-16.3574 10.8398-15.7617C10.6836-15.7227 10.625-15.8496 10.752-15.957ZM5.27344 2.30469L4.10156 1.14258C3.63281 0.683594 3.74023 0.341797 4.14062-0.0195312L14.9512-10.1953L16.416-8.71094L6.42578 2.27539C6.07422 2.67578 5.74219 2.77344 5.27344 2.30469Z"/>
  </g>
  <text style="stroke:none;fill:black;font-family:-apple-system,&quot;SF Pro Display&quot;,&quot;SF Pro Text&quot;,Helvetica,sans-serif;font-weight:bold;" transform="matrix(1 0 0 1 1289 1953)">Exporting</text>
  <text style="stroke:none;fill:black;font-family:-apple-system,&quot;SF Pro Display&quot;,&quot;SF Pro Text&quot;,Helvetica,sans-serif;" transform="matrix(1 0 0 1 1289 1971)">Symbols should be outlined when exporting to ensure the</text>
  <text style="stroke:none;fill:black;font-family:-apple-system,&quot;SF Pro Display&quot;,&quot;SF Pro Text&quot;,Helvetica,sans-serif;" transform="matrix(1 0 0 1 1289 1989)">design is preserved when submitting to Xcode.</text>
  <text id="template-version" style="stroke:none;fill:black;font-family:-apple-system,&quot;SF Pro Display&quot;,&quot;SF Pro Text&quot;,Helvetica,sans-serif;text-anchor:end;" transform="matrix(1 0 0 1 3036 1933)">Template v.2.0</text>
  <text style="stroke:none;fill:black;font-family:-apple-system,&quot;SF Pro Display&quot;,&quot;SF Pro Text&quot;,Helvetica,sans-serif;text-anchor:end;" transform="matrix(1 0 0 1 3036 1951)">Requires Xcode 12 or greater</text>
  <text style="stroke:none;fill:black;font-family:-apple-system,&quot;SF Pro Display&quot;,&quot;SF Pro Text&quot;,Helvetica,sans-serif;" transform="matrix(1 0 0 1 263 726)">Small</text>
  <text style="stroke:none;fill:black;font-family:-apple-system,&quot;SF Pro Display&quot;,&quot;SF Pro Text&quot;,Helvetica,sans-serif;" transform="matrix(1 0 0 1 263 1156)">Medium</text>
  <text style="stroke:none;fill:black;font-family:-apple-system,&quot;SF Pro Display&quot;,&quot;SF Pro Text&quot;,Helvetica,sans-serif;" transform="matrix(1 0 0 1 263 1586)">Large</text>
 </g>
 <g id="Guides">
  <g id="H-reference" style="fill:#27AAE1;stroke:none;" transform="matrix(1 0 0 1 339 696)">
   <path d="M0.976562 0L3.66211 0L12.9883-24.4629L45.752-24.4629L55.127 0L57.7637 0L30.6152-70.459L28.125-70.459ZM29.3457-67.1387L29.4434-67.1387L44.873-26.709L13.8672-26.709Z"/>
  </g>
  <line id="Baseline-S" style="fill:none;stroke:#27AAE1;opacity:1;stroke-width:0.5;" x1="263" x2="3036" y1="696" y2="696"/>
  <line id="Capline-S" style="fill:none;stroke:#27AAE1;opacity:1;stroke-width:0.5;" x1="263" x2="3036" y1="625.541" y2="625.541"/>
  <g id="H-reference" style="fill:#27AAE1;stroke:none;" transform="matrix(1 0 0 1 339 1126)">
   <path d="M0.976562 0L3.66211 0L12.9883-24.4629L45.752-24.4629L55.127 0L57.7637 0L30.6152-70.459L28.125-70.459ZM29.3457-67.1387L29.4434-67.1387L44.873-26.709L13.8672-26.709Z"/>
  </g>
  <line id="Baseline-M" style="fill:none;stroke:#27AAE1;opacity:1;stroke-width:0.5;" x1="263" x2="3036" y1="1126" y2="1126"/>
  <line id="Capline-M" style="fill:none;stroke:#27AAE1;opacity:1;stroke-width:0.5;" x1="263" x2="3036" y1="1055.54" y2="1055.54"/>
  <g id="H-reference" style="fill:#27AAE1;stroke:none;" transform="matrix(1 0 0 1 339 1556)">
   <path d="M0.976562 0L3.66211 0L12.9883-24.4629L45.752-24.4629L55.127 0L57.7637 0L30.6152-70.459L28.125-70.459ZM29.3457-67.1387L29.4434-67.1387L44.873-26.709L13.8672-26.709Z"/>
  </g>
  <line id="Baseline-L" style="fill:none;stroke:#27AAE1;opacity:1;stroke-width:0.5;" x1="263" x2="3036" y1="1556" y2="1556"/>
  <line id="Capline-L" style="fill:none;stroke:#27AAE1;opacity:1;stroke-width:0.5;" x1="263" x2="3036" y1="1485.54" y2="1485.54"/>
  <line id="left-margin" x1="1407.1217851951826" x2="1407.1217851951826" y1="1030.79" y2="1150.12" style="fill:none;stroke:#00AEEF;stroke-width:0.5;opacity:1.0;"/>
  <line id="right-margin" x1="1494.9041285558553" x2="1494.9041285558553" y1="1030.79" y2="1150.12" style="fill:none;stroke:#00AEEF;stroke-width:0.5;opacity:1.0;"/>
 </g>
 <g id="Symbols">
  <g id="Black-L" transform="matrix(1.0,0.0,0.0,1.0,2859.1871847098214,1444.3712904575893)">  <path clip-rule="evenodd" fill-rule="evenodd" fill="#000000" fill-opacity="1" stroke="none" stroke-dasharray="none" stroke-miterlimit="4" stroke-linecap="butt" stroke-width="1px" stroke-opacity="1" stroke-linejoin="miter" d="M34.82,119.531L116.163,119.531C118.025,119.531,119.529,118.021,119.529,116.165L119.529,34.822C119.529,32.96,118.025,31.456,116.163,31.456L34.82,31.456C32.958,31.456,31.454,32.96,31.454,34.822L31.454,116.165C31.454,118.021,32.958,119.531,34.82,119.531ZM31.454,18.874L119.529,18.874C126.481,18.874,132.111,24.511,132.111,31.456L132.111,119.531C132.111,126.476,126.481,132.113,119.529,132.113L31.454,132.113C24.509,132.113,18.872,126.476,18.872,119.531L18.872,31.456C18.872,24.511,24.509,18.874,31.454,18.874ZM71.363,88.256L81.573,85.285C80.551,84.45,79.809,82.872,79.809,81.387C79.809,78.024,82.693,75.921,85.973,73.531C90.297,70.378,95.31,66.724,95.31,59.018C95.31,50.385,87.977,44.352,76.004,44.352C68.021,44.352,60.595,47.508,55.676,53.356L63.194,61.802C66.072,58.275,69.97,56.047,74.611,56.047C79.716,56.047,81.944,58.461,81.944,61.338C81.944,64.114,79.382,65.93,76.478,67.989C72.681,70.681,68.3,73.788,68.3,79.995C68.3,83.243,69.413,86.121,71.363,88.256ZM75.818,108.211C79.902,108.211,83.336,104.777,83.336,100.694C83.336,96.609,79.902,93.175,75.818,93.175C71.734,93.175,68.3,96.609,68.3,100.694C68.3,104.777,71.734,108.211,75.818,108.211ZM75.818,108.211"/>
</g>
  <g id="Heavy-L" transform="matrix(1.0,0.0,0.0,1.0,2562.4771847098214,1444.3712904575893)">  <path fill-rule="evenodd" stroke-miterlimit="4" stroke-opacity="1" stroke="none" stroke-width="1px" stroke-dasharray="none" stroke-linecap="butt" clip-rule="evenodd" fill="#000000" fill-opacity="1" stroke-linejoin="miter" d="M34.82,119.531L116.163,119.531C118.025,119.531,119.529,118.021,119.529,116.165L119.529,34.822C119.529,32.96,118.025,31.456,116.163,31.456L34.82,31.456C32.958,31.456,31.454,32.96,31.454,34.822L31.454,116.165C31.454,118.021,32.958,119.531,34.82,119.531ZM31.454,18.874L119.529,18.874C126.481,18.874,132.111,24.511,132.111,31.456L132.111,119.531C132.111,126.476,126.481,132.113,119.529,132.113L31.454,132.113C24.509,132.113,18.872,126.476,18.872,119.531L18.872,31.456C18.872,24.511,24.509,18.874,31.454,18.874ZM71.363,88.256L81.573,85.285C80.551,84.45,79.809,82.872,79.809,81.387C79.809,78.024,82.693,75.921,85.973,73.531C90.297,70.378,95.31,66.724,95.31,59.018C95.31,50.385,87.977,44.352,76.004,44.352C68.021,44.352,60.595,47.508,55.676,53.356L63.194,61.802C66.072,58.275,69.97,56.047,74.611,56.047C79.716,56.047,81.944,58.461,81.944,61.338C81.944,64.114,79.382,65.93,76.478,67.989C72.681,70.681,68.3,73.788,68.3,79.995C68.3,83.243,69.413,86.121,71.363,88.256ZM75.818,108.211C79.902,108.211,83.336,104.777,83.336,100.694C83.336,96.609,79.902,93.175,75.818,93.175C71.734,93.175,68.3,96.609,68.3,100.694C68.3,104.777,71.734,108.211,75.818,108.211ZM75.818,108.211"/>
</g>
  <g id="Bold-L" transform="matrix(1.0,0.0,0.0,1.0,2265.7671847098213,1444.3712904575893)">  <path clip-rule="evenodd" stroke-linejoin="miter" fill="#000000" fill-rule="evenodd" stroke="none" stroke-miterlimit="4" stroke-linecap="butt" stroke-width="1px" fill-opacity="1" stroke-dasharray="none" stroke-opacity="1" d="M34.82,119.531L116.163,119.531C118.025,119.531,119.529,118.021,119.529,116.165L119.529,34.822C119.529,32.96,118.025,31.456,116.163,31.456L34.82,31.456C32.958,31.456,31.454,32.96,31.454,34.822L31.454,116.165C31.454,118.021,32.958,119.531,34.82,119.531ZM31.454,18.874L119.529,18.874C126.481,18.874,132.111,24.511,132.111,31.456L132.111,119.531C132.111,126.476,126.481,132.113,119.529,132.113L31.454,132.113C24.509,132.113,18.872,126.476,18.872,119.531L18.872,31.456C18.872,24.511,24.509,18.874,31.454,18.874ZM71.363,88.256L81.573,85.285C80.551,84.45,79.809,82.872,79.809,81.387C79.809,78.024,82.693,75.921,85.973,73.531C90.297,70.378,95.31,66.724,95.31,59.018C95.31,50.385,87.977,44.352,76.004,44.352C68.021,44.352,60.595,47.508,55.676,53.356L63.194,61.802C66.072,58.275,69.97,56.047,74.611,56.047C79.716,56.047,81.944,58.461,81.944,61.338C81.944,64.114,79.382,65.93,76.478,67.989C72.681,70.681,68.3,73.788,68.3,79.995C68.3,83.243,69.413,86.121,71.363,88.256ZM75.818,108.211C79.902,108.211,83.336,104.777,83.336,100.694C83.336,96.609,79.902,93.175,75.818,93.175C71.734,93.175,68.3,96.609,68.3,100.694C68.3,104.777,71.734,108.211,75.818,108.211ZM75.818,108.211"/>
</g>
  <g id="Semibold-L" transform="matrix(1.0,0.0,0.0,1.0,1969.0571847098213,1444.3712904575893)">  <path fill-opacity="1" stroke-linejoin="miter" stroke-linecap="butt" stroke="none" clip-rule="evenodd" stroke-width="1px" stroke-dasharray="none" stroke-opacity="1" fill-rule="evenodd" stroke-miterlimit="4" fill="#000000" d="M34.82,119.531L116.163,119.531C118.025,119.531,119.529,118.021,119.529,116.165L119.529,34.822C119.529,32.96,118.025,31.456,116.163,31.456L34.82,31.456C32.958,31.456,31.454,32.96,31.454,34.822L31.454,116.165C31.454,118.021,32.958,119.531,34.82,119.531ZM31.454,18.874L119.529,18.874C126.481,18.874,132.111,24.511,132.111,31.456L132.111,119.531C132.111,126.476,126.481,132.113,119.529,132.113L31.454,132.113C24.509,132.113,18.872,126.476,18.872,119.531L18.872,31.456C18.872,24.511,24.509,18.874,31.454,18.874ZM71.363,88.256L81.573,85.285C80.551,84.45,79.809,82.872,79.809,81.387C79.809,78.024,82.693,75.921,85.973,73.531C90.297,70.378,95.31,66.724,95.31,59.018C95.31,50.385,87.977,44.352,76.004,44.352C68.021,44.352,60.595,47.508,55.676,53.356L63.194,61.802C66.072,58.275,69.97,56.047,74.611,56.047C79.716,56.047,81.944,58.461,81.944,61.338C81.944,64.114,79.382,65.93,76.478,67.989C72.681,70.681,68.3,73.788,68.3,79.995C68.3,83.243,69.413,86.121,71.363,88.256ZM75.818,108.211C79.902,108.211,83.336,104.777,83.336,100.694C83.336,96.609,79.902,93.175,75.818,93.175C71.734,93.175,68.3,96.609,68.3,100.694C68.3,104.777,71.734,108.211,75.818,108.211ZM75.818,108.211"/>
</g>
  <g id="Medium-L" transform="matrix(1.0,0.0,0.0,1.0,1672.3471847098212,1444.3712904575893)">  <path fill-opacity="1" stroke-dasharray="none" stroke-miterlimit="4" stroke-linejoin="miter" fill-rule="evenodd" stroke="none" fill="#000000" stroke-opacity="1" stroke-linecap="butt" clip-rule="evenodd" stroke-width="1px" d="M34.82,119.531L116.163,119.531C118.025,119.531,119.529,118.021,119.529,116.165L119.529,34.822C119.529,32.96,118.025,31.456,116.163,31.456L34.82,31.456C32.958,31.456,31.454,32.96,31.454,34.822L31.454,116.165C31.454,118.021,32.958,119.531,34.82,119.531ZM31.454,18.874L119.529,18.874C126.481,18.874,132.111,24.511,132.111,31.456L132.111,119.531C132.111,126.476,126.481,132.113,119.529,132.113L31.454,132.113C24.509,132.113,18.872,126.476,18.872,119.531L18.872,31.456C18.872,24.511,24.509,18.874,31.454,18.874ZM71.363,88.256L81.573,85.285C80.551,84.45,79.809,82.872,79.809,81.387C79.809,78.024,82.693,75.921,85.973,73.531C90.297,70.378,95.31,66.724,95.31,59.018C95.31,50.385,87.977,44.352,76.004,44.352C68.021,44.352,60.595,47.508,55.676,53.356L63.194,61.802C66.072,58.275,69.97,56.047,74.611,56.047C79.716,56.047,81.944,58.461,81.944,61.338C81.944,64.114,79.382,65.93,76.478,67.989C72.681,70.681,68.3,73.788,68.3,79.995C68.3,83.243,69.413,86.121,71.363,88.256ZM75.818,108.211C79.902,108.211,83.336,104.777,83.336,100.694C83.336,96.609,79.902,93.175,75.818,93.175C71.734,93.175,68.3,96.609,68.3,100.694C68.3,104.777,71.734,108.211,75.818,108.211ZM75.818,108.211"/>
</g>
  <g id="Regular-L" transform="matrix(1.0,0.0,0.0,1.0,1375.6371847098212,1444.3712904575893)">  <path stroke-linejoin="miter" fill-rule="evenodd" stroke-width="1px" fill-opacity="1" stroke="none" clip-rule="evenodd" stroke-linecap="butt" stroke-miterlimit="4" fill="#000000" stroke-dasharray="none" stroke-opacity="1" d="M34.82,119.531L116.163,119.531C118.025,119.531,119.529,118.021,119.529,116.165L119.529,34.822C119.529,32.96,118.025,31.456,116.163,31.456L34.82,31.456C32.958,31.456,31.454,32.96,31.454,34.822L31.454,116.165C31.454,118.021,32.958,119.531,34.82,119.531ZM31.454,18.874L119.529,18.874C126.481,18.874,132.111,24.511,132.111,31.456L132.111,119.531C132.111,126.476,126.481,132.113,119.529,132.113L31.454,132.113C24.509,132.113,18.872,126.476,18.872,119.531L18.872,31.456C18.872,24.511,24.509,18.874,31.454,18.874ZM71.363,88.256L81.573,85.285C80.551,84.45,79.809,82.872,79.809,81.387C79.809,78.024,82.693,75.921,85.973,73.531C90.297,70.378,95.31,66.724,95.31,59.018C95.31,50.385,87.977,44.352,76.004,44.352C68.021,44.352,60.595,47.508,55.676,53.356L63.194,61.802C66.072,58.275,69.97,56.047,74.611,56.047C79.716,56.047,81.944,58.461,81.944,61.338C81.944,64.114,79.382,65.93,76.478,67.989C72.681,70.681,68.3,73.788,68.3,79.995C68.3,83.243,69.413,86.121,71.363,88.256ZM75.818,108.211C79.902,108.211,83.336,104.777,83.336,100.694C83.336,96.609,79.902,93.175,75.818,93.175C71.734,93.175,68.3,96.609,68.3,100.694C68.3,104.777,71.734,108.211,75.818,108.211ZM75.818,108.211"/>
</g>
  <g id="Light-L" transform="matrix(1.0,0.0,0.0,1.0,1078.9271847098214,1444.3712904575893)">  <path stroke-width="1px" stroke-miterlimit="4" stroke-linecap="butt" fill="#000000" stroke-opacity="1" stroke-dasharray="none" clip-rule="evenodd" stroke-linejoin="miter" fill-opacity="1" fill-rule="evenodd" stroke="none" d="M34.82,119.531L116.163,119.531C118.025,119.531,119.529,118.021,119.529,116.165L119.529,34.822C119.529,32.96,118.025,31.456,116.163,31.456L34.82,31.456C32.958,31.456,31.454,32.96,31.454,34.822L31.454,116.165C31.454,118.021,32.958,119.531,34.82,119.531ZM31.454,18.874L119.529,18.874C126.481,18.874,132.111,24.511,132.111,31.456L132.111,119.531C132.111,126.476,126.481,132.113,119.529,132.113L31.454,132.113C24.509,132.113,18.872,126.476,18.872,119.531L18.872,31.456C18.872,24.511,24.509,18.874,31.454,18.874ZM71.363,88.256L81.573,85.285C80.551,84.45,79.809,82.872,79.809,81.387C79.809,78.024,82.693,75.921,85.973,73.531C90.297,70.378,95.31,66.724,95.31,59.018C95.31,50.385,87.977,44.352,76.004,44.352C68.021,44.352,60.595,47.508,55.676,53.356L63.194,61.802C66.072,58.275,69.97,56.047,74.611,56.047C79.716,56.047,81.944,58.461,81.944,61.338C81.944,64.114,79.382,65.93,76.478,67.989C72.681,70.681,68.3,73.788,68.3,79.995C68.3,83.243,69.413,86.121,71.363,88.256ZM75.818,108.211C79.902,108.211,83.336,104.777,83.336,100.694C83.336,96.609,79.902,93.175,75.818,93.175C71.734,93.175,68.3,96.609,68.3,100.694C68.3,104.777,71.734,108.211,75.818,108.211ZM75.818,108.211"/>
</g>
  <g id="Thin-L" transform="matrix(1.0,0.0,0.0,1.0,782.2171847098215,1444.3712904575893)">  <path stroke-linecap="butt" stroke-linejoin="miter" fill-rule="evenodd" stroke-dasharray="none" stroke-width="1px" clip-rule="evenodd" fill="#000000" fill-opacity="1" stroke="none" stroke-opacity="1" stroke-miterlimit="4" d="M34.82,119.531L116.163,119.531C118.025,119.531,119.529,118.021,119.529,116.165L119.529,34.822C119.529,32.96,118.025,31.456,116.163,31.456L34.82,31.456C32.958,31.456,31.454,32.96,31.454,34.822L31.454,116.165C31.454,118.021,32.958,119.531,34.82,119.531ZM31.454,18.874L119.529,18.874C126.481,18.874,132.111,24.511,132.111,31.456L132.111,119.531C132.111,126.476,126.481,132.113,119.529,132.113L31.454,132.113C24.509,132.113,18.872,126.476,18.872,119.531L18.872,31.456C18.872,24.511,24.509,18.874,31.454,18.874ZM71.363,88.256L81.573,85.285C80.551,84.45,79.809,82.872,79.809,81.387C79.809,78.024,82.693,75.921,85.973,73.531C90.297,70.378,95.31,66.724,95.31,59.018C95.31,50.385,87.977,44.352,76.004,44.352C68.021,44.352,60.595,47.508,55.676,53.356L63.194,61.802C66.072,58.275,69.97,56.047,74.611,56.047C79.716,56.047,81.944,58.461,81.944,61.338C81.944,64.114,79.382,65.93,76.478,67.989C72.681,70.681,68.3,73.788,68.3,79.995C68.3,83.243,69.413,86.121,71.363,88.256ZM75.818,108.211C79.902,108.211,83.336,104.777,83.336,100.694C83.336,96.609,79.902,93.175,75.818,93.175C71.734,93.175,68.3,96.609,68.3,100.694C68.3,104.777,71.734,108.211,75.818,108.211ZM75.818,108.211"/>
</g>
  <g id="Ultralight-L" transform="matrix(1.0,0.0,0.0,1.0,485.50718470982144,1444.3712904575893)">  <path fill-rule="evenodd" stroke-miterlimit="4" stroke-linecap="butt" fill="#000000" stroke="none" stroke-linejoin="miter" fill-opacity="1" stroke-width="1px" stroke-opacity="1" clip-rule="evenodd" stroke-dasharray="none" d="M34.82,119.531L116.163,119.531C118.025,119.531,119.529,118.021,119.529,116.165L119.529,34.822C119.529,32.96,118.025,31.456,116.163,31.456L34.82,31.456C32.958,31.456,31.454,32.96,31.454,34.822L31.454,116.165C31.454,118.021,32.958,119.531,34.82,119.531ZM31.454,18.874L119.529,18.874C126.481,18.874,132.111,24.511,132.111,31.456L132.111,119.531C132.111,126.476,126.481,132.113,119.529,132.113L31.454,132.113C24.509,132.113,18.872,126.476,18.872,119.531L18.872,31.456C18.872,24.511,24.509,18.874,31.454,18.874ZM71.363,88.256L81.573,85.285C80.551,84.45,79.809,82.872,79.809,81.387C79.809,78.024,82.693,75.921,85.973,73.531C90.297,70.378,95.31,66.724,95.31,59.018C95.31,50.385,87.977,44.352,76.004,44.352C68.021,44.352,60.595,47.508,55.676,53.356L63.194,61.802C66.072,58.275,69.97,56.047,74.611,56.047C79.716,56.047,81.944,58.461,81.944,61.338C81.944,64.114,79.382,65.93,76.478,67.989C72.681,70.681,68.3,73.788,68.3,79.995C68.3,83.243,69.413,86.121,71.363,88.256ZM75.818,108.211C79.902,108.211,83.336,104.777,83.336,100.694C83.336,96.609,79.902,93.175,75.818,93.175C71.734,93.175,68.3,96.609,68.3,100.694C68.3,104.777,71.734,108.211,75.818,108.211ZM75.818,108.211"/>
</g>
  <g id="Black-M" transform="matrix(1.0,0.0,0.0,1.0,2876.1584377595514,1031.546198543916)">  <path clip-rule="evenodd" fill-rule="evenodd" fill="#000000" fill-opacity="1" stroke="none" stroke-dasharray="none" stroke-miterlimit="4" stroke-linecap="butt" stroke-width="1px" stroke-opacity="1" stroke-linejoin="miter" d="M26.992,92.66L90.049,92.66C91.493,92.66,92.658,91.489,92.658,90.051L92.658,26.994C92.658,25.55,91.493,24.385,90.049,24.385L26.992,24.385C25.549,24.385,24.383,25.55,24.383,26.994L24.383,90.051C24.383,91.489,25.549,92.66,26.992,92.66ZM24.383,14.631L92.658,14.631C98.047,14.631,102.412,19.001,102.412,24.385L102.412,92.66C102.412,98.044,98.047,102.413,92.658,102.413L24.383,102.413C18.999,102.413,14.63,98.044,14.63,92.66L14.63,24.385C14.63,19.001,18.999,14.631,24.383,14.631ZM55.32,68.415L63.234,66.113C62.443,65.465,61.868,64.242,61.868,63.091C61.868,60.483,64.103,58.854,66.646,57C69.998,54.557,73.883,51.724,73.883,45.75C73.883,39.058,68.199,34.382,58.918,34.382C52.729,34.382,46.973,36.828,43.16,41.361L48.988,47.909C51.219,45.174,54.24,43.448,57.838,43.448C61.795,43.448,63.522,45.318,63.522,47.549C63.522,49.7,61.536,51.108,59.285,52.705C56.342,54.792,52.945,57.2,52.945,62.011C52.945,64.53,53.809,66.76,55.32,68.415ZM58.774,83.885C61.939,83.885,64.601,81.223,64.601,78.057C64.601,74.891,61.939,72.229,58.774,72.229C55.608,72.229,52.945,74.891,52.945,78.057C52.945,81.223,55.608,83.885,58.774,83.885ZM58.774,83.885"/>
</g>
  <g id="Heavy-M" transform="matrix(1.0,0.0,0.0,1.0,2579.4484377595513,1031.546198543916)">  <path fill-rule="evenodd" stroke-miterlimit="4" stroke-opacity="1" stroke="none" stroke-width="1px" stroke-dasharray="none" stroke-linecap="butt" clip-rule="evenodd" fill="#000000" fill-opacity="1" stroke-linejoin="miter" d="M26.992,92.66L90.049,92.66C91.493,92.66,92.658,91.489,92.658,90.051L92.658,26.994C92.658,25.55,91.493,24.385,90.049,24.385L26.992,24.385C25.549,24.385,24.383,25.55,24.383,26.994L24.383,90.051C24.383,91.489,25.549,92.66,26.992,92.66ZM24.383,14.631L92.658,14.631C98.047,14.631,102.412,19.001,102.412,24.385L102.412,92.66C102.412,98.044,98.047,102.413,92.658,102.413L24.383,102.413C18.999,102.413,14.63,98.044,14.63,92.66L14.63,24.385C14.63,19.001,18.999,14.631,24.383,14.631ZM55.32,68.415L63.234,66.113C62.443,65.465,61.868,64.242,61.868,63.091C61.868,60.483,64.103,58.854,66.646,57C69.998,54.557,73.883,51.724,73.883,45.75C73.883,39.058,68.199,34.382,58.918,34.382C52.729,34.382,46.973,36.828,43.16,41.361L48.988,47.909C51.219,45.174,54.24,43.448,57.838,43.448C61.795,43.448,63.522,45.318,63.522,47.549C63.522,49.7,61.536,51.108,59.285,52.705C56.342,54.792,52.945,57.2,52.945,62.011C52.945,64.53,53.809,66.76,55.32,68.415ZM58.774,83.885C61.939,83.885,64.601,81.223,64.601,78.057C64.601,74.891,61.939,72.229,58.774,72.229C55.608,72.229,52.945,74.891,52.945,78.057C52.945,81.223,55.608,83.885,58.774,83.885ZM58.774,83.885"/>
</g>
  <g id="Bold-M" transform="matrix(1.0,0.0,0.0,1.0,2282.7384377595513,1031.546198543916)">  <path clip-rule="evenodd" stroke-linejoin="miter" fill="#000000" fill-rule="evenodd" stroke="none" stroke-miterlimit="4" stroke-linecap="butt" stroke-width="1px" fill-opacity="1" stroke-dasharray="none" stroke-opacity="1" d="M26.992,92.66L90.049,92.66C91.493,92.66,92.658,91.489,92.658,90.051L92.658,26.994C92.658,25.55,91.493,24.385,90.049,24.385L26.992,24.385C25.549,24.385,24.383,25.55,24.383,26.994L24.383,90.051C24.383,91.489,25.549,92.66,26.992,92.66ZM24.383,14.631L92.658,14.631C98.047,14.631,102.412,19.001,102.412,24.385L102.412,92.66C102.412,98.044,98.047,102.413,92.658,102.413L24.383,102.413C18.999,102.413,14.63,98.044,14.63,92.66L14.63,24.385C14.63,19.001,18.999,14.631,24.383,14.631ZM55.32,68.415L63.234,66.113C62.443,65.465,61.868,64.242,61.868,63.091C61.868,60.483,64.103,58.854,66.646,57C69.998,54.557,73.883,51.724,73.883,45.75C73.883,39.058,68.199,34.382,58.918,34.382C52.729,34.382,46.973,36.828,43.16,41.361L48.988,47.909C51.219,45.174,54.24,43.448,57.838,43.448C61.795,43.448,63.522,45.318,63.522,47.549C63.522,49.7,61.536,51.108,59.285,52.705C56.342,54.792,52.945,57.2,52.945,62.011C52.945,64.53,53.809,66.76,55.32,68.415ZM58.774,83.885C61.939,83.885,64.601,81.223,64.601,78.057C64.601,74.891,61.939,72.229,58.774,72.229C55.608,72.229,52.945,74.891,52.945,78.057C52.945,81.223,55.608,83.885,58.774,83.885ZM58.774,83.885"/>
</g>
  <g id="Semibold-M" transform="matrix(1.0,0.0,0.0,1.0,1986.0284377595515,1031.546198543916)">  <path fill-opacity="1" stroke-linejoin="miter" stroke-linecap="butt" stroke="none" clip-rule="evenodd" stroke-width="1px" stroke-dasharray="none" stroke-opacity="1" fill-rule="evenodd" stroke-miterlimit="4" fill="#000000" d="M26.992,92.66L90.049,92.66C91.493,92.66,92.658,91.489,92.658,90.051L92.658,26.994C92.658,25.55,91.493,24.385,90.049,24.385L26.992,24.385C25.549,24.385,24.383,25.55,24.383,26.994L24.383,90.051C24.383,91.489,25.549,92.66,26.992,92.66ZM24.383,14.631L92.658,14.631C98.047,14.631,102.412,19.001,102.412,24.385L102.412,92.66C102.412,98.044,98.047,102.413,92.658,102.413L24.383,102.413C18.999,102.413,14.63,98.044,14.63,92.66L14.63,24.385C14.63,19.001,18.999,14.631,24.383,14.631ZM55.32,68.415L63.234,66.113C62.443,65.465,61.868,64.242,61.868,63.091C61.868,60.483,64.103,58.854,66.646,57C69.998,54.557,73.883,51.724,73.883,45.75C73.883,39.058,68.199,34.382,58.918,34.382C52.729,34.382,46.973,36.828,43.16,41.361L48.988,47.909C51.219,45.174,54.24,43.448,57.838,43.448C61.795,43.448,63.522,45.318,63.522,47.549C63.522,49.7,61.536,51.108,59.285,52.705C56.342,54.792,52.945,57.2,52.945,62.011C52.945,64.53,53.809,66.76,55.32,68.415ZM58.774,83.885C61.939,83.885,64.601,81.223,64.601,78.057C64.601,74.891,61.939,72.229,58.774,72.229C55.608,72.229,52.945,74.891,52.945,78.057C52.945,81.223,55.608,83.885,58.774,83.885ZM58.774,83.885"/>
</g>
  <g id="Medium-M" transform="matrix(1.0,0.0,0.0,1.0,1689.3184377595514,1031.546198543916)">  <path fill-opacity="1" stroke-dasharray="none" stroke-miterlimit="4" stroke-linejoin="miter" fill-rule="evenodd" stroke="none" fill="#000000" stroke-opacity="1" stroke-linecap="butt" clip-rule="evenodd" stroke-width="1px" d="M26.992,92.66L90.049,92.66C91.493,92.66,92.658,91.489,92.658,90.051L92.658,26.994C92.658,25.55,91.493,24.385,90.049,24.385L26.992,24.385C25.549,24.385,24.383,25.55,24.383,26.994L24.383,90.051C24.383,91.489,25.549,92.66,26.992,92.66ZM24.383,14.631L92.658,14.631C98.047,14.631,102.412,19.001,102.412,24.385L102.412,92.66C102.412,98.044,98.047,102.413,92.658,102.413L24.383,102.413C18.999,102.413,14.63,98.044,14.63,92.66L14.63,24.385C14.63,19.001,18.999,14.631,24.383,14.631ZM55.32,68.415L63.234,66.113C62.443,65.465,61.868,64.242,61.868,63.091C61.868,60.483,64.103,58.854,66.646,57C69.998,54.557,73.883,51.724,73.883,45.75C73.883,39.058,68.199,34.382,58.918,34.382C52.729,34.382,46.973,36.828,43.16,41.361L48.988,47.909C51.219,45.174,54.24,43.448,57.838,43.448C61.795,43.448,63.522,45.318,63.522,47.549C63.522,49.7,61.536,51.108,59.285,52.705C56.342,54.792,52.945,57.2,52.945,62.011C52.945,64.53,53.809,66.76,55.32,68.415ZM58.774,83.885C61.939,83.885,64.601,81.223,64.601,78.057C64.601,74.891,61.939,72.229,58.774,72.229C55.608,72.229,52.945,74.891,52.945,78.057C52.945,81.223,55.608,83.885,58.774,83.885ZM58.774,83.885"/>
</g>
  <g id="Regular-M" transform="matrix(1.0,0.0,0.0,1.0,1392.6084377595514,1031.546198543916)">  <path stroke-linejoin="miter" fill-rule="evenodd" stroke-width="1px" fill-opacity="1" stroke="none" clip-rule="evenodd" stroke-linecap="butt" stroke-miterlimit="4" fill="#000000" stroke-dasharray="none" stroke-opacity="1" d="M26.992,92.66L90.049,92.66C91.493,92.66,92.658,91.489,92.658,90.051L92.658,26.994C92.658,25.55,91.493,24.385,90.049,24.385L26.992,24.385C25.549,24.385,24.383,25.55,24.383,26.994L24.383,90.051C24.383,91.489,25.549,92.66,26.992,92.66ZM24.383,14.631L92.658,14.631C98.047,14.631,102.412,19.001,102.412,24.385L102.412,92.66C102.412,98.044,98.047,102.413,92.658,102.413L24.383,102.413C18.999,102.413,14.63,98.044,14.63,92.66L14.63,24.385C14.63,19.001,18.999,14.631,24.383,14.631ZM55.32,68.415L63.234,66.113C62.443,65.465,61.868,64.242,61.868,63.091C61.868,60.483,64.103,58.854,66.646,57C69.998,54.557,73.883,51.724,73.883,45.75C73.883,39.058,68.199,34.382,58.918,34.382C52.729,34.382,46.973,36.828,43.16,41.361L48.988,47.909C51.219,45.174,54.24,43.448,57.838,43.448C61.795,43.448,63.522,45.318,63.522,47.549C63.522,49.7,61.536,51.108,59.285,52.705C56.342,54.792,52.945,57.2,52.945,62.011C52.945,64.53,53.809,66.76,55.32,68.415ZM58.774,83.885C61.939,83.885,64.601,81.223,64.601,78.057C64.601,74.891,61.939,72.229,58.774,72.229C55.608,72.229,52.945,74.891,52.945,78.057C52.945,81.223,55.608,83.885,58.774,83.885ZM58.774,83.885"/>
</g>
  <g id="Light-M" transform="matrix(1.0,0.0,0.0,1.0,1095.8984377595516,1031.546198543916)">  <path stroke-width="1px" stroke-miterlimit="4" stroke-linecap="butt" fill="#000000" stroke-opacity="1" stroke-dasharray="none" clip-rule="evenodd" stroke-linejoin="miter" fill-opacity="1" fill-rule="evenodd" stroke="none" d="M26.992,92.66L90.049,92.66C91.493,92.66,92.658,91.489,92.658,90.051L92.658,26.994C92.658,25.55,91.493,24.385,90.049,24.385L26.992,24.385C25.549,24.385,24.383,25.55,24.383,26.994L24.383,90.051C24.383,91.489,25.549,92.66,26.992,92.66ZM24.383,14.631L92.658,14.631C98.047,14.631,102.412,19.001,102.412,24.385L102.412,92.66C102.412,98.044,98.047,102.413,92.658,102.413L24.383,102.413C18.999,102.413,14.63,98.044,14.63,92.66L14.63,24.385C14.63,19.001,18.999,14.631,24.383,14.631ZM55.32,68.415L63.234,66.113C62.443,65.465,61.868,64.242,61.868,63.091C61.868,60.483,64.103,58.854,66.646,57C69.998,54.557,73.883,51.724,73.883,45.75C73.883,39.058,68.199,34.382,58.918,34.382C52.729,34.382,46.973,36.828,43.16,41.361L48.988,47.909C51.219,45.174,54.24,43.448,57.838,43.448C61.795,43.448,63.522,45.318,63.522,47.549C63.522,49.7,61.536,51.108,59.285,52.705C56.342,54.792,52.945,57.2,52.945,62.011C52.945,64.53,53.809,66.76,55.32,68.415ZM58.774,83.885C61.939,83.885,64.601,81.223,64.601,78.057C64.601,74.891,61.939,72.229,58.774,72.229C55.608,72.229,52.945,74.891,52.945,78.057C52.945,81.223,55.608,83.885,58.774,83.885ZM58.774,83.885"/>
</g>
  <g id="Thin-M" transform="matrix(1.0,0.0,0.0,1.0,799.1884377595516,1031.546198543916)">  <path stroke-linecap="butt" stroke-linejoin="miter" fill-rule="evenodd" stroke-dasharray="none" stroke-width="1px" clip-rule="evenodd" fill="#000000" fill-opacity="1" stroke="none" stroke-opacity="1" stroke-miterlimit="4" d="M26.992,92.66L90.049,92.66C91.493,92.66,92.658,91.489,92.658,90.051L92.658,26.994C92.658,25.55,91.493,24.385,90.049,24.385L26.992,24.385C25.549,24.385,24.383,25.55,24.383,26.994L24.383,90.051C24.383,91.489,25.549,92.66,26.992,92.66ZM24.383,14.631L92.658,14.631C98.047,14.631,102.412,19.001,102.412,24.385L102.412,92.66C102.412,98.044,98.047,102.413,92.658,102.413L24.383,102.413C18.999,102.413,14.63,98.044,14.63,92.66L14.63,24.385C14.63,19.001,18.999,14.631,24.383,14.631ZM55.32,68.415L63.234,66.113C62.443,65.465,61.868,64.242,61.868,63.091C61.868,60.483,64.103,58.854,66.646,57C69.998,54.557,73.883,51.724,73.883,45.75C73.883,39.058,68.199,34.382,58.918,34.382C52.729,34.382,46.973,36.828,43.16,41.361L48.988,47.909C51.219,45.174,54.24,43.448,57.838,43.448C61.795,43.448,63.522,45.318,63.522,47.549C63.522,49.7,61.536,51.108,59.285,52.705C56.342,54.792,52.945,57.2,52.945,62.011C52.945,64.53,53.809,66.76,55.32,68.415ZM58.774,83.885C61.939,83.885,64.601,81.223,64.601,78.057C64.601,74.891,61.939,72.229,58.774,72.229C55.608,72.229,52.945,74.891,52.945,78.057C52.945,81.223,55.608,83.885,58.774,83.885ZM58.774,83.885"/>
</g>
  <g id="Ultralight-M" transform="matrix(1.0,0.0,0.0,1.0,502.4784377595515,1031.546198543916)">  <path fill-rule="evenodd" stroke-miterlimit="4" stroke-linecap="butt" fill="#000000" stroke="none" stroke-linejoin="miter" fill-opacity="1" stroke-width="1px" stroke-opacity="1" clip-rule="evenodd" stroke-dasharray="none" d="M26.992,92.66L90.049,92.66C91.493,92.66,92.658,91.489,92.658,90.051L92.658,26.994C92.658,25.55,91.493,24.385,90.049,24.385L26.992,24.385C25.549,24.385,24.383,25.55,24.383,26.994L24.383,90.051C24.383,91.489,25.549,92.66,26.992,92.66ZM24.383,14.631L92.658,14.631C98.047,14.631,102.412,19.001,102.412,24.385L102.412,92.66C102.412,98.044,98.047,102.413,92.658,102.413L24.383,102.413C18.999,102.413,14.63,98.044,14.63,92.66L14.63,24.385C14.63,19.001,18.999,14.631,24.383,14.631ZM55.32,68.415L63.234,66.113C62.443,65.465,61.868,64.242,61.868,63.091C61.868,60.483,64.103,58.854,66.646,57C69.998,54.557,73.883,51.724,73.883,45.75C73.883,39.058,68.199,34.382,58.918,34.382C52.729,34.382,46.973,36.828,43.16,41.361L48.988,47.909C51.219,45.174,54.24,43.448,57.838,43.448C61.795,43.448,63.522,45.318,63.522,47.549C63.522,49.7,61.536,51.108,59.285,52.705C56.342,54.792,52.945,57.2,52.945,62.011C52.945,64.53,53.809,66.76,55.32,68.415ZM58.774,83.885C61.939,83.885,64.601,81.223,64.601,78.057C64.601,74.891,61.939,72.229,58.774,72.229C55.608,72.229,52.945,74.891,52.945,78.057C52.945,81.223,55.608,83.885,58.774,83.885ZM58.774,83.885"/>
</g>
  <g id="Black-S" transform="matrix(1.0,0.0,0.0,1.0,2888.857616765729,614.3977676981676)">  <path clip-rule="evenodd" fill-rule="evenodd" fill="#000000" fill-opacity="1" stroke="none" stroke-dasharray="none" stroke-miterlimit="4" stroke-linecap="butt" stroke-width="1px" stroke-opacity="1" stroke-linejoin="miter" d="M21.135,72.552L70.508,72.552C71.639,72.552,72.551,71.636,72.551,70.51L72.551,21.136C72.551,20.006,71.639,19.093,70.508,19.093L21.135,19.093C20.005,19.093,19.092,20.006,19.092,21.136L19.092,70.51C19.092,71.636,20.005,72.552,21.135,72.552ZM19.092,11.456L72.551,11.456C76.771,11.456,80.188,14.877,80.188,19.093L80.188,72.552C80.188,76.768,76.771,80.19,72.551,80.19L19.092,80.19C14.876,80.19,11.455,76.768,11.455,72.552L11.455,19.093C11.455,14.877,14.876,11.456,19.092,11.456ZM43.316,53.569L49.513,51.766C48.893,51.259,48.442,50.302,48.442,49.4C48.442,47.359,50.193,46.082,52.184,44.631C54.808,42.718,57.851,40.5,57.851,35.822C57.851,30.583,53.4,26.921,46.132,26.921C41.287,26.921,36.78,28.836,33.794,32.386L38.358,37.512C40.104,35.372,42.47,34.019,45.287,34.019C48.386,34.019,49.738,35.484,49.738,37.231C49.738,38.915,48.183,40.018,46.42,41.268C44.116,42.902,41.456,44.788,41.456,48.555C41.456,50.527,42.132,52.273,43.316,53.569ZM46.02,65.682C48.498,65.682,50.583,63.597,50.583,61.119C50.583,58.64,48.498,56.555,46.02,56.555C43.541,56.555,41.456,58.64,41.456,61.119C41.456,63.597,43.541,65.682,46.02,65.682ZM46.02,65.682"/>
</g>
  <g id="Heavy-S" transform="matrix(1.0,0.0,0.0,1.0,2592.147616765729,614.3977676981676)">  <path fill-rule="evenodd" stroke-miterlimit="4" stroke-opacity="1" stroke="none" stroke-width="1px" stroke-dasharray="none" stroke-linecap="butt" clip-rule="evenodd" fill="#000000" fill-opacity="1" stroke-linejoin="miter" d="M21.135,72.552L70.508,72.552C71.639,72.552,72.551,71.636,72.551,70.51L72.551,21.136C72.551,20.006,71.639,19.093,70.508,19.093L21.135,19.093C20.005,19.093,19.092,20.006,19.092,21.136L19.092,70.51C19.092,71.636,20.005,72.552,21.135,72.552ZM19.092,11.456L72.551,11.456C76.771,11.456,80.188,14.877,80.188,19.093L80.188,72.552C80.188,76.768,76.771,80.19,72.551,80.19L19.092,80.19C14.876,80.19,11.455,76.768,11.455,72.552L11.455,19.093C11.455,14.877,14.876,11.456,19.092,11.456ZM43.316,53.569L49.513,51.766C48.893,51.259,48.442,50.302,48.442,49.4C48.442,47.359,50.193,46.082,52.184,44.631C54.808,42.718,57.851,40.5,57.851,35.822C57.851,30.583,53.4,26.921,46.132,26.921C41.287,26.921,36.78,28.836,33.794,32.386L38.358,37.512C40.104,35.372,42.47,34.019,45.287,34.019C48.386,34.019,49.738,35.484,49.738,37.231C49.738,38.915,48.183,40.018,46.42,41.268C44.116,42.902,41.456,44.788,41.456,48.555C41.456,50.527,42.132,52.273,43.316,53.569ZM46.02,65.682C48.498,65.682,50.583,63.597,50.583,61.119C50.583,58.64,48.498,56.555,46.02,56.555C43.541,56.555,41.456,58.64,41.456,61.119C41.456,63.597,43.541,65.682,46.02,65.682ZM46.02,65.682"/>
</g>
  <g id="Bold-S" transform="matrix(1.0,0.0,0.0,1.0,2295.4376167657288,614.3977676981676)">  <path clip-rule="evenodd" stroke-linejoin="miter" fill="#000000" fill-rule="evenodd" stroke="none" stroke-miterlimit="4" stroke-linecap="butt" stroke-width="1px" fill-opacity="1" stroke-dasharray="none" stroke-opacity="1" d="M21.135,72.552L70.508,72.552C71.639,72.552,72.551,71.636,72.551,70.51L72.551,21.136C72.551,20.006,71.639,19.093,70.508,19.093L21.135,19.093C20.005,19.093,19.092,20.006,19.092,21.136L19.092,70.51C19.092,71.636,20.005,72.552,21.135,72.552ZM19.092,11.456L72.551,11.456C76.771,11.456,80.188,14.877,80.188,19.093L80.188,72.552C80.188,76.768,76.771,80.19,72.551,80.19L19.092,80.19C14.876,80.19,11.455,76.768,11.455,72.552L11.455,19.093C11.455,14.877,14.876,11.456,19.092,11.456ZM43.316,53.569L49.513,51.766C48.893,51.259,48.442,50.302,48.442,49.4C48.442,47.359,50.193,46.082,52.184,44.631C54.808,42.718,57.851,40.5,57.851,35.822C57.851,30.583,53.4,26.921,46.132,26.921C41.287,26.921,36.78,28.836,33.794,32.386L38.358,37.512C40.104,35.372,42.47,34.019,45.287,34.019C48.386,34.019,49.738,35.484,49.738,37.231C49.738,38.915,48.183,40.018,46.42,41.268C44.116,42.902,41.456,44.788,41.456,48.555C41.456,50.527,42.132,52.273,43.316,53.569ZM46.02,65.682C48.498,65.682,50.583,63.597,50.583,61.119C50.583,58.64,48.498,56.555,46.02,56.555C43.541,56.555,41.456,58.64,41.456,61.119C41.456,63.597,43.541,65.682,46.02,65.682ZM46.02,65.682"/>
</g>
  <g id="Semibold-S" transform="matrix(1.0,0.0,0.0,1.0,1998.7276167657287,614.3977676981676)">  <path fill-opacity="1" stroke-linejoin="miter" stroke-linecap="butt" stroke="none" clip-rule="evenodd" stroke-width="1px" stroke-dasharray="none" stroke-opacity="1" fill-rule="evenodd" stroke-miterlimit="4" fill="#000000" d="M21.135,72.552L70.508,72.552C71.639,72.552,72.551,71.636,72.551,70.51L72.551,21.136C72.551,20.006,71.639,19.093,70.508,19.093L21.135,19.093C20.005,19.093,19.092,20.006,19.092,21.136L19.092,70.51C19.092,71.636,20.005,72.552,21.135,72.552ZM19.092,11.456L72.551,11.456C76.771,11.456,80.188,14.877,80.188,19.093L80.188,72.552C80.188,76.768,76.771,80.19,72.551,80.19L19.092,80.19C14.876,80.19,11.455,76.768,11.455,72.552L11.455,19.093C11.455,14.877,14.876,11.456,19.092,11.456ZM43.316,53.569L49.513,51.766C48.893,51.259,48.442,50.302,48.442,49.4C48.442,47.359,50.193,46.082,52.184,44.631C54.808,42.718,57.851,40.5,57.851,35.822C57.851,30.583,53.4,26.921,46.132,26.921C41.287,26.921,36.78,28.836,33.794,32.386L38.358,37.512C40.104,35.372,42.47,34.019,45.287,34.019C48.386,34.019,49.738,35.484,49.738,37.231C49.738,38.915,48.183,40.018,46.42,41.268C44.116,42.902,41.456,44.788,41.456,48.555C41.456,50.527,42.132,52.273,43.316,53.569ZM46.02,65.682C48.498,65.682,50.583,63.597,50.583,61.119C50.583,58.64,48.498,56.555,46.02,56.555C43.541,56.555,41.456,58.64,41.456,61.119C41.456,63.597,43.541,65.682,46.02,65.682ZM46.02,65.682"/>
</g>
  <g id="Medium-S" transform="matrix(1.0,0.0,0.0,1.0,1702.0176167657287,614.3977676981676)">  <path fill-opacity="1" stroke-dasharray="none" stroke-miterlimit="4" stroke-linejoin="miter" fill-rule="evenodd" stroke="none" fill="#000000" stroke-opacity="1" stroke-linecap="butt" clip-rule="evenodd" stroke-width="1px" d="M21.135,72.552L70.508,72.552C71.639,72.552,72.551,71.636,72.551,70.51L72.551,21.136C72.551,20.006,71.639,19.093,70.508,19.093L21.135,19.093C20.005,19.093,19.092,20.006,19.092,21.136L19.092,70.51C19.092,71.636,20.005,72.552,21.135,72.552ZM19.092,11.456L72.551,11.456C76.771,11.456,80.188,14.877,80.188,19.093L80.188,72.552C80.188,76.768,76.771,80.19,72.551,80.19L19.092,80.19C14.876,80.19,11.455,76.768,11.455,72.552L11.455,19.093C11.455,14.877,14.876,11.456,19.092,11.456ZM43.316,53.569L49.513,51.766C48.893,51.259,48.442,50.302,48.442,49.4C48.442,47.359,50.193,46.082,52.184,44.631C54.808,42.718,57.851,40.5,57.851,35.822C57.851,30.583,53.4,26.921,46.132,26.921C41.287,26.921,36.78,28.836,33.794,32.386L38.358,37.512C40.104,35.372,42.47,34.019,45.287,34.019C48.386,34.019,49.738,35.484,49.738,37.231C49.738,38.915,48.183,40.018,46.42,41.268C44.116,42.902,41.456,44.788,41.456,48.555C41.456,50.527,42.132,52.273,43.316,53.569ZM46.02,65.682C48.498,65.682,50.583,63.597,50.583,61.119C50.583,58.64,48.498,56.555,46.02,56.555C43.541,56.555,41.456,58.64,41.456,61.119C41.456,63.597,43.541,65.682,46.02,65.682ZM46.02,65.682"/>
</g>
  <g id="Regular-S" transform="matrix(1.0,0.0,0.0,1.0,1405.3076167657287,614.3977676981676)">  <path stroke-linejoin="miter" fill-rule="evenodd" stroke-width="1px" fill-opacity="1" stroke="none" clip-rule="evenodd" stroke-linecap="butt" stroke-miterlimit="4" fill="#000000" stroke-dasharray="none" stroke-opacity="1" d="M21.135,72.552L70.508,72.552C71.639,72.552,72.551,71.636,72.551,70.51L72.551,21.136C72.551,20.006,71.639,19.093,70.508,19.093L21.135,19.093C20.005,19.093,19.092,20.006,19.092,21.136L19.092,70.51C19.092,71.636,20.005,72.552,21.135,72.552ZM19.092,11.456L72.551,11.456C76.771,11.456,80.188,14.877,80.188,19.093L80.188,72.552C80.188,76.768,76.771,80.19,72.551,80.19L19.092,80.19C14.876,80.19,11.455,76.768,11.455,72.552L11.455,19.093C11.455,14.877,14.876,11.456,19.092,11.456ZM43.316,53.569L49.513,51.766C48.893,51.259,48.442,50.302,48.442,49.4C48.442,47.359,50.193,46.082,52.184,44.631C54.808,42.718,57.851,40.5,57.851,35.822C57.851,30.583,53.4,26.921,46.132,26.921C41.287,26.921,36.78,28.836,33.794,32.386L38.358,37.512C40.104,35.372,42.47,34.019,45.287,34.019C48.386,34.019,49.738,35.484,49.738,37.231C49.738,38.915,48.183,40.018,46.42,41.268C44.116,42.902,41.456,44.788,41.456,48.555C41.456,50.527,42.132,52.273,43.316,53.569ZM46.02,65.682C48.498,65.682,50.583,63.597,50.583,61.119C50.583,58.64,48.498,56.555,46.02,56.555C43.541,56.555,41.456,58.64,41.456,61.119C41.456,63.597,43.541,65.682,46.02,65.682ZM46.02,65.682"/>
</g>
  <g id="Light-S" transform="matrix(1.0,0.0,0.0,1.0,1108.5976167657288,614.3977676981676)">  <path stroke-width="1px" stroke-miterlimit="4" stroke-linecap="butt" fill="#000000" stroke-opacity="1" stroke-dasharray="none" clip-rule="evenodd" stroke-linejoin="miter" fill-opacity="1" fill-rule="evenodd" stroke="none" d="M21.135,72.552L70.508,72.552C71.639,72.552,72.551,71.636,72.551,70.51L72.551,21.136C72.551,20.006,71.639,19.093,70.508,19.093L21.135,19.093C20.005,19.093,19.092,20.006,19.092,21.136L19.092,70.51C19.092,71.636,20.005,72.552,21.135,72.552ZM19.092,11.456L72.551,11.456C76.771,11.456,80.188,14.877,80.188,19.093L80.188,72.552C80.188,76.768,76.771,80.19,72.551,80.19L19.092,80.19C14.876,80.19,11.455,76.768,11.455,72.552L11.455,19.093C11.455,14.877,14.876,11.456,19.092,11.456ZM43.316,53.569L49.513,51.766C48.893,51.259,48.442,50.302,48.442,49.4C48.442,47.359,50.193,46.082,52.184,44.631C54.808,42.718,57.851,40.5,57.851,35.822C57.851,30.583,53.4,26.921,46.132,26.921C41.287,26.921,36.78,28.836,33.794,32.386L38.358,37.512C40.104,35.372,42.47,34.019,45.287,34.019C48.386,34.019,49.738,35.484,49.738,37.231C49.738,38.915,48.183,40.018,46.42,41.268C44.116,42.902,41.456,44.788,41.456,48.555C41.456,50.527,42.132,52.273,43.316,53.569ZM46.02,65.682C48.498,65.682,50.583,63.597,50.583,61.119C50.583,58.64,48.498,56.555,46.02,56.555C43.541,56.555,41.456,58.64,41.456,61.119C41.456,63.597,43.541,65.682,46.02,65.682ZM46.02,65.682"/>
</g>
  <g id="Thin-S" transform="matrix(1.0,0.0,0.0,1.0,811.8876167657288,614.3977676981676)">  <path stroke-linecap="butt" stroke-linejoin="miter" fill-rule="evenodd" stroke-dasharray="none" stroke-width="1px" clip-rule="evenodd" fill="#000000" fill-opacity="1" stroke="none" stroke-opacity="1" stroke-miterlimit="4" d="M21.135,72.552L70.508,72.552C71.639,72.552,72.551,71.636,72.551,70.51L72.551,21.136C72.551,20.006,71.639,19.093,70.508,19.093L21.135,19.093C20.005,19.093,19.092,20.006,19.092,21.136L19.092,70.51C19.092,71.636,20.005,72.552,21.135,72.552ZM19.092,11.456L72.551,11.456C76.771,11.456,80.188,14.877,80.188,19.093L80.188,72.552C80.188,76.768,76.771,80.19,72.551,80.19L19.092,80.19C14.876,80.19,11.455,76.768,11.455,72.552L11.455,19.093C11.455,14.877,14.876,11.456,19.092,11.456ZM43.316,53.569L49.513,51.766C48.893,51.259,48.442,50.302,48.442,49.4C48.442,47.359,50.193,46.082,52.184,44.631C54.808,42.718,57.851,40.5,57.851,35.822C57.851,30.583,53.4,26.921,46.132,26.921C41.287,26.921,36.78,28.836,33.794,32.386L38.358,37.512C40.104,35.372,42.47,34.019,45.287,34.019C48.386,34.019,49.738,35.484,49.738,37.231C49.738,38.915,48.183,40.018,46.42,41.268C44.116,42.902,41.456,44.788,41.456,48.555C41.456,50.527,42.132,52.273,43.316,53.569ZM46.02,65.682C48.498,65.682,50.583,63.597,50.583,61.119C50.583,58.64,48.498,56.555,46.02,56.555C43.541,56.555,41.456,58.64,41.456,61.119C41.456,63.597,43.541,65.682,46.02,65.682ZM46.02,65.682"/>
</g>
  <g id="Ultralight-S" transform="matrix(1.0,0.0,0.0,1.0,515.1776167657288,614.3977676981676)">  <path fill-rule="evenodd" stroke-miterlimit="4" stroke-linecap="butt" fill="#000000" stroke="none" stroke-linejoin="miter" fill-opacity="1" stroke-width="1px" stroke-opacity="1" clip-rule="evenodd" stroke-dasharray="none" d="M21.135,72.552L70.508,72.552C71.639,72.552,72.551,71.636,72.551,70.51L72.551,21.136C72.551,20.006,71.639,19.093,70.508,19.093L21.135,19.093C20.005,19.093,19.092,20.006,19.092,21.136L19.092,70.51C19.092,71.636,20.005,72.552,21.135,72.552ZM19.092,11.456L72.551,11.456C76.771,11.456,80.188,14.877,80.188,19.093L80.188,72.552C80.188,76.768,76.771,80.19,72.551,80.19L19.092,80.19C14.876,80.19,11.455,76.768,11.455,72.552L11.455,19.093C11.455,14.877,14.876,11.456,19.092,11.456ZM43.316,53.569L49.513,51.766C48.893,51.259,48.442,50.302,48.442,49.4C48.442,47.359,50.193,46.082,52.184,44.631C54.808,42.718,57.851,40.5,57.851,35.822C57.851,30.583,53.4,26.921,46.132,26.921C41.287,26.921,36.78,28.836,33.794,32.386L38.358,37.512C40.104,35.372,42.47,34.019,45.287,34.019C48.386,34.019,49.738,35.484,49.738,37.231C49.738,38.915,48.183,40.018,46.42,41.268C44.116,42.902,41.456,44.788,41.456,48.555C41.456,50.527,42.132,52.273,43.316,53.569ZM46.02,65.682C48.498,65.682,50.583,63.597,50.583,61.119C50.583,58.64,48.498,56.555,46.02,56.555C43.541,56.555,41.456,58.64,41.456,61.119C41.456,63.597,43.541,65.682,46.02,65.682ZM46.02,65.682"/>
</g>
 </g>
</svg>
