<?xml version="1.0" encoding="UTF-8"?>
<!-- Generator: CustomSymbols v2.6.1.40 by @serious_bret https://bretlester.com/app_content/CustomSymbols/ -->
<!-- Guides: Left/Right 0.086/0.088 Cap/Base 0.205/0.193 -->
<!-- Settings: RefScale 1.0 Min/Max Stroke Scales 0.5/2.21 -->
<!DOCTYPE svg
PUBLIC "-//W3C//DTD SVG 1.1//EN"
       "http://www.w3.org/Graphics/SVG/1.1/DTD/svg11.dtd">
<svg version="1.1" xmlns="http://www.w3.org/2000/svg" xmlns:xlink="http://www.w3.org/1999/xlink" width="3300" height="2200">
<![CDATA[<svg width="24" height="24" viewBox="0 0 24 24" fill="none" xmlns="http://www.w3.org/2000/svg">
<path d="M19.7698 9.7335C19.1375 9.7335 18.5811 9.99485 18.1722 10.4037C16.6673 9.36256 14.6397 8.69232 12.3929 8.62066L13.5605 3.35993L17.2785 4.19456C17.2785 5.10507 18.0204 5.84697 18.9309 5.84697C19.8583 5.84697 20.6044 5.084 20.6044 4.17349C20.6044 3.26297 19.8625 2.5 18.9309 2.5C18.2818 2.5 17.7211 2.89203 17.4429 3.42737L13.3371 2.51686C13.1306 2.46206 12.9282 2.6096 12.8734 2.81615L11.592 8.61644C9.36203 8.70918 7.35551 9.37942 5.84641 10.4206C5.43752 9.99485 4.86001 9.7335 4.22771 9.7335C1.88396 9.7335 1.11676 12.8781 3.26239 13.953C3.18651 14.2861 3.15279 14.6401 3.15279 14.9942C3.15279 18.5267 7.1321 21.3889 12.0177 21.3889C16.9244 21.3889 20.9037 18.5267 20.9037 14.9942C20.9037 14.6401 20.8658 14.2692 20.773 13.9362C22.8765 12.8571 22.1009 9.7335 19.7698 9.7335ZM6.66419 14.1765C6.66419 13.2491 7.4061 12.503 8.33769 12.503C9.24821 12.503 9.99012 13.2449 9.99012 14.1765C9.99012 15.087 9.24821 15.8289 8.33769 15.8289C7.41031 15.8331 6.66419 15.087 6.66419 14.1765ZM15.6977 18.1178C14.1633 19.6522 9.83415 19.6522 8.29976 18.1178C8.13114 17.9703 8.13114 17.7089 8.29976 17.5403C8.44729 17.3928 8.70865 17.3928 8.85618 17.5403C10.0281 18.7417 13.9146 18.7627 15.1371 17.5403C15.2846 17.3928 15.546 17.3928 15.6935 17.5403C15.8664 17.7089 15.8664 17.9703 15.6977 18.1178ZM15.664 15.8331C14.7535 15.8331 14.0116 15.0912 14.0116 14.1807C14.0116 13.2533 14.7535 12.5072 15.664 12.5072C16.5914 12.5072 17.3375 13.2491 17.3375 14.1807C17.3333 15.087 16.5914 15.8331 15.664 15.8331Z" fill="black"/>
</svg>
]]>
 <g id="Notes">
  <rect height="2200" id="artboard" style="fill:white;opacity:1" width="3300" x="0" y="0"/>
  <line id="" style="fill:none;stroke:black;opacity:1;stroke-width:0.5;" x1="263" x2="3036" y1="292" y2="292"/>
  <text id="reftext1" style="stroke:none;fill:black;font-family:-apple-system,&quot;SF Pro Display&quot;,&quot;SF Pro Text&quot;,Helvetica,sans-serif;font-weight:bold;" transform="matrix(1 0 0 1 263 322)">Weight/Scale Variations</text>
  <text id="reftext2" style="stroke:none;fill:black;font-family:-apple-system,&quot;SF Pro Display&quot;,&quot;SF Pro Text&quot;,Helvetica,sans-serif;text-anchor:middle;" transform="matrix(1 0 0 1 559.711 322)">Ultralight</text>
  <text style="stroke:none;fill:black;font-family:-apple-system,&quot;SF Pro Display&quot;,&quot;SF Pro Text&quot;,Helvetica,sans-serif;text-anchor:middle;" transform="matrix(1 0 0 1 856.422 322)">Thin</text>
  <text style="stroke:none;fill:black;font-family:-apple-system,&quot;SF Pro Display&quot;,&quot;SF Pro Text&quot;,Helvetica,sans-serif;text-anchor:middle;" transform="matrix(1 0 0 1 1153.13 322)">Light</text>
  <text style="stroke:none;fill:black;font-family:-apple-system,&quot;SF Pro Display&quot;,&quot;SF Pro Text&quot;,Helvetica,sans-serif;text-anchor:middle;" transform="matrix(1 0 0 1 1449.84 322)">Regular</text>
  <text style="stroke:none;fill:black;font-family:-apple-system,&quot;SF Pro Display&quot;,&quot;SF Pro Text&quot;,Helvetica,sans-serif;text-anchor:middle;" transform="matrix(1 0 0 1 1746.56 322)">Medium</text>
  <text style="stroke:none;fill:black;font-family:-apple-system,&quot;SF Pro Display&quot;,&quot;SF Pro Text&quot;,Helvetica,sans-serif;text-anchor:middle;" transform="matrix(1 0 0 1 2043.27 322)">Semibold</text>
  <text style="stroke:none;fill:black;font-family:-apple-system,&quot;SF Pro Display&quot;,&quot;SF Pro Text&quot;,Helvetica,sans-serif;text-anchor:middle;" transform="matrix(1 0 0 1 2339.98 322)">Bold</text>
  <text style="stroke:none;fill:black;font-family:-apple-system,&quot;SF Pro Display&quot;,&quot;SF Pro Text&quot;,Helvetica,sans-serif;text-anchor:middle;" transform="matrix(1 0 0 1 2636.69 322)">Heavy</text>
  <text style="stroke:none;fill:black;font-family:-apple-system,&quot;SF Pro Display&quot;,&quot;SF Pro Text&quot;,Helvetica,sans-serif;text-anchor:middle;" transform="matrix(1 0 0 1 2933.4 322)">Black</text>
  <line id="" style="fill:none;stroke:black;opacity:1;stroke-width:0.5;" x1="263" x2="3036" y1="1903" y2="1903"/>
  <g id="" transform="matrix(1 0 0 1 263 1933)">
   <path d="M9.24805 0.830078C13.5547 0.830078 17.1387-2.74414 17.1387-7.05078C17.1387-11.3574 13.5449-14.9316 9.23828-14.9316C4.94141-14.9316 1.36719-11.3574 1.36719-7.05078C1.36719-2.74414 4.95117 0.830078 9.24805 0.830078ZM9.24805-0.654297C5.70312-0.654297 2.87109-3.49609 2.87109-7.05078C2.87109-10.6055 5.69336-13.4473 9.23828-13.4473C12.793-13.4473 15.6348-10.6055 15.6445-7.05078C15.6543-3.49609 12.8027-0.654297 9.24805-0.654297ZM6.39648-6.31836L8.50586-6.31836L8.50586-4.19922C8.50586-3.75977 8.79883-3.45703 9.22852-3.45703C9.67773-3.45703 9.9707-3.75977 9.9707-4.19922L9.9707-6.31836L12.0996-6.31836C12.5391-6.31836 12.8418-6.61133 12.8418-7.04102C12.8418-7.48047 12.5391-7.7832 12.0996-7.7832L9.9707-7.7832L9.9707-9.89258C9.9707-10.3418 9.67773-10.6445 9.22852-10.6445C8.79883-10.6445 8.50586-10.3418 8.50586-9.89258L8.50586-7.7832L6.39648-7.7832C5.94727-7.7832 5.64453-7.48047 5.64453-7.04102C5.64453-6.61133 5.94727-6.31836 6.39648-6.31836Z"/>
  </g>
  <g id="" transform="matrix(1 0 0 1 281.506 1933)">
   <path d="M11.709 2.91016C17.1582 2.91016 21.6699-1.61133 21.6699-7.05078C21.6699-12.5 17.1484-17.0117 11.6992-17.0117C6.25977-17.0117 1.74805-12.5 1.74805-7.05078C1.74805-1.61133 6.26953 2.91016 11.709 2.91016ZM11.709 1.25C7.09961 1.25 3.41797-2.44141 3.41797-7.05078C3.41797-11.6602 7.08984-15.3516 11.6992-15.3516C16.3086-15.3516 20-11.6602 20.0098-7.05078C20.0195-2.44141 16.3184 1.25 11.709 1.25ZM7.98828-6.23047L10.8789-6.23047L10.8789-3.32031C10.8789-2.83203 11.2109-2.5 11.6895-2.5C12.1777-2.5 12.5195-2.83203 12.5195-3.32031L12.5195-6.23047L15.4297-6.23047C15.918-6.23047 16.25-6.5625 16.25-7.04102C16.25-7.5293 15.918-7.87109 15.4297-7.87109L12.5195-7.87109L12.5195-10.7617C12.5195-11.2695 12.1777-11.6016 11.6895-11.6016C11.2109-11.6016 10.8789-11.2598 10.8789-10.7617L10.8789-7.87109L7.98828-7.87109C7.48047-7.87109 7.14844-7.5293 7.14844-7.04102C7.14844-6.5625 7.49023-6.23047 7.98828-6.23047Z"/>
  </g>
  <g id="" transform="matrix(1 0 0 1 304.924 1933)">
   <path d="M14.9707 5.66406C21.9336 5.66406 27.6953-0.0976562 27.6953-7.05078C27.6953-14.0137 21.9238-19.7754 14.9609-19.7754C8.00781-19.7754 2.25586-14.0137 2.25586-7.05078C2.25586-0.0976562 8.01758 5.66406 14.9707 5.66406ZM14.9707 3.84766C8.93555 3.84766 4.08203-1.01562 4.08203-7.05078C4.08203-13.0957 8.92578-17.9492 14.9609-17.9492C21.0059-17.9492 25.8594-13.0957 25.8691-7.05078C25.8789-1.01562 21.0156 3.84766 14.9707 3.84766ZM10.0586-6.14258L14.0625-6.14258L14.0625-2.12891C14.0625-1.5918 14.4336-1.2207 14.9512-1.2207C15.4883-1.2207 15.8594-1.5918 15.8594-2.12891L15.8594-6.14258L19.8828-6.14258C20.4102-6.14258 20.791-6.51367 20.791-7.03125C20.791-7.56836 20.4199-7.94922 19.8828-7.94922L15.8594-7.94922L15.8594-11.9531C15.8594-12.5098 15.4883-12.8809 14.9512-12.8809C14.4336-12.8809 14.0625-12.5 14.0625-11.9531L14.0625-7.94922L10.0586-7.94922C9.50195-7.94922 9.13086-7.56836 9.13086-7.03125C9.13086-6.51367 9.51172-6.14258 10.0586-6.14258Z"/>
  </g>
  <text style="stroke:none;fill:black;font-family:-apple-system,&quot;SF Pro Display&quot;,&quot;SF Pro Text&quot;,Helvetica,sans-serif;font-weight:bold;" transform="matrix(1 0 0 1 263 1953)">Design Variations</text>
  <text style="stroke:none;fill:black;font-family:-apple-system,&quot;SF Pro Display&quot;,&quot;SF Pro Text&quot;,Helvetica,sans-serif;" transform="matrix(1 0 0 1 263 1971)">Symbols are supported in up to nine weights and three scales.</text>
  <text style="stroke:none;fill:black;font-family:-apple-system,&quot;SF Pro Display&quot;,&quot;SF Pro Text&quot;,Helvetica,sans-serif;" transform="matrix(1 0 0 1 263 1989)">For optimal layout with text and other symbols, vertically align</text>
  <text style="stroke:none;fill:black;font-family:-apple-system,&quot;SF Pro Display&quot;,&quot;SF Pro Text&quot;,Helvetica,sans-serif;" transform="matrix(1 0 0 1 263 2007)">symbols with the adjacent text.</text>
  <line id="" style="fill:none;stroke:#00AEEF;stroke-width:0.5;opacity:1.0;" x1="776" x2="776" y1="1919" y2="1933"/>
  <g id="" transform="matrix(1 0 0 1 776 1933)">
   <path d="M3.31055 0.126953C3.82812 0.126953 4.08203-0.0683594 4.26758-0.605469L5.52734-4.0625L11.2891-4.0625L12.5488-0.605469C12.7344-0.0683594 12.9883 0.126953 13.4961 0.126953C14.0137 0.126953 14.3457-0.185547 14.3457-0.673828C14.3457-0.839844 14.3164-0.986328 14.2383-1.20117L9.6582-13.3887C9.43359-13.9941 9.0332-14.2871 8.4082-14.2871C7.80273-14.2871 7.39258-13.9941 7.17773-13.3984L2.59766-1.19141C2.51953-0.976562 2.49023-0.830078 2.49023-0.664062C2.49023-0.175781 2.80273 0.126953 3.31055 0.126953ZM6.00586-5.53711L8.37891-12.1094L8.42773-12.1094L10.8008-5.53711Z"/>
  </g>
  <line id="" style="fill:none;stroke:#00AEEF;stroke-width:0.5;opacity:1.0;" x1="792.836" x2="792.836" y1="1919" y2="1933"/>
  <text style="stroke:none;fill:black;font-family:-apple-system,&quot;SF Pro Display&quot;,&quot;SF Pro Text&quot;,Helvetica,sans-serif;font-weight:bold;" transform="matrix(1 0 0 1 776 1953)">Margins</text>
  <text style="stroke:none;fill:black;font-family:-apple-system,&quot;SF Pro Display&quot;,&quot;SF Pro Text&quot;,Helvetica,sans-serif;" transform="matrix(1 0 0 1 776 1971)">Leading and trailing margins on the left and right side of each symbol</text>
  <text style="stroke:none;fill:black;font-family:-apple-system,&quot;SF Pro Display&quot;,&quot;SF Pro Text&quot;,Helvetica,sans-serif;" transform="matrix(1 0 0 1 776 1989)">can be adjusted by modifying the x-location of the margin guidelines.</text>
  <text style="stroke:none;fill:black;font-family:-apple-system,&quot;SF Pro Display&quot;,&quot;SF Pro Text&quot;,Helvetica,sans-serif;" transform="matrix(1 0 0 1 776 2007)">Modifications are automatically applied proportionally to all</text>
  <text style="stroke:none;fill:black;font-family:-apple-system,&quot;SF Pro Display&quot;,&quot;SF Pro Text&quot;,Helvetica,sans-serif;" transform="matrix(1 0 0 1 776 2025)">scales and weights.</text>
  <g id="" transform="matrix(1 0 0 1 1289 1933)">
   <path d="M2.8418 1.86523L4.54102 3.57422C5.40039 4.44336 6.38672 4.38477 7.31445 3.35938L17.4902-7.85156C17.7539-7.76367 18.0273-7.7832 18.3398-7.8418L19.4043-8.03711L20.0684-7.36328L20.0293-6.80664C19.9902-6.30859 20.1172-5.92773 20.6055-5.44922L21.3672-4.70703C21.8457-4.22852 22.4609-4.19922 22.9297-4.66797L25.8398-7.58789C26.3086-8.05664 26.2891-8.65234 25.8105-9.13086L25.0391-9.89258C24.5605-10.3711 24.1895-10.5273 23.7109-10.4883L23.1348-10.4395L22.4902-11.0742L22.7344-12.1973C22.8613-12.7637 22.7051-13.2031 22.1191-13.7891L19.9219-15.9766C16.582-19.2969 12.1484-19.2188 9.25781-16.3281C8.83789-15.918 8.80859-15.3418 9.04297-14.9512C9.27734-14.5898 9.73633-14.3555 10.3809-14.5215C11.8457-14.8633 13.3691-14.9219 14.7949-13.9844L14.209-12.5293C14.0137-12.0508 13.9844-11.6504 14.1113-11.2891L3.04688-0.898438C2.06055 0.0195312 1.98242 0.996094 2.8418 1.86523ZM10.752-15.957C13.1836-17.7344 16.4746-17.4316 18.7012-15.2051L21.1328-12.793C21.3672-12.5586 21.4062-12.373 21.3379-12.0312L21.0156-10.5469L22.5195-9.0625L23.5059-9.12109C23.7598-9.13086 23.8379-9.11133 24.0332-8.91602L24.6094-8.33984L22.168-5.89844L21.5918-6.47461C21.3965-6.66992 21.3672-6.74805 21.377-7.01172L21.4453-7.98828L19.9512-9.47266L18.4277-9.21875C18.1055-9.15039 17.959-9.17969 17.7148-9.41406L15.7129-11.416C15.459-11.6504 15.4297-11.8164 15.5859-12.1875L16.4648-14.2773C14.9023-15.7324 12.8711-16.3574 10.8398-15.7617C10.6836-15.7227 10.625-15.8496 10.752-15.957ZM5.27344 2.30469L4.10156 1.14258C3.63281 0.683594 3.74023 0.341797 4.14062-0.0195312L14.9512-10.1953L16.416-8.71094L6.42578 2.27539C6.07422 2.67578 5.74219 2.77344 5.27344 2.30469Z"/>
  </g>
  <text style="stroke:none;fill:black;font-family:-apple-system,&quot;SF Pro Display&quot;,&quot;SF Pro Text&quot;,Helvetica,sans-serif;font-weight:bold;" transform="matrix(1 0 0 1 1289 1953)">Exporting</text>
  <text style="stroke:none;fill:black;font-family:-apple-system,&quot;SF Pro Display&quot;,&quot;SF Pro Text&quot;,Helvetica,sans-serif;" transform="matrix(1 0 0 1 1289 1971)">Symbols should be outlined when exporting to ensure the</text>
  <text style="stroke:none;fill:black;font-family:-apple-system,&quot;SF Pro Display&quot;,&quot;SF Pro Text&quot;,Helvetica,sans-serif;" transform="matrix(1 0 0 1 1289 1989)">design is preserved when submitting to Xcode.</text>
  <text id="template-version" style="stroke:none;fill:black;font-family:-apple-system,&quot;SF Pro Display&quot;,&quot;SF Pro Text&quot;,Helvetica,sans-serif;text-anchor:end;" transform="matrix(1 0 0 1 3036 1933)">Template v.2.0</text>
  <text style="stroke:none;fill:black;font-family:-apple-system,&quot;SF Pro Display&quot;,&quot;SF Pro Text&quot;,Helvetica,sans-serif;text-anchor:end;" transform="matrix(1 0 0 1 3036 1951)">Requires Xcode 12 or greater</text>
  <text style="stroke:none;fill:black;font-family:-apple-system,&quot;SF Pro Display&quot;,&quot;SF Pro Text&quot;,Helvetica,sans-serif;" transform="matrix(1 0 0 1 263 726)">Small</text>
  <text style="stroke:none;fill:black;font-family:-apple-system,&quot;SF Pro Display&quot;,&quot;SF Pro Text&quot;,Helvetica,sans-serif;" transform="matrix(1 0 0 1 263 1156)">Medium</text>
  <text style="stroke:none;fill:black;font-family:-apple-system,&quot;SF Pro Display&quot;,&quot;SF Pro Text&quot;,Helvetica,sans-serif;" transform="matrix(1 0 0 1 263 1586)">Large</text>
 </g>
 <g id="Guides">
  <g id="H-reference" style="fill:#27AAE1;stroke:none;" transform="matrix(1 0 0 1 339 696)">
   <path d="M0.976562 0L3.66211 0L12.9883-24.4629L45.752-24.4629L55.127 0L57.7637 0L30.6152-70.459L28.125-70.459ZM29.3457-67.1387L29.4434-67.1387L44.873-26.709L13.8672-26.709Z"/>
  </g>
  <line id="Baseline-S" style="fill:none;stroke:#27AAE1;opacity:1;stroke-width:0.5;" x1="263" x2="3036" y1="696" y2="696"/>
  <line id="Capline-S" style="fill:none;stroke:#27AAE1;opacity:1;stroke-width:0.5;" x1="263" x2="3036" y1="625.541" y2="625.541"/>
  <g id="H-reference" style="fill:#27AAE1;stroke:none;" transform="matrix(1 0 0 1 339 1126)">
   <path d="M0.976562 0L3.66211 0L12.9883-24.4629L45.752-24.4629L55.127 0L57.7637 0L30.6152-70.459L28.125-70.459ZM29.3457-67.1387L29.4434-67.1387L44.873-26.709L13.8672-26.709Z"/>
  </g>
  <line id="Baseline-M" style="fill:none;stroke:#27AAE1;opacity:1;stroke-width:0.5;" x1="263" x2="3036" y1="1126" y2="1126"/>
  <line id="Capline-M" style="fill:none;stroke:#27AAE1;opacity:1;stroke-width:0.5;" x1="263" x2="3036" y1="1055.54" y2="1055.54"/>
  <g id="H-reference" style="fill:#27AAE1;stroke:none;" transform="matrix(1 0 0 1 339 1556)">
   <path d="M0.976562 0L3.66211 0L12.9883-24.4629L45.752-24.4629L55.127 0L57.7637 0L30.6152-70.459L28.125-70.459ZM29.3457-67.1387L29.4434-67.1387L44.873-26.709L13.8672-26.709Z"/>
  </g>
  <line id="Baseline-L" style="fill:none;stroke:#27AAE1;opacity:1;stroke-width:0.5;" x1="263" x2="3036" y1="1556" y2="1556"/>
  <line id="Capline-L" style="fill:none;stroke:#27AAE1;opacity:1;stroke-width:0.5;" x1="263" x2="3036" y1="1485.54" y2="1485.54"/>
  <line id="left-margin" x1="1402.6741464649085" x2="1402.6741464649085" y1="1030.79" y2="1150.12" style="fill:none;stroke:#00AEEF;stroke-width:0.5;opacity:1.0;"/>
  <line id="right-margin" x1="1499.3517672861294" x2="1499.3517672861294" y1="1030.79" y2="1150.12" style="fill:none;stroke:#00AEEF;stroke-width:0.5;opacity:1.0;"/>
 </g>
 <g id="Symbols">
  <g id="Black-L" transform="matrix(1.0,0.0,0.0,1.0,2859.1871847098214,1444.3712904575893)">  <path stroke-linejoin="miter" stroke-miterlimit="4" stroke-linecap="butt" fill-rule="nonzero" fill-opacity="1" stroke="none" stroke-dasharray="none" stroke-width="1px" stroke-opacity="1" fill="#000000" d="M124.373,61.234C120.395,61.234,116.895,62.878,114.323,65.45C104.855,58.901,92.099,54.684,77.965,54.233L85.31,21.138L108.7,26.388C108.7,32.116,113.368,36.784,119.096,36.784C124.93,36.784,129.624,31.984,129.624,26.256C129.624,20.528,124.956,15.728,119.096,15.728C115.012,15.728,111.485,18.194,109.734,21.562L83.905,15.834C82.605,15.489,81.332,16.417,80.987,17.717L72.926,54.207C58.897,54.79,46.274,59.007,36.78,65.557C34.208,62.878,30.575,61.234,26.597,61.234C11.852,61.234,7.026,81.017,20.524,87.779C20.047,89.875,19.834,92.102,19.834,94.33C19.834,116.553,44.869,134.559,75.604,134.559C106.473,134.559,131.507,116.553,131.507,94.33C131.507,92.102,131.268,89.769,130.684,87.674C143.918,80.885,139.038,61.234,124.373,61.234ZM41.925,89.185C41.925,83.351,46.592,78.657,52.453,78.657C58.181,78.657,62.849,83.325,62.849,89.185C62.849,94.913,58.181,99.581,52.453,99.581C46.619,99.607,41.925,94.913,41.925,89.185ZM98.755,113.98C89.102,123.633,61.867,123.633,52.214,113.98C51.154,113.052,51.154,111.408,52.214,110.347C53.142,109.419,54.787,109.419,55.715,110.347C63.087,117.905,87.538,118.037,95.229,110.347C96.156,109.419,97.801,109.419,98.729,110.347C99.817,111.408,99.817,113.052,98.755,113.98ZM98.543,99.607C92.815,99.607,88.148,94.94,88.148,89.212C88.148,83.377,92.815,78.684,98.543,78.684C104.378,78.684,109.071,83.351,109.071,89.212C109.045,94.913,104.378,99.607,98.543,99.607ZM98.543,99.607"/>
</g>
  <g id="Heavy-L" transform="matrix(1.0,0.0,0.0,1.0,2562.4771847098214,1444.3712904575893)">  <path stroke-dasharray="none" fill-rule="nonzero" fill-opacity="1" stroke-linecap="butt" stroke-opacity="1" stroke-width="1px" fill="#000000" stroke-miterlimit="4" stroke-linejoin="miter" stroke="none" d="M124.373,61.234C120.395,61.234,116.895,62.878,114.323,65.45C104.855,58.901,92.099,54.684,77.965,54.233L85.31,21.138L108.7,26.388C108.7,32.116,113.368,36.784,119.096,36.784C124.93,36.784,129.624,31.984,129.624,26.256C129.624,20.528,124.956,15.728,119.096,15.728C115.012,15.728,111.485,18.194,109.734,21.562L83.905,15.834C82.605,15.489,81.332,16.417,80.987,17.717L72.926,54.207C58.897,54.79,46.274,59.007,36.78,65.557C34.208,62.878,30.575,61.234,26.597,61.234C11.852,61.234,7.026,81.017,20.524,87.779C20.047,89.875,19.834,92.102,19.834,94.33C19.834,116.553,44.869,134.559,75.604,134.559C106.473,134.559,131.507,116.553,131.507,94.33C131.507,92.102,131.268,89.769,130.684,87.674C143.918,80.885,139.038,61.234,124.373,61.234ZM41.925,89.185C41.925,83.351,46.592,78.657,52.453,78.657C58.181,78.657,62.849,83.325,62.849,89.185C62.849,94.913,58.181,99.581,52.453,99.581C46.619,99.607,41.925,94.913,41.925,89.185ZM98.755,113.98C89.102,123.633,61.867,123.633,52.214,113.98C51.154,113.052,51.154,111.408,52.214,110.347C53.142,109.419,54.787,109.419,55.715,110.347C63.087,117.905,87.538,118.037,95.229,110.347C96.156,109.419,97.801,109.419,98.729,110.347C99.817,111.408,99.817,113.052,98.755,113.98ZM98.543,99.607C92.815,99.607,88.148,94.94,88.148,89.212C88.148,83.377,92.815,78.684,98.543,78.684C104.378,78.684,109.071,83.351,109.071,89.212C109.045,94.913,104.378,99.607,98.543,99.607ZM98.543,99.607"/>
</g>
  <g id="Bold-L" transform="matrix(1.0,0.0,0.0,1.0,2265.7671847098213,1444.3712904575893)">  <path stroke-miterlimit="4" fill-rule="nonzero" stroke-linejoin="miter" stroke-opacity="1" stroke-linecap="butt" stroke-width="1px" fill="#000000" fill-opacity="1" stroke-dasharray="none" stroke="none" d="M124.373,61.234C120.395,61.234,116.895,62.878,114.323,65.45C104.855,58.901,92.099,54.684,77.965,54.233L85.31,21.138L108.7,26.388C108.7,32.116,113.368,36.784,119.096,36.784C124.93,36.784,129.624,31.984,129.624,26.256C129.624,20.528,124.956,15.728,119.096,15.728C115.012,15.728,111.485,18.194,109.734,21.562L83.905,15.834C82.605,15.489,81.332,16.417,80.987,17.717L72.926,54.207C58.897,54.79,46.274,59.007,36.78,65.557C34.208,62.878,30.575,61.234,26.597,61.234C11.852,61.234,7.026,81.017,20.524,87.779C20.047,89.875,19.834,92.102,19.834,94.33C19.834,116.553,44.869,134.559,75.604,134.559C106.473,134.559,131.507,116.553,131.507,94.33C131.507,92.102,131.268,89.769,130.684,87.674C143.918,80.885,139.038,61.234,124.373,61.234ZM41.925,89.185C41.925,83.351,46.592,78.657,52.453,78.657C58.181,78.657,62.849,83.325,62.849,89.185C62.849,94.913,58.181,99.581,52.453,99.581C46.619,99.607,41.925,94.913,41.925,89.185ZM98.755,113.98C89.102,123.633,61.867,123.633,52.214,113.98C51.154,113.052,51.154,111.408,52.214,110.347C53.142,109.419,54.787,109.419,55.715,110.347C63.087,117.905,87.538,118.037,95.229,110.347C96.156,109.419,97.801,109.419,98.729,110.347C99.817,111.408,99.817,113.052,98.755,113.98ZM98.543,99.607C92.815,99.607,88.148,94.94,88.148,89.212C88.148,83.377,92.815,78.684,98.543,78.684C104.378,78.684,109.071,83.351,109.071,89.212C109.045,94.913,104.378,99.607,98.543,99.607ZM98.543,99.607"/>
</g>
  <g id="Semibold-L" transform="matrix(1.0,0.0,0.0,1.0,1969.0571847098213,1444.3712904575893)">  <path fill="#000000" fill-rule="nonzero" stroke-linecap="butt" stroke-miterlimit="4" stroke-dasharray="none" stroke="none" stroke-width="1px" stroke-linejoin="miter" fill-opacity="1" stroke-opacity="1" d="M124.373,61.234C120.395,61.234,116.895,62.878,114.323,65.45C104.855,58.901,92.099,54.684,77.965,54.233L85.31,21.138L108.7,26.388C108.7,32.116,113.368,36.784,119.096,36.784C124.93,36.784,129.624,31.984,129.624,26.256C129.624,20.528,124.956,15.728,119.096,15.728C115.012,15.728,111.485,18.194,109.734,21.562L83.905,15.834C82.605,15.489,81.332,16.417,80.987,17.717L72.926,54.207C58.897,54.79,46.274,59.007,36.78,65.557C34.208,62.878,30.575,61.234,26.597,61.234C11.852,61.234,7.026,81.017,20.524,87.779C20.047,89.875,19.834,92.102,19.834,94.33C19.834,116.553,44.869,134.559,75.604,134.559C106.473,134.559,131.507,116.553,131.507,94.33C131.507,92.102,131.268,89.769,130.684,87.674C143.918,80.885,139.038,61.234,124.373,61.234ZM41.925,89.185C41.925,83.351,46.592,78.657,52.453,78.657C58.181,78.657,62.849,83.325,62.849,89.185C62.849,94.913,58.181,99.581,52.453,99.581C46.619,99.607,41.925,94.913,41.925,89.185ZM98.755,113.98C89.102,123.633,61.867,123.633,52.214,113.98C51.154,113.052,51.154,111.408,52.214,110.347C53.142,109.419,54.787,109.419,55.715,110.347C63.087,117.905,87.538,118.037,95.229,110.347C96.156,109.419,97.801,109.419,98.729,110.347C99.817,111.408,99.817,113.052,98.755,113.98ZM98.543,99.607C92.815,99.607,88.148,94.94,88.148,89.212C88.148,83.377,92.815,78.684,98.543,78.684C104.378,78.684,109.071,83.351,109.071,89.212C109.045,94.913,104.378,99.607,98.543,99.607ZM98.543,99.607"/>
</g>
  <g id="Medium-L" transform="matrix(1.0,0.0,0.0,1.0,1672.3471847098212,1444.3712904575893)">  <path stroke-opacity="1" stroke-linecap="butt" stroke-miterlimit="4" fill-opacity="1" stroke-dasharray="none" fill-rule="nonzero" stroke-width="1px" stroke="none" fill="#000000" stroke-linejoin="miter" d="M124.373,61.234C120.395,61.234,116.895,62.878,114.323,65.45C104.855,58.901,92.099,54.684,77.965,54.233L85.31,21.138L108.7,26.388C108.7,32.116,113.368,36.784,119.096,36.784C124.93,36.784,129.624,31.984,129.624,26.256C129.624,20.528,124.956,15.728,119.096,15.728C115.012,15.728,111.485,18.194,109.734,21.562L83.905,15.834C82.605,15.489,81.332,16.417,80.987,17.717L72.926,54.207C58.897,54.79,46.274,59.007,36.78,65.557C34.208,62.878,30.575,61.234,26.597,61.234C11.852,61.234,7.026,81.017,20.524,87.779C20.047,89.875,19.834,92.102,19.834,94.33C19.834,116.553,44.869,134.559,75.604,134.559C106.473,134.559,131.507,116.553,131.507,94.33C131.507,92.102,131.268,89.769,130.684,87.674C143.918,80.885,139.038,61.234,124.373,61.234ZM41.925,89.185C41.925,83.351,46.592,78.657,52.453,78.657C58.181,78.657,62.849,83.325,62.849,89.185C62.849,94.913,58.181,99.581,52.453,99.581C46.619,99.607,41.925,94.913,41.925,89.185ZM98.755,113.98C89.102,123.633,61.867,123.633,52.214,113.98C51.154,113.052,51.154,111.408,52.214,110.347C53.142,109.419,54.787,109.419,55.715,110.347C63.087,117.905,87.538,118.037,95.229,110.347C96.156,109.419,97.801,109.419,98.729,110.347C99.817,111.408,99.817,113.052,98.755,113.98ZM98.543,99.607C92.815,99.607,88.148,94.94,88.148,89.212C88.148,83.377,92.815,78.684,98.543,78.684C104.378,78.684,109.071,83.351,109.071,89.212C109.045,94.913,104.378,99.607,98.543,99.607ZM98.543,99.607"/>
</g>
  <g id="Regular-L" transform="matrix(1.0,0.0,0.0,1.0,1375.6371847098212,1444.3712904575893)">  <path fill="#000000" fill-opacity="1" stroke-dasharray="none" stroke-width="1px" stroke-linecap="butt" stroke="none" stroke-opacity="1" stroke-miterlimit="4" stroke-linejoin="miter" fill-rule="nonzero" d="M124.373,61.234C120.395,61.234,116.895,62.878,114.323,65.45C104.855,58.901,92.099,54.684,77.965,54.233L85.31,21.138L108.7,26.388C108.7,32.116,113.368,36.784,119.096,36.784C124.93,36.784,129.624,31.984,129.624,26.256C129.624,20.528,124.956,15.728,119.096,15.728C115.012,15.728,111.485,18.194,109.734,21.562L83.905,15.834C82.605,15.489,81.332,16.417,80.987,17.717L72.926,54.207C58.897,54.79,46.274,59.007,36.78,65.557C34.208,62.878,30.575,61.234,26.597,61.234C11.852,61.234,7.026,81.017,20.524,87.779C20.047,89.875,19.834,92.102,19.834,94.33C19.834,116.553,44.869,134.559,75.604,134.559C106.473,134.559,131.507,116.553,131.507,94.33C131.507,92.102,131.268,89.769,130.684,87.674C143.918,80.885,139.038,61.234,124.373,61.234ZM41.925,89.185C41.925,83.351,46.592,78.657,52.453,78.657C58.181,78.657,62.849,83.325,62.849,89.185C62.849,94.913,58.181,99.581,52.453,99.581C46.619,99.607,41.925,94.913,41.925,89.185ZM98.755,113.98C89.102,123.633,61.867,123.633,52.214,113.98C51.154,113.052,51.154,111.408,52.214,110.347C53.142,109.419,54.787,109.419,55.715,110.347C63.087,117.905,87.538,118.037,95.229,110.347C96.156,109.419,97.801,109.419,98.729,110.347C99.817,111.408,99.817,113.052,98.755,113.98ZM98.543,99.607C92.815,99.607,88.148,94.94,88.148,89.212C88.148,83.377,92.815,78.684,98.543,78.684C104.378,78.684,109.071,83.351,109.071,89.212C109.045,94.913,104.378,99.607,98.543,99.607ZM98.543,99.607"/>
</g>
  <g id="Light-L" transform="matrix(1.0,0.0,0.0,1.0,1078.9271847098214,1444.3712904575893)">  <path stroke-linejoin="miter" fill-rule="nonzero" stroke-linecap="butt" stroke="none" fill-opacity="1" stroke-miterlimit="4" stroke-dasharray="none" stroke-width="1px" stroke-opacity="1" fill="#000000" d="M124.373,61.234C120.395,61.234,116.895,62.878,114.323,65.45C104.855,58.901,92.099,54.684,77.965,54.233L85.31,21.138L108.7,26.388C108.7,32.116,113.368,36.784,119.096,36.784C124.93,36.784,129.624,31.984,129.624,26.256C129.624,20.528,124.956,15.728,119.096,15.728C115.012,15.728,111.485,18.194,109.734,21.562L83.905,15.834C82.605,15.489,81.332,16.417,80.987,17.717L72.926,54.207C58.897,54.79,46.274,59.007,36.78,65.557C34.208,62.878,30.575,61.234,26.597,61.234C11.852,61.234,7.026,81.017,20.524,87.779C20.047,89.875,19.834,92.102,19.834,94.33C19.834,116.553,44.869,134.559,75.604,134.559C106.473,134.559,131.507,116.553,131.507,94.33C131.507,92.102,131.268,89.769,130.684,87.674C143.918,80.885,139.038,61.234,124.373,61.234ZM41.925,89.185C41.925,83.351,46.592,78.657,52.453,78.657C58.181,78.657,62.849,83.325,62.849,89.185C62.849,94.913,58.181,99.581,52.453,99.581C46.619,99.607,41.925,94.913,41.925,89.185ZM98.755,113.98C89.102,123.633,61.867,123.633,52.214,113.98C51.154,113.052,51.154,111.408,52.214,110.347C53.142,109.419,54.787,109.419,55.715,110.347C63.087,117.905,87.538,118.037,95.229,110.347C96.156,109.419,97.801,109.419,98.729,110.347C99.817,111.408,99.817,113.052,98.755,113.98ZM98.543,99.607C92.815,99.607,88.148,94.94,88.148,89.212C88.148,83.377,92.815,78.684,98.543,78.684C104.378,78.684,109.071,83.351,109.071,89.212C109.045,94.913,104.378,99.607,98.543,99.607ZM98.543,99.607"/>
</g>
  <g id="Thin-L" transform="matrix(1.0,0.0,0.0,1.0,782.2171847098215,1444.3712904575893)">  <path stroke-miterlimit="4" stroke-linecap="butt" fill="#000000" stroke="none" fill-opacity="1" stroke-opacity="1" stroke-dasharray="none" fill-rule="nonzero" stroke-width="1px" stroke-linejoin="miter" d="M124.373,61.234C120.395,61.234,116.895,62.878,114.323,65.45C104.855,58.901,92.099,54.684,77.965,54.233L85.31,21.138L108.7,26.388C108.7,32.116,113.368,36.784,119.096,36.784C124.93,36.784,129.624,31.984,129.624,26.256C129.624,20.528,124.956,15.728,119.096,15.728C115.012,15.728,111.485,18.194,109.734,21.562L83.905,15.834C82.605,15.489,81.332,16.417,80.987,17.717L72.926,54.207C58.897,54.79,46.274,59.007,36.78,65.557C34.208,62.878,30.575,61.234,26.597,61.234C11.852,61.234,7.026,81.017,20.524,87.779C20.047,89.875,19.834,92.102,19.834,94.33C19.834,116.553,44.869,134.559,75.604,134.559C106.473,134.559,131.507,116.553,131.507,94.33C131.507,92.102,131.268,89.769,130.684,87.674C143.918,80.885,139.038,61.234,124.373,61.234ZM41.925,89.185C41.925,83.351,46.592,78.657,52.453,78.657C58.181,78.657,62.849,83.325,62.849,89.185C62.849,94.913,58.181,99.581,52.453,99.581C46.619,99.607,41.925,94.913,41.925,89.185ZM98.755,113.98C89.102,123.633,61.867,123.633,52.214,113.98C51.154,113.052,51.154,111.408,52.214,110.347C53.142,109.419,54.787,109.419,55.715,110.347C63.087,117.905,87.538,118.037,95.229,110.347C96.156,109.419,97.801,109.419,98.729,110.347C99.817,111.408,99.817,113.052,98.755,113.98ZM98.543,99.607C92.815,99.607,88.148,94.94,88.148,89.212C88.148,83.377,92.815,78.684,98.543,78.684C104.378,78.684,109.071,83.351,109.071,89.212C109.045,94.913,104.378,99.607,98.543,99.607ZM98.543,99.607"/>
</g>
  <g id="Ultralight-L" transform="matrix(1.0,0.0,0.0,1.0,485.50718470982144,1444.3712904575893)">  <path stroke-width="1px" stroke="none" fill-rule="nonzero" stroke-dasharray="none" stroke-miterlimit="4" stroke-linecap="butt" fill="#000000" stroke-opacity="1" fill-opacity="1" stroke-linejoin="miter" d="M124.373,61.234C120.395,61.234,116.895,62.878,114.323,65.45C104.855,58.901,92.099,54.684,77.965,54.233L85.31,21.138L108.7,26.388C108.7,32.116,113.368,36.784,119.096,36.784C124.93,36.784,129.624,31.984,129.624,26.256C129.624,20.528,124.956,15.728,119.096,15.728C115.012,15.728,111.485,18.194,109.734,21.562L83.905,15.834C82.605,15.489,81.332,16.417,80.987,17.717L72.926,54.207C58.897,54.79,46.274,59.007,36.78,65.557C34.208,62.878,30.575,61.234,26.597,61.234C11.852,61.234,7.026,81.017,20.524,87.779C20.047,89.875,19.834,92.102,19.834,94.33C19.834,116.553,44.869,134.559,75.604,134.559C106.473,134.559,131.507,116.553,131.507,94.33C131.507,92.102,131.268,89.769,130.684,87.674C143.918,80.885,139.038,61.234,124.373,61.234ZM41.925,89.185C41.925,83.351,46.592,78.657,52.453,78.657C58.181,78.657,62.849,83.325,62.849,89.185C62.849,94.913,58.181,99.581,52.453,99.581C46.619,99.607,41.925,94.913,41.925,89.185ZM98.755,113.98C89.102,123.633,61.867,123.633,52.214,113.98C51.154,113.052,51.154,111.408,52.214,110.347C53.142,109.419,54.787,109.419,55.715,110.347C63.087,117.905,87.538,118.037,95.229,110.347C96.156,109.419,97.801,109.419,98.729,110.347C99.817,111.408,99.817,113.052,98.755,113.98ZM98.543,99.607C92.815,99.607,88.148,94.94,88.148,89.212C88.148,83.377,92.815,78.684,98.543,78.684C104.378,78.684,109.071,83.351,109.071,89.212C109.045,94.913,104.378,99.607,98.543,99.607ZM98.543,99.607"/>
</g>
  <g id="Black-M" transform="matrix(1.0,0.0,0.0,1.0,2876.1584377595514,1031.546198543916)">  <path stroke-linejoin="miter" stroke-miterlimit="4" stroke-linecap="butt" fill-rule="nonzero" fill-opacity="1" stroke="none" stroke-dasharray="none" stroke-width="1px" stroke-opacity="1" fill="#000000" d="M96.413,47.468C93.33,47.468,90.616,48.743,88.622,50.737C81.283,45.659,71.395,42.391,60.438,42.041L66.132,16.386L84.264,20.456C84.264,24.896,87.882,28.514,92.322,28.514C96.845,28.514,100.483,24.794,100.483,20.353C100.483,15.913,96.865,12.192,92.322,12.192C89.157,12.192,86.422,14.104,85.065,16.715L65.042,12.274C64.035,12.007,63.048,12.726,62.781,13.734L56.532,42.021C45.657,42.473,35.871,45.742,28.512,50.819C26.518,48.743,23.701,47.468,20.618,47.468C9.188,47.468,5.446,62.804,15.91,68.046C15.54,69.67,15.376,71.397,15.376,73.124C15.376,90.351,34.782,104.309,58.608,104.309C82.537,104.309,101.943,90.351,101.943,73.124C101.943,71.397,101.758,69.588,101.306,67.964C111.564,62.701,107.782,47.468,96.413,47.468ZM32.5,69.136C32.5,64.613,36.118,60.975,40.661,60.975C45.102,60.975,48.72,64.593,48.72,69.136C48.72,73.576,45.102,77.194,40.661,77.194C36.139,77.215,32.5,73.576,32.5,69.136ZM76.554,88.357C69.072,95.84,47.959,95.84,40.476,88.357C39.654,87.638,39.654,86.363,40.476,85.54C41.196,84.821,42.47,84.821,43.19,85.54C48.905,91.399,67.859,91.502,73.821,85.54C74.54,84.821,75.815,84.821,76.534,85.54C77.377,86.363,77.377,87.638,76.554,88.357ZM76.39,77.215C71.95,77.215,68.332,73.597,68.332,69.156C68.332,64.634,71.95,60.995,76.39,60.995C80.913,60.995,84.551,64.613,84.551,69.156C84.531,73.576,80.913,77.215,76.39,77.215ZM76.39,77.215"/>
</g>
  <g id="Heavy-M" transform="matrix(1.0,0.0,0.0,1.0,2579.4484377595513,1031.546198543916)">  <path stroke-dasharray="none" fill-rule="nonzero" fill-opacity="1" stroke-linecap="butt" stroke-opacity="1" stroke-width="1px" fill="#000000" stroke-miterlimit="4" stroke-linejoin="miter" stroke="none" d="M96.413,47.468C93.33,47.468,90.616,48.743,88.622,50.737C81.283,45.659,71.395,42.391,60.438,42.041L66.132,16.386L84.264,20.456C84.264,24.896,87.882,28.514,92.322,28.514C96.845,28.514,100.483,24.794,100.483,20.353C100.483,15.913,96.865,12.192,92.322,12.192C89.157,12.192,86.422,14.104,85.065,16.715L65.042,12.274C64.035,12.007,63.048,12.726,62.781,13.734L56.532,42.021C45.657,42.473,35.871,45.742,28.512,50.819C26.518,48.743,23.701,47.468,20.618,47.468C9.188,47.468,5.446,62.804,15.91,68.046C15.54,69.67,15.376,71.397,15.376,73.124C15.376,90.351,34.782,104.309,58.608,104.309C82.537,104.309,101.943,90.351,101.943,73.124C101.943,71.397,101.758,69.588,101.306,67.964C111.564,62.701,107.782,47.468,96.413,47.468ZM32.5,69.136C32.5,64.613,36.118,60.975,40.661,60.975C45.102,60.975,48.72,64.593,48.72,69.136C48.72,73.576,45.102,77.194,40.661,77.194C36.139,77.215,32.5,73.576,32.5,69.136ZM76.554,88.357C69.072,95.84,47.959,95.84,40.476,88.357C39.654,87.638,39.654,86.363,40.476,85.54C41.196,84.821,42.47,84.821,43.19,85.54C48.905,91.399,67.859,91.502,73.821,85.54C74.54,84.821,75.815,84.821,76.534,85.54C77.377,86.363,77.377,87.638,76.554,88.357ZM76.39,77.215C71.95,77.215,68.332,73.597,68.332,69.156C68.332,64.634,71.95,60.995,76.39,60.995C80.913,60.995,84.551,64.613,84.551,69.156C84.531,73.576,80.913,77.215,76.39,77.215ZM76.39,77.215"/>
</g>
  <g id="Bold-M" transform="matrix(1.0,0.0,0.0,1.0,2282.7384377595513,1031.546198543916)">  <path stroke-miterlimit="4" fill-rule="nonzero" stroke-linejoin="miter" stroke-opacity="1" stroke-linecap="butt" stroke-width="1px" fill="#000000" fill-opacity="1" stroke-dasharray="none" stroke="none" d="M96.413,47.468C93.33,47.468,90.616,48.743,88.622,50.737C81.283,45.659,71.395,42.391,60.438,42.041L66.132,16.386L84.264,20.456C84.264,24.896,87.882,28.514,92.322,28.514C96.845,28.514,100.483,24.794,100.483,20.353C100.483,15.913,96.865,12.192,92.322,12.192C89.157,12.192,86.422,14.104,85.065,16.715L65.042,12.274C64.035,12.007,63.048,12.726,62.781,13.734L56.532,42.021C45.657,42.473,35.871,45.742,28.512,50.819C26.518,48.743,23.701,47.468,20.618,47.468C9.188,47.468,5.446,62.804,15.91,68.046C15.54,69.67,15.376,71.397,15.376,73.124C15.376,90.351,34.782,104.309,58.608,104.309C82.537,104.309,101.943,90.351,101.943,73.124C101.943,71.397,101.758,69.588,101.306,67.964C111.564,62.701,107.782,47.468,96.413,47.468ZM32.5,69.136C32.5,64.613,36.118,60.975,40.661,60.975C45.102,60.975,48.72,64.593,48.72,69.136C48.72,73.576,45.102,77.194,40.661,77.194C36.139,77.215,32.5,73.576,32.5,69.136ZM76.554,88.357C69.072,95.84,47.959,95.84,40.476,88.357C39.654,87.638,39.654,86.363,40.476,85.54C41.196,84.821,42.47,84.821,43.19,85.54C48.905,91.399,67.859,91.502,73.821,85.54C74.54,84.821,75.815,84.821,76.534,85.54C77.377,86.363,77.377,87.638,76.554,88.357ZM76.39,77.215C71.95,77.215,68.332,73.597,68.332,69.156C68.332,64.634,71.95,60.995,76.39,60.995C80.913,60.995,84.551,64.613,84.551,69.156C84.531,73.576,80.913,77.215,76.39,77.215ZM76.39,77.215"/>
</g>
  <g id="Semibold-M" transform="matrix(1.0,0.0,0.0,1.0,1986.0284377595515,1031.546198543916)">  <path fill="#000000" fill-rule="nonzero" stroke-linecap="butt" stroke-miterlimit="4" stroke-dasharray="none" stroke="none" stroke-width="1px" stroke-linejoin="miter" fill-opacity="1" stroke-opacity="1" d="M96.413,47.468C93.33,47.468,90.616,48.743,88.622,50.737C81.283,45.659,71.395,42.391,60.438,42.041L66.132,16.386L84.264,20.456C84.264,24.896,87.882,28.514,92.322,28.514C96.845,28.514,100.483,24.794,100.483,20.353C100.483,15.913,96.865,12.192,92.322,12.192C89.157,12.192,86.422,14.104,85.065,16.715L65.042,12.274C64.035,12.007,63.048,12.726,62.781,13.734L56.532,42.021C45.657,42.473,35.871,45.742,28.512,50.819C26.518,48.743,23.701,47.468,20.618,47.468C9.188,47.468,5.446,62.804,15.91,68.046C15.54,69.67,15.376,71.397,15.376,73.124C15.376,90.351,34.782,104.309,58.608,104.309C82.537,104.309,101.943,90.351,101.943,73.124C101.943,71.397,101.758,69.588,101.306,67.964C111.564,62.701,107.782,47.468,96.413,47.468ZM32.5,69.136C32.5,64.613,36.118,60.975,40.661,60.975C45.102,60.975,48.72,64.593,48.72,69.136C48.72,73.576,45.102,77.194,40.661,77.194C36.139,77.215,32.5,73.576,32.5,69.136ZM76.554,88.357C69.072,95.84,47.959,95.84,40.476,88.357C39.654,87.638,39.654,86.363,40.476,85.54C41.196,84.821,42.47,84.821,43.19,85.54C48.905,91.399,67.859,91.502,73.821,85.54C74.54,84.821,75.815,84.821,76.534,85.54C77.377,86.363,77.377,87.638,76.554,88.357ZM76.39,77.215C71.95,77.215,68.332,73.597,68.332,69.156C68.332,64.634,71.95,60.995,76.39,60.995C80.913,60.995,84.551,64.613,84.551,69.156C84.531,73.576,80.913,77.215,76.39,77.215ZM76.39,77.215"/>
</g>
  <g id="Medium-M" transform="matrix(1.0,0.0,0.0,1.0,1689.3184377595514,1031.546198543916)">  <path stroke-opacity="1" stroke-linecap="butt" stroke-miterlimit="4" fill-opacity="1" stroke-dasharray="none" fill-rule="nonzero" stroke-width="1px" stroke="none" fill="#000000" stroke-linejoin="miter" d="M96.413,47.468C93.33,47.468,90.616,48.743,88.622,50.737C81.283,45.659,71.395,42.391,60.438,42.041L66.132,16.386L84.264,20.456C84.264,24.896,87.882,28.514,92.322,28.514C96.845,28.514,100.483,24.794,100.483,20.353C100.483,15.913,96.865,12.192,92.322,12.192C89.157,12.192,86.422,14.104,85.065,16.715L65.042,12.274C64.035,12.007,63.048,12.726,62.781,13.734L56.532,42.021C45.657,42.473,35.871,45.742,28.512,50.819C26.518,48.743,23.701,47.468,20.618,47.468C9.188,47.468,5.446,62.804,15.91,68.046C15.54,69.67,15.376,71.397,15.376,73.124C15.376,90.351,34.782,104.309,58.608,104.309C82.537,104.309,101.943,90.351,101.943,73.124C101.943,71.397,101.758,69.588,101.306,67.964C111.564,62.701,107.782,47.468,96.413,47.468ZM32.5,69.136C32.5,64.613,36.118,60.975,40.661,60.975C45.102,60.975,48.72,64.593,48.72,69.136C48.72,73.576,45.102,77.194,40.661,77.194C36.139,77.215,32.5,73.576,32.5,69.136ZM76.554,88.357C69.072,95.84,47.959,95.84,40.476,88.357C39.654,87.638,39.654,86.363,40.476,85.54C41.196,84.821,42.47,84.821,43.19,85.54C48.905,91.399,67.859,91.502,73.821,85.54C74.54,84.821,75.815,84.821,76.534,85.54C77.377,86.363,77.377,87.638,76.554,88.357ZM76.39,77.215C71.95,77.215,68.332,73.597,68.332,69.156C68.332,64.634,71.95,60.995,76.39,60.995C80.913,60.995,84.551,64.613,84.551,69.156C84.531,73.576,80.913,77.215,76.39,77.215ZM76.39,77.215"/>
</g>
  <g id="Regular-M" transform="matrix(1.0,0.0,0.0,1.0,1392.6084377595514,1031.546198543916)">  <path fill="#000000" fill-opacity="1" stroke-dasharray="none" stroke-width="1px" stroke-linecap="butt" stroke="none" stroke-opacity="1" stroke-miterlimit="4" stroke-linejoin="miter" fill-rule="nonzero" d="M96.413,47.468C93.33,47.468,90.616,48.743,88.622,50.737C81.283,45.659,71.395,42.391,60.438,42.041L66.132,16.386L84.264,20.456C84.264,24.896,87.882,28.514,92.322,28.514C96.845,28.514,100.483,24.794,100.483,20.353C100.483,15.913,96.865,12.192,92.322,12.192C89.157,12.192,86.422,14.104,85.065,16.715L65.042,12.274C64.035,12.007,63.048,12.726,62.781,13.734L56.532,42.021C45.657,42.473,35.871,45.742,28.512,50.819C26.518,48.743,23.701,47.468,20.618,47.468C9.188,47.468,5.446,62.804,15.91,68.046C15.54,69.67,15.376,71.397,15.376,73.124C15.376,90.351,34.782,104.309,58.608,104.309C82.537,104.309,101.943,90.351,101.943,73.124C101.943,71.397,101.758,69.588,101.306,67.964C111.564,62.701,107.782,47.468,96.413,47.468ZM32.5,69.136C32.5,64.613,36.118,60.975,40.661,60.975C45.102,60.975,48.72,64.593,48.72,69.136C48.72,73.576,45.102,77.194,40.661,77.194C36.139,77.215,32.5,73.576,32.5,69.136ZM76.554,88.357C69.072,95.84,47.959,95.84,40.476,88.357C39.654,87.638,39.654,86.363,40.476,85.54C41.196,84.821,42.47,84.821,43.19,85.54C48.905,91.399,67.859,91.502,73.821,85.54C74.54,84.821,75.815,84.821,76.534,85.54C77.377,86.363,77.377,87.638,76.554,88.357ZM76.39,77.215C71.95,77.215,68.332,73.597,68.332,69.156C68.332,64.634,71.95,60.995,76.39,60.995C80.913,60.995,84.551,64.613,84.551,69.156C84.531,73.576,80.913,77.215,76.39,77.215ZM76.39,77.215"/>
</g>
  <g id="Light-M" transform="matrix(1.0,0.0,0.0,1.0,1095.8984377595516,1031.546198543916)">  <path stroke-linejoin="miter" fill-rule="nonzero" stroke-linecap="butt" stroke="none" fill-opacity="1" stroke-miterlimit="4" stroke-dasharray="none" stroke-width="1px" stroke-opacity="1" fill="#000000" d="M96.413,47.468C93.33,47.468,90.616,48.743,88.622,50.737C81.283,45.659,71.395,42.391,60.438,42.041L66.132,16.386L84.264,20.456C84.264,24.896,87.882,28.514,92.322,28.514C96.845,28.514,100.483,24.794,100.483,20.353C100.483,15.913,96.865,12.192,92.322,12.192C89.157,12.192,86.422,14.104,85.065,16.715L65.042,12.274C64.035,12.007,63.048,12.726,62.781,13.734L56.532,42.021C45.657,42.473,35.871,45.742,28.512,50.819C26.518,48.743,23.701,47.468,20.618,47.468C9.188,47.468,5.446,62.804,15.91,68.046C15.54,69.67,15.376,71.397,15.376,73.124C15.376,90.351,34.782,104.309,58.608,104.309C82.537,104.309,101.943,90.351,101.943,73.124C101.943,71.397,101.758,69.588,101.306,67.964C111.564,62.701,107.782,47.468,96.413,47.468ZM32.5,69.136C32.5,64.613,36.118,60.975,40.661,60.975C45.102,60.975,48.72,64.593,48.72,69.136C48.72,73.576,45.102,77.194,40.661,77.194C36.139,77.215,32.5,73.576,32.5,69.136ZM76.554,88.357C69.072,95.84,47.959,95.84,40.476,88.357C39.654,87.638,39.654,86.363,40.476,85.54C41.196,84.821,42.47,84.821,43.19,85.54C48.905,91.399,67.859,91.502,73.821,85.54C74.54,84.821,75.815,84.821,76.534,85.54C77.377,86.363,77.377,87.638,76.554,88.357ZM76.39,77.215C71.95,77.215,68.332,73.597,68.332,69.156C68.332,64.634,71.95,60.995,76.39,60.995C80.913,60.995,84.551,64.613,84.551,69.156C84.531,73.576,80.913,77.215,76.39,77.215ZM76.39,77.215"/>
</g>
  <g id="Thin-M" transform="matrix(1.0,0.0,0.0,1.0,799.1884377595516,1031.546198543916)">  <path stroke-miterlimit="4" stroke-linecap="butt" fill="#000000" stroke="none" fill-opacity="1" stroke-opacity="1" stroke-dasharray="none" fill-rule="nonzero" stroke-width="1px" stroke-linejoin="miter" d="M96.413,47.468C93.33,47.468,90.616,48.743,88.622,50.737C81.283,45.659,71.395,42.391,60.438,42.041L66.132,16.386L84.264,20.456C84.264,24.896,87.882,28.514,92.322,28.514C96.845,28.514,100.483,24.794,100.483,20.353C100.483,15.913,96.865,12.192,92.322,12.192C89.157,12.192,86.422,14.104,85.065,16.715L65.042,12.274C64.035,12.007,63.048,12.726,62.781,13.734L56.532,42.021C45.657,42.473,35.871,45.742,28.512,50.819C26.518,48.743,23.701,47.468,20.618,47.468C9.188,47.468,5.446,62.804,15.91,68.046C15.54,69.67,15.376,71.397,15.376,73.124C15.376,90.351,34.782,104.309,58.608,104.309C82.537,104.309,101.943,90.351,101.943,73.124C101.943,71.397,101.758,69.588,101.306,67.964C111.564,62.701,107.782,47.468,96.413,47.468ZM32.5,69.136C32.5,64.613,36.118,60.975,40.661,60.975C45.102,60.975,48.72,64.593,48.72,69.136C48.72,73.576,45.102,77.194,40.661,77.194C36.139,77.215,32.5,73.576,32.5,69.136ZM76.554,88.357C69.072,95.84,47.959,95.84,40.476,88.357C39.654,87.638,39.654,86.363,40.476,85.54C41.196,84.821,42.47,84.821,43.19,85.54C48.905,91.399,67.859,91.502,73.821,85.54C74.54,84.821,75.815,84.821,76.534,85.54C77.377,86.363,77.377,87.638,76.554,88.357ZM76.39,77.215C71.95,77.215,68.332,73.597,68.332,69.156C68.332,64.634,71.95,60.995,76.39,60.995C80.913,60.995,84.551,64.613,84.551,69.156C84.531,73.576,80.913,77.215,76.39,77.215ZM76.39,77.215"/>
</g>
  <g id="Ultralight-M" transform="matrix(1.0,0.0,0.0,1.0,502.4784377595515,1031.546198543916)">  <path stroke-width="1px" stroke="none" fill-rule="nonzero" stroke-dasharray="none" stroke-miterlimit="4" stroke-linecap="butt" fill="#000000" stroke-opacity="1" fill-opacity="1" stroke-linejoin="miter" d="M96.413,47.468C93.33,47.468,90.616,48.743,88.622,50.737C81.283,45.659,71.395,42.391,60.438,42.041L66.132,16.386L84.264,20.456C84.264,24.896,87.882,28.514,92.322,28.514C96.845,28.514,100.483,24.794,100.483,20.353C100.483,15.913,96.865,12.192,92.322,12.192C89.157,12.192,86.422,14.104,85.065,16.715L65.042,12.274C64.035,12.007,63.048,12.726,62.781,13.734L56.532,42.021C45.657,42.473,35.871,45.742,28.512,50.819C26.518,48.743,23.701,47.468,20.618,47.468C9.188,47.468,5.446,62.804,15.91,68.046C15.54,69.67,15.376,71.397,15.376,73.124C15.376,90.351,34.782,104.309,58.608,104.309C82.537,104.309,101.943,90.351,101.943,73.124C101.943,71.397,101.758,69.588,101.306,67.964C111.564,62.701,107.782,47.468,96.413,47.468ZM32.5,69.136C32.5,64.613,36.118,60.975,40.661,60.975C45.102,60.975,48.72,64.593,48.72,69.136C48.72,73.576,45.102,77.194,40.661,77.194C36.139,77.215,32.5,73.576,32.5,69.136ZM76.554,88.357C69.072,95.84,47.959,95.84,40.476,88.357C39.654,87.638,39.654,86.363,40.476,85.54C41.196,84.821,42.47,84.821,43.19,85.54C48.905,91.399,67.859,91.502,73.821,85.54C74.54,84.821,75.815,84.821,76.534,85.54C77.377,86.363,77.377,87.638,76.554,88.357ZM76.39,77.215C71.95,77.215,68.332,73.597,68.332,69.156C68.332,64.634,71.95,60.995,76.39,60.995C80.913,60.995,84.551,64.613,84.551,69.156C84.531,73.576,80.913,77.215,76.39,77.215ZM76.39,77.215"/>
</g>
  <g id="Black-S" transform="matrix(1.0,0.0,0.0,1.0,2888.857616765729,614.3977676981676)">  <path stroke-linejoin="miter" stroke-miterlimit="4" stroke-linecap="butt" fill-rule="nonzero" fill-opacity="1" stroke="none" stroke-dasharray="none" stroke-width="1px" stroke-opacity="1" fill="#000000" d="M75.492,37.168C73.077,37.168,70.953,38.166,69.391,39.727C63.645,35.751,55.902,33.192,47.323,32.918L51.781,12.83L65.979,16.017C65.979,19.494,68.811,22.327,72.288,22.327C75.83,22.327,78.679,19.413,78.679,15.937C78.679,12.46,75.846,9.546,72.288,9.546C69.81,9.546,67.669,11.043,66.606,13.088L50.928,9.611C50.14,9.401,49.367,9.965,49.157,10.754L44.264,32.902C35.749,33.256,28.087,35.816,22.325,39.791C20.763,38.166,18.558,37.168,16.144,37.168C7.194,37.168,4.264,49.175,12.458,53.28C12.168,54.552,12.039,55.904,12.039,57.256C12.039,70.745,27.234,81.674,45.89,81.674C64.626,81.674,79.821,70.745,79.821,57.256C79.821,55.904,79.677,54.487,79.322,53.216C87.355,49.095,84.393,37.168,75.492,37.168ZM25.447,54.133C25.447,50.592,28.28,47.743,31.838,47.743C35.315,47.743,38.148,50.576,38.148,54.133C38.148,57.61,35.315,60.443,31.838,60.443C28.297,60.459,25.447,57.61,25.447,54.133ZM59.942,69.183C54.083,75.043,37.552,75.043,31.693,69.183C31.049,68.62,31.049,67.622,31.693,66.978C32.256,66.415,33.254,66.415,33.818,66.978C38.293,71.566,53.133,71.646,57.802,66.978C58.365,66.415,59.363,66.415,59.926,66.978C60.586,67.622,60.586,68.62,59.942,69.183ZM59.813,60.459C56.337,60.459,53.504,57.626,53.504,54.149C53.504,50.608,56.337,47.759,59.813,47.759C63.355,47.759,66.204,50.592,66.204,54.149C66.188,57.61,63.355,60.459,59.813,60.459ZM59.813,60.459"/>
</g>
  <g id="Heavy-S" transform="matrix(1.0,0.0,0.0,1.0,2592.147616765729,614.3977676981676)">  <path stroke-dasharray="none" fill-rule="nonzero" fill-opacity="1" stroke-linecap="butt" stroke-opacity="1" stroke-width="1px" fill="#000000" stroke-miterlimit="4" stroke-linejoin="miter" stroke="none" d="M75.492,37.168C73.077,37.168,70.953,38.166,69.391,39.727C63.645,35.751,55.902,33.192,47.323,32.918L51.781,12.83L65.979,16.017C65.979,19.494,68.811,22.327,72.288,22.327C75.83,22.327,78.679,19.413,78.679,15.937C78.679,12.46,75.846,9.546,72.288,9.546C69.81,9.546,67.669,11.043,66.606,13.088L50.928,9.611C50.14,9.401,49.367,9.965,49.157,10.754L44.264,32.902C35.749,33.256,28.087,35.816,22.325,39.791C20.763,38.166,18.558,37.168,16.144,37.168C7.194,37.168,4.264,49.175,12.458,53.28C12.168,54.552,12.039,55.904,12.039,57.256C12.039,70.745,27.234,81.674,45.89,81.674C64.626,81.674,79.821,70.745,79.821,57.256C79.821,55.904,79.677,54.487,79.322,53.216C87.355,49.095,84.393,37.168,75.492,37.168ZM25.447,54.133C25.447,50.592,28.28,47.743,31.838,47.743C35.315,47.743,38.148,50.576,38.148,54.133C38.148,57.61,35.315,60.443,31.838,60.443C28.297,60.459,25.447,57.61,25.447,54.133ZM59.942,69.183C54.083,75.043,37.552,75.043,31.693,69.183C31.049,68.62,31.049,67.622,31.693,66.978C32.256,66.415,33.254,66.415,33.818,66.978C38.293,71.566,53.133,71.646,57.802,66.978C58.365,66.415,59.363,66.415,59.926,66.978C60.586,67.622,60.586,68.62,59.942,69.183ZM59.813,60.459C56.337,60.459,53.504,57.626,53.504,54.149C53.504,50.608,56.337,47.759,59.813,47.759C63.355,47.759,66.204,50.592,66.204,54.149C66.188,57.61,63.355,60.459,59.813,60.459ZM59.813,60.459"/>
</g>
  <g id="Bold-S" transform="matrix(1.0,0.0,0.0,1.0,2295.4376167657288,614.3977676981676)">  <path stroke-miterlimit="4" fill-rule="nonzero" stroke-linejoin="miter" stroke-opacity="1" stroke-linecap="butt" stroke-width="1px" fill="#000000" fill-opacity="1" stroke-dasharray="none" stroke="none" d="M75.492,37.168C73.077,37.168,70.953,38.166,69.391,39.727C63.645,35.751,55.902,33.192,47.323,32.918L51.781,12.83L65.979,16.017C65.979,19.494,68.811,22.327,72.288,22.327C75.83,22.327,78.679,19.413,78.679,15.937C78.679,12.46,75.846,9.546,72.288,9.546C69.81,9.546,67.669,11.043,66.606,13.088L50.928,9.611C50.14,9.401,49.367,9.965,49.157,10.754L44.264,32.902C35.749,33.256,28.087,35.816,22.325,39.791C20.763,38.166,18.558,37.168,16.144,37.168C7.194,37.168,4.264,49.175,12.458,53.28C12.168,54.552,12.039,55.904,12.039,57.256C12.039,70.745,27.234,81.674,45.89,81.674C64.626,81.674,79.821,70.745,79.821,57.256C79.821,55.904,79.677,54.487,79.322,53.216C87.355,49.095,84.393,37.168,75.492,37.168ZM25.447,54.133C25.447,50.592,28.28,47.743,31.838,47.743C35.315,47.743,38.148,50.576,38.148,54.133C38.148,57.61,35.315,60.443,31.838,60.443C28.297,60.459,25.447,57.61,25.447,54.133ZM59.942,69.183C54.083,75.043,37.552,75.043,31.693,69.183C31.049,68.62,31.049,67.622,31.693,66.978C32.256,66.415,33.254,66.415,33.818,66.978C38.293,71.566,53.133,71.646,57.802,66.978C58.365,66.415,59.363,66.415,59.926,66.978C60.586,67.622,60.586,68.62,59.942,69.183ZM59.813,60.459C56.337,60.459,53.504,57.626,53.504,54.149C53.504,50.608,56.337,47.759,59.813,47.759C63.355,47.759,66.204,50.592,66.204,54.149C66.188,57.61,63.355,60.459,59.813,60.459ZM59.813,60.459"/>
</g>
  <g id="Semibold-S" transform="matrix(1.0,0.0,0.0,1.0,1998.7276167657287,614.3977676981676)">  <path fill="#000000" fill-rule="nonzero" stroke-linecap="butt" stroke-miterlimit="4" stroke-dasharray="none" stroke="none" stroke-width="1px" stroke-linejoin="miter" fill-opacity="1" stroke-opacity="1" d="M75.492,37.168C73.077,37.168,70.953,38.166,69.391,39.727C63.645,35.751,55.902,33.192,47.323,32.918L51.781,12.83L65.979,16.017C65.979,19.494,68.811,22.327,72.288,22.327C75.83,22.327,78.679,19.413,78.679,15.937C78.679,12.46,75.846,9.546,72.288,9.546C69.81,9.546,67.669,11.043,66.606,13.088L50.928,9.611C50.14,9.401,49.367,9.965,49.157,10.754L44.264,32.902C35.749,33.256,28.087,35.816,22.325,39.791C20.763,38.166,18.558,37.168,16.144,37.168C7.194,37.168,4.264,49.175,12.458,53.28C12.168,54.552,12.039,55.904,12.039,57.256C12.039,70.745,27.234,81.674,45.89,81.674C64.626,81.674,79.821,70.745,79.821,57.256C79.821,55.904,79.677,54.487,79.322,53.216C87.355,49.095,84.393,37.168,75.492,37.168ZM25.447,54.133C25.447,50.592,28.28,47.743,31.838,47.743C35.315,47.743,38.148,50.576,38.148,54.133C38.148,57.61,35.315,60.443,31.838,60.443C28.297,60.459,25.447,57.61,25.447,54.133ZM59.942,69.183C54.083,75.043,37.552,75.043,31.693,69.183C31.049,68.62,31.049,67.622,31.693,66.978C32.256,66.415,33.254,66.415,33.818,66.978C38.293,71.566,53.133,71.646,57.802,66.978C58.365,66.415,59.363,66.415,59.926,66.978C60.586,67.622,60.586,68.62,59.942,69.183ZM59.813,60.459C56.337,60.459,53.504,57.626,53.504,54.149C53.504,50.608,56.337,47.759,59.813,47.759C63.355,47.759,66.204,50.592,66.204,54.149C66.188,57.61,63.355,60.459,59.813,60.459ZM59.813,60.459"/>
</g>
  <g id="Medium-S" transform="matrix(1.0,0.0,0.0,1.0,1702.0176167657287,614.3977676981676)">  <path stroke-opacity="1" stroke-linecap="butt" stroke-miterlimit="4" fill-opacity="1" stroke-dasharray="none" fill-rule="nonzero" stroke-width="1px" stroke="none" fill="#000000" stroke-linejoin="miter" d="M75.492,37.168C73.077,37.168,70.953,38.166,69.391,39.727C63.645,35.751,55.902,33.192,47.323,32.918L51.781,12.83L65.979,16.017C65.979,19.494,68.811,22.327,72.288,22.327C75.83,22.327,78.679,19.413,78.679,15.937C78.679,12.46,75.846,9.546,72.288,9.546C69.81,9.546,67.669,11.043,66.606,13.088L50.928,9.611C50.14,9.401,49.367,9.965,49.157,10.754L44.264,32.902C35.749,33.256,28.087,35.816,22.325,39.791C20.763,38.166,18.558,37.168,16.144,37.168C7.194,37.168,4.264,49.175,12.458,53.28C12.168,54.552,12.039,55.904,12.039,57.256C12.039,70.745,27.234,81.674,45.89,81.674C64.626,81.674,79.821,70.745,79.821,57.256C79.821,55.904,79.677,54.487,79.322,53.216C87.355,49.095,84.393,37.168,75.492,37.168ZM25.447,54.133C25.447,50.592,28.28,47.743,31.838,47.743C35.315,47.743,38.148,50.576,38.148,54.133C38.148,57.61,35.315,60.443,31.838,60.443C28.297,60.459,25.447,57.61,25.447,54.133ZM59.942,69.183C54.083,75.043,37.552,75.043,31.693,69.183C31.049,68.62,31.049,67.622,31.693,66.978C32.256,66.415,33.254,66.415,33.818,66.978C38.293,71.566,53.133,71.646,57.802,66.978C58.365,66.415,59.363,66.415,59.926,66.978C60.586,67.622,60.586,68.62,59.942,69.183ZM59.813,60.459C56.337,60.459,53.504,57.626,53.504,54.149C53.504,50.608,56.337,47.759,59.813,47.759C63.355,47.759,66.204,50.592,66.204,54.149C66.188,57.61,63.355,60.459,59.813,60.459ZM59.813,60.459"/>
</g>
  <g id="Regular-S" transform="matrix(1.0,0.0,0.0,1.0,1405.3076167657287,614.3977676981676)">  <path fill="#000000" fill-opacity="1" stroke-dasharray="none" stroke-width="1px" stroke-linecap="butt" stroke="none" stroke-opacity="1" stroke-miterlimit="4" stroke-linejoin="miter" fill-rule="nonzero" d="M75.492,37.168C73.077,37.168,70.953,38.166,69.391,39.727C63.645,35.751,55.902,33.192,47.323,32.918L51.781,12.83L65.979,16.017C65.979,19.494,68.811,22.327,72.288,22.327C75.83,22.327,78.679,19.413,78.679,15.937C78.679,12.46,75.846,9.546,72.288,9.546C69.81,9.546,67.669,11.043,66.606,13.088L50.928,9.611C50.14,9.401,49.367,9.965,49.157,10.754L44.264,32.902C35.749,33.256,28.087,35.816,22.325,39.791C20.763,38.166,18.558,37.168,16.144,37.168C7.194,37.168,4.264,49.175,12.458,53.28C12.168,54.552,12.039,55.904,12.039,57.256C12.039,70.745,27.234,81.674,45.89,81.674C64.626,81.674,79.821,70.745,79.821,57.256C79.821,55.904,79.677,54.487,79.322,53.216C87.355,49.095,84.393,37.168,75.492,37.168ZM25.447,54.133C25.447,50.592,28.28,47.743,31.838,47.743C35.315,47.743,38.148,50.576,38.148,54.133C38.148,57.61,35.315,60.443,31.838,60.443C28.297,60.459,25.447,57.61,25.447,54.133ZM59.942,69.183C54.083,75.043,37.552,75.043,31.693,69.183C31.049,68.62,31.049,67.622,31.693,66.978C32.256,66.415,33.254,66.415,33.818,66.978C38.293,71.566,53.133,71.646,57.802,66.978C58.365,66.415,59.363,66.415,59.926,66.978C60.586,67.622,60.586,68.62,59.942,69.183ZM59.813,60.459C56.337,60.459,53.504,57.626,53.504,54.149C53.504,50.608,56.337,47.759,59.813,47.759C63.355,47.759,66.204,50.592,66.204,54.149C66.188,57.61,63.355,60.459,59.813,60.459ZM59.813,60.459"/>
</g>
  <g id="Light-S" transform="matrix(1.0,0.0,0.0,1.0,1108.5976167657288,614.3977676981676)">  <path stroke-linejoin="miter" fill-rule="nonzero" stroke-linecap="butt" stroke="none" fill-opacity="1" stroke-miterlimit="4" stroke-dasharray="none" stroke-width="1px" stroke-opacity="1" fill="#000000" d="M75.492,37.168C73.077,37.168,70.953,38.166,69.391,39.727C63.645,35.751,55.902,33.192,47.323,32.918L51.781,12.83L65.979,16.017C65.979,19.494,68.811,22.327,72.288,22.327C75.83,22.327,78.679,19.413,78.679,15.937C78.679,12.46,75.846,9.546,72.288,9.546C69.81,9.546,67.669,11.043,66.606,13.088L50.928,9.611C50.14,9.401,49.367,9.965,49.157,10.754L44.264,32.902C35.749,33.256,28.087,35.816,22.325,39.791C20.763,38.166,18.558,37.168,16.144,37.168C7.194,37.168,4.264,49.175,12.458,53.28C12.168,54.552,12.039,55.904,12.039,57.256C12.039,70.745,27.234,81.674,45.89,81.674C64.626,81.674,79.821,70.745,79.821,57.256C79.821,55.904,79.677,54.487,79.322,53.216C87.355,49.095,84.393,37.168,75.492,37.168ZM25.447,54.133C25.447,50.592,28.28,47.743,31.838,47.743C35.315,47.743,38.148,50.576,38.148,54.133C38.148,57.61,35.315,60.443,31.838,60.443C28.297,60.459,25.447,57.61,25.447,54.133ZM59.942,69.183C54.083,75.043,37.552,75.043,31.693,69.183C31.049,68.62,31.049,67.622,31.693,66.978C32.256,66.415,33.254,66.415,33.818,66.978C38.293,71.566,53.133,71.646,57.802,66.978C58.365,66.415,59.363,66.415,59.926,66.978C60.586,67.622,60.586,68.62,59.942,69.183ZM59.813,60.459C56.337,60.459,53.504,57.626,53.504,54.149C53.504,50.608,56.337,47.759,59.813,47.759C63.355,47.759,66.204,50.592,66.204,54.149C66.188,57.61,63.355,60.459,59.813,60.459ZM59.813,60.459"/>
</g>
  <g id="Thin-S" transform="matrix(1.0,0.0,0.0,1.0,811.8876167657288,614.3977676981676)">  <path stroke-miterlimit="4" stroke-linecap="butt" fill="#000000" stroke="none" fill-opacity="1" stroke-opacity="1" stroke-dasharray="none" fill-rule="nonzero" stroke-width="1px" stroke-linejoin="miter" d="M75.492,37.168C73.077,37.168,70.953,38.166,69.391,39.727C63.645,35.751,55.902,33.192,47.323,32.918L51.781,12.83L65.979,16.017C65.979,19.494,68.811,22.327,72.288,22.327C75.83,22.327,78.679,19.413,78.679,15.937C78.679,12.46,75.846,9.546,72.288,9.546C69.81,9.546,67.669,11.043,66.606,13.088L50.928,9.611C50.14,9.401,49.367,9.965,49.157,10.754L44.264,32.902C35.749,33.256,28.087,35.816,22.325,39.791C20.763,38.166,18.558,37.168,16.144,37.168C7.194,37.168,4.264,49.175,12.458,53.28C12.168,54.552,12.039,55.904,12.039,57.256C12.039,70.745,27.234,81.674,45.89,81.674C64.626,81.674,79.821,70.745,79.821,57.256C79.821,55.904,79.677,54.487,79.322,53.216C87.355,49.095,84.393,37.168,75.492,37.168ZM25.447,54.133C25.447,50.592,28.28,47.743,31.838,47.743C35.315,47.743,38.148,50.576,38.148,54.133C38.148,57.61,35.315,60.443,31.838,60.443C28.297,60.459,25.447,57.61,25.447,54.133ZM59.942,69.183C54.083,75.043,37.552,75.043,31.693,69.183C31.049,68.62,31.049,67.622,31.693,66.978C32.256,66.415,33.254,66.415,33.818,66.978C38.293,71.566,53.133,71.646,57.802,66.978C58.365,66.415,59.363,66.415,59.926,66.978C60.586,67.622,60.586,68.62,59.942,69.183ZM59.813,60.459C56.337,60.459,53.504,57.626,53.504,54.149C53.504,50.608,56.337,47.759,59.813,47.759C63.355,47.759,66.204,50.592,66.204,54.149C66.188,57.61,63.355,60.459,59.813,60.459ZM59.813,60.459"/>
</g>
  <g id="Ultralight-S" transform="matrix(1.0,0.0,0.0,1.0,515.1776167657288,614.3977676981676)">  <path stroke-width="1px" stroke="none" fill-rule="nonzero" stroke-dasharray="none" stroke-miterlimit="4" stroke-linecap="butt" fill="#000000" stroke-opacity="1" fill-opacity="1" stroke-linejoin="miter" d="M75.492,37.168C73.077,37.168,70.953,38.166,69.391,39.727C63.645,35.751,55.902,33.192,47.323,32.918L51.781,12.83L65.979,16.017C65.979,19.494,68.811,22.327,72.288,22.327C75.83,22.327,78.679,19.413,78.679,15.937C78.679,12.46,75.846,9.546,72.288,9.546C69.81,9.546,67.669,11.043,66.606,13.088L50.928,9.611C50.14,9.401,49.367,9.965,49.157,10.754L44.264,32.902C35.749,33.256,28.087,35.816,22.325,39.791C20.763,38.166,18.558,37.168,16.144,37.168C7.194,37.168,4.264,49.175,12.458,53.28C12.168,54.552,12.039,55.904,12.039,57.256C12.039,70.745,27.234,81.674,45.89,81.674C64.626,81.674,79.821,70.745,79.821,57.256C79.821,55.904,79.677,54.487,79.322,53.216C87.355,49.095,84.393,37.168,75.492,37.168ZM25.447,54.133C25.447,50.592,28.28,47.743,31.838,47.743C35.315,47.743,38.148,50.576,38.148,54.133C38.148,57.61,35.315,60.443,31.838,60.443C28.297,60.459,25.447,57.61,25.447,54.133ZM59.942,69.183C54.083,75.043,37.552,75.043,31.693,69.183C31.049,68.62,31.049,67.622,31.693,66.978C32.256,66.415,33.254,66.415,33.818,66.978C38.293,71.566,53.133,71.646,57.802,66.978C58.365,66.415,59.363,66.415,59.926,66.978C60.586,67.622,60.586,68.62,59.942,69.183ZM59.813,60.459C56.337,60.459,53.504,57.626,53.504,54.149C53.504,50.608,56.337,47.759,59.813,47.759C63.355,47.759,66.204,50.592,66.204,54.149C66.188,57.61,63.355,60.459,59.813,60.459ZM59.813,60.459"/>
</g>
 </g>
</svg>
