<?xml version="1.0" encoding="UTF-8"?>
<!-- Generator: CustomSymbols v2.6.1.40 by @serious_bret https://bretlester.com/app_content/CustomSymbols/ -->
<!-- Guides: Left/Right 0.117/0.121 Cap/Base 0.155/0.131 -->
<!-- Settings: RefScale 1.0 Min/Max Stroke Scales 0.5/2.21 -->
<!DOCTYPE svg
PUBLIC "-//W3C//DTD SVG 1.1//EN"
       "http://www.w3.org/Graphics/SVG/1.1/DTD/svg11.dtd">
<svg version="1.1" xmlns="http://www.w3.org/2000/svg" xmlns:xlink="http://www.w3.org/1999/xlink" width="3300" height="2200">
<![CDATA[<svg width="24" height="24" viewBox="0 0 24 24" fill="none" xmlns="http://www.w3.org/2000/svg">
<path d="M13.6053 18.327C13.6307 18.3109 13.6559 18.2944 13.6809 18.2775L14.7742 17.538L16.0933 17.4937C16.9914 17.4635 17.8098 17.0351 18.3473 16.3545L21.1606 21.2272L18.0916 21.0046L16.75 23.7737L13.6053 18.327Z" fill="black"/>
<path d="M5.65216 16.3539C6.18966 17.0348 7.0083 17.4636 7.90666 17.4937L9.22583 17.538L10.3191 18.2776C10.3439 18.2943 10.3688 18.3107 10.394 18.3266L7.24908 23.7737L5.90743 21.0046L2.8385 21.2273L5.65216 16.3539Z" fill="black"/>
<path fill-rule="evenodd" clip-rule="evenodd" d="M12.5603 1.37899C12.2218 1.15004 11.7781 1.15004 11.4397 1.37899L10.1077 2.28001C9.95172 2.38551 9.76914 2.44483 9.58095 2.45115L7.97375 2.50513C7.56536 2.51884 7.20641 2.77964 7.06716 3.1638L6.51918 4.67566C6.45502 4.85268 6.34218 5.008 6.19364 5.12373L4.92512 6.11208C4.60279 6.36321 4.46568 6.7852 4.57883 7.17783L5.02415 8.72304C5.07629 8.90398 5.07629 9.09596 5.02415 9.27689L4.57883 10.8221C4.46568 11.2147 4.60279 11.6367 4.92512 11.8879L6.19364 12.8762C6.34218 12.9919 6.45502 13.1473 6.51918 13.3243L7.06716 14.8361C7.20641 15.2203 7.56537 15.4811 7.97375 15.4948L9.58095 15.5488C9.76914 15.5551 9.95172 15.6144 10.1077 15.7199L11.4397 16.6209C11.7781 16.8499 12.2218 16.8499 12.5603 16.6209L13.8922 15.7199C14.0482 15.6144 14.2308 15.5551 14.419 15.5488L16.0262 15.4948C16.4346 15.4811 16.7935 15.2203 16.9328 14.8361L17.4807 13.3243C17.5449 13.1473 17.6577 12.9919 17.8063 12.8762L19.0748 11.8879C19.3971 11.6367 19.5342 11.2147 19.4211 10.8221L18.9758 9.27689C18.9236 9.09596 18.9236 8.90398 18.9758 8.72305L19.4211 7.17783C19.5342 6.7852 19.3971 6.36321 19.0748 6.11208L17.8063 5.12373C17.6577 5.008 17.5449 4.85268 17.4807 4.67566L16.9328 3.1638C16.7935 2.77964 16.4345 2.51884 16.0262 2.50513L14.419 2.45115C14.2308 2.44483 14.0482 2.38551 13.8922 2.28001L12.5603 1.37899ZM12 14C14.7614 14 17 11.7614 17 9C17 6.23858 14.7614 4 12 4C9.23858 4 7 6.23858 7 9C7 11.7614 9.23858 14 12 14Z" fill="black"/>
</svg>
]]>
 <g id="Notes">
  <rect height="2200" id="artboard" style="fill:white;opacity:1" width="3300" x="0" y="0"/>
  <line id="" style="fill:none;stroke:black;opacity:1;stroke-width:0.5;" x1="263" x2="3036" y1="292" y2="292"/>
  <text id="reftext1" style="stroke:none;fill:black;font-family:-apple-system,&quot;SF Pro Display&quot;,&quot;SF Pro Text&quot;,Helvetica,sans-serif;font-weight:bold;" transform="matrix(1 0 0 1 263 322)">Weight/Scale Variations</text>
  <text id="reftext2" style="stroke:none;fill:black;font-family:-apple-system,&quot;SF Pro Display&quot;,&quot;SF Pro Text&quot;,Helvetica,sans-serif;text-anchor:middle;" transform="matrix(1 0 0 1 559.711 322)">Ultralight</text>
  <text style="stroke:none;fill:black;font-family:-apple-system,&quot;SF Pro Display&quot;,&quot;SF Pro Text&quot;,Helvetica,sans-serif;text-anchor:middle;" transform="matrix(1 0 0 1 856.422 322)">Thin</text>
  <text style="stroke:none;fill:black;font-family:-apple-system,&quot;SF Pro Display&quot;,&quot;SF Pro Text&quot;,Helvetica,sans-serif;text-anchor:middle;" transform="matrix(1 0 0 1 1153.13 322)">Light</text>
  <text style="stroke:none;fill:black;font-family:-apple-system,&quot;SF Pro Display&quot;,&quot;SF Pro Text&quot;,Helvetica,sans-serif;text-anchor:middle;" transform="matrix(1 0 0 1 1449.84 322)">Regular</text>
  <text style="stroke:none;fill:black;font-family:-apple-system,&quot;SF Pro Display&quot;,&quot;SF Pro Text&quot;,Helvetica,sans-serif;text-anchor:middle;" transform="matrix(1 0 0 1 1746.56 322)">Medium</text>
  <text style="stroke:none;fill:black;font-family:-apple-system,&quot;SF Pro Display&quot;,&quot;SF Pro Text&quot;,Helvetica,sans-serif;text-anchor:middle;" transform="matrix(1 0 0 1 2043.27 322)">Semibold</text>
  <text style="stroke:none;fill:black;font-family:-apple-system,&quot;SF Pro Display&quot;,&quot;SF Pro Text&quot;,Helvetica,sans-serif;text-anchor:middle;" transform="matrix(1 0 0 1 2339.98 322)">Bold</text>
  <text style="stroke:none;fill:black;font-family:-apple-system,&quot;SF Pro Display&quot;,&quot;SF Pro Text&quot;,Helvetica,sans-serif;text-anchor:middle;" transform="matrix(1 0 0 1 2636.69 322)">Heavy</text>
  <text style="stroke:none;fill:black;font-family:-apple-system,&quot;SF Pro Display&quot;,&quot;SF Pro Text&quot;,Helvetica,sans-serif;text-anchor:middle;" transform="matrix(1 0 0 1 2933.4 322)">Black</text>
  <line id="" style="fill:none;stroke:black;opacity:1;stroke-width:0.5;" x1="263" x2="3036" y1="1903" y2="1903"/>
  <g id="" transform="matrix(1 0 0 1 263 1933)">
   <path d="M9.24805 0.830078C13.5547 0.830078 17.1387-2.74414 17.1387-7.05078C17.1387-11.3574 13.5449-14.9316 9.23828-14.9316C4.94141-14.9316 1.36719-11.3574 1.36719-7.05078C1.36719-2.74414 4.95117 0.830078 9.24805 0.830078ZM9.24805-0.654297C5.70312-0.654297 2.87109-3.49609 2.87109-7.05078C2.87109-10.6055 5.69336-13.4473 9.23828-13.4473C12.793-13.4473 15.6348-10.6055 15.6445-7.05078C15.6543-3.49609 12.8027-0.654297 9.24805-0.654297ZM6.39648-6.31836L8.50586-6.31836L8.50586-4.19922C8.50586-3.75977 8.79883-3.45703 9.22852-3.45703C9.67773-3.45703 9.9707-3.75977 9.9707-4.19922L9.9707-6.31836L12.0996-6.31836C12.5391-6.31836 12.8418-6.61133 12.8418-7.04102C12.8418-7.48047 12.5391-7.7832 12.0996-7.7832L9.9707-7.7832L9.9707-9.89258C9.9707-10.3418 9.67773-10.6445 9.22852-10.6445C8.79883-10.6445 8.50586-10.3418 8.50586-9.89258L8.50586-7.7832L6.39648-7.7832C5.94727-7.7832 5.64453-7.48047 5.64453-7.04102C5.64453-6.61133 5.94727-6.31836 6.39648-6.31836Z"/>
  </g>
  <g id="" transform="matrix(1 0 0 1 281.506 1933)">
   <path d="M11.709 2.91016C17.1582 2.91016 21.6699-1.61133 21.6699-7.05078C21.6699-12.5 17.1484-17.0117 11.6992-17.0117C6.25977-17.0117 1.74805-12.5 1.74805-7.05078C1.74805-1.61133 6.26953 2.91016 11.709 2.91016ZM11.709 1.25C7.09961 1.25 3.41797-2.44141 3.41797-7.05078C3.41797-11.6602 7.08984-15.3516 11.6992-15.3516C16.3086-15.3516 20-11.6602 20.0098-7.05078C20.0195-2.44141 16.3184 1.25 11.709 1.25ZM7.98828-6.23047L10.8789-6.23047L10.8789-3.32031C10.8789-2.83203 11.2109-2.5 11.6895-2.5C12.1777-2.5 12.5195-2.83203 12.5195-3.32031L12.5195-6.23047L15.4297-6.23047C15.918-6.23047 16.25-6.5625 16.25-7.04102C16.25-7.5293 15.918-7.87109 15.4297-7.87109L12.5195-7.87109L12.5195-10.7617C12.5195-11.2695 12.1777-11.6016 11.6895-11.6016C11.2109-11.6016 10.8789-11.2598 10.8789-10.7617L10.8789-7.87109L7.98828-7.87109C7.48047-7.87109 7.14844-7.5293 7.14844-7.04102C7.14844-6.5625 7.49023-6.23047 7.98828-6.23047Z"/>
  </g>
  <g id="" transform="matrix(1 0 0 1 304.924 1933)">
   <path d="M14.9707 5.66406C21.9336 5.66406 27.6953-0.0976562 27.6953-7.05078C27.6953-14.0137 21.9238-19.7754 14.9609-19.7754C8.00781-19.7754 2.25586-14.0137 2.25586-7.05078C2.25586-0.0976562 8.01758 5.66406 14.9707 5.66406ZM14.9707 3.84766C8.93555 3.84766 4.08203-1.01562 4.08203-7.05078C4.08203-13.0957 8.92578-17.9492 14.9609-17.9492C21.0059-17.9492 25.8594-13.0957 25.8691-7.05078C25.8789-1.01562 21.0156 3.84766 14.9707 3.84766ZM10.0586-6.14258L14.0625-6.14258L14.0625-2.12891C14.0625-1.5918 14.4336-1.2207 14.9512-1.2207C15.4883-1.2207 15.8594-1.5918 15.8594-2.12891L15.8594-6.14258L19.8828-6.14258C20.4102-6.14258 20.791-6.51367 20.791-7.03125C20.791-7.56836 20.4199-7.94922 19.8828-7.94922L15.8594-7.94922L15.8594-11.9531C15.8594-12.5098 15.4883-12.8809 14.9512-12.8809C14.4336-12.8809 14.0625-12.5 14.0625-11.9531L14.0625-7.94922L10.0586-7.94922C9.50195-7.94922 9.13086-7.56836 9.13086-7.03125C9.13086-6.51367 9.51172-6.14258 10.0586-6.14258Z"/>
  </g>
  <text style="stroke:none;fill:black;font-family:-apple-system,&quot;SF Pro Display&quot;,&quot;SF Pro Text&quot;,Helvetica,sans-serif;font-weight:bold;" transform="matrix(1 0 0 1 263 1953)">Design Variations</text>
  <text style="stroke:none;fill:black;font-family:-apple-system,&quot;SF Pro Display&quot;,&quot;SF Pro Text&quot;,Helvetica,sans-serif;" transform="matrix(1 0 0 1 263 1971)">Symbols are supported in up to nine weights and three scales.</text>
  <text style="stroke:none;fill:black;font-family:-apple-system,&quot;SF Pro Display&quot;,&quot;SF Pro Text&quot;,Helvetica,sans-serif;" transform="matrix(1 0 0 1 263 1989)">For optimal layout with text and other symbols, vertically align</text>
  <text style="stroke:none;fill:black;font-family:-apple-system,&quot;SF Pro Display&quot;,&quot;SF Pro Text&quot;,Helvetica,sans-serif;" transform="matrix(1 0 0 1 263 2007)">symbols with the adjacent text.</text>
  <line id="" style="fill:none;stroke:#00AEEF;stroke-width:0.5;opacity:1.0;" x1="776" x2="776" y1="1919" y2="1933"/>
  <g id="" transform="matrix(1 0 0 1 776 1933)">
   <path d="M3.31055 0.126953C3.82812 0.126953 4.08203-0.0683594 4.26758-0.605469L5.52734-4.0625L11.2891-4.0625L12.5488-0.605469C12.7344-0.0683594 12.9883 0.126953 13.4961 0.126953C14.0137 0.126953 14.3457-0.185547 14.3457-0.673828C14.3457-0.839844 14.3164-0.986328 14.2383-1.20117L9.6582-13.3887C9.43359-13.9941 9.0332-14.2871 8.4082-14.2871C7.80273-14.2871 7.39258-13.9941 7.17773-13.3984L2.59766-1.19141C2.51953-0.976562 2.49023-0.830078 2.49023-0.664062C2.49023-0.175781 2.80273 0.126953 3.31055 0.126953ZM6.00586-5.53711L8.37891-12.1094L8.42773-12.1094L10.8008-5.53711Z"/>
  </g>
  <line id="" style="fill:none;stroke:#00AEEF;stroke-width:0.5;opacity:1.0;" x1="792.836" x2="792.836" y1="1919" y2="1933"/>
  <text style="stroke:none;fill:black;font-family:-apple-system,&quot;SF Pro Display&quot;,&quot;SF Pro Text&quot;,Helvetica,sans-serif;font-weight:bold;" transform="matrix(1 0 0 1 776 1953)">Margins</text>
  <text style="stroke:none;fill:black;font-family:-apple-system,&quot;SF Pro Display&quot;,&quot;SF Pro Text&quot;,Helvetica,sans-serif;" transform="matrix(1 0 0 1 776 1971)">Leading and trailing margins on the left and right side of each symbol</text>
  <text style="stroke:none;fill:black;font-family:-apple-system,&quot;SF Pro Display&quot;,&quot;SF Pro Text&quot;,Helvetica,sans-serif;" transform="matrix(1 0 0 1 776 1989)">can be adjusted by modifying the x-location of the margin guidelines.</text>
  <text style="stroke:none;fill:black;font-family:-apple-system,&quot;SF Pro Display&quot;,&quot;SF Pro Text&quot;,Helvetica,sans-serif;" transform="matrix(1 0 0 1 776 2007)">Modifications are automatically applied proportionally to all</text>
  <text style="stroke:none;fill:black;font-family:-apple-system,&quot;SF Pro Display&quot;,&quot;SF Pro Text&quot;,Helvetica,sans-serif;" transform="matrix(1 0 0 1 776 2025)">scales and weights.</text>
  <g id="" transform="matrix(1 0 0 1 1289 1933)">
   <path d="M2.8418 1.86523L4.54102 3.57422C5.40039 4.44336 6.38672 4.38477 7.31445 3.35938L17.4902-7.85156C17.7539-7.76367 18.0273-7.7832 18.3398-7.8418L19.4043-8.03711L20.0684-7.36328L20.0293-6.80664C19.9902-6.30859 20.1172-5.92773 20.6055-5.44922L21.3672-4.70703C21.8457-4.22852 22.4609-4.19922 22.9297-4.66797L25.8398-7.58789C26.3086-8.05664 26.2891-8.65234 25.8105-9.13086L25.0391-9.89258C24.5605-10.3711 24.1895-10.5273 23.7109-10.4883L23.1348-10.4395L22.4902-11.0742L22.7344-12.1973C22.8613-12.7637 22.7051-13.2031 22.1191-13.7891L19.9219-15.9766C16.582-19.2969 12.1484-19.2188 9.25781-16.3281C8.83789-15.918 8.80859-15.3418 9.04297-14.9512C9.27734-14.5898 9.73633-14.3555 10.3809-14.5215C11.8457-14.8633 13.3691-14.9219 14.7949-13.9844L14.209-12.5293C14.0137-12.0508 13.9844-11.6504 14.1113-11.2891L3.04688-0.898438C2.06055 0.0195312 1.98242 0.996094 2.8418 1.86523ZM10.752-15.957C13.1836-17.7344 16.4746-17.4316 18.7012-15.2051L21.1328-12.793C21.3672-12.5586 21.4062-12.373 21.3379-12.0312L21.0156-10.5469L22.5195-9.0625L23.5059-9.12109C23.7598-9.13086 23.8379-9.11133 24.0332-8.91602L24.6094-8.33984L22.168-5.89844L21.5918-6.47461C21.3965-6.66992 21.3672-6.74805 21.377-7.01172L21.4453-7.98828L19.9512-9.47266L18.4277-9.21875C18.1055-9.15039 17.959-9.17969 17.7148-9.41406L15.7129-11.416C15.459-11.6504 15.4297-11.8164 15.5859-12.1875L16.4648-14.2773C14.9023-15.7324 12.8711-16.3574 10.8398-15.7617C10.6836-15.7227 10.625-15.8496 10.752-15.957ZM5.27344 2.30469L4.10156 1.14258C3.63281 0.683594 3.74023 0.341797 4.14062-0.0195312L14.9512-10.1953L16.416-8.71094L6.42578 2.27539C6.07422 2.67578 5.74219 2.77344 5.27344 2.30469Z"/>
  </g>
  <text style="stroke:none;fill:black;font-family:-apple-system,&quot;SF Pro Display&quot;,&quot;SF Pro Text&quot;,Helvetica,sans-serif;font-weight:bold;" transform="matrix(1 0 0 1 1289 1953)">Exporting</text>
  <text style="stroke:none;fill:black;font-family:-apple-system,&quot;SF Pro Display&quot;,&quot;SF Pro Text&quot;,Helvetica,sans-serif;" transform="matrix(1 0 0 1 1289 1971)">Symbols should be outlined when exporting to ensure the</text>
  <text style="stroke:none;fill:black;font-family:-apple-system,&quot;SF Pro Display&quot;,&quot;SF Pro Text&quot;,Helvetica,sans-serif;" transform="matrix(1 0 0 1 1289 1989)">design is preserved when submitting to Xcode.</text>
  <text id="template-version" style="stroke:none;fill:black;font-family:-apple-system,&quot;SF Pro Display&quot;,&quot;SF Pro Text&quot;,Helvetica,sans-serif;text-anchor:end;" transform="matrix(1 0 0 1 3036 1933)">Template v.2.0</text>
  <text style="stroke:none;fill:black;font-family:-apple-system,&quot;SF Pro Display&quot;,&quot;SF Pro Text&quot;,Helvetica,sans-serif;text-anchor:end;" transform="matrix(1 0 0 1 3036 1951)">Requires Xcode 12 or greater</text>
  <text style="stroke:none;fill:black;font-family:-apple-system,&quot;SF Pro Display&quot;,&quot;SF Pro Text&quot;,Helvetica,sans-serif;" transform="matrix(1 0 0 1 263 726)">Small</text>
  <text style="stroke:none;fill:black;font-family:-apple-system,&quot;SF Pro Display&quot;,&quot;SF Pro Text&quot;,Helvetica,sans-serif;" transform="matrix(1 0 0 1 263 1156)">Medium</text>
  <text style="stroke:none;fill:black;font-family:-apple-system,&quot;SF Pro Display&quot;,&quot;SF Pro Text&quot;,Helvetica,sans-serif;" transform="matrix(1 0 0 1 263 1586)">Large</text>
 </g>
 <g id="Guides">
  <g id="H-reference" style="fill:#27AAE1;stroke:none;" transform="matrix(1 0 0 1 339 696)">
   <path d="M0.976562 0L3.66211 0L12.9883-24.4629L45.752-24.4629L55.127 0L57.7637 0L30.6152-70.459L28.125-70.459ZM29.3457-67.1387L29.4434-67.1387L44.873-26.709L13.8672-26.709Z"/>
  </g>
  <line id="Baseline-S" style="fill:none;stroke:#27AAE1;opacity:1;stroke-width:0.5;" x1="263" x2="3036" y1="696" y2="696"/>
  <line id="Capline-S" style="fill:none;stroke:#27AAE1;opacity:1;stroke-width:0.5;" x1="263" x2="3036" y1="625.541" y2="625.541"/>
  <g id="H-reference" style="fill:#27AAE1;stroke:none;" transform="matrix(1 0 0 1 339 1126)">
   <path d="M0.976562 0L3.66211 0L12.9883-24.4629L45.752-24.4629L55.127 0L57.7637 0L30.6152-70.459L28.125-70.459ZM29.3457-67.1387L29.4434-67.1387L44.873-26.709L13.8672-26.709Z"/>
  </g>
  <line id="Baseline-M" style="fill:none;stroke:#27AAE1;opacity:1;stroke-width:0.5;" x1="263" x2="3036" y1="1126" y2="1126"/>
  <line id="Capline-M" style="fill:none;stroke:#27AAE1;opacity:1;stroke-width:0.5;" x1="263" x2="3036" y1="1055.54" y2="1055.54"/>
  <g id="H-reference" style="fill:#27AAE1;stroke:none;" transform="matrix(1 0 0 1 339 1556)">
   <path d="M0.976562 0L3.66211 0L12.9883-24.4629L45.752-24.4629L55.127 0L57.7637 0L30.6152-70.459L28.125-70.459ZM29.3457-67.1387L29.4434-67.1387L44.873-26.709L13.8672-26.709Z"/>
  </g>
  <line id="Baseline-L" style="fill:none;stroke:#27AAE1;opacity:1;stroke-width:0.5;" x1="263" x2="3036" y1="1556" y2="1556"/>
  <line id="Capline-L" style="fill:none;stroke:#27AAE1;opacity:1;stroke-width:0.5;" x1="263" x2="3036" y1="1485.54" y2="1485.54"/>
  <line id="left-margin" x1="1413.3342506455706" x2="1413.3342506455706" y1="1030.79" y2="1150.12" style="fill:none;stroke:#00AEEF;stroke-width:0.5;opacity:1.0;"/>
  <line id="right-margin" x1="1488.5310156797093" x2="1488.5310156797093" y1="1030.79" y2="1150.12" style="fill:none;stroke:#00AEEF;stroke-width:0.5;opacity:1.0;"/>
 </g>
 <g id="Symbols">
  <g id="Black-L" transform="matrix(1.0,0.0,0.0,1.0,2871.029194951418,1455.591595161502)">  <path stroke-linejoin="miter" stroke="none" fill-opacity="1" stroke-miterlimit="4" fill="#000000" stroke-opacity="1" fill-rule="nonzero" stroke-linecap="butt" stroke-width="1px" stroke-dasharray="none" d="M72.166,97.211C72.3,97.125,72.434,97.038,72.567,96.948L78.366,93.026L85.363,92.791C90.126,92.63,94.467,90.358,97.318,86.748L112.241,112.594L95.962,111.413L88.846,126.101L72.166,97.211ZM72.166,97.211"/>
  <path fill-rule="nonzero" stroke-linecap="butt" stroke-linejoin="miter" stroke-opacity="1" stroke-miterlimit="4" stroke-dasharray="none" fill="#000000" stroke-width="1px" fill-opacity="1" stroke="none" d="M29.98,86.745C32.831,90.357,37.174,92.631,41.939,92.791L48.936,93.026L54.735,96.949C54.866,97.037,54.999,97.124,55.132,97.209L38.451,126.101L31.334,111.413L15.056,112.595L29.98,86.745ZM29.98,86.745"/>
  <path clip-rule="evenodd" stroke-linejoin="miter" stroke-width="1px" stroke-opacity="1" stroke-miterlimit="4" fill-rule="evenodd" stroke="none" fill="#000000" fill-opacity="1" stroke-linecap="butt" stroke-dasharray="none" d="M66.623,7.314C64.827,6.1,62.474,6.1,60.679,7.314L53.614,12.094C52.786,12.653,51.818,12.968,50.82,13.001L42.295,13.288C40.128,13.361,38.224,14.744,37.486,16.782L34.579,24.801C34.239,25.74,33.64,26.564,32.853,27.177L26.124,32.42C24.414,33.752,23.687,35.99,24.287,38.073L26.649,46.269C26.926,47.229,26.926,48.247,26.649,49.207L24.287,57.403C23.687,59.485,24.414,61.724,26.124,63.056L32.853,68.298C33.64,68.912,34.239,69.736,34.579,70.675L37.486,78.694C38.224,80.732,40.128,82.115,42.295,82.188L50.82,82.474C51.818,82.508,52.786,82.822,53.614,83.382L60.679,88.161C62.474,89.376,64.827,89.376,66.623,88.161L73.687,83.382C74.515,82.822,75.483,82.508,76.482,82.474L85.007,82.188C87.173,82.115,89.077,80.732,89.816,78.694L92.722,70.675C93.062,69.736,93.661,68.912,94.449,68.298L101.177,63.056C102.887,61.724,103.614,59.485,103.014,57.403L100.652,49.207C100.375,48.247,100.375,47.229,100.652,46.269L103.014,38.073C103.614,35.99,102.887,33.752,101.177,32.42L94.449,27.177C93.661,26.564,93.062,25.74,92.722,24.801L89.816,16.782C89.077,14.744,87.172,13.361,85.007,13.288L76.482,13.001C75.483,12.968,74.515,12.653,73.687,12.094L66.623,7.314ZM63.651,74.259C78.298,74.259,90.172,62.385,90.172,47.738C90.172,33.091,78.298,21.217,63.651,21.217C49.004,21.217,37.13,33.091,37.13,47.738C37.13,62.385,49.004,74.259,63.651,74.259ZM63.651,74.259"/>
</g>
  <g id="Heavy-L" transform="matrix(1.0,0.0,0.0,1.0,2574.319194951418,1455.591595161502)">  <path stroke-dasharray="none" fill-opacity="1" stroke-width="1px" fill="#000000" fill-rule="nonzero" stroke-linejoin="miter" stroke-opacity="1" stroke="none" stroke-linecap="butt" stroke-miterlimit="4" d="M72.166,97.211C72.3,97.125,72.434,97.038,72.567,96.948L78.366,93.026L85.363,92.791C90.126,92.63,94.467,90.358,97.318,86.748L112.241,112.594L95.962,111.413L88.846,126.101L72.166,97.211ZM72.166,97.211"/>
  <path stroke-linejoin="miter" stroke-opacity="1" fill="#000000" fill-rule="nonzero" stroke-miterlimit="4" stroke="none" stroke-width="1px" fill-opacity="1" stroke-dasharray="none" stroke-linecap="butt" d="M29.98,86.745C32.831,90.357,37.174,92.631,41.939,92.791L48.936,93.026L54.735,96.949C54.866,97.037,54.999,97.124,55.132,97.209L38.451,126.101L31.334,111.413L15.056,112.595L29.98,86.745ZM29.98,86.745"/>
  <path fill="#000000" stroke-dasharray="none" fill-rule="evenodd" stroke-linejoin="miter" stroke-miterlimit="4" stroke-opacity="1" stroke-linecap="butt" fill-opacity="1" stroke-width="1px" clip-rule="evenodd" stroke="none" d="M66.623,7.314C64.827,6.1,62.474,6.1,60.679,7.314L53.614,12.094C52.786,12.653,51.818,12.968,50.82,13.001L42.295,13.288C40.128,13.361,38.224,14.744,37.486,16.782L34.579,24.801C34.239,25.74,33.64,26.564,32.853,27.177L26.124,32.42C24.414,33.752,23.687,35.99,24.287,38.073L26.649,46.269C26.926,47.229,26.926,48.247,26.649,49.207L24.287,57.403C23.687,59.485,24.414,61.724,26.124,63.056L32.853,68.298C33.64,68.912,34.239,69.736,34.579,70.675L37.486,78.694C38.224,80.732,40.128,82.115,42.295,82.188L50.82,82.474C51.818,82.508,52.786,82.822,53.614,83.382L60.679,88.161C62.474,89.376,64.827,89.376,66.623,88.161L73.687,83.382C74.515,82.822,75.483,82.508,76.482,82.474L85.007,82.188C87.173,82.115,89.077,80.732,89.816,78.694L92.722,70.675C93.062,69.736,93.661,68.912,94.449,68.298L101.177,63.056C102.887,61.724,103.614,59.485,103.014,57.403L100.652,49.207C100.375,48.247,100.375,47.229,100.652,46.269L103.014,38.073C103.614,35.99,102.887,33.752,101.177,32.42L94.449,27.177C93.661,26.564,93.062,25.74,92.722,24.801L89.816,16.782C89.077,14.744,87.172,13.361,85.007,13.288L76.482,13.001C75.483,12.968,74.515,12.653,73.687,12.094L66.623,7.314ZM63.651,74.259C78.298,74.259,90.172,62.385,90.172,47.738C90.172,33.091,78.298,21.217,63.651,21.217C49.004,21.217,37.13,33.091,37.13,47.738C37.13,62.385,49.004,74.259,63.651,74.259ZM63.651,74.259"/>
</g>
  <g id="Bold-L" transform="matrix(1.0,0.0,0.0,1.0,2277.609194951418,1455.591595161502)">  <path fill="#000000" stroke-width="1px" fill-rule="nonzero" stroke-dasharray="none" stroke-linecap="butt" stroke-miterlimit="4" stroke-linejoin="miter" stroke-opacity="1" stroke="none" fill-opacity="1" d="M72.166,97.211C72.3,97.125,72.434,97.038,72.567,96.948L78.366,93.026L85.363,92.791C90.126,92.63,94.467,90.358,97.318,86.748L112.241,112.594L95.962,111.413L88.846,126.101L72.166,97.211ZM72.166,97.211"/>
  <path stroke-linejoin="miter" stroke-miterlimit="4" fill-rule="nonzero" fill="#000000" fill-opacity="1" stroke-dasharray="none" stroke-linecap="butt" stroke-opacity="1" stroke="none" stroke-width="1px" d="M29.98,86.745C32.831,90.357,37.174,92.631,41.939,92.791L48.936,93.026L54.735,96.949C54.866,97.037,54.999,97.124,55.132,97.209L38.451,126.101L31.334,111.413L15.056,112.595L29.98,86.745ZM29.98,86.745"/>
  <path fill-opacity="1" stroke-miterlimit="4" stroke="none" clip-rule="evenodd" stroke-dasharray="none" stroke-width="1px" fill-rule="evenodd" stroke-linejoin="miter" fill="#000000" stroke-linecap="butt" stroke-opacity="1" d="M66.623,7.314C64.827,6.1,62.474,6.1,60.679,7.314L53.614,12.094C52.786,12.653,51.818,12.968,50.82,13.001L42.295,13.288C40.128,13.361,38.224,14.744,37.486,16.782L34.579,24.801C34.239,25.74,33.64,26.564,32.853,27.177L26.124,32.42C24.414,33.752,23.687,35.99,24.287,38.073L26.649,46.269C26.926,47.229,26.926,48.247,26.649,49.207L24.287,57.403C23.687,59.485,24.414,61.724,26.124,63.056L32.853,68.298C33.64,68.912,34.239,69.736,34.579,70.675L37.486,78.694C38.224,80.732,40.128,82.115,42.295,82.188L50.82,82.474C51.818,82.508,52.786,82.822,53.614,83.382L60.679,88.161C62.474,89.376,64.827,89.376,66.623,88.161L73.687,83.382C74.515,82.822,75.483,82.508,76.482,82.474L85.007,82.188C87.173,82.115,89.077,80.732,89.816,78.694L92.722,70.675C93.062,69.736,93.661,68.912,94.449,68.298L101.177,63.056C102.887,61.724,103.614,59.485,103.014,57.403L100.652,49.207C100.375,48.247,100.375,47.229,100.652,46.269L103.014,38.073C103.614,35.99,102.887,33.752,101.177,32.42L94.449,27.177C93.661,26.564,93.062,25.74,92.722,24.801L89.816,16.782C89.077,14.744,87.172,13.361,85.007,13.288L76.482,13.001C75.483,12.968,74.515,12.653,73.687,12.094L66.623,7.314ZM63.651,74.259C78.298,74.259,90.172,62.385,90.172,47.738C90.172,33.091,78.298,21.217,63.651,21.217C49.004,21.217,37.13,33.091,37.13,47.738C37.13,62.385,49.004,74.259,63.651,74.259ZM63.651,74.259"/>
</g>
  <g id="Semibold-L" transform="matrix(1.0,0.0,0.0,1.0,1980.899194951418,1455.591595161502)">  <path fill-rule="nonzero" stroke="none" stroke-miterlimit="4" fill-opacity="1" stroke-linecap="butt" stroke-opacity="1" fill="#000000" stroke-width="1px" stroke-dasharray="none" stroke-linejoin="miter" d="M72.166,97.211C72.3,97.125,72.434,97.038,72.567,96.948L78.366,93.026L85.363,92.791C90.126,92.63,94.467,90.358,97.318,86.748L112.241,112.594L95.962,111.413L88.846,126.101L72.166,97.211ZM72.166,97.211"/>
  <path stroke-linejoin="miter" stroke="none" fill="#000000" stroke-width="1px" stroke-dasharray="none" stroke-linecap="butt" fill-rule="nonzero" stroke-miterlimit="4" stroke-opacity="1" fill-opacity="1" d="M29.98,86.745C32.831,90.357,37.174,92.631,41.939,92.791L48.936,93.026L54.735,96.949C54.866,97.037,54.999,97.124,55.132,97.209L38.451,126.101L31.334,111.413L15.056,112.595L29.98,86.745ZM29.98,86.745"/>
  <path fill-opacity="1" stroke-linecap="butt" stroke-miterlimit="4" stroke-width="1px" stroke-opacity="1" stroke-dasharray="none" stroke-linejoin="miter" fill-rule="evenodd" stroke="none" fill="#000000" clip-rule="evenodd" d="M66.623,7.314C64.827,6.1,62.474,6.1,60.679,7.314L53.614,12.094C52.786,12.653,51.818,12.968,50.82,13.001L42.295,13.288C40.128,13.361,38.224,14.744,37.486,16.782L34.579,24.801C34.239,25.74,33.64,26.564,32.853,27.177L26.124,32.42C24.414,33.752,23.687,35.99,24.287,38.073L26.649,46.269C26.926,47.229,26.926,48.247,26.649,49.207L24.287,57.403C23.687,59.485,24.414,61.724,26.124,63.056L32.853,68.298C33.64,68.912,34.239,69.736,34.579,70.675L37.486,78.694C38.224,80.732,40.128,82.115,42.295,82.188L50.82,82.474C51.818,82.508,52.786,82.822,53.614,83.382L60.679,88.161C62.474,89.376,64.827,89.376,66.623,88.161L73.687,83.382C74.515,82.822,75.483,82.508,76.482,82.474L85.007,82.188C87.173,82.115,89.077,80.732,89.816,78.694L92.722,70.675C93.062,69.736,93.661,68.912,94.449,68.298L101.177,63.056C102.887,61.724,103.614,59.485,103.014,57.403L100.652,49.207C100.375,48.247,100.375,47.229,100.652,46.269L103.014,38.073C103.614,35.99,102.887,33.752,101.177,32.42L94.449,27.177C93.661,26.564,93.062,25.74,92.722,24.801L89.816,16.782C89.077,14.744,87.172,13.361,85.007,13.288L76.482,13.001C75.483,12.968,74.515,12.653,73.687,12.094L66.623,7.314ZM63.651,74.259C78.298,74.259,90.172,62.385,90.172,47.738C90.172,33.091,78.298,21.217,63.651,21.217C49.004,21.217,37.13,33.091,37.13,47.738C37.13,62.385,49.004,74.259,63.651,74.259ZM63.651,74.259"/>
</g>
  <g id="Medium-L" transform="matrix(1.0,0.0,0.0,1.0,1684.189194951418,1455.591595161502)">  <path stroke-linejoin="miter" stroke-opacity="1" fill-rule="nonzero" stroke-dasharray="none" fill="#000000" stroke-miterlimit="4" stroke-width="1px" stroke="none" stroke-linecap="butt" fill-opacity="1" d="M72.166,97.211C72.3,97.125,72.434,97.038,72.567,96.948L78.366,93.026L85.363,92.791C90.126,92.63,94.467,90.358,97.318,86.748L112.241,112.594L95.962,111.413L88.846,126.101L72.166,97.211ZM72.166,97.211"/>
  <path fill-opacity="1" stroke-miterlimit="4" stroke-linecap="butt" stroke-linejoin="miter" fill="#000000" stroke-dasharray="none" stroke-width="1px" stroke="none" stroke-opacity="1" fill-rule="nonzero" d="M29.98,86.745C32.831,90.357,37.174,92.631,41.939,92.791L48.936,93.026L54.735,96.949C54.866,97.037,54.999,97.124,55.132,97.209L38.451,126.101L31.334,111.413L15.056,112.595L29.98,86.745ZM29.98,86.745"/>
  <path clip-rule="evenodd" stroke-opacity="1" fill-rule="evenodd" fill-opacity="1" fill="#000000" stroke-linejoin="miter" stroke="none" stroke-linecap="butt" stroke-dasharray="none" stroke-miterlimit="4" stroke-width="1px" d="M66.623,7.314C64.827,6.1,62.474,6.1,60.679,7.314L53.614,12.094C52.786,12.653,51.818,12.968,50.82,13.001L42.295,13.288C40.128,13.361,38.224,14.744,37.486,16.782L34.579,24.801C34.239,25.74,33.64,26.564,32.853,27.177L26.124,32.42C24.414,33.752,23.687,35.99,24.287,38.073L26.649,46.269C26.926,47.229,26.926,48.247,26.649,49.207L24.287,57.403C23.687,59.485,24.414,61.724,26.124,63.056L32.853,68.298C33.64,68.912,34.239,69.736,34.579,70.675L37.486,78.694C38.224,80.732,40.128,82.115,42.295,82.188L50.82,82.474C51.818,82.508,52.786,82.822,53.614,83.382L60.679,88.161C62.474,89.376,64.827,89.376,66.623,88.161L73.687,83.382C74.515,82.822,75.483,82.508,76.482,82.474L85.007,82.188C87.173,82.115,89.077,80.732,89.816,78.694L92.722,70.675C93.062,69.736,93.661,68.912,94.449,68.298L101.177,63.056C102.887,61.724,103.614,59.485,103.014,57.403L100.652,49.207C100.375,48.247,100.375,47.229,100.652,46.269L103.014,38.073C103.614,35.99,102.887,33.752,101.177,32.42L94.449,27.177C93.661,26.564,93.062,25.74,92.722,24.801L89.816,16.782C89.077,14.744,87.172,13.361,85.007,13.288L76.482,13.001C75.483,12.968,74.515,12.653,73.687,12.094L66.623,7.314ZM63.651,74.259C78.298,74.259,90.172,62.385,90.172,47.738C90.172,33.091,78.298,21.217,63.651,21.217C49.004,21.217,37.13,33.091,37.13,47.738C37.13,62.385,49.004,74.259,63.651,74.259ZM63.651,74.259"/>
</g>
  <g id="Regular-L" transform="matrix(1.0,0.0,0.0,1.0,1387.4791949514179,1455.591595161502)">  <path stroke-dasharray="none" fill-opacity="1" stroke-opacity="1" stroke-linecap="butt" stroke="none" stroke-linejoin="miter" fill="#000000" fill-rule="nonzero" stroke-miterlimit="4" stroke-width="1px" d="M72.166,97.211C72.3,97.125,72.434,97.038,72.567,96.948L78.366,93.026L85.363,92.791C90.126,92.63,94.467,90.358,97.318,86.748L112.241,112.594L95.962,111.413L88.846,126.101L72.166,97.211ZM72.166,97.211"/>
  <path fill-rule="nonzero" stroke-linecap="butt" stroke-width="1px" stroke-dasharray="none" stroke-opacity="1" stroke-miterlimit="4" fill="#000000" fill-opacity="1" stroke-linejoin="miter" stroke="none" d="M29.98,86.745C32.831,90.357,37.174,92.631,41.939,92.791L48.936,93.026L54.735,96.949C54.866,97.037,54.999,97.124,55.132,97.209L38.451,126.101L31.334,111.413L15.056,112.595L29.98,86.745ZM29.98,86.745"/>
  <path stroke="none" stroke-linejoin="miter" stroke-linecap="butt" fill-opacity="1" fill="#000000" stroke-width="1px" stroke-opacity="1" clip-rule="evenodd" stroke-dasharray="none" stroke-miterlimit="4" fill-rule="evenodd" d="M66.623,7.314C64.827,6.1,62.474,6.1,60.679,7.314L53.614,12.094C52.786,12.653,51.818,12.968,50.82,13.001L42.295,13.288C40.128,13.361,38.224,14.744,37.486,16.782L34.579,24.801C34.239,25.74,33.64,26.564,32.853,27.177L26.124,32.42C24.414,33.752,23.687,35.99,24.287,38.073L26.649,46.269C26.926,47.229,26.926,48.247,26.649,49.207L24.287,57.403C23.687,59.485,24.414,61.724,26.124,63.056L32.853,68.298C33.64,68.912,34.239,69.736,34.579,70.675L37.486,78.694C38.224,80.732,40.128,82.115,42.295,82.188L50.82,82.474C51.818,82.508,52.786,82.822,53.614,83.382L60.679,88.161C62.474,89.376,64.827,89.376,66.623,88.161L73.687,83.382C74.515,82.822,75.483,82.508,76.482,82.474L85.007,82.188C87.173,82.115,89.077,80.732,89.816,78.694L92.722,70.675C93.062,69.736,93.661,68.912,94.449,68.298L101.177,63.056C102.887,61.724,103.614,59.485,103.014,57.403L100.652,49.207C100.375,48.247,100.375,47.229,100.652,46.269L103.014,38.073C103.614,35.99,102.887,33.752,101.177,32.42L94.449,27.177C93.661,26.564,93.062,25.74,92.722,24.801L89.816,16.782C89.077,14.744,87.172,13.361,85.007,13.288L76.482,13.001C75.483,12.968,74.515,12.653,73.687,12.094L66.623,7.314ZM63.651,74.259C78.298,74.259,90.172,62.385,90.172,47.738C90.172,33.091,78.298,21.217,63.651,21.217C49.004,21.217,37.13,33.091,37.13,47.738C37.13,62.385,49.004,74.259,63.651,74.259ZM63.651,74.259"/>
</g>
  <g id="Light-L" transform="matrix(1.0,0.0,0.0,1.0,1090.769194951418,1455.591595161502)">  <path stroke-linejoin="miter" fill="#000000" stroke-opacity="1" fill-rule="nonzero" stroke-miterlimit="4" stroke="none" stroke-width="1px" fill-opacity="1" stroke-dasharray="none" stroke-linecap="butt" d="M72.166,97.211C72.3,97.125,72.434,97.038,72.567,96.948L78.366,93.026L85.363,92.791C90.126,92.63,94.467,90.358,97.318,86.748L112.241,112.594L95.962,111.413L88.846,126.101L72.166,97.211ZM72.166,97.211"/>
  <path fill="#000000" fill-rule="nonzero" stroke-miterlimit="4" stroke-opacity="1" stroke="none" stroke-linejoin="miter" stroke-linecap="butt" fill-opacity="1" stroke-width="1px" stroke-dasharray="none" d="M29.98,86.745C32.831,90.357,37.174,92.631,41.939,92.791L48.936,93.026L54.735,96.949C54.866,97.037,54.999,97.124,55.132,97.209L38.451,126.101L31.334,111.413L15.056,112.595L29.98,86.745ZM29.98,86.745"/>
  <path stroke-miterlimit="4" fill-opacity="1" stroke-linejoin="miter" clip-rule="evenodd" stroke-dasharray="none" fill="#000000" fill-rule="evenodd" stroke-width="1px" stroke-linecap="butt" stroke-opacity="1" stroke="none" d="M66.623,7.314C64.827,6.1,62.474,6.1,60.679,7.314L53.614,12.094C52.786,12.653,51.818,12.968,50.82,13.001L42.295,13.288C40.128,13.361,38.224,14.744,37.486,16.782L34.579,24.801C34.239,25.74,33.64,26.564,32.853,27.177L26.124,32.42C24.414,33.752,23.687,35.99,24.287,38.073L26.649,46.269C26.926,47.229,26.926,48.247,26.649,49.207L24.287,57.403C23.687,59.485,24.414,61.724,26.124,63.056L32.853,68.298C33.64,68.912,34.239,69.736,34.579,70.675L37.486,78.694C38.224,80.732,40.128,82.115,42.295,82.188L50.82,82.474C51.818,82.508,52.786,82.822,53.614,83.382L60.679,88.161C62.474,89.376,64.827,89.376,66.623,88.161L73.687,83.382C74.515,82.822,75.483,82.508,76.482,82.474L85.007,82.188C87.173,82.115,89.077,80.732,89.816,78.694L92.722,70.675C93.062,69.736,93.661,68.912,94.449,68.298L101.177,63.056C102.887,61.724,103.614,59.485,103.014,57.403L100.652,49.207C100.375,48.247,100.375,47.229,100.652,46.269L103.014,38.073C103.614,35.99,102.887,33.752,101.177,32.42L94.449,27.177C93.661,26.564,93.062,25.74,92.722,24.801L89.816,16.782C89.077,14.744,87.172,13.361,85.007,13.288L76.482,13.001C75.483,12.968,74.515,12.653,73.687,12.094L66.623,7.314ZM63.651,74.259C78.298,74.259,90.172,62.385,90.172,47.738C90.172,33.091,78.298,21.217,63.651,21.217C49.004,21.217,37.13,33.091,37.13,47.738C37.13,62.385,49.004,74.259,63.651,74.259ZM63.651,74.259"/>
</g>
  <g id="Thin-L" transform="matrix(1.0,0.0,0.0,1.0,794.0591949514181,1455.591595161502)">  <path stroke="none" fill-rule="nonzero" stroke-opacity="1" stroke-miterlimit="4" fill="#000000" stroke-linejoin="miter" stroke-dasharray="none" stroke-width="1px" fill-opacity="1" stroke-linecap="butt" d="M72.166,97.211C72.3,97.125,72.434,97.038,72.567,96.948L78.366,93.026L85.363,92.791C90.126,92.63,94.467,90.358,97.318,86.748L112.241,112.594L95.962,111.413L88.846,126.101L72.166,97.211ZM72.166,97.211"/>
  <path stroke-width="1px" stroke-linejoin="miter" fill="#000000" stroke-opacity="1" stroke-dasharray="none" fill-opacity="1" stroke-miterlimit="4" fill-rule="nonzero" stroke="none" stroke-linecap="butt" d="M29.98,86.745C32.831,90.357,37.174,92.631,41.939,92.791L48.936,93.026L54.735,96.949C54.866,97.037,54.999,97.124,55.132,97.209L38.451,126.101L31.334,111.413L15.056,112.595L29.98,86.745ZM29.98,86.745"/>
  <path stroke-miterlimit="4" stroke-linecap="butt" stroke-opacity="1" stroke-width="1px" fill-opacity="1" stroke-dasharray="none" clip-rule="evenodd" stroke-linejoin="miter" fill="#000000" fill-rule="evenodd" stroke="none" d="M66.623,7.314C64.827,6.1,62.474,6.1,60.679,7.314L53.614,12.094C52.786,12.653,51.818,12.968,50.82,13.001L42.295,13.288C40.128,13.361,38.224,14.744,37.486,16.782L34.579,24.801C34.239,25.74,33.64,26.564,32.853,27.177L26.124,32.42C24.414,33.752,23.687,35.99,24.287,38.073L26.649,46.269C26.926,47.229,26.926,48.247,26.649,49.207L24.287,57.403C23.687,59.485,24.414,61.724,26.124,63.056L32.853,68.298C33.64,68.912,34.239,69.736,34.579,70.675L37.486,78.694C38.224,80.732,40.128,82.115,42.295,82.188L50.82,82.474C51.818,82.508,52.786,82.822,53.614,83.382L60.679,88.161C62.474,89.376,64.827,89.376,66.623,88.161L73.687,83.382C74.515,82.822,75.483,82.508,76.482,82.474L85.007,82.188C87.173,82.115,89.077,80.732,89.816,78.694L92.722,70.675C93.062,69.736,93.661,68.912,94.449,68.298L101.177,63.056C102.887,61.724,103.614,59.485,103.014,57.403L100.652,49.207C100.375,48.247,100.375,47.229,100.652,46.269L103.014,38.073C103.614,35.99,102.887,33.752,101.177,32.42L94.449,27.177C93.661,26.564,93.062,25.74,92.722,24.801L89.816,16.782C89.077,14.744,87.172,13.361,85.007,13.288L76.482,13.001C75.483,12.968,74.515,12.653,73.687,12.094L66.623,7.314ZM63.651,74.259C78.298,74.259,90.172,62.385,90.172,47.738C90.172,33.091,78.298,21.217,63.651,21.217C49.004,21.217,37.13,33.091,37.13,47.738C37.13,62.385,49.004,74.259,63.651,74.259ZM63.651,74.259"/>
</g>
  <g id="Ultralight-L" transform="matrix(1.0,0.0,0.0,1.0,497.34919495141804,1455.591595161502)">  <path fill-rule="nonzero" fill="#000000" stroke-width="1px" stroke-linejoin="miter" stroke-dasharray="none" stroke-miterlimit="4" stroke-opacity="1" fill-opacity="1" stroke-linecap="butt" stroke="none" d="M72.166,97.211C72.3,97.125,72.434,97.038,72.567,96.948L78.366,93.026L85.363,92.791C90.126,92.63,94.467,90.358,97.318,86.748L112.241,112.594L95.962,111.413L88.846,126.101L72.166,97.211ZM72.166,97.211"/>
  <path fill="#000000" stroke-linejoin="miter" fill-opacity="1" stroke="none" stroke-width="1px" stroke-miterlimit="4" fill-rule="nonzero" stroke-dasharray="none" stroke-linecap="butt" stroke-opacity="1" d="M29.98,86.745C32.831,90.357,37.174,92.631,41.939,92.791L48.936,93.026L54.735,96.949C54.866,97.037,54.999,97.124,55.132,97.209L38.451,126.101L31.334,111.413L15.056,112.595L29.98,86.745ZM29.98,86.745"/>
  <path stroke-linejoin="miter" stroke-width="1px" clip-rule="evenodd" stroke-miterlimit="4" fill-rule="evenodd" stroke-linecap="butt" stroke-dasharray="none" stroke-opacity="1" fill-opacity="1" fill="#000000" stroke="none" d="M66.623,7.314C64.827,6.1,62.474,6.1,60.679,7.314L53.614,12.094C52.786,12.653,51.818,12.968,50.82,13.001L42.295,13.288C40.128,13.361,38.224,14.744,37.486,16.782L34.579,24.801C34.239,25.74,33.64,26.564,32.853,27.177L26.124,32.42C24.414,33.752,23.687,35.99,24.287,38.073L26.649,46.269C26.926,47.229,26.926,48.247,26.649,49.207L24.287,57.403C23.687,59.485,24.414,61.724,26.124,63.056L32.853,68.298C33.64,68.912,34.239,69.736,34.579,70.675L37.486,78.694C38.224,80.732,40.128,82.115,42.295,82.188L50.82,82.474C51.818,82.508,52.786,82.822,53.614,83.382L60.679,88.161C62.474,89.376,64.827,89.376,66.623,88.161L73.687,83.382C74.515,82.822,75.483,82.508,76.482,82.474L85.007,82.188C87.173,82.115,89.077,80.732,89.816,78.694L92.722,70.675C93.062,69.736,93.661,68.912,94.449,68.298L101.177,63.056C102.887,61.724,103.614,59.485,103.014,57.403L100.652,49.207C100.375,48.247,100.375,47.229,100.652,46.269L103.014,38.073C103.614,35.99,102.887,33.752,101.177,32.42L94.449,27.177C93.661,26.564,93.062,25.74,92.722,24.801L89.816,16.782C89.077,14.744,87.172,13.361,85.007,13.288L76.482,13.001C75.483,12.968,74.515,12.653,73.687,12.094L66.623,7.314ZM63.651,74.259C78.298,74.259,90.172,62.385,90.172,47.738C90.172,33.091,78.298,21.217,63.651,21.217C49.004,21.217,37.13,33.091,37.13,47.738C37.13,62.385,49.004,74.259,63.651,74.259ZM63.651,74.259"/>
</g>
  <g id="Black-M" transform="matrix(1.0,0.0,0.0,1.0,2885.3382906600136,1040.2441091671044)">  <path stroke-linejoin="miter" stroke="none" fill-opacity="1" stroke-miterlimit="4" fill="#000000" stroke-opacity="1" fill-rule="nonzero" stroke-linecap="butt" stroke-width="1px" stroke-dasharray="none" d="M55.942,75.357C56.047,75.291,56.15,75.223,56.253,75.154L60.749,72.113L66.173,71.931C69.865,71.807,73.23,70.045,75.441,67.247L87.008,87.282L74.389,86.367L68.873,97.753L55.942,75.357ZM55.942,75.357"/>
  <path fill-rule="nonzero" stroke-linecap="butt" stroke-linejoin="miter" stroke-opacity="1" stroke-miterlimit="4" stroke-dasharray="none" fill="#000000" stroke-width="1px" fill-opacity="1" stroke="none" d="M23.241,67.244C25.451,70.044,28.817,71.807,32.511,71.931L37.935,72.113L42.43,75.154C42.532,75.223,42.635,75.29,42.738,75.355L29.807,97.753L24.29,86.367L11.671,87.283L23.241,67.244ZM23.241,67.244"/>
  <path clip-rule="evenodd" stroke-linejoin="miter" stroke-width="1px" stroke-opacity="1" stroke-miterlimit="4" fill-rule="evenodd" stroke="none" fill="#000000" fill-opacity="1" stroke-linecap="butt" stroke-dasharray="none" d="M51.646,5.67C50.254,4.729,48.429,4.729,47.038,5.67L41.561,9.375C40.92,9.809,40.169,10.053,39.395,10.079L32.787,10.301C31.107,10.357,29.631,11.429,29.059,13.009L26.806,19.225C26.542,19.953,26.078,20.592,25.467,21.068L20.251,25.132C18.926,26.164,18.362,27.899,18.827,29.514L20.658,35.867C20.873,36.611,20.873,37.401,20.658,38.145L18.827,44.498C18.362,46.113,18.926,47.848,20.251,48.881L25.467,52.944C26.078,53.42,26.542,54.059,26.806,54.787L29.059,61.003C29.631,62.583,31.107,63.655,32.787,63.712L39.395,63.934C40.169,63.96,40.92,64.203,41.561,64.637L47.038,68.342C48.429,69.284,50.254,69.284,51.646,68.342L57.122,64.637C57.764,64.203,58.514,63.96,59.288,63.934L65.897,63.712C67.576,63.655,69.052,62.583,69.624,61.003L71.877,54.787C72.141,54.059,72.605,53.42,73.216,52.944L78.432,48.881C79.757,47.848,80.321,46.113,79.856,44.498L78.025,38.145C77.81,37.401,77.81,36.611,78.025,35.868L79.856,29.514C80.321,27.899,79.757,26.164,78.432,25.132L73.216,21.068C72.605,20.592,72.141,19.953,71.877,19.225L69.624,13.009C69.052,11.429,67.576,10.357,65.897,10.301L59.288,10.079C58.514,10.053,57.764,9.809,57.122,9.375L51.646,5.67ZM49.342,57.565C60.696,57.565,69.901,48.361,69.901,37.006C69.901,25.652,60.696,16.447,49.342,16.447C37.987,16.447,28.783,25.652,28.783,37.006C28.783,48.361,37.987,57.565,49.342,57.565ZM49.342,57.565"/>
</g>
  <g id="Heavy-M" transform="matrix(1.0,0.0,0.0,1.0,2588.6282906600136,1040.2441091671044)">  <path stroke-dasharray="none" fill-opacity="1" stroke-width="1px" fill="#000000" fill-rule="nonzero" stroke-linejoin="miter" stroke-opacity="1" stroke="none" stroke-linecap="butt" stroke-miterlimit="4" d="M55.942,75.357C56.047,75.291,56.15,75.223,56.253,75.154L60.749,72.113L66.173,71.931C69.865,71.807,73.23,70.045,75.441,67.247L87.008,87.282L74.389,86.367L68.873,97.753L55.942,75.357ZM55.942,75.357"/>
  <path stroke-linejoin="miter" stroke-opacity="1" fill="#000000" fill-rule="nonzero" stroke-miterlimit="4" stroke="none" stroke-width="1px" fill-opacity="1" stroke-dasharray="none" stroke-linecap="butt" d="M23.241,67.244C25.451,70.044,28.817,71.807,32.511,71.931L37.935,72.113L42.43,75.154C42.532,75.223,42.635,75.29,42.738,75.355L29.807,97.753L24.29,86.367L11.671,87.283L23.241,67.244ZM23.241,67.244"/>
  <path fill="#000000" stroke-dasharray="none" fill-rule="evenodd" stroke-linejoin="miter" stroke-miterlimit="4" stroke-opacity="1" stroke-linecap="butt" fill-opacity="1" stroke-width="1px" clip-rule="evenodd" stroke="none" d="M51.646,5.67C50.254,4.729,48.429,4.729,47.038,5.67L41.561,9.375C40.92,9.809,40.169,10.053,39.395,10.079L32.787,10.301C31.107,10.357,29.631,11.429,29.059,13.009L26.806,19.225C26.542,19.953,26.078,20.592,25.467,21.068L20.251,25.132C18.926,26.164,18.362,27.899,18.827,29.514L20.658,35.867C20.873,36.611,20.873,37.401,20.658,38.145L18.827,44.498C18.362,46.113,18.926,47.848,20.251,48.881L25.467,52.944C26.078,53.42,26.542,54.059,26.806,54.787L29.059,61.003C29.631,62.583,31.107,63.655,32.787,63.712L39.395,63.934C40.169,63.96,40.92,64.203,41.561,64.637L47.038,68.342C48.429,69.284,50.254,69.284,51.646,68.342L57.122,64.637C57.764,64.203,58.514,63.96,59.288,63.934L65.897,63.712C67.576,63.655,69.052,62.583,69.624,61.003L71.877,54.787C72.141,54.059,72.605,53.42,73.216,52.944L78.432,48.881C79.757,47.848,80.321,46.113,79.856,44.498L78.025,38.145C77.81,37.401,77.81,36.611,78.025,35.868L79.856,29.514C80.321,27.899,79.757,26.164,78.432,25.132L73.216,21.068C72.605,20.592,72.141,19.953,71.877,19.225L69.624,13.009C69.052,11.429,67.576,10.357,65.897,10.301L59.288,10.079C58.514,10.053,57.764,9.809,57.122,9.375L51.646,5.67ZM49.342,57.565C60.696,57.565,69.901,48.361,69.901,37.006C69.901,25.652,60.696,16.447,49.342,16.447C37.987,16.447,28.783,25.652,28.783,37.006C28.783,48.361,37.987,57.565,49.342,57.565ZM49.342,57.565"/>
</g>
  <g id="Bold-M" transform="matrix(1.0,0.0,0.0,1.0,2291.9182906600136,1040.2441091671044)">  <path fill="#000000" stroke-width="1px" fill-rule="nonzero" stroke-dasharray="none" stroke-linecap="butt" stroke-miterlimit="4" stroke-linejoin="miter" stroke-opacity="1" stroke="none" fill-opacity="1" d="M55.942,75.357C56.047,75.291,56.15,75.223,56.253,75.154L60.749,72.113L66.173,71.931C69.865,71.807,73.23,70.045,75.441,67.247L87.008,87.282L74.389,86.367L68.873,97.753L55.942,75.357ZM55.942,75.357"/>
  <path stroke-linejoin="miter" stroke-miterlimit="4" fill-rule="nonzero" fill="#000000" fill-opacity="1" stroke-dasharray="none" stroke-linecap="butt" stroke-opacity="1" stroke="none" stroke-width="1px" d="M23.241,67.244C25.451,70.044,28.817,71.807,32.511,71.931L37.935,72.113L42.43,75.154C42.532,75.223,42.635,75.29,42.738,75.355L29.807,97.753L24.29,86.367L11.671,87.283L23.241,67.244ZM23.241,67.244"/>
  <path fill-opacity="1" stroke-miterlimit="4" stroke="none" clip-rule="evenodd" stroke-dasharray="none" stroke-width="1px" fill-rule="evenodd" stroke-linejoin="miter" fill="#000000" stroke-linecap="butt" stroke-opacity="1" d="M51.646,5.67C50.254,4.729,48.429,4.729,47.038,5.67L41.561,9.375C40.92,9.809,40.169,10.053,39.395,10.079L32.787,10.301C31.107,10.357,29.631,11.429,29.059,13.009L26.806,19.225C26.542,19.953,26.078,20.592,25.467,21.068L20.251,25.132C18.926,26.164,18.362,27.899,18.827,29.514L20.658,35.867C20.873,36.611,20.873,37.401,20.658,38.145L18.827,44.498C18.362,46.113,18.926,47.848,20.251,48.881L25.467,52.944C26.078,53.42,26.542,54.059,26.806,54.787L29.059,61.003C29.631,62.583,31.107,63.655,32.787,63.712L39.395,63.934C40.169,63.96,40.92,64.203,41.561,64.637L47.038,68.342C48.429,69.284,50.254,69.284,51.646,68.342L57.122,64.637C57.764,64.203,58.514,63.96,59.288,63.934L65.897,63.712C67.576,63.655,69.052,62.583,69.624,61.003L71.877,54.787C72.141,54.059,72.605,53.42,73.216,52.944L78.432,48.881C79.757,47.848,80.321,46.113,79.856,44.498L78.025,38.145C77.81,37.401,77.81,36.611,78.025,35.868L79.856,29.514C80.321,27.899,79.757,26.164,78.432,25.132L73.216,21.068C72.605,20.592,72.141,19.953,71.877,19.225L69.624,13.009C69.052,11.429,67.576,10.357,65.897,10.301L59.288,10.079C58.514,10.053,57.764,9.809,57.122,9.375L51.646,5.67ZM49.342,57.565C60.696,57.565,69.901,48.361,69.901,37.006C69.901,25.652,60.696,16.447,49.342,16.447C37.987,16.447,28.783,25.652,28.783,37.006C28.783,48.361,37.987,57.565,49.342,57.565ZM49.342,57.565"/>
</g>
  <g id="Semibold-M" transform="matrix(1.0,0.0,0.0,1.0,1995.208290660014,1040.2441091671044)">  <path fill-rule="nonzero" stroke="none" stroke-miterlimit="4" fill-opacity="1" stroke-linecap="butt" stroke-opacity="1" fill="#000000" stroke-width="1px" stroke-dasharray="none" stroke-linejoin="miter" d="M55.942,75.357C56.047,75.291,56.15,75.223,56.253,75.154L60.749,72.113L66.173,71.931C69.865,71.807,73.23,70.045,75.441,67.247L87.008,87.282L74.389,86.367L68.873,97.753L55.942,75.357ZM55.942,75.357"/>
  <path stroke-linejoin="miter" stroke="none" fill="#000000" stroke-width="1px" stroke-dasharray="none" stroke-linecap="butt" fill-rule="nonzero" stroke-miterlimit="4" stroke-opacity="1" fill-opacity="1" d="M23.241,67.244C25.451,70.044,28.817,71.807,32.511,71.931L37.935,72.113L42.43,75.154C42.532,75.223,42.635,75.29,42.738,75.355L29.807,97.753L24.29,86.367L11.671,87.283L23.241,67.244ZM23.241,67.244"/>
  <path fill-opacity="1" stroke-linecap="butt" stroke-miterlimit="4" stroke-width="1px" stroke-opacity="1" stroke-dasharray="none" stroke-linejoin="miter" fill-rule="evenodd" stroke="none" fill="#000000" clip-rule="evenodd" d="M51.646,5.67C50.254,4.729,48.429,4.729,47.038,5.67L41.561,9.375C40.92,9.809,40.169,10.053,39.395,10.079L32.787,10.301C31.107,10.357,29.631,11.429,29.059,13.009L26.806,19.225C26.542,19.953,26.078,20.592,25.467,21.068L20.251,25.132C18.926,26.164,18.362,27.899,18.827,29.514L20.658,35.867C20.873,36.611,20.873,37.401,20.658,38.145L18.827,44.498C18.362,46.113,18.926,47.848,20.251,48.881L25.467,52.944C26.078,53.42,26.542,54.059,26.806,54.787L29.059,61.003C29.631,62.583,31.107,63.655,32.787,63.712L39.395,63.934C40.169,63.96,40.92,64.203,41.561,64.637L47.038,68.342C48.429,69.284,50.254,69.284,51.646,68.342L57.122,64.637C57.764,64.203,58.514,63.96,59.288,63.934L65.897,63.712C67.576,63.655,69.052,62.583,69.624,61.003L71.877,54.787C72.141,54.059,72.605,53.42,73.216,52.944L78.432,48.881C79.757,47.848,80.321,46.113,79.856,44.498L78.025,38.145C77.81,37.401,77.81,36.611,78.025,35.868L79.856,29.514C80.321,27.899,79.757,26.164,78.432,25.132L73.216,21.068C72.605,20.592,72.141,19.953,71.877,19.225L69.624,13.009C69.052,11.429,67.576,10.357,65.897,10.301L59.288,10.079C58.514,10.053,57.764,9.809,57.122,9.375L51.646,5.67ZM49.342,57.565C60.696,57.565,69.901,48.361,69.901,37.006C69.901,25.652,60.696,16.447,49.342,16.447C37.987,16.447,28.783,25.652,28.783,37.006C28.783,48.361,37.987,57.565,49.342,57.565ZM49.342,57.565"/>
</g>
  <g id="Medium-M" transform="matrix(1.0,0.0,0.0,1.0,1698.498290660014,1040.2441091671044)">  <path stroke-linejoin="miter" stroke-opacity="1" fill-rule="nonzero" stroke-dasharray="none" fill="#000000" stroke-miterlimit="4" stroke-width="1px" stroke="none" stroke-linecap="butt" fill-opacity="1" d="M55.942,75.357C56.047,75.291,56.15,75.223,56.253,75.154L60.749,72.113L66.173,71.931C69.865,71.807,73.23,70.045,75.441,67.247L87.008,87.282L74.389,86.367L68.873,97.753L55.942,75.357ZM55.942,75.357"/>
  <path fill-opacity="1" stroke-miterlimit="4" stroke-linecap="butt" stroke-linejoin="miter" fill="#000000" stroke-dasharray="none" stroke-width="1px" stroke="none" stroke-opacity="1" fill-rule="nonzero" d="M23.241,67.244C25.451,70.044,28.817,71.807,32.511,71.931L37.935,72.113L42.43,75.154C42.532,75.223,42.635,75.29,42.738,75.355L29.807,97.753L24.29,86.367L11.671,87.283L23.241,67.244ZM23.241,67.244"/>
  <path clip-rule="evenodd" stroke-opacity="1" fill-rule="evenodd" fill-opacity="1" fill="#000000" stroke-linejoin="miter" stroke="none" stroke-linecap="butt" stroke-dasharray="none" stroke-miterlimit="4" stroke-width="1px" d="M51.646,5.67C50.254,4.729,48.429,4.729,47.038,5.67L41.561,9.375C40.92,9.809,40.169,10.053,39.395,10.079L32.787,10.301C31.107,10.357,29.631,11.429,29.059,13.009L26.806,19.225C26.542,19.953,26.078,20.592,25.467,21.068L20.251,25.132C18.926,26.164,18.362,27.899,18.827,29.514L20.658,35.867C20.873,36.611,20.873,37.401,20.658,38.145L18.827,44.498C18.362,46.113,18.926,47.848,20.251,48.881L25.467,52.944C26.078,53.42,26.542,54.059,26.806,54.787L29.059,61.003C29.631,62.583,31.107,63.655,32.787,63.712L39.395,63.934C40.169,63.96,40.92,64.203,41.561,64.637L47.038,68.342C48.429,69.284,50.254,69.284,51.646,68.342L57.122,64.637C57.764,64.203,58.514,63.96,59.288,63.934L65.897,63.712C67.576,63.655,69.052,62.583,69.624,61.003L71.877,54.787C72.141,54.059,72.605,53.42,73.216,52.944L78.432,48.881C79.757,47.848,80.321,46.113,79.856,44.498L78.025,38.145C77.81,37.401,77.81,36.611,78.025,35.868L79.856,29.514C80.321,27.899,79.757,26.164,78.432,25.132L73.216,21.068C72.605,20.592,72.141,19.953,71.877,19.225L69.624,13.009C69.052,11.429,67.576,10.357,65.897,10.301L59.288,10.079C58.514,10.053,57.764,9.809,57.122,9.375L51.646,5.67ZM49.342,57.565C60.696,57.565,69.901,48.361,69.901,37.006C69.901,25.652,60.696,16.447,49.342,16.447C37.987,16.447,28.783,25.652,28.783,37.006C28.783,48.361,37.987,57.565,49.342,57.565ZM49.342,57.565"/>
</g>
  <g id="Regular-M" transform="matrix(1.0,0.0,0.0,1.0,1401.788290660014,1040.2441091671044)">  <path stroke-dasharray="none" fill-opacity="1" stroke-opacity="1" stroke-linecap="butt" stroke="none" stroke-linejoin="miter" fill="#000000" fill-rule="nonzero" stroke-miterlimit="4" stroke-width="1px" d="M55.942,75.357C56.047,75.291,56.15,75.223,56.253,75.154L60.749,72.113L66.173,71.931C69.865,71.807,73.23,70.045,75.441,67.247L87.008,87.282L74.389,86.367L68.873,97.753L55.942,75.357ZM55.942,75.357"/>
  <path fill-rule="nonzero" stroke-linecap="butt" stroke-width="1px" stroke-dasharray="none" stroke-opacity="1" stroke-miterlimit="4" fill="#000000" fill-opacity="1" stroke-linejoin="miter" stroke="none" d="M23.241,67.244C25.451,70.044,28.817,71.807,32.511,71.931L37.935,72.113L42.43,75.154C42.532,75.223,42.635,75.29,42.738,75.355L29.807,97.753L24.29,86.367L11.671,87.283L23.241,67.244ZM23.241,67.244"/>
  <path stroke="none" stroke-linejoin="miter" stroke-linecap="butt" fill-opacity="1" fill="#000000" stroke-width="1px" stroke-opacity="1" clip-rule="evenodd" stroke-dasharray="none" stroke-miterlimit="4" fill-rule="evenodd" d="M51.646,5.67C50.254,4.729,48.429,4.729,47.038,5.67L41.561,9.375C40.92,9.809,40.169,10.053,39.395,10.079L32.787,10.301C31.107,10.357,29.631,11.429,29.059,13.009L26.806,19.225C26.542,19.953,26.078,20.592,25.467,21.068L20.251,25.132C18.926,26.164,18.362,27.899,18.827,29.514L20.658,35.867C20.873,36.611,20.873,37.401,20.658,38.145L18.827,44.498C18.362,46.113,18.926,47.848,20.251,48.881L25.467,52.944C26.078,53.42,26.542,54.059,26.806,54.787L29.059,61.003C29.631,62.583,31.107,63.655,32.787,63.712L39.395,63.934C40.169,63.96,40.92,64.203,41.561,64.637L47.038,68.342C48.429,69.284,50.254,69.284,51.646,68.342L57.122,64.637C57.764,64.203,58.514,63.96,59.288,63.934L65.897,63.712C67.576,63.655,69.052,62.583,69.624,61.003L71.877,54.787C72.141,54.059,72.605,53.42,73.216,52.944L78.432,48.881C79.757,47.848,80.321,46.113,79.856,44.498L78.025,38.145C77.81,37.401,77.81,36.611,78.025,35.868L79.856,29.514C80.321,27.899,79.757,26.164,78.432,25.132L73.216,21.068C72.605,20.592,72.141,19.953,71.877,19.225L69.624,13.009C69.052,11.429,67.576,10.357,65.897,10.301L59.288,10.079C58.514,10.053,57.764,9.809,57.122,9.375L51.646,5.67ZM49.342,57.565C60.696,57.565,69.901,48.361,69.901,37.006C69.901,25.652,60.696,16.447,49.342,16.447C37.987,16.447,28.783,25.652,28.783,37.006C28.783,48.361,37.987,57.565,49.342,57.565ZM49.342,57.565"/>
</g>
  <g id="Light-M" transform="matrix(1.0,0.0,0.0,1.0,1105.078290660014,1040.2441091671044)">  <path stroke-linejoin="miter" fill="#000000" stroke-opacity="1" fill-rule="nonzero" stroke-miterlimit="4" stroke="none" stroke-width="1px" fill-opacity="1" stroke-dasharray="none" stroke-linecap="butt" d="M55.942,75.357C56.047,75.291,56.15,75.223,56.253,75.154L60.749,72.113L66.173,71.931C69.865,71.807,73.23,70.045,75.441,67.247L87.008,87.282L74.389,86.367L68.873,97.753L55.942,75.357ZM55.942,75.357"/>
  <path fill="#000000" fill-rule="nonzero" stroke-miterlimit="4" stroke-opacity="1" stroke="none" stroke-linejoin="miter" stroke-linecap="butt" fill-opacity="1" stroke-width="1px" stroke-dasharray="none" d="M23.241,67.244C25.451,70.044,28.817,71.807,32.511,71.931L37.935,72.113L42.43,75.154C42.532,75.223,42.635,75.29,42.738,75.355L29.807,97.753L24.29,86.367L11.671,87.283L23.241,67.244ZM23.241,67.244"/>
  <path stroke-miterlimit="4" fill-opacity="1" stroke-linejoin="miter" clip-rule="evenodd" stroke-dasharray="none" fill="#000000" fill-rule="evenodd" stroke-width="1px" stroke-linecap="butt" stroke-opacity="1" stroke="none" d="M51.646,5.67C50.254,4.729,48.429,4.729,47.038,5.67L41.561,9.375C40.92,9.809,40.169,10.053,39.395,10.079L32.787,10.301C31.107,10.357,29.631,11.429,29.059,13.009L26.806,19.225C26.542,19.953,26.078,20.592,25.467,21.068L20.251,25.132C18.926,26.164,18.362,27.899,18.827,29.514L20.658,35.867C20.873,36.611,20.873,37.401,20.658,38.145L18.827,44.498C18.362,46.113,18.926,47.848,20.251,48.881L25.467,52.944C26.078,53.42,26.542,54.059,26.806,54.787L29.059,61.003C29.631,62.583,31.107,63.655,32.787,63.712L39.395,63.934C40.169,63.96,40.92,64.203,41.561,64.637L47.038,68.342C48.429,69.284,50.254,69.284,51.646,68.342L57.122,64.637C57.764,64.203,58.514,63.96,59.288,63.934L65.897,63.712C67.576,63.655,69.052,62.583,69.624,61.003L71.877,54.787C72.141,54.059,72.605,53.42,73.216,52.944L78.432,48.881C79.757,47.848,80.321,46.113,79.856,44.498L78.025,38.145C77.81,37.401,77.81,36.611,78.025,35.868L79.856,29.514C80.321,27.899,79.757,26.164,78.432,25.132L73.216,21.068C72.605,20.592,72.141,19.953,71.877,19.225L69.624,13.009C69.052,11.429,67.576,10.357,65.897,10.301L59.288,10.079C58.514,10.053,57.764,9.809,57.122,9.375L51.646,5.67ZM49.342,57.565C60.696,57.565,69.901,48.361,69.901,37.006C69.901,25.652,60.696,16.447,49.342,16.447C37.987,16.447,28.783,25.652,28.783,37.006C28.783,48.361,37.987,57.565,49.342,57.565ZM49.342,57.565"/>
</g>
  <g id="Thin-M" transform="matrix(1.0,0.0,0.0,1.0,808.368290660014,1040.2441091671044)">  <path stroke="none" fill-rule="nonzero" stroke-opacity="1" stroke-miterlimit="4" fill="#000000" stroke-linejoin="miter" stroke-dasharray="none" stroke-width="1px" fill-opacity="1" stroke-linecap="butt" d="M55.942,75.357C56.047,75.291,56.15,75.223,56.253,75.154L60.749,72.113L66.173,71.931C69.865,71.807,73.23,70.045,75.441,67.247L87.008,87.282L74.389,86.367L68.873,97.753L55.942,75.357ZM55.942,75.357"/>
  <path stroke-width="1px" stroke-linejoin="miter" fill="#000000" stroke-opacity="1" stroke-dasharray="none" fill-opacity="1" stroke-miterlimit="4" fill-rule="nonzero" stroke="none" stroke-linecap="butt" d="M23.241,67.244C25.451,70.044,28.817,71.807,32.511,71.931L37.935,72.113L42.43,75.154C42.532,75.223,42.635,75.29,42.738,75.355L29.807,97.753L24.29,86.367L11.671,87.283L23.241,67.244ZM23.241,67.244"/>
  <path stroke-miterlimit="4" stroke-linecap="butt" stroke-opacity="1" stroke-width="1px" fill-opacity="1" stroke-dasharray="none" clip-rule="evenodd" stroke-linejoin="miter" fill="#000000" fill-rule="evenodd" stroke="none" d="M51.646,5.67C50.254,4.729,48.429,4.729,47.038,5.67L41.561,9.375C40.92,9.809,40.169,10.053,39.395,10.079L32.787,10.301C31.107,10.357,29.631,11.429,29.059,13.009L26.806,19.225C26.542,19.953,26.078,20.592,25.467,21.068L20.251,25.132C18.926,26.164,18.362,27.899,18.827,29.514L20.658,35.867C20.873,36.611,20.873,37.401,20.658,38.145L18.827,44.498C18.362,46.113,18.926,47.848,20.251,48.881L25.467,52.944C26.078,53.42,26.542,54.059,26.806,54.787L29.059,61.003C29.631,62.583,31.107,63.655,32.787,63.712L39.395,63.934C40.169,63.96,40.92,64.203,41.561,64.637L47.038,68.342C48.429,69.284,50.254,69.284,51.646,68.342L57.122,64.637C57.764,64.203,58.514,63.96,59.288,63.934L65.897,63.712C67.576,63.655,69.052,62.583,69.624,61.003L71.877,54.787C72.141,54.059,72.605,53.42,73.216,52.944L78.432,48.881C79.757,47.848,80.321,46.113,79.856,44.498L78.025,38.145C77.81,37.401,77.81,36.611,78.025,35.868L79.856,29.514C80.321,27.899,79.757,26.164,78.432,25.132L73.216,21.068C72.605,20.592,72.141,19.953,71.877,19.225L69.624,13.009C69.052,11.429,67.576,10.357,65.897,10.301L59.288,10.079C58.514,10.053,57.764,9.809,57.122,9.375L51.646,5.67ZM49.342,57.565C60.696,57.565,69.901,48.361,69.901,37.006C69.901,25.652,60.696,16.447,49.342,16.447C37.987,16.447,28.783,25.652,28.783,37.006C28.783,48.361,37.987,57.565,49.342,57.565ZM49.342,57.565"/>
</g>
  <g id="Ultralight-M" transform="matrix(1.0,0.0,0.0,1.0,511.658290660014,1040.2441091671044)">  <path fill-rule="nonzero" fill="#000000" stroke-width="1px" stroke-linejoin="miter" stroke-dasharray="none" stroke-miterlimit="4" stroke-opacity="1" fill-opacity="1" stroke-linecap="butt" stroke="none" d="M55.942,75.357C56.047,75.291,56.15,75.223,56.253,75.154L60.749,72.113L66.173,71.931C69.865,71.807,73.23,70.045,75.441,67.247L87.008,87.282L74.389,86.367L68.873,97.753L55.942,75.357ZM55.942,75.357"/>
  <path fill="#000000" stroke-linejoin="miter" fill-opacity="1" stroke="none" stroke-width="1px" stroke-miterlimit="4" fill-rule="nonzero" stroke-dasharray="none" stroke-linecap="butt" stroke-opacity="1" d="M23.241,67.244C25.451,70.044,28.817,71.807,32.511,71.931L37.935,72.113L42.43,75.154C42.532,75.223,42.635,75.29,42.738,75.355L29.807,97.753L24.29,86.367L11.671,87.283L23.241,67.244ZM23.241,67.244"/>
  <path stroke-linejoin="miter" stroke-width="1px" clip-rule="evenodd" stroke-miterlimit="4" fill-rule="evenodd" stroke-linecap="butt" stroke-dasharray="none" stroke-opacity="1" fill-opacity="1" fill="#000000" stroke="none" d="M51.646,5.67C50.254,4.729,48.429,4.729,47.038,5.67L41.561,9.375C40.92,9.809,40.169,10.053,39.395,10.079L32.787,10.301C31.107,10.357,29.631,11.429,29.059,13.009L26.806,19.225C26.542,19.953,26.078,20.592,25.467,21.068L20.251,25.132C18.926,26.164,18.362,27.899,18.827,29.514L20.658,35.867C20.873,36.611,20.873,37.401,20.658,38.145L18.827,44.498C18.362,46.113,18.926,47.848,20.251,48.881L25.467,52.944C26.078,53.42,26.542,54.059,26.806,54.787L29.059,61.003C29.631,62.583,31.107,63.655,32.787,63.712L39.395,63.934C40.169,63.96,40.92,64.203,41.561,64.637L47.038,68.342C48.429,69.284,50.254,69.284,51.646,68.342L57.122,64.637C57.764,64.203,58.514,63.96,59.288,63.934L65.897,63.712C67.576,63.655,69.052,62.583,69.624,61.003L71.877,54.787C72.141,54.059,72.605,53.42,73.216,52.944L78.432,48.881C79.757,47.848,80.321,46.113,79.856,44.498L78.025,38.145C77.81,37.401,77.81,36.611,78.025,35.868L79.856,29.514C80.321,27.899,79.757,26.164,78.432,25.132L73.216,21.068C72.605,20.592,72.141,19.953,71.877,19.225L69.624,13.009C69.052,11.429,67.576,10.357,65.897,10.301L59.288,10.079C58.514,10.053,57.764,9.809,57.122,9.375L51.646,5.67ZM49.342,57.565C60.696,57.565,69.901,48.361,69.901,37.006C69.901,25.652,60.696,16.447,49.342,16.447C37.987,16.447,28.783,25.652,28.783,37.006C28.783,48.361,37.987,57.565,49.342,57.565ZM49.342,57.565"/>
</g>
  <g id="Black-S" transform="matrix(1.0,0.0,0.0,1.0,2896.0454415867907,621.2082317161239)">  <path stroke-linejoin="miter" stroke="none" fill-opacity="1" stroke-miterlimit="4" fill="#000000" stroke-opacity="1" fill-rule="nonzero" stroke-linecap="butt" stroke-width="1px" stroke-dasharray="none" d="M43.803,59.005C43.885,58.953,43.966,58.9,44.046,58.845L47.566,56.464L51.813,56.322C54.705,56.225,57.339,54.845,59.07,52.654L68.128,68.342L58.247,67.625L53.927,76.541L43.803,59.005ZM43.803,59.005"/>
  <path fill-rule="nonzero" stroke-linecap="butt" stroke-linejoin="miter" stroke-opacity="1" stroke-miterlimit="4" stroke-dasharray="none" fill="#000000" stroke-width="1px" fill-opacity="1" stroke="none" d="M18.197,52.652C19.928,54.844,22.564,56.225,25.456,56.322L29.703,56.464L33.223,58.846C33.303,58.899,33.383,58.952,33.464,59.003L23.339,76.541L19.019,67.625L9.139,68.342L18.197,52.652ZM18.197,52.652"/>
  <path clip-rule="evenodd" stroke-linejoin="miter" stroke-width="1px" stroke-opacity="1" stroke-miterlimit="4" fill-rule="evenodd" stroke="none" fill="#000000" fill-opacity="1" stroke-linecap="butt" stroke-dasharray="none" d="M40.438,4.44C39.349,3.703,37.92,3.703,36.831,4.44L32.542,7.341C32.04,7.68,31.452,7.871,30.846,7.892L25.672,8.065C24.357,8.11,23.201,8.949,22.753,10.186L20.989,15.054C20.782,15.623,20.419,16.123,19.941,16.496L15.857,19.678C14.819,20.487,14.377,21.845,14.742,23.109L16.175,28.084C16.343,28.667,16.343,29.285,16.175,29.867L14.742,34.842C14.377,36.106,14.819,37.465,15.857,38.274L19.941,41.456C20.419,41.828,20.782,42.328,20.989,42.898L22.753,47.766C23.201,49.002,24.357,49.842,25.672,49.886L30.846,50.06C31.452,50.08,32.04,50.271,32.542,50.611L36.831,53.512C37.92,54.249,39.349,54.249,40.438,53.512L44.727,50.611C45.229,50.271,45.817,50.08,46.423,50.06L51.597,49.886C52.912,49.842,54.067,49.002,54.516,47.766L56.28,42.898C56.487,42.328,56.85,41.828,57.328,41.456L61.412,38.274C62.45,37.465,62.891,36.106,62.527,34.842L61.093,29.867C60.925,29.285,60.925,28.667,61.093,28.084L62.527,23.109C62.891,21.845,62.45,20.487,61.412,19.678L57.328,16.496C56.85,16.123,56.487,15.623,56.28,15.054L54.516,10.186C54.067,8.949,52.912,8.11,51.597,8.065L46.423,7.892C45.817,7.871,45.229,7.68,44.727,7.341L40.438,4.44ZM38.635,45.074C47.525,45.074,54.732,37.866,54.732,28.976C54.732,20.085,47.525,12.878,38.635,12.878C29.744,12.878,22.537,20.085,22.537,28.976C22.537,37.866,29.744,45.074,38.635,45.074ZM38.635,45.074"/>
</g>
  <g id="Heavy-S" transform="matrix(1.0,0.0,0.0,1.0,2599.3354415867907,621.2082317161239)">  <path stroke-dasharray="none" fill-opacity="1" stroke-width="1px" fill="#000000" fill-rule="nonzero" stroke-linejoin="miter" stroke-opacity="1" stroke="none" stroke-linecap="butt" stroke-miterlimit="4" d="M43.803,59.005C43.885,58.953,43.966,58.9,44.046,58.845L47.566,56.464L51.813,56.322C54.705,56.225,57.339,54.845,59.07,52.654L68.128,68.342L58.247,67.625L53.927,76.541L43.803,59.005ZM43.803,59.005"/>
  <path stroke-linejoin="miter" stroke-opacity="1" fill="#000000" fill-rule="nonzero" stroke-miterlimit="4" stroke="none" stroke-width="1px" fill-opacity="1" stroke-dasharray="none" stroke-linecap="butt" d="M18.197,52.652C19.928,54.844,22.564,56.225,25.456,56.322L29.703,56.464L33.223,58.846C33.303,58.899,33.383,58.952,33.464,59.003L23.339,76.541L19.019,67.625L9.139,68.342L18.197,52.652ZM18.197,52.652"/>
  <path fill="#000000" stroke-dasharray="none" fill-rule="evenodd" stroke-linejoin="miter" stroke-miterlimit="4" stroke-opacity="1" stroke-linecap="butt" fill-opacity="1" stroke-width="1px" clip-rule="evenodd" stroke="none" d="M40.438,4.44C39.349,3.703,37.92,3.703,36.831,4.44L32.542,7.341C32.04,7.68,31.452,7.871,30.846,7.892L25.672,8.065C24.357,8.11,23.201,8.949,22.753,10.186L20.989,15.054C20.782,15.623,20.419,16.123,19.941,16.496L15.857,19.678C14.819,20.487,14.377,21.845,14.742,23.109L16.175,28.084C16.343,28.667,16.343,29.285,16.175,29.867L14.742,34.842C14.377,36.106,14.819,37.465,15.857,38.274L19.941,41.456C20.419,41.828,20.782,42.328,20.989,42.898L22.753,47.766C23.201,49.002,24.357,49.842,25.672,49.886L30.846,50.06C31.452,50.08,32.04,50.271,32.542,50.611L36.831,53.512C37.92,54.249,39.349,54.249,40.438,53.512L44.727,50.611C45.229,50.271,45.817,50.08,46.423,50.06L51.597,49.886C52.912,49.842,54.067,49.002,54.516,47.766L56.28,42.898C56.487,42.328,56.85,41.828,57.328,41.456L61.412,38.274C62.45,37.465,62.891,36.106,62.527,34.842L61.093,29.867C60.925,29.285,60.925,28.667,61.093,28.084L62.527,23.109C62.891,21.845,62.45,20.487,61.412,19.678L57.328,16.496C56.85,16.123,56.487,15.623,56.28,15.054L54.516,10.186C54.067,8.949,52.912,8.11,51.597,8.065L46.423,7.892C45.817,7.871,45.229,7.68,44.727,7.341L40.438,4.44ZM38.635,45.074C47.525,45.074,54.732,37.866,54.732,28.976C54.732,20.085,47.525,12.878,38.635,12.878C29.744,12.878,22.537,20.085,22.537,28.976C22.537,37.866,29.744,45.074,38.635,45.074ZM38.635,45.074"/>
</g>
  <g id="Bold-S" transform="matrix(1.0,0.0,0.0,1.0,2302.6254415867907,621.2082317161239)">  <path fill="#000000" stroke-width="1px" fill-rule="nonzero" stroke-dasharray="none" stroke-linecap="butt" stroke-miterlimit="4" stroke-linejoin="miter" stroke-opacity="1" stroke="none" fill-opacity="1" d="M43.803,59.005C43.885,58.953,43.966,58.9,44.046,58.845L47.566,56.464L51.813,56.322C54.705,56.225,57.339,54.845,59.07,52.654L68.128,68.342L58.247,67.625L53.927,76.541L43.803,59.005ZM43.803,59.005"/>
  <path stroke-linejoin="miter" stroke-miterlimit="4" fill-rule="nonzero" fill="#000000" fill-opacity="1" stroke-dasharray="none" stroke-linecap="butt" stroke-opacity="1" stroke="none" stroke-width="1px" d="M18.197,52.652C19.928,54.844,22.564,56.225,25.456,56.322L29.703,56.464L33.223,58.846C33.303,58.899,33.383,58.952,33.464,59.003L23.339,76.541L19.019,67.625L9.139,68.342L18.197,52.652ZM18.197,52.652"/>
  <path fill-opacity="1" stroke-miterlimit="4" stroke="none" clip-rule="evenodd" stroke-dasharray="none" stroke-width="1px" fill-rule="evenodd" stroke-linejoin="miter" fill="#000000" stroke-linecap="butt" stroke-opacity="1" d="M40.438,4.44C39.349,3.703,37.92,3.703,36.831,4.44L32.542,7.341C32.04,7.68,31.452,7.871,30.846,7.892L25.672,8.065C24.357,8.11,23.201,8.949,22.753,10.186L20.989,15.054C20.782,15.623,20.419,16.123,19.941,16.496L15.857,19.678C14.819,20.487,14.377,21.845,14.742,23.109L16.175,28.084C16.343,28.667,16.343,29.285,16.175,29.867L14.742,34.842C14.377,36.106,14.819,37.465,15.857,38.274L19.941,41.456C20.419,41.828,20.782,42.328,20.989,42.898L22.753,47.766C23.201,49.002,24.357,49.842,25.672,49.886L30.846,50.06C31.452,50.08,32.04,50.271,32.542,50.611L36.831,53.512C37.92,54.249,39.349,54.249,40.438,53.512L44.727,50.611C45.229,50.271,45.817,50.08,46.423,50.06L51.597,49.886C52.912,49.842,54.067,49.002,54.516,47.766L56.28,42.898C56.487,42.328,56.85,41.828,57.328,41.456L61.412,38.274C62.45,37.465,62.891,36.106,62.527,34.842L61.093,29.867C60.925,29.285,60.925,28.667,61.093,28.084L62.527,23.109C62.891,21.845,62.45,20.487,61.412,19.678L57.328,16.496C56.85,16.123,56.487,15.623,56.28,15.054L54.516,10.186C54.067,8.949,52.912,8.11,51.597,8.065L46.423,7.892C45.817,7.871,45.229,7.68,44.727,7.341L40.438,4.44ZM38.635,45.074C47.525,45.074,54.732,37.866,54.732,28.976C54.732,20.085,47.525,12.878,38.635,12.878C29.744,12.878,22.537,20.085,22.537,28.976C22.537,37.866,29.744,45.074,38.635,45.074ZM38.635,45.074"/>
</g>
  <g id="Semibold-S" transform="matrix(1.0,0.0,0.0,1.0,2005.9154415867908,621.2082317161239)">  <path fill-rule="nonzero" stroke="none" stroke-miterlimit="4" fill-opacity="1" stroke-linecap="butt" stroke-opacity="1" fill="#000000" stroke-width="1px" stroke-dasharray="none" stroke-linejoin="miter" d="M43.803,59.005C43.885,58.953,43.966,58.9,44.046,58.845L47.566,56.464L51.813,56.322C54.705,56.225,57.339,54.845,59.07,52.654L68.128,68.342L58.247,67.625L53.927,76.541L43.803,59.005ZM43.803,59.005"/>
  <path stroke-linejoin="miter" stroke="none" fill="#000000" stroke-width="1px" stroke-dasharray="none" stroke-linecap="butt" fill-rule="nonzero" stroke-miterlimit="4" stroke-opacity="1" fill-opacity="1" d="M18.197,52.652C19.928,54.844,22.564,56.225,25.456,56.322L29.703,56.464L33.223,58.846C33.303,58.899,33.383,58.952,33.464,59.003L23.339,76.541L19.019,67.625L9.139,68.342L18.197,52.652ZM18.197,52.652"/>
  <path fill-opacity="1" stroke-linecap="butt" stroke-miterlimit="4" stroke-width="1px" stroke-opacity="1" stroke-dasharray="none" stroke-linejoin="miter" fill-rule="evenodd" stroke="none" fill="#000000" clip-rule="evenodd" d="M40.438,4.44C39.349,3.703,37.92,3.703,36.831,4.44L32.542,7.341C32.04,7.68,31.452,7.871,30.846,7.892L25.672,8.065C24.357,8.11,23.201,8.949,22.753,10.186L20.989,15.054C20.782,15.623,20.419,16.123,19.941,16.496L15.857,19.678C14.819,20.487,14.377,21.845,14.742,23.109L16.175,28.084C16.343,28.667,16.343,29.285,16.175,29.867L14.742,34.842C14.377,36.106,14.819,37.465,15.857,38.274L19.941,41.456C20.419,41.828,20.782,42.328,20.989,42.898L22.753,47.766C23.201,49.002,24.357,49.842,25.672,49.886L30.846,50.06C31.452,50.08,32.04,50.271,32.542,50.611L36.831,53.512C37.92,54.249,39.349,54.249,40.438,53.512L44.727,50.611C45.229,50.271,45.817,50.08,46.423,50.06L51.597,49.886C52.912,49.842,54.067,49.002,54.516,47.766L56.28,42.898C56.487,42.328,56.85,41.828,57.328,41.456L61.412,38.274C62.45,37.465,62.891,36.106,62.527,34.842L61.093,29.867C60.925,29.285,60.925,28.667,61.093,28.084L62.527,23.109C62.891,21.845,62.45,20.487,61.412,19.678L57.328,16.496C56.85,16.123,56.487,15.623,56.28,15.054L54.516,10.186C54.067,8.949,52.912,8.11,51.597,8.065L46.423,7.892C45.817,7.871,45.229,7.68,44.727,7.341L40.438,4.44ZM38.635,45.074C47.525,45.074,54.732,37.866,54.732,28.976C54.732,20.085,47.525,12.878,38.635,12.878C29.744,12.878,22.537,20.085,22.537,28.976C22.537,37.866,29.744,45.074,38.635,45.074ZM38.635,45.074"/>
</g>
  <g id="Medium-S" transform="matrix(1.0,0.0,0.0,1.0,1709.2054415867908,621.2082317161239)">  <path stroke-linejoin="miter" stroke-opacity="1" fill-rule="nonzero" stroke-dasharray="none" fill="#000000" stroke-miterlimit="4" stroke-width="1px" stroke="none" stroke-linecap="butt" fill-opacity="1" d="M43.803,59.005C43.885,58.953,43.966,58.9,44.046,58.845L47.566,56.464L51.813,56.322C54.705,56.225,57.339,54.845,59.07,52.654L68.128,68.342L58.247,67.625L53.927,76.541L43.803,59.005ZM43.803,59.005"/>
  <path fill-opacity="1" stroke-miterlimit="4" stroke-linecap="butt" stroke-linejoin="miter" fill="#000000" stroke-dasharray="none" stroke-width="1px" stroke="none" stroke-opacity="1" fill-rule="nonzero" d="M18.197,52.652C19.928,54.844,22.564,56.225,25.456,56.322L29.703,56.464L33.223,58.846C33.303,58.899,33.383,58.952,33.464,59.003L23.339,76.541L19.019,67.625L9.139,68.342L18.197,52.652ZM18.197,52.652"/>
  <path clip-rule="evenodd" stroke-opacity="1" fill-rule="evenodd" fill-opacity="1" fill="#000000" stroke-linejoin="miter" stroke="none" stroke-linecap="butt" stroke-dasharray="none" stroke-miterlimit="4" stroke-width="1px" d="M40.438,4.44C39.349,3.703,37.92,3.703,36.831,4.44L32.542,7.341C32.04,7.68,31.452,7.871,30.846,7.892L25.672,8.065C24.357,8.11,23.201,8.949,22.753,10.186L20.989,15.054C20.782,15.623,20.419,16.123,19.941,16.496L15.857,19.678C14.819,20.487,14.377,21.845,14.742,23.109L16.175,28.084C16.343,28.667,16.343,29.285,16.175,29.867L14.742,34.842C14.377,36.106,14.819,37.465,15.857,38.274L19.941,41.456C20.419,41.828,20.782,42.328,20.989,42.898L22.753,47.766C23.201,49.002,24.357,49.842,25.672,49.886L30.846,50.06C31.452,50.08,32.04,50.271,32.542,50.611L36.831,53.512C37.92,54.249,39.349,54.249,40.438,53.512L44.727,50.611C45.229,50.271,45.817,50.08,46.423,50.06L51.597,49.886C52.912,49.842,54.067,49.002,54.516,47.766L56.28,42.898C56.487,42.328,56.85,41.828,57.328,41.456L61.412,38.274C62.45,37.465,62.891,36.106,62.527,34.842L61.093,29.867C60.925,29.285,60.925,28.667,61.093,28.084L62.527,23.109C62.891,21.845,62.45,20.487,61.412,19.678L57.328,16.496C56.85,16.123,56.487,15.623,56.28,15.054L54.516,10.186C54.067,8.949,52.912,8.11,51.597,8.065L46.423,7.892C45.817,7.871,45.229,7.68,44.727,7.341L40.438,4.44ZM38.635,45.074C47.525,45.074,54.732,37.866,54.732,28.976C54.732,20.085,47.525,12.878,38.635,12.878C29.744,12.878,22.537,20.085,22.537,28.976C22.537,37.866,29.744,45.074,38.635,45.074ZM38.635,45.074"/>
</g>
  <g id="Regular-S" transform="matrix(1.0,0.0,0.0,1.0,1412.4954415867908,621.2082317161239)">  <path stroke-dasharray="none" fill-opacity="1" stroke-opacity="1" stroke-linecap="butt" stroke="none" stroke-linejoin="miter" fill="#000000" fill-rule="nonzero" stroke-miterlimit="4" stroke-width="1px" d="M43.803,59.005C43.885,58.953,43.966,58.9,44.046,58.845L47.566,56.464L51.813,56.322C54.705,56.225,57.339,54.845,59.07,52.654L68.128,68.342L58.247,67.625L53.927,76.541L43.803,59.005ZM43.803,59.005"/>
  <path fill-rule="nonzero" stroke-linecap="butt" stroke-width="1px" stroke-dasharray="none" stroke-opacity="1" stroke-miterlimit="4" fill="#000000" fill-opacity="1" stroke-linejoin="miter" stroke="none" d="M18.197,52.652C19.928,54.844,22.564,56.225,25.456,56.322L29.703,56.464L33.223,58.846C33.303,58.899,33.383,58.952,33.464,59.003L23.339,76.541L19.019,67.625L9.139,68.342L18.197,52.652ZM18.197,52.652"/>
  <path stroke="none" stroke-linejoin="miter" stroke-linecap="butt" fill-opacity="1" fill="#000000" stroke-width="1px" stroke-opacity="1" clip-rule="evenodd" stroke-dasharray="none" stroke-miterlimit="4" fill-rule="evenodd" d="M40.438,4.44C39.349,3.703,37.92,3.703,36.831,4.44L32.542,7.341C32.04,7.68,31.452,7.871,30.846,7.892L25.672,8.065C24.357,8.11,23.201,8.949,22.753,10.186L20.989,15.054C20.782,15.623,20.419,16.123,19.941,16.496L15.857,19.678C14.819,20.487,14.377,21.845,14.742,23.109L16.175,28.084C16.343,28.667,16.343,29.285,16.175,29.867L14.742,34.842C14.377,36.106,14.819,37.465,15.857,38.274L19.941,41.456C20.419,41.828,20.782,42.328,20.989,42.898L22.753,47.766C23.201,49.002,24.357,49.842,25.672,49.886L30.846,50.06C31.452,50.08,32.04,50.271,32.542,50.611L36.831,53.512C37.92,54.249,39.349,54.249,40.438,53.512L44.727,50.611C45.229,50.271,45.817,50.08,46.423,50.06L51.597,49.886C52.912,49.842,54.067,49.002,54.516,47.766L56.28,42.898C56.487,42.328,56.85,41.828,57.328,41.456L61.412,38.274C62.45,37.465,62.891,36.106,62.527,34.842L61.093,29.867C60.925,29.285,60.925,28.667,61.093,28.084L62.527,23.109C62.891,21.845,62.45,20.487,61.412,19.678L57.328,16.496C56.85,16.123,56.487,15.623,56.28,15.054L54.516,10.186C54.067,8.949,52.912,8.11,51.597,8.065L46.423,7.892C45.817,7.871,45.229,7.68,44.727,7.341L40.438,4.44ZM38.635,45.074C47.525,45.074,54.732,37.866,54.732,28.976C54.732,20.085,47.525,12.878,38.635,12.878C29.744,12.878,22.537,20.085,22.537,28.976C22.537,37.866,29.744,45.074,38.635,45.074ZM38.635,45.074"/>
</g>
  <g id="Light-S" transform="matrix(1.0,0.0,0.0,1.0,1115.785441586791,621.2082317161239)">  <path stroke-linejoin="miter" fill="#000000" stroke-opacity="1" fill-rule="nonzero" stroke-miterlimit="4" stroke="none" stroke-width="1px" fill-opacity="1" stroke-dasharray="none" stroke-linecap="butt" d="M43.803,59.005C43.885,58.953,43.966,58.9,44.046,58.845L47.566,56.464L51.813,56.322C54.705,56.225,57.339,54.845,59.07,52.654L68.128,68.342L58.247,67.625L53.927,76.541L43.803,59.005ZM43.803,59.005"/>
  <path fill="#000000" fill-rule="nonzero" stroke-miterlimit="4" stroke-opacity="1" stroke="none" stroke-linejoin="miter" stroke-linecap="butt" fill-opacity="1" stroke-width="1px" stroke-dasharray="none" d="M18.197,52.652C19.928,54.844,22.564,56.225,25.456,56.322L29.703,56.464L33.223,58.846C33.303,58.899,33.383,58.952,33.464,59.003L23.339,76.541L19.019,67.625L9.139,68.342L18.197,52.652ZM18.197,52.652"/>
  <path stroke-miterlimit="4" fill-opacity="1" stroke-linejoin="miter" clip-rule="evenodd" stroke-dasharray="none" fill="#000000" fill-rule="evenodd" stroke-width="1px" stroke-linecap="butt" stroke-opacity="1" stroke="none" d="M40.438,4.44C39.349,3.703,37.92,3.703,36.831,4.44L32.542,7.341C32.04,7.68,31.452,7.871,30.846,7.892L25.672,8.065C24.357,8.11,23.201,8.949,22.753,10.186L20.989,15.054C20.782,15.623,20.419,16.123,19.941,16.496L15.857,19.678C14.819,20.487,14.377,21.845,14.742,23.109L16.175,28.084C16.343,28.667,16.343,29.285,16.175,29.867L14.742,34.842C14.377,36.106,14.819,37.465,15.857,38.274L19.941,41.456C20.419,41.828,20.782,42.328,20.989,42.898L22.753,47.766C23.201,49.002,24.357,49.842,25.672,49.886L30.846,50.06C31.452,50.08,32.04,50.271,32.542,50.611L36.831,53.512C37.92,54.249,39.349,54.249,40.438,53.512L44.727,50.611C45.229,50.271,45.817,50.08,46.423,50.06L51.597,49.886C52.912,49.842,54.067,49.002,54.516,47.766L56.28,42.898C56.487,42.328,56.85,41.828,57.328,41.456L61.412,38.274C62.45,37.465,62.891,36.106,62.527,34.842L61.093,29.867C60.925,29.285,60.925,28.667,61.093,28.084L62.527,23.109C62.891,21.845,62.45,20.487,61.412,19.678L57.328,16.496C56.85,16.123,56.487,15.623,56.28,15.054L54.516,10.186C54.067,8.949,52.912,8.11,51.597,8.065L46.423,7.892C45.817,7.871,45.229,7.68,44.727,7.341L40.438,4.44ZM38.635,45.074C47.525,45.074,54.732,37.866,54.732,28.976C54.732,20.085,47.525,12.878,38.635,12.878C29.744,12.878,22.537,20.085,22.537,28.976C22.537,37.866,29.744,45.074,38.635,45.074ZM38.635,45.074"/>
</g>
  <g id="Thin-S" transform="matrix(1.0,0.0,0.0,1.0,819.075441586791,621.2082317161239)">  <path stroke="none" fill-rule="nonzero" stroke-opacity="1" stroke-miterlimit="4" fill="#000000" stroke-linejoin="miter" stroke-dasharray="none" stroke-width="1px" fill-opacity="1" stroke-linecap="butt" d="M43.803,59.005C43.885,58.953,43.966,58.9,44.046,58.845L47.566,56.464L51.813,56.322C54.705,56.225,57.339,54.845,59.07,52.654L68.128,68.342L58.247,67.625L53.927,76.541L43.803,59.005ZM43.803,59.005"/>
  <path stroke-width="1px" stroke-linejoin="miter" fill="#000000" stroke-opacity="1" stroke-dasharray="none" fill-opacity="1" stroke-miterlimit="4" fill-rule="nonzero" stroke="none" stroke-linecap="butt" d="M18.197,52.652C19.928,54.844,22.564,56.225,25.456,56.322L29.703,56.464L33.223,58.846C33.303,58.899,33.383,58.952,33.464,59.003L23.339,76.541L19.019,67.625L9.139,68.342L18.197,52.652ZM18.197,52.652"/>
  <path stroke-miterlimit="4" stroke-linecap="butt" stroke-opacity="1" stroke-width="1px" fill-opacity="1" stroke-dasharray="none" clip-rule="evenodd" stroke-linejoin="miter" fill="#000000" fill-rule="evenodd" stroke="none" d="M40.438,4.44C39.349,3.703,37.92,3.703,36.831,4.44L32.542,7.341C32.04,7.68,31.452,7.871,30.846,7.892L25.672,8.065C24.357,8.11,23.201,8.949,22.753,10.186L20.989,15.054C20.782,15.623,20.419,16.123,19.941,16.496L15.857,19.678C14.819,20.487,14.377,21.845,14.742,23.109L16.175,28.084C16.343,28.667,16.343,29.285,16.175,29.867L14.742,34.842C14.377,36.106,14.819,37.465,15.857,38.274L19.941,41.456C20.419,41.828,20.782,42.328,20.989,42.898L22.753,47.766C23.201,49.002,24.357,49.842,25.672,49.886L30.846,50.06C31.452,50.08,32.04,50.271,32.542,50.611L36.831,53.512C37.92,54.249,39.349,54.249,40.438,53.512L44.727,50.611C45.229,50.271,45.817,50.08,46.423,50.06L51.597,49.886C52.912,49.842,54.067,49.002,54.516,47.766L56.28,42.898C56.487,42.328,56.85,41.828,57.328,41.456L61.412,38.274C62.45,37.465,62.891,36.106,62.527,34.842L61.093,29.867C60.925,29.285,60.925,28.667,61.093,28.084L62.527,23.109C62.891,21.845,62.45,20.487,61.412,19.678L57.328,16.496C56.85,16.123,56.487,15.623,56.28,15.054L54.516,10.186C54.067,8.949,52.912,8.11,51.597,8.065L46.423,7.892C45.817,7.871,45.229,7.68,44.727,7.341L40.438,4.44ZM38.635,45.074C47.525,45.074,54.732,37.866,54.732,28.976C54.732,20.085,47.525,12.878,38.635,12.878C29.744,12.878,22.537,20.085,22.537,28.976C22.537,37.866,29.744,45.074,38.635,45.074ZM38.635,45.074"/>
</g>
  <g id="Ultralight-S" transform="matrix(1.0,0.0,0.0,1.0,522.365441586791,621.2082317161239)">  <path fill-rule="nonzero" fill="#000000" stroke-width="1px" stroke-linejoin="miter" stroke-dasharray="none" stroke-miterlimit="4" stroke-opacity="1" fill-opacity="1" stroke-linecap="butt" stroke="none" d="M43.803,59.005C43.885,58.953,43.966,58.9,44.046,58.845L47.566,56.464L51.813,56.322C54.705,56.225,57.339,54.845,59.07,52.654L68.128,68.342L58.247,67.625L53.927,76.541L43.803,59.005ZM43.803,59.005"/>
  <path fill="#000000" stroke-linejoin="miter" fill-opacity="1" stroke="none" stroke-width="1px" stroke-miterlimit="4" fill-rule="nonzero" stroke-dasharray="none" stroke-linecap="butt" stroke-opacity="1" d="M18.197,52.652C19.928,54.844,22.564,56.225,25.456,56.322L29.703,56.464L33.223,58.846C33.303,58.899,33.383,58.952,33.464,59.003L23.339,76.541L19.019,67.625L9.139,68.342L18.197,52.652ZM18.197,52.652"/>
  <path stroke-linejoin="miter" stroke-width="1px" clip-rule="evenodd" stroke-miterlimit="4" fill-rule="evenodd" stroke-linecap="butt" stroke-dasharray="none" stroke-opacity="1" fill-opacity="1" fill="#000000" stroke="none" d="M40.438,4.44C39.349,3.703,37.92,3.703,36.831,4.44L32.542,7.341C32.04,7.68,31.452,7.871,30.846,7.892L25.672,8.065C24.357,8.11,23.201,8.949,22.753,10.186L20.989,15.054C20.782,15.623,20.419,16.123,19.941,16.496L15.857,19.678C14.819,20.487,14.377,21.845,14.742,23.109L16.175,28.084C16.343,28.667,16.343,29.285,16.175,29.867L14.742,34.842C14.377,36.106,14.819,37.465,15.857,38.274L19.941,41.456C20.419,41.828,20.782,42.328,20.989,42.898L22.753,47.766C23.201,49.002,24.357,49.842,25.672,49.886L30.846,50.06C31.452,50.08,32.04,50.271,32.542,50.611L36.831,53.512C37.92,54.249,39.349,54.249,40.438,53.512L44.727,50.611C45.229,50.271,45.817,50.08,46.423,50.06L51.597,49.886C52.912,49.842,54.067,49.002,54.516,47.766L56.28,42.898C56.487,42.328,56.85,41.828,57.328,41.456L61.412,38.274C62.45,37.465,62.891,36.106,62.527,34.842L61.093,29.867C60.925,29.285,60.925,28.667,61.093,28.084L62.527,23.109C62.891,21.845,62.45,20.487,61.412,19.678L57.328,16.496C56.85,16.123,56.487,15.623,56.28,15.054L54.516,10.186C54.067,8.949,52.912,8.11,51.597,8.065L46.423,7.892C45.817,7.871,45.229,7.68,44.727,7.341L40.438,4.44ZM38.635,45.074C47.525,45.074,54.732,37.866,54.732,28.976C54.732,20.085,47.525,12.878,38.635,12.878C29.744,12.878,22.537,20.085,22.537,28.976C22.537,37.866,29.744,45.074,38.635,45.074ZM38.635,45.074"/>
</g>
 </g>
</svg>
