<?xml version="1.0" encoding="UTF-8"?>
<!-- Generator: CustomSymbols v2.6.1.40 by @serious_bret https://bretlester.com/app_content/CustomSymbols/ -->
<!-- Guides: Left/Right 0.041/0.007 Cap/Base 0.178/0.166 -->
<!-- Settings: RefScale 1.0 Min/Max Stroke Scales 0.5/2.21 -->
<!DOCTYPE svg
PUBLIC "-//W3C//DTD SVG 1.1//EN"
       "http://www.w3.org/Graphics/SVG/1.1/DTD/svg11.dtd">
<svg version="1.1" xmlns="http://www.w3.org/2000/svg" xmlns:xlink="http://www.w3.org/1999/xlink" width="3300" height="2200">
<![CDATA[<svg width="24" height="24" viewBox="0 0 24 24" fill="none" xmlns="http://www.w3.org/2000/svg">
<path fill-rule="evenodd" clip-rule="evenodd" d="M16.1009 10.0704L18.6083 9.76687C18.3863 7.89674 17.4506 6.16298 15.905 4.95122C13.615 3.15584 10.4926 2.90715 7.947 4.31664C7.57319 4.52426 7.12774 4.47386 6.81197 4.22629C6.70644 4.14355 6.61439 4.03861 6.54566 3.91395C6.26931 3.41548 6.45051 2.78815 6.94898 2.5118C10.2188 0.700183 14.2344 1.02001 17.1779 3.32771C19.165 4.8857 20.3687 7.11527 20.6532 9.51932L23.2396 9.2062C23.6987 9.15063 23.9955 9.67822 23.7103 10.0419L20.8607 14.2676C20.6838 14.4932 20.3571 14.532 20.1323 14.3558L15.8438 10.9935C15.4801 10.7084 15.6433 10.1258 16.1009 10.0704Z" fill="black"/>
<path fill-rule="evenodd" clip-rule="evenodd" d="M8.66411 8.89503L3.00726 14.5519L8.66411 20.2087L14.321 14.5519L8.66411 8.89503ZM1.59305 13.1377C0.811998 13.9187 0.811998 15.185 1.59305 15.9661L7.2499 21.6229C8.03095 22.404 9.29728 22.404 10.0783 21.6229L15.7352 15.9661C16.5162 15.185 16.5162 13.9187 15.7352 13.1377L10.0783 7.48081C9.29728 6.69976 8.03095 6.69976 7.2499 7.48081L1.59305 13.1377Z" fill="black"/>
</svg>
]]>
 <g id="Notes">
  <rect height="2200" id="artboard" style="fill:white;opacity:1" width="3300" x="0" y="0"/>
  <line id="" style="fill:none;stroke:black;opacity:1;stroke-width:0.5;" x1="263" x2="3036" y1="292" y2="292"/>
  <text id="reftext1" style="stroke:none;fill:black;font-family:-apple-system,&quot;SF Pro Display&quot;,&quot;SF Pro Text&quot;,Helvetica,sans-serif;font-weight:bold;" transform="matrix(1 0 0 1 263 322)">Weight/Scale Variations</text>
  <text id="reftext2" style="stroke:none;fill:black;font-family:-apple-system,&quot;SF Pro Display&quot;,&quot;SF Pro Text&quot;,Helvetica,sans-serif;text-anchor:middle;" transform="matrix(1 0 0 1 559.711 322)">Ultralight</text>
  <text style="stroke:none;fill:black;font-family:-apple-system,&quot;SF Pro Display&quot;,&quot;SF Pro Text&quot;,Helvetica,sans-serif;text-anchor:middle;" transform="matrix(1 0 0 1 856.422 322)">Thin</text>
  <text style="stroke:none;fill:black;font-family:-apple-system,&quot;SF Pro Display&quot;,&quot;SF Pro Text&quot;,Helvetica,sans-serif;text-anchor:middle;" transform="matrix(1 0 0 1 1153.13 322)">Light</text>
  <text style="stroke:none;fill:black;font-family:-apple-system,&quot;SF Pro Display&quot;,&quot;SF Pro Text&quot;,Helvetica,sans-serif;text-anchor:middle;" transform="matrix(1 0 0 1 1449.84 322)">Regular</text>
  <text style="stroke:none;fill:black;font-family:-apple-system,&quot;SF Pro Display&quot;,&quot;SF Pro Text&quot;,Helvetica,sans-serif;text-anchor:middle;" transform="matrix(1 0 0 1 1746.56 322)">Medium</text>
  <text style="stroke:none;fill:black;font-family:-apple-system,&quot;SF Pro Display&quot;,&quot;SF Pro Text&quot;,Helvetica,sans-serif;text-anchor:middle;" transform="matrix(1 0 0 1 2043.27 322)">Semibold</text>
  <text style="stroke:none;fill:black;font-family:-apple-system,&quot;SF Pro Display&quot;,&quot;SF Pro Text&quot;,Helvetica,sans-serif;text-anchor:middle;" transform="matrix(1 0 0 1 2339.98 322)">Bold</text>
  <text style="stroke:none;fill:black;font-family:-apple-system,&quot;SF Pro Display&quot;,&quot;SF Pro Text&quot;,Helvetica,sans-serif;text-anchor:middle;" transform="matrix(1 0 0 1 2636.69 322)">Heavy</text>
  <text style="stroke:none;fill:black;font-family:-apple-system,&quot;SF Pro Display&quot;,&quot;SF Pro Text&quot;,Helvetica,sans-serif;text-anchor:middle;" transform="matrix(1 0 0 1 2933.4 322)">Black</text>
  <line id="" style="fill:none;stroke:black;opacity:1;stroke-width:0.5;" x1="263" x2="3036" y1="1903" y2="1903"/>
  <g id="" transform="matrix(1 0 0 1 263 1933)">
   <path d="M9.24805 0.830078C13.5547 0.830078 17.1387-2.74414 17.1387-7.05078C17.1387-11.3574 13.5449-14.9316 9.23828-14.9316C4.94141-14.9316 1.36719-11.3574 1.36719-7.05078C1.36719-2.74414 4.95117 0.830078 9.24805 0.830078ZM9.24805-0.654297C5.70312-0.654297 2.87109-3.49609 2.87109-7.05078C2.87109-10.6055 5.69336-13.4473 9.23828-13.4473C12.793-13.4473 15.6348-10.6055 15.6445-7.05078C15.6543-3.49609 12.8027-0.654297 9.24805-0.654297ZM6.39648-6.31836L8.50586-6.31836L8.50586-4.19922C8.50586-3.75977 8.79883-3.45703 9.22852-3.45703C9.67773-3.45703 9.9707-3.75977 9.9707-4.19922L9.9707-6.31836L12.0996-6.31836C12.5391-6.31836 12.8418-6.61133 12.8418-7.04102C12.8418-7.48047 12.5391-7.7832 12.0996-7.7832L9.9707-7.7832L9.9707-9.89258C9.9707-10.3418 9.67773-10.6445 9.22852-10.6445C8.79883-10.6445 8.50586-10.3418 8.50586-9.89258L8.50586-7.7832L6.39648-7.7832C5.94727-7.7832 5.64453-7.48047 5.64453-7.04102C5.64453-6.61133 5.94727-6.31836 6.39648-6.31836Z"/>
  </g>
  <g id="" transform="matrix(1 0 0 1 281.506 1933)">
   <path d="M11.709 2.91016C17.1582 2.91016 21.6699-1.61133 21.6699-7.05078C21.6699-12.5 17.1484-17.0117 11.6992-17.0117C6.25977-17.0117 1.74805-12.5 1.74805-7.05078C1.74805-1.61133 6.26953 2.91016 11.709 2.91016ZM11.709 1.25C7.09961 1.25 3.41797-2.44141 3.41797-7.05078C3.41797-11.6602 7.08984-15.3516 11.6992-15.3516C16.3086-15.3516 20-11.6602 20.0098-7.05078C20.0195-2.44141 16.3184 1.25 11.709 1.25ZM7.98828-6.23047L10.8789-6.23047L10.8789-3.32031C10.8789-2.83203 11.2109-2.5 11.6895-2.5C12.1777-2.5 12.5195-2.83203 12.5195-3.32031L12.5195-6.23047L15.4297-6.23047C15.918-6.23047 16.25-6.5625 16.25-7.04102C16.25-7.5293 15.918-7.87109 15.4297-7.87109L12.5195-7.87109L12.5195-10.7617C12.5195-11.2695 12.1777-11.6016 11.6895-11.6016C11.2109-11.6016 10.8789-11.2598 10.8789-10.7617L10.8789-7.87109L7.98828-7.87109C7.48047-7.87109 7.14844-7.5293 7.14844-7.04102C7.14844-6.5625 7.49023-6.23047 7.98828-6.23047Z"/>
  </g>
  <g id="" transform="matrix(1 0 0 1 304.924 1933)">
   <path d="M14.9707 5.66406C21.9336 5.66406 27.6953-0.0976562 27.6953-7.05078C27.6953-14.0137 21.9238-19.7754 14.9609-19.7754C8.00781-19.7754 2.25586-14.0137 2.25586-7.05078C2.25586-0.0976562 8.01758 5.66406 14.9707 5.66406ZM14.9707 3.84766C8.93555 3.84766 4.08203-1.01562 4.08203-7.05078C4.08203-13.0957 8.92578-17.9492 14.9609-17.9492C21.0059-17.9492 25.8594-13.0957 25.8691-7.05078C25.8789-1.01562 21.0156 3.84766 14.9707 3.84766ZM10.0586-6.14258L14.0625-6.14258L14.0625-2.12891C14.0625-1.5918 14.4336-1.2207 14.9512-1.2207C15.4883-1.2207 15.8594-1.5918 15.8594-2.12891L15.8594-6.14258L19.8828-6.14258C20.4102-6.14258 20.791-6.51367 20.791-7.03125C20.791-7.56836 20.4199-7.94922 19.8828-7.94922L15.8594-7.94922L15.8594-11.9531C15.8594-12.5098 15.4883-12.8809 14.9512-12.8809C14.4336-12.8809 14.0625-12.5 14.0625-11.9531L14.0625-7.94922L10.0586-7.94922C9.50195-7.94922 9.13086-7.56836 9.13086-7.03125C9.13086-6.51367 9.51172-6.14258 10.0586-6.14258Z"/>
  </g>
  <text style="stroke:none;fill:black;font-family:-apple-system,&quot;SF Pro Display&quot;,&quot;SF Pro Text&quot;,Helvetica,sans-serif;font-weight:bold;" transform="matrix(1 0 0 1 263 1953)">Design Variations</text>
  <text style="stroke:none;fill:black;font-family:-apple-system,&quot;SF Pro Display&quot;,&quot;SF Pro Text&quot;,Helvetica,sans-serif;" transform="matrix(1 0 0 1 263 1971)">Symbols are supported in up to nine weights and three scales.</text>
  <text style="stroke:none;fill:black;font-family:-apple-system,&quot;SF Pro Display&quot;,&quot;SF Pro Text&quot;,Helvetica,sans-serif;" transform="matrix(1 0 0 1 263 1989)">For optimal layout with text and other symbols, vertically align</text>
  <text style="stroke:none;fill:black;font-family:-apple-system,&quot;SF Pro Display&quot;,&quot;SF Pro Text&quot;,Helvetica,sans-serif;" transform="matrix(1 0 0 1 263 2007)">symbols with the adjacent text.</text>
  <line id="" style="fill:none;stroke:#00AEEF;stroke-width:0.5;opacity:1.0;" x1="776" x2="776" y1="1919" y2="1933"/>
  <g id="" transform="matrix(1 0 0 1 776 1933)">
   <path d="M3.31055 0.126953C3.82812 0.126953 4.08203-0.0683594 4.26758-0.605469L5.52734-4.0625L11.2891-4.0625L12.5488-0.605469C12.7344-0.0683594 12.9883 0.126953 13.4961 0.126953C14.0137 0.126953 14.3457-0.185547 14.3457-0.673828C14.3457-0.839844 14.3164-0.986328 14.2383-1.20117L9.6582-13.3887C9.43359-13.9941 9.0332-14.2871 8.4082-14.2871C7.80273-14.2871 7.39258-13.9941 7.17773-13.3984L2.59766-1.19141C2.51953-0.976562 2.49023-0.830078 2.49023-0.664062C2.49023-0.175781 2.80273 0.126953 3.31055 0.126953ZM6.00586-5.53711L8.37891-12.1094L8.42773-12.1094L10.8008-5.53711Z"/>
  </g>
  <line id="" style="fill:none;stroke:#00AEEF;stroke-width:0.5;opacity:1.0;" x1="792.836" x2="792.836" y1="1919" y2="1933"/>
  <text style="stroke:none;fill:black;font-family:-apple-system,&quot;SF Pro Display&quot;,&quot;SF Pro Text&quot;,Helvetica,sans-serif;font-weight:bold;" transform="matrix(1 0 0 1 776 1953)">Margins</text>
  <text style="stroke:none;fill:black;font-family:-apple-system,&quot;SF Pro Display&quot;,&quot;SF Pro Text&quot;,Helvetica,sans-serif;" transform="matrix(1 0 0 1 776 1971)">Leading and trailing margins on the left and right side of each symbol</text>
  <text style="stroke:none;fill:black;font-family:-apple-system,&quot;SF Pro Display&quot;,&quot;SF Pro Text&quot;,Helvetica,sans-serif;" transform="matrix(1 0 0 1 776 1989)">can be adjusted by modifying the x-location of the margin guidelines.</text>
  <text style="stroke:none;fill:black;font-family:-apple-system,&quot;SF Pro Display&quot;,&quot;SF Pro Text&quot;,Helvetica,sans-serif;" transform="matrix(1 0 0 1 776 2007)">Modifications are automatically applied proportionally to all</text>
  <text style="stroke:none;fill:black;font-family:-apple-system,&quot;SF Pro Display&quot;,&quot;SF Pro Text&quot;,Helvetica,sans-serif;" transform="matrix(1 0 0 1 776 2025)">scales and weights.</text>
  <g id="" transform="matrix(1 0 0 1 1289 1933)">
   <path d="M2.8418 1.86523L4.54102 3.57422C5.40039 4.44336 6.38672 4.38477 7.31445 3.35938L17.4902-7.85156C17.7539-7.76367 18.0273-7.7832 18.3398-7.8418L19.4043-8.03711L20.0684-7.36328L20.0293-6.80664C19.9902-6.30859 20.1172-5.92773 20.6055-5.44922L21.3672-4.70703C21.8457-4.22852 22.4609-4.19922 22.9297-4.66797L25.8398-7.58789C26.3086-8.05664 26.2891-8.65234 25.8105-9.13086L25.0391-9.89258C24.5605-10.3711 24.1895-10.5273 23.7109-10.4883L23.1348-10.4395L22.4902-11.0742L22.7344-12.1973C22.8613-12.7637 22.7051-13.2031 22.1191-13.7891L19.9219-15.9766C16.582-19.2969 12.1484-19.2188 9.25781-16.3281C8.83789-15.918 8.80859-15.3418 9.04297-14.9512C9.27734-14.5898 9.73633-14.3555 10.3809-14.5215C11.8457-14.8633 13.3691-14.9219 14.7949-13.9844L14.209-12.5293C14.0137-12.0508 13.9844-11.6504 14.1113-11.2891L3.04688-0.898438C2.06055 0.0195312 1.98242 0.996094 2.8418 1.86523ZM10.752-15.957C13.1836-17.7344 16.4746-17.4316 18.7012-15.2051L21.1328-12.793C21.3672-12.5586 21.4062-12.373 21.3379-12.0312L21.0156-10.5469L22.5195-9.0625L23.5059-9.12109C23.7598-9.13086 23.8379-9.11133 24.0332-8.91602L24.6094-8.33984L22.168-5.89844L21.5918-6.47461C21.3965-6.66992 21.3672-6.74805 21.377-7.01172L21.4453-7.98828L19.9512-9.47266L18.4277-9.21875C18.1055-9.15039 17.959-9.17969 17.7148-9.41406L15.7129-11.416C15.459-11.6504 15.4297-11.8164 15.5859-12.1875L16.4648-14.2773C14.9023-15.7324 12.8711-16.3574 10.8398-15.7617C10.6836-15.7227 10.625-15.8496 10.752-15.957ZM5.27344 2.30469L4.10156 1.14258C3.63281 0.683594 3.74023 0.341797 4.14062-0.0195312L14.9512-10.1953L16.416-8.71094L6.42578 2.27539C6.07422 2.67578 5.74219 2.77344 5.27344 2.30469Z"/>
  </g>
  <text style="stroke:none;fill:black;font-family:-apple-system,&quot;SF Pro Display&quot;,&quot;SF Pro Text&quot;,Helvetica,sans-serif;font-weight:bold;" transform="matrix(1 0 0 1 1289 1953)">Exporting</text>
  <text style="stroke:none;fill:black;font-family:-apple-system,&quot;SF Pro Display&quot;,&quot;SF Pro Text&quot;,Helvetica,sans-serif;" transform="matrix(1 0 0 1 1289 1971)">Symbols should be outlined when exporting to ensure the</text>
  <text style="stroke:none;fill:black;font-family:-apple-system,&quot;SF Pro Display&quot;,&quot;SF Pro Text&quot;,Helvetica,sans-serif;" transform="matrix(1 0 0 1 1289 1989)">design is preserved when submitting to Xcode.</text>
  <text id="template-version" style="stroke:none;fill:black;font-family:-apple-system,&quot;SF Pro Display&quot;,&quot;SF Pro Text&quot;,Helvetica,sans-serif;text-anchor:end;" transform="matrix(1 0 0 1 3036 1933)">Template v.2.0</text>
  <text style="stroke:none;fill:black;font-family:-apple-system,&quot;SF Pro Display&quot;,&quot;SF Pro Text&quot;,Helvetica,sans-serif;text-anchor:end;" transform="matrix(1 0 0 1 3036 1951)">Requires Xcode 12 or greater</text>
  <text style="stroke:none;fill:black;font-family:-apple-system,&quot;SF Pro Display&quot;,&quot;SF Pro Text&quot;,Helvetica,sans-serif;" transform="matrix(1 0 0 1 263 726)">Small</text>
  <text style="stroke:none;fill:black;font-family:-apple-system,&quot;SF Pro Display&quot;,&quot;SF Pro Text&quot;,Helvetica,sans-serif;" transform="matrix(1 0 0 1 263 1156)">Medium</text>
  <text style="stroke:none;fill:black;font-family:-apple-system,&quot;SF Pro Display&quot;,&quot;SF Pro Text&quot;,Helvetica,sans-serif;" transform="matrix(1 0 0 1 263 1586)">Large</text>
 </g>
 <g id="Guides">
  <g id="H-reference" style="fill:#27AAE1;stroke:none;" transform="matrix(1 0 0 1 339 696)">
   <path d="M0.976562 0L3.66211 0L12.9883-24.4629L45.752-24.4629L55.127 0L57.7637 0L30.6152-70.459L28.125-70.459ZM29.3457-67.1387L29.4434-67.1387L44.873-26.709L13.8672-26.709Z"/>
  </g>
  <line id="Baseline-S" style="fill:none;stroke:#27AAE1;opacity:1;stroke-width:0.5;" x1="263" x2="3036" y1="696" y2="696"/>
  <line id="Capline-S" style="fill:none;stroke:#27AAE1;opacity:1;stroke-width:0.5;" x1="263" x2="3036" y1="625.541" y2="625.541"/>
  <g id="H-reference" style="fill:#27AAE1;stroke:none;" transform="matrix(1 0 0 1 339 1126)">
   <path d="M0.976562 0L3.66211 0L12.9883-24.4629L45.752-24.4629L55.127 0L57.7637 0L30.6152-70.459L28.125-70.459ZM29.3457-67.1387L29.4434-67.1387L44.873-26.709L13.8672-26.709Z"/>
  </g>
  <line id="Baseline-M" style="fill:none;stroke:#27AAE1;opacity:1;stroke-width:0.5;" x1="263" x2="3036" y1="1126" y2="1126"/>
  <line id="Capline-M" style="fill:none;stroke:#27AAE1;opacity:1;stroke-width:0.5;" x1="263" x2="3036" y1="1055.54" y2="1055.54"/>
  <g id="H-reference" style="fill:#27AAE1;stroke:none;" transform="matrix(1 0 0 1 339 1556)">
   <path d="M0.976562 0L3.66211 0L12.9883-24.4629L45.752-24.4629L55.127 0L57.7637 0L30.6152-70.459L28.125-70.459ZM29.3457-67.1387L29.4434-67.1387L44.873-26.709L13.8672-26.709Z"/>
  </g>
  <line id="Baseline-L" style="fill:none;stroke:#27AAE1;opacity:1;stroke-width:0.5;" x1="263" x2="3036" y1="1556" y2="1556"/>
  <line id="Capline-L" style="fill:none;stroke:#27AAE1;opacity:1;stroke-width:0.5;" x1="263" x2="3036" y1="1485.54" y2="1485.54"/>
  <line id="left-margin" x1="1401.8295090391578" x2="1401.8295090391578" y1="1030.79" y2="1150.12" style="fill:none;stroke:#00AEEF;stroke-width:0.5;opacity:1.0;"/>
  <line id="right-margin" x1="1504.0823791801636" x2="1504.0823791801636" y1="1030.79" y2="1150.12" style="fill:none;stroke:#00AEEF;stroke-width:0.5;opacity:1.0;"/>
 </g>
 <g id="Symbols">
  <g id="Black-L" transform="matrix(1.0,0.0,0.0,1.0,2865.4015323099275,1450.6602102288966)">  <path stroke="none" stroke-width="1px" stroke-linejoin="miter" fill-rule="evenodd" fill-opacity="1" stroke-linecap="butt" stroke-opacity="1" fill="#000000" stroke-miterlimit="4" clip-rule="evenodd" stroke-dasharray="none" d="M92.954,58.138L107.43,56.386C106.148,45.59,100.746,35.58,91.823,28.584C78.602,18.219,60.576,16.784,45.88,24.921C43.722,26.119,41.15,25.829,39.327,24.399C38.718,23.922,38.186,23.316,37.789,22.596C36.194,19.718,37.24,16.097,40.118,14.501C58.995,4.042,82.178,5.889,99.172,19.212C110.643,28.206,117.593,41.078,119.235,54.957L134.167,53.149C136.817,52.828,138.531,55.874,136.884,57.974L120.433,82.37C119.412,83.672,117.526,83.896,116.228,82.879L91.47,63.468C89.37,61.822,90.312,58.458,92.954,58.138ZM92.954,58.138"/>
  <path stroke-width="1px" clip-rule="evenodd" stroke-dasharray="none" stroke="none" fill="#000000" stroke-linejoin="miter" stroke-miterlimit="4" stroke-linecap="butt" fill-rule="evenodd" stroke-opacity="1" fill-opacity="1" d="M50.02,51.353L17.362,84.011L50.02,116.669L82.678,84.011L50.02,51.353ZM9.197,75.847C4.688,80.356,4.688,87.666,9.197,92.176L41.855,124.833C46.364,129.343,53.675,129.343,58.184,124.833L90.843,92.176C95.351,87.666,95.351,80.356,90.843,75.847L58.184,43.188C53.675,38.679,46.364,38.679,41.855,43.188L9.197,75.847ZM9.197,75.847"/>
</g>
  <g id="Heavy-L" transform="matrix(1.0,0.0,0.0,1.0,2568.6915323099274,1450.6602102288966)">  <path stroke-linecap="butt" stroke-opacity="1" stroke-miterlimit="4" stroke-linejoin="miter" stroke-width="1px" fill="#000000" stroke="none" clip-rule="evenodd" fill-opacity="1" fill-rule="evenodd" stroke-dasharray="none" d="M92.954,58.138L107.43,56.386C106.148,45.59,100.746,35.58,91.823,28.584C78.602,18.219,60.576,16.784,45.88,24.921C43.722,26.119,41.15,25.829,39.327,24.399C38.718,23.922,38.186,23.316,37.789,22.596C36.194,19.718,37.24,16.097,40.118,14.501C58.995,4.042,82.178,5.889,99.172,19.212C110.643,28.206,117.593,41.078,119.235,54.957L134.167,53.149C136.817,52.828,138.531,55.874,136.884,57.974L120.433,82.37C119.412,83.672,117.526,83.896,116.228,82.879L91.47,63.468C89.37,61.822,90.312,58.458,92.954,58.138ZM92.954,58.138"/>
  <path stroke-opacity="1" clip-rule="evenodd" stroke="none" fill-rule="evenodd" fill-opacity="1" stroke-width="1px" stroke-linecap="butt" stroke-miterlimit="4" stroke-dasharray="none" stroke-linejoin="miter" fill="#000000" d="M50.02,51.353L17.362,84.011L50.02,116.669L82.678,84.011L50.02,51.353ZM9.197,75.847C4.688,80.356,4.688,87.666,9.197,92.176L41.855,124.833C46.364,129.343,53.675,129.343,58.184,124.833L90.843,92.176C95.351,87.666,95.351,80.356,90.843,75.847L58.184,43.188C53.675,38.679,46.364,38.679,41.855,43.188L9.197,75.847ZM9.197,75.847"/>
</g>
  <g id="Bold-L" transform="matrix(1.0,0.0,0.0,1.0,2271.9815323099274,1450.6602102288966)">  <path fill-rule="evenodd" stroke-width="1px" clip-rule="evenodd" stroke-linejoin="miter" fill-opacity="1" stroke-linecap="butt" stroke="none" stroke-miterlimit="4" stroke-dasharray="none" stroke-opacity="1" fill="#000000" d="M92.954,58.138L107.43,56.386C106.148,45.59,100.746,35.58,91.823,28.584C78.602,18.219,60.576,16.784,45.88,24.921C43.722,26.119,41.15,25.829,39.327,24.399C38.718,23.922,38.186,23.316,37.789,22.596C36.194,19.718,37.24,16.097,40.118,14.501C58.995,4.042,82.178,5.889,99.172,19.212C110.643,28.206,117.593,41.078,119.235,54.957L134.167,53.149C136.817,52.828,138.531,55.874,136.884,57.974L120.433,82.37C119.412,83.672,117.526,83.896,116.228,82.879L91.47,63.468C89.37,61.822,90.312,58.458,92.954,58.138ZM92.954,58.138"/>
  <path stroke-width="1px" stroke-linejoin="miter" stroke-opacity="1" stroke-miterlimit="4" stroke="none" fill-opacity="1" stroke-linecap="butt" clip-rule="evenodd" fill="#000000" stroke-dasharray="none" fill-rule="evenodd" d="M50.02,51.353L17.362,84.011L50.02,116.669L82.678,84.011L50.02,51.353ZM9.197,75.847C4.688,80.356,4.688,87.666,9.197,92.176L41.855,124.833C46.364,129.343,53.675,129.343,58.184,124.833L90.843,92.176C95.351,87.666,95.351,80.356,90.843,75.847L58.184,43.188C53.675,38.679,46.364,38.679,41.855,43.188L9.197,75.847ZM9.197,75.847"/>
</g>
  <g id="Semibold-L" transform="matrix(1.0,0.0,0.0,1.0,1975.2715323099276,1450.6602102288966)">  <path stroke-linecap="butt" stroke-linejoin="miter" stroke="none" fill-rule="evenodd" stroke-miterlimit="4" stroke-width="1px" fill-opacity="1" fill="#000000" clip-rule="evenodd" stroke-opacity="1" stroke-dasharray="none" d="M92.954,58.138L107.43,56.386C106.148,45.59,100.746,35.58,91.823,28.584C78.602,18.219,60.576,16.784,45.88,24.921C43.722,26.119,41.15,25.829,39.327,24.399C38.718,23.922,38.186,23.316,37.789,22.596C36.194,19.718,37.24,16.097,40.118,14.501C58.995,4.042,82.178,5.889,99.172,19.212C110.643,28.206,117.593,41.078,119.235,54.957L134.167,53.149C136.817,52.828,138.531,55.874,136.884,57.974L120.433,82.37C119.412,83.672,117.526,83.896,116.228,82.879L91.47,63.468C89.37,61.822,90.312,58.458,92.954,58.138ZM92.954,58.138"/>
  <path fill-opacity="1" stroke-linecap="butt" stroke-opacity="1" stroke-linejoin="miter" stroke-width="1px" clip-rule="evenodd" stroke-miterlimit="4" fill="#000000" fill-rule="evenodd" stroke="none" stroke-dasharray="none" d="M50.02,51.353L17.362,84.011L50.02,116.669L82.678,84.011L50.02,51.353ZM9.197,75.847C4.688,80.356,4.688,87.666,9.197,92.176L41.855,124.833C46.364,129.343,53.675,129.343,58.184,124.833L90.843,92.176C95.351,87.666,95.351,80.356,90.843,75.847L58.184,43.188C53.675,38.679,46.364,38.679,41.855,43.188L9.197,75.847ZM9.197,75.847"/>
</g>
  <g id="Medium-L" transform="matrix(1.0,0.0,0.0,1.0,1678.5615323099275,1450.6602102288966)">  <path stroke-linejoin="miter" stroke-opacity="1" fill-rule="evenodd" stroke-miterlimit="4" stroke="none" stroke-dasharray="none" fill="#000000" clip-rule="evenodd" stroke-linecap="butt" fill-opacity="1" stroke-width="1px" d="M92.954,58.138L107.43,56.386C106.148,45.59,100.746,35.58,91.823,28.584C78.602,18.219,60.576,16.784,45.88,24.921C43.722,26.119,41.15,25.829,39.327,24.399C38.718,23.922,38.186,23.316,37.789,22.596C36.194,19.718,37.24,16.097,40.118,14.501C58.995,4.042,82.178,5.889,99.172,19.212C110.643,28.206,117.593,41.078,119.235,54.957L134.167,53.149C136.817,52.828,138.531,55.874,136.884,57.974L120.433,82.37C119.412,83.672,117.526,83.896,116.228,82.879L91.47,63.468C89.37,61.822,90.312,58.458,92.954,58.138ZM92.954,58.138"/>
  <path stroke-linejoin="miter" fill="#000000" stroke="none" stroke-width="1px" stroke-opacity="1" stroke-dasharray="none" fill-opacity="1" stroke-linecap="butt" fill-rule="evenodd" clip-rule="evenodd" stroke-miterlimit="4" d="M50.02,51.353L17.362,84.011L50.02,116.669L82.678,84.011L50.02,51.353ZM9.197,75.847C4.688,80.356,4.688,87.666,9.197,92.176L41.855,124.833C46.364,129.343,53.675,129.343,58.184,124.833L90.843,92.176C95.351,87.666,95.351,80.356,90.843,75.847L58.184,43.188C53.675,38.679,46.364,38.679,41.855,43.188L9.197,75.847ZM9.197,75.847"/>
</g>
  <g id="Regular-L" transform="matrix(1.0,0.0,0.0,1.0,1381.8515323099275,1450.6602102288966)">  <path stroke-dasharray="none" fill-opacity="1" stroke-opacity="1" stroke="none" fill-rule="evenodd" stroke-linejoin="miter" stroke-miterlimit="4" stroke-linecap="butt" stroke-width="1px" fill="#000000" clip-rule="evenodd" d="M92.954,58.138L107.43,56.386C106.148,45.59,100.746,35.58,91.823,28.584C78.602,18.219,60.576,16.784,45.88,24.921C43.722,26.119,41.15,25.829,39.327,24.399C38.718,23.922,38.186,23.316,37.789,22.596C36.194,19.718,37.24,16.097,40.118,14.501C58.995,4.042,82.178,5.889,99.172,19.212C110.643,28.206,117.593,41.078,119.235,54.957L134.167,53.149C136.817,52.828,138.531,55.874,136.884,57.974L120.433,82.37C119.412,83.672,117.526,83.896,116.228,82.879L91.47,63.468C89.37,61.822,90.312,58.458,92.954,58.138ZM92.954,58.138"/>
  <path clip-rule="evenodd" stroke-linejoin="miter" stroke-dasharray="none" fill-rule="evenodd" stroke-opacity="1" fill="#000000" stroke-miterlimit="4" stroke-linecap="butt" fill-opacity="1" stroke-width="1px" stroke="none" d="M50.02,51.353L17.362,84.011L50.02,116.669L82.678,84.011L50.02,51.353ZM9.197,75.847C4.688,80.356,4.688,87.666,9.197,92.176L41.855,124.833C46.364,129.343,53.675,129.343,58.184,124.833L90.843,92.176C95.351,87.666,95.351,80.356,90.843,75.847L58.184,43.188C53.675,38.679,46.364,38.679,41.855,43.188L9.197,75.847ZM9.197,75.847"/>
</g>
  <g id="Light-L" transform="matrix(1.0,0.0,0.0,1.0,1085.1415323099277,1450.6602102288966)">  <path stroke-opacity="1" stroke-linecap="butt" fill-rule="evenodd" clip-rule="evenodd" stroke-dasharray="none" stroke-width="1px" stroke-linejoin="miter" fill-opacity="1" fill="#000000" stroke-miterlimit="4" stroke="none" d="M92.954,58.138L107.43,56.386C106.148,45.59,100.746,35.58,91.823,28.584C78.602,18.219,60.576,16.784,45.88,24.921C43.722,26.119,41.15,25.829,39.327,24.399C38.718,23.922,38.186,23.316,37.789,22.596C36.194,19.718,37.24,16.097,40.118,14.501C58.995,4.042,82.178,5.889,99.172,19.212C110.643,28.206,117.593,41.078,119.235,54.957L134.167,53.149C136.817,52.828,138.531,55.874,136.884,57.974L120.433,82.37C119.412,83.672,117.526,83.896,116.228,82.879L91.47,63.468C89.37,61.822,90.312,58.458,92.954,58.138ZM92.954,58.138"/>
  <path stroke-linejoin="miter" stroke-linecap="butt" stroke-opacity="1" clip-rule="evenodd" fill="#000000" stroke="none" stroke-width="1px" stroke-miterlimit="4" stroke-dasharray="none" fill-opacity="1" fill-rule="evenodd" d="M50.02,51.353L17.362,84.011L50.02,116.669L82.678,84.011L50.02,51.353ZM9.197,75.847C4.688,80.356,4.688,87.666,9.197,92.176L41.855,124.833C46.364,129.343,53.675,129.343,58.184,124.833L90.843,92.176C95.351,87.666,95.351,80.356,90.843,75.847L58.184,43.188C53.675,38.679,46.364,38.679,41.855,43.188L9.197,75.847ZM9.197,75.847"/>
</g>
  <g id="Thin-L" transform="matrix(1.0,0.0,0.0,1.0,788.4315323099277,1450.6602102288966)">  <path stroke-width="1px" stroke-miterlimit="4" stroke-dasharray="none" stroke-linecap="butt" fill="#000000" fill-rule="evenodd" fill-opacity="1" stroke-linejoin="miter" clip-rule="evenodd" stroke-opacity="1" stroke="none" d="M92.954,58.138L107.43,56.386C106.148,45.59,100.746,35.58,91.823,28.584C78.602,18.219,60.576,16.784,45.88,24.921C43.722,26.119,41.15,25.829,39.327,24.399C38.718,23.922,38.186,23.316,37.789,22.596C36.194,19.718,37.24,16.097,40.118,14.501C58.995,4.042,82.178,5.889,99.172,19.212C110.643,28.206,117.593,41.078,119.235,54.957L134.167,53.149C136.817,52.828,138.531,55.874,136.884,57.974L120.433,82.37C119.412,83.672,117.526,83.896,116.228,82.879L91.47,63.468C89.37,61.822,90.312,58.458,92.954,58.138ZM92.954,58.138"/>
  <path stroke-opacity="1" stroke-linejoin="miter" stroke-dasharray="none" fill-opacity="1" stroke-miterlimit="4" stroke="none" stroke-width="1px" fill="#000000" stroke-linecap="butt" clip-rule="evenodd" fill-rule="evenodd" d="M50.02,51.353L17.362,84.011L50.02,116.669L82.678,84.011L50.02,51.353ZM9.197,75.847C4.688,80.356,4.688,87.666,9.197,92.176L41.855,124.833C46.364,129.343,53.675,129.343,58.184,124.833L90.843,92.176C95.351,87.666,95.351,80.356,90.843,75.847L58.184,43.188C53.675,38.679,46.364,38.679,41.855,43.188L9.197,75.847ZM9.197,75.847"/>
</g>
  <g id="Ultralight-L" transform="matrix(1.0,0.0,0.0,1.0,491.7215323099276,1450.6602102288966)">  <path fill="#000000" stroke="none" stroke-linejoin="miter" clip-rule="evenodd" stroke-width="1px" fill-opacity="1" stroke-linecap="butt" fill-rule="evenodd" stroke-opacity="1" stroke-miterlimit="4" stroke-dasharray="none" d="M92.954,58.138L107.43,56.386C106.148,45.59,100.746,35.58,91.823,28.584C78.602,18.219,60.576,16.784,45.88,24.921C43.722,26.119,41.15,25.829,39.327,24.399C38.718,23.922,38.186,23.316,37.789,22.596C36.194,19.718,37.24,16.097,40.118,14.501C58.995,4.042,82.178,5.889,99.172,19.212C110.643,28.206,117.593,41.078,119.235,54.957L134.167,53.149C136.817,52.828,138.531,55.874,136.884,57.974L120.433,82.37C119.412,83.672,117.526,83.896,116.228,82.879L91.47,63.468C89.37,61.822,90.312,58.458,92.954,58.138ZM92.954,58.138"/>
  <path stroke-linecap="butt" stroke-linejoin="miter" stroke-opacity="1" fill="#000000" stroke-miterlimit="4" stroke-dasharray="none" fill-rule="evenodd" stroke="none" fill-opacity="1" stroke-width="1px" clip-rule="evenodd" d="M50.02,51.353L17.362,84.011L50.02,116.669L82.678,84.011L50.02,51.353ZM9.197,75.847C4.688,80.356,4.688,87.666,9.197,92.176L41.855,124.833C46.364,129.343,53.675,129.343,58.184,124.833L90.843,92.176C95.351,87.666,95.351,80.356,90.843,75.847L58.184,43.188C53.675,38.679,46.364,38.679,41.855,43.188L9.197,75.847ZM9.197,75.847"/>
</g>
  <g id="Black-M" transform="matrix(1.0,0.0,0.0,1.0,2880.975761480564,1036.4213301495809)">  <path stroke="none" stroke-width="1px" stroke-linejoin="miter" fill-rule="evenodd" fill-opacity="1" stroke-linecap="butt" stroke-opacity="1" fill="#000000" stroke-miterlimit="4" clip-rule="evenodd" stroke-dasharray="none" d="M72.057,45.069L83.279,43.71C82.285,35.341,78.098,27.582,71.18,22.158C60.932,14.123,46.958,13.011,35.566,19.318C33.893,20.248,31.899,20.022,30.486,18.914C30.014,18.544,29.602,18.074,29.294,17.516C28.057,15.285,28.868,12.478,31.099,11.241C45.733,3.134,63.704,4.565,76.877,14.893C85.77,21.865,91.157,31.843,92.43,42.602L104.005,41.201C106.06,40.952,107.388,43.313,106.112,44.941L93.359,63.853C92.567,64.862,91.105,65.036,90.099,64.247L70.907,49.2C69.279,47.924,70.009,45.317,72.057,45.069ZM72.057,45.069"/>
  <path stroke-width="1px" clip-rule="evenodd" stroke-dasharray="none" stroke="none" fill="#000000" stroke-linejoin="miter" stroke-miterlimit="4" stroke-linecap="butt" fill-rule="evenodd" stroke-opacity="1" fill-opacity="1" d="M38.775,39.808L13.459,65.125L38.775,90.441L64.092,65.125L38.775,39.808ZM7.129,58.796C3.634,62.291,3.634,67.958,7.129,71.454L32.446,96.77C35.941,100.266,41.609,100.266,45.104,96.77L70.421,71.454C73.916,67.958,73.916,62.291,70.421,58.796L45.104,33.479C41.609,29.984,35.941,29.984,32.446,33.479L7.129,58.796ZM7.129,58.796"/>
</g>
  <g id="Heavy-M" transform="matrix(1.0,0.0,0.0,1.0,2584.265761480564,1036.4213301495809)">  <path stroke-linecap="butt" stroke-opacity="1" stroke-miterlimit="4" stroke-linejoin="miter" stroke-width="1px" fill="#000000" stroke="none" clip-rule="evenodd" fill-opacity="1" fill-rule="evenodd" stroke-dasharray="none" d="M72.057,45.069L83.279,43.71C82.285,35.341,78.098,27.582,71.18,22.158C60.932,14.123,46.958,13.011,35.566,19.318C33.893,20.248,31.899,20.022,30.486,18.914C30.014,18.544,29.602,18.074,29.294,17.516C28.057,15.285,28.868,12.478,31.099,11.241C45.733,3.134,63.704,4.565,76.877,14.893C85.77,21.865,91.157,31.843,92.43,42.602L104.005,41.201C106.06,40.952,107.388,43.313,106.112,44.941L93.359,63.853C92.567,64.862,91.105,65.036,90.099,64.247L70.907,49.2C69.279,47.924,70.009,45.317,72.057,45.069ZM72.057,45.069"/>
  <path stroke-opacity="1" clip-rule="evenodd" stroke="none" fill-rule="evenodd" fill-opacity="1" stroke-width="1px" stroke-linecap="butt" stroke-miterlimit="4" stroke-dasharray="none" stroke-linejoin="miter" fill="#000000" d="M38.775,39.808L13.459,65.125L38.775,90.441L64.092,65.125L38.775,39.808ZM7.129,58.796C3.634,62.291,3.634,67.958,7.129,71.454L32.446,96.77C35.941,100.266,41.609,100.266,45.104,96.77L70.421,71.454C73.916,67.958,73.916,62.291,70.421,58.796L45.104,33.479C41.609,29.984,35.941,29.984,32.446,33.479L7.129,58.796ZM7.129,58.796"/>
</g>
  <g id="Bold-M" transform="matrix(1.0,0.0,0.0,1.0,2287.555761480564,1036.4213301495809)">  <path fill-rule="evenodd" stroke-width="1px" clip-rule="evenodd" stroke-linejoin="miter" fill-opacity="1" stroke-linecap="butt" stroke="none" stroke-miterlimit="4" stroke-dasharray="none" stroke-opacity="1" fill="#000000" d="M72.057,45.069L83.279,43.71C82.285,35.341,78.098,27.582,71.18,22.158C60.932,14.123,46.958,13.011,35.566,19.318C33.893,20.248,31.899,20.022,30.486,18.914C30.014,18.544,29.602,18.074,29.294,17.516C28.057,15.285,28.868,12.478,31.099,11.241C45.733,3.134,63.704,4.565,76.877,14.893C85.77,21.865,91.157,31.843,92.43,42.602L104.005,41.201C106.06,40.952,107.388,43.313,106.112,44.941L93.359,63.853C92.567,64.862,91.105,65.036,90.099,64.247L70.907,49.2C69.279,47.924,70.009,45.317,72.057,45.069ZM72.057,45.069"/>
  <path stroke-width="1px" stroke-linejoin="miter" stroke-opacity="1" stroke-miterlimit="4" stroke="none" fill-opacity="1" stroke-linecap="butt" clip-rule="evenodd" fill="#000000" stroke-dasharray="none" fill-rule="evenodd" d="M38.775,39.808L13.459,65.125L38.775,90.441L64.092,65.125L38.775,39.808ZM7.129,58.796C3.634,62.291,3.634,67.958,7.129,71.454L32.446,96.77C35.941,100.266,41.609,100.266,45.104,96.77L70.421,71.454C73.916,67.958,73.916,62.291,70.421,58.796L45.104,33.479C41.609,29.984,35.941,29.984,32.446,33.479L7.129,58.796ZM7.129,58.796"/>
</g>
  <g id="Semibold-M" transform="matrix(1.0,0.0,0.0,1.0,1990.845761480564,1036.4213301495809)">  <path stroke-linecap="butt" stroke-linejoin="miter" stroke="none" fill-rule="evenodd" stroke-miterlimit="4" stroke-width="1px" fill-opacity="1" fill="#000000" clip-rule="evenodd" stroke-opacity="1" stroke-dasharray="none" d="M72.057,45.069L83.279,43.71C82.285,35.341,78.098,27.582,71.18,22.158C60.932,14.123,46.958,13.011,35.566,19.318C33.893,20.248,31.899,20.022,30.486,18.914C30.014,18.544,29.602,18.074,29.294,17.516C28.057,15.285,28.868,12.478,31.099,11.241C45.733,3.134,63.704,4.565,76.877,14.893C85.77,21.865,91.157,31.843,92.43,42.602L104.005,41.201C106.06,40.952,107.388,43.313,106.112,44.941L93.359,63.853C92.567,64.862,91.105,65.036,90.099,64.247L70.907,49.2C69.279,47.924,70.009,45.317,72.057,45.069ZM72.057,45.069"/>
  <path fill-opacity="1" stroke-linecap="butt" stroke-opacity="1" stroke-linejoin="miter" stroke-width="1px" clip-rule="evenodd" stroke-miterlimit="4" fill="#000000" fill-rule="evenodd" stroke="none" stroke-dasharray="none" d="M38.775,39.808L13.459,65.125L38.775,90.441L64.092,65.125L38.775,39.808ZM7.129,58.796C3.634,62.291,3.634,67.958,7.129,71.454L32.446,96.77C35.941,100.266,41.609,100.266,45.104,96.77L70.421,71.454C73.916,67.958,73.916,62.291,70.421,58.796L45.104,33.479C41.609,29.984,35.941,29.984,32.446,33.479L7.129,58.796ZM7.129,58.796"/>
</g>
  <g id="Medium-M" transform="matrix(1.0,0.0,0.0,1.0,1694.135761480564,1036.4213301495809)">  <path stroke-linejoin="miter" stroke-opacity="1" fill-rule="evenodd" stroke-miterlimit="4" stroke="none" stroke-dasharray="none" fill="#000000" clip-rule="evenodd" stroke-linecap="butt" fill-opacity="1" stroke-width="1px" d="M72.057,45.069L83.279,43.71C82.285,35.341,78.098,27.582,71.18,22.158C60.932,14.123,46.958,13.011,35.566,19.318C33.893,20.248,31.899,20.022,30.486,18.914C30.014,18.544,29.602,18.074,29.294,17.516C28.057,15.285,28.868,12.478,31.099,11.241C45.733,3.134,63.704,4.565,76.877,14.893C85.77,21.865,91.157,31.843,92.43,42.602L104.005,41.201C106.06,40.952,107.388,43.313,106.112,44.941L93.359,63.853C92.567,64.862,91.105,65.036,90.099,64.247L70.907,49.2C69.279,47.924,70.009,45.317,72.057,45.069ZM72.057,45.069"/>
  <path stroke-linejoin="miter" fill="#000000" stroke="none" stroke-width="1px" stroke-opacity="1" stroke-dasharray="none" fill-opacity="1" stroke-linecap="butt" fill-rule="evenodd" clip-rule="evenodd" stroke-miterlimit="4" d="M38.775,39.808L13.459,65.125L38.775,90.441L64.092,65.125L38.775,39.808ZM7.129,58.796C3.634,62.291,3.634,67.958,7.129,71.454L32.446,96.77C35.941,100.266,41.609,100.266,45.104,96.77L70.421,71.454C73.916,67.958,73.916,62.291,70.421,58.796L45.104,33.479C41.609,29.984,35.941,29.984,32.446,33.479L7.129,58.796ZM7.129,58.796"/>
</g>
  <g id="Regular-M" transform="matrix(1.0,0.0,0.0,1.0,1397.425761480564,1036.4213301495809)">  <path stroke-dasharray="none" fill-opacity="1" stroke-opacity="1" stroke="none" fill-rule="evenodd" stroke-linejoin="miter" stroke-miterlimit="4" stroke-linecap="butt" stroke-width="1px" fill="#000000" clip-rule="evenodd" d="M72.057,45.069L83.279,43.71C82.285,35.341,78.098,27.582,71.18,22.158C60.932,14.123,46.958,13.011,35.566,19.318C33.893,20.248,31.899,20.022,30.486,18.914C30.014,18.544,29.602,18.074,29.294,17.516C28.057,15.285,28.868,12.478,31.099,11.241C45.733,3.134,63.704,4.565,76.877,14.893C85.77,21.865,91.157,31.843,92.43,42.602L104.005,41.201C106.06,40.952,107.388,43.313,106.112,44.941L93.359,63.853C92.567,64.862,91.105,65.036,90.099,64.247L70.907,49.2C69.279,47.924,70.009,45.317,72.057,45.069ZM72.057,45.069"/>
  <path clip-rule="evenodd" stroke-linejoin="miter" stroke-dasharray="none" fill-rule="evenodd" stroke-opacity="1" fill="#000000" stroke-miterlimit="4" stroke-linecap="butt" fill-opacity="1" stroke-width="1px" stroke="none" d="M38.775,39.808L13.459,65.125L38.775,90.441L64.092,65.125L38.775,39.808ZM7.129,58.796C3.634,62.291,3.634,67.958,7.129,71.454L32.446,96.77C35.941,100.266,41.609,100.266,45.104,96.77L70.421,71.454C73.916,67.958,73.916,62.291,70.421,58.796L45.104,33.479C41.609,29.984,35.941,29.984,32.446,33.479L7.129,58.796ZM7.129,58.796"/>
</g>
  <g id="Light-M" transform="matrix(1.0,0.0,0.0,1.0,1100.7157614805642,1036.4213301495809)">  <path stroke-opacity="1" stroke-linecap="butt" fill-rule="evenodd" clip-rule="evenodd" stroke-dasharray="none" stroke-width="1px" stroke-linejoin="miter" fill-opacity="1" fill="#000000" stroke-miterlimit="4" stroke="none" d="M72.057,45.069L83.279,43.71C82.285,35.341,78.098,27.582,71.18,22.158C60.932,14.123,46.958,13.011,35.566,19.318C33.893,20.248,31.899,20.022,30.486,18.914C30.014,18.544,29.602,18.074,29.294,17.516C28.057,15.285,28.868,12.478,31.099,11.241C45.733,3.134,63.704,4.565,76.877,14.893C85.77,21.865,91.157,31.843,92.43,42.602L104.005,41.201C106.06,40.952,107.388,43.313,106.112,44.941L93.359,63.853C92.567,64.862,91.105,65.036,90.099,64.247L70.907,49.2C69.279,47.924,70.009,45.317,72.057,45.069ZM72.057,45.069"/>
  <path stroke-linejoin="miter" stroke-linecap="butt" stroke-opacity="1" clip-rule="evenodd" fill="#000000" stroke="none" stroke-width="1px" stroke-miterlimit="4" stroke-dasharray="none" fill-opacity="1" fill-rule="evenodd" d="M38.775,39.808L13.459,65.125L38.775,90.441L64.092,65.125L38.775,39.808ZM7.129,58.796C3.634,62.291,3.634,67.958,7.129,71.454L32.446,96.77C35.941,100.266,41.609,100.266,45.104,96.77L70.421,71.454C73.916,67.958,73.916,62.291,70.421,58.796L45.104,33.479C41.609,29.984,35.941,29.984,32.446,33.479L7.129,58.796ZM7.129,58.796"/>
</g>
  <g id="Thin-M" transform="matrix(1.0,0.0,0.0,1.0,804.005761480564,1036.4213301495809)">  <path stroke-width="1px" stroke-miterlimit="4" stroke-dasharray="none" stroke-linecap="butt" fill="#000000" fill-rule="evenodd" fill-opacity="1" stroke-linejoin="miter" clip-rule="evenodd" stroke-opacity="1" stroke="none" d="M72.057,45.069L83.279,43.71C82.285,35.341,78.098,27.582,71.18,22.158C60.932,14.123,46.958,13.011,35.566,19.318C33.893,20.248,31.899,20.022,30.486,18.914C30.014,18.544,29.602,18.074,29.294,17.516C28.057,15.285,28.868,12.478,31.099,11.241C45.733,3.134,63.704,4.565,76.877,14.893C85.77,21.865,91.157,31.843,92.43,42.602L104.005,41.201C106.06,40.952,107.388,43.313,106.112,44.941L93.359,63.853C92.567,64.862,91.105,65.036,90.099,64.247L70.907,49.2C69.279,47.924,70.009,45.317,72.057,45.069ZM72.057,45.069"/>
  <path stroke-opacity="1" stroke-linejoin="miter" stroke-dasharray="none" fill-opacity="1" stroke-miterlimit="4" stroke="none" stroke-width="1px" fill="#000000" stroke-linecap="butt" clip-rule="evenodd" fill-rule="evenodd" d="M38.775,39.808L13.459,65.125L38.775,90.441L64.092,65.125L38.775,39.808ZM7.129,58.796C3.634,62.291,3.634,67.958,7.129,71.454L32.446,96.77C35.941,100.266,41.609,100.266,45.104,96.77L70.421,71.454C73.916,67.958,73.916,62.291,70.421,58.796L45.104,33.479C41.609,29.984,35.941,29.984,32.446,33.479L7.129,58.796ZM7.129,58.796"/>
</g>
  <g id="Ultralight-M" transform="matrix(1.0,0.0,0.0,1.0,507.295761480564,1036.4213301495809)">  <path fill="#000000" stroke="none" stroke-linejoin="miter" clip-rule="evenodd" stroke-width="1px" fill-opacity="1" stroke-linecap="butt" fill-rule="evenodd" stroke-opacity="1" stroke-miterlimit="4" stroke-dasharray="none" d="M72.057,45.069L83.279,43.71C82.285,35.341,78.098,27.582,71.18,22.158C60.932,14.123,46.958,13.011,35.566,19.318C33.893,20.248,31.899,20.022,30.486,18.914C30.014,18.544,29.602,18.074,29.294,17.516C28.057,15.285,28.868,12.478,31.099,11.241C45.733,3.134,63.704,4.565,76.877,14.893C85.77,21.865,91.157,31.843,92.43,42.602L104.005,41.201C106.06,40.952,107.388,43.313,106.112,44.941L93.359,63.853C92.567,64.862,91.105,65.036,90.099,64.247L70.907,49.2C69.279,47.924,70.009,45.317,72.057,45.069ZM72.057,45.069"/>
  <path stroke-linecap="butt" stroke-linejoin="miter" stroke-opacity="1" fill="#000000" stroke-miterlimit="4" stroke-dasharray="none" fill-rule="evenodd" stroke="none" fill-opacity="1" stroke-width="1px" clip-rule="evenodd" d="M38.775,39.808L13.459,65.125L38.775,90.441L64.092,65.125L38.775,39.808ZM7.129,58.796C3.634,62.291,3.634,67.958,7.129,71.454L32.446,96.77C35.941,100.266,41.609,100.266,45.104,96.77L70.421,71.454C73.916,67.958,73.916,62.291,70.421,58.796L45.104,33.479C41.609,29.984,35.941,29.984,32.446,33.479L7.129,58.796ZM7.129,58.796"/>
</g>
  <g id="Black-S" transform="matrix(1.0,0.0,0.0,1.0,2892.6295812392814,618.214995745403)">  <path stroke="none" stroke-width="1px" stroke-linejoin="miter" fill-rule="evenodd" fill-opacity="1" stroke-linecap="butt" stroke-opacity="1" fill="#000000" stroke-miterlimit="4" clip-rule="evenodd" stroke-dasharray="none" d="M56.421,35.289L65.207,34.225C64.429,27.672,61.15,21.596,55.734,17.35C47.71,11.059,36.768,10.187,27.848,15.126C26.538,15.854,24.977,15.677,23.871,14.81C23.501,14.52,23.178,14.152,22.937,13.715C21.969,11.969,22.604,9.77,24.351,8.802C35.809,2.454,49.88,3.574,60.195,11.661C67.158,17.12,71.376,24.933,72.373,33.358L81.436,32.26C83.045,32.066,84.085,33.914,83.086,35.189L73.1,49.997C72.48,50.787,71.335,50.923,70.548,50.306L55.52,38.523C54.245,37.524,54.817,35.483,56.421,35.289ZM56.421,35.289"/>
  <path stroke-width="1px" clip-rule="evenodd" stroke-dasharray="none" stroke="none" fill="#000000" stroke-linejoin="miter" stroke-miterlimit="4" stroke-linecap="butt" fill-rule="evenodd" stroke-opacity="1" fill-opacity="1" d="M30.361,31.17L10.538,50.993L30.361,70.815L50.184,50.993L30.361,31.17ZM5.582,46.037C2.845,48.774,2.845,53.211,5.582,55.948L25.405,75.771C28.142,78.508,32.58,78.508,35.316,75.771L55.139,55.948C57.876,53.211,57.876,48.774,55.139,46.037L35.316,26.214C32.58,23.477,28.142,23.477,25.405,26.214L5.582,46.037ZM5.582,46.037"/>
</g>
  <g id="Heavy-S" transform="matrix(1.0,0.0,0.0,1.0,2595.9195812392813,618.214995745403)">  <path stroke-linecap="butt" stroke-opacity="1" stroke-miterlimit="4" stroke-linejoin="miter" stroke-width="1px" fill="#000000" stroke="none" clip-rule="evenodd" fill-opacity="1" fill-rule="evenodd" stroke-dasharray="none" d="M56.421,35.289L65.207,34.225C64.429,27.672,61.15,21.596,55.734,17.35C47.71,11.059,36.768,10.187,27.848,15.126C26.538,15.854,24.977,15.677,23.871,14.81C23.501,14.52,23.178,14.152,22.937,13.715C21.969,11.969,22.604,9.77,24.351,8.802C35.809,2.454,49.88,3.574,60.195,11.661C67.158,17.12,71.376,24.933,72.373,33.358L81.436,32.26C83.045,32.066,84.085,33.914,83.086,35.189L73.1,49.997C72.48,50.787,71.335,50.923,70.548,50.306L55.52,38.523C54.245,37.524,54.817,35.483,56.421,35.289ZM56.421,35.289"/>
  <path stroke-opacity="1" clip-rule="evenodd" stroke="none" fill-rule="evenodd" fill-opacity="1" stroke-width="1px" stroke-linecap="butt" stroke-miterlimit="4" stroke-dasharray="none" stroke-linejoin="miter" fill="#000000" d="M30.361,31.17L10.538,50.993L30.361,70.815L50.184,50.993L30.361,31.17ZM5.582,46.037C2.845,48.774,2.845,53.211,5.582,55.948L25.405,75.771C28.142,78.508,32.58,78.508,35.316,75.771L55.139,55.948C57.876,53.211,57.876,48.774,55.139,46.037L35.316,26.214C32.58,23.477,28.142,23.477,25.405,26.214L5.582,46.037ZM5.582,46.037"/>
</g>
  <g id="Bold-S" transform="matrix(1.0,0.0,0.0,1.0,2299.2095812392813,618.214995745403)">  <path fill-rule="evenodd" stroke-width="1px" clip-rule="evenodd" stroke-linejoin="miter" fill-opacity="1" stroke-linecap="butt" stroke="none" stroke-miterlimit="4" stroke-dasharray="none" stroke-opacity="1" fill="#000000" d="M56.421,35.289L65.207,34.225C64.429,27.672,61.15,21.596,55.734,17.35C47.71,11.059,36.768,10.187,27.848,15.126C26.538,15.854,24.977,15.677,23.871,14.81C23.501,14.52,23.178,14.152,22.937,13.715C21.969,11.969,22.604,9.77,24.351,8.802C35.809,2.454,49.88,3.574,60.195,11.661C67.158,17.12,71.376,24.933,72.373,33.358L81.436,32.26C83.045,32.066,84.085,33.914,83.086,35.189L73.1,49.997C72.48,50.787,71.335,50.923,70.548,50.306L55.52,38.523C54.245,37.524,54.817,35.483,56.421,35.289ZM56.421,35.289"/>
  <path stroke-width="1px" stroke-linejoin="miter" stroke-opacity="1" stroke-miterlimit="4" stroke="none" fill-opacity="1" stroke-linecap="butt" clip-rule="evenodd" fill="#000000" stroke-dasharray="none" fill-rule="evenodd" d="M30.361,31.17L10.538,50.993L30.361,70.815L50.184,50.993L30.361,31.17ZM5.582,46.037C2.845,48.774,2.845,53.211,5.582,55.948L25.405,75.771C28.142,78.508,32.58,78.508,35.316,75.771L55.139,55.948C57.876,53.211,57.876,48.774,55.139,46.037L35.316,26.214C32.58,23.477,28.142,23.477,25.405,26.214L5.582,46.037ZM5.582,46.037"/>
</g>
  <g id="Semibold-S" transform="matrix(1.0,0.0,0.0,1.0,2002.4995812392815,618.214995745403)">  <path stroke-linecap="butt" stroke-linejoin="miter" stroke="none" fill-rule="evenodd" stroke-miterlimit="4" stroke-width="1px" fill-opacity="1" fill="#000000" clip-rule="evenodd" stroke-opacity="1" stroke-dasharray="none" d="M56.421,35.289L65.207,34.225C64.429,27.672,61.15,21.596,55.734,17.35C47.71,11.059,36.768,10.187,27.848,15.126C26.538,15.854,24.977,15.677,23.871,14.81C23.501,14.52,23.178,14.152,22.937,13.715C21.969,11.969,22.604,9.77,24.351,8.802C35.809,2.454,49.88,3.574,60.195,11.661C67.158,17.12,71.376,24.933,72.373,33.358L81.436,32.26C83.045,32.066,84.085,33.914,83.086,35.189L73.1,49.997C72.48,50.787,71.335,50.923,70.548,50.306L55.52,38.523C54.245,37.524,54.817,35.483,56.421,35.289ZM56.421,35.289"/>
  <path fill-opacity="1" stroke-linecap="butt" stroke-opacity="1" stroke-linejoin="miter" stroke-width="1px" clip-rule="evenodd" stroke-miterlimit="4" fill="#000000" fill-rule="evenodd" stroke="none" stroke-dasharray="none" d="M30.361,31.17L10.538,50.993L30.361,70.815L50.184,50.993L30.361,31.17ZM5.582,46.037C2.845,48.774,2.845,53.211,5.582,55.948L25.405,75.771C28.142,78.508,32.58,78.508,35.316,75.771L55.139,55.948C57.876,53.211,57.876,48.774,55.139,46.037L35.316,26.214C32.58,23.477,28.142,23.477,25.405,26.214L5.582,46.037ZM5.582,46.037"/>
</g>
  <g id="Medium-S" transform="matrix(1.0,0.0,0.0,1.0,1705.7895812392815,618.214995745403)">  <path stroke-linejoin="miter" stroke-opacity="1" fill-rule="evenodd" stroke-miterlimit="4" stroke="none" stroke-dasharray="none" fill="#000000" clip-rule="evenodd" stroke-linecap="butt" fill-opacity="1" stroke-width="1px" d="M56.421,35.289L65.207,34.225C64.429,27.672,61.15,21.596,55.734,17.35C47.71,11.059,36.768,10.187,27.848,15.126C26.538,15.854,24.977,15.677,23.871,14.81C23.501,14.52,23.178,14.152,22.937,13.715C21.969,11.969,22.604,9.77,24.351,8.802C35.809,2.454,49.88,3.574,60.195,11.661C67.158,17.12,71.376,24.933,72.373,33.358L81.436,32.26C83.045,32.066,84.085,33.914,83.086,35.189L73.1,49.997C72.48,50.787,71.335,50.923,70.548,50.306L55.52,38.523C54.245,37.524,54.817,35.483,56.421,35.289ZM56.421,35.289"/>
  <path stroke-linejoin="miter" fill="#000000" stroke="none" stroke-width="1px" stroke-opacity="1" stroke-dasharray="none" fill-opacity="1" stroke-linecap="butt" fill-rule="evenodd" clip-rule="evenodd" stroke-miterlimit="4" d="M30.361,31.17L10.538,50.993L30.361,70.815L50.184,50.993L30.361,31.17ZM5.582,46.037C2.845,48.774,2.845,53.211,5.582,55.948L25.405,75.771C28.142,78.508,32.58,78.508,35.316,75.771L55.139,55.948C57.876,53.211,57.876,48.774,55.139,46.037L35.316,26.214C32.58,23.477,28.142,23.477,25.405,26.214L5.582,46.037ZM5.582,46.037"/>
</g>
  <g id="Regular-S" transform="matrix(1.0,0.0,0.0,1.0,1409.0795812392814,618.214995745403)">  <path stroke-dasharray="none" fill-opacity="1" stroke-opacity="1" stroke="none" fill-rule="evenodd" stroke-linejoin="miter" stroke-miterlimit="4" stroke-linecap="butt" stroke-width="1px" fill="#000000" clip-rule="evenodd" d="M56.421,35.289L65.207,34.225C64.429,27.672,61.15,21.596,55.734,17.35C47.71,11.059,36.768,10.187,27.848,15.126C26.538,15.854,24.977,15.677,23.871,14.81C23.501,14.52,23.178,14.152,22.937,13.715C21.969,11.969,22.604,9.77,24.351,8.802C35.809,2.454,49.88,3.574,60.195,11.661C67.158,17.12,71.376,24.933,72.373,33.358L81.436,32.26C83.045,32.066,84.085,33.914,83.086,35.189L73.1,49.997C72.48,50.787,71.335,50.923,70.548,50.306L55.52,38.523C54.245,37.524,54.817,35.483,56.421,35.289ZM56.421,35.289"/>
  <path clip-rule="evenodd" stroke-linejoin="miter" stroke-dasharray="none" fill-rule="evenodd" stroke-opacity="1" fill="#000000" stroke-miterlimit="4" stroke-linecap="butt" fill-opacity="1" stroke-width="1px" stroke="none" d="M30.361,31.17L10.538,50.993L30.361,70.815L50.184,50.993L30.361,31.17ZM5.582,46.037C2.845,48.774,2.845,53.211,5.582,55.948L25.405,75.771C28.142,78.508,32.58,78.508,35.316,75.771L55.139,55.948C57.876,53.211,57.876,48.774,55.139,46.037L35.316,26.214C32.58,23.477,28.142,23.477,25.405,26.214L5.582,46.037ZM5.582,46.037"/>
</g>
  <g id="Light-S" transform="matrix(1.0,0.0,0.0,1.0,1112.3695812392816,618.214995745403)">  <path stroke-opacity="1" stroke-linecap="butt" fill-rule="evenodd" clip-rule="evenodd" stroke-dasharray="none" stroke-width="1px" stroke-linejoin="miter" fill-opacity="1" fill="#000000" stroke-miterlimit="4" stroke="none" d="M56.421,35.289L65.207,34.225C64.429,27.672,61.15,21.596,55.734,17.35C47.71,11.059,36.768,10.187,27.848,15.126C26.538,15.854,24.977,15.677,23.871,14.81C23.501,14.52,23.178,14.152,22.937,13.715C21.969,11.969,22.604,9.77,24.351,8.802C35.809,2.454,49.88,3.574,60.195,11.661C67.158,17.12,71.376,24.933,72.373,33.358L81.436,32.26C83.045,32.066,84.085,33.914,83.086,35.189L73.1,49.997C72.48,50.787,71.335,50.923,70.548,50.306L55.52,38.523C54.245,37.524,54.817,35.483,56.421,35.289ZM56.421,35.289"/>
  <path stroke-linejoin="miter" stroke-linecap="butt" stroke-opacity="1" clip-rule="evenodd" fill="#000000" stroke="none" stroke-width="1px" stroke-miterlimit="4" stroke-dasharray="none" fill-opacity="1" fill-rule="evenodd" d="M30.361,31.17L10.538,50.993L30.361,70.815L50.184,50.993L30.361,31.17ZM5.582,46.037C2.845,48.774,2.845,53.211,5.582,55.948L25.405,75.771C28.142,78.508,32.58,78.508,35.316,75.771L55.139,55.948C57.876,53.211,57.876,48.774,55.139,46.037L35.316,26.214C32.58,23.477,28.142,23.477,25.405,26.214L5.582,46.037ZM5.582,46.037"/>
</g>
  <g id="Thin-S" transform="matrix(1.0,0.0,0.0,1.0,815.6595812392817,618.214995745403)">  <path stroke-width="1px" stroke-miterlimit="4" stroke-dasharray="none" stroke-linecap="butt" fill="#000000" fill-rule="evenodd" fill-opacity="1" stroke-linejoin="miter" clip-rule="evenodd" stroke-opacity="1" stroke="none" d="M56.421,35.289L65.207,34.225C64.429,27.672,61.15,21.596,55.734,17.35C47.71,11.059,36.768,10.187,27.848,15.126C26.538,15.854,24.977,15.677,23.871,14.81C23.501,14.52,23.178,14.152,22.937,13.715C21.969,11.969,22.604,9.77,24.351,8.802C35.809,2.454,49.88,3.574,60.195,11.661C67.158,17.12,71.376,24.933,72.373,33.358L81.436,32.26C83.045,32.066,84.085,33.914,83.086,35.189L73.1,49.997C72.48,50.787,71.335,50.923,70.548,50.306L55.52,38.523C54.245,37.524,54.817,35.483,56.421,35.289ZM56.421,35.289"/>
  <path stroke-opacity="1" stroke-linejoin="miter" stroke-dasharray="none" fill-opacity="1" stroke-miterlimit="4" stroke="none" stroke-width="1px" fill="#000000" stroke-linecap="butt" clip-rule="evenodd" fill-rule="evenodd" d="M30.361,31.17L10.538,50.993L30.361,70.815L50.184,50.993L30.361,31.17ZM5.582,46.037C2.845,48.774,2.845,53.211,5.582,55.948L25.405,75.771C28.142,78.508,32.58,78.508,35.316,75.771L55.139,55.948C57.876,53.211,57.876,48.774,55.139,46.037L35.316,26.214C32.58,23.477,28.142,23.477,25.405,26.214L5.582,46.037ZM5.582,46.037"/>
</g>
  <g id="Ultralight-S" transform="matrix(1.0,0.0,0.0,1.0,518.9495812392817,618.214995745403)">  <path fill="#000000" stroke="none" stroke-linejoin="miter" clip-rule="evenodd" stroke-width="1px" fill-opacity="1" stroke-linecap="butt" fill-rule="evenodd" stroke-opacity="1" stroke-miterlimit="4" stroke-dasharray="none" d="M56.421,35.289L65.207,34.225C64.429,27.672,61.15,21.596,55.734,17.35C47.71,11.059,36.768,10.187,27.848,15.126C26.538,15.854,24.977,15.677,23.871,14.81C23.501,14.52,23.178,14.152,22.937,13.715C21.969,11.969,22.604,9.77,24.351,8.802C35.809,2.454,49.88,3.574,60.195,11.661C67.158,17.12,71.376,24.933,72.373,33.358L81.436,32.26C83.045,32.066,84.085,33.914,83.086,35.189L73.1,49.997C72.48,50.787,71.335,50.923,70.548,50.306L55.52,38.523C54.245,37.524,54.817,35.483,56.421,35.289ZM56.421,35.289"/>
  <path stroke-linecap="butt" stroke-linejoin="miter" stroke-opacity="1" fill="#000000" stroke-miterlimit="4" stroke-dasharray="none" fill-rule="evenodd" stroke="none" fill-opacity="1" stroke-width="1px" clip-rule="evenodd" d="M30.361,31.17L10.538,50.993L30.361,70.815L50.184,50.993L30.361,31.17ZM5.582,46.037C2.845,48.774,2.845,53.211,5.582,55.948L25.405,75.771C28.142,78.508,32.58,78.508,35.316,75.771L55.139,55.948C57.876,53.211,57.876,48.774,55.139,46.037L35.316,26.214C32.58,23.477,28.142,23.477,25.405,26.214L5.582,46.037ZM5.582,46.037"/>
</g>
 </g>
</svg>
