<?xml version="1.0" encoding="UTF-8"?>
<!-- Generator: CustomSymbols v2.6.1.40 by @serious_bret https://bretlester.com/app_content/CustomSymbols/ -->
<!-- Guides: Left/Right 0.125/0.127 Cap/Base 0.186/0.186 -->
<!-- Settings: RefScale 1.0 Min/Max Stroke Scales 0.5/2.21 -->
<!DOCTYPE svg
PUBLIC "-//W3C//DTD SVG 1.1//EN"
       "http://www.w3.org/Graphics/SVG/1.1/DTD/svg11.dtd">
<svg version="1.1" xmlns="http://www.w3.org/2000/svg" xmlns:xlink="http://www.w3.org/1999/xlink" width="3300" height="2200">
<![CDATA[<svg width="24" height="24" viewBox="0 0 24 24" fill="none" xmlns="http://www.w3.org/2000/svg">
<path fill-rule="evenodd" clip-rule="evenodd" d="M3 4C3 3.44772 3.44772 3 4 3H10C10.5523 3 11 3.44772 11 4V10C11 10.5523 10.5523 11 10 11H7.60718H4C3.44772 11 3 10.5523 3 10V4ZM4 13C3.44772 13 3 13.4477 3 14V20C3 20.5523 3.44772 21 4 21H7.60718H10C10.5523 21 11 20.5523 11 20V14C11 13.4477 10.5523 13 10 13H4ZM14 13C13.4477 13 13 13.4477 13 14V20C13 20.5523 13.4477 21 14 21H17.6072H20C20.5523 21 21 20.5523 21 20V14C21 13.4477 20.5523 13 20 13H14ZM14 3C13.4477 3 13 3.44772 13 4V10C13 10.5523 13.4477 11 14 11H17.6072H20C20.5523 11 21 10.5523 21 10V4C21 3.44772 20.5523 3 20 3H14Z" fill="black"/>
</svg>
]]>
 <g id="Notes">
  <rect height="2200" id="artboard" style="fill:white;opacity:1" width="3300" x="0" y="0"/>
  <line id="" style="fill:none;stroke:black;opacity:1;stroke-width:0.5;" x1="263" x2="3036" y1="292" y2="292"/>
  <text id="reftext1" style="stroke:none;fill:black;font-family:-apple-system,&quot;SF Pro Display&quot;,&quot;SF Pro Text&quot;,Helvetica,sans-serif;font-weight:bold;" transform="matrix(1 0 0 1 263 322)">Weight/Scale Variations</text>
  <text id="reftext2" style="stroke:none;fill:black;font-family:-apple-system,&quot;SF Pro Display&quot;,&quot;SF Pro Text&quot;,Helvetica,sans-serif;text-anchor:middle;" transform="matrix(1 0 0 1 559.711 322)">Ultralight</text>
  <text style="stroke:none;fill:black;font-family:-apple-system,&quot;SF Pro Display&quot;,&quot;SF Pro Text&quot;,Helvetica,sans-serif;text-anchor:middle;" transform="matrix(1 0 0 1 856.422 322)">Thin</text>
  <text style="stroke:none;fill:black;font-family:-apple-system,&quot;SF Pro Display&quot;,&quot;SF Pro Text&quot;,Helvetica,sans-serif;text-anchor:middle;" transform="matrix(1 0 0 1 1153.13 322)">Light</text>
  <text style="stroke:none;fill:black;font-family:-apple-system,&quot;SF Pro Display&quot;,&quot;SF Pro Text&quot;,Helvetica,sans-serif;text-anchor:middle;" transform="matrix(1 0 0 1 1449.84 322)">Regular</text>
  <text style="stroke:none;fill:black;font-family:-apple-system,&quot;SF Pro Display&quot;,&quot;SF Pro Text&quot;,Helvetica,sans-serif;text-anchor:middle;" transform="matrix(1 0 0 1 1746.56 322)">Medium</text>
  <text style="stroke:none;fill:black;font-family:-apple-system,&quot;SF Pro Display&quot;,&quot;SF Pro Text&quot;,Helvetica,sans-serif;text-anchor:middle;" transform="matrix(1 0 0 1 2043.27 322)">Semibold</text>
  <text style="stroke:none;fill:black;font-family:-apple-system,&quot;SF Pro Display&quot;,&quot;SF Pro Text&quot;,Helvetica,sans-serif;text-anchor:middle;" transform="matrix(1 0 0 1 2339.98 322)">Bold</text>
  <text style="stroke:none;fill:black;font-family:-apple-system,&quot;SF Pro Display&quot;,&quot;SF Pro Text&quot;,Helvetica,sans-serif;text-anchor:middle;" transform="matrix(1 0 0 1 2636.69 322)">Heavy</text>
  <text style="stroke:none;fill:black;font-family:-apple-system,&quot;SF Pro Display&quot;,&quot;SF Pro Text&quot;,Helvetica,sans-serif;text-anchor:middle;" transform="matrix(1 0 0 1 2933.4 322)">Black</text>
  <line id="" style="fill:none;stroke:black;opacity:1;stroke-width:0.5;" x1="263" x2="3036" y1="1903" y2="1903"/>
  <g id="" transform="matrix(1 0 0 1 263 1933)">
   <path d="M9.24805 0.830078C13.5547 0.830078 17.1387-2.74414 17.1387-7.05078C17.1387-11.3574 13.5449-14.9316 9.23828-14.9316C4.94141-14.9316 1.36719-11.3574 1.36719-7.05078C1.36719-2.74414 4.95117 0.830078 9.24805 0.830078ZM9.24805-0.654297C5.70312-0.654297 2.87109-3.49609 2.87109-7.05078C2.87109-10.6055 5.69336-13.4473 9.23828-13.4473C12.793-13.4473 15.6348-10.6055 15.6445-7.05078C15.6543-3.49609 12.8027-0.654297 9.24805-0.654297ZM6.39648-6.31836L8.50586-6.31836L8.50586-4.19922C8.50586-3.75977 8.79883-3.45703 9.22852-3.45703C9.67773-3.45703 9.9707-3.75977 9.9707-4.19922L9.9707-6.31836L12.0996-6.31836C12.5391-6.31836 12.8418-6.61133 12.8418-7.04102C12.8418-7.48047 12.5391-7.7832 12.0996-7.7832L9.9707-7.7832L9.9707-9.89258C9.9707-10.3418 9.67773-10.6445 9.22852-10.6445C8.79883-10.6445 8.50586-10.3418 8.50586-9.89258L8.50586-7.7832L6.39648-7.7832C5.94727-7.7832 5.64453-7.48047 5.64453-7.04102C5.64453-6.61133 5.94727-6.31836 6.39648-6.31836Z"/>
  </g>
  <g id="" transform="matrix(1 0 0 1 281.506 1933)">
   <path d="M11.709 2.91016C17.1582 2.91016 21.6699-1.61133 21.6699-7.05078C21.6699-12.5 17.1484-17.0117 11.6992-17.0117C6.25977-17.0117 1.74805-12.5 1.74805-7.05078C1.74805-1.61133 6.26953 2.91016 11.709 2.91016ZM11.709 1.25C7.09961 1.25 3.41797-2.44141 3.41797-7.05078C3.41797-11.6602 7.08984-15.3516 11.6992-15.3516C16.3086-15.3516 20-11.6602 20.0098-7.05078C20.0195-2.44141 16.3184 1.25 11.709 1.25ZM7.98828-6.23047L10.8789-6.23047L10.8789-3.32031C10.8789-2.83203 11.2109-2.5 11.6895-2.5C12.1777-2.5 12.5195-2.83203 12.5195-3.32031L12.5195-6.23047L15.4297-6.23047C15.918-6.23047 16.25-6.5625 16.25-7.04102C16.25-7.5293 15.918-7.87109 15.4297-7.87109L12.5195-7.87109L12.5195-10.7617C12.5195-11.2695 12.1777-11.6016 11.6895-11.6016C11.2109-11.6016 10.8789-11.2598 10.8789-10.7617L10.8789-7.87109L7.98828-7.87109C7.48047-7.87109 7.14844-7.5293 7.14844-7.04102C7.14844-6.5625 7.49023-6.23047 7.98828-6.23047Z"/>
  </g>
  <g id="" transform="matrix(1 0 0 1 304.924 1933)">
   <path d="M14.9707 5.66406C21.9336 5.66406 27.6953-0.0976562 27.6953-7.05078C27.6953-14.0137 21.9238-19.7754 14.9609-19.7754C8.00781-19.7754 2.25586-14.0137 2.25586-7.05078C2.25586-0.0976562 8.01758 5.66406 14.9707 5.66406ZM14.9707 3.84766C8.93555 3.84766 4.08203-1.01562 4.08203-7.05078C4.08203-13.0957 8.92578-17.9492 14.9609-17.9492C21.0059-17.9492 25.8594-13.0957 25.8691-7.05078C25.8789-1.01562 21.0156 3.84766 14.9707 3.84766ZM10.0586-6.14258L14.0625-6.14258L14.0625-2.12891C14.0625-1.5918 14.4336-1.2207 14.9512-1.2207C15.4883-1.2207 15.8594-1.5918 15.8594-2.12891L15.8594-6.14258L19.8828-6.14258C20.4102-6.14258 20.791-6.51367 20.791-7.03125C20.791-7.56836 20.4199-7.94922 19.8828-7.94922L15.8594-7.94922L15.8594-11.9531C15.8594-12.5098 15.4883-12.8809 14.9512-12.8809C14.4336-12.8809 14.0625-12.5 14.0625-11.9531L14.0625-7.94922L10.0586-7.94922C9.50195-7.94922 9.13086-7.56836 9.13086-7.03125C9.13086-6.51367 9.51172-6.14258 10.0586-6.14258Z"/>
  </g>
  <text style="stroke:none;fill:black;font-family:-apple-system,&quot;SF Pro Display&quot;,&quot;SF Pro Text&quot;,Helvetica,sans-serif;font-weight:bold;" transform="matrix(1 0 0 1 263 1953)">Design Variations</text>
  <text style="stroke:none;fill:black;font-family:-apple-system,&quot;SF Pro Display&quot;,&quot;SF Pro Text&quot;,Helvetica,sans-serif;" transform="matrix(1 0 0 1 263 1971)">Symbols are supported in up to nine weights and three scales.</text>
  <text style="stroke:none;fill:black;font-family:-apple-system,&quot;SF Pro Display&quot;,&quot;SF Pro Text&quot;,Helvetica,sans-serif;" transform="matrix(1 0 0 1 263 1989)">For optimal layout with text and other symbols, vertically align</text>
  <text style="stroke:none;fill:black;font-family:-apple-system,&quot;SF Pro Display&quot;,&quot;SF Pro Text&quot;,Helvetica,sans-serif;" transform="matrix(1 0 0 1 263 2007)">symbols with the adjacent text.</text>
  <line id="" style="fill:none;stroke:#00AEEF;stroke-width:0.5;opacity:1.0;" x1="776" x2="776" y1="1919" y2="1933"/>
  <g id="" transform="matrix(1 0 0 1 776 1933)">
   <path d="M3.31055 0.126953C3.82812 0.126953 4.08203-0.0683594 4.26758-0.605469L5.52734-4.0625L11.2891-4.0625L12.5488-0.605469C12.7344-0.0683594 12.9883 0.126953 13.4961 0.126953C14.0137 0.126953 14.3457-0.185547 14.3457-0.673828C14.3457-0.839844 14.3164-0.986328 14.2383-1.20117L9.6582-13.3887C9.43359-13.9941 9.0332-14.2871 8.4082-14.2871C7.80273-14.2871 7.39258-13.9941 7.17773-13.3984L2.59766-1.19141C2.51953-0.976562 2.49023-0.830078 2.49023-0.664062C2.49023-0.175781 2.80273 0.126953 3.31055 0.126953ZM6.00586-5.53711L8.37891-12.1094L8.42773-12.1094L10.8008-5.53711Z"/>
  </g>
  <line id="" style="fill:none;stroke:#00AEEF;stroke-width:0.5;opacity:1.0;" x1="792.836" x2="792.836" y1="1919" y2="1933"/>
  <text style="stroke:none;fill:black;font-family:-apple-system,&quot;SF Pro Display&quot;,&quot;SF Pro Text&quot;,Helvetica,sans-serif;font-weight:bold;" transform="matrix(1 0 0 1 776 1953)">Margins</text>
  <text style="stroke:none;fill:black;font-family:-apple-system,&quot;SF Pro Display&quot;,&quot;SF Pro Text&quot;,Helvetica,sans-serif;" transform="matrix(1 0 0 1 776 1971)">Leading and trailing margins on the left and right side of each symbol</text>
  <text style="stroke:none;fill:black;font-family:-apple-system,&quot;SF Pro Display&quot;,&quot;SF Pro Text&quot;,Helvetica,sans-serif;" transform="matrix(1 0 0 1 776 1989)">can be adjusted by modifying the x-location of the margin guidelines.</text>
  <text style="stroke:none;fill:black;font-family:-apple-system,&quot;SF Pro Display&quot;,&quot;SF Pro Text&quot;,Helvetica,sans-serif;" transform="matrix(1 0 0 1 776 2007)">Modifications are automatically applied proportionally to all</text>
  <text style="stroke:none;fill:black;font-family:-apple-system,&quot;SF Pro Display&quot;,&quot;SF Pro Text&quot;,Helvetica,sans-serif;" transform="matrix(1 0 0 1 776 2025)">scales and weights.</text>
  <g id="" transform="matrix(1 0 0 1 1289 1933)">
   <path d="M2.8418 1.86523L4.54102 3.57422C5.40039 4.44336 6.38672 4.38477 7.31445 3.35938L17.4902-7.85156C17.7539-7.76367 18.0273-7.7832 18.3398-7.8418L19.4043-8.03711L20.0684-7.36328L20.0293-6.80664C19.9902-6.30859 20.1172-5.92773 20.6055-5.44922L21.3672-4.70703C21.8457-4.22852 22.4609-4.19922 22.9297-4.66797L25.8398-7.58789C26.3086-8.05664 26.2891-8.65234 25.8105-9.13086L25.0391-9.89258C24.5605-10.3711 24.1895-10.5273 23.7109-10.4883L23.1348-10.4395L22.4902-11.0742L22.7344-12.1973C22.8613-12.7637 22.7051-13.2031 22.1191-13.7891L19.9219-15.9766C16.582-19.2969 12.1484-19.2188 9.25781-16.3281C8.83789-15.918 8.80859-15.3418 9.04297-14.9512C9.27734-14.5898 9.73633-14.3555 10.3809-14.5215C11.8457-14.8633 13.3691-14.9219 14.7949-13.9844L14.209-12.5293C14.0137-12.0508 13.9844-11.6504 14.1113-11.2891L3.04688-0.898438C2.06055 0.0195312 1.98242 0.996094 2.8418 1.86523ZM10.752-15.957C13.1836-17.7344 16.4746-17.4316 18.7012-15.2051L21.1328-12.793C21.3672-12.5586 21.4062-12.373 21.3379-12.0312L21.0156-10.5469L22.5195-9.0625L23.5059-9.12109C23.7598-9.13086 23.8379-9.11133 24.0332-8.91602L24.6094-8.33984L22.168-5.89844L21.5918-6.47461C21.3965-6.66992 21.3672-6.74805 21.377-7.01172L21.4453-7.98828L19.9512-9.47266L18.4277-9.21875C18.1055-9.15039 17.959-9.17969 17.7148-9.41406L15.7129-11.416C15.459-11.6504 15.4297-11.8164 15.5859-12.1875L16.4648-14.2773C14.9023-15.7324 12.8711-16.3574 10.8398-15.7617C10.6836-15.7227 10.625-15.8496 10.752-15.957ZM5.27344 2.30469L4.10156 1.14258C3.63281 0.683594 3.74023 0.341797 4.14062-0.0195312L14.9512-10.1953L16.416-8.71094L6.42578 2.27539C6.07422 2.67578 5.74219 2.77344 5.27344 2.30469Z"/>
  </g>
  <text style="stroke:none;fill:black;font-family:-apple-system,&quot;SF Pro Display&quot;,&quot;SF Pro Text&quot;,Helvetica,sans-serif;font-weight:bold;" transform="matrix(1 0 0 1 1289 1953)">Exporting</text>
  <text style="stroke:none;fill:black;font-family:-apple-system,&quot;SF Pro Display&quot;,&quot;SF Pro Text&quot;,Helvetica,sans-serif;" transform="matrix(1 0 0 1 1289 1971)">Symbols should be outlined when exporting to ensure the</text>
  <text style="stroke:none;fill:black;font-family:-apple-system,&quot;SF Pro Display&quot;,&quot;SF Pro Text&quot;,Helvetica,sans-serif;" transform="matrix(1 0 0 1 1289 1989)">design is preserved when submitting to Xcode.</text>
  <text id="template-version" style="stroke:none;fill:black;font-family:-apple-system,&quot;SF Pro Display&quot;,&quot;SF Pro Text&quot;,Helvetica,sans-serif;text-anchor:end;" transform="matrix(1 0 0 1 3036 1933)">Template v.2.0</text>
  <text style="stroke:none;fill:black;font-family:-apple-system,&quot;SF Pro Display&quot;,&quot;SF Pro Text&quot;,Helvetica,sans-serif;text-anchor:end;" transform="matrix(1 0 0 1 3036 1951)">Requires Xcode 12 or greater</text>
  <text style="stroke:none;fill:black;font-family:-apple-system,&quot;SF Pro Display&quot;,&quot;SF Pro Text&quot;,Helvetica,sans-serif;" transform="matrix(1 0 0 1 263 726)">Small</text>
  <text style="stroke:none;fill:black;font-family:-apple-system,&quot;SF Pro Display&quot;,&quot;SF Pro Text&quot;,Helvetica,sans-serif;" transform="matrix(1 0 0 1 263 1156)">Medium</text>
  <text style="stroke:none;fill:black;font-family:-apple-system,&quot;SF Pro Display&quot;,&quot;SF Pro Text&quot;,Helvetica,sans-serif;" transform="matrix(1 0 0 1 263 1586)">Large</text>
 </g>
 <g id="Guides">
  <g id="H-reference" style="fill:#27AAE1;stroke:none;" transform="matrix(1 0 0 1 339 696)">
   <path d="M0.976562 0L3.66211 0L12.9883-24.4629L45.752-24.4629L55.127 0L57.7637 0L30.6152-70.459L28.125-70.459ZM29.3457-67.1387L29.4434-67.1387L44.873-26.709L13.8672-26.709Z"/>
  </g>
  <line id="Baseline-S" style="fill:none;stroke:#27AAE1;opacity:1;stroke-width:0.5;" x1="263" x2="3036" y1="696" y2="696"/>
  <line id="Capline-S" style="fill:none;stroke:#27AAE1;opacity:1;stroke-width:0.5;" x1="263" x2="3036" y1="625.541" y2="625.541"/>
  <g id="H-reference" style="fill:#27AAE1;stroke:none;" transform="matrix(1 0 0 1 339 1126)">
   <path d="M0.976562 0L3.66211 0L12.9883-24.4629L45.752-24.4629L55.127 0L57.7637 0L30.6152-70.459L28.125-70.459ZM29.3457-67.1387L29.4434-67.1387L44.873-26.709L13.8672-26.709Z"/>
  </g>
  <line id="Baseline-M" style="fill:none;stroke:#27AAE1;opacity:1;stroke-width:0.5;" x1="263" x2="3036" y1="1126" y2="1126"/>
  <line id="Capline-M" style="fill:none;stroke:#27AAE1;opacity:1;stroke-width:0.5;" x1="263" x2="3036" y1="1055.54" y2="1055.54"/>
  <g id="H-reference" style="fill:#27AAE1;stroke:none;" transform="matrix(1 0 0 1 339 1556)">
   <path d="M0.976562 0L3.66211 0L12.9883-24.4629L45.752-24.4629L55.127 0L57.7637 0L30.6152-70.459L28.125-70.459ZM29.3457-67.1387L29.4434-67.1387L44.873-26.709L13.8672-26.709Z"/>
  </g>
  <line id="Baseline-L" style="fill:none;stroke:#27AAE1;opacity:1;stroke-width:0.5;" x1="263" x2="3036" y1="1556" y2="1556"/>
  <line id="Capline-L" style="fill:none;stroke:#27AAE1;opacity:1;stroke-width:0.5;" x1="263" x2="3036" y1="1485.54" y2="1485.54"/>
  <line id="left-margin" x1="1409.05597873955" x2="1409.05597873955" y1="1030.79" y2="1150.12" style="fill:none;stroke:#00AEEF;stroke-width:0.5;opacity:1.0;"/>
  <line id="right-margin" x1="1492.979626480394" x2="1492.979626480394" y1="1030.79" y2="1150.12" style="fill:none;stroke:#00AEEF;stroke-width:0.5;opacity:1.0;"/>
 </g>
 <g id="Symbols">
  <g id="Black-L" transform="matrix(1.0,0.0,0.0,1.0,2862.312683432026,1448.4027029632762)">  <path fill-opacity="1" stroke-opacity="1" stroke-miterlimit="4" stroke-linejoin="miter" stroke-width="1px" stroke-dasharray="none" fill="#000000" stroke="none" clip-rule="evenodd" stroke-linecap="butt" fill-rule="evenodd" d="M18.092,24.122C18.092,20.792,20.792,18.092,24.122,18.092L60.306,18.092C63.637,18.092,66.337,20.792,66.337,24.122L66.337,60.306C66.337,63.637,63.637,66.337,60.306,66.337L45.876,66.337L24.122,66.337C20.792,66.337,18.092,63.637,18.092,60.306L18.092,24.122ZM24.122,78.398C20.792,78.398,18.092,81.098,18.092,84.429L18.092,120.612C18.092,123.943,20.792,126.643,24.122,126.643L45.876,126.643L60.306,126.643C63.637,126.643,66.337,123.943,66.337,120.612L66.337,84.429C66.337,81.098,63.637,78.398,60.306,78.398L24.122,78.398ZM84.429,78.398C81.098,78.398,78.398,81.098,78.398,84.429L78.398,120.612C78.398,123.943,81.098,126.643,84.429,126.643L106.182,126.643L120.612,126.643C123.943,126.643,126.643,123.943,126.643,120.612L126.643,84.429C126.643,81.098,123.943,78.398,120.612,78.398L84.429,78.398ZM84.429,18.092C81.098,18.092,78.398,20.792,78.398,24.122L78.398,60.306C78.398,63.637,81.098,66.337,84.429,66.337L106.182,66.337L120.612,66.337C123.943,66.337,126.643,63.637,126.643,60.306L126.643,24.122C126.643,20.792,123.943,18.092,120.612,18.092L84.429,18.092ZM84.429,18.092"/>
</g>
  <g id="Heavy-L" transform="matrix(1.0,0.0,0.0,1.0,2565.602683432026,1448.4027029632762)">  <path stroke-linejoin="miter" stroke-linecap="butt" fill-opacity="1" fill="#000000" stroke-opacity="1" stroke="none" stroke-width="1px" stroke-miterlimit="4" stroke-dasharray="none" clip-rule="evenodd" fill-rule="evenodd" d="M18.092,24.122C18.092,20.792,20.792,18.092,24.122,18.092L60.306,18.092C63.637,18.092,66.337,20.792,66.337,24.122L66.337,60.306C66.337,63.637,63.637,66.337,60.306,66.337L45.876,66.337L24.122,66.337C20.792,66.337,18.092,63.637,18.092,60.306L18.092,24.122ZM24.122,78.398C20.792,78.398,18.092,81.098,18.092,84.429L18.092,120.612C18.092,123.943,20.792,126.643,24.122,126.643L45.876,126.643L60.306,126.643C63.637,126.643,66.337,123.943,66.337,120.612L66.337,84.429C66.337,81.098,63.637,78.398,60.306,78.398L24.122,78.398ZM84.429,78.398C81.098,78.398,78.398,81.098,78.398,84.429L78.398,120.612C78.398,123.943,81.098,126.643,84.429,126.643L106.182,126.643L120.612,126.643C123.943,126.643,126.643,123.943,126.643,120.612L126.643,84.429C126.643,81.098,123.943,78.398,120.612,78.398L84.429,78.398ZM84.429,18.092C81.098,18.092,78.398,20.792,78.398,24.122L78.398,60.306C78.398,63.637,81.098,66.337,84.429,66.337L106.182,66.337L120.612,66.337C123.943,66.337,126.643,63.637,126.643,60.306L126.643,24.122C126.643,20.792,123.943,18.092,120.612,18.092L84.429,18.092ZM84.429,18.092"/>
</g>
  <g id="Bold-L" transform="matrix(1.0,0.0,0.0,1.0,2268.892683432026,1448.4027029632762)">  <path stroke-opacity="1" stroke="none" clip-rule="evenodd" stroke-miterlimit="4" fill-opacity="1" fill-rule="evenodd" stroke-linejoin="miter" stroke-dasharray="none" fill="#000000" stroke-linecap="butt" stroke-width="1px" d="M18.092,24.122C18.092,20.792,20.792,18.092,24.122,18.092L60.306,18.092C63.637,18.092,66.337,20.792,66.337,24.122L66.337,60.306C66.337,63.637,63.637,66.337,60.306,66.337L45.876,66.337L24.122,66.337C20.792,66.337,18.092,63.637,18.092,60.306L18.092,24.122ZM24.122,78.398C20.792,78.398,18.092,81.098,18.092,84.429L18.092,120.612C18.092,123.943,20.792,126.643,24.122,126.643L45.876,126.643L60.306,126.643C63.637,126.643,66.337,123.943,66.337,120.612L66.337,84.429C66.337,81.098,63.637,78.398,60.306,78.398L24.122,78.398ZM84.429,78.398C81.098,78.398,78.398,81.098,78.398,84.429L78.398,120.612C78.398,123.943,81.098,126.643,84.429,126.643L106.182,126.643L120.612,126.643C123.943,126.643,126.643,123.943,126.643,120.612L126.643,84.429C126.643,81.098,123.943,78.398,120.612,78.398L84.429,78.398ZM84.429,18.092C81.098,18.092,78.398,20.792,78.398,24.122L78.398,60.306C78.398,63.637,81.098,66.337,84.429,66.337L106.182,66.337L120.612,66.337C123.943,66.337,126.643,63.637,126.643,60.306L126.643,24.122C126.643,20.792,123.943,18.092,120.612,18.092L84.429,18.092ZM84.429,18.092"/>
</g>
  <g id="Semibold-L" transform="matrix(1.0,0.0,0.0,1.0,1972.1826834320261,1448.4027029632762)">  <path fill-rule="evenodd" stroke-dasharray="none" stroke="none" fill-opacity="1" clip-rule="evenodd" stroke-linecap="butt" stroke-linejoin="miter" stroke-width="1px" stroke-opacity="1" fill="#000000" stroke-miterlimit="4" d="M18.092,24.122C18.092,20.792,20.792,18.092,24.122,18.092L60.306,18.092C63.637,18.092,66.337,20.792,66.337,24.122L66.337,60.306C66.337,63.637,63.637,66.337,60.306,66.337L45.876,66.337L24.122,66.337C20.792,66.337,18.092,63.637,18.092,60.306L18.092,24.122ZM24.122,78.398C20.792,78.398,18.092,81.098,18.092,84.429L18.092,120.612C18.092,123.943,20.792,126.643,24.122,126.643L45.876,126.643L60.306,126.643C63.637,126.643,66.337,123.943,66.337,120.612L66.337,84.429C66.337,81.098,63.637,78.398,60.306,78.398L24.122,78.398ZM84.429,78.398C81.098,78.398,78.398,81.098,78.398,84.429L78.398,120.612C78.398,123.943,81.098,126.643,84.429,126.643L106.182,126.643L120.612,126.643C123.943,126.643,126.643,123.943,126.643,120.612L126.643,84.429C126.643,81.098,123.943,78.398,120.612,78.398L84.429,78.398ZM84.429,18.092C81.098,18.092,78.398,20.792,78.398,24.122L78.398,60.306C78.398,63.637,81.098,66.337,84.429,66.337L106.182,66.337L120.612,66.337C123.943,66.337,126.643,63.637,126.643,60.306L126.643,24.122C126.643,20.792,123.943,18.092,120.612,18.092L84.429,18.092ZM84.429,18.092"/>
</g>
  <g id="Medium-L" transform="matrix(1.0,0.0,0.0,1.0,1675.472683432026,1448.4027029632762)">  <path stroke="none" stroke-miterlimit="4" fill-opacity="1" fill="#000000" stroke-width="1px" stroke-linecap="butt" stroke-linejoin="miter" stroke-opacity="1" stroke-dasharray="none" fill-rule="evenodd" clip-rule="evenodd" d="M18.092,24.122C18.092,20.792,20.792,18.092,24.122,18.092L60.306,18.092C63.637,18.092,66.337,20.792,66.337,24.122L66.337,60.306C66.337,63.637,63.637,66.337,60.306,66.337L45.876,66.337L24.122,66.337C20.792,66.337,18.092,63.637,18.092,60.306L18.092,24.122ZM24.122,78.398C20.792,78.398,18.092,81.098,18.092,84.429L18.092,120.612C18.092,123.943,20.792,126.643,24.122,126.643L45.876,126.643L60.306,126.643C63.637,126.643,66.337,123.943,66.337,120.612L66.337,84.429C66.337,81.098,63.637,78.398,60.306,78.398L24.122,78.398ZM84.429,78.398C81.098,78.398,78.398,81.098,78.398,84.429L78.398,120.612C78.398,123.943,81.098,126.643,84.429,126.643L106.182,126.643L120.612,126.643C123.943,126.643,126.643,123.943,126.643,120.612L126.643,84.429C126.643,81.098,123.943,78.398,120.612,78.398L84.429,78.398ZM84.429,18.092C81.098,18.092,78.398,20.792,78.398,24.122L78.398,60.306C78.398,63.637,81.098,66.337,84.429,66.337L106.182,66.337L120.612,66.337C123.943,66.337,126.643,63.637,126.643,60.306L126.643,24.122C126.643,20.792,123.943,18.092,120.612,18.092L84.429,18.092ZM84.429,18.092"/>
</g>
  <g id="Regular-L" transform="matrix(1.0,0.0,0.0,1.0,1378.762683432026,1448.4027029632762)">  <path fill-opacity="1" fill="#000000" stroke-width="1px" stroke-opacity="1" stroke-miterlimit="4" clip-rule="evenodd" stroke="none" stroke-linecap="butt" fill-rule="evenodd" stroke-linejoin="miter" stroke-dasharray="none" d="M18.092,24.122C18.092,20.792,20.792,18.092,24.122,18.092L60.306,18.092C63.637,18.092,66.337,20.792,66.337,24.122L66.337,60.306C66.337,63.637,63.637,66.337,60.306,66.337L45.876,66.337L24.122,66.337C20.792,66.337,18.092,63.637,18.092,60.306L18.092,24.122ZM24.122,78.398C20.792,78.398,18.092,81.098,18.092,84.429L18.092,120.612C18.092,123.943,20.792,126.643,24.122,126.643L45.876,126.643L60.306,126.643C63.637,126.643,66.337,123.943,66.337,120.612L66.337,84.429C66.337,81.098,63.637,78.398,60.306,78.398L24.122,78.398ZM84.429,78.398C81.098,78.398,78.398,81.098,78.398,84.429L78.398,120.612C78.398,123.943,81.098,126.643,84.429,126.643L106.182,126.643L120.612,126.643C123.943,126.643,126.643,123.943,126.643,120.612L126.643,84.429C126.643,81.098,123.943,78.398,120.612,78.398L84.429,78.398ZM84.429,18.092C81.098,18.092,78.398,20.792,78.398,24.122L78.398,60.306C78.398,63.637,81.098,66.337,84.429,66.337L106.182,66.337L120.612,66.337C123.943,66.337,126.643,63.637,126.643,60.306L126.643,24.122C126.643,20.792,123.943,18.092,120.612,18.092L84.429,18.092ZM84.429,18.092"/>
</g>
  <g id="Light-L" transform="matrix(1.0,0.0,0.0,1.0,1082.0526834320262,1448.4027029632762)">  <path fill-opacity="1" stroke="none" stroke-opacity="1" stroke-linejoin="miter" clip-rule="evenodd" stroke-miterlimit="4" fill-rule="evenodd" stroke-width="1px" stroke-linecap="butt" stroke-dasharray="none" fill="#000000" d="M18.092,24.122C18.092,20.792,20.792,18.092,24.122,18.092L60.306,18.092C63.637,18.092,66.337,20.792,66.337,24.122L66.337,60.306C66.337,63.637,63.637,66.337,60.306,66.337L45.876,66.337L24.122,66.337C20.792,66.337,18.092,63.637,18.092,60.306L18.092,24.122ZM24.122,78.398C20.792,78.398,18.092,81.098,18.092,84.429L18.092,120.612C18.092,123.943,20.792,126.643,24.122,126.643L45.876,126.643L60.306,126.643C63.637,126.643,66.337,123.943,66.337,120.612L66.337,84.429C66.337,81.098,63.637,78.398,60.306,78.398L24.122,78.398ZM84.429,78.398C81.098,78.398,78.398,81.098,78.398,84.429L78.398,120.612C78.398,123.943,81.098,126.643,84.429,126.643L106.182,126.643L120.612,126.643C123.943,126.643,126.643,123.943,126.643,120.612L126.643,84.429C126.643,81.098,123.943,78.398,120.612,78.398L84.429,78.398ZM84.429,18.092C81.098,18.092,78.398,20.792,78.398,24.122L78.398,60.306C78.398,63.637,81.098,66.337,84.429,66.337L106.182,66.337L120.612,66.337C123.943,66.337,126.643,63.637,126.643,60.306L126.643,24.122C126.643,20.792,123.943,18.092,120.612,18.092L84.429,18.092ZM84.429,18.092"/>
</g>
  <g id="Thin-L" transform="matrix(1.0,0.0,0.0,1.0,785.3426834320263,1448.4027029632762)">  <path stroke-linecap="butt" stroke-dasharray="none" stroke-width="1px" stroke-opacity="1" stroke-linejoin="miter" stroke-miterlimit="4" fill-opacity="1" clip-rule="evenodd" fill="#000000" stroke="none" fill-rule="evenodd" d="M18.092,24.122C18.092,20.792,20.792,18.092,24.122,18.092L60.306,18.092C63.637,18.092,66.337,20.792,66.337,24.122L66.337,60.306C66.337,63.637,63.637,66.337,60.306,66.337L45.876,66.337L24.122,66.337C20.792,66.337,18.092,63.637,18.092,60.306L18.092,24.122ZM24.122,78.398C20.792,78.398,18.092,81.098,18.092,84.429L18.092,120.612C18.092,123.943,20.792,126.643,24.122,126.643L45.876,126.643L60.306,126.643C63.637,126.643,66.337,123.943,66.337,120.612L66.337,84.429C66.337,81.098,63.637,78.398,60.306,78.398L24.122,78.398ZM84.429,78.398C81.098,78.398,78.398,81.098,78.398,84.429L78.398,120.612C78.398,123.943,81.098,126.643,84.429,126.643L106.182,126.643L120.612,126.643C123.943,126.643,126.643,123.943,126.643,120.612L126.643,84.429C126.643,81.098,123.943,78.398,120.612,78.398L84.429,78.398ZM84.429,18.092C81.098,18.092,78.398,20.792,78.398,24.122L78.398,60.306C78.398,63.637,81.098,66.337,84.429,66.337L106.182,66.337L120.612,66.337C123.943,66.337,126.643,63.637,126.643,60.306L126.643,24.122C126.643,20.792,123.943,18.092,120.612,18.092L84.429,18.092ZM84.429,18.092"/>
</g>
  <g id="Ultralight-L" transform="matrix(1.0,0.0,0.0,1.0,488.6326834320263,1448.4027029632762)">  <path fill="#000000" stroke-opacity="1" stroke="none" clip-rule="evenodd" stroke-dasharray="none" stroke-width="1px" fill-rule="evenodd" stroke-linejoin="miter" stroke-linecap="butt" stroke-miterlimit="4" fill-opacity="1" d="M18.092,24.122C18.092,20.792,20.792,18.092,24.122,18.092L60.306,18.092C63.637,18.092,66.337,20.792,66.337,24.122L66.337,60.306C66.337,63.637,63.637,66.337,60.306,66.337L45.876,66.337L24.122,66.337C20.792,66.337,18.092,63.637,18.092,60.306L18.092,24.122ZM24.122,78.398C20.792,78.398,18.092,81.098,18.092,84.429L18.092,120.612C18.092,123.943,20.792,126.643,24.122,126.643L45.876,126.643L60.306,126.643C63.637,126.643,66.337,123.943,66.337,120.612L66.337,84.429C66.337,81.098,63.637,78.398,60.306,78.398L24.122,78.398ZM84.429,78.398C81.098,78.398,78.398,81.098,78.398,84.429L78.398,120.612C78.398,123.943,81.098,126.643,84.429,126.643L106.182,126.643L120.612,126.643C123.943,126.643,126.643,123.943,126.643,120.612L126.643,84.429C126.643,81.098,123.943,78.398,120.612,78.398L84.429,78.398ZM84.429,18.092C81.098,18.092,78.398,20.792,78.398,24.122L78.398,60.306C78.398,63.637,81.098,66.337,84.429,66.337L106.182,66.337L120.612,66.337C123.943,66.337,126.643,63.637,126.643,60.306L126.643,24.122C126.643,20.792,123.943,18.092,120.612,18.092L84.429,18.092ZM84.429,18.092"/>
</g>
  <g id="Black-M" transform="matrix(1.0,0.0,0.0,1.0,2878.5813049860667,1034.6713245173169)">  <path fill-opacity="1" stroke-opacity="1" stroke-miterlimit="4" stroke-linejoin="miter" stroke-width="1px" stroke-dasharray="none" fill="#000000" stroke="none" clip-rule="evenodd" stroke-linecap="butt" fill-rule="evenodd" d="M14.025,18.7C14.025,16.118,16.118,14.025,18.7,14.025L46.749,14.025C49.331,14.025,51.424,16.118,51.424,18.7L51.424,46.749C51.424,49.331,49.331,51.424,46.749,51.424L35.563,51.424L18.7,51.424C16.118,51.424,14.025,49.331,14.025,46.749L14.025,18.7ZM18.7,60.774C16.118,60.774,14.025,62.867,14.025,65.448L14.025,93.498C14.025,96.08,16.118,98.173,18.7,98.173L35.563,98.173L46.749,98.173C49.331,98.173,51.424,96.08,51.424,93.498L51.424,65.448C51.424,62.867,49.331,60.774,46.749,60.774L18.7,60.774ZM65.448,60.774C62.867,60.774,60.774,62.867,60.774,65.448L60.774,93.498C60.774,96.08,62.867,98.173,65.448,98.173L82.312,98.173L93.498,98.173C96.08,98.173,98.173,96.08,98.173,93.498L98.173,65.448C98.173,62.867,96.08,60.774,93.498,60.774L65.448,60.774ZM65.448,14.025C62.867,14.025,60.774,16.118,60.774,18.7L60.774,46.749C60.774,49.331,62.867,51.424,65.448,51.424L82.312,51.424L93.498,51.424C96.08,51.424,98.173,49.331,98.173,46.749L98.173,18.7C98.173,16.118,96.08,14.025,93.498,14.025L65.448,14.025ZM65.448,14.025"/>
</g>
  <g id="Heavy-M" transform="matrix(1.0,0.0,0.0,1.0,2581.8713049860667,1034.6713245173169)">  <path stroke-linejoin="miter" stroke-linecap="butt" fill-opacity="1" fill="#000000" stroke-opacity="1" stroke="none" stroke-width="1px" stroke-miterlimit="4" stroke-dasharray="none" clip-rule="evenodd" fill-rule="evenodd" d="M14.025,18.7C14.025,16.118,16.118,14.025,18.7,14.025L46.749,14.025C49.331,14.025,51.424,16.118,51.424,18.7L51.424,46.749C51.424,49.331,49.331,51.424,46.749,51.424L35.563,51.424L18.7,51.424C16.118,51.424,14.025,49.331,14.025,46.749L14.025,18.7ZM18.7,60.774C16.118,60.774,14.025,62.867,14.025,65.448L14.025,93.498C14.025,96.08,16.118,98.173,18.7,98.173L35.563,98.173L46.749,98.173C49.331,98.173,51.424,96.08,51.424,93.498L51.424,65.448C51.424,62.867,49.331,60.774,46.749,60.774L18.7,60.774ZM65.448,60.774C62.867,60.774,60.774,62.867,60.774,65.448L60.774,93.498C60.774,96.08,62.867,98.173,65.448,98.173L82.312,98.173L93.498,98.173C96.08,98.173,98.173,96.08,98.173,93.498L98.173,65.448C98.173,62.867,96.08,60.774,93.498,60.774L65.448,60.774ZM65.448,14.025C62.867,14.025,60.774,16.118,60.774,18.7L60.774,46.749C60.774,49.331,62.867,51.424,65.448,51.424L82.312,51.424L93.498,51.424C96.08,51.424,98.173,49.331,98.173,46.749L98.173,18.7C98.173,16.118,96.08,14.025,93.498,14.025L65.448,14.025ZM65.448,14.025"/>
</g>
  <g id="Bold-M" transform="matrix(1.0,0.0,0.0,1.0,2285.1613049860666,1034.6713245173169)">  <path stroke-opacity="1" stroke="none" clip-rule="evenodd" stroke-miterlimit="4" fill-opacity="1" fill-rule="evenodd" stroke-linejoin="miter" stroke-dasharray="none" fill="#000000" stroke-linecap="butt" stroke-width="1px" d="M14.025,18.7C14.025,16.118,16.118,14.025,18.7,14.025L46.749,14.025C49.331,14.025,51.424,16.118,51.424,18.7L51.424,46.749C51.424,49.331,49.331,51.424,46.749,51.424L35.563,51.424L18.7,51.424C16.118,51.424,14.025,49.331,14.025,46.749L14.025,18.7ZM18.7,60.774C16.118,60.774,14.025,62.867,14.025,65.448L14.025,93.498C14.025,96.08,16.118,98.173,18.7,98.173L35.563,98.173L46.749,98.173C49.331,98.173,51.424,96.08,51.424,93.498L51.424,65.448C51.424,62.867,49.331,60.774,46.749,60.774L18.7,60.774ZM65.448,60.774C62.867,60.774,60.774,62.867,60.774,65.448L60.774,93.498C60.774,96.08,62.867,98.173,65.448,98.173L82.312,98.173L93.498,98.173C96.08,98.173,98.173,96.08,98.173,93.498L98.173,65.448C98.173,62.867,96.08,60.774,93.498,60.774L65.448,60.774ZM65.448,14.025C62.867,14.025,60.774,16.118,60.774,18.7L60.774,46.749C60.774,49.331,62.867,51.424,65.448,51.424L82.312,51.424L93.498,51.424C96.08,51.424,98.173,49.331,98.173,46.749L98.173,18.7C98.173,16.118,96.08,14.025,93.498,14.025L65.448,14.025ZM65.448,14.025"/>
</g>
  <g id="Semibold-M" transform="matrix(1.0,0.0,0.0,1.0,1988.4513049860668,1034.6713245173169)">  <path fill-rule="evenodd" stroke-dasharray="none" stroke="none" fill-opacity="1" clip-rule="evenodd" stroke-linecap="butt" stroke-linejoin="miter" stroke-width="1px" stroke-opacity="1" fill="#000000" stroke-miterlimit="4" d="M14.025,18.7C14.025,16.118,16.118,14.025,18.7,14.025L46.749,14.025C49.331,14.025,51.424,16.118,51.424,18.7L51.424,46.749C51.424,49.331,49.331,51.424,46.749,51.424L35.563,51.424L18.7,51.424C16.118,51.424,14.025,49.331,14.025,46.749L14.025,18.7ZM18.7,60.774C16.118,60.774,14.025,62.867,14.025,65.448L14.025,93.498C14.025,96.08,16.118,98.173,18.7,98.173L35.563,98.173L46.749,98.173C49.331,98.173,51.424,96.08,51.424,93.498L51.424,65.448C51.424,62.867,49.331,60.774,46.749,60.774L18.7,60.774ZM65.448,60.774C62.867,60.774,60.774,62.867,60.774,65.448L60.774,93.498C60.774,96.08,62.867,98.173,65.448,98.173L82.312,98.173L93.498,98.173C96.08,98.173,98.173,96.08,98.173,93.498L98.173,65.448C98.173,62.867,96.08,60.774,93.498,60.774L65.448,60.774ZM65.448,14.025C62.867,14.025,60.774,16.118,60.774,18.7L60.774,46.749C60.774,49.331,62.867,51.424,65.448,51.424L82.312,51.424L93.498,51.424C96.08,51.424,98.173,49.331,98.173,46.749L98.173,18.7C98.173,16.118,96.08,14.025,93.498,14.025L65.448,14.025ZM65.448,14.025"/>
</g>
  <g id="Medium-M" transform="matrix(1.0,0.0,0.0,1.0,1691.7413049860668,1034.6713245173169)">  <path stroke="none" stroke-miterlimit="4" fill-opacity="1" fill="#000000" stroke-width="1px" stroke-linecap="butt" stroke-linejoin="miter" stroke-opacity="1" stroke-dasharray="none" fill-rule="evenodd" clip-rule="evenodd" d="M14.025,18.7C14.025,16.118,16.118,14.025,18.7,14.025L46.749,14.025C49.331,14.025,51.424,16.118,51.424,18.7L51.424,46.749C51.424,49.331,49.331,51.424,46.749,51.424L35.563,51.424L18.7,51.424C16.118,51.424,14.025,49.331,14.025,46.749L14.025,18.7ZM18.7,60.774C16.118,60.774,14.025,62.867,14.025,65.448L14.025,93.498C14.025,96.08,16.118,98.173,18.7,98.173L35.563,98.173L46.749,98.173C49.331,98.173,51.424,96.08,51.424,93.498L51.424,65.448C51.424,62.867,49.331,60.774,46.749,60.774L18.7,60.774ZM65.448,60.774C62.867,60.774,60.774,62.867,60.774,65.448L60.774,93.498C60.774,96.08,62.867,98.173,65.448,98.173L82.312,98.173L93.498,98.173C96.08,98.173,98.173,96.08,98.173,93.498L98.173,65.448C98.173,62.867,96.08,60.774,93.498,60.774L65.448,60.774ZM65.448,14.025C62.867,14.025,60.774,16.118,60.774,18.7L60.774,46.749C60.774,49.331,62.867,51.424,65.448,51.424L82.312,51.424L93.498,51.424C96.08,51.424,98.173,49.331,98.173,46.749L98.173,18.7C98.173,16.118,96.08,14.025,93.498,14.025L65.448,14.025ZM65.448,14.025"/>
</g>
  <g id="Regular-M" transform="matrix(1.0,0.0,0.0,1.0,1395.0313049860667,1034.6713245173169)">  <path fill-opacity="1" fill="#000000" stroke-width="1px" stroke-opacity="1" stroke-miterlimit="4" clip-rule="evenodd" stroke="none" stroke-linecap="butt" fill-rule="evenodd" stroke-linejoin="miter" stroke-dasharray="none" d="M14.025,18.7C14.025,16.118,16.118,14.025,18.7,14.025L46.749,14.025C49.331,14.025,51.424,16.118,51.424,18.7L51.424,46.749C51.424,49.331,49.331,51.424,46.749,51.424L35.563,51.424L18.7,51.424C16.118,51.424,14.025,49.331,14.025,46.749L14.025,18.7ZM18.7,60.774C16.118,60.774,14.025,62.867,14.025,65.448L14.025,93.498C14.025,96.08,16.118,98.173,18.7,98.173L35.563,98.173L46.749,98.173C49.331,98.173,51.424,96.08,51.424,93.498L51.424,65.448C51.424,62.867,49.331,60.774,46.749,60.774L18.7,60.774ZM65.448,60.774C62.867,60.774,60.774,62.867,60.774,65.448L60.774,93.498C60.774,96.08,62.867,98.173,65.448,98.173L82.312,98.173L93.498,98.173C96.08,98.173,98.173,96.08,98.173,93.498L98.173,65.448C98.173,62.867,96.08,60.774,93.498,60.774L65.448,60.774ZM65.448,14.025C62.867,14.025,60.774,16.118,60.774,18.7L60.774,46.749C60.774,49.331,62.867,51.424,65.448,51.424L82.312,51.424L93.498,51.424C96.08,51.424,98.173,49.331,98.173,46.749L98.173,18.7C98.173,16.118,96.08,14.025,93.498,14.025L65.448,14.025ZM65.448,14.025"/>
</g>
  <g id="Light-M" transform="matrix(1.0,0.0,0.0,1.0,1098.321304986067,1034.6713245173169)">  <path fill-opacity="1" stroke="none" stroke-opacity="1" stroke-linejoin="miter" clip-rule="evenodd" stroke-miterlimit="4" fill-rule="evenodd" stroke-width="1px" stroke-linecap="butt" stroke-dasharray="none" fill="#000000" d="M14.025,18.7C14.025,16.118,16.118,14.025,18.7,14.025L46.749,14.025C49.331,14.025,51.424,16.118,51.424,18.7L51.424,46.749C51.424,49.331,49.331,51.424,46.749,51.424L35.563,51.424L18.7,51.424C16.118,51.424,14.025,49.331,14.025,46.749L14.025,18.7ZM18.7,60.774C16.118,60.774,14.025,62.867,14.025,65.448L14.025,93.498C14.025,96.08,16.118,98.173,18.7,98.173L35.563,98.173L46.749,98.173C49.331,98.173,51.424,96.08,51.424,93.498L51.424,65.448C51.424,62.867,49.331,60.774,46.749,60.774L18.7,60.774ZM65.448,60.774C62.867,60.774,60.774,62.867,60.774,65.448L60.774,93.498C60.774,96.08,62.867,98.173,65.448,98.173L82.312,98.173L93.498,98.173C96.08,98.173,98.173,96.08,98.173,93.498L98.173,65.448C98.173,62.867,96.08,60.774,93.498,60.774L65.448,60.774ZM65.448,14.025C62.867,14.025,60.774,16.118,60.774,18.7L60.774,46.749C60.774,49.331,62.867,51.424,65.448,51.424L82.312,51.424L93.498,51.424C96.08,51.424,98.173,49.331,98.173,46.749L98.173,18.7C98.173,16.118,96.08,14.025,93.498,14.025L65.448,14.025ZM65.448,14.025"/>
</g>
  <g id="Thin-M" transform="matrix(1.0,0.0,0.0,1.0,801.6113049860669,1034.6713245173169)">  <path stroke-linecap="butt" stroke-dasharray="none" stroke-width="1px" stroke-opacity="1" stroke-linejoin="miter" stroke-miterlimit="4" fill-opacity="1" clip-rule="evenodd" fill="#000000" stroke="none" fill-rule="evenodd" d="M14.025,18.7C14.025,16.118,16.118,14.025,18.7,14.025L46.749,14.025C49.331,14.025,51.424,16.118,51.424,18.7L51.424,46.749C51.424,49.331,49.331,51.424,46.749,51.424L35.563,51.424L18.7,51.424C16.118,51.424,14.025,49.331,14.025,46.749L14.025,18.7ZM18.7,60.774C16.118,60.774,14.025,62.867,14.025,65.448L14.025,93.498C14.025,96.08,16.118,98.173,18.7,98.173L35.563,98.173L46.749,98.173C49.331,98.173,51.424,96.08,51.424,93.498L51.424,65.448C51.424,62.867,49.331,60.774,46.749,60.774L18.7,60.774ZM65.448,60.774C62.867,60.774,60.774,62.867,60.774,65.448L60.774,93.498C60.774,96.08,62.867,98.173,65.448,98.173L82.312,98.173L93.498,98.173C96.08,98.173,98.173,96.08,98.173,93.498L98.173,65.448C98.173,62.867,96.08,60.774,93.498,60.774L65.448,60.774ZM65.448,14.025C62.867,14.025,60.774,16.118,60.774,18.7L60.774,46.749C60.774,49.331,62.867,51.424,65.448,51.424L82.312,51.424L93.498,51.424C96.08,51.424,98.173,49.331,98.173,46.749L98.173,18.7C98.173,16.118,96.08,14.025,93.498,14.025L65.448,14.025ZM65.448,14.025"/>
</g>
  <g id="Ultralight-M" transform="matrix(1.0,0.0,0.0,1.0,504.90130498606686,1034.6713245173169)">  <path fill="#000000" stroke-opacity="1" stroke="none" clip-rule="evenodd" stroke-dasharray="none" stroke-width="1px" fill-rule="evenodd" stroke-linejoin="miter" stroke-linecap="butt" stroke-miterlimit="4" fill-opacity="1" d="M14.025,18.7C14.025,16.118,16.118,14.025,18.7,14.025L46.749,14.025C49.331,14.025,51.424,16.118,51.424,18.7L51.424,46.749C51.424,49.331,49.331,51.424,46.749,51.424L35.563,51.424L18.7,51.424C16.118,51.424,14.025,49.331,14.025,46.749L14.025,18.7ZM18.7,60.774C16.118,60.774,14.025,62.867,14.025,65.448L14.025,93.498C14.025,96.08,16.118,98.173,18.7,98.173L35.563,98.173L46.749,98.173C49.331,98.173,51.424,96.08,51.424,93.498L51.424,65.448C51.424,62.867,49.331,60.774,46.749,60.774L18.7,60.774ZM65.448,60.774C62.867,60.774,60.774,62.867,60.774,65.448L60.774,93.498C60.774,96.08,62.867,98.173,65.448,98.173L82.312,98.173L93.498,98.173C96.08,98.173,98.173,96.08,98.173,93.498L98.173,65.448C98.173,62.867,96.08,60.774,93.498,60.774L65.448,60.774ZM65.448,14.025C62.867,14.025,60.774,16.118,60.774,18.7L60.774,46.749C60.774,49.331,62.867,51.424,65.448,51.424L82.312,51.424L93.498,51.424C96.08,51.424,98.173,49.331,98.173,46.749L98.173,18.7C98.173,16.118,96.08,14.025,93.498,14.025L65.448,14.025ZM65.448,14.025"/>
</g>
  <g id="Black-S" transform="matrix(1.0,0.0,0.0,1.0,2890.75472180409,616.8447413353404)">  <path fill-opacity="1" stroke-opacity="1" stroke-miterlimit="4" stroke-linejoin="miter" stroke-width="1px" stroke-dasharray="none" fill="#000000" stroke="none" clip-rule="evenodd" stroke-linecap="butt" fill-rule="evenodd" d="M10.981,14.642C10.981,12.62,12.62,10.981,14.642,10.981L36.604,10.981C38.626,10.981,40.265,12.62,40.265,14.642L40.265,36.604C40.265,38.626,38.626,40.265,36.604,40.265L27.846,40.265L14.642,40.265C12.62,40.265,10.981,38.626,10.981,36.604L10.981,14.642ZM14.642,47.586C12.62,47.586,10.981,49.224,10.981,51.246L10.981,73.209C10.981,75.23,12.62,76.869,14.642,76.869L27.846,76.869L36.604,76.869C38.626,76.869,40.265,75.23,40.265,73.209L40.265,51.246C40.265,49.224,38.626,47.586,36.604,47.586L14.642,47.586ZM51.246,47.586C49.224,47.586,47.586,49.224,47.586,51.246L47.586,73.209C47.586,75.23,49.224,76.869,51.246,76.869L64.45,76.869L73.209,76.869C75.23,76.869,76.869,75.23,76.869,73.209L76.869,51.246C76.869,49.224,75.23,47.586,73.209,47.586L51.246,47.586ZM51.246,10.981C49.224,10.981,47.586,12.62,47.586,14.642L47.586,36.604C47.586,38.626,49.224,40.265,51.246,40.265L64.45,40.265L73.209,40.265C75.23,40.265,76.869,38.626,76.869,36.604L76.869,14.642C76.869,12.62,75.23,10.981,73.209,10.981L51.246,10.981ZM51.246,10.981"/>
</g>
  <g id="Heavy-S" transform="matrix(1.0,0.0,0.0,1.0,2594.04472180409,616.8447413353404)">  <path stroke-linejoin="miter" stroke-linecap="butt" fill-opacity="1" fill="#000000" stroke-opacity="1" stroke="none" stroke-width="1px" stroke-miterlimit="4" stroke-dasharray="none" clip-rule="evenodd" fill-rule="evenodd" d="M10.981,14.642C10.981,12.62,12.62,10.981,14.642,10.981L36.604,10.981C38.626,10.981,40.265,12.62,40.265,14.642L40.265,36.604C40.265,38.626,38.626,40.265,36.604,40.265L27.846,40.265L14.642,40.265C12.62,40.265,10.981,38.626,10.981,36.604L10.981,14.642ZM14.642,47.586C12.62,47.586,10.981,49.224,10.981,51.246L10.981,73.209C10.981,75.23,12.62,76.869,14.642,76.869L27.846,76.869L36.604,76.869C38.626,76.869,40.265,75.23,40.265,73.209L40.265,51.246C40.265,49.224,38.626,47.586,36.604,47.586L14.642,47.586ZM51.246,47.586C49.224,47.586,47.586,49.224,47.586,51.246L47.586,73.209C47.586,75.23,49.224,76.869,51.246,76.869L64.45,76.869L73.209,76.869C75.23,76.869,76.869,75.23,76.869,73.209L76.869,51.246C76.869,49.224,75.23,47.586,73.209,47.586L51.246,47.586ZM51.246,10.981C49.224,10.981,47.586,12.62,47.586,14.642L47.586,36.604C47.586,38.626,49.224,40.265,51.246,40.265L64.45,40.265L73.209,40.265C75.23,40.265,76.869,38.626,76.869,36.604L76.869,14.642C76.869,12.62,75.23,10.981,73.209,10.981L51.246,10.981ZM51.246,10.981"/>
</g>
  <g id="Bold-S" transform="matrix(1.0,0.0,0.0,1.0,2297.33472180409,616.8447413353404)">  <path stroke-opacity="1" stroke="none" clip-rule="evenodd" stroke-miterlimit="4" fill-opacity="1" fill-rule="evenodd" stroke-linejoin="miter" stroke-dasharray="none" fill="#000000" stroke-linecap="butt" stroke-width="1px" d="M10.981,14.642C10.981,12.62,12.62,10.981,14.642,10.981L36.604,10.981C38.626,10.981,40.265,12.62,40.265,14.642L40.265,36.604C40.265,38.626,38.626,40.265,36.604,40.265L27.846,40.265L14.642,40.265C12.62,40.265,10.981,38.626,10.981,36.604L10.981,14.642ZM14.642,47.586C12.62,47.586,10.981,49.224,10.981,51.246L10.981,73.209C10.981,75.23,12.62,76.869,14.642,76.869L27.846,76.869L36.604,76.869C38.626,76.869,40.265,75.23,40.265,73.209L40.265,51.246C40.265,49.224,38.626,47.586,36.604,47.586L14.642,47.586ZM51.246,47.586C49.224,47.586,47.586,49.224,47.586,51.246L47.586,73.209C47.586,75.23,49.224,76.869,51.246,76.869L64.45,76.869L73.209,76.869C75.23,76.869,76.869,75.23,76.869,73.209L76.869,51.246C76.869,49.224,75.23,47.586,73.209,47.586L51.246,47.586ZM51.246,10.981C49.224,10.981,47.586,12.62,47.586,14.642L47.586,36.604C47.586,38.626,49.224,40.265,51.246,40.265L64.45,40.265L73.209,40.265C75.23,40.265,76.869,38.626,76.869,36.604L76.869,14.642C76.869,12.62,75.23,10.981,73.209,10.981L51.246,10.981ZM51.246,10.981"/>
</g>
  <g id="Semibold-S" transform="matrix(1.0,0.0,0.0,1.0,2000.6247218040903,616.8447413353404)">  <path fill-rule="evenodd" stroke-dasharray="none" stroke="none" fill-opacity="1" clip-rule="evenodd" stroke-linecap="butt" stroke-linejoin="miter" stroke-width="1px" stroke-opacity="1" fill="#000000" stroke-miterlimit="4" d="M10.981,14.642C10.981,12.62,12.62,10.981,14.642,10.981L36.604,10.981C38.626,10.981,40.265,12.62,40.265,14.642L40.265,36.604C40.265,38.626,38.626,40.265,36.604,40.265L27.846,40.265L14.642,40.265C12.62,40.265,10.981,38.626,10.981,36.604L10.981,14.642ZM14.642,47.586C12.62,47.586,10.981,49.224,10.981,51.246L10.981,73.209C10.981,75.23,12.62,76.869,14.642,76.869L27.846,76.869L36.604,76.869C38.626,76.869,40.265,75.23,40.265,73.209L40.265,51.246C40.265,49.224,38.626,47.586,36.604,47.586L14.642,47.586ZM51.246,47.586C49.224,47.586,47.586,49.224,47.586,51.246L47.586,73.209C47.586,75.23,49.224,76.869,51.246,76.869L64.45,76.869L73.209,76.869C75.23,76.869,76.869,75.23,76.869,73.209L76.869,51.246C76.869,49.224,75.23,47.586,73.209,47.586L51.246,47.586ZM51.246,10.981C49.224,10.981,47.586,12.62,47.586,14.642L47.586,36.604C47.586,38.626,49.224,40.265,51.246,40.265L64.45,40.265L73.209,40.265C75.23,40.265,76.869,38.626,76.869,36.604L76.869,14.642C76.869,12.62,75.23,10.981,73.209,10.981L51.246,10.981ZM51.246,10.981"/>
</g>
  <g id="Medium-S" transform="matrix(1.0,0.0,0.0,1.0,1703.9147218040903,616.8447413353404)">  <path stroke="none" stroke-miterlimit="4" fill-opacity="1" fill="#000000" stroke-width="1px" stroke-linecap="butt" stroke-linejoin="miter" stroke-opacity="1" stroke-dasharray="none" fill-rule="evenodd" clip-rule="evenodd" d="M10.981,14.642C10.981,12.62,12.62,10.981,14.642,10.981L36.604,10.981C38.626,10.981,40.265,12.62,40.265,14.642L40.265,36.604C40.265,38.626,38.626,40.265,36.604,40.265L27.846,40.265L14.642,40.265C12.62,40.265,10.981,38.626,10.981,36.604L10.981,14.642ZM14.642,47.586C12.62,47.586,10.981,49.224,10.981,51.246L10.981,73.209C10.981,75.23,12.62,76.869,14.642,76.869L27.846,76.869L36.604,76.869C38.626,76.869,40.265,75.23,40.265,73.209L40.265,51.246C40.265,49.224,38.626,47.586,36.604,47.586L14.642,47.586ZM51.246,47.586C49.224,47.586,47.586,49.224,47.586,51.246L47.586,73.209C47.586,75.23,49.224,76.869,51.246,76.869L64.45,76.869L73.209,76.869C75.23,76.869,76.869,75.23,76.869,73.209L76.869,51.246C76.869,49.224,75.23,47.586,73.209,47.586L51.246,47.586ZM51.246,10.981C49.224,10.981,47.586,12.62,47.586,14.642L47.586,36.604C47.586,38.626,49.224,40.265,51.246,40.265L64.45,40.265L73.209,40.265C75.23,40.265,76.869,38.626,76.869,36.604L76.869,14.642C76.869,12.62,75.23,10.981,73.209,10.981L51.246,10.981ZM51.246,10.981"/>
</g>
  <g id="Regular-S" transform="matrix(1.0,0.0,0.0,1.0,1407.2047218040902,616.8447413353404)">  <path fill-opacity="1" fill="#000000" stroke-width="1px" stroke-opacity="1" stroke-miterlimit="4" clip-rule="evenodd" stroke="none" stroke-linecap="butt" fill-rule="evenodd" stroke-linejoin="miter" stroke-dasharray="none" d="M10.981,14.642C10.981,12.62,12.62,10.981,14.642,10.981L36.604,10.981C38.626,10.981,40.265,12.62,40.265,14.642L40.265,36.604C40.265,38.626,38.626,40.265,36.604,40.265L27.846,40.265L14.642,40.265C12.62,40.265,10.981,38.626,10.981,36.604L10.981,14.642ZM14.642,47.586C12.62,47.586,10.981,49.224,10.981,51.246L10.981,73.209C10.981,75.23,12.62,76.869,14.642,76.869L27.846,76.869L36.604,76.869C38.626,76.869,40.265,75.23,40.265,73.209L40.265,51.246C40.265,49.224,38.626,47.586,36.604,47.586L14.642,47.586ZM51.246,47.586C49.224,47.586,47.586,49.224,47.586,51.246L47.586,73.209C47.586,75.23,49.224,76.869,51.246,76.869L64.45,76.869L73.209,76.869C75.23,76.869,76.869,75.23,76.869,73.209L76.869,51.246C76.869,49.224,75.23,47.586,73.209,47.586L51.246,47.586ZM51.246,10.981C49.224,10.981,47.586,12.62,47.586,14.642L47.586,36.604C47.586,38.626,49.224,40.265,51.246,40.265L64.45,40.265L73.209,40.265C75.23,40.265,76.869,38.626,76.869,36.604L76.869,14.642C76.869,12.62,75.23,10.981,73.209,10.981L51.246,10.981ZM51.246,10.981"/>
</g>
  <g id="Light-S" transform="matrix(1.0,0.0,0.0,1.0,1110.4947218040904,616.8447413353404)">  <path fill-opacity="1" stroke="none" stroke-opacity="1" stroke-linejoin="miter" clip-rule="evenodd" stroke-miterlimit="4" fill-rule="evenodd" stroke-width="1px" stroke-linecap="butt" stroke-dasharray="none" fill="#000000" d="M10.981,14.642C10.981,12.62,12.62,10.981,14.642,10.981L36.604,10.981C38.626,10.981,40.265,12.62,40.265,14.642L40.265,36.604C40.265,38.626,38.626,40.265,36.604,40.265L27.846,40.265L14.642,40.265C12.62,40.265,10.981,38.626,10.981,36.604L10.981,14.642ZM14.642,47.586C12.62,47.586,10.981,49.224,10.981,51.246L10.981,73.209C10.981,75.23,12.62,76.869,14.642,76.869L27.846,76.869L36.604,76.869C38.626,76.869,40.265,75.23,40.265,73.209L40.265,51.246C40.265,49.224,38.626,47.586,36.604,47.586L14.642,47.586ZM51.246,47.586C49.224,47.586,47.586,49.224,47.586,51.246L47.586,73.209C47.586,75.23,49.224,76.869,51.246,76.869L64.45,76.869L73.209,76.869C75.23,76.869,76.869,75.23,76.869,73.209L76.869,51.246C76.869,49.224,75.23,47.586,73.209,47.586L51.246,47.586ZM51.246,10.981C49.224,10.981,47.586,12.62,47.586,14.642L47.586,36.604C47.586,38.626,49.224,40.265,51.246,40.265L64.45,40.265L73.209,40.265C75.23,40.265,76.869,38.626,76.869,36.604L76.869,14.642C76.869,12.62,75.23,10.981,73.209,10.981L51.246,10.981ZM51.246,10.981"/>
</g>
  <g id="Thin-S" transform="matrix(1.0,0.0,0.0,1.0,813.7847218040904,616.8447413353404)">  <path stroke-linecap="butt" stroke-dasharray="none" stroke-width="1px" stroke-opacity="1" stroke-linejoin="miter" stroke-miterlimit="4" fill-opacity="1" clip-rule="evenodd" fill="#000000" stroke="none" fill-rule="evenodd" d="M10.981,14.642C10.981,12.62,12.62,10.981,14.642,10.981L36.604,10.981C38.626,10.981,40.265,12.62,40.265,14.642L40.265,36.604C40.265,38.626,38.626,40.265,36.604,40.265L27.846,40.265L14.642,40.265C12.62,40.265,10.981,38.626,10.981,36.604L10.981,14.642ZM14.642,47.586C12.62,47.586,10.981,49.224,10.981,51.246L10.981,73.209C10.981,75.23,12.62,76.869,14.642,76.869L27.846,76.869L36.604,76.869C38.626,76.869,40.265,75.23,40.265,73.209L40.265,51.246C40.265,49.224,38.626,47.586,36.604,47.586L14.642,47.586ZM51.246,47.586C49.224,47.586,47.586,49.224,47.586,51.246L47.586,73.209C47.586,75.23,49.224,76.869,51.246,76.869L64.45,76.869L73.209,76.869C75.23,76.869,76.869,75.23,76.869,73.209L76.869,51.246C76.869,49.224,75.23,47.586,73.209,47.586L51.246,47.586ZM51.246,10.981C49.224,10.981,47.586,12.62,47.586,14.642L47.586,36.604C47.586,38.626,49.224,40.265,51.246,40.265L64.45,40.265L73.209,40.265C75.23,40.265,76.869,38.626,76.869,36.604L76.869,14.642C76.869,12.62,75.23,10.981,73.209,10.981L51.246,10.981ZM51.246,10.981"/>
</g>
  <g id="Ultralight-S" transform="matrix(1.0,0.0,0.0,1.0,517.0747218040904,616.8447413353404)">  <path fill="#000000" stroke-opacity="1" stroke="none" clip-rule="evenodd" stroke-dasharray="none" stroke-width="1px" fill-rule="evenodd" stroke-linejoin="miter" stroke-linecap="butt" stroke-miterlimit="4" fill-opacity="1" d="M10.981,14.642C10.981,12.62,12.62,10.981,14.642,10.981L36.604,10.981C38.626,10.981,40.265,12.62,40.265,14.642L40.265,36.604C40.265,38.626,38.626,40.265,36.604,40.265L27.846,40.265L14.642,40.265C12.62,40.265,10.981,38.626,10.981,36.604L10.981,14.642ZM14.642,47.586C12.62,47.586,10.981,49.224,10.981,51.246L10.981,73.209C10.981,75.23,12.62,76.869,14.642,76.869L27.846,76.869L36.604,76.869C38.626,76.869,40.265,75.23,40.265,73.209L40.265,51.246C40.265,49.224,38.626,47.586,36.604,47.586L14.642,47.586ZM51.246,47.586C49.224,47.586,47.586,49.224,47.586,51.246L47.586,73.209C47.586,75.23,49.224,76.869,51.246,76.869L64.45,76.869L73.209,76.869C75.23,76.869,76.869,75.23,76.869,73.209L76.869,51.246C76.869,49.224,75.23,47.586,73.209,47.586L51.246,47.586ZM51.246,10.981C49.224,10.981,47.586,12.62,47.586,14.642L47.586,36.604C47.586,38.626,49.224,40.265,51.246,40.265L64.45,40.265L73.209,40.265C75.23,40.265,76.869,38.626,76.869,36.604L76.869,14.642C76.869,12.62,75.23,10.981,73.209,10.981L51.246,10.981ZM51.246,10.981"/>
</g>
 </g>
</svg>
