<?xml version="1.0" encoding="UTF-8"?>
<!-- Generator: CustomSymbols v2.6.1.40 by @serious_bret https://bretlester.com/app_content/CustomSymbols/ -->
<!-- Guides: Left/Right 0.125/0.129 Cap/Base 0.257/0.259 -->
<!-- Settings: RefScale 1.0 Min/Max Stroke Scales 0.5/2.21 -->
<!DOCTYPE svg
PUBLIC "-//W3C//DTD SVG 1.1//EN"
       "http://www.w3.org/Graphics/SVG/1.1/DTD/svg11.dtd">
<svg version="1.1" xmlns="http://www.w3.org/2000/svg" xmlns:xlink="http://www.w3.org/1999/xlink" width="3300" height="2200">
<![CDATA[<svg width="24" height="24" viewBox="0 0 24 24" fill="none" xmlns="http://www.w3.org/2000/svg">
<rect x="6" y="5" width="12" height="2" rx="1" fill="black"/>
<rect x="4" y="9" width="16" height="2" rx="1" fill="black"/>
<rect x="5" y="13" width="14" height="2" rx="1" fill="black"/>
<rect x="3" y="17" width="18" height="2" rx="1" fill="black"/>
</svg>
]]>
 <g id="Notes">
  <rect height="2200" id="artboard" style="fill:white;opacity:1" width="3300" x="0" y="0"/>
  <line id="" style="fill:none;stroke:black;opacity:1;stroke-width:0.5;" x1="263" x2="3036" y1="292" y2="292"/>
  <text id="reftext1" style="stroke:none;fill:black;font-family:-apple-system,&quot;SF Pro Display&quot;,&quot;SF Pro Text&quot;,Helvetica,sans-serif;font-weight:bold;" transform="matrix(1 0 0 1 263 322)">Weight/Scale Variations</text>
  <text id="reftext2" style="stroke:none;fill:black;font-family:-apple-system,&quot;SF Pro Display&quot;,&quot;SF Pro Text&quot;,Helvetica,sans-serif;text-anchor:middle;" transform="matrix(1 0 0 1 559.711 322)">Ultralight</text>
  <text style="stroke:none;fill:black;font-family:-apple-system,&quot;SF Pro Display&quot;,&quot;SF Pro Text&quot;,Helvetica,sans-serif;text-anchor:middle;" transform="matrix(1 0 0 1 856.422 322)">Thin</text>
  <text style="stroke:none;fill:black;font-family:-apple-system,&quot;SF Pro Display&quot;,&quot;SF Pro Text&quot;,Helvetica,sans-serif;text-anchor:middle;" transform="matrix(1 0 0 1 1153.13 322)">Light</text>
  <text style="stroke:none;fill:black;font-family:-apple-system,&quot;SF Pro Display&quot;,&quot;SF Pro Text&quot;,Helvetica,sans-serif;text-anchor:middle;" transform="matrix(1 0 0 1 1449.84 322)">Regular</text>
  <text style="stroke:none;fill:black;font-family:-apple-system,&quot;SF Pro Display&quot;,&quot;SF Pro Text&quot;,Helvetica,sans-serif;text-anchor:middle;" transform="matrix(1 0 0 1 1746.56 322)">Medium</text>
  <text style="stroke:none;fill:black;font-family:-apple-system,&quot;SF Pro Display&quot;,&quot;SF Pro Text&quot;,Helvetica,sans-serif;text-anchor:middle;" transform="matrix(1 0 0 1 2043.27 322)">Semibold</text>
  <text style="stroke:none;fill:black;font-family:-apple-system,&quot;SF Pro Display&quot;,&quot;SF Pro Text&quot;,Helvetica,sans-serif;text-anchor:middle;" transform="matrix(1 0 0 1 2339.98 322)">Bold</text>
  <text style="stroke:none;fill:black;font-family:-apple-system,&quot;SF Pro Display&quot;,&quot;SF Pro Text&quot;,Helvetica,sans-serif;text-anchor:middle;" transform="matrix(1 0 0 1 2636.69 322)">Heavy</text>
  <text style="stroke:none;fill:black;font-family:-apple-system,&quot;SF Pro Display&quot;,&quot;SF Pro Text&quot;,Helvetica,sans-serif;text-anchor:middle;" transform="matrix(1 0 0 1 2933.4 322)">Black</text>
  <line id="" style="fill:none;stroke:black;opacity:1;stroke-width:0.5;" x1="263" x2="3036" y1="1903" y2="1903"/>
  <g id="" transform="matrix(1 0 0 1 263 1933)">
   <path d="M9.24805 0.830078C13.5547 0.830078 17.1387-2.74414 17.1387-7.05078C17.1387-11.3574 13.5449-14.9316 9.23828-14.9316C4.94141-14.9316 1.36719-11.3574 1.36719-7.05078C1.36719-2.74414 4.95117 0.830078 9.24805 0.830078ZM9.24805-0.654297C5.70312-0.654297 2.87109-3.49609 2.87109-7.05078C2.87109-10.6055 5.69336-13.4473 9.23828-13.4473C12.793-13.4473 15.6348-10.6055 15.6445-7.05078C15.6543-3.49609 12.8027-0.654297 9.24805-0.654297ZM6.39648-6.31836L8.50586-6.31836L8.50586-4.19922C8.50586-3.75977 8.79883-3.45703 9.22852-3.45703C9.67773-3.45703 9.9707-3.75977 9.9707-4.19922L9.9707-6.31836L12.0996-6.31836C12.5391-6.31836 12.8418-6.61133 12.8418-7.04102C12.8418-7.48047 12.5391-7.7832 12.0996-7.7832L9.9707-7.7832L9.9707-9.89258C9.9707-10.3418 9.67773-10.6445 9.22852-10.6445C8.79883-10.6445 8.50586-10.3418 8.50586-9.89258L8.50586-7.7832L6.39648-7.7832C5.94727-7.7832 5.64453-7.48047 5.64453-7.04102C5.64453-6.61133 5.94727-6.31836 6.39648-6.31836Z"/>
  </g>
  <g id="" transform="matrix(1 0 0 1 281.506 1933)">
   <path d="M11.709 2.91016C17.1582 2.91016 21.6699-1.61133 21.6699-7.05078C21.6699-12.5 17.1484-17.0117 11.6992-17.0117C6.25977-17.0117 1.74805-12.5 1.74805-7.05078C1.74805-1.61133 6.26953 2.91016 11.709 2.91016ZM11.709 1.25C7.09961 1.25 3.41797-2.44141 3.41797-7.05078C3.41797-11.6602 7.08984-15.3516 11.6992-15.3516C16.3086-15.3516 20-11.6602 20.0098-7.05078C20.0195-2.44141 16.3184 1.25 11.709 1.25ZM7.98828-6.23047L10.8789-6.23047L10.8789-3.32031C10.8789-2.83203 11.2109-2.5 11.6895-2.5C12.1777-2.5 12.5195-2.83203 12.5195-3.32031L12.5195-6.23047L15.4297-6.23047C15.918-6.23047 16.25-6.5625 16.25-7.04102C16.25-7.5293 15.918-7.87109 15.4297-7.87109L12.5195-7.87109L12.5195-10.7617C12.5195-11.2695 12.1777-11.6016 11.6895-11.6016C11.2109-11.6016 10.8789-11.2598 10.8789-10.7617L10.8789-7.87109L7.98828-7.87109C7.48047-7.87109 7.14844-7.5293 7.14844-7.04102C7.14844-6.5625 7.49023-6.23047 7.98828-6.23047Z"/>
  </g>
  <g id="" transform="matrix(1 0 0 1 304.924 1933)">
   <path d="M14.9707 5.66406C21.9336 5.66406 27.6953-0.0976562 27.6953-7.05078C27.6953-14.0137 21.9238-19.7754 14.9609-19.7754C8.00781-19.7754 2.25586-14.0137 2.25586-7.05078C2.25586-0.0976562 8.01758 5.66406 14.9707 5.66406ZM14.9707 3.84766C8.93555 3.84766 4.08203-1.01562 4.08203-7.05078C4.08203-13.0957 8.92578-17.9492 14.9609-17.9492C21.0059-17.9492 25.8594-13.0957 25.8691-7.05078C25.8789-1.01562 21.0156 3.84766 14.9707 3.84766ZM10.0586-6.14258L14.0625-6.14258L14.0625-2.12891C14.0625-1.5918 14.4336-1.2207 14.9512-1.2207C15.4883-1.2207 15.8594-1.5918 15.8594-2.12891L15.8594-6.14258L19.8828-6.14258C20.4102-6.14258 20.791-6.51367 20.791-7.03125C20.791-7.56836 20.4199-7.94922 19.8828-7.94922L15.8594-7.94922L15.8594-11.9531C15.8594-12.5098 15.4883-12.8809 14.9512-12.8809C14.4336-12.8809 14.0625-12.5 14.0625-11.9531L14.0625-7.94922L10.0586-7.94922C9.50195-7.94922 9.13086-7.56836 9.13086-7.03125C9.13086-6.51367 9.51172-6.14258 10.0586-6.14258Z"/>
  </g>
  <text style="stroke:none;fill:black;font-family:-apple-system,&quot;SF Pro Display&quot;,&quot;SF Pro Text&quot;,Helvetica,sans-serif;font-weight:bold;" transform="matrix(1 0 0 1 263 1953)">Design Variations</text>
  <text style="stroke:none;fill:black;font-family:-apple-system,&quot;SF Pro Display&quot;,&quot;SF Pro Text&quot;,Helvetica,sans-serif;" transform="matrix(1 0 0 1 263 1971)">Symbols are supported in up to nine weights and three scales.</text>
  <text style="stroke:none;fill:black;font-family:-apple-system,&quot;SF Pro Display&quot;,&quot;SF Pro Text&quot;,Helvetica,sans-serif;" transform="matrix(1 0 0 1 263 1989)">For optimal layout with text and other symbols, vertically align</text>
  <text style="stroke:none;fill:black;font-family:-apple-system,&quot;SF Pro Display&quot;,&quot;SF Pro Text&quot;,Helvetica,sans-serif;" transform="matrix(1 0 0 1 263 2007)">symbols with the adjacent text.</text>
  <line id="" style="fill:none;stroke:#00AEEF;stroke-width:0.5;opacity:1.0;" x1="776" x2="776" y1="1919" y2="1933"/>
  <g id="" transform="matrix(1 0 0 1 776 1933)">
   <path d="M3.31055 0.126953C3.82812 0.126953 4.08203-0.0683594 4.26758-0.605469L5.52734-4.0625L11.2891-4.0625L12.5488-0.605469C12.7344-0.0683594 12.9883 0.126953 13.4961 0.126953C14.0137 0.126953 14.3457-0.185547 14.3457-0.673828C14.3457-0.839844 14.3164-0.986328 14.2383-1.20117L9.6582-13.3887C9.43359-13.9941 9.0332-14.2871 8.4082-14.2871C7.80273-14.2871 7.39258-13.9941 7.17773-13.3984L2.59766-1.19141C2.51953-0.976562 2.49023-0.830078 2.49023-0.664062C2.49023-0.175781 2.80273 0.126953 3.31055 0.126953ZM6.00586-5.53711L8.37891-12.1094L8.42773-12.1094L10.8008-5.53711Z"/>
  </g>
  <line id="" style="fill:none;stroke:#00AEEF;stroke-width:0.5;opacity:1.0;" x1="792.836" x2="792.836" y1="1919" y2="1933"/>
  <text style="stroke:none;fill:black;font-family:-apple-system,&quot;SF Pro Display&quot;,&quot;SF Pro Text&quot;,Helvetica,sans-serif;font-weight:bold;" transform="matrix(1 0 0 1 776 1953)">Margins</text>
  <text style="stroke:none;fill:black;font-family:-apple-system,&quot;SF Pro Display&quot;,&quot;SF Pro Text&quot;,Helvetica,sans-serif;" transform="matrix(1 0 0 1 776 1971)">Leading and trailing margins on the left and right side of each symbol</text>
  <text style="stroke:none;fill:black;font-family:-apple-system,&quot;SF Pro Display&quot;,&quot;SF Pro Text&quot;,Helvetica,sans-serif;" transform="matrix(1 0 0 1 776 1989)">can be adjusted by modifying the x-location of the margin guidelines.</text>
  <text style="stroke:none;fill:black;font-family:-apple-system,&quot;SF Pro Display&quot;,&quot;SF Pro Text&quot;,Helvetica,sans-serif;" transform="matrix(1 0 0 1 776 2007)">Modifications are automatically applied proportionally to all</text>
  <text style="stroke:none;fill:black;font-family:-apple-system,&quot;SF Pro Display&quot;,&quot;SF Pro Text&quot;,Helvetica,sans-serif;" transform="matrix(1 0 0 1 776 2025)">scales and weights.</text>
  <g id="" transform="matrix(1 0 0 1 1289 1933)">
   <path d="M2.8418 1.86523L4.54102 3.57422C5.40039 4.44336 6.38672 4.38477 7.31445 3.35938L17.4902-7.85156C17.7539-7.76367 18.0273-7.7832 18.3398-7.8418L19.4043-8.03711L20.0684-7.36328L20.0293-6.80664C19.9902-6.30859 20.1172-5.92773 20.6055-5.44922L21.3672-4.70703C21.8457-4.22852 22.4609-4.19922 22.9297-4.66797L25.8398-7.58789C26.3086-8.05664 26.2891-8.65234 25.8105-9.13086L25.0391-9.89258C24.5605-10.3711 24.1895-10.5273 23.7109-10.4883L23.1348-10.4395L22.4902-11.0742L22.7344-12.1973C22.8613-12.7637 22.7051-13.2031 22.1191-13.7891L19.9219-15.9766C16.582-19.2969 12.1484-19.2188 9.25781-16.3281C8.83789-15.918 8.80859-15.3418 9.04297-14.9512C9.27734-14.5898 9.73633-14.3555 10.3809-14.5215C11.8457-14.8633 13.3691-14.9219 14.7949-13.9844L14.209-12.5293C14.0137-12.0508 13.9844-11.6504 14.1113-11.2891L3.04688-0.898438C2.06055 0.0195312 1.98242 0.996094 2.8418 1.86523ZM10.752-15.957C13.1836-17.7344 16.4746-17.4316 18.7012-15.2051L21.1328-12.793C21.3672-12.5586 21.4062-12.373 21.3379-12.0312L21.0156-10.5469L22.5195-9.0625L23.5059-9.12109C23.7598-9.13086 23.8379-9.11133 24.0332-8.91602L24.6094-8.33984L22.168-5.89844L21.5918-6.47461C21.3965-6.66992 21.3672-6.74805 21.377-7.01172L21.4453-7.98828L19.9512-9.47266L18.4277-9.21875C18.1055-9.15039 17.959-9.17969 17.7148-9.41406L15.7129-11.416C15.459-11.6504 15.4297-11.8164 15.5859-12.1875L16.4648-14.2773C14.9023-15.7324 12.8711-16.3574 10.8398-15.7617C10.6836-15.7227 10.625-15.8496 10.752-15.957ZM5.27344 2.30469L4.10156 1.14258C3.63281 0.683594 3.74023 0.341797 4.14062-0.0195312L14.9512-10.1953L16.416-8.71094L6.42578 2.27539C6.07422 2.67578 5.74219 2.77344 5.27344 2.30469Z"/>
  </g>
  <text style="stroke:none;fill:black;font-family:-apple-system,&quot;SF Pro Display&quot;,&quot;SF Pro Text&quot;,Helvetica,sans-serif;font-weight:bold;" transform="matrix(1 0 0 1 1289 1953)">Exporting</text>
  <text style="stroke:none;fill:black;font-family:-apple-system,&quot;SF Pro Display&quot;,&quot;SF Pro Text&quot;,Helvetica,sans-serif;" transform="matrix(1 0 0 1 1289 1971)">Symbols should be outlined when exporting to ensure the</text>
  <text style="stroke:none;fill:black;font-family:-apple-system,&quot;SF Pro Display&quot;,&quot;SF Pro Text&quot;,Helvetica,sans-serif;" transform="matrix(1 0 0 1 1289 1989)">design is preserved when submitting to Xcode.</text>
  <text id="template-version" style="stroke:none;fill:black;font-family:-apple-system,&quot;SF Pro Display&quot;,&quot;SF Pro Text&quot;,Helvetica,sans-serif;text-anchor:end;" transform="matrix(1 0 0 1 3036 1933)">Template v.2.0</text>
  <text style="stroke:none;fill:black;font-family:-apple-system,&quot;SF Pro Display&quot;,&quot;SF Pro Text&quot;,Helvetica,sans-serif;text-anchor:end;" transform="matrix(1 0 0 1 3036 1951)">Requires Xcode 12 or greater</text>
  <text style="stroke:none;fill:black;font-family:-apple-system,&quot;SF Pro Display&quot;,&quot;SF Pro Text&quot;,Helvetica,sans-serif;" transform="matrix(1 0 0 1 263 726)">Small</text>
  <text style="stroke:none;fill:black;font-family:-apple-system,&quot;SF Pro Display&quot;,&quot;SF Pro Text&quot;,Helvetica,sans-serif;" transform="matrix(1 0 0 1 263 1156)">Medium</text>
  <text style="stroke:none;fill:black;font-family:-apple-system,&quot;SF Pro Display&quot;,&quot;SF Pro Text&quot;,Helvetica,sans-serif;" transform="matrix(1 0 0 1 263 1586)">Large</text>
 </g>
 <g id="Guides">
  <g id="H-reference" style="fill:#27AAE1;stroke:none;" transform="matrix(1 0 0 1 339 696)">
   <path d="M0.976562 0L3.66211 0L12.9883-24.4629L45.752-24.4629L55.127 0L57.7637 0L30.6152-70.459L28.125-70.459ZM29.3457-67.1387L29.4434-67.1387L44.873-26.709L13.8672-26.709Z"/>
  </g>
  <line id="Baseline-S" style="fill:none;stroke:#27AAE1;opacity:1;stroke-width:0.5;" x1="263" x2="3036" y1="696" y2="696"/>
  <line id="Capline-S" style="fill:none;stroke:#27AAE1;opacity:1;stroke-width:0.5;" x1="263" x2="3036" y1="625.541" y2="625.541"/>
  <g id="H-reference" style="fill:#27AAE1;stroke:none;" transform="matrix(1 0 0 1 339 1126)">
   <path d="M0.976562 0L3.66211 0L12.9883-24.4629L45.752-24.4629L55.127 0L57.7637 0L30.6152-70.459L28.125-70.459ZM29.3457-67.1387L29.4434-67.1387L44.873-26.709L13.8672-26.709Z"/>
  </g>
  <line id="Baseline-M" style="fill:none;stroke:#27AAE1;opacity:1;stroke-width:0.5;" x1="263" x2="3036" y1="1126" y2="1126"/>
  <line id="Capline-M" style="fill:none;stroke:#27AAE1;opacity:1;stroke-width:0.5;" x1="263" x2="3036" y1="1055.54" y2="1055.54"/>
  <g id="H-reference" style="fill:#27AAE1;stroke:none;" transform="matrix(1 0 0 1 339 1556)">
   <path d="M0.976562 0L3.66211 0L12.9883-24.4629L45.752-24.4629L55.127 0L57.7637 0L30.6152-70.459L28.125-70.459ZM29.3457-67.1387L29.4434-67.1387L44.873-26.709L13.8672-26.709Z"/>
  </g>
  <line id="Baseline-L" style="fill:none;stroke:#27AAE1;opacity:1;stroke-width:0.5;" x1="263" x2="3036" y1="1556" y2="1556"/>
  <line id="Capline-L" style="fill:none;stroke:#27AAE1;opacity:1;stroke-width:0.5;" x1="263" x2="3036" y1="1485.54" y2="1485.54"/>
  <line id="left-margin" x1="1396.5380881166063" x2="1396.5380881166063" y1="1030.79" y2="1150.12" style="fill:none;stroke:#00AEEF;stroke-width:0.5;opacity:1.0;"/>
  <line id="right-margin" x1="1505.1395981566372" x2="1505.1395981566372" y1="1030.79" y2="1150.12" style="fill:none;stroke:#00AEEF;stroke-width:0.5;opacity:1.0;"/>
 </g>
 <g id="Symbols">
  <g id="Black-L" transform="matrix(1.0,0.0,0.0,1.0,2840.781911560563,1427.0597272686919)">  <path x="6" stroke-dasharray="none" rx="1" stroke-opacity="1" fill="#000000" fill-rule="nonzero" stroke-linecap="butt" stroke-miterlimit="4" stroke-linejoin="miter" y="5" stroke="none" stroke-width="1px" fill-opacity="1" d="M140.847,46.949L140.847,46.949C140.847,51.271,137.344,54.774,133.022,54.774L54.774,54.774C50.452,54.774,46.949,51.271,46.949,46.949L46.949,46.949C46.949,42.628,50.452,39.124,54.774,39.124L133.022,39.124C137.344,39.124,140.847,42.628,140.847,46.949ZM140.847,46.949"/>
  <path x="4" stroke-linecap="butt" stroke-width="1px" fill-rule="nonzero" y="9" stroke-linejoin="miter" stroke-opacity="1" stroke-miterlimit="4" stroke-dasharray="none" fill-opacity="1" rx="1" fill="#000000" stroke="none" d="M156.497,78.248L156.497,78.248C156.497,82.57,152.994,86.073,148.672,86.073L39.124,86.073C34.803,86.073,31.299,82.57,31.299,78.248L31.299,78.248C31.299,73.927,34.803,70.424,39.124,70.424L148.672,70.424C152.994,70.424,156.497,73.927,156.497,78.248ZM156.497,78.248"/>
  <path fill="#000000" rx="1" stroke-linecap="butt" fill-opacity="1" y="13" stroke-miterlimit="4" stroke-linejoin="miter" stroke-dasharray="none" stroke-width="1px" stroke-opacity="1" fill-rule="nonzero" x="5" stroke="none" d="M148.672,109.548L148.672,109.548C148.672,113.869,145.169,117.373,140.847,117.373L46.949,117.373C42.628,117.373,39.124,113.869,39.124,109.548L39.124,109.548C39.124,105.226,42.628,101.723,46.949,101.723L140.847,101.723C145.169,101.723,148.672,105.226,148.672,109.548ZM148.672,109.548"/>
  <path rx="1" fill-opacity="1" stroke-width="1px" stroke-linecap="butt" fill="#000000" stroke-miterlimit="4" stroke-opacity="1" y="17" stroke-linejoin="miter" fill-rule="nonzero" stroke="none" stroke-dasharray="none" x="3" d="M164.322,140.847L164.322,140.847C164.322,145.169,160.818,148.672,156.497,148.672L31.299,148.672C26.978,148.672,23.475,145.169,23.475,140.847L23.475,140.847C23.475,136.526,26.978,133.022,31.299,133.022L156.497,133.022C160.818,133.022,164.322,136.526,164.322,140.847ZM164.322,140.847"/>
</g>
  <g id="Heavy-L" transform="matrix(1.0,0.0,0.0,1.0,2544.071911560563,1427.0597272686919)">  <path y="5" x="6" stroke="none" stroke-miterlimit="4" stroke-linecap="butt" fill-opacity="1" fill="#000000" stroke-width="1px" stroke-linejoin="miter" rx="1" stroke-opacity="1" stroke-dasharray="none" fill-rule="nonzero" d="M140.847,46.949L140.847,46.949C140.847,51.271,137.344,54.774,133.022,54.774L54.774,54.774C50.452,54.774,46.949,51.271,46.949,46.949L46.949,46.949C46.949,42.628,50.452,39.124,54.774,39.124L133.022,39.124C137.344,39.124,140.847,42.628,140.847,46.949ZM140.847,46.949"/>
  <path stroke="none" stroke-opacity="1" stroke-width="1px" stroke-miterlimit="4" stroke-linecap="butt" fill-opacity="1" stroke-dasharray="none" fill-rule="nonzero" fill="#000000" stroke-linejoin="miter" x="4" rx="1" y="9" d="M156.497,78.248L156.497,78.248C156.497,82.57,152.994,86.073,148.672,86.073L39.124,86.073C34.803,86.073,31.299,82.57,31.299,78.248L31.299,78.248C31.299,73.927,34.803,70.424,39.124,70.424L148.672,70.424C152.994,70.424,156.497,73.927,156.497,78.248ZM156.497,78.248"/>
  <path fill-rule="nonzero" fill-opacity="1" rx="1" fill="#000000" stroke-dasharray="none" stroke-width="1px" stroke-miterlimit="4" y="13" stroke-linejoin="miter" stroke="none" x="5" stroke-opacity="1" stroke-linecap="butt" d="M148.672,109.548L148.672,109.548C148.672,113.869,145.169,117.373,140.847,117.373L46.949,117.373C42.628,117.373,39.124,113.869,39.124,109.548L39.124,109.548C39.124,105.226,42.628,101.723,46.949,101.723L140.847,101.723C145.169,101.723,148.672,105.226,148.672,109.548ZM148.672,109.548"/>
  <path stroke-opacity="1" x="3" stroke-width="1px" stroke-dasharray="none" stroke-linejoin="miter" fill-opacity="1" rx="1" fill-rule="nonzero" stroke-miterlimit="4" stroke="none" y="17" stroke-linecap="butt" fill="#000000" d="M164.322,140.847L164.322,140.847C164.322,145.169,160.818,148.672,156.497,148.672L31.299,148.672C26.978,148.672,23.475,145.169,23.475,140.847L23.475,140.847C23.475,136.526,26.978,133.022,31.299,133.022L156.497,133.022C160.818,133.022,164.322,136.526,164.322,140.847ZM164.322,140.847"/>
</g>
  <g id="Bold-L" transform="matrix(1.0,0.0,0.0,1.0,2247.361911560563,1427.0597272686919)">  <path stroke-miterlimit="4" fill="#000000" stroke-linejoin="miter" y="5" stroke-opacity="1" stroke="none" stroke-width="1px" fill-opacity="1" stroke-dasharray="none" rx="1" stroke-linecap="butt" fill-rule="nonzero" x="6" d="M140.847,46.949L140.847,46.949C140.847,51.271,137.344,54.774,133.022,54.774L54.774,54.774C50.452,54.774,46.949,51.271,46.949,46.949L46.949,46.949C46.949,42.628,50.452,39.124,54.774,39.124L133.022,39.124C137.344,39.124,140.847,42.628,140.847,46.949ZM140.847,46.949"/>
  <path stroke-width="1px" stroke-linecap="butt" stroke-linejoin="miter" stroke-opacity="1" x="4" fill-opacity="1" stroke="none" rx="1" stroke-miterlimit="4" fill-rule="nonzero" stroke-dasharray="none" fill="#000000" y="9" d="M156.497,78.248L156.497,78.248C156.497,82.57,152.994,86.073,148.672,86.073L39.124,86.073C34.803,86.073,31.299,82.57,31.299,78.248L31.299,78.248C31.299,73.927,34.803,70.424,39.124,70.424L148.672,70.424C152.994,70.424,156.497,73.927,156.497,78.248ZM156.497,78.248"/>
  <path y="13" stroke="none" x="5" stroke-dasharray="none" fill="#000000" stroke-linejoin="miter" stroke-linecap="butt" stroke-miterlimit="4" stroke-width="1px" stroke-opacity="1" fill-rule="nonzero" fill-opacity="1" rx="1" d="M148.672,109.548L148.672,109.548C148.672,113.869,145.169,117.373,140.847,117.373L46.949,117.373C42.628,117.373,39.124,113.869,39.124,109.548L39.124,109.548C39.124,105.226,42.628,101.723,46.949,101.723L140.847,101.723C145.169,101.723,148.672,105.226,148.672,109.548ZM148.672,109.548"/>
  <path rx="1" fill="#000000" stroke-linejoin="miter" stroke-dasharray="none" stroke-linecap="butt" stroke="none" y="17" fill-opacity="1" fill-rule="nonzero" stroke-width="1px" x="3" stroke-miterlimit="4" stroke-opacity="1" d="M164.322,140.847L164.322,140.847C164.322,145.169,160.818,148.672,156.497,148.672L31.299,148.672C26.978,148.672,23.475,145.169,23.475,140.847L23.475,140.847C23.475,136.526,26.978,133.022,31.299,133.022L156.497,133.022C160.818,133.022,164.322,136.526,164.322,140.847ZM164.322,140.847"/>
</g>
  <g id="Semibold-L" transform="matrix(1.0,0.0,0.0,1.0,1950.651911560563,1427.0597272686919)">  <path y="5" stroke-linecap="butt" fill-opacity="1" rx="1" fill-rule="nonzero" stroke-width="1px" fill="#000000" stroke-dasharray="none" stroke-opacity="1" stroke="none" x="6" stroke-linejoin="miter" stroke-miterlimit="4" d="M140.847,46.949L140.847,46.949C140.847,51.271,137.344,54.774,133.022,54.774L54.774,54.774C50.452,54.774,46.949,51.271,46.949,46.949L46.949,46.949C46.949,42.628,50.452,39.124,54.774,39.124L133.022,39.124C137.344,39.124,140.847,42.628,140.847,46.949ZM140.847,46.949"/>
  <path stroke-linecap="butt" stroke-opacity="1" stroke="none" x="4" stroke-miterlimit="4" fill-opacity="1" rx="1" fill="#000000" fill-rule="nonzero" y="9" stroke-dasharray="none" stroke-linejoin="miter" stroke-width="1px" d="M156.497,78.248L156.497,78.248C156.497,82.57,152.994,86.073,148.672,86.073L39.124,86.073C34.803,86.073,31.299,82.57,31.299,78.248L31.299,78.248C31.299,73.927,34.803,70.424,39.124,70.424L148.672,70.424C152.994,70.424,156.497,73.927,156.497,78.248ZM156.497,78.248"/>
  <path fill-opacity="1" stroke="none" stroke-opacity="1" y="13" fill-rule="nonzero" fill="#000000" stroke-miterlimit="4" rx="1" stroke-dasharray="none" stroke-linejoin="miter" stroke-linecap="butt" x="5" stroke-width="1px" d="M148.672,109.548L148.672,109.548C148.672,113.869,145.169,117.373,140.847,117.373L46.949,117.373C42.628,117.373,39.124,113.869,39.124,109.548L39.124,109.548C39.124,105.226,42.628,101.723,46.949,101.723L140.847,101.723C145.169,101.723,148.672,105.226,148.672,109.548ZM148.672,109.548"/>
  <path fill="#000000" stroke-dasharray="none" x="3" rx="1" fill-opacity="1" y="17" fill-rule="nonzero" stroke-linejoin="miter" stroke-linecap="butt" stroke-width="1px" stroke-opacity="1" stroke="none" stroke-miterlimit="4" d="M164.322,140.847L164.322,140.847C164.322,145.169,160.818,148.672,156.497,148.672L31.299,148.672C26.978,148.672,23.475,145.169,23.475,140.847L23.475,140.847C23.475,136.526,26.978,133.022,31.299,133.022L156.497,133.022C160.818,133.022,164.322,136.526,164.322,140.847ZM164.322,140.847"/>
</g>
  <g id="Medium-L" transform="matrix(1.0,0.0,0.0,1.0,1653.9419115605629,1427.0597272686919)">  <path fill-opacity="1" y="5" stroke-linejoin="miter" stroke-linecap="butt" x="6" stroke="none" stroke-width="1px" stroke-dasharray="none" stroke-opacity="1" fill-rule="nonzero" stroke-miterlimit="4" rx="1" fill="#000000" d="M140.847,46.949L140.847,46.949C140.847,51.271,137.344,54.774,133.022,54.774L54.774,54.774C50.452,54.774,46.949,51.271,46.949,46.949L46.949,46.949C46.949,42.628,50.452,39.124,54.774,39.124L133.022,39.124C137.344,39.124,140.847,42.628,140.847,46.949ZM140.847,46.949"/>
  <path stroke-linecap="butt" fill-opacity="1" y="9" stroke-linejoin="miter" stroke-miterlimit="4" stroke="none" fill-rule="nonzero" stroke-width="1px" stroke-dasharray="none" x="4" fill="#000000" rx="1" stroke-opacity="1" d="M156.497,78.248L156.497,78.248C156.497,82.57,152.994,86.073,148.672,86.073L39.124,86.073C34.803,86.073,31.299,82.57,31.299,78.248L31.299,78.248C31.299,73.927,34.803,70.424,39.124,70.424L148.672,70.424C152.994,70.424,156.497,73.927,156.497,78.248ZM156.497,78.248"/>
  <path y="13" stroke-linejoin="miter" stroke="none" stroke-miterlimit="4" x="5" stroke-width="1px" fill-opacity="1" fill-rule="nonzero" rx="1" fill="#000000" stroke-dasharray="none" stroke-opacity="1" stroke-linecap="butt" d="M148.672,109.548L148.672,109.548C148.672,113.869,145.169,117.373,140.847,117.373L46.949,117.373C42.628,117.373,39.124,113.869,39.124,109.548L39.124,109.548C39.124,105.226,42.628,101.723,46.949,101.723L140.847,101.723C145.169,101.723,148.672,105.226,148.672,109.548ZM148.672,109.548"/>
  <path fill-opacity="1" stroke-width="1px" stroke-miterlimit="4" x="3" rx="1" fill-rule="nonzero" stroke-linecap="butt" fill="#000000" stroke="none" stroke-opacity="1" stroke-linejoin="miter" y="17" stroke-dasharray="none" d="M164.322,140.847L164.322,140.847C164.322,145.169,160.818,148.672,156.497,148.672L31.299,148.672C26.978,148.672,23.475,145.169,23.475,140.847L23.475,140.847C23.475,136.526,26.978,133.022,31.299,133.022L156.497,133.022C160.818,133.022,164.322,136.526,164.322,140.847ZM164.322,140.847"/>
</g>
  <g id="Regular-L" transform="matrix(1.0,0.0,0.0,1.0,1357.2319115605628,1427.0597272686919)">  <path stroke-dasharray="none" x="6" stroke-width="1px" stroke="none" fill="#000000" y="5" stroke-linejoin="miter" fill-rule="nonzero" stroke-linecap="butt" stroke-opacity="1" rx="1" fill-opacity="1" stroke-miterlimit="4" d="M140.847,46.949L140.847,46.949C140.847,51.271,137.344,54.774,133.022,54.774L54.774,54.774C50.452,54.774,46.949,51.271,46.949,46.949L46.949,46.949C46.949,42.628,50.452,39.124,54.774,39.124L133.022,39.124C137.344,39.124,140.847,42.628,140.847,46.949ZM140.847,46.949"/>
  <path fill-rule="nonzero" stroke-opacity="1" rx="1" stroke-miterlimit="4" x="4" stroke-width="1px" stroke-dasharray="none" fill-opacity="1" y="9" stroke-linecap="butt" fill="#000000" stroke-linejoin="miter" stroke="none" d="M156.497,78.248L156.497,78.248C156.497,82.57,152.994,86.073,148.672,86.073L39.124,86.073C34.803,86.073,31.299,82.57,31.299,78.248L31.299,78.248C31.299,73.927,34.803,70.424,39.124,70.424L148.672,70.424C152.994,70.424,156.497,73.927,156.497,78.248ZM156.497,78.248"/>
  <path rx="1" stroke-width="1px" stroke-linejoin="miter" stroke="none" stroke-linecap="butt" fill-opacity="1" fill-rule="nonzero" stroke-opacity="1" x="5" stroke-dasharray="none" y="13" stroke-miterlimit="4" fill="#000000" d="M148.672,109.548L148.672,109.548C148.672,113.869,145.169,117.373,140.847,117.373L46.949,117.373C42.628,117.373,39.124,113.869,39.124,109.548L39.124,109.548C39.124,105.226,42.628,101.723,46.949,101.723L140.847,101.723C145.169,101.723,148.672,105.226,148.672,109.548ZM148.672,109.548"/>
  <path stroke-dasharray="none" fill="#000000" stroke="none" y="17" stroke-linejoin="miter" stroke-width="1px" rx="1" x="3" stroke-miterlimit="4" fill-rule="nonzero" stroke-opacity="1" fill-opacity="1" stroke-linecap="butt" d="M164.322,140.847L164.322,140.847C164.322,145.169,160.818,148.672,156.497,148.672L31.299,148.672C26.978,148.672,23.475,145.169,23.475,140.847L23.475,140.847C23.475,136.526,26.978,133.022,31.299,133.022L156.497,133.022C160.818,133.022,164.322,136.526,164.322,140.847ZM164.322,140.847"/>
</g>
  <g id="Light-L" transform="matrix(1.0,0.0,0.0,1.0,1060.521911560563,1427.0597272686919)">  <path x="6" rx="1" stroke-dasharray="none" stroke-linejoin="miter" fill-rule="nonzero" y="5" stroke-linecap="butt" stroke="none" stroke-opacity="1" fill-opacity="1" stroke-miterlimit="4" stroke-width="1px" fill="#000000" d="M140.847,46.949L140.847,46.949C140.847,51.271,137.344,54.774,133.022,54.774L54.774,54.774C50.452,54.774,46.949,51.271,46.949,46.949L46.949,46.949C46.949,42.628,50.452,39.124,54.774,39.124L133.022,39.124C137.344,39.124,140.847,42.628,140.847,46.949ZM140.847,46.949"/>
  <path x="4" fill-opacity="1" stroke-opacity="1" stroke-linejoin="miter" stroke-linecap="butt" stroke-miterlimit="4" stroke-dasharray="none" fill-rule="nonzero" y="9" stroke-width="1px" fill="#000000" rx="1" stroke="none" d="M156.497,78.248L156.497,78.248C156.497,82.57,152.994,86.073,148.672,86.073L39.124,86.073C34.803,86.073,31.299,82.57,31.299,78.248L31.299,78.248C31.299,73.927,34.803,70.424,39.124,70.424L148.672,70.424C152.994,70.424,156.497,73.927,156.497,78.248ZM156.497,78.248"/>
  <path stroke-width="1px" stroke-opacity="1" fill-rule="nonzero" stroke-linecap="butt" stroke-linejoin="miter" x="5" fill="#000000" y="13" rx="1" stroke="none" stroke-dasharray="none" fill-opacity="1" stroke-miterlimit="4" d="M148.672,109.548L148.672,109.548C148.672,113.869,145.169,117.373,140.847,117.373L46.949,117.373C42.628,117.373,39.124,113.869,39.124,109.548L39.124,109.548C39.124,105.226,42.628,101.723,46.949,101.723L140.847,101.723C145.169,101.723,148.672,105.226,148.672,109.548ZM148.672,109.548"/>
  <path fill-rule="nonzero" stroke-dasharray="none" stroke-linejoin="miter" y="17" stroke="none" x="3" fill-opacity="1" stroke-opacity="1" rx="1" stroke-width="1px" stroke-miterlimit="4" stroke-linecap="butt" fill="#000000" d="M164.322,140.847L164.322,140.847C164.322,145.169,160.818,148.672,156.497,148.672L31.299,148.672C26.978,148.672,23.475,145.169,23.475,140.847L23.475,140.847C23.475,136.526,26.978,133.022,31.299,133.022L156.497,133.022C160.818,133.022,164.322,136.526,164.322,140.847ZM164.322,140.847"/>
</g>
  <g id="Thin-L" transform="matrix(1.0,0.0,0.0,1.0,763.811911560563,1427.0597272686919)">  <path x="6" fill-opacity="1" fill-rule="nonzero" rx="1" stroke-opacity="1" stroke-linejoin="miter" stroke-linecap="butt" stroke="none" stroke-miterlimit="4" y="5" stroke-dasharray="none" fill="#000000" stroke-width="1px" d="M140.847,46.949L140.847,46.949C140.847,51.271,137.344,54.774,133.022,54.774L54.774,54.774C50.452,54.774,46.949,51.271,46.949,46.949L46.949,46.949C46.949,42.628,50.452,39.124,54.774,39.124L133.022,39.124C137.344,39.124,140.847,42.628,140.847,46.949ZM140.847,46.949"/>
  <path stroke-dasharray="none" y="9" stroke="none" stroke-linecap="butt" stroke-linejoin="miter" fill="#000000" stroke-opacity="1" fill-opacity="1" rx="1" stroke-width="1px" stroke-miterlimit="4" x="4" fill-rule="nonzero" d="M156.497,78.248L156.497,78.248C156.497,82.57,152.994,86.073,148.672,86.073L39.124,86.073C34.803,86.073,31.299,82.57,31.299,78.248L31.299,78.248C31.299,73.927,34.803,70.424,39.124,70.424L148.672,70.424C152.994,70.424,156.497,73.927,156.497,78.248ZM156.497,78.248"/>
  <path rx="1" stroke="none" x="5" stroke-linecap="butt" stroke-linejoin="miter" y="13" stroke-opacity="1" stroke-width="1px" fill="#000000" fill-rule="nonzero" stroke-dasharray="none" fill-opacity="1" stroke-miterlimit="4" d="M148.672,109.548L148.672,109.548C148.672,113.869,145.169,117.373,140.847,117.373L46.949,117.373C42.628,117.373,39.124,113.869,39.124,109.548L39.124,109.548C39.124,105.226,42.628,101.723,46.949,101.723L140.847,101.723C145.169,101.723,148.672,105.226,148.672,109.548ZM148.672,109.548"/>
  <path stroke-width="1px" stroke-opacity="1" y="17" stroke-dasharray="none" rx="1" x="3" stroke="none" stroke-linejoin="miter" stroke-linecap="butt" stroke-miterlimit="4" fill="#000000" fill-opacity="1" fill-rule="nonzero" d="M164.322,140.847L164.322,140.847C164.322,145.169,160.818,148.672,156.497,148.672L31.299,148.672C26.978,148.672,23.475,145.169,23.475,140.847L23.475,140.847C23.475,136.526,26.978,133.022,31.299,133.022L156.497,133.022C160.818,133.022,164.322,136.526,164.322,140.847ZM164.322,140.847"/>
</g>
  <g id="Ultralight-L" transform="matrix(1.0,0.0,0.0,1.0,467.101911560563,1427.0597272686919)">  <path y="5" fill-opacity="1" fill-rule="nonzero" rx="1" x="6" stroke-width="1px" stroke-miterlimit="4" stroke-linejoin="miter" stroke-linecap="butt" stroke-opacity="1" fill="#000000" stroke-dasharray="none" stroke="none" d="M140.847,46.949L140.847,46.949C140.847,51.271,137.344,54.774,133.022,54.774L54.774,54.774C50.452,54.774,46.949,51.271,46.949,46.949L46.949,46.949C46.949,42.628,50.452,39.124,54.774,39.124L133.022,39.124C137.344,39.124,140.847,42.628,140.847,46.949ZM140.847,46.949"/>
  <path stroke-dasharray="none" x="4" stroke="none" fill="#000000" stroke-miterlimit="4" stroke-linecap="butt" y="9" fill-opacity="1" stroke-width="1px" stroke-opacity="1" fill-rule="nonzero" rx="1" stroke-linejoin="miter" d="M156.497,78.248L156.497,78.248C156.497,82.57,152.994,86.073,148.672,86.073L39.124,86.073C34.803,86.073,31.299,82.57,31.299,78.248L31.299,78.248C31.299,73.927,34.803,70.424,39.124,70.424L148.672,70.424C152.994,70.424,156.497,73.927,156.497,78.248ZM156.497,78.248"/>
  <path stroke-linecap="butt" stroke="none" fill-opacity="1" rx="1" stroke-width="1px" x="5" y="13" stroke-miterlimit="4" stroke-opacity="1" stroke-linejoin="miter" fill="#000000" stroke-dasharray="none" fill-rule="nonzero" d="M148.672,109.548L148.672,109.548C148.672,113.869,145.169,117.373,140.847,117.373L46.949,117.373C42.628,117.373,39.124,113.869,39.124,109.548L39.124,109.548C39.124,105.226,42.628,101.723,46.949,101.723L140.847,101.723C145.169,101.723,148.672,105.226,148.672,109.548ZM148.672,109.548"/>
  <path x="3" stroke-miterlimit="4" fill-opacity="1" stroke="none" stroke-width="1px" y="17" stroke-dasharray="none" stroke-opacity="1" stroke-linejoin="miter" rx="1" fill-rule="nonzero" fill="#000000" stroke-linecap="butt" d="M164.322,140.847L164.322,140.847C164.322,145.169,160.818,148.672,156.497,148.672L31.299,148.672C26.978,148.672,23.475,145.169,23.475,140.847L23.475,140.847C23.475,136.526,26.978,133.022,31.299,133.022L156.497,133.022C160.818,133.022,164.322,136.526,164.322,140.847ZM164.322,140.847"/>
</g>
  <g id="Black-M" transform="matrix(1.0,0.0,0.0,1.0,2861.890784155475,1018.1263821184142)">  <path x="6" stroke-dasharray="none" rx="1" stroke-opacity="1" fill="#000000" fill-rule="nonzero" stroke-linecap="butt" stroke-miterlimit="4" stroke-linejoin="miter" y="5" stroke="none" stroke-width="1px" fill-opacity="1" d="M109.184,36.395L109.184,36.395C109.184,39.745,106.468,42.46,103.118,42.46L42.46,42.46C39.11,42.46,36.395,39.745,36.395,36.395L36.395,36.395C36.395,33.045,39.11,30.329,42.46,30.329L103.118,30.329C106.468,30.329,109.184,33.045,109.184,36.395ZM109.184,36.395"/>
  <path x="4" stroke-linecap="butt" stroke-width="1px" fill-rule="nonzero" y="9" stroke-linejoin="miter" stroke-opacity="1" stroke-miterlimit="4" stroke-dasharray="none" fill-opacity="1" rx="1" fill="#000000" stroke="none" d="M121.315,60.658L121.315,60.658C121.315,64.008,118.6,66.723,115.25,66.723L30.329,66.723C26.979,66.723,24.263,64.008,24.263,60.658L24.263,60.658C24.263,57.308,26.979,54.592,30.329,54.592L115.25,54.592C118.6,54.592,121.315,57.308,121.315,60.658ZM121.315,60.658"/>
  <path fill="#000000" rx="1" stroke-linecap="butt" fill-opacity="1" y="13" stroke-miterlimit="4" stroke-linejoin="miter" stroke-dasharray="none" stroke-width="1px" stroke-opacity="1" fill-rule="nonzero" x="5" stroke="none" d="M115.25,84.921L115.25,84.921C115.25,88.271,112.534,90.987,109.184,90.987L36.395,90.987C33.045,90.987,30.329,88.271,30.329,84.921L30.329,84.921C30.329,81.571,33.045,78.855,36.395,78.855L109.184,78.855C112.534,78.855,115.25,81.571,115.25,84.921ZM115.25,84.921"/>
  <path rx="1" fill-opacity="1" stroke-width="1px" stroke-linecap="butt" fill="#000000" stroke-miterlimit="4" stroke-opacity="1" y="17" stroke-linejoin="miter" fill-rule="nonzero" stroke="none" stroke-dasharray="none" x="3" d="M127.381,109.184L127.381,109.184C127.381,112.534,124.665,115.25,121.315,115.25L24.263,115.25C20.913,115.25,18.197,112.534,18.197,109.184L18.197,109.184C18.197,105.834,20.913,103.118,24.263,103.118L121.315,103.118C124.665,103.118,127.381,105.834,127.381,109.184ZM127.381,109.184"/>
</g>
  <g id="Heavy-M" transform="matrix(1.0,0.0,0.0,1.0,2565.180784155475,1018.1263821184142)">  <path y="5" x="6" stroke="none" stroke-miterlimit="4" stroke-linecap="butt" fill-opacity="1" fill="#000000" stroke-width="1px" stroke-linejoin="miter" rx="1" stroke-opacity="1" stroke-dasharray="none" fill-rule="nonzero" d="M109.184,36.395L109.184,36.395C109.184,39.745,106.468,42.46,103.118,42.46L42.46,42.46C39.11,42.46,36.395,39.745,36.395,36.395L36.395,36.395C36.395,33.045,39.11,30.329,42.46,30.329L103.118,30.329C106.468,30.329,109.184,33.045,109.184,36.395ZM109.184,36.395"/>
  <path stroke="none" stroke-opacity="1" stroke-width="1px" stroke-miterlimit="4" stroke-linecap="butt" fill-opacity="1" stroke-dasharray="none" fill-rule="nonzero" fill="#000000" stroke-linejoin="miter" x="4" rx="1" y="9" d="M121.315,60.658L121.315,60.658C121.315,64.008,118.6,66.723,115.25,66.723L30.329,66.723C26.979,66.723,24.263,64.008,24.263,60.658L24.263,60.658C24.263,57.308,26.979,54.592,30.329,54.592L115.25,54.592C118.6,54.592,121.315,57.308,121.315,60.658ZM121.315,60.658"/>
  <path fill-rule="nonzero" fill-opacity="1" rx="1" fill="#000000" stroke-dasharray="none" stroke-width="1px" stroke-miterlimit="4" y="13" stroke-linejoin="miter" stroke="none" x="5" stroke-opacity="1" stroke-linecap="butt" d="M115.25,84.921L115.25,84.921C115.25,88.271,112.534,90.987,109.184,90.987L36.395,90.987C33.045,90.987,30.329,88.271,30.329,84.921L30.329,84.921C30.329,81.571,33.045,78.855,36.395,78.855L109.184,78.855C112.534,78.855,115.25,81.571,115.25,84.921ZM115.25,84.921"/>
  <path stroke-opacity="1" x="3" stroke-width="1px" stroke-dasharray="none" stroke-linejoin="miter" fill-opacity="1" rx="1" fill-rule="nonzero" stroke-miterlimit="4" stroke="none" y="17" stroke-linecap="butt" fill="#000000" d="M127.381,109.184L127.381,109.184C127.381,112.534,124.665,115.25,121.315,115.25L24.263,115.25C20.913,115.25,18.197,112.534,18.197,109.184L18.197,109.184C18.197,105.834,20.913,103.118,24.263,103.118L121.315,103.118C124.665,103.118,127.381,105.834,127.381,109.184ZM127.381,109.184"/>
</g>
  <g id="Bold-M" transform="matrix(1.0,0.0,0.0,1.0,2268.470784155475,1018.1263821184142)">  <path stroke-miterlimit="4" fill="#000000" stroke-linejoin="miter" y="5" stroke-opacity="1" stroke="none" stroke-width="1px" fill-opacity="1" stroke-dasharray="none" rx="1" stroke-linecap="butt" fill-rule="nonzero" x="6" d="M109.184,36.395L109.184,36.395C109.184,39.745,106.468,42.46,103.118,42.46L42.46,42.46C39.11,42.46,36.395,39.745,36.395,36.395L36.395,36.395C36.395,33.045,39.11,30.329,42.46,30.329L103.118,30.329C106.468,30.329,109.184,33.045,109.184,36.395ZM109.184,36.395"/>
  <path stroke-width="1px" stroke-linecap="butt" stroke-linejoin="miter" stroke-opacity="1" x="4" fill-opacity="1" stroke="none" rx="1" stroke-miterlimit="4" fill-rule="nonzero" stroke-dasharray="none" fill="#000000" y="9" d="M121.315,60.658L121.315,60.658C121.315,64.008,118.6,66.723,115.25,66.723L30.329,66.723C26.979,66.723,24.263,64.008,24.263,60.658L24.263,60.658C24.263,57.308,26.979,54.592,30.329,54.592L115.25,54.592C118.6,54.592,121.315,57.308,121.315,60.658ZM121.315,60.658"/>
  <path y="13" stroke="none" x="5" stroke-dasharray="none" fill="#000000" stroke-linejoin="miter" stroke-linecap="butt" stroke-miterlimit="4" stroke-width="1px" stroke-opacity="1" fill-rule="nonzero" fill-opacity="1" rx="1" d="M115.25,84.921L115.25,84.921C115.25,88.271,112.534,90.987,109.184,90.987L36.395,90.987C33.045,90.987,30.329,88.271,30.329,84.921L30.329,84.921C30.329,81.571,33.045,78.855,36.395,78.855L109.184,78.855C112.534,78.855,115.25,81.571,115.25,84.921ZM115.25,84.921"/>
  <path rx="1" fill="#000000" stroke-linejoin="miter" stroke-dasharray="none" stroke-linecap="butt" stroke="none" y="17" fill-opacity="1" fill-rule="nonzero" stroke-width="1px" x="3" stroke-miterlimit="4" stroke-opacity="1" d="M127.381,109.184L127.381,109.184C127.381,112.534,124.665,115.25,121.315,115.25L24.263,115.25C20.913,115.25,18.197,112.534,18.197,109.184L18.197,109.184C18.197,105.834,20.913,103.118,24.263,103.118L121.315,103.118C124.665,103.118,127.381,105.834,127.381,109.184ZM127.381,109.184"/>
</g>
  <g id="Semibold-M" transform="matrix(1.0,0.0,0.0,1.0,1971.7607841554752,1018.1263821184142)">  <path y="5" stroke-linecap="butt" fill-opacity="1" rx="1" fill-rule="nonzero" stroke-width="1px" fill="#000000" stroke-dasharray="none" stroke-opacity="1" stroke="none" x="6" stroke-linejoin="miter" stroke-miterlimit="4" d="M109.184,36.395L109.184,36.395C109.184,39.745,106.468,42.46,103.118,42.46L42.46,42.46C39.11,42.46,36.395,39.745,36.395,36.395L36.395,36.395C36.395,33.045,39.11,30.329,42.46,30.329L103.118,30.329C106.468,30.329,109.184,33.045,109.184,36.395ZM109.184,36.395"/>
  <path stroke-linecap="butt" stroke-opacity="1" stroke="none" x="4" stroke-miterlimit="4" fill-opacity="1" rx="1" fill="#000000" fill-rule="nonzero" y="9" stroke-dasharray="none" stroke-linejoin="miter" stroke-width="1px" d="M121.315,60.658L121.315,60.658C121.315,64.008,118.6,66.723,115.25,66.723L30.329,66.723C26.979,66.723,24.263,64.008,24.263,60.658L24.263,60.658C24.263,57.308,26.979,54.592,30.329,54.592L115.25,54.592C118.6,54.592,121.315,57.308,121.315,60.658ZM121.315,60.658"/>
  <path fill-opacity="1" stroke="none" stroke-opacity="1" y="13" fill-rule="nonzero" fill="#000000" stroke-miterlimit="4" rx="1" stroke-dasharray="none" stroke-linejoin="miter" stroke-linecap="butt" x="5" stroke-width="1px" d="M115.25,84.921L115.25,84.921C115.25,88.271,112.534,90.987,109.184,90.987L36.395,90.987C33.045,90.987,30.329,88.271,30.329,84.921L30.329,84.921C30.329,81.571,33.045,78.855,36.395,78.855L109.184,78.855C112.534,78.855,115.25,81.571,115.25,84.921ZM115.25,84.921"/>
  <path fill="#000000" stroke-dasharray="none" x="3" rx="1" fill-opacity="1" y="17" fill-rule="nonzero" stroke-linejoin="miter" stroke-linecap="butt" stroke-width="1px" stroke-opacity="1" stroke="none" stroke-miterlimit="4" d="M127.381,109.184L127.381,109.184C127.381,112.534,124.665,115.25,121.315,115.25L24.263,115.25C20.913,115.25,18.197,112.534,18.197,109.184L18.197,109.184C18.197,105.834,20.913,103.118,24.263,103.118L121.315,103.118C124.665,103.118,127.381,105.834,127.381,109.184ZM127.381,109.184"/>
</g>
  <g id="Medium-M" transform="matrix(1.0,0.0,0.0,1.0,1675.0507841554752,1018.1263821184142)">  <path fill-opacity="1" y="5" stroke-linejoin="miter" stroke-linecap="butt" x="6" stroke="none" stroke-width="1px" stroke-dasharray="none" stroke-opacity="1" fill-rule="nonzero" stroke-miterlimit="4" rx="1" fill="#000000" d="M109.184,36.395L109.184,36.395C109.184,39.745,106.468,42.46,103.118,42.46L42.46,42.46C39.11,42.46,36.395,39.745,36.395,36.395L36.395,36.395C36.395,33.045,39.11,30.329,42.46,30.329L103.118,30.329C106.468,30.329,109.184,33.045,109.184,36.395ZM109.184,36.395"/>
  <path stroke-linecap="butt" fill-opacity="1" y="9" stroke-linejoin="miter" stroke-miterlimit="4" stroke="none" fill-rule="nonzero" stroke-width="1px" stroke-dasharray="none" x="4" fill="#000000" rx="1" stroke-opacity="1" d="M121.315,60.658L121.315,60.658C121.315,64.008,118.6,66.723,115.25,66.723L30.329,66.723C26.979,66.723,24.263,64.008,24.263,60.658L24.263,60.658C24.263,57.308,26.979,54.592,30.329,54.592L115.25,54.592C118.6,54.592,121.315,57.308,121.315,60.658ZM121.315,60.658"/>
  <path y="13" stroke-linejoin="miter" stroke="none" stroke-miterlimit="4" x="5" stroke-width="1px" fill-opacity="1" fill-rule="nonzero" rx="1" fill="#000000" stroke-dasharray="none" stroke-opacity="1" stroke-linecap="butt" d="M115.25,84.921L115.25,84.921C115.25,88.271,112.534,90.987,109.184,90.987L36.395,90.987C33.045,90.987,30.329,88.271,30.329,84.921L30.329,84.921C30.329,81.571,33.045,78.855,36.395,78.855L109.184,78.855C112.534,78.855,115.25,81.571,115.25,84.921ZM115.25,84.921"/>
  <path fill-opacity="1" stroke-width="1px" stroke-miterlimit="4" x="3" rx="1" fill-rule="nonzero" stroke-linecap="butt" fill="#000000" stroke="none" stroke-opacity="1" stroke-linejoin="miter" y="17" stroke-dasharray="none" d="M127.381,109.184L127.381,109.184C127.381,112.534,124.665,115.25,121.315,115.25L24.263,115.25C20.913,115.25,18.197,112.534,18.197,109.184L18.197,109.184C18.197,105.834,20.913,103.118,24.263,103.118L121.315,103.118C124.665,103.118,127.381,105.834,127.381,109.184ZM127.381,109.184"/>
</g>
  <g id="Regular-M" transform="matrix(1.0,0.0,0.0,1.0,1378.3407841554751,1018.1263821184142)">  <path stroke-dasharray="none" x="6" stroke-width="1px" stroke="none" fill="#000000" y="5" stroke-linejoin="miter" fill-rule="nonzero" stroke-linecap="butt" stroke-opacity="1" rx="1" fill-opacity="1" stroke-miterlimit="4" d="M109.184,36.395L109.184,36.395C109.184,39.745,106.468,42.46,103.118,42.46L42.46,42.46C39.11,42.46,36.395,39.745,36.395,36.395L36.395,36.395C36.395,33.045,39.11,30.329,42.46,30.329L103.118,30.329C106.468,30.329,109.184,33.045,109.184,36.395ZM109.184,36.395"/>
  <path fill-rule="nonzero" stroke-opacity="1" rx="1" stroke-miterlimit="4" x="4" stroke-width="1px" stroke-dasharray="none" fill-opacity="1" y="9" stroke-linecap="butt" fill="#000000" stroke-linejoin="miter" stroke="none" d="M121.315,60.658L121.315,60.658C121.315,64.008,118.6,66.723,115.25,66.723L30.329,66.723C26.979,66.723,24.263,64.008,24.263,60.658L24.263,60.658C24.263,57.308,26.979,54.592,30.329,54.592L115.25,54.592C118.6,54.592,121.315,57.308,121.315,60.658ZM121.315,60.658"/>
  <path rx="1" stroke-width="1px" stroke-linejoin="miter" stroke="none" stroke-linecap="butt" fill-opacity="1" fill-rule="nonzero" stroke-opacity="1" x="5" stroke-dasharray="none" y="13" stroke-miterlimit="4" fill="#000000" d="M115.25,84.921L115.25,84.921C115.25,88.271,112.534,90.987,109.184,90.987L36.395,90.987C33.045,90.987,30.329,88.271,30.329,84.921L30.329,84.921C30.329,81.571,33.045,78.855,36.395,78.855L109.184,78.855C112.534,78.855,115.25,81.571,115.25,84.921ZM115.25,84.921"/>
  <path stroke-dasharray="none" fill="#000000" stroke="none" y="17" stroke-linejoin="miter" stroke-width="1px" rx="1" x="3" stroke-miterlimit="4" fill-rule="nonzero" stroke-opacity="1" fill-opacity="1" stroke-linecap="butt" d="M127.381,109.184L127.381,109.184C127.381,112.534,124.665,115.25,121.315,115.25L24.263,115.25C20.913,115.25,18.197,112.534,18.197,109.184L18.197,109.184C18.197,105.834,20.913,103.118,24.263,103.118L121.315,103.118C124.665,103.118,127.381,105.834,127.381,109.184ZM127.381,109.184"/>
</g>
  <g id="Light-M" transform="matrix(1.0,0.0,0.0,1.0,1081.6307841554753,1018.1263821184142)">  <path x="6" rx="1" stroke-dasharray="none" stroke-linejoin="miter" fill-rule="nonzero" y="5" stroke-linecap="butt" stroke="none" stroke-opacity="1" fill-opacity="1" stroke-miterlimit="4" stroke-width="1px" fill="#000000" d="M109.184,36.395L109.184,36.395C109.184,39.745,106.468,42.46,103.118,42.46L42.46,42.46C39.11,42.46,36.395,39.745,36.395,36.395L36.395,36.395C36.395,33.045,39.11,30.329,42.46,30.329L103.118,30.329C106.468,30.329,109.184,33.045,109.184,36.395ZM109.184,36.395"/>
  <path x="4" fill-opacity="1" stroke-opacity="1" stroke-linejoin="miter" stroke-linecap="butt" stroke-miterlimit="4" stroke-dasharray="none" fill-rule="nonzero" y="9" stroke-width="1px" fill="#000000" rx="1" stroke="none" d="M121.315,60.658L121.315,60.658C121.315,64.008,118.6,66.723,115.25,66.723L30.329,66.723C26.979,66.723,24.263,64.008,24.263,60.658L24.263,60.658C24.263,57.308,26.979,54.592,30.329,54.592L115.25,54.592C118.6,54.592,121.315,57.308,121.315,60.658ZM121.315,60.658"/>
  <path stroke-width="1px" stroke-opacity="1" fill-rule="nonzero" stroke-linecap="butt" stroke-linejoin="miter" x="5" fill="#000000" y="13" rx="1" stroke="none" stroke-dasharray="none" fill-opacity="1" stroke-miterlimit="4" d="M115.25,84.921L115.25,84.921C115.25,88.271,112.534,90.987,109.184,90.987L36.395,90.987C33.045,90.987,30.329,88.271,30.329,84.921L30.329,84.921C30.329,81.571,33.045,78.855,36.395,78.855L109.184,78.855C112.534,78.855,115.25,81.571,115.25,84.921ZM115.25,84.921"/>
  <path fill-rule="nonzero" stroke-dasharray="none" stroke-linejoin="miter" y="17" stroke="none" x="3" fill-opacity="1" stroke-opacity="1" rx="1" stroke-width="1px" stroke-miterlimit="4" stroke-linecap="butt" fill="#000000" d="M127.381,109.184L127.381,109.184C127.381,112.534,124.665,115.25,121.315,115.25L24.263,115.25C20.913,115.25,18.197,112.534,18.197,109.184L18.197,109.184C18.197,105.834,20.913,103.118,24.263,103.118L121.315,103.118C124.665,103.118,127.381,105.834,127.381,109.184ZM127.381,109.184"/>
</g>
  <g id="Thin-M" transform="matrix(1.0,0.0,0.0,1.0,784.9207841554752,1018.1263821184142)">  <path x="6" fill-opacity="1" fill-rule="nonzero" rx="1" stroke-opacity="1" stroke-linejoin="miter" stroke-linecap="butt" stroke="none" stroke-miterlimit="4" y="5" stroke-dasharray="none" fill="#000000" stroke-width="1px" d="M109.184,36.395L109.184,36.395C109.184,39.745,106.468,42.46,103.118,42.46L42.46,42.46C39.11,42.46,36.395,39.745,36.395,36.395L36.395,36.395C36.395,33.045,39.11,30.329,42.46,30.329L103.118,30.329C106.468,30.329,109.184,33.045,109.184,36.395ZM109.184,36.395"/>
  <path stroke-dasharray="none" y="9" stroke="none" stroke-linecap="butt" stroke-linejoin="miter" fill="#000000" stroke-opacity="1" fill-opacity="1" rx="1" stroke-width="1px" stroke-miterlimit="4" x="4" fill-rule="nonzero" d="M121.315,60.658L121.315,60.658C121.315,64.008,118.6,66.723,115.25,66.723L30.329,66.723C26.979,66.723,24.263,64.008,24.263,60.658L24.263,60.658C24.263,57.308,26.979,54.592,30.329,54.592L115.25,54.592C118.6,54.592,121.315,57.308,121.315,60.658ZM121.315,60.658"/>
  <path rx="1" stroke="none" x="5" stroke-linecap="butt" stroke-linejoin="miter" y="13" stroke-opacity="1" stroke-width="1px" fill="#000000" fill-rule="nonzero" stroke-dasharray="none" fill-opacity="1" stroke-miterlimit="4" d="M115.25,84.921L115.25,84.921C115.25,88.271,112.534,90.987,109.184,90.987L36.395,90.987C33.045,90.987,30.329,88.271,30.329,84.921L30.329,84.921C30.329,81.571,33.045,78.855,36.395,78.855L109.184,78.855C112.534,78.855,115.25,81.571,115.25,84.921ZM115.25,84.921"/>
  <path stroke-width="1px" stroke-opacity="1" y="17" stroke-dasharray="none" rx="1" x="3" stroke="none" stroke-linejoin="miter" stroke-linecap="butt" stroke-miterlimit="4" fill="#000000" fill-opacity="1" fill-rule="nonzero" d="M127.381,109.184L127.381,109.184C127.381,112.534,124.665,115.25,121.315,115.25L24.263,115.25C20.913,115.25,18.197,112.534,18.197,109.184L18.197,109.184C18.197,105.834,20.913,103.118,24.263,103.118L121.315,103.118C124.665,103.118,127.381,105.834,127.381,109.184ZM127.381,109.184"/>
</g>
  <g id="Ultralight-M" transform="matrix(1.0,0.0,0.0,1.0,488.2107841554752,1018.1263821184142)">  <path y="5" fill-opacity="1" fill-rule="nonzero" rx="1" x="6" stroke-width="1px" stroke-miterlimit="4" stroke-linejoin="miter" stroke-linecap="butt" stroke-opacity="1" fill="#000000" stroke-dasharray="none" stroke="none" d="M109.184,36.395L109.184,36.395C109.184,39.745,106.468,42.46,103.118,42.46L42.46,42.46C39.11,42.46,36.395,39.745,36.395,36.395L36.395,36.395C36.395,33.045,39.11,30.329,42.46,30.329L103.118,30.329C106.468,30.329,109.184,33.045,109.184,36.395ZM109.184,36.395"/>
  <path stroke-dasharray="none" x="4" stroke="none" fill="#000000" stroke-miterlimit="4" stroke-linecap="butt" y="9" fill-opacity="1" stroke-width="1px" stroke-opacity="1" fill-rule="nonzero" rx="1" stroke-linejoin="miter" d="M121.315,60.658L121.315,60.658C121.315,64.008,118.6,66.723,115.25,66.723L30.329,66.723C26.979,66.723,24.263,64.008,24.263,60.658L24.263,60.658C24.263,57.308,26.979,54.592,30.329,54.592L115.25,54.592C118.6,54.592,121.315,57.308,121.315,60.658ZM121.315,60.658"/>
  <path stroke-linecap="butt" stroke="none" fill-opacity="1" rx="1" stroke-width="1px" x="5" y="13" stroke-miterlimit="4" stroke-opacity="1" stroke-linejoin="miter" fill="#000000" stroke-dasharray="none" fill-rule="nonzero" d="M115.25,84.921L115.25,84.921C115.25,88.271,112.534,90.987,109.184,90.987L36.395,90.987C33.045,90.987,30.329,88.271,30.329,84.921L30.329,84.921C30.329,81.571,33.045,78.855,36.395,78.855L109.184,78.855C112.534,78.855,115.25,81.571,115.25,84.921ZM115.25,84.921"/>
  <path x="3" stroke-miterlimit="4" fill-opacity="1" stroke="none" stroke-width="1px" y="17" stroke-dasharray="none" stroke-opacity="1" stroke-linejoin="miter" rx="1" fill-rule="nonzero" fill="#000000" stroke-linecap="butt" d="M127.381,109.184L127.381,109.184C127.381,112.534,124.665,115.25,121.315,115.25L24.263,115.25C20.913,115.25,18.197,112.534,18.197,109.184L18.197,109.184C18.197,105.834,20.913,103.118,24.263,103.118L121.315,103.118C124.665,103.118,127.381,105.834,127.381,109.184ZM127.381,109.184"/>
</g>
  <g id="Black-S" transform="matrix(1.0,0.0,0.0,1.0,2877.686043993737,603.8900514369996)">  <path x="6" stroke-dasharray="none" rx="1" stroke-opacity="1" fill="#000000" fill-rule="nonzero" stroke-linecap="butt" stroke-miterlimit="4" stroke-linejoin="miter" y="5" stroke="none" stroke-width="1px" fill-opacity="1" d="M85.491,28.497L85.491,28.497C85.491,31.12,83.365,33.246,80.741,33.246L33.246,33.246C30.623,33.246,28.497,31.12,28.497,28.497L28.497,28.497C28.497,25.874,30.623,23.747,33.246,23.747L80.741,23.747C83.365,23.747,85.491,25.874,85.491,28.497ZM85.491,28.497"/>
  <path x="4" stroke-linecap="butt" stroke-width="1px" fill-rule="nonzero" y="9" stroke-linejoin="miter" stroke-opacity="1" stroke-miterlimit="4" stroke-dasharray="none" fill-opacity="1" rx="1" fill="#000000" stroke="none" d="M94.99,47.495L94.99,47.495C94.99,50.118,92.864,52.244,90.24,52.244L23.747,52.244C21.124,52.244,18.998,50.118,18.998,47.495L18.998,47.495C18.998,44.872,21.124,42.745,23.747,42.745L90.24,42.745C92.864,42.745,94.99,44.872,94.99,47.495ZM94.99,47.495"/>
  <path fill="#000000" rx="1" stroke-linecap="butt" fill-opacity="1" y="13" stroke-miterlimit="4" stroke-linejoin="miter" stroke-dasharray="none" stroke-width="1px" stroke-opacity="1" fill-rule="nonzero" x="5" stroke="none" d="M90.24,66.493L90.24,66.493C90.24,69.116,88.114,71.242,85.491,71.242L28.497,71.242C25.874,71.242,23.747,69.116,23.747,66.493L23.747,66.493C23.747,63.87,25.874,61.743,28.497,61.743L85.491,61.743C88.114,61.743,90.24,63.87,90.24,66.493ZM90.24,66.493"/>
  <path rx="1" fill-opacity="1" stroke-width="1px" stroke-linecap="butt" fill="#000000" stroke-miterlimit="4" stroke-opacity="1" y="17" stroke-linejoin="miter" fill-rule="nonzero" stroke="none" stroke-dasharray="none" x="3" d="M99.739,85.491L99.739,85.491C99.739,88.114,97.613,90.24,94.99,90.24L18.998,90.24C16.375,90.24,14.248,88.114,14.248,85.491L14.248,85.491C14.248,82.868,16.375,80.741,18.998,80.741L94.99,80.741C97.613,80.741,99.739,82.868,99.739,85.491ZM99.739,85.491"/>
</g>
  <g id="Heavy-S" transform="matrix(1.0,0.0,0.0,1.0,2580.9760439937368,603.8900514369996)">  <path y="5" x="6" stroke="none" stroke-miterlimit="4" stroke-linecap="butt" fill-opacity="1" fill="#000000" stroke-width="1px" stroke-linejoin="miter" rx="1" stroke-opacity="1" stroke-dasharray="none" fill-rule="nonzero" d="M85.491,28.497L85.491,28.497C85.491,31.12,83.365,33.246,80.741,33.246L33.246,33.246C30.623,33.246,28.497,31.12,28.497,28.497L28.497,28.497C28.497,25.874,30.623,23.747,33.246,23.747L80.741,23.747C83.365,23.747,85.491,25.874,85.491,28.497ZM85.491,28.497"/>
  <path stroke="none" stroke-opacity="1" stroke-width="1px" stroke-miterlimit="4" stroke-linecap="butt" fill-opacity="1" stroke-dasharray="none" fill-rule="nonzero" fill="#000000" stroke-linejoin="miter" x="4" rx="1" y="9" d="M94.99,47.495L94.99,47.495C94.99,50.118,92.864,52.244,90.24,52.244L23.747,52.244C21.124,52.244,18.998,50.118,18.998,47.495L18.998,47.495C18.998,44.872,21.124,42.745,23.747,42.745L90.24,42.745C92.864,42.745,94.99,44.872,94.99,47.495ZM94.99,47.495"/>
  <path fill-rule="nonzero" fill-opacity="1" rx="1" fill="#000000" stroke-dasharray="none" stroke-width="1px" stroke-miterlimit="4" y="13" stroke-linejoin="miter" stroke="none" x="5" stroke-opacity="1" stroke-linecap="butt" d="M90.24,66.493L90.24,66.493C90.24,69.116,88.114,71.242,85.491,71.242L28.497,71.242C25.874,71.242,23.747,69.116,23.747,66.493L23.747,66.493C23.747,63.87,25.874,61.743,28.497,61.743L85.491,61.743C88.114,61.743,90.24,63.87,90.24,66.493ZM90.24,66.493"/>
  <path stroke-opacity="1" x="3" stroke-width="1px" stroke-dasharray="none" stroke-linejoin="miter" fill-opacity="1" rx="1" fill-rule="nonzero" stroke-miterlimit="4" stroke="none" y="17" stroke-linecap="butt" fill="#000000" d="M99.739,85.491L99.739,85.491C99.739,88.114,97.613,90.24,94.99,90.24L18.998,90.24C16.375,90.24,14.248,88.114,14.248,85.491L14.248,85.491C14.248,82.868,16.375,80.741,18.998,80.741L94.99,80.741C97.613,80.741,99.739,82.868,99.739,85.491ZM99.739,85.491"/>
</g>
  <g id="Bold-S" transform="matrix(1.0,0.0,0.0,1.0,2284.2660439937367,603.8900514369996)">  <path stroke-miterlimit="4" fill="#000000" stroke-linejoin="miter" y="5" stroke-opacity="1" stroke="none" stroke-width="1px" fill-opacity="1" stroke-dasharray="none" rx="1" stroke-linecap="butt" fill-rule="nonzero" x="6" d="M85.491,28.497L85.491,28.497C85.491,31.12,83.365,33.246,80.741,33.246L33.246,33.246C30.623,33.246,28.497,31.12,28.497,28.497L28.497,28.497C28.497,25.874,30.623,23.747,33.246,23.747L80.741,23.747C83.365,23.747,85.491,25.874,85.491,28.497ZM85.491,28.497"/>
  <path stroke-width="1px" stroke-linecap="butt" stroke-linejoin="miter" stroke-opacity="1" x="4" fill-opacity="1" stroke="none" rx="1" stroke-miterlimit="4" fill-rule="nonzero" stroke-dasharray="none" fill="#000000" y="9" d="M94.99,47.495L94.99,47.495C94.99,50.118,92.864,52.244,90.24,52.244L23.747,52.244C21.124,52.244,18.998,50.118,18.998,47.495L18.998,47.495C18.998,44.872,21.124,42.745,23.747,42.745L90.24,42.745C92.864,42.745,94.99,44.872,94.99,47.495ZM94.99,47.495"/>
  <path y="13" stroke="none" x="5" stroke-dasharray="none" fill="#000000" stroke-linejoin="miter" stroke-linecap="butt" stroke-miterlimit="4" stroke-width="1px" stroke-opacity="1" fill-rule="nonzero" fill-opacity="1" rx="1" d="M90.24,66.493L90.24,66.493C90.24,69.116,88.114,71.242,85.491,71.242L28.497,71.242C25.874,71.242,23.747,69.116,23.747,66.493L23.747,66.493C23.747,63.87,25.874,61.743,28.497,61.743L85.491,61.743C88.114,61.743,90.24,63.87,90.24,66.493ZM90.24,66.493"/>
  <path rx="1" fill="#000000" stroke-linejoin="miter" stroke-dasharray="none" stroke-linecap="butt" stroke="none" y="17" fill-opacity="1" fill-rule="nonzero" stroke-width="1px" x="3" stroke-miterlimit="4" stroke-opacity="1" d="M99.739,85.491L99.739,85.491C99.739,88.114,97.613,90.24,94.99,90.24L18.998,90.24C16.375,90.24,14.248,88.114,14.248,85.491L14.248,85.491C14.248,82.868,16.375,80.741,18.998,80.741L94.99,80.741C97.613,80.741,99.739,82.868,99.739,85.491ZM99.739,85.491"/>
</g>
  <g id="Semibold-S" transform="matrix(1.0,0.0,0.0,1.0,1987.556043993737,603.8900514369996)">  <path y="5" stroke-linecap="butt" fill-opacity="1" rx="1" fill-rule="nonzero" stroke-width="1px" fill="#000000" stroke-dasharray="none" stroke-opacity="1" stroke="none" x="6" stroke-linejoin="miter" stroke-miterlimit="4" d="M85.491,28.497L85.491,28.497C85.491,31.12,83.365,33.246,80.741,33.246L33.246,33.246C30.623,33.246,28.497,31.12,28.497,28.497L28.497,28.497C28.497,25.874,30.623,23.747,33.246,23.747L80.741,23.747C83.365,23.747,85.491,25.874,85.491,28.497ZM85.491,28.497"/>
  <path stroke-linecap="butt" stroke-opacity="1" stroke="none" x="4" stroke-miterlimit="4" fill-opacity="1" rx="1" fill="#000000" fill-rule="nonzero" y="9" stroke-dasharray="none" stroke-linejoin="miter" stroke-width="1px" d="M94.99,47.495L94.99,47.495C94.99,50.118,92.864,52.244,90.24,52.244L23.747,52.244C21.124,52.244,18.998,50.118,18.998,47.495L18.998,47.495C18.998,44.872,21.124,42.745,23.747,42.745L90.24,42.745C92.864,42.745,94.99,44.872,94.99,47.495ZM94.99,47.495"/>
  <path fill-opacity="1" stroke="none" stroke-opacity="1" y="13" fill-rule="nonzero" fill="#000000" stroke-miterlimit="4" rx="1" stroke-dasharray="none" stroke-linejoin="miter" stroke-linecap="butt" x="5" stroke-width="1px" d="M90.24,66.493L90.24,66.493C90.24,69.116,88.114,71.242,85.491,71.242L28.497,71.242C25.874,71.242,23.747,69.116,23.747,66.493L23.747,66.493C23.747,63.87,25.874,61.743,28.497,61.743L85.491,61.743C88.114,61.743,90.24,63.87,90.24,66.493ZM90.24,66.493"/>
  <path fill="#000000" stroke-dasharray="none" x="3" rx="1" fill-opacity="1" y="17" fill-rule="nonzero" stroke-linejoin="miter" stroke-linecap="butt" stroke-width="1px" stroke-opacity="1" stroke="none" stroke-miterlimit="4" d="M99.739,85.491L99.739,85.491C99.739,88.114,97.613,90.24,94.99,90.24L18.998,90.24C16.375,90.24,14.248,88.114,14.248,85.491L14.248,85.491C14.248,82.868,16.375,80.741,18.998,80.741L94.99,80.741C97.613,80.741,99.739,82.868,99.739,85.491ZM99.739,85.491"/>
</g>
  <g id="Medium-S" transform="matrix(1.0,0.0,0.0,1.0,1690.8460439937369,603.8900514369996)">  <path fill-opacity="1" y="5" stroke-linejoin="miter" stroke-linecap="butt" x="6" stroke="none" stroke-width="1px" stroke-dasharray="none" stroke-opacity="1" fill-rule="nonzero" stroke-miterlimit="4" rx="1" fill="#000000" d="M85.491,28.497L85.491,28.497C85.491,31.12,83.365,33.246,80.741,33.246L33.246,33.246C30.623,33.246,28.497,31.12,28.497,28.497L28.497,28.497C28.497,25.874,30.623,23.747,33.246,23.747L80.741,23.747C83.365,23.747,85.491,25.874,85.491,28.497ZM85.491,28.497"/>
  <path stroke-linecap="butt" fill-opacity="1" y="9" stroke-linejoin="miter" stroke-miterlimit="4" stroke="none" fill-rule="nonzero" stroke-width="1px" stroke-dasharray="none" x="4" fill="#000000" rx="1" stroke-opacity="1" d="M94.99,47.495L94.99,47.495C94.99,50.118,92.864,52.244,90.24,52.244L23.747,52.244C21.124,52.244,18.998,50.118,18.998,47.495L18.998,47.495C18.998,44.872,21.124,42.745,23.747,42.745L90.24,42.745C92.864,42.745,94.99,44.872,94.99,47.495ZM94.99,47.495"/>
  <path y="13" stroke-linejoin="miter" stroke="none" stroke-miterlimit="4" x="5" stroke-width="1px" fill-opacity="1" fill-rule="nonzero" rx="1" fill="#000000" stroke-dasharray="none" stroke-opacity="1" stroke-linecap="butt" d="M90.24,66.493L90.24,66.493C90.24,69.116,88.114,71.242,85.491,71.242L28.497,71.242C25.874,71.242,23.747,69.116,23.747,66.493L23.747,66.493C23.747,63.87,25.874,61.743,28.497,61.743L85.491,61.743C88.114,61.743,90.24,63.87,90.24,66.493ZM90.24,66.493"/>
  <path fill-opacity="1" stroke-width="1px" stroke-miterlimit="4" x="3" rx="1" fill-rule="nonzero" stroke-linecap="butt" fill="#000000" stroke="none" stroke-opacity="1" stroke-linejoin="miter" y="17" stroke-dasharray="none" d="M99.739,85.491L99.739,85.491C99.739,88.114,97.613,90.24,94.99,90.24L18.998,90.24C16.375,90.24,14.248,88.114,14.248,85.491L14.248,85.491C14.248,82.868,16.375,80.741,18.998,80.741L94.99,80.741C97.613,80.741,99.739,82.868,99.739,85.491ZM99.739,85.491"/>
</g>
  <g id="Regular-S" transform="matrix(1.0,0.0,0.0,1.0,1394.1360439937368,603.8900514369996)">  <path stroke-dasharray="none" x="6" stroke-width="1px" stroke="none" fill="#000000" y="5" stroke-linejoin="miter" fill-rule="nonzero" stroke-linecap="butt" stroke-opacity="1" rx="1" fill-opacity="1" stroke-miterlimit="4" d="M85.491,28.497L85.491,28.497C85.491,31.12,83.365,33.246,80.741,33.246L33.246,33.246C30.623,33.246,28.497,31.12,28.497,28.497L28.497,28.497C28.497,25.874,30.623,23.747,33.246,23.747L80.741,23.747C83.365,23.747,85.491,25.874,85.491,28.497ZM85.491,28.497"/>
  <path fill-rule="nonzero" stroke-opacity="1" rx="1" stroke-miterlimit="4" x="4" stroke-width="1px" stroke-dasharray="none" fill-opacity="1" y="9" stroke-linecap="butt" fill="#000000" stroke-linejoin="miter" stroke="none" d="M94.99,47.495L94.99,47.495C94.99,50.118,92.864,52.244,90.24,52.244L23.747,52.244C21.124,52.244,18.998,50.118,18.998,47.495L18.998,47.495C18.998,44.872,21.124,42.745,23.747,42.745L90.24,42.745C92.864,42.745,94.99,44.872,94.99,47.495ZM94.99,47.495"/>
  <path rx="1" stroke-width="1px" stroke-linejoin="miter" stroke="none" stroke-linecap="butt" fill-opacity="1" fill-rule="nonzero" stroke-opacity="1" x="5" stroke-dasharray="none" y="13" stroke-miterlimit="4" fill="#000000" d="M90.24,66.493L90.24,66.493C90.24,69.116,88.114,71.242,85.491,71.242L28.497,71.242C25.874,71.242,23.747,69.116,23.747,66.493L23.747,66.493C23.747,63.87,25.874,61.743,28.497,61.743L85.491,61.743C88.114,61.743,90.24,63.87,90.24,66.493ZM90.24,66.493"/>
  <path stroke-dasharray="none" fill="#000000" stroke="none" y="17" stroke-linejoin="miter" stroke-width="1px" rx="1" x="3" stroke-miterlimit="4" fill-rule="nonzero" stroke-opacity="1" fill-opacity="1" stroke-linecap="butt" d="M99.739,85.491L99.739,85.491C99.739,88.114,97.613,90.24,94.99,90.24L18.998,90.24C16.375,90.24,14.248,88.114,14.248,85.491L14.248,85.491C14.248,82.868,16.375,80.741,18.998,80.741L94.99,80.741C97.613,80.741,99.739,82.868,99.739,85.491ZM99.739,85.491"/>
</g>
  <g id="Light-S" transform="matrix(1.0,0.0,0.0,1.0,1097.426043993737,603.8900514369996)">  <path x="6" rx="1" stroke-dasharray="none" stroke-linejoin="miter" fill-rule="nonzero" y="5" stroke-linecap="butt" stroke="none" stroke-opacity="1" fill-opacity="1" stroke-miterlimit="4" stroke-width="1px" fill="#000000" d="M85.491,28.497L85.491,28.497C85.491,31.12,83.365,33.246,80.741,33.246L33.246,33.246C30.623,33.246,28.497,31.12,28.497,28.497L28.497,28.497C28.497,25.874,30.623,23.747,33.246,23.747L80.741,23.747C83.365,23.747,85.491,25.874,85.491,28.497ZM85.491,28.497"/>
  <path x="4" fill-opacity="1" stroke-opacity="1" stroke-linejoin="miter" stroke-linecap="butt" stroke-miterlimit="4" stroke-dasharray="none" fill-rule="nonzero" y="9" stroke-width="1px" fill="#000000" rx="1" stroke="none" d="M94.99,47.495L94.99,47.495C94.99,50.118,92.864,52.244,90.24,52.244L23.747,52.244C21.124,52.244,18.998,50.118,18.998,47.495L18.998,47.495C18.998,44.872,21.124,42.745,23.747,42.745L90.24,42.745C92.864,42.745,94.99,44.872,94.99,47.495ZM94.99,47.495"/>
  <path stroke-width="1px" stroke-opacity="1" fill-rule="nonzero" stroke-linecap="butt" stroke-linejoin="miter" x="5" fill="#000000" y="13" rx="1" stroke="none" stroke-dasharray="none" fill-opacity="1" stroke-miterlimit="4" d="M90.24,66.493L90.24,66.493C90.24,69.116,88.114,71.242,85.491,71.242L28.497,71.242C25.874,71.242,23.747,69.116,23.747,66.493L23.747,66.493C23.747,63.87,25.874,61.743,28.497,61.743L85.491,61.743C88.114,61.743,90.24,63.87,90.24,66.493ZM90.24,66.493"/>
  <path fill-rule="nonzero" stroke-dasharray="none" stroke-linejoin="miter" y="17" stroke="none" x="3" fill-opacity="1" stroke-opacity="1" rx="1" stroke-width="1px" stroke-miterlimit="4" stroke-linecap="butt" fill="#000000" d="M99.739,85.491L99.739,85.491C99.739,88.114,97.613,90.24,94.99,90.24L18.998,90.24C16.375,90.24,14.248,88.114,14.248,85.491L14.248,85.491C14.248,82.868,16.375,80.741,18.998,80.741L94.99,80.741C97.613,80.741,99.739,82.868,99.739,85.491ZM99.739,85.491"/>
</g>
  <g id="Thin-S" transform="matrix(1.0,0.0,0.0,1.0,800.7160439937371,603.8900514369996)">  <path x="6" fill-opacity="1" fill-rule="nonzero" rx="1" stroke-opacity="1" stroke-linejoin="miter" stroke-linecap="butt" stroke="none" stroke-miterlimit="4" y="5" stroke-dasharray="none" fill="#000000" stroke-width="1px" d="M85.491,28.497L85.491,28.497C85.491,31.12,83.365,33.246,80.741,33.246L33.246,33.246C30.623,33.246,28.497,31.12,28.497,28.497L28.497,28.497C28.497,25.874,30.623,23.747,33.246,23.747L80.741,23.747C83.365,23.747,85.491,25.874,85.491,28.497ZM85.491,28.497"/>
  <path stroke-dasharray="none" y="9" stroke="none" stroke-linecap="butt" stroke-linejoin="miter" fill="#000000" stroke-opacity="1" fill-opacity="1" rx="1" stroke-width="1px" stroke-miterlimit="4" x="4" fill-rule="nonzero" d="M94.99,47.495L94.99,47.495C94.99,50.118,92.864,52.244,90.24,52.244L23.747,52.244C21.124,52.244,18.998,50.118,18.998,47.495L18.998,47.495C18.998,44.872,21.124,42.745,23.747,42.745L90.24,42.745C92.864,42.745,94.99,44.872,94.99,47.495ZM94.99,47.495"/>
  <path rx="1" stroke="none" x="5" stroke-linecap="butt" stroke-linejoin="miter" y="13" stroke-opacity="1" stroke-width="1px" fill="#000000" fill-rule="nonzero" stroke-dasharray="none" fill-opacity="1" stroke-miterlimit="4" d="M90.24,66.493L90.24,66.493C90.24,69.116,88.114,71.242,85.491,71.242L28.497,71.242C25.874,71.242,23.747,69.116,23.747,66.493L23.747,66.493C23.747,63.87,25.874,61.743,28.497,61.743L85.491,61.743C88.114,61.743,90.24,63.87,90.24,66.493ZM90.24,66.493"/>
  <path stroke-width="1px" stroke-opacity="1" y="17" stroke-dasharray="none" rx="1" x="3" stroke="none" stroke-linejoin="miter" stroke-linecap="butt" stroke-miterlimit="4" fill="#000000" fill-opacity="1" fill-rule="nonzero" d="M99.739,85.491L99.739,85.491C99.739,88.114,97.613,90.24,94.99,90.24L18.998,90.24C16.375,90.24,14.248,88.114,14.248,85.491L14.248,85.491C14.248,82.868,16.375,80.741,18.998,80.741L94.99,80.741C97.613,80.741,99.739,82.868,99.739,85.491ZM99.739,85.491"/>
</g>
  <g id="Ultralight-S" transform="matrix(1.0,0.0,0.0,1.0,504.0060439937371,603.8900514369996)">  <path y="5" fill-opacity="1" fill-rule="nonzero" rx="1" x="6" stroke-width="1px" stroke-miterlimit="4" stroke-linejoin="miter" stroke-linecap="butt" stroke-opacity="1" fill="#000000" stroke-dasharray="none" stroke="none" d="M85.491,28.497L85.491,28.497C85.491,31.12,83.365,33.246,80.741,33.246L33.246,33.246C30.623,33.246,28.497,31.12,28.497,28.497L28.497,28.497C28.497,25.874,30.623,23.747,33.246,23.747L80.741,23.747C83.365,23.747,85.491,25.874,85.491,28.497ZM85.491,28.497"/>
  <path stroke-dasharray="none" x="4" stroke="none" fill="#000000" stroke-miterlimit="4" stroke-linecap="butt" y="9" fill-opacity="1" stroke-width="1px" stroke-opacity="1" fill-rule="nonzero" rx="1" stroke-linejoin="miter" d="M94.99,47.495L94.99,47.495C94.99,50.118,92.864,52.244,90.24,52.244L23.747,52.244C21.124,52.244,18.998,50.118,18.998,47.495L18.998,47.495C18.998,44.872,21.124,42.745,23.747,42.745L90.24,42.745C92.864,42.745,94.99,44.872,94.99,47.495ZM94.99,47.495"/>
  <path stroke-linecap="butt" stroke="none" fill-opacity="1" rx="1" stroke-width="1px" x="5" y="13" stroke-miterlimit="4" stroke-opacity="1" stroke-linejoin="miter" fill="#000000" stroke-dasharray="none" fill-rule="nonzero" d="M90.24,66.493L90.24,66.493C90.24,69.116,88.114,71.242,85.491,71.242L28.497,71.242C25.874,71.242,23.747,69.116,23.747,66.493L23.747,66.493C23.747,63.87,25.874,61.743,28.497,61.743L85.491,61.743C88.114,61.743,90.24,63.87,90.24,66.493ZM90.24,66.493"/>
  <path x="3" stroke-miterlimit="4" fill-opacity="1" stroke="none" stroke-width="1px" y="17" stroke-dasharray="none" stroke-opacity="1" stroke-linejoin="miter" rx="1" fill-rule="nonzero" fill="#000000" stroke-linecap="butt" d="M99.739,85.491L99.739,85.491C99.739,88.114,97.613,90.24,94.99,90.24L18.998,90.24C16.375,90.24,14.248,88.114,14.248,85.491L14.248,85.491C14.248,82.868,16.375,80.741,18.998,80.741L94.99,80.741C97.613,80.741,99.739,82.868,99.739,85.491ZM99.739,85.491"/>
</g>
 </g>
</svg>
