<?xml version="1.0" encoding="UTF-8"?>
<!-- Generator: CustomSymbols v2.6.1.40 by @serious_bret https://bretlester.com/app_content/CustomSymbols/ -->
<!-- Guides: Left/Right 0.123/0.127 Cap/Base 0.162/0.166 -->
<!-- Settings: RefScale 1.0 Min/Max Stroke Scales 0.5/2.21 -->
<!DOCTYPE svg
PUBLIC "-//W3C//DTD SVG 1.1//EN"
       "http://www.w3.org/Graphics/SVG/1.1/DTD/svg11.dtd">
<svg version="1.1" xmlns="http://www.w3.org/2000/svg" xmlns:xlink="http://www.w3.org/1999/xlink" width="3300" height="2200">
<![CDATA[<svg width="24" height="24" viewBox="0 0 24 24" fill="none" xmlns="http://www.w3.org/2000/svg">
<path fill-rule="evenodd" clip-rule="evenodd" d="M20 5C20.553 5 21 5.448 21 6C21 6.552 20.553 7 20 7V7.004V19.996C20 21.103 19.103 22 17.996 22H6.004C4.897 22 4 21.103 4 19.996V7.004C4 7.002 4 7.001 4 7C3.448 7 3 6.552 3 6C3 5.448 3.448 5 4 5H6.004H7L8.702 2.447C8.888 2.167 9.202 2 9.537 2H14.463C14.799 2 15.111 2.167 15.298 2.447L17 5H17.996H20ZM6 20H18V7H6V20ZM10.07 4L9.416 4.981L14.567 4.956L13.93 4H10.07ZM10 18C9.448 18 9 17.552 9 17V10C9 9.448 9.448 9 10 9C10.552 9 11 9.448 11 10V17C11 17.552 10.552 18 10 18ZM14 18C13.448 18 13 17.552 13 17V10C13 9.448 13.448 9 14 9C14.553 9 15 9.448 15 10V17C15 17.552 14.553 18 14 18Z" fill="black"/>
</svg>
]]>
 <g id="Notes">
  <rect height="2200" id="artboard" style="fill:white;opacity:1" width="3300" x="0" y="0"/>
  <line id="" style="fill:none;stroke:black;opacity:1;stroke-width:0.5;" x1="263" x2="3036" y1="292" y2="292"/>
  <text id="reftext1" style="stroke:none;fill:black;font-family:-apple-system,&quot;SF Pro Display&quot;,&quot;SF Pro Text&quot;,Helvetica,sans-serif;font-weight:bold;" transform="matrix(1 0 0 1 263 322)">Weight/Scale Variations</text>
  <text id="reftext2" style="stroke:none;fill:black;font-family:-apple-system,&quot;SF Pro Display&quot;,&quot;SF Pro Text&quot;,Helvetica,sans-serif;text-anchor:middle;" transform="matrix(1 0 0 1 559.711 322)">Ultralight</text>
  <text style="stroke:none;fill:black;font-family:-apple-system,&quot;SF Pro Display&quot;,&quot;SF Pro Text&quot;,Helvetica,sans-serif;text-anchor:middle;" transform="matrix(1 0 0 1 856.422 322)">Thin</text>
  <text style="stroke:none;fill:black;font-family:-apple-system,&quot;SF Pro Display&quot;,&quot;SF Pro Text&quot;,Helvetica,sans-serif;text-anchor:middle;" transform="matrix(1 0 0 1 1153.13 322)">Light</text>
  <text style="stroke:none;fill:black;font-family:-apple-system,&quot;SF Pro Display&quot;,&quot;SF Pro Text&quot;,Helvetica,sans-serif;text-anchor:middle;" transform="matrix(1 0 0 1 1449.84 322)">Regular</text>
  <text style="stroke:none;fill:black;font-family:-apple-system,&quot;SF Pro Display&quot;,&quot;SF Pro Text&quot;,Helvetica,sans-serif;text-anchor:middle;" transform="matrix(1 0 0 1 1746.56 322)">Medium</text>
  <text style="stroke:none;fill:black;font-family:-apple-system,&quot;SF Pro Display&quot;,&quot;SF Pro Text&quot;,Helvetica,sans-serif;text-anchor:middle;" transform="matrix(1 0 0 1 2043.27 322)">Semibold</text>
  <text style="stroke:none;fill:black;font-family:-apple-system,&quot;SF Pro Display&quot;,&quot;SF Pro Text&quot;,Helvetica,sans-serif;text-anchor:middle;" transform="matrix(1 0 0 1 2339.98 322)">Bold</text>
  <text style="stroke:none;fill:black;font-family:-apple-system,&quot;SF Pro Display&quot;,&quot;SF Pro Text&quot;,Helvetica,sans-serif;text-anchor:middle;" transform="matrix(1 0 0 1 2636.69 322)">Heavy</text>
  <text style="stroke:none;fill:black;font-family:-apple-system,&quot;SF Pro Display&quot;,&quot;SF Pro Text&quot;,Helvetica,sans-serif;text-anchor:middle;" transform="matrix(1 0 0 1 2933.4 322)">Black</text>
  <line id="" style="fill:none;stroke:black;opacity:1;stroke-width:0.5;" x1="263" x2="3036" y1="1903" y2="1903"/>
  <g id="" transform="matrix(1 0 0 1 263 1933)">
   <path d="M9.24805 0.830078C13.5547 0.830078 17.1387-2.74414 17.1387-7.05078C17.1387-11.3574 13.5449-14.9316 9.23828-14.9316C4.94141-14.9316 1.36719-11.3574 1.36719-7.05078C1.36719-2.74414 4.95117 0.830078 9.24805 0.830078ZM9.24805-0.654297C5.70312-0.654297 2.87109-3.49609 2.87109-7.05078C2.87109-10.6055 5.69336-13.4473 9.23828-13.4473C12.793-13.4473 15.6348-10.6055 15.6445-7.05078C15.6543-3.49609 12.8027-0.654297 9.24805-0.654297ZM6.39648-6.31836L8.50586-6.31836L8.50586-4.19922C8.50586-3.75977 8.79883-3.45703 9.22852-3.45703C9.67773-3.45703 9.9707-3.75977 9.9707-4.19922L9.9707-6.31836L12.0996-6.31836C12.5391-6.31836 12.8418-6.61133 12.8418-7.04102C12.8418-7.48047 12.5391-7.7832 12.0996-7.7832L9.9707-7.7832L9.9707-9.89258C9.9707-10.3418 9.67773-10.6445 9.22852-10.6445C8.79883-10.6445 8.50586-10.3418 8.50586-9.89258L8.50586-7.7832L6.39648-7.7832C5.94727-7.7832 5.64453-7.48047 5.64453-7.04102C5.64453-6.61133 5.94727-6.31836 6.39648-6.31836Z"/>
  </g>
  <g id="" transform="matrix(1 0 0 1 281.506 1933)">
   <path d="M11.709 2.91016C17.1582 2.91016 21.6699-1.61133 21.6699-7.05078C21.6699-12.5 17.1484-17.0117 11.6992-17.0117C6.25977-17.0117 1.74805-12.5 1.74805-7.05078C1.74805-1.61133 6.26953 2.91016 11.709 2.91016ZM11.709 1.25C7.09961 1.25 3.41797-2.44141 3.41797-7.05078C3.41797-11.6602 7.08984-15.3516 11.6992-15.3516C16.3086-15.3516 20-11.6602 20.0098-7.05078C20.0195-2.44141 16.3184 1.25 11.709 1.25ZM7.98828-6.23047L10.8789-6.23047L10.8789-3.32031C10.8789-2.83203 11.2109-2.5 11.6895-2.5C12.1777-2.5 12.5195-2.83203 12.5195-3.32031L12.5195-6.23047L15.4297-6.23047C15.918-6.23047 16.25-6.5625 16.25-7.04102C16.25-7.5293 15.918-7.87109 15.4297-7.87109L12.5195-7.87109L12.5195-10.7617C12.5195-11.2695 12.1777-11.6016 11.6895-11.6016C11.2109-11.6016 10.8789-11.2598 10.8789-10.7617L10.8789-7.87109L7.98828-7.87109C7.48047-7.87109 7.14844-7.5293 7.14844-7.04102C7.14844-6.5625 7.49023-6.23047 7.98828-6.23047Z"/>
  </g>
  <g id="" transform="matrix(1 0 0 1 304.924 1933)">
   <path d="M14.9707 5.66406C21.9336 5.66406 27.6953-0.0976562 27.6953-7.05078C27.6953-14.0137 21.9238-19.7754 14.9609-19.7754C8.00781-19.7754 2.25586-14.0137 2.25586-7.05078C2.25586-0.0976562 8.01758 5.66406 14.9707 5.66406ZM14.9707 3.84766C8.93555 3.84766 4.08203-1.01562 4.08203-7.05078C4.08203-13.0957 8.92578-17.9492 14.9609-17.9492C21.0059-17.9492 25.8594-13.0957 25.8691-7.05078C25.8789-1.01562 21.0156 3.84766 14.9707 3.84766ZM10.0586-6.14258L14.0625-6.14258L14.0625-2.12891C14.0625-1.5918 14.4336-1.2207 14.9512-1.2207C15.4883-1.2207 15.8594-1.5918 15.8594-2.12891L15.8594-6.14258L19.8828-6.14258C20.4102-6.14258 20.791-6.51367 20.791-7.03125C20.791-7.56836 20.4199-7.94922 19.8828-7.94922L15.8594-7.94922L15.8594-11.9531C15.8594-12.5098 15.4883-12.8809 14.9512-12.8809C14.4336-12.8809 14.0625-12.5 14.0625-11.9531L14.0625-7.94922L10.0586-7.94922C9.50195-7.94922 9.13086-7.56836 9.13086-7.03125C9.13086-6.51367 9.51172-6.14258 10.0586-6.14258Z"/>
  </g>
  <text style="stroke:none;fill:black;font-family:-apple-system,&quot;SF Pro Display&quot;,&quot;SF Pro Text&quot;,Helvetica,sans-serif;font-weight:bold;" transform="matrix(1 0 0 1 263 1953)">Design Variations</text>
  <text style="stroke:none;fill:black;font-family:-apple-system,&quot;SF Pro Display&quot;,&quot;SF Pro Text&quot;,Helvetica,sans-serif;" transform="matrix(1 0 0 1 263 1971)">Symbols are supported in up to nine weights and three scales.</text>
  <text style="stroke:none;fill:black;font-family:-apple-system,&quot;SF Pro Display&quot;,&quot;SF Pro Text&quot;,Helvetica,sans-serif;" transform="matrix(1 0 0 1 263 1989)">For optimal layout with text and other symbols, vertically align</text>
  <text style="stroke:none;fill:black;font-family:-apple-system,&quot;SF Pro Display&quot;,&quot;SF Pro Text&quot;,Helvetica,sans-serif;" transform="matrix(1 0 0 1 263 2007)">symbols with the adjacent text.</text>
  <line id="" style="fill:none;stroke:#00AEEF;stroke-width:0.5;opacity:1.0;" x1="776" x2="776" y1="1919" y2="1933"/>
  <g id="" transform="matrix(1 0 0 1 776 1933)">
   <path d="M3.31055 0.126953C3.82812 0.126953 4.08203-0.0683594 4.26758-0.605469L5.52734-4.0625L11.2891-4.0625L12.5488-0.605469C12.7344-0.0683594 12.9883 0.126953 13.4961 0.126953C14.0137 0.126953 14.3457-0.185547 14.3457-0.673828C14.3457-0.839844 14.3164-0.986328 14.2383-1.20117L9.6582-13.3887C9.43359-13.9941 9.0332-14.2871 8.4082-14.2871C7.80273-14.2871 7.39258-13.9941 7.17773-13.3984L2.59766-1.19141C2.51953-0.976562 2.49023-0.830078 2.49023-0.664062C2.49023-0.175781 2.80273 0.126953 3.31055 0.126953ZM6.00586-5.53711L8.37891-12.1094L8.42773-12.1094L10.8008-5.53711Z"/>
  </g>
  <line id="" style="fill:none;stroke:#00AEEF;stroke-width:0.5;opacity:1.0;" x1="792.836" x2="792.836" y1="1919" y2="1933"/>
  <text style="stroke:none;fill:black;font-family:-apple-system,&quot;SF Pro Display&quot;,&quot;SF Pro Text&quot;,Helvetica,sans-serif;font-weight:bold;" transform="matrix(1 0 0 1 776 1953)">Margins</text>
  <text style="stroke:none;fill:black;font-family:-apple-system,&quot;SF Pro Display&quot;,&quot;SF Pro Text&quot;,Helvetica,sans-serif;" transform="matrix(1 0 0 1 776 1971)">Leading and trailing margins on the left and right side of each symbol</text>
  <text style="stroke:none;fill:black;font-family:-apple-system,&quot;SF Pro Display&quot;,&quot;SF Pro Text&quot;,Helvetica,sans-serif;" transform="matrix(1 0 0 1 776 1989)">can be adjusted by modifying the x-location of the margin guidelines.</text>
  <text style="stroke:none;fill:black;font-family:-apple-system,&quot;SF Pro Display&quot;,&quot;SF Pro Text&quot;,Helvetica,sans-serif;" transform="matrix(1 0 0 1 776 2007)">Modifications are automatically applied proportionally to all</text>
  <text style="stroke:none;fill:black;font-family:-apple-system,&quot;SF Pro Display&quot;,&quot;SF Pro Text&quot;,Helvetica,sans-serif;" transform="matrix(1 0 0 1 776 2025)">scales and weights.</text>
  <g id="" transform="matrix(1 0 0 1 1289 1933)">
   <path d="M2.8418 1.86523L4.54102 3.57422C5.40039 4.44336 6.38672 4.38477 7.31445 3.35938L17.4902-7.85156C17.7539-7.76367 18.0273-7.7832 18.3398-7.8418L19.4043-8.03711L20.0684-7.36328L20.0293-6.80664C19.9902-6.30859 20.1172-5.92773 20.6055-5.44922L21.3672-4.70703C21.8457-4.22852 22.4609-4.19922 22.9297-4.66797L25.8398-7.58789C26.3086-8.05664 26.2891-8.65234 25.8105-9.13086L25.0391-9.89258C24.5605-10.3711 24.1895-10.5273 23.7109-10.4883L23.1348-10.4395L22.4902-11.0742L22.7344-12.1973C22.8613-12.7637 22.7051-13.2031 22.1191-13.7891L19.9219-15.9766C16.582-19.2969 12.1484-19.2188 9.25781-16.3281C8.83789-15.918 8.80859-15.3418 9.04297-14.9512C9.27734-14.5898 9.73633-14.3555 10.3809-14.5215C11.8457-14.8633 13.3691-14.9219 14.7949-13.9844L14.209-12.5293C14.0137-12.0508 13.9844-11.6504 14.1113-11.2891L3.04688-0.898438C2.06055 0.0195312 1.98242 0.996094 2.8418 1.86523ZM10.752-15.957C13.1836-17.7344 16.4746-17.4316 18.7012-15.2051L21.1328-12.793C21.3672-12.5586 21.4062-12.373 21.3379-12.0312L21.0156-10.5469L22.5195-9.0625L23.5059-9.12109C23.7598-9.13086 23.8379-9.11133 24.0332-8.91602L24.6094-8.33984L22.168-5.89844L21.5918-6.47461C21.3965-6.66992 21.3672-6.74805 21.377-7.01172L21.4453-7.98828L19.9512-9.47266L18.4277-9.21875C18.1055-9.15039 17.959-9.17969 17.7148-9.41406L15.7129-11.416C15.459-11.6504 15.4297-11.8164 15.5859-12.1875L16.4648-14.2773C14.9023-15.7324 12.8711-16.3574 10.8398-15.7617C10.6836-15.7227 10.625-15.8496 10.752-15.957ZM5.27344 2.30469L4.10156 1.14258C3.63281 0.683594 3.74023 0.341797 4.14062-0.0195312L14.9512-10.1953L16.416-8.71094L6.42578 2.27539C6.07422 2.67578 5.74219 2.77344 5.27344 2.30469Z"/>
  </g>
  <text style="stroke:none;fill:black;font-family:-apple-system,&quot;SF Pro Display&quot;,&quot;SF Pro Text&quot;,Helvetica,sans-serif;font-weight:bold;" transform="matrix(1 0 0 1 1289 1953)">Exporting</text>
  <text style="stroke:none;fill:black;font-family:-apple-system,&quot;SF Pro Display&quot;,&quot;SF Pro Text&quot;,Helvetica,sans-serif;" transform="matrix(1 0 0 1 1289 1971)">Symbols should be outlined when exporting to ensure the</text>
  <text style="stroke:none;fill:black;font-family:-apple-system,&quot;SF Pro Display&quot;,&quot;SF Pro Text&quot;,Helvetica,sans-serif;" transform="matrix(1 0 0 1 1289 1989)">design is preserved when submitting to Xcode.</text>
  <text id="template-version" style="stroke:none;fill:black;font-family:-apple-system,&quot;SF Pro Display&quot;,&quot;SF Pro Text&quot;,Helvetica,sans-serif;text-anchor:end;" transform="matrix(1 0 0 1 3036 1933)">Template v.2.0</text>
  <text style="stroke:none;fill:black;font-family:-apple-system,&quot;SF Pro Display&quot;,&quot;SF Pro Text&quot;,Helvetica,sans-serif;text-anchor:end;" transform="matrix(1 0 0 1 3036 1951)">Requires Xcode 12 or greater</text>
  <text style="stroke:none;fill:black;font-family:-apple-system,&quot;SF Pro Display&quot;,&quot;SF Pro Text&quot;,Helvetica,sans-serif;" transform="matrix(1 0 0 1 263 726)">Small</text>
  <text style="stroke:none;fill:black;font-family:-apple-system,&quot;SF Pro Display&quot;,&quot;SF Pro Text&quot;,Helvetica,sans-serif;" transform="matrix(1 0 0 1 263 1156)">Medium</text>
  <text style="stroke:none;fill:black;font-family:-apple-system,&quot;SF Pro Display&quot;,&quot;SF Pro Text&quot;,Helvetica,sans-serif;" transform="matrix(1 0 0 1 263 1586)">Large</text>
 </g>
 <g id="Guides">
  <g id="H-reference" style="fill:#27AAE1;stroke:none;" transform="matrix(1 0 0 1 339 696)">
   <path d="M0.976562 0L3.66211 0L12.9883-24.4629L45.752-24.4629L55.127 0L57.7637 0L30.6152-70.459L28.125-70.459ZM29.3457-67.1387L29.4434-67.1387L44.873-26.709L13.8672-26.709Z"/>
  </g>
  <line id="Baseline-S" style="fill:none;stroke:#27AAE1;opacity:1;stroke-width:0.5;" x1="263" x2="3036" y1="696" y2="696"/>
  <line id="Capline-S" style="fill:none;stroke:#27AAE1;opacity:1;stroke-width:0.5;" x1="263" x2="3036" y1="625.541" y2="625.541"/>
  <g id="H-reference" style="fill:#27AAE1;stroke:none;" transform="matrix(1 0 0 1 339 1126)">
   <path d="M0.976562 0L3.66211 0L12.9883-24.4629L45.752-24.4629L55.127 0L57.7637 0L30.6152-70.459L28.125-70.459ZM29.3457-67.1387L29.4434-67.1387L44.873-26.709L13.8672-26.709Z"/>
  </g>
  <line id="Baseline-M" style="fill:none;stroke:#27AAE1;opacity:1;stroke-width:0.5;" x1="263" x2="3036" y1="1126" y2="1126"/>
  <line id="Capline-M" style="fill:none;stroke:#27AAE1;opacity:1;stroke-width:0.5;" x1="263" x2="3036" y1="1055.54" y2="1055.54"/>
  <g id="H-reference" style="fill:#27AAE1;stroke:none;" transform="matrix(1 0 0 1 339 1556)">
   <path d="M0.976562 0L3.66211 0L12.9883-24.4629L45.752-24.4629L55.127 0L57.7637 0L30.6152-70.459L28.125-70.459ZM29.3457-67.1387L29.4434-67.1387L44.873-26.709L13.8672-26.709Z"/>
  </g>
  <line id="Baseline-L" style="fill:none;stroke:#27AAE1;opacity:1;stroke-width:0.5;" x1="263" x2="3036" y1="1556" y2="1556"/>
  <line id="Capline-L" style="fill:none;stroke:#27AAE1;opacity:1;stroke-width:0.5;" x1="263" x2="3036" y1="1485.54" y2="1485.54"/>
  <line id="left-margin" x1="1411.6011231050036" x2="1411.6011231050036" y1="1030.79" y2="1150.12" style="fill:none;stroke:#00AEEF;stroke-width:0.5;opacity:1.0;"/>
  <line id="right-margin" x1="1490.2394723656064" x2="1490.2394723656064" y1="1030.79" y2="1150.12" style="fill:none;stroke:#00AEEF;stroke-width:0.5;opacity:1.0;"/>
 </g>
 <g id="Symbols">
  <g id="Black-L" transform="matrix(1.0,0.0,0.0,1.0,2867.0510196358814,1453.411555088588)">  <path stroke-width="1px" stroke-opacity="1" stroke-dasharray="none" stroke="none" stroke-linejoin="miter" stroke-linecap="butt" clip-rule="evenodd" stroke-miterlimit="4" fill="#000000" fill-opacity="1" fill-rule="evenodd" d="M112.715,28.179C115.832,28.179,118.351,30.704,118.351,33.814C118.351,36.925,115.832,39.45,112.715,39.45L112.715,39.473L112.715,112.692C112.715,118.931,107.66,123.986,101.421,123.986L33.837,123.986C27.598,123.986,22.543,118.931,22.543,112.692L22.543,39.473C22.543,39.462,22.543,39.456,22.543,39.45C19.432,39.45,16.907,36.925,16.907,33.814C16.907,30.704,19.432,28.179,22.543,28.179L33.837,28.179L39.45,28.179L49.042,13.791C50.091,12.213,51.86,11.271,53.748,11.271L81.51,11.271C83.403,11.271,85.162,12.213,86.216,13.791L95.808,28.179L101.421,28.179L112.715,28.179ZM33.814,112.715L101.443,112.715L101.443,39.45L33.814,39.45L33.814,112.715ZM56.752,22.543L53.066,28.072L82.096,27.931L78.506,22.543L56.752,22.543ZM56.357,101.443C53.247,101.443,50.722,98.919,50.722,95.808L50.722,56.357C50.722,53.247,53.247,50.722,56.357,50.722C59.468,50.722,61.993,53.247,61.993,56.357L61.993,95.808C61.993,98.919,59.468,101.443,56.357,101.443ZM78.9,101.443C75.79,101.443,73.265,98.919,73.265,95.808L73.265,56.357C73.265,53.247,75.79,50.722,78.9,50.722C82.017,50.722,84.536,53.247,84.536,56.357L84.536,95.808C84.536,98.919,82.017,101.443,78.9,101.443ZM78.9,101.443"/>
</g>
  <g id="Heavy-L" transform="matrix(1.0,0.0,0.0,1.0,2570.3410196358814,1453.411555088588)">  <path fill-rule="evenodd" stroke-miterlimit="4" stroke-opacity="1" stroke-dasharray="none" stroke="none" fill-opacity="1" clip-rule="evenodd" stroke-linecap="butt" stroke-width="1px" stroke-linejoin="miter" fill="#000000" d="M112.715,28.179C115.832,28.179,118.351,30.704,118.351,33.814C118.351,36.925,115.832,39.45,112.715,39.45L112.715,39.473L112.715,112.692C112.715,118.931,107.66,123.986,101.421,123.986L33.837,123.986C27.598,123.986,22.543,118.931,22.543,112.692L22.543,39.473C22.543,39.462,22.543,39.456,22.543,39.45C19.432,39.45,16.907,36.925,16.907,33.814C16.907,30.704,19.432,28.179,22.543,28.179L33.837,28.179L39.45,28.179L49.042,13.791C50.091,12.213,51.86,11.271,53.748,11.271L81.51,11.271C83.403,11.271,85.162,12.213,86.216,13.791L95.808,28.179L101.421,28.179L112.715,28.179ZM33.814,112.715L101.443,112.715L101.443,39.45L33.814,39.45L33.814,112.715ZM56.752,22.543L53.066,28.072L82.096,27.931L78.506,22.543L56.752,22.543ZM56.357,101.443C53.247,101.443,50.722,98.919,50.722,95.808L50.722,56.357C50.722,53.247,53.247,50.722,56.357,50.722C59.468,50.722,61.993,53.247,61.993,56.357L61.993,95.808C61.993,98.919,59.468,101.443,56.357,101.443ZM78.9,101.443C75.79,101.443,73.265,98.919,73.265,95.808L73.265,56.357C73.265,53.247,75.79,50.722,78.9,50.722C82.017,50.722,84.536,53.247,84.536,56.357L84.536,95.808C84.536,98.919,82.017,101.443,78.9,101.443ZM78.9,101.443"/>
</g>
  <g id="Bold-L" transform="matrix(1.0,0.0,0.0,1.0,2273.6310196358813,1453.411555088588)">  <path fill-opacity="1" stroke-dasharray="none" stroke-miterlimit="4" stroke-width="1px" clip-rule="evenodd" stroke-opacity="1" stroke="none" fill="#000000" fill-rule="evenodd" stroke-linecap="butt" stroke-linejoin="miter" d="M112.715,28.179C115.832,28.179,118.351,30.704,118.351,33.814C118.351,36.925,115.832,39.45,112.715,39.45L112.715,39.473L112.715,112.692C112.715,118.931,107.66,123.986,101.421,123.986L33.837,123.986C27.598,123.986,22.543,118.931,22.543,112.692L22.543,39.473C22.543,39.462,22.543,39.456,22.543,39.45C19.432,39.45,16.907,36.925,16.907,33.814C16.907,30.704,19.432,28.179,22.543,28.179L33.837,28.179L39.45,28.179L49.042,13.791C50.091,12.213,51.86,11.271,53.748,11.271L81.51,11.271C83.403,11.271,85.162,12.213,86.216,13.791L95.808,28.179L101.421,28.179L112.715,28.179ZM33.814,112.715L101.443,112.715L101.443,39.45L33.814,39.45L33.814,112.715ZM56.752,22.543L53.066,28.072L82.096,27.931L78.506,22.543L56.752,22.543ZM56.357,101.443C53.247,101.443,50.722,98.919,50.722,95.808L50.722,56.357C50.722,53.247,53.247,50.722,56.357,50.722C59.468,50.722,61.993,53.247,61.993,56.357L61.993,95.808C61.993,98.919,59.468,101.443,56.357,101.443ZM78.9,101.443C75.79,101.443,73.265,98.919,73.265,95.808L73.265,56.357C73.265,53.247,75.79,50.722,78.9,50.722C82.017,50.722,84.536,53.247,84.536,56.357L84.536,95.808C84.536,98.919,82.017,101.443,78.9,101.443ZM78.9,101.443"/>
</g>
  <g id="Semibold-L" transform="matrix(1.0,0.0,0.0,1.0,1976.9210196358817,1453.411555088588)">  <path stroke-linejoin="miter" stroke-width="1px" stroke-linecap="butt" stroke-opacity="1" clip-rule="evenodd" stroke-miterlimit="4" fill="#000000" stroke-dasharray="none" stroke="none" fill-opacity="1" fill-rule="evenodd" d="M112.715,28.179C115.832,28.179,118.351,30.704,118.351,33.814C118.351,36.925,115.832,39.45,112.715,39.45L112.715,39.473L112.715,112.692C112.715,118.931,107.66,123.986,101.421,123.986L33.837,123.986C27.598,123.986,22.543,118.931,22.543,112.692L22.543,39.473C22.543,39.462,22.543,39.456,22.543,39.45C19.432,39.45,16.907,36.925,16.907,33.814C16.907,30.704,19.432,28.179,22.543,28.179L33.837,28.179L39.45,28.179L49.042,13.791C50.091,12.213,51.86,11.271,53.748,11.271L81.51,11.271C83.403,11.271,85.162,12.213,86.216,13.791L95.808,28.179L101.421,28.179L112.715,28.179ZM33.814,112.715L101.443,112.715L101.443,39.45L33.814,39.45L33.814,112.715ZM56.752,22.543L53.066,28.072L82.096,27.931L78.506,22.543L56.752,22.543ZM56.357,101.443C53.247,101.443,50.722,98.919,50.722,95.808L50.722,56.357C50.722,53.247,53.247,50.722,56.357,50.722C59.468,50.722,61.993,53.247,61.993,56.357L61.993,95.808C61.993,98.919,59.468,101.443,56.357,101.443ZM78.9,101.443C75.79,101.443,73.265,98.919,73.265,95.808L73.265,56.357C73.265,53.247,75.79,50.722,78.9,50.722C82.017,50.722,84.536,53.247,84.536,56.357L84.536,95.808C84.536,98.919,82.017,101.443,78.9,101.443ZM78.9,101.443"/>
</g>
  <g id="Medium-L" transform="matrix(1.0,0.0,0.0,1.0,1680.2110196358817,1453.411555088588)">  <path stroke-dasharray="none" stroke-opacity="1" fill-rule="evenodd" fill="#000000" stroke-miterlimit="4" stroke="none" stroke-width="1px" clip-rule="evenodd" fill-opacity="1" stroke-linecap="butt" stroke-linejoin="miter" d="M112.715,28.179C115.832,28.179,118.351,30.704,118.351,33.814C118.351,36.925,115.832,39.45,112.715,39.45L112.715,39.473L112.715,112.692C112.715,118.931,107.66,123.986,101.421,123.986L33.837,123.986C27.598,123.986,22.543,118.931,22.543,112.692L22.543,39.473C22.543,39.462,22.543,39.456,22.543,39.45C19.432,39.45,16.907,36.925,16.907,33.814C16.907,30.704,19.432,28.179,22.543,28.179L33.837,28.179L39.45,28.179L49.042,13.791C50.091,12.213,51.86,11.271,53.748,11.271L81.51,11.271C83.403,11.271,85.162,12.213,86.216,13.791L95.808,28.179L101.421,28.179L112.715,28.179ZM33.814,112.715L101.443,112.715L101.443,39.45L33.814,39.45L33.814,112.715ZM56.752,22.543L53.066,28.072L82.096,27.931L78.506,22.543L56.752,22.543ZM56.357,101.443C53.247,101.443,50.722,98.919,50.722,95.808L50.722,56.357C50.722,53.247,53.247,50.722,56.357,50.722C59.468,50.722,61.993,53.247,61.993,56.357L61.993,95.808C61.993,98.919,59.468,101.443,56.357,101.443ZM78.9,101.443C75.79,101.443,73.265,98.919,73.265,95.808L73.265,56.357C73.265,53.247,75.79,50.722,78.9,50.722C82.017,50.722,84.536,53.247,84.536,56.357L84.536,95.808C84.536,98.919,82.017,101.443,78.9,101.443ZM78.9,101.443"/>
</g>
  <g id="Regular-L" transform="matrix(1.0,0.0,0.0,1.0,1383.5010196358817,1453.411555088588)">  <path fill-opacity="1" stroke-dasharray="none" stroke-miterlimit="4" stroke-linejoin="miter" fill-rule="evenodd" stroke="none" fill="#000000" stroke-opacity="1" stroke-linecap="butt" clip-rule="evenodd" stroke-width="1px" d="M112.715,28.179C115.832,28.179,118.351,30.704,118.351,33.814C118.351,36.925,115.832,39.45,112.715,39.45L112.715,39.473L112.715,112.692C112.715,118.931,107.66,123.986,101.421,123.986L33.837,123.986C27.598,123.986,22.543,118.931,22.543,112.692L22.543,39.473C22.543,39.462,22.543,39.456,22.543,39.45C19.432,39.45,16.907,36.925,16.907,33.814C16.907,30.704,19.432,28.179,22.543,28.179L33.837,28.179L39.45,28.179L49.042,13.791C50.091,12.213,51.86,11.271,53.748,11.271L81.51,11.271C83.403,11.271,85.162,12.213,86.216,13.791L95.808,28.179L101.421,28.179L112.715,28.179ZM33.814,112.715L101.443,112.715L101.443,39.45L33.814,39.45L33.814,112.715ZM56.752,22.543L53.066,28.072L82.096,27.931L78.506,22.543L56.752,22.543ZM56.357,101.443C53.247,101.443,50.722,98.919,50.722,95.808L50.722,56.357C50.722,53.247,53.247,50.722,56.357,50.722C59.468,50.722,61.993,53.247,61.993,56.357L61.993,95.808C61.993,98.919,59.468,101.443,56.357,101.443ZM78.9,101.443C75.79,101.443,73.265,98.919,73.265,95.808L73.265,56.357C73.265,53.247,75.79,50.722,78.9,50.722C82.017,50.722,84.536,53.247,84.536,56.357L84.536,95.808C84.536,98.919,82.017,101.443,78.9,101.443ZM78.9,101.443"/>
</g>
  <g id="Light-L" transform="matrix(1.0,0.0,0.0,1.0,1086.7910196358819,1453.411555088588)">  <path stroke-opacity="1" stroke-linecap="butt" stroke-linejoin="miter" fill-rule="evenodd" fill-opacity="1" stroke="none" stroke-width="1px" clip-rule="evenodd" stroke-miterlimit="4" fill="#000000" stroke-dasharray="none" d="M112.715,28.179C115.832,28.179,118.351,30.704,118.351,33.814C118.351,36.925,115.832,39.45,112.715,39.45L112.715,39.473L112.715,112.692C112.715,118.931,107.66,123.986,101.421,123.986L33.837,123.986C27.598,123.986,22.543,118.931,22.543,112.692L22.543,39.473C22.543,39.462,22.543,39.456,22.543,39.45C19.432,39.45,16.907,36.925,16.907,33.814C16.907,30.704,19.432,28.179,22.543,28.179L33.837,28.179L39.45,28.179L49.042,13.791C50.091,12.213,51.86,11.271,53.748,11.271L81.51,11.271C83.403,11.271,85.162,12.213,86.216,13.791L95.808,28.179L101.421,28.179L112.715,28.179ZM33.814,112.715L101.443,112.715L101.443,39.45L33.814,39.45L33.814,112.715ZM56.752,22.543L53.066,28.072L82.096,27.931L78.506,22.543L56.752,22.543ZM56.357,101.443C53.247,101.443,50.722,98.919,50.722,95.808L50.722,56.357C50.722,53.247,53.247,50.722,56.357,50.722C59.468,50.722,61.993,53.247,61.993,56.357L61.993,95.808C61.993,98.919,59.468,101.443,56.357,101.443ZM78.9,101.443C75.79,101.443,73.265,98.919,73.265,95.808L73.265,56.357C73.265,53.247,75.79,50.722,78.9,50.722C82.017,50.722,84.536,53.247,84.536,56.357L84.536,95.808C84.536,98.919,82.017,101.443,78.9,101.443ZM78.9,101.443"/>
</g>
  <g id="Thin-L" transform="matrix(1.0,0.0,0.0,1.0,790.0810196358817,1453.411555088588)">  <path stroke-dasharray="none" fill="#000000" fill-opacity="1" fill-rule="evenodd" stroke-miterlimit="4" stroke-linejoin="miter" clip-rule="evenodd" stroke="none" stroke-linecap="butt" stroke-opacity="1" stroke-width="1px" d="M112.715,28.179C115.832,28.179,118.351,30.704,118.351,33.814C118.351,36.925,115.832,39.45,112.715,39.45L112.715,39.473L112.715,112.692C112.715,118.931,107.66,123.986,101.421,123.986L33.837,123.986C27.598,123.986,22.543,118.931,22.543,112.692L22.543,39.473C22.543,39.462,22.543,39.456,22.543,39.45C19.432,39.45,16.907,36.925,16.907,33.814C16.907,30.704,19.432,28.179,22.543,28.179L33.837,28.179L39.45,28.179L49.042,13.791C50.091,12.213,51.86,11.271,53.748,11.271L81.51,11.271C83.403,11.271,85.162,12.213,86.216,13.791L95.808,28.179L101.421,28.179L112.715,28.179ZM33.814,112.715L101.443,112.715L101.443,39.45L33.814,39.45L33.814,112.715ZM56.752,22.543L53.066,28.072L82.096,27.931L78.506,22.543L56.752,22.543ZM56.357,101.443C53.247,101.443,50.722,98.919,50.722,95.808L50.722,56.357C50.722,53.247,53.247,50.722,56.357,50.722C59.468,50.722,61.993,53.247,61.993,56.357L61.993,95.808C61.993,98.919,59.468,101.443,56.357,101.443ZM78.9,101.443C75.79,101.443,73.265,98.919,73.265,95.808L73.265,56.357C73.265,53.247,75.79,50.722,78.9,50.722C82.017,50.722,84.536,53.247,84.536,56.357L84.536,95.808C84.536,98.919,82.017,101.443,78.9,101.443ZM78.9,101.443"/>
</g>
  <g id="Ultralight-L" transform="matrix(1.0,0.0,0.0,1.0,493.3710196358817,1453.411555088588)">  <path fill-opacity="1" stroke-linejoin="miter" fill-rule="evenodd" stroke-linecap="butt" stroke-opacity="1" stroke-miterlimit="4" clip-rule="evenodd" fill="#000000" stroke-width="1px" stroke="none" stroke-dasharray="none" d="M112.715,28.179C115.832,28.179,118.351,30.704,118.351,33.814C118.351,36.925,115.832,39.45,112.715,39.45L112.715,39.473L112.715,112.692C112.715,118.931,107.66,123.986,101.421,123.986L33.837,123.986C27.598,123.986,22.543,118.931,22.543,112.692L22.543,39.473C22.543,39.462,22.543,39.456,22.543,39.45C19.432,39.45,16.907,36.925,16.907,33.814C16.907,30.704,19.432,28.179,22.543,28.179L33.837,28.179L39.45,28.179L49.042,13.791C50.091,12.213,51.86,11.271,53.748,11.271L81.51,11.271C83.403,11.271,85.162,12.213,86.216,13.791L95.808,28.179L101.421,28.179L112.715,28.179ZM33.814,112.715L101.443,112.715L101.443,39.45L33.814,39.45L33.814,112.715ZM56.752,22.543L53.066,28.072L82.096,27.931L78.506,22.543L56.752,22.543ZM56.357,101.443C53.247,101.443,50.722,98.919,50.722,95.808L50.722,56.357C50.722,53.247,53.247,50.722,56.357,50.722C59.468,50.722,61.993,53.247,61.993,56.357L61.993,95.808C61.993,98.919,59.468,101.443,56.357,101.443ZM78.9,101.443C75.79,101.443,73.265,98.919,73.265,95.808L73.265,56.357C73.265,53.247,75.79,50.722,78.9,50.722C82.017,50.722,84.536,53.247,84.536,56.357L84.536,95.808C84.536,98.919,82.017,101.443,78.9,101.443ZM78.9,101.443"/>
</g>
  <g id="Black-M" transform="matrix(1.0,0.0,0.0,1.0,2882.2544338262646,1038.55415562221)">  <path stroke-width="1px" stroke-opacity="1" stroke-dasharray="none" stroke="none" stroke-linejoin="miter" stroke-linecap="butt" clip-rule="evenodd" stroke-miterlimit="4" fill="#000000" fill-opacity="1" fill-rule="evenodd" d="M87.376,21.844C89.792,21.844,91.745,23.801,91.745,26.213C91.745,28.624,89.792,30.582,87.376,30.582L87.376,30.599L87.376,87.358C87.376,92.195,83.457,96.114,78.621,96.114L26.23,96.114C21.394,96.114,17.475,92.195,17.475,87.358L17.475,30.599C17.475,30.59,17.475,30.586,17.475,30.582C15.064,30.582,13.106,28.624,13.106,26.213C13.106,23.801,15.064,21.844,17.475,21.844L26.23,21.844L30.582,21.844L38.017,10.69C38.83,9.467,40.202,8.738,41.665,8.738L63.186,8.738C64.654,8.738,66.017,9.467,66.834,10.69L74.27,21.844L78.621,21.844L87.376,21.844ZM26.213,87.376L78.638,87.376L78.638,30.582L26.213,30.582L26.213,87.376ZM43.994,17.475L41.137,21.761L63.64,21.652L60.857,17.475L43.994,17.475ZM43.688,78.638C41.276,78.638,39.319,76.681,39.319,74.27L39.319,43.688C39.319,41.276,41.276,39.319,43.688,39.319C46.1,39.319,48.057,41.276,48.057,43.688L48.057,74.27C48.057,76.681,46.1,78.638,43.688,78.638ZM61.163,78.638C58.752,78.638,56.794,76.681,56.794,74.27L56.794,43.688C56.794,41.276,58.752,39.319,61.163,39.319C63.579,39.319,65.532,41.276,65.532,43.688L65.532,74.27C65.532,76.681,63.579,78.638,61.163,78.638ZM61.163,78.638"/>
</g>
  <g id="Heavy-M" transform="matrix(1.0,0.0,0.0,1.0,2585.5444338262646,1038.55415562221)">  <path fill-rule="evenodd" stroke-miterlimit="4" stroke-opacity="1" stroke-dasharray="none" stroke="none" fill-opacity="1" clip-rule="evenodd" stroke-linecap="butt" stroke-width="1px" stroke-linejoin="miter" fill="#000000" d="M87.376,21.844C89.792,21.844,91.745,23.801,91.745,26.213C91.745,28.624,89.792,30.582,87.376,30.582L87.376,30.599L87.376,87.358C87.376,92.195,83.457,96.114,78.621,96.114L26.23,96.114C21.394,96.114,17.475,92.195,17.475,87.358L17.475,30.599C17.475,30.59,17.475,30.586,17.475,30.582C15.064,30.582,13.106,28.624,13.106,26.213C13.106,23.801,15.064,21.844,17.475,21.844L26.23,21.844L30.582,21.844L38.017,10.69C38.83,9.467,40.202,8.738,41.665,8.738L63.186,8.738C64.654,8.738,66.017,9.467,66.834,10.69L74.27,21.844L78.621,21.844L87.376,21.844ZM26.213,87.376L78.638,87.376L78.638,30.582L26.213,30.582L26.213,87.376ZM43.994,17.475L41.137,21.761L63.64,21.652L60.857,17.475L43.994,17.475ZM43.688,78.638C41.276,78.638,39.319,76.681,39.319,74.27L39.319,43.688C39.319,41.276,41.276,39.319,43.688,39.319C46.1,39.319,48.057,41.276,48.057,43.688L48.057,74.27C48.057,76.681,46.1,78.638,43.688,78.638ZM61.163,78.638C58.752,78.638,56.794,76.681,56.794,74.27L56.794,43.688C56.794,41.276,58.752,39.319,61.163,39.319C63.579,39.319,65.532,41.276,65.532,43.688L65.532,74.27C65.532,76.681,63.579,78.638,61.163,78.638ZM61.163,78.638"/>
</g>
  <g id="Bold-M" transform="matrix(1.0,0.0,0.0,1.0,2288.8344338262646,1038.55415562221)">  <path fill-opacity="1" stroke-dasharray="none" stroke-miterlimit="4" stroke-width="1px" clip-rule="evenodd" stroke-opacity="1" stroke="none" fill="#000000" fill-rule="evenodd" stroke-linecap="butt" stroke-linejoin="miter" d="M87.376,21.844C89.792,21.844,91.745,23.801,91.745,26.213C91.745,28.624,89.792,30.582,87.376,30.582L87.376,30.599L87.376,87.358C87.376,92.195,83.457,96.114,78.621,96.114L26.23,96.114C21.394,96.114,17.475,92.195,17.475,87.358L17.475,30.599C17.475,30.59,17.475,30.586,17.475,30.582C15.064,30.582,13.106,28.624,13.106,26.213C13.106,23.801,15.064,21.844,17.475,21.844L26.23,21.844L30.582,21.844L38.017,10.69C38.83,9.467,40.202,8.738,41.665,8.738L63.186,8.738C64.654,8.738,66.017,9.467,66.834,10.69L74.27,21.844L78.621,21.844L87.376,21.844ZM26.213,87.376L78.638,87.376L78.638,30.582L26.213,30.582L26.213,87.376ZM43.994,17.475L41.137,21.761L63.64,21.652L60.857,17.475L43.994,17.475ZM43.688,78.638C41.276,78.638,39.319,76.681,39.319,74.27L39.319,43.688C39.319,41.276,41.276,39.319,43.688,39.319C46.1,39.319,48.057,41.276,48.057,43.688L48.057,74.27C48.057,76.681,46.1,78.638,43.688,78.638ZM61.163,78.638C58.752,78.638,56.794,76.681,56.794,74.27L56.794,43.688C56.794,41.276,58.752,39.319,61.163,39.319C63.579,39.319,65.532,41.276,65.532,43.688L65.532,74.27C65.532,76.681,63.579,78.638,61.163,78.638ZM61.163,78.638"/>
</g>
  <g id="Semibold-M" transform="matrix(1.0,0.0,0.0,1.0,1992.1244338262647,1038.55415562221)">  <path stroke-linejoin="miter" stroke-width="1px" stroke-linecap="butt" stroke-opacity="1" clip-rule="evenodd" stroke-miterlimit="4" fill="#000000" stroke-dasharray="none" stroke="none" fill-opacity="1" fill-rule="evenodd" d="M87.376,21.844C89.792,21.844,91.745,23.801,91.745,26.213C91.745,28.624,89.792,30.582,87.376,30.582L87.376,30.599L87.376,87.358C87.376,92.195,83.457,96.114,78.621,96.114L26.23,96.114C21.394,96.114,17.475,92.195,17.475,87.358L17.475,30.599C17.475,30.59,17.475,30.586,17.475,30.582C15.064,30.582,13.106,28.624,13.106,26.213C13.106,23.801,15.064,21.844,17.475,21.844L26.23,21.844L30.582,21.844L38.017,10.69C38.83,9.467,40.202,8.738,41.665,8.738L63.186,8.738C64.654,8.738,66.017,9.467,66.834,10.69L74.27,21.844L78.621,21.844L87.376,21.844ZM26.213,87.376L78.638,87.376L78.638,30.582L26.213,30.582L26.213,87.376ZM43.994,17.475L41.137,21.761L63.64,21.652L60.857,17.475L43.994,17.475ZM43.688,78.638C41.276,78.638,39.319,76.681,39.319,74.27L39.319,43.688C39.319,41.276,41.276,39.319,43.688,39.319C46.1,39.319,48.057,41.276,48.057,43.688L48.057,74.27C48.057,76.681,46.1,78.638,43.688,78.638ZM61.163,78.638C58.752,78.638,56.794,76.681,56.794,74.27L56.794,43.688C56.794,41.276,58.752,39.319,61.163,39.319C63.579,39.319,65.532,41.276,65.532,43.688L65.532,74.27C65.532,76.681,63.579,78.638,61.163,78.638ZM61.163,78.638"/>
</g>
  <g id="Medium-M" transform="matrix(1.0,0.0,0.0,1.0,1695.4144338262647,1038.55415562221)">  <path stroke-dasharray="none" stroke-opacity="1" fill-rule="evenodd" fill="#000000" stroke-miterlimit="4" stroke="none" stroke-width="1px" clip-rule="evenodd" fill-opacity="1" stroke-linecap="butt" stroke-linejoin="miter" d="M87.376,21.844C89.792,21.844,91.745,23.801,91.745,26.213C91.745,28.624,89.792,30.582,87.376,30.582L87.376,30.599L87.376,87.358C87.376,92.195,83.457,96.114,78.621,96.114L26.23,96.114C21.394,96.114,17.475,92.195,17.475,87.358L17.475,30.599C17.475,30.59,17.475,30.586,17.475,30.582C15.064,30.582,13.106,28.624,13.106,26.213C13.106,23.801,15.064,21.844,17.475,21.844L26.23,21.844L30.582,21.844L38.017,10.69C38.83,9.467,40.202,8.738,41.665,8.738L63.186,8.738C64.654,8.738,66.017,9.467,66.834,10.69L74.27,21.844L78.621,21.844L87.376,21.844ZM26.213,87.376L78.638,87.376L78.638,30.582L26.213,30.582L26.213,87.376ZM43.994,17.475L41.137,21.761L63.64,21.652L60.857,17.475L43.994,17.475ZM43.688,78.638C41.276,78.638,39.319,76.681,39.319,74.27L39.319,43.688C39.319,41.276,41.276,39.319,43.688,39.319C46.1,39.319,48.057,41.276,48.057,43.688L48.057,74.27C48.057,76.681,46.1,78.638,43.688,78.638ZM61.163,78.638C58.752,78.638,56.794,76.681,56.794,74.27L56.794,43.688C56.794,41.276,58.752,39.319,61.163,39.319C63.579,39.319,65.532,41.276,65.532,43.688L65.532,74.27C65.532,76.681,63.579,78.638,61.163,78.638ZM61.163,78.638"/>
</g>
  <g id="Regular-M" transform="matrix(1.0,0.0,0.0,1.0,1398.7044338262647,1038.55415562221)">  <path fill-opacity="1" stroke-dasharray="none" stroke-miterlimit="4" stroke-linejoin="miter" fill-rule="evenodd" stroke="none" fill="#000000" stroke-opacity="1" stroke-linecap="butt" clip-rule="evenodd" stroke-width="1px" d="M87.376,21.844C89.792,21.844,91.745,23.801,91.745,26.213C91.745,28.624,89.792,30.582,87.376,30.582L87.376,30.599L87.376,87.358C87.376,92.195,83.457,96.114,78.621,96.114L26.23,96.114C21.394,96.114,17.475,92.195,17.475,87.358L17.475,30.599C17.475,30.59,17.475,30.586,17.475,30.582C15.064,30.582,13.106,28.624,13.106,26.213C13.106,23.801,15.064,21.844,17.475,21.844L26.23,21.844L30.582,21.844L38.017,10.69C38.83,9.467,40.202,8.738,41.665,8.738L63.186,8.738C64.654,8.738,66.017,9.467,66.834,10.69L74.27,21.844L78.621,21.844L87.376,21.844ZM26.213,87.376L78.638,87.376L78.638,30.582L26.213,30.582L26.213,87.376ZM43.994,17.475L41.137,21.761L63.64,21.652L60.857,17.475L43.994,17.475ZM43.688,78.638C41.276,78.638,39.319,76.681,39.319,74.27L39.319,43.688C39.319,41.276,41.276,39.319,43.688,39.319C46.1,39.319,48.057,41.276,48.057,43.688L48.057,74.27C48.057,76.681,46.1,78.638,43.688,78.638ZM61.163,78.638C58.752,78.638,56.794,76.681,56.794,74.27L56.794,43.688C56.794,41.276,58.752,39.319,61.163,39.319C63.579,39.319,65.532,41.276,65.532,43.688L65.532,74.27C65.532,76.681,63.579,78.638,61.163,78.638ZM61.163,78.638"/>
</g>
  <g id="Light-M" transform="matrix(1.0,0.0,0.0,1.0,1101.9944338262649,1038.55415562221)">  <path stroke-opacity="1" stroke-linecap="butt" stroke-linejoin="miter" fill-rule="evenodd" fill-opacity="1" stroke="none" stroke-width="1px" clip-rule="evenodd" stroke-miterlimit="4" fill="#000000" stroke-dasharray="none" d="M87.376,21.844C89.792,21.844,91.745,23.801,91.745,26.213C91.745,28.624,89.792,30.582,87.376,30.582L87.376,30.599L87.376,87.358C87.376,92.195,83.457,96.114,78.621,96.114L26.23,96.114C21.394,96.114,17.475,92.195,17.475,87.358L17.475,30.599C17.475,30.59,17.475,30.586,17.475,30.582C15.064,30.582,13.106,28.624,13.106,26.213C13.106,23.801,15.064,21.844,17.475,21.844L26.23,21.844L30.582,21.844L38.017,10.69C38.83,9.467,40.202,8.738,41.665,8.738L63.186,8.738C64.654,8.738,66.017,9.467,66.834,10.69L74.27,21.844L78.621,21.844L87.376,21.844ZM26.213,87.376L78.638,87.376L78.638,30.582L26.213,30.582L26.213,87.376ZM43.994,17.475L41.137,21.761L63.64,21.652L60.857,17.475L43.994,17.475ZM43.688,78.638C41.276,78.638,39.319,76.681,39.319,74.27L39.319,43.688C39.319,41.276,41.276,39.319,43.688,39.319C46.1,39.319,48.057,41.276,48.057,43.688L48.057,74.27C48.057,76.681,46.1,78.638,43.688,78.638ZM61.163,78.638C58.752,78.638,56.794,76.681,56.794,74.27L56.794,43.688C56.794,41.276,58.752,39.319,61.163,39.319C63.579,39.319,65.532,41.276,65.532,43.688L65.532,74.27C65.532,76.681,63.579,78.638,61.163,78.638ZM61.163,78.638"/>
</g>
  <g id="Thin-M" transform="matrix(1.0,0.0,0.0,1.0,805.284433826265,1038.55415562221)">  <path stroke-dasharray="none" fill="#000000" fill-opacity="1" fill-rule="evenodd" stroke-miterlimit="4" stroke-linejoin="miter" clip-rule="evenodd" stroke="none" stroke-linecap="butt" stroke-opacity="1" stroke-width="1px" d="M87.376,21.844C89.792,21.844,91.745,23.801,91.745,26.213C91.745,28.624,89.792,30.582,87.376,30.582L87.376,30.599L87.376,87.358C87.376,92.195,83.457,96.114,78.621,96.114L26.23,96.114C21.394,96.114,17.475,92.195,17.475,87.358L17.475,30.599C17.475,30.59,17.475,30.586,17.475,30.582C15.064,30.582,13.106,28.624,13.106,26.213C13.106,23.801,15.064,21.844,17.475,21.844L26.23,21.844L30.582,21.844L38.017,10.69C38.83,9.467,40.202,8.738,41.665,8.738L63.186,8.738C64.654,8.738,66.017,9.467,66.834,10.69L74.27,21.844L78.621,21.844L87.376,21.844ZM26.213,87.376L78.638,87.376L78.638,30.582L26.213,30.582L26.213,87.376ZM43.994,17.475L41.137,21.761L63.64,21.652L60.857,17.475L43.994,17.475ZM43.688,78.638C41.276,78.638,39.319,76.681,39.319,74.27L39.319,43.688C39.319,41.276,41.276,39.319,43.688,39.319C46.1,39.319,48.057,41.276,48.057,43.688L48.057,74.27C48.057,76.681,46.1,78.638,43.688,78.638ZM61.163,78.638C58.752,78.638,56.794,76.681,56.794,74.27L56.794,43.688C56.794,41.276,58.752,39.319,61.163,39.319C63.579,39.319,65.532,41.276,65.532,43.688L65.532,74.27C65.532,76.681,63.579,78.638,61.163,78.638ZM61.163,78.638"/>
</g>
  <g id="Ultralight-M" transform="matrix(1.0,0.0,0.0,1.0,508.57443382626485,1038.55415562221)">  <path fill-opacity="1" stroke-linejoin="miter" fill-rule="evenodd" stroke-linecap="butt" stroke-opacity="1" stroke-miterlimit="4" clip-rule="evenodd" fill="#000000" stroke-width="1px" stroke="none" stroke-dasharray="none" d="M87.376,21.844C89.792,21.844,91.745,23.801,91.745,26.213C91.745,28.624,89.792,30.582,87.376,30.582L87.376,30.599L87.376,87.358C87.376,92.195,83.457,96.114,78.621,96.114L26.23,96.114C21.394,96.114,17.475,92.195,17.475,87.358L17.475,30.599C17.475,30.59,17.475,30.586,17.475,30.582C15.064,30.582,13.106,28.624,13.106,26.213C13.106,23.801,15.064,21.844,17.475,21.844L26.23,21.844L30.582,21.844L38.017,10.69C38.83,9.467,40.202,8.738,41.665,8.738L63.186,8.738C64.654,8.738,66.017,9.467,66.834,10.69L74.27,21.844L78.621,21.844L87.376,21.844ZM26.213,87.376L78.638,87.376L78.638,30.582L26.213,30.582L26.213,87.376ZM43.994,17.475L41.137,21.761L63.64,21.652L60.857,17.475L43.994,17.475ZM43.688,78.638C41.276,78.638,39.319,76.681,39.319,74.27L39.319,43.688C39.319,41.276,41.276,39.319,43.688,39.319C46.1,39.319,48.057,41.276,48.057,43.688L48.057,74.27C48.057,76.681,46.1,78.638,43.688,78.638ZM61.163,78.638C58.752,78.638,56.794,76.681,56.794,74.27L56.794,43.688C56.794,41.276,58.752,39.319,61.163,39.319C63.579,39.319,65.532,41.276,65.532,43.688L65.532,74.27C65.532,76.681,63.579,78.638,61.163,78.638ZM61.163,78.638"/>
</g>
  <g id="Black-S" transform="matrix(1.0,0.0,0.0,1.0,2893.6307816859653,619.8849980904715)">  <path stroke-width="1px" stroke-opacity="1" stroke-dasharray="none" stroke="none" stroke-linejoin="miter" stroke-linecap="butt" clip-rule="evenodd" stroke-miterlimit="4" fill="#000000" fill-opacity="1" fill-rule="evenodd" d="M68.415,17.104C70.307,17.104,71.836,18.636,71.836,20.525C71.836,22.413,70.307,23.945,68.415,23.945L68.415,23.959L68.415,68.402C68.415,72.188,65.347,75.257,61.56,75.257L20.538,75.257C16.752,75.257,13.683,72.188,13.683,68.402L13.683,23.959C13.683,23.952,13.683,23.949,13.683,23.945C11.795,23.945,10.262,22.413,10.262,20.525C10.262,18.636,11.795,17.104,13.683,17.104L20.538,17.104L23.945,17.104L29.768,8.371C30.404,7.413,31.478,6.842,32.624,6.842L49.475,6.842C50.624,6.842,51.691,7.413,52.331,8.371L58.153,17.104L61.56,17.104L68.415,17.104ZM20.525,68.415L61.574,68.415L61.574,23.945L20.525,23.945L20.525,68.415ZM34.447,13.683L32.21,17.039L49.83,16.953L47.651,13.683L34.447,13.683ZM34.208,61.574C32.319,61.574,30.787,60.041,30.787,58.153L30.787,34.208C30.787,32.319,32.319,30.787,34.208,30.787C36.096,30.787,37.628,32.319,37.628,34.208L37.628,58.153C37.628,60.041,36.096,61.574,34.208,61.574ZM47.891,61.574C46.002,61.574,44.47,60.041,44.47,58.153L44.47,34.208C44.47,32.319,46.002,30.787,47.891,30.787C49.782,30.787,51.312,32.319,51.312,34.208L51.312,58.153C51.312,60.041,49.782,61.574,47.891,61.574ZM47.891,61.574"/>
</g>
  <g id="Heavy-S" transform="matrix(1.0,0.0,0.0,1.0,2596.9207816859653,619.8849980904715)">  <path fill-rule="evenodd" stroke-miterlimit="4" stroke-opacity="1" stroke-dasharray="none" stroke="none" fill-opacity="1" clip-rule="evenodd" stroke-linecap="butt" stroke-width="1px" stroke-linejoin="miter" fill="#000000" d="M68.415,17.104C70.307,17.104,71.836,18.636,71.836,20.525C71.836,22.413,70.307,23.945,68.415,23.945L68.415,23.959L68.415,68.402C68.415,72.188,65.347,75.257,61.56,75.257L20.538,75.257C16.752,75.257,13.683,72.188,13.683,68.402L13.683,23.959C13.683,23.952,13.683,23.949,13.683,23.945C11.795,23.945,10.262,22.413,10.262,20.525C10.262,18.636,11.795,17.104,13.683,17.104L20.538,17.104L23.945,17.104L29.768,8.371C30.404,7.413,31.478,6.842,32.624,6.842L49.475,6.842C50.624,6.842,51.691,7.413,52.331,8.371L58.153,17.104L61.56,17.104L68.415,17.104ZM20.525,68.415L61.574,68.415L61.574,23.945L20.525,23.945L20.525,68.415ZM34.447,13.683L32.21,17.039L49.83,16.953L47.651,13.683L34.447,13.683ZM34.208,61.574C32.319,61.574,30.787,60.041,30.787,58.153L30.787,34.208C30.787,32.319,32.319,30.787,34.208,30.787C36.096,30.787,37.628,32.319,37.628,34.208L37.628,58.153C37.628,60.041,36.096,61.574,34.208,61.574ZM47.891,61.574C46.002,61.574,44.47,60.041,44.47,58.153L44.47,34.208C44.47,32.319,46.002,30.787,47.891,30.787C49.782,30.787,51.312,32.319,51.312,34.208L51.312,58.153C51.312,60.041,49.782,61.574,47.891,61.574ZM47.891,61.574"/>
</g>
  <g id="Bold-S" transform="matrix(1.0,0.0,0.0,1.0,2300.2107816859652,619.8849980904715)">  <path fill-opacity="1" stroke-dasharray="none" stroke-miterlimit="4" stroke-width="1px" clip-rule="evenodd" stroke-opacity="1" stroke="none" fill="#000000" fill-rule="evenodd" stroke-linecap="butt" stroke-linejoin="miter" d="M68.415,17.104C70.307,17.104,71.836,18.636,71.836,20.525C71.836,22.413,70.307,23.945,68.415,23.945L68.415,23.959L68.415,68.402C68.415,72.188,65.347,75.257,61.56,75.257L20.538,75.257C16.752,75.257,13.683,72.188,13.683,68.402L13.683,23.959C13.683,23.952,13.683,23.949,13.683,23.945C11.795,23.945,10.262,22.413,10.262,20.525C10.262,18.636,11.795,17.104,13.683,17.104L20.538,17.104L23.945,17.104L29.768,8.371C30.404,7.413,31.478,6.842,32.624,6.842L49.475,6.842C50.624,6.842,51.691,7.413,52.331,8.371L58.153,17.104L61.56,17.104L68.415,17.104ZM20.525,68.415L61.574,68.415L61.574,23.945L20.525,23.945L20.525,68.415ZM34.447,13.683L32.21,17.039L49.83,16.953L47.651,13.683L34.447,13.683ZM34.208,61.574C32.319,61.574,30.787,60.041,30.787,58.153L30.787,34.208C30.787,32.319,32.319,30.787,34.208,30.787C36.096,30.787,37.628,32.319,37.628,34.208L37.628,58.153C37.628,60.041,36.096,61.574,34.208,61.574ZM47.891,61.574C46.002,61.574,44.47,60.041,44.47,58.153L44.47,34.208C44.47,32.319,46.002,30.787,47.891,30.787C49.782,30.787,51.312,32.319,51.312,34.208L51.312,58.153C51.312,60.041,49.782,61.574,47.891,61.574ZM47.891,61.574"/>
</g>
  <g id="Semibold-S" transform="matrix(1.0,0.0,0.0,1.0,2003.5007816859654,619.8849980904715)">  <path stroke-linejoin="miter" stroke-width="1px" stroke-linecap="butt" stroke-opacity="1" clip-rule="evenodd" stroke-miterlimit="4" fill="#000000" stroke-dasharray="none" stroke="none" fill-opacity="1" fill-rule="evenodd" d="M68.415,17.104C70.307,17.104,71.836,18.636,71.836,20.525C71.836,22.413,70.307,23.945,68.415,23.945L68.415,23.959L68.415,68.402C68.415,72.188,65.347,75.257,61.56,75.257L20.538,75.257C16.752,75.257,13.683,72.188,13.683,68.402L13.683,23.959C13.683,23.952,13.683,23.949,13.683,23.945C11.795,23.945,10.262,22.413,10.262,20.525C10.262,18.636,11.795,17.104,13.683,17.104L20.538,17.104L23.945,17.104L29.768,8.371C30.404,7.413,31.478,6.842,32.624,6.842L49.475,6.842C50.624,6.842,51.691,7.413,52.331,8.371L58.153,17.104L61.56,17.104L68.415,17.104ZM20.525,68.415L61.574,68.415L61.574,23.945L20.525,23.945L20.525,68.415ZM34.447,13.683L32.21,17.039L49.83,16.953L47.651,13.683L34.447,13.683ZM34.208,61.574C32.319,61.574,30.787,60.041,30.787,58.153L30.787,34.208C30.787,32.319,32.319,30.787,34.208,30.787C36.096,30.787,37.628,32.319,37.628,34.208L37.628,58.153C37.628,60.041,36.096,61.574,34.208,61.574ZM47.891,61.574C46.002,61.574,44.47,60.041,44.47,58.153L44.47,34.208C44.47,32.319,46.002,30.787,47.891,30.787C49.782,30.787,51.312,32.319,51.312,34.208L51.312,58.153C51.312,60.041,49.782,61.574,47.891,61.574ZM47.891,61.574"/>
</g>
  <g id="Medium-S" transform="matrix(1.0,0.0,0.0,1.0,1706.7907816859654,619.8849980904715)">  <path stroke-dasharray="none" stroke-opacity="1" fill-rule="evenodd" fill="#000000" stroke-miterlimit="4" stroke="none" stroke-width="1px" clip-rule="evenodd" fill-opacity="1" stroke-linecap="butt" stroke-linejoin="miter" d="M68.415,17.104C70.307,17.104,71.836,18.636,71.836,20.525C71.836,22.413,70.307,23.945,68.415,23.945L68.415,23.959L68.415,68.402C68.415,72.188,65.347,75.257,61.56,75.257L20.538,75.257C16.752,75.257,13.683,72.188,13.683,68.402L13.683,23.959C13.683,23.952,13.683,23.949,13.683,23.945C11.795,23.945,10.262,22.413,10.262,20.525C10.262,18.636,11.795,17.104,13.683,17.104L20.538,17.104L23.945,17.104L29.768,8.371C30.404,7.413,31.478,6.842,32.624,6.842L49.475,6.842C50.624,6.842,51.691,7.413,52.331,8.371L58.153,17.104L61.56,17.104L68.415,17.104ZM20.525,68.415L61.574,68.415L61.574,23.945L20.525,23.945L20.525,68.415ZM34.447,13.683L32.21,17.039L49.83,16.953L47.651,13.683L34.447,13.683ZM34.208,61.574C32.319,61.574,30.787,60.041,30.787,58.153L30.787,34.208C30.787,32.319,32.319,30.787,34.208,30.787C36.096,30.787,37.628,32.319,37.628,34.208L37.628,58.153C37.628,60.041,36.096,61.574,34.208,61.574ZM47.891,61.574C46.002,61.574,44.47,60.041,44.47,58.153L44.47,34.208C44.47,32.319,46.002,30.787,47.891,30.787C49.782,30.787,51.312,32.319,51.312,34.208L51.312,58.153C51.312,60.041,49.782,61.574,47.891,61.574ZM47.891,61.574"/>
</g>
  <g id="Regular-S" transform="matrix(1.0,0.0,0.0,1.0,1410.0807816859653,619.8849980904715)">  <path fill-opacity="1" stroke-dasharray="none" stroke-miterlimit="4" stroke-linejoin="miter" fill-rule="evenodd" stroke="none" fill="#000000" stroke-opacity="1" stroke-linecap="butt" clip-rule="evenodd" stroke-width="1px" d="M68.415,17.104C70.307,17.104,71.836,18.636,71.836,20.525C71.836,22.413,70.307,23.945,68.415,23.945L68.415,23.959L68.415,68.402C68.415,72.188,65.347,75.257,61.56,75.257L20.538,75.257C16.752,75.257,13.683,72.188,13.683,68.402L13.683,23.959C13.683,23.952,13.683,23.949,13.683,23.945C11.795,23.945,10.262,22.413,10.262,20.525C10.262,18.636,11.795,17.104,13.683,17.104L20.538,17.104L23.945,17.104L29.768,8.371C30.404,7.413,31.478,6.842,32.624,6.842L49.475,6.842C50.624,6.842,51.691,7.413,52.331,8.371L58.153,17.104L61.56,17.104L68.415,17.104ZM20.525,68.415L61.574,68.415L61.574,23.945L20.525,23.945L20.525,68.415ZM34.447,13.683L32.21,17.039L49.83,16.953L47.651,13.683L34.447,13.683ZM34.208,61.574C32.319,61.574,30.787,60.041,30.787,58.153L30.787,34.208C30.787,32.319,32.319,30.787,34.208,30.787C36.096,30.787,37.628,32.319,37.628,34.208L37.628,58.153C37.628,60.041,36.096,61.574,34.208,61.574ZM47.891,61.574C46.002,61.574,44.47,60.041,44.47,58.153L44.47,34.208C44.47,32.319,46.002,30.787,47.891,30.787C49.782,30.787,51.312,32.319,51.312,34.208L51.312,58.153C51.312,60.041,49.782,61.574,47.891,61.574ZM47.891,61.574"/>
</g>
  <g id="Light-S" transform="matrix(1.0,0.0,0.0,1.0,1113.3707816859655,619.8849980904715)">  <path stroke-opacity="1" stroke-linecap="butt" stroke-linejoin="miter" fill-rule="evenodd" fill-opacity="1" stroke="none" stroke-width="1px" clip-rule="evenodd" stroke-miterlimit="4" fill="#000000" stroke-dasharray="none" d="M68.415,17.104C70.307,17.104,71.836,18.636,71.836,20.525C71.836,22.413,70.307,23.945,68.415,23.945L68.415,23.959L68.415,68.402C68.415,72.188,65.347,75.257,61.56,75.257L20.538,75.257C16.752,75.257,13.683,72.188,13.683,68.402L13.683,23.959C13.683,23.952,13.683,23.949,13.683,23.945C11.795,23.945,10.262,22.413,10.262,20.525C10.262,18.636,11.795,17.104,13.683,17.104L20.538,17.104L23.945,17.104L29.768,8.371C30.404,7.413,31.478,6.842,32.624,6.842L49.475,6.842C50.624,6.842,51.691,7.413,52.331,8.371L58.153,17.104L61.56,17.104L68.415,17.104ZM20.525,68.415L61.574,68.415L61.574,23.945L20.525,23.945L20.525,68.415ZM34.447,13.683L32.21,17.039L49.83,16.953L47.651,13.683L34.447,13.683ZM34.208,61.574C32.319,61.574,30.787,60.041,30.787,58.153L30.787,34.208C30.787,32.319,32.319,30.787,34.208,30.787C36.096,30.787,37.628,32.319,37.628,34.208L37.628,58.153C37.628,60.041,36.096,61.574,34.208,61.574ZM47.891,61.574C46.002,61.574,44.47,60.041,44.47,58.153L44.47,34.208C44.47,32.319,46.002,30.787,47.891,30.787C49.782,30.787,51.312,32.319,51.312,34.208L51.312,58.153C51.312,60.041,49.782,61.574,47.891,61.574ZM47.891,61.574"/>
</g>
  <g id="Thin-S" transform="matrix(1.0,0.0,0.0,1.0,816.6607816859654,619.8849980904715)">  <path stroke-dasharray="none" fill="#000000" fill-opacity="1" fill-rule="evenodd" stroke-miterlimit="4" stroke-linejoin="miter" clip-rule="evenodd" stroke="none" stroke-linecap="butt" stroke-opacity="1" stroke-width="1px" d="M68.415,17.104C70.307,17.104,71.836,18.636,71.836,20.525C71.836,22.413,70.307,23.945,68.415,23.945L68.415,23.959L68.415,68.402C68.415,72.188,65.347,75.257,61.56,75.257L20.538,75.257C16.752,75.257,13.683,72.188,13.683,68.402L13.683,23.959C13.683,23.952,13.683,23.949,13.683,23.945C11.795,23.945,10.262,22.413,10.262,20.525C10.262,18.636,11.795,17.104,13.683,17.104L20.538,17.104L23.945,17.104L29.768,8.371C30.404,7.413,31.478,6.842,32.624,6.842L49.475,6.842C50.624,6.842,51.691,7.413,52.331,8.371L58.153,17.104L61.56,17.104L68.415,17.104ZM20.525,68.415L61.574,68.415L61.574,23.945L20.525,23.945L20.525,68.415ZM34.447,13.683L32.21,17.039L49.83,16.953L47.651,13.683L34.447,13.683ZM34.208,61.574C32.319,61.574,30.787,60.041,30.787,58.153L30.787,34.208C30.787,32.319,32.319,30.787,34.208,30.787C36.096,30.787,37.628,32.319,37.628,34.208L37.628,58.153C37.628,60.041,36.096,61.574,34.208,61.574ZM47.891,61.574C46.002,61.574,44.47,60.041,44.47,58.153L44.47,34.208C44.47,32.319,46.002,30.787,47.891,30.787C49.782,30.787,51.312,32.319,51.312,34.208L51.312,58.153C51.312,60.041,49.782,61.574,47.891,61.574ZM47.891,61.574"/>
</g>
  <g id="Ultralight-S" transform="matrix(1.0,0.0,0.0,1.0,519.9507816859654,619.8849980904715)">  <path fill-opacity="1" stroke-linejoin="miter" fill-rule="evenodd" stroke-linecap="butt" stroke-opacity="1" stroke-miterlimit="4" clip-rule="evenodd" fill="#000000" stroke-width="1px" stroke="none" stroke-dasharray="none" d="M68.415,17.104C70.307,17.104,71.836,18.636,71.836,20.525C71.836,22.413,70.307,23.945,68.415,23.945L68.415,23.959L68.415,68.402C68.415,72.188,65.347,75.257,61.56,75.257L20.538,75.257C16.752,75.257,13.683,72.188,13.683,68.402L13.683,23.959C13.683,23.952,13.683,23.949,13.683,23.945C11.795,23.945,10.262,22.413,10.262,20.525C10.262,18.636,11.795,17.104,13.683,17.104L20.538,17.104L23.945,17.104L29.768,8.371C30.404,7.413,31.478,6.842,32.624,6.842L49.475,6.842C50.624,6.842,51.691,7.413,52.331,8.371L58.153,17.104L61.56,17.104L68.415,17.104ZM20.525,68.415L61.574,68.415L61.574,23.945L20.525,23.945L20.525,68.415ZM34.447,13.683L32.21,17.039L49.83,16.953L47.651,13.683L34.447,13.683ZM34.208,61.574C32.319,61.574,30.787,60.041,30.787,58.153L30.787,34.208C30.787,32.319,32.319,30.787,34.208,30.787C36.096,30.787,37.628,32.319,37.628,34.208L37.628,58.153C37.628,60.041,36.096,61.574,34.208,61.574ZM47.891,61.574C46.002,61.574,44.47,60.041,44.47,58.153L44.47,34.208C44.47,32.319,46.002,30.787,47.891,30.787C49.782,30.787,51.312,32.319,51.312,34.208L51.312,58.153C51.312,60.041,49.782,61.574,47.891,61.574ZM47.891,61.574"/>
</g>
 </g>
</svg>
