<?xml version="1.0" encoding="UTF-8"?>
<!-- Generator: CustomSymbols v2.6.1.40 by @serious_bret https://bretlester.com/app_content/CustomSymbols/ -->
<!-- Guides: Left/Right 0.078/0.082 Cap/Base 0.175/0.177 -->
<!-- Settings: RefScale 1.0 Min/Max Stroke Scales 0.5/2.21 -->
<!DOCTYPE svg
PUBLIC "-//W3C//DTD SVG 1.1//EN"
       "http://www.w3.org/Graphics/SVG/1.1/DTD/svg11.dtd">
<svg version="1.1" xmlns="http://www.w3.org/2000/svg" xmlns:xlink="http://www.w3.org/1999/xlink" width="3300" height="2200">
<![CDATA[<svg width="24" height="24" viewBox="0 0 24 24" fill="none" xmlns="http://www.w3.org/2000/svg">
<path fill-rule="evenodd" clip-rule="evenodd" d="M2.00033 12.0667C1.95589 6.55556 6.4224 2.04444 12 2C17.4887 2 21.9552 6.46667 21.9997 11.9333C22.0219 14.6 20.9775 17.1111 19.1109 19.0222C17.2443 20.9333 14.7332 21.9778 12.0667 22H12C6.51129 22 2.04477 17.5333 2.00033 12.0667ZM16.4998 12.4236H18.5094C18.8589 12.4236 19.1429 12.1018 19.1429 11.734C19.1429 11.3662 18.8589 11.0673 18.5094 11.0673H16.9367L15.4513 6.7225C15.3639 6.44663 15.1236 6.28571 14.8397 6.28571C14.5775 6.28571 14.3373 6.46962 14.2499 6.74548L12.1311 13.757L10.0122 8.7225C9.92486 8.49261 9.72827 8.35468 9.48799 8.33169C9.24771 8.3087 9.02927 8.42365 8.89821 8.63054L7.34731 11.0903H5.49061C5.14111 11.0903 4.85714 11.3892 4.85714 11.757C4.85714 12.1248 5.14111 12.4236 5.49061 12.4236H7.69681C7.91525 12.4236 8.11184 12.3087 8.22106 12.1248L9.33508 10.3777L11.6723 15.8949C11.7597 16.1248 12 16.2857 12.2403 16.2857H12.284C12.5461 16.2857 12.7645 16.1018 12.8519 15.8259L14.8834 9.04433L15.91 11.9869C15.9974 12.2397 16.2377 12.4236 16.4998 12.4236Z" fill="black"/>
</svg>
]]>
 <g id="Notes">
  <rect height="2200" id="artboard" style="fill:white;opacity:1" width="3300" x="0" y="0"/>
  <line id="" style="fill:none;stroke:black;opacity:1;stroke-width:0.5;" x1="263" x2="3036" y1="292" y2="292"/>
  <text id="reftext1" style="stroke:none;fill:black;font-family:-apple-system,&quot;SF Pro Display&quot;,&quot;SF Pro Text&quot;,Helvetica,sans-serif;font-weight:bold;" transform="matrix(1 0 0 1 263 322)">Weight/Scale Variations</text>
  <text id="reftext2" style="stroke:none;fill:black;font-family:-apple-system,&quot;SF Pro Display&quot;,&quot;SF Pro Text&quot;,Helvetica,sans-serif;text-anchor:middle;" transform="matrix(1 0 0 1 559.711 322)">Ultralight</text>
  <text style="stroke:none;fill:black;font-family:-apple-system,&quot;SF Pro Display&quot;,&quot;SF Pro Text&quot;,Helvetica,sans-serif;text-anchor:middle;" transform="matrix(1 0 0 1 856.422 322)">Thin</text>
  <text style="stroke:none;fill:black;font-family:-apple-system,&quot;SF Pro Display&quot;,&quot;SF Pro Text&quot;,Helvetica,sans-serif;text-anchor:middle;" transform="matrix(1 0 0 1 1153.13 322)">Light</text>
  <text style="stroke:none;fill:black;font-family:-apple-system,&quot;SF Pro Display&quot;,&quot;SF Pro Text&quot;,Helvetica,sans-serif;text-anchor:middle;" transform="matrix(1 0 0 1 1449.84 322)">Regular</text>
  <text style="stroke:none;fill:black;font-family:-apple-system,&quot;SF Pro Display&quot;,&quot;SF Pro Text&quot;,Helvetica,sans-serif;text-anchor:middle;" transform="matrix(1 0 0 1 1746.56 322)">Medium</text>
  <text style="stroke:none;fill:black;font-family:-apple-system,&quot;SF Pro Display&quot;,&quot;SF Pro Text&quot;,Helvetica,sans-serif;text-anchor:middle;" transform="matrix(1 0 0 1 2043.27 322)">Semibold</text>
  <text style="stroke:none;fill:black;font-family:-apple-system,&quot;SF Pro Display&quot;,&quot;SF Pro Text&quot;,Helvetica,sans-serif;text-anchor:middle;" transform="matrix(1 0 0 1 2339.98 322)">Bold</text>
  <text style="stroke:none;fill:black;font-family:-apple-system,&quot;SF Pro Display&quot;,&quot;SF Pro Text&quot;,Helvetica,sans-serif;text-anchor:middle;" transform="matrix(1 0 0 1 2636.69 322)">Heavy</text>
  <text style="stroke:none;fill:black;font-family:-apple-system,&quot;SF Pro Display&quot;,&quot;SF Pro Text&quot;,Helvetica,sans-serif;text-anchor:middle;" transform="matrix(1 0 0 1 2933.4 322)">Black</text>
  <line id="" style="fill:none;stroke:black;opacity:1;stroke-width:0.5;" x1="263" x2="3036" y1="1903" y2="1903"/>
  <g id="" transform="matrix(1 0 0 1 263 1933)">
   <path d="M9.24805 0.830078C13.5547 0.830078 17.1387-2.74414 17.1387-7.05078C17.1387-11.3574 13.5449-14.9316 9.23828-14.9316C4.94141-14.9316 1.36719-11.3574 1.36719-7.05078C1.36719-2.74414 4.95117 0.830078 9.24805 0.830078ZM9.24805-0.654297C5.70312-0.654297 2.87109-3.49609 2.87109-7.05078C2.87109-10.6055 5.69336-13.4473 9.23828-13.4473C12.793-13.4473 15.6348-10.6055 15.6445-7.05078C15.6543-3.49609 12.8027-0.654297 9.24805-0.654297ZM6.39648-6.31836L8.50586-6.31836L8.50586-4.19922C8.50586-3.75977 8.79883-3.45703 9.22852-3.45703C9.67773-3.45703 9.9707-3.75977 9.9707-4.19922L9.9707-6.31836L12.0996-6.31836C12.5391-6.31836 12.8418-6.61133 12.8418-7.04102C12.8418-7.48047 12.5391-7.7832 12.0996-7.7832L9.9707-7.7832L9.9707-9.89258C9.9707-10.3418 9.67773-10.6445 9.22852-10.6445C8.79883-10.6445 8.50586-10.3418 8.50586-9.89258L8.50586-7.7832L6.39648-7.7832C5.94727-7.7832 5.64453-7.48047 5.64453-7.04102C5.64453-6.61133 5.94727-6.31836 6.39648-6.31836Z"/>
  </g>
  <g id="" transform="matrix(1 0 0 1 281.506 1933)">
   <path d="M11.709 2.91016C17.1582 2.91016 21.6699-1.61133 21.6699-7.05078C21.6699-12.5 17.1484-17.0117 11.6992-17.0117C6.25977-17.0117 1.74805-12.5 1.74805-7.05078C1.74805-1.61133 6.26953 2.91016 11.709 2.91016ZM11.709 1.25C7.09961 1.25 3.41797-2.44141 3.41797-7.05078C3.41797-11.6602 7.08984-15.3516 11.6992-15.3516C16.3086-15.3516 20-11.6602 20.0098-7.05078C20.0195-2.44141 16.3184 1.25 11.709 1.25ZM7.98828-6.23047L10.8789-6.23047L10.8789-3.32031C10.8789-2.83203 11.2109-2.5 11.6895-2.5C12.1777-2.5 12.5195-2.83203 12.5195-3.32031L12.5195-6.23047L15.4297-6.23047C15.918-6.23047 16.25-6.5625 16.25-7.04102C16.25-7.5293 15.918-7.87109 15.4297-7.87109L12.5195-7.87109L12.5195-10.7617C12.5195-11.2695 12.1777-11.6016 11.6895-11.6016C11.2109-11.6016 10.8789-11.2598 10.8789-10.7617L10.8789-7.87109L7.98828-7.87109C7.48047-7.87109 7.14844-7.5293 7.14844-7.04102C7.14844-6.5625 7.49023-6.23047 7.98828-6.23047Z"/>
  </g>
  <g id="" transform="matrix(1 0 0 1 304.924 1933)">
   <path d="M14.9707 5.66406C21.9336 5.66406 27.6953-0.0976562 27.6953-7.05078C27.6953-14.0137 21.9238-19.7754 14.9609-19.7754C8.00781-19.7754 2.25586-14.0137 2.25586-7.05078C2.25586-0.0976562 8.01758 5.66406 14.9707 5.66406ZM14.9707 3.84766C8.93555 3.84766 4.08203-1.01562 4.08203-7.05078C4.08203-13.0957 8.92578-17.9492 14.9609-17.9492C21.0059-17.9492 25.8594-13.0957 25.8691-7.05078C25.8789-1.01562 21.0156 3.84766 14.9707 3.84766ZM10.0586-6.14258L14.0625-6.14258L14.0625-2.12891C14.0625-1.5918 14.4336-1.2207 14.9512-1.2207C15.4883-1.2207 15.8594-1.5918 15.8594-2.12891L15.8594-6.14258L19.8828-6.14258C20.4102-6.14258 20.791-6.51367 20.791-7.03125C20.791-7.56836 20.4199-7.94922 19.8828-7.94922L15.8594-7.94922L15.8594-11.9531C15.8594-12.5098 15.4883-12.8809 14.9512-12.8809C14.4336-12.8809 14.0625-12.5 14.0625-11.9531L14.0625-7.94922L10.0586-7.94922C9.50195-7.94922 9.13086-7.56836 9.13086-7.03125C9.13086-6.51367 9.51172-6.14258 10.0586-6.14258Z"/>
  </g>
  <text style="stroke:none;fill:black;font-family:-apple-system,&quot;SF Pro Display&quot;,&quot;SF Pro Text&quot;,Helvetica,sans-serif;font-weight:bold;" transform="matrix(1 0 0 1 263 1953)">Design Variations</text>
  <text style="stroke:none;fill:black;font-family:-apple-system,&quot;SF Pro Display&quot;,&quot;SF Pro Text&quot;,Helvetica,sans-serif;" transform="matrix(1 0 0 1 263 1971)">Symbols are supported in up to nine weights and three scales.</text>
  <text style="stroke:none;fill:black;font-family:-apple-system,&quot;SF Pro Display&quot;,&quot;SF Pro Text&quot;,Helvetica,sans-serif;" transform="matrix(1 0 0 1 263 1989)">For optimal layout with text and other symbols, vertically align</text>
  <text style="stroke:none;fill:black;font-family:-apple-system,&quot;SF Pro Display&quot;,&quot;SF Pro Text&quot;,Helvetica,sans-serif;" transform="matrix(1 0 0 1 263 2007)">symbols with the adjacent text.</text>
  <line id="" style="fill:none;stroke:#00AEEF;stroke-width:0.5;opacity:1.0;" x1="776" x2="776" y1="1919" y2="1933"/>
  <g id="" transform="matrix(1 0 0 1 776 1933)">
   <path d="M3.31055 0.126953C3.82812 0.126953 4.08203-0.0683594 4.26758-0.605469L5.52734-4.0625L11.2891-4.0625L12.5488-0.605469C12.7344-0.0683594 12.9883 0.126953 13.4961 0.126953C14.0137 0.126953 14.3457-0.185547 14.3457-0.673828C14.3457-0.839844 14.3164-0.986328 14.2383-1.20117L9.6582-13.3887C9.43359-13.9941 9.0332-14.2871 8.4082-14.2871C7.80273-14.2871 7.39258-13.9941 7.17773-13.3984L2.59766-1.19141C2.51953-0.976562 2.49023-0.830078 2.49023-0.664062C2.49023-0.175781 2.80273 0.126953 3.31055 0.126953ZM6.00586-5.53711L8.37891-12.1094L8.42773-12.1094L10.8008-5.53711Z"/>
  </g>
  <line id="" style="fill:none;stroke:#00AEEF;stroke-width:0.5;opacity:1.0;" x1="792.836" x2="792.836" y1="1919" y2="1933"/>
  <text style="stroke:none;fill:black;font-family:-apple-system,&quot;SF Pro Display&quot;,&quot;SF Pro Text&quot;,Helvetica,sans-serif;font-weight:bold;" transform="matrix(1 0 0 1 776 1953)">Margins</text>
  <text style="stroke:none;fill:black;font-family:-apple-system,&quot;SF Pro Display&quot;,&quot;SF Pro Text&quot;,Helvetica,sans-serif;" transform="matrix(1 0 0 1 776 1971)">Leading and trailing margins on the left and right side of each symbol</text>
  <text style="stroke:none;fill:black;font-family:-apple-system,&quot;SF Pro Display&quot;,&quot;SF Pro Text&quot;,Helvetica,sans-serif;" transform="matrix(1 0 0 1 776 1989)">can be adjusted by modifying the x-location of the margin guidelines.</text>
  <text style="stroke:none;fill:black;font-family:-apple-system,&quot;SF Pro Display&quot;,&quot;SF Pro Text&quot;,Helvetica,sans-serif;" transform="matrix(1 0 0 1 776 2007)">Modifications are automatically applied proportionally to all</text>
  <text style="stroke:none;fill:black;font-family:-apple-system,&quot;SF Pro Display&quot;,&quot;SF Pro Text&quot;,Helvetica,sans-serif;" transform="matrix(1 0 0 1 776 2025)">scales and weights.</text>
  <g id="" transform="matrix(1 0 0 1 1289 1933)">
   <path d="M2.8418 1.86523L4.54102 3.57422C5.40039 4.44336 6.38672 4.38477 7.31445 3.35938L17.4902-7.85156C17.7539-7.76367 18.0273-7.7832 18.3398-7.8418L19.4043-8.03711L20.0684-7.36328L20.0293-6.80664C19.9902-6.30859 20.1172-5.92773 20.6055-5.44922L21.3672-4.70703C21.8457-4.22852 22.4609-4.19922 22.9297-4.66797L25.8398-7.58789C26.3086-8.05664 26.2891-8.65234 25.8105-9.13086L25.0391-9.89258C24.5605-10.3711 24.1895-10.5273 23.7109-10.4883L23.1348-10.4395L22.4902-11.0742L22.7344-12.1973C22.8613-12.7637 22.7051-13.2031 22.1191-13.7891L19.9219-15.9766C16.582-19.2969 12.1484-19.2188 9.25781-16.3281C8.83789-15.918 8.80859-15.3418 9.04297-14.9512C9.27734-14.5898 9.73633-14.3555 10.3809-14.5215C11.8457-14.8633 13.3691-14.9219 14.7949-13.9844L14.209-12.5293C14.0137-12.0508 13.9844-11.6504 14.1113-11.2891L3.04688-0.898438C2.06055 0.0195312 1.98242 0.996094 2.8418 1.86523ZM10.752-15.957C13.1836-17.7344 16.4746-17.4316 18.7012-15.2051L21.1328-12.793C21.3672-12.5586 21.4062-12.373 21.3379-12.0312L21.0156-10.5469L22.5195-9.0625L23.5059-9.12109C23.7598-9.13086 23.8379-9.11133 24.0332-8.91602L24.6094-8.33984L22.168-5.89844L21.5918-6.47461C21.3965-6.66992 21.3672-6.74805 21.377-7.01172L21.4453-7.98828L19.9512-9.47266L18.4277-9.21875C18.1055-9.15039 17.959-9.17969 17.7148-9.41406L15.7129-11.416C15.459-11.6504 15.4297-11.8164 15.5859-12.1875L16.4648-14.2773C14.9023-15.7324 12.8711-16.3574 10.8398-15.7617C10.6836-15.7227 10.625-15.8496 10.752-15.957ZM5.27344 2.30469L4.10156 1.14258C3.63281 0.683594 3.74023 0.341797 4.14062-0.0195312L14.9512-10.1953L16.416-8.71094L6.42578 2.27539C6.07422 2.67578 5.74219 2.77344 5.27344 2.30469Z"/>
  </g>
  <text style="stroke:none;fill:black;font-family:-apple-system,&quot;SF Pro Display&quot;,&quot;SF Pro Text&quot;,Helvetica,sans-serif;font-weight:bold;" transform="matrix(1 0 0 1 1289 1953)">Exporting</text>
  <text style="stroke:none;fill:black;font-family:-apple-system,&quot;SF Pro Display&quot;,&quot;SF Pro Text&quot;,Helvetica,sans-serif;" transform="matrix(1 0 0 1 1289 1971)">Symbols should be outlined when exporting to ensure the</text>
  <text style="stroke:none;fill:black;font-family:-apple-system,&quot;SF Pro Display&quot;,&quot;SF Pro Text&quot;,Helvetica,sans-serif;" transform="matrix(1 0 0 1 1289 1989)">design is preserved when submitting to Xcode.</text>
  <text id="template-version" style="stroke:none;fill:black;font-family:-apple-system,&quot;SF Pro Display&quot;,&quot;SF Pro Text&quot;,Helvetica,sans-serif;text-anchor:end;" transform="matrix(1 0 0 1 3036 1933)">Template v.2.0</text>
  <text style="stroke:none;fill:black;font-family:-apple-system,&quot;SF Pro Display&quot;,&quot;SF Pro Text&quot;,Helvetica,sans-serif;text-anchor:end;" transform="matrix(1 0 0 1 3036 1951)">Requires Xcode 12 or greater</text>
  <text style="stroke:none;fill:black;font-family:-apple-system,&quot;SF Pro Display&quot;,&quot;SF Pro Text&quot;,Helvetica,sans-serif;" transform="matrix(1 0 0 1 263 726)">Small</text>
  <text style="stroke:none;fill:black;font-family:-apple-system,&quot;SF Pro Display&quot;,&quot;SF Pro Text&quot;,Helvetica,sans-serif;" transform="matrix(1 0 0 1 263 1156)">Medium</text>
  <text style="stroke:none;fill:black;font-family:-apple-system,&quot;SF Pro Display&quot;,&quot;SF Pro Text&quot;,Helvetica,sans-serif;" transform="matrix(1 0 0 1 263 1586)">Large</text>
 </g>
 <g id="Guides">
  <g id="H-reference" style="fill:#27AAE1;stroke:none;" transform="matrix(1 0 0 1 339 696)">
   <path d="M0.976562 0L3.66211 0L12.9883-24.4629L45.752-24.4629L55.127 0L57.7637 0L30.6152-70.459L28.125-70.459ZM29.3457-67.1387L29.4434-67.1387L44.873-26.709L13.8672-26.709Z"/>
  </g>
  <line id="Baseline-S" style="fill:none;stroke:#27AAE1;opacity:1;stroke-width:0.5;" x1="263" x2="3036" y1="696" y2="696"/>
  <line id="Capline-S" style="fill:none;stroke:#27AAE1;opacity:1;stroke-width:0.5;" x1="263" x2="3036" y1="625.541" y2="625.541"/>
  <g id="H-reference" style="fill:#27AAE1;stroke:none;" transform="matrix(1 0 0 1 339 1126)">
   <path d="M0.976562 0L3.66211 0L12.9883-24.4629L45.752-24.4629L55.127 0L57.7637 0L30.6152-70.459L28.125-70.459ZM29.3457-67.1387L29.4434-67.1387L44.873-26.709L13.8672-26.709Z"/>
  </g>
  <line id="Baseline-M" style="fill:none;stroke:#27AAE1;opacity:1;stroke-width:0.5;" x1="263" x2="3036" y1="1126" y2="1126"/>
  <line id="Capline-M" style="fill:none;stroke:#27AAE1;opacity:1;stroke-width:0.5;" x1="263" x2="3036" y1="1055.54" y2="1055.54"/>
  <g id="H-reference" style="fill:#27AAE1;stroke:none;" transform="matrix(1 0 0 1 339 1556)">
   <path d="M0.976562 0L3.66211 0L12.9883-24.4629L45.752-24.4629L55.127 0L57.7637 0L30.6152-70.459L28.125-70.459ZM29.3457-67.1387L29.4434-67.1387L44.873-26.709L13.8672-26.709Z"/>
  </g>
  <line id="Baseline-L" style="fill:none;stroke:#27AAE1;opacity:1;stroke-width:0.5;" x1="263" x2="3036" y1="1556" y2="1556"/>
  <line id="Capline-L" style="fill:none;stroke:#27AAE1;opacity:1;stroke-width:0.5;" x1="263" x2="3036" y1="1485.54" y2="1485.54"/>
  <line id="left-margin" x1="1405.2440377845292" x2="1405.2440377845292" y1="1030.79" y2="1150.12" style="fill:none;stroke:#00AEEF;stroke-width:0.5;opacity:1.0;"/>
  <line id="right-margin" x1="1496.5810241849922" x2="1496.5810241849922" y1="1030.79" y2="1150.12" style="fill:none;stroke:#00AEEF;stroke-width:0.5;opacity:1.0;"/>
 </g>
 <g id="Symbols">
  <g id="Black-L" transform="matrix(1.0,0.0,0.0,1.0,2864.5462425853584,1450.776529631438)">  <path stroke="none" stroke-dasharray="none" fill-rule="evenodd" stroke-linecap="butt" stroke-width="1px" stroke-miterlimit="4" stroke-opacity="1" stroke-linejoin="miter" clip-rule="evenodd" fill="#000000" fill-opacity="1" d="M11.691,70.524C11.431,38.314,37.536,11.949,70.134,11.689C102.212,11.689,128.317,37.794,128.577,69.744C128.707,85.329,122.603,100.005,111.693,111.175C100.784,122.344,86.108,128.449,70.524,128.579L70.134,128.579C38.055,128.579,11.951,102.473,11.691,70.524ZM96.433,72.609L108.178,72.609C110.22,72.609,111.88,70.729,111.88,68.579C111.88,66.43,110.22,64.683,108.178,64.683L98.986,64.683L90.305,39.29C89.794,37.677,88.39,36.737,86.73,36.737C85.198,36.737,83.794,37.812,83.283,39.424L70.9,80.403L58.516,50.978C58.006,49.635,56.857,48.829,55.452,48.694C54.048,48.56,52.771,49.232,52.005,50.441L42.941,64.817L32.09,64.817C30.047,64.817,28.387,66.564,28.387,68.714C28.387,70.863,30.047,72.609,32.09,72.609L44.984,72.609C46.261,72.609,47.409,71.938,48.048,70.863L54.559,60.652L68.219,92.897C68.729,94.241,70.134,95.181,71.538,95.181L71.794,95.181C73.325,95.181,74.602,94.107,75.113,92.494L86.986,52.859L92.986,70.057C93.496,71.535,94.901,72.609,96.433,72.609ZM96.433,72.609"/>
</g>
  <g id="Heavy-L" transform="matrix(1.0,0.0,0.0,1.0,2567.8362425853584,1450.776529631438)">  <path fill="#000000" stroke-width="1px" stroke="none" stroke-linejoin="miter" stroke-dasharray="none" stroke-opacity="1" fill-rule="evenodd" stroke-miterlimit="4" stroke-linecap="butt" fill-opacity="1" clip-rule="evenodd" d="M11.691,70.524C11.431,38.314,37.536,11.949,70.134,11.689C102.212,11.689,128.317,37.794,128.577,69.744C128.707,85.329,122.603,100.005,111.693,111.175C100.784,122.344,86.108,128.449,70.524,128.579L70.134,128.579C38.055,128.579,11.951,102.473,11.691,70.524ZM96.433,72.609L108.178,72.609C110.22,72.609,111.88,70.729,111.88,68.579C111.88,66.43,110.22,64.683,108.178,64.683L98.986,64.683L90.305,39.29C89.794,37.677,88.39,36.737,86.73,36.737C85.198,36.737,83.794,37.812,83.283,39.424L70.9,80.403L58.516,50.978C58.006,49.635,56.857,48.829,55.452,48.694C54.048,48.56,52.771,49.232,52.005,50.441L42.941,64.817L32.09,64.817C30.047,64.817,28.387,66.564,28.387,68.714C28.387,70.863,30.047,72.609,32.09,72.609L44.984,72.609C46.261,72.609,47.409,71.938,48.048,70.863L54.559,60.652L68.219,92.897C68.729,94.241,70.134,95.181,71.538,95.181L71.794,95.181C73.325,95.181,74.602,94.107,75.113,92.494L86.986,52.859L92.986,70.057C93.496,71.535,94.901,72.609,96.433,72.609ZM96.433,72.609"/>
</g>
  <g id="Bold-L" transform="matrix(1.0,0.0,0.0,1.0,2271.1262425853583,1450.776529631438)">  <path stroke="none" stroke-miterlimit="4" stroke-opacity="1" stroke-linejoin="miter" fill="#000000" stroke-linecap="butt" stroke-width="1px" fill-rule="evenodd" clip-rule="evenodd" stroke-dasharray="none" fill-opacity="1" d="M11.691,70.524C11.431,38.314,37.536,11.949,70.134,11.689C102.212,11.689,128.317,37.794,128.577,69.744C128.707,85.329,122.603,100.005,111.693,111.175C100.784,122.344,86.108,128.449,70.524,128.579L70.134,128.579C38.055,128.579,11.951,102.473,11.691,70.524ZM96.433,72.609L108.178,72.609C110.22,72.609,111.88,70.729,111.88,68.579C111.88,66.43,110.22,64.683,108.178,64.683L98.986,64.683L90.305,39.29C89.794,37.677,88.39,36.737,86.73,36.737C85.198,36.737,83.794,37.812,83.283,39.424L70.9,80.403L58.516,50.978C58.006,49.635,56.857,48.829,55.452,48.694C54.048,48.56,52.771,49.232,52.005,50.441L42.941,64.817L32.09,64.817C30.047,64.817,28.387,66.564,28.387,68.714C28.387,70.863,30.047,72.609,32.09,72.609L44.984,72.609C46.261,72.609,47.409,71.938,48.048,70.863L54.559,60.652L68.219,92.897C68.729,94.241,70.134,95.181,71.538,95.181L71.794,95.181C73.325,95.181,74.602,94.107,75.113,92.494L86.986,52.859L92.986,70.057C93.496,71.535,94.901,72.609,96.433,72.609ZM96.433,72.609"/>
</g>
  <g id="Semibold-L" transform="matrix(1.0,0.0,0.0,1.0,1974.4162425853588,1450.776529631438)">  <path fill-opacity="1" stroke="none" stroke-miterlimit="4" stroke-linejoin="miter" stroke-width="1px" fill-rule="evenodd" clip-rule="evenodd" stroke-opacity="1" stroke-linecap="butt" stroke-dasharray="none" fill="#000000" d="M11.691,70.524C11.431,38.314,37.536,11.949,70.134,11.689C102.212,11.689,128.317,37.794,128.577,69.744C128.707,85.329,122.603,100.005,111.693,111.175C100.784,122.344,86.108,128.449,70.524,128.579L70.134,128.579C38.055,128.579,11.951,102.473,11.691,70.524ZM96.433,72.609L108.178,72.609C110.22,72.609,111.88,70.729,111.88,68.579C111.88,66.43,110.22,64.683,108.178,64.683L98.986,64.683L90.305,39.29C89.794,37.677,88.39,36.737,86.73,36.737C85.198,36.737,83.794,37.812,83.283,39.424L70.9,80.403L58.516,50.978C58.006,49.635,56.857,48.829,55.452,48.694C54.048,48.56,52.771,49.232,52.005,50.441L42.941,64.817L32.09,64.817C30.047,64.817,28.387,66.564,28.387,68.714C28.387,70.863,30.047,72.609,32.09,72.609L44.984,72.609C46.261,72.609,47.409,71.938,48.048,70.863L54.559,60.652L68.219,92.897C68.729,94.241,70.134,95.181,71.538,95.181L71.794,95.181C73.325,95.181,74.602,94.107,75.113,92.494L86.986,52.859L92.986,70.057C93.496,71.535,94.901,72.609,96.433,72.609ZM96.433,72.609"/>
</g>
  <g id="Medium-L" transform="matrix(1.0,0.0,0.0,1.0,1677.7062425853587,1450.776529631438)">  <path fill="#000000" fill-opacity="1" stroke="none" clip-rule="evenodd" stroke-dasharray="none" fill-rule="evenodd" stroke-width="1px" stroke-linecap="butt" stroke-linejoin="miter" stroke-opacity="1" stroke-miterlimit="4" d="M11.691,70.524C11.431,38.314,37.536,11.949,70.134,11.689C102.212,11.689,128.317,37.794,128.577,69.744C128.707,85.329,122.603,100.005,111.693,111.175C100.784,122.344,86.108,128.449,70.524,128.579L70.134,128.579C38.055,128.579,11.951,102.473,11.691,70.524ZM96.433,72.609L108.178,72.609C110.22,72.609,111.88,70.729,111.88,68.579C111.88,66.43,110.22,64.683,108.178,64.683L98.986,64.683L90.305,39.29C89.794,37.677,88.39,36.737,86.73,36.737C85.198,36.737,83.794,37.812,83.283,39.424L70.9,80.403L58.516,50.978C58.006,49.635,56.857,48.829,55.452,48.694C54.048,48.56,52.771,49.232,52.005,50.441L42.941,64.817L32.09,64.817C30.047,64.817,28.387,66.564,28.387,68.714C28.387,70.863,30.047,72.609,32.09,72.609L44.984,72.609C46.261,72.609,47.409,71.938,48.048,70.863L54.559,60.652L68.219,92.897C68.729,94.241,70.134,95.181,71.538,95.181L71.794,95.181C73.325,95.181,74.602,94.107,75.113,92.494L86.986,52.859L92.986,70.057C93.496,71.535,94.901,72.609,96.433,72.609ZM96.433,72.609"/>
</g>
  <g id="Regular-L" transform="matrix(1.0,0.0,0.0,1.0,1380.9962425853587,1450.776529631438)">  <path stroke-linejoin="miter" stroke-miterlimit="4" stroke="none" clip-rule="evenodd" fill-opacity="1" stroke-opacity="1" stroke-dasharray="none" fill-rule="evenodd" stroke-width="1px" fill="#000000" stroke-linecap="butt" d="M11.691,70.524C11.431,38.314,37.536,11.949,70.134,11.689C102.212,11.689,128.317,37.794,128.577,69.744C128.707,85.329,122.603,100.005,111.693,111.175C100.784,122.344,86.108,128.449,70.524,128.579L70.134,128.579C38.055,128.579,11.951,102.473,11.691,70.524ZM96.433,72.609L108.178,72.609C110.22,72.609,111.88,70.729,111.88,68.579C111.88,66.43,110.22,64.683,108.178,64.683L98.986,64.683L90.305,39.29C89.794,37.677,88.39,36.737,86.73,36.737C85.198,36.737,83.794,37.812,83.283,39.424L70.9,80.403L58.516,50.978C58.006,49.635,56.857,48.829,55.452,48.694C54.048,48.56,52.771,49.232,52.005,50.441L42.941,64.817L32.09,64.817C30.047,64.817,28.387,66.564,28.387,68.714C28.387,70.863,30.047,72.609,32.09,72.609L44.984,72.609C46.261,72.609,47.409,71.938,48.048,70.863L54.559,60.652L68.219,92.897C68.729,94.241,70.134,95.181,71.538,95.181L71.794,95.181C73.325,95.181,74.602,94.107,75.113,92.494L86.986,52.859L92.986,70.057C93.496,71.535,94.901,72.609,96.433,72.609ZM96.433,72.609"/>
</g>
  <g id="Light-L" transform="matrix(1.0,0.0,0.0,1.0,1084.2862425853589,1450.776529631438)">  <path clip-rule="evenodd" stroke-linejoin="miter" stroke-linecap="butt" fill="#000000" stroke-dasharray="none" stroke-miterlimit="4" stroke-width="1px" fill-opacity="1" stroke-opacity="1" fill-rule="evenodd" stroke="none" d="M11.691,70.524C11.431,38.314,37.536,11.949,70.134,11.689C102.212,11.689,128.317,37.794,128.577,69.744C128.707,85.329,122.603,100.005,111.693,111.175C100.784,122.344,86.108,128.449,70.524,128.579L70.134,128.579C38.055,128.579,11.951,102.473,11.691,70.524ZM96.433,72.609L108.178,72.609C110.22,72.609,111.88,70.729,111.88,68.579C111.88,66.43,110.22,64.683,108.178,64.683L98.986,64.683L90.305,39.29C89.794,37.677,88.39,36.737,86.73,36.737C85.198,36.737,83.794,37.812,83.283,39.424L70.9,80.403L58.516,50.978C58.006,49.635,56.857,48.829,55.452,48.694C54.048,48.56,52.771,49.232,52.005,50.441L42.941,64.817L32.09,64.817C30.047,64.817,28.387,66.564,28.387,68.714C28.387,70.863,30.047,72.609,32.09,72.609L44.984,72.609C46.261,72.609,47.409,71.938,48.048,70.863L54.559,60.652L68.219,92.897C68.729,94.241,70.134,95.181,71.538,95.181L71.794,95.181C73.325,95.181,74.602,94.107,75.113,92.494L86.986,52.859L92.986,70.057C93.496,71.535,94.901,72.609,96.433,72.609ZM96.433,72.609"/>
</g>
  <g id="Thin-L" transform="matrix(1.0,0.0,0.0,1.0,787.5762425853588,1450.776529631438)">  <path clip-rule="evenodd" stroke="none" fill="#000000" stroke-miterlimit="4" stroke-linejoin="miter" stroke-opacity="1" stroke-width="1px" stroke-linecap="butt" stroke-dasharray="none" fill-rule="evenodd" fill-opacity="1" d="M11.691,70.524C11.431,38.314,37.536,11.949,70.134,11.689C102.212,11.689,128.317,37.794,128.577,69.744C128.707,85.329,122.603,100.005,111.693,111.175C100.784,122.344,86.108,128.449,70.524,128.579L70.134,128.579C38.055,128.579,11.951,102.473,11.691,70.524ZM96.433,72.609L108.178,72.609C110.22,72.609,111.88,70.729,111.88,68.579C111.88,66.43,110.22,64.683,108.178,64.683L98.986,64.683L90.305,39.29C89.794,37.677,88.39,36.737,86.73,36.737C85.198,36.737,83.794,37.812,83.283,39.424L70.9,80.403L58.516,50.978C58.006,49.635,56.857,48.829,55.452,48.694C54.048,48.56,52.771,49.232,52.005,50.441L42.941,64.817L32.09,64.817C30.047,64.817,28.387,66.564,28.387,68.714C28.387,70.863,30.047,72.609,32.09,72.609L44.984,72.609C46.261,72.609,47.409,71.938,48.048,70.863L54.559,60.652L68.219,92.897C68.729,94.241,70.134,95.181,71.538,95.181L71.794,95.181C73.325,95.181,74.602,94.107,75.113,92.494L86.986,52.859L92.986,70.057C93.496,71.535,94.901,72.609,96.433,72.609ZM96.433,72.609"/>
</g>
  <g id="Ultralight-L" transform="matrix(1.0,0.0,0.0,1.0,490.8662425853588,1450.776529631438)">  <path stroke="none" stroke-linejoin="miter" fill-opacity="1" stroke-opacity="1" stroke-linecap="butt" fill-rule="evenodd" stroke-miterlimit="4" fill="#000000" stroke-width="1px" clip-rule="evenodd" stroke-dasharray="none" d="M11.691,70.524C11.431,38.314,37.536,11.949,70.134,11.689C102.212,11.689,128.317,37.794,128.577,69.744C128.707,85.329,122.603,100.005,111.693,111.175C100.784,122.344,86.108,128.449,70.524,128.579L70.134,128.579C38.055,128.579,11.951,102.473,11.691,70.524ZM96.433,72.609L108.178,72.609C110.22,72.609,111.88,70.729,111.88,68.579C111.88,66.43,110.22,64.683,108.178,64.683L98.986,64.683L90.305,39.29C89.794,37.677,88.39,36.737,86.73,36.737C85.198,36.737,83.794,37.812,83.283,39.424L70.9,80.403L58.516,50.978C58.006,49.635,56.857,48.829,55.452,48.694C54.048,48.56,52.771,49.232,52.005,50.441L42.941,64.817L32.09,64.817C30.047,64.817,28.387,66.564,28.387,68.714C28.387,70.863,30.047,72.609,32.09,72.609L44.984,72.609C46.261,72.609,47.409,71.938,48.048,70.863L54.559,60.652L68.219,92.897C68.729,94.241,70.134,95.181,71.538,95.181L71.794,95.181C73.325,95.181,74.602,94.107,75.113,92.494L86.986,52.859L92.986,70.057C93.496,71.535,94.901,72.609,96.433,72.609ZM96.433,72.609"/>
</g>
  <g id="Black-M" transform="matrix(1.0,0.0,0.0,1.0,2880.3127461902004,1036.5115002290702)">  <path stroke="none" stroke-dasharray="none" fill-rule="evenodd" stroke-linecap="butt" stroke-width="1px" stroke-miterlimit="4" stroke-opacity="1" stroke-linejoin="miter" clip-rule="evenodd" fill="#000000" fill-opacity="1" d="M9.063,54.669C8.861,29.701,29.097,9.263,54.367,9.061C79.234,9.061,99.47,29.298,99.672,54.065C99.773,66.147,95.041,77.524,86.584,86.182C78.127,94.841,66.75,99.573,54.669,99.673L54.367,99.673C29.5,99.673,9.264,79.436,9.063,54.669ZM74.754,56.286L83.859,56.286C85.442,56.286,86.729,54.828,86.729,53.162C86.729,51.496,85.442,50.142,83.859,50.142L76.733,50.142L70.004,30.457C69.608,29.207,68.519,28.478,67.233,28.478C66.045,28.478,64.957,29.311,64.561,30.561L54.961,62.328L45.361,39.518C44.966,38.477,44.075,37.852,42.986,37.748C41.898,37.643,40.908,38.164,40.314,39.102L33.288,50.246L24.876,50.246C23.292,50.246,22.006,51.6,22.006,53.266C22.006,54.933,23.292,56.286,24.876,56.286L34.871,56.286C35.861,56.286,36.752,55.766,37.246,54.933L42.294,47.017L52.883,72.014C53.279,73.055,54.367,73.784,55.456,73.784L55.654,73.784C56.841,73.784,57.831,72.951,58.227,71.701L67.431,40.976L72.082,54.308C72.478,55.453,73.567,56.286,74.754,56.286ZM74.754,56.286"/>
</g>
  <g id="Heavy-M" transform="matrix(1.0,0.0,0.0,1.0,2583.6027461902004,1036.5115002290702)">  <path fill="#000000" stroke-width="1px" stroke="none" stroke-linejoin="miter" stroke-dasharray="none" stroke-opacity="1" fill-rule="evenodd" stroke-miterlimit="4" stroke-linecap="butt" fill-opacity="1" clip-rule="evenodd" d="M9.063,54.669C8.861,29.701,29.097,9.263,54.367,9.061C79.234,9.061,99.47,29.298,99.672,54.065C99.773,66.147,95.041,77.524,86.584,86.182C78.127,94.841,66.75,99.573,54.669,99.673L54.367,99.673C29.5,99.673,9.264,79.436,9.063,54.669ZM74.754,56.286L83.859,56.286C85.442,56.286,86.729,54.828,86.729,53.162C86.729,51.496,85.442,50.142,83.859,50.142L76.733,50.142L70.004,30.457C69.608,29.207,68.519,28.478,67.233,28.478C66.045,28.478,64.957,29.311,64.561,30.561L54.961,62.328L45.361,39.518C44.966,38.477,44.075,37.852,42.986,37.748C41.898,37.643,40.908,38.164,40.314,39.102L33.288,50.246L24.876,50.246C23.292,50.246,22.006,51.6,22.006,53.266C22.006,54.933,23.292,56.286,24.876,56.286L34.871,56.286C35.861,56.286,36.752,55.766,37.246,54.933L42.294,47.017L52.883,72.014C53.279,73.055,54.367,73.784,55.456,73.784L55.654,73.784C56.841,73.784,57.831,72.951,58.227,71.701L67.431,40.976L72.082,54.308C72.478,55.453,73.567,56.286,74.754,56.286ZM74.754,56.286"/>
</g>
  <g id="Bold-M" transform="matrix(1.0,0.0,0.0,1.0,2286.8927461902003,1036.5115002290702)">  <path stroke="none" stroke-miterlimit="4" stroke-opacity="1" stroke-linejoin="miter" fill="#000000" stroke-linecap="butt" stroke-width="1px" fill-rule="evenodd" clip-rule="evenodd" stroke-dasharray="none" fill-opacity="1" d="M9.063,54.669C8.861,29.701,29.097,9.263,54.367,9.061C79.234,9.061,99.47,29.298,99.672,54.065C99.773,66.147,95.041,77.524,86.584,86.182C78.127,94.841,66.75,99.573,54.669,99.673L54.367,99.673C29.5,99.673,9.264,79.436,9.063,54.669ZM74.754,56.286L83.859,56.286C85.442,56.286,86.729,54.828,86.729,53.162C86.729,51.496,85.442,50.142,83.859,50.142L76.733,50.142L70.004,30.457C69.608,29.207,68.519,28.478,67.233,28.478C66.045,28.478,64.957,29.311,64.561,30.561L54.961,62.328L45.361,39.518C44.966,38.477,44.075,37.852,42.986,37.748C41.898,37.643,40.908,38.164,40.314,39.102L33.288,50.246L24.876,50.246C23.292,50.246,22.006,51.6,22.006,53.266C22.006,54.933,23.292,56.286,24.876,56.286L34.871,56.286C35.861,56.286,36.752,55.766,37.246,54.933L42.294,47.017L52.883,72.014C53.279,73.055,54.367,73.784,55.456,73.784L55.654,73.784C56.841,73.784,57.831,72.951,58.227,71.701L67.431,40.976L72.082,54.308C72.478,55.453,73.567,56.286,74.754,56.286ZM74.754,56.286"/>
</g>
  <g id="Semibold-M" transform="matrix(1.0,0.0,0.0,1.0,1990.1827461902005,1036.5115002290702)">  <path fill-opacity="1" stroke="none" stroke-miterlimit="4" stroke-linejoin="miter" stroke-width="1px" fill-rule="evenodd" clip-rule="evenodd" stroke-opacity="1" stroke-linecap="butt" stroke-dasharray="none" fill="#000000" d="M9.063,54.669C8.861,29.701,29.097,9.263,54.367,9.061C79.234,9.061,99.47,29.298,99.672,54.065C99.773,66.147,95.041,77.524,86.584,86.182C78.127,94.841,66.75,99.573,54.669,99.673L54.367,99.673C29.5,99.673,9.264,79.436,9.063,54.669ZM74.754,56.286L83.859,56.286C85.442,56.286,86.729,54.828,86.729,53.162C86.729,51.496,85.442,50.142,83.859,50.142L76.733,50.142L70.004,30.457C69.608,29.207,68.519,28.478,67.233,28.478C66.045,28.478,64.957,29.311,64.561,30.561L54.961,62.328L45.361,39.518C44.966,38.477,44.075,37.852,42.986,37.748C41.898,37.643,40.908,38.164,40.314,39.102L33.288,50.246L24.876,50.246C23.292,50.246,22.006,51.6,22.006,53.266C22.006,54.933,23.292,56.286,24.876,56.286L34.871,56.286C35.861,56.286,36.752,55.766,37.246,54.933L42.294,47.017L52.883,72.014C53.279,73.055,54.367,73.784,55.456,73.784L55.654,73.784C56.841,73.784,57.831,72.951,58.227,71.701L67.431,40.976L72.082,54.308C72.478,55.453,73.567,56.286,74.754,56.286ZM74.754,56.286"/>
</g>
  <g id="Medium-M" transform="matrix(1.0,0.0,0.0,1.0,1693.4727461902005,1036.5115002290702)">  <path fill="#000000" fill-opacity="1" stroke="none" clip-rule="evenodd" stroke-dasharray="none" fill-rule="evenodd" stroke-width="1px" stroke-linecap="butt" stroke-linejoin="miter" stroke-opacity="1" stroke-miterlimit="4" d="M9.063,54.669C8.861,29.701,29.097,9.263,54.367,9.061C79.234,9.061,99.47,29.298,99.672,54.065C99.773,66.147,95.041,77.524,86.584,86.182C78.127,94.841,66.75,99.573,54.669,99.673L54.367,99.673C29.5,99.673,9.264,79.436,9.063,54.669ZM74.754,56.286L83.859,56.286C85.442,56.286,86.729,54.828,86.729,53.162C86.729,51.496,85.442,50.142,83.859,50.142L76.733,50.142L70.004,30.457C69.608,29.207,68.519,28.478,67.233,28.478C66.045,28.478,64.957,29.311,64.561,30.561L54.961,62.328L45.361,39.518C44.966,38.477,44.075,37.852,42.986,37.748C41.898,37.643,40.908,38.164,40.314,39.102L33.288,50.246L24.876,50.246C23.292,50.246,22.006,51.6,22.006,53.266C22.006,54.933,23.292,56.286,24.876,56.286L34.871,56.286C35.861,56.286,36.752,55.766,37.246,54.933L42.294,47.017L52.883,72.014C53.279,73.055,54.367,73.784,55.456,73.784L55.654,73.784C56.841,73.784,57.831,72.951,58.227,71.701L67.431,40.976L72.082,54.308C72.478,55.453,73.567,56.286,74.754,56.286ZM74.754,56.286"/>
</g>
  <g id="Regular-M" transform="matrix(1.0,0.0,0.0,1.0,1396.7627461902005,1036.5115002290702)">  <path stroke-linejoin="miter" stroke-miterlimit="4" stroke="none" clip-rule="evenodd" fill-opacity="1" stroke-opacity="1" stroke-dasharray="none" fill-rule="evenodd" stroke-width="1px" fill="#000000" stroke-linecap="butt" d="M9.063,54.669C8.861,29.701,29.097,9.263,54.367,9.061C79.234,9.061,99.47,29.298,99.672,54.065C99.773,66.147,95.041,77.524,86.584,86.182C78.127,94.841,66.75,99.573,54.669,99.673L54.367,99.673C29.5,99.673,9.264,79.436,9.063,54.669ZM74.754,56.286L83.859,56.286C85.442,56.286,86.729,54.828,86.729,53.162C86.729,51.496,85.442,50.142,83.859,50.142L76.733,50.142L70.004,30.457C69.608,29.207,68.519,28.478,67.233,28.478C66.045,28.478,64.957,29.311,64.561,30.561L54.961,62.328L45.361,39.518C44.966,38.477,44.075,37.852,42.986,37.748C41.898,37.643,40.908,38.164,40.314,39.102L33.288,50.246L24.876,50.246C23.292,50.246,22.006,51.6,22.006,53.266C22.006,54.933,23.292,56.286,24.876,56.286L34.871,56.286C35.861,56.286,36.752,55.766,37.246,54.933L42.294,47.017L52.883,72.014C53.279,73.055,54.367,73.784,55.456,73.784L55.654,73.784C56.841,73.784,57.831,72.951,58.227,71.701L67.431,40.976L72.082,54.308C72.478,55.453,73.567,56.286,74.754,56.286ZM74.754,56.286"/>
</g>
  <g id="Light-M" transform="matrix(1.0,0.0,0.0,1.0,1100.0527461902007,1036.5115002290702)">  <path clip-rule="evenodd" stroke-linejoin="miter" stroke-linecap="butt" fill="#000000" stroke-dasharray="none" stroke-miterlimit="4" stroke-width="1px" fill-opacity="1" stroke-opacity="1" fill-rule="evenodd" stroke="none" d="M9.063,54.669C8.861,29.701,29.097,9.263,54.367,9.061C79.234,9.061,99.47,29.298,99.672,54.065C99.773,66.147,95.041,77.524,86.584,86.182C78.127,94.841,66.75,99.573,54.669,99.673L54.367,99.673C29.5,99.673,9.264,79.436,9.063,54.669ZM74.754,56.286L83.859,56.286C85.442,56.286,86.729,54.828,86.729,53.162C86.729,51.496,85.442,50.142,83.859,50.142L76.733,50.142L70.004,30.457C69.608,29.207,68.519,28.478,67.233,28.478C66.045,28.478,64.957,29.311,64.561,30.561L54.961,62.328L45.361,39.518C44.966,38.477,44.075,37.852,42.986,37.748C41.898,37.643,40.908,38.164,40.314,39.102L33.288,50.246L24.876,50.246C23.292,50.246,22.006,51.6,22.006,53.266C22.006,54.933,23.292,56.286,24.876,56.286L34.871,56.286C35.861,56.286,36.752,55.766,37.246,54.933L42.294,47.017L52.883,72.014C53.279,73.055,54.367,73.784,55.456,73.784L55.654,73.784C56.841,73.784,57.831,72.951,58.227,71.701L67.431,40.976L72.082,54.308C72.478,55.453,73.567,56.286,74.754,56.286ZM74.754,56.286"/>
</g>
  <g id="Thin-M" transform="matrix(1.0,0.0,0.0,1.0,803.3427461902006,1036.5115002290702)">  <path clip-rule="evenodd" stroke="none" fill="#000000" stroke-miterlimit="4" stroke-linejoin="miter" stroke-opacity="1" stroke-width="1px" stroke-linecap="butt" stroke-dasharray="none" fill-rule="evenodd" fill-opacity="1" d="M9.063,54.669C8.861,29.701,29.097,9.263,54.367,9.061C79.234,9.061,99.47,29.298,99.672,54.065C99.773,66.147,95.041,77.524,86.584,86.182C78.127,94.841,66.75,99.573,54.669,99.673L54.367,99.673C29.5,99.673,9.264,79.436,9.063,54.669ZM74.754,56.286L83.859,56.286C85.442,56.286,86.729,54.828,86.729,53.162C86.729,51.496,85.442,50.142,83.859,50.142L76.733,50.142L70.004,30.457C69.608,29.207,68.519,28.478,67.233,28.478C66.045,28.478,64.957,29.311,64.561,30.561L54.961,62.328L45.361,39.518C44.966,38.477,44.075,37.852,42.986,37.748C41.898,37.643,40.908,38.164,40.314,39.102L33.288,50.246L24.876,50.246C23.292,50.246,22.006,51.6,22.006,53.266C22.006,54.933,23.292,56.286,24.876,56.286L34.871,56.286C35.861,56.286,36.752,55.766,37.246,54.933L42.294,47.017L52.883,72.014C53.279,73.055,54.367,73.784,55.456,73.784L55.654,73.784C56.841,73.784,57.831,72.951,58.227,71.701L67.431,40.976L72.082,54.308C72.478,55.453,73.567,56.286,74.754,56.286ZM74.754,56.286"/>
</g>
  <g id="Ultralight-M" transform="matrix(1.0,0.0,0.0,1.0,506.63274619020063,1036.5115002290702)">  <path stroke="none" stroke-linejoin="miter" fill-opacity="1" stroke-opacity="1" stroke-linecap="butt" fill-rule="evenodd" stroke-miterlimit="4" fill="#000000" stroke-width="1px" clip-rule="evenodd" stroke-dasharray="none" d="M9.063,54.669C8.861,29.701,29.097,9.263,54.367,9.061C79.234,9.061,99.47,29.298,99.672,54.065C99.773,66.147,95.041,77.524,86.584,86.182C78.127,94.841,66.75,99.573,54.669,99.673L54.367,99.673C29.5,99.673,9.264,79.436,9.063,54.669ZM74.754,56.286L83.859,56.286C85.442,56.286,86.729,54.828,86.729,53.162C86.729,51.496,85.442,50.142,83.859,50.142L76.733,50.142L70.004,30.457C69.608,29.207,68.519,28.478,67.233,28.478C66.045,28.478,64.957,29.311,64.561,30.561L54.961,62.328L45.361,39.518C44.966,38.477,44.075,37.852,42.986,37.748C41.898,37.643,40.908,38.164,40.314,39.102L33.288,50.246L24.876,50.246C23.292,50.246,22.006,51.6,22.006,53.266C22.006,54.933,23.292,56.286,24.876,56.286L34.871,56.286C35.861,56.286,36.752,55.766,37.246,54.933L42.294,47.017L52.883,72.014C53.279,73.055,54.367,73.784,55.456,73.784L55.654,73.784C56.841,73.784,57.831,72.951,58.227,71.701L67.431,40.976L72.082,54.308C72.478,55.453,73.567,56.286,74.754,56.286ZM74.754,56.286"/>
</g>
  <g id="Black-S" transform="matrix(1.0,0.0,0.0,1.0,2892.110440266927,618.2855989176433)">  <path stroke="none" stroke-dasharray="none" fill-rule="evenodd" stroke-linecap="butt" stroke-width="1px" stroke-miterlimit="4" stroke-opacity="1" stroke-linejoin="miter" clip-rule="evenodd" fill="#000000" fill-opacity="1" d="M7.096,42.806C6.938,23.256,22.783,7.253,42.57,7.095C62.041,7.095,77.885,22.94,78.043,42.333C78.122,51.793,74.417,60.701,67.795,67.481C61.174,74.26,52.265,77.965,42.806,78.044L42.57,78.044C23.099,78.044,7.254,62.199,7.096,42.806ZM58.532,44.072L65.661,44.072C66.901,44.072,67.909,42.931,67.909,41.626C67.909,40.321,66.901,39.261,65.661,39.261L60.082,39.261L54.813,23.848C54.503,22.869,53.65,22.298,52.643,22.298C51.713,22.298,50.861,22.951,50.551,23.929L43.035,48.802L35.518,30.943C35.208,30.127,34.511,29.638,33.658,29.556C32.806,29.475,32.031,29.883,31.566,30.617L26.064,39.342L19.478,39.342C18.238,39.342,17.231,40.403,17.231,41.708C17.231,43.012,18.238,44.072,19.478,44.072L27.304,44.072C28.079,44.072,28.776,43.665,29.164,43.012L33.116,36.815L41.407,56.387C41.717,57.202,42.57,57.773,43.422,57.773L43.577,57.773C44.507,57.773,45.282,57.121,45.592,56.142L52.798,32.084L56.44,42.523C56.75,43.42,57.603,44.072,58.532,44.072ZM58.532,44.072"/>
</g>
  <g id="Heavy-S" transform="matrix(1.0,0.0,0.0,1.0,2595.400440266927,618.2855989176433)">  <path fill="#000000" stroke-width="1px" stroke="none" stroke-linejoin="miter" stroke-dasharray="none" stroke-opacity="1" fill-rule="evenodd" stroke-miterlimit="4" stroke-linecap="butt" fill-opacity="1" clip-rule="evenodd" d="M7.096,42.806C6.938,23.256,22.783,7.253,42.57,7.095C62.041,7.095,77.885,22.94,78.043,42.333C78.122,51.793,74.417,60.701,67.795,67.481C61.174,74.26,52.265,77.965,42.806,78.044L42.57,78.044C23.099,78.044,7.254,62.199,7.096,42.806ZM58.532,44.072L65.661,44.072C66.901,44.072,67.909,42.931,67.909,41.626C67.909,40.321,66.901,39.261,65.661,39.261L60.082,39.261L54.813,23.848C54.503,22.869,53.65,22.298,52.643,22.298C51.713,22.298,50.861,22.951,50.551,23.929L43.035,48.802L35.518,30.943C35.208,30.127,34.511,29.638,33.658,29.556C32.806,29.475,32.031,29.883,31.566,30.617L26.064,39.342L19.478,39.342C18.238,39.342,17.231,40.403,17.231,41.708C17.231,43.012,18.238,44.072,19.478,44.072L27.304,44.072C28.079,44.072,28.776,43.665,29.164,43.012L33.116,36.815L41.407,56.387C41.717,57.202,42.57,57.773,43.422,57.773L43.577,57.773C44.507,57.773,45.282,57.121,45.592,56.142L52.798,32.084L56.44,42.523C56.75,43.42,57.603,44.072,58.532,44.072ZM58.532,44.072"/>
</g>
  <g id="Bold-S" transform="matrix(1.0,0.0,0.0,1.0,2298.690440266927,618.2855989176433)">  <path stroke="none" stroke-miterlimit="4" stroke-opacity="1" stroke-linejoin="miter" fill="#000000" stroke-linecap="butt" stroke-width="1px" fill-rule="evenodd" clip-rule="evenodd" stroke-dasharray="none" fill-opacity="1" d="M7.096,42.806C6.938,23.256,22.783,7.253,42.57,7.095C62.041,7.095,77.885,22.94,78.043,42.333C78.122,51.793,74.417,60.701,67.795,67.481C61.174,74.26,52.265,77.965,42.806,78.044L42.57,78.044C23.099,78.044,7.254,62.199,7.096,42.806ZM58.532,44.072L65.661,44.072C66.901,44.072,67.909,42.931,67.909,41.626C67.909,40.321,66.901,39.261,65.661,39.261L60.082,39.261L54.813,23.848C54.503,22.869,53.65,22.298,52.643,22.298C51.713,22.298,50.861,22.951,50.551,23.929L43.035,48.802L35.518,30.943C35.208,30.127,34.511,29.638,33.658,29.556C32.806,29.475,32.031,29.883,31.566,30.617L26.064,39.342L19.478,39.342C18.238,39.342,17.231,40.403,17.231,41.708C17.231,43.012,18.238,44.072,19.478,44.072L27.304,44.072C28.079,44.072,28.776,43.665,29.164,43.012L33.116,36.815L41.407,56.387C41.717,57.202,42.57,57.773,43.422,57.773L43.577,57.773C44.507,57.773,45.282,57.121,45.592,56.142L52.798,32.084L56.44,42.523C56.75,43.42,57.603,44.072,58.532,44.072ZM58.532,44.072"/>
</g>
  <g id="Semibold-S" transform="matrix(1.0,0.0,0.0,1.0,2001.980440266927,618.2855989176433)">  <path fill-opacity="1" stroke="none" stroke-miterlimit="4" stroke-linejoin="miter" stroke-width="1px" fill-rule="evenodd" clip-rule="evenodd" stroke-opacity="1" stroke-linecap="butt" stroke-dasharray="none" fill="#000000" d="M7.096,42.806C6.938,23.256,22.783,7.253,42.57,7.095C62.041,7.095,77.885,22.94,78.043,42.333C78.122,51.793,74.417,60.701,67.795,67.481C61.174,74.26,52.265,77.965,42.806,78.044L42.57,78.044C23.099,78.044,7.254,62.199,7.096,42.806ZM58.532,44.072L65.661,44.072C66.901,44.072,67.909,42.931,67.909,41.626C67.909,40.321,66.901,39.261,65.661,39.261L60.082,39.261L54.813,23.848C54.503,22.869,53.65,22.298,52.643,22.298C51.713,22.298,50.861,22.951,50.551,23.929L43.035,48.802L35.518,30.943C35.208,30.127,34.511,29.638,33.658,29.556C32.806,29.475,32.031,29.883,31.566,30.617L26.064,39.342L19.478,39.342C18.238,39.342,17.231,40.403,17.231,41.708C17.231,43.012,18.238,44.072,19.478,44.072L27.304,44.072C28.079,44.072,28.776,43.665,29.164,43.012L33.116,36.815L41.407,56.387C41.717,57.202,42.57,57.773,43.422,57.773L43.577,57.773C44.507,57.773,45.282,57.121,45.592,56.142L52.798,32.084L56.44,42.523C56.75,43.42,57.603,44.072,58.532,44.072ZM58.532,44.072"/>
</g>
  <g id="Medium-S" transform="matrix(1.0,0.0,0.0,1.0,1705.270440266927,618.2855989176433)">  <path fill="#000000" fill-opacity="1" stroke="none" clip-rule="evenodd" stroke-dasharray="none" fill-rule="evenodd" stroke-width="1px" stroke-linecap="butt" stroke-linejoin="miter" stroke-opacity="1" stroke-miterlimit="4" d="M7.096,42.806C6.938,23.256,22.783,7.253,42.57,7.095C62.041,7.095,77.885,22.94,78.043,42.333C78.122,51.793,74.417,60.701,67.795,67.481C61.174,74.26,52.265,77.965,42.806,78.044L42.57,78.044C23.099,78.044,7.254,62.199,7.096,42.806ZM58.532,44.072L65.661,44.072C66.901,44.072,67.909,42.931,67.909,41.626C67.909,40.321,66.901,39.261,65.661,39.261L60.082,39.261L54.813,23.848C54.503,22.869,53.65,22.298,52.643,22.298C51.713,22.298,50.861,22.951,50.551,23.929L43.035,48.802L35.518,30.943C35.208,30.127,34.511,29.638,33.658,29.556C32.806,29.475,32.031,29.883,31.566,30.617L26.064,39.342L19.478,39.342C18.238,39.342,17.231,40.403,17.231,41.708C17.231,43.012,18.238,44.072,19.478,44.072L27.304,44.072C28.079,44.072,28.776,43.665,29.164,43.012L33.116,36.815L41.407,56.387C41.717,57.202,42.57,57.773,43.422,57.773L43.577,57.773C44.507,57.773,45.282,57.121,45.592,56.142L52.798,32.084L56.44,42.523C56.75,43.42,57.603,44.072,58.532,44.072ZM58.532,44.072"/>
</g>
  <g id="Regular-S" transform="matrix(1.0,0.0,0.0,1.0,1408.560440266927,618.2855989176433)">  <path stroke-linejoin="miter" stroke-miterlimit="4" stroke="none" clip-rule="evenodd" fill-opacity="1" stroke-opacity="1" stroke-dasharray="none" fill-rule="evenodd" stroke-width="1px" fill="#000000" stroke-linecap="butt" d="M7.096,42.806C6.938,23.256,22.783,7.253,42.57,7.095C62.041,7.095,77.885,22.94,78.043,42.333C78.122,51.793,74.417,60.701,67.795,67.481C61.174,74.26,52.265,77.965,42.806,78.044L42.57,78.044C23.099,78.044,7.254,62.199,7.096,42.806ZM58.532,44.072L65.661,44.072C66.901,44.072,67.909,42.931,67.909,41.626C67.909,40.321,66.901,39.261,65.661,39.261L60.082,39.261L54.813,23.848C54.503,22.869,53.65,22.298,52.643,22.298C51.713,22.298,50.861,22.951,50.551,23.929L43.035,48.802L35.518,30.943C35.208,30.127,34.511,29.638,33.658,29.556C32.806,29.475,32.031,29.883,31.566,30.617L26.064,39.342L19.478,39.342C18.238,39.342,17.231,40.403,17.231,41.708C17.231,43.012,18.238,44.072,19.478,44.072L27.304,44.072C28.079,44.072,28.776,43.665,29.164,43.012L33.116,36.815L41.407,56.387C41.717,57.202,42.57,57.773,43.422,57.773L43.577,57.773C44.507,57.773,45.282,57.121,45.592,56.142L52.798,32.084L56.44,42.523C56.75,43.42,57.603,44.072,58.532,44.072ZM58.532,44.072"/>
</g>
  <g id="Light-S" transform="matrix(1.0,0.0,0.0,1.0,1111.850440266927,618.2855989176433)">  <path clip-rule="evenodd" stroke-linejoin="miter" stroke-linecap="butt" fill="#000000" stroke-dasharray="none" stroke-miterlimit="4" stroke-width="1px" fill-opacity="1" stroke-opacity="1" fill-rule="evenodd" stroke="none" d="M7.096,42.806C6.938,23.256,22.783,7.253,42.57,7.095C62.041,7.095,77.885,22.94,78.043,42.333C78.122,51.793,74.417,60.701,67.795,67.481C61.174,74.26,52.265,77.965,42.806,78.044L42.57,78.044C23.099,78.044,7.254,62.199,7.096,42.806ZM58.532,44.072L65.661,44.072C66.901,44.072,67.909,42.931,67.909,41.626C67.909,40.321,66.901,39.261,65.661,39.261L60.082,39.261L54.813,23.848C54.503,22.869,53.65,22.298,52.643,22.298C51.713,22.298,50.861,22.951,50.551,23.929L43.035,48.802L35.518,30.943C35.208,30.127,34.511,29.638,33.658,29.556C32.806,29.475,32.031,29.883,31.566,30.617L26.064,39.342L19.478,39.342C18.238,39.342,17.231,40.403,17.231,41.708C17.231,43.012,18.238,44.072,19.478,44.072L27.304,44.072C28.079,44.072,28.776,43.665,29.164,43.012L33.116,36.815L41.407,56.387C41.717,57.202,42.57,57.773,43.422,57.773L43.577,57.773C44.507,57.773,45.282,57.121,45.592,56.142L52.798,32.084L56.44,42.523C56.75,43.42,57.603,44.072,58.532,44.072ZM58.532,44.072"/>
</g>
  <g id="Thin-S" transform="matrix(1.0,0.0,0.0,1.0,815.1404402669272,618.2855989176433)">  <path clip-rule="evenodd" stroke="none" fill="#000000" stroke-miterlimit="4" stroke-linejoin="miter" stroke-opacity="1" stroke-width="1px" stroke-linecap="butt" stroke-dasharray="none" fill-rule="evenodd" fill-opacity="1" d="M7.096,42.806C6.938,23.256,22.783,7.253,42.57,7.095C62.041,7.095,77.885,22.94,78.043,42.333C78.122,51.793,74.417,60.701,67.795,67.481C61.174,74.26,52.265,77.965,42.806,78.044L42.57,78.044C23.099,78.044,7.254,62.199,7.096,42.806ZM58.532,44.072L65.661,44.072C66.901,44.072,67.909,42.931,67.909,41.626C67.909,40.321,66.901,39.261,65.661,39.261L60.082,39.261L54.813,23.848C54.503,22.869,53.65,22.298,52.643,22.298C51.713,22.298,50.861,22.951,50.551,23.929L43.035,48.802L35.518,30.943C35.208,30.127,34.511,29.638,33.658,29.556C32.806,29.475,32.031,29.883,31.566,30.617L26.064,39.342L19.478,39.342C18.238,39.342,17.231,40.403,17.231,41.708C17.231,43.012,18.238,44.072,19.478,44.072L27.304,44.072C28.079,44.072,28.776,43.665,29.164,43.012L33.116,36.815L41.407,56.387C41.717,57.202,42.57,57.773,43.422,57.773L43.577,57.773C44.507,57.773,45.282,57.121,45.592,56.142L52.798,32.084L56.44,42.523C56.75,43.42,57.603,44.072,58.532,44.072ZM58.532,44.072"/>
</g>
  <g id="Ultralight-S" transform="matrix(1.0,0.0,0.0,1.0,518.4304402669271,618.2855989176433)">  <path stroke="none" stroke-linejoin="miter" fill-opacity="1" stroke-opacity="1" stroke-linecap="butt" fill-rule="evenodd" stroke-miterlimit="4" fill="#000000" stroke-width="1px" clip-rule="evenodd" stroke-dasharray="none" d="M7.096,42.806C6.938,23.256,22.783,7.253,42.57,7.095C62.041,7.095,77.885,22.94,78.043,42.333C78.122,51.793,74.417,60.701,67.795,67.481C61.174,74.26,52.265,77.965,42.806,78.044L42.57,78.044C23.099,78.044,7.254,62.199,7.096,42.806ZM58.532,44.072L65.661,44.072C66.901,44.072,67.909,42.931,67.909,41.626C67.909,40.321,66.901,39.261,65.661,39.261L60.082,39.261L54.813,23.848C54.503,22.869,53.65,22.298,52.643,22.298C51.713,22.298,50.861,22.951,50.551,23.929L43.035,48.802L35.518,30.943C35.208,30.127,34.511,29.638,33.658,29.556C32.806,29.475,32.031,29.883,31.566,30.617L26.064,39.342L19.478,39.342C18.238,39.342,17.231,40.403,17.231,41.708C17.231,43.012,18.238,44.072,19.478,44.072L27.304,44.072C28.079,44.072,28.776,43.665,29.164,43.012L33.116,36.815L41.407,56.387C41.717,57.202,42.57,57.773,43.422,57.773L43.577,57.773C44.507,57.773,45.282,57.121,45.592,56.142L52.798,32.084L56.44,42.523C56.75,43.42,57.603,44.072,58.532,44.072ZM58.532,44.072"/>
</g>
 </g>
</svg>
